G75*
%MOIN*%
%OFA0B0*%
%FSLAX25Y25*%
%IPPOS*%
%LPD*%
%AMOC8*
5,1,8,0,0,1.08239X$1,22.5*
%
%ADD10C,0.07677*%
%ADD11C,0.06000*%
%ADD12C,0.02800*%
%ADD13C,0.00800*%
D10*
X0088374Y0210052D03*
X0094279Y0219895D03*
X0100185Y0210052D03*
X0106090Y0219895D03*
X0111996Y0210052D03*
X0117901Y0219895D03*
X0123807Y0210052D03*
X0129712Y0219895D03*
X0135618Y0210052D03*
X0141523Y0219895D03*
X0147429Y0210052D03*
X0153334Y0219895D03*
X0159240Y0210052D03*
X0165145Y0219895D03*
X0171051Y0210052D03*
X0176956Y0219895D03*
X0182862Y0210052D03*
X0176956Y0233674D03*
X0171051Y0243517D03*
X0165145Y0233674D03*
X0159240Y0243517D03*
X0153334Y0233674D03*
X0147429Y0243517D03*
X0141523Y0233674D03*
X0135618Y0243517D03*
X0129712Y0233674D03*
X0123807Y0243517D03*
X0117901Y0233674D03*
X0111996Y0243517D03*
X0106090Y0233674D03*
X0100185Y0243517D03*
X0094279Y0233674D03*
X0088374Y0243517D03*
X0182862Y0243517D03*
D11*
X0132035Y0147602D03*
X0122035Y0147602D03*
X0122035Y0137602D03*
X0122035Y0127602D03*
X0132035Y0127602D03*
X0132035Y0137602D03*
X0132035Y0117602D03*
X0132035Y0107602D03*
X0122035Y0107602D03*
X0122035Y0117602D03*
X0122035Y0097602D03*
X0132035Y0097602D03*
X0132035Y0087602D03*
X0122035Y0087602D03*
X0193285Y0067602D03*
X0193285Y0057602D03*
X0203285Y0057602D03*
X0203285Y0067602D03*
X0213285Y0067602D03*
X0213285Y0057602D03*
D12*
X0220785Y0056977D03*
X0220785Y0066352D03*
X0203285Y0085102D03*
X0199535Y0085102D03*
X0208910Y0101977D03*
X0208910Y0105727D03*
X0220785Y0096352D03*
X0192660Y0123227D03*
X0182035Y0129477D03*
X0179535Y0131977D03*
X0179535Y0126977D03*
X0179535Y0123227D03*
X0170785Y0121352D03*
X0168285Y0123852D03*
X0168285Y0113852D03*
X0157660Y0113852D03*
X0157660Y0110102D03*
X0160785Y0102602D03*
X0158285Y0100102D03*
X0160785Y0097602D03*
X0158910Y0094477D03*
X0159535Y0090727D03*
X0163285Y0090727D03*
X0167035Y0090727D03*
X0166410Y0083227D03*
X0170160Y0081977D03*
X0176410Y0082602D03*
X0180160Y0082602D03*
X0175785Y0070102D03*
X0185160Y0070102D03*
X0185160Y0065727D03*
X0185160Y0061352D03*
X0178910Y0056977D03*
X0173910Y0056977D03*
X0157660Y0056977D03*
X0155785Y0070727D03*
X0145160Y0080727D03*
X0138910Y0070727D03*
X0133910Y0080102D03*
X0130160Y0078227D03*
X0122660Y0078227D03*
X0120160Y0078227D03*
X0117660Y0078227D03*
X0111410Y0083227D03*
X0107035Y0088227D03*
X0103285Y0088852D03*
X0100785Y0088852D03*
X0100785Y0086352D03*
X0103285Y0086352D03*
X0113285Y0096977D03*
X0107035Y0101352D03*
X0095160Y0098852D03*
X0095160Y0104477D03*
X0091410Y0115102D03*
X0087660Y0115102D03*
X0098285Y0130102D03*
X0103285Y0130727D03*
X0102660Y0143227D03*
X0105160Y0147602D03*
X0105160Y0151977D03*
X0113285Y0156352D03*
X0110160Y0166352D03*
X0105160Y0164477D03*
X0100785Y0168852D03*
X0097035Y0174477D03*
X0100785Y0175727D03*
X0087660Y0178227D03*
X0083910Y0173227D03*
X0075160Y0178227D03*
X0071410Y0173227D03*
X0067660Y0173227D03*
X0063910Y0173227D03*
X0061410Y0168852D03*
X0055785Y0167602D03*
X0053910Y0178227D03*
X0057035Y0190727D03*
X0057035Y0193227D03*
X0064535Y0193227D03*
X0064535Y0195727D03*
X0064535Y0198227D03*
X0063285Y0206977D03*
X0063285Y0209477D03*
X0051410Y0201352D03*
X0050160Y0218227D03*
X0054535Y0227602D03*
X0057035Y0227602D03*
X0075785Y0198227D03*
X0075785Y0195727D03*
X0075785Y0193227D03*
X0088285Y0193227D03*
X0088285Y0195727D03*
X0088285Y0198227D03*
X0102660Y0192602D03*
X0102660Y0190102D03*
X0106410Y0200727D03*
X0112035Y0191352D03*
X0112035Y0188852D03*
X0117660Y0184477D03*
X0125785Y0176352D03*
X0125785Y0173852D03*
X0125785Y0171352D03*
X0115160Y0171352D03*
X0115160Y0173852D03*
X0125160Y0156977D03*
X0116410Y0144477D03*
X0113910Y0138227D03*
X0115160Y0130102D03*
X0113910Y0121352D03*
X0090160Y0138227D03*
X0090160Y0141352D03*
X0085785Y0135102D03*
X0083285Y0137602D03*
X0080160Y0139477D03*
X0077660Y0146352D03*
X0073285Y0150727D03*
X0068910Y0151352D03*
X0066410Y0154477D03*
X0067660Y0143852D03*
X0072660Y0143852D03*
X0075160Y0136352D03*
X0082035Y0153852D03*
X0077660Y0158227D03*
X0074535Y0168227D03*
X0050785Y0150727D03*
X0050785Y0146352D03*
X0050785Y0141977D03*
X0066410Y0118227D03*
X0071410Y0110727D03*
X0071410Y0105102D03*
X0074535Y0098852D03*
X0074535Y0095102D03*
X0074535Y0091352D03*
X0078285Y0096352D03*
X0087660Y0091352D03*
X0091410Y0092602D03*
X0082035Y0080102D03*
X0082660Y0075102D03*
X0082660Y0071977D03*
X0078910Y0071977D03*
X0078910Y0075102D03*
X0068910Y0059477D03*
X0066410Y0059477D03*
X0063910Y0059477D03*
X0063910Y0056352D03*
X0066410Y0056352D03*
X0068910Y0056352D03*
X0057660Y0070727D03*
X0053910Y0070727D03*
X0050160Y0070727D03*
X0052035Y0083852D03*
X0054535Y0095727D03*
X0054535Y0100102D03*
X0054535Y0104477D03*
X0054535Y0108852D03*
X0054535Y0113227D03*
X0091410Y0057602D03*
X0093910Y0057602D03*
X0103285Y0067602D03*
X0127035Y0059477D03*
X0129535Y0059477D03*
X0129535Y0056977D03*
X0127035Y0056977D03*
X0138910Y0091352D03*
X0145785Y0096352D03*
X0145785Y0108227D03*
X0140785Y0112602D03*
X0145160Y0121352D03*
X0137035Y0133852D03*
X0148285Y0144477D03*
X0151410Y0151352D03*
X0155160Y0150727D03*
X0160785Y0155102D03*
X0165160Y0155102D03*
X0169535Y0155102D03*
X0165160Y0160727D03*
X0160785Y0160727D03*
X0156410Y0160727D03*
X0158285Y0164477D03*
X0156410Y0168227D03*
X0156410Y0174477D03*
X0152035Y0179477D03*
X0148285Y0179477D03*
X0144535Y0179477D03*
X0140785Y0179477D03*
X0143285Y0160102D03*
X0148285Y0160102D03*
X0146410Y0152602D03*
X0142660Y0152602D03*
X0137660Y0156352D03*
X0155160Y0139477D03*
X0156410Y0135727D03*
X0161410Y0133227D03*
X0169535Y0133227D03*
X0174535Y0133227D03*
X0181410Y0144477D03*
X0181410Y0148227D03*
X0181410Y0152602D03*
X0189535Y0155727D03*
X0194535Y0155727D03*
X0194535Y0158227D03*
X0203285Y0151977D03*
X0208910Y0150102D03*
X0213285Y0141977D03*
X0213285Y0139477D03*
X0198910Y0133852D03*
X0179535Y0110102D03*
X0179535Y0106352D03*
X0179535Y0165102D03*
X0172348Y0172602D03*
X0172348Y0177602D03*
X0167348Y0177602D03*
X0167348Y0172602D03*
X0160785Y0184477D03*
X0157660Y0200727D03*
X0177035Y0199477D03*
X0177035Y0188227D03*
X0200160Y0208852D03*
X0202660Y0208852D03*
X0209535Y0203227D03*
X0212035Y0203227D03*
X0219535Y0213852D03*
X0212035Y0215102D03*
X0209535Y0215102D03*
X0202660Y0221352D03*
X0200160Y0221352D03*
X0213910Y0235102D03*
X0216410Y0235102D03*
D13*
X0048685Y0216449D02*
X0048685Y0054252D01*
X0062757Y0054252D01*
X0061610Y0055399D01*
X0061610Y0057304D01*
X0062220Y0057914D01*
X0061610Y0058524D01*
X0061610Y0060429D01*
X0062957Y0061777D01*
X0064863Y0061777D01*
X0065160Y0061479D01*
X0065457Y0061777D01*
X0067363Y0061777D01*
X0067660Y0061479D01*
X0067957Y0061777D01*
X0069863Y0061777D01*
X0071210Y0060429D01*
X0071210Y0058524D01*
X0070600Y0057914D01*
X0071210Y0057304D01*
X0071210Y0055399D01*
X0070063Y0054252D01*
X0191182Y0054252D01*
X0191076Y0054295D01*
X0189979Y0055392D01*
X0189385Y0056826D01*
X0189385Y0058377D01*
X0189979Y0059811D01*
X0191076Y0060908D01*
X0192509Y0061502D01*
X0194061Y0061502D01*
X0195494Y0060908D01*
X0196591Y0059811D01*
X0197185Y0058377D01*
X0197185Y0056826D01*
X0196591Y0055392D01*
X0195494Y0054295D01*
X0195389Y0054252D01*
X0222550Y0054252D01*
X0222550Y0055489D01*
X0221738Y0054677D01*
X0219832Y0054677D01*
X0218485Y0056024D01*
X0218485Y0057929D01*
X0219832Y0059277D01*
X0221738Y0059277D01*
X0222550Y0058464D01*
X0222550Y0279298D01*
X0048685Y0279298D01*
X0048685Y0220004D01*
X0049207Y0220527D01*
X0051113Y0220527D01*
X0052460Y0219179D01*
X0052460Y0217274D01*
X0051113Y0215927D01*
X0049207Y0215927D01*
X0048685Y0216449D01*
X0048685Y0216296D02*
X0048838Y0216296D01*
X0048685Y0215498D02*
X0092512Y0215498D01*
X0093337Y0215156D02*
X0095222Y0215156D01*
X0096963Y0215878D01*
X0098296Y0217211D01*
X0099018Y0218952D01*
X0099018Y0220838D01*
X0098296Y0222579D01*
X0096963Y0223912D01*
X0095222Y0224634D01*
X0093337Y0224634D01*
X0091595Y0223912D01*
X0090262Y0222579D01*
X0089541Y0220838D01*
X0089541Y0218952D01*
X0090262Y0217211D01*
X0091595Y0215878D01*
X0093337Y0215156D01*
X0092025Y0213102D02*
X0096533Y0213102D01*
X0096168Y0212737D02*
X0095446Y0210995D01*
X0095446Y0209110D01*
X0093112Y0209110D01*
X0092391Y0207368D01*
X0091058Y0206035D01*
X0089316Y0205314D01*
X0087431Y0205314D01*
X0085690Y0206035D01*
X0084357Y0207368D01*
X0083635Y0209110D01*
X0048685Y0209110D01*
X0048685Y0209908D02*
X0083635Y0209908D01*
X0083635Y0209110D02*
X0083635Y0210995D01*
X0084357Y0212737D01*
X0085690Y0214070D01*
X0087431Y0214791D01*
X0089316Y0214791D01*
X0091058Y0214070D01*
X0092391Y0212737D01*
X0093112Y0210995D01*
X0093112Y0209110D01*
X0093112Y0209908D02*
X0095446Y0209908D01*
X0095446Y0209110D02*
X0096168Y0207368D01*
X0097501Y0206035D01*
X0099242Y0205314D01*
X0101127Y0205314D01*
X0102869Y0206035D01*
X0104202Y0207368D01*
X0104923Y0209110D01*
X0107257Y0209110D01*
X0107979Y0207368D01*
X0109312Y0206035D01*
X0111053Y0205314D01*
X0112938Y0205314D01*
X0114680Y0206035D01*
X0116013Y0207368D01*
X0116734Y0209110D01*
X0119068Y0209110D01*
X0119790Y0207368D01*
X0121123Y0206035D01*
X0122864Y0205314D01*
X0124749Y0205314D01*
X0126491Y0206035D01*
X0127824Y0207368D01*
X0128545Y0209110D01*
X0130879Y0209110D01*
X0131601Y0207368D01*
X0132934Y0206035D01*
X0134675Y0205314D01*
X0136560Y0205314D01*
X0138302Y0206035D01*
X0139635Y0207368D01*
X0140356Y0209110D01*
X0142690Y0209110D01*
X0143412Y0207368D01*
X0144745Y0206035D01*
X0146486Y0205314D01*
X0148371Y0205314D01*
X0150113Y0206035D01*
X0151446Y0207368D01*
X0152167Y0209110D01*
X0154501Y0209110D01*
X0155223Y0207368D01*
X0156556Y0206035D01*
X0158297Y0205314D01*
X0160182Y0205314D01*
X0161924Y0206035D01*
X0163257Y0207368D01*
X0163978Y0209110D01*
X0166312Y0209110D01*
X0167034Y0207368D01*
X0168367Y0206035D01*
X0170108Y0205314D01*
X0171993Y0205314D01*
X0173735Y0206035D01*
X0175068Y0207368D01*
X0175789Y0209110D01*
X0178123Y0209110D01*
X0178845Y0207368D01*
X0180178Y0206035D01*
X0181919Y0205314D01*
X0183804Y0205314D01*
X0185546Y0206035D01*
X0186879Y0207368D01*
X0187600Y0209110D01*
X0197860Y0209110D01*
X0197860Y0209804D02*
X0197860Y0207899D01*
X0199207Y0206552D01*
X0201113Y0206552D01*
X0201410Y0206849D01*
X0201707Y0206552D01*
X0203613Y0206552D01*
X0204960Y0207899D01*
X0204960Y0209804D01*
X0203613Y0211152D01*
X0201707Y0211152D01*
X0201410Y0210854D01*
X0201113Y0211152D01*
X0199207Y0211152D01*
X0197860Y0209804D01*
X0197964Y0209908D02*
X0187600Y0209908D01*
X0187600Y0209110D02*
X0187600Y0210995D01*
X0186879Y0212737D01*
X0185546Y0214070D01*
X0183804Y0214791D01*
X0181919Y0214791D01*
X0180178Y0214070D01*
X0178845Y0212737D01*
X0178123Y0210995D01*
X0178123Y0209110D01*
X0178123Y0209908D02*
X0175789Y0209908D01*
X0175789Y0209110D02*
X0175789Y0210995D01*
X0175068Y0212737D01*
X0173735Y0214070D01*
X0171993Y0214791D01*
X0170108Y0214791D01*
X0168367Y0214070D01*
X0167034Y0212737D01*
X0166312Y0210995D01*
X0166312Y0209110D01*
X0166312Y0209908D02*
X0163978Y0209908D01*
X0163978Y0209110D02*
X0163978Y0210995D01*
X0163257Y0212737D01*
X0161924Y0214070D01*
X0160182Y0214791D01*
X0158297Y0214791D01*
X0156556Y0214070D01*
X0155223Y0212737D01*
X0154501Y0210995D01*
X0154501Y0209110D01*
X0154501Y0209908D02*
X0152167Y0209908D01*
X0152167Y0209110D02*
X0152167Y0210995D01*
X0151446Y0212737D01*
X0150113Y0214070D01*
X0148371Y0214791D01*
X0146486Y0214791D01*
X0144745Y0214070D01*
X0143412Y0212737D01*
X0142690Y0210995D01*
X0142690Y0209110D01*
X0142690Y0209908D02*
X0140356Y0209908D01*
X0140356Y0209110D02*
X0140356Y0210995D01*
X0139635Y0212737D01*
X0138302Y0214070D01*
X0136560Y0214791D01*
X0134675Y0214791D01*
X0132934Y0214070D01*
X0131601Y0212737D01*
X0130879Y0210995D01*
X0130879Y0209110D01*
X0130879Y0209908D02*
X0128545Y0209908D01*
X0128545Y0209110D02*
X0128545Y0210995D01*
X0127824Y0212737D01*
X0126491Y0214070D01*
X0124749Y0214791D01*
X0122864Y0214791D01*
X0121123Y0214070D01*
X0119790Y0212737D01*
X0119068Y0210995D01*
X0119068Y0209110D01*
X0119068Y0209908D02*
X0116734Y0209908D01*
X0116734Y0209110D02*
X0116734Y0210995D01*
X0116013Y0212737D01*
X0114680Y0214070D01*
X0112938Y0214791D01*
X0111053Y0214791D01*
X0109312Y0214070D01*
X0107979Y0212737D01*
X0107257Y0210995D01*
X0107257Y0209110D01*
X0107257Y0209908D02*
X0104923Y0209908D01*
X0104923Y0209110D02*
X0104923Y0210995D01*
X0104202Y0212737D01*
X0102869Y0214070D01*
X0101127Y0214791D01*
X0099242Y0214791D01*
X0097501Y0214070D01*
X0096168Y0212737D01*
X0095988Y0212304D02*
X0092570Y0212304D01*
X0092901Y0211505D02*
X0095658Y0211505D01*
X0095446Y0210707D02*
X0093112Y0210707D01*
X0092782Y0208311D02*
X0095777Y0208311D01*
X0096108Y0207513D02*
X0092451Y0207513D01*
X0091737Y0206714D02*
X0096821Y0206714D01*
X0097789Y0205916D02*
X0090770Y0205916D01*
X0085978Y0205916D02*
X0048685Y0205916D01*
X0048685Y0206714D02*
X0085010Y0206714D01*
X0084297Y0207513D02*
X0048685Y0207513D01*
X0048685Y0208311D02*
X0083966Y0208311D01*
X0083635Y0210707D02*
X0048685Y0210707D01*
X0048685Y0211505D02*
X0083847Y0211505D01*
X0084177Y0212304D02*
X0048685Y0212304D01*
X0048685Y0213102D02*
X0084722Y0213102D01*
X0085521Y0213901D02*
X0048685Y0213901D01*
X0048685Y0214699D02*
X0087210Y0214699D01*
X0089537Y0214699D02*
X0099021Y0214699D01*
X0097332Y0213901D02*
X0091227Y0213901D01*
X0091176Y0216296D02*
X0051483Y0216296D01*
X0052281Y0217095D02*
X0090378Y0217095D01*
X0089979Y0217894D02*
X0052460Y0217894D01*
X0052460Y0218692D02*
X0089648Y0218692D01*
X0089541Y0219491D02*
X0052149Y0219491D01*
X0051350Y0220289D02*
X0089541Y0220289D01*
X0089644Y0221088D02*
X0048685Y0221088D01*
X0048685Y0221886D02*
X0089975Y0221886D01*
X0090367Y0222685D02*
X0048685Y0222685D01*
X0048685Y0223483D02*
X0091166Y0223483D01*
X0092487Y0224282D02*
X0048685Y0224282D01*
X0048685Y0225080D02*
X0222550Y0225080D01*
X0222550Y0224282D02*
X0166938Y0224282D01*
X0166088Y0224634D02*
X0164203Y0224634D01*
X0162461Y0223912D01*
X0161128Y0222579D01*
X0160407Y0220838D01*
X0160407Y0218952D01*
X0161128Y0217211D01*
X0162461Y0215878D01*
X0164203Y0215156D01*
X0166088Y0215156D01*
X0167830Y0215878D01*
X0169163Y0217211D01*
X0169884Y0218952D01*
X0169884Y0220838D01*
X0169163Y0222579D01*
X0167830Y0223912D01*
X0166088Y0224634D01*
X0168259Y0223483D02*
X0199039Y0223483D01*
X0199207Y0223652D02*
X0197860Y0222304D01*
X0197860Y0220399D01*
X0199207Y0219052D01*
X0201113Y0219052D01*
X0201410Y0219349D01*
X0201707Y0219052D01*
X0203613Y0219052D01*
X0204960Y0220399D01*
X0204960Y0222304D01*
X0203613Y0223652D01*
X0201707Y0223652D01*
X0201410Y0223354D01*
X0201113Y0223652D01*
X0199207Y0223652D01*
X0198240Y0222685D02*
X0169057Y0222685D01*
X0169450Y0221886D02*
X0197860Y0221886D01*
X0197860Y0221088D02*
X0169780Y0221088D01*
X0169884Y0220289D02*
X0197970Y0220289D01*
X0198769Y0219491D02*
X0169884Y0219491D01*
X0169776Y0218692D02*
X0222550Y0218692D01*
X0222550Y0217894D02*
X0169445Y0217894D01*
X0169047Y0217095D02*
X0208276Y0217095D01*
X0208582Y0217402D02*
X0207235Y0216054D01*
X0207235Y0214149D01*
X0208582Y0212802D01*
X0210488Y0212802D01*
X0210785Y0213099D01*
X0211082Y0212802D01*
X0212988Y0212802D01*
X0214335Y0214149D01*
X0214335Y0216054D01*
X0212988Y0217402D01*
X0211082Y0217402D01*
X0210785Y0217104D01*
X0210488Y0217402D01*
X0208582Y0217402D01*
X0207477Y0216296D02*
X0168248Y0216296D01*
X0166913Y0215498D02*
X0207235Y0215498D01*
X0207235Y0214699D02*
X0184026Y0214699D01*
X0185715Y0213901D02*
X0207483Y0213901D01*
X0208282Y0213102D02*
X0186513Y0213102D01*
X0187058Y0212304D02*
X0217830Y0212304D01*
X0217235Y0212899D02*
X0218582Y0211552D01*
X0220488Y0211552D01*
X0221835Y0212899D01*
X0221835Y0214804D01*
X0220488Y0216152D01*
X0218582Y0216152D01*
X0217235Y0214804D01*
X0217235Y0212899D01*
X0217235Y0213102D02*
X0213289Y0213102D01*
X0214087Y0213901D02*
X0217235Y0213901D01*
X0217235Y0214699D02*
X0214335Y0214699D01*
X0214335Y0215498D02*
X0217929Y0215498D01*
X0214093Y0216296D02*
X0222550Y0216296D01*
X0222550Y0215498D02*
X0221141Y0215498D01*
X0221835Y0214699D02*
X0222550Y0214699D01*
X0222550Y0213901D02*
X0221835Y0213901D01*
X0221835Y0213102D02*
X0222550Y0213102D01*
X0222550Y0212304D02*
X0221240Y0212304D01*
X0222550Y0211505D02*
X0187389Y0211505D01*
X0187600Y0210707D02*
X0198763Y0210707D01*
X0197860Y0208311D02*
X0187270Y0208311D01*
X0186939Y0207513D02*
X0198246Y0207513D01*
X0199045Y0206714D02*
X0186225Y0206714D01*
X0185258Y0205916D02*
X0222550Y0205916D01*
X0222550Y0206714D02*
X0203775Y0206714D01*
X0204574Y0207513D02*
X0222550Y0207513D01*
X0222550Y0208311D02*
X0204960Y0208311D01*
X0204960Y0209110D02*
X0222550Y0209110D01*
X0222550Y0209908D02*
X0204856Y0209908D01*
X0204058Y0210707D02*
X0222550Y0210707D01*
X0222550Y0205117D02*
X0048685Y0205117D01*
X0048685Y0204319D02*
X0222550Y0204319D01*
X0222550Y0203520D02*
X0052494Y0203520D01*
X0052363Y0203652D02*
X0050457Y0203652D01*
X0049110Y0202304D01*
X0049110Y0200399D01*
X0050457Y0199052D01*
X0052363Y0199052D01*
X0053710Y0200399D01*
X0053710Y0202304D01*
X0052363Y0203652D01*
X0053293Y0202722D02*
X0105153Y0202722D01*
X0105457Y0203027D02*
X0104110Y0201679D01*
X0104110Y0199774D01*
X0105457Y0198427D01*
X0107363Y0198427D01*
X0108710Y0199774D01*
X0108710Y0201679D01*
X0107363Y0203027D01*
X0105457Y0203027D01*
X0104354Y0201923D02*
X0053710Y0201923D01*
X0053710Y0201125D02*
X0104110Y0201125D01*
X0104110Y0200326D02*
X0053637Y0200326D01*
X0052839Y0199528D02*
X0104356Y0199528D01*
X0105155Y0198729D02*
X0048685Y0198729D01*
X0048685Y0197931D02*
X0222550Y0197931D01*
X0222550Y0198729D02*
X0107665Y0198729D01*
X0108464Y0199528D02*
X0222550Y0199528D01*
X0222550Y0200326D02*
X0108710Y0200326D01*
X0108710Y0201125D02*
X0222550Y0201125D01*
X0222550Y0201923D02*
X0108466Y0201923D01*
X0107668Y0202722D02*
X0222550Y0202722D01*
X0222550Y0197132D02*
X0048685Y0197132D01*
X0048685Y0196334D02*
X0222550Y0196334D01*
X0222550Y0195535D02*
X0048685Y0195535D01*
X0048685Y0194737D02*
X0055292Y0194737D01*
X0054735Y0194179D02*
X0054735Y0192274D01*
X0055032Y0191977D01*
X0054735Y0191679D01*
X0054735Y0189774D01*
X0056082Y0188427D01*
X0057988Y0188427D01*
X0059335Y0189774D01*
X0059335Y0191679D01*
X0059038Y0191977D01*
X0059335Y0192274D01*
X0059335Y0194179D01*
X0057988Y0195527D01*
X0056082Y0195527D01*
X0054735Y0194179D01*
X0054735Y0193938D02*
X0048685Y0193938D01*
X0048685Y0193140D02*
X0054735Y0193140D01*
X0054735Y0192341D02*
X0048685Y0192341D01*
X0048685Y0191543D02*
X0054735Y0191543D01*
X0054735Y0190744D02*
X0048685Y0190744D01*
X0048685Y0189946D02*
X0054735Y0189946D01*
X0055362Y0189147D02*
X0048685Y0189147D01*
X0048685Y0188349D02*
X0174735Y0188349D01*
X0174735Y0189147D02*
X0058708Y0189147D01*
X0059335Y0189946D02*
X0175501Y0189946D01*
X0176082Y0190527D02*
X0174735Y0189179D01*
X0174735Y0187274D01*
X0176082Y0185927D01*
X0177988Y0185927D01*
X0179335Y0187274D01*
X0179335Y0189179D01*
X0177988Y0190527D01*
X0176082Y0190527D01*
X0178569Y0189946D02*
X0222550Y0189946D01*
X0222550Y0190744D02*
X0059335Y0190744D01*
X0059335Y0191543D02*
X0222550Y0191543D01*
X0222550Y0192341D02*
X0059335Y0192341D01*
X0059335Y0193140D02*
X0222550Y0193140D01*
X0222550Y0193938D02*
X0059335Y0193938D01*
X0058778Y0194737D02*
X0222550Y0194737D01*
X0222550Y0189147D02*
X0179335Y0189147D01*
X0179335Y0188349D02*
X0222550Y0188349D01*
X0222550Y0187550D02*
X0179335Y0187550D01*
X0178813Y0186752D02*
X0222550Y0186752D01*
X0222550Y0185953D02*
X0178014Y0185953D01*
X0176056Y0185953D02*
X0162561Y0185953D01*
X0163085Y0185429D02*
X0161738Y0186777D01*
X0159832Y0186777D01*
X0158485Y0185429D01*
X0158485Y0183524D01*
X0159832Y0182177D01*
X0161738Y0182177D01*
X0163085Y0183524D01*
X0163085Y0185429D01*
X0163085Y0185155D02*
X0222550Y0185155D01*
X0222550Y0184356D02*
X0163085Y0184356D01*
X0163085Y0183558D02*
X0222550Y0183558D01*
X0222550Y0182759D02*
X0162320Y0182759D01*
X0159250Y0182759D02*
X0119195Y0182759D01*
X0118613Y0182177D02*
X0119960Y0183524D01*
X0119960Y0185429D01*
X0118613Y0186777D01*
X0116707Y0186777D01*
X0115360Y0185429D01*
X0115360Y0183524D01*
X0116707Y0182177D01*
X0118613Y0182177D01*
X0119960Y0183558D02*
X0158485Y0183558D01*
X0158485Y0184356D02*
X0119960Y0184356D01*
X0119960Y0185155D02*
X0158485Y0185155D01*
X0159009Y0185953D02*
X0119436Y0185953D01*
X0118638Y0186752D02*
X0159807Y0186752D01*
X0161763Y0186752D02*
X0175258Y0186752D01*
X0174735Y0187550D02*
X0048685Y0187550D01*
X0048685Y0186752D02*
X0116682Y0186752D01*
X0115884Y0185953D02*
X0048685Y0185953D01*
X0048685Y0185155D02*
X0115360Y0185155D01*
X0115360Y0184356D02*
X0048685Y0184356D01*
X0048685Y0183558D02*
X0115360Y0183558D01*
X0116125Y0182759D02*
X0048685Y0182759D01*
X0048685Y0181960D02*
X0222550Y0181960D01*
X0222550Y0181162D02*
X0153602Y0181162D01*
X0152988Y0181777D02*
X0151082Y0181777D01*
X0150160Y0180854D01*
X0149238Y0181777D01*
X0147332Y0181777D01*
X0146410Y0180854D01*
X0145488Y0181777D01*
X0143582Y0181777D01*
X0142235Y0180429D01*
X0142235Y0178524D01*
X0143582Y0177177D01*
X0145488Y0177177D01*
X0146410Y0178099D01*
X0147332Y0177177D01*
X0149238Y0177177D01*
X0150160Y0178099D01*
X0151082Y0177177D01*
X0152988Y0177177D01*
X0154335Y0178524D01*
X0154335Y0180429D01*
X0152988Y0181777D01*
X0154335Y0180363D02*
X0222550Y0180363D01*
X0222550Y0179565D02*
X0154335Y0179565D01*
X0154335Y0178766D02*
X0222550Y0178766D01*
X0222550Y0177968D02*
X0153779Y0177968D01*
X0155052Y0176371D02*
X0103085Y0176371D01*
X0103085Y0176679D02*
X0101738Y0178027D01*
X0099832Y0178027D01*
X0098485Y0176679D01*
X0098485Y0176279D01*
X0097988Y0176777D01*
X0096082Y0176777D01*
X0094735Y0175429D01*
X0094735Y0173524D01*
X0096082Y0172177D01*
X0097988Y0172177D01*
X0099335Y0173524D01*
X0099335Y0173924D01*
X0099832Y0173427D01*
X0101738Y0173427D01*
X0103085Y0174774D01*
X0154110Y0174774D01*
X0154110Y0175429D02*
X0154110Y0173524D01*
X0155457Y0172177D01*
X0157363Y0172177D01*
X0158710Y0173524D01*
X0158710Y0175429D01*
X0157363Y0176777D01*
X0155457Y0176777D01*
X0154110Y0175429D01*
X0154253Y0175572D02*
X0103085Y0175572D01*
X0103085Y0174774D02*
X0103085Y0176679D01*
X0102595Y0177169D02*
X0222550Y0177169D01*
X0222550Y0176371D02*
X0157769Y0176371D01*
X0158567Y0175572D02*
X0222550Y0175572D01*
X0222550Y0174774D02*
X0158710Y0174774D01*
X0158710Y0173975D02*
X0222550Y0173975D01*
X0222550Y0173177D02*
X0158363Y0173177D01*
X0157565Y0172378D02*
X0222550Y0172378D01*
X0222550Y0171580D02*
X0073016Y0171580D01*
X0072363Y0170927D02*
X0073710Y0172274D01*
X0073710Y0174179D01*
X0072363Y0175527D01*
X0070457Y0175527D01*
X0069535Y0174604D01*
X0068613Y0175527D01*
X0066707Y0175527D01*
X0065785Y0174604D01*
X0064863Y0175527D01*
X0062957Y0175527D01*
X0061610Y0174179D01*
X0061610Y0172274D01*
X0062957Y0170927D01*
X0064863Y0170927D01*
X0065785Y0171849D01*
X0066707Y0170927D01*
X0068613Y0170927D01*
X0069535Y0171849D01*
X0070457Y0170927D01*
X0072363Y0170927D01*
X0073039Y0169983D02*
X0048685Y0169983D01*
X0048685Y0170781D02*
X0222550Y0170781D01*
X0222550Y0169983D02*
X0157907Y0169983D01*
X0157363Y0170527D02*
X0158710Y0169179D01*
X0158710Y0167274D01*
X0158213Y0166777D01*
X0159238Y0166777D01*
X0160585Y0165429D01*
X0160585Y0163524D01*
X0160088Y0163027D01*
X0161738Y0163027D01*
X0162973Y0161792D01*
X0164207Y0163027D01*
X0166113Y0163027D01*
X0167460Y0161679D01*
X0167460Y0159774D01*
X0166113Y0158427D01*
X0164207Y0158427D01*
X0162973Y0159661D01*
X0161738Y0158427D01*
X0159832Y0158427D01*
X0158598Y0159661D01*
X0157363Y0158427D01*
X0155457Y0158427D01*
X0154110Y0159774D01*
X0154110Y0161679D01*
X0155457Y0163027D01*
X0156482Y0163027D01*
X0155985Y0163524D01*
X0155985Y0165429D01*
X0156482Y0165927D01*
X0155457Y0165927D01*
X0154110Y0167274D01*
X0154110Y0169179D01*
X0155457Y0170527D01*
X0157363Y0170527D01*
X0158705Y0169184D02*
X0222550Y0169184D01*
X0222550Y0168386D02*
X0158710Y0168386D01*
X0158710Y0167587D02*
X0222550Y0167587D01*
X0222550Y0166789D02*
X0181101Y0166789D01*
X0180488Y0167402D02*
X0181835Y0166054D01*
X0181835Y0164149D01*
X0180488Y0162802D01*
X0178582Y0162802D01*
X0177235Y0164149D01*
X0177235Y0166054D01*
X0178582Y0167402D01*
X0180488Y0167402D01*
X0181835Y0165990D02*
X0222550Y0165990D01*
X0222550Y0165192D02*
X0181835Y0165192D01*
X0181835Y0164393D02*
X0222550Y0164393D01*
X0222550Y0163595D02*
X0181281Y0163595D01*
X0177789Y0163595D02*
X0160585Y0163595D01*
X0160585Y0164393D02*
X0177235Y0164393D01*
X0177235Y0165192D02*
X0160585Y0165192D01*
X0160024Y0165990D02*
X0177235Y0165990D01*
X0177970Y0166789D02*
X0158225Y0166789D01*
X0155985Y0165192D02*
X0112253Y0165192D01*
X0112460Y0165399D02*
X0111113Y0164052D01*
X0109207Y0164052D01*
X0107860Y0165399D01*
X0107860Y0167304D01*
X0109207Y0168652D01*
X0111113Y0168652D01*
X0112460Y0167304D01*
X0112460Y0165399D01*
X0112460Y0165990D02*
X0155394Y0165990D01*
X0154595Y0166789D02*
X0112460Y0166789D01*
X0112177Y0167587D02*
X0154110Y0167587D01*
X0154110Y0168386D02*
X0111379Y0168386D01*
X0108942Y0168386D02*
X0076835Y0168386D01*
X0076835Y0169179D02*
X0075488Y0170527D01*
X0073582Y0170527D01*
X0072235Y0169179D01*
X0072235Y0167274D01*
X0073582Y0165927D01*
X0075488Y0165927D01*
X0076835Y0167274D01*
X0076835Y0169179D01*
X0076830Y0169184D02*
X0154115Y0169184D01*
X0154914Y0169983D02*
X0076032Y0169983D01*
X0076835Y0167587D02*
X0108143Y0167587D01*
X0107860Y0166789D02*
X0076350Y0166789D01*
X0075551Y0165990D02*
X0103421Y0165990D01*
X0102860Y0165429D02*
X0102860Y0163524D01*
X0104207Y0162177D01*
X0106113Y0162177D01*
X0107460Y0163524D01*
X0107460Y0165429D01*
X0106113Y0166777D01*
X0104207Y0166777D01*
X0102860Y0165429D01*
X0102860Y0165192D02*
X0048685Y0165192D01*
X0048685Y0165990D02*
X0054144Y0165990D01*
X0053485Y0166649D02*
X0054832Y0165302D01*
X0056738Y0165302D01*
X0058085Y0166649D01*
X0058085Y0168554D01*
X0056738Y0169902D01*
X0054832Y0169902D01*
X0053485Y0168554D01*
X0053485Y0166649D01*
X0053485Y0166789D02*
X0048685Y0166789D01*
X0048685Y0167587D02*
X0053485Y0167587D01*
X0053485Y0168386D02*
X0048685Y0168386D01*
X0048685Y0169184D02*
X0054115Y0169184D01*
X0057455Y0169184D02*
X0072240Y0169184D01*
X0072235Y0168386D02*
X0058085Y0168386D01*
X0058085Y0167587D02*
X0072235Y0167587D01*
X0072720Y0166789D02*
X0058085Y0166789D01*
X0057426Y0165990D02*
X0073519Y0165990D01*
X0073710Y0172378D02*
X0095881Y0172378D01*
X0095082Y0173177D02*
X0073710Y0173177D01*
X0073710Y0173975D02*
X0094735Y0173975D01*
X0094735Y0174774D02*
X0073116Y0174774D01*
X0074207Y0175927D02*
X0076113Y0175927D01*
X0077460Y0177274D01*
X0077460Y0179179D01*
X0076113Y0180527D01*
X0074207Y0180527D01*
X0072860Y0179179D01*
X0072860Y0177274D01*
X0074207Y0175927D01*
X0073763Y0176371D02*
X0055307Y0176371D01*
X0054863Y0175927D02*
X0056210Y0177274D01*
X0056210Y0179179D01*
X0054863Y0180527D01*
X0052957Y0180527D01*
X0051610Y0179179D01*
X0051610Y0177274D01*
X0052957Y0175927D01*
X0054863Y0175927D01*
X0056106Y0177169D02*
X0072965Y0177169D01*
X0072860Y0177968D02*
X0056210Y0177968D01*
X0056210Y0178766D02*
X0072860Y0178766D01*
X0073246Y0179565D02*
X0055824Y0179565D01*
X0055026Y0180363D02*
X0074044Y0180363D01*
X0076276Y0180363D02*
X0086544Y0180363D01*
X0086707Y0180527D02*
X0085360Y0179179D01*
X0085360Y0177274D01*
X0086707Y0175927D01*
X0088613Y0175927D01*
X0089960Y0177274D01*
X0089960Y0179179D01*
X0088613Y0180527D01*
X0086707Y0180527D01*
X0085746Y0179565D02*
X0077074Y0179565D01*
X0077460Y0178766D02*
X0085360Y0178766D01*
X0085360Y0177968D02*
X0077460Y0177968D01*
X0077356Y0177169D02*
X0085465Y0177169D01*
X0086263Y0176371D02*
X0076557Y0176371D01*
X0069705Y0174774D02*
X0069366Y0174774D01*
X0069266Y0171580D02*
X0069804Y0171580D01*
X0066054Y0171580D02*
X0065516Y0171580D01*
X0065616Y0174774D02*
X0065955Y0174774D01*
X0062205Y0174774D02*
X0048685Y0174774D01*
X0048685Y0175572D02*
X0094878Y0175572D01*
X0095677Y0176371D02*
X0089057Y0176371D01*
X0089856Y0177169D02*
X0098975Y0177169D01*
X0098485Y0176371D02*
X0098394Y0176371D01*
X0099774Y0177968D02*
X0089960Y0177968D01*
X0089960Y0178766D02*
X0142235Y0178766D01*
X0142235Y0179565D02*
X0089574Y0179565D01*
X0088776Y0180363D02*
X0142235Y0180363D01*
X0142968Y0181162D02*
X0048685Y0181162D01*
X0048685Y0180363D02*
X0052794Y0180363D01*
X0051996Y0179565D02*
X0048685Y0179565D01*
X0048685Y0178766D02*
X0051610Y0178766D01*
X0051610Y0177968D02*
X0048685Y0177968D01*
X0048685Y0177169D02*
X0051715Y0177169D01*
X0052513Y0176371D02*
X0048685Y0176371D01*
X0048685Y0173975D02*
X0061610Y0173975D01*
X0061610Y0173177D02*
X0048685Y0173177D01*
X0048685Y0172378D02*
X0061610Y0172378D01*
X0062304Y0171580D02*
X0048685Y0171580D01*
X0048685Y0164393D02*
X0102860Y0164393D01*
X0102860Y0163595D02*
X0048685Y0163595D01*
X0048685Y0162796D02*
X0103588Y0162796D01*
X0106732Y0162796D02*
X0155227Y0162796D01*
X0155985Y0163595D02*
X0107460Y0163595D01*
X0107460Y0164393D02*
X0108866Y0164393D01*
X0108067Y0165192D02*
X0107460Y0165192D01*
X0107860Y0165990D02*
X0106899Y0165990D01*
X0111454Y0164393D02*
X0155985Y0164393D01*
X0154428Y0161998D02*
X0144642Y0161998D01*
X0144238Y0162402D02*
X0142332Y0162402D01*
X0140985Y0161054D01*
X0140985Y0159149D01*
X0142332Y0157802D01*
X0144238Y0157802D01*
X0145585Y0159149D01*
X0145585Y0161054D01*
X0144238Y0162402D01*
X0145440Y0161199D02*
X0154110Y0161199D01*
X0154110Y0160401D02*
X0145585Y0160401D01*
X0145585Y0159602D02*
X0154282Y0159602D01*
X0155080Y0158804D02*
X0145240Y0158804D01*
X0144441Y0158005D02*
X0188561Y0158005D01*
X0188582Y0158027D02*
X0187235Y0156679D01*
X0187235Y0154774D01*
X0188582Y0153427D01*
X0190488Y0153427D01*
X0191835Y0154774D01*
X0191835Y0156679D01*
X0190488Y0158027D01*
X0188582Y0158027D01*
X0187762Y0157207D02*
X0166308Y0157207D01*
X0166113Y0157402D02*
X0164207Y0157402D01*
X0162973Y0156167D01*
X0161738Y0157402D01*
X0159832Y0157402D01*
X0158485Y0156054D01*
X0158485Y0154149D01*
X0159832Y0152802D01*
X0161738Y0152802D01*
X0162973Y0154036D01*
X0164207Y0152802D01*
X0166113Y0152802D01*
X0167460Y0154149D01*
X0167460Y0156054D01*
X0166113Y0157402D01*
X0167106Y0156408D02*
X0187235Y0156408D01*
X0187235Y0155610D02*
X0167460Y0155610D01*
X0167460Y0154811D02*
X0180367Y0154811D01*
X0180457Y0154902D02*
X0179110Y0153554D01*
X0179110Y0151649D01*
X0180457Y0150302D01*
X0182363Y0150302D01*
X0183710Y0151649D01*
X0183710Y0153554D01*
X0182363Y0154902D01*
X0180457Y0154902D01*
X0179568Y0154013D02*
X0167324Y0154013D01*
X0166525Y0153214D02*
X0179110Y0153214D01*
X0179110Y0152416D02*
X0153599Y0152416D01*
X0153710Y0152304D02*
X0152363Y0153652D01*
X0150457Y0153652D01*
X0149110Y0152304D01*
X0149110Y0150399D01*
X0150457Y0149052D01*
X0152363Y0149052D01*
X0153710Y0150399D01*
X0153710Y0152304D01*
X0153710Y0151617D02*
X0179142Y0151617D01*
X0179941Y0150819D02*
X0153710Y0150819D01*
X0153331Y0150020D02*
X0201989Y0150020D01*
X0202332Y0149677D02*
X0204238Y0149677D01*
X0205585Y0151024D01*
X0205585Y0152929D01*
X0204238Y0154277D01*
X0202332Y0154277D01*
X0200985Y0152929D01*
X0200985Y0151024D01*
X0202332Y0149677D01*
X0201191Y0150819D02*
X0182880Y0150819D01*
X0183678Y0151617D02*
X0200985Y0151617D01*
X0200985Y0152416D02*
X0183710Y0152416D01*
X0183710Y0153214D02*
X0201270Y0153214D01*
X0202068Y0154013D02*
X0191074Y0154013D01*
X0191835Y0154811D02*
X0222550Y0154811D01*
X0222550Y0154013D02*
X0204502Y0154013D01*
X0205300Y0153214D02*
X0222550Y0153214D01*
X0222550Y0152416D02*
X0205585Y0152416D01*
X0205585Y0151617D02*
X0207173Y0151617D01*
X0206610Y0151054D02*
X0206610Y0149149D01*
X0207957Y0147802D01*
X0209863Y0147802D01*
X0211210Y0149149D01*
X0211210Y0151054D01*
X0209863Y0152402D01*
X0207957Y0152402D01*
X0206610Y0151054D01*
X0206610Y0150819D02*
X0205380Y0150819D01*
X0204581Y0150020D02*
X0206610Y0150020D01*
X0206610Y0149222D02*
X0152533Y0149222D01*
X0150288Y0149222D02*
X0125585Y0149222D01*
X0125341Y0149811D02*
X0124244Y0150908D01*
X0122811Y0151502D01*
X0121259Y0151502D01*
X0119826Y0150908D01*
X0118729Y0149811D01*
X0118135Y0148377D01*
X0118135Y0146826D01*
X0079960Y0146826D01*
X0079960Y0147304D02*
X0079960Y0145399D01*
X0078613Y0144052D01*
X0076707Y0144052D01*
X0075360Y0145399D01*
X0075360Y0147304D01*
X0076707Y0148652D01*
X0078613Y0148652D01*
X0079960Y0147304D01*
X0079640Y0147625D02*
X0118135Y0147625D01*
X0118154Y0148423D02*
X0078841Y0148423D01*
X0076479Y0148423D02*
X0048685Y0148423D01*
X0048685Y0147625D02*
X0075680Y0147625D01*
X0075360Y0146826D02*
X0048685Y0146826D01*
X0048685Y0146027D02*
X0066583Y0146027D01*
X0066707Y0146152D02*
X0065360Y0144804D01*
X0065360Y0142899D01*
X0066707Y0141552D01*
X0068613Y0141552D01*
X0069960Y0142899D01*
X0069960Y0144804D01*
X0068613Y0146152D01*
X0066707Y0146152D01*
X0065785Y0145229D02*
X0048685Y0145229D01*
X0048685Y0144430D02*
X0065360Y0144430D01*
X0065360Y0143632D02*
X0048685Y0143632D01*
X0048685Y0142833D02*
X0065426Y0142833D01*
X0066224Y0142035D02*
X0048685Y0142035D01*
X0048685Y0141236D02*
X0078667Y0141236D01*
X0079207Y0141777D02*
X0077860Y0140429D01*
X0077860Y0138524D01*
X0079207Y0137177D01*
X0080985Y0137177D01*
X0080985Y0136649D01*
X0082332Y0135302D01*
X0083485Y0135302D01*
X0083485Y0134149D01*
X0084832Y0132802D01*
X0086738Y0132802D01*
X0088085Y0134149D01*
X0088085Y0136054D01*
X0086738Y0137402D01*
X0085585Y0137402D01*
X0085585Y0138554D01*
X0084238Y0139902D01*
X0082460Y0139902D01*
X0082460Y0140429D01*
X0081113Y0141777D01*
X0079207Y0141777D01*
X0077869Y0140438D02*
X0048685Y0140438D01*
X0048685Y0139639D02*
X0077860Y0139639D01*
X0077860Y0138841D02*
X0048685Y0138841D01*
X0048685Y0138042D02*
X0073598Y0138042D01*
X0074207Y0138652D02*
X0072860Y0137304D01*
X0072860Y0135399D01*
X0074207Y0134052D01*
X0076113Y0134052D01*
X0077460Y0135399D01*
X0077460Y0137304D01*
X0076113Y0138652D01*
X0074207Y0138652D01*
X0072860Y0137244D02*
X0048685Y0137244D01*
X0048685Y0136445D02*
X0072860Y0136445D01*
X0072860Y0135647D02*
X0048685Y0135647D01*
X0048685Y0134848D02*
X0073411Y0134848D01*
X0076909Y0134848D02*
X0083485Y0134848D01*
X0083584Y0134050D02*
X0048685Y0134050D01*
X0048685Y0133251D02*
X0084383Y0133251D01*
X0087187Y0133251D02*
X0167235Y0133251D01*
X0167235Y0132453D02*
X0048685Y0132453D01*
X0048685Y0131654D02*
X0096585Y0131654D01*
X0095985Y0131054D02*
X0095985Y0129149D01*
X0097332Y0127802D01*
X0099238Y0127802D01*
X0100585Y0129149D01*
X0100585Y0131054D01*
X0099238Y0132402D01*
X0097332Y0132402D01*
X0095985Y0131054D01*
X0095985Y0130856D02*
X0048685Y0130856D01*
X0048685Y0130057D02*
X0095985Y0130057D01*
X0095985Y0129259D02*
X0048685Y0129259D01*
X0048685Y0128460D02*
X0096674Y0128460D01*
X0099896Y0128460D02*
X0113549Y0128460D01*
X0114207Y0127802D02*
X0112860Y0129149D01*
X0112860Y0131054D01*
X0114207Y0132402D01*
X0116113Y0132402D01*
X0117460Y0131054D01*
X0117460Y0129149D01*
X0116113Y0127802D01*
X0114207Y0127802D01*
X0112860Y0129259D02*
X0100585Y0129259D01*
X0100585Y0130057D02*
X0112860Y0130057D01*
X0112860Y0130856D02*
X0100585Y0130856D01*
X0099985Y0131654D02*
X0113460Y0131654D01*
X0116860Y0131654D02*
X0167855Y0131654D01*
X0167235Y0132274D02*
X0168582Y0130927D01*
X0170488Y0130927D01*
X0171835Y0132274D01*
X0171835Y0134179D01*
X0170488Y0135527D01*
X0168582Y0135527D01*
X0167235Y0134179D01*
X0167235Y0132274D01*
X0167235Y0134050D02*
X0157986Y0134050D01*
X0157363Y0133427D02*
X0158710Y0134774D01*
X0158710Y0136679D01*
X0157363Y0138027D01*
X0156963Y0138027D01*
X0157460Y0138524D01*
X0157460Y0140429D01*
X0156113Y0141777D01*
X0154207Y0141777D01*
X0152860Y0140429D01*
X0152860Y0138524D01*
X0154207Y0137177D01*
X0154607Y0137177D01*
X0154110Y0136679D01*
X0154110Y0134774D01*
X0155457Y0133427D01*
X0157363Y0133427D01*
X0158710Y0134848D02*
X0167904Y0134848D01*
X0171166Y0134848D02*
X0172904Y0134848D01*
X0172235Y0134179D02*
X0172235Y0132274D01*
X0173582Y0130927D01*
X0175488Y0130927D01*
X0176835Y0132274D01*
X0176835Y0134179D01*
X0175488Y0135527D01*
X0173582Y0135527D01*
X0172235Y0134179D01*
X0172235Y0134050D02*
X0171835Y0134050D01*
X0171835Y0133251D02*
X0172235Y0133251D01*
X0172235Y0132453D02*
X0171835Y0132453D01*
X0171215Y0131654D02*
X0172855Y0131654D01*
X0176215Y0131654D02*
X0177235Y0131654D01*
X0177235Y0131024D02*
X0178582Y0129677D01*
X0179735Y0129677D01*
X0179735Y0129277D01*
X0178582Y0129277D01*
X0177235Y0127929D01*
X0177235Y0126024D01*
X0178157Y0125102D01*
X0177235Y0124179D01*
X0177235Y0122274D01*
X0178582Y0120927D01*
X0180488Y0120927D01*
X0181835Y0122274D01*
X0181835Y0124179D01*
X0180913Y0125102D01*
X0181835Y0126024D01*
X0181835Y0127177D01*
X0182988Y0127177D01*
X0184335Y0128524D01*
X0184335Y0130429D01*
X0182988Y0131777D01*
X0181835Y0131777D01*
X0181835Y0132929D01*
X0180488Y0134277D01*
X0178582Y0134277D01*
X0177235Y0132929D01*
X0177235Y0131024D01*
X0177403Y0130856D02*
X0134296Y0130856D01*
X0134244Y0130908D02*
X0132811Y0131502D01*
X0131259Y0131502D01*
X0129826Y0130908D01*
X0128729Y0129811D01*
X0128135Y0128377D01*
X0128135Y0126826D01*
X0128729Y0125392D01*
X0129826Y0124295D01*
X0131259Y0123702D01*
X0132811Y0123702D01*
X0134244Y0124295D01*
X0135341Y0125392D01*
X0135935Y0126826D01*
X0135935Y0128377D01*
X0135341Y0129811D01*
X0134244Y0130908D01*
X0135095Y0130057D02*
X0178202Y0130057D01*
X0178565Y0129259D02*
X0135570Y0129259D01*
X0135901Y0128460D02*
X0177766Y0128460D01*
X0177235Y0127662D02*
X0135935Y0127662D01*
X0135935Y0126863D02*
X0177235Y0126863D01*
X0177235Y0126065D02*
X0169325Y0126065D01*
X0169238Y0126152D02*
X0167332Y0126152D01*
X0165985Y0124804D01*
X0165985Y0122899D01*
X0167332Y0121552D01*
X0168485Y0121552D01*
X0168485Y0120399D01*
X0169832Y0119052D01*
X0171738Y0119052D01*
X0173085Y0120399D01*
X0173085Y0122304D01*
X0171738Y0123652D01*
X0170585Y0123652D01*
X0170585Y0124804D01*
X0169238Y0126152D01*
X0170123Y0125266D02*
X0177993Y0125266D01*
X0177523Y0124468D02*
X0170585Y0124468D01*
X0170585Y0123669D02*
X0177235Y0123669D01*
X0177235Y0122871D02*
X0172519Y0122871D01*
X0173085Y0122072D02*
X0177437Y0122072D01*
X0178235Y0121274D02*
X0173085Y0121274D01*
X0173085Y0120475D02*
X0222550Y0120475D01*
X0222550Y0119677D02*
X0172363Y0119677D01*
X0169207Y0119677D02*
X0146738Y0119677D01*
X0146113Y0119052D02*
X0147460Y0120399D01*
X0147460Y0122304D01*
X0146113Y0123652D01*
X0144207Y0123652D01*
X0142860Y0122304D01*
X0142860Y0120399D01*
X0144207Y0119052D01*
X0146113Y0119052D01*
X0147460Y0120475D02*
X0168485Y0120475D01*
X0168485Y0121274D02*
X0147460Y0121274D01*
X0147460Y0122072D02*
X0166812Y0122072D01*
X0166013Y0122871D02*
X0146894Y0122871D01*
X0143426Y0122871D02*
X0048685Y0122871D01*
X0048685Y0123669D02*
X0165985Y0123669D01*
X0165985Y0124468D02*
X0134417Y0124468D01*
X0135215Y0125266D02*
X0166447Y0125266D01*
X0167245Y0126065D02*
X0135620Y0126065D01*
X0133361Y0121274D02*
X0142860Y0121274D01*
X0142860Y0122072D02*
X0048685Y0122072D01*
X0048685Y0121274D02*
X0120709Y0121274D01*
X0121259Y0121502D02*
X0119826Y0120908D01*
X0118729Y0119811D01*
X0118135Y0118377D01*
X0118135Y0116826D01*
X0118729Y0115392D01*
X0119826Y0114295D01*
X0121259Y0113702D01*
X0122811Y0113702D01*
X0124244Y0114295D01*
X0125341Y0115392D01*
X0125935Y0116826D01*
X0125935Y0118377D01*
X0125341Y0119811D01*
X0124244Y0120908D01*
X0122811Y0121502D01*
X0121259Y0121502D01*
X0123361Y0121274D02*
X0130709Y0121274D01*
X0131259Y0121502D02*
X0129826Y0120908D01*
X0128729Y0119811D01*
X0128135Y0118377D01*
X0128135Y0116826D01*
X0128729Y0115392D01*
X0129826Y0114295D01*
X0131259Y0113702D01*
X0132811Y0113702D01*
X0134244Y0114295D01*
X0135341Y0115392D01*
X0135935Y0116826D01*
X0135935Y0118377D01*
X0135341Y0119811D01*
X0134244Y0120908D01*
X0132811Y0121502D01*
X0131259Y0121502D01*
X0129393Y0120475D02*
X0124677Y0120475D01*
X0125397Y0119677D02*
X0128673Y0119677D01*
X0128343Y0118878D02*
X0125728Y0118878D01*
X0125935Y0118080D02*
X0128135Y0118080D01*
X0128135Y0117281D02*
X0125935Y0117281D01*
X0125793Y0116483D02*
X0128277Y0116483D01*
X0128608Y0115684D02*
X0125462Y0115684D01*
X0124834Y0114886D02*
X0129236Y0114886D01*
X0130329Y0114087D02*
X0123741Y0114087D01*
X0122811Y0111502D02*
X0121259Y0111502D01*
X0119826Y0110908D01*
X0118729Y0109811D01*
X0118135Y0108377D01*
X0118135Y0106826D01*
X0118729Y0105392D01*
X0119826Y0104295D01*
X0121259Y0103702D01*
X0122811Y0103702D01*
X0124244Y0104295D01*
X0125341Y0105392D01*
X0125935Y0106826D01*
X0125935Y0108377D01*
X0125341Y0109811D01*
X0124244Y0110908D01*
X0122811Y0111502D01*
X0124259Y0110893D02*
X0129811Y0110893D01*
X0129826Y0110908D02*
X0128729Y0109811D01*
X0128135Y0108377D01*
X0128135Y0106826D01*
X0128729Y0105392D01*
X0129826Y0104295D01*
X0131259Y0103702D01*
X0132811Y0103702D01*
X0134244Y0104295D01*
X0135341Y0105392D01*
X0135935Y0106826D01*
X0135935Y0108377D01*
X0135341Y0109811D01*
X0134244Y0110908D01*
X0132811Y0111502D01*
X0131259Y0111502D01*
X0129826Y0110908D01*
X0129013Y0110094D02*
X0125058Y0110094D01*
X0125555Y0109296D02*
X0128516Y0109296D01*
X0128185Y0108497D02*
X0125885Y0108497D01*
X0125935Y0107699D02*
X0128135Y0107699D01*
X0128135Y0106900D02*
X0125935Y0106900D01*
X0125635Y0106102D02*
X0128435Y0106102D01*
X0128818Y0105303D02*
X0125252Y0105303D01*
X0124454Y0104505D02*
X0129616Y0104505D01*
X0131248Y0103706D02*
X0122822Y0103706D01*
X0121248Y0103706D02*
X0048685Y0103706D01*
X0048685Y0102908D02*
X0158485Y0102908D01*
X0158485Y0102402D02*
X0157332Y0102402D01*
X0155985Y0101054D01*
X0155985Y0099149D01*
X0157332Y0097802D01*
X0158485Y0097802D01*
X0158485Y0096777D01*
X0157957Y0096777D01*
X0156610Y0095429D01*
X0156610Y0093524D01*
X0157845Y0092289D01*
X0157235Y0091679D01*
X0157235Y0089774D01*
X0158582Y0088427D01*
X0160488Y0088427D01*
X0161410Y0089349D01*
X0162332Y0088427D01*
X0164238Y0088427D01*
X0165160Y0089349D01*
X0166082Y0088427D01*
X0167988Y0088427D01*
X0169335Y0089774D01*
X0169335Y0091679D01*
X0167988Y0093027D01*
X0166082Y0093027D01*
X0165160Y0092104D01*
X0164238Y0093027D01*
X0162332Y0093027D01*
X0161410Y0092104D01*
X0160600Y0092914D01*
X0161210Y0093524D01*
X0161210Y0095302D01*
X0161738Y0095302D01*
X0163085Y0096649D01*
X0163085Y0098554D01*
X0161738Y0099902D01*
X0160585Y0099902D01*
X0160585Y0100302D01*
X0161738Y0100302D01*
X0163085Y0101649D01*
X0163085Y0103554D01*
X0161738Y0104902D01*
X0159832Y0104902D01*
X0158485Y0103554D01*
X0158485Y0102402D01*
X0158637Y0103706D02*
X0132822Y0103706D01*
X0134454Y0104505D02*
X0159436Y0104505D01*
X0162135Y0104505D02*
X0178129Y0104505D01*
X0178582Y0104052D02*
X0180488Y0104052D01*
X0181835Y0105399D01*
X0181835Y0107304D01*
X0180913Y0108227D01*
X0181835Y0109149D01*
X0181835Y0111054D01*
X0180488Y0112402D01*
X0178582Y0112402D01*
X0177235Y0111054D01*
X0177235Y0109149D01*
X0178157Y0108227D01*
X0177235Y0107304D01*
X0177235Y0105399D01*
X0178582Y0104052D01*
X0177331Y0105303D02*
X0135252Y0105303D01*
X0135635Y0106102D02*
X0144657Y0106102D01*
X0144832Y0105927D02*
X0146738Y0105927D01*
X0148085Y0107274D01*
X0148085Y0109179D01*
X0146738Y0110527D01*
X0144832Y0110527D01*
X0143485Y0109179D01*
X0143485Y0107274D01*
X0144832Y0105927D01*
X0143859Y0106900D02*
X0135935Y0106900D01*
X0135935Y0107699D02*
X0143485Y0107699D01*
X0143485Y0108497D02*
X0135885Y0108497D01*
X0135555Y0109296D02*
X0143602Y0109296D01*
X0144400Y0110094D02*
X0135058Y0110094D01*
X0134259Y0110893D02*
X0177235Y0110893D01*
X0177235Y0110094D02*
X0147170Y0110094D01*
X0147968Y0109296D02*
X0177235Y0109296D01*
X0177887Y0108497D02*
X0148085Y0108497D01*
X0148085Y0107699D02*
X0177630Y0107699D01*
X0177235Y0106900D02*
X0147712Y0106900D01*
X0146913Y0106102D02*
X0177235Y0106102D01*
X0180941Y0104505D02*
X0222550Y0104505D01*
X0222550Y0105303D02*
X0181740Y0105303D01*
X0181835Y0106102D02*
X0222550Y0106102D01*
X0222550Y0106900D02*
X0181835Y0106900D01*
X0181441Y0107699D02*
X0222550Y0107699D01*
X0222550Y0108497D02*
X0181184Y0108497D01*
X0181835Y0109296D02*
X0222550Y0109296D01*
X0222550Y0110094D02*
X0181835Y0110094D01*
X0181835Y0110893D02*
X0222550Y0110893D01*
X0222550Y0111691D02*
X0181198Y0111691D01*
X0177872Y0111691D02*
X0169378Y0111691D01*
X0169238Y0111552D02*
X0170585Y0112899D01*
X0170585Y0114804D01*
X0169238Y0116152D01*
X0167332Y0116152D01*
X0165985Y0114804D01*
X0165985Y0112899D01*
X0167332Y0111552D01*
X0169238Y0111552D01*
X0170176Y0112490D02*
X0222550Y0112490D01*
X0222550Y0113289D02*
X0170585Y0113289D01*
X0170585Y0114087D02*
X0222550Y0114087D01*
X0222550Y0114886D02*
X0170504Y0114886D01*
X0169705Y0115684D02*
X0222550Y0115684D01*
X0222550Y0116483D02*
X0135793Y0116483D01*
X0135935Y0117281D02*
X0222550Y0117281D01*
X0222550Y0118080D02*
X0135935Y0118080D01*
X0135728Y0118878D02*
X0222550Y0118878D01*
X0222550Y0121274D02*
X0193960Y0121274D01*
X0193613Y0120927D02*
X0194960Y0122274D01*
X0194960Y0124179D01*
X0193613Y0125527D01*
X0191707Y0125527D01*
X0190360Y0124179D01*
X0190360Y0122274D01*
X0191707Y0120927D01*
X0193613Y0120927D01*
X0194758Y0122072D02*
X0222550Y0122072D01*
X0222550Y0122871D02*
X0194960Y0122871D01*
X0194960Y0123669D02*
X0222550Y0123669D01*
X0222550Y0124468D02*
X0194672Y0124468D01*
X0193873Y0125266D02*
X0222550Y0125266D01*
X0222550Y0126065D02*
X0181835Y0126065D01*
X0181835Y0126863D02*
X0222550Y0126863D01*
X0222550Y0127662D02*
X0183473Y0127662D01*
X0184271Y0128460D02*
X0222550Y0128460D01*
X0222550Y0129259D02*
X0184335Y0129259D01*
X0184335Y0130057D02*
X0222550Y0130057D01*
X0222550Y0130856D02*
X0183909Y0130856D01*
X0183110Y0131654D02*
X0197855Y0131654D01*
X0197957Y0131552D02*
X0199863Y0131552D01*
X0201210Y0132899D01*
X0201210Y0134804D01*
X0199863Y0136152D01*
X0197957Y0136152D01*
X0196610Y0134804D01*
X0196610Y0132899D01*
X0197957Y0131552D01*
X0197056Y0132453D02*
X0181835Y0132453D01*
X0181513Y0133251D02*
X0196610Y0133251D01*
X0196610Y0134050D02*
X0180715Y0134050D01*
X0178356Y0134050D02*
X0176835Y0134050D01*
X0176835Y0133251D02*
X0177557Y0133251D01*
X0177235Y0132453D02*
X0176835Y0132453D01*
X0176166Y0134848D02*
X0196654Y0134848D01*
X0197453Y0135647D02*
X0158710Y0135647D01*
X0158710Y0136445D02*
X0222550Y0136445D01*
X0222550Y0135647D02*
X0200368Y0135647D01*
X0201166Y0134848D02*
X0222550Y0134848D01*
X0222550Y0134050D02*
X0201210Y0134050D01*
X0201210Y0133251D02*
X0222550Y0133251D01*
X0222550Y0132453D02*
X0200764Y0132453D01*
X0199965Y0131654D02*
X0222550Y0131654D01*
X0222550Y0137244D02*
X0158146Y0137244D01*
X0156979Y0138042D02*
X0222550Y0138042D01*
X0222550Y0138841D02*
X0157460Y0138841D01*
X0157460Y0139639D02*
X0222550Y0139639D01*
X0222550Y0140438D02*
X0157452Y0140438D01*
X0156653Y0141236D02*
X0222550Y0141236D01*
X0222550Y0142035D02*
X0104721Y0142035D01*
X0104960Y0142274D02*
X0103613Y0140927D01*
X0101707Y0140927D01*
X0100360Y0142274D01*
X0100360Y0144179D01*
X0101707Y0145527D01*
X0103613Y0145527D01*
X0104960Y0144179D01*
X0104960Y0142274D01*
X0104960Y0142833D02*
X0114801Y0142833D01*
X0115457Y0142177D02*
X0117363Y0142177D01*
X0118710Y0143524D01*
X0118710Y0145429D01*
X0117363Y0146777D01*
X0115457Y0146777D01*
X0114110Y0145429D01*
X0114110Y0143524D01*
X0115457Y0142177D01*
X0114110Y0143632D02*
X0104960Y0143632D01*
X0104709Y0144430D02*
X0114110Y0144430D01*
X0114110Y0145229D02*
X0103910Y0145229D01*
X0101410Y0145229D02*
X0079790Y0145229D01*
X0079960Y0146027D02*
X0114708Y0146027D01*
X0118112Y0146027D02*
X0118466Y0146027D01*
X0118729Y0145392D02*
X0119826Y0144295D01*
X0121259Y0143702D01*
X0122811Y0143702D01*
X0124244Y0144295D01*
X0125341Y0145392D01*
X0125935Y0146826D01*
X0222550Y0146826D01*
X0222550Y0146027D02*
X0183112Y0146027D01*
X0183710Y0145429D02*
X0182363Y0146777D01*
X0180457Y0146777D01*
X0179110Y0145429D01*
X0179110Y0143524D01*
X0180457Y0142177D01*
X0182363Y0142177D01*
X0183710Y0143524D01*
X0183710Y0145429D01*
X0183710Y0145229D02*
X0222550Y0145229D01*
X0222550Y0144430D02*
X0183710Y0144430D01*
X0183710Y0143632D02*
X0222550Y0143632D01*
X0222550Y0142833D02*
X0183020Y0142833D01*
X0179801Y0142833D02*
X0149895Y0142833D01*
X0149238Y0142177D02*
X0150585Y0143524D01*
X0150585Y0145429D01*
X0149238Y0146777D01*
X0147332Y0146777D01*
X0145985Y0145429D01*
X0145985Y0143524D01*
X0147332Y0142177D01*
X0149238Y0142177D01*
X0150585Y0143632D02*
X0179110Y0143632D01*
X0179110Y0144430D02*
X0150585Y0144430D01*
X0150585Y0145229D02*
X0179110Y0145229D01*
X0179708Y0146027D02*
X0149987Y0146027D01*
X0146583Y0146027D02*
X0125604Y0146027D01*
X0125935Y0146826D02*
X0125935Y0148377D01*
X0125341Y0149811D01*
X0125132Y0150020D02*
X0149489Y0150020D01*
X0149110Y0150819D02*
X0147880Y0150819D01*
X0147363Y0150302D02*
X0148710Y0151649D01*
X0148710Y0153554D01*
X0147363Y0154902D01*
X0145457Y0154902D01*
X0144535Y0153979D01*
X0143613Y0154902D01*
X0141707Y0154902D01*
X0140360Y0153554D01*
X0140360Y0151649D01*
X0141707Y0150302D01*
X0143613Y0150302D01*
X0144535Y0151224D01*
X0145457Y0150302D01*
X0147363Y0150302D01*
X0148678Y0151617D02*
X0149110Y0151617D01*
X0149221Y0152416D02*
X0148710Y0152416D01*
X0148710Y0153214D02*
X0150020Y0153214D01*
X0148252Y0154013D02*
X0158621Y0154013D01*
X0158485Y0154811D02*
X0147453Y0154811D01*
X0145367Y0154811D02*
X0143703Y0154811D01*
X0144502Y0154013D02*
X0144568Y0154013D01*
X0141617Y0154811D02*
X0139372Y0154811D01*
X0139960Y0155399D02*
X0138613Y0154052D01*
X0136707Y0154052D01*
X0135360Y0155399D01*
X0135360Y0157304D01*
X0136707Y0158652D01*
X0138613Y0158652D01*
X0139960Y0157304D01*
X0139960Y0155399D01*
X0139960Y0155610D02*
X0158485Y0155610D01*
X0158839Y0156408D02*
X0139960Y0156408D01*
X0139960Y0157207D02*
X0159637Y0157207D01*
X0159455Y0158804D02*
X0157740Y0158804D01*
X0158538Y0159602D02*
X0158657Y0159602D01*
X0162115Y0158804D02*
X0163830Y0158804D01*
X0163032Y0159602D02*
X0162913Y0159602D01*
X0162767Y0161998D02*
X0163178Y0161998D01*
X0163977Y0162796D02*
X0161968Y0162796D01*
X0166343Y0162796D02*
X0222550Y0162796D01*
X0222550Y0161998D02*
X0167142Y0161998D01*
X0167460Y0161199D02*
X0222550Y0161199D01*
X0222550Y0160401D02*
X0167460Y0160401D01*
X0167288Y0159602D02*
X0222550Y0159602D01*
X0222550Y0158804D02*
X0166490Y0158804D01*
X0164012Y0157207D02*
X0161933Y0157207D01*
X0162731Y0156408D02*
X0163214Y0156408D01*
X0162996Y0154013D02*
X0162949Y0154013D01*
X0162150Y0153214D02*
X0163795Y0153214D01*
X0159420Y0153214D02*
X0152800Y0153214D01*
X0145985Y0145229D02*
X0125178Y0145229D01*
X0124379Y0144430D02*
X0145985Y0144430D01*
X0145985Y0143632D02*
X0118710Y0143632D01*
X0118710Y0144430D02*
X0119691Y0144430D01*
X0118892Y0145229D02*
X0118710Y0145229D01*
X0118729Y0145392D02*
X0118135Y0146826D01*
X0118485Y0149222D02*
X0075033Y0149222D01*
X0075585Y0149774D02*
X0074238Y0148427D01*
X0072332Y0148427D01*
X0070985Y0149774D01*
X0070985Y0150174D01*
X0069863Y0149052D01*
X0067957Y0149052D01*
X0066610Y0150399D01*
X0066610Y0152177D01*
X0065457Y0152177D01*
X0064110Y0153524D01*
X0064110Y0155429D01*
X0065457Y0156777D01*
X0067363Y0156777D01*
X0068710Y0155429D01*
X0068710Y0153652D01*
X0069863Y0153652D01*
X0071210Y0152304D01*
X0071210Y0151904D01*
X0072332Y0153027D01*
X0074238Y0153027D01*
X0075585Y0151679D01*
X0075585Y0149774D01*
X0075585Y0150020D02*
X0118938Y0150020D01*
X0119737Y0150819D02*
X0075585Y0150819D01*
X0075585Y0151617D02*
X0081017Y0151617D01*
X0081082Y0151552D02*
X0082988Y0151552D01*
X0084335Y0152899D01*
X0084335Y0154804D01*
X0082988Y0156152D01*
X0081082Y0156152D01*
X0079735Y0154804D01*
X0079735Y0152899D01*
X0081082Y0151552D01*
X0080219Y0152416D02*
X0074849Y0152416D01*
X0071721Y0152416D02*
X0071099Y0152416D01*
X0070300Y0153214D02*
X0079735Y0153214D01*
X0079735Y0154013D02*
X0068710Y0154013D01*
X0068710Y0154811D02*
X0079742Y0154811D01*
X0080540Y0155610D02*
X0068530Y0155610D01*
X0067731Y0156408D02*
X0110985Y0156408D01*
X0110985Y0155610D02*
X0083530Y0155610D01*
X0084328Y0154811D02*
X0111573Y0154811D01*
X0110985Y0155399D02*
X0112332Y0154052D01*
X0114238Y0154052D01*
X0115585Y0155399D01*
X0115585Y0157304D01*
X0114238Y0158652D01*
X0112332Y0158652D01*
X0110985Y0157304D01*
X0110985Y0155399D01*
X0110985Y0157207D02*
X0048685Y0157207D01*
X0048685Y0158005D02*
X0111686Y0158005D01*
X0114884Y0158005D02*
X0122936Y0158005D01*
X0122860Y0157929D02*
X0122860Y0156024D01*
X0124207Y0154677D01*
X0126113Y0154677D01*
X0127460Y0156024D01*
X0127460Y0157929D01*
X0126113Y0159277D01*
X0124207Y0159277D01*
X0122860Y0157929D01*
X0122860Y0157207D02*
X0115585Y0157207D01*
X0115585Y0156408D02*
X0122860Y0156408D01*
X0123274Y0155610D02*
X0115585Y0155610D01*
X0114997Y0154811D02*
X0124073Y0154811D01*
X0126247Y0154811D02*
X0135948Y0154811D01*
X0135360Y0155610D02*
X0127046Y0155610D01*
X0127460Y0156408D02*
X0135360Y0156408D01*
X0135360Y0157207D02*
X0127460Y0157207D01*
X0127384Y0158005D02*
X0136061Y0158005D01*
X0139259Y0158005D02*
X0142129Y0158005D01*
X0141330Y0158804D02*
X0126586Y0158804D01*
X0123734Y0158804D02*
X0048685Y0158804D01*
X0048685Y0159602D02*
X0140985Y0159602D01*
X0140985Y0160401D02*
X0048685Y0160401D01*
X0048685Y0161199D02*
X0141130Y0161199D01*
X0141928Y0161998D02*
X0048685Y0161998D01*
X0048685Y0156408D02*
X0065089Y0156408D01*
X0064290Y0155610D02*
X0048685Y0155610D01*
X0048685Y0154811D02*
X0064110Y0154811D01*
X0064110Y0154013D02*
X0048685Y0154013D01*
X0048685Y0153214D02*
X0064420Y0153214D01*
X0065219Y0152416D02*
X0048685Y0152416D01*
X0048685Y0151617D02*
X0066610Y0151617D01*
X0066610Y0150819D02*
X0048685Y0150819D01*
X0048685Y0150020D02*
X0066989Y0150020D01*
X0067788Y0149222D02*
X0048685Y0149222D01*
X0048685Y0127662D02*
X0118135Y0127662D01*
X0118135Y0128377D02*
X0118135Y0126826D01*
X0118729Y0125392D01*
X0119826Y0124295D01*
X0121259Y0123702D01*
X0122811Y0123702D01*
X0124244Y0124295D01*
X0125341Y0125392D01*
X0125935Y0126826D01*
X0125935Y0128377D01*
X0125341Y0129811D01*
X0124244Y0130908D01*
X0122811Y0131502D01*
X0121259Y0131502D01*
X0119826Y0130908D01*
X0118729Y0129811D01*
X0118135Y0128377D01*
X0118169Y0128460D02*
X0116771Y0128460D01*
X0117460Y0129259D02*
X0118500Y0129259D01*
X0118975Y0130057D02*
X0117460Y0130057D01*
X0117460Y0130856D02*
X0119774Y0130856D01*
X0121259Y0133702D02*
X0119826Y0134295D01*
X0118729Y0135392D01*
X0118135Y0136826D01*
X0118135Y0138377D01*
X0118729Y0139811D01*
X0119826Y0140908D01*
X0121259Y0141502D01*
X0122811Y0141502D01*
X0124244Y0140908D01*
X0125341Y0139811D01*
X0125935Y0138377D01*
X0125935Y0136826D01*
X0125341Y0135392D01*
X0124244Y0134295D01*
X0122811Y0133702D01*
X0121259Y0133702D01*
X0120419Y0134050D02*
X0087986Y0134050D01*
X0088085Y0134848D02*
X0119273Y0134848D01*
X0118623Y0135647D02*
X0088085Y0135647D01*
X0087694Y0136445D02*
X0088689Y0136445D01*
X0089207Y0135927D02*
X0091113Y0135927D01*
X0092460Y0137274D01*
X0092460Y0139179D01*
X0091850Y0139789D01*
X0092460Y0140399D01*
X0092460Y0142304D01*
X0091113Y0143652D01*
X0089207Y0143652D01*
X0087860Y0142304D01*
X0087860Y0140399D01*
X0088470Y0139789D01*
X0087860Y0139179D01*
X0087860Y0137274D01*
X0089207Y0135927D01*
X0087890Y0137244D02*
X0086896Y0137244D01*
X0087860Y0138042D02*
X0085585Y0138042D01*
X0085299Y0138841D02*
X0087860Y0138841D01*
X0088320Y0139639D02*
X0084500Y0139639D01*
X0082452Y0140438D02*
X0087860Y0140438D01*
X0087860Y0141236D02*
X0081653Y0141236D01*
X0078342Y0138042D02*
X0076722Y0138042D01*
X0077460Y0137244D02*
X0079140Y0137244D01*
X0077460Y0136445D02*
X0081189Y0136445D01*
X0081987Y0135647D02*
X0077460Y0135647D01*
X0073613Y0141552D02*
X0071707Y0141552D01*
X0070360Y0142899D01*
X0070360Y0144804D01*
X0071707Y0146152D01*
X0073613Y0146152D01*
X0074960Y0144804D01*
X0074960Y0142899D01*
X0073613Y0141552D01*
X0074096Y0142035D02*
X0087860Y0142035D01*
X0088389Y0142833D02*
X0074895Y0142833D01*
X0074960Y0143632D02*
X0089188Y0143632D01*
X0091133Y0143632D02*
X0100360Y0143632D01*
X0100360Y0142833D02*
X0091931Y0142833D01*
X0092460Y0142035D02*
X0100599Y0142035D01*
X0101398Y0141236D02*
X0092460Y0141236D01*
X0092460Y0140438D02*
X0119356Y0140438D01*
X0118658Y0139639D02*
X0092000Y0139639D01*
X0092460Y0138841D02*
X0118327Y0138841D01*
X0118135Y0138042D02*
X0092460Y0138042D01*
X0092430Y0137244D02*
X0118135Y0137244D01*
X0118293Y0136445D02*
X0091631Y0136445D01*
X0100611Y0144430D02*
X0078992Y0144430D01*
X0076329Y0144430D02*
X0074960Y0144430D01*
X0074535Y0145229D02*
X0075530Y0145229D01*
X0075360Y0146027D02*
X0073737Y0146027D01*
X0071583Y0146027D02*
X0068737Y0146027D01*
X0069535Y0145229D02*
X0070785Y0145229D01*
X0070360Y0144430D02*
X0069960Y0144430D01*
X0069960Y0143632D02*
X0070360Y0143632D01*
X0070426Y0142833D02*
X0069895Y0142833D01*
X0069096Y0142035D02*
X0071224Y0142035D01*
X0071538Y0149222D02*
X0070033Y0149222D01*
X0070831Y0150020D02*
X0070985Y0150020D01*
X0083053Y0151617D02*
X0140392Y0151617D01*
X0140360Y0152416D02*
X0083852Y0152416D01*
X0084335Y0153214D02*
X0140360Y0153214D01*
X0140818Y0154013D02*
X0084335Y0154013D01*
X0098190Y0172378D02*
X0155256Y0172378D01*
X0154457Y0173177D02*
X0098988Y0173177D01*
X0101797Y0177968D02*
X0142791Y0177968D01*
X0146279Y0177968D02*
X0146541Y0177968D01*
X0150029Y0177968D02*
X0150291Y0177968D01*
X0150468Y0181162D02*
X0149852Y0181162D01*
X0146718Y0181162D02*
X0146102Y0181162D01*
X0154110Y0173975D02*
X0102287Y0173975D01*
X0124334Y0150819D02*
X0141191Y0150819D01*
X0144130Y0150819D02*
X0144941Y0150819D01*
X0146676Y0142833D02*
X0118020Y0142833D01*
X0120619Y0141236D02*
X0103923Y0141236D01*
X0118135Y0126863D02*
X0048685Y0126863D01*
X0048685Y0126065D02*
X0118450Y0126065D01*
X0118855Y0125266D02*
X0048685Y0125266D01*
X0048685Y0124468D02*
X0119654Y0124468D01*
X0119393Y0120475D02*
X0067414Y0120475D01*
X0067363Y0120527D02*
X0065457Y0120527D01*
X0064110Y0119179D01*
X0064110Y0117274D01*
X0065457Y0115927D01*
X0067363Y0115927D01*
X0068710Y0117274D01*
X0068710Y0119179D01*
X0067363Y0120527D01*
X0068213Y0119677D02*
X0118673Y0119677D01*
X0118343Y0118878D02*
X0068710Y0118878D01*
X0068710Y0118080D02*
X0118135Y0118080D01*
X0118135Y0117281D02*
X0092483Y0117281D01*
X0092363Y0117402D02*
X0090457Y0117402D01*
X0089535Y0116479D01*
X0088613Y0117402D01*
X0086707Y0117402D01*
X0085360Y0116054D01*
X0085360Y0114149D01*
X0086707Y0112802D01*
X0088613Y0112802D01*
X0089535Y0113724D01*
X0090457Y0112802D01*
X0092363Y0112802D01*
X0093710Y0114149D01*
X0093710Y0116054D01*
X0092363Y0117402D01*
X0093282Y0116483D02*
X0118277Y0116483D01*
X0118608Y0115684D02*
X0093710Y0115684D01*
X0093710Y0114886D02*
X0119236Y0114886D01*
X0120329Y0114087D02*
X0093648Y0114087D01*
X0092850Y0113289D02*
X0155360Y0113289D01*
X0155360Y0112899D02*
X0155360Y0114804D01*
X0156707Y0116152D01*
X0158613Y0116152D01*
X0159960Y0114804D01*
X0159960Y0112899D01*
X0158613Y0111552D01*
X0156707Y0111552D01*
X0155360Y0112899D01*
X0155769Y0112490D02*
X0072899Y0112490D01*
X0072363Y0113027D02*
X0073710Y0111679D01*
X0073710Y0109774D01*
X0072363Y0108427D01*
X0070457Y0108427D01*
X0069110Y0109774D01*
X0069110Y0111679D01*
X0070457Y0113027D01*
X0072363Y0113027D01*
X0073698Y0111691D02*
X0156568Y0111691D01*
X0158753Y0111691D02*
X0167193Y0111691D01*
X0166394Y0112490D02*
X0159551Y0112490D01*
X0159960Y0113289D02*
X0165985Y0113289D01*
X0165985Y0114087D02*
X0159960Y0114087D01*
X0159879Y0114886D02*
X0166066Y0114886D01*
X0166865Y0115684D02*
X0159080Y0115684D01*
X0156240Y0115684D02*
X0135462Y0115684D01*
X0134834Y0114886D02*
X0155441Y0114886D01*
X0155360Y0114087D02*
X0133741Y0114087D01*
X0135397Y0119677D02*
X0143582Y0119677D01*
X0142860Y0120475D02*
X0134677Y0120475D01*
X0129654Y0124468D02*
X0124417Y0124468D01*
X0125215Y0125266D02*
X0128855Y0125266D01*
X0128450Y0126065D02*
X0125620Y0126065D01*
X0125935Y0126863D02*
X0128135Y0126863D01*
X0128135Y0127662D02*
X0125935Y0127662D01*
X0125901Y0128460D02*
X0128169Y0128460D01*
X0128500Y0129259D02*
X0125570Y0129259D01*
X0125095Y0130057D02*
X0128975Y0130057D01*
X0129774Y0130856D02*
X0124296Y0130856D01*
X0123651Y0134050D02*
X0130419Y0134050D01*
X0129826Y0134295D02*
X0131259Y0133702D01*
X0132811Y0133702D01*
X0134244Y0134295D01*
X0135341Y0135392D01*
X0135935Y0136826D01*
X0135935Y0138377D01*
X0135341Y0139811D01*
X0134244Y0140908D01*
X0132811Y0141502D01*
X0131259Y0141502D01*
X0129826Y0140908D01*
X0128729Y0139811D01*
X0128135Y0138377D01*
X0128135Y0136826D01*
X0128729Y0135392D01*
X0129826Y0134295D01*
X0129273Y0134848D02*
X0124797Y0134848D01*
X0125447Y0135647D02*
X0128623Y0135647D01*
X0128293Y0136445D02*
X0125777Y0136445D01*
X0125935Y0137244D02*
X0128135Y0137244D01*
X0128135Y0138042D02*
X0125935Y0138042D01*
X0125743Y0138841D02*
X0128327Y0138841D01*
X0128658Y0139639D02*
X0125412Y0139639D01*
X0124714Y0140438D02*
X0129356Y0140438D01*
X0130619Y0141236D02*
X0123451Y0141236D01*
X0125935Y0147625D02*
X0222550Y0147625D01*
X0222550Y0148423D02*
X0210484Y0148423D01*
X0211210Y0149222D02*
X0222550Y0149222D01*
X0222550Y0150020D02*
X0211210Y0150020D01*
X0211210Y0150819D02*
X0222550Y0150819D01*
X0222550Y0151617D02*
X0210647Y0151617D01*
X0207336Y0148423D02*
X0125916Y0148423D01*
X0133451Y0141236D02*
X0153667Y0141236D01*
X0152869Y0140438D02*
X0134714Y0140438D01*
X0135412Y0139639D02*
X0152860Y0139639D01*
X0152860Y0138841D02*
X0135743Y0138841D01*
X0135935Y0138042D02*
X0153342Y0138042D01*
X0154140Y0137244D02*
X0135935Y0137244D01*
X0135777Y0136445D02*
X0154110Y0136445D01*
X0154110Y0135647D02*
X0135447Y0135647D01*
X0134797Y0134848D02*
X0154110Y0134848D01*
X0154834Y0134050D02*
X0133651Y0134050D01*
X0119811Y0110893D02*
X0073710Y0110893D01*
X0073710Y0110094D02*
X0119013Y0110094D01*
X0118516Y0109296D02*
X0073232Y0109296D01*
X0072434Y0108497D02*
X0118185Y0108497D01*
X0118135Y0107699D02*
X0048685Y0107699D01*
X0048685Y0108497D02*
X0070387Y0108497D01*
X0069588Y0109296D02*
X0048685Y0109296D01*
X0048685Y0110094D02*
X0069110Y0110094D01*
X0069110Y0110893D02*
X0048685Y0110893D01*
X0048685Y0111691D02*
X0069122Y0111691D01*
X0069921Y0112490D02*
X0048685Y0112490D01*
X0048685Y0113289D02*
X0086221Y0113289D01*
X0085422Y0114087D02*
X0048685Y0114087D01*
X0048685Y0114886D02*
X0085360Y0114886D01*
X0085360Y0115684D02*
X0048685Y0115684D01*
X0048685Y0116483D02*
X0064902Y0116483D01*
X0064110Y0117281D02*
X0048685Y0117281D01*
X0048685Y0118080D02*
X0064110Y0118080D01*
X0064110Y0118878D02*
X0048685Y0118878D01*
X0048685Y0119677D02*
X0064607Y0119677D01*
X0065406Y0120475D02*
X0048685Y0120475D01*
X0048685Y0106900D02*
X0118135Y0106900D01*
X0118435Y0106102D02*
X0048685Y0106102D01*
X0048685Y0105303D02*
X0118818Y0105303D01*
X0119616Y0104505D02*
X0048685Y0104505D01*
X0048685Y0102109D02*
X0157040Y0102109D01*
X0156242Y0101311D02*
X0133272Y0101311D01*
X0132811Y0101502D02*
X0131259Y0101502D01*
X0129826Y0100908D01*
X0128729Y0099811D01*
X0128135Y0098377D01*
X0128135Y0096826D01*
X0128729Y0095392D01*
X0129826Y0094295D01*
X0131259Y0093702D01*
X0132811Y0093702D01*
X0134244Y0094295D01*
X0135341Y0095392D01*
X0135935Y0096826D01*
X0135935Y0098377D01*
X0135341Y0099811D01*
X0134244Y0100908D01*
X0132811Y0101502D01*
X0130799Y0101311D02*
X0123272Y0101311D01*
X0122811Y0101502D02*
X0121259Y0101502D01*
X0119826Y0100908D01*
X0118729Y0099811D01*
X0118135Y0098377D01*
X0118135Y0096826D01*
X0118729Y0095392D01*
X0119826Y0094295D01*
X0121259Y0093702D01*
X0122811Y0093702D01*
X0124244Y0094295D01*
X0125341Y0095392D01*
X0125935Y0096826D01*
X0125935Y0098377D01*
X0125341Y0099811D01*
X0124244Y0100908D01*
X0122811Y0101502D01*
X0120799Y0101311D02*
X0048685Y0101311D01*
X0048685Y0100512D02*
X0072943Y0100512D01*
X0073582Y0101152D02*
X0072235Y0099804D01*
X0072235Y0097899D01*
X0073157Y0096977D01*
X0072235Y0096054D01*
X0072235Y0094149D01*
X0073157Y0093227D01*
X0072235Y0092304D01*
X0072235Y0090399D01*
X0073582Y0089052D01*
X0075488Y0089052D01*
X0076835Y0090399D01*
X0076835Y0092304D01*
X0075913Y0093227D01*
X0076835Y0094149D01*
X0076835Y0094549D01*
X0077332Y0094052D01*
X0079238Y0094052D01*
X0080585Y0095399D01*
X0080585Y0097304D01*
X0079238Y0098652D01*
X0077332Y0098652D01*
X0076835Y0098154D01*
X0076835Y0099804D01*
X0075488Y0101152D01*
X0073582Y0101152D01*
X0072235Y0099714D02*
X0048685Y0099714D01*
X0048685Y0098915D02*
X0072235Y0098915D01*
X0072235Y0098117D02*
X0048685Y0098117D01*
X0048685Y0097318D02*
X0072816Y0097318D01*
X0072701Y0096520D02*
X0048685Y0096520D01*
X0048685Y0095721D02*
X0072235Y0095721D01*
X0072235Y0094923D02*
X0048685Y0094923D01*
X0048685Y0094124D02*
X0072260Y0094124D01*
X0073058Y0093326D02*
X0048685Y0093326D01*
X0048685Y0092527D02*
X0072458Y0092527D01*
X0072235Y0091729D02*
X0048685Y0091729D01*
X0048685Y0090930D02*
X0072235Y0090930D01*
X0072502Y0090132D02*
X0048685Y0090132D01*
X0048685Y0089333D02*
X0073301Y0089333D01*
X0075769Y0089333D02*
X0086426Y0089333D01*
X0086707Y0089052D02*
X0088613Y0089052D01*
X0089960Y0090399D01*
X0089960Y0090799D01*
X0090457Y0090302D01*
X0092363Y0090302D01*
X0093710Y0091649D01*
X0093710Y0093554D01*
X0092363Y0094902D01*
X0090457Y0094902D01*
X0089110Y0093554D01*
X0089110Y0093154D01*
X0088613Y0093652D01*
X0086707Y0093652D01*
X0085360Y0092304D01*
X0085360Y0090399D01*
X0086707Y0089052D01*
X0085627Y0090132D02*
X0076568Y0090132D01*
X0076835Y0090930D02*
X0085360Y0090930D01*
X0085360Y0091729D02*
X0076835Y0091729D01*
X0076612Y0092527D02*
X0085583Y0092527D01*
X0086382Y0093326D02*
X0076012Y0093326D01*
X0076810Y0094124D02*
X0077260Y0094124D01*
X0079310Y0094124D02*
X0089680Y0094124D01*
X0089110Y0093326D02*
X0088939Y0093326D01*
X0089693Y0090132D02*
X0098812Y0090132D01*
X0098485Y0089804D02*
X0098485Y0087899D01*
X0098782Y0087602D01*
X0098485Y0087304D01*
X0098485Y0085399D01*
X0099832Y0084052D01*
X0101738Y0084052D01*
X0102035Y0084349D01*
X0102332Y0084052D01*
X0104238Y0084052D01*
X0105585Y0085399D01*
X0105585Y0087304D01*
X0105288Y0087602D01*
X0105585Y0087899D01*
X0105585Y0089804D01*
X0104238Y0091152D01*
X0102332Y0091152D01*
X0102035Y0090854D01*
X0101738Y0091152D01*
X0099832Y0091152D01*
X0098485Y0089804D01*
X0098485Y0089333D02*
X0088894Y0089333D01*
X0092991Y0090930D02*
X0099611Y0090930D01*
X0101959Y0090930D02*
X0102111Y0090930D01*
X0104459Y0090930D02*
X0119880Y0090930D01*
X0119826Y0090908D02*
X0118729Y0089811D01*
X0118135Y0088377D01*
X0118135Y0086826D01*
X0118729Y0085392D01*
X0119826Y0084295D01*
X0121259Y0083702D01*
X0122811Y0083702D01*
X0124244Y0084295D01*
X0125341Y0085392D01*
X0125935Y0086826D01*
X0125935Y0088377D01*
X0125341Y0089811D01*
X0124244Y0090908D01*
X0122811Y0091502D01*
X0121259Y0091502D01*
X0119826Y0090908D01*
X0119050Y0090132D02*
X0105258Y0090132D01*
X0105585Y0089333D02*
X0118531Y0089333D01*
X0118200Y0088535D02*
X0105585Y0088535D01*
X0105422Y0087736D02*
X0118135Y0087736D01*
X0118135Y0086938D02*
X0105585Y0086938D01*
X0105585Y0086139D02*
X0118420Y0086139D01*
X0118781Y0085341D02*
X0105527Y0085341D01*
X0104728Y0084542D02*
X0119579Y0084542D01*
X0121158Y0083744D02*
X0048685Y0083744D01*
X0048685Y0084542D02*
X0099342Y0084542D01*
X0098543Y0085341D02*
X0048685Y0085341D01*
X0048685Y0086139D02*
X0098485Y0086139D01*
X0098485Y0086938D02*
X0048685Y0086938D01*
X0048685Y0087736D02*
X0098648Y0087736D01*
X0098485Y0088535D02*
X0048685Y0088535D01*
X0048685Y0082945D02*
X0164110Y0082945D01*
X0164110Y0082274D02*
X0165457Y0080927D01*
X0167363Y0080927D01*
X0167860Y0081424D01*
X0167860Y0081024D01*
X0169207Y0079677D01*
X0171113Y0079677D01*
X0172460Y0081024D01*
X0172460Y0082929D01*
X0171113Y0084277D01*
X0169207Y0084277D01*
X0168710Y0083779D01*
X0168710Y0084179D01*
X0167363Y0085527D01*
X0165457Y0085527D01*
X0164110Y0084179D01*
X0164110Y0082274D01*
X0164238Y0082147D02*
X0135118Y0082147D01*
X0134863Y0082402D02*
X0132957Y0082402D01*
X0131610Y0081054D01*
X0131610Y0080029D01*
X0131113Y0080527D01*
X0129207Y0080527D01*
X0127860Y0079179D01*
X0127860Y0077274D01*
X0129207Y0075927D01*
X0131113Y0075927D01*
X0132460Y0077274D01*
X0132460Y0078299D01*
X0132957Y0077802D01*
X0134863Y0077802D01*
X0136210Y0079149D01*
X0136210Y0081054D01*
X0134863Y0082402D01*
X0135916Y0081348D02*
X0165036Y0081348D01*
X0164110Y0083744D02*
X0132912Y0083744D01*
X0132811Y0083702D02*
X0134244Y0084295D01*
X0135341Y0085392D01*
X0135935Y0086826D01*
X0135935Y0088377D01*
X0135341Y0089811D01*
X0134244Y0090908D01*
X0132811Y0091502D01*
X0131259Y0091502D01*
X0129826Y0090908D01*
X0128729Y0089811D01*
X0128135Y0088377D01*
X0128135Y0086826D01*
X0128729Y0085392D01*
X0129826Y0084295D01*
X0131259Y0083702D01*
X0132811Y0083702D01*
X0132702Y0082147D02*
X0083243Y0082147D01*
X0082988Y0082402D02*
X0081082Y0082402D01*
X0079735Y0081054D01*
X0079735Y0079149D01*
X0081082Y0077802D01*
X0082988Y0077802D01*
X0084335Y0079149D01*
X0084335Y0081054D01*
X0082988Y0082402D01*
X0084041Y0081348D02*
X0131904Y0081348D01*
X0131610Y0080550D02*
X0084335Y0080550D01*
X0084335Y0079751D02*
X0115932Y0079751D01*
X0115360Y0079179D02*
X0115360Y0077274D01*
X0116707Y0075927D01*
X0118613Y0075927D01*
X0118910Y0076224D01*
X0119207Y0075927D01*
X0121113Y0075927D01*
X0121410Y0076224D01*
X0121707Y0075927D01*
X0123613Y0075927D01*
X0124960Y0077274D01*
X0124960Y0079179D01*
X0123613Y0080527D01*
X0121707Y0080527D01*
X0121410Y0080229D01*
X0121113Y0080527D01*
X0119207Y0080527D01*
X0118910Y0080229D01*
X0118613Y0080527D01*
X0116707Y0080527D01*
X0115360Y0079179D01*
X0115360Y0078953D02*
X0084139Y0078953D01*
X0083340Y0078154D02*
X0115360Y0078154D01*
X0115360Y0077356D02*
X0048685Y0077356D01*
X0048685Y0078154D02*
X0080730Y0078154D01*
X0079932Y0078953D02*
X0048685Y0078953D01*
X0048685Y0079751D02*
X0079735Y0079751D01*
X0079735Y0080550D02*
X0048685Y0080550D01*
X0048685Y0081348D02*
X0080029Y0081348D01*
X0080827Y0082147D02*
X0048685Y0082147D01*
X0048685Y0076557D02*
X0116077Y0076557D01*
X0122912Y0083744D02*
X0131158Y0083744D01*
X0129579Y0084542D02*
X0124491Y0084542D01*
X0125290Y0085341D02*
X0128781Y0085341D01*
X0128420Y0086139D02*
X0125651Y0086139D01*
X0125935Y0086938D02*
X0128135Y0086938D01*
X0128135Y0087736D02*
X0125935Y0087736D01*
X0125870Y0088535D02*
X0128200Y0088535D01*
X0128531Y0089333D02*
X0125539Y0089333D01*
X0125021Y0090132D02*
X0129050Y0090132D01*
X0129880Y0090930D02*
X0124190Y0090930D01*
X0123831Y0094124D02*
X0130239Y0094124D01*
X0129199Y0094923D02*
X0124872Y0094923D01*
X0125478Y0095721D02*
X0128593Y0095721D01*
X0128262Y0096520D02*
X0125808Y0096520D01*
X0125935Y0097318D02*
X0128135Y0097318D01*
X0128135Y0098117D02*
X0125935Y0098117D01*
X0125712Y0098915D02*
X0128358Y0098915D01*
X0128689Y0099714D02*
X0125382Y0099714D01*
X0124640Y0100512D02*
X0129430Y0100512D01*
X0134640Y0100512D02*
X0155985Y0100512D01*
X0155985Y0099714D02*
X0135382Y0099714D01*
X0135712Y0098915D02*
X0156219Y0098915D01*
X0157017Y0098117D02*
X0147273Y0098117D01*
X0146738Y0098652D02*
X0144832Y0098652D01*
X0143485Y0097304D01*
X0143485Y0095399D01*
X0144832Y0094052D01*
X0146738Y0094052D01*
X0148085Y0095399D01*
X0148085Y0097304D01*
X0146738Y0098652D01*
X0148071Y0097318D02*
X0158485Y0097318D01*
X0157701Y0096520D02*
X0148085Y0096520D01*
X0148085Y0095721D02*
X0156902Y0095721D01*
X0156610Y0094923D02*
X0147609Y0094923D01*
X0146810Y0094124D02*
X0156610Y0094124D01*
X0156808Y0093326D02*
X0140189Y0093326D01*
X0139863Y0093652D02*
X0137957Y0093652D01*
X0136610Y0092304D01*
X0136610Y0090399D01*
X0137957Y0089052D01*
X0139863Y0089052D01*
X0141210Y0090399D01*
X0141210Y0092304D01*
X0139863Y0093652D01*
X0140987Y0092527D02*
X0157607Y0092527D01*
X0157284Y0091729D02*
X0141210Y0091729D01*
X0141210Y0090930D02*
X0157235Y0090930D01*
X0157235Y0090132D02*
X0140943Y0090132D01*
X0140144Y0089333D02*
X0157676Y0089333D01*
X0158474Y0088535D02*
X0135870Y0088535D01*
X0135935Y0087736D02*
X0222550Y0087736D01*
X0222550Y0086938D02*
X0204702Y0086938D01*
X0204238Y0087402D02*
X0202332Y0087402D01*
X0200985Y0086054D01*
X0200985Y0084149D01*
X0202332Y0082802D01*
X0204238Y0082802D01*
X0205585Y0084149D01*
X0205585Y0086054D01*
X0204238Y0087402D01*
X0205500Y0086139D02*
X0222550Y0086139D01*
X0222550Y0085341D02*
X0205585Y0085341D01*
X0205585Y0084542D02*
X0222550Y0084542D01*
X0222550Y0083744D02*
X0205180Y0083744D01*
X0204381Y0082945D02*
X0222550Y0082945D01*
X0222550Y0082147D02*
X0182460Y0082147D01*
X0182460Y0081649D02*
X0182460Y0083554D01*
X0181113Y0084902D01*
X0179207Y0084902D01*
X0178285Y0083979D01*
X0177363Y0084902D01*
X0175457Y0084902D01*
X0174110Y0083554D01*
X0174110Y0081649D01*
X0175457Y0080302D01*
X0177363Y0080302D01*
X0178285Y0081224D01*
X0179207Y0080302D01*
X0181113Y0080302D01*
X0182460Y0081649D01*
X0182159Y0081348D02*
X0222550Y0081348D01*
X0222550Y0080550D02*
X0181361Y0080550D01*
X0178960Y0080550D02*
X0177611Y0080550D01*
X0175210Y0080550D02*
X0171986Y0080550D01*
X0172460Y0081348D02*
X0174411Y0081348D01*
X0174110Y0082147D02*
X0172460Y0082147D01*
X0172444Y0082945D02*
X0174110Y0082945D01*
X0174299Y0083744D02*
X0171646Y0083744D01*
X0168347Y0084542D02*
X0175098Y0084542D01*
X0177722Y0084542D02*
X0178848Y0084542D01*
X0181472Y0084542D02*
X0200985Y0084542D01*
X0200985Y0085341D02*
X0167549Y0085341D01*
X0165271Y0085341D02*
X0135290Y0085341D01*
X0135651Y0086139D02*
X0201070Y0086139D01*
X0201868Y0086938D02*
X0135935Y0086938D01*
X0135539Y0089333D02*
X0137676Y0089333D01*
X0136877Y0090132D02*
X0135021Y0090132D01*
X0134190Y0090930D02*
X0136610Y0090930D01*
X0136610Y0091729D02*
X0093710Y0091729D01*
X0093710Y0092527D02*
X0136833Y0092527D01*
X0137632Y0093326D02*
X0093710Y0093326D01*
X0093140Y0094124D02*
X0120239Y0094124D01*
X0119199Y0094923D02*
X0080109Y0094923D01*
X0080585Y0095721D02*
X0118593Y0095721D01*
X0118262Y0096520D02*
X0080585Y0096520D01*
X0080571Y0097318D02*
X0118135Y0097318D01*
X0118135Y0098117D02*
X0079773Y0098117D01*
X0076835Y0098915D02*
X0118358Y0098915D01*
X0118689Y0099714D02*
X0076835Y0099714D01*
X0076127Y0100512D02*
X0119430Y0100512D01*
X0133831Y0094124D02*
X0144760Y0094124D01*
X0143961Y0094923D02*
X0134872Y0094923D01*
X0135478Y0095721D02*
X0143485Y0095721D01*
X0143485Y0096520D02*
X0135808Y0096520D01*
X0135935Y0097318D02*
X0143499Y0097318D01*
X0144298Y0098117D02*
X0135935Y0098117D01*
X0134491Y0084542D02*
X0164473Y0084542D01*
X0164346Y0088535D02*
X0165974Y0088535D01*
X0165176Y0089333D02*
X0165144Y0089333D01*
X0168096Y0088535D02*
X0222550Y0088535D01*
X0222550Y0089333D02*
X0168894Y0089333D01*
X0169335Y0090132D02*
X0222550Y0090132D01*
X0222550Y0090930D02*
X0169335Y0090930D01*
X0169286Y0091729D02*
X0222550Y0091729D01*
X0222550Y0092527D02*
X0168487Y0092527D01*
X0165583Y0092527D02*
X0164737Y0092527D01*
X0161833Y0092527D02*
X0160987Y0092527D01*
X0161012Y0093326D02*
X0222550Y0093326D01*
X0222550Y0094124D02*
X0161210Y0094124D01*
X0161210Y0094923D02*
X0222550Y0094923D01*
X0222550Y0095721D02*
X0162157Y0095721D01*
X0162956Y0096520D02*
X0222550Y0096520D01*
X0222550Y0097318D02*
X0163085Y0097318D01*
X0163085Y0098117D02*
X0222550Y0098117D01*
X0222550Y0098915D02*
X0162724Y0098915D01*
X0161926Y0099714D02*
X0207920Y0099714D01*
X0207957Y0099677D02*
X0209863Y0099677D01*
X0211210Y0101024D01*
X0211210Y0102929D01*
X0209863Y0104277D01*
X0207957Y0104277D01*
X0206610Y0102929D01*
X0206610Y0101024D01*
X0207957Y0099677D01*
X0207122Y0100512D02*
X0161948Y0100512D01*
X0162747Y0101311D02*
X0206610Y0101311D01*
X0206610Y0102109D02*
X0163085Y0102109D01*
X0163085Y0102908D02*
X0206610Y0102908D01*
X0207387Y0103706D02*
X0162933Y0103706D01*
X0161426Y0089333D02*
X0161394Y0089333D01*
X0160596Y0088535D02*
X0162224Y0088535D01*
X0167784Y0081348D02*
X0167860Y0081348D01*
X0168335Y0080550D02*
X0136210Y0080550D01*
X0136210Y0079751D02*
X0169133Y0079751D01*
X0171187Y0079751D02*
X0222550Y0079751D01*
X0222550Y0078953D02*
X0136014Y0078953D01*
X0135215Y0078154D02*
X0222550Y0078154D01*
X0222550Y0077356D02*
X0132460Y0077356D01*
X0132460Y0078154D02*
X0132605Y0078154D01*
X0131743Y0076557D02*
X0222550Y0076557D01*
X0222550Y0075758D02*
X0048685Y0075758D01*
X0048685Y0074960D02*
X0222550Y0074960D01*
X0222550Y0074161D02*
X0048685Y0074161D01*
X0048685Y0073363D02*
X0222550Y0073363D01*
X0222550Y0072564D02*
X0048685Y0072564D01*
X0048685Y0071766D02*
X0183572Y0071766D01*
X0184207Y0072402D02*
X0182860Y0071054D01*
X0182860Y0069149D01*
X0184207Y0067802D01*
X0186113Y0067802D01*
X0187460Y0069149D01*
X0187460Y0071054D01*
X0186113Y0072402D01*
X0184207Y0072402D01*
X0182860Y0070967D02*
X0048685Y0070967D01*
X0048685Y0070169D02*
X0182860Y0070169D01*
X0182860Y0069370D02*
X0048685Y0069370D01*
X0048685Y0068572D02*
X0183437Y0068572D01*
X0186883Y0068572D02*
X0189466Y0068572D01*
X0189385Y0068377D02*
X0189385Y0066826D01*
X0189979Y0065392D01*
X0191076Y0064295D01*
X0192509Y0063702D01*
X0194061Y0063702D01*
X0195494Y0064295D01*
X0196591Y0065392D01*
X0197185Y0066826D01*
X0197185Y0068377D01*
X0196591Y0069811D01*
X0195494Y0070908D01*
X0194061Y0071502D01*
X0192509Y0071502D01*
X0191076Y0070908D01*
X0189979Y0069811D01*
X0189385Y0068377D01*
X0189385Y0067773D02*
X0048685Y0067773D01*
X0048685Y0066975D02*
X0189385Y0066975D01*
X0189654Y0066176D02*
X0048685Y0066176D01*
X0048685Y0065378D02*
X0189994Y0065378D01*
X0190792Y0064579D02*
X0048685Y0064579D01*
X0048685Y0063781D02*
X0192318Y0063781D01*
X0194252Y0063781D02*
X0202318Y0063781D01*
X0202509Y0063702D02*
X0204061Y0063702D01*
X0205494Y0064295D01*
X0206591Y0065392D01*
X0207185Y0066826D01*
X0207185Y0068377D01*
X0206591Y0069811D01*
X0205494Y0070908D01*
X0204061Y0071502D01*
X0202509Y0071502D01*
X0201076Y0070908D01*
X0199979Y0069811D01*
X0199385Y0068377D01*
X0199385Y0066826D01*
X0199979Y0065392D01*
X0201076Y0064295D01*
X0202509Y0063702D01*
X0204252Y0063781D02*
X0212318Y0063781D01*
X0212509Y0063702D02*
X0214061Y0063702D01*
X0215494Y0064295D01*
X0216591Y0065392D01*
X0217185Y0066826D01*
X0217185Y0068377D01*
X0216591Y0069811D01*
X0215494Y0070908D01*
X0214061Y0071502D01*
X0212509Y0071502D01*
X0211076Y0070908D01*
X0209979Y0069811D01*
X0209385Y0068377D01*
X0209385Y0066826D01*
X0209979Y0065392D01*
X0211076Y0064295D01*
X0212509Y0063702D01*
X0214252Y0063781D02*
X0222550Y0063781D01*
X0222550Y0064579D02*
X0215778Y0064579D01*
X0216577Y0065378D02*
X0222550Y0065378D01*
X0222550Y0066176D02*
X0216916Y0066176D01*
X0217185Y0066975D02*
X0222550Y0066975D01*
X0222550Y0067773D02*
X0217185Y0067773D01*
X0217105Y0068572D02*
X0222550Y0068572D01*
X0222550Y0069370D02*
X0216774Y0069370D01*
X0216233Y0070169D02*
X0222550Y0070169D01*
X0222550Y0070967D02*
X0215351Y0070967D01*
X0211220Y0070967D02*
X0205351Y0070967D01*
X0206233Y0070169D02*
X0210337Y0070169D01*
X0209796Y0069370D02*
X0206774Y0069370D01*
X0207105Y0068572D02*
X0209466Y0068572D01*
X0209385Y0067773D02*
X0207185Y0067773D01*
X0207185Y0066975D02*
X0209385Y0066975D01*
X0209654Y0066176D02*
X0206916Y0066176D01*
X0206577Y0065378D02*
X0209994Y0065378D01*
X0210792Y0064579D02*
X0205778Y0064579D01*
X0200792Y0064579D02*
X0195778Y0064579D01*
X0196577Y0065378D02*
X0199994Y0065378D01*
X0199654Y0066176D02*
X0196916Y0066176D01*
X0197185Y0066975D02*
X0199385Y0066975D01*
X0199385Y0067773D02*
X0197185Y0067773D01*
X0197105Y0068572D02*
X0199466Y0068572D01*
X0199796Y0069370D02*
X0196774Y0069370D01*
X0196233Y0070169D02*
X0200337Y0070169D01*
X0201220Y0070967D02*
X0195351Y0070967D01*
X0191220Y0070967D02*
X0187460Y0070967D01*
X0187460Y0070169D02*
X0190337Y0070169D01*
X0189796Y0069370D02*
X0187460Y0069370D01*
X0186749Y0071766D02*
X0222550Y0071766D01*
X0222550Y0062982D02*
X0048685Y0062982D01*
X0048685Y0062184D02*
X0222550Y0062184D01*
X0222550Y0061385D02*
X0194342Y0061385D01*
X0195815Y0060587D02*
X0222550Y0060587D01*
X0222550Y0059788D02*
X0196601Y0059788D01*
X0196931Y0058990D02*
X0219546Y0058990D01*
X0218747Y0058191D02*
X0197185Y0058191D01*
X0197185Y0057393D02*
X0218485Y0057393D01*
X0218485Y0056594D02*
X0197089Y0056594D01*
X0196758Y0055796D02*
X0218713Y0055796D01*
X0219512Y0054997D02*
X0196196Y0054997D01*
X0190374Y0054997D02*
X0180183Y0054997D01*
X0179863Y0054677D02*
X0181210Y0056024D01*
X0181210Y0057929D01*
X0179863Y0059277D01*
X0177957Y0059277D01*
X0176610Y0057929D01*
X0176610Y0056024D01*
X0177957Y0054677D01*
X0179863Y0054677D01*
X0180982Y0055796D02*
X0189812Y0055796D01*
X0189481Y0056594D02*
X0181210Y0056594D01*
X0181210Y0057393D02*
X0189385Y0057393D01*
X0189385Y0058191D02*
X0180948Y0058191D01*
X0180150Y0058990D02*
X0189639Y0058990D01*
X0189970Y0059788D02*
X0071210Y0059788D01*
X0071210Y0058990D02*
X0172671Y0058990D01*
X0172957Y0059277D02*
X0171610Y0057929D01*
X0171610Y0056024D01*
X0172957Y0054677D01*
X0174863Y0054677D01*
X0176210Y0056024D01*
X0176210Y0057929D01*
X0174863Y0059277D01*
X0172957Y0059277D01*
X0171872Y0058191D02*
X0070877Y0058191D01*
X0071122Y0057393D02*
X0171610Y0057393D01*
X0171610Y0056594D02*
X0071210Y0056594D01*
X0071210Y0055796D02*
X0171838Y0055796D01*
X0172637Y0054997D02*
X0070808Y0054997D01*
X0071053Y0060587D02*
X0190755Y0060587D01*
X0192228Y0061385D02*
X0070254Y0061385D01*
X0062566Y0061385D02*
X0048685Y0061385D01*
X0048685Y0060587D02*
X0061768Y0060587D01*
X0061610Y0059788D02*
X0048685Y0059788D01*
X0048685Y0058990D02*
X0061610Y0058990D01*
X0061943Y0058191D02*
X0048685Y0058191D01*
X0048685Y0057393D02*
X0061699Y0057393D01*
X0061610Y0056594D02*
X0048685Y0056594D01*
X0048685Y0055796D02*
X0061610Y0055796D01*
X0062012Y0054997D02*
X0048685Y0054997D01*
X0089100Y0113289D02*
X0089971Y0113289D01*
X0089538Y0116483D02*
X0089532Y0116483D01*
X0088733Y0117281D02*
X0090337Y0117281D01*
X0086587Y0117281D02*
X0068710Y0117281D01*
X0067919Y0116483D02*
X0085788Y0116483D01*
X0124388Y0079751D02*
X0128432Y0079751D01*
X0127860Y0078953D02*
X0124960Y0078953D01*
X0124960Y0078154D02*
X0127860Y0078154D01*
X0127860Y0077356D02*
X0124960Y0077356D01*
X0124243Y0076557D02*
X0128577Y0076557D01*
X0175150Y0058990D02*
X0177671Y0058990D01*
X0176872Y0058191D02*
X0175948Y0058191D01*
X0176210Y0057393D02*
X0176610Y0057393D01*
X0176610Y0056594D02*
X0176210Y0056594D01*
X0175982Y0055796D02*
X0176838Y0055796D01*
X0177637Y0054997D02*
X0175183Y0054997D01*
X0182460Y0082945D02*
X0202189Y0082945D01*
X0201390Y0083744D02*
X0182271Y0083744D01*
X0209900Y0099714D02*
X0222550Y0099714D01*
X0222550Y0100512D02*
X0210698Y0100512D01*
X0211210Y0101311D02*
X0222550Y0101311D01*
X0222550Y0102109D02*
X0211210Y0102109D01*
X0211210Y0102908D02*
X0222550Y0102908D01*
X0222550Y0103706D02*
X0210433Y0103706D01*
X0191360Y0121274D02*
X0180835Y0121274D01*
X0181633Y0122072D02*
X0190562Y0122072D01*
X0190360Y0122871D02*
X0181835Y0122871D01*
X0181835Y0123669D02*
X0190360Y0123669D01*
X0190648Y0124468D02*
X0181547Y0124468D01*
X0181077Y0125266D02*
X0191447Y0125266D01*
X0187996Y0154013D02*
X0183252Y0154013D01*
X0182453Y0154811D02*
X0187235Y0154811D01*
X0190509Y0158005D02*
X0222550Y0158005D01*
X0222550Y0157207D02*
X0191308Y0157207D01*
X0191835Y0156408D02*
X0222550Y0156408D01*
X0222550Y0155610D02*
X0191835Y0155610D01*
X0180466Y0205916D02*
X0173447Y0205916D01*
X0174414Y0206714D02*
X0179499Y0206714D01*
X0178785Y0207513D02*
X0175128Y0207513D01*
X0175459Y0208311D02*
X0178454Y0208311D01*
X0178123Y0210707D02*
X0175789Y0210707D01*
X0175578Y0211505D02*
X0178335Y0211505D01*
X0178665Y0212304D02*
X0175247Y0212304D01*
X0174702Y0213102D02*
X0179211Y0213102D01*
X0180009Y0213901D02*
X0173904Y0213901D01*
X0172214Y0214699D02*
X0181698Y0214699D01*
X0169887Y0214699D02*
X0160403Y0214699D01*
X0162093Y0213901D02*
X0168198Y0213901D01*
X0167399Y0213102D02*
X0162891Y0213102D01*
X0163436Y0212304D02*
X0166854Y0212304D01*
X0166524Y0211505D02*
X0163767Y0211505D01*
X0163978Y0210707D02*
X0166312Y0210707D01*
X0166643Y0208311D02*
X0163648Y0208311D01*
X0163317Y0207513D02*
X0166974Y0207513D01*
X0167688Y0206714D02*
X0162603Y0206714D01*
X0161636Y0205916D02*
X0168655Y0205916D01*
X0163378Y0215498D02*
X0155102Y0215498D01*
X0154277Y0215156D02*
X0156019Y0215878D01*
X0157352Y0217211D01*
X0158073Y0218952D01*
X0158073Y0220838D01*
X0157352Y0222579D01*
X0156019Y0223912D01*
X0154277Y0224634D01*
X0152392Y0224634D01*
X0150650Y0223912D01*
X0149317Y0222579D01*
X0148596Y0220838D01*
X0148596Y0218952D01*
X0149317Y0217211D01*
X0150650Y0215878D01*
X0152392Y0215156D01*
X0154277Y0215156D01*
X0155588Y0213102D02*
X0151080Y0213102D01*
X0151625Y0212304D02*
X0155043Y0212304D01*
X0154713Y0211505D02*
X0151956Y0211505D01*
X0152167Y0210707D02*
X0154501Y0210707D01*
X0154832Y0208311D02*
X0151837Y0208311D01*
X0151506Y0207513D02*
X0155163Y0207513D01*
X0155877Y0206714D02*
X0150792Y0206714D01*
X0149825Y0205916D02*
X0156844Y0205916D01*
X0156387Y0213901D02*
X0150282Y0213901D01*
X0148592Y0214699D02*
X0158076Y0214699D01*
X0156437Y0216296D02*
X0162042Y0216296D01*
X0161244Y0217095D02*
X0157236Y0217095D01*
X0157634Y0217894D02*
X0160845Y0217894D01*
X0160515Y0218692D02*
X0157965Y0218692D01*
X0158073Y0219491D02*
X0160407Y0219491D01*
X0160407Y0220289D02*
X0158073Y0220289D01*
X0157969Y0221088D02*
X0160510Y0221088D01*
X0160841Y0221886D02*
X0157639Y0221886D01*
X0157246Y0222685D02*
X0161234Y0222685D01*
X0162032Y0223483D02*
X0156448Y0223483D01*
X0155127Y0224282D02*
X0163353Y0224282D01*
X0164203Y0228936D02*
X0166088Y0228936D01*
X0167830Y0229657D01*
X0169163Y0230990D01*
X0169884Y0232732D01*
X0169884Y0234617D01*
X0169163Y0236359D01*
X0167830Y0237692D01*
X0166088Y0238413D01*
X0164203Y0238413D01*
X0162461Y0237692D01*
X0161128Y0236359D01*
X0160407Y0234617D01*
X0160407Y0232732D01*
X0161128Y0230990D01*
X0162461Y0229657D01*
X0164203Y0228936D01*
X0163873Y0229073D02*
X0154607Y0229073D01*
X0154277Y0228936D02*
X0152392Y0228936D01*
X0150650Y0229657D01*
X0149317Y0230990D01*
X0148596Y0232732D01*
X0148596Y0234617D01*
X0149317Y0236359D01*
X0150650Y0237692D01*
X0152392Y0238413D01*
X0154277Y0238413D01*
X0156019Y0237692D01*
X0157352Y0236359D01*
X0158073Y0234617D01*
X0158073Y0232732D01*
X0157352Y0230990D01*
X0156019Y0229657D01*
X0154277Y0228936D01*
X0156232Y0229871D02*
X0162247Y0229871D01*
X0161449Y0230670D02*
X0157031Y0230670D01*
X0157549Y0231468D02*
X0160930Y0231468D01*
X0160599Y0232267D02*
X0157880Y0232267D01*
X0158073Y0233065D02*
X0160407Y0233065D01*
X0160407Y0233864D02*
X0158073Y0233864D01*
X0158054Y0234662D02*
X0160426Y0234662D01*
X0160756Y0235461D02*
X0157723Y0235461D01*
X0157393Y0236259D02*
X0161087Y0236259D01*
X0161827Y0237058D02*
X0156652Y0237058D01*
X0155621Y0237856D02*
X0162859Y0237856D01*
X0167034Y0240833D02*
X0168367Y0239500D01*
X0170108Y0238778D01*
X0171993Y0238778D01*
X0173735Y0239500D01*
X0175068Y0240833D01*
X0175789Y0242574D01*
X0175789Y0244460D01*
X0175068Y0246201D01*
X0173735Y0247534D01*
X0171993Y0248256D01*
X0170108Y0248256D01*
X0168367Y0247534D01*
X0167034Y0246201D01*
X0166312Y0244460D01*
X0166312Y0242574D01*
X0167034Y0240833D01*
X0166944Y0241050D02*
X0139725Y0241050D01*
X0139635Y0240833D02*
X0140356Y0242574D01*
X0140356Y0244460D01*
X0139635Y0246201D01*
X0138302Y0247534D01*
X0136560Y0248256D01*
X0134675Y0248256D01*
X0132934Y0247534D01*
X0131601Y0246201D01*
X0130879Y0244460D01*
X0130879Y0242574D01*
X0131601Y0240833D01*
X0132934Y0239500D01*
X0134675Y0238778D01*
X0136560Y0238778D01*
X0138302Y0239500D01*
X0139635Y0240833D01*
X0139054Y0240252D02*
X0167615Y0240252D01*
X0168479Y0239453D02*
X0138190Y0239453D01*
X0138839Y0237692D02*
X0137506Y0236359D01*
X0136785Y0234617D01*
X0136785Y0232732D01*
X0137506Y0230990D01*
X0138839Y0229657D01*
X0140581Y0228936D01*
X0142466Y0228936D01*
X0144208Y0229657D01*
X0145540Y0230990D01*
X0146262Y0232732D01*
X0146262Y0234617D01*
X0145540Y0236359D01*
X0144208Y0237692D01*
X0142466Y0238413D01*
X0140581Y0238413D01*
X0138839Y0237692D01*
X0139237Y0237856D02*
X0131999Y0237856D01*
X0132396Y0237692D02*
X0130655Y0238413D01*
X0128770Y0238413D01*
X0127028Y0237692D01*
X0125695Y0236359D01*
X0124974Y0234617D01*
X0124974Y0232732D01*
X0125695Y0230990D01*
X0127028Y0229657D01*
X0128770Y0228936D01*
X0130655Y0228936D01*
X0132396Y0229657D01*
X0133729Y0230990D01*
X0134451Y0232732D01*
X0134451Y0234617D01*
X0133729Y0236359D01*
X0132396Y0237692D01*
X0133030Y0237058D02*
X0138205Y0237058D01*
X0137465Y0236259D02*
X0133771Y0236259D01*
X0134101Y0235461D02*
X0137134Y0235461D01*
X0136803Y0234662D02*
X0134432Y0234662D01*
X0134451Y0233864D02*
X0136785Y0233864D01*
X0136785Y0233065D02*
X0134451Y0233065D01*
X0134258Y0232267D02*
X0136977Y0232267D01*
X0137308Y0231468D02*
X0133927Y0231468D01*
X0133409Y0230670D02*
X0137827Y0230670D01*
X0138625Y0229871D02*
X0132610Y0229871D01*
X0130985Y0229073D02*
X0140251Y0229073D01*
X0142796Y0229073D02*
X0152062Y0229073D01*
X0150436Y0229871D02*
X0144421Y0229871D01*
X0145220Y0230670D02*
X0149638Y0230670D01*
X0149119Y0231468D02*
X0145738Y0231468D01*
X0146069Y0232267D02*
X0148788Y0232267D01*
X0148596Y0233065D02*
X0146262Y0233065D01*
X0146262Y0233864D02*
X0148596Y0233864D01*
X0148614Y0234662D02*
X0146243Y0234662D01*
X0145912Y0235461D02*
X0148945Y0235461D01*
X0149276Y0236259D02*
X0145582Y0236259D01*
X0144841Y0237058D02*
X0150016Y0237058D01*
X0151048Y0237856D02*
X0143810Y0237856D01*
X0140056Y0241849D02*
X0166613Y0241849D01*
X0166312Y0242647D02*
X0140356Y0242647D01*
X0140356Y0243446D02*
X0166312Y0243446D01*
X0166312Y0244244D02*
X0140356Y0244244D01*
X0140115Y0245043D02*
X0166554Y0245043D01*
X0166885Y0245841D02*
X0139784Y0245841D01*
X0139196Y0246640D02*
X0167472Y0246640D01*
X0168271Y0247438D02*
X0138398Y0247438D01*
X0136605Y0248237D02*
X0170063Y0248237D01*
X0172038Y0248237D02*
X0181874Y0248237D01*
X0181919Y0248256D02*
X0180178Y0247534D01*
X0178845Y0246201D01*
X0178123Y0244460D01*
X0178123Y0242574D01*
X0178845Y0240833D01*
X0180178Y0239500D01*
X0181919Y0238778D01*
X0183804Y0238778D01*
X0185546Y0239500D01*
X0186879Y0240833D01*
X0187600Y0242574D01*
X0187600Y0244460D01*
X0186879Y0246201D01*
X0185546Y0247534D01*
X0183804Y0248256D01*
X0181919Y0248256D01*
X0183849Y0248237D02*
X0222550Y0248237D01*
X0222550Y0249035D02*
X0048685Y0249035D01*
X0048685Y0248237D02*
X0087386Y0248237D01*
X0087431Y0248256D02*
X0085690Y0247534D01*
X0084357Y0246201D01*
X0083635Y0244460D01*
X0083635Y0242574D01*
X0084357Y0240833D01*
X0085690Y0239500D01*
X0087431Y0238778D01*
X0089316Y0238778D01*
X0091058Y0239500D01*
X0092391Y0240833D01*
X0093112Y0242574D01*
X0093112Y0244460D01*
X0092391Y0246201D01*
X0091058Y0247534D01*
X0089316Y0248256D01*
X0087431Y0248256D01*
X0089361Y0248237D02*
X0099197Y0248237D01*
X0099242Y0248256D02*
X0097501Y0247534D01*
X0096168Y0246201D01*
X0095446Y0244460D01*
X0095446Y0242574D01*
X0096168Y0240833D01*
X0097501Y0239500D01*
X0099242Y0238778D01*
X0101127Y0238778D01*
X0102869Y0239500D01*
X0104202Y0240833D01*
X0104923Y0242574D01*
X0104923Y0244460D01*
X0104202Y0246201D01*
X0102869Y0247534D01*
X0101127Y0248256D01*
X0099242Y0248256D01*
X0101172Y0248237D02*
X0111008Y0248237D01*
X0111053Y0248256D02*
X0109312Y0247534D01*
X0107979Y0246201D01*
X0107257Y0244460D01*
X0107257Y0242574D01*
X0107979Y0240833D01*
X0109312Y0239500D01*
X0111053Y0238778D01*
X0112938Y0238778D01*
X0114680Y0239500D01*
X0116013Y0240833D01*
X0116734Y0242574D01*
X0116734Y0244460D01*
X0116013Y0246201D01*
X0114680Y0247534D01*
X0112938Y0248256D01*
X0111053Y0248256D01*
X0112983Y0248237D02*
X0122819Y0248237D01*
X0122864Y0248256D02*
X0121123Y0247534D01*
X0119790Y0246201D01*
X0119068Y0244460D01*
X0119068Y0242574D01*
X0119790Y0240833D01*
X0121123Y0239500D01*
X0122864Y0238778D01*
X0124749Y0238778D01*
X0126491Y0239500D01*
X0127824Y0240833D01*
X0128545Y0242574D01*
X0128545Y0244460D01*
X0127824Y0246201D01*
X0126491Y0247534D01*
X0124749Y0248256D01*
X0122864Y0248256D01*
X0124794Y0248237D02*
X0134630Y0248237D01*
X0132838Y0247438D02*
X0126587Y0247438D01*
X0127385Y0246640D02*
X0132039Y0246640D01*
X0131452Y0245841D02*
X0127973Y0245841D01*
X0128304Y0245043D02*
X0131121Y0245043D01*
X0130879Y0244244D02*
X0128545Y0244244D01*
X0128545Y0243446D02*
X0130879Y0243446D01*
X0130879Y0242647D02*
X0128545Y0242647D01*
X0128245Y0241849D02*
X0131180Y0241849D01*
X0131511Y0241050D02*
X0127914Y0241050D01*
X0127243Y0240252D02*
X0132182Y0240252D01*
X0133046Y0239453D02*
X0126379Y0239453D01*
X0127426Y0237856D02*
X0120188Y0237856D01*
X0120585Y0237692D02*
X0118844Y0238413D01*
X0116959Y0238413D01*
X0115217Y0237692D01*
X0113884Y0236359D01*
X0113163Y0234617D01*
X0113163Y0232732D01*
X0113884Y0230990D01*
X0115217Y0229657D01*
X0116959Y0228936D01*
X0118844Y0228936D01*
X0120585Y0229657D01*
X0121918Y0230990D01*
X0122640Y0232732D01*
X0122640Y0234617D01*
X0121918Y0236359D01*
X0120585Y0237692D01*
X0121219Y0237058D02*
X0126394Y0237058D01*
X0125654Y0236259D02*
X0121960Y0236259D01*
X0122290Y0235461D02*
X0125323Y0235461D01*
X0124992Y0234662D02*
X0122621Y0234662D01*
X0122640Y0233864D02*
X0124974Y0233864D01*
X0124974Y0233065D02*
X0122640Y0233065D01*
X0122447Y0232267D02*
X0125166Y0232267D01*
X0125497Y0231468D02*
X0122116Y0231468D01*
X0121598Y0230670D02*
X0126016Y0230670D01*
X0126814Y0229871D02*
X0120799Y0229871D01*
X0119174Y0229073D02*
X0128440Y0229073D01*
X0128770Y0224634D02*
X0127028Y0223912D01*
X0125695Y0222579D01*
X0124974Y0220838D01*
X0124974Y0218952D01*
X0125695Y0217211D01*
X0127028Y0215878D01*
X0128770Y0215156D01*
X0130655Y0215156D01*
X0132396Y0215878D01*
X0133729Y0217211D01*
X0134451Y0218952D01*
X0134451Y0220838D01*
X0133729Y0222579D01*
X0132396Y0223912D01*
X0130655Y0224634D01*
X0128770Y0224634D01*
X0127920Y0224282D02*
X0119694Y0224282D01*
X0118844Y0224634D02*
X0116959Y0224634D01*
X0115217Y0223912D01*
X0113884Y0222579D01*
X0113163Y0220838D01*
X0113163Y0218952D01*
X0113884Y0217211D01*
X0115217Y0215878D01*
X0116959Y0215156D01*
X0118844Y0215156D01*
X0120585Y0215878D01*
X0121918Y0217211D01*
X0122640Y0218952D01*
X0122640Y0220838D01*
X0121918Y0222579D01*
X0120585Y0223912D01*
X0118844Y0224634D01*
X0121015Y0223483D02*
X0126599Y0223483D01*
X0125801Y0222685D02*
X0121813Y0222685D01*
X0122206Y0221886D02*
X0125408Y0221886D01*
X0125077Y0221088D02*
X0122536Y0221088D01*
X0122640Y0220289D02*
X0124974Y0220289D01*
X0124974Y0219491D02*
X0122640Y0219491D01*
X0122532Y0218692D02*
X0125082Y0218692D01*
X0125412Y0217894D02*
X0122201Y0217894D01*
X0121803Y0217095D02*
X0125811Y0217095D01*
X0126609Y0216296D02*
X0121004Y0216296D01*
X0119668Y0215498D02*
X0127945Y0215498D01*
X0126660Y0213901D02*
X0132765Y0213901D01*
X0131966Y0213102D02*
X0127458Y0213102D01*
X0128003Y0212304D02*
X0131421Y0212304D01*
X0131091Y0211505D02*
X0128334Y0211505D01*
X0128545Y0210707D02*
X0130879Y0210707D01*
X0131210Y0208311D02*
X0128215Y0208311D01*
X0127884Y0207513D02*
X0131541Y0207513D01*
X0132255Y0206714D02*
X0127170Y0206714D01*
X0126203Y0205916D02*
X0133222Y0205916D01*
X0138014Y0205916D02*
X0145033Y0205916D01*
X0144066Y0206714D02*
X0138981Y0206714D01*
X0139695Y0207513D02*
X0143352Y0207513D01*
X0143021Y0208311D02*
X0140026Y0208311D01*
X0140356Y0210707D02*
X0142690Y0210707D01*
X0142902Y0211505D02*
X0140145Y0211505D01*
X0139814Y0212304D02*
X0143232Y0212304D01*
X0143777Y0213102D02*
X0139269Y0213102D01*
X0138471Y0213901D02*
X0144576Y0213901D01*
X0146265Y0214699D02*
X0136781Y0214699D01*
X0138420Y0216296D02*
X0132815Y0216296D01*
X0133614Y0217095D02*
X0137622Y0217095D01*
X0137506Y0217211D02*
X0138839Y0215878D01*
X0140581Y0215156D01*
X0142466Y0215156D01*
X0144208Y0215878D01*
X0145540Y0217211D01*
X0146262Y0218952D01*
X0146262Y0220838D01*
X0145540Y0222579D01*
X0144208Y0223912D01*
X0142466Y0224634D01*
X0140581Y0224634D01*
X0138839Y0223912D01*
X0137506Y0222579D01*
X0136785Y0220838D01*
X0136785Y0218952D01*
X0137506Y0217211D01*
X0137223Y0217894D02*
X0134012Y0217894D01*
X0134343Y0218692D02*
X0136893Y0218692D01*
X0136785Y0219491D02*
X0134451Y0219491D01*
X0134451Y0220289D02*
X0136785Y0220289D01*
X0136888Y0221088D02*
X0134347Y0221088D01*
X0134017Y0221886D02*
X0137219Y0221886D01*
X0137612Y0222685D02*
X0133624Y0222685D01*
X0132826Y0223483D02*
X0138410Y0223483D01*
X0139731Y0224282D02*
X0131505Y0224282D01*
X0131480Y0215498D02*
X0139756Y0215498D01*
X0143291Y0215498D02*
X0151567Y0215498D01*
X0150231Y0216296D02*
X0144626Y0216296D01*
X0145425Y0217095D02*
X0149433Y0217095D01*
X0149034Y0217894D02*
X0145823Y0217894D01*
X0146154Y0218692D02*
X0148704Y0218692D01*
X0148596Y0219491D02*
X0146262Y0219491D01*
X0146262Y0220289D02*
X0148596Y0220289D01*
X0148699Y0221088D02*
X0146158Y0221088D01*
X0145828Y0221886D02*
X0149030Y0221886D01*
X0149423Y0222685D02*
X0145435Y0222685D01*
X0144637Y0223483D02*
X0150221Y0223483D01*
X0151542Y0224282D02*
X0143316Y0224282D01*
X0134454Y0214699D02*
X0124970Y0214699D01*
X0122643Y0214699D02*
X0113159Y0214699D01*
X0114849Y0213901D02*
X0120954Y0213901D01*
X0120155Y0213102D02*
X0115647Y0213102D01*
X0116192Y0212304D02*
X0119610Y0212304D01*
X0119280Y0211505D02*
X0116523Y0211505D01*
X0116734Y0210707D02*
X0119068Y0210707D01*
X0119399Y0208311D02*
X0116404Y0208311D01*
X0116073Y0207513D02*
X0119730Y0207513D01*
X0120444Y0206714D02*
X0115359Y0206714D01*
X0114392Y0205916D02*
X0121411Y0205916D01*
X0116134Y0215498D02*
X0107857Y0215498D01*
X0107033Y0215156D02*
X0108774Y0215878D01*
X0110107Y0217211D01*
X0110829Y0218952D01*
X0110829Y0220838D01*
X0110107Y0222579D01*
X0108774Y0223912D01*
X0107033Y0224634D01*
X0105148Y0224634D01*
X0103406Y0223912D01*
X0102073Y0222579D01*
X0101352Y0220838D01*
X0101352Y0218952D01*
X0102073Y0217211D01*
X0103406Y0215878D01*
X0105148Y0215156D01*
X0107033Y0215156D01*
X0108344Y0213102D02*
X0103836Y0213102D01*
X0104381Y0212304D02*
X0107799Y0212304D01*
X0107469Y0211505D02*
X0104712Y0211505D01*
X0104923Y0210707D02*
X0107257Y0210707D01*
X0107588Y0208311D02*
X0104593Y0208311D01*
X0104262Y0207513D02*
X0107919Y0207513D01*
X0108632Y0206714D02*
X0103548Y0206714D01*
X0102581Y0205916D02*
X0109600Y0205916D01*
X0109143Y0213901D02*
X0103038Y0213901D01*
X0101348Y0214699D02*
X0110832Y0214699D01*
X0109193Y0216296D02*
X0114798Y0216296D01*
X0114000Y0217095D02*
X0109992Y0217095D01*
X0110390Y0217894D02*
X0113601Y0217894D01*
X0113271Y0218692D02*
X0110721Y0218692D01*
X0110829Y0219491D02*
X0113163Y0219491D01*
X0113163Y0220289D02*
X0110829Y0220289D01*
X0110725Y0221088D02*
X0113266Y0221088D01*
X0113597Y0221886D02*
X0110395Y0221886D01*
X0110002Y0222685D02*
X0113990Y0222685D01*
X0114788Y0223483D02*
X0109203Y0223483D01*
X0107882Y0224282D02*
X0116109Y0224282D01*
X0116629Y0229073D02*
X0107363Y0229073D01*
X0107033Y0228936D02*
X0108774Y0229657D01*
X0110107Y0230990D01*
X0110829Y0232732D01*
X0110829Y0234617D01*
X0110107Y0236359D01*
X0108774Y0237692D01*
X0107033Y0238413D01*
X0105148Y0238413D01*
X0103406Y0237692D01*
X0102073Y0236359D01*
X0101352Y0234617D01*
X0101352Y0232732D01*
X0102073Y0230990D01*
X0103406Y0229657D01*
X0105148Y0228936D01*
X0107033Y0228936D01*
X0108988Y0229871D02*
X0115003Y0229871D01*
X0114205Y0230670D02*
X0109787Y0230670D01*
X0110305Y0231468D02*
X0113686Y0231468D01*
X0113355Y0232267D02*
X0110636Y0232267D01*
X0110829Y0233065D02*
X0113163Y0233065D01*
X0113163Y0233864D02*
X0110829Y0233864D01*
X0110810Y0234662D02*
X0113181Y0234662D01*
X0113512Y0235461D02*
X0110479Y0235461D01*
X0110149Y0236259D02*
X0113843Y0236259D01*
X0114583Y0237058D02*
X0109408Y0237058D01*
X0108377Y0237856D02*
X0115615Y0237856D01*
X0114568Y0239453D02*
X0121235Y0239453D01*
X0120371Y0240252D02*
X0115432Y0240252D01*
X0116103Y0241050D02*
X0119699Y0241050D01*
X0119369Y0241849D02*
X0116434Y0241849D01*
X0116734Y0242647D02*
X0119068Y0242647D01*
X0119068Y0243446D02*
X0116734Y0243446D01*
X0116734Y0244244D02*
X0119068Y0244244D01*
X0119310Y0245043D02*
X0116493Y0245043D01*
X0116162Y0245841D02*
X0119641Y0245841D01*
X0120228Y0246640D02*
X0115574Y0246640D01*
X0114776Y0247438D02*
X0121027Y0247438D01*
X0109216Y0247438D02*
X0102965Y0247438D01*
X0103763Y0246640D02*
X0108417Y0246640D01*
X0107830Y0245841D02*
X0104351Y0245841D01*
X0104682Y0245043D02*
X0107499Y0245043D01*
X0107257Y0244244D02*
X0104923Y0244244D01*
X0104923Y0243446D02*
X0107257Y0243446D01*
X0107257Y0242647D02*
X0104923Y0242647D01*
X0104623Y0241849D02*
X0107558Y0241849D01*
X0107888Y0241050D02*
X0104292Y0241050D01*
X0103621Y0240252D02*
X0108560Y0240252D01*
X0109424Y0239453D02*
X0102757Y0239453D01*
X0103803Y0237856D02*
X0096566Y0237856D01*
X0096963Y0237692D02*
X0095222Y0238413D01*
X0093337Y0238413D01*
X0091595Y0237692D01*
X0090262Y0236359D01*
X0089541Y0234617D01*
X0089541Y0232732D01*
X0090262Y0230990D01*
X0091595Y0229657D01*
X0093337Y0228936D01*
X0095222Y0228936D01*
X0096963Y0229657D01*
X0098296Y0230990D01*
X0099018Y0232732D01*
X0099018Y0234617D01*
X0098296Y0236359D01*
X0096963Y0237692D01*
X0097597Y0237058D02*
X0102772Y0237058D01*
X0102032Y0236259D02*
X0098338Y0236259D01*
X0098668Y0235461D02*
X0101701Y0235461D01*
X0101370Y0234662D02*
X0098999Y0234662D01*
X0099018Y0233864D02*
X0101352Y0233864D01*
X0101352Y0233065D02*
X0099018Y0233065D01*
X0098825Y0232267D02*
X0101544Y0232267D01*
X0101875Y0231468D02*
X0098494Y0231468D01*
X0097976Y0230670D02*
X0102394Y0230670D01*
X0103192Y0229871D02*
X0097177Y0229871D01*
X0095552Y0229073D02*
X0104818Y0229073D01*
X0104298Y0224282D02*
X0096071Y0224282D01*
X0097392Y0223483D02*
X0102977Y0223483D01*
X0102178Y0222685D02*
X0098191Y0222685D01*
X0098583Y0221886D02*
X0101786Y0221886D01*
X0101455Y0221088D02*
X0098914Y0221088D01*
X0099018Y0220289D02*
X0101352Y0220289D01*
X0101352Y0219491D02*
X0099018Y0219491D01*
X0098910Y0218692D02*
X0101460Y0218692D01*
X0101790Y0217894D02*
X0098579Y0217894D01*
X0098181Y0217095D02*
X0102189Y0217095D01*
X0102987Y0216296D02*
X0097382Y0216296D01*
X0096046Y0215498D02*
X0104323Y0215498D01*
X0093006Y0229073D02*
X0048685Y0229073D01*
X0048685Y0229871D02*
X0091381Y0229871D01*
X0090583Y0230670D02*
X0048685Y0230670D01*
X0048685Y0231468D02*
X0090064Y0231468D01*
X0089733Y0232267D02*
X0048685Y0232267D01*
X0048685Y0233065D02*
X0089541Y0233065D01*
X0089541Y0233864D02*
X0048685Y0233864D01*
X0048685Y0234662D02*
X0089559Y0234662D01*
X0089890Y0235461D02*
X0048685Y0235461D01*
X0048685Y0236259D02*
X0090221Y0236259D01*
X0090961Y0237058D02*
X0048685Y0237058D01*
X0048685Y0237856D02*
X0091992Y0237856D01*
X0090946Y0239453D02*
X0097613Y0239453D01*
X0096749Y0240252D02*
X0091810Y0240252D01*
X0092481Y0241050D02*
X0096077Y0241050D01*
X0095747Y0241849D02*
X0092812Y0241849D01*
X0093112Y0242647D02*
X0095446Y0242647D01*
X0095446Y0243446D02*
X0093112Y0243446D01*
X0093112Y0244244D02*
X0095446Y0244244D01*
X0095688Y0245043D02*
X0092871Y0245043D01*
X0092540Y0245841D02*
X0096019Y0245841D01*
X0096606Y0246640D02*
X0091952Y0246640D01*
X0091154Y0247438D02*
X0097405Y0247438D01*
X0085594Y0247438D02*
X0048685Y0247438D01*
X0048685Y0246640D02*
X0084795Y0246640D01*
X0084208Y0245841D02*
X0048685Y0245841D01*
X0048685Y0245043D02*
X0083877Y0245043D01*
X0083635Y0244244D02*
X0048685Y0244244D01*
X0048685Y0243446D02*
X0083635Y0243446D01*
X0083635Y0242647D02*
X0048685Y0242647D01*
X0048685Y0241849D02*
X0083936Y0241849D01*
X0084266Y0241050D02*
X0048685Y0241050D01*
X0048685Y0240252D02*
X0084938Y0240252D01*
X0085802Y0239453D02*
X0048685Y0239453D01*
X0048685Y0238655D02*
X0222550Y0238655D01*
X0222550Y0239453D02*
X0185434Y0239453D01*
X0186298Y0240252D02*
X0222550Y0240252D01*
X0222550Y0241050D02*
X0186969Y0241050D01*
X0187300Y0241849D02*
X0222550Y0241849D01*
X0222550Y0242647D02*
X0187600Y0242647D01*
X0187600Y0243446D02*
X0222550Y0243446D01*
X0222550Y0244244D02*
X0187600Y0244244D01*
X0187359Y0245043D02*
X0222550Y0245043D01*
X0222550Y0245841D02*
X0187028Y0245841D01*
X0186440Y0246640D02*
X0222550Y0246640D01*
X0222550Y0247438D02*
X0185642Y0247438D01*
X0180082Y0247438D02*
X0173831Y0247438D01*
X0174629Y0246640D02*
X0179283Y0246640D01*
X0178696Y0245841D02*
X0175217Y0245841D01*
X0175548Y0245043D02*
X0178365Y0245043D01*
X0178123Y0244244D02*
X0175789Y0244244D01*
X0175789Y0243446D02*
X0178123Y0243446D01*
X0178123Y0242647D02*
X0175789Y0242647D01*
X0175489Y0241849D02*
X0178424Y0241849D01*
X0178755Y0241050D02*
X0175158Y0241050D01*
X0174487Y0240252D02*
X0179426Y0240252D01*
X0180290Y0239453D02*
X0173623Y0239453D01*
X0174272Y0237692D02*
X0172939Y0236359D01*
X0172218Y0234617D01*
X0172218Y0232732D01*
X0172939Y0230990D01*
X0174272Y0229657D01*
X0176014Y0228936D01*
X0177899Y0228936D01*
X0179641Y0229657D01*
X0180974Y0230990D01*
X0181695Y0232732D01*
X0181695Y0234617D01*
X0180974Y0236359D01*
X0179641Y0237692D01*
X0177899Y0238413D01*
X0176014Y0238413D01*
X0174272Y0237692D01*
X0174670Y0237856D02*
X0167432Y0237856D01*
X0168463Y0237058D02*
X0173638Y0237058D01*
X0172898Y0236259D02*
X0169204Y0236259D01*
X0169534Y0235461D02*
X0172567Y0235461D01*
X0172237Y0234662D02*
X0169865Y0234662D01*
X0169884Y0233864D02*
X0172218Y0233864D01*
X0172218Y0233065D02*
X0169884Y0233065D01*
X0169691Y0232267D02*
X0172410Y0232267D01*
X0172741Y0231468D02*
X0169360Y0231468D01*
X0168842Y0230670D02*
X0173260Y0230670D01*
X0174058Y0229871D02*
X0168043Y0229871D01*
X0166418Y0229073D02*
X0175684Y0229073D01*
X0178229Y0229073D02*
X0222550Y0229073D01*
X0222550Y0229871D02*
X0179854Y0229871D01*
X0180653Y0230670D02*
X0222550Y0230670D01*
X0222550Y0231468D02*
X0181171Y0231468D01*
X0181502Y0232267D02*
X0222550Y0232267D01*
X0222550Y0233065D02*
X0181695Y0233065D01*
X0181695Y0233864D02*
X0222550Y0233864D01*
X0222550Y0234662D02*
X0181676Y0234662D01*
X0181345Y0235461D02*
X0222550Y0235461D01*
X0222550Y0236259D02*
X0181015Y0236259D01*
X0180274Y0237058D02*
X0222550Y0237058D01*
X0222550Y0237856D02*
X0179243Y0237856D01*
X0201281Y0223483D02*
X0201539Y0223483D01*
X0203781Y0223483D02*
X0222550Y0223483D01*
X0222550Y0222685D02*
X0204580Y0222685D01*
X0204960Y0221886D02*
X0222550Y0221886D01*
X0222550Y0221088D02*
X0204960Y0221088D01*
X0204850Y0220289D02*
X0222550Y0220289D01*
X0222550Y0219491D02*
X0204052Y0219491D01*
X0213294Y0217095D02*
X0222550Y0217095D01*
X0222550Y0225879D02*
X0048685Y0225879D01*
X0048685Y0226677D02*
X0222550Y0226677D01*
X0222550Y0227476D02*
X0048685Y0227476D01*
X0048685Y0228274D02*
X0222550Y0228274D01*
X0222550Y0249834D02*
X0048685Y0249834D01*
X0048685Y0250632D02*
X0222550Y0250632D01*
X0222550Y0251431D02*
X0048685Y0251431D01*
X0048685Y0252229D02*
X0222550Y0252229D01*
X0222550Y0253028D02*
X0048685Y0253028D01*
X0048685Y0253827D02*
X0222550Y0253827D01*
X0222550Y0254625D02*
X0048685Y0254625D01*
X0048685Y0255424D02*
X0222550Y0255424D01*
X0222550Y0256222D02*
X0048685Y0256222D01*
X0048685Y0257021D02*
X0222550Y0257021D01*
X0222550Y0257819D02*
X0048685Y0257819D01*
X0048685Y0258618D02*
X0222550Y0258618D01*
X0222550Y0259416D02*
X0048685Y0259416D01*
X0048685Y0260215D02*
X0222550Y0260215D01*
X0222550Y0261013D02*
X0048685Y0261013D01*
X0048685Y0261812D02*
X0056811Y0261812D01*
X0058260Y0261212D02*
X0055358Y0262414D01*
X0053136Y0264635D01*
X0051934Y0267537D01*
X0051934Y0270678D01*
X0053136Y0273580D01*
X0055358Y0275802D01*
X0058260Y0277004D01*
X0061401Y0277004D01*
X0064303Y0275802D01*
X0066524Y0273580D01*
X0067726Y0270678D01*
X0067726Y0267537D01*
X0066524Y0264635D01*
X0064303Y0262414D01*
X0061401Y0261212D01*
X0058260Y0261212D01*
X0062850Y0261812D02*
X0208386Y0261812D01*
X0209835Y0261212D02*
X0206932Y0262414D01*
X0204711Y0264635D01*
X0203509Y0267537D01*
X0203509Y0270678D01*
X0204711Y0273580D01*
X0206932Y0275802D01*
X0209835Y0277004D01*
X0212976Y0277004D01*
X0215878Y0275802D01*
X0218099Y0273580D01*
X0219301Y0270678D01*
X0219301Y0267537D01*
X0218099Y0264635D01*
X0215878Y0262414D01*
X0212976Y0261212D01*
X0209835Y0261212D01*
X0206736Y0262610D02*
X0064500Y0262610D01*
X0065298Y0263409D02*
X0205937Y0263409D01*
X0205139Y0264207D02*
X0066097Y0264207D01*
X0066678Y0265006D02*
X0204558Y0265006D01*
X0204227Y0265804D02*
X0067009Y0265804D01*
X0067339Y0266603D02*
X0203896Y0266603D01*
X0203565Y0267401D02*
X0067670Y0267401D01*
X0067726Y0268200D02*
X0203509Y0268200D01*
X0203509Y0268998D02*
X0067726Y0268998D01*
X0067726Y0269797D02*
X0203509Y0269797D01*
X0203509Y0270595D02*
X0067726Y0270595D01*
X0067430Y0271394D02*
X0203806Y0271394D01*
X0204136Y0272192D02*
X0067099Y0272192D01*
X0066769Y0272991D02*
X0204467Y0272991D01*
X0204920Y0273789D02*
X0066315Y0273789D01*
X0065517Y0274588D02*
X0205719Y0274588D01*
X0206517Y0275386D02*
X0064718Y0275386D01*
X0063378Y0276185D02*
X0207858Y0276185D01*
X0209786Y0276983D02*
X0061450Y0276983D01*
X0058211Y0276983D02*
X0048685Y0276983D01*
X0048685Y0276185D02*
X0056283Y0276185D01*
X0054942Y0275386D02*
X0048685Y0275386D01*
X0048685Y0274588D02*
X0054144Y0274588D01*
X0053345Y0273789D02*
X0048685Y0273789D01*
X0048685Y0272991D02*
X0052892Y0272991D01*
X0052562Y0272192D02*
X0048685Y0272192D01*
X0048685Y0271394D02*
X0052231Y0271394D01*
X0051934Y0270595D02*
X0048685Y0270595D01*
X0048685Y0269797D02*
X0051934Y0269797D01*
X0051934Y0268998D02*
X0048685Y0268998D01*
X0048685Y0268200D02*
X0051934Y0268200D01*
X0051991Y0267401D02*
X0048685Y0267401D01*
X0048685Y0266603D02*
X0052321Y0266603D01*
X0052652Y0265804D02*
X0048685Y0265804D01*
X0048685Y0265006D02*
X0052983Y0265006D01*
X0053564Y0264207D02*
X0048685Y0264207D01*
X0048685Y0263409D02*
X0054363Y0263409D01*
X0055161Y0262610D02*
X0048685Y0262610D01*
X0048685Y0277782D02*
X0222550Y0277782D01*
X0222550Y0278580D02*
X0048685Y0278580D01*
X0048685Y0220289D02*
X0048970Y0220289D01*
X0048685Y0203520D02*
X0050326Y0203520D01*
X0049528Y0202722D02*
X0048685Y0202722D01*
X0048685Y0201923D02*
X0049110Y0201923D01*
X0049110Y0201125D02*
X0048685Y0201125D01*
X0048685Y0200326D02*
X0049183Y0200326D01*
X0048685Y0199528D02*
X0049981Y0199528D01*
X0201275Y0206714D02*
X0201545Y0206714D01*
X0214425Y0261812D02*
X0222550Y0261812D01*
X0222550Y0262610D02*
X0216074Y0262610D01*
X0216873Y0263409D02*
X0222550Y0263409D01*
X0222550Y0264207D02*
X0217672Y0264207D01*
X0218253Y0265006D02*
X0222550Y0265006D01*
X0222550Y0265804D02*
X0218584Y0265804D01*
X0218914Y0266603D02*
X0222550Y0266603D01*
X0222550Y0267401D02*
X0219245Y0267401D01*
X0219301Y0268200D02*
X0222550Y0268200D01*
X0222550Y0268998D02*
X0219301Y0268998D01*
X0219301Y0269797D02*
X0222550Y0269797D01*
X0222550Y0270595D02*
X0219301Y0270595D01*
X0219005Y0271394D02*
X0222550Y0271394D01*
X0222550Y0272192D02*
X0218674Y0272192D01*
X0218343Y0272991D02*
X0222550Y0272991D01*
X0222550Y0273789D02*
X0217890Y0273789D01*
X0217092Y0274588D02*
X0222550Y0274588D01*
X0222550Y0275386D02*
X0216293Y0275386D01*
X0214953Y0276185D02*
X0222550Y0276185D01*
X0222550Y0276983D02*
X0213025Y0276983D01*
X0222025Y0058990D02*
X0222550Y0058990D01*
X0222550Y0054997D02*
X0222058Y0054997D01*
M02*
