G75*
%MOIN*%
%OFA0B0*%
%FSLAX25Y25*%
%IPPOS*%
%LPD*%
%AMOC8*
5,1,8,0,0,1.08239X$1,22.5*
%
%ADD10C,0.00400*%
%ADD11R,0.02756X0.03543*%
%ADD12R,0.03543X0.02756*%
%ADD13R,0.02756X0.03937*%
%ADD14R,0.03937X0.04331*%
%ADD15R,0.05000X0.02200*%
%ADD16R,0.02200X0.05000*%
%ADD17R,0.08504X0.07008*%
%ADD18R,0.03150X0.03150*%
%ADD19R,0.11024X0.04724*%
%ADD20R,0.04331X0.03937*%
%ADD21R,0.02362X0.03543*%
%ADD22R,0.04724X0.05512*%
%ADD23R,0.05906X0.05118*%
%ADD24R,0.10630X0.06299*%
%ADD25R,0.05906X0.08268*%
%ADD26R,0.09449X0.07087*%
%ADD27R,0.03937X0.05512*%
%ADD28R,0.02362X0.08661*%
%ADD29R,0.05906X0.01378*%
%ADD30R,0.01378X0.05906*%
%ADD31R,0.00984X0.03150*%
%ADD32C,0.00551*%
%ADD33R,0.02756X0.01102*%
%ADD34R,0.01102X0.02756*%
%ADD35R,0.13780X0.13780*%
%ADD36R,0.00984X0.00984*%
%ADD37C,0.07677*%
%ADD38R,0.02756X0.01181*%
%ADD39R,0.01181X0.01772*%
%ADD40R,0.05512X0.03937*%
%ADD41OC8,0.06000*%
%ADD42R,0.01181X0.02362*%
%ADD43R,0.02362X0.01181*%
%ADD44R,0.12992X0.12992*%
%ADD45C,0.02800*%
%ADD46C,0.00800*%
%ADD47C,0.01000*%
%ADD48C,0.01200*%
%ADD49C,0.01600*%
%ADD50C,0.00600*%
%ADD51C,0.02000*%
%ADD52C,0.03000*%
%ADD53C,0.05000*%
D10*
X0075502Y0254052D02*
X0074735Y0254819D01*
X0074735Y0256354D01*
X0075502Y0257121D01*
X0077037Y0257121D01*
X0077804Y0256354D01*
X0077804Y0254819D01*
X0077037Y0254052D01*
X0075502Y0254052D01*
X0079339Y0254819D02*
X0079339Y0256354D01*
X0080106Y0257121D01*
X0081641Y0257121D01*
X0082408Y0256354D01*
X0082408Y0255586D01*
X0079339Y0255586D01*
X0079339Y0254819D02*
X0080106Y0254052D01*
X0081641Y0254052D01*
X0083943Y0254052D02*
X0085478Y0254052D01*
X0084710Y0254052D02*
X0084710Y0258656D01*
X0083943Y0258656D01*
X0087012Y0257121D02*
X0089314Y0257121D01*
X0090082Y0256354D01*
X0090082Y0254819D01*
X0089314Y0254052D01*
X0087012Y0254052D01*
X0087012Y0252517D02*
X0087012Y0257121D01*
X0091616Y0257121D02*
X0091616Y0254052D01*
X0091616Y0255586D02*
X0093151Y0257121D01*
X0093918Y0257121D01*
X0095453Y0257121D02*
X0096220Y0257121D01*
X0096220Y0254052D01*
X0095453Y0254052D02*
X0096987Y0254052D01*
X0098522Y0254052D02*
X0098522Y0257121D01*
X0100824Y0257121D01*
X0101591Y0256354D01*
X0101591Y0254052D01*
X0103126Y0254052D02*
X0106195Y0254052D01*
X0107730Y0254052D02*
X0108497Y0254052D01*
X0108497Y0254819D01*
X0107730Y0254819D01*
X0107730Y0254052D01*
X0110032Y0254819D02*
X0110032Y0256354D01*
X0110799Y0257121D01*
X0112334Y0257121D01*
X0113101Y0256354D01*
X0113101Y0254819D01*
X0112334Y0254052D01*
X0110799Y0254052D01*
X0110032Y0254819D01*
X0106195Y0257121D02*
X0103126Y0254052D01*
X0103126Y0257121D02*
X0106195Y0257121D01*
X0114636Y0257121D02*
X0114636Y0254052D01*
X0114636Y0255586D02*
X0116170Y0257121D01*
X0116938Y0257121D01*
X0118472Y0256354D02*
X0118472Y0254819D01*
X0119240Y0254052D01*
X0121542Y0254052D01*
X0121542Y0253284D02*
X0121542Y0257121D01*
X0119240Y0257121D01*
X0118472Y0256354D01*
X0120007Y0252517D02*
X0120774Y0252517D01*
X0121542Y0253284D01*
X0096220Y0258656D02*
X0096220Y0259423D01*
D11*
X0105726Y0182602D03*
X0110844Y0182602D03*
X0098344Y0168852D03*
X0098344Y0164477D03*
X0093226Y0164477D03*
X0093226Y0168852D03*
X0085844Y0168852D03*
X0085844Y0164477D03*
X0080726Y0164477D03*
X0080726Y0168852D03*
X0073344Y0168852D03*
X0073344Y0164477D03*
X0076351Y0159477D03*
X0081469Y0159477D03*
X0082601Y0155102D03*
X0087719Y0155102D03*
X0093226Y0155102D03*
X0098344Y0155102D03*
X0105726Y0156977D03*
X0105726Y0161352D03*
X0110844Y0161352D03*
X0110844Y0156977D03*
X0111469Y0146977D03*
X0111469Y0142602D03*
X0110101Y0138227D03*
X0109476Y0133852D03*
X0106976Y0129477D03*
X0106976Y0125102D03*
X0106976Y0120727D03*
X0108226Y0116352D03*
X0110219Y0111977D03*
X0113344Y0116352D03*
X0112094Y0120727D03*
X0112094Y0125102D03*
X0112094Y0129477D03*
X0114594Y0133852D03*
X0115219Y0138227D03*
X0118226Y0142602D03*
X0118226Y0146977D03*
X0123344Y0146977D03*
X0123344Y0142602D03*
X0130726Y0142602D03*
X0130726Y0146977D03*
X0135844Y0146977D03*
X0135844Y0142602D03*
X0141351Y0135102D03*
X0141351Y0130727D03*
X0146469Y0130727D03*
X0146469Y0135102D03*
X0146469Y0124477D03*
X0146469Y0120102D03*
X0146469Y0115727D03*
X0146469Y0111352D03*
X0141351Y0111352D03*
X0141351Y0115727D03*
X0141351Y0120102D03*
X0141351Y0124477D03*
X0156351Y0140727D03*
X0161469Y0140727D03*
X0160101Y0145102D03*
X0165219Y0145102D03*
X0152094Y0169477D03*
X0146976Y0169477D03*
X0106351Y0146977D03*
X0106351Y0142602D03*
X0105101Y0111977D03*
X0102601Y0091977D03*
X0102601Y0087602D03*
X0107719Y0087602D03*
X0107719Y0091977D03*
X0087094Y0081352D03*
X0081976Y0081352D03*
X0072094Y0090727D03*
X0072094Y0095727D03*
X0066976Y0095727D03*
X0066976Y0090727D03*
X0059594Y0093852D03*
X0054476Y0093852D03*
X0056976Y0101977D03*
X0062094Y0101977D03*
X0066976Y0101977D03*
X0072094Y0101977D03*
X0070844Y0108227D03*
X0065726Y0108227D03*
X0057719Y0124477D03*
X0057719Y0129477D03*
X0052601Y0129477D03*
X0052601Y0124477D03*
X0052601Y0136977D03*
X0052601Y0141352D03*
X0057719Y0141352D03*
X0057719Y0136977D03*
X0066351Y0155102D03*
X0071469Y0155102D03*
X0068226Y0164477D03*
X0063969Y0164477D03*
X0058851Y0164477D03*
X0056976Y0159477D03*
X0062094Y0159477D03*
X0068226Y0168852D03*
X0138226Y0073227D03*
X0143344Y0073227D03*
X0168851Y0056352D03*
X0173969Y0056352D03*
X0186351Y0056352D03*
X0191469Y0056352D03*
X0196976Y0131977D03*
X0195726Y0136352D03*
X0200844Y0136352D03*
X0202094Y0131977D03*
X0210726Y0131977D03*
X0215844Y0131977D03*
X0215726Y0136352D03*
X0220844Y0136352D03*
X0106469Y0056977D03*
X0101351Y0056977D03*
D12*
X0113285Y0066918D03*
X0113285Y0072036D03*
X0113285Y0086293D03*
X0113285Y0091411D03*
X0115785Y0098168D03*
X0115785Y0103286D03*
X0102035Y0120668D03*
X0102035Y0125786D03*
X0102035Y0133168D03*
X0102035Y0138286D03*
X0102035Y0143793D03*
X0102035Y0148911D03*
X0062035Y0183793D03*
X0057035Y0183793D03*
X0057035Y0188911D03*
X0062035Y0188911D03*
X0051410Y0191293D03*
X0051410Y0196411D03*
X0051410Y0205043D03*
X0051410Y0210161D03*
X0051410Y0214418D03*
X0051410Y0219536D03*
X0142035Y0107036D03*
X0142035Y0101918D03*
X0146410Y0103286D03*
X0146410Y0098168D03*
X0147035Y0090786D03*
X0147035Y0085668D03*
X0152035Y0062036D03*
X0152035Y0056918D03*
X0217660Y0055668D03*
X0222035Y0055668D03*
X0222035Y0060786D03*
X0222035Y0065043D03*
X0222035Y0070161D03*
X0222035Y0074418D03*
X0222035Y0079536D03*
X0222035Y0088168D03*
X0222035Y0093286D03*
X0222035Y0101918D03*
X0222035Y0107036D03*
X0190785Y0131293D03*
X0186410Y0131293D03*
X0186410Y0136411D03*
X0190785Y0136411D03*
X0179535Y0141918D03*
X0175160Y0141918D03*
X0170785Y0141918D03*
X0170785Y0147036D03*
X0175160Y0147036D03*
X0179535Y0147036D03*
X0156410Y0153793D03*
X0156410Y0158911D03*
X0157973Y0165668D03*
X0157973Y0170786D03*
X0163910Y0176918D03*
X0163910Y0182036D03*
X0177035Y0182661D03*
X0177035Y0177543D03*
X0156410Y0133911D03*
X0156410Y0128793D03*
X0217660Y0060786D03*
X0222035Y0205043D03*
X0222035Y0210161D03*
X0222035Y0214418D03*
X0222035Y0219536D03*
X0073285Y0086411D03*
X0068910Y0086411D03*
X0068910Y0081293D03*
X0073285Y0081293D03*
D13*
X0059525Y0084432D03*
X0052045Y0084432D03*
X0055785Y0075771D03*
D14*
X0053064Y0107602D03*
X0059757Y0107602D03*
X0059757Y0115727D03*
X0053064Y0115727D03*
X0056189Y0150102D03*
X0062882Y0150102D03*
X0099939Y0078227D03*
X0106632Y0078227D03*
X0158910Y0176130D03*
X0158910Y0182823D03*
D15*
X0096435Y0143625D03*
X0096435Y0140476D03*
X0096435Y0137326D03*
X0096435Y0134176D03*
X0096435Y0131027D03*
X0096435Y0127877D03*
X0096435Y0124728D03*
X0096435Y0121578D03*
X0062635Y0121578D03*
X0062635Y0124728D03*
X0062635Y0127877D03*
X0062635Y0131027D03*
X0062635Y0134176D03*
X0062635Y0137326D03*
X0062635Y0140476D03*
X0062635Y0143625D03*
D16*
X0068512Y0149502D03*
X0071661Y0149502D03*
X0074811Y0149502D03*
X0077960Y0149502D03*
X0081110Y0149502D03*
X0084260Y0149502D03*
X0087409Y0149502D03*
X0090559Y0149502D03*
X0090559Y0115702D03*
X0087409Y0115702D03*
X0084260Y0115702D03*
X0081110Y0115702D03*
X0077960Y0115702D03*
X0074811Y0115702D03*
X0071661Y0115702D03*
X0068512Y0115702D03*
D17*
X0082035Y0073758D03*
X0082035Y0057735D03*
D18*
X0195332Y0056352D03*
X0201238Y0056352D03*
X0213285Y0055899D03*
X0213285Y0061804D03*
X0222035Y0111524D03*
X0222035Y0117429D03*
D19*
X0055160Y0070348D03*
X0055160Y0057356D03*
D20*
X0093285Y0072380D03*
X0093285Y0079073D03*
D21*
X0100795Y0071504D03*
X0104535Y0071504D03*
X0108275Y0071504D03*
X0108275Y0062449D03*
X0104535Y0062449D03*
X0100795Y0062449D03*
D22*
X0104314Y0097646D03*
X0111007Y0097646D03*
X0111007Y0106307D03*
X0104314Y0106307D03*
X0139314Y0067557D03*
X0146007Y0067557D03*
X0146007Y0058896D03*
X0139314Y0058896D03*
D23*
X0131410Y0065737D03*
X0131410Y0073217D03*
X0093910Y0065092D03*
X0093910Y0057612D03*
X0143910Y0175112D03*
X0143910Y0182592D03*
X0152035Y0182592D03*
X0152035Y0175112D03*
X0185160Y0175505D03*
X0185160Y0182198D03*
X0192035Y0182592D03*
X0192035Y0175112D03*
X0202660Y0175112D03*
X0202660Y0182592D03*
X0210785Y0182592D03*
X0210785Y0175112D03*
X0218910Y0175112D03*
X0218910Y0182592D03*
D24*
X0121410Y0077488D03*
X0121410Y0066465D03*
D25*
X0115574Y0058227D03*
X0129747Y0058227D03*
X0132872Y0170727D03*
X0132872Y0180727D03*
X0118699Y0180727D03*
X0118699Y0170727D03*
X0067247Y0228852D03*
X0053074Y0228852D03*
X0206824Y0228852D03*
X0220997Y0228852D03*
D26*
X0067660Y0073699D03*
X0067660Y0057754D03*
D27*
X0117045Y0152646D03*
X0124525Y0152646D03*
X0129545Y0152646D03*
X0137025Y0152646D03*
X0133285Y0161307D03*
X0120785Y0161307D03*
X0112025Y0167021D03*
X0104545Y0167021D03*
X0099525Y0174521D03*
X0092045Y0174521D03*
X0087025Y0174521D03*
X0079545Y0174521D03*
X0074525Y0174521D03*
X0067045Y0174521D03*
X0062025Y0169521D03*
X0054545Y0169521D03*
X0058285Y0178182D03*
X0070785Y0183182D03*
X0064525Y0194521D03*
X0057045Y0194521D03*
X0060785Y0203182D03*
X0083285Y0183182D03*
X0095785Y0183182D03*
X0108285Y0175682D03*
D28*
X0185785Y0165338D03*
X0190785Y0165338D03*
X0195785Y0165338D03*
X0200785Y0165338D03*
X0205785Y0165338D03*
X0210785Y0165338D03*
X0215785Y0165338D03*
X0220785Y0165338D03*
X0220785Y0144865D03*
X0215785Y0144865D03*
X0210785Y0144865D03*
X0205785Y0144865D03*
X0200785Y0144865D03*
X0195785Y0144865D03*
X0190785Y0144865D03*
X0185785Y0144865D03*
D29*
X0216031Y0117474D03*
X0216031Y0115505D03*
X0216031Y0113537D03*
X0216031Y0111568D03*
X0216031Y0109600D03*
X0216031Y0107631D03*
X0216031Y0105663D03*
X0216031Y0103694D03*
X0216031Y0101726D03*
X0216031Y0099757D03*
X0216031Y0097789D03*
X0216031Y0095820D03*
X0216031Y0093852D03*
X0216031Y0091883D03*
X0216031Y0089915D03*
X0216031Y0087946D03*
X0216031Y0085978D03*
X0216031Y0084009D03*
X0216031Y0082041D03*
X0216031Y0080072D03*
X0216031Y0078104D03*
X0216031Y0076135D03*
X0216031Y0074167D03*
X0216031Y0072198D03*
X0216031Y0070230D03*
X0153039Y0070230D03*
X0153039Y0072198D03*
X0153039Y0074167D03*
X0153039Y0076135D03*
X0153039Y0078104D03*
X0153039Y0080072D03*
X0153039Y0082041D03*
X0153039Y0084009D03*
X0153039Y0085978D03*
X0153039Y0087946D03*
X0153039Y0089915D03*
X0153039Y0091883D03*
X0153039Y0093852D03*
X0153039Y0095820D03*
X0153039Y0097789D03*
X0153039Y0099757D03*
X0153039Y0101726D03*
X0153039Y0103694D03*
X0153039Y0105663D03*
X0153039Y0107631D03*
X0153039Y0109600D03*
X0153039Y0111568D03*
X0153039Y0113537D03*
X0153039Y0115505D03*
X0153039Y0117474D03*
D30*
X0160913Y0125348D03*
X0162882Y0125348D03*
X0164850Y0125348D03*
X0166819Y0125348D03*
X0168787Y0125348D03*
X0170756Y0125348D03*
X0172724Y0125348D03*
X0174693Y0125348D03*
X0176661Y0125348D03*
X0178630Y0125348D03*
X0180598Y0125348D03*
X0182567Y0125348D03*
X0184535Y0125348D03*
X0186504Y0125348D03*
X0188472Y0125348D03*
X0190441Y0125348D03*
X0192409Y0125348D03*
X0194378Y0125348D03*
X0196346Y0125348D03*
X0198315Y0125348D03*
X0200283Y0125348D03*
X0202252Y0125348D03*
X0204220Y0125348D03*
X0206189Y0125348D03*
X0208157Y0125348D03*
X0208157Y0062356D03*
X0206189Y0062356D03*
X0204220Y0062356D03*
X0202252Y0062356D03*
X0200283Y0062356D03*
X0198315Y0062356D03*
X0196346Y0062356D03*
X0194378Y0062356D03*
X0192409Y0062356D03*
X0190441Y0062356D03*
X0188472Y0062356D03*
X0186504Y0062356D03*
X0184535Y0062356D03*
X0182567Y0062356D03*
X0180598Y0062356D03*
X0178630Y0062356D03*
X0176661Y0062356D03*
X0174693Y0062356D03*
X0172724Y0062356D03*
X0170756Y0062356D03*
X0168787Y0062356D03*
X0166819Y0062356D03*
X0164850Y0062356D03*
X0162882Y0062356D03*
X0160913Y0062356D03*
D31*
X0150972Y0144993D03*
X0149004Y0144993D03*
X0147035Y0144993D03*
X0145067Y0144993D03*
X0143098Y0144993D03*
X0143098Y0162710D03*
X0145067Y0162710D03*
X0147035Y0162710D03*
X0149004Y0162710D03*
X0150972Y0162710D03*
D32*
X0098640Y0105392D02*
X0096434Y0105392D01*
X0098640Y0105392D02*
X0098640Y0104840D01*
X0096434Y0104840D01*
X0096434Y0105392D01*
X0096434Y0105390D02*
X0098640Y0105390D01*
X0095451Y0108582D02*
X0094899Y0108582D01*
X0095451Y0108582D02*
X0095451Y0106376D01*
X0094899Y0106376D01*
X0094899Y0108582D01*
X0094899Y0106926D02*
X0095451Y0106926D01*
X0095451Y0107476D02*
X0094899Y0107476D01*
X0094899Y0108026D02*
X0095451Y0108026D01*
X0095451Y0108576D02*
X0094899Y0108576D01*
X0081671Y0108582D02*
X0081119Y0108582D01*
X0081671Y0108582D02*
X0081671Y0106376D01*
X0081119Y0106376D01*
X0081119Y0108582D01*
X0081119Y0106926D02*
X0081671Y0106926D01*
X0081671Y0107476D02*
X0081119Y0107476D01*
X0081119Y0108026D02*
X0081671Y0108026D01*
X0081671Y0108576D02*
X0081119Y0108576D01*
X0080136Y0105392D02*
X0077930Y0105392D01*
X0080136Y0105392D02*
X0080136Y0104840D01*
X0077930Y0104840D01*
X0077930Y0105392D01*
X0077930Y0105390D02*
X0080136Y0105390D01*
X0080136Y0091613D02*
X0077930Y0091613D01*
X0080136Y0091613D02*
X0080136Y0091061D01*
X0077930Y0091061D01*
X0077930Y0091613D01*
X0077930Y0091611D02*
X0080136Y0091611D01*
X0081119Y0090078D02*
X0081671Y0090078D01*
X0081671Y0087872D01*
X0081119Y0087872D01*
X0081119Y0090078D01*
X0081119Y0088422D02*
X0081671Y0088422D01*
X0081671Y0088972D02*
X0081119Y0088972D01*
X0081119Y0089522D02*
X0081671Y0089522D01*
X0081671Y0090072D02*
X0081119Y0090072D01*
X0094899Y0090078D02*
X0095451Y0090078D01*
X0095451Y0087872D01*
X0094899Y0087872D01*
X0094899Y0090078D01*
X0094899Y0088422D02*
X0095451Y0088422D01*
X0095451Y0088972D02*
X0094899Y0088972D01*
X0094899Y0089522D02*
X0095451Y0089522D01*
X0095451Y0090072D02*
X0094899Y0090072D01*
X0096434Y0091613D02*
X0098640Y0091613D01*
X0098640Y0091061D01*
X0096434Y0091061D01*
X0096434Y0091613D01*
X0096434Y0091611D02*
X0098640Y0091611D01*
D33*
X0097537Y0093305D03*
X0097537Y0095274D03*
X0097537Y0097242D03*
X0097537Y0099211D03*
X0097537Y0101179D03*
X0097537Y0103148D03*
X0079033Y0103148D03*
X0079033Y0101179D03*
X0079033Y0099211D03*
X0079033Y0097242D03*
X0079033Y0095274D03*
X0079033Y0093305D03*
D34*
X0083364Y0088975D03*
X0085332Y0088975D03*
X0087301Y0088975D03*
X0089269Y0088975D03*
X0091238Y0088975D03*
X0093206Y0088975D03*
X0093206Y0107479D03*
X0091238Y0107479D03*
X0089269Y0107479D03*
X0087301Y0107479D03*
X0085332Y0107479D03*
X0083364Y0107479D03*
D35*
X0088285Y0098227D03*
D36*
X0097793Y0088719D03*
D37*
X0101435Y0196302D03*
X0107340Y0206145D03*
X0113246Y0196302D03*
X0119151Y0206145D03*
X0125057Y0196302D03*
X0130962Y0206145D03*
X0136868Y0196302D03*
X0142773Y0206145D03*
X0148679Y0196302D03*
X0154584Y0206145D03*
X0160490Y0196302D03*
X0166395Y0206145D03*
X0172301Y0196302D03*
X0178206Y0206145D03*
X0184112Y0196302D03*
X0178206Y0219924D03*
X0172301Y0229767D03*
X0166395Y0219924D03*
X0160490Y0229767D03*
X0154584Y0219924D03*
X0148679Y0229767D03*
X0142773Y0219924D03*
X0136868Y0229767D03*
X0130962Y0219924D03*
X0125057Y0229767D03*
X0119151Y0219924D03*
X0113246Y0229767D03*
X0107340Y0219924D03*
X0101435Y0229767D03*
X0095529Y0219924D03*
X0089624Y0229767D03*
X0095529Y0206145D03*
X0089624Y0196302D03*
X0184112Y0229767D03*
D38*
X0178935Y0136411D03*
X0178935Y0133852D03*
X0178935Y0131293D03*
X0172636Y0131293D03*
X0172636Y0133852D03*
X0172636Y0136411D03*
X0168310Y0136411D03*
X0168310Y0133852D03*
X0168310Y0131293D03*
X0162011Y0131293D03*
X0162011Y0133852D03*
X0162011Y0136411D03*
D39*
X0168192Y0178694D03*
X0170160Y0178694D03*
X0172129Y0178694D03*
X0172129Y0184009D03*
X0170160Y0184009D03*
X0168192Y0184009D03*
D40*
X0207704Y0217602D03*
X0216366Y0221342D03*
X0216366Y0213862D03*
X0065741Y0217602D03*
X0057079Y0221342D03*
X0057079Y0213862D03*
D41*
X0123285Y0135102D03*
X0123285Y0125102D03*
X0133285Y0125102D03*
X0133285Y0135102D03*
X0133285Y0115102D03*
X0123285Y0115102D03*
X0123285Y0105102D03*
X0123285Y0095102D03*
X0133285Y0095102D03*
X0133285Y0105102D03*
X0133285Y0085102D03*
X0123285Y0085102D03*
D42*
X0165192Y0152297D03*
X0167161Y0152297D03*
X0169129Y0152297D03*
X0171098Y0152297D03*
X0173066Y0152297D03*
X0175035Y0152297D03*
X0177003Y0152297D03*
X0177003Y0170407D03*
X0175035Y0170407D03*
X0173066Y0170407D03*
X0171098Y0170407D03*
X0169129Y0170407D03*
X0167161Y0170407D03*
X0165192Y0170407D03*
D43*
X0162043Y0167257D03*
X0162043Y0165289D03*
X0162043Y0163320D03*
X0162043Y0161352D03*
X0162043Y0159383D03*
X0162043Y0157415D03*
X0162043Y0155446D03*
X0180153Y0155446D03*
X0180153Y0157415D03*
X0180153Y0159383D03*
X0180153Y0161352D03*
X0180153Y0163320D03*
X0180153Y0165289D03*
X0180153Y0167257D03*
D44*
X0171098Y0161352D03*
D45*
X0173598Y0163852D03*
X0173598Y0158852D03*
X0168598Y0158852D03*
X0168598Y0163852D03*
X0162035Y0170727D03*
X0156410Y0161977D03*
X0152035Y0153852D03*
X0148285Y0150102D03*
X0145160Y0152602D03*
X0142660Y0150102D03*
X0139535Y0142602D03*
X0143910Y0138852D03*
X0147660Y0138852D03*
X0152660Y0137602D03*
X0153910Y0140727D03*
X0156410Y0136977D03*
X0162035Y0140727D03*
X0165160Y0138227D03*
X0170785Y0138852D03*
X0165160Y0145102D03*
X0157035Y0145102D03*
X0156410Y0150102D03*
X0143910Y0158227D03*
X0138285Y0157602D03*
X0138285Y0160102D03*
X0138285Y0162602D03*
X0127035Y0162602D03*
X0127035Y0160102D03*
X0127035Y0157602D03*
X0118910Y0170727D03*
X0113285Y0175102D03*
X0113285Y0177602D03*
X0107660Y0186977D03*
X0103910Y0178852D03*
X0103910Y0176352D03*
X0102035Y0161977D03*
X0098285Y0160727D03*
X0102035Y0155102D03*
X0106410Y0150727D03*
X0111410Y0152602D03*
X0116410Y0157602D03*
X0116410Y0160102D03*
X0114535Y0142602D03*
X0106410Y0138227D03*
X0106410Y0133852D03*
X0103910Y0129477D03*
X0104535Y0116977D03*
X0100785Y0116977D03*
X0099535Y0113227D03*
X0098285Y0109477D03*
X0094535Y0115102D03*
X0087035Y0121352D03*
X0084535Y0123852D03*
X0081410Y0125727D03*
X0076410Y0122602D03*
X0073910Y0130102D03*
X0068910Y0130102D03*
X0070160Y0137602D03*
X0067660Y0140727D03*
X0074535Y0136977D03*
X0078910Y0132602D03*
X0083285Y0140102D03*
X0078910Y0144477D03*
X0075785Y0154477D03*
X0072660Y0159477D03*
X0068910Y0159477D03*
X0065160Y0159477D03*
X0062660Y0155102D03*
X0057035Y0153852D03*
X0055160Y0164477D03*
X0058285Y0176977D03*
X0058285Y0179477D03*
X0065785Y0179477D03*
X0065785Y0181977D03*
X0065785Y0184477D03*
X0064535Y0193227D03*
X0064535Y0195727D03*
X0051410Y0201352D03*
X0055785Y0213852D03*
X0058285Y0213852D03*
X0052660Y0187602D03*
X0077035Y0184477D03*
X0077035Y0181977D03*
X0077035Y0179477D03*
X0089535Y0179477D03*
X0089535Y0181977D03*
X0089535Y0184477D03*
X0088910Y0164477D03*
X0085160Y0159477D03*
X0076410Y0164477D03*
X0052660Y0133227D03*
X0053910Y0101977D03*
X0051410Y0093852D03*
X0052035Y0088852D03*
X0063910Y0090727D03*
X0063910Y0095727D03*
X0066410Y0101977D03*
X0072660Y0101977D03*
X0075785Y0095102D03*
X0075785Y0089477D03*
X0081410Y0085102D03*
X0077035Y0081352D03*
X0075160Y0076977D03*
X0080160Y0075102D03*
X0080160Y0071977D03*
X0083910Y0071977D03*
X0083910Y0075102D03*
X0088910Y0085102D03*
X0092660Y0084477D03*
X0096410Y0085102D03*
X0088285Y0094477D03*
X0088285Y0098227D03*
X0088285Y0101977D03*
X0092035Y0098227D03*
X0084535Y0098227D03*
X0091410Y0124477D03*
X0091410Y0127602D03*
X0113910Y0111977D03*
X0117660Y0110102D03*
X0115785Y0106977D03*
X0117035Y0091977D03*
X0113285Y0081352D03*
X0110785Y0081352D03*
X0110785Y0078852D03*
X0113285Y0078852D03*
X0113285Y0076352D03*
X0110785Y0076352D03*
X0107035Y0078227D03*
X0095160Y0057602D03*
X0092660Y0057602D03*
X0070160Y0056352D03*
X0067660Y0056352D03*
X0065160Y0056352D03*
X0065160Y0059477D03*
X0067660Y0059477D03*
X0070160Y0059477D03*
X0058910Y0070727D03*
X0055160Y0070727D03*
X0051410Y0070727D03*
X0115160Y0124477D03*
X0117660Y0130727D03*
X0126410Y0143227D03*
X0138285Y0120102D03*
X0146410Y0107602D03*
X0142035Y0098852D03*
X0147035Y0094477D03*
X0147035Y0082602D03*
X0140160Y0077602D03*
X0147035Y0073227D03*
X0160785Y0076977D03*
X0160160Y0080727D03*
X0162035Y0083852D03*
X0159535Y0086352D03*
X0162035Y0088852D03*
X0159535Y0096352D03*
X0158910Y0100102D03*
X0169535Y0100102D03*
X0172035Y0108227D03*
X0168910Y0110727D03*
X0170785Y0119477D03*
X0175785Y0119477D03*
X0180785Y0118227D03*
X0183285Y0115727D03*
X0180785Y0113227D03*
X0188285Y0097602D03*
X0204535Y0096352D03*
X0204535Y0092602D03*
X0210160Y0091977D03*
X0210160Y0088227D03*
X0210160Y0084477D03*
X0222035Y0083227D03*
X0222035Y0098227D03*
X0222035Y0121352D03*
X0204535Y0138227D03*
X0195785Y0141977D03*
X0195785Y0144477D03*
X0190785Y0141977D03*
X0182660Y0138852D03*
X0182660Y0134477D03*
X0182660Y0130727D03*
X0180785Y0151352D03*
X0177035Y0174477D03*
X0177035Y0185727D03*
X0192035Y0201352D03*
X0193910Y0202602D03*
X0190785Y0207602D03*
X0188910Y0206352D03*
X0195160Y0195727D03*
X0197035Y0196977D03*
X0203285Y0197602D03*
X0203285Y0195102D03*
X0203285Y0192602D03*
X0203285Y0190102D03*
X0209535Y0190102D03*
X0212035Y0190102D03*
X0215160Y0221352D03*
X0217660Y0221352D03*
X0215785Y0156352D03*
X0200160Y0120102D03*
X0162660Y0119477D03*
X0157660Y0121977D03*
X0156410Y0125727D03*
X0149535Y0130727D03*
X0164535Y0076977D03*
X0168285Y0076977D03*
X0167660Y0069477D03*
X0171410Y0068227D03*
X0177660Y0068852D03*
X0181410Y0068852D03*
X0187035Y0069477D03*
X0198285Y0070102D03*
X0203285Y0069477D03*
X0207660Y0072602D03*
X0217660Y0063852D03*
X0208910Y0056352D03*
X0205160Y0056352D03*
X0182660Y0056352D03*
X0177035Y0056352D03*
X0162035Y0056352D03*
X0155785Y0057602D03*
X0139535Y0058852D03*
X0130785Y0059477D03*
X0128285Y0059477D03*
X0128285Y0056977D03*
X0130785Y0056977D03*
X0158910Y0186977D03*
D46*
X0049935Y0066352D02*
X0049935Y0054252D01*
X0073910Y0054252D01*
X0073910Y0066352D01*
X0049935Y0066352D01*
X0049935Y0066176D02*
X0073910Y0066176D01*
X0073910Y0065378D02*
X0049935Y0065378D01*
X0049935Y0064579D02*
X0073910Y0064579D01*
X0073910Y0063781D02*
X0049935Y0063781D01*
X0049935Y0062982D02*
X0073910Y0062982D01*
X0073910Y0062184D02*
X0049935Y0062184D01*
X0049935Y0061385D02*
X0073910Y0061385D01*
X0073910Y0060587D02*
X0049935Y0060587D01*
X0049935Y0059788D02*
X0073910Y0059788D01*
X0073910Y0058990D02*
X0049935Y0058990D01*
X0049935Y0058191D02*
X0073910Y0058191D01*
X0073910Y0057393D02*
X0049935Y0057393D01*
X0049935Y0056594D02*
X0073910Y0056594D01*
X0073910Y0055796D02*
X0049935Y0055796D01*
X0049935Y0054997D02*
X0073910Y0054997D01*
X0075785Y0054997D02*
X0090057Y0054997D01*
X0090057Y0054680D02*
X0090485Y0054252D01*
X0075785Y0054252D01*
X0075785Y0068227D01*
X0062035Y0068227D01*
X0062035Y0082602D01*
X0070613Y0082602D01*
X0070613Y0079542D01*
X0071141Y0079015D01*
X0075430Y0079015D01*
X0075774Y0079360D01*
X0076082Y0079052D01*
X0077988Y0079052D01*
X0079335Y0080399D01*
X0079335Y0082304D01*
X0079038Y0082602D01*
X0079698Y0082602D01*
X0079698Y0079207D01*
X0080225Y0078680D01*
X0083727Y0078680D01*
X0084254Y0079207D01*
X0084254Y0082602D01*
X0084816Y0082602D01*
X0084816Y0079207D01*
X0085343Y0078680D01*
X0086410Y0078680D01*
X0086410Y0078162D01*
X0077410Y0078162D01*
X0076883Y0077635D01*
X0076883Y0069881D01*
X0077410Y0069354D01*
X0086410Y0069354D01*
X0086410Y0068852D01*
X0099222Y0068852D01*
X0099241Y0068833D01*
X0102349Y0068833D01*
X0102368Y0068852D01*
X0102962Y0068852D01*
X0102981Y0068833D01*
X0105785Y0068833D01*
X0105785Y0058852D01*
X0107035Y0058852D01*
X0107035Y0054252D01*
X0097335Y0054252D01*
X0097763Y0054680D01*
X0097763Y0060543D01*
X0097236Y0061071D01*
X0090585Y0061071D01*
X0090057Y0060543D01*
X0090057Y0054680D01*
X0090057Y0055796D02*
X0075785Y0055796D01*
X0075785Y0056594D02*
X0090057Y0056594D01*
X0090057Y0057393D02*
X0075785Y0057393D01*
X0075785Y0058191D02*
X0090057Y0058191D01*
X0090057Y0058990D02*
X0075785Y0058990D01*
X0075785Y0059788D02*
X0090057Y0059788D01*
X0090101Y0060587D02*
X0075785Y0060587D01*
X0075785Y0061385D02*
X0098714Y0061385D01*
X0098714Y0060587D02*
X0097719Y0060587D01*
X0097763Y0059788D02*
X0099230Y0059788D01*
X0099241Y0059777D02*
X0099495Y0059777D01*
X0099495Y0059543D01*
X0099073Y0059121D01*
X0099073Y0054832D01*
X0099600Y0054305D01*
X0103102Y0054305D01*
X0103629Y0054832D01*
X0103629Y0059121D01*
X0103102Y0059648D01*
X0102095Y0059648D01*
X0102095Y0059777D01*
X0102349Y0059777D01*
X0102876Y0060305D01*
X0102876Y0064594D01*
X0102349Y0065121D01*
X0099241Y0065121D01*
X0098714Y0064594D01*
X0098714Y0060305D01*
X0099241Y0059777D01*
X0099073Y0058990D02*
X0097763Y0058990D01*
X0097763Y0058191D02*
X0099073Y0058191D01*
X0099073Y0057393D02*
X0097763Y0057393D01*
X0097763Y0056594D02*
X0099073Y0056594D01*
X0099073Y0055796D02*
X0097763Y0055796D01*
X0097763Y0054997D02*
X0099073Y0054997D01*
X0100795Y0057370D02*
X0101351Y0056977D01*
X0100795Y0057370D02*
X0100795Y0062449D01*
X0102876Y0062184D02*
X0105785Y0062184D01*
X0105785Y0062982D02*
X0102876Y0062982D01*
X0102876Y0063781D02*
X0105785Y0063781D01*
X0105785Y0064579D02*
X0102876Y0064579D01*
X0105785Y0065378D02*
X0075785Y0065378D01*
X0075785Y0066176D02*
X0105785Y0066176D01*
X0105785Y0066975D02*
X0075785Y0066975D01*
X0075785Y0067773D02*
X0105785Y0067773D01*
X0105785Y0068572D02*
X0062035Y0068572D01*
X0062035Y0069370D02*
X0077394Y0069370D01*
X0076883Y0070169D02*
X0062035Y0070169D01*
X0062035Y0070967D02*
X0076883Y0070967D01*
X0076883Y0071766D02*
X0062035Y0071766D01*
X0062035Y0072564D02*
X0076883Y0072564D01*
X0076883Y0073363D02*
X0062035Y0073363D01*
X0062035Y0074161D02*
X0076883Y0074161D01*
X0076883Y0074960D02*
X0062035Y0074960D01*
X0062035Y0075758D02*
X0076883Y0075758D01*
X0076883Y0076557D02*
X0062035Y0076557D01*
X0062035Y0077356D02*
X0076883Y0077356D01*
X0077402Y0078154D02*
X0062035Y0078154D01*
X0062035Y0078953D02*
X0079953Y0078953D01*
X0079698Y0079751D02*
X0078687Y0079751D01*
X0079335Y0080550D02*
X0079698Y0080550D01*
X0079698Y0081348D02*
X0079335Y0081348D01*
X0079335Y0082147D02*
X0079698Y0082147D01*
X0081410Y0081918D02*
X0081976Y0081352D01*
X0081410Y0081918D02*
X0081410Y0085102D01*
X0081395Y0085116D01*
X0081395Y0088975D01*
X0079033Y0093305D02*
X0077739Y0093305D01*
X0075785Y0091352D01*
X0075785Y0089477D01*
X0075785Y0088911D01*
X0073285Y0086411D01*
X0068910Y0086411D01*
X0070613Y0082147D02*
X0062035Y0082147D01*
X0062035Y0081348D02*
X0070613Y0081348D01*
X0070613Y0080550D02*
X0062035Y0080550D01*
X0062035Y0079751D02*
X0070613Y0079751D01*
X0073285Y0081293D02*
X0074594Y0081352D01*
X0077035Y0081352D01*
X0084254Y0081348D02*
X0084816Y0081348D01*
X0084816Y0080550D02*
X0084254Y0080550D01*
X0084254Y0079751D02*
X0084816Y0079751D01*
X0085071Y0078953D02*
X0083999Y0078953D01*
X0084254Y0082147D02*
X0084816Y0082147D01*
X0088285Y0082147D02*
X0120725Y0082147D01*
X0119926Y0082945D02*
X0097506Y0082945D01*
X0097363Y0082802D02*
X0098710Y0084149D01*
X0098710Y0086054D01*
X0097438Y0087327D01*
X0098658Y0087327D01*
X0099010Y0087679D01*
X0099585Y0087105D01*
X0100288Y0086402D01*
X0100323Y0086402D01*
X0100323Y0085457D01*
X0100850Y0084930D01*
X0104352Y0084930D01*
X0104879Y0085457D01*
X0104879Y0089746D01*
X0104352Y0090273D01*
X0101360Y0090273D01*
X0101360Y0091224D01*
X0100657Y0091927D01*
X0100047Y0092537D01*
X0099815Y0092537D01*
X0099815Y0094229D01*
X0099755Y0094290D01*
X0099815Y0094350D01*
X0099815Y0095102D01*
X0101051Y0095102D01*
X0101051Y0094517D01*
X0101579Y0093990D01*
X0105441Y0093990D01*
X0105441Y0089832D01*
X0105484Y0089789D01*
X0105441Y0089746D01*
X0105441Y0085457D01*
X0105968Y0084930D01*
X0109470Y0084930D01*
X0109990Y0085450D01*
X0110347Y0085093D01*
X0110613Y0085093D01*
X0110613Y0084542D01*
X0098710Y0084542D01*
X0098710Y0085341D02*
X0100440Y0085341D01*
X0100323Y0086139D02*
X0098625Y0086139D01*
X0097827Y0086938D02*
X0099752Y0086938D01*
X0101360Y0090930D02*
X0105441Y0090930D01*
X0105441Y0090132D02*
X0104493Y0090132D01*
X0104879Y0089333D02*
X0105441Y0089333D01*
X0105441Y0088535D02*
X0104879Y0088535D01*
X0104879Y0087736D02*
X0105441Y0087736D01*
X0105441Y0086938D02*
X0104879Y0086938D01*
X0104879Y0086139D02*
X0105441Y0086139D01*
X0105558Y0085341D02*
X0104762Y0085341D01*
X0104290Y0081292D02*
X0103763Y0080765D01*
X0103763Y0077762D01*
X0102835Y0076834D01*
X0102835Y0074030D01*
X0102665Y0073860D01*
X0102495Y0074030D01*
X0102495Y0075376D01*
X0102807Y0075689D01*
X0102807Y0080765D01*
X0102280Y0081292D01*
X0097597Y0081292D01*
X0097070Y0080765D01*
X0097070Y0075689D01*
X0097597Y0075161D01*
X0099095Y0075161D01*
X0099095Y0074080D01*
X0096350Y0074080D01*
X0096350Y0074721D01*
X0095823Y0075249D01*
X0090747Y0075249D01*
X0090220Y0074721D01*
X0090220Y0070727D01*
X0088285Y0070727D01*
X0088285Y0082802D01*
X0089863Y0082802D01*
X0090473Y0083411D01*
X0091707Y0082177D01*
X0093613Y0082177D01*
X0094848Y0083411D01*
X0095457Y0082802D01*
X0097363Y0082802D01*
X0098305Y0083744D02*
X0119385Y0083744D01*
X0119385Y0083486D02*
X0121670Y0081202D01*
X0124901Y0081202D01*
X0127185Y0083486D01*
X0127185Y0086717D01*
X0125626Y0088277D01*
X0130945Y0088277D01*
X0129385Y0086717D01*
X0129385Y0083486D01*
X0131670Y0081202D01*
X0134901Y0081202D01*
X0135785Y0082086D01*
X0135785Y0070727D01*
X0115957Y0070727D01*
X0115957Y0073786D01*
X0115430Y0074314D01*
X0111141Y0074314D01*
X0110613Y0073786D01*
X0110613Y0073204D01*
X0110356Y0073204D01*
X0110356Y0073649D01*
X0109829Y0074176D01*
X0106721Y0074176D01*
X0106405Y0073860D01*
X0106235Y0074030D01*
X0106235Y0075161D01*
X0108973Y0075161D01*
X0109500Y0075689D01*
X0109500Y0080765D01*
X0108973Y0081292D01*
X0104290Y0081292D01*
X0103763Y0080550D02*
X0102807Y0080550D01*
X0102807Y0079751D02*
X0103763Y0079751D01*
X0103763Y0078953D02*
X0102807Y0078953D01*
X0102807Y0078154D02*
X0103763Y0078154D01*
X0103356Y0077356D02*
X0102807Y0077356D01*
X0102807Y0076557D02*
X0102835Y0076557D01*
X0102807Y0075758D02*
X0102835Y0075758D01*
X0102835Y0074960D02*
X0102495Y0074960D01*
X0102495Y0074161D02*
X0102835Y0074161D01*
X0106235Y0074161D02*
X0106707Y0074161D01*
X0106235Y0074960D02*
X0135785Y0074960D01*
X0135785Y0075758D02*
X0109500Y0075758D01*
X0109500Y0076557D02*
X0135785Y0076557D01*
X0135785Y0077356D02*
X0109500Y0077356D01*
X0109500Y0078154D02*
X0135785Y0078154D01*
X0135785Y0078953D02*
X0109500Y0078953D01*
X0109500Y0079751D02*
X0135785Y0079751D01*
X0135785Y0080550D02*
X0109500Y0080550D01*
X0107035Y0078227D02*
X0106632Y0078227D01*
X0109844Y0074161D02*
X0110988Y0074161D01*
X0110613Y0073363D02*
X0110356Y0073363D01*
X0109848Y0068852D02*
X0125160Y0068852D01*
X0125160Y0054252D01*
X0110785Y0054252D01*
X0110785Y0060727D01*
X0107660Y0060727D01*
X0107660Y0068833D01*
X0109829Y0068833D01*
X0109848Y0068852D01*
X0107660Y0068572D02*
X0125160Y0068572D01*
X0125160Y0067773D02*
X0107660Y0067773D01*
X0107660Y0066975D02*
X0125160Y0066975D01*
X0125160Y0066176D02*
X0107660Y0066176D01*
X0107660Y0065378D02*
X0125160Y0065378D01*
X0125160Y0064579D02*
X0107660Y0064579D01*
X0107660Y0063781D02*
X0125160Y0063781D01*
X0125160Y0062982D02*
X0107660Y0062982D01*
X0107660Y0062184D02*
X0125160Y0062184D01*
X0125160Y0061385D02*
X0107660Y0061385D01*
X0105785Y0061385D02*
X0102876Y0061385D01*
X0102876Y0060587D02*
X0105785Y0060587D01*
X0105785Y0059788D02*
X0102360Y0059788D01*
X0103629Y0058990D02*
X0105785Y0058990D01*
X0107035Y0058191D02*
X0103629Y0058191D01*
X0103629Y0057393D02*
X0107035Y0057393D01*
X0107035Y0056594D02*
X0103629Y0056594D01*
X0103629Y0055796D02*
X0107035Y0055796D01*
X0107035Y0054997D02*
X0103629Y0054997D01*
X0098714Y0062184D02*
X0075785Y0062184D01*
X0075785Y0062982D02*
X0098714Y0062982D01*
X0098714Y0063781D02*
X0075785Y0063781D01*
X0075785Y0064579D02*
X0098714Y0064579D01*
X0090220Y0070967D02*
X0088285Y0070967D01*
X0088285Y0071766D02*
X0090220Y0071766D01*
X0090220Y0072564D02*
X0088285Y0072564D01*
X0088285Y0073363D02*
X0090220Y0073363D01*
X0090220Y0074161D02*
X0088285Y0074161D01*
X0088285Y0074960D02*
X0090458Y0074960D01*
X0088285Y0075758D02*
X0097070Y0075758D01*
X0097070Y0076557D02*
X0088285Y0076557D01*
X0088285Y0077356D02*
X0097070Y0077356D01*
X0097070Y0078154D02*
X0088285Y0078154D01*
X0088285Y0078953D02*
X0097070Y0078953D01*
X0097070Y0079751D02*
X0088285Y0079751D01*
X0088285Y0080550D02*
X0097070Y0080550D01*
X0095314Y0082945D02*
X0094381Y0082945D01*
X0090939Y0082945D02*
X0090006Y0082945D01*
X0088285Y0081348D02*
X0121523Y0081348D01*
X0119385Y0083486D02*
X0119385Y0085755D01*
X0118157Y0084527D01*
X0115942Y0084527D01*
X0115430Y0084015D01*
X0111141Y0084015D01*
X0110613Y0084542D01*
X0110099Y0085341D02*
X0109881Y0085341D01*
X0113344Y0085727D02*
X0113285Y0086293D01*
X0113285Y0091411D02*
X0111469Y0091977D01*
X0107719Y0091977D01*
X0107035Y0091977D01*
X0107035Y0094924D01*
X0104314Y0097646D01*
X0100160Y0097242D02*
X0100160Y0094418D01*
X0102601Y0091977D01*
X0100855Y0091729D02*
X0105441Y0091729D01*
X0105441Y0092527D02*
X0100057Y0092527D01*
X0099815Y0093326D02*
X0105441Y0093326D01*
X0101444Y0094124D02*
X0099815Y0094124D01*
X0099815Y0094923D02*
X0101051Y0094923D01*
X0100160Y0097242D02*
X0097537Y0097242D01*
X0097537Y0095274D02*
X0094988Y0095274D01*
X0092035Y0098227D01*
X0089269Y0099211D02*
X0088285Y0098227D01*
X0087301Y0097242D01*
X0079033Y0097242D01*
X0079033Y0095274D02*
X0075957Y0095274D01*
X0075785Y0095102D01*
X0075785Y0094477D01*
X0073285Y0091977D01*
X0072094Y0091977D01*
X0072094Y0090727D01*
X0072094Y0095727D02*
X0077453Y0099211D01*
X0079033Y0099211D01*
X0079033Y0101179D02*
X0076863Y0101179D01*
X0073910Y0098852D01*
X0064535Y0098852D01*
X0062094Y0101293D01*
X0062094Y0101977D01*
X0062094Y0102661D01*
X0064535Y0105102D01*
X0073910Y0105102D01*
X0077660Y0108852D01*
X0077660Y0115401D01*
X0077960Y0115702D01*
X0074811Y0115702D02*
X0074811Y0110377D01*
X0072660Y0108227D01*
X0070844Y0108227D01*
X0070785Y0111352D02*
X0071661Y0112228D01*
X0071661Y0115702D01*
X0070785Y0111352D02*
X0053910Y0111352D01*
X0053064Y0110505D01*
X0053064Y0107602D01*
X0053910Y0101977D02*
X0056976Y0101977D01*
X0059757Y0107602D02*
X0060382Y0108227D01*
X0065726Y0108227D01*
X0066410Y0101977D02*
X0066976Y0101977D01*
X0072094Y0101977D02*
X0072660Y0101977D01*
X0075160Y0101977D01*
X0076331Y0103148D01*
X0079033Y0103148D01*
X0089269Y0099211D02*
X0097537Y0099211D01*
X0097537Y0101179D02*
X0099707Y0101179D01*
X0100160Y0100727D01*
X0100160Y0097242D01*
X0101410Y0101977D02*
X0107035Y0101977D01*
X0111007Y0098005D01*
X0111007Y0097646D01*
X0111528Y0098168D01*
X0115785Y0098168D01*
X0115785Y0103286D02*
X0115785Y0106977D01*
X0111676Y0106977D01*
X0111007Y0106307D01*
X0110219Y0111977D02*
X0108226Y0113970D01*
X0108226Y0116352D01*
X0108226Y0116918D01*
X0108285Y0116977D01*
X0104535Y0116977D01*
X0105101Y0111977D02*
X0105101Y0107095D01*
X0104314Y0106307D01*
X0103123Y0105116D01*
X0097537Y0105116D01*
X0097537Y0103148D02*
X0100239Y0103148D01*
X0101410Y0101977D01*
X0098285Y0109477D02*
X0097660Y0110102D01*
X0093910Y0110102D01*
X0093206Y0109398D01*
X0093206Y0107479D01*
X0094535Y0115102D02*
X0094535Y0117602D01*
X0079535Y0132602D01*
X0078910Y0132602D01*
X0076410Y0131352D02*
X0076410Y0135102D01*
X0074535Y0136977D01*
X0076410Y0135102D02*
X0083285Y0135102D01*
X0087360Y0131027D01*
X0096435Y0131027D01*
X0096435Y0134176D02*
X0101026Y0134176D01*
X0102035Y0133168D01*
X0101075Y0137326D02*
X0102035Y0138286D01*
X0102035Y0143793D01*
X0102035Y0148911D02*
X0095844Y0148911D01*
X0090785Y0143852D01*
X0082660Y0143852D01*
X0080160Y0141352D01*
X0076410Y0141352D01*
X0071661Y0146101D01*
X0071661Y0149502D01*
X0071661Y0154285D01*
X0071469Y0155102D01*
X0071469Y0158286D01*
X0072660Y0159477D01*
X0068910Y0159477D02*
X0068910Y0150102D01*
X0068512Y0150102D01*
X0068512Y0149502D01*
X0068512Y0150102D02*
X0062882Y0150102D01*
X0059535Y0146977D02*
X0059535Y0155102D01*
X0058285Y0156352D01*
X0055785Y0156352D01*
X0052660Y0153227D01*
X0052660Y0141918D01*
X0052601Y0141352D01*
X0057719Y0141352D02*
X0057719Y0144418D01*
X0056189Y0145948D01*
X0056189Y0150102D01*
X0057035Y0150323D01*
X0057035Y0153852D01*
X0056976Y0159477D02*
X0057035Y0160161D01*
X0057035Y0162661D01*
X0058851Y0164477D01*
X0054545Y0168783D01*
X0054545Y0169521D01*
X0057413Y0169184D02*
X0065948Y0169184D01*
X0065948Y0168386D02*
X0057413Y0168386D01*
X0057413Y0167753D02*
X0057413Y0172650D01*
X0056886Y0173177D01*
X0055785Y0173177D01*
X0064176Y0173177D01*
X0064176Y0173975D02*
X0055785Y0173975D01*
X0055944Y0174526D02*
X0060626Y0174526D01*
X0061154Y0175054D01*
X0061154Y0181311D01*
X0060626Y0181838D01*
X0059503Y0181838D01*
X0059707Y0182042D01*
X0059707Y0185543D01*
X0059565Y0185685D01*
X0067917Y0185592D01*
X0067917Y0180054D01*
X0068444Y0179526D01*
X0073126Y0179526D01*
X0073654Y0180054D01*
X0073654Y0185528D01*
X0080417Y0185453D01*
X0080417Y0180054D01*
X0080944Y0179526D01*
X0085626Y0179526D01*
X0086154Y0180054D01*
X0086154Y0185389D01*
X0092917Y0185314D01*
X0092917Y0180054D01*
X0093444Y0179526D01*
X0098126Y0179526D01*
X0098654Y0180054D01*
X0098654Y0185250D01*
X0103894Y0185192D01*
X0103448Y0184746D01*
X0103448Y0180457D01*
X0103975Y0179930D01*
X0107477Y0179930D01*
X0108004Y0180457D01*
X0108004Y0184677D01*
X0108566Y0184677D01*
X0108566Y0180457D01*
X0109093Y0179930D01*
X0109144Y0179930D01*
X0109144Y0179615D01*
X0108868Y0179338D01*
X0105944Y0179338D01*
X0105417Y0178811D01*
X0105417Y0172554D01*
X0105944Y0172026D01*
X0110626Y0172026D01*
X0111154Y0172554D01*
X0111154Y0176816D01*
X0112544Y0178207D01*
X0112544Y0179930D01*
X0112595Y0179930D01*
X0113122Y0180457D01*
X0113122Y0181352D01*
X0114846Y0181352D01*
X0114846Y0176220D01*
X0115299Y0175767D01*
X0115299Y0175686D01*
X0114846Y0175233D01*
X0114846Y0166220D01*
X0115373Y0165693D01*
X0122024Y0165693D01*
X0122551Y0166220D01*
X0122551Y0175233D01*
X0122098Y0175686D01*
X0122098Y0175767D01*
X0122551Y0176220D01*
X0122551Y0181352D01*
X0126506Y0181352D01*
X0124085Y0178931D01*
X0124085Y0167681D01*
X0121368Y0164963D01*
X0118444Y0164963D01*
X0117917Y0164436D01*
X0117917Y0158179D01*
X0118444Y0157651D01*
X0123126Y0157651D01*
X0123654Y0158179D01*
X0123654Y0162441D01*
X0126489Y0165277D01*
X0127485Y0166272D01*
X0127485Y0177522D01*
X0128989Y0179027D01*
X0129019Y0179027D01*
X0129019Y0176220D01*
X0129512Y0175727D01*
X0129019Y0175233D01*
X0129019Y0166220D01*
X0129546Y0165693D01*
X0131585Y0165693D01*
X0131585Y0164963D01*
X0130944Y0164963D01*
X0130417Y0164436D01*
X0130417Y0158179D01*
X0130944Y0157651D01*
X0135626Y0157651D01*
X0136154Y0158179D01*
X0136154Y0164436D01*
X0135626Y0164963D01*
X0134985Y0164963D01*
X0134985Y0165693D01*
X0136197Y0165693D01*
X0136724Y0166220D01*
X0136724Y0169027D01*
X0137739Y0169027D01*
X0138989Y0170277D01*
X0139535Y0170823D01*
X0139535Y0146352D01*
X0133004Y0146352D01*
X0133004Y0149121D01*
X0132477Y0149648D01*
X0132413Y0149648D01*
X0132413Y0155775D01*
X0131886Y0156302D01*
X0127204Y0156302D01*
X0126676Y0155775D01*
X0126676Y0149517D01*
X0127204Y0148990D01*
X0128448Y0148990D01*
X0128448Y0146352D01*
X0120504Y0146352D01*
X0120504Y0149121D01*
X0119977Y0149648D01*
X0119913Y0149648D01*
X0119913Y0155775D01*
X0119386Y0156302D01*
X0114704Y0156302D01*
X0114176Y0155775D01*
X0114176Y0149517D01*
X0114704Y0148990D01*
X0115948Y0148990D01*
X0115948Y0146352D01*
X0113747Y0146352D01*
X0113747Y0149121D01*
X0113220Y0149648D01*
X0109718Y0149648D01*
X0109191Y0149121D01*
X0109191Y0146352D01*
X0108629Y0146352D01*
X0108629Y0149121D01*
X0108343Y0149407D01*
X0108710Y0149774D01*
X0108710Y0151679D01*
X0107363Y0153027D01*
X0105457Y0153027D01*
X0104535Y0152104D01*
X0104535Y0154305D01*
X0107477Y0154305D01*
X0108004Y0154832D01*
X0108004Y0159121D01*
X0107961Y0159164D01*
X0108004Y0159207D01*
X0108004Y0163496D01*
X0107477Y0164023D01*
X0107413Y0164023D01*
X0107413Y0170150D01*
X0106886Y0170677D01*
X0102204Y0170677D01*
X0101676Y0170150D01*
X0101676Y0166977D01*
X0100267Y0166977D01*
X0100095Y0167148D01*
X0096593Y0167148D01*
X0096422Y0166977D01*
X0095504Y0166977D01*
X0095504Y0170996D01*
X0094977Y0171523D01*
X0094913Y0171523D01*
X0094913Y0177650D01*
X0094386Y0178177D01*
X0089704Y0178177D01*
X0089176Y0177650D01*
X0089176Y0171392D01*
X0089704Y0170865D01*
X0090948Y0170865D01*
X0090948Y0166977D01*
X0087767Y0166977D01*
X0087595Y0167148D01*
X0084093Y0167148D01*
X0083922Y0166977D01*
X0083004Y0166977D01*
X0083004Y0170996D01*
X0082477Y0171523D01*
X0082413Y0171523D01*
X0082413Y0177650D01*
X0081886Y0178177D01*
X0077204Y0178177D01*
X0076676Y0177650D01*
X0076676Y0171392D01*
X0077204Y0170865D01*
X0078448Y0170865D01*
X0078448Y0166977D01*
X0075267Y0166977D01*
X0075095Y0167148D01*
X0071593Y0167148D01*
X0071422Y0166977D01*
X0070504Y0166977D01*
X0070504Y0170996D01*
X0069977Y0171523D01*
X0069913Y0171523D01*
X0069913Y0177650D01*
X0069386Y0178177D01*
X0064704Y0178177D01*
X0064176Y0177650D01*
X0064176Y0171392D01*
X0064704Y0170865D01*
X0065948Y0170865D01*
X0065948Y0166707D01*
X0065991Y0166664D01*
X0065948Y0166621D01*
X0065948Y0162602D01*
X0061129Y0162602D01*
X0061129Y0166621D01*
X0060602Y0167148D01*
X0058018Y0167148D01*
X0057413Y0167753D01*
X0057579Y0167587D02*
X0065948Y0167587D01*
X0065948Y0166789D02*
X0060961Y0166789D01*
X0061129Y0165990D02*
X0065948Y0165990D01*
X0065948Y0165192D02*
X0061129Y0165192D01*
X0061129Y0164393D02*
X0065948Y0164393D01*
X0065948Y0163595D02*
X0061129Y0163595D01*
X0061129Y0162796D02*
X0065948Y0162796D01*
X0068226Y0164477D02*
X0068226Y0168852D01*
X0068226Y0173340D01*
X0067045Y0174521D01*
X0069913Y0174774D02*
X0076676Y0174774D01*
X0076676Y0175572D02*
X0069913Y0175572D01*
X0069913Y0176371D02*
X0076676Y0176371D01*
X0076676Y0177169D02*
X0069913Y0177169D01*
X0069595Y0177968D02*
X0076995Y0177968D01*
X0076676Y0173975D02*
X0069913Y0173975D01*
X0069913Y0173177D02*
X0076676Y0173177D01*
X0076676Y0172378D02*
X0069913Y0172378D01*
X0069913Y0171580D02*
X0076676Y0171580D01*
X0078448Y0170781D02*
X0070504Y0170781D01*
X0070504Y0169983D02*
X0078448Y0169983D01*
X0078448Y0169184D02*
X0070504Y0169184D01*
X0070504Y0168386D02*
X0078448Y0168386D01*
X0078448Y0167587D02*
X0070504Y0167587D01*
X0065948Y0169983D02*
X0057413Y0169983D01*
X0057413Y0170781D02*
X0065948Y0170781D01*
X0064176Y0171580D02*
X0057413Y0171580D01*
X0057413Y0172378D02*
X0064176Y0172378D01*
X0064176Y0174774D02*
X0060874Y0174774D01*
X0061154Y0175572D02*
X0064176Y0175572D01*
X0064176Y0176371D02*
X0061154Y0176371D01*
X0061154Y0177169D02*
X0064176Y0177169D01*
X0064495Y0177968D02*
X0061154Y0177968D01*
X0061154Y0178766D02*
X0105417Y0178766D01*
X0105417Y0177968D02*
X0094595Y0177968D01*
X0094913Y0177169D02*
X0105417Y0177169D01*
X0105417Y0176371D02*
X0094913Y0176371D01*
X0094913Y0175572D02*
X0105417Y0175572D01*
X0105417Y0174774D02*
X0094913Y0174774D01*
X0094913Y0173975D02*
X0105417Y0173975D01*
X0105417Y0173177D02*
X0094913Y0173177D01*
X0094913Y0172378D02*
X0105592Y0172378D01*
X0107413Y0169983D02*
X0114846Y0169983D01*
X0114846Y0170781D02*
X0095504Y0170781D01*
X0095504Y0169983D02*
X0101676Y0169983D01*
X0101676Y0169184D02*
X0095504Y0169184D01*
X0095504Y0168386D02*
X0101676Y0168386D01*
X0101676Y0167587D02*
X0095504Y0167587D01*
X0093226Y0168852D02*
X0093226Y0164477D01*
X0090948Y0167587D02*
X0083004Y0167587D01*
X0083004Y0168386D02*
X0090948Y0168386D01*
X0090948Y0169184D02*
X0083004Y0169184D01*
X0083004Y0169983D02*
X0090948Y0169983D01*
X0090948Y0170781D02*
X0083004Y0170781D01*
X0082413Y0171580D02*
X0089176Y0171580D01*
X0089176Y0172378D02*
X0082413Y0172378D01*
X0082413Y0173177D02*
X0089176Y0173177D01*
X0089176Y0173975D02*
X0082413Y0173975D01*
X0082413Y0174774D02*
X0089176Y0174774D01*
X0089176Y0175572D02*
X0082413Y0175572D01*
X0082413Y0176371D02*
X0089176Y0176371D01*
X0089176Y0177169D02*
X0082413Y0177169D01*
X0082095Y0177968D02*
X0089495Y0177968D01*
X0086154Y0180363D02*
X0092917Y0180363D01*
X0092917Y0181162D02*
X0086154Y0181162D01*
X0086154Y0181960D02*
X0092917Y0181960D01*
X0092917Y0182759D02*
X0086154Y0182759D01*
X0086154Y0183558D02*
X0092917Y0183558D01*
X0092917Y0184356D02*
X0086154Y0184356D01*
X0086154Y0185155D02*
X0092917Y0185155D01*
X0093405Y0179565D02*
X0085665Y0179565D01*
X0080905Y0179565D02*
X0073165Y0179565D01*
X0073654Y0180363D02*
X0080417Y0180363D01*
X0080417Y0181162D02*
X0073654Y0181162D01*
X0073654Y0181960D02*
X0080417Y0181960D01*
X0080417Y0182759D02*
X0073654Y0182759D01*
X0073654Y0183558D02*
X0080417Y0183558D01*
X0080417Y0184356D02*
X0073654Y0184356D01*
X0073654Y0185155D02*
X0080417Y0185155D01*
X0079545Y0174521D02*
X0080726Y0173340D01*
X0080726Y0168852D01*
X0080726Y0164477D01*
X0082601Y0155102D02*
X0084260Y0153281D01*
X0084260Y0149502D01*
X0087409Y0149502D02*
X0087409Y0154629D01*
X0087719Y0155102D01*
X0093226Y0155102D01*
X0098344Y0155102D02*
X0102035Y0155102D01*
X0104535Y0154013D02*
X0109568Y0154013D01*
X0109861Y0154305D02*
X0109110Y0153554D01*
X0109110Y0151649D01*
X0110457Y0150302D01*
X0112363Y0150302D01*
X0113710Y0151649D01*
X0113710Y0153554D01*
X0112777Y0154487D01*
X0113122Y0154832D01*
X0113122Y0159121D01*
X0112595Y0159648D01*
X0109093Y0159648D01*
X0108566Y0159121D01*
X0108566Y0154832D01*
X0109093Y0154305D01*
X0109861Y0154305D01*
X0109110Y0153214D02*
X0104535Y0153214D01*
X0104535Y0152416D02*
X0104846Y0152416D01*
X0106410Y0150727D02*
X0106410Y0147036D01*
X0106351Y0146977D01*
X0108629Y0146826D02*
X0109191Y0146826D01*
X0109191Y0147625D02*
X0108629Y0147625D01*
X0108629Y0148423D02*
X0109191Y0148423D01*
X0109292Y0149222D02*
X0108529Y0149222D01*
X0108710Y0150020D02*
X0114176Y0150020D01*
X0114176Y0150819D02*
X0112880Y0150819D01*
X0113678Y0151617D02*
X0114176Y0151617D01*
X0114176Y0152416D02*
X0113710Y0152416D01*
X0113710Y0153214D02*
X0114176Y0153214D01*
X0114176Y0154013D02*
X0113252Y0154013D01*
X0113101Y0154811D02*
X0114176Y0154811D01*
X0114176Y0155610D02*
X0113122Y0155610D01*
X0113122Y0156408D02*
X0139535Y0156408D01*
X0139535Y0155610D02*
X0132413Y0155610D01*
X0132413Y0154811D02*
X0139535Y0154811D01*
X0139535Y0154013D02*
X0132413Y0154013D01*
X0132413Y0153214D02*
X0139535Y0153214D01*
X0139535Y0152416D02*
X0132413Y0152416D01*
X0132413Y0151617D02*
X0139535Y0151617D01*
X0139535Y0150819D02*
X0132413Y0150819D01*
X0132413Y0150020D02*
X0139535Y0150020D01*
X0139535Y0149222D02*
X0132904Y0149222D01*
X0133004Y0148423D02*
X0139535Y0148423D01*
X0139535Y0147625D02*
X0133004Y0147625D01*
X0133004Y0146826D02*
X0139535Y0146826D01*
X0143098Y0144993D02*
X0143098Y0149664D01*
X0142660Y0150102D01*
X0148285Y0150102D02*
X0149004Y0149383D01*
X0149004Y0144993D01*
X0150972Y0144993D02*
X0150972Y0152789D01*
X0152035Y0153852D01*
X0156351Y0153852D01*
X0156410Y0153793D01*
X0156410Y0158911D02*
X0156410Y0161977D01*
X0159097Y0165289D02*
X0162043Y0165289D01*
X0159097Y0165289D02*
X0158851Y0165668D01*
X0157973Y0165668D01*
X0152094Y0169477D02*
X0152094Y0174427D01*
X0152035Y0175112D01*
X0152094Y0169477D02*
X0150972Y0167730D01*
X0150972Y0162710D01*
X0149004Y0162710D02*
X0149004Y0167449D01*
X0146976Y0169477D01*
X0146410Y0169477D01*
X0146410Y0174487D01*
X0143910Y0175112D01*
X0144525Y0175112D01*
X0139535Y0170781D02*
X0139494Y0170781D01*
X0139535Y0169983D02*
X0138695Y0169983D01*
X0137897Y0169184D02*
X0139535Y0169184D01*
X0139535Y0168386D02*
X0136724Y0168386D01*
X0136724Y0167587D02*
X0139535Y0167587D01*
X0139535Y0166789D02*
X0136724Y0166789D01*
X0136495Y0165990D02*
X0139535Y0165990D01*
X0139535Y0165192D02*
X0134985Y0165192D01*
X0136154Y0164393D02*
X0139535Y0164393D01*
X0139535Y0163595D02*
X0136154Y0163595D01*
X0136154Y0162796D02*
X0139535Y0162796D01*
X0139535Y0161998D02*
X0136154Y0161998D01*
X0136154Y0161199D02*
X0139535Y0161199D01*
X0139535Y0160401D02*
X0136154Y0160401D01*
X0136154Y0159602D02*
X0139535Y0159602D01*
X0139535Y0158804D02*
X0136154Y0158804D01*
X0135980Y0158005D02*
X0139535Y0158005D01*
X0139535Y0157207D02*
X0113122Y0157207D01*
X0113122Y0158005D02*
X0118090Y0158005D01*
X0117917Y0158804D02*
X0113122Y0158804D01*
X0112641Y0159602D02*
X0117917Y0159602D01*
X0117917Y0160401D02*
X0108004Y0160401D01*
X0108004Y0161199D02*
X0117917Y0161199D01*
X0117917Y0161998D02*
X0108004Y0161998D01*
X0108004Y0162796D02*
X0117917Y0162796D01*
X0117917Y0163595D02*
X0107905Y0163595D01*
X0107413Y0164393D02*
X0117917Y0164393D01*
X0115075Y0165990D02*
X0107413Y0165990D01*
X0107413Y0165192D02*
X0121596Y0165192D01*
X0122322Y0165990D02*
X0122395Y0165990D01*
X0122551Y0166789D02*
X0123193Y0166789D01*
X0122551Y0167587D02*
X0123992Y0167587D01*
X0124085Y0168386D02*
X0122551Y0168386D01*
X0122551Y0169184D02*
X0124085Y0169184D01*
X0124085Y0169983D02*
X0122551Y0169983D01*
X0122551Y0170781D02*
X0124085Y0170781D01*
X0124085Y0171580D02*
X0122551Y0171580D01*
X0122551Y0172378D02*
X0124085Y0172378D01*
X0124085Y0173177D02*
X0122551Y0173177D01*
X0122551Y0173975D02*
X0124085Y0173975D01*
X0124085Y0174774D02*
X0122551Y0174774D01*
X0122212Y0175572D02*
X0124085Y0175572D01*
X0124085Y0176371D02*
X0122551Y0176371D01*
X0122551Y0177169D02*
X0124085Y0177169D01*
X0124085Y0177968D02*
X0122551Y0177968D01*
X0122551Y0178766D02*
X0124085Y0178766D01*
X0124719Y0179565D02*
X0122551Y0179565D01*
X0122551Y0180363D02*
X0125518Y0180363D01*
X0126316Y0181162D02*
X0122551Y0181162D01*
X0122035Y0183227D02*
X0122035Y0192623D01*
X0121040Y0193618D01*
X0120318Y0195360D01*
X0120318Y0197245D01*
X0121040Y0198987D01*
X0122373Y0200320D01*
X0124114Y0201041D01*
X0124224Y0201041D01*
X0126857Y0203674D01*
X0126224Y0205202D01*
X0126224Y0207088D01*
X0126945Y0208829D01*
X0128278Y0210162D01*
X0130020Y0210884D01*
X0131905Y0210884D01*
X0133434Y0210250D01*
X0139590Y0216406D01*
X0138756Y0217240D01*
X0138035Y0218982D01*
X0138035Y0220867D01*
X0138756Y0222609D01*
X0140089Y0223942D01*
X0141831Y0224663D01*
X0143716Y0224663D01*
X0145458Y0223942D01*
X0146790Y0222609D01*
X0146793Y0222602D01*
X0150564Y0222602D01*
X0150567Y0222609D01*
X0151900Y0223942D01*
X0153642Y0224663D01*
X0155527Y0224663D01*
X0157269Y0223942D01*
X0158602Y0222609D01*
X0158604Y0222602D01*
X0162375Y0222602D01*
X0162378Y0222609D01*
X0163711Y0223942D01*
X0165453Y0224663D01*
X0167338Y0224663D01*
X0167698Y0224514D01*
X0168285Y0225102D01*
X0171182Y0225102D01*
X0169617Y0225750D01*
X0168284Y0227083D01*
X0167562Y0228824D01*
X0167562Y0230710D01*
X0168284Y0232451D01*
X0169617Y0233784D01*
X0171358Y0234506D01*
X0173243Y0234506D01*
X0173528Y0234388D01*
X0177476Y0238336D01*
X0178151Y0239011D01*
X0179033Y0239377D01*
X0188763Y0239377D01*
X0189645Y0239011D01*
X0197404Y0231252D01*
X0202971Y0231252D01*
X0202971Y0233358D01*
X0203498Y0233886D01*
X0210149Y0233886D01*
X0210676Y0233358D01*
X0210676Y0225102D01*
X0223800Y0225102D01*
X0223800Y0250102D01*
X0218566Y0250102D01*
X0217128Y0248664D01*
X0214226Y0247462D01*
X0211085Y0247462D01*
X0208182Y0248664D01*
X0206744Y0250102D01*
X0066991Y0250102D01*
X0065553Y0248664D01*
X0062651Y0247462D01*
X0059510Y0247462D01*
X0056608Y0248664D01*
X0055170Y0250102D01*
X0049935Y0250102D01*
X0049935Y0225102D01*
X0063394Y0225102D01*
X0063394Y0233358D01*
X0063921Y0233886D01*
X0070572Y0233886D01*
X0071099Y0233358D01*
X0071099Y0231252D01*
X0076041Y0231252D01*
X0083126Y0238336D01*
X0083801Y0239011D01*
X0084683Y0239377D01*
X0094702Y0239377D01*
X0095585Y0239011D01*
X0096260Y0238336D01*
X0100208Y0234388D01*
X0100492Y0234506D01*
X0102377Y0234506D01*
X0104119Y0233784D01*
X0105452Y0232451D01*
X0106173Y0230710D01*
X0106173Y0228824D01*
X0105452Y0227083D01*
X0104119Y0225750D01*
X0102554Y0225102D01*
X0107035Y0225102D01*
X0107474Y0224663D01*
X0108283Y0224663D01*
X0110024Y0223942D01*
X0111357Y0222609D01*
X0112079Y0220867D01*
X0112079Y0218982D01*
X0112035Y0218876D01*
X0112035Y0207193D01*
X0112079Y0207088D01*
X0112079Y0205202D01*
X0112035Y0205097D01*
X0112035Y0200930D01*
X0112303Y0201041D01*
X0114188Y0201041D01*
X0115930Y0200320D01*
X0117263Y0198987D01*
X0117984Y0197245D01*
X0117984Y0195360D01*
X0117263Y0193618D01*
X0115930Y0192285D01*
X0114946Y0191878D01*
X0114946Y0184299D01*
X0114535Y0183888D01*
X0114535Y0183227D01*
X0122035Y0183227D01*
X0122035Y0183558D02*
X0114535Y0183558D01*
X0114946Y0184356D02*
X0122035Y0184356D01*
X0122035Y0185155D02*
X0114946Y0185155D01*
X0114946Y0185953D02*
X0122035Y0185953D01*
X0122035Y0186752D02*
X0114946Y0186752D01*
X0114946Y0187550D02*
X0122035Y0187550D01*
X0122035Y0188349D02*
X0114946Y0188349D01*
X0114946Y0189147D02*
X0122035Y0189147D01*
X0122035Y0189946D02*
X0114946Y0189946D01*
X0114946Y0190744D02*
X0122035Y0190744D01*
X0122035Y0191543D02*
X0114946Y0191543D01*
X0115986Y0192341D02*
X0122035Y0192341D01*
X0121518Y0193140D02*
X0116784Y0193140D01*
X0117395Y0193938D02*
X0120907Y0193938D01*
X0120576Y0194737D02*
X0117726Y0194737D01*
X0117984Y0195535D02*
X0120318Y0195535D01*
X0120318Y0196334D02*
X0117984Y0196334D01*
X0117984Y0197132D02*
X0120318Y0197132D01*
X0120602Y0197931D02*
X0117700Y0197931D01*
X0117370Y0198729D02*
X0120933Y0198729D01*
X0121581Y0199528D02*
X0116722Y0199528D01*
X0115914Y0200326D02*
X0122389Y0200326D01*
X0121835Y0202128D02*
X0123168Y0203461D01*
X0123890Y0205202D01*
X0123890Y0207088D01*
X0123168Y0208829D01*
X0121835Y0210162D01*
X0120094Y0210884D01*
X0118209Y0210884D01*
X0116467Y0210162D01*
X0115134Y0208829D01*
X0114413Y0207088D01*
X0114413Y0205202D01*
X0115134Y0203461D01*
X0116467Y0202128D01*
X0118209Y0201406D01*
X0120094Y0201406D01*
X0121835Y0202128D01*
X0121342Y0201923D02*
X0125107Y0201923D01*
X0124308Y0201125D02*
X0112035Y0201125D01*
X0112035Y0201923D02*
X0116961Y0201923D01*
X0115873Y0202722D02*
X0112035Y0202722D01*
X0112035Y0203520D02*
X0115109Y0203520D01*
X0114779Y0204319D02*
X0112035Y0204319D01*
X0112044Y0205117D02*
X0114448Y0205117D01*
X0114413Y0205916D02*
X0112079Y0205916D01*
X0112079Y0206714D02*
X0114413Y0206714D01*
X0114589Y0207513D02*
X0112035Y0207513D01*
X0112035Y0208311D02*
X0114920Y0208311D01*
X0115415Y0209110D02*
X0112035Y0209110D01*
X0112035Y0209908D02*
X0116213Y0209908D01*
X0117782Y0210707D02*
X0112035Y0210707D01*
X0112035Y0211505D02*
X0134689Y0211505D01*
X0133890Y0210707D02*
X0132331Y0210707D01*
X0129593Y0210707D02*
X0120520Y0210707D01*
X0122089Y0209908D02*
X0128024Y0209908D01*
X0127226Y0209110D02*
X0122888Y0209110D01*
X0123383Y0208311D02*
X0126731Y0208311D01*
X0126400Y0207513D02*
X0123714Y0207513D01*
X0123890Y0206714D02*
X0126224Y0206714D01*
X0126224Y0205916D02*
X0123890Y0205916D01*
X0123855Y0205117D02*
X0126259Y0205117D01*
X0126590Y0204319D02*
X0123524Y0204319D01*
X0123193Y0203520D02*
X0126704Y0203520D01*
X0125905Y0202722D02*
X0122429Y0202722D01*
X0120094Y0215186D02*
X0118209Y0215186D01*
X0116467Y0215907D01*
X0115134Y0217240D01*
X0114413Y0218982D01*
X0114413Y0220867D01*
X0115134Y0222609D01*
X0116467Y0223942D01*
X0118209Y0224663D01*
X0120094Y0224663D01*
X0121835Y0223942D01*
X0123168Y0222609D01*
X0123890Y0220867D01*
X0123890Y0218982D01*
X0123168Y0217240D01*
X0121835Y0215907D01*
X0120094Y0215186D01*
X0120847Y0215498D02*
X0129266Y0215498D01*
X0130020Y0215186D02*
X0131905Y0215186D01*
X0133646Y0215907D01*
X0134979Y0217240D01*
X0135701Y0218982D01*
X0135701Y0220867D01*
X0134979Y0222609D01*
X0133646Y0223942D01*
X0131905Y0224663D01*
X0130020Y0224663D01*
X0128278Y0223942D01*
X0126945Y0222609D01*
X0126224Y0220867D01*
X0126224Y0218982D01*
X0126945Y0217240D01*
X0128278Y0215907D01*
X0130020Y0215186D01*
X0127889Y0216296D02*
X0122225Y0216296D01*
X0123023Y0217095D02*
X0127090Y0217095D01*
X0126675Y0217894D02*
X0123439Y0217894D01*
X0123770Y0218692D02*
X0126344Y0218692D01*
X0126224Y0219491D02*
X0123890Y0219491D01*
X0123890Y0220289D02*
X0126224Y0220289D01*
X0126315Y0221088D02*
X0123799Y0221088D01*
X0123468Y0221886D02*
X0126646Y0221886D01*
X0127021Y0222685D02*
X0123093Y0222685D01*
X0122294Y0223483D02*
X0127820Y0223483D01*
X0129099Y0224282D02*
X0121015Y0224282D01*
X0122373Y0225750D02*
X0121040Y0227083D01*
X0120318Y0228824D01*
X0120318Y0230710D01*
X0121040Y0232451D01*
X0122373Y0233784D01*
X0124114Y0234506D01*
X0125999Y0234506D01*
X0127741Y0233784D01*
X0129074Y0232451D01*
X0129795Y0230710D01*
X0129795Y0228824D01*
X0129074Y0227083D01*
X0127741Y0225750D01*
X0125999Y0225028D01*
X0124114Y0225028D01*
X0122373Y0225750D01*
X0122244Y0225879D02*
X0116059Y0225879D01*
X0115930Y0225750D02*
X0117263Y0227083D01*
X0117984Y0228824D01*
X0117984Y0230710D01*
X0117263Y0232451D01*
X0115930Y0233784D01*
X0114188Y0234506D01*
X0112303Y0234506D01*
X0110562Y0233784D01*
X0109229Y0232451D01*
X0108507Y0230710D01*
X0108507Y0228824D01*
X0109229Y0227083D01*
X0110562Y0225750D01*
X0112303Y0225028D01*
X0114188Y0225028D01*
X0115930Y0225750D01*
X0116857Y0226677D02*
X0121445Y0226677D01*
X0120877Y0227476D02*
X0117426Y0227476D01*
X0117756Y0228274D02*
X0120546Y0228274D01*
X0120318Y0229073D02*
X0117984Y0229073D01*
X0117984Y0229871D02*
X0120318Y0229871D01*
X0120318Y0230670D02*
X0117984Y0230670D01*
X0117670Y0231468D02*
X0120632Y0231468D01*
X0120963Y0232267D02*
X0117339Y0232267D01*
X0116649Y0233065D02*
X0121654Y0233065D01*
X0122565Y0233864D02*
X0115738Y0233864D01*
X0110754Y0233864D02*
X0103927Y0233864D01*
X0104838Y0233065D02*
X0109843Y0233065D01*
X0109152Y0232267D02*
X0105528Y0232267D01*
X0105859Y0231468D02*
X0108821Y0231468D01*
X0108507Y0230670D02*
X0106173Y0230670D01*
X0106173Y0229871D02*
X0108507Y0229871D01*
X0108507Y0229073D02*
X0106173Y0229073D01*
X0105945Y0228274D02*
X0108735Y0228274D01*
X0109066Y0227476D02*
X0105615Y0227476D01*
X0105046Y0226677D02*
X0109634Y0226677D01*
X0110433Y0225879D02*
X0104248Y0225879D01*
X0107057Y0225080D02*
X0112178Y0225080D01*
X0114313Y0225080D02*
X0123989Y0225080D01*
X0126124Y0225080D02*
X0147612Y0225080D01*
X0147736Y0225028D02*
X0149621Y0225028D01*
X0151363Y0225750D01*
X0152696Y0227083D01*
X0153417Y0228824D01*
X0153417Y0230710D01*
X0152696Y0232451D01*
X0151363Y0233784D01*
X0149621Y0234506D01*
X0147736Y0234506D01*
X0145995Y0233784D01*
X0144662Y0232451D01*
X0143940Y0230710D01*
X0143940Y0228824D01*
X0144662Y0227083D01*
X0145995Y0225750D01*
X0147736Y0225028D01*
X0149746Y0225080D02*
X0159423Y0225080D01*
X0159547Y0225028D02*
X0161432Y0225028D01*
X0163174Y0225750D01*
X0164507Y0227083D01*
X0165228Y0228824D01*
X0165228Y0230710D01*
X0164507Y0232451D01*
X0163174Y0233784D01*
X0161432Y0234506D01*
X0159547Y0234506D01*
X0157806Y0233784D01*
X0156473Y0232451D01*
X0155751Y0230710D01*
X0155751Y0228824D01*
X0156473Y0227083D01*
X0157806Y0225750D01*
X0159547Y0225028D01*
X0161557Y0225080D02*
X0168264Y0225080D01*
X0169488Y0225879D02*
X0163303Y0225879D01*
X0164101Y0226677D02*
X0168689Y0226677D01*
X0168121Y0227476D02*
X0164670Y0227476D01*
X0165000Y0228274D02*
X0167790Y0228274D01*
X0167562Y0229073D02*
X0165228Y0229073D01*
X0165228Y0229871D02*
X0167562Y0229871D01*
X0167562Y0230670D02*
X0165228Y0230670D01*
X0164914Y0231468D02*
X0167877Y0231468D01*
X0168207Y0232267D02*
X0164583Y0232267D01*
X0163893Y0233065D02*
X0168898Y0233065D01*
X0169809Y0233864D02*
X0162982Y0233864D01*
X0157998Y0233864D02*
X0151171Y0233864D01*
X0152082Y0233065D02*
X0157087Y0233065D01*
X0156396Y0232267D02*
X0152772Y0232267D01*
X0153103Y0231468D02*
X0156066Y0231468D01*
X0155751Y0230670D02*
X0153417Y0230670D01*
X0153417Y0229871D02*
X0155751Y0229871D01*
X0155751Y0229073D02*
X0153417Y0229073D01*
X0153189Y0228274D02*
X0155979Y0228274D01*
X0156310Y0227476D02*
X0152859Y0227476D01*
X0152290Y0226677D02*
X0156878Y0226677D01*
X0157677Y0225879D02*
X0151492Y0225879D01*
X0152721Y0224282D02*
X0144637Y0224282D01*
X0145916Y0223483D02*
X0151442Y0223483D01*
X0150643Y0222685D02*
X0146715Y0222685D01*
X0145866Y0225879D02*
X0127870Y0225879D01*
X0128668Y0226677D02*
X0145067Y0226677D01*
X0144499Y0227476D02*
X0129237Y0227476D01*
X0129567Y0228274D02*
X0144168Y0228274D01*
X0143940Y0229073D02*
X0129795Y0229073D01*
X0129795Y0229871D02*
X0143940Y0229871D01*
X0143940Y0230670D02*
X0129795Y0230670D01*
X0129481Y0231468D02*
X0144254Y0231468D01*
X0144585Y0232267D02*
X0129150Y0232267D01*
X0128460Y0233065D02*
X0145276Y0233065D01*
X0146187Y0233864D02*
X0127549Y0233864D01*
X0132826Y0224282D02*
X0140910Y0224282D01*
X0139631Y0223483D02*
X0134105Y0223483D01*
X0134904Y0222685D02*
X0138832Y0222685D01*
X0138457Y0221886D02*
X0135279Y0221886D01*
X0135610Y0221088D02*
X0138126Y0221088D01*
X0138035Y0220289D02*
X0135701Y0220289D01*
X0135701Y0219491D02*
X0138035Y0219491D01*
X0138155Y0218692D02*
X0135581Y0218692D01*
X0135250Y0217894D02*
X0138486Y0217894D01*
X0138901Y0217095D02*
X0134834Y0217095D01*
X0134036Y0216296D02*
X0139480Y0216296D01*
X0138681Y0215498D02*
X0132658Y0215498D01*
X0135487Y0212304D02*
X0112035Y0212304D01*
X0112035Y0213102D02*
X0136286Y0213102D01*
X0137084Y0213901D02*
X0112035Y0213901D01*
X0112035Y0214699D02*
X0137883Y0214699D01*
X0117455Y0215498D02*
X0112035Y0215498D01*
X0112035Y0216296D02*
X0116078Y0216296D01*
X0115279Y0217095D02*
X0112035Y0217095D01*
X0112035Y0217894D02*
X0114864Y0217894D01*
X0114533Y0218692D02*
X0112035Y0218692D01*
X0112079Y0219491D02*
X0114413Y0219491D01*
X0114413Y0220289D02*
X0112079Y0220289D01*
X0111987Y0221088D02*
X0114504Y0221088D01*
X0114835Y0221886D02*
X0111657Y0221886D01*
X0111282Y0222685D02*
X0115210Y0222685D01*
X0116008Y0223483D02*
X0110483Y0223483D01*
X0109204Y0224282D02*
X0117288Y0224282D01*
X0099934Y0234662D02*
X0173802Y0234662D01*
X0174601Y0235461D02*
X0099135Y0235461D01*
X0098337Y0236259D02*
X0175399Y0236259D01*
X0176198Y0237058D02*
X0097538Y0237058D01*
X0096740Y0237856D02*
X0176996Y0237856D01*
X0177795Y0238655D02*
X0095941Y0238655D01*
X0083444Y0238655D02*
X0049935Y0238655D01*
X0049935Y0239453D02*
X0223800Y0239453D01*
X0223800Y0238655D02*
X0190001Y0238655D01*
X0190800Y0237856D02*
X0223800Y0237856D01*
X0223800Y0237058D02*
X0191598Y0237058D01*
X0192397Y0236259D02*
X0223800Y0236259D01*
X0223800Y0235461D02*
X0193195Y0235461D01*
X0193994Y0234662D02*
X0223800Y0234662D01*
X0223800Y0233864D02*
X0210171Y0233864D01*
X0210676Y0233065D02*
X0223800Y0233065D01*
X0223800Y0232267D02*
X0210676Y0232267D01*
X0210676Y0231468D02*
X0223800Y0231468D01*
X0223800Y0230670D02*
X0210676Y0230670D01*
X0210676Y0229871D02*
X0223800Y0229871D01*
X0223800Y0229073D02*
X0210676Y0229073D01*
X0210676Y0228274D02*
X0223800Y0228274D01*
X0223800Y0227476D02*
X0210676Y0227476D01*
X0210676Y0226677D02*
X0223800Y0226677D01*
X0223800Y0225879D02*
X0210676Y0225879D01*
X0217660Y0221352D02*
X0220219Y0221352D01*
X0222035Y0219536D01*
X0222035Y0214418D02*
X0221479Y0213862D01*
X0216366Y0213862D01*
X0222035Y0214418D02*
X0222035Y0210161D01*
X0213910Y0191352D02*
X0207660Y0191352D01*
X0207660Y0180102D01*
X0213910Y0180102D01*
X0213910Y0191352D01*
X0213910Y0190744D02*
X0207660Y0190744D01*
X0207660Y0189946D02*
X0213910Y0189946D01*
X0213910Y0189147D02*
X0207660Y0189147D01*
X0207660Y0188349D02*
X0213910Y0188349D01*
X0213910Y0187550D02*
X0207660Y0187550D01*
X0207660Y0186752D02*
X0213910Y0186752D01*
X0213910Y0185953D02*
X0207660Y0185953D01*
X0207660Y0185155D02*
X0213910Y0185155D01*
X0213910Y0184356D02*
X0207660Y0184356D01*
X0207660Y0183558D02*
X0213910Y0183558D01*
X0213910Y0182759D02*
X0207660Y0182759D01*
X0207660Y0181960D02*
X0213910Y0181960D01*
X0213910Y0181162D02*
X0207660Y0181162D01*
X0207660Y0180363D02*
X0213910Y0180363D01*
X0217085Y0152602D02*
X0189485Y0152602D01*
X0189485Y0150096D01*
X0192339Y0150096D01*
X0192866Y0149569D01*
X0192866Y0143148D01*
X0193085Y0142929D01*
X0193085Y0141024D01*
X0192866Y0140805D01*
X0192866Y0140162D01*
X0192339Y0139635D01*
X0192085Y0139635D01*
X0192085Y0138689D01*
X0192930Y0138689D01*
X0193457Y0138161D01*
X0193457Y0134660D01*
X0192930Y0134133D01*
X0188641Y0134133D01*
X0188598Y0134176D01*
X0188555Y0134133D01*
X0188285Y0134133D01*
X0188285Y0133571D01*
X0188555Y0133571D01*
X0189082Y0133043D01*
X0189082Y0129542D01*
X0188740Y0129200D01*
X0197408Y0129200D01*
X0197935Y0128673D01*
X0197935Y0127602D01*
X0198694Y0127602D01*
X0198694Y0128673D01*
X0198983Y0128962D01*
X0198983Y0129446D01*
X0198919Y0129884D01*
X0198983Y0129971D01*
X0198983Y0130079D01*
X0199297Y0130393D01*
X0199816Y0131091D01*
X0199816Y0133680D01*
X0199093Y0133680D01*
X0198566Y0134207D01*
X0198566Y0138496D01*
X0199093Y0139023D01*
X0199485Y0139023D01*
X0199485Y0139635D01*
X0199231Y0139635D01*
X0198704Y0140162D01*
X0198704Y0149569D01*
X0199231Y0150096D01*
X0202339Y0150096D01*
X0202866Y0149569D01*
X0202866Y0140162D01*
X0202339Y0139635D01*
X0202085Y0139635D01*
X0202085Y0139023D01*
X0202235Y0139023D01*
X0202235Y0139179D01*
X0203582Y0140527D01*
X0203704Y0140527D01*
X0203704Y0149569D01*
X0204231Y0150096D01*
X0207339Y0150096D01*
X0207866Y0149569D01*
X0207866Y0140162D01*
X0207339Y0139635D01*
X0206380Y0139635D01*
X0206835Y0139179D01*
X0206835Y0137765D01*
X0207489Y0137112D01*
X0207489Y0130578D01*
X0208448Y0131537D01*
X0208448Y0134121D01*
X0208975Y0134648D01*
X0209485Y0134648D01*
X0209485Y0139635D01*
X0209231Y0139635D01*
X0208704Y0140162D01*
X0208704Y0149569D01*
X0209231Y0150096D01*
X0212339Y0150096D01*
X0212866Y0149569D01*
X0212866Y0140162D01*
X0212339Y0139635D01*
X0212085Y0139635D01*
X0212085Y0134648D01*
X0212477Y0134648D01*
X0213004Y0134121D01*
X0213004Y0129832D01*
X0212477Y0129305D01*
X0209893Y0129305D01*
X0209504Y0128916D01*
X0209746Y0128673D01*
X0209746Y0127602D01*
X0216588Y0127602D01*
X0217085Y0128099D01*
X0217085Y0152602D01*
X0217085Y0152416D02*
X0189485Y0152416D01*
X0189485Y0151617D02*
X0217085Y0151617D01*
X0217085Y0150819D02*
X0189485Y0150819D01*
X0192415Y0150020D02*
X0199155Y0150020D01*
X0198704Y0149222D02*
X0192866Y0149222D01*
X0192866Y0148423D02*
X0198704Y0148423D01*
X0198704Y0147625D02*
X0192866Y0147625D01*
X0192866Y0146826D02*
X0198704Y0146826D01*
X0198704Y0146027D02*
X0192866Y0146027D01*
X0192866Y0145229D02*
X0198704Y0145229D01*
X0198704Y0144430D02*
X0192866Y0144430D01*
X0192866Y0143632D02*
X0198704Y0143632D01*
X0198704Y0142833D02*
X0193085Y0142833D01*
X0193085Y0142035D02*
X0198704Y0142035D01*
X0198704Y0141236D02*
X0193085Y0141236D01*
X0192866Y0140438D02*
X0198704Y0140438D01*
X0199227Y0139639D02*
X0192344Y0139639D01*
X0192085Y0138841D02*
X0198911Y0138841D01*
X0198566Y0138042D02*
X0193457Y0138042D01*
X0193457Y0137244D02*
X0198566Y0137244D01*
X0198566Y0136445D02*
X0193457Y0136445D01*
X0193457Y0135647D02*
X0198566Y0135647D01*
X0198566Y0134848D02*
X0193457Y0134848D01*
X0190785Y0136411D02*
X0190785Y0141977D01*
X0190785Y0144865D01*
X0200785Y0144865D02*
X0200785Y0136411D01*
X0200844Y0136352D01*
X0202660Y0136352D01*
X0204535Y0134477D01*
X0204535Y0129477D01*
X0204220Y0129162D01*
X0204220Y0125348D01*
X0206189Y0125348D02*
X0206189Y0136573D01*
X0204535Y0138227D01*
X0206835Y0138042D02*
X0209485Y0138042D01*
X0209485Y0137244D02*
X0207356Y0137244D01*
X0207489Y0136445D02*
X0209485Y0136445D01*
X0209485Y0135647D02*
X0207489Y0135647D01*
X0207489Y0134848D02*
X0209485Y0134848D01*
X0208448Y0134050D02*
X0207489Y0134050D01*
X0207489Y0133251D02*
X0208448Y0133251D01*
X0208448Y0132453D02*
X0207489Y0132453D01*
X0207489Y0131654D02*
X0208448Y0131654D01*
X0207767Y0130856D02*
X0207489Y0130856D01*
X0208157Y0129408D02*
X0210726Y0131977D01*
X0210785Y0132036D01*
X0210785Y0144865D01*
X0208704Y0145229D02*
X0207866Y0145229D01*
X0207866Y0146027D02*
X0208704Y0146027D01*
X0208704Y0146826D02*
X0207866Y0146826D01*
X0207866Y0147625D02*
X0208704Y0147625D01*
X0208704Y0148423D02*
X0207866Y0148423D01*
X0207866Y0149222D02*
X0208704Y0149222D01*
X0209155Y0150020D02*
X0207415Y0150020D01*
X0204155Y0150020D02*
X0202415Y0150020D01*
X0202866Y0149222D02*
X0203704Y0149222D01*
X0203704Y0148423D02*
X0202866Y0148423D01*
X0202866Y0147625D02*
X0203704Y0147625D01*
X0203704Y0146826D02*
X0202866Y0146826D01*
X0202866Y0146027D02*
X0203704Y0146027D01*
X0203704Y0145229D02*
X0202866Y0145229D01*
X0202866Y0144430D02*
X0203704Y0144430D01*
X0203704Y0143632D02*
X0202866Y0143632D01*
X0202866Y0142833D02*
X0203704Y0142833D01*
X0203704Y0142035D02*
X0202866Y0142035D01*
X0202866Y0141236D02*
X0203704Y0141236D01*
X0203494Y0140438D02*
X0202866Y0140438D01*
X0202695Y0139639D02*
X0202344Y0139639D01*
X0206835Y0138841D02*
X0209485Y0138841D01*
X0209227Y0139639D02*
X0207344Y0139639D01*
X0207866Y0140438D02*
X0208704Y0140438D01*
X0208704Y0141236D02*
X0207866Y0141236D01*
X0207866Y0142035D02*
X0208704Y0142035D01*
X0208704Y0142833D02*
X0207866Y0142833D01*
X0207866Y0143632D02*
X0208704Y0143632D01*
X0208704Y0144430D02*
X0207866Y0144430D01*
X0212866Y0144430D02*
X0217085Y0144430D01*
X0217085Y0143632D02*
X0212866Y0143632D01*
X0212866Y0142833D02*
X0217085Y0142833D01*
X0217085Y0142035D02*
X0212866Y0142035D01*
X0212866Y0141236D02*
X0217085Y0141236D01*
X0217085Y0140438D02*
X0212866Y0140438D01*
X0212344Y0139639D02*
X0217085Y0139639D01*
X0217085Y0138841D02*
X0212085Y0138841D01*
X0212085Y0138042D02*
X0217085Y0138042D01*
X0217085Y0137244D02*
X0212085Y0137244D01*
X0212085Y0136445D02*
X0217085Y0136445D01*
X0217085Y0135647D02*
X0212085Y0135647D01*
X0212085Y0134848D02*
X0217085Y0134848D01*
X0217085Y0134050D02*
X0213004Y0134050D01*
X0213004Y0133251D02*
X0217085Y0133251D01*
X0217085Y0132453D02*
X0213004Y0132453D01*
X0213004Y0131654D02*
X0217085Y0131654D01*
X0217085Y0130856D02*
X0213004Y0130856D01*
X0213004Y0130057D02*
X0217085Y0130057D01*
X0217085Y0129259D02*
X0209847Y0129259D01*
X0209746Y0128460D02*
X0217085Y0128460D01*
X0216648Y0127662D02*
X0209746Y0127662D01*
X0208157Y0129408D02*
X0208157Y0125348D01*
X0200283Y0125348D02*
X0200283Y0120225D01*
X0200160Y0120102D01*
X0200283Y0125348D02*
X0200283Y0129541D01*
X0202094Y0131977D01*
X0199816Y0131654D02*
X0189082Y0131654D01*
X0189082Y0130856D02*
X0199641Y0130856D01*
X0198983Y0130057D02*
X0189082Y0130057D01*
X0188799Y0129259D02*
X0198983Y0129259D01*
X0198694Y0128460D02*
X0197935Y0128460D01*
X0197935Y0127662D02*
X0198694Y0127662D01*
X0198315Y0125348D02*
X0198315Y0130013D01*
X0196976Y0131977D01*
X0198724Y0134050D02*
X0188285Y0134050D01*
X0188874Y0133251D02*
X0199816Y0133251D01*
X0199816Y0132453D02*
X0189082Y0132453D01*
X0182660Y0134477D02*
X0182035Y0133852D01*
X0178935Y0133852D01*
X0172636Y0133852D02*
X0168310Y0133852D01*
X0165785Y0133852D01*
X0165160Y0134477D01*
X0165160Y0138227D01*
X0162011Y0136411D02*
X0162011Y0140810D01*
X0161469Y0140727D01*
X0160101Y0145102D02*
X0157035Y0145102D01*
X0156351Y0140727D02*
X0153910Y0140727D01*
X0156410Y0133911D02*
X0157094Y0133852D01*
X0162011Y0133852D01*
X0162882Y0125348D02*
X0162882Y0119698D01*
X0162660Y0119477D01*
X0170756Y0125348D02*
X0170785Y0125318D01*
X0170785Y0138852D02*
X0170785Y0141918D01*
X0170785Y0143852D01*
X0171410Y0144477D01*
X0178910Y0144477D01*
X0179535Y0145102D01*
X0179535Y0147036D01*
X0168598Y0158852D02*
X0171098Y0161352D01*
X0173598Y0163852D02*
X0173066Y0164383D01*
X0173066Y0170407D01*
X0174594Y0177543D02*
X0173910Y0178227D01*
X0173910Y0180102D01*
X0172660Y0181352D01*
X0171410Y0181352D01*
X0170160Y0182602D01*
X0170160Y0184009D01*
X0174594Y0177543D02*
X0177035Y0177543D01*
X0158910Y0182823D02*
X0158910Y0186977D01*
X0145067Y0162710D02*
X0145067Y0159383D01*
X0143910Y0158227D01*
X0143098Y0159039D01*
X0143098Y0162710D01*
X0131585Y0165192D02*
X0126404Y0165192D01*
X0125606Y0164393D02*
X0130417Y0164393D01*
X0130417Y0163595D02*
X0124807Y0163595D01*
X0124009Y0162796D02*
X0130417Y0162796D01*
X0130417Y0161998D02*
X0123654Y0161998D01*
X0123654Y0161199D02*
X0130417Y0161199D01*
X0130417Y0160401D02*
X0123654Y0160401D01*
X0123654Y0159602D02*
X0130417Y0159602D01*
X0130417Y0158804D02*
X0123654Y0158804D01*
X0123480Y0158005D02*
X0130590Y0158005D01*
X0126676Y0155610D02*
X0119913Y0155610D01*
X0119913Y0154811D02*
X0126676Y0154811D01*
X0126676Y0154013D02*
X0119913Y0154013D01*
X0119913Y0153214D02*
X0126676Y0153214D01*
X0126676Y0152416D02*
X0119913Y0152416D01*
X0119913Y0151617D02*
X0126676Y0151617D01*
X0126676Y0150819D02*
X0119913Y0150819D01*
X0119913Y0150020D02*
X0126676Y0150020D01*
X0126972Y0149222D02*
X0120404Y0149222D01*
X0120504Y0148423D02*
X0128448Y0148423D01*
X0128448Y0147625D02*
X0120504Y0147625D01*
X0120504Y0146826D02*
X0128448Y0146826D01*
X0130726Y0146977D02*
X0130726Y0150840D01*
X0129545Y0152646D01*
X0130726Y0146977D02*
X0130726Y0142602D01*
X0118226Y0142602D02*
X0118226Y0146977D01*
X0118226Y0150840D01*
X0117045Y0152646D01*
X0114472Y0149222D02*
X0113647Y0149222D01*
X0113747Y0148423D02*
X0115948Y0148423D01*
X0115948Y0147625D02*
X0113747Y0147625D01*
X0113747Y0146826D02*
X0115948Y0146826D01*
X0111469Y0146977D02*
X0111469Y0142602D01*
X0109941Y0150819D02*
X0108710Y0150819D01*
X0108710Y0151617D02*
X0109142Y0151617D01*
X0109110Y0152416D02*
X0107974Y0152416D01*
X0107983Y0154811D02*
X0108587Y0154811D01*
X0108566Y0155610D02*
X0108004Y0155610D01*
X0108004Y0156408D02*
X0108566Y0156408D01*
X0108566Y0157207D02*
X0108004Y0157207D01*
X0108004Y0158005D02*
X0108566Y0158005D01*
X0108566Y0158804D02*
X0108004Y0158804D01*
X0108004Y0159602D02*
X0109047Y0159602D01*
X0110844Y0156977D02*
X0111410Y0156411D01*
X0111410Y0152602D01*
X0105726Y0156977D02*
X0105726Y0161352D01*
X0105726Y0165840D01*
X0104545Y0167021D01*
X0107413Y0166789D02*
X0114846Y0166789D01*
X0114846Y0167587D02*
X0107413Y0167587D01*
X0107413Y0168386D02*
X0114846Y0168386D01*
X0114846Y0169184D02*
X0107413Y0169184D01*
X0110978Y0172378D02*
X0114846Y0172378D01*
X0114846Y0171580D02*
X0094913Y0171580D01*
X0093226Y0173340D02*
X0092045Y0174521D01*
X0093226Y0173340D02*
X0093226Y0168852D01*
X0098165Y0179565D02*
X0109094Y0179565D01*
X0108660Y0180363D02*
X0107910Y0180363D01*
X0108004Y0181162D02*
X0108566Y0181162D01*
X0108566Y0181960D02*
X0108004Y0181960D01*
X0108004Y0182759D02*
X0108566Y0182759D01*
X0108566Y0183558D02*
X0108004Y0183558D01*
X0108004Y0184356D02*
X0108566Y0184356D01*
X0103857Y0185155D02*
X0098654Y0185155D01*
X0098654Y0184356D02*
X0103448Y0184356D01*
X0103448Y0183558D02*
X0098654Y0183558D01*
X0098654Y0182759D02*
X0103448Y0182759D01*
X0103448Y0181960D02*
X0098654Y0181960D01*
X0098654Y0181162D02*
X0103448Y0181162D01*
X0103542Y0180363D02*
X0098654Y0180363D01*
X0111154Y0176371D02*
X0114846Y0176371D01*
X0114846Y0177169D02*
X0111507Y0177169D01*
X0112306Y0177968D02*
X0114846Y0177968D01*
X0114846Y0178766D02*
X0112544Y0178766D01*
X0112544Y0179565D02*
X0114846Y0179565D01*
X0114846Y0180363D02*
X0113028Y0180363D01*
X0113122Y0181162D02*
X0114846Y0181162D01*
X0115185Y0175572D02*
X0111154Y0175572D01*
X0111154Y0174774D02*
X0114846Y0174774D01*
X0114846Y0173975D02*
X0111154Y0173975D01*
X0111154Y0173177D02*
X0114846Y0173177D01*
X0127485Y0173177D02*
X0129019Y0173177D01*
X0129019Y0173975D02*
X0127485Y0173975D01*
X0127485Y0174774D02*
X0129019Y0174774D01*
X0129358Y0175572D02*
X0127485Y0175572D01*
X0127485Y0176371D02*
X0129019Y0176371D01*
X0129019Y0177169D02*
X0127485Y0177169D01*
X0127931Y0177968D02*
X0129019Y0177968D01*
X0129019Y0178766D02*
X0128729Y0178766D01*
X0129019Y0172378D02*
X0127485Y0172378D01*
X0127485Y0171580D02*
X0129019Y0171580D01*
X0129019Y0170781D02*
X0127485Y0170781D01*
X0127485Y0169983D02*
X0129019Y0169983D01*
X0129019Y0169184D02*
X0127485Y0169184D01*
X0127485Y0168386D02*
X0129019Y0168386D01*
X0129019Y0167587D02*
X0127485Y0167587D01*
X0127485Y0166789D02*
X0129019Y0166789D01*
X0129249Y0165990D02*
X0127203Y0165990D01*
X0101075Y0137326D02*
X0096435Y0137326D01*
X0077936Y0137326D01*
X0070785Y0144477D01*
X0067660Y0144477D01*
X0066007Y0146130D01*
X0060382Y0146130D01*
X0059535Y0146977D01*
X0057719Y0141352D02*
X0058595Y0140476D01*
X0062635Y0140476D01*
X0062886Y0140727D01*
X0067660Y0140727D01*
X0070160Y0137602D02*
X0066710Y0134176D01*
X0062635Y0134176D01*
X0062635Y0131027D02*
X0059269Y0131027D01*
X0057719Y0129477D01*
X0058093Y0124728D02*
X0057719Y0124477D01*
X0058093Y0124728D02*
X0062635Y0124728D01*
X0062911Y0124728D01*
X0062911Y0127602D02*
X0062635Y0127877D01*
X0062911Y0127602D02*
X0071410Y0127602D01*
X0073910Y0130102D01*
X0076410Y0131352D02*
X0078910Y0128852D01*
X0078910Y0121352D01*
X0077660Y0120102D01*
X0067035Y0120102D01*
X0062660Y0115727D01*
X0059757Y0115727D01*
X0058910Y0119477D02*
X0056814Y0119477D01*
X0053064Y0115727D01*
X0058910Y0119477D02*
X0061012Y0121578D01*
X0062635Y0121578D01*
X0062635Y0137326D02*
X0058069Y0137326D01*
X0057719Y0136977D01*
X0077960Y0145426D02*
X0078910Y0144477D01*
X0081110Y0146676D01*
X0081110Y0149502D01*
X0077960Y0149502D02*
X0077960Y0145426D01*
X0083285Y0140102D02*
X0096061Y0140102D01*
X0096435Y0140476D01*
X0106410Y0133852D02*
X0109476Y0133852D01*
X0112094Y0125102D02*
X0112094Y0125043D01*
X0112660Y0124477D01*
X0115160Y0124477D01*
X0096760Y0121578D02*
X0096435Y0121578D01*
X0113285Y0091411D02*
X0116351Y0091411D01*
X0117035Y0091977D01*
X0118971Y0085341D02*
X0119385Y0085341D01*
X0119385Y0084542D02*
X0118173Y0084542D01*
X0125047Y0081348D02*
X0131523Y0081348D01*
X0130725Y0082147D02*
X0125845Y0082147D01*
X0126644Y0082945D02*
X0129926Y0082945D01*
X0129385Y0083744D02*
X0127185Y0083744D01*
X0127185Y0084542D02*
X0129385Y0084542D01*
X0129385Y0085341D02*
X0127185Y0085341D01*
X0127185Y0086139D02*
X0129385Y0086139D01*
X0129606Y0086938D02*
X0126965Y0086938D01*
X0126166Y0087736D02*
X0130404Y0087736D01*
X0135047Y0081348D02*
X0135785Y0081348D01*
X0135785Y0074161D02*
X0115582Y0074161D01*
X0115957Y0073363D02*
X0135785Y0073363D01*
X0135785Y0072564D02*
X0115957Y0072564D01*
X0115957Y0071766D02*
X0135785Y0071766D01*
X0135785Y0070967D02*
X0115957Y0070967D01*
X0110785Y0060587D02*
X0125160Y0060587D01*
X0125160Y0059788D02*
X0110785Y0059788D01*
X0110785Y0058990D02*
X0125160Y0058990D01*
X0125160Y0058191D02*
X0110785Y0058191D01*
X0110785Y0057393D02*
X0125160Y0057393D01*
X0125160Y0056594D02*
X0110785Y0056594D01*
X0110785Y0055796D02*
X0125160Y0055796D01*
X0125160Y0054997D02*
X0110785Y0054997D01*
X0099095Y0074161D02*
X0096350Y0074161D01*
X0096112Y0074960D02*
X0099095Y0074960D01*
X0089269Y0085367D02*
X0088910Y0085102D01*
X0089269Y0085367D02*
X0089269Y0088975D01*
X0066976Y0090727D02*
X0063910Y0090727D01*
X0063910Y0095727D02*
X0066976Y0095727D01*
X0059594Y0093852D02*
X0059525Y0093158D01*
X0059525Y0085112D02*
X0059525Y0084432D01*
X0052045Y0084432D02*
X0052045Y0085092D01*
X0052035Y0088852D01*
X0052035Y0164477D02*
X0050785Y0165727D01*
X0050785Y0177543D01*
X0057035Y0183793D01*
X0059707Y0183558D02*
X0067917Y0183558D01*
X0067917Y0184356D02*
X0059707Y0184356D01*
X0059707Y0185155D02*
X0067917Y0185155D01*
X0067917Y0182759D02*
X0059707Y0182759D01*
X0059625Y0181960D02*
X0067917Y0181960D01*
X0067917Y0181162D02*
X0061154Y0181162D01*
X0061154Y0180363D02*
X0067917Y0180363D01*
X0068405Y0179565D02*
X0061154Y0179565D01*
X0055944Y0174526D02*
X0055785Y0174685D01*
X0055785Y0173177D01*
X0055160Y0164477D02*
X0052035Y0164477D01*
X0052660Y0187602D02*
X0052660Y0191293D01*
X0051410Y0191293D01*
X0051410Y0196411D02*
X0053851Y0198852D01*
X0060160Y0198852D01*
X0060785Y0199477D01*
X0060785Y0203182D01*
X0057045Y0194521D02*
X0057045Y0188921D01*
X0057035Y0188911D01*
X0062035Y0188911D01*
X0063394Y0225879D02*
X0049935Y0225879D01*
X0049935Y0226677D02*
X0063394Y0226677D01*
X0063394Y0227476D02*
X0049935Y0227476D01*
X0049935Y0228274D02*
X0063394Y0228274D01*
X0063394Y0229073D02*
X0049935Y0229073D01*
X0049935Y0229871D02*
X0063394Y0229871D01*
X0063394Y0230670D02*
X0049935Y0230670D01*
X0049935Y0231468D02*
X0063394Y0231468D01*
X0063394Y0232267D02*
X0049935Y0232267D01*
X0049935Y0233065D02*
X0063394Y0233065D01*
X0063899Y0233864D02*
X0049935Y0233864D01*
X0049935Y0234662D02*
X0079452Y0234662D01*
X0080250Y0235461D02*
X0049935Y0235461D01*
X0049935Y0236259D02*
X0081049Y0236259D01*
X0081847Y0237058D02*
X0049935Y0237058D01*
X0049935Y0237856D02*
X0082646Y0237856D01*
X0078653Y0233864D02*
X0070594Y0233864D01*
X0071099Y0233065D02*
X0077855Y0233065D01*
X0077056Y0232267D02*
X0071099Y0232267D01*
X0071099Y0231468D02*
X0076258Y0231468D01*
X0065925Y0249035D02*
X0207811Y0249035D01*
X0207012Y0249834D02*
X0066723Y0249834D01*
X0064523Y0248237D02*
X0209213Y0248237D01*
X0216098Y0248237D02*
X0223800Y0248237D01*
X0223800Y0249035D02*
X0217500Y0249035D01*
X0218298Y0249834D02*
X0223800Y0249834D01*
X0223800Y0247438D02*
X0049935Y0247438D01*
X0049935Y0246640D02*
X0223800Y0246640D01*
X0223800Y0245841D02*
X0049935Y0245841D01*
X0049935Y0245043D02*
X0223800Y0245043D01*
X0223800Y0244244D02*
X0049935Y0244244D01*
X0049935Y0243446D02*
X0223800Y0243446D01*
X0223800Y0242647D02*
X0049935Y0242647D01*
X0049935Y0241849D02*
X0223800Y0241849D01*
X0223800Y0241050D02*
X0049935Y0241050D01*
X0049935Y0240252D02*
X0223800Y0240252D01*
X0203476Y0233864D02*
X0194792Y0233864D01*
X0195591Y0233065D02*
X0202971Y0233065D01*
X0202971Y0232267D02*
X0196389Y0232267D01*
X0197188Y0231468D02*
X0202971Y0231468D01*
X0164532Y0224282D02*
X0156448Y0224282D01*
X0157727Y0223483D02*
X0163253Y0223483D01*
X0162454Y0222685D02*
X0158526Y0222685D01*
X0212415Y0150020D02*
X0217085Y0150020D01*
X0217085Y0149222D02*
X0212866Y0149222D01*
X0212866Y0148423D02*
X0217085Y0148423D01*
X0217085Y0147625D02*
X0212866Y0147625D01*
X0212866Y0146826D02*
X0217085Y0146826D01*
X0217085Y0146027D02*
X0212866Y0146027D01*
X0212866Y0145229D02*
X0217085Y0145229D01*
X0220785Y0144865D02*
X0220785Y0136411D01*
X0220844Y0136352D01*
X0220844Y0126411D01*
X0216031Y0121598D01*
X0216031Y0117474D01*
X0171410Y0068227D02*
X0170756Y0067572D01*
X0170756Y0062356D01*
X0170756Y0058256D01*
X0168851Y0056352D01*
X0172724Y0057597D02*
X0173969Y0056352D01*
X0177035Y0056352D01*
X0172724Y0057597D02*
X0172724Y0062356D01*
X0172660Y0062420D01*
X0182660Y0056352D02*
X0186351Y0056352D01*
X0191469Y0056352D02*
X0195332Y0056352D01*
X0201238Y0056352D02*
X0205160Y0056352D01*
X0208910Y0056352D02*
X0210785Y0058227D01*
X0210785Y0059304D01*
X0213285Y0061804D01*
X0217660Y0060786D02*
X0222035Y0055668D01*
X0217660Y0055668D02*
X0217429Y0055899D01*
X0213285Y0055899D01*
X0217660Y0060786D02*
X0217660Y0063852D01*
X0155785Y0057602D02*
X0152660Y0057602D01*
X0152035Y0056918D01*
X0139535Y0058674D02*
X0139314Y0058896D01*
X0139535Y0058852D02*
X0139535Y0058674D01*
X0057638Y0248237D02*
X0049935Y0248237D01*
X0049935Y0249035D02*
X0056236Y0249035D01*
X0055437Y0249834D02*
X0049935Y0249834D01*
D47*
X0107660Y0186977D02*
X0105726Y0185043D01*
X0105726Y0182602D01*
X0085160Y0159477D02*
X0081469Y0159477D01*
X0076351Y0159477D02*
X0075785Y0159536D01*
X0075785Y0154477D01*
X0074811Y0153502D01*
X0074811Y0149502D01*
X0110219Y0111977D02*
X0113910Y0111977D01*
X0146469Y0130727D02*
X0149535Y0130727D01*
X0156410Y0128793D02*
X0156410Y0125727D01*
X0156410Y0128793D02*
X0157094Y0129477D01*
X0160785Y0129477D01*
X0160913Y0129349D01*
X0160913Y0125348D01*
X0164850Y0125348D02*
X0164850Y0128537D01*
X0163910Y0129477D01*
X0160785Y0129477D01*
X0156410Y0133911D02*
X0156410Y0136977D01*
X0162035Y0167257D02*
X0162035Y0170727D01*
X0165192Y0170727D01*
X0167161Y0170407D02*
X0167161Y0174351D01*
X0164594Y0176918D01*
X0163910Y0176918D01*
X0159073Y0176918D01*
X0158910Y0176130D01*
X0157973Y0170786D01*
X0162035Y0167257D02*
X0162043Y0167257D01*
X0170160Y0178694D02*
X0170160Y0180102D01*
X0168910Y0181352D01*
X0164594Y0181352D01*
X0163910Y0182036D01*
X0159073Y0182036D01*
X0158910Y0182823D01*
X0177035Y0182661D02*
X0177035Y0185727D01*
X0222035Y0121352D02*
X0222035Y0117429D01*
X0222035Y0111524D02*
X0222035Y0107036D01*
X0222035Y0101918D02*
X0222035Y0098227D01*
X0222035Y0093286D02*
X0220008Y0091883D01*
X0216031Y0091883D01*
X0210254Y0091883D01*
X0210160Y0091977D01*
X0211848Y0089915D02*
X0210160Y0088227D01*
X0211848Y0089915D02*
X0216031Y0089915D01*
X0219663Y0089915D01*
X0222035Y0088168D01*
D48*
X0184132Y0174477D02*
X0177035Y0174477D01*
X0177035Y0177543D01*
X0184132Y0174477D02*
X0185160Y0175505D01*
X0102035Y0125786D02*
X0102631Y0124728D01*
X0096435Y0124728D01*
X0091661Y0124728D01*
X0091410Y0124477D01*
X0091410Y0127602D02*
X0096160Y0127602D01*
X0100564Y0127602D01*
X0102035Y0125786D01*
X0102035Y0120668D02*
X0104535Y0116977D01*
X0096160Y0127602D02*
X0096435Y0127877D01*
X0068910Y0130102D02*
X0067960Y0131027D01*
X0062635Y0131027D01*
X0062660Y0155102D02*
X0066351Y0155102D01*
D49*
X0108285Y0175682D02*
X0108285Y0176352D01*
X0110844Y0178911D01*
X0110844Y0182602D01*
X0113246Y0185003D01*
X0113246Y0196302D01*
X0125057Y0196302D02*
X0132872Y0188487D01*
X0132872Y0180727D01*
X0128285Y0180727D01*
X0125785Y0178227D01*
X0125785Y0166977D01*
X0120785Y0161977D01*
X0120785Y0161307D01*
X0133285Y0161307D02*
X0133285Y0170313D01*
X0132872Y0170727D01*
X0137035Y0170727D01*
X0138285Y0171977D01*
X0138285Y0194885D01*
X0136868Y0196302D01*
X0143910Y0191534D02*
X0148679Y0196302D01*
X0143910Y0191534D02*
X0143910Y0182592D01*
X0152035Y0182592D02*
X0152035Y0188852D01*
X0154584Y0191401D01*
X0154584Y0206145D01*
X0184112Y0229767D02*
X0218910Y0194969D01*
X0218910Y0182592D01*
X0218910Y0175112D02*
X0220785Y0174487D01*
X0220785Y0165338D01*
X0215785Y0156352D02*
X0213285Y0156352D01*
X0210785Y0158852D01*
X0210785Y0165338D01*
X0200785Y0165338D02*
X0200785Y0173862D01*
X0202660Y0175112D01*
X0192035Y0175102D02*
X0192035Y0175112D01*
X0192035Y0175102D02*
X0190785Y0173852D01*
X0190785Y0165338D01*
X0113285Y0072036D02*
X0113216Y0071504D01*
X0108275Y0071504D01*
X0104535Y0071504D02*
X0104535Y0076130D01*
X0106632Y0078227D01*
X0100795Y0078620D02*
X0100795Y0072380D01*
X0093285Y0072380D01*
X0099939Y0078227D02*
X0100795Y0078620D01*
D50*
X0096410Y0085102D02*
X0095160Y0085102D01*
X0093206Y0087055D01*
X0093206Y0088975D01*
X0091238Y0088975D02*
X0091238Y0085899D01*
X0092660Y0084477D01*
X0097537Y0091337D02*
X0099550Y0091337D01*
X0100160Y0090727D01*
X0100160Y0088227D01*
X0100785Y0087602D01*
X0102601Y0087602D01*
X0107719Y0087602D02*
X0109535Y0087602D01*
X0110844Y0086293D01*
X0113285Y0086293D01*
X0113344Y0085727D02*
X0117660Y0085727D01*
X0121410Y0089477D01*
X0135160Y0089477D01*
X0140160Y0084477D01*
X0140160Y0077602D01*
X0141410Y0080727D02*
X0146002Y0076135D01*
X0153039Y0076135D01*
X0153039Y0074167D02*
X0157975Y0074167D01*
X0160785Y0076977D01*
X0160160Y0080727D02*
X0156878Y0084009D01*
X0153039Y0084009D01*
X0153039Y0085978D02*
X0156784Y0085978D01*
X0158910Y0083852D01*
X0162035Y0083852D01*
X0159535Y0086352D02*
X0156691Y0087946D01*
X0153039Y0087946D01*
X0153039Y0089915D02*
X0156597Y0089915D01*
X0162035Y0088852D01*
X0159535Y0096352D02*
X0156848Y0097789D01*
X0153039Y0097789D01*
X0147281Y0097789D01*
X0146410Y0098168D01*
X0149939Y0099757D02*
X0146410Y0103286D01*
X0146410Y0107602D02*
X0146410Y0111293D01*
X0146469Y0111352D01*
X0146469Y0115727D01*
X0143910Y0111977D02*
X0143285Y0111352D01*
X0141351Y0111352D01*
X0142035Y0110668D01*
X0142035Y0107036D01*
X0142035Y0101918D02*
X0142035Y0098852D01*
X0138285Y0100102D02*
X0138285Y0091977D01*
X0143910Y0086352D01*
X0143910Y0081977D01*
X0145815Y0080072D01*
X0153039Y0080072D01*
X0153039Y0078104D02*
X0145908Y0078104D01*
X0142660Y0081352D01*
X0142660Y0085727D01*
X0133285Y0095102D01*
X0130785Y0090727D02*
X0128285Y0093227D01*
X0128285Y0110102D01*
X0133285Y0115102D01*
X0141351Y0124477D02*
X0141351Y0130727D01*
X0141351Y0135102D01*
X0141351Y0138168D01*
X0142035Y0138852D01*
X0143910Y0138852D01*
X0142035Y0141352D02*
X0148910Y0141352D01*
X0152660Y0137602D01*
X0152660Y0135102D02*
X0153851Y0133911D01*
X0156410Y0133911D01*
X0154476Y0131293D02*
X0150785Y0127602D01*
X0144535Y0127602D01*
X0143910Y0126977D01*
X0143910Y0111977D01*
X0147094Y0119477D02*
X0146469Y0120102D01*
X0146469Y0124477D01*
X0147094Y0119477D02*
X0157035Y0119477D01*
X0160785Y0115727D01*
X0170785Y0115727D01*
X0173285Y0118227D01*
X0173285Y0120727D01*
X0172724Y0121288D01*
X0172724Y0125348D01*
X0172724Y0131293D01*
X0172636Y0131293D01*
X0174693Y0129634D02*
X0175160Y0130102D01*
X0175160Y0135727D01*
X0174476Y0136411D01*
X0172636Y0136411D01*
X0168310Y0136411D02*
X0168310Y0138202D01*
X0167660Y0138852D01*
X0167660Y0142661D01*
X0165219Y0145102D01*
X0165160Y0145102D01*
X0168285Y0148852D02*
X0170101Y0147036D01*
X0170785Y0147036D01*
X0175160Y0147036D01*
X0175160Y0141918D02*
X0179535Y0141918D01*
X0179535Y0136411D01*
X0178935Y0136411D01*
X0177094Y0136411D01*
X0176661Y0135978D01*
X0176661Y0125348D01*
X0174693Y0125348D02*
X0174693Y0129634D01*
X0174693Y0125348D02*
X0174693Y0120569D01*
X0175785Y0119477D01*
X0178630Y0120382D02*
X0180785Y0118227D01*
X0179535Y0115727D02*
X0178285Y0114477D01*
X0157660Y0114477D01*
X0156632Y0115505D01*
X0153039Y0115505D01*
X0153039Y0113537D02*
X0156725Y0113537D01*
X0157035Y0113227D01*
X0180785Y0113227D01*
X0179535Y0115727D02*
X0183285Y0115727D01*
X0185785Y0116977D02*
X0185785Y0080727D01*
X0193910Y0072602D01*
X0203910Y0072602D01*
X0206410Y0070102D01*
X0208285Y0070102D01*
X0211469Y0066918D01*
X0220160Y0066918D01*
X0222035Y0065043D01*
X0222035Y0060786D01*
X0220101Y0068227D02*
X0222035Y0070161D01*
X0222035Y0074418D01*
X0222035Y0079536D02*
X0222035Y0083227D01*
X0216031Y0093852D02*
X0212035Y0093852D01*
X0211410Y0094477D01*
X0206410Y0094477D01*
X0204535Y0092602D01*
X0205067Y0095820D02*
X0204535Y0096352D01*
X0205067Y0095820D02*
X0216031Y0095820D01*
X0207660Y0072602D02*
X0212035Y0068227D01*
X0220101Y0068227D01*
X0196346Y0068291D02*
X0196346Y0062356D01*
X0194378Y0062356D02*
X0194378Y0068384D01*
X0185785Y0076977D01*
X0168285Y0076977D01*
X0164535Y0076977D02*
X0159535Y0071977D01*
X0153261Y0071977D01*
X0153039Y0072198D01*
X0153039Y0070230D02*
X0157163Y0070230D01*
X0157660Y0070727D01*
X0161410Y0070727D01*
X0165160Y0074477D01*
X0175785Y0074477D01*
X0181410Y0068852D01*
X0178630Y0067946D02*
X0178630Y0062356D01*
X0176661Y0062356D02*
X0176661Y0066101D01*
X0175160Y0067602D01*
X0175160Y0070102D01*
X0172035Y0073227D01*
X0165785Y0073227D01*
X0162035Y0069477D01*
X0158285Y0069477D01*
X0155160Y0066352D01*
X0151410Y0066352D01*
X0148285Y0063227D01*
X0143285Y0063227D01*
X0139314Y0067198D01*
X0139314Y0067557D01*
X0138226Y0068645D01*
X0138226Y0073227D01*
X0135785Y0068852D02*
X0127525Y0068852D01*
X0127525Y0062984D01*
X0127056Y0062515D01*
X0127035Y0062515D01*
X0127035Y0054152D01*
X0135785Y0054152D01*
X0135785Y0068852D01*
X0135785Y0068761D02*
X0127525Y0068761D01*
X0127525Y0068163D02*
X0135785Y0068163D01*
X0135785Y0067564D02*
X0127525Y0067564D01*
X0127525Y0066966D02*
X0135785Y0066966D01*
X0135785Y0066367D02*
X0127525Y0066367D01*
X0127525Y0065769D02*
X0135785Y0065769D01*
X0135785Y0065170D02*
X0127525Y0065170D01*
X0127525Y0064572D02*
X0135785Y0064572D01*
X0135785Y0063973D02*
X0127525Y0063973D01*
X0127525Y0063375D02*
X0135785Y0063375D01*
X0135785Y0062776D02*
X0127318Y0062776D01*
X0127035Y0062178D02*
X0135785Y0062178D01*
X0135785Y0061579D02*
X0127035Y0061579D01*
X0127035Y0060981D02*
X0135785Y0060981D01*
X0135785Y0060382D02*
X0127035Y0060382D01*
X0127035Y0059784D02*
X0135785Y0059784D01*
X0135785Y0059185D02*
X0127035Y0059185D01*
X0127035Y0058587D02*
X0135785Y0058587D01*
X0135785Y0057988D02*
X0127035Y0057988D01*
X0127035Y0057390D02*
X0135785Y0057390D01*
X0135785Y0056791D02*
X0127035Y0056791D01*
X0127035Y0056193D02*
X0135785Y0056193D01*
X0135785Y0055594D02*
X0127035Y0055594D01*
X0127035Y0054996D02*
X0135785Y0054996D01*
X0135785Y0054397D02*
X0127035Y0054397D01*
X0143344Y0073227D02*
X0147035Y0073227D01*
X0147035Y0068586D01*
X0146007Y0067557D01*
X0149146Y0062036D02*
X0146007Y0058896D01*
X0149146Y0062036D02*
X0152035Y0062036D01*
X0152719Y0062036D01*
X0158910Y0068227D01*
X0162660Y0068227D01*
X0166410Y0071977D01*
X0171410Y0071977D01*
X0173910Y0069477D01*
X0173910Y0066977D01*
X0174693Y0066194D01*
X0174693Y0062356D01*
X0168787Y0062356D02*
X0168787Y0068350D01*
X0167660Y0069477D01*
X0160913Y0062356D02*
X0160913Y0057474D01*
X0162035Y0056352D01*
X0177660Y0068852D02*
X0178630Y0067946D01*
X0184535Y0080102D02*
X0184535Y0095727D01*
X0172035Y0108227D01*
X0168910Y0110727D02*
X0165815Y0107631D01*
X0153039Y0107631D01*
X0153039Y0105663D02*
X0163974Y0105663D01*
X0169535Y0100102D01*
X0158910Y0100102D02*
X0158566Y0099757D01*
X0153039Y0099757D01*
X0149939Y0099757D01*
X0147035Y0094477D02*
X0147035Y0090786D01*
X0147035Y0085668D02*
X0147035Y0082602D01*
X0141410Y0080727D02*
X0141410Y0085102D01*
X0135785Y0090727D01*
X0130785Y0090727D01*
X0138285Y0100102D02*
X0133285Y0105102D01*
X0117660Y0110102D02*
X0117660Y0114477D01*
X0115785Y0116352D01*
X0113344Y0116352D01*
X0112094Y0120727D01*
X0106976Y0120727D02*
X0106976Y0125102D01*
X0106976Y0129477D01*
X0103910Y0129477D01*
X0112094Y0129477D02*
X0116410Y0129477D01*
X0117660Y0130727D01*
X0114594Y0133852D02*
X0114594Y0133911D01*
X0115160Y0134477D01*
X0115160Y0137543D01*
X0115219Y0138227D01*
X0116469Y0139477D01*
X0140160Y0139477D01*
X0142035Y0141352D01*
X0139535Y0142602D02*
X0135844Y0142602D01*
X0126410Y0143227D02*
X0123344Y0142602D01*
X0115844Y0137602D02*
X0115219Y0138227D01*
X0114535Y0142602D02*
X0111469Y0142602D01*
X0110785Y0141918D01*
X0110785Y0138852D01*
X0110160Y0138227D01*
X0110101Y0138227D01*
X0106410Y0138227D02*
X0106410Y0142543D01*
X0106351Y0142602D01*
X0098285Y0160727D02*
X0098285Y0163227D01*
X0098344Y0164477D01*
X0088910Y0164477D02*
X0085844Y0164477D01*
X0076410Y0164477D02*
X0073344Y0164477D01*
X0065160Y0159477D02*
X0062094Y0159477D01*
X0052601Y0136977D02*
X0052660Y0136918D01*
X0052660Y0133227D01*
X0052660Y0129536D01*
X0052601Y0129477D01*
X0055160Y0128852D02*
X0055160Y0125727D01*
X0054476Y0125043D01*
X0052660Y0125043D01*
X0052601Y0124477D01*
X0055160Y0128852D02*
X0055785Y0129477D01*
X0057719Y0129477D01*
X0062911Y0124728D02*
X0074284Y0124728D01*
X0076410Y0122602D01*
X0081110Y0125426D02*
X0081410Y0125727D01*
X0081110Y0125426D02*
X0081110Y0115702D01*
X0081110Y0111051D01*
X0079033Y0108975D01*
X0079033Y0105116D01*
X0081395Y0107479D02*
X0081395Y0109462D01*
X0084260Y0112326D01*
X0084260Y0115702D01*
X0084260Y0123576D01*
X0084535Y0123852D01*
X0087035Y0121352D02*
X0087409Y0120978D01*
X0087409Y0115702D01*
X0087409Y0112351D01*
X0086410Y0111352D01*
X0085160Y0111352D01*
X0083364Y0109555D01*
X0083364Y0107479D01*
X0085332Y0107479D02*
X0085332Y0109649D01*
X0085785Y0110102D01*
X0090160Y0110102D01*
X0092660Y0112602D01*
X0095785Y0112602D01*
X0097035Y0113852D01*
X0097035Y0120978D01*
X0096435Y0121578D01*
X0100785Y0116977D02*
X0102035Y0115727D01*
X0102035Y0111977D01*
X0100785Y0110727D01*
X0100785Y0108227D01*
X0099535Y0106977D01*
X0097035Y0106977D01*
X0096533Y0107479D01*
X0095175Y0107479D01*
X0091238Y0107479D02*
X0091238Y0109304D01*
X0093285Y0111352D01*
X0096410Y0111352D01*
X0099535Y0113227D01*
X0079033Y0091337D02*
X0079033Y0087100D01*
X0075785Y0083852D01*
X0059535Y0083852D01*
X0059525Y0085112D01*
X0059525Y0084432D02*
X0059525Y0093158D01*
X0054476Y0093852D02*
X0051410Y0093852D01*
X0145067Y0144993D02*
X0145067Y0152508D01*
X0145160Y0152602D01*
X0156410Y0150102D02*
X0157660Y0148852D01*
X0168285Y0148852D01*
X0162035Y0140727D02*
X0161469Y0140727D01*
X0162011Y0131293D02*
X0154476Y0131293D01*
X0152660Y0135102D02*
X0146469Y0135102D01*
X0157660Y0121977D02*
X0157660Y0120727D01*
X0161410Y0116977D01*
X0164535Y0116977D01*
X0168787Y0121229D01*
X0168787Y0125348D01*
X0168787Y0131293D01*
X0168310Y0131293D01*
X0166819Y0129068D02*
X0164594Y0131293D01*
X0162011Y0131293D01*
X0166819Y0129068D02*
X0166819Y0125348D01*
X0170785Y0125318D02*
X0170785Y0119477D01*
X0178630Y0120382D02*
X0178630Y0125348D01*
X0178630Y0131293D01*
X0178935Y0131293D01*
X0182660Y0130727D02*
X0185844Y0130727D01*
X0186410Y0131293D01*
X0186410Y0136411D02*
X0186410Y0138227D01*
X0188285Y0140102D01*
X0188285Y0170102D01*
X0187035Y0171352D01*
X0184535Y0171352D01*
X0183285Y0170102D01*
X0183285Y0168227D01*
X0182316Y0167257D01*
X0180153Y0167257D01*
X0180153Y0163320D02*
X0181942Y0163320D01*
X0183598Y0161664D01*
X0183598Y0150414D01*
X0182660Y0149477D01*
X0182660Y0138852D01*
X0180785Y0151352D02*
X0182348Y0152914D01*
X0182348Y0160727D01*
X0181723Y0161352D01*
X0180153Y0161352D01*
X0171098Y0170407D02*
X0171098Y0176039D01*
X0172129Y0177070D01*
X0172129Y0178694D01*
X0168192Y0178694D02*
X0168192Y0177070D01*
X0169129Y0176133D01*
X0169129Y0170407D01*
X0168192Y0184009D02*
X0168192Y0188601D01*
X0160490Y0196302D01*
X0165506Y0201631D02*
X0176983Y0201631D01*
X0177284Y0201506D02*
X0178203Y0201506D01*
X0180642Y0199392D01*
X0180179Y0198930D01*
X0179473Y0197225D01*
X0179473Y0195380D01*
X0180179Y0193675D01*
X0181484Y0192370D01*
X0183189Y0191664D01*
X0185035Y0191664D01*
X0186739Y0192370D01*
X0187035Y0192666D01*
X0187035Y0180102D01*
X0182660Y0180102D01*
X0182660Y0184477D01*
X0174814Y0192323D01*
X0174928Y0192370D01*
X0176233Y0193675D01*
X0176939Y0195380D01*
X0176939Y0197225D01*
X0176233Y0198930D01*
X0174928Y0200235D01*
X0173224Y0200941D01*
X0171378Y0200941D01*
X0169673Y0200235D01*
X0168368Y0198930D01*
X0168321Y0198816D01*
X0162035Y0205102D01*
X0162035Y0207602D01*
X0164535Y0210102D01*
X0168285Y0210102D01*
X0173568Y0205523D01*
X0173568Y0205222D01*
X0162035Y0205222D01*
X0162035Y0205821D02*
X0173225Y0205821D01*
X0173568Y0205222D02*
X0174274Y0203517D01*
X0175579Y0202213D01*
X0177284Y0201506D01*
X0178750Y0201032D02*
X0166104Y0201032D01*
X0166703Y0200434D02*
X0170154Y0200434D01*
X0169274Y0199835D02*
X0167301Y0199835D01*
X0167900Y0199237D02*
X0168675Y0199237D01*
X0168861Y0196302D02*
X0167660Y0195102D01*
X0167660Y0191977D01*
X0172129Y0187508D01*
X0172129Y0184009D01*
X0177476Y0189661D02*
X0187035Y0189661D01*
X0187035Y0190259D02*
X0176878Y0190259D01*
X0176279Y0190858D02*
X0187035Y0190858D01*
X0187035Y0191456D02*
X0175680Y0191456D01*
X0175082Y0192055D02*
X0182245Y0192055D01*
X0181201Y0192653D02*
X0175212Y0192653D01*
X0175810Y0193252D02*
X0180603Y0193252D01*
X0180107Y0193850D02*
X0176306Y0193850D01*
X0176554Y0194449D02*
X0179859Y0194449D01*
X0179611Y0195047D02*
X0176802Y0195047D01*
X0176939Y0195646D02*
X0179473Y0195646D01*
X0179473Y0196244D02*
X0176939Y0196244D01*
X0176939Y0196843D02*
X0179473Y0196843D01*
X0179563Y0197441D02*
X0176850Y0197441D01*
X0176602Y0198040D02*
X0179811Y0198040D01*
X0180059Y0198638D02*
X0176354Y0198638D01*
X0175926Y0199237D02*
X0180486Y0199237D01*
X0180131Y0199835D02*
X0175328Y0199835D01*
X0174448Y0200434D02*
X0179440Y0200434D01*
X0175562Y0202229D02*
X0164907Y0202229D01*
X0164309Y0202828D02*
X0174963Y0202828D01*
X0174365Y0203427D02*
X0163710Y0203427D01*
X0163112Y0204025D02*
X0174064Y0204025D01*
X0173816Y0204624D02*
X0162513Y0204624D01*
X0162035Y0206419D02*
X0172534Y0206419D01*
X0171844Y0207018D02*
X0162035Y0207018D01*
X0162050Y0207616D02*
X0171153Y0207616D01*
X0170462Y0208215D02*
X0162648Y0208215D01*
X0163247Y0208813D02*
X0169772Y0208813D01*
X0169081Y0209412D02*
X0163845Y0209412D01*
X0164444Y0210010D02*
X0168391Y0210010D01*
X0168861Y0196302D02*
X0172301Y0196302D01*
X0178075Y0189062D02*
X0187035Y0189062D01*
X0187035Y0188464D02*
X0178673Y0188464D01*
X0179272Y0187865D02*
X0187035Y0187865D01*
X0187035Y0187267D02*
X0179870Y0187267D01*
X0180469Y0186668D02*
X0187035Y0186668D01*
X0187035Y0186070D02*
X0181067Y0186070D01*
X0181666Y0185471D02*
X0187035Y0185471D01*
X0187035Y0184873D02*
X0182264Y0184873D01*
X0182660Y0184274D02*
X0187035Y0184274D01*
X0187035Y0183676D02*
X0182660Y0183676D01*
X0182660Y0183077D02*
X0187035Y0183077D01*
X0187035Y0182479D02*
X0182660Y0182479D01*
X0182660Y0181880D02*
X0187035Y0181880D01*
X0187035Y0181282D02*
X0182660Y0181282D01*
X0182660Y0180683D02*
X0187035Y0180683D01*
X0188493Y0178888D02*
X0198910Y0178888D01*
X0198910Y0179486D02*
X0195573Y0179486D01*
X0195788Y0179701D02*
X0195788Y0185482D01*
X0195319Y0185951D01*
X0188751Y0185951D01*
X0188357Y0185557D01*
X0188285Y0185557D01*
X0188285Y0194256D01*
X0188750Y0195380D01*
X0188750Y0197225D01*
X0188285Y0198349D01*
X0188285Y0201352D01*
X0193910Y0205102D01*
X0198910Y0198852D01*
X0198910Y0198213D01*
X0197946Y0199177D01*
X0196124Y0199177D01*
X0194874Y0197927D01*
X0194249Y0197927D01*
X0192960Y0196638D01*
X0192960Y0194815D01*
X0194249Y0193527D01*
X0196071Y0193527D01*
X0197321Y0194777D01*
X0197946Y0194777D01*
X0198910Y0195740D01*
X0198910Y0185485D01*
X0198907Y0185482D01*
X0198907Y0179701D01*
X0198910Y0179699D01*
X0198910Y0178005D01*
X0198907Y0178002D01*
X0198907Y0172221D01*
X0199185Y0171943D01*
X0199185Y0170381D01*
X0198804Y0170000D01*
X0198804Y0160676D01*
X0199273Y0160207D01*
X0202298Y0160207D01*
X0202766Y0160676D01*
X0202766Y0170000D01*
X0202385Y0170381D01*
X0202385Y0171752D01*
X0205944Y0171752D01*
X0206413Y0172221D01*
X0206413Y0177602D01*
X0215157Y0177602D01*
X0215157Y0172221D01*
X0215626Y0171752D01*
X0217035Y0171752D01*
X0217035Y0158213D01*
X0216696Y0158552D01*
X0214874Y0158552D01*
X0214274Y0157952D01*
X0213948Y0157952D01*
X0212385Y0159514D01*
X0212385Y0160295D01*
X0212766Y0160676D01*
X0212766Y0170000D01*
X0212298Y0170469D01*
X0209273Y0170469D01*
X0208804Y0170000D01*
X0208804Y0160676D01*
X0209185Y0160295D01*
X0209185Y0158189D01*
X0210122Y0157252D01*
X0210122Y0157252D01*
X0211685Y0155689D01*
X0211685Y0155689D01*
X0212272Y0155102D01*
X0189385Y0155102D01*
X0189385Y0160207D01*
X0192298Y0160207D01*
X0192766Y0160676D01*
X0192766Y0170000D01*
X0192385Y0170381D01*
X0192385Y0171752D01*
X0195319Y0171752D01*
X0195788Y0172221D01*
X0195788Y0178002D01*
X0195319Y0178471D01*
X0188838Y0178471D01*
X0188457Y0178852D01*
X0188838Y0179233D01*
X0195319Y0179233D01*
X0195788Y0179701D01*
X0195788Y0180085D02*
X0198907Y0180085D01*
X0198907Y0180683D02*
X0195788Y0180683D01*
X0195788Y0181282D02*
X0198907Y0181282D01*
X0198907Y0181880D02*
X0195788Y0181880D01*
X0195788Y0182479D02*
X0198907Y0182479D01*
X0198907Y0183077D02*
X0195788Y0183077D01*
X0195788Y0183676D02*
X0198907Y0183676D01*
X0198907Y0184274D02*
X0195788Y0184274D01*
X0195788Y0184873D02*
X0198907Y0184873D01*
X0198907Y0185471D02*
X0195788Y0185471D01*
X0198910Y0186070D02*
X0188285Y0186070D01*
X0188285Y0186668D02*
X0198910Y0186668D01*
X0198910Y0187267D02*
X0188285Y0187267D01*
X0188285Y0187865D02*
X0198910Y0187865D01*
X0198910Y0188464D02*
X0188285Y0188464D01*
X0188285Y0189062D02*
X0198910Y0189062D01*
X0198910Y0189661D02*
X0188285Y0189661D01*
X0188285Y0190259D02*
X0198910Y0190259D01*
X0198910Y0190858D02*
X0188285Y0190858D01*
X0188285Y0191456D02*
X0198910Y0191456D01*
X0198910Y0192055D02*
X0188285Y0192055D01*
X0188285Y0192653D02*
X0198910Y0192653D01*
X0198910Y0193252D02*
X0188285Y0193252D01*
X0188285Y0193850D02*
X0193925Y0193850D01*
X0193327Y0194449D02*
X0188365Y0194449D01*
X0188613Y0195047D02*
X0192960Y0195047D01*
X0192960Y0195646D02*
X0188750Y0195646D01*
X0188750Y0196244D02*
X0192960Y0196244D01*
X0193165Y0196843D02*
X0188750Y0196843D01*
X0188661Y0197441D02*
X0193764Y0197441D01*
X0194987Y0198040D02*
X0188413Y0198040D01*
X0188285Y0198638D02*
X0195586Y0198638D01*
X0197644Y0200434D02*
X0188285Y0200434D01*
X0188285Y0201032D02*
X0197165Y0201032D01*
X0196687Y0201631D02*
X0188704Y0201631D01*
X0189602Y0202229D02*
X0196208Y0202229D01*
X0195729Y0202828D02*
X0190500Y0202828D01*
X0191397Y0203427D02*
X0195250Y0203427D01*
X0194771Y0204025D02*
X0192295Y0204025D01*
X0193193Y0204624D02*
X0194293Y0204624D01*
X0198123Y0199835D02*
X0188285Y0199835D01*
X0188285Y0199237D02*
X0198602Y0199237D01*
X0198485Y0198638D02*
X0198910Y0198638D01*
X0200160Y0198638D02*
X0205160Y0198638D01*
X0205160Y0198852D02*
X0200160Y0198852D01*
X0200160Y0180102D01*
X0205160Y0180102D01*
X0205160Y0198852D01*
X0205160Y0198040D02*
X0200160Y0198040D01*
X0200160Y0197441D02*
X0205160Y0197441D01*
X0205160Y0196843D02*
X0200160Y0196843D01*
X0200160Y0196244D02*
X0205160Y0196244D01*
X0205160Y0195646D02*
X0200160Y0195646D01*
X0200160Y0195047D02*
X0205160Y0195047D01*
X0205160Y0194449D02*
X0200160Y0194449D01*
X0200160Y0193850D02*
X0205160Y0193850D01*
X0205160Y0193252D02*
X0200160Y0193252D01*
X0200160Y0192653D02*
X0205160Y0192653D01*
X0205160Y0192055D02*
X0200160Y0192055D01*
X0200160Y0191456D02*
X0205160Y0191456D01*
X0205160Y0190858D02*
X0200160Y0190858D01*
X0200160Y0190259D02*
X0205160Y0190259D01*
X0205160Y0189661D02*
X0200160Y0189661D01*
X0200160Y0189062D02*
X0205160Y0189062D01*
X0205160Y0188464D02*
X0200160Y0188464D01*
X0200160Y0187865D02*
X0205160Y0187865D01*
X0205160Y0187267D02*
X0200160Y0187267D01*
X0200160Y0186668D02*
X0205160Y0186668D01*
X0205160Y0186070D02*
X0200160Y0186070D01*
X0200160Y0185471D02*
X0205160Y0185471D01*
X0205160Y0184873D02*
X0200160Y0184873D01*
X0200160Y0184274D02*
X0205160Y0184274D01*
X0205160Y0183676D02*
X0200160Y0183676D01*
X0200160Y0183077D02*
X0205160Y0183077D01*
X0205160Y0182479D02*
X0200160Y0182479D01*
X0200160Y0181880D02*
X0205160Y0181880D01*
X0205160Y0181282D02*
X0200160Y0181282D01*
X0200160Y0180683D02*
X0205160Y0180683D01*
X0206413Y0177092D02*
X0215157Y0177092D01*
X0215157Y0176494D02*
X0206413Y0176494D01*
X0206413Y0175895D02*
X0215157Y0175895D01*
X0215157Y0175296D02*
X0206413Y0175296D01*
X0206413Y0174698D02*
X0215157Y0174698D01*
X0215157Y0174099D02*
X0206413Y0174099D01*
X0206413Y0173501D02*
X0215157Y0173501D01*
X0215157Y0172902D02*
X0206413Y0172902D01*
X0206413Y0172304D02*
X0215157Y0172304D01*
X0217035Y0171705D02*
X0202385Y0171705D01*
X0202385Y0171107D02*
X0217035Y0171107D01*
X0217035Y0170508D02*
X0202385Y0170508D01*
X0202766Y0169910D02*
X0203804Y0169910D01*
X0203804Y0170000D02*
X0203804Y0160676D01*
X0204273Y0160207D01*
X0207298Y0160207D01*
X0207766Y0160676D01*
X0207766Y0170000D01*
X0207298Y0170469D01*
X0204273Y0170469D01*
X0203804Y0170000D01*
X0203804Y0169311D02*
X0202766Y0169311D01*
X0202766Y0168713D02*
X0203804Y0168713D01*
X0203804Y0168114D02*
X0202766Y0168114D01*
X0202766Y0167516D02*
X0203804Y0167516D01*
X0203804Y0166917D02*
X0202766Y0166917D01*
X0202766Y0166319D02*
X0203804Y0166319D01*
X0203804Y0165720D02*
X0202766Y0165720D01*
X0202766Y0165122D02*
X0203804Y0165122D01*
X0203804Y0164523D02*
X0202766Y0164523D01*
X0202766Y0163925D02*
X0203804Y0163925D01*
X0203804Y0163326D02*
X0202766Y0163326D01*
X0202766Y0162728D02*
X0203804Y0162728D01*
X0203804Y0162129D02*
X0202766Y0162129D01*
X0202766Y0161531D02*
X0203804Y0161531D01*
X0203804Y0160932D02*
X0202766Y0160932D01*
X0202424Y0160334D02*
X0204146Y0160334D01*
X0207424Y0160334D02*
X0209146Y0160334D01*
X0209185Y0159735D02*
X0189385Y0159735D01*
X0189385Y0159137D02*
X0209185Y0159137D01*
X0209185Y0158538D02*
X0189385Y0158538D01*
X0189385Y0157940D02*
X0209434Y0157940D01*
X0210033Y0157341D02*
X0189385Y0157341D01*
X0189385Y0156743D02*
X0210631Y0156743D01*
X0211230Y0156144D02*
X0189385Y0156144D01*
X0189385Y0155546D02*
X0211828Y0155546D01*
X0213361Y0158538D02*
X0214860Y0158538D01*
X0216710Y0158538D02*
X0217035Y0158538D01*
X0217035Y0159137D02*
X0212763Y0159137D01*
X0212385Y0159735D02*
X0217035Y0159735D01*
X0217035Y0160334D02*
X0212424Y0160334D01*
X0212766Y0160932D02*
X0217035Y0160932D01*
X0217035Y0161531D02*
X0212766Y0161531D01*
X0212766Y0162129D02*
X0217035Y0162129D01*
X0217035Y0162728D02*
X0212766Y0162728D01*
X0212766Y0163326D02*
X0217035Y0163326D01*
X0217035Y0163925D02*
X0212766Y0163925D01*
X0212766Y0164523D02*
X0217035Y0164523D01*
X0217035Y0165122D02*
X0212766Y0165122D01*
X0212766Y0165720D02*
X0217035Y0165720D01*
X0217035Y0166319D02*
X0212766Y0166319D01*
X0212766Y0166917D02*
X0217035Y0166917D01*
X0217035Y0167516D02*
X0212766Y0167516D01*
X0212766Y0168114D02*
X0217035Y0168114D01*
X0217035Y0168713D02*
X0212766Y0168713D01*
X0212766Y0169311D02*
X0217035Y0169311D01*
X0217035Y0169910D02*
X0212766Y0169910D01*
X0208804Y0169910D02*
X0207766Y0169910D01*
X0207766Y0169311D02*
X0208804Y0169311D01*
X0208804Y0168713D02*
X0207766Y0168713D01*
X0207766Y0168114D02*
X0208804Y0168114D01*
X0208804Y0167516D02*
X0207766Y0167516D01*
X0207766Y0166917D02*
X0208804Y0166917D01*
X0208804Y0166319D02*
X0207766Y0166319D01*
X0207766Y0165720D02*
X0208804Y0165720D01*
X0208804Y0165122D02*
X0207766Y0165122D01*
X0207766Y0164523D02*
X0208804Y0164523D01*
X0208804Y0163925D02*
X0207766Y0163925D01*
X0207766Y0163326D02*
X0208804Y0163326D01*
X0208804Y0162728D02*
X0207766Y0162728D01*
X0207766Y0162129D02*
X0208804Y0162129D01*
X0208804Y0161531D02*
X0207766Y0161531D01*
X0207766Y0160932D02*
X0208804Y0160932D01*
X0199146Y0160334D02*
X0192424Y0160334D01*
X0192766Y0160932D02*
X0198804Y0160932D01*
X0198804Y0161531D02*
X0192766Y0161531D01*
X0192766Y0162129D02*
X0198804Y0162129D01*
X0198804Y0162728D02*
X0192766Y0162728D01*
X0192766Y0163326D02*
X0198804Y0163326D01*
X0198804Y0163925D02*
X0192766Y0163925D01*
X0192766Y0164523D02*
X0198804Y0164523D01*
X0198804Y0165122D02*
X0192766Y0165122D01*
X0192766Y0165720D02*
X0198804Y0165720D01*
X0198804Y0166319D02*
X0192766Y0166319D01*
X0192766Y0166917D02*
X0198804Y0166917D01*
X0198804Y0167516D02*
X0192766Y0167516D01*
X0192766Y0168114D02*
X0198804Y0168114D01*
X0198804Y0168713D02*
X0192766Y0168713D01*
X0192766Y0169311D02*
X0198804Y0169311D01*
X0198804Y0169910D02*
X0192766Y0169910D01*
X0192385Y0170508D02*
X0199185Y0170508D01*
X0199185Y0171107D02*
X0192385Y0171107D01*
X0192385Y0171705D02*
X0199185Y0171705D01*
X0198907Y0172304D02*
X0195788Y0172304D01*
X0195788Y0172902D02*
X0198907Y0172902D01*
X0198907Y0173501D02*
X0195788Y0173501D01*
X0195788Y0174099D02*
X0198907Y0174099D01*
X0198907Y0174698D02*
X0195788Y0174698D01*
X0195788Y0175296D02*
X0198907Y0175296D01*
X0198907Y0175895D02*
X0195788Y0175895D01*
X0195788Y0176494D02*
X0198907Y0176494D01*
X0198907Y0177092D02*
X0195788Y0177092D01*
X0195788Y0177691D02*
X0198907Y0177691D01*
X0198910Y0178289D02*
X0195501Y0178289D01*
X0187035Y0192055D02*
X0185978Y0192055D01*
X0187023Y0192653D02*
X0187035Y0192653D01*
X0196395Y0193850D02*
X0198910Y0193850D01*
X0198910Y0194449D02*
X0196994Y0194449D01*
X0198217Y0195047D02*
X0198910Y0195047D01*
X0198910Y0195646D02*
X0198816Y0195646D01*
X0222035Y0205043D02*
X0223285Y0205043D01*
X0223285Y0157602D01*
X0218285Y0152602D01*
X0218285Y0127602D01*
X0188285Y0097602D01*
X0184535Y0080102D02*
X0196346Y0068291D01*
X0185785Y0116977D02*
X0180598Y0122164D01*
X0180598Y0125348D01*
X0061410Y0211352D02*
X0061410Y0218227D01*
X0058295Y0221342D01*
X0057079Y0221342D01*
X0057704Y0220771D01*
X0057035Y0220102D01*
X0052601Y0220102D01*
X0051410Y0219536D01*
X0051410Y0214418D02*
X0051976Y0213852D01*
X0055785Y0213852D01*
X0051410Y0210161D02*
X0060219Y0210161D01*
X0061410Y0211352D01*
X0051410Y0205043D02*
X0051410Y0201352D01*
D51*
X0138285Y0120102D02*
X0141351Y0120102D01*
X0141351Y0115727D01*
D52*
X0095785Y0183182D02*
X0095785Y0190653D01*
X0101435Y0196302D01*
X0095529Y0206145D02*
X0089328Y0206145D01*
X0070785Y0187602D01*
X0070785Y0183182D01*
X0083285Y0183182D02*
X0083285Y0189964D01*
X0089624Y0196302D01*
X0078787Y0203182D02*
X0095529Y0219924D01*
X0101435Y0229767D02*
X0094225Y0236977D01*
X0085160Y0236977D01*
X0077035Y0228852D01*
X0067247Y0228852D01*
X0066410Y0228852D01*
X0066410Y0218271D01*
X0065741Y0217602D01*
X0060785Y0203182D02*
X0078787Y0203182D01*
X0172301Y0229767D02*
X0179511Y0236977D01*
X0188285Y0236977D01*
X0196410Y0228852D01*
X0206824Y0228852D01*
X0207704Y0228596D01*
X0207704Y0217602D01*
D53*
X0118699Y0180727D02*
X0118699Y0170938D01*
X0118910Y0170727D01*
M02*
