G04 EAGLE Gerber RS-274X export*
G75*
%MOMM*%
%FSLAX34Y34*%
%LPD*%
%INSoldermask Bottom*%
%IPPOS*%
%AMOC8*
5,1,8,0,0,1.08239X$1,22.5*%
G01*
%ADD10R,1.203200X3.603200*%
%ADD11R,7.003200X9.803200*%
%ADD12R,1.703200X1.503200*%
%ADD13C,2.153200*%
%ADD14C,3.503200*%
%ADD15R,0.889000X1.549400*%
%ADD16R,1.371600X1.803400*%
%ADD17P,1.869504X8X22.500000*%
%ADD18R,0.603200X1.203200*%
%ADD19P,1.869504X8X292.500000*%
%ADD20C,2.203200*%
%ADD21C,0.914400*%


D10*
X411163Y222925D03*
X360363Y222925D03*
D11*
X385763Y323925D03*
D12*
X411163Y263550D03*
X411163Y282550D03*
D13*
X345000Y484925D03*
X315000Y484925D03*
X285000Y484925D03*
X255000Y484925D03*
X225000Y484925D03*
X195000Y484925D03*
X165000Y484925D03*
X135000Y484925D03*
X105000Y484925D03*
X330000Y459925D03*
X300000Y459925D03*
X270000Y459925D03*
X240000Y459925D03*
X210000Y459925D03*
X180000Y459925D03*
X150000Y459925D03*
X120000Y459925D03*
X330000Y424925D03*
X300000Y424925D03*
X270000Y424925D03*
X240000Y424925D03*
X210000Y424925D03*
X180000Y424925D03*
X150000Y424925D03*
X120000Y424925D03*
X345000Y399925D03*
X315000Y399925D03*
X285000Y399925D03*
X255000Y399925D03*
X225000Y399925D03*
X195000Y399925D03*
X165000Y399925D03*
X135000Y399925D03*
X105000Y399925D03*
D14*
X417500Y549925D03*
X32500Y549925D03*
D15*
X409050Y164138D03*
X370950Y164138D03*
X396350Y164138D03*
X383650Y164138D03*
X409050Y65713D03*
X370950Y65713D03*
X396350Y65713D03*
X383650Y65713D03*
D16*
X132398Y327025D03*
X147638Y327025D03*
X162878Y327025D03*
D17*
X371475Y12700D03*
X371475Y38100D03*
X396875Y12700D03*
X396875Y38100D03*
X422275Y12700D03*
X422275Y38100D03*
D18*
X269880Y283650D03*
X263530Y283650D03*
X257180Y283650D03*
X250830Y283650D03*
X244470Y283650D03*
X238120Y283650D03*
X231770Y283650D03*
X225420Y283650D03*
X225420Y338650D03*
X231770Y338650D03*
X238120Y338650D03*
X244470Y338650D03*
X250830Y338650D03*
X257180Y338650D03*
X263530Y338650D03*
X269880Y338650D03*
D19*
X190500Y241300D03*
X215900Y241300D03*
X190500Y215900D03*
X215900Y215900D03*
X190500Y190500D03*
X215900Y190500D03*
X190500Y165100D03*
X215900Y165100D03*
X190500Y139700D03*
X215900Y139700D03*
X190500Y114300D03*
X215900Y114300D03*
D20*
X98425Y120650D03*
X133350Y98425D03*
D21*
X77788Y268288D03*
X93663Y306388D03*
X142875Y198438D03*
X169863Y174625D03*
X58738Y17463D03*
X58738Y9525D03*
X49213Y9525D03*
X36513Y295275D03*
X41275Y392113D03*
X136525Y295275D03*
X9525Y249238D03*
X19050Y131763D03*
X19050Y120650D03*
X19050Y142875D03*
X19050Y153988D03*
X17463Y106363D03*
X11113Y106363D03*
X23813Y106363D03*
X38100Y74613D03*
X153988Y123825D03*
X296863Y44450D03*
X234950Y41275D03*
X307181Y315913D03*
X316706Y306388D03*
X200025Y301625D03*
X173038Y301625D03*
X104775Y357188D03*
X73025Y357188D03*
X44450Y363538D03*
X341313Y242888D03*
X290513Y204788D03*
X276225Y247650D03*
X374650Y268288D03*
X374650Y261938D03*
X44450Y357188D03*
X73025Y363538D03*
X104775Y363538D03*
X141288Y349250D03*
X173038Y307975D03*
X311150Y261938D03*
X441325Y152400D03*
X309563Y30163D03*
X334963Y14288D03*
X228600Y41275D03*
X228600Y34925D03*
X49213Y17463D03*
X238125Y158750D03*
X330200Y366713D03*
X165100Y346075D03*
X228600Y206375D03*
X411163Y134938D03*
X169863Y217488D03*
X147638Y241300D03*
X147638Y252413D03*
X41275Y398463D03*
X141288Y355600D03*
X165100Y352425D03*
X73025Y369888D03*
X104775Y369888D03*
X200025Y307975D03*
X200025Y314325D03*
X441325Y34925D03*
X387350Y82550D03*
X247650Y90488D03*
X247650Y79375D03*
X423863Y463550D03*
X430213Y463550D03*
X19050Y444500D03*
X25400Y444500D03*
X44450Y369888D03*
X412750Y381000D03*
X419100Y381000D03*
X280988Y146050D03*
X316706Y315913D03*
X307181Y306388D03*
X422275Y227013D03*
X422275Y220663D03*
X441325Y111125D03*
X166688Y112713D03*
X9525Y238125D03*
X9525Y227013D03*
X238125Y322263D03*
X257175Y273050D03*
X122238Y131763D03*
X122238Y117475D03*
X61913Y133350D03*
X234950Y47625D03*
X228600Y47625D03*
X234950Y34925D03*
X163513Y38100D03*
X169863Y38100D03*
X176213Y38100D03*
X103188Y31750D03*
X109538Y31750D03*
X293688Y365125D03*
X261938Y220663D03*
X250825Y138113D03*
X250825Y244475D03*
X228600Y28575D03*
X234950Y28575D03*
X255588Y57150D03*
X312738Y74613D03*
X123825Y31750D03*
X130175Y31750D03*
X144463Y31750D03*
X150813Y31750D03*
X123825Y47625D03*
X130175Y47625D03*
X144463Y47625D03*
X150813Y47625D03*
X161925Y90488D03*
X109538Y225425D03*
X52388Y231775D03*
X109538Y217488D03*
X298450Y252413D03*
X276225Y234950D03*
X201613Y31750D03*
X195263Y38100D03*
X195263Y31750D03*
X201613Y38100D03*
X207963Y38100D03*
X147638Y284163D03*
X250825Y233363D03*
X411163Y125413D03*
X441325Y193675D03*
X385763Y206375D03*
X396875Y82550D03*
X250825Y127000D03*
X309563Y44450D03*
X176213Y233363D03*
X136525Y312738D03*
X280988Y155575D03*
X350838Y44450D03*
X247650Y322263D03*
X231775Y328613D03*
X277813Y274638D03*
X285750Y28575D03*
X441325Y11113D03*
X387350Y396875D03*
X393700Y396875D03*
X195263Y44450D03*
X201613Y44450D03*
X207963Y44450D03*
X207963Y31750D03*
X122238Y141288D03*
X115888Y123825D03*
X92075Y58738D03*
X80963Y58738D03*
X161925Y100013D03*
X69850Y293688D03*
X69850Y71438D03*
X66675Y249238D03*
X52388Y306388D03*
X61913Y306388D03*
X49213Y258763D03*
X22225Y292100D03*
X95250Y98425D03*
X71438Y212725D03*
X303213Y77788D03*
X341313Y233363D03*
X11113Y377825D03*
X65088Y231775D03*
X55563Y250825D03*
X77788Y238125D03*
X17463Y319088D03*
X98425Y209550D03*
X92075Y215900D03*
X130175Y196850D03*
X84138Y220663D03*
X49213Y166688D03*
X88900Y257175D03*
X69850Y117475D03*
X69850Y98425D03*
X328613Y76200D03*
X336550Y285750D03*
X336550Y188913D03*
X341313Y254000D03*
X342900Y195263D03*
X230188Y101600D03*
X311150Y204788D03*
X141288Y230188D03*
X242888Y255588D03*
X69850Y107950D03*
X336550Y201613D03*
X173038Y196850D03*
X323850Y204788D03*
X304800Y96838D03*
X250825Y111125D03*
X249238Y174625D03*
X252413Y254000D03*
X168275Y263525D03*
X282575Y284163D03*
X263525Y261938D03*
X268288Y211138D03*
X42863Y306388D03*
X288925Y127000D03*
X71438Y319088D03*
X282575Y120650D03*
X25400Y357188D03*
X25400Y350838D03*
X438150Y403225D03*
X438150Y409575D03*
X257175Y322263D03*
X266700Y322263D03*
X288925Y334963D03*
X330200Y350838D03*
X361950Y261938D03*
X396875Y252413D03*
X160338Y288925D03*
X285750Y96838D03*
X230188Y263525D03*
X295275Y96838D03*
X198438Y265113D03*
X307975Y155575D03*
X103188Y319088D03*
X288925Y114300D03*
X127000Y309563D03*
X284163Y106363D03*
X277813Y293688D03*
X288925Y274638D03*
X300038Y274638D03*
X314325Y174625D03*
X244475Y273050D03*
X288925Y260350D03*
X307975Y180975D03*
X150813Y376238D03*
X338138Y76200D03*
X7938Y412750D03*
X369888Y179388D03*
X336550Y179388D03*
X112713Y158750D03*
X209550Y79375D03*
X103188Y158750D03*
X209550Y90488D03*
X23813Y49213D03*
X17463Y49213D03*
X11113Y49213D03*
X11113Y57150D03*
X17463Y57150D03*
X23813Y57150D03*
X179388Y334963D03*
X277813Y309563D03*
X387350Y428625D03*
X393700Y428625D03*
X411163Y247650D03*
X336550Y136525D03*
X336550Y146050D03*
X412750Y412750D03*
X419100Y412750D03*
X61913Y149225D03*
X274638Y220663D03*
X346075Y166688D03*
X255588Y41275D03*
X261938Y41275D03*
X268288Y41275D03*
X352425Y166688D03*
X104775Y98425D03*
X114300Y98425D03*
M02*
