G04 EAGLE Gerber RS-274X export*
G75*
%MOMM*%
%FSLAX34Y34*%
%LPD*%
%INSolderpaste Top*%
%IPPOS*%
%AMOC8*
5,1,8,0,0,1.08239X$1,22.5*%
G01*
%ADD10R,0.700000X0.900000*%
%ADD11R,0.900000X0.700000*%
%ADD12R,1.000000X1.100000*%
%ADD13R,1.270000X0.558800*%
%ADD14R,0.558800X1.270000*%
%ADD15R,2.160000X1.780000*%
%ADD16R,0.800000X0.800000*%
%ADD17R,2.800000X1.200000*%
%ADD18R,1.200000X1.400000*%
%ADD19R,1.500000X1.300000*%
%ADD20R,2.400000X1.800000*%
%ADD21R,1.000000X1.400000*%
%ADD22R,0.600000X2.200000*%
%ADD23R,1.500000X0.350000*%
%ADD24R,0.350000X1.500000*%
%ADD25R,1.400000X1.200000*%
%ADD26R,1.500000X2.100000*%
%ADD27R,1.400000X1.000000*%
%ADD28R,1.600200X1.168400*%
%ADD29R,0.260000X0.560000*%
%ADD30R,0.560000X0.260000*%
%ADD31R,0.400000X0.400000*%
%ADD32R,1.300000X1.500000*%
%ADD33R,0.400000X0.800000*%
%ADD34R,0.700000X0.300000*%
%ADD35R,2.235200X1.219200*%
%ADD36R,2.200000X3.600000*%
%ADD37R,2.700000X1.600000*%
%ADD38R,0.900000X0.600000*%


D10*
X23963Y238125D03*
X10963Y238125D03*
D11*
X136525Y220813D03*
X136525Y207813D03*
D10*
X84288Y306388D03*
X71288Y306388D03*
X27138Y165100D03*
X14138Y165100D03*
X127150Y295275D03*
X114150Y295275D03*
D12*
X29138Y195263D03*
X12138Y195263D03*
X37075Y282575D03*
X20075Y282575D03*
D10*
X10963Y249238D03*
X23963Y249238D03*
D12*
X29138Y179388D03*
X12138Y179388D03*
D10*
X100163Y295275D03*
X87163Y295275D03*
D11*
X136525Y279550D03*
X136525Y266550D03*
X136525Y252563D03*
X136525Y239563D03*
D10*
X23963Y260350D03*
X10963Y260350D03*
D11*
X22225Y381150D03*
X22225Y368150D03*
X7938Y400200D03*
X7938Y387200D03*
X34925Y368150D03*
X34925Y381150D03*
D13*
X36449Y266125D03*
X36449Y258125D03*
X36449Y250125D03*
X36449Y242125D03*
X36449Y234125D03*
X36449Y226125D03*
X36449Y218125D03*
X36449Y210125D03*
D14*
X51375Y195199D03*
X59375Y195199D03*
X67375Y195199D03*
X75375Y195199D03*
X83375Y195199D03*
X91375Y195199D03*
X99375Y195199D03*
X107375Y195199D03*
D13*
X122301Y210125D03*
X122301Y218125D03*
X122301Y226125D03*
X122301Y234125D03*
X122301Y242125D03*
X122301Y250125D03*
X122301Y258125D03*
X122301Y266125D03*
D14*
X107375Y281051D03*
X99375Y281051D03*
X91375Y281051D03*
X83375Y281051D03*
X75375Y281051D03*
X67375Y281051D03*
X59375Y281051D03*
X51375Y281051D03*
D10*
X166838Y174625D03*
X153838Y174625D03*
X153838Y123825D03*
X166838Y123825D03*
X153838Y112713D03*
X166838Y112713D03*
X10963Y215900D03*
X23963Y215900D03*
X20488Y142875D03*
X33488Y142875D03*
X20488Y120650D03*
X33488Y120650D03*
X33488Y131763D03*
X20488Y131763D03*
X296713Y44450D03*
X309713Y44450D03*
D15*
X53975Y53638D03*
X53975Y12938D03*
D11*
X441325Y166838D03*
X441325Y153838D03*
D16*
X441325Y176650D03*
X441325Y191650D03*
D17*
X17463Y105400D03*
X17463Y72400D03*
D10*
X45888Y295275D03*
X58888Y295275D03*
X20488Y153988D03*
X33488Y153988D03*
D18*
X151838Y160225D03*
X151838Y138225D03*
X168838Y138225D03*
X168838Y160225D03*
D19*
X85725Y30138D03*
X85725Y11138D03*
X147638Y47650D03*
X147638Y66650D03*
D20*
X17463Y13088D03*
X17463Y53588D03*
D21*
X31750Y417400D03*
X41250Y395400D03*
X22250Y395400D03*
D10*
X162075Y207963D03*
X149075Y207963D03*
X249388Y217488D03*
X236388Y217488D03*
X170013Y252413D03*
X157013Y252413D03*
X236388Y184150D03*
X249388Y184150D03*
X236388Y195263D03*
X249388Y195263D03*
X249388Y244475D03*
X236388Y244475D03*
X162075Y219075D03*
X149075Y219075D03*
D11*
X238125Y160188D03*
X238125Y173188D03*
D10*
X155425Y241300D03*
X168425Y241300D03*
X236388Y206375D03*
X249388Y206375D03*
X152250Y196850D03*
X165250Y196850D03*
X162075Y230188D03*
X149075Y230188D03*
X249388Y233363D03*
X236388Y233363D03*
D11*
X49213Y74463D03*
X49213Y87463D03*
X38100Y87463D03*
X38100Y74463D03*
X322263Y261788D03*
X322263Y274788D03*
X311150Y261788D03*
X311150Y274788D03*
X333375Y274788D03*
X333375Y261788D03*
D10*
X377675Y236538D03*
X390675Y236538D03*
D11*
X441325Y138263D03*
X441325Y125263D03*
X296863Y27138D03*
X296863Y14138D03*
X347663Y14138D03*
X347663Y27138D03*
D10*
X145900Y365125D03*
X158900Y365125D03*
D19*
X433388Y346100D03*
X433388Y365100D03*
D10*
X425600Y236538D03*
X412600Y236538D03*
X425300Y247650D03*
X438300Y247650D03*
D22*
X412750Y269275D03*
X412750Y321275D03*
X400050Y269275D03*
X425450Y269275D03*
X438150Y269275D03*
X400050Y321275D03*
X425450Y321275D03*
X438150Y321275D03*
D10*
X253850Y331788D03*
X266850Y331788D03*
D19*
X263525Y346100D03*
X263525Y365100D03*
X242888Y346100D03*
X242888Y365100D03*
D11*
X330200Y352275D03*
X330200Y365275D03*
D19*
X347663Y347100D03*
X347663Y364100D03*
X365125Y346100D03*
X365125Y365100D03*
D10*
X147488Y263525D03*
X160488Y263525D03*
D11*
X361950Y234800D03*
X361950Y247800D03*
D10*
X374500Y247650D03*
X387500Y247650D03*
D22*
X361950Y269275D03*
X361950Y321275D03*
X349250Y269275D03*
X374650Y269275D03*
X387350Y269275D03*
X349250Y321275D03*
X374650Y321275D03*
X387350Y321275D03*
D19*
X392113Y346100D03*
X392113Y365100D03*
D10*
X147488Y274638D03*
X160488Y274638D03*
D11*
X277813Y335113D03*
X277813Y322113D03*
D12*
X280988Y365688D03*
X280988Y348688D03*
D11*
X293688Y363688D03*
X293688Y350688D03*
D23*
X266075Y199700D03*
X266075Y194700D03*
X266075Y189700D03*
X266075Y184700D03*
X266075Y179700D03*
X266075Y174700D03*
X266075Y169700D03*
X266075Y164700D03*
X266075Y159700D03*
X266075Y154700D03*
X266075Y149700D03*
X266075Y144700D03*
X266075Y139700D03*
X266075Y134700D03*
X266075Y129700D03*
X266075Y124700D03*
X266075Y119700D03*
X266075Y114700D03*
X266075Y109700D03*
X266075Y104700D03*
X266075Y99700D03*
X266075Y94700D03*
X266075Y89700D03*
X266075Y84700D03*
X266075Y79700D03*
D24*
X286075Y59700D03*
X291075Y59700D03*
X296075Y59700D03*
X301075Y59700D03*
X306075Y59700D03*
X311075Y59700D03*
X316075Y59700D03*
X321075Y59700D03*
X326075Y59700D03*
X331075Y59700D03*
X336075Y59700D03*
X341075Y59700D03*
X346075Y59700D03*
X351075Y59700D03*
X356075Y59700D03*
X361075Y59700D03*
X366075Y59700D03*
X371075Y59700D03*
X376075Y59700D03*
X381075Y59700D03*
X386075Y59700D03*
X391075Y59700D03*
X396075Y59700D03*
X401075Y59700D03*
X406075Y59700D03*
D23*
X426075Y79700D03*
X426075Y84700D03*
X426075Y89700D03*
X426075Y94700D03*
X426075Y99700D03*
X426075Y104700D03*
X426075Y109700D03*
X426075Y114700D03*
X426075Y119700D03*
X426075Y124700D03*
X426075Y129700D03*
X426075Y134700D03*
X426075Y139700D03*
X426075Y144700D03*
X426075Y149700D03*
X426075Y154700D03*
X426075Y159700D03*
X426075Y164700D03*
X426075Y169700D03*
X426075Y174700D03*
X426075Y179700D03*
X426075Y184700D03*
X426075Y189700D03*
X426075Y194700D03*
X426075Y199700D03*
D24*
X406075Y219700D03*
X401075Y219700D03*
X396075Y219700D03*
X391075Y219700D03*
X386075Y219700D03*
X381075Y219700D03*
X376075Y219700D03*
X371075Y219700D03*
X366075Y219700D03*
X361075Y219700D03*
X356075Y219700D03*
X351075Y219700D03*
X346075Y219700D03*
X341075Y219700D03*
X336075Y219700D03*
X331075Y219700D03*
X326075Y219700D03*
X321075Y219700D03*
X316075Y219700D03*
X311075Y219700D03*
X306075Y219700D03*
X301075Y219700D03*
X296075Y219700D03*
X291075Y219700D03*
X286075Y219700D03*
D11*
X276225Y247800D03*
X276225Y234800D03*
D10*
X261788Y220663D03*
X274788Y220663D03*
D11*
X350838Y247800D03*
X350838Y234800D03*
D25*
X333263Y30725D03*
X311263Y30725D03*
X311263Y13725D03*
X333263Y13725D03*
D11*
X250825Y125563D03*
X250825Y112563D03*
D10*
X22075Y306388D03*
X35075Y306388D03*
X39838Y319088D03*
X26838Y319088D03*
D21*
X25400Y353900D03*
X34900Y331900D03*
X15900Y331900D03*
D10*
X50650Y319088D03*
X63650Y319088D03*
X63650Y330200D03*
X50650Y330200D03*
D21*
X57150Y366600D03*
X66650Y344600D03*
X47650Y344600D03*
D10*
X177650Y263525D03*
X190650Y263525D03*
X190650Y274638D03*
X177650Y274638D03*
D21*
X184150Y311038D03*
X193650Y289038D03*
X174650Y289038D03*
D10*
X209400Y263525D03*
X222400Y263525D03*
X222400Y274638D03*
X209400Y274638D03*
D21*
X215900Y311038D03*
X225400Y289038D03*
X206400Y289038D03*
D10*
X145900Y300038D03*
X158900Y300038D03*
X158900Y311150D03*
X145900Y311150D03*
D21*
X152400Y347550D03*
X161900Y325550D03*
X142900Y325550D03*
D10*
X82400Y319088D03*
X95400Y319088D03*
X95400Y330200D03*
X82400Y330200D03*
D21*
X88900Y366600D03*
X98400Y344600D03*
X79400Y344600D03*
D10*
X114150Y319088D03*
X127150Y319088D03*
X127150Y330200D03*
X114150Y330200D03*
D21*
X120650Y366600D03*
X130150Y344600D03*
X111150Y344600D03*
D26*
X214850Y360363D03*
X178850Y360363D03*
X214850Y334963D03*
X178850Y334963D03*
D11*
X300038Y274788D03*
X300038Y261788D03*
X288925Y274788D03*
X288925Y261788D03*
D10*
X336400Y44450D03*
X349400Y44450D03*
D11*
X7938Y435125D03*
X7938Y422125D03*
X7938Y445938D03*
X7938Y458938D03*
D27*
X44338Y454025D03*
X22338Y444525D03*
X22338Y463525D03*
D26*
X48163Y482600D03*
X12163Y482600D03*
D11*
X441325Y435125D03*
X441325Y422125D03*
X441325Y458938D03*
X441325Y445938D03*
D27*
X404925Y454025D03*
X426925Y463525D03*
X426925Y444525D03*
D26*
X402688Y482600D03*
X438688Y482600D03*
D10*
X234800Y79375D03*
X247800Y79375D03*
D16*
X224988Y79375D03*
X209988Y79375D03*
D10*
X234800Y90488D03*
X247800Y90488D03*
D16*
X224988Y90488D03*
X209988Y90488D03*
D11*
X441325Y79525D03*
X441325Y66525D03*
X441325Y42713D03*
X441325Y55713D03*
X441325Y103338D03*
X441325Y90338D03*
D10*
X250975Y312738D03*
X237975Y312738D03*
D19*
X412750Y365100D03*
X412750Y346100D03*
D28*
X390717Y397513D03*
X390717Y412753D03*
X390717Y427993D03*
D29*
X326944Y334150D03*
X321944Y334150D03*
X316944Y334150D03*
X311944Y334150D03*
X306944Y334150D03*
X301944Y334150D03*
X296944Y334150D03*
D30*
X288944Y326150D03*
X288944Y321150D03*
X288944Y316150D03*
X288944Y311150D03*
X288944Y306150D03*
X288944Y301150D03*
X288944Y296150D03*
D29*
X296944Y288150D03*
X301944Y288150D03*
X306944Y288150D03*
X311944Y288150D03*
X316944Y288150D03*
X321944Y288150D03*
X326944Y288150D03*
D30*
X334944Y296150D03*
X334944Y301150D03*
X334944Y306150D03*
X334944Y311150D03*
X334944Y316150D03*
X334944Y321150D03*
X334944Y326150D03*
D31*
X332944Y332150D03*
D13*
X135001Y100588D03*
X135001Y108588D03*
X135001Y116588D03*
X135001Y124588D03*
X135001Y132588D03*
X135001Y140588D03*
X135001Y148588D03*
X135001Y156588D03*
D14*
X120075Y171514D03*
X112075Y171514D03*
X104075Y171514D03*
X96075Y171514D03*
X88075Y171514D03*
X80075Y171514D03*
X72075Y171514D03*
X64075Y171514D03*
D13*
X49149Y156588D03*
X49149Y148588D03*
X49149Y140588D03*
X49149Y132588D03*
X49149Y124588D03*
X49149Y116588D03*
X49149Y108588D03*
X49149Y100588D03*
D14*
X64075Y85662D03*
X72075Y85662D03*
X80075Y85662D03*
X88075Y85662D03*
X96075Y85662D03*
X104075Y85662D03*
X112075Y85662D03*
X120075Y85662D03*
D10*
X10963Y227013D03*
X23963Y227013D03*
D32*
X260325Y298450D03*
X241325Y298450D03*
D33*
X304650Y350775D03*
X311150Y350775D03*
X317650Y350775D03*
X317650Y366775D03*
X311150Y366775D03*
X304650Y366775D03*
D11*
X277813Y295125D03*
X277813Y308125D03*
X277813Y274788D03*
X277813Y261788D03*
X285750Y27138D03*
X285750Y14138D03*
X441325Y12550D03*
X441325Y25550D03*
D28*
X415925Y427990D03*
X415925Y412750D03*
X415925Y397510D03*
D19*
X368300Y438175D03*
X368300Y457175D03*
D34*
X331850Y234800D03*
X331850Y241300D03*
X331850Y247800D03*
X315850Y247800D03*
X315850Y241300D03*
X315850Y234800D03*
X290450Y247800D03*
X290450Y241300D03*
X290450Y234800D03*
X306450Y234800D03*
X306450Y241300D03*
X306450Y247800D03*
D35*
X170625Y61214D03*
X170625Y38100D03*
X170625Y14986D03*
D36*
X232603Y38100D03*
D19*
X106363Y30138D03*
X106363Y11138D03*
D37*
X261938Y12988D03*
X261938Y40988D03*
D11*
X265113Y247800D03*
X265113Y234800D03*
X250825Y139550D03*
X250825Y152550D03*
D10*
X268438Y57150D03*
X255438Y57150D03*
D19*
X127000Y47650D03*
X127000Y66650D03*
X127000Y30138D03*
X127000Y11138D03*
X147638Y30138D03*
X147638Y11138D03*
D38*
X171838Y80988D03*
X171838Y90488D03*
X171838Y99988D03*
X148838Y99988D03*
X148838Y90488D03*
X148838Y80988D03*
D11*
X185738Y82400D03*
X185738Y95400D03*
X92075Y58588D03*
X92075Y71588D03*
X80963Y71588D03*
X80963Y58588D03*
X198438Y82400D03*
X198438Y95400D03*
D10*
X247800Y68263D03*
X234800Y68263D03*
M02*
