G04 EAGLE Gerber RS-274X export*
G75*
%MOMM*%
%FSLAX34Y34*%
%LPD*%
%INSilkscreen Top*%
%IPPOS*%
%AMOC8*
5,1,8,0,0,1.08239X$1,22.5*%
G01*
%ADD10C,0.152400*%
%ADD11R,0.300000X0.599900*%
%ADD12C,0.101600*%
%ADD13R,0.599900X0.300000*%
%ADD14R,0.406400X0.863600*%
%ADD15R,0.990600X0.457200*%
%ADD16R,0.457200X0.990600*%
%ADD17C,0.076200*%
%ADD18R,2.200000X0.550000*%
%ADD19R,3.810000X0.635000*%
%ADD20C,0.127000*%
%ADD21R,0.225000X0.400000*%
%ADD22R,0.225000X0.250000*%
%ADD23R,2.500000X0.700000*%
%ADD24C,0.100000*%
%ADD25R,1.450100X0.750100*%
%ADD26C,0.203200*%
%ADD27R,2.200000X0.650000*%
%ADD28R,2.450000X0.675000*%
%ADD29R,0.457200X0.584200*%
%ADD30R,1.400000X0.650000*%
%ADD31R,0.490200X1.100100*%
%ADD32R,0.950000X0.500100*%
%ADD33C,0.254000*%
%ADD34R,1.049900X0.300300*%
%ADD35R,1.049900X0.300100*%
%ADD36R,0.300300X1.049900*%
%ADD37R,0.300100X1.049900*%
%ADD38R,0.362500X1.800000*%
%ADD39R,0.362400X1.800000*%
%ADD40R,0.584200X0.457200*%
%ADD41R,0.400000X0.225000*%
%ADD42R,0.250000X0.225000*%
%ADD43R,1.524000X1.016000*%
%ADD44C,0.120000*%
%ADD45C,0.381000*%
%ADD46R,0.230000X0.515000*%
%ADD47R,0.515000X0.230000*%
%ADD48R,0.508000X0.508000*%
%ADD49R,0.750100X1.450100*%
%ADD50C,0.300000*%
%ADD51R,0.300000X0.500000*%
%ADD52R,0.500000X0.300000*%
%ADD53R,1.854200X3.200400*%
%ADD54R,1.854200X0.863600*%
%ADD55R,2.599900X0.750100*%
%ADD56C,0.200000*%
%ADD57R,0.600000X0.500000*%

G36*
X330983Y132501D02*
X330983Y132501D01*
X330992Y132500D01*
X331080Y132521D01*
X331170Y132539D01*
X331177Y132544D01*
X331185Y132546D01*
X331258Y132600D01*
X331334Y132652D01*
X331338Y132659D01*
X331345Y132664D01*
X331392Y132742D01*
X331441Y132819D01*
X331442Y132828D01*
X331447Y132835D01*
X331474Y132999D01*
X331474Y155500D01*
X376974Y155500D01*
X376982Y155501D01*
X376991Y155500D01*
X377079Y155521D01*
X377169Y155539D01*
X377176Y155544D01*
X377184Y155546D01*
X377257Y155600D01*
X377333Y155652D01*
X377337Y155659D01*
X377344Y155664D01*
X377391Y155742D01*
X377440Y155819D01*
X377441Y155828D01*
X377446Y155835D01*
X377473Y155999D01*
X377473Y160000D01*
X377472Y160008D01*
X377473Y160017D01*
X377452Y160105D01*
X377434Y160195D01*
X377429Y160202D01*
X377427Y160210D01*
X377373Y160283D01*
X377321Y160359D01*
X377314Y160363D01*
X377309Y160370D01*
X377231Y160417D01*
X377154Y160466D01*
X377145Y160467D01*
X377138Y160472D01*
X376974Y160499D01*
X320975Y160499D01*
X320884Y160481D01*
X320794Y160465D01*
X320787Y160461D01*
X320780Y160460D01*
X320704Y160407D01*
X320627Y160358D01*
X320622Y160351D01*
X320616Y160347D01*
X320597Y160317D01*
X320528Y160223D01*
X318529Y156222D01*
X318523Y156199D01*
X318510Y156179D01*
X318498Y156104D01*
X318478Y156030D01*
X318481Y156006D01*
X318477Y155982D01*
X318495Y155909D01*
X318505Y155833D01*
X318518Y155812D01*
X318523Y155789D01*
X318568Y155728D01*
X318607Y155663D01*
X318627Y155648D01*
X318641Y155629D01*
X318706Y155590D01*
X318768Y155545D01*
X318791Y155540D01*
X318812Y155527D01*
X318927Y155508D01*
X318961Y155500D01*
X318968Y155501D01*
X318976Y155500D01*
X326475Y155500D01*
X326475Y132999D01*
X326476Y132991D01*
X326475Y132982D01*
X326496Y132894D01*
X326514Y132804D01*
X326519Y132797D01*
X326521Y132789D01*
X326575Y132716D01*
X326627Y132640D01*
X326634Y132636D01*
X326639Y132629D01*
X326717Y132582D01*
X326794Y132533D01*
X326803Y132532D01*
X326810Y132527D01*
X326974Y132500D01*
X330975Y132500D01*
X330983Y132501D01*
G37*
G36*
X371066Y126519D02*
X371066Y126519D01*
X371156Y126535D01*
X371162Y126539D01*
X371170Y126540D01*
X371246Y126593D01*
X371323Y126642D01*
X371328Y126649D01*
X371334Y126653D01*
X371353Y126683D01*
X371422Y126777D01*
X373423Y130778D01*
X373428Y130799D01*
X373438Y130814D01*
X373439Y130816D01*
X373442Y130821D01*
X373454Y130896D01*
X373474Y130970D01*
X373471Y130994D01*
X373475Y131018D01*
X373457Y131091D01*
X373447Y131167D01*
X373435Y131187D01*
X373429Y131211D01*
X373384Y131272D01*
X373345Y131337D01*
X373325Y131352D01*
X373311Y131371D01*
X373246Y131410D01*
X373184Y131455D01*
X373161Y131460D01*
X373140Y131473D01*
X373026Y131492D01*
X372991Y131500D01*
X372984Y131499D01*
X372976Y131500D01*
X307975Y131500D01*
X307967Y131499D01*
X307958Y131500D01*
X307870Y131479D01*
X307780Y131461D01*
X307773Y131456D01*
X307765Y131454D01*
X307692Y131400D01*
X307616Y131348D01*
X307612Y131341D01*
X307605Y131336D01*
X307558Y131258D01*
X307509Y131181D01*
X307508Y131172D01*
X307503Y131165D01*
X307476Y131001D01*
X307476Y127000D01*
X307477Y126992D01*
X307476Y126983D01*
X307497Y126895D01*
X307515Y126805D01*
X307520Y126798D01*
X307522Y126790D01*
X307576Y126717D01*
X307628Y126641D01*
X307635Y126637D01*
X307640Y126630D01*
X307718Y126583D01*
X307795Y126534D01*
X307804Y126533D01*
X307811Y126528D01*
X307975Y126501D01*
X370975Y126501D01*
X371066Y126519D01*
G37*
G36*
X337983Y132501D02*
X337983Y132501D01*
X337992Y132500D01*
X338080Y132521D01*
X338170Y132539D01*
X338177Y132544D01*
X338185Y132546D01*
X338258Y132600D01*
X338334Y132652D01*
X338338Y132659D01*
X338345Y132664D01*
X338392Y132742D01*
X338441Y132819D01*
X338442Y132828D01*
X338447Y132835D01*
X338474Y132999D01*
X338474Y150501D01*
X339475Y150501D01*
X339475Y132999D01*
X339476Y132991D01*
X339475Y132982D01*
X339496Y132894D01*
X339514Y132804D01*
X339519Y132797D01*
X339521Y132789D01*
X339575Y132716D01*
X339627Y132640D01*
X339634Y132636D01*
X339639Y132629D01*
X339717Y132582D01*
X339794Y132533D01*
X339803Y132532D01*
X339810Y132527D01*
X339974Y132500D01*
X343974Y132500D01*
X343982Y132501D01*
X343991Y132500D01*
X344079Y132521D01*
X344169Y132539D01*
X344176Y132544D01*
X344184Y132546D01*
X344257Y132600D01*
X344333Y132652D01*
X344337Y132659D01*
X344344Y132664D01*
X344391Y132742D01*
X344440Y132819D01*
X344441Y132828D01*
X344446Y132835D01*
X344473Y132999D01*
X344473Y150501D01*
X345477Y150501D01*
X345477Y132999D01*
X345478Y132991D01*
X345477Y132982D01*
X345498Y132894D01*
X345516Y132804D01*
X345521Y132797D01*
X345523Y132789D01*
X345577Y132716D01*
X345629Y132640D01*
X345636Y132636D01*
X345641Y132629D01*
X345719Y132582D01*
X345796Y132533D01*
X345805Y132532D01*
X345812Y132527D01*
X345976Y132500D01*
X349974Y132500D01*
X349982Y132501D01*
X349991Y132500D01*
X350079Y132521D01*
X350169Y132539D01*
X350176Y132544D01*
X350184Y132546D01*
X350257Y132600D01*
X350333Y132652D01*
X350337Y132659D01*
X350344Y132664D01*
X350391Y132742D01*
X350440Y132819D01*
X350441Y132828D01*
X350446Y132835D01*
X350473Y132999D01*
X350473Y148999D01*
X350467Y149031D01*
X350469Y149063D01*
X350442Y149151D01*
X350434Y149194D01*
X350426Y149205D01*
X350421Y149222D01*
X349423Y151223D01*
X349410Y151240D01*
X349329Y151353D01*
X348328Y152354D01*
X348309Y152366D01*
X348198Y152448D01*
X346199Y153446D01*
X346168Y153454D01*
X346140Y153471D01*
X346050Y153486D01*
X346007Y153497D01*
X345993Y153495D01*
X345976Y153498D01*
X333974Y153498D01*
X333966Y153497D01*
X333957Y153498D01*
X333869Y153477D01*
X333779Y153459D01*
X333772Y153454D01*
X333764Y153452D01*
X333691Y153398D01*
X333615Y153346D01*
X333611Y153339D01*
X333604Y153334D01*
X333557Y153256D01*
X333508Y153179D01*
X333507Y153170D01*
X333502Y153163D01*
X333475Y152999D01*
X333475Y132999D01*
X333476Y132991D01*
X333475Y132982D01*
X333496Y132894D01*
X333514Y132804D01*
X333519Y132797D01*
X333521Y132789D01*
X333575Y132716D01*
X333627Y132640D01*
X333634Y132636D01*
X333639Y132629D01*
X333717Y132582D01*
X333794Y132533D01*
X333803Y132532D01*
X333810Y132527D01*
X333974Y132500D01*
X337975Y132500D01*
X337983Y132501D01*
G37*
G36*
X364983Y132501D02*
X364983Y132501D01*
X364992Y132500D01*
X365080Y132521D01*
X365170Y132539D01*
X365177Y132544D01*
X365185Y132546D01*
X365258Y132600D01*
X365334Y132652D01*
X365338Y132659D01*
X365345Y132664D01*
X365392Y132742D01*
X365441Y132819D01*
X365442Y132828D01*
X365447Y132835D01*
X365474Y132999D01*
X365474Y138999D01*
X365473Y139003D01*
X365474Y139007D01*
X365473Y139010D01*
X365474Y139016D01*
X365453Y139104D01*
X365435Y139194D01*
X365430Y139201D01*
X365428Y139209D01*
X365374Y139282D01*
X365322Y139358D01*
X365315Y139362D01*
X365310Y139369D01*
X365232Y139416D01*
X365155Y139465D01*
X365146Y139466D01*
X365139Y139471D01*
X364975Y139498D01*
X355474Y139498D01*
X355474Y140501D01*
X364975Y140501D01*
X364983Y140502D01*
X364992Y140501D01*
X365080Y140522D01*
X365170Y140540D01*
X365177Y140545D01*
X365185Y140547D01*
X365258Y140601D01*
X365334Y140653D01*
X365338Y140660D01*
X365345Y140665D01*
X365392Y140743D01*
X365441Y140820D01*
X365442Y140829D01*
X365447Y140836D01*
X365474Y141000D01*
X365474Y145001D01*
X365473Y145009D01*
X365474Y145018D01*
X365453Y145106D01*
X365435Y145196D01*
X365430Y145203D01*
X365428Y145211D01*
X365374Y145284D01*
X365322Y145360D01*
X365315Y145364D01*
X365310Y145371D01*
X365232Y145418D01*
X365155Y145467D01*
X365146Y145468D01*
X365139Y145473D01*
X364975Y145500D01*
X355474Y145500D01*
X355474Y146501D01*
X364975Y146501D01*
X364983Y146502D01*
X364992Y146501D01*
X365080Y146522D01*
X365170Y146540D01*
X365177Y146545D01*
X365185Y146547D01*
X365258Y146601D01*
X365334Y146653D01*
X365338Y146660D01*
X365345Y146665D01*
X365392Y146743D01*
X365441Y146820D01*
X365442Y146829D01*
X365447Y146836D01*
X365474Y147000D01*
X365474Y152999D01*
X365473Y153007D01*
X365474Y153016D01*
X365453Y153104D01*
X365435Y153194D01*
X365430Y153201D01*
X365428Y153209D01*
X365374Y153282D01*
X365322Y153358D01*
X365315Y153362D01*
X365310Y153369D01*
X365232Y153416D01*
X365155Y153465D01*
X365146Y153466D01*
X365139Y153471D01*
X364975Y153498D01*
X352976Y153498D01*
X352968Y153497D01*
X352959Y153498D01*
X352871Y153477D01*
X352781Y153459D01*
X352774Y153454D01*
X352766Y153452D01*
X352693Y153398D01*
X352617Y153346D01*
X352613Y153339D01*
X352606Y153334D01*
X352559Y153256D01*
X352510Y153179D01*
X352509Y153170D01*
X352504Y153163D01*
X352477Y152999D01*
X352477Y132999D01*
X352478Y132991D01*
X352477Y132982D01*
X352498Y132894D01*
X352516Y132804D01*
X352521Y132797D01*
X352523Y132789D01*
X352577Y132716D01*
X352629Y132640D01*
X352636Y132636D01*
X352641Y132629D01*
X352719Y132582D01*
X352796Y132533D01*
X352805Y132532D01*
X352812Y132527D01*
X352976Y132500D01*
X364975Y132500D01*
X364983Y132501D01*
G37*
G36*
X315984Y132501D02*
X315984Y132501D01*
X315993Y132500D01*
X316081Y132521D01*
X316171Y132539D01*
X316178Y132544D01*
X316186Y132546D01*
X316259Y132600D01*
X316335Y132652D01*
X316339Y132659D01*
X316346Y132664D01*
X316393Y132742D01*
X316442Y132819D01*
X316443Y132828D01*
X316448Y132835D01*
X316475Y132999D01*
X316475Y135001D01*
X316474Y135007D01*
X316475Y135013D01*
X316474Y135015D01*
X316475Y135018D01*
X316454Y135106D01*
X316436Y135196D01*
X316431Y135203D01*
X316429Y135211D01*
X316375Y135284D01*
X316323Y135360D01*
X316316Y135364D01*
X316311Y135371D01*
X316233Y135418D01*
X316156Y135467D01*
X316147Y135468D01*
X316140Y135473D01*
X315976Y135500D01*
X314782Y135500D01*
X319475Y144885D01*
X319475Y132999D01*
X319476Y132991D01*
X319475Y132982D01*
X319496Y132894D01*
X319514Y132804D01*
X319519Y132797D01*
X319521Y132789D01*
X319575Y132716D01*
X319627Y132640D01*
X319634Y132636D01*
X319639Y132629D01*
X319717Y132582D01*
X319794Y132533D01*
X319803Y132532D01*
X319810Y132527D01*
X319974Y132500D01*
X323974Y132500D01*
X323982Y132501D01*
X323991Y132500D01*
X324079Y132521D01*
X324169Y132539D01*
X324176Y132544D01*
X324184Y132546D01*
X324257Y132600D01*
X324333Y132652D01*
X324337Y132659D01*
X324344Y132664D01*
X324391Y132742D01*
X324440Y132819D01*
X324441Y132828D01*
X324446Y132835D01*
X324473Y132999D01*
X324473Y152999D01*
X324472Y153007D01*
X324473Y153016D01*
X324452Y153104D01*
X324434Y153194D01*
X324429Y153201D01*
X324427Y153209D01*
X324373Y153282D01*
X324321Y153358D01*
X324314Y153362D01*
X324309Y153369D01*
X324231Y153416D01*
X324154Y153465D01*
X324145Y153466D01*
X324138Y153471D01*
X323974Y153498D01*
X317975Y153498D01*
X317885Y153480D01*
X317794Y153464D01*
X317788Y153460D01*
X317780Y153459D01*
X317704Y153406D01*
X317627Y153357D01*
X317622Y153350D01*
X317616Y153346D01*
X317597Y153316D01*
X317528Y153222D01*
X307528Y133222D01*
X307522Y133199D01*
X307509Y133179D01*
X307497Y133104D01*
X307477Y133030D01*
X307480Y133006D01*
X307476Y132982D01*
X307494Y132909D01*
X307504Y132833D01*
X307516Y132813D01*
X307522Y132789D01*
X307567Y132728D01*
X307606Y132663D01*
X307626Y132648D01*
X307640Y132629D01*
X307705Y132590D01*
X307767Y132545D01*
X307790Y132540D01*
X307811Y132527D01*
X307925Y132508D01*
X307960Y132500D01*
X307967Y132501D01*
X307975Y132500D01*
X315976Y132500D01*
X315984Y132501D01*
G37*
G36*
X374064Y132518D02*
X374064Y132518D01*
X374155Y132534D01*
X374161Y132538D01*
X374169Y132539D01*
X374245Y132592D01*
X374322Y132641D01*
X374327Y132648D01*
X374333Y132652D01*
X374352Y132682D01*
X374420Y132776D01*
X376422Y136777D01*
X376428Y136797D01*
X376438Y136813D01*
X376439Y136815D01*
X376442Y136820D01*
X376455Y136895D01*
X376474Y136969D01*
X376471Y136993D01*
X376475Y137017D01*
X376457Y137090D01*
X376447Y137166D01*
X376435Y137186D01*
X376429Y137210D01*
X376384Y137271D01*
X376345Y137336D01*
X376325Y137351D01*
X376311Y137370D01*
X376246Y137409D01*
X376185Y137454D01*
X376161Y137459D01*
X376140Y137472D01*
X376026Y137491D01*
X375991Y137499D01*
X375984Y137498D01*
X375976Y137499D01*
X372474Y137499D01*
X372474Y152999D01*
X372473Y153007D01*
X372474Y153016D01*
X372453Y153104D01*
X372435Y153194D01*
X372430Y153201D01*
X372428Y153209D01*
X372374Y153282D01*
X372322Y153358D01*
X372315Y153362D01*
X372310Y153369D01*
X372232Y153416D01*
X372155Y153465D01*
X372146Y153466D01*
X372139Y153471D01*
X371975Y153498D01*
X367975Y153498D01*
X367967Y153497D01*
X367958Y153498D01*
X367870Y153477D01*
X367780Y153459D01*
X367773Y153454D01*
X367765Y153452D01*
X367692Y153398D01*
X367616Y153346D01*
X367612Y153339D01*
X367605Y153334D01*
X367558Y153256D01*
X367509Y153179D01*
X367508Y153170D01*
X367503Y153163D01*
X367476Y152999D01*
X367476Y132999D01*
X367477Y132991D01*
X367476Y132982D01*
X367497Y132894D01*
X367515Y132804D01*
X367520Y132797D01*
X367522Y132789D01*
X367576Y132716D01*
X367628Y132640D01*
X367635Y132636D01*
X367640Y132629D01*
X367718Y132582D01*
X367795Y132533D01*
X367804Y132532D01*
X367811Y132527D01*
X367975Y132500D01*
X373974Y132500D01*
X374064Y132518D01*
G37*
D10*
X19913Y235885D02*
X15013Y235885D01*
X15013Y240365D02*
X19913Y240365D01*
D11*
X21503Y238174D03*
X13375Y238174D03*
D12*
X-14660Y229328D02*
X-16609Y231277D01*
X-20507Y231277D01*
X-22455Y229328D01*
X-22455Y221532D01*
X-20507Y219583D01*
X-16609Y219583D01*
X-14660Y221532D01*
X-10762Y227379D02*
X-6864Y231277D01*
X-6864Y219583D01*
X-10762Y219583D02*
X-2966Y219583D01*
X932Y221532D02*
X932Y229328D01*
X2881Y231277D01*
X6779Y231277D01*
X8728Y229328D01*
X8728Y221532D01*
X6779Y219583D01*
X2881Y219583D01*
X932Y221532D01*
X8728Y229328D01*
X12626Y231277D02*
X20422Y231277D01*
X20422Y229328D01*
X12626Y221532D01*
X12626Y219583D01*
D10*
X138765Y216763D02*
X138765Y211863D01*
X134285Y211863D02*
X134285Y216763D01*
D13*
X136477Y218353D03*
X136477Y210225D03*
D12*
X145322Y193885D02*
X143373Y191936D01*
X143373Y188038D01*
X145322Y186089D01*
X153118Y186089D01*
X155067Y188038D01*
X155067Y191936D01*
X153118Y193885D01*
X147271Y197783D02*
X143373Y201680D01*
X155067Y201680D01*
X155067Y197783D02*
X155067Y205578D01*
X145322Y213374D02*
X143373Y217272D01*
X145322Y213374D02*
X149220Y209476D01*
X153118Y209476D01*
X155067Y211425D01*
X155067Y215323D01*
X153118Y217272D01*
X151169Y217272D01*
X149220Y215323D01*
X149220Y209476D01*
D10*
X80238Y304148D02*
X75338Y304148D01*
X75338Y308628D02*
X80238Y308628D01*
D11*
X81828Y306436D03*
X73700Y306436D03*
D12*
X57360Y297590D02*
X55411Y299539D01*
X51513Y299539D01*
X49564Y297590D01*
X49564Y289794D01*
X51513Y287846D01*
X55411Y287846D01*
X57360Y289794D01*
X61258Y287846D02*
X69053Y287846D01*
X61258Y287846D02*
X69053Y295641D01*
X69053Y297590D01*
X67104Y299539D01*
X63206Y299539D01*
X61258Y297590D01*
X72951Y299539D02*
X80747Y299539D01*
X72951Y299539D02*
X72951Y293692D01*
X76849Y295641D01*
X78798Y295641D01*
X80747Y293692D01*
X80747Y289794D01*
X78798Y287846D01*
X74900Y287846D01*
X72951Y289794D01*
D10*
X23088Y162860D02*
X18188Y162860D01*
X18188Y167340D02*
X23088Y167340D01*
D11*
X24678Y165149D03*
X16550Y165149D03*
D12*
X210Y156303D02*
X-1740Y158252D01*
X-5638Y158252D01*
X-7586Y156303D01*
X-7586Y148507D01*
X-5638Y146558D01*
X-1740Y146558D01*
X210Y148507D01*
X8005Y156303D02*
X11903Y158252D01*
X8005Y156303D02*
X4108Y152405D01*
X4108Y148507D01*
X6056Y146558D01*
X9954Y146558D01*
X11903Y148507D01*
X11903Y150456D01*
X9954Y152405D01*
X4108Y152405D01*
X15801Y158252D02*
X23597Y158252D01*
X15801Y158252D02*
X15801Y152405D01*
X19699Y154354D01*
X21648Y154354D01*
X23597Y152405D01*
X23597Y148507D01*
X21648Y146558D01*
X17750Y146558D01*
X15801Y148507D01*
D10*
X118200Y293035D02*
X123100Y293035D01*
X123100Y297515D02*
X118200Y297515D01*
D11*
X124690Y295324D03*
X116562Y295324D03*
D12*
X100222Y286478D02*
X98273Y288427D01*
X94375Y288427D01*
X92426Y286478D01*
X92426Y278682D01*
X94375Y276733D01*
X98273Y276733D01*
X100222Y278682D01*
X108018Y286478D02*
X111916Y288427D01*
X108018Y286478D02*
X104120Y282580D01*
X104120Y278682D01*
X106069Y276733D01*
X109967Y276733D01*
X111916Y278682D01*
X111916Y280631D01*
X109967Y282580D01*
X104120Y282580D01*
X119712Y286478D02*
X123610Y288427D01*
X119712Y286478D02*
X115814Y282580D01*
X115814Y278682D01*
X117763Y276733D01*
X121661Y276733D01*
X123610Y278682D01*
X123610Y280631D01*
X121661Y282580D01*
X115814Y282580D01*
D10*
X24958Y198823D02*
X16318Y198823D01*
X16318Y191703D02*
X24958Y191703D01*
D14*
X14288Y195263D03*
X26988Y195263D03*
D12*
X-19280Y188414D02*
X-19280Y176721D01*
X-19280Y188414D02*
X-13434Y188414D01*
X-11485Y186465D01*
X-11485Y182567D01*
X-13434Y180618D01*
X-19280Y180618D01*
X-15383Y180618D02*
X-11485Y176721D01*
X-7587Y184516D02*
X-3689Y188414D01*
X-3689Y176721D01*
X-7587Y176721D02*
X209Y176721D01*
X4107Y178669D02*
X4107Y186465D01*
X6056Y188414D01*
X9954Y188414D01*
X11903Y186465D01*
X11903Y178669D01*
X9954Y176721D01*
X6056Y176721D01*
X4107Y178669D01*
X11903Y186465D01*
X15801Y176721D02*
X23597Y176721D01*
X23597Y184516D02*
X15801Y176721D01*
X23597Y184516D02*
X23597Y186465D01*
X21648Y188414D01*
X17750Y188414D01*
X15801Y186465D01*
D10*
X24255Y286135D02*
X32895Y286135D01*
X32895Y279015D02*
X24255Y279015D01*
D14*
X22225Y282575D03*
X34925Y282575D03*
D12*
X-11343Y275727D02*
X-11343Y264033D01*
X-11343Y275727D02*
X-5496Y275727D01*
X-3547Y273778D01*
X-3547Y269880D01*
X-5496Y267931D01*
X-11343Y267931D01*
X-7445Y267931D02*
X-3547Y264033D01*
X351Y271829D02*
X4249Y275727D01*
X4249Y264033D01*
X351Y264033D02*
X8147Y264033D01*
X12045Y265982D02*
X12045Y273778D01*
X13994Y275727D01*
X17892Y275727D01*
X19841Y273778D01*
X19841Y265982D01*
X17892Y264033D01*
X13994Y264033D01*
X12045Y265982D01*
X19841Y273778D01*
X23739Y273778D02*
X25688Y275727D01*
X29586Y275727D01*
X31535Y273778D01*
X31535Y271829D01*
X29586Y269880D01*
X27637Y269880D01*
X29586Y269880D02*
X31535Y267931D01*
X31535Y265982D01*
X29586Y264033D01*
X25688Y264033D01*
X23739Y265982D01*
D10*
X19913Y251478D02*
X15013Y251478D01*
X15013Y246998D02*
X19913Y246998D01*
D11*
X13423Y249189D03*
X21551Y249189D03*
D12*
X11621Y256096D02*
X11621Y267789D01*
X17467Y267789D01*
X19416Y265840D01*
X19416Y261942D01*
X17467Y259993D01*
X11621Y259993D01*
X15518Y259993D02*
X19416Y256096D01*
X23314Y263891D02*
X27212Y267789D01*
X27212Y256096D01*
X23314Y256096D02*
X31110Y256096D01*
X35008Y258044D02*
X35008Y265840D01*
X36957Y267789D01*
X40855Y267789D01*
X42804Y265840D01*
X42804Y258044D01*
X40855Y256096D01*
X36957Y256096D01*
X35008Y258044D01*
X42804Y265840D01*
X52549Y267789D02*
X52549Y256096D01*
X46702Y261942D02*
X52549Y267789D01*
X54498Y261942D02*
X46702Y261942D01*
D10*
X24958Y182948D02*
X16318Y182948D01*
X16318Y175828D02*
X24958Y175828D01*
D14*
X14288Y179388D03*
X26988Y179388D03*
D12*
X-19280Y172539D02*
X-19280Y160846D01*
X-19280Y172539D02*
X-13434Y172539D01*
X-11485Y170590D01*
X-11485Y166692D01*
X-13434Y164743D01*
X-19280Y164743D01*
X-15383Y164743D02*
X-11485Y160846D01*
X-7587Y168641D02*
X-3689Y172539D01*
X-3689Y160846D01*
X-7587Y160846D02*
X209Y160846D01*
X4107Y162794D02*
X4107Y170590D01*
X6056Y172539D01*
X9954Y172539D01*
X11903Y170590D01*
X11903Y162794D01*
X9954Y160846D01*
X6056Y160846D01*
X4107Y162794D01*
X11903Y170590D01*
X15801Y172539D02*
X23597Y172539D01*
X15801Y172539D02*
X15801Y166692D01*
X19699Y168641D01*
X21648Y168641D01*
X23597Y166692D01*
X23597Y162794D01*
X21648Y160846D01*
X17750Y160846D01*
X15801Y162794D01*
D10*
X91213Y293035D02*
X96113Y293035D01*
X96113Y297515D02*
X91213Y297515D01*
D11*
X97703Y295324D03*
X89575Y295324D03*
D12*
X53745Y288427D02*
X53745Y276733D01*
X53745Y288427D02*
X59592Y288427D01*
X61541Y286478D01*
X61541Y282580D01*
X59592Y280631D01*
X53745Y280631D01*
X57643Y280631D02*
X61541Y276733D01*
X65439Y284529D02*
X69336Y288427D01*
X69336Y276733D01*
X65439Y276733D02*
X73234Y276733D01*
X77132Y278682D02*
X77132Y286478D01*
X79081Y288427D01*
X82979Y288427D01*
X84928Y286478D01*
X84928Y278682D01*
X82979Y276733D01*
X79081Y276733D01*
X77132Y278682D01*
X84928Y286478D01*
X88826Y288427D02*
X96622Y288427D01*
X96622Y286478D01*
X88826Y278682D01*
X88826Y276733D01*
D10*
X138765Y275500D02*
X138765Y270600D01*
X134285Y270600D02*
X134285Y275500D01*
D13*
X136477Y277090D03*
X136477Y268962D03*
D12*
X143373Y233132D02*
X155067Y233132D01*
X143373Y233132D02*
X143373Y238979D01*
X145322Y240928D01*
X149220Y240928D01*
X151169Y238979D01*
X151169Y233132D01*
X151169Y237030D02*
X155067Y240928D01*
X147271Y244826D02*
X143373Y248724D01*
X155067Y248724D01*
X155067Y244826D02*
X155067Y252622D01*
X153118Y256520D02*
X145322Y256520D01*
X143373Y258469D01*
X143373Y262367D01*
X145322Y264316D01*
X153118Y264316D01*
X155067Y262367D01*
X155067Y258469D01*
X153118Y256520D01*
X145322Y264316D01*
X145322Y268214D02*
X143373Y270163D01*
X143373Y274061D01*
X145322Y276010D01*
X147271Y276010D01*
X149220Y274061D01*
X151169Y276010D01*
X153118Y276010D01*
X155067Y274061D01*
X155067Y270163D01*
X153118Y268214D01*
X151169Y268214D01*
X149220Y270163D01*
X147271Y268214D01*
X145322Y268214D01*
X149220Y270163D02*
X149220Y274061D01*
D10*
X138765Y248513D02*
X138765Y243613D01*
X134285Y243613D02*
X134285Y248513D01*
D13*
X136477Y250103D03*
X136477Y241975D03*
D12*
X143373Y206145D02*
X155067Y206145D01*
X143373Y206145D02*
X143373Y211992D01*
X145322Y213941D01*
X149220Y213941D01*
X151169Y211992D01*
X151169Y206145D01*
X151169Y210043D02*
X155067Y213941D01*
X147271Y217839D02*
X143373Y221736D01*
X155067Y221736D01*
X155067Y217839D02*
X155067Y225634D01*
X153118Y229532D02*
X145322Y229532D01*
X143373Y231481D01*
X143373Y235379D01*
X145322Y237328D01*
X153118Y237328D01*
X155067Y235379D01*
X155067Y231481D01*
X153118Y229532D01*
X145322Y237328D01*
X153118Y241226D02*
X155067Y243175D01*
X155067Y247073D01*
X153118Y249022D01*
X145322Y249022D01*
X143373Y247073D01*
X143373Y243175D01*
X145322Y241226D01*
X147271Y241226D01*
X149220Y243175D01*
X149220Y249022D01*
D10*
X19913Y258110D02*
X15013Y258110D01*
X15013Y262590D02*
X19913Y262590D01*
D11*
X21503Y260399D03*
X13375Y260399D03*
D12*
X-22455Y253502D02*
X-22455Y241808D01*
X-22455Y253502D02*
X-16609Y253502D01*
X-14660Y251553D01*
X-14660Y247655D01*
X-16609Y245706D01*
X-22455Y245706D01*
X-18558Y245706D02*
X-14660Y241808D01*
X-10762Y249604D02*
X-6864Y253502D01*
X-6864Y241808D01*
X-10762Y241808D02*
X-2966Y241808D01*
X932Y249604D02*
X4830Y253502D01*
X4830Y241808D01*
X932Y241808D02*
X8728Y241808D01*
X12626Y243757D02*
X12626Y251553D01*
X14575Y253502D01*
X18473Y253502D01*
X20422Y251553D01*
X20422Y243757D01*
X18473Y241808D01*
X14575Y241808D01*
X12626Y243757D01*
X20422Y251553D01*
D10*
X24465Y372200D02*
X24465Y377100D01*
X19985Y377100D02*
X19985Y372200D01*
D13*
X22177Y378690D03*
X22177Y370562D03*
D12*
X29073Y346426D02*
X40767Y346426D01*
X29073Y346426D02*
X29073Y352273D01*
X31022Y354222D01*
X34920Y354222D01*
X36869Y352273D01*
X36869Y346426D01*
X36869Y350324D02*
X40767Y354222D01*
X29073Y358120D02*
X29073Y365916D01*
X31022Y365916D01*
X38818Y358120D01*
X40767Y358120D01*
X31022Y369814D02*
X29073Y371763D01*
X29073Y375661D01*
X31022Y377610D01*
X32971Y377610D01*
X34920Y375661D01*
X36869Y377610D01*
X38818Y377610D01*
X40767Y375661D01*
X40767Y371763D01*
X38818Y369814D01*
X36869Y369814D01*
X34920Y371763D01*
X32971Y369814D01*
X31022Y369814D01*
X34920Y371763D02*
X34920Y375661D01*
D10*
X10178Y391250D02*
X10178Y396150D01*
X5698Y396150D02*
X5698Y391250D01*
D13*
X7889Y397740D03*
X7889Y389612D03*
D12*
X14786Y365476D02*
X26480Y365476D01*
X14786Y365476D02*
X14786Y371323D01*
X16735Y373272D01*
X20633Y373272D01*
X22582Y371323D01*
X22582Y365476D01*
X22582Y369374D02*
X26480Y373272D01*
X14786Y377170D02*
X14786Y384966D01*
X16735Y384966D01*
X24531Y377170D01*
X26480Y377170D01*
X24531Y388864D02*
X26480Y390813D01*
X26480Y394711D01*
X24531Y396660D01*
X16735Y396660D01*
X14786Y394711D01*
X14786Y390813D01*
X16735Y388864D01*
X18684Y388864D01*
X20633Y390813D01*
X20633Y396660D01*
D10*
X32685Y377100D02*
X32685Y372200D01*
X37165Y372200D02*
X37165Y377100D01*
D13*
X34974Y370610D03*
X34974Y378738D03*
D12*
X28067Y368808D02*
X16373Y368808D01*
X16373Y374655D01*
X18322Y376604D01*
X22220Y376604D01*
X24169Y374655D01*
X24169Y368808D01*
X24169Y372706D02*
X28067Y376604D01*
X18322Y380502D02*
X16373Y382451D01*
X16373Y386349D01*
X18322Y388298D01*
X20271Y388298D01*
X22220Y386349D01*
X24169Y388298D01*
X26118Y388298D01*
X28067Y386349D01*
X28067Y382451D01*
X26118Y380502D01*
X24169Y380502D01*
X22220Y382451D01*
X20271Y380502D01*
X18322Y380502D01*
X22220Y382451D02*
X22220Y386349D01*
X26118Y392196D02*
X18322Y392196D01*
X16373Y394145D01*
X16373Y398043D01*
X18322Y399992D01*
X26118Y399992D01*
X28067Y398043D01*
X28067Y394145D01*
X26118Y392196D01*
X18322Y399992D01*
D10*
X114425Y273175D02*
X114425Y203075D01*
X44325Y203075D01*
X44325Y269625D01*
X47875Y273175D02*
X114425Y273175D01*
X47875Y273175D02*
X44325Y269625D01*
X48351Y265557D02*
X48353Y265676D01*
X48359Y265796D01*
X48369Y265915D01*
X48383Y266033D01*
X48401Y266151D01*
X48422Y266269D01*
X48448Y266385D01*
X48477Y266501D01*
X48511Y266616D01*
X48548Y266729D01*
X48589Y266841D01*
X48633Y266952D01*
X48681Y267062D01*
X48733Y267169D01*
X48788Y267275D01*
X48847Y267379D01*
X48910Y267481D01*
X48975Y267580D01*
X49044Y267678D01*
X49116Y267773D01*
X49191Y267866D01*
X49270Y267956D01*
X49351Y268044D01*
X49435Y268128D01*
X49522Y268210D01*
X49611Y268289D01*
X49703Y268365D01*
X49798Y268438D01*
X49895Y268508D01*
X49994Y268574D01*
X50096Y268637D01*
X50199Y268697D01*
X50304Y268753D01*
X50411Y268806D01*
X50520Y268855D01*
X50631Y268901D01*
X50743Y268942D01*
X50856Y268980D01*
X50970Y269015D01*
X51086Y269045D01*
X51202Y269072D01*
X51319Y269094D01*
X51437Y269113D01*
X51556Y269128D01*
X51675Y269139D01*
X51794Y269146D01*
X51913Y269149D01*
X52033Y269148D01*
X52152Y269143D01*
X52271Y269134D01*
X52390Y269121D01*
X52508Y269104D01*
X52625Y269084D01*
X52742Y269059D01*
X52858Y269030D01*
X52973Y268998D01*
X53087Y268962D01*
X53200Y268922D01*
X53311Y268878D01*
X53420Y268831D01*
X53528Y268780D01*
X53635Y268726D01*
X53739Y268668D01*
X53841Y268606D01*
X53942Y268542D01*
X54040Y268473D01*
X54136Y268402D01*
X54229Y268328D01*
X54320Y268250D01*
X54408Y268170D01*
X54493Y268086D01*
X54576Y268000D01*
X54656Y267911D01*
X54733Y267820D01*
X54806Y267726D01*
X54877Y267629D01*
X54944Y267531D01*
X55008Y267430D01*
X55069Y267327D01*
X55126Y267222D01*
X55179Y267116D01*
X55229Y267007D01*
X55276Y266897D01*
X55318Y266786D01*
X55357Y266673D01*
X55393Y266559D01*
X55424Y266443D01*
X55451Y266327D01*
X55475Y266210D01*
X55495Y266092D01*
X55511Y265974D01*
X55523Y265855D01*
X55531Y265736D01*
X55535Y265617D01*
X55535Y265497D01*
X55531Y265378D01*
X55523Y265259D01*
X55511Y265140D01*
X55495Y265022D01*
X55475Y264904D01*
X55451Y264787D01*
X55424Y264671D01*
X55393Y264555D01*
X55357Y264441D01*
X55318Y264328D01*
X55276Y264217D01*
X55229Y264107D01*
X55179Y263998D01*
X55126Y263892D01*
X55069Y263787D01*
X55008Y263684D01*
X54944Y263583D01*
X54877Y263485D01*
X54806Y263388D01*
X54733Y263294D01*
X54656Y263203D01*
X54576Y263114D01*
X54493Y263028D01*
X54408Y262944D01*
X54320Y262864D01*
X54229Y262786D01*
X54136Y262712D01*
X54040Y262641D01*
X53942Y262572D01*
X53841Y262508D01*
X53739Y262446D01*
X53635Y262388D01*
X53528Y262334D01*
X53420Y262283D01*
X53311Y262236D01*
X53200Y262192D01*
X53087Y262152D01*
X52973Y262116D01*
X52858Y262084D01*
X52742Y262055D01*
X52625Y262030D01*
X52508Y262010D01*
X52390Y261993D01*
X52271Y261980D01*
X52152Y261971D01*
X52033Y261966D01*
X51913Y261965D01*
X51794Y261968D01*
X51675Y261975D01*
X51556Y261986D01*
X51437Y262001D01*
X51319Y262020D01*
X51202Y262042D01*
X51086Y262069D01*
X50970Y262099D01*
X50856Y262134D01*
X50743Y262172D01*
X50631Y262213D01*
X50520Y262259D01*
X50411Y262308D01*
X50304Y262361D01*
X50199Y262417D01*
X50096Y262477D01*
X49994Y262540D01*
X49895Y262606D01*
X49798Y262676D01*
X49703Y262749D01*
X49611Y262825D01*
X49522Y262904D01*
X49435Y262986D01*
X49351Y263070D01*
X49270Y263158D01*
X49191Y263248D01*
X49116Y263341D01*
X49044Y263436D01*
X48975Y263534D01*
X48910Y263633D01*
X48847Y263735D01*
X48788Y263839D01*
X48733Y263945D01*
X48681Y264052D01*
X48633Y264162D01*
X48589Y264273D01*
X48548Y264385D01*
X48511Y264498D01*
X48477Y264613D01*
X48448Y264729D01*
X48422Y264845D01*
X48401Y264963D01*
X48383Y265081D01*
X48369Y265199D01*
X48359Y265318D01*
X48353Y265438D01*
X48351Y265557D01*
D15*
X38862Y266125D03*
X38862Y258125D03*
X38862Y250125D03*
X38862Y242125D03*
X38862Y234125D03*
X38862Y226125D03*
X38862Y218125D03*
X38862Y210125D03*
D16*
X51375Y197612D03*
X59375Y197612D03*
X67375Y197612D03*
X75375Y197612D03*
X83375Y197612D03*
X91375Y197612D03*
X99375Y197612D03*
X107375Y197612D03*
D15*
X119888Y210125D03*
X119888Y218125D03*
X119888Y226125D03*
X119888Y234125D03*
X119888Y242125D03*
X119888Y250125D03*
X119888Y258125D03*
X119888Y266125D03*
D16*
X107375Y278638D03*
X99375Y278638D03*
X91375Y278638D03*
X83375Y278638D03*
X75375Y278638D03*
X67375Y278638D03*
X59375Y278638D03*
X51375Y278638D03*
D17*
X52070Y289306D02*
X54527Y289306D01*
X53299Y289306D02*
X53299Y296678D01*
X54527Y296678D02*
X52070Y296678D01*
X60746Y296678D02*
X61974Y295450D01*
X60746Y296678D02*
X58288Y296678D01*
X57059Y295450D01*
X57059Y290535D01*
X58288Y289306D01*
X60746Y289306D01*
X61974Y290535D01*
X64544Y295450D02*
X65772Y296678D01*
X68230Y296678D01*
X69458Y295450D01*
X69458Y294221D01*
X68230Y292992D01*
X67001Y292992D01*
X68230Y292992D02*
X69458Y291763D01*
X69458Y290535D01*
X68230Y289306D01*
X65772Y289306D01*
X64544Y290535D01*
D10*
X157888Y172385D02*
X162788Y172385D01*
X162788Y176865D02*
X157888Y176865D01*
D11*
X164378Y174674D03*
X156250Y174674D03*
D12*
X149655Y167777D02*
X151604Y165828D01*
X149655Y167777D02*
X145757Y167777D01*
X143808Y165828D01*
X143808Y158032D01*
X145757Y156083D01*
X149655Y156083D01*
X151604Y158032D01*
X155502Y156083D02*
X163297Y156083D01*
X155502Y156083D02*
X163297Y163879D01*
X163297Y165828D01*
X161348Y167777D01*
X157450Y167777D01*
X155502Y165828D01*
D10*
X157888Y126065D02*
X162788Y126065D01*
X162788Y121585D02*
X157888Y121585D01*
D11*
X156298Y123777D03*
X164426Y123777D03*
D12*
X162291Y140428D02*
X160342Y142377D01*
X156444Y142377D01*
X154496Y140428D01*
X154496Y132632D01*
X156444Y130683D01*
X160342Y130683D01*
X162291Y132632D01*
X166189Y140428D02*
X168138Y142377D01*
X172036Y142377D01*
X173985Y140428D01*
X173985Y138479D01*
X172036Y136530D01*
X170087Y136530D01*
X172036Y136530D02*
X173985Y134581D01*
X173985Y132632D01*
X172036Y130683D01*
X168138Y130683D01*
X166189Y132632D01*
D10*
X162788Y114953D02*
X157888Y114953D01*
X157888Y110473D02*
X162788Y110473D01*
D11*
X156298Y112664D03*
X164426Y112664D03*
D12*
X162291Y129315D02*
X160342Y131264D01*
X156444Y131264D01*
X154496Y129315D01*
X154496Y121519D01*
X156444Y119571D01*
X160342Y119571D01*
X162291Y121519D01*
X166189Y119571D02*
X173985Y119571D01*
X173985Y127366D02*
X166189Y119571D01*
X173985Y127366D02*
X173985Y129315D01*
X172036Y131264D01*
X168138Y131264D01*
X166189Y129315D01*
X181781Y129315D02*
X185679Y131264D01*
X181781Y129315D02*
X177883Y125417D01*
X177883Y121519D01*
X179832Y119571D01*
X183730Y119571D01*
X185679Y121519D01*
X185679Y123468D01*
X183730Y125417D01*
X177883Y125417D01*
D10*
X19913Y218140D02*
X15013Y218140D01*
X15013Y213660D02*
X19913Y213660D01*
D11*
X13423Y215852D03*
X21551Y215852D03*
D12*
X11621Y222758D02*
X11621Y234452D01*
X17467Y234452D01*
X19416Y232503D01*
X19416Y228605D01*
X17467Y226656D01*
X11621Y226656D01*
X15518Y226656D02*
X19416Y222758D01*
X23314Y230554D02*
X27212Y234452D01*
X27212Y222758D01*
X23314Y222758D02*
X31110Y222758D01*
X35008Y230554D02*
X38906Y234452D01*
X38906Y222758D01*
X35008Y222758D02*
X42804Y222758D01*
D10*
X29438Y145115D02*
X24538Y145115D01*
X24538Y140635D02*
X29438Y140635D01*
D11*
X22948Y142827D03*
X31076Y142827D03*
D12*
X28941Y159478D02*
X26992Y161427D01*
X23094Y161427D01*
X21146Y159478D01*
X21146Y151682D01*
X23094Y149733D01*
X26992Y149733D01*
X28941Y151682D01*
X32839Y159478D02*
X34788Y161427D01*
X38686Y161427D01*
X40635Y159478D01*
X40635Y157529D01*
X38686Y155580D01*
X40635Y153631D01*
X40635Y151682D01*
X38686Y149733D01*
X34788Y149733D01*
X32839Y151682D01*
X32839Y153631D01*
X34788Y155580D01*
X32839Y157529D01*
X32839Y159478D01*
X34788Y155580D02*
X38686Y155580D01*
X44533Y149733D02*
X52329Y149733D01*
X44533Y149733D02*
X52329Y157529D01*
X52329Y159478D01*
X50380Y161427D01*
X46482Y161427D01*
X44533Y159478D01*
D10*
X29438Y122890D02*
X24538Y122890D01*
X24538Y118410D02*
X29438Y118410D01*
D11*
X22948Y120602D03*
X31076Y120602D03*
D12*
X28941Y137253D02*
X26992Y139202D01*
X23094Y139202D01*
X21146Y137253D01*
X21146Y129457D01*
X23094Y127508D01*
X26992Y127508D01*
X28941Y129457D01*
X38686Y127508D02*
X38686Y139202D01*
X32839Y133355D01*
X40635Y133355D01*
X44533Y139202D02*
X52329Y139202D01*
X44533Y139202D02*
X44533Y133355D01*
X48431Y135304D01*
X50380Y135304D01*
X52329Y133355D01*
X52329Y129457D01*
X50380Y127508D01*
X46482Y127508D01*
X44533Y129457D01*
D10*
X29438Y129523D02*
X24538Y129523D01*
X24538Y134003D02*
X29438Y134003D01*
D11*
X31028Y131811D03*
X22900Y131811D03*
D12*
X6560Y122965D02*
X4611Y124914D01*
X713Y124914D01*
X-1236Y122965D01*
X-1236Y115169D01*
X713Y113221D01*
X4611Y113221D01*
X6560Y115169D01*
X10458Y121016D02*
X14355Y124914D01*
X14355Y113221D01*
X10458Y113221D02*
X18253Y113221D01*
X22151Y122965D02*
X24100Y124914D01*
X27998Y124914D01*
X29947Y122965D01*
X29947Y121016D01*
X27998Y119067D01*
X29947Y117118D01*
X29947Y115169D01*
X27998Y113221D01*
X24100Y113221D01*
X22151Y115169D01*
X22151Y117118D01*
X24100Y119067D01*
X22151Y121016D01*
X22151Y122965D01*
X24100Y119067D02*
X27998Y119067D01*
D10*
X300763Y46690D02*
X305663Y46690D01*
X305663Y42210D02*
X300763Y42210D01*
D11*
X299173Y44402D03*
X307301Y44402D03*
D12*
X305166Y61053D02*
X303217Y63002D01*
X299319Y63002D01*
X297371Y61053D01*
X297371Y53257D01*
X299319Y51308D01*
X303217Y51308D01*
X305166Y53257D01*
X309064Y51308D02*
X316860Y51308D01*
X309064Y51308D02*
X316860Y59104D01*
X316860Y61053D01*
X314911Y63002D01*
X311013Y63002D01*
X309064Y61053D01*
X320758Y51308D02*
X328554Y51308D01*
X320758Y51308D02*
X328554Y59104D01*
X328554Y61053D01*
X326605Y63002D01*
X322707Y63002D01*
X320758Y61053D01*
X73175Y10938D02*
X34775Y10938D01*
X34775Y55738D01*
X73175Y55738D01*
X73175Y10938D01*
D18*
X53975Y58588D03*
X53975Y8088D03*
D19*
X53975Y42863D03*
D20*
X53975Y39688D02*
X41275Y26988D01*
X66675Y26988D01*
X53975Y39688D01*
D12*
X79873Y29508D02*
X91567Y29508D01*
X91567Y35355D01*
X89618Y37304D01*
X81822Y37304D01*
X79873Y35355D01*
X79873Y29508D01*
X79873Y47048D02*
X91567Y47048D01*
X85720Y41202D02*
X79873Y47048D01*
X85720Y48997D02*
X85720Y41202D01*
D10*
X443565Y157888D02*
X443565Y162788D01*
X439085Y162788D02*
X439085Y157888D01*
D13*
X441277Y164378D03*
X441277Y156250D03*
D12*
X448173Y143808D02*
X459867Y143808D01*
X448173Y143808D02*
X448173Y149655D01*
X450122Y151604D01*
X454020Y151604D01*
X455969Y149655D01*
X455969Y143808D01*
X455969Y147706D02*
X459867Y151604D01*
X452071Y155502D02*
X448173Y159399D01*
X459867Y159399D01*
X459867Y155502D02*
X459867Y163297D01*
X437825Y176650D02*
X437825Y191650D01*
X444825Y191650D01*
X444825Y176650D01*
X437825Y176650D01*
X438325Y179650D02*
X444325Y179650D01*
X444325Y188650D02*
X438325Y188650D01*
X437825Y186150D02*
X437825Y182150D01*
X444825Y182150D02*
X444825Y186150D01*
D21*
X438450Y182150D03*
D22*
X438450Y182900D03*
D12*
X430817Y174658D02*
X419123Y174658D01*
X430817Y174658D02*
X430817Y182454D01*
X419123Y186352D02*
X419123Y194148D01*
X419123Y186352D02*
X430817Y186352D01*
X430817Y194148D01*
X424970Y190250D02*
X424970Y186352D01*
X419123Y198046D02*
X430817Y198046D01*
X430817Y203893D01*
X428868Y205842D01*
X421072Y205842D01*
X419123Y203893D01*
X419123Y198046D01*
X423021Y209740D02*
X419123Y213638D01*
X430817Y213638D01*
X430817Y209740D02*
X430817Y217536D01*
X29963Y105400D02*
X29963Y72400D01*
X4963Y72400D01*
X4963Y105400D01*
X29963Y105400D01*
D23*
X17463Y101900D03*
X17463Y75900D03*
D12*
X32961Y74326D02*
X44655Y74326D01*
X32961Y74326D02*
X32961Y80173D01*
X34910Y82122D01*
X38808Y82122D01*
X40757Y80173D01*
X40757Y74326D01*
X40757Y78224D02*
X44655Y82122D01*
X44655Y86020D02*
X44655Y93816D01*
X44655Y86020D02*
X36859Y93816D01*
X34910Y93816D01*
X32961Y91867D01*
X32961Y87969D01*
X34910Y86020D01*
X34910Y97714D02*
X32961Y99663D01*
X32961Y103561D01*
X34910Y105510D01*
X36859Y105510D01*
X38808Y103561D01*
X38808Y101612D01*
X38808Y103561D02*
X40757Y105510D01*
X42706Y105510D01*
X44655Y103561D01*
X44655Y99663D01*
X42706Y97714D01*
D10*
X49938Y297515D02*
X54838Y297515D01*
X54838Y293035D02*
X49938Y293035D01*
D11*
X48348Y295227D03*
X56476Y295227D03*
D12*
X54341Y311878D02*
X52392Y313827D01*
X48494Y313827D01*
X46546Y311878D01*
X46546Y304082D01*
X48494Y302133D01*
X52392Y302133D01*
X54341Y304082D01*
X58239Y311878D02*
X60188Y313827D01*
X64086Y313827D01*
X66035Y311878D01*
X66035Y309929D01*
X64086Y307980D01*
X66035Y306031D01*
X66035Y304082D01*
X64086Y302133D01*
X60188Y302133D01*
X58239Y304082D01*
X58239Y306031D01*
X60188Y307980D01*
X58239Y309929D01*
X58239Y311878D01*
X60188Y307980D02*
X64086Y307980D01*
D10*
X29438Y156228D02*
X24538Y156228D01*
X24538Y151748D02*
X29438Y151748D01*
D11*
X22948Y153939D03*
X31076Y153939D03*
D12*
X28941Y170590D02*
X26992Y172539D01*
X23094Y172539D01*
X21146Y170590D01*
X21146Y162794D01*
X23094Y160846D01*
X26992Y160846D01*
X28941Y162794D01*
X32839Y162794D02*
X34788Y160846D01*
X38686Y160846D01*
X40635Y162794D01*
X40635Y170590D01*
X38686Y172539D01*
X34788Y172539D01*
X32839Y170590D01*
X32839Y168641D01*
X34788Y166692D01*
X40635Y166692D01*
D24*
X172838Y165225D02*
X172838Y133225D01*
X147838Y133225D02*
X147838Y165225D01*
X172838Y165225D01*
X172838Y133225D02*
X147838Y133225D01*
D12*
X92325Y24448D02*
X92325Y16828D01*
X79125Y16828D02*
X79125Y24198D01*
D25*
X85737Y27809D03*
X85737Y13331D03*
D12*
X98923Y16305D02*
X100872Y18254D01*
X98923Y16305D02*
X98923Y12407D01*
X100872Y10458D01*
X108668Y10458D01*
X110617Y12407D01*
X110617Y16305D01*
X108668Y18254D01*
X110617Y27998D02*
X98923Y27998D01*
X104770Y22152D01*
X104770Y29947D01*
X141038Y53340D02*
X141038Y60960D01*
X154238Y60960D02*
X154238Y53590D01*
D25*
X147626Y49979D03*
X147626Y64457D03*
D12*
X124685Y52754D02*
X122736Y50805D01*
X122736Y46907D01*
X124685Y44958D01*
X132481Y44958D01*
X134430Y46907D01*
X134430Y50805D01*
X132481Y52754D01*
X124685Y60550D02*
X122736Y64448D01*
X124685Y60550D02*
X128583Y56652D01*
X132481Y56652D01*
X134430Y58601D01*
X134430Y62499D01*
X132481Y64448D01*
X130532Y64448D01*
X128583Y62499D01*
X128583Y56652D01*
D26*
X4463Y54838D02*
X4463Y11838D01*
X4463Y54838D02*
X30463Y54838D01*
X30463Y11838D01*
X4463Y11838D01*
X4463Y22988D02*
X4463Y43588D01*
X30463Y43588D02*
X30463Y22988D01*
D27*
X17463Y8338D03*
X17463Y58338D03*
D28*
X17463Y26063D03*
X17463Y19213D03*
D12*
X-2096Y8446D02*
X-13789Y8446D01*
X-2096Y8446D02*
X-2096Y14292D01*
X-4044Y16241D01*
X-11840Y16241D01*
X-13789Y14292D01*
X-13789Y8446D01*
X-2096Y20139D02*
X-2096Y27935D01*
X-9891Y27935D02*
X-2096Y20139D01*
X-9891Y27935D02*
X-11840Y27935D01*
X-13789Y25986D01*
X-13789Y22088D01*
X-11840Y20139D01*
D10*
X45974Y399796D02*
X45974Y413004D01*
X45974Y399796D02*
X17526Y399796D01*
X17526Y413004D01*
X45974Y413004D01*
D29*
X31750Y416433D03*
X41148Y396367D03*
X22352Y396367D03*
D12*
X13208Y427907D02*
X13208Y435703D01*
X15157Y437652D01*
X19055Y437652D01*
X21004Y435703D01*
X21004Y427907D01*
X19055Y425958D01*
X15157Y425958D01*
X13208Y427907D01*
X17106Y429856D02*
X21004Y425958D01*
X24902Y435703D02*
X26851Y437652D01*
X30749Y437652D01*
X32698Y435703D01*
X32698Y433754D01*
X30749Y431805D01*
X28800Y431805D01*
X30749Y431805D02*
X32698Y429856D01*
X32698Y427907D01*
X30749Y425958D01*
X26851Y425958D01*
X24902Y427907D01*
D10*
X153125Y205723D02*
X158025Y205723D01*
X158025Y210203D02*
X153125Y210203D01*
D11*
X159615Y208011D03*
X151487Y208011D03*
D12*
X139045Y201114D02*
X139045Y189421D01*
X139045Y201114D02*
X144892Y201114D01*
X146841Y199165D01*
X146841Y195267D01*
X144892Y193318D01*
X139045Y193318D01*
X142943Y193318D02*
X146841Y189421D01*
X154637Y199165D02*
X158535Y201114D01*
X154637Y199165D02*
X150739Y195267D01*
X150739Y191369D01*
X152688Y189421D01*
X156586Y189421D01*
X158535Y191369D01*
X158535Y193318D01*
X156586Y195267D01*
X150739Y195267D01*
D10*
X240438Y215248D02*
X245338Y215248D01*
X245338Y219728D02*
X240438Y219728D01*
D11*
X246928Y217536D03*
X238800Y217536D03*
D12*
X214664Y210639D02*
X214664Y198946D01*
X214664Y210639D02*
X220511Y210639D01*
X222460Y208690D01*
X222460Y204792D01*
X220511Y202843D01*
X214664Y202843D01*
X218562Y202843D02*
X222460Y198946D01*
X226358Y206741D02*
X230255Y210639D01*
X230255Y198946D01*
X226358Y198946D02*
X234153Y198946D01*
X238051Y208690D02*
X240000Y210639D01*
X243898Y210639D01*
X245847Y208690D01*
X245847Y206741D01*
X243898Y204792D01*
X241949Y204792D01*
X243898Y204792D02*
X245847Y202843D01*
X245847Y200894D01*
X243898Y198946D01*
X240000Y198946D01*
X238051Y200894D01*
D10*
X165963Y250173D02*
X161063Y250173D01*
X161063Y254653D02*
X165963Y254653D01*
D11*
X167553Y252461D03*
X159425Y252461D03*
D12*
X135289Y245564D02*
X135289Y233871D01*
X135289Y245564D02*
X141136Y245564D01*
X143085Y243615D01*
X143085Y239717D01*
X141136Y237768D01*
X135289Y237768D01*
X139187Y237768D02*
X143085Y233871D01*
X146983Y241666D02*
X150880Y245564D01*
X150880Y233871D01*
X146983Y233871D02*
X154778Y233871D01*
X158676Y243615D02*
X160625Y245564D01*
X164523Y245564D01*
X166472Y243615D01*
X166472Y241666D01*
X164523Y239717D01*
X166472Y237768D01*
X166472Y235819D01*
X164523Y233871D01*
X160625Y233871D01*
X158676Y235819D01*
X158676Y237768D01*
X160625Y239717D01*
X158676Y241666D01*
X158676Y243615D01*
X160625Y239717D02*
X164523Y239717D01*
D10*
X240438Y186390D02*
X245338Y186390D01*
X245338Y181910D02*
X240438Y181910D01*
D11*
X238848Y184102D03*
X246976Y184102D03*
D12*
X237046Y191008D02*
X237046Y202702D01*
X242892Y202702D01*
X244841Y200753D01*
X244841Y196855D01*
X242892Y194906D01*
X237046Y194906D01*
X240943Y194906D02*
X244841Y191008D01*
X248739Y200753D02*
X250688Y202702D01*
X254586Y202702D01*
X256535Y200753D01*
X256535Y198804D01*
X254586Y196855D01*
X252637Y196855D01*
X254586Y196855D02*
X256535Y194906D01*
X256535Y192957D01*
X254586Y191008D01*
X250688Y191008D01*
X248739Y192957D01*
X260433Y192957D02*
X260433Y200753D01*
X262382Y202702D01*
X266280Y202702D01*
X268229Y200753D01*
X268229Y192957D01*
X266280Y191008D01*
X262382Y191008D01*
X260433Y192957D01*
X268229Y200753D01*
D10*
X245338Y197503D02*
X240438Y197503D01*
X240438Y193023D02*
X245338Y193023D01*
D11*
X238848Y195214D03*
X246976Y195214D03*
D12*
X244841Y211865D02*
X242892Y213814D01*
X238994Y213814D01*
X237046Y211865D01*
X237046Y204069D01*
X238994Y202121D01*
X242892Y202121D01*
X244841Y204069D01*
X248739Y202121D02*
X256535Y202121D01*
X256535Y209916D02*
X248739Y202121D01*
X256535Y209916D02*
X256535Y211865D01*
X254586Y213814D01*
X250688Y213814D01*
X248739Y211865D01*
X260433Y211865D02*
X262382Y213814D01*
X266280Y213814D01*
X268229Y211865D01*
X268229Y209916D01*
X266280Y207967D01*
X268229Y206018D01*
X268229Y204069D01*
X266280Y202121D01*
X262382Y202121D01*
X260433Y204069D01*
X260433Y206018D01*
X262382Y207967D01*
X260433Y209916D01*
X260433Y211865D01*
X262382Y207967D02*
X266280Y207967D01*
D10*
X245338Y242235D02*
X240438Y242235D01*
X240438Y246715D02*
X245338Y246715D01*
D11*
X246928Y244524D03*
X238800Y244524D03*
D12*
X222460Y235678D02*
X220511Y237627D01*
X216613Y237627D01*
X214664Y235678D01*
X214664Y227882D01*
X216613Y225933D01*
X220511Y225933D01*
X222460Y227882D01*
X226358Y235678D02*
X228306Y237627D01*
X232204Y237627D01*
X234153Y235678D01*
X234153Y233729D01*
X232204Y231780D01*
X230255Y231780D01*
X232204Y231780D02*
X234153Y229831D01*
X234153Y227882D01*
X232204Y225933D01*
X228306Y225933D01*
X226358Y227882D01*
X238051Y227882D02*
X238051Y235678D01*
X240000Y237627D01*
X243898Y237627D01*
X245847Y235678D01*
X245847Y227882D01*
X243898Y225933D01*
X240000Y225933D01*
X238051Y227882D01*
X245847Y235678D01*
D10*
X158025Y216835D02*
X153125Y216835D01*
X153125Y221315D02*
X158025Y221315D01*
D11*
X159615Y219124D03*
X151487Y219124D03*
D12*
X135147Y210278D02*
X133198Y212227D01*
X129300Y212227D01*
X127351Y210278D01*
X127351Y202482D01*
X129300Y200533D01*
X133198Y200533D01*
X135147Y202482D01*
X139045Y210278D02*
X140994Y212227D01*
X144892Y212227D01*
X146841Y210278D01*
X146841Y208329D01*
X144892Y206380D01*
X142943Y206380D01*
X144892Y206380D02*
X146841Y204431D01*
X146841Y202482D01*
X144892Y200533D01*
X140994Y200533D01*
X139045Y202482D01*
X154637Y210278D02*
X158535Y212227D01*
X154637Y210278D02*
X150739Y206380D01*
X150739Y202482D01*
X152688Y200533D01*
X156586Y200533D01*
X158535Y202482D01*
X158535Y204431D01*
X156586Y206380D01*
X150739Y206380D01*
D10*
X235885Y169138D02*
X235885Y164238D01*
X240365Y164238D02*
X240365Y169138D01*
D13*
X238174Y162648D03*
X238174Y170776D03*
D12*
X221522Y168641D02*
X219573Y166692D01*
X219573Y162794D01*
X221522Y160846D01*
X229318Y160846D01*
X231267Y162794D01*
X231267Y166692D01*
X229318Y168641D01*
X221522Y172539D02*
X219573Y174488D01*
X219573Y178386D01*
X221522Y180335D01*
X223471Y180335D01*
X225420Y178386D01*
X225420Y176437D01*
X225420Y178386D02*
X227369Y180335D01*
X229318Y180335D01*
X231267Y178386D01*
X231267Y174488D01*
X229318Y172539D01*
X229318Y184233D02*
X231267Y186182D01*
X231267Y190080D01*
X229318Y192029D01*
X221522Y192029D01*
X219573Y190080D01*
X219573Y186182D01*
X221522Y184233D01*
X223471Y184233D01*
X225420Y186182D01*
X225420Y192029D01*
D10*
X164375Y243540D02*
X159475Y243540D01*
X159475Y239060D02*
X164375Y239060D01*
D11*
X157885Y241252D03*
X166013Y241252D03*
D12*
X163879Y257903D02*
X161930Y259852D01*
X158032Y259852D01*
X156083Y257903D01*
X156083Y250107D01*
X158032Y248158D01*
X161930Y248158D01*
X163879Y250107D01*
X173624Y248158D02*
X173624Y259852D01*
X167777Y254005D01*
X175573Y254005D01*
X179471Y250107D02*
X179471Y257903D01*
X181420Y259852D01*
X185318Y259852D01*
X187267Y257903D01*
X187267Y250107D01*
X185318Y248158D01*
X181420Y248158D01*
X179471Y250107D01*
X187267Y257903D01*
D10*
X240438Y208615D02*
X245338Y208615D01*
X245338Y204135D02*
X240438Y204135D01*
D11*
X238848Y206327D03*
X246976Y206327D03*
D12*
X244841Y222978D02*
X242892Y224927D01*
X238994Y224927D01*
X237046Y222978D01*
X237046Y215182D01*
X238994Y213233D01*
X242892Y213233D01*
X244841Y215182D01*
X254586Y213233D02*
X254586Y224927D01*
X248739Y219080D01*
X256535Y219080D01*
X260433Y221029D02*
X264331Y224927D01*
X264331Y213233D01*
X260433Y213233D02*
X268229Y213233D01*
D10*
X161200Y199090D02*
X156300Y199090D01*
X156300Y194610D02*
X161200Y194610D01*
D11*
X154710Y196802D03*
X162838Y196802D03*
D12*
X160704Y213453D02*
X158755Y215402D01*
X154857Y215402D01*
X152908Y213453D01*
X152908Y205657D01*
X154857Y203708D01*
X158755Y203708D01*
X160704Y205657D01*
X170449Y203708D02*
X170449Y215402D01*
X164602Y209555D01*
X172398Y209555D01*
X176296Y203708D02*
X184092Y203708D01*
X176296Y203708D02*
X184092Y211504D01*
X184092Y213453D01*
X182143Y215402D01*
X178245Y215402D01*
X176296Y213453D01*
D10*
X158025Y227948D02*
X153125Y227948D01*
X153125Y232428D02*
X158025Y232428D01*
D11*
X159615Y230236D03*
X151487Y230236D03*
D12*
X127351Y223339D02*
X127351Y211646D01*
X127351Y223339D02*
X133198Y223339D01*
X135147Y221390D01*
X135147Y217492D01*
X133198Y215543D01*
X127351Y215543D01*
X131249Y215543D02*
X135147Y211646D01*
X139045Y221390D02*
X140994Y223339D01*
X144892Y223339D01*
X146841Y221390D01*
X146841Y219441D01*
X144892Y217492D01*
X142943Y217492D01*
X144892Y217492D02*
X146841Y215543D01*
X146841Y213594D01*
X144892Y211646D01*
X140994Y211646D01*
X139045Y213594D01*
X156586Y211646D02*
X156586Y223339D01*
X150739Y217492D01*
X158535Y217492D01*
D10*
X240438Y231123D02*
X245338Y231123D01*
X245338Y235603D02*
X240438Y235603D01*
D11*
X246928Y233411D03*
X238800Y233411D03*
D12*
X214664Y226514D02*
X214664Y214821D01*
X214664Y226514D02*
X220511Y226514D01*
X222460Y224565D01*
X222460Y220667D01*
X220511Y218718D01*
X214664Y218718D01*
X218562Y218718D02*
X222460Y214821D01*
X226358Y224565D02*
X228306Y226514D01*
X232204Y226514D01*
X234153Y224565D01*
X234153Y222616D01*
X232204Y220667D01*
X230255Y220667D01*
X232204Y220667D02*
X234153Y218718D01*
X234153Y216769D01*
X232204Y214821D01*
X228306Y214821D01*
X226358Y216769D01*
X238051Y226514D02*
X245847Y226514D01*
X238051Y226514D02*
X238051Y220667D01*
X241949Y222616D01*
X243898Y222616D01*
X245847Y220667D01*
X245847Y216769D01*
X243898Y214821D01*
X240000Y214821D01*
X238051Y216769D01*
D10*
X46973Y83413D02*
X46973Y78513D01*
X51453Y78513D02*
X51453Y83413D01*
D13*
X49261Y76923D03*
X49261Y85051D03*
D12*
X42355Y75121D02*
X30661Y75121D01*
X30661Y80967D01*
X32610Y82916D01*
X36508Y82916D01*
X38457Y80967D01*
X38457Y75121D01*
X38457Y79018D02*
X42355Y82916D01*
X32610Y86814D02*
X30661Y88763D01*
X30661Y92661D01*
X32610Y94610D01*
X34559Y94610D01*
X36508Y92661D01*
X36508Y90712D01*
X36508Y92661D02*
X38457Y94610D01*
X40406Y94610D01*
X42355Y92661D01*
X42355Y88763D01*
X40406Y86814D01*
X30661Y98508D02*
X30661Y106304D01*
X32610Y106304D01*
X40406Y98508D01*
X42355Y98508D01*
D10*
X40340Y83413D02*
X40340Y78513D01*
X35860Y78513D02*
X35860Y83413D01*
D13*
X38052Y85003D03*
X38052Y76875D03*
D12*
X44948Y52739D02*
X56642Y52739D01*
X44948Y52739D02*
X44948Y58586D01*
X46897Y60535D01*
X50795Y60535D01*
X52744Y58586D01*
X52744Y52739D01*
X52744Y56637D02*
X56642Y60535D01*
X56642Y70279D02*
X44948Y70279D01*
X50795Y64433D01*
X50795Y72228D01*
X44948Y76126D02*
X44948Y83922D01*
X46897Y83922D01*
X54693Y76126D01*
X56642Y76126D01*
D10*
X320023Y265838D02*
X320023Y270738D01*
X324503Y270738D02*
X324503Y265838D01*
D13*
X322311Y264248D03*
X322311Y272376D03*
D12*
X315405Y262446D02*
X303711Y262446D01*
X303711Y268292D01*
X305660Y270241D01*
X309558Y270241D01*
X311507Y268292D01*
X311507Y262446D01*
X311507Y266343D02*
X315405Y270241D01*
X305660Y274139D02*
X303711Y276088D01*
X303711Y279986D01*
X305660Y281935D01*
X307609Y281935D01*
X309558Y279986D01*
X309558Y278037D01*
X309558Y279986D02*
X311507Y281935D01*
X313456Y281935D01*
X315405Y279986D01*
X315405Y276088D01*
X313456Y274139D01*
X315405Y285833D02*
X315405Y293629D01*
X315405Y285833D02*
X307609Y293629D01*
X305660Y293629D01*
X303711Y291680D01*
X303711Y287782D01*
X305660Y285833D01*
D10*
X308910Y270738D02*
X308910Y265838D01*
X313390Y265838D02*
X313390Y270738D01*
D13*
X311199Y264248D03*
X311199Y272376D03*
D12*
X294547Y270241D02*
X292598Y268292D01*
X292598Y264394D01*
X294547Y262446D01*
X302343Y262446D01*
X304292Y264394D01*
X304292Y268292D01*
X302343Y270241D01*
X292598Y274139D02*
X292598Y281935D01*
X294547Y281935D01*
X302343Y274139D01*
X304292Y274139D01*
D10*
X335615Y270738D02*
X335615Y265838D01*
X331135Y265838D02*
X331135Y270738D01*
D13*
X333327Y272328D03*
X333327Y264200D03*
D12*
X342172Y247860D02*
X340223Y245911D01*
X340223Y242013D01*
X342172Y240064D01*
X349968Y240064D01*
X351917Y242013D01*
X351917Y245911D01*
X349968Y247860D01*
X344121Y251758D02*
X340223Y255655D01*
X351917Y255655D01*
X351917Y251758D02*
X351917Y259553D01*
X344121Y263451D02*
X340223Y267349D01*
X351917Y267349D01*
X351917Y263451D02*
X351917Y271247D01*
D10*
X381725Y238778D02*
X386625Y238778D01*
X386625Y234298D02*
X381725Y234298D01*
D11*
X380135Y236489D03*
X388263Y236489D03*
D12*
X386129Y253140D02*
X384180Y255089D01*
X380282Y255089D01*
X378333Y253140D01*
X378333Y245344D01*
X380282Y243396D01*
X384180Y243396D01*
X386129Y245344D01*
X390027Y251191D02*
X393925Y255089D01*
X393925Y243396D01*
X390027Y243396D02*
X397823Y243396D01*
X401721Y253140D02*
X403670Y255089D01*
X407568Y255089D01*
X409517Y253140D01*
X409517Y251191D01*
X407568Y249242D01*
X405619Y249242D01*
X407568Y249242D02*
X409517Y247293D01*
X409517Y245344D01*
X407568Y243396D01*
X403670Y243396D01*
X401721Y245344D01*
D10*
X443565Y134213D02*
X443565Y129313D01*
X439085Y129313D02*
X439085Y134213D01*
D13*
X441277Y135803D03*
X441277Y127675D03*
D12*
X450122Y111335D02*
X448173Y109386D01*
X448173Y105488D01*
X450122Y103539D01*
X457918Y103539D01*
X459867Y105488D01*
X459867Y109386D01*
X457918Y111335D01*
X450122Y115233D02*
X448173Y117181D01*
X448173Y121079D01*
X450122Y123028D01*
X452071Y123028D01*
X454020Y121079D01*
X454020Y119130D01*
X454020Y121079D02*
X455969Y123028D01*
X457918Y123028D01*
X459867Y121079D01*
X459867Y117181D01*
X457918Y115233D01*
X459867Y132773D02*
X448173Y132773D01*
X454020Y126926D01*
X454020Y134722D01*
D10*
X299103Y23088D02*
X299103Y18188D01*
X294623Y18188D02*
X294623Y23088D01*
D13*
X296814Y24678D03*
X296814Y16550D03*
D12*
X305660Y210D02*
X303711Y-1740D01*
X303711Y-5638D01*
X305660Y-7586D01*
X313456Y-7586D01*
X315405Y-5638D01*
X315405Y-1740D01*
X313456Y210D01*
X315405Y4108D02*
X315405Y11903D01*
X315405Y4108D02*
X307609Y11903D01*
X305660Y11903D01*
X303711Y9954D01*
X303711Y6056D01*
X305660Y4108D01*
X305660Y15801D02*
X313456Y15801D01*
X305660Y15801D02*
X303711Y17750D01*
X303711Y21648D01*
X305660Y23597D01*
X313456Y23597D01*
X315405Y21648D01*
X315405Y17750D01*
X313456Y15801D01*
X305660Y23597D01*
D10*
X345423Y23088D02*
X345423Y18188D01*
X349903Y18188D02*
X349903Y23088D01*
D13*
X347711Y16598D03*
X347711Y24726D03*
D12*
X331060Y22591D02*
X329111Y20642D01*
X329111Y16744D01*
X331060Y14796D01*
X338856Y14796D01*
X340805Y16744D01*
X340805Y20642D01*
X338856Y22591D01*
X340805Y26489D02*
X340805Y34285D01*
X340805Y26489D02*
X333009Y34285D01*
X331060Y34285D01*
X329111Y32336D01*
X329111Y28438D01*
X331060Y26489D01*
X331060Y38183D02*
X329111Y40132D01*
X329111Y44030D01*
X331060Y45979D01*
X333009Y45979D01*
X334958Y44030D01*
X334958Y42081D01*
X334958Y44030D02*
X336907Y45979D01*
X338856Y45979D01*
X340805Y44030D01*
X340805Y40132D01*
X338856Y38183D01*
D10*
X154850Y367365D02*
X149950Y367365D01*
X149950Y362885D02*
X154850Y362885D01*
D11*
X148360Y365077D03*
X156488Y365077D03*
D12*
X146558Y371983D02*
X146558Y383677D01*
X152405Y383677D01*
X154354Y381728D01*
X154354Y377830D01*
X152405Y375881D01*
X146558Y375881D01*
X150456Y375881D02*
X154354Y371983D01*
X158252Y381728D02*
X160201Y383677D01*
X164099Y383677D01*
X166048Y381728D01*
X166048Y379779D01*
X164099Y377830D01*
X166048Y375881D01*
X166048Y373932D01*
X164099Y371983D01*
X160201Y371983D01*
X158252Y373932D01*
X158252Y375881D01*
X160201Y377830D01*
X158252Y379779D01*
X158252Y381728D01*
X160201Y377830D02*
X164099Y377830D01*
D10*
X427038Y359700D02*
X427038Y351500D01*
X439738Y351500D02*
X439738Y359700D01*
D30*
X433373Y362914D03*
X433373Y348182D03*
D12*
X420180Y349758D02*
X408486Y349758D01*
X408486Y355605D01*
X410435Y357554D01*
X414333Y357554D01*
X416282Y355605D01*
X416282Y349758D01*
X416282Y353656D02*
X420180Y357554D01*
X420180Y361452D02*
X420180Y369248D01*
X420180Y361452D02*
X412384Y369248D01*
X410435Y369248D01*
X408486Y367299D01*
X408486Y363401D01*
X410435Y361452D01*
X408486Y378993D02*
X420180Y378993D01*
X414333Y373146D02*
X408486Y378993D01*
X414333Y380942D02*
X414333Y373146D01*
D10*
X416650Y234298D02*
X421550Y234298D01*
X421550Y238778D02*
X416650Y238778D01*
D11*
X423140Y236586D03*
X415012Y236586D03*
D12*
X390876Y229689D02*
X390876Y217996D01*
X390876Y229689D02*
X396723Y229689D01*
X398672Y227740D01*
X398672Y223842D01*
X396723Y221893D01*
X390876Y221893D01*
X394774Y221893D02*
X398672Y217996D01*
X402570Y229689D02*
X410366Y229689D01*
X402570Y229689D02*
X402570Y223842D01*
X406468Y225791D01*
X408417Y225791D01*
X410366Y223842D01*
X410366Y219944D01*
X408417Y217996D01*
X404519Y217996D01*
X402570Y219944D01*
X414264Y217996D02*
X422060Y217996D01*
X422060Y225791D02*
X414264Y217996D01*
X422060Y225791D02*
X422060Y227740D01*
X420111Y229689D01*
X416213Y229689D01*
X414264Y227740D01*
D10*
X429350Y249890D02*
X434250Y249890D01*
X434250Y245410D02*
X429350Y245410D01*
D11*
X427760Y247602D03*
X435888Y247602D03*
D12*
X425958Y254508D02*
X425958Y266202D01*
X431805Y266202D01*
X433754Y264253D01*
X433754Y260355D01*
X431805Y258406D01*
X425958Y258406D01*
X429856Y258406D02*
X433754Y254508D01*
X437652Y256457D02*
X439601Y254508D01*
X443499Y254508D01*
X445448Y256457D01*
X445448Y264253D01*
X443499Y266202D01*
X439601Y266202D01*
X437652Y264253D01*
X437652Y262304D01*
X439601Y260355D01*
X445448Y260355D01*
D26*
X443100Y281275D02*
X443100Y314275D01*
X443100Y281275D02*
X443100Y276275D01*
X395100Y276275D01*
X395100Y281275D01*
X395100Y314275D01*
X443100Y314275D01*
X443100Y281275D02*
X395100Y281275D01*
D31*
X400050Y269775D03*
X412750Y269775D03*
X425450Y269775D03*
X438150Y269775D03*
X438150Y320776D03*
X425450Y320776D03*
X412750Y320776D03*
X400050Y320776D03*
D12*
X391922Y280631D02*
X391922Y276733D01*
X391922Y278682D02*
X380228Y278682D01*
X380228Y276733D02*
X380228Y280631D01*
X380228Y290376D02*
X382177Y292325D01*
X380228Y290376D02*
X380228Y286478D01*
X382177Y284529D01*
X389973Y284529D01*
X391922Y286478D01*
X391922Y290376D01*
X389973Y292325D01*
X384126Y296223D02*
X380228Y300121D01*
X391922Y300121D01*
X391922Y296223D02*
X391922Y304019D01*
X389973Y307917D02*
X382177Y307917D01*
X380228Y309866D01*
X380228Y313764D01*
X382177Y315713D01*
X389973Y315713D01*
X391922Y313764D01*
X391922Y309866D01*
X389973Y307917D01*
X382177Y315713D01*
D10*
X262800Y334028D02*
X257900Y334028D01*
X257900Y329548D02*
X262800Y329548D01*
D11*
X256310Y331739D03*
X264438Y331739D03*
D12*
X262304Y348390D02*
X260355Y350339D01*
X256457Y350339D01*
X254508Y348390D01*
X254508Y340594D01*
X256457Y338646D01*
X260355Y338646D01*
X262304Y340594D01*
X266202Y346441D02*
X270100Y350339D01*
X270100Y338646D01*
X266202Y338646D02*
X273998Y338646D01*
X283743Y338646D02*
X283743Y350339D01*
X277896Y344492D01*
X285692Y344492D01*
D10*
X257175Y351500D02*
X257175Y359700D01*
X269875Y359700D02*
X269875Y351500D01*
D30*
X263510Y362914D03*
X263510Y348182D03*
D12*
X250317Y349758D02*
X238623Y349758D01*
X238623Y355605D01*
X240572Y357554D01*
X244470Y357554D01*
X246419Y355605D01*
X246419Y349758D01*
X246419Y353656D02*
X250317Y357554D01*
X242521Y361452D02*
X238623Y365350D01*
X250317Y365350D01*
X250317Y361452D02*
X250317Y369248D01*
X250317Y373146D02*
X250317Y380942D01*
X250317Y373146D02*
X242521Y380942D01*
X240572Y380942D01*
X238623Y378993D01*
X238623Y375095D01*
X240572Y373146D01*
D10*
X236538Y359700D02*
X236538Y351500D01*
X249238Y351500D02*
X249238Y359700D01*
D30*
X242873Y362914D03*
X242873Y348182D03*
D12*
X229680Y349758D02*
X217986Y349758D01*
X217986Y355605D01*
X219935Y357554D01*
X223833Y357554D01*
X225782Y355605D01*
X225782Y349758D01*
X225782Y353656D02*
X229680Y357554D01*
X221884Y361452D02*
X217986Y365350D01*
X229680Y365350D01*
X229680Y361452D02*
X229680Y369248D01*
X229680Y378993D02*
X217986Y378993D01*
X223833Y373146D01*
X223833Y380942D01*
D10*
X327960Y361225D02*
X327960Y356325D01*
X332440Y356325D02*
X332440Y361225D01*
D13*
X330249Y354735D03*
X330249Y362863D03*
D12*
X313597Y360729D02*
X311648Y358780D01*
X311648Y354882D01*
X313597Y352933D01*
X321393Y352933D01*
X323342Y354882D01*
X323342Y358780D01*
X321393Y360729D01*
X323342Y370474D02*
X311648Y370474D01*
X317495Y364627D01*
X317495Y372423D01*
X311648Y376321D02*
X311648Y384117D01*
X313597Y384117D01*
X321393Y376321D01*
X323342Y376321D01*
D10*
X341313Y359700D02*
X341313Y351500D01*
X354013Y351500D02*
X354013Y359700D01*
D30*
X347648Y362914D03*
X347648Y348182D03*
D12*
X336995Y348488D02*
X325301Y348488D01*
X336995Y348488D02*
X336995Y356284D01*
X329199Y360182D02*
X325301Y364080D01*
X336995Y364080D01*
X336995Y360182D02*
X336995Y367978D01*
D10*
X358775Y359700D02*
X358775Y351500D01*
X371475Y351500D02*
X371475Y359700D01*
D30*
X365110Y362914D03*
X365110Y348182D03*
D12*
X351917Y349758D02*
X340223Y349758D01*
X340223Y355605D01*
X342172Y357554D01*
X346070Y357554D01*
X348019Y355605D01*
X348019Y349758D01*
X348019Y353656D02*
X351917Y357554D01*
X344121Y361452D02*
X340223Y365350D01*
X351917Y365350D01*
X351917Y361452D02*
X351917Y369248D01*
X340223Y373146D02*
X340223Y380942D01*
X340223Y373146D02*
X346070Y373146D01*
X344121Y377044D01*
X344121Y378993D01*
X346070Y380942D01*
X349968Y380942D01*
X351917Y378993D01*
X351917Y375095D01*
X349968Y373146D01*
D10*
X156438Y265765D02*
X151538Y265765D01*
X151538Y261285D02*
X156438Y261285D01*
D11*
X149948Y263477D03*
X158076Y263477D03*
D12*
X155941Y280128D02*
X153992Y282077D01*
X150094Y282077D01*
X148146Y280128D01*
X148146Y272332D01*
X150094Y270383D01*
X153992Y270383D01*
X155941Y272332D01*
X159839Y278179D02*
X163737Y282077D01*
X163737Y270383D01*
X159839Y270383D02*
X167635Y270383D01*
X171533Y282077D02*
X179329Y282077D01*
X171533Y282077D02*
X171533Y276230D01*
X175431Y278179D01*
X177380Y278179D01*
X179329Y276230D01*
X179329Y272332D01*
X177380Y270383D01*
X173482Y270383D01*
X171533Y272332D01*
D10*
X359710Y243750D02*
X359710Y238850D01*
X364190Y238850D02*
X364190Y243750D01*
D13*
X361999Y237260D03*
X361999Y245388D03*
D12*
X355092Y235458D02*
X343398Y235458D01*
X343398Y241305D01*
X345347Y243254D01*
X349245Y243254D01*
X351194Y241305D01*
X351194Y235458D01*
X351194Y239356D02*
X355092Y243254D01*
X345347Y247152D02*
X343398Y249101D01*
X343398Y252999D01*
X345347Y254948D01*
X347296Y254948D01*
X349245Y252999D01*
X349245Y251050D01*
X349245Y252999D02*
X351194Y254948D01*
X353143Y254948D01*
X355092Y252999D01*
X355092Y249101D01*
X353143Y247152D01*
X345347Y262744D02*
X343398Y266642D01*
X345347Y262744D02*
X349245Y258846D01*
X353143Y258846D01*
X355092Y260795D01*
X355092Y264693D01*
X353143Y266642D01*
X351194Y266642D01*
X349245Y264693D01*
X349245Y258846D01*
D10*
X378550Y249890D02*
X383450Y249890D01*
X383450Y245410D02*
X378550Y245410D01*
D11*
X376960Y247602D03*
X385088Y247602D03*
D12*
X375158Y254508D02*
X375158Y266202D01*
X381005Y266202D01*
X382954Y264253D01*
X382954Y260355D01*
X381005Y258406D01*
X375158Y258406D01*
X379056Y258406D02*
X382954Y254508D01*
X386852Y264253D02*
X388801Y266202D01*
X392699Y266202D01*
X394648Y264253D01*
X394648Y262304D01*
X392699Y260355D01*
X390750Y260355D01*
X392699Y260355D02*
X394648Y258406D01*
X394648Y256457D01*
X392699Y254508D01*
X388801Y254508D01*
X386852Y256457D01*
X398546Y264253D02*
X400495Y266202D01*
X404393Y266202D01*
X406342Y264253D01*
X406342Y262304D01*
X404393Y260355D01*
X406342Y258406D01*
X406342Y256457D01*
X404393Y254508D01*
X400495Y254508D01*
X398546Y256457D01*
X398546Y258406D01*
X400495Y260355D01*
X398546Y262304D01*
X398546Y264253D01*
X400495Y260355D02*
X404393Y260355D01*
D26*
X392300Y281275D02*
X392300Y314275D01*
X392300Y281275D02*
X392300Y276275D01*
X344300Y276275D01*
X344300Y281275D01*
X344300Y314275D01*
X392300Y314275D01*
X392300Y281275D02*
X344300Y281275D01*
D31*
X349250Y269775D03*
X361950Y269775D03*
X374650Y269775D03*
X387350Y269775D03*
X387350Y320776D03*
X374650Y320776D03*
X361950Y320776D03*
X349250Y320776D03*
D12*
X341122Y280631D02*
X341122Y276733D01*
X341122Y278682D02*
X329428Y278682D01*
X329428Y276733D02*
X329428Y280631D01*
X329428Y290376D02*
X331377Y292325D01*
X329428Y290376D02*
X329428Y286478D01*
X331377Y284529D01*
X339173Y284529D01*
X341122Y286478D01*
X341122Y290376D01*
X339173Y292325D01*
X333326Y296223D02*
X329428Y300121D01*
X341122Y300121D01*
X341122Y296223D02*
X341122Y304019D01*
X333326Y307917D02*
X329428Y311815D01*
X341122Y311815D01*
X341122Y307917D02*
X341122Y315713D01*
D10*
X385763Y351500D02*
X385763Y359700D01*
X398463Y359700D02*
X398463Y351500D01*
D30*
X392098Y362914D03*
X392098Y348182D03*
D12*
X378905Y349758D02*
X367211Y349758D01*
X367211Y355605D01*
X369160Y357554D01*
X373058Y357554D01*
X375007Y355605D01*
X375007Y349758D01*
X375007Y353656D02*
X378905Y357554D01*
X369160Y361452D02*
X367211Y363401D01*
X367211Y367299D01*
X369160Y369248D01*
X371109Y369248D01*
X373058Y367299D01*
X373058Y365350D01*
X373058Y367299D02*
X375007Y369248D01*
X376956Y369248D01*
X378905Y367299D01*
X378905Y363401D01*
X376956Y361452D01*
X376956Y373146D02*
X378905Y375095D01*
X378905Y378993D01*
X376956Y380942D01*
X369160Y380942D01*
X367211Y378993D01*
X367211Y375095D01*
X369160Y373146D01*
X371109Y373146D01*
X373058Y375095D01*
X373058Y380942D01*
D10*
X156438Y276878D02*
X151538Y276878D01*
X151538Y272398D02*
X156438Y272398D01*
D11*
X149948Y274589D03*
X158076Y274589D03*
D12*
X148146Y281496D02*
X148146Y293189D01*
X153992Y293189D01*
X155941Y291240D01*
X155941Y287342D01*
X153992Y285393D01*
X148146Y285393D01*
X152043Y285393D02*
X155941Y281496D01*
X165686Y281496D02*
X165686Y293189D01*
X159839Y287342D01*
X167635Y287342D01*
X171533Y283444D02*
X171533Y291240D01*
X173482Y293189D01*
X177380Y293189D01*
X179329Y291240D01*
X179329Y283444D01*
X177380Y281496D01*
X173482Y281496D01*
X171533Y283444D01*
X179329Y291240D01*
D10*
X280053Y326163D02*
X280053Y331063D01*
X275573Y331063D02*
X275573Y326163D01*
D13*
X277764Y332653D03*
X277764Y324525D03*
D12*
X284661Y300389D02*
X296355Y300389D01*
X284661Y300389D02*
X284661Y306236D01*
X286610Y308185D01*
X290508Y308185D01*
X292457Y306236D01*
X292457Y300389D01*
X292457Y304287D02*
X296355Y308185D01*
X286610Y315980D02*
X284661Y319878D01*
X286610Y315980D02*
X290508Y312083D01*
X294406Y312083D01*
X296355Y314031D01*
X296355Y317929D01*
X294406Y319878D01*
X292457Y319878D01*
X290508Y317929D01*
X290508Y312083D01*
X294406Y323776D02*
X296355Y325725D01*
X296355Y329623D01*
X294406Y331572D01*
X286610Y331572D01*
X284661Y329623D01*
X284661Y325725D01*
X286610Y323776D01*
X288559Y323776D01*
X290508Y325725D01*
X290508Y331572D01*
X285308Y353628D02*
X285308Y360748D01*
X276798Y360748D02*
X276798Y353628D01*
D32*
X281039Y363069D03*
X281039Y351385D03*
D12*
X289785Y336760D02*
X287836Y334811D01*
X287836Y330913D01*
X289785Y328964D01*
X297581Y328964D01*
X299530Y330913D01*
X299530Y334811D01*
X297581Y336760D01*
X289785Y344555D02*
X287836Y348453D01*
X289785Y344555D02*
X293683Y340658D01*
X297581Y340658D01*
X299530Y342606D01*
X299530Y346504D01*
X297581Y348453D01*
X295632Y348453D01*
X293683Y346504D01*
X293683Y340658D01*
X287836Y352351D02*
X287836Y360147D01*
X289785Y360147D01*
X297581Y352351D01*
X299530Y352351D01*
D10*
X295928Y354738D02*
X295928Y359638D01*
X291448Y359638D02*
X291448Y354738D01*
D13*
X293639Y361228D03*
X293639Y353100D03*
D12*
X302485Y336760D02*
X300536Y334811D01*
X300536Y330913D01*
X302485Y328964D01*
X310281Y328964D01*
X312230Y330913D01*
X312230Y334811D01*
X310281Y336760D01*
X302485Y344555D02*
X300536Y348453D01*
X302485Y344555D02*
X306383Y340658D01*
X310281Y340658D01*
X312230Y342606D01*
X312230Y346504D01*
X310281Y348453D01*
X308332Y348453D01*
X306383Y346504D01*
X306383Y340658D01*
X302485Y352351D02*
X300536Y354300D01*
X300536Y358198D01*
X302485Y360147D01*
X304434Y360147D01*
X306383Y358198D01*
X308332Y360147D01*
X310281Y360147D01*
X312230Y358198D01*
X312230Y354300D01*
X310281Y352351D01*
X308332Y352351D01*
X306383Y354300D01*
X304434Y352351D01*
X302485Y352351D01*
X306383Y354300D02*
X306383Y358198D01*
D33*
X283575Y209700D02*
X276075Y202200D01*
X283575Y209700D02*
X413575Y209700D01*
X416075Y207200D01*
X416075Y72200D01*
X413575Y69700D01*
X278575Y69700D01*
X276075Y72200D01*
X276075Y202200D01*
D12*
X345976Y152998D02*
X346102Y152996D01*
X346227Y152990D01*
X346352Y152980D01*
X346477Y152966D01*
X346602Y152949D01*
X346725Y152927D01*
X346848Y152902D01*
X346971Y152872D01*
X347092Y152839D01*
X347212Y152802D01*
X347331Y152762D01*
X347448Y152717D01*
X347564Y152669D01*
X347679Y152617D01*
X347792Y152562D01*
X347903Y152503D01*
X348012Y152441D01*
X348119Y152375D01*
X348224Y152306D01*
X348327Y152234D01*
X348427Y152159D01*
X348525Y152080D01*
X348621Y151999D01*
X348714Y151914D01*
X348804Y151827D01*
X348891Y151737D01*
X348976Y151644D01*
X349057Y151548D01*
X349136Y151450D01*
X349211Y151350D01*
X349283Y151247D01*
X349352Y151142D01*
X349418Y151035D01*
X349480Y150926D01*
X349539Y150815D01*
X349594Y150702D01*
X349646Y150587D01*
X349694Y150471D01*
X349739Y150354D01*
X349779Y150235D01*
X349816Y150115D01*
X349849Y149994D01*
X349879Y149871D01*
X349904Y149748D01*
X349926Y149625D01*
X349943Y149500D01*
X349957Y149375D01*
X349967Y149250D01*
X349973Y149125D01*
X349975Y148999D01*
D33*
X283576Y199700D02*
X283578Y199799D01*
X283584Y199899D01*
X283594Y199997D01*
X283608Y200096D01*
X283625Y200194D01*
X283647Y200291D01*
X283672Y200387D01*
X283701Y200482D01*
X283734Y200575D01*
X283771Y200668D01*
X283811Y200759D01*
X283855Y200848D01*
X283903Y200935D01*
X283953Y201021D01*
X284008Y201104D01*
X284065Y201185D01*
X284126Y201264D01*
X284189Y201340D01*
X284256Y201414D01*
X284326Y201485D01*
X284398Y201553D01*
X284473Y201618D01*
X284550Y201680D01*
X284630Y201739D01*
X284713Y201795D01*
X284797Y201847D01*
X284883Y201897D01*
X284972Y201942D01*
X285062Y201984D01*
X285153Y202023D01*
X285246Y202058D01*
X285341Y202089D01*
X285436Y202116D01*
X285533Y202139D01*
X285630Y202159D01*
X285728Y202175D01*
X285827Y202187D01*
X285926Y202195D01*
X286025Y202199D01*
X286125Y202199D01*
X286224Y202195D01*
X286323Y202187D01*
X286422Y202175D01*
X286520Y202159D01*
X286617Y202139D01*
X286714Y202116D01*
X286809Y202089D01*
X286904Y202058D01*
X286997Y202023D01*
X287088Y201984D01*
X287178Y201942D01*
X287267Y201897D01*
X287353Y201847D01*
X287437Y201795D01*
X287520Y201739D01*
X287600Y201680D01*
X287677Y201618D01*
X287752Y201553D01*
X287824Y201485D01*
X287894Y201414D01*
X287961Y201340D01*
X288024Y201264D01*
X288085Y201185D01*
X288142Y201104D01*
X288197Y201021D01*
X288247Y200935D01*
X288295Y200848D01*
X288339Y200759D01*
X288379Y200668D01*
X288416Y200575D01*
X288449Y200482D01*
X288478Y200387D01*
X288503Y200291D01*
X288525Y200194D01*
X288542Y200096D01*
X288556Y199997D01*
X288566Y199899D01*
X288572Y199799D01*
X288574Y199700D01*
X288572Y199601D01*
X288566Y199501D01*
X288556Y199403D01*
X288542Y199304D01*
X288525Y199206D01*
X288503Y199109D01*
X288478Y199013D01*
X288449Y198918D01*
X288416Y198825D01*
X288379Y198732D01*
X288339Y198641D01*
X288295Y198552D01*
X288247Y198465D01*
X288197Y198379D01*
X288142Y198296D01*
X288085Y198215D01*
X288024Y198136D01*
X287961Y198060D01*
X287894Y197986D01*
X287824Y197915D01*
X287752Y197847D01*
X287677Y197782D01*
X287600Y197720D01*
X287520Y197661D01*
X287437Y197605D01*
X287353Y197553D01*
X287267Y197503D01*
X287178Y197458D01*
X287088Y197416D01*
X286997Y197377D01*
X286904Y197342D01*
X286809Y197311D01*
X286714Y197284D01*
X286617Y197261D01*
X286520Y197241D01*
X286422Y197225D01*
X286323Y197213D01*
X286224Y197205D01*
X286125Y197201D01*
X286025Y197201D01*
X285926Y197205D01*
X285827Y197213D01*
X285728Y197225D01*
X285630Y197241D01*
X285533Y197261D01*
X285436Y197284D01*
X285341Y197311D01*
X285246Y197342D01*
X285153Y197377D01*
X285062Y197416D01*
X284972Y197458D01*
X284883Y197503D01*
X284797Y197553D01*
X284713Y197605D01*
X284630Y197661D01*
X284550Y197720D01*
X284473Y197782D01*
X284398Y197847D01*
X284326Y197915D01*
X284256Y197986D01*
X284189Y198060D01*
X284126Y198136D01*
X284065Y198215D01*
X284008Y198296D01*
X283953Y198379D01*
X283903Y198465D01*
X283855Y198552D01*
X283811Y198641D01*
X283771Y198732D01*
X283734Y198825D01*
X283701Y198918D01*
X283672Y199013D01*
X283647Y199109D01*
X283625Y199206D01*
X283608Y199304D01*
X283594Y199403D01*
X283584Y199501D01*
X283578Y199601D01*
X283576Y199700D01*
D12*
X376976Y132001D02*
X376978Y132142D01*
X376984Y132283D01*
X376994Y132423D01*
X377008Y132563D01*
X377026Y132703D01*
X377047Y132842D01*
X377073Y132981D01*
X377102Y133118D01*
X377136Y133255D01*
X377173Y133391D01*
X377214Y133526D01*
X377259Y133659D01*
X377308Y133791D01*
X377360Y133922D01*
X377416Y134051D01*
X377475Y134179D01*
X377539Y134305D01*
X377605Y134429D01*
X377675Y134551D01*
X377749Y134671D01*
X377826Y134789D01*
X377906Y134905D01*
X377989Y135019D01*
X378076Y135130D01*
X378166Y135238D01*
X378258Y135344D01*
X378354Y135448D01*
X378453Y135548D01*
X378554Y135646D01*
X378658Y135741D01*
X378765Y135833D01*
X378874Y135922D01*
X378986Y136008D01*
X379100Y136090D01*
X379216Y136170D01*
X379335Y136246D01*
X379455Y136318D01*
X379578Y136388D01*
X379702Y136454D01*
X379829Y136516D01*
X379957Y136574D01*
X380086Y136630D01*
X380218Y136681D01*
X380350Y136729D01*
X380484Y136772D01*
X380619Y136813D01*
X380755Y136849D01*
X380892Y136881D01*
X381030Y136910D01*
X381169Y136935D01*
X381308Y136955D01*
X381448Y136972D01*
X381588Y136985D01*
X381729Y136994D01*
X381869Y136999D01*
X382010Y137000D01*
X382151Y136997D01*
X382292Y136990D01*
X382432Y136979D01*
X382572Y136964D01*
X382712Y136945D01*
X382851Y136923D01*
X382989Y136896D01*
X383127Y136866D01*
X383263Y136831D01*
X383399Y136793D01*
X383533Y136751D01*
X383666Y136705D01*
X383798Y136656D01*
X383929Y136602D01*
X384057Y136546D01*
X384185Y136485D01*
X384310Y136421D01*
X384434Y136354D01*
X384555Y136283D01*
X384675Y136208D01*
X384792Y136130D01*
X384908Y136049D01*
X385021Y135965D01*
X385131Y135878D01*
X385239Y135787D01*
X385344Y135694D01*
X385447Y135598D01*
X385547Y135498D01*
X385644Y135396D01*
X385738Y135292D01*
X385829Y135184D01*
X385918Y135074D01*
X386003Y134962D01*
X386084Y134847D01*
X386163Y134731D01*
X386238Y134611D01*
X386310Y134490D01*
X386379Y134367D01*
X386443Y134242D01*
X386505Y134115D01*
X386563Y133987D01*
X386617Y133857D01*
X386667Y133725D01*
X386714Y133593D01*
X386757Y133458D01*
X386796Y133323D01*
X386831Y133187D01*
X386863Y133050D01*
X386890Y132911D01*
X386914Y132773D01*
X386934Y132633D01*
X386950Y132493D01*
X386962Y132353D01*
X386970Y132212D01*
X386974Y132071D01*
X386974Y131931D01*
X386970Y131790D01*
X386962Y131649D01*
X386950Y131509D01*
X386934Y131369D01*
X386914Y131229D01*
X386890Y131091D01*
X386863Y130952D01*
X386831Y130815D01*
X386796Y130679D01*
X386757Y130544D01*
X386714Y130409D01*
X386667Y130277D01*
X386617Y130145D01*
X386563Y130015D01*
X386505Y129887D01*
X386443Y129760D01*
X386379Y129635D01*
X386310Y129512D01*
X386238Y129391D01*
X386163Y129271D01*
X386084Y129155D01*
X386003Y129040D01*
X385918Y128928D01*
X385829Y128818D01*
X385738Y128710D01*
X385644Y128606D01*
X385547Y128504D01*
X385447Y128404D01*
X385344Y128308D01*
X385239Y128215D01*
X385131Y128124D01*
X385021Y128037D01*
X384908Y127953D01*
X384792Y127872D01*
X384675Y127794D01*
X384555Y127719D01*
X384434Y127648D01*
X384310Y127581D01*
X384185Y127517D01*
X384057Y127456D01*
X383929Y127400D01*
X383798Y127346D01*
X383666Y127297D01*
X383533Y127251D01*
X383399Y127209D01*
X383263Y127171D01*
X383127Y127136D01*
X382989Y127106D01*
X382851Y127079D01*
X382712Y127057D01*
X382572Y127038D01*
X382432Y127023D01*
X382292Y127012D01*
X382151Y127005D01*
X382010Y127002D01*
X381869Y127003D01*
X381729Y127008D01*
X381588Y127017D01*
X381448Y127030D01*
X381308Y127047D01*
X381169Y127067D01*
X381030Y127092D01*
X380892Y127121D01*
X380755Y127153D01*
X380619Y127189D01*
X380484Y127230D01*
X380350Y127273D01*
X380218Y127321D01*
X380086Y127372D01*
X379957Y127428D01*
X379829Y127486D01*
X379702Y127548D01*
X379578Y127614D01*
X379455Y127684D01*
X379335Y127756D01*
X379216Y127832D01*
X379100Y127912D01*
X378986Y127994D01*
X378874Y128080D01*
X378765Y128169D01*
X378658Y128261D01*
X378554Y128356D01*
X378453Y128454D01*
X378354Y128554D01*
X378258Y128658D01*
X378166Y128764D01*
X378076Y128872D01*
X377989Y128983D01*
X377906Y129097D01*
X377826Y129213D01*
X377749Y129331D01*
X377675Y129451D01*
X377605Y129573D01*
X377539Y129697D01*
X377475Y129823D01*
X377416Y129951D01*
X377360Y130080D01*
X377308Y130211D01*
X377259Y130343D01*
X377214Y130476D01*
X377173Y130611D01*
X377136Y130747D01*
X377102Y130884D01*
X377073Y131021D01*
X377047Y131160D01*
X377026Y131299D01*
X377008Y131439D01*
X376994Y131579D01*
X376984Y131719D01*
X376978Y131860D01*
X376976Y132001D01*
D17*
X320813Y122652D02*
X320813Y115280D01*
X318356Y122652D02*
X323271Y122652D01*
X325840Y121424D02*
X325840Y116509D01*
X325840Y121424D02*
X327069Y122652D01*
X329526Y122652D01*
X330755Y121424D01*
X330755Y116509D01*
X329526Y115280D01*
X327069Y115280D01*
X325840Y116509D01*
X328298Y117737D02*
X330755Y115280D01*
X333324Y115280D02*
X333324Y122652D01*
X338239Y122652D01*
X335782Y118966D02*
X333324Y118966D01*
X340808Y115280D02*
X340808Y122652D01*
X344495Y122652D01*
X345723Y121424D01*
X345723Y118966D01*
X344495Y117737D01*
X340808Y117737D01*
X355777Y120195D02*
X358234Y122652D01*
X358234Y115280D01*
X355777Y115280D02*
X360692Y115280D01*
X363261Y116509D02*
X363261Y121424D01*
X364490Y122652D01*
X366947Y122652D01*
X368176Y121424D01*
X368176Y116509D01*
X366947Y115280D01*
X364490Y115280D01*
X363261Y116509D01*
X368176Y121424D01*
X370745Y121424D02*
X370745Y116509D01*
X370745Y121424D02*
X371974Y122652D01*
X374431Y122652D01*
X375660Y121424D01*
X375660Y116509D01*
X374431Y115280D01*
X371974Y115280D01*
X370745Y116509D01*
X375660Y121424D01*
D12*
X380482Y129507D02*
X380482Y134591D01*
X383024Y134591D01*
X383872Y133744D01*
X383872Y132049D01*
X383024Y131202D01*
X380482Y131202D01*
X382177Y131202D02*
X383872Y129507D01*
D34*
X269326Y199701D03*
D35*
X269326Y194701D03*
D34*
X269326Y189701D03*
D35*
X269326Y184701D03*
D34*
X269326Y179701D03*
D35*
X269326Y174701D03*
D34*
X269326Y169701D03*
D35*
X269326Y164701D03*
D34*
X269326Y159701D03*
D35*
X269326Y154701D03*
D34*
X269326Y149701D03*
D35*
X269326Y144701D03*
D34*
X269326Y139701D03*
D35*
X269326Y134701D03*
D34*
X269326Y129701D03*
D35*
X269326Y124701D03*
D34*
X269326Y119701D03*
D35*
X269326Y114701D03*
D34*
X269326Y109701D03*
D35*
X269326Y104701D03*
D34*
X269326Y99701D03*
D35*
X269326Y94701D03*
D34*
X269326Y89701D03*
D35*
X269326Y84701D03*
D34*
X269326Y79701D03*
D36*
X286076Y62951D03*
D37*
X291076Y62951D03*
D36*
X296076Y62951D03*
D37*
X301076Y62951D03*
D36*
X306076Y62951D03*
D37*
X311076Y62951D03*
D36*
X316076Y62951D03*
D37*
X321076Y62951D03*
D36*
X326076Y62951D03*
D37*
X331076Y62951D03*
D36*
X336076Y62951D03*
D37*
X341076Y62951D03*
D36*
X346076Y62951D03*
D37*
X351076Y62951D03*
D36*
X356076Y62951D03*
D37*
X361076Y62951D03*
D36*
X366076Y62951D03*
D37*
X371076Y62951D03*
D36*
X376076Y62951D03*
D37*
X381076Y62951D03*
D36*
X386076Y62951D03*
D37*
X391076Y62951D03*
D36*
X396076Y62951D03*
D37*
X401076Y62951D03*
D36*
X406076Y62951D03*
D34*
X422826Y79701D03*
D35*
X422826Y84701D03*
D34*
X422826Y89701D03*
D35*
X422826Y94701D03*
D34*
X422826Y99701D03*
D35*
X422826Y104701D03*
D34*
X422826Y109701D03*
D35*
X422826Y114701D03*
D34*
X422826Y119701D03*
D35*
X422826Y124701D03*
D34*
X422826Y129701D03*
D35*
X422826Y134701D03*
D34*
X422826Y139701D03*
D35*
X422826Y144701D03*
D34*
X422826Y149701D03*
D35*
X422826Y154701D03*
D34*
X422826Y159701D03*
D35*
X422826Y164701D03*
D34*
X422826Y169701D03*
D35*
X422826Y174701D03*
D34*
X422826Y179701D03*
D35*
X422826Y184701D03*
D34*
X422826Y189701D03*
D35*
X422826Y194701D03*
D34*
X422826Y199701D03*
D36*
X406076Y216451D03*
D37*
X401076Y216451D03*
D36*
X396076Y216451D03*
D37*
X391076Y216451D03*
D36*
X386076Y216451D03*
D37*
X381076Y216451D03*
D36*
X376076Y216451D03*
D37*
X371076Y216451D03*
D36*
X366076Y216451D03*
D37*
X361076Y216451D03*
D36*
X356076Y216451D03*
D37*
X351076Y216451D03*
D36*
X346076Y216451D03*
D37*
X341076Y216451D03*
D36*
X336076Y216451D03*
D37*
X331076Y216451D03*
D36*
X326076Y216451D03*
D37*
X321076Y216451D03*
D36*
X316076Y216451D03*
D37*
X311076Y216451D03*
D36*
X306076Y216451D03*
D37*
X301076Y216451D03*
D36*
X296076Y216451D03*
D37*
X291076Y216451D03*
D36*
X286076Y216451D03*
D12*
X286531Y232659D02*
X282633Y232659D01*
X284582Y232659D02*
X284582Y244353D01*
X282633Y244353D02*
X286531Y244353D01*
X296276Y244353D02*
X298225Y242404D01*
X296276Y244353D02*
X292378Y244353D01*
X290429Y242404D01*
X290429Y234608D01*
X292378Y232659D01*
X296276Y232659D01*
X298225Y234608D01*
X302123Y240455D02*
X306021Y244353D01*
X306021Y232659D01*
X302123Y232659D02*
X309919Y232659D01*
D10*
X278465Y238850D02*
X278465Y243750D01*
X273985Y243750D02*
X273985Y238850D01*
D13*
X276177Y245340D03*
X276177Y237212D03*
D12*
X285022Y220872D02*
X283073Y218923D01*
X283073Y215025D01*
X285022Y213076D01*
X292818Y213076D01*
X294767Y215025D01*
X294767Y218923D01*
X292818Y220872D01*
X294767Y230617D02*
X283073Y230617D01*
X288920Y224770D01*
X288920Y232566D01*
X292818Y236464D02*
X294767Y238413D01*
X294767Y242311D01*
X292818Y244260D01*
X285022Y244260D01*
X283073Y242311D01*
X283073Y238413D01*
X285022Y236464D01*
X286971Y236464D01*
X288920Y238413D01*
X288920Y244260D01*
D10*
X270738Y222903D02*
X265838Y222903D01*
X265838Y218423D02*
X270738Y218423D01*
D11*
X264248Y220614D03*
X272376Y220614D03*
D12*
X270241Y237265D02*
X268292Y239214D01*
X264394Y239214D01*
X262446Y237265D01*
X262446Y229469D01*
X264394Y227521D01*
X268292Y227521D01*
X270241Y229469D01*
X274139Y239214D02*
X281935Y239214D01*
X274139Y239214D02*
X274139Y233367D01*
X278037Y235316D01*
X279986Y235316D01*
X281935Y233367D01*
X281935Y229469D01*
X279986Y227521D01*
X276088Y227521D01*
X274139Y229469D01*
X285833Y235316D02*
X289731Y239214D01*
X289731Y227521D01*
X285833Y227521D02*
X293629Y227521D01*
D10*
X353078Y238850D02*
X353078Y243750D01*
X348598Y243750D02*
X348598Y238850D01*
D13*
X350789Y245340D03*
X350789Y237212D03*
D12*
X359635Y220872D02*
X357686Y218923D01*
X357686Y215025D01*
X359635Y213076D01*
X367431Y213076D01*
X369380Y215025D01*
X369380Y218923D01*
X367431Y220872D01*
X357686Y224770D02*
X357686Y232566D01*
X357686Y224770D02*
X363533Y224770D01*
X361584Y228668D01*
X361584Y230617D01*
X363533Y232566D01*
X367431Y232566D01*
X369380Y230617D01*
X369380Y226719D01*
X367431Y224770D01*
X369380Y236464D02*
X369380Y244260D01*
X369380Y236464D02*
X361584Y244260D01*
X359635Y244260D01*
X357686Y242311D01*
X357686Y238413D01*
X359635Y236464D01*
D24*
X338263Y9725D02*
X306263Y9725D01*
X306263Y34725D02*
X338263Y34725D01*
X338263Y9725D01*
X306263Y9725D02*
X306263Y34725D01*
D10*
X253065Y116613D02*
X253065Y121513D01*
X248585Y121513D02*
X248585Y116613D01*
D13*
X250777Y123103D03*
X250777Y114975D03*
D12*
X257673Y90839D02*
X269367Y90839D01*
X257673Y90839D02*
X257673Y96686D01*
X259622Y98635D01*
X263520Y98635D01*
X265469Y96686D01*
X265469Y90839D01*
X265469Y94737D02*
X269367Y98635D01*
X269367Y108379D02*
X257673Y108379D01*
X263520Y102533D01*
X263520Y110328D01*
X259622Y114226D02*
X257673Y116175D01*
X257673Y120073D01*
X259622Y122022D01*
X261571Y122022D01*
X263520Y120073D01*
X265469Y122022D01*
X267418Y122022D01*
X269367Y120073D01*
X269367Y116175D01*
X267418Y114226D01*
X265469Y114226D01*
X263520Y116175D01*
X261571Y114226D01*
X259622Y114226D01*
X263520Y116175D02*
X263520Y120073D01*
D10*
X31025Y308628D02*
X26125Y308628D01*
X26125Y304148D02*
X31025Y304148D01*
D11*
X24535Y306339D03*
X32663Y306339D03*
D12*
X22733Y313246D02*
X22733Y324939D01*
X28580Y324939D01*
X30529Y322990D01*
X30529Y319092D01*
X28580Y317143D01*
X22733Y317143D01*
X26631Y317143D02*
X30529Y313246D01*
X40274Y313246D02*
X40274Y324939D01*
X34427Y319092D01*
X42223Y319092D01*
X46121Y315194D02*
X48070Y313246D01*
X51968Y313246D01*
X53917Y315194D01*
X53917Y322990D01*
X51968Y324939D01*
X48070Y324939D01*
X46121Y322990D01*
X46121Y321041D01*
X48070Y319092D01*
X53917Y319092D01*
D10*
X35788Y316848D02*
X30888Y316848D01*
X30888Y321328D02*
X35788Y321328D01*
D11*
X37378Y319136D03*
X29250Y319136D03*
D12*
X5114Y312239D02*
X5114Y300546D01*
X5114Y312239D02*
X10961Y312239D01*
X12910Y310290D01*
X12910Y306392D01*
X10961Y304443D01*
X5114Y304443D01*
X9012Y304443D02*
X12910Y300546D01*
X16808Y312239D02*
X24603Y312239D01*
X16808Y312239D02*
X16808Y306392D01*
X20705Y308341D01*
X22654Y308341D01*
X24603Y306392D01*
X24603Y302494D01*
X22654Y300546D01*
X18756Y300546D01*
X16808Y302494D01*
X28501Y302494D02*
X28501Y310290D01*
X30450Y312239D01*
X34348Y312239D01*
X36297Y310290D01*
X36297Y302494D01*
X34348Y300546D01*
X30450Y300546D01*
X28501Y302494D01*
X36297Y310290D01*
D10*
X39624Y336296D02*
X39624Y349504D01*
X39624Y336296D02*
X11176Y336296D01*
X11176Y349504D01*
X39624Y349504D01*
D29*
X25400Y352933D03*
X34798Y332867D03*
X16002Y332867D03*
D12*
X6858Y364407D02*
X6858Y372203D01*
X8807Y374152D01*
X12705Y374152D01*
X14654Y372203D01*
X14654Y364407D01*
X12705Y362458D01*
X8807Y362458D01*
X6858Y364407D01*
X10756Y366356D02*
X14654Y362458D01*
X18552Y362458D02*
X26348Y362458D01*
X18552Y362458D02*
X26348Y370254D01*
X26348Y372203D01*
X24399Y374152D01*
X20501Y374152D01*
X18552Y372203D01*
D10*
X54700Y321328D02*
X59600Y321328D01*
X59600Y316848D02*
X54700Y316848D01*
D11*
X53110Y319039D03*
X61238Y319039D03*
D12*
X51308Y325946D02*
X51308Y337639D01*
X57155Y337639D01*
X59104Y335690D01*
X59104Y331792D01*
X57155Y329843D01*
X51308Y329843D01*
X55206Y329843D02*
X59104Y325946D01*
X63002Y337639D02*
X70798Y337639D01*
X63002Y337639D02*
X63002Y331792D01*
X66900Y333741D01*
X68849Y333741D01*
X70798Y331792D01*
X70798Y327894D01*
X68849Y325946D01*
X64951Y325946D01*
X63002Y327894D01*
X74696Y333741D02*
X78594Y337639D01*
X78594Y325946D01*
X74696Y325946D02*
X82492Y325946D01*
D10*
X59600Y327960D02*
X54700Y327960D01*
X54700Y332440D02*
X59600Y332440D01*
D11*
X61190Y330249D03*
X53062Y330249D03*
D12*
X28926Y323352D02*
X28926Y311658D01*
X28926Y323352D02*
X34773Y323352D01*
X36722Y321403D01*
X36722Y317505D01*
X34773Y315556D01*
X28926Y315556D01*
X32824Y315556D02*
X36722Y311658D01*
X40620Y323352D02*
X48416Y323352D01*
X40620Y323352D02*
X40620Y317505D01*
X44518Y319454D01*
X46467Y319454D01*
X48416Y317505D01*
X48416Y313607D01*
X46467Y311658D01*
X42569Y311658D01*
X40620Y313607D01*
X52314Y323352D02*
X60110Y323352D01*
X52314Y323352D02*
X52314Y317505D01*
X56212Y319454D01*
X58161Y319454D01*
X60110Y317505D01*
X60110Y313607D01*
X58161Y311658D01*
X54263Y311658D01*
X52314Y313607D01*
D10*
X71374Y348996D02*
X71374Y362204D01*
X71374Y348996D02*
X42926Y348996D01*
X42926Y362204D01*
X71374Y362204D01*
D29*
X57150Y365633D03*
X66548Y345567D03*
X47752Y345567D03*
D12*
X38608Y377107D02*
X38608Y384903D01*
X40557Y386852D01*
X44455Y386852D01*
X46404Y384903D01*
X46404Y377107D01*
X44455Y375158D01*
X40557Y375158D01*
X38608Y377107D01*
X42506Y379056D02*
X46404Y375158D01*
X56149Y375158D02*
X56149Y386852D01*
X50302Y381005D01*
X58098Y381005D01*
D10*
X181700Y265765D02*
X186600Y265765D01*
X186600Y261285D02*
X181700Y261285D01*
D11*
X180110Y263477D03*
X188238Y263477D03*
D12*
X178308Y270383D02*
X178308Y282077D01*
X184155Y282077D01*
X186104Y280128D01*
X186104Y276230D01*
X184155Y274281D01*
X178308Y274281D01*
X182206Y274281D02*
X186104Y270383D01*
X190002Y282077D02*
X197798Y282077D01*
X190002Y282077D02*
X190002Y276230D01*
X193900Y278179D01*
X195849Y278179D01*
X197798Y276230D01*
X197798Y272332D01*
X195849Y270383D01*
X191951Y270383D01*
X190002Y272332D01*
X205594Y280128D02*
X209492Y282077D01*
X205594Y280128D02*
X201696Y276230D01*
X201696Y272332D01*
X203645Y270383D01*
X207543Y270383D01*
X209492Y272332D01*
X209492Y274281D01*
X207543Y276230D01*
X201696Y276230D01*
D10*
X186600Y272398D02*
X181700Y272398D01*
X181700Y276878D02*
X186600Y276878D01*
D11*
X188190Y274686D03*
X180062Y274686D03*
D12*
X155926Y267789D02*
X155926Y256096D01*
X155926Y267789D02*
X161773Y267789D01*
X163722Y265840D01*
X163722Y261942D01*
X161773Y259993D01*
X155926Y259993D01*
X159824Y259993D02*
X163722Y256096D01*
X167620Y267789D02*
X175416Y267789D01*
X167620Y267789D02*
X167620Y261942D01*
X171518Y263891D01*
X173467Y263891D01*
X175416Y261942D01*
X175416Y258044D01*
X173467Y256096D01*
X169569Y256096D01*
X167620Y258044D01*
X179314Y258044D02*
X181263Y256096D01*
X185161Y256096D01*
X187110Y258044D01*
X187110Y265840D01*
X185161Y267789D01*
X181263Y267789D01*
X179314Y265840D01*
X179314Y263891D01*
X181263Y261942D01*
X187110Y261942D01*
D10*
X198374Y293434D02*
X198374Y306642D01*
X198374Y293434D02*
X169926Y293434D01*
X169926Y306642D01*
X198374Y306642D01*
D29*
X184150Y310071D03*
X193548Y290005D03*
X174752Y290005D03*
D12*
X165608Y321544D02*
X165608Y329340D01*
X167557Y331289D01*
X171455Y331289D01*
X173404Y329340D01*
X173404Y321544D01*
X171455Y319596D01*
X167557Y319596D01*
X165608Y321544D01*
X169506Y323493D02*
X173404Y319596D01*
X177302Y331289D02*
X185098Y331289D01*
X177302Y331289D02*
X177302Y325442D01*
X181200Y327391D01*
X183149Y327391D01*
X185098Y325442D01*
X185098Y321544D01*
X183149Y319596D01*
X179251Y319596D01*
X177302Y321544D01*
D10*
X213450Y265765D02*
X218350Y265765D01*
X218350Y261285D02*
X213450Y261285D01*
D11*
X211860Y263477D03*
X219988Y263477D03*
D12*
X210058Y270383D02*
X210058Y282077D01*
X215905Y282077D01*
X217854Y280128D01*
X217854Y276230D01*
X215905Y274281D01*
X210058Y274281D01*
X213956Y274281D02*
X217854Y270383D01*
X225650Y280128D02*
X229548Y282077D01*
X225650Y280128D02*
X221752Y276230D01*
X221752Y272332D01*
X223701Y270383D01*
X227599Y270383D01*
X229548Y272332D01*
X229548Y274281D01*
X227599Y276230D01*
X221752Y276230D01*
X233446Y272332D02*
X233446Y280128D01*
X235395Y282077D01*
X239293Y282077D01*
X241242Y280128D01*
X241242Y272332D01*
X239293Y270383D01*
X235395Y270383D01*
X233446Y272332D01*
X241242Y280128D01*
D10*
X218350Y272398D02*
X213450Y272398D01*
X213450Y276878D02*
X218350Y276878D01*
D11*
X219940Y274686D03*
X211812Y274686D03*
D12*
X187676Y267789D02*
X187676Y256096D01*
X187676Y267789D02*
X193523Y267789D01*
X195472Y265840D01*
X195472Y261942D01*
X193523Y259993D01*
X187676Y259993D01*
X191574Y259993D02*
X195472Y256096D01*
X203268Y265840D02*
X207166Y267789D01*
X203268Y265840D02*
X199370Y261942D01*
X199370Y258044D01*
X201319Y256096D01*
X205217Y256096D01*
X207166Y258044D01*
X207166Y259993D01*
X205217Y261942D01*
X199370Y261942D01*
X211064Y263891D02*
X214962Y267789D01*
X214962Y256096D01*
X211064Y256096D02*
X218860Y256096D01*
D10*
X230124Y293434D02*
X230124Y306642D01*
X230124Y293434D02*
X201676Y293434D01*
X201676Y306642D01*
X230124Y306642D01*
D29*
X215900Y310071D03*
X225298Y290005D03*
X206502Y290005D03*
D12*
X197358Y321544D02*
X197358Y329340D01*
X199307Y331289D01*
X203205Y331289D01*
X205154Y329340D01*
X205154Y321544D01*
X203205Y319596D01*
X199307Y319596D01*
X197358Y321544D01*
X201256Y323493D02*
X205154Y319596D01*
X212950Y329340D02*
X216848Y331289D01*
X212950Y329340D02*
X209052Y325442D01*
X209052Y321544D01*
X211001Y319596D01*
X214899Y319596D01*
X216848Y321544D01*
X216848Y323493D01*
X214899Y325442D01*
X209052Y325442D01*
D10*
X154850Y302278D02*
X149950Y302278D01*
X149950Y297798D02*
X154850Y297798D01*
D11*
X148360Y299989D03*
X156488Y299989D03*
D12*
X146558Y306896D02*
X146558Y318589D01*
X152405Y318589D01*
X154354Y316640D01*
X154354Y312742D01*
X152405Y310793D01*
X146558Y310793D01*
X150456Y310793D02*
X154354Y306896D01*
X162150Y316640D02*
X166048Y318589D01*
X162150Y316640D02*
X158252Y312742D01*
X158252Y308844D01*
X160201Y306896D01*
X164099Y306896D01*
X166048Y308844D01*
X166048Y310793D01*
X164099Y312742D01*
X158252Y312742D01*
X169946Y306896D02*
X177742Y306896D01*
X177742Y314691D02*
X169946Y306896D01*
X177742Y314691D02*
X177742Y316640D01*
X175793Y318589D01*
X171895Y318589D01*
X169946Y316640D01*
D10*
X154850Y308910D02*
X149950Y308910D01*
X149950Y313390D02*
X154850Y313390D01*
D11*
X156440Y311199D03*
X148312Y311199D03*
D12*
X124176Y304302D02*
X124176Y292608D01*
X124176Y304302D02*
X130023Y304302D01*
X131972Y302353D01*
X131972Y298455D01*
X130023Y296506D01*
X124176Y296506D01*
X128074Y296506D02*
X131972Y292608D01*
X139768Y302353D02*
X143666Y304302D01*
X139768Y302353D02*
X135870Y298455D01*
X135870Y294557D01*
X137819Y292608D01*
X141717Y292608D01*
X143666Y294557D01*
X143666Y296506D01*
X141717Y298455D01*
X135870Y298455D01*
X147564Y302353D02*
X149513Y304302D01*
X153411Y304302D01*
X155360Y302353D01*
X155360Y300404D01*
X153411Y298455D01*
X151462Y298455D01*
X153411Y298455D02*
X155360Y296506D01*
X155360Y294557D01*
X153411Y292608D01*
X149513Y292608D01*
X147564Y294557D01*
D10*
X166624Y329946D02*
X166624Y343154D01*
X166624Y329946D02*
X138176Y329946D01*
X138176Y343154D01*
X166624Y343154D01*
D29*
X152400Y346583D03*
X161798Y326517D03*
X143002Y326517D03*
D12*
X133858Y358057D02*
X133858Y365853D01*
X135807Y367802D01*
X139705Y367802D01*
X141654Y365853D01*
X141654Y358057D01*
X139705Y356108D01*
X135807Y356108D01*
X133858Y358057D01*
X137756Y360006D02*
X141654Y356108D01*
X145552Y367802D02*
X153348Y367802D01*
X153348Y365853D01*
X145552Y358057D01*
X145552Y356108D01*
D10*
X91350Y321328D02*
X86450Y321328D01*
X86450Y316848D02*
X91350Y316848D01*
D11*
X84860Y319039D03*
X92988Y319039D03*
D12*
X83058Y325946D02*
X83058Y337639D01*
X88905Y337639D01*
X90854Y335690D01*
X90854Y331792D01*
X88905Y329843D01*
X83058Y329843D01*
X86956Y329843D02*
X90854Y325946D01*
X94752Y325946D02*
X102548Y325946D01*
X102548Y333741D02*
X94752Y325946D01*
X102548Y333741D02*
X102548Y335690D01*
X100599Y337639D01*
X96701Y337639D01*
X94752Y335690D01*
D10*
X91350Y327960D02*
X86450Y327960D01*
X86450Y332440D02*
X91350Y332440D01*
D11*
X92940Y330249D03*
X84812Y330249D03*
D12*
X72370Y323352D02*
X72370Y311658D01*
X72370Y323352D02*
X78217Y323352D01*
X80166Y321403D01*
X80166Y317505D01*
X78217Y315556D01*
X72370Y315556D01*
X76268Y315556D02*
X80166Y311658D01*
X84064Y321403D02*
X86013Y323352D01*
X89911Y323352D01*
X91860Y321403D01*
X91860Y319454D01*
X89911Y317505D01*
X87962Y317505D01*
X89911Y317505D02*
X91860Y315556D01*
X91860Y313607D01*
X89911Y311658D01*
X86013Y311658D01*
X84064Y313607D01*
D10*
X103124Y348996D02*
X103124Y362204D01*
X103124Y348996D02*
X74676Y348996D01*
X74676Y362204D01*
X103124Y362204D01*
D29*
X88900Y365633D03*
X98298Y345567D03*
X79502Y345567D03*
D12*
X70358Y377107D02*
X70358Y384903D01*
X72307Y386852D01*
X76205Y386852D01*
X78154Y384903D01*
X78154Y377107D01*
X76205Y375158D01*
X72307Y375158D01*
X70358Y377107D01*
X74256Y379056D02*
X78154Y375158D01*
X82052Y382954D02*
X85950Y386852D01*
X85950Y375158D01*
X82052Y375158D02*
X89848Y375158D01*
D10*
X118200Y321328D02*
X123100Y321328D01*
X123100Y316848D02*
X118200Y316848D01*
D11*
X116610Y319039D03*
X124738Y319039D03*
D12*
X114808Y325946D02*
X114808Y337639D01*
X120655Y337639D01*
X122604Y335690D01*
X122604Y331792D01*
X120655Y329843D01*
X114808Y329843D01*
X118706Y329843D02*
X122604Y325946D01*
X126502Y333741D02*
X130400Y337639D01*
X130400Y325946D01*
X126502Y325946D02*
X134298Y325946D01*
X142094Y335690D02*
X145992Y337639D01*
X142094Y335690D02*
X138196Y331792D01*
X138196Y327894D01*
X140145Y325946D01*
X144043Y325946D01*
X145992Y327894D01*
X145992Y329843D01*
X144043Y331792D01*
X138196Y331792D01*
D10*
X123100Y327960D02*
X118200Y327960D01*
X118200Y332440D02*
X123100Y332440D01*
D11*
X124690Y330249D03*
X116562Y330249D03*
D12*
X92426Y323352D02*
X92426Y311658D01*
X92426Y323352D02*
X98273Y323352D01*
X100222Y321403D01*
X100222Y317505D01*
X98273Y315556D01*
X92426Y315556D01*
X96324Y315556D02*
X100222Y311658D01*
X104120Y319454D02*
X108018Y323352D01*
X108018Y311658D01*
X104120Y311658D02*
X111916Y311658D01*
X115814Y323352D02*
X123610Y323352D01*
X123610Y321403D01*
X115814Y313607D01*
X115814Y311658D01*
D10*
X134874Y348996D02*
X134874Y362204D01*
X134874Y348996D02*
X106426Y348996D01*
X106426Y362204D01*
X134874Y362204D01*
D29*
X120650Y365633D03*
X130048Y345567D03*
X111252Y345567D03*
D12*
X102108Y377107D02*
X102108Y384903D01*
X104057Y386852D01*
X107955Y386852D01*
X109904Y384903D01*
X109904Y377107D01*
X107955Y375158D01*
X104057Y375158D01*
X102108Y377107D01*
X106006Y379056D02*
X109904Y375158D01*
X113802Y384903D02*
X115751Y386852D01*
X119649Y386852D01*
X121598Y384903D01*
X121598Y382954D01*
X119649Y381005D01*
X121598Y379056D01*
X121598Y377107D01*
X119649Y375158D01*
X115751Y375158D01*
X113802Y377107D01*
X113802Y379056D01*
X115751Y381005D01*
X113802Y382954D01*
X113802Y384903D01*
X115751Y381005D02*
X119649Y381005D01*
D20*
X178125Y368713D02*
X215575Y368713D01*
X215575Y352013D02*
X178125Y352013D01*
X193675Y360363D02*
X200025Y355600D01*
X200025Y360363D01*
X200025Y365126D01*
X193675Y360363D01*
X193675Y355600D01*
X193675Y360363D02*
X193675Y365126D01*
X200025Y360363D02*
X202463Y360363D01*
X193675Y360363D02*
X191237Y360363D01*
D38*
X179163Y360363D03*
X214538Y360363D03*
D39*
X188413Y360363D03*
D12*
X166878Y372301D02*
X166878Y383994D01*
X166878Y372301D02*
X172725Y372301D01*
X174674Y374249D01*
X174674Y382045D01*
X172725Y383994D01*
X166878Y383994D01*
X178572Y382045D02*
X180521Y383994D01*
X184419Y383994D01*
X186368Y382045D01*
X186368Y380096D01*
X184419Y378147D01*
X182470Y378147D01*
X184419Y378147D02*
X186368Y376198D01*
X186368Y374249D01*
X184419Y372301D01*
X180521Y372301D01*
X178572Y374249D01*
D20*
X178125Y343313D02*
X215575Y343313D01*
X215575Y326613D02*
X178125Y326613D01*
X193675Y334963D02*
X200025Y330200D01*
X200025Y334963D01*
X200025Y339726D01*
X193675Y334963D01*
X193675Y330200D01*
X193675Y334963D02*
X193675Y339726D01*
X200025Y334963D02*
X202463Y334963D01*
X193675Y334963D02*
X191237Y334963D01*
D38*
X179163Y334963D03*
X214538Y334963D03*
D39*
X188413Y334963D03*
D12*
X166878Y346901D02*
X166878Y358594D01*
X166878Y346901D02*
X172725Y346901D01*
X174674Y348849D01*
X174674Y356645D01*
X172725Y358594D01*
X166878Y358594D01*
X178572Y358594D02*
X186368Y358594D01*
X178572Y358594D02*
X178572Y352747D01*
X182470Y354696D01*
X184419Y354696D01*
X186368Y352747D01*
X186368Y348849D01*
X184419Y346901D01*
X180521Y346901D01*
X178572Y348849D01*
D10*
X302278Y270738D02*
X302278Y265838D01*
X297798Y265838D02*
X297798Y270738D01*
D13*
X299989Y272328D03*
X299989Y264200D03*
D12*
X306886Y240064D02*
X318580Y240064D01*
X306886Y240064D02*
X306886Y245911D01*
X308835Y247860D01*
X312733Y247860D01*
X314682Y245911D01*
X314682Y240064D01*
X314682Y243962D02*
X318580Y247860D01*
X310784Y251758D02*
X306886Y255655D01*
X318580Y255655D01*
X318580Y251758D02*
X318580Y259553D01*
X316631Y263451D02*
X318580Y265400D01*
X318580Y269298D01*
X316631Y271247D01*
X308835Y271247D01*
X306886Y269298D01*
X306886Y265400D01*
X308835Y263451D01*
X310784Y263451D01*
X312733Y265400D01*
X312733Y271247D01*
D10*
X291165Y270738D02*
X291165Y265838D01*
X286685Y265838D02*
X286685Y270738D01*
D13*
X288877Y272328D03*
X288877Y264200D03*
D12*
X295773Y240064D02*
X307467Y240064D01*
X295773Y240064D02*
X295773Y245911D01*
X297722Y247860D01*
X301620Y247860D01*
X303569Y245911D01*
X303569Y240064D01*
X303569Y243962D02*
X307467Y247860D01*
X307467Y251758D02*
X307467Y259553D01*
X307467Y251758D02*
X299671Y259553D01*
X297722Y259553D01*
X295773Y257604D01*
X295773Y253706D01*
X297722Y251758D01*
X297722Y263451D02*
X305518Y263451D01*
X297722Y263451D02*
X295773Y265400D01*
X295773Y269298D01*
X297722Y271247D01*
X305518Y271247D01*
X307467Y269298D01*
X307467Y265400D01*
X305518Y263451D01*
X297722Y271247D01*
D10*
X340450Y46690D02*
X345350Y46690D01*
X345350Y42210D02*
X340450Y42210D01*
D11*
X338860Y44402D03*
X346988Y44402D03*
D12*
X337058Y51308D02*
X337058Y63002D01*
X342905Y63002D01*
X344854Y61053D01*
X344854Y57155D01*
X342905Y55206D01*
X337058Y55206D01*
X340956Y55206D02*
X344854Y51308D01*
X348752Y51308D02*
X356548Y51308D01*
X348752Y51308D02*
X356548Y59104D01*
X356548Y61053D01*
X354599Y63002D01*
X350701Y63002D01*
X348752Y61053D01*
X360446Y59104D02*
X364344Y63002D01*
X364344Y51308D01*
X360446Y51308D02*
X368242Y51308D01*
D10*
X10178Y426175D02*
X10178Y431075D01*
X5698Y431075D02*
X5698Y426175D01*
D13*
X7889Y432665D03*
X7889Y424537D03*
D12*
X14786Y412095D02*
X26480Y412095D01*
X14786Y412095D02*
X14786Y417942D01*
X16735Y419891D01*
X20633Y419891D01*
X22582Y417942D01*
X22582Y412095D01*
X22582Y415993D02*
X26480Y419891D01*
X14786Y423789D02*
X14786Y431585D01*
X16735Y431585D01*
X24531Y423789D01*
X26480Y423789D01*
D10*
X5698Y449988D02*
X5698Y454888D01*
X10178Y454888D02*
X10178Y449988D01*
D13*
X7986Y448398D03*
X7986Y456526D03*
D12*
X1080Y446596D02*
X-10614Y446596D01*
X-10614Y452442D01*
X-8665Y454391D01*
X-4767Y454391D01*
X-2818Y452442D01*
X-2818Y446596D01*
X-2818Y450493D02*
X1080Y454391D01*
X1080Y458289D02*
X1080Y466085D01*
X1080Y458289D02*
X-6716Y466085D01*
X-8665Y466085D01*
X-10614Y464136D01*
X-10614Y460238D01*
X-8665Y458289D01*
X1080Y469983D02*
X1080Y477779D01*
X1080Y469983D02*
X-6716Y477779D01*
X-8665Y477779D01*
X-10614Y475830D01*
X-10614Y471932D01*
X-8665Y469983D01*
D10*
X26734Y439801D02*
X39942Y439801D01*
X26734Y439801D02*
X26734Y468249D01*
X39942Y468249D01*
X39942Y439801D01*
D40*
X43371Y454025D03*
X23305Y444627D03*
X23305Y463423D03*
D12*
X54835Y450195D02*
X62631Y450195D01*
X54835Y450195D02*
X52886Y452144D01*
X52886Y456042D01*
X54835Y457991D01*
X62631Y457991D01*
X64580Y456042D01*
X64580Y452144D01*
X62631Y450195D01*
X60682Y454093D02*
X64580Y457991D01*
X62631Y461889D02*
X64580Y463838D01*
X64580Y467736D01*
X62631Y469685D01*
X54835Y469685D01*
X52886Y467736D01*
X52886Y463838D01*
X54835Y461889D01*
X56784Y461889D01*
X58733Y463838D01*
X58733Y469685D01*
D20*
X48888Y490950D02*
X11438Y490950D01*
X11438Y474250D02*
X48888Y474250D01*
X33338Y477837D02*
X26988Y482600D01*
X33338Y482600D02*
X33338Y477837D01*
X33338Y482600D02*
X33338Y487363D01*
X26988Y482600D01*
X26988Y477837D01*
X26988Y482600D02*
X26988Y487363D01*
X33338Y482600D02*
X35776Y482600D01*
X26988Y482600D02*
X24550Y482600D01*
D38*
X12475Y482600D03*
X47850Y482600D03*
D39*
X21726Y482600D03*
D12*
X191Y494538D02*
X191Y506232D01*
X191Y494538D02*
X6037Y494538D01*
X7986Y496487D01*
X7986Y504283D01*
X6037Y506232D01*
X191Y506232D01*
X11884Y506232D02*
X19680Y506232D01*
X19680Y504283D01*
X11884Y496487D01*
X11884Y494538D01*
D10*
X443565Y431075D02*
X443565Y426175D01*
X439085Y426175D02*
X439085Y431075D01*
D13*
X441277Y432665D03*
X441277Y424537D03*
D12*
X448173Y400401D02*
X459867Y400401D01*
X448173Y400401D02*
X448173Y406248D01*
X450122Y408197D01*
X454020Y408197D01*
X455969Y406248D01*
X455969Y400401D01*
X455969Y404299D02*
X459867Y408197D01*
X459867Y412095D02*
X459867Y419891D01*
X459867Y412095D02*
X452071Y419891D01*
X450122Y419891D01*
X448173Y417942D01*
X448173Y414044D01*
X450122Y412095D01*
X448173Y423789D02*
X448173Y431585D01*
X448173Y423789D02*
X454020Y423789D01*
X452071Y427687D01*
X452071Y429636D01*
X454020Y431585D01*
X457918Y431585D01*
X459867Y429636D01*
X459867Y425738D01*
X457918Y423789D01*
D10*
X443565Y449988D02*
X443565Y454888D01*
X439085Y454888D02*
X439085Y449988D01*
D13*
X441277Y456478D03*
X441277Y448350D03*
D12*
X448173Y424214D02*
X459867Y424214D01*
X448173Y424214D02*
X448173Y430061D01*
X450122Y432010D01*
X454020Y432010D01*
X455969Y430061D01*
X455969Y424214D01*
X455969Y428112D02*
X459867Y432010D01*
X459867Y435908D02*
X459867Y443703D01*
X459867Y435908D02*
X452071Y443703D01*
X450122Y443703D01*
X448173Y441754D01*
X448173Y437856D01*
X450122Y435908D01*
X450122Y451499D02*
X448173Y455397D01*
X450122Y451499D02*
X454020Y447601D01*
X457918Y447601D01*
X459867Y449550D01*
X459867Y453448D01*
X457918Y455397D01*
X455969Y455397D01*
X454020Y453448D01*
X454020Y447601D01*
D10*
X422529Y468249D02*
X409321Y468249D01*
X422529Y468249D02*
X422529Y439801D01*
X409321Y439801D01*
X409321Y468249D01*
D40*
X405892Y454025D03*
X425958Y463423D03*
X425958Y444627D03*
D12*
X394418Y435483D02*
X386622Y435483D01*
X384673Y437432D01*
X384673Y441330D01*
X386622Y443279D01*
X394418Y443279D01*
X396367Y441330D01*
X396367Y437432D01*
X394418Y435483D01*
X392469Y439381D02*
X396367Y443279D01*
X388571Y447177D02*
X384673Y451075D01*
X396367Y451075D01*
X396367Y447177D02*
X396367Y454973D01*
X394418Y458871D02*
X386622Y458871D01*
X384673Y460820D01*
X384673Y464718D01*
X386622Y466667D01*
X394418Y466667D01*
X396367Y464718D01*
X396367Y460820D01*
X394418Y458871D01*
X386622Y466667D01*
D20*
X401963Y474250D02*
X439413Y474250D01*
X439413Y490950D02*
X401963Y490950D01*
X417513Y487363D02*
X423863Y482600D01*
X417513Y482600D02*
X417513Y487363D01*
X417513Y482600D02*
X417513Y477837D01*
X423863Y482600D01*
X423863Y487363D01*
X423863Y482600D02*
X423863Y477837D01*
X417513Y482600D02*
X415075Y482600D01*
X423863Y482600D02*
X426301Y482600D01*
D38*
X438375Y482600D03*
X403000Y482600D03*
D39*
X429125Y482600D03*
D12*
X428288Y470672D02*
X428288Y458978D01*
X434135Y458978D01*
X436084Y460927D01*
X436084Y468723D01*
X434135Y470672D01*
X428288Y470672D01*
X439982Y468723D02*
X441930Y470672D01*
X445828Y470672D01*
X447777Y468723D01*
X447777Y466774D01*
X445828Y464825D01*
X447777Y462876D01*
X447777Y460927D01*
X445828Y458978D01*
X441930Y458978D01*
X439982Y460927D01*
X439982Y462876D01*
X441930Y464825D01*
X439982Y466774D01*
X439982Y468723D01*
X441930Y464825D02*
X445828Y464825D01*
D10*
X243750Y81615D02*
X238850Y81615D01*
X238850Y77135D02*
X243750Y77135D01*
D11*
X237260Y79327D03*
X245388Y79327D03*
D12*
X235458Y86233D02*
X235458Y97927D01*
X241305Y97927D01*
X243254Y95978D01*
X243254Y92080D01*
X241305Y90131D01*
X235458Y90131D01*
X239356Y90131D02*
X243254Y86233D01*
X247152Y97927D02*
X254948Y97927D01*
X247152Y97927D02*
X247152Y92080D01*
X251050Y94029D01*
X252999Y94029D01*
X254948Y92080D01*
X254948Y88182D01*
X252999Y86233D01*
X249101Y86233D01*
X247152Y88182D01*
X258846Y95978D02*
X260795Y97927D01*
X264693Y97927D01*
X266642Y95978D01*
X266642Y94029D01*
X264693Y92080D01*
X262744Y92080D01*
X264693Y92080D02*
X266642Y90131D01*
X266642Y88182D01*
X264693Y86233D01*
X260795Y86233D01*
X258846Y88182D01*
X224988Y75875D02*
X209988Y75875D01*
X209988Y82875D01*
X224988Y82875D01*
X224988Y75875D01*
X221988Y76375D02*
X221988Y82375D01*
X212988Y82375D02*
X212988Y76375D01*
X215488Y75875D02*
X219488Y75875D01*
X219488Y82875D02*
X215488Y82875D01*
D41*
X219488Y76500D03*
D42*
X218738Y76500D03*
D12*
X181220Y68877D02*
X181220Y57183D01*
X189016Y57183D01*
X192914Y68877D02*
X200709Y68877D01*
X192914Y68877D02*
X192914Y57183D01*
X200709Y57183D01*
X196811Y63030D02*
X192914Y63030D01*
X204607Y68877D02*
X204607Y57183D01*
X210454Y57183D01*
X212403Y59132D01*
X212403Y66928D01*
X210454Y68877D01*
X204607Y68877D01*
X216301Y57183D02*
X224097Y57183D01*
X216301Y57183D02*
X224097Y64979D01*
X224097Y66928D01*
X222148Y68877D01*
X218250Y68877D01*
X216301Y66928D01*
D10*
X238850Y92728D02*
X243750Y92728D01*
X243750Y88248D02*
X238850Y88248D01*
D11*
X237260Y90439D03*
X245388Y90439D03*
D12*
X235458Y97346D02*
X235458Y109039D01*
X241305Y109039D01*
X243254Y107090D01*
X243254Y103192D01*
X241305Y101243D01*
X235458Y101243D01*
X239356Y101243D02*
X243254Y97346D01*
X247152Y109039D02*
X254948Y109039D01*
X247152Y109039D02*
X247152Y103192D01*
X251050Y105141D01*
X252999Y105141D01*
X254948Y103192D01*
X254948Y99294D01*
X252999Y97346D01*
X249101Y97346D01*
X247152Y99294D01*
X264693Y97346D02*
X264693Y109039D01*
X258846Y103192D01*
X266642Y103192D01*
X224988Y86988D02*
X209988Y86988D01*
X209988Y93988D01*
X224988Y93988D01*
X224988Y86988D01*
X221988Y87488D02*
X221988Y93488D01*
X212988Y93488D02*
X212988Y87488D01*
X215488Y86988D02*
X219488Y86988D01*
X219488Y93988D02*
X215488Y93988D01*
D41*
X219488Y87613D03*
D42*
X218738Y87613D03*
D12*
X181220Y79989D02*
X181220Y68296D01*
X189016Y68296D01*
X192914Y79989D02*
X200709Y79989D01*
X192914Y79989D02*
X192914Y68296D01*
X200709Y68296D01*
X196811Y74142D02*
X192914Y74142D01*
X204607Y68296D02*
X204607Y79989D01*
X204607Y68296D02*
X210454Y68296D01*
X212403Y70244D01*
X212403Y78040D01*
X210454Y79989D01*
X204607Y79989D01*
X216301Y78040D02*
X218250Y79989D01*
X222148Y79989D01*
X224097Y78040D01*
X224097Y76091D01*
X222148Y74142D01*
X220199Y74142D01*
X222148Y74142D02*
X224097Y72193D01*
X224097Y70244D01*
X222148Y68296D01*
X218250Y68296D01*
X216301Y70244D01*
D10*
X443565Y70575D02*
X443565Y75475D01*
X439085Y75475D02*
X439085Y70575D01*
D13*
X441277Y77065D03*
X441277Y68937D03*
D12*
X448173Y44801D02*
X459867Y44801D01*
X448173Y44801D02*
X448173Y50648D01*
X450122Y52597D01*
X454020Y52597D01*
X455969Y50648D01*
X455969Y44801D01*
X455969Y48699D02*
X459867Y52597D01*
X459867Y56495D02*
X459867Y64291D01*
X459867Y56495D02*
X452071Y64291D01*
X450122Y64291D01*
X448173Y62342D01*
X448173Y58444D01*
X450122Y56495D01*
X448173Y68189D02*
X448173Y75985D01*
X450122Y75985D01*
X457918Y68189D01*
X459867Y68189D01*
D10*
X439085Y51663D02*
X439085Y46763D01*
X443565Y46763D02*
X443565Y51663D01*
D13*
X441374Y45173D03*
X441374Y53301D03*
D12*
X424722Y51166D02*
X422773Y49217D01*
X422773Y45319D01*
X424722Y43371D01*
X432518Y43371D01*
X434467Y45319D01*
X434467Y49217D01*
X432518Y51166D01*
X426671Y55064D02*
X422773Y58962D01*
X434467Y58962D01*
X434467Y55064D02*
X434467Y62860D01*
D10*
X443565Y94388D02*
X443565Y99288D01*
X439085Y99288D02*
X439085Y94388D01*
D13*
X441277Y100878D03*
X441277Y92750D03*
D12*
X448173Y86155D02*
X450122Y88104D01*
X448173Y86155D02*
X448173Y82257D01*
X450122Y80308D01*
X457918Y80308D01*
X459867Y82257D01*
X459867Y86155D01*
X457918Y88104D01*
X448173Y92002D02*
X448173Y99797D01*
X448173Y92002D02*
X454020Y92002D01*
X452071Y95899D01*
X452071Y97848D01*
X454020Y99797D01*
X457918Y99797D01*
X459867Y97848D01*
X459867Y93950D01*
X457918Y92002D01*
D10*
X246925Y310498D02*
X242025Y310498D01*
X242025Y314978D02*
X246925Y314978D01*
D11*
X248515Y312786D03*
X240387Y312786D03*
D12*
X224047Y303940D02*
X222098Y305889D01*
X218200Y305889D01*
X216251Y303940D01*
X216251Y296144D01*
X218200Y294196D01*
X222098Y294196D01*
X224047Y296144D01*
X227945Y301991D02*
X231843Y305889D01*
X231843Y294196D01*
X227945Y294196D02*
X235741Y294196D01*
X239639Y294196D02*
X247435Y294196D01*
X247435Y301991D02*
X239639Y294196D01*
X247435Y301991D02*
X247435Y303940D01*
X245486Y305889D01*
X241588Y305889D01*
X239639Y303940D01*
X419350Y351790D02*
X419350Y359410D01*
X406150Y359160D02*
X406150Y351790D01*
D25*
X412762Y362772D03*
X412762Y348294D03*
D12*
X425948Y339573D02*
X427897Y341522D01*
X425948Y339573D02*
X425948Y335675D01*
X427897Y333726D01*
X435693Y333726D01*
X437642Y335675D01*
X437642Y339573D01*
X435693Y341522D01*
X429846Y345420D02*
X425948Y349318D01*
X437642Y349318D01*
X437642Y345420D02*
X437642Y353216D01*
X425948Y357114D02*
X425948Y364910D01*
X427897Y364910D01*
X435693Y357114D01*
X437642Y357114D01*
D10*
X400877Y391163D02*
X400877Y434343D01*
X383097Y436883D02*
X382997Y436881D01*
X382898Y436875D01*
X382798Y436865D01*
X382700Y436852D01*
X382601Y436834D01*
X382504Y436813D01*
X382408Y436788D01*
X382312Y436759D01*
X382218Y436726D01*
X382125Y436690D01*
X382034Y436650D01*
X381944Y436606D01*
X381856Y436559D01*
X381770Y436509D01*
X381686Y436455D01*
X381604Y436398D01*
X381525Y436338D01*
X381447Y436274D01*
X381373Y436208D01*
X381301Y436139D01*
X381232Y436067D01*
X381166Y435993D01*
X381102Y435915D01*
X381042Y435836D01*
X380985Y435754D01*
X380931Y435670D01*
X380881Y435584D01*
X380834Y435496D01*
X380790Y435406D01*
X380750Y435315D01*
X380714Y435222D01*
X380681Y435128D01*
X380652Y435032D01*
X380627Y434936D01*
X380606Y434839D01*
X380588Y434740D01*
X380575Y434642D01*
X380565Y434542D01*
X380559Y434443D01*
X380557Y434343D01*
X380557Y391163D02*
X380559Y391063D01*
X380565Y390964D01*
X380575Y390864D01*
X380588Y390766D01*
X380606Y390667D01*
X380627Y390570D01*
X380652Y390474D01*
X380681Y390378D01*
X380714Y390284D01*
X380750Y390191D01*
X380790Y390100D01*
X380834Y390010D01*
X380881Y389922D01*
X380931Y389836D01*
X380985Y389752D01*
X381042Y389670D01*
X381102Y389591D01*
X381166Y389513D01*
X381232Y389439D01*
X381301Y389367D01*
X381373Y389298D01*
X381447Y389232D01*
X381525Y389168D01*
X381604Y389108D01*
X381686Y389051D01*
X381770Y388997D01*
X381856Y388947D01*
X381944Y388900D01*
X382034Y388856D01*
X382125Y388816D01*
X382218Y388780D01*
X382312Y388747D01*
X382408Y388718D01*
X382504Y388693D01*
X382601Y388672D01*
X382700Y388654D01*
X382798Y388641D01*
X382898Y388631D01*
X382997Y388625D01*
X383097Y388623D01*
X398337Y388623D02*
X398437Y388625D01*
X398536Y388631D01*
X398636Y388641D01*
X398734Y388654D01*
X398833Y388672D01*
X398930Y388693D01*
X399026Y388718D01*
X399122Y388747D01*
X399216Y388780D01*
X399309Y388816D01*
X399400Y388856D01*
X399490Y388900D01*
X399578Y388947D01*
X399664Y388997D01*
X399748Y389051D01*
X399830Y389108D01*
X399909Y389168D01*
X399987Y389232D01*
X400061Y389298D01*
X400133Y389367D01*
X400202Y389439D01*
X400268Y389513D01*
X400332Y389591D01*
X400392Y389670D01*
X400449Y389752D01*
X400503Y389836D01*
X400553Y389922D01*
X400600Y390010D01*
X400644Y390100D01*
X400684Y390191D01*
X400720Y390284D01*
X400753Y390378D01*
X400782Y390474D01*
X400807Y390570D01*
X400828Y390667D01*
X400846Y390766D01*
X400859Y390864D01*
X400869Y390964D01*
X400875Y391063D01*
X400877Y391163D01*
X400877Y434343D02*
X400875Y434443D01*
X400869Y434542D01*
X400859Y434642D01*
X400846Y434740D01*
X400828Y434839D01*
X400807Y434936D01*
X400782Y435032D01*
X400753Y435128D01*
X400720Y435222D01*
X400684Y435315D01*
X400644Y435406D01*
X400600Y435496D01*
X400553Y435584D01*
X400503Y435670D01*
X400449Y435754D01*
X400392Y435836D01*
X400332Y435915D01*
X400268Y435993D01*
X400202Y436067D01*
X400133Y436139D01*
X400061Y436208D01*
X399987Y436274D01*
X399909Y436338D01*
X399830Y436398D01*
X399748Y436455D01*
X399664Y436509D01*
X399578Y436559D01*
X399490Y436606D01*
X399400Y436650D01*
X399309Y436690D01*
X399216Y436726D01*
X399122Y436759D01*
X399026Y436788D01*
X398930Y436813D01*
X398833Y436834D01*
X398734Y436852D01*
X398636Y436865D01*
X398536Y436875D01*
X398437Y436881D01*
X398337Y436883D01*
X383097Y436883D01*
X383097Y388623D02*
X398337Y388623D01*
X380557Y391163D02*
X380557Y434343D01*
X390717Y435613D02*
X390717Y430533D01*
X390717Y394973D02*
X390717Y389893D01*
X383097Y412753D02*
X380557Y412753D01*
X398337Y412753D02*
X400877Y412753D01*
D20*
X397673Y423547D02*
X390717Y422914D01*
X390717Y422914D01*
X383761Y423547D01*
X383778Y423717D01*
X383800Y423887D01*
X383826Y424055D01*
X383856Y424224D01*
X383890Y424391D01*
X383928Y424558D01*
X383971Y424723D01*
X384017Y424888D01*
X384067Y425051D01*
X384121Y425213D01*
X384180Y425374D01*
X384242Y425533D01*
X384308Y425690D01*
X384378Y425846D01*
X384451Y426000D01*
X384529Y426153D01*
X384610Y426303D01*
X384695Y426451D01*
X384783Y426598D01*
X384875Y426742D01*
X384970Y426883D01*
X385069Y427023D01*
X385171Y427160D01*
X385277Y427294D01*
X385386Y427426D01*
X385498Y427555D01*
X385613Y427681D01*
X385731Y427805D01*
X385852Y427925D01*
X385976Y428043D01*
X386103Y428157D01*
X386232Y428268D01*
X386365Y428376D01*
X386500Y428481D01*
X386637Y428583D01*
X386777Y428681D01*
X386919Y428775D01*
X387064Y428867D01*
X387211Y428954D01*
X387359Y429038D01*
X387510Y429118D01*
X387663Y429195D01*
X387817Y429268D01*
X387974Y429337D01*
X388132Y429402D01*
X388291Y429463D01*
X388452Y429521D01*
X388614Y429574D01*
X388778Y429623D01*
X388943Y429669D01*
X389108Y429710D01*
X389275Y429748D01*
X389443Y429781D01*
X389611Y429810D01*
X389780Y429835D01*
X389950Y429856D01*
X390120Y429872D01*
X390290Y429885D01*
X390461Y429893D01*
X390632Y429897D01*
X390802Y429897D01*
X390973Y429893D01*
X391144Y429885D01*
X391314Y429872D01*
X391484Y429856D01*
X391654Y429835D01*
X391823Y429810D01*
X391991Y429781D01*
X392159Y429748D01*
X392326Y429710D01*
X392491Y429669D01*
X392656Y429623D01*
X392820Y429574D01*
X392982Y429521D01*
X393143Y429463D01*
X393302Y429402D01*
X393460Y429337D01*
X393617Y429268D01*
X393771Y429195D01*
X393924Y429118D01*
X394075Y429038D01*
X394223Y428954D01*
X394370Y428867D01*
X394515Y428775D01*
X394657Y428681D01*
X394797Y428583D01*
X394934Y428481D01*
X395069Y428376D01*
X395202Y428268D01*
X395331Y428157D01*
X395458Y428043D01*
X395582Y427925D01*
X395703Y427805D01*
X395821Y427681D01*
X395936Y427555D01*
X396048Y427426D01*
X396157Y427294D01*
X396263Y427160D01*
X396365Y427023D01*
X396464Y426883D01*
X396559Y426742D01*
X396651Y426598D01*
X396739Y426451D01*
X396824Y426303D01*
X396905Y426153D01*
X396983Y426000D01*
X397056Y425846D01*
X397126Y425690D01*
X397192Y425533D01*
X397254Y425374D01*
X397313Y425213D01*
X397367Y425051D01*
X397417Y424888D01*
X397463Y424723D01*
X397506Y424558D01*
X397544Y424391D01*
X397578Y424224D01*
X397608Y424055D01*
X397634Y423887D01*
X397656Y423717D01*
X397673Y423547D01*
X396461Y423547D01*
X396443Y423696D01*
X396420Y423845D01*
X396394Y423994D01*
X396364Y424142D01*
X396330Y424288D01*
X396292Y424434D01*
X396251Y424579D01*
X396205Y424723D01*
X396156Y424866D01*
X396103Y425007D01*
X396047Y425147D01*
X395987Y425285D01*
X395923Y425422D01*
X395856Y425557D01*
X395785Y425690D01*
X395711Y425821D01*
X395634Y425950D01*
X395553Y426077D01*
X395468Y426202D01*
X395381Y426325D01*
X395290Y426446D01*
X395197Y426564D01*
X395100Y426680D01*
X395000Y426793D01*
X394898Y426903D01*
X394792Y427011D01*
X394684Y427116D01*
X394573Y427218D01*
X394459Y427317D01*
X394343Y427413D01*
X394224Y427506D01*
X394103Y427596D01*
X393980Y427683D01*
X393855Y427766D01*
X393727Y427846D01*
X393597Y427923D01*
X393466Y427997D01*
X393332Y428066D01*
X393197Y428133D01*
X393060Y428196D01*
X392921Y428255D01*
X392781Y428311D01*
X392640Y428363D01*
X392497Y428411D01*
X392353Y428456D01*
X392208Y428496D01*
X392061Y428533D01*
X391914Y428567D01*
X391766Y428596D01*
X391618Y428621D01*
X391469Y428643D01*
X391319Y428661D01*
X391169Y428674D01*
X391018Y428684D01*
X390868Y428690D01*
X390717Y428692D01*
X390566Y428690D01*
X390416Y428684D01*
X390265Y428674D01*
X390115Y428661D01*
X389965Y428643D01*
X389816Y428621D01*
X389668Y428596D01*
X389520Y428567D01*
X389373Y428533D01*
X389226Y428496D01*
X389081Y428456D01*
X388937Y428411D01*
X388794Y428363D01*
X388653Y428311D01*
X388513Y428255D01*
X388374Y428196D01*
X388237Y428133D01*
X388102Y428066D01*
X387968Y427997D01*
X387837Y427923D01*
X387707Y427846D01*
X387579Y427766D01*
X387454Y427683D01*
X387331Y427596D01*
X387210Y427506D01*
X387091Y427413D01*
X386975Y427317D01*
X386861Y427218D01*
X386750Y427116D01*
X386642Y427011D01*
X386536Y426903D01*
X386434Y426793D01*
X386334Y426680D01*
X386237Y426564D01*
X386144Y426446D01*
X386053Y426325D01*
X385966Y426202D01*
X385881Y426077D01*
X385800Y425950D01*
X385723Y425821D01*
X385649Y425690D01*
X385578Y425557D01*
X385511Y425422D01*
X385447Y425285D01*
X385387Y425147D01*
X385331Y425007D01*
X385278Y424866D01*
X385229Y424723D01*
X385183Y424579D01*
X385142Y424434D01*
X385104Y424288D01*
X385070Y424142D01*
X385040Y423994D01*
X385014Y423845D01*
X384991Y423696D01*
X384973Y423547D01*
X386188Y423546D01*
X386208Y423678D01*
X386233Y423809D01*
X386261Y423940D01*
X386293Y424070D01*
X386328Y424199D01*
X386368Y424326D01*
X386411Y424453D01*
X386458Y424578D01*
X386508Y424702D01*
X386562Y424824D01*
X386620Y424944D01*
X386681Y425063D01*
X386746Y425180D01*
X386814Y425295D01*
X386885Y425408D01*
X386959Y425519D01*
X387037Y425628D01*
X387118Y425734D01*
X387202Y425838D01*
X387289Y425940D01*
X387379Y426039D01*
X387472Y426135D01*
X387567Y426228D01*
X387665Y426319D01*
X387766Y426407D01*
X387870Y426491D01*
X387975Y426573D01*
X388083Y426652D01*
X388194Y426727D01*
X388306Y426799D01*
X388421Y426868D01*
X388537Y426933D01*
X388656Y426995D01*
X388776Y427054D01*
X388898Y427109D01*
X389021Y427160D01*
X389146Y427208D01*
X389272Y427252D01*
X389400Y427292D01*
X389528Y427329D01*
X389658Y427362D01*
X389788Y427391D01*
X389919Y427416D01*
X390051Y427437D01*
X390184Y427455D01*
X390317Y427468D01*
X390450Y427478D01*
X390583Y427484D01*
X390717Y427486D01*
X390851Y427484D01*
X390984Y427478D01*
X391117Y427468D01*
X391250Y427455D01*
X391383Y427437D01*
X391515Y427416D01*
X391646Y427391D01*
X391776Y427362D01*
X391906Y427329D01*
X392034Y427292D01*
X392162Y427252D01*
X392288Y427208D01*
X392413Y427160D01*
X392536Y427109D01*
X392658Y427054D01*
X392778Y426995D01*
X392897Y426933D01*
X393013Y426868D01*
X393128Y426799D01*
X393240Y426727D01*
X393351Y426652D01*
X393459Y426573D01*
X393564Y426491D01*
X393668Y426407D01*
X393769Y426319D01*
X393867Y426228D01*
X393962Y426135D01*
X394055Y426039D01*
X394145Y425940D01*
X394232Y425838D01*
X394316Y425734D01*
X394397Y425628D01*
X394475Y425519D01*
X394549Y425408D01*
X394620Y425295D01*
X394688Y425180D01*
X394753Y425063D01*
X394814Y424944D01*
X394872Y424824D01*
X394926Y424702D01*
X394976Y424578D01*
X395023Y424453D01*
X395066Y424326D01*
X395106Y424199D01*
X395141Y424070D01*
X395173Y423940D01*
X395201Y423809D01*
X395226Y423678D01*
X395246Y423546D01*
X394024Y423544D01*
X394001Y423657D01*
X393974Y423768D01*
X393942Y423879D01*
X393908Y423988D01*
X393869Y424097D01*
X393827Y424204D01*
X393781Y424309D01*
X393732Y424413D01*
X393679Y424515D01*
X393622Y424615D01*
X393563Y424713D01*
X393499Y424809D01*
X393433Y424903D01*
X393364Y424994D01*
X393291Y425083D01*
X393216Y425170D01*
X393137Y425254D01*
X393056Y425335D01*
X392972Y425414D01*
X392885Y425489D01*
X392796Y425562D01*
X392704Y425631D01*
X392610Y425697D01*
X392514Y425760D01*
X392416Y425820D01*
X392316Y425876D01*
X392214Y425929D01*
X392110Y425978D01*
X392005Y426024D01*
X391898Y426066D01*
X391790Y426105D01*
X391680Y426139D01*
X391569Y426170D01*
X391458Y426197D01*
X391345Y426221D01*
X391232Y426240D01*
X391118Y426256D01*
X391004Y426268D01*
X390889Y426276D01*
X390774Y426280D01*
X390660Y426280D01*
X390545Y426276D01*
X390430Y426268D01*
X390316Y426256D01*
X390202Y426240D01*
X390089Y426221D01*
X389976Y426197D01*
X389865Y426170D01*
X389754Y426139D01*
X389644Y426105D01*
X389536Y426066D01*
X389429Y426024D01*
X389324Y425978D01*
X389220Y425929D01*
X389118Y425876D01*
X389018Y425820D01*
X388920Y425760D01*
X388824Y425697D01*
X388730Y425631D01*
X388638Y425562D01*
X388549Y425489D01*
X388462Y425414D01*
X388378Y425335D01*
X388297Y425254D01*
X388218Y425170D01*
X388143Y425083D01*
X388070Y424994D01*
X388001Y424903D01*
X387935Y424809D01*
X387871Y424713D01*
X387812Y424615D01*
X387755Y424515D01*
X387702Y424413D01*
X387653Y424309D01*
X387607Y424204D01*
X387565Y424097D01*
X387526Y423988D01*
X387492Y423879D01*
X387460Y423768D01*
X387433Y423657D01*
X387410Y423544D01*
X388649Y423539D01*
X388677Y423626D01*
X388709Y423713D01*
X388745Y423797D01*
X388785Y423880D01*
X388827Y423962D01*
X388874Y424041D01*
X388924Y424119D01*
X388976Y424194D01*
X389033Y424267D01*
X389092Y424337D01*
X389154Y424405D01*
X389219Y424470D01*
X389286Y424533D01*
X389356Y424592D01*
X389429Y424648D01*
X389504Y424702D01*
X389581Y424752D01*
X389661Y424798D01*
X389742Y424841D01*
X389825Y424881D01*
X389909Y424917D01*
X389995Y424950D01*
X390083Y424979D01*
X390171Y425004D01*
X390261Y425025D01*
X390351Y425043D01*
X390442Y425056D01*
X390533Y425066D01*
X390625Y425072D01*
X390717Y425074D01*
X390809Y425072D01*
X390901Y425066D01*
X390992Y425056D01*
X391083Y425043D01*
X391173Y425025D01*
X391263Y425004D01*
X391351Y424979D01*
X391439Y424950D01*
X391525Y424917D01*
X391609Y424881D01*
X391692Y424841D01*
X391773Y424798D01*
X391853Y424752D01*
X391930Y424702D01*
X392005Y424648D01*
X392078Y424592D01*
X392148Y424533D01*
X392215Y424470D01*
X392280Y424405D01*
X392342Y424337D01*
X392401Y424267D01*
X392458Y424194D01*
X392510Y424119D01*
X392560Y424041D01*
X392607Y423962D01*
X392649Y423880D01*
X392689Y423797D01*
X392725Y423713D01*
X392757Y423626D01*
X392785Y423539D01*
X391469Y423502D01*
X391430Y423548D01*
X391389Y423591D01*
X391346Y423632D01*
X391299Y423670D01*
X391251Y423705D01*
X391201Y423736D01*
X391148Y423765D01*
X391094Y423790D01*
X391039Y423812D01*
X390982Y423831D01*
X390924Y423845D01*
X390866Y423856D01*
X390806Y423864D01*
X390747Y423868D01*
X390687Y423868D01*
X390628Y423864D01*
X390568Y423856D01*
X390510Y423845D01*
X390452Y423831D01*
X390395Y423812D01*
X390340Y423790D01*
X390286Y423765D01*
X390233Y423736D01*
X390183Y423705D01*
X390135Y423670D01*
X390088Y423632D01*
X390045Y423591D01*
X390004Y423548D01*
X389965Y423502D01*
X383761Y401959D02*
X390717Y402592D01*
X390717Y402592D01*
X397673Y401959D01*
X397656Y401789D01*
X397634Y401619D01*
X397608Y401451D01*
X397578Y401282D01*
X397544Y401115D01*
X397506Y400948D01*
X397463Y400783D01*
X397417Y400618D01*
X397367Y400455D01*
X397313Y400293D01*
X397254Y400132D01*
X397192Y399973D01*
X397126Y399816D01*
X397056Y399660D01*
X396983Y399506D01*
X396905Y399353D01*
X396824Y399203D01*
X396739Y399055D01*
X396651Y398908D01*
X396559Y398764D01*
X396464Y398623D01*
X396365Y398483D01*
X396263Y398346D01*
X396157Y398212D01*
X396048Y398080D01*
X395936Y397951D01*
X395821Y397825D01*
X395703Y397701D01*
X395582Y397581D01*
X395458Y397463D01*
X395331Y397349D01*
X395202Y397238D01*
X395069Y397130D01*
X394934Y397025D01*
X394797Y396923D01*
X394657Y396825D01*
X394515Y396731D01*
X394370Y396639D01*
X394223Y396552D01*
X394075Y396468D01*
X393924Y396388D01*
X393771Y396311D01*
X393617Y396238D01*
X393460Y396169D01*
X393302Y396104D01*
X393143Y396043D01*
X392982Y395985D01*
X392820Y395932D01*
X392656Y395883D01*
X392491Y395837D01*
X392326Y395796D01*
X392159Y395758D01*
X391991Y395725D01*
X391823Y395696D01*
X391654Y395671D01*
X391484Y395650D01*
X391314Y395634D01*
X391144Y395621D01*
X390973Y395613D01*
X390802Y395609D01*
X390632Y395609D01*
X390461Y395613D01*
X390290Y395621D01*
X390120Y395634D01*
X389950Y395650D01*
X389780Y395671D01*
X389611Y395696D01*
X389443Y395725D01*
X389275Y395758D01*
X389108Y395796D01*
X388943Y395837D01*
X388778Y395883D01*
X388614Y395932D01*
X388452Y395985D01*
X388291Y396043D01*
X388132Y396104D01*
X387974Y396169D01*
X387817Y396238D01*
X387663Y396311D01*
X387510Y396388D01*
X387359Y396468D01*
X387211Y396552D01*
X387064Y396639D01*
X386919Y396731D01*
X386777Y396825D01*
X386637Y396923D01*
X386500Y397025D01*
X386365Y397130D01*
X386232Y397238D01*
X386103Y397349D01*
X385976Y397463D01*
X385852Y397581D01*
X385731Y397701D01*
X385613Y397825D01*
X385498Y397951D01*
X385386Y398080D01*
X385277Y398212D01*
X385171Y398346D01*
X385069Y398483D01*
X384970Y398623D01*
X384875Y398764D01*
X384783Y398908D01*
X384695Y399055D01*
X384610Y399203D01*
X384529Y399353D01*
X384451Y399506D01*
X384378Y399660D01*
X384308Y399816D01*
X384242Y399973D01*
X384180Y400132D01*
X384121Y400293D01*
X384067Y400455D01*
X384017Y400618D01*
X383971Y400783D01*
X383928Y400948D01*
X383890Y401115D01*
X383856Y401282D01*
X383826Y401451D01*
X383800Y401619D01*
X383778Y401789D01*
X383761Y401959D01*
X384973Y401959D01*
X384991Y401810D01*
X385014Y401661D01*
X385040Y401512D01*
X385070Y401364D01*
X385104Y401218D01*
X385142Y401072D01*
X385183Y400927D01*
X385229Y400783D01*
X385278Y400640D01*
X385331Y400499D01*
X385387Y400359D01*
X385447Y400221D01*
X385511Y400084D01*
X385578Y399949D01*
X385649Y399816D01*
X385723Y399685D01*
X385800Y399556D01*
X385881Y399429D01*
X385966Y399304D01*
X386053Y399181D01*
X386144Y399060D01*
X386237Y398942D01*
X386334Y398826D01*
X386434Y398713D01*
X386536Y398603D01*
X386642Y398495D01*
X386750Y398390D01*
X386861Y398288D01*
X386975Y398189D01*
X387091Y398093D01*
X387210Y398000D01*
X387331Y397910D01*
X387454Y397823D01*
X387579Y397740D01*
X387707Y397660D01*
X387837Y397583D01*
X387968Y397509D01*
X388102Y397440D01*
X388237Y397373D01*
X388374Y397310D01*
X388513Y397251D01*
X388653Y397195D01*
X388794Y397143D01*
X388937Y397095D01*
X389081Y397050D01*
X389226Y397010D01*
X389373Y396973D01*
X389520Y396939D01*
X389668Y396910D01*
X389816Y396885D01*
X389965Y396863D01*
X390115Y396845D01*
X390265Y396832D01*
X390416Y396822D01*
X390566Y396816D01*
X390717Y396814D01*
X390868Y396816D01*
X391018Y396822D01*
X391169Y396832D01*
X391319Y396845D01*
X391469Y396863D01*
X391618Y396885D01*
X391766Y396910D01*
X391914Y396939D01*
X392061Y396973D01*
X392208Y397010D01*
X392353Y397050D01*
X392497Y397095D01*
X392640Y397143D01*
X392781Y397195D01*
X392921Y397251D01*
X393060Y397310D01*
X393197Y397373D01*
X393332Y397440D01*
X393466Y397509D01*
X393597Y397583D01*
X393727Y397660D01*
X393855Y397740D01*
X393980Y397823D01*
X394103Y397910D01*
X394224Y398000D01*
X394343Y398093D01*
X394459Y398189D01*
X394573Y398288D01*
X394684Y398390D01*
X394792Y398495D01*
X394898Y398603D01*
X395000Y398713D01*
X395100Y398826D01*
X395197Y398942D01*
X395290Y399060D01*
X395381Y399181D01*
X395468Y399304D01*
X395553Y399429D01*
X395634Y399556D01*
X395711Y399685D01*
X395785Y399816D01*
X395856Y399949D01*
X395923Y400084D01*
X395987Y400221D01*
X396047Y400359D01*
X396103Y400499D01*
X396156Y400640D01*
X396205Y400783D01*
X396251Y400927D01*
X396292Y401072D01*
X396330Y401218D01*
X396364Y401364D01*
X396394Y401512D01*
X396420Y401661D01*
X396443Y401810D01*
X396461Y401959D01*
X395246Y401960D01*
X395226Y401828D01*
X395201Y401697D01*
X395173Y401566D01*
X395141Y401436D01*
X395106Y401307D01*
X395066Y401180D01*
X395023Y401053D01*
X394976Y400928D01*
X394926Y400804D01*
X394872Y400682D01*
X394814Y400562D01*
X394753Y400443D01*
X394688Y400326D01*
X394620Y400211D01*
X394549Y400098D01*
X394475Y399987D01*
X394397Y399878D01*
X394316Y399772D01*
X394232Y399668D01*
X394145Y399566D01*
X394055Y399467D01*
X393962Y399371D01*
X393867Y399278D01*
X393769Y399187D01*
X393668Y399099D01*
X393564Y399015D01*
X393459Y398933D01*
X393351Y398854D01*
X393240Y398779D01*
X393128Y398707D01*
X393013Y398638D01*
X392897Y398573D01*
X392778Y398511D01*
X392658Y398452D01*
X392536Y398397D01*
X392413Y398346D01*
X392288Y398298D01*
X392162Y398254D01*
X392034Y398214D01*
X391906Y398177D01*
X391776Y398144D01*
X391646Y398115D01*
X391515Y398090D01*
X391383Y398069D01*
X391250Y398051D01*
X391117Y398038D01*
X390984Y398028D01*
X390851Y398022D01*
X390717Y398020D01*
X390583Y398022D01*
X390450Y398028D01*
X390317Y398038D01*
X390184Y398051D01*
X390051Y398069D01*
X389919Y398090D01*
X389788Y398115D01*
X389658Y398144D01*
X389528Y398177D01*
X389400Y398214D01*
X389272Y398254D01*
X389146Y398298D01*
X389021Y398346D01*
X388898Y398397D01*
X388776Y398452D01*
X388656Y398511D01*
X388537Y398573D01*
X388421Y398638D01*
X388306Y398707D01*
X388194Y398779D01*
X388083Y398854D01*
X387975Y398933D01*
X387870Y399015D01*
X387766Y399099D01*
X387665Y399187D01*
X387567Y399278D01*
X387472Y399371D01*
X387379Y399467D01*
X387289Y399566D01*
X387202Y399668D01*
X387118Y399772D01*
X387037Y399878D01*
X386959Y399987D01*
X386885Y400098D01*
X386814Y400211D01*
X386746Y400326D01*
X386681Y400443D01*
X386620Y400562D01*
X386562Y400682D01*
X386508Y400804D01*
X386458Y400928D01*
X386411Y401053D01*
X386368Y401180D01*
X386328Y401307D01*
X386293Y401436D01*
X386261Y401566D01*
X386233Y401697D01*
X386208Y401828D01*
X386188Y401960D01*
X387410Y401962D01*
X387433Y401849D01*
X387460Y401738D01*
X387492Y401627D01*
X387526Y401518D01*
X387565Y401409D01*
X387607Y401302D01*
X387653Y401197D01*
X387702Y401093D01*
X387755Y400991D01*
X387812Y400891D01*
X387871Y400793D01*
X387935Y400697D01*
X388001Y400603D01*
X388070Y400512D01*
X388143Y400423D01*
X388218Y400336D01*
X388297Y400252D01*
X388378Y400171D01*
X388462Y400092D01*
X388549Y400017D01*
X388638Y399944D01*
X388730Y399875D01*
X388824Y399809D01*
X388920Y399746D01*
X389018Y399686D01*
X389118Y399630D01*
X389220Y399577D01*
X389324Y399528D01*
X389429Y399482D01*
X389536Y399440D01*
X389644Y399401D01*
X389754Y399367D01*
X389865Y399336D01*
X389976Y399309D01*
X390089Y399285D01*
X390202Y399266D01*
X390316Y399250D01*
X390430Y399238D01*
X390545Y399230D01*
X390660Y399226D01*
X390774Y399226D01*
X390889Y399230D01*
X391004Y399238D01*
X391118Y399250D01*
X391232Y399266D01*
X391345Y399285D01*
X391458Y399309D01*
X391569Y399336D01*
X391680Y399367D01*
X391790Y399401D01*
X391898Y399440D01*
X392005Y399482D01*
X392110Y399528D01*
X392214Y399577D01*
X392316Y399630D01*
X392416Y399686D01*
X392514Y399746D01*
X392610Y399809D01*
X392704Y399875D01*
X392796Y399944D01*
X392885Y400017D01*
X392972Y400092D01*
X393056Y400171D01*
X393137Y400252D01*
X393216Y400336D01*
X393291Y400423D01*
X393364Y400512D01*
X393433Y400603D01*
X393499Y400697D01*
X393563Y400793D01*
X393622Y400891D01*
X393679Y400991D01*
X393732Y401093D01*
X393781Y401197D01*
X393827Y401302D01*
X393869Y401409D01*
X393908Y401518D01*
X393942Y401627D01*
X393974Y401738D01*
X394001Y401849D01*
X394024Y401962D01*
X392785Y401967D01*
X392757Y401880D01*
X392725Y401793D01*
X392689Y401709D01*
X392649Y401626D01*
X392607Y401544D01*
X392560Y401465D01*
X392510Y401387D01*
X392458Y401312D01*
X392401Y401239D01*
X392342Y401169D01*
X392280Y401101D01*
X392215Y401036D01*
X392148Y400973D01*
X392078Y400914D01*
X392005Y400858D01*
X391930Y400804D01*
X391853Y400754D01*
X391773Y400708D01*
X391692Y400665D01*
X391609Y400625D01*
X391525Y400589D01*
X391439Y400556D01*
X391351Y400527D01*
X391263Y400502D01*
X391173Y400481D01*
X391083Y400463D01*
X390992Y400450D01*
X390901Y400440D01*
X390809Y400434D01*
X390717Y400432D01*
X390625Y400434D01*
X390533Y400440D01*
X390442Y400450D01*
X390351Y400463D01*
X390261Y400481D01*
X390171Y400502D01*
X390083Y400527D01*
X389995Y400556D01*
X389909Y400589D01*
X389825Y400625D01*
X389742Y400665D01*
X389661Y400708D01*
X389581Y400754D01*
X389504Y400804D01*
X389429Y400858D01*
X389356Y400914D01*
X389286Y400973D01*
X389219Y401036D01*
X389154Y401101D01*
X389092Y401169D01*
X389033Y401239D01*
X388976Y401312D01*
X388924Y401387D01*
X388874Y401465D01*
X388827Y401544D01*
X388785Y401626D01*
X388745Y401709D01*
X388709Y401793D01*
X388677Y401880D01*
X388649Y401967D01*
X389965Y402004D01*
X390004Y401958D01*
X390045Y401915D01*
X390088Y401874D01*
X390135Y401836D01*
X390183Y401801D01*
X390233Y401770D01*
X390286Y401741D01*
X390340Y401716D01*
X390395Y401694D01*
X390452Y401675D01*
X390510Y401661D01*
X390568Y401650D01*
X390628Y401642D01*
X390687Y401638D01*
X390747Y401638D01*
X390806Y401642D01*
X390866Y401650D01*
X390924Y401661D01*
X390982Y401675D01*
X391039Y401694D01*
X391094Y401716D01*
X391148Y401741D01*
X391201Y401770D01*
X391251Y401801D01*
X391299Y401836D01*
X391346Y401874D01*
X391389Y401915D01*
X391430Y401958D01*
X391469Y402004D01*
D43*
X390717Y412753D03*
D20*
X367849Y396884D02*
X365942Y394977D01*
X365942Y391164D01*
X367849Y389258D01*
X369756Y389258D01*
X371662Y391164D01*
X371662Y394977D01*
X373569Y396884D01*
X375476Y396884D01*
X377382Y394977D01*
X377382Y391164D01*
X375476Y389258D01*
X375476Y400952D02*
X377382Y402858D01*
X377382Y404765D01*
X375476Y406671D01*
X365942Y406671D01*
X365942Y404765D02*
X365942Y408578D01*
X367849Y412646D02*
X365942Y414552D01*
X365942Y418365D01*
X367849Y420272D01*
X369756Y420272D01*
X371662Y418365D01*
X371662Y416459D01*
X371662Y418365D02*
X373569Y420272D01*
X375476Y420272D01*
X377382Y418365D01*
X377382Y414552D01*
X375476Y412646D01*
D44*
X327494Y330800D02*
X327492Y330755D01*
X327486Y330709D01*
X327477Y330665D01*
X327464Y330621D01*
X327448Y330579D01*
X327428Y330538D01*
X327404Y330499D01*
X327378Y330462D01*
X327349Y330427D01*
X327317Y330395D01*
X327282Y330366D01*
X327245Y330340D01*
X327206Y330316D01*
X327165Y330296D01*
X327123Y330280D01*
X327079Y330267D01*
X327035Y330258D01*
X326989Y330252D01*
X326944Y330250D01*
X326899Y330252D01*
X326853Y330258D01*
X326809Y330267D01*
X326765Y330280D01*
X326723Y330296D01*
X326682Y330316D01*
X326643Y330340D01*
X326606Y330366D01*
X326571Y330395D01*
X326539Y330427D01*
X326510Y330462D01*
X326484Y330499D01*
X326460Y330538D01*
X326440Y330579D01*
X326424Y330621D01*
X326411Y330665D01*
X326402Y330709D01*
X326396Y330755D01*
X326394Y330800D01*
X322494Y330800D02*
X322492Y330755D01*
X322486Y330709D01*
X322477Y330665D01*
X322464Y330621D01*
X322448Y330579D01*
X322428Y330538D01*
X322404Y330499D01*
X322378Y330462D01*
X322349Y330427D01*
X322317Y330395D01*
X322282Y330366D01*
X322245Y330340D01*
X322206Y330316D01*
X322165Y330296D01*
X322123Y330280D01*
X322079Y330267D01*
X322035Y330258D01*
X321989Y330252D01*
X321944Y330250D01*
X321899Y330252D01*
X321853Y330258D01*
X321809Y330267D01*
X321765Y330280D01*
X321723Y330296D01*
X321682Y330316D01*
X321643Y330340D01*
X321606Y330366D01*
X321571Y330395D01*
X321539Y330427D01*
X321510Y330462D01*
X321484Y330499D01*
X321460Y330538D01*
X321440Y330579D01*
X321424Y330621D01*
X321411Y330665D01*
X321402Y330709D01*
X321396Y330755D01*
X321394Y330800D01*
X317494Y330800D02*
X317492Y330755D01*
X317486Y330709D01*
X317477Y330665D01*
X317464Y330621D01*
X317448Y330579D01*
X317428Y330538D01*
X317404Y330499D01*
X317378Y330462D01*
X317349Y330427D01*
X317317Y330395D01*
X317282Y330366D01*
X317245Y330340D01*
X317206Y330316D01*
X317165Y330296D01*
X317123Y330280D01*
X317079Y330267D01*
X317035Y330258D01*
X316989Y330252D01*
X316944Y330250D01*
X316899Y330252D01*
X316853Y330258D01*
X316809Y330267D01*
X316765Y330280D01*
X316723Y330296D01*
X316682Y330316D01*
X316643Y330340D01*
X316606Y330366D01*
X316571Y330395D01*
X316539Y330427D01*
X316510Y330462D01*
X316484Y330499D01*
X316460Y330538D01*
X316440Y330579D01*
X316424Y330621D01*
X316411Y330665D01*
X316402Y330709D01*
X316396Y330755D01*
X316394Y330800D01*
X312494Y330800D02*
X312492Y330755D01*
X312486Y330709D01*
X312477Y330665D01*
X312464Y330621D01*
X312448Y330579D01*
X312428Y330538D01*
X312404Y330499D01*
X312378Y330462D01*
X312349Y330427D01*
X312317Y330395D01*
X312282Y330366D01*
X312245Y330340D01*
X312206Y330316D01*
X312165Y330296D01*
X312123Y330280D01*
X312079Y330267D01*
X312035Y330258D01*
X311989Y330252D01*
X311944Y330250D01*
X311899Y330252D01*
X311853Y330258D01*
X311809Y330267D01*
X311765Y330280D01*
X311723Y330296D01*
X311682Y330316D01*
X311643Y330340D01*
X311606Y330366D01*
X311571Y330395D01*
X311539Y330427D01*
X311510Y330462D01*
X311484Y330499D01*
X311460Y330538D01*
X311440Y330579D01*
X311424Y330621D01*
X311411Y330665D01*
X311402Y330709D01*
X311396Y330755D01*
X311394Y330800D01*
X307494Y330800D02*
X307492Y330755D01*
X307486Y330709D01*
X307477Y330665D01*
X307464Y330621D01*
X307448Y330579D01*
X307428Y330538D01*
X307404Y330499D01*
X307378Y330462D01*
X307349Y330427D01*
X307317Y330395D01*
X307282Y330366D01*
X307245Y330340D01*
X307206Y330316D01*
X307165Y330296D01*
X307123Y330280D01*
X307079Y330267D01*
X307035Y330258D01*
X306989Y330252D01*
X306944Y330250D01*
X306899Y330252D01*
X306853Y330258D01*
X306809Y330267D01*
X306765Y330280D01*
X306723Y330296D01*
X306682Y330316D01*
X306643Y330340D01*
X306606Y330366D01*
X306571Y330395D01*
X306539Y330427D01*
X306510Y330462D01*
X306484Y330499D01*
X306460Y330538D01*
X306440Y330579D01*
X306424Y330621D01*
X306411Y330665D01*
X306402Y330709D01*
X306396Y330755D01*
X306394Y330800D01*
X302494Y330800D02*
X302492Y330755D01*
X302486Y330709D01*
X302477Y330665D01*
X302464Y330621D01*
X302448Y330579D01*
X302428Y330538D01*
X302404Y330499D01*
X302378Y330462D01*
X302349Y330427D01*
X302317Y330395D01*
X302282Y330366D01*
X302245Y330340D01*
X302206Y330316D01*
X302165Y330296D01*
X302123Y330280D01*
X302079Y330267D01*
X302035Y330258D01*
X301989Y330252D01*
X301944Y330250D01*
X301899Y330252D01*
X301853Y330258D01*
X301809Y330267D01*
X301765Y330280D01*
X301723Y330296D01*
X301682Y330316D01*
X301643Y330340D01*
X301606Y330366D01*
X301571Y330395D01*
X301539Y330427D01*
X301510Y330462D01*
X301484Y330499D01*
X301460Y330538D01*
X301440Y330579D01*
X301424Y330621D01*
X301411Y330665D01*
X301402Y330709D01*
X301396Y330755D01*
X301394Y330800D01*
X297494Y330800D02*
X297492Y330755D01*
X297486Y330709D01*
X297477Y330665D01*
X297464Y330621D01*
X297448Y330579D01*
X297428Y330538D01*
X297404Y330499D01*
X297378Y330462D01*
X297349Y330427D01*
X297317Y330395D01*
X297282Y330366D01*
X297245Y330340D01*
X297206Y330316D01*
X297165Y330296D01*
X297123Y330280D01*
X297079Y330267D01*
X297035Y330258D01*
X296989Y330252D01*
X296944Y330250D01*
X296899Y330252D01*
X296853Y330258D01*
X296809Y330267D01*
X296765Y330280D01*
X296723Y330296D01*
X296682Y330316D01*
X296643Y330340D01*
X296606Y330366D01*
X296571Y330395D01*
X296539Y330427D01*
X296510Y330462D01*
X296484Y330499D01*
X296460Y330538D01*
X296440Y330579D01*
X296424Y330621D01*
X296411Y330665D01*
X296402Y330709D01*
X296396Y330755D01*
X296394Y330800D01*
X292294Y326700D02*
X292339Y326698D01*
X292385Y326692D01*
X292429Y326683D01*
X292473Y326670D01*
X292515Y326654D01*
X292556Y326634D01*
X292595Y326610D01*
X292632Y326584D01*
X292667Y326555D01*
X292699Y326523D01*
X292728Y326488D01*
X292754Y326451D01*
X292778Y326412D01*
X292798Y326371D01*
X292814Y326329D01*
X292827Y326285D01*
X292836Y326241D01*
X292842Y326195D01*
X292844Y326150D01*
X292842Y326105D01*
X292836Y326059D01*
X292827Y326015D01*
X292814Y325971D01*
X292798Y325929D01*
X292778Y325888D01*
X292754Y325849D01*
X292728Y325812D01*
X292699Y325777D01*
X292667Y325745D01*
X292632Y325716D01*
X292595Y325690D01*
X292556Y325666D01*
X292515Y325646D01*
X292473Y325630D01*
X292429Y325617D01*
X292385Y325608D01*
X292339Y325602D01*
X292294Y325600D01*
X292294Y321700D02*
X292339Y321698D01*
X292385Y321692D01*
X292429Y321683D01*
X292473Y321670D01*
X292515Y321654D01*
X292556Y321634D01*
X292595Y321610D01*
X292632Y321584D01*
X292667Y321555D01*
X292699Y321523D01*
X292728Y321488D01*
X292754Y321451D01*
X292778Y321412D01*
X292798Y321371D01*
X292814Y321329D01*
X292827Y321285D01*
X292836Y321241D01*
X292842Y321195D01*
X292844Y321150D01*
X292842Y321105D01*
X292836Y321059D01*
X292827Y321015D01*
X292814Y320971D01*
X292798Y320929D01*
X292778Y320888D01*
X292754Y320849D01*
X292728Y320812D01*
X292699Y320777D01*
X292667Y320745D01*
X292632Y320716D01*
X292595Y320690D01*
X292556Y320666D01*
X292515Y320646D01*
X292473Y320630D01*
X292429Y320617D01*
X292385Y320608D01*
X292339Y320602D01*
X292294Y320600D01*
X292294Y316700D02*
X292339Y316698D01*
X292385Y316692D01*
X292429Y316683D01*
X292473Y316670D01*
X292515Y316654D01*
X292556Y316634D01*
X292595Y316610D01*
X292632Y316584D01*
X292667Y316555D01*
X292699Y316523D01*
X292728Y316488D01*
X292754Y316451D01*
X292778Y316412D01*
X292798Y316371D01*
X292814Y316329D01*
X292827Y316285D01*
X292836Y316241D01*
X292842Y316195D01*
X292844Y316150D01*
X292842Y316105D01*
X292836Y316059D01*
X292827Y316015D01*
X292814Y315971D01*
X292798Y315929D01*
X292778Y315888D01*
X292754Y315849D01*
X292728Y315812D01*
X292699Y315777D01*
X292667Y315745D01*
X292632Y315716D01*
X292595Y315690D01*
X292556Y315666D01*
X292515Y315646D01*
X292473Y315630D01*
X292429Y315617D01*
X292385Y315608D01*
X292339Y315602D01*
X292294Y315600D01*
X292294Y311700D02*
X292339Y311698D01*
X292385Y311692D01*
X292429Y311683D01*
X292473Y311670D01*
X292515Y311654D01*
X292556Y311634D01*
X292595Y311610D01*
X292632Y311584D01*
X292667Y311555D01*
X292699Y311523D01*
X292728Y311488D01*
X292754Y311451D01*
X292778Y311412D01*
X292798Y311371D01*
X292814Y311329D01*
X292827Y311285D01*
X292836Y311241D01*
X292842Y311195D01*
X292844Y311150D01*
X292842Y311105D01*
X292836Y311059D01*
X292827Y311015D01*
X292814Y310971D01*
X292798Y310929D01*
X292778Y310888D01*
X292754Y310849D01*
X292728Y310812D01*
X292699Y310777D01*
X292667Y310745D01*
X292632Y310716D01*
X292595Y310690D01*
X292556Y310666D01*
X292515Y310646D01*
X292473Y310630D01*
X292429Y310617D01*
X292385Y310608D01*
X292339Y310602D01*
X292294Y310600D01*
X292294Y306700D02*
X292339Y306698D01*
X292385Y306692D01*
X292429Y306683D01*
X292473Y306670D01*
X292515Y306654D01*
X292556Y306634D01*
X292595Y306610D01*
X292632Y306584D01*
X292667Y306555D01*
X292699Y306523D01*
X292728Y306488D01*
X292754Y306451D01*
X292778Y306412D01*
X292798Y306371D01*
X292814Y306329D01*
X292827Y306285D01*
X292836Y306241D01*
X292842Y306195D01*
X292844Y306150D01*
X292842Y306105D01*
X292836Y306059D01*
X292827Y306015D01*
X292814Y305971D01*
X292798Y305929D01*
X292778Y305888D01*
X292754Y305849D01*
X292728Y305812D01*
X292699Y305777D01*
X292667Y305745D01*
X292632Y305716D01*
X292595Y305690D01*
X292556Y305666D01*
X292515Y305646D01*
X292473Y305630D01*
X292429Y305617D01*
X292385Y305608D01*
X292339Y305602D01*
X292294Y305600D01*
X292294Y301700D02*
X292339Y301698D01*
X292385Y301692D01*
X292429Y301683D01*
X292473Y301670D01*
X292515Y301654D01*
X292556Y301634D01*
X292595Y301610D01*
X292632Y301584D01*
X292667Y301555D01*
X292699Y301523D01*
X292728Y301488D01*
X292754Y301451D01*
X292778Y301412D01*
X292798Y301371D01*
X292814Y301329D01*
X292827Y301285D01*
X292836Y301241D01*
X292842Y301195D01*
X292844Y301150D01*
X292842Y301105D01*
X292836Y301059D01*
X292827Y301015D01*
X292814Y300971D01*
X292798Y300929D01*
X292778Y300888D01*
X292754Y300849D01*
X292728Y300812D01*
X292699Y300777D01*
X292667Y300745D01*
X292632Y300716D01*
X292595Y300690D01*
X292556Y300666D01*
X292515Y300646D01*
X292473Y300630D01*
X292429Y300617D01*
X292385Y300608D01*
X292339Y300602D01*
X292294Y300600D01*
X292294Y296700D02*
X292339Y296698D01*
X292385Y296692D01*
X292429Y296683D01*
X292473Y296670D01*
X292515Y296654D01*
X292556Y296634D01*
X292595Y296610D01*
X292632Y296584D01*
X292667Y296555D01*
X292699Y296523D01*
X292728Y296488D01*
X292754Y296451D01*
X292778Y296412D01*
X292798Y296371D01*
X292814Y296329D01*
X292827Y296285D01*
X292836Y296241D01*
X292842Y296195D01*
X292844Y296150D01*
X292842Y296105D01*
X292836Y296059D01*
X292827Y296015D01*
X292814Y295971D01*
X292798Y295929D01*
X292778Y295888D01*
X292754Y295849D01*
X292728Y295812D01*
X292699Y295777D01*
X292667Y295745D01*
X292632Y295716D01*
X292595Y295690D01*
X292556Y295666D01*
X292515Y295646D01*
X292473Y295630D01*
X292429Y295617D01*
X292385Y295608D01*
X292339Y295602D01*
X292294Y295600D01*
X296394Y291500D02*
X296396Y291545D01*
X296402Y291591D01*
X296411Y291635D01*
X296424Y291679D01*
X296440Y291721D01*
X296460Y291762D01*
X296484Y291801D01*
X296510Y291838D01*
X296539Y291873D01*
X296571Y291905D01*
X296606Y291934D01*
X296643Y291960D01*
X296682Y291984D01*
X296723Y292004D01*
X296765Y292020D01*
X296809Y292033D01*
X296853Y292042D01*
X296899Y292048D01*
X296944Y292050D01*
X296989Y292048D01*
X297035Y292042D01*
X297079Y292033D01*
X297123Y292020D01*
X297165Y292004D01*
X297206Y291984D01*
X297245Y291960D01*
X297282Y291934D01*
X297317Y291905D01*
X297349Y291873D01*
X297378Y291838D01*
X297404Y291801D01*
X297428Y291762D01*
X297448Y291721D01*
X297464Y291679D01*
X297477Y291635D01*
X297486Y291591D01*
X297492Y291545D01*
X297494Y291500D01*
X301394Y291500D02*
X301396Y291545D01*
X301402Y291591D01*
X301411Y291635D01*
X301424Y291679D01*
X301440Y291721D01*
X301460Y291762D01*
X301484Y291801D01*
X301510Y291838D01*
X301539Y291873D01*
X301571Y291905D01*
X301606Y291934D01*
X301643Y291960D01*
X301682Y291984D01*
X301723Y292004D01*
X301765Y292020D01*
X301809Y292033D01*
X301853Y292042D01*
X301899Y292048D01*
X301944Y292050D01*
X301989Y292048D01*
X302035Y292042D01*
X302079Y292033D01*
X302123Y292020D01*
X302165Y292004D01*
X302206Y291984D01*
X302245Y291960D01*
X302282Y291934D01*
X302317Y291905D01*
X302349Y291873D01*
X302378Y291838D01*
X302404Y291801D01*
X302428Y291762D01*
X302448Y291721D01*
X302464Y291679D01*
X302477Y291635D01*
X302486Y291591D01*
X302492Y291545D01*
X302494Y291500D01*
X306394Y291500D02*
X306396Y291545D01*
X306402Y291591D01*
X306411Y291635D01*
X306424Y291679D01*
X306440Y291721D01*
X306460Y291762D01*
X306484Y291801D01*
X306510Y291838D01*
X306539Y291873D01*
X306571Y291905D01*
X306606Y291934D01*
X306643Y291960D01*
X306682Y291984D01*
X306723Y292004D01*
X306765Y292020D01*
X306809Y292033D01*
X306853Y292042D01*
X306899Y292048D01*
X306944Y292050D01*
X306989Y292048D01*
X307035Y292042D01*
X307079Y292033D01*
X307123Y292020D01*
X307165Y292004D01*
X307206Y291984D01*
X307245Y291960D01*
X307282Y291934D01*
X307317Y291905D01*
X307349Y291873D01*
X307378Y291838D01*
X307404Y291801D01*
X307428Y291762D01*
X307448Y291721D01*
X307464Y291679D01*
X307477Y291635D01*
X307486Y291591D01*
X307492Y291545D01*
X307494Y291500D01*
X311394Y291500D02*
X311396Y291545D01*
X311402Y291591D01*
X311411Y291635D01*
X311424Y291679D01*
X311440Y291721D01*
X311460Y291762D01*
X311484Y291801D01*
X311510Y291838D01*
X311539Y291873D01*
X311571Y291905D01*
X311606Y291934D01*
X311643Y291960D01*
X311682Y291984D01*
X311723Y292004D01*
X311765Y292020D01*
X311809Y292033D01*
X311853Y292042D01*
X311899Y292048D01*
X311944Y292050D01*
X311989Y292048D01*
X312035Y292042D01*
X312079Y292033D01*
X312123Y292020D01*
X312165Y292004D01*
X312206Y291984D01*
X312245Y291960D01*
X312282Y291934D01*
X312317Y291905D01*
X312349Y291873D01*
X312378Y291838D01*
X312404Y291801D01*
X312428Y291762D01*
X312448Y291721D01*
X312464Y291679D01*
X312477Y291635D01*
X312486Y291591D01*
X312492Y291545D01*
X312494Y291500D01*
X316394Y291500D02*
X316396Y291545D01*
X316402Y291591D01*
X316411Y291635D01*
X316424Y291679D01*
X316440Y291721D01*
X316460Y291762D01*
X316484Y291801D01*
X316510Y291838D01*
X316539Y291873D01*
X316571Y291905D01*
X316606Y291934D01*
X316643Y291960D01*
X316682Y291984D01*
X316723Y292004D01*
X316765Y292020D01*
X316809Y292033D01*
X316853Y292042D01*
X316899Y292048D01*
X316944Y292050D01*
X316989Y292048D01*
X317035Y292042D01*
X317079Y292033D01*
X317123Y292020D01*
X317165Y292004D01*
X317206Y291984D01*
X317245Y291960D01*
X317282Y291934D01*
X317317Y291905D01*
X317349Y291873D01*
X317378Y291838D01*
X317404Y291801D01*
X317428Y291762D01*
X317448Y291721D01*
X317464Y291679D01*
X317477Y291635D01*
X317486Y291591D01*
X317492Y291545D01*
X317494Y291500D01*
X321394Y291500D02*
X321396Y291545D01*
X321402Y291591D01*
X321411Y291635D01*
X321424Y291679D01*
X321440Y291721D01*
X321460Y291762D01*
X321484Y291801D01*
X321510Y291838D01*
X321539Y291873D01*
X321571Y291905D01*
X321606Y291934D01*
X321643Y291960D01*
X321682Y291984D01*
X321723Y292004D01*
X321765Y292020D01*
X321809Y292033D01*
X321853Y292042D01*
X321899Y292048D01*
X321944Y292050D01*
X321989Y292048D01*
X322035Y292042D01*
X322079Y292033D01*
X322123Y292020D01*
X322165Y292004D01*
X322206Y291984D01*
X322245Y291960D01*
X322282Y291934D01*
X322317Y291905D01*
X322349Y291873D01*
X322378Y291838D01*
X322404Y291801D01*
X322428Y291762D01*
X322448Y291721D01*
X322464Y291679D01*
X322477Y291635D01*
X322486Y291591D01*
X322492Y291545D01*
X322494Y291500D01*
X326394Y291500D02*
X326396Y291545D01*
X326402Y291591D01*
X326411Y291635D01*
X326424Y291679D01*
X326440Y291721D01*
X326460Y291762D01*
X326484Y291801D01*
X326510Y291838D01*
X326539Y291873D01*
X326571Y291905D01*
X326606Y291934D01*
X326643Y291960D01*
X326682Y291984D01*
X326723Y292004D01*
X326765Y292020D01*
X326809Y292033D01*
X326853Y292042D01*
X326899Y292048D01*
X326944Y292050D01*
X326989Y292048D01*
X327035Y292042D01*
X327079Y292033D01*
X327123Y292020D01*
X327165Y292004D01*
X327206Y291984D01*
X327245Y291960D01*
X327282Y291934D01*
X327317Y291905D01*
X327349Y291873D01*
X327378Y291838D01*
X327404Y291801D01*
X327428Y291762D01*
X327448Y291721D01*
X327464Y291679D01*
X327477Y291635D01*
X327486Y291591D01*
X327492Y291545D01*
X327494Y291500D01*
X331594Y295600D02*
X331549Y295602D01*
X331503Y295608D01*
X331459Y295617D01*
X331415Y295630D01*
X331373Y295646D01*
X331332Y295666D01*
X331293Y295690D01*
X331256Y295716D01*
X331221Y295745D01*
X331189Y295777D01*
X331160Y295812D01*
X331134Y295849D01*
X331110Y295888D01*
X331090Y295929D01*
X331074Y295971D01*
X331061Y296015D01*
X331052Y296059D01*
X331046Y296105D01*
X331044Y296150D01*
X331046Y296195D01*
X331052Y296241D01*
X331061Y296285D01*
X331074Y296329D01*
X331090Y296371D01*
X331110Y296412D01*
X331134Y296451D01*
X331160Y296488D01*
X331189Y296523D01*
X331221Y296555D01*
X331256Y296584D01*
X331293Y296610D01*
X331332Y296634D01*
X331373Y296654D01*
X331415Y296670D01*
X331459Y296683D01*
X331503Y296692D01*
X331549Y296698D01*
X331594Y296700D01*
X331594Y300600D02*
X331549Y300602D01*
X331503Y300608D01*
X331459Y300617D01*
X331415Y300630D01*
X331373Y300646D01*
X331332Y300666D01*
X331293Y300690D01*
X331256Y300716D01*
X331221Y300745D01*
X331189Y300777D01*
X331160Y300812D01*
X331134Y300849D01*
X331110Y300888D01*
X331090Y300929D01*
X331074Y300971D01*
X331061Y301015D01*
X331052Y301059D01*
X331046Y301105D01*
X331044Y301150D01*
X331046Y301195D01*
X331052Y301241D01*
X331061Y301285D01*
X331074Y301329D01*
X331090Y301371D01*
X331110Y301412D01*
X331134Y301451D01*
X331160Y301488D01*
X331189Y301523D01*
X331221Y301555D01*
X331256Y301584D01*
X331293Y301610D01*
X331332Y301634D01*
X331373Y301654D01*
X331415Y301670D01*
X331459Y301683D01*
X331503Y301692D01*
X331549Y301698D01*
X331594Y301700D01*
X331594Y305600D02*
X331549Y305602D01*
X331503Y305608D01*
X331459Y305617D01*
X331415Y305630D01*
X331373Y305646D01*
X331332Y305666D01*
X331293Y305690D01*
X331256Y305716D01*
X331221Y305745D01*
X331189Y305777D01*
X331160Y305812D01*
X331134Y305849D01*
X331110Y305888D01*
X331090Y305929D01*
X331074Y305971D01*
X331061Y306015D01*
X331052Y306059D01*
X331046Y306105D01*
X331044Y306150D01*
X331046Y306195D01*
X331052Y306241D01*
X331061Y306285D01*
X331074Y306329D01*
X331090Y306371D01*
X331110Y306412D01*
X331134Y306451D01*
X331160Y306488D01*
X331189Y306523D01*
X331221Y306555D01*
X331256Y306584D01*
X331293Y306610D01*
X331332Y306634D01*
X331373Y306654D01*
X331415Y306670D01*
X331459Y306683D01*
X331503Y306692D01*
X331549Y306698D01*
X331594Y306700D01*
X331594Y310600D02*
X331549Y310602D01*
X331503Y310608D01*
X331459Y310617D01*
X331415Y310630D01*
X331373Y310646D01*
X331332Y310666D01*
X331293Y310690D01*
X331256Y310716D01*
X331221Y310745D01*
X331189Y310777D01*
X331160Y310812D01*
X331134Y310849D01*
X331110Y310888D01*
X331090Y310929D01*
X331074Y310971D01*
X331061Y311015D01*
X331052Y311059D01*
X331046Y311105D01*
X331044Y311150D01*
X331046Y311195D01*
X331052Y311241D01*
X331061Y311285D01*
X331074Y311329D01*
X331090Y311371D01*
X331110Y311412D01*
X331134Y311451D01*
X331160Y311488D01*
X331189Y311523D01*
X331221Y311555D01*
X331256Y311584D01*
X331293Y311610D01*
X331332Y311634D01*
X331373Y311654D01*
X331415Y311670D01*
X331459Y311683D01*
X331503Y311692D01*
X331549Y311698D01*
X331594Y311700D01*
X331594Y315600D02*
X331549Y315602D01*
X331503Y315608D01*
X331459Y315617D01*
X331415Y315630D01*
X331373Y315646D01*
X331332Y315666D01*
X331293Y315690D01*
X331256Y315716D01*
X331221Y315745D01*
X331189Y315777D01*
X331160Y315812D01*
X331134Y315849D01*
X331110Y315888D01*
X331090Y315929D01*
X331074Y315971D01*
X331061Y316015D01*
X331052Y316059D01*
X331046Y316105D01*
X331044Y316150D01*
X331046Y316195D01*
X331052Y316241D01*
X331061Y316285D01*
X331074Y316329D01*
X331090Y316371D01*
X331110Y316412D01*
X331134Y316451D01*
X331160Y316488D01*
X331189Y316523D01*
X331221Y316555D01*
X331256Y316584D01*
X331293Y316610D01*
X331332Y316634D01*
X331373Y316654D01*
X331415Y316670D01*
X331459Y316683D01*
X331503Y316692D01*
X331549Y316698D01*
X331594Y316700D01*
X331594Y320600D02*
X331549Y320602D01*
X331503Y320608D01*
X331459Y320617D01*
X331415Y320630D01*
X331373Y320646D01*
X331332Y320666D01*
X331293Y320690D01*
X331256Y320716D01*
X331221Y320745D01*
X331189Y320777D01*
X331160Y320812D01*
X331134Y320849D01*
X331110Y320888D01*
X331090Y320929D01*
X331074Y320971D01*
X331061Y321015D01*
X331052Y321059D01*
X331046Y321105D01*
X331044Y321150D01*
X331046Y321195D01*
X331052Y321241D01*
X331061Y321285D01*
X331074Y321329D01*
X331090Y321371D01*
X331110Y321412D01*
X331134Y321451D01*
X331160Y321488D01*
X331189Y321523D01*
X331221Y321555D01*
X331256Y321584D01*
X331293Y321610D01*
X331332Y321634D01*
X331373Y321654D01*
X331415Y321670D01*
X331459Y321683D01*
X331503Y321692D01*
X331549Y321698D01*
X331594Y321700D01*
X331594Y325600D02*
X331549Y325602D01*
X331503Y325608D01*
X331459Y325617D01*
X331415Y325630D01*
X331373Y325646D01*
X331332Y325666D01*
X331293Y325690D01*
X331256Y325716D01*
X331221Y325745D01*
X331189Y325777D01*
X331160Y325812D01*
X331134Y325849D01*
X331110Y325888D01*
X331090Y325929D01*
X331074Y325971D01*
X331061Y326015D01*
X331052Y326059D01*
X331046Y326105D01*
X331044Y326150D01*
X331046Y326195D01*
X331052Y326241D01*
X331061Y326285D01*
X331074Y326329D01*
X331090Y326371D01*
X331110Y326412D01*
X331134Y326451D01*
X331160Y326488D01*
X331189Y326523D01*
X331221Y326555D01*
X331256Y326584D01*
X331293Y326610D01*
X331332Y326634D01*
X331373Y326654D01*
X331415Y326670D01*
X331459Y326683D01*
X331503Y326692D01*
X331549Y326698D01*
X331594Y326700D01*
D12*
X336455Y335661D02*
X336455Y286639D01*
X287433Y286639D01*
X287433Y335661D01*
X336455Y335661D01*
D45*
X333026Y332105D03*
D46*
X326944Y333575D03*
X321944Y333575D03*
X316944Y333575D03*
X311944Y333575D03*
X306944Y333575D03*
X301944Y333575D03*
X296944Y333575D03*
D47*
X289519Y326150D03*
X289519Y321150D03*
X289519Y316150D03*
X289519Y311150D03*
X289519Y306150D03*
X289519Y301150D03*
X289519Y296150D03*
D46*
X296944Y288725D03*
X301944Y288725D03*
X306944Y288725D03*
X311944Y288725D03*
X316944Y288725D03*
X321944Y288725D03*
X326944Y288725D03*
D47*
X334369Y296150D03*
X334369Y301150D03*
X334369Y306150D03*
X334369Y311150D03*
X334369Y316150D03*
X334369Y321150D03*
X334369Y326150D03*
D12*
X355886Y309772D02*
X355886Y305874D01*
X355886Y307823D02*
X344192Y307823D01*
X344192Y305874D02*
X344192Y309772D01*
X344192Y319517D02*
X346141Y321466D01*
X344192Y319517D02*
X344192Y315619D01*
X346141Y313670D01*
X353937Y313670D01*
X355886Y315619D01*
X355886Y319517D01*
X353937Y321466D01*
X353937Y325364D02*
X355886Y327313D01*
X355886Y331211D01*
X353937Y333160D01*
X346141Y333160D01*
X344192Y331211D01*
X344192Y327313D01*
X346141Y325364D01*
X348090Y325364D01*
X350039Y327313D01*
X350039Y333160D01*
D10*
X57025Y163638D02*
X57025Y93538D01*
X57025Y163638D02*
X127125Y163638D01*
X127125Y97088D01*
X123575Y93538D02*
X57025Y93538D01*
X123575Y93538D02*
X127125Y97088D01*
X115915Y101156D02*
X115917Y101275D01*
X115923Y101395D01*
X115933Y101514D01*
X115947Y101632D01*
X115965Y101750D01*
X115986Y101868D01*
X116012Y101984D01*
X116041Y102100D01*
X116075Y102215D01*
X116112Y102328D01*
X116153Y102440D01*
X116197Y102551D01*
X116245Y102661D01*
X116297Y102768D01*
X116352Y102874D01*
X116411Y102978D01*
X116474Y103080D01*
X116539Y103179D01*
X116608Y103277D01*
X116680Y103372D01*
X116755Y103465D01*
X116834Y103555D01*
X116915Y103643D01*
X116999Y103727D01*
X117086Y103809D01*
X117175Y103888D01*
X117267Y103964D01*
X117362Y104037D01*
X117459Y104107D01*
X117558Y104173D01*
X117660Y104236D01*
X117763Y104296D01*
X117868Y104352D01*
X117975Y104405D01*
X118084Y104454D01*
X118195Y104500D01*
X118307Y104541D01*
X118420Y104579D01*
X118534Y104614D01*
X118650Y104644D01*
X118766Y104671D01*
X118883Y104693D01*
X119001Y104712D01*
X119120Y104727D01*
X119239Y104738D01*
X119358Y104745D01*
X119477Y104748D01*
X119597Y104747D01*
X119716Y104742D01*
X119835Y104733D01*
X119954Y104720D01*
X120072Y104703D01*
X120189Y104683D01*
X120306Y104658D01*
X120422Y104629D01*
X120537Y104597D01*
X120651Y104561D01*
X120764Y104521D01*
X120875Y104477D01*
X120984Y104430D01*
X121092Y104379D01*
X121199Y104325D01*
X121303Y104267D01*
X121405Y104205D01*
X121506Y104141D01*
X121604Y104072D01*
X121700Y104001D01*
X121793Y103927D01*
X121884Y103849D01*
X121972Y103769D01*
X122057Y103685D01*
X122140Y103599D01*
X122220Y103510D01*
X122297Y103419D01*
X122370Y103325D01*
X122441Y103228D01*
X122508Y103130D01*
X122572Y103029D01*
X122633Y102926D01*
X122690Y102821D01*
X122743Y102715D01*
X122793Y102606D01*
X122840Y102496D01*
X122882Y102385D01*
X122921Y102272D01*
X122957Y102158D01*
X122988Y102042D01*
X123015Y101926D01*
X123039Y101809D01*
X123059Y101691D01*
X123075Y101573D01*
X123087Y101454D01*
X123095Y101335D01*
X123099Y101216D01*
X123099Y101096D01*
X123095Y100977D01*
X123087Y100858D01*
X123075Y100739D01*
X123059Y100621D01*
X123039Y100503D01*
X123015Y100386D01*
X122988Y100270D01*
X122957Y100154D01*
X122921Y100040D01*
X122882Y99927D01*
X122840Y99816D01*
X122793Y99706D01*
X122743Y99597D01*
X122690Y99491D01*
X122633Y99386D01*
X122572Y99283D01*
X122508Y99182D01*
X122441Y99084D01*
X122370Y98987D01*
X122297Y98893D01*
X122220Y98802D01*
X122140Y98713D01*
X122057Y98627D01*
X121972Y98543D01*
X121884Y98463D01*
X121793Y98385D01*
X121700Y98311D01*
X121604Y98240D01*
X121506Y98171D01*
X121405Y98107D01*
X121303Y98045D01*
X121199Y97987D01*
X121092Y97933D01*
X120984Y97882D01*
X120875Y97835D01*
X120764Y97791D01*
X120651Y97751D01*
X120537Y97715D01*
X120422Y97683D01*
X120306Y97654D01*
X120189Y97629D01*
X120072Y97609D01*
X119954Y97592D01*
X119835Y97579D01*
X119716Y97570D01*
X119597Y97565D01*
X119477Y97564D01*
X119358Y97567D01*
X119239Y97574D01*
X119120Y97585D01*
X119001Y97600D01*
X118883Y97619D01*
X118766Y97641D01*
X118650Y97668D01*
X118534Y97698D01*
X118420Y97733D01*
X118307Y97771D01*
X118195Y97812D01*
X118084Y97858D01*
X117975Y97907D01*
X117868Y97960D01*
X117763Y98016D01*
X117660Y98076D01*
X117558Y98139D01*
X117459Y98205D01*
X117362Y98275D01*
X117267Y98348D01*
X117175Y98424D01*
X117086Y98503D01*
X116999Y98585D01*
X116915Y98669D01*
X116834Y98757D01*
X116755Y98847D01*
X116680Y98940D01*
X116608Y99035D01*
X116539Y99133D01*
X116474Y99232D01*
X116411Y99334D01*
X116352Y99438D01*
X116297Y99544D01*
X116245Y99651D01*
X116197Y99761D01*
X116153Y99872D01*
X116112Y99984D01*
X116075Y100097D01*
X116041Y100212D01*
X116012Y100328D01*
X115986Y100444D01*
X115965Y100562D01*
X115947Y100680D01*
X115933Y100798D01*
X115923Y100917D01*
X115917Y101037D01*
X115915Y101156D01*
D15*
X132588Y100588D03*
X132588Y108588D03*
X132588Y116588D03*
X132588Y124588D03*
X132588Y132588D03*
X132588Y140588D03*
X132588Y148588D03*
X132588Y156588D03*
D16*
X120075Y169101D03*
X112075Y169101D03*
X104075Y169101D03*
X96075Y169101D03*
X88075Y169101D03*
X80075Y169101D03*
X72075Y169101D03*
X64075Y169101D03*
D15*
X51562Y156588D03*
X51562Y148588D03*
X51562Y140588D03*
X51562Y132588D03*
X51562Y124588D03*
X51562Y116588D03*
X51562Y108588D03*
X51562Y100588D03*
D16*
X64075Y88075D03*
X72075Y88075D03*
X80075Y88075D03*
X88075Y88075D03*
X96075Y88075D03*
X104075Y88075D03*
X112075Y88075D03*
X120075Y88075D03*
D17*
X95158Y70041D02*
X92700Y70041D01*
X93929Y70041D02*
X93929Y77413D01*
X92700Y77413D02*
X95158Y77413D01*
X101376Y77413D02*
X102604Y76184D01*
X101376Y77413D02*
X98918Y77413D01*
X97690Y76184D01*
X97690Y71269D01*
X98918Y70041D01*
X101376Y70041D01*
X102604Y71269D01*
X105174Y74955D02*
X107631Y77413D01*
X107631Y70041D01*
X105174Y70041D02*
X110089Y70041D01*
X116344Y70041D02*
X116344Y77413D01*
X112658Y73727D01*
X117573Y73727D01*
D10*
X358775Y6350D02*
X365125Y0D01*
X377825Y0D02*
X384175Y6350D01*
X390525Y0D01*
X403225Y0D02*
X409575Y6350D01*
X358775Y6350D02*
X358775Y44450D01*
X365125Y50800D01*
X377825Y50800D01*
X384175Y44450D01*
X390525Y50800D01*
X403225Y50800D01*
X409575Y44450D01*
X384175Y44450D02*
X384175Y6350D01*
X409575Y6350D02*
X409575Y44450D01*
X403225Y0D02*
X390525Y0D01*
X377825Y0D02*
X365125Y0D01*
X409575Y6350D02*
X415925Y0D01*
X428625Y0D02*
X434975Y6350D01*
X409575Y44450D02*
X415925Y50800D01*
X428625Y50800D01*
X434975Y44450D01*
X434975Y6350D01*
X428625Y0D02*
X415925Y0D01*
D48*
X371475Y12700D03*
X371475Y38100D03*
X396875Y38100D03*
X396875Y12700D03*
X422275Y38100D03*
X422275Y12700D03*
D20*
X361317Y57785D02*
X359410Y59692D01*
X361317Y57785D02*
X363223Y57785D01*
X365130Y59692D01*
X365130Y69225D01*
X363223Y69225D02*
X367037Y69225D01*
X371104Y69225D02*
X371104Y57785D01*
X371104Y69225D02*
X376824Y69225D01*
X378730Y67318D01*
X378730Y63505D01*
X376824Y61598D01*
X371104Y61598D01*
X382798Y57785D02*
X390424Y57785D01*
X382798Y57785D02*
X390424Y65412D01*
X390424Y67318D01*
X388518Y69225D01*
X384705Y69225D01*
X382798Y67318D01*
D10*
X19913Y229253D02*
X15013Y229253D01*
X15013Y224773D02*
X19913Y224773D01*
D11*
X13423Y226964D03*
X21551Y226964D03*
D12*
X19416Y243615D02*
X17467Y245564D01*
X13569Y245564D01*
X11621Y243615D01*
X11621Y235819D01*
X13569Y233871D01*
X17467Y233871D01*
X19416Y235819D01*
X23314Y233871D02*
X31110Y233871D01*
X31110Y241666D02*
X23314Y233871D01*
X31110Y241666D02*
X31110Y243615D01*
X29161Y245564D01*
X25263Y245564D01*
X23314Y243615D01*
X35008Y235819D02*
X36957Y233871D01*
X40855Y233871D01*
X42804Y235819D01*
X42804Y243615D01*
X40855Y245564D01*
X36957Y245564D01*
X35008Y243615D01*
X35008Y241666D01*
X36957Y239717D01*
X42804Y239717D01*
X247015Y291850D02*
X254635Y291850D01*
X254385Y305050D02*
X247015Y305050D01*
D49*
X257997Y298439D03*
X243519Y298439D03*
D12*
X234798Y285252D02*
X236747Y283303D01*
X234798Y285252D02*
X230900Y285252D01*
X228951Y283303D01*
X228951Y275507D01*
X230900Y273558D01*
X234798Y273558D01*
X236747Y275507D01*
X240645Y281354D02*
X244543Y285252D01*
X244543Y273558D01*
X240645Y273558D02*
X248441Y273558D01*
X252339Y275507D02*
X254288Y273558D01*
X258186Y273558D01*
X260135Y275507D01*
X260135Y283303D01*
X258186Y285252D01*
X254288Y285252D01*
X252339Y283303D01*
X252339Y281354D01*
X254288Y279405D01*
X260135Y279405D01*
D26*
X301150Y364275D02*
X321150Y364275D01*
X321150Y353275D01*
X301150Y353275D01*
X301150Y364275D01*
D50*
X304150Y356275D03*
D51*
X304650Y350275D03*
X311150Y350275D03*
X317650Y350275D03*
X317650Y367275D03*
X311150Y367275D03*
X304650Y367275D03*
D12*
X304556Y373783D02*
X300658Y373783D01*
X302607Y373783D02*
X302607Y385477D01*
X300658Y385477D02*
X304556Y385477D01*
X314301Y385477D02*
X316250Y383528D01*
X314301Y385477D02*
X310403Y385477D01*
X308454Y383528D01*
X308454Y375732D01*
X310403Y373783D01*
X314301Y373783D01*
X316250Y375732D01*
X320148Y373783D02*
X327944Y373783D01*
X320148Y373783D02*
X327944Y381579D01*
X327944Y383528D01*
X325995Y385477D01*
X322097Y385477D01*
X320148Y383528D01*
D10*
X275573Y304075D02*
X275573Y299175D01*
X280053Y299175D02*
X280053Y304075D01*
D13*
X277861Y297585D03*
X277861Y305713D03*
D12*
X270955Y295783D02*
X259261Y295783D01*
X259261Y301630D01*
X261210Y303579D01*
X265108Y303579D01*
X267057Y301630D01*
X267057Y295783D01*
X267057Y299681D02*
X270955Y303579D01*
X270955Y307477D02*
X270955Y315273D01*
X270955Y307477D02*
X263159Y315273D01*
X261210Y315273D01*
X259261Y313324D01*
X259261Y309426D01*
X261210Y307477D01*
X261210Y319171D02*
X259261Y321120D01*
X259261Y325018D01*
X261210Y326967D01*
X263159Y326967D01*
X265108Y325018D01*
X267057Y326967D01*
X269006Y326967D01*
X270955Y325018D01*
X270955Y321120D01*
X269006Y319171D01*
X267057Y319171D01*
X265108Y321120D01*
X263159Y319171D01*
X261210Y319171D01*
X265108Y321120D02*
X265108Y325018D01*
D10*
X280053Y270738D02*
X280053Y265838D01*
X275573Y265838D02*
X275573Y270738D01*
D13*
X277764Y272328D03*
X277764Y264200D03*
D12*
X284661Y240064D02*
X296355Y240064D01*
X284661Y240064D02*
X284661Y245911D01*
X286610Y247860D01*
X290508Y247860D01*
X292457Y245911D01*
X292457Y240064D01*
X292457Y243962D02*
X296355Y247860D01*
X296355Y251758D02*
X296355Y259553D01*
X296355Y251758D02*
X288559Y259553D01*
X286610Y259553D01*
X284661Y257604D01*
X284661Y253706D01*
X286610Y251758D01*
X294406Y263451D02*
X296355Y265400D01*
X296355Y269298D01*
X294406Y271247D01*
X286610Y271247D01*
X284661Y269298D01*
X284661Y265400D01*
X286610Y263451D01*
X288559Y263451D01*
X290508Y265400D01*
X290508Y271247D01*
D10*
X287990Y23088D02*
X287990Y18188D01*
X283510Y18188D02*
X283510Y23088D01*
D13*
X285702Y24678D03*
X285702Y16550D03*
D12*
X292598Y-7586D02*
X304292Y-7586D01*
X292598Y-7586D02*
X292598Y-1740D01*
X294547Y210D01*
X298445Y210D01*
X300394Y-1740D01*
X300394Y-7586D01*
X300394Y-3689D02*
X304292Y210D01*
X294547Y4108D02*
X292598Y6056D01*
X292598Y9954D01*
X294547Y11903D01*
X296496Y11903D01*
X298445Y9954D01*
X298445Y8005D01*
X298445Y9954D02*
X300394Y11903D01*
X302343Y11903D01*
X304292Y9954D01*
X304292Y6056D01*
X302343Y4108D01*
X296496Y15801D02*
X292598Y19699D01*
X304292Y19699D01*
X304292Y15801D02*
X304292Y23597D01*
D10*
X439085Y21500D02*
X439085Y16600D01*
X443565Y16600D02*
X443565Y21500D01*
D13*
X441374Y15010D03*
X441374Y23138D03*
D12*
X434467Y13208D02*
X422773Y13208D01*
X422773Y19055D01*
X424722Y21004D01*
X428620Y21004D01*
X430569Y19055D01*
X430569Y13208D01*
X430569Y17106D02*
X434467Y21004D01*
X424722Y24902D02*
X422773Y26851D01*
X422773Y30749D01*
X424722Y32698D01*
X426671Y32698D01*
X428620Y30749D01*
X428620Y28800D01*
X428620Y30749D02*
X430569Y32698D01*
X432518Y32698D01*
X434467Y30749D01*
X434467Y26851D01*
X432518Y24902D01*
X424722Y36596D02*
X422773Y38545D01*
X422773Y42443D01*
X424722Y44392D01*
X426671Y44392D01*
X428620Y42443D01*
X428620Y40494D01*
X428620Y42443D02*
X430569Y44392D01*
X432518Y44392D01*
X434467Y42443D01*
X434467Y38545D01*
X432518Y36596D01*
D10*
X405765Y391160D02*
X405765Y434340D01*
X426085Y391160D02*
X426083Y391060D01*
X426077Y390961D01*
X426067Y390861D01*
X426054Y390763D01*
X426036Y390664D01*
X426015Y390567D01*
X425990Y390471D01*
X425961Y390375D01*
X425928Y390281D01*
X425892Y390188D01*
X425852Y390097D01*
X425808Y390007D01*
X425761Y389919D01*
X425711Y389833D01*
X425657Y389749D01*
X425600Y389667D01*
X425540Y389588D01*
X425476Y389510D01*
X425410Y389436D01*
X425341Y389364D01*
X425269Y389295D01*
X425195Y389229D01*
X425117Y389165D01*
X425038Y389105D01*
X424956Y389048D01*
X424872Y388994D01*
X424786Y388944D01*
X424698Y388897D01*
X424608Y388853D01*
X424517Y388813D01*
X424424Y388777D01*
X424330Y388744D01*
X424234Y388715D01*
X424138Y388690D01*
X424041Y388669D01*
X423942Y388651D01*
X423844Y388638D01*
X423744Y388628D01*
X423645Y388622D01*
X423545Y388620D01*
X426085Y434340D02*
X426083Y434440D01*
X426077Y434539D01*
X426067Y434639D01*
X426054Y434737D01*
X426036Y434836D01*
X426015Y434933D01*
X425990Y435029D01*
X425961Y435125D01*
X425928Y435219D01*
X425892Y435312D01*
X425852Y435403D01*
X425808Y435493D01*
X425761Y435581D01*
X425711Y435667D01*
X425657Y435751D01*
X425600Y435833D01*
X425540Y435912D01*
X425476Y435990D01*
X425410Y436064D01*
X425341Y436136D01*
X425269Y436205D01*
X425195Y436271D01*
X425117Y436335D01*
X425038Y436395D01*
X424956Y436452D01*
X424872Y436506D01*
X424786Y436556D01*
X424698Y436603D01*
X424608Y436647D01*
X424517Y436687D01*
X424424Y436723D01*
X424330Y436756D01*
X424234Y436785D01*
X424138Y436810D01*
X424041Y436831D01*
X423942Y436849D01*
X423844Y436862D01*
X423744Y436872D01*
X423645Y436878D01*
X423545Y436880D01*
X408305Y436880D02*
X408205Y436878D01*
X408106Y436872D01*
X408006Y436862D01*
X407908Y436849D01*
X407809Y436831D01*
X407712Y436810D01*
X407616Y436785D01*
X407520Y436756D01*
X407426Y436723D01*
X407333Y436687D01*
X407242Y436647D01*
X407152Y436603D01*
X407064Y436556D01*
X406978Y436506D01*
X406894Y436452D01*
X406812Y436395D01*
X406733Y436335D01*
X406655Y436271D01*
X406581Y436205D01*
X406509Y436136D01*
X406440Y436064D01*
X406374Y435990D01*
X406310Y435912D01*
X406250Y435833D01*
X406193Y435751D01*
X406139Y435667D01*
X406089Y435581D01*
X406042Y435493D01*
X405998Y435403D01*
X405958Y435312D01*
X405922Y435219D01*
X405889Y435125D01*
X405860Y435029D01*
X405835Y434933D01*
X405814Y434836D01*
X405796Y434737D01*
X405783Y434639D01*
X405773Y434539D01*
X405767Y434440D01*
X405765Y434340D01*
X405765Y391160D02*
X405767Y391060D01*
X405773Y390961D01*
X405783Y390861D01*
X405796Y390763D01*
X405814Y390664D01*
X405835Y390567D01*
X405860Y390471D01*
X405889Y390375D01*
X405922Y390281D01*
X405958Y390188D01*
X405998Y390097D01*
X406042Y390007D01*
X406089Y389919D01*
X406139Y389833D01*
X406193Y389749D01*
X406250Y389667D01*
X406310Y389588D01*
X406374Y389510D01*
X406440Y389436D01*
X406509Y389364D01*
X406581Y389295D01*
X406655Y389229D01*
X406733Y389165D01*
X406812Y389105D01*
X406894Y389048D01*
X406978Y388994D01*
X407064Y388944D01*
X407152Y388897D01*
X407242Y388853D01*
X407333Y388813D01*
X407426Y388777D01*
X407520Y388744D01*
X407616Y388715D01*
X407712Y388690D01*
X407809Y388669D01*
X407908Y388651D01*
X408006Y388638D01*
X408106Y388628D01*
X408205Y388622D01*
X408305Y388620D01*
X423545Y388620D01*
X423545Y436880D02*
X408305Y436880D01*
X426085Y434340D02*
X426085Y391160D01*
X415925Y389890D02*
X415925Y394970D01*
X415925Y430530D02*
X415925Y435610D01*
X423545Y412750D02*
X426085Y412750D01*
X408305Y412750D02*
X405765Y412750D01*
D20*
X408969Y401956D02*
X415925Y402589D01*
X415925Y402589D01*
X422881Y401956D01*
X422864Y401786D01*
X422842Y401616D01*
X422816Y401448D01*
X422786Y401279D01*
X422752Y401112D01*
X422714Y400945D01*
X422671Y400780D01*
X422625Y400615D01*
X422575Y400452D01*
X422521Y400290D01*
X422462Y400129D01*
X422400Y399970D01*
X422334Y399813D01*
X422264Y399657D01*
X422191Y399503D01*
X422113Y399350D01*
X422032Y399200D01*
X421947Y399052D01*
X421859Y398905D01*
X421767Y398761D01*
X421672Y398620D01*
X421573Y398480D01*
X421471Y398343D01*
X421365Y398209D01*
X421256Y398077D01*
X421144Y397948D01*
X421029Y397822D01*
X420911Y397698D01*
X420790Y397578D01*
X420666Y397460D01*
X420539Y397346D01*
X420410Y397235D01*
X420277Y397127D01*
X420142Y397022D01*
X420005Y396920D01*
X419865Y396822D01*
X419723Y396728D01*
X419578Y396636D01*
X419431Y396549D01*
X419283Y396465D01*
X419132Y396385D01*
X418979Y396308D01*
X418825Y396235D01*
X418668Y396166D01*
X418510Y396101D01*
X418351Y396040D01*
X418190Y395982D01*
X418028Y395929D01*
X417864Y395880D01*
X417699Y395834D01*
X417534Y395793D01*
X417367Y395755D01*
X417199Y395722D01*
X417031Y395693D01*
X416862Y395668D01*
X416692Y395647D01*
X416522Y395631D01*
X416352Y395618D01*
X416181Y395610D01*
X416010Y395606D01*
X415840Y395606D01*
X415669Y395610D01*
X415498Y395618D01*
X415328Y395631D01*
X415158Y395647D01*
X414988Y395668D01*
X414819Y395693D01*
X414651Y395722D01*
X414483Y395755D01*
X414316Y395793D01*
X414151Y395834D01*
X413986Y395880D01*
X413822Y395929D01*
X413660Y395982D01*
X413499Y396040D01*
X413340Y396101D01*
X413182Y396166D01*
X413025Y396235D01*
X412871Y396308D01*
X412718Y396385D01*
X412567Y396465D01*
X412419Y396549D01*
X412272Y396636D01*
X412127Y396728D01*
X411985Y396822D01*
X411845Y396920D01*
X411708Y397022D01*
X411573Y397127D01*
X411440Y397235D01*
X411311Y397346D01*
X411184Y397460D01*
X411060Y397578D01*
X410939Y397698D01*
X410821Y397822D01*
X410706Y397948D01*
X410594Y398077D01*
X410485Y398209D01*
X410379Y398343D01*
X410277Y398480D01*
X410178Y398620D01*
X410083Y398761D01*
X409991Y398905D01*
X409903Y399052D01*
X409818Y399200D01*
X409737Y399350D01*
X409659Y399503D01*
X409586Y399657D01*
X409516Y399813D01*
X409450Y399970D01*
X409388Y400129D01*
X409329Y400290D01*
X409275Y400452D01*
X409225Y400615D01*
X409179Y400780D01*
X409136Y400945D01*
X409098Y401112D01*
X409064Y401279D01*
X409034Y401448D01*
X409008Y401616D01*
X408986Y401786D01*
X408969Y401956D01*
X410181Y401956D01*
X410199Y401807D01*
X410222Y401658D01*
X410248Y401509D01*
X410278Y401361D01*
X410312Y401215D01*
X410350Y401069D01*
X410391Y400924D01*
X410437Y400780D01*
X410486Y400637D01*
X410539Y400496D01*
X410595Y400356D01*
X410655Y400218D01*
X410719Y400081D01*
X410786Y399946D01*
X410857Y399813D01*
X410931Y399682D01*
X411008Y399553D01*
X411089Y399426D01*
X411174Y399301D01*
X411261Y399178D01*
X411352Y399057D01*
X411445Y398939D01*
X411542Y398823D01*
X411642Y398710D01*
X411744Y398600D01*
X411850Y398492D01*
X411958Y398387D01*
X412069Y398285D01*
X412183Y398186D01*
X412299Y398090D01*
X412418Y397997D01*
X412539Y397907D01*
X412662Y397820D01*
X412787Y397737D01*
X412915Y397657D01*
X413045Y397580D01*
X413176Y397506D01*
X413310Y397437D01*
X413445Y397370D01*
X413582Y397307D01*
X413721Y397248D01*
X413861Y397192D01*
X414002Y397140D01*
X414145Y397092D01*
X414289Y397047D01*
X414434Y397007D01*
X414581Y396970D01*
X414728Y396936D01*
X414876Y396907D01*
X415024Y396882D01*
X415173Y396860D01*
X415323Y396842D01*
X415473Y396829D01*
X415624Y396819D01*
X415774Y396813D01*
X415925Y396811D01*
X416076Y396813D01*
X416226Y396819D01*
X416377Y396829D01*
X416527Y396842D01*
X416677Y396860D01*
X416826Y396882D01*
X416974Y396907D01*
X417122Y396936D01*
X417269Y396970D01*
X417416Y397007D01*
X417561Y397047D01*
X417705Y397092D01*
X417848Y397140D01*
X417989Y397192D01*
X418129Y397248D01*
X418268Y397307D01*
X418405Y397370D01*
X418540Y397437D01*
X418674Y397506D01*
X418805Y397580D01*
X418935Y397657D01*
X419063Y397737D01*
X419188Y397820D01*
X419311Y397907D01*
X419432Y397997D01*
X419551Y398090D01*
X419667Y398186D01*
X419781Y398285D01*
X419892Y398387D01*
X420000Y398492D01*
X420106Y398600D01*
X420208Y398710D01*
X420308Y398823D01*
X420405Y398939D01*
X420498Y399057D01*
X420589Y399178D01*
X420676Y399301D01*
X420761Y399426D01*
X420842Y399553D01*
X420919Y399682D01*
X420993Y399813D01*
X421064Y399946D01*
X421131Y400081D01*
X421195Y400218D01*
X421255Y400356D01*
X421311Y400496D01*
X421364Y400637D01*
X421413Y400780D01*
X421459Y400924D01*
X421500Y401069D01*
X421538Y401215D01*
X421572Y401361D01*
X421602Y401509D01*
X421628Y401658D01*
X421651Y401807D01*
X421669Y401956D01*
X420454Y401957D01*
X420434Y401825D01*
X420409Y401694D01*
X420381Y401563D01*
X420349Y401433D01*
X420314Y401304D01*
X420274Y401177D01*
X420231Y401050D01*
X420184Y400925D01*
X420134Y400801D01*
X420080Y400679D01*
X420022Y400559D01*
X419961Y400440D01*
X419896Y400323D01*
X419828Y400208D01*
X419757Y400095D01*
X419683Y399984D01*
X419605Y399875D01*
X419524Y399769D01*
X419440Y399665D01*
X419353Y399563D01*
X419263Y399464D01*
X419170Y399368D01*
X419075Y399275D01*
X418977Y399184D01*
X418876Y399096D01*
X418772Y399012D01*
X418667Y398930D01*
X418559Y398851D01*
X418448Y398776D01*
X418336Y398704D01*
X418221Y398635D01*
X418105Y398570D01*
X417986Y398508D01*
X417866Y398449D01*
X417744Y398394D01*
X417621Y398343D01*
X417496Y398295D01*
X417370Y398251D01*
X417242Y398211D01*
X417114Y398174D01*
X416984Y398141D01*
X416854Y398112D01*
X416723Y398087D01*
X416591Y398066D01*
X416458Y398048D01*
X416325Y398035D01*
X416192Y398025D01*
X416059Y398019D01*
X415925Y398017D01*
X415791Y398019D01*
X415658Y398025D01*
X415525Y398035D01*
X415392Y398048D01*
X415259Y398066D01*
X415127Y398087D01*
X414996Y398112D01*
X414866Y398141D01*
X414736Y398174D01*
X414608Y398211D01*
X414480Y398251D01*
X414354Y398295D01*
X414229Y398343D01*
X414106Y398394D01*
X413984Y398449D01*
X413864Y398508D01*
X413745Y398570D01*
X413629Y398635D01*
X413514Y398704D01*
X413402Y398776D01*
X413291Y398851D01*
X413183Y398930D01*
X413078Y399012D01*
X412974Y399096D01*
X412873Y399184D01*
X412775Y399275D01*
X412680Y399368D01*
X412587Y399464D01*
X412497Y399563D01*
X412410Y399665D01*
X412326Y399769D01*
X412245Y399875D01*
X412167Y399984D01*
X412093Y400095D01*
X412022Y400208D01*
X411954Y400323D01*
X411889Y400440D01*
X411828Y400559D01*
X411770Y400679D01*
X411716Y400801D01*
X411666Y400925D01*
X411619Y401050D01*
X411576Y401177D01*
X411536Y401304D01*
X411501Y401433D01*
X411469Y401563D01*
X411441Y401694D01*
X411416Y401825D01*
X411396Y401957D01*
X412618Y401959D01*
X412641Y401846D01*
X412668Y401735D01*
X412700Y401624D01*
X412734Y401515D01*
X412773Y401406D01*
X412815Y401299D01*
X412861Y401194D01*
X412910Y401090D01*
X412963Y400988D01*
X413020Y400888D01*
X413079Y400790D01*
X413143Y400694D01*
X413209Y400600D01*
X413278Y400509D01*
X413351Y400420D01*
X413426Y400333D01*
X413505Y400249D01*
X413586Y400168D01*
X413670Y400089D01*
X413757Y400014D01*
X413846Y399941D01*
X413938Y399872D01*
X414032Y399806D01*
X414128Y399743D01*
X414226Y399683D01*
X414326Y399627D01*
X414428Y399574D01*
X414532Y399525D01*
X414637Y399479D01*
X414744Y399437D01*
X414852Y399398D01*
X414962Y399364D01*
X415073Y399333D01*
X415184Y399306D01*
X415297Y399282D01*
X415410Y399263D01*
X415524Y399247D01*
X415638Y399235D01*
X415753Y399227D01*
X415868Y399223D01*
X415982Y399223D01*
X416097Y399227D01*
X416212Y399235D01*
X416326Y399247D01*
X416440Y399263D01*
X416553Y399282D01*
X416666Y399306D01*
X416777Y399333D01*
X416888Y399364D01*
X416998Y399398D01*
X417106Y399437D01*
X417213Y399479D01*
X417318Y399525D01*
X417422Y399574D01*
X417524Y399627D01*
X417624Y399683D01*
X417722Y399743D01*
X417818Y399806D01*
X417912Y399872D01*
X418004Y399941D01*
X418093Y400014D01*
X418180Y400089D01*
X418264Y400168D01*
X418345Y400249D01*
X418424Y400333D01*
X418499Y400420D01*
X418572Y400509D01*
X418641Y400600D01*
X418707Y400694D01*
X418771Y400790D01*
X418830Y400888D01*
X418887Y400988D01*
X418940Y401090D01*
X418989Y401194D01*
X419035Y401299D01*
X419077Y401406D01*
X419116Y401515D01*
X419150Y401624D01*
X419182Y401735D01*
X419209Y401846D01*
X419232Y401959D01*
X417993Y401964D01*
X417965Y401877D01*
X417933Y401790D01*
X417897Y401706D01*
X417857Y401623D01*
X417815Y401541D01*
X417768Y401462D01*
X417718Y401384D01*
X417666Y401309D01*
X417609Y401236D01*
X417550Y401166D01*
X417488Y401098D01*
X417423Y401033D01*
X417356Y400970D01*
X417286Y400911D01*
X417213Y400855D01*
X417138Y400801D01*
X417061Y400751D01*
X416981Y400705D01*
X416900Y400662D01*
X416817Y400622D01*
X416733Y400586D01*
X416647Y400553D01*
X416559Y400524D01*
X416471Y400499D01*
X416381Y400478D01*
X416291Y400460D01*
X416200Y400447D01*
X416109Y400437D01*
X416017Y400431D01*
X415925Y400429D01*
X415833Y400431D01*
X415741Y400437D01*
X415650Y400447D01*
X415559Y400460D01*
X415469Y400478D01*
X415379Y400499D01*
X415291Y400524D01*
X415203Y400553D01*
X415117Y400586D01*
X415033Y400622D01*
X414950Y400662D01*
X414869Y400705D01*
X414789Y400751D01*
X414712Y400801D01*
X414637Y400855D01*
X414564Y400911D01*
X414494Y400970D01*
X414427Y401033D01*
X414362Y401098D01*
X414300Y401166D01*
X414241Y401236D01*
X414184Y401309D01*
X414132Y401384D01*
X414082Y401462D01*
X414035Y401541D01*
X413993Y401623D01*
X413953Y401706D01*
X413917Y401790D01*
X413885Y401877D01*
X413857Y401964D01*
X415173Y402001D01*
X415212Y401955D01*
X415253Y401912D01*
X415296Y401871D01*
X415343Y401833D01*
X415391Y401798D01*
X415441Y401767D01*
X415494Y401738D01*
X415548Y401713D01*
X415603Y401691D01*
X415660Y401672D01*
X415718Y401658D01*
X415776Y401647D01*
X415836Y401639D01*
X415895Y401635D01*
X415955Y401635D01*
X416014Y401639D01*
X416074Y401647D01*
X416132Y401658D01*
X416190Y401672D01*
X416247Y401691D01*
X416302Y401713D01*
X416356Y401738D01*
X416409Y401767D01*
X416459Y401798D01*
X416507Y401833D01*
X416554Y401871D01*
X416597Y401912D01*
X416638Y401955D01*
X416677Y402001D01*
X422881Y423544D02*
X415925Y422911D01*
X415925Y422911D01*
X408969Y423544D01*
X408986Y423714D01*
X409008Y423884D01*
X409034Y424052D01*
X409064Y424221D01*
X409098Y424388D01*
X409136Y424555D01*
X409179Y424720D01*
X409225Y424885D01*
X409275Y425048D01*
X409329Y425210D01*
X409388Y425371D01*
X409450Y425530D01*
X409516Y425687D01*
X409586Y425843D01*
X409659Y425997D01*
X409737Y426150D01*
X409818Y426300D01*
X409903Y426448D01*
X409991Y426595D01*
X410083Y426739D01*
X410178Y426880D01*
X410277Y427020D01*
X410379Y427157D01*
X410485Y427291D01*
X410594Y427423D01*
X410706Y427552D01*
X410821Y427678D01*
X410939Y427802D01*
X411060Y427922D01*
X411184Y428040D01*
X411311Y428154D01*
X411440Y428265D01*
X411573Y428373D01*
X411708Y428478D01*
X411845Y428580D01*
X411985Y428678D01*
X412127Y428772D01*
X412272Y428864D01*
X412419Y428951D01*
X412567Y429035D01*
X412718Y429115D01*
X412871Y429192D01*
X413025Y429265D01*
X413182Y429334D01*
X413340Y429399D01*
X413499Y429460D01*
X413660Y429518D01*
X413822Y429571D01*
X413986Y429620D01*
X414151Y429666D01*
X414316Y429707D01*
X414483Y429745D01*
X414651Y429778D01*
X414819Y429807D01*
X414988Y429832D01*
X415158Y429853D01*
X415328Y429869D01*
X415498Y429882D01*
X415669Y429890D01*
X415840Y429894D01*
X416010Y429894D01*
X416181Y429890D01*
X416352Y429882D01*
X416522Y429869D01*
X416692Y429853D01*
X416862Y429832D01*
X417031Y429807D01*
X417199Y429778D01*
X417367Y429745D01*
X417534Y429707D01*
X417699Y429666D01*
X417864Y429620D01*
X418028Y429571D01*
X418190Y429518D01*
X418351Y429460D01*
X418510Y429399D01*
X418668Y429334D01*
X418825Y429265D01*
X418979Y429192D01*
X419132Y429115D01*
X419283Y429035D01*
X419431Y428951D01*
X419578Y428864D01*
X419723Y428772D01*
X419865Y428678D01*
X420005Y428580D01*
X420142Y428478D01*
X420277Y428373D01*
X420410Y428265D01*
X420539Y428154D01*
X420666Y428040D01*
X420790Y427922D01*
X420911Y427802D01*
X421029Y427678D01*
X421144Y427552D01*
X421256Y427423D01*
X421365Y427291D01*
X421471Y427157D01*
X421573Y427020D01*
X421672Y426880D01*
X421767Y426739D01*
X421859Y426595D01*
X421947Y426448D01*
X422032Y426300D01*
X422113Y426150D01*
X422191Y425997D01*
X422264Y425843D01*
X422334Y425687D01*
X422400Y425530D01*
X422462Y425371D01*
X422521Y425210D01*
X422575Y425048D01*
X422625Y424885D01*
X422671Y424720D01*
X422714Y424555D01*
X422752Y424388D01*
X422786Y424221D01*
X422816Y424052D01*
X422842Y423884D01*
X422864Y423714D01*
X422881Y423544D01*
X421669Y423544D01*
X421651Y423693D01*
X421628Y423842D01*
X421602Y423991D01*
X421572Y424139D01*
X421538Y424285D01*
X421500Y424431D01*
X421459Y424576D01*
X421413Y424720D01*
X421364Y424863D01*
X421311Y425004D01*
X421255Y425144D01*
X421195Y425282D01*
X421131Y425419D01*
X421064Y425554D01*
X420993Y425687D01*
X420919Y425818D01*
X420842Y425947D01*
X420761Y426074D01*
X420676Y426199D01*
X420589Y426322D01*
X420498Y426443D01*
X420405Y426561D01*
X420308Y426677D01*
X420208Y426790D01*
X420106Y426900D01*
X420000Y427008D01*
X419892Y427113D01*
X419781Y427215D01*
X419667Y427314D01*
X419551Y427410D01*
X419432Y427503D01*
X419311Y427593D01*
X419188Y427680D01*
X419063Y427763D01*
X418935Y427843D01*
X418805Y427920D01*
X418674Y427994D01*
X418540Y428063D01*
X418405Y428130D01*
X418268Y428193D01*
X418129Y428252D01*
X417989Y428308D01*
X417848Y428360D01*
X417705Y428408D01*
X417561Y428453D01*
X417416Y428493D01*
X417269Y428530D01*
X417122Y428564D01*
X416974Y428593D01*
X416826Y428618D01*
X416677Y428640D01*
X416527Y428658D01*
X416377Y428671D01*
X416226Y428681D01*
X416076Y428687D01*
X415925Y428689D01*
X415774Y428687D01*
X415624Y428681D01*
X415473Y428671D01*
X415323Y428658D01*
X415173Y428640D01*
X415024Y428618D01*
X414876Y428593D01*
X414728Y428564D01*
X414581Y428530D01*
X414434Y428493D01*
X414289Y428453D01*
X414145Y428408D01*
X414002Y428360D01*
X413861Y428308D01*
X413721Y428252D01*
X413582Y428193D01*
X413445Y428130D01*
X413310Y428063D01*
X413176Y427994D01*
X413045Y427920D01*
X412915Y427843D01*
X412787Y427763D01*
X412662Y427680D01*
X412539Y427593D01*
X412418Y427503D01*
X412299Y427410D01*
X412183Y427314D01*
X412069Y427215D01*
X411958Y427113D01*
X411850Y427008D01*
X411744Y426900D01*
X411642Y426790D01*
X411542Y426677D01*
X411445Y426561D01*
X411352Y426443D01*
X411261Y426322D01*
X411174Y426199D01*
X411089Y426074D01*
X411008Y425947D01*
X410931Y425818D01*
X410857Y425687D01*
X410786Y425554D01*
X410719Y425419D01*
X410655Y425282D01*
X410595Y425144D01*
X410539Y425004D01*
X410486Y424863D01*
X410437Y424720D01*
X410391Y424576D01*
X410350Y424431D01*
X410312Y424285D01*
X410278Y424139D01*
X410248Y423991D01*
X410222Y423842D01*
X410199Y423693D01*
X410181Y423544D01*
X411396Y423543D01*
X411416Y423675D01*
X411441Y423806D01*
X411469Y423937D01*
X411501Y424067D01*
X411536Y424196D01*
X411576Y424323D01*
X411619Y424450D01*
X411666Y424575D01*
X411716Y424699D01*
X411770Y424821D01*
X411828Y424941D01*
X411889Y425060D01*
X411954Y425177D01*
X412022Y425292D01*
X412093Y425405D01*
X412167Y425516D01*
X412245Y425625D01*
X412326Y425731D01*
X412410Y425835D01*
X412497Y425937D01*
X412587Y426036D01*
X412680Y426132D01*
X412775Y426225D01*
X412873Y426316D01*
X412974Y426404D01*
X413078Y426488D01*
X413183Y426570D01*
X413291Y426649D01*
X413402Y426724D01*
X413514Y426796D01*
X413629Y426865D01*
X413745Y426930D01*
X413864Y426992D01*
X413984Y427051D01*
X414106Y427106D01*
X414229Y427157D01*
X414354Y427205D01*
X414480Y427249D01*
X414608Y427289D01*
X414736Y427326D01*
X414866Y427359D01*
X414996Y427388D01*
X415127Y427413D01*
X415259Y427434D01*
X415392Y427452D01*
X415525Y427465D01*
X415658Y427475D01*
X415791Y427481D01*
X415925Y427483D01*
X416059Y427481D01*
X416192Y427475D01*
X416325Y427465D01*
X416458Y427452D01*
X416591Y427434D01*
X416723Y427413D01*
X416854Y427388D01*
X416984Y427359D01*
X417114Y427326D01*
X417242Y427289D01*
X417370Y427249D01*
X417496Y427205D01*
X417621Y427157D01*
X417744Y427106D01*
X417866Y427051D01*
X417986Y426992D01*
X418105Y426930D01*
X418221Y426865D01*
X418336Y426796D01*
X418448Y426724D01*
X418559Y426649D01*
X418667Y426570D01*
X418772Y426488D01*
X418876Y426404D01*
X418977Y426316D01*
X419075Y426225D01*
X419170Y426132D01*
X419263Y426036D01*
X419353Y425937D01*
X419440Y425835D01*
X419524Y425731D01*
X419605Y425625D01*
X419683Y425516D01*
X419757Y425405D01*
X419828Y425292D01*
X419896Y425177D01*
X419961Y425060D01*
X420022Y424941D01*
X420080Y424821D01*
X420134Y424699D01*
X420184Y424575D01*
X420231Y424450D01*
X420274Y424323D01*
X420314Y424196D01*
X420349Y424067D01*
X420381Y423937D01*
X420409Y423806D01*
X420434Y423675D01*
X420454Y423543D01*
X419232Y423541D01*
X419209Y423654D01*
X419182Y423765D01*
X419150Y423876D01*
X419116Y423985D01*
X419077Y424094D01*
X419035Y424201D01*
X418989Y424306D01*
X418940Y424410D01*
X418887Y424512D01*
X418830Y424612D01*
X418771Y424710D01*
X418707Y424806D01*
X418641Y424900D01*
X418572Y424991D01*
X418499Y425080D01*
X418424Y425167D01*
X418345Y425251D01*
X418264Y425332D01*
X418180Y425411D01*
X418093Y425486D01*
X418004Y425559D01*
X417912Y425628D01*
X417818Y425694D01*
X417722Y425757D01*
X417624Y425817D01*
X417524Y425873D01*
X417422Y425926D01*
X417318Y425975D01*
X417213Y426021D01*
X417106Y426063D01*
X416998Y426102D01*
X416888Y426136D01*
X416777Y426167D01*
X416666Y426194D01*
X416553Y426218D01*
X416440Y426237D01*
X416326Y426253D01*
X416212Y426265D01*
X416097Y426273D01*
X415982Y426277D01*
X415868Y426277D01*
X415753Y426273D01*
X415638Y426265D01*
X415524Y426253D01*
X415410Y426237D01*
X415297Y426218D01*
X415184Y426194D01*
X415073Y426167D01*
X414962Y426136D01*
X414852Y426102D01*
X414744Y426063D01*
X414637Y426021D01*
X414532Y425975D01*
X414428Y425926D01*
X414326Y425873D01*
X414226Y425817D01*
X414128Y425757D01*
X414032Y425694D01*
X413938Y425628D01*
X413846Y425559D01*
X413757Y425486D01*
X413670Y425411D01*
X413586Y425332D01*
X413505Y425251D01*
X413426Y425167D01*
X413351Y425080D01*
X413278Y424991D01*
X413209Y424900D01*
X413143Y424806D01*
X413079Y424710D01*
X413020Y424612D01*
X412963Y424512D01*
X412910Y424410D01*
X412861Y424306D01*
X412815Y424201D01*
X412773Y424094D01*
X412734Y423985D01*
X412700Y423876D01*
X412668Y423765D01*
X412641Y423654D01*
X412618Y423541D01*
X413857Y423536D01*
X413885Y423623D01*
X413917Y423710D01*
X413953Y423794D01*
X413993Y423877D01*
X414035Y423959D01*
X414082Y424038D01*
X414132Y424116D01*
X414184Y424191D01*
X414241Y424264D01*
X414300Y424334D01*
X414362Y424402D01*
X414427Y424467D01*
X414494Y424530D01*
X414564Y424589D01*
X414637Y424645D01*
X414712Y424699D01*
X414789Y424749D01*
X414869Y424795D01*
X414950Y424838D01*
X415033Y424878D01*
X415117Y424914D01*
X415203Y424947D01*
X415291Y424976D01*
X415379Y425001D01*
X415469Y425022D01*
X415559Y425040D01*
X415650Y425053D01*
X415741Y425063D01*
X415833Y425069D01*
X415925Y425071D01*
X416017Y425069D01*
X416109Y425063D01*
X416200Y425053D01*
X416291Y425040D01*
X416381Y425022D01*
X416471Y425001D01*
X416559Y424976D01*
X416647Y424947D01*
X416733Y424914D01*
X416817Y424878D01*
X416900Y424838D01*
X416981Y424795D01*
X417061Y424749D01*
X417138Y424699D01*
X417213Y424645D01*
X417286Y424589D01*
X417356Y424530D01*
X417423Y424467D01*
X417488Y424402D01*
X417550Y424334D01*
X417609Y424264D01*
X417666Y424191D01*
X417718Y424116D01*
X417768Y424038D01*
X417815Y423959D01*
X417857Y423877D01*
X417897Y423794D01*
X417933Y423710D01*
X417965Y423623D01*
X417993Y423536D01*
X416677Y423499D01*
X416638Y423545D01*
X416597Y423588D01*
X416554Y423629D01*
X416507Y423667D01*
X416459Y423702D01*
X416409Y423733D01*
X416356Y423762D01*
X416302Y423787D01*
X416247Y423809D01*
X416190Y423828D01*
X416132Y423842D01*
X416074Y423853D01*
X416014Y423861D01*
X415955Y423865D01*
X415895Y423865D01*
X415836Y423861D01*
X415776Y423853D01*
X415718Y423842D01*
X415660Y423828D01*
X415603Y423809D01*
X415548Y423787D01*
X415494Y423762D01*
X415441Y423733D01*
X415391Y423702D01*
X415343Y423667D01*
X415296Y423629D01*
X415253Y423588D01*
X415212Y423545D01*
X415173Y423499D01*
D43*
X415925Y412750D03*
D20*
X429250Y408153D02*
X431157Y410060D01*
X429250Y408153D02*
X429250Y404340D01*
X431157Y402433D01*
X433064Y402433D01*
X434970Y404340D01*
X434970Y408153D01*
X436877Y410060D01*
X438783Y410060D01*
X440690Y408153D01*
X440690Y404340D01*
X438783Y402433D01*
X438783Y414127D02*
X440690Y416034D01*
X440690Y417940D01*
X438783Y419847D01*
X429250Y419847D01*
X429250Y417940D02*
X429250Y421754D01*
X433064Y425821D02*
X429250Y429634D01*
X440690Y429634D01*
X440690Y425821D02*
X440690Y433447D01*
D10*
X361950Y443575D02*
X361950Y451775D01*
X374650Y451775D02*
X374650Y443575D01*
D30*
X368285Y454989D03*
X368285Y440257D03*
D12*
X355092Y441833D02*
X343398Y441833D01*
X343398Y447680D01*
X345347Y449629D01*
X349245Y449629D01*
X351194Y447680D01*
X351194Y441833D01*
X351194Y445731D02*
X355092Y449629D01*
X355092Y459374D02*
X343398Y459374D01*
X349245Y453527D01*
X349245Y461323D01*
X347296Y465221D02*
X343398Y469119D01*
X355092Y469119D01*
X355092Y465221D02*
X355092Y473017D01*
D26*
X318350Y251300D02*
X318350Y231300D01*
X318350Y251300D02*
X329350Y251300D01*
X329350Y231300D01*
X318350Y231300D01*
D50*
X326350Y234300D03*
D52*
X332350Y234800D03*
X332350Y241300D03*
X332350Y247800D03*
X315350Y247800D03*
X315350Y241300D03*
X315350Y234800D03*
D12*
X308842Y234706D02*
X308842Y230808D01*
X308842Y232757D02*
X297148Y232757D01*
X297148Y230808D02*
X297148Y234706D01*
X297148Y244451D02*
X299097Y246400D01*
X297148Y244451D02*
X297148Y240553D01*
X299097Y238604D01*
X306893Y238604D01*
X308842Y240553D01*
X308842Y244451D01*
X306893Y246400D01*
X299097Y254196D02*
X297148Y258094D01*
X299097Y254196D02*
X302995Y250298D01*
X306893Y250298D01*
X308842Y252247D01*
X308842Y256145D01*
X306893Y258094D01*
X304944Y258094D01*
X302995Y256145D01*
X302995Y250298D01*
D26*
X303950Y251300D02*
X303950Y231300D01*
X292950Y231300D01*
X292950Y251300D01*
X303950Y251300D01*
D50*
X295950Y248300D03*
D52*
X289950Y247800D03*
X289950Y241300D03*
X289950Y234800D03*
X306950Y234800D03*
X306950Y241300D03*
X306950Y247800D03*
D12*
X325142Y213828D02*
X325142Y209930D01*
X325142Y211879D02*
X313448Y211879D01*
X313448Y209930D02*
X313448Y213828D01*
X313448Y223573D02*
X315397Y225522D01*
X313448Y223573D02*
X313448Y219675D01*
X315397Y217726D01*
X323193Y217726D01*
X325142Y219675D01*
X325142Y223573D01*
X323193Y225522D01*
X317346Y229420D02*
X313448Y233318D01*
X325142Y233318D01*
X325142Y229420D02*
X325142Y237216D01*
X325142Y241114D02*
X325142Y248910D01*
X325142Y241114D02*
X317346Y248910D01*
X315397Y248910D01*
X313448Y246961D01*
X313448Y243063D01*
X315397Y241114D01*
D26*
X219393Y5334D02*
X183833Y5334D01*
X183833Y70866D01*
X219393Y70866D01*
X219393Y5334D01*
D12*
X160121Y20916D02*
X158934Y22102D01*
X158934Y24475D01*
X160121Y25661D01*
X161307Y25661D01*
X162493Y24475D01*
X162493Y23289D01*
X162493Y24475D02*
X163680Y25661D01*
X164866Y25661D01*
X166053Y24475D01*
X166053Y22102D01*
X164866Y20916D01*
X227514Y15633D02*
X234633Y15633D01*
X231073Y12074D02*
X227514Y15633D01*
X231073Y16819D02*
X231073Y12074D01*
X161307Y65650D02*
X158934Y68023D01*
X166053Y68023D01*
X166053Y70395D02*
X166053Y65650D01*
X165959Y48775D02*
X165959Y44030D01*
X161213Y48775D01*
X160027Y48775D01*
X158840Y47589D01*
X158840Y45216D01*
X160027Y44030D01*
D53*
X228918Y38100D03*
D54*
X174308Y38100D03*
X174308Y61214D03*
X174308Y14986D03*
D53*
X228918Y38100D03*
D54*
X174308Y38100D03*
X174308Y61214D03*
X174308Y14986D03*
D12*
X214313Y21130D02*
X214313Y25028D01*
X214313Y23079D02*
X202619Y23079D01*
X202619Y21130D02*
X202619Y25028D01*
X202619Y34773D02*
X204568Y36722D01*
X202619Y34773D02*
X202619Y30875D01*
X204568Y28926D01*
X212364Y28926D01*
X214313Y30875D01*
X214313Y34773D01*
X212364Y36722D01*
X206517Y40620D02*
X202619Y44518D01*
X214313Y44518D01*
X214313Y40620D02*
X214313Y48416D01*
X202619Y52314D02*
X202619Y60110D01*
X202619Y52314D02*
X208466Y52314D01*
X206517Y56212D01*
X206517Y58161D01*
X208466Y60110D01*
X212364Y60110D01*
X214313Y58161D01*
X214313Y54263D01*
X212364Y52314D01*
X112963Y24448D02*
X112963Y16828D01*
X99763Y16828D02*
X99763Y24198D01*
D25*
X106374Y27809D03*
X106374Y13331D03*
D12*
X119561Y4611D02*
X121510Y6560D01*
X119561Y4611D02*
X119561Y713D01*
X121510Y-1236D01*
X129306Y-1236D01*
X131255Y713D01*
X131255Y4611D01*
X129306Y6560D01*
X131255Y10458D02*
X131255Y18253D01*
X131255Y10458D02*
X123459Y18253D01*
X121510Y18253D01*
X119561Y16304D01*
X119561Y12406D01*
X121510Y10458D01*
X123459Y22151D02*
X119561Y26049D01*
X131255Y26049D01*
X131255Y22151D02*
X131255Y29947D01*
D10*
X249748Y36378D02*
X249748Y17858D01*
X274128Y17858D02*
X274128Y36378D01*
D55*
X262019Y14228D03*
X262019Y39882D03*
D12*
X242380Y2096D02*
X230686Y2096D01*
X242380Y2096D02*
X242380Y9891D01*
X242380Y13789D02*
X242380Y21585D01*
X242380Y13789D02*
X234584Y21585D01*
X232635Y21585D01*
X230686Y19636D01*
X230686Y15738D01*
X232635Y13789D01*
D10*
X267353Y238850D02*
X267353Y243750D01*
X262873Y243750D02*
X262873Y238850D01*
D13*
X265064Y245340D03*
X265064Y237212D03*
D12*
X273910Y220872D02*
X271961Y218923D01*
X271961Y215025D01*
X273910Y213076D01*
X281706Y213076D01*
X283655Y215025D01*
X283655Y218923D01*
X281706Y220872D01*
X283655Y224770D02*
X283655Y232566D01*
X283655Y224770D02*
X275859Y232566D01*
X273910Y232566D01*
X271961Y230617D01*
X271961Y226719D01*
X273910Y224770D01*
X271961Y242311D02*
X283655Y242311D01*
X277808Y236464D02*
X271961Y242311D01*
X277808Y244260D02*
X277808Y236464D01*
D10*
X248585Y148500D02*
X248585Y143600D01*
X253065Y143600D02*
X253065Y148500D01*
D13*
X250874Y142010D03*
X250874Y150138D03*
D12*
X234222Y148004D02*
X232273Y146055D01*
X232273Y142157D01*
X234222Y140208D01*
X242018Y140208D01*
X243967Y142157D01*
X243967Y146055D01*
X242018Y148004D01*
X243967Y151902D02*
X243967Y159698D01*
X243967Y151902D02*
X236171Y159698D01*
X234222Y159698D01*
X232273Y157749D01*
X232273Y153851D01*
X234222Y151902D01*
X232273Y163596D02*
X232273Y171392D01*
X234222Y171392D01*
X242018Y163596D01*
X243967Y163596D01*
D10*
X259488Y54910D02*
X264388Y54910D01*
X264388Y59390D02*
X259488Y59390D01*
D11*
X265978Y57199D03*
X257850Y57199D03*
D12*
X241510Y48353D02*
X239561Y50302D01*
X235663Y50302D01*
X233714Y48353D01*
X233714Y40557D01*
X235663Y38608D01*
X239561Y38608D01*
X241510Y40557D01*
X245408Y48353D02*
X247356Y50302D01*
X251254Y50302D01*
X253203Y48353D01*
X253203Y46404D01*
X251254Y44455D01*
X249305Y44455D01*
X251254Y44455D02*
X253203Y42506D01*
X253203Y40557D01*
X251254Y38608D01*
X247356Y38608D01*
X245408Y40557D01*
X257101Y46404D02*
X260999Y50302D01*
X260999Y38608D01*
X257101Y38608D02*
X264897Y38608D01*
X120400Y53340D02*
X120400Y60960D01*
X133600Y60960D02*
X133600Y53590D01*
D25*
X126989Y49979D03*
X126989Y64457D03*
D12*
X104047Y52754D02*
X102098Y50805D01*
X102098Y46907D01*
X104047Y44958D01*
X111843Y44958D01*
X113792Y46907D01*
X113792Y50805D01*
X111843Y52754D01*
X104047Y56652D02*
X102098Y58601D01*
X102098Y62499D01*
X104047Y64448D01*
X105996Y64448D01*
X107945Y62499D01*
X107945Y60550D01*
X107945Y62499D02*
X109894Y64448D01*
X111843Y64448D01*
X113792Y62499D01*
X113792Y58601D01*
X111843Y56652D01*
X113792Y68346D02*
X113792Y76142D01*
X113792Y68346D02*
X105996Y76142D01*
X104047Y76142D01*
X102098Y74193D01*
X102098Y70295D01*
X104047Y68346D01*
D10*
X177800Y247650D02*
X184150Y254000D01*
X177800Y234950D02*
X184150Y228600D01*
X177800Y222250D01*
X177800Y209550D02*
X184150Y203200D01*
X177800Y196850D01*
X177800Y184150D02*
X184150Y177800D01*
X177800Y171450D01*
X177800Y158750D02*
X184150Y152400D01*
X177800Y146050D01*
X177800Y133350D02*
X184150Y127000D01*
X184150Y254000D02*
X222250Y254000D01*
X228600Y247650D01*
X228600Y234950D01*
X222250Y228600D01*
X228600Y222250D01*
X228600Y209550D01*
X222250Y203200D01*
X228600Y196850D01*
X228600Y184150D01*
X222250Y177800D01*
X228600Y171450D01*
X228600Y158750D01*
X222250Y152400D01*
X228600Y146050D01*
X228600Y133350D01*
X222250Y127000D01*
X222250Y228600D02*
X184150Y228600D01*
X184150Y203200D02*
X222250Y203200D01*
X222250Y177800D02*
X184150Y177800D01*
X184150Y152400D02*
X222250Y152400D01*
X222250Y127000D02*
X184150Y127000D01*
X177800Y133350D02*
X177800Y146050D01*
X177800Y158750D02*
X177800Y171450D01*
X177800Y184150D02*
X177800Y196850D01*
X177800Y209550D02*
X177800Y222250D01*
X177800Y234950D02*
X177800Y247650D01*
X184150Y127000D02*
X177800Y120650D01*
X177800Y107950D02*
X184150Y101600D01*
X222250Y127000D02*
X228600Y120650D01*
X228600Y107950D01*
X222250Y101600D01*
X184150Y101600D01*
X177800Y107950D02*
X177800Y120650D01*
D48*
X190500Y241300D03*
X215900Y241300D03*
X215900Y215900D03*
X190500Y215900D03*
X215900Y190500D03*
X190500Y190500D03*
X215900Y165100D03*
X215900Y139700D03*
X190500Y165100D03*
X190500Y139700D03*
X215900Y114300D03*
X190500Y114300D03*
D20*
X245108Y219553D02*
X247015Y221460D01*
X247015Y223366D01*
X245108Y225273D01*
X235575Y225273D01*
X235575Y223366D02*
X235575Y227180D01*
X235575Y231247D02*
X247015Y231247D01*
X235575Y231247D02*
X235575Y236967D01*
X237482Y238874D01*
X241295Y238874D01*
X243202Y236967D01*
X243202Y231247D01*
X237482Y242941D02*
X235575Y244848D01*
X235575Y248661D01*
X237482Y250567D01*
X239389Y250567D01*
X241295Y248661D01*
X241295Y246754D01*
X241295Y248661D02*
X243202Y250567D01*
X245108Y250567D01*
X247015Y248661D01*
X247015Y244848D01*
X245108Y242941D01*
D12*
X133600Y24448D02*
X133600Y16828D01*
X120400Y16828D02*
X120400Y24198D01*
D25*
X127012Y27809D03*
X127012Y13331D03*
D12*
X140198Y4611D02*
X142147Y6560D01*
X140198Y4611D02*
X140198Y713D01*
X142147Y-1236D01*
X149943Y-1236D01*
X151892Y713D01*
X151892Y4611D01*
X149943Y6560D01*
X142147Y10458D02*
X140198Y12406D01*
X140198Y16304D01*
X142147Y18253D01*
X144096Y18253D01*
X146045Y16304D01*
X146045Y14355D01*
X146045Y16304D02*
X147994Y18253D01*
X149943Y18253D01*
X151892Y16304D01*
X151892Y12406D01*
X149943Y10458D01*
X142147Y22151D02*
X140198Y24100D01*
X140198Y27998D01*
X142147Y29947D01*
X144096Y29947D01*
X146045Y27998D01*
X146045Y26049D01*
X146045Y27998D02*
X147994Y29947D01*
X149943Y29947D01*
X151892Y27998D01*
X151892Y24100D01*
X149943Y22151D01*
X154238Y24448D02*
X154238Y16828D01*
X141038Y16828D02*
X141038Y24198D01*
D25*
X147649Y27809D03*
X147649Y13331D03*
D12*
X160836Y4611D02*
X162785Y6560D01*
X160836Y4611D02*
X160836Y713D01*
X162785Y-1236D01*
X170581Y-1236D01*
X172530Y713D01*
X172530Y4611D01*
X170581Y6560D01*
X162785Y10458D02*
X160836Y12406D01*
X160836Y16304D01*
X162785Y18253D01*
X164734Y18253D01*
X166683Y16304D01*
X166683Y14355D01*
X166683Y16304D02*
X168632Y18253D01*
X170581Y18253D01*
X172530Y16304D01*
X172530Y12406D01*
X170581Y10458D01*
X160836Y22151D02*
X160836Y29947D01*
X160836Y22151D02*
X166683Y22151D01*
X164734Y26049D01*
X164734Y27998D01*
X166683Y29947D01*
X170581Y29947D01*
X172530Y27998D01*
X172530Y24100D01*
X170581Y22151D01*
D10*
X168148Y76258D02*
X168148Y104708D01*
X168148Y76258D02*
X152528Y76258D01*
X152528Y104708D01*
X168148Y104708D01*
D56*
X165338Y78988D03*
D57*
X171338Y80988D03*
X171338Y90488D03*
X171338Y99988D03*
X149338Y99988D03*
X149338Y90488D03*
X149338Y80988D03*
D12*
X142810Y80076D02*
X142810Y77026D01*
X142810Y78551D02*
X133658Y78551D01*
X133658Y77026D02*
X133658Y80076D01*
X133658Y87838D02*
X135183Y89363D01*
X133658Y87838D02*
X133658Y84788D01*
X135183Y83262D01*
X141284Y83262D01*
X142810Y84788D01*
X142810Y87838D01*
X141284Y89363D01*
X133658Y92617D02*
X133658Y98719D01*
X133658Y92617D02*
X138234Y92617D01*
X136708Y95668D01*
X136708Y97193D01*
X138234Y98719D01*
X141284Y98719D01*
X142810Y97193D01*
X142810Y94143D01*
X141284Y92617D01*
D10*
X183498Y91350D02*
X183498Y86450D01*
X187978Y86450D02*
X187978Y91350D01*
D13*
X185786Y84860D03*
X185786Y92988D03*
D12*
X169135Y90854D02*
X167186Y88905D01*
X167186Y85007D01*
X169135Y83058D01*
X176931Y83058D01*
X178880Y85007D01*
X178880Y88905D01*
X176931Y90854D01*
X169135Y94752D02*
X167186Y96701D01*
X167186Y100599D01*
X169135Y102548D01*
X171084Y102548D01*
X173033Y100599D01*
X173033Y98650D01*
X173033Y100599D02*
X174982Y102548D01*
X176931Y102548D01*
X178880Y100599D01*
X178880Y96701D01*
X176931Y94752D01*
X167186Y106446D02*
X167186Y114242D01*
X169135Y114242D01*
X176931Y106446D01*
X178880Y106446D01*
D10*
X89835Y67538D02*
X89835Y62638D01*
X94315Y62638D02*
X94315Y67538D01*
D13*
X92124Y61048D03*
X92124Y69176D03*
D12*
X85217Y59246D02*
X73523Y59246D01*
X73523Y65092D01*
X75472Y67041D01*
X79370Y67041D01*
X81319Y65092D01*
X81319Y59246D01*
X81319Y63143D02*
X85217Y67041D01*
X85217Y76786D02*
X73523Y76786D01*
X79370Y70939D01*
X79370Y78735D01*
D10*
X83203Y67538D02*
X83203Y62638D01*
X78723Y62638D02*
X78723Y67538D01*
D13*
X80914Y69128D03*
X80914Y61000D03*
D12*
X87811Y48558D02*
X99505Y48558D01*
X87811Y48558D02*
X87811Y54405D01*
X89760Y56354D01*
X93658Y56354D01*
X95607Y54405D01*
X95607Y48558D01*
X95607Y52456D02*
X99505Y56354D01*
X87811Y60252D02*
X87811Y68047D01*
X87811Y60252D02*
X93658Y60252D01*
X91709Y64149D01*
X91709Y66098D01*
X93658Y68047D01*
X97556Y68047D01*
X99505Y66098D01*
X99505Y62200D01*
X97556Y60252D01*
D10*
X196198Y86450D02*
X196198Y91350D01*
X200678Y91350D02*
X200678Y86450D01*
D13*
X198486Y84860D03*
X198486Y92988D03*
D12*
X191580Y83058D02*
X179886Y83058D01*
X179886Y88905D01*
X181835Y90854D01*
X185733Y90854D01*
X187682Y88905D01*
X187682Y83058D01*
X187682Y86956D02*
X191580Y90854D01*
X191580Y100599D02*
X179886Y100599D01*
X185733Y94752D01*
X185733Y102548D01*
X191580Y106446D02*
X191580Y114242D01*
X191580Y106446D02*
X183784Y114242D01*
X181835Y114242D01*
X179886Y112293D01*
X179886Y108395D01*
X181835Y106446D01*
D10*
X238850Y66023D02*
X243750Y66023D01*
X243750Y70503D02*
X238850Y70503D01*
D11*
X245340Y68311D03*
X237212Y68311D03*
D12*
X220872Y59465D02*
X218923Y61414D01*
X215025Y61414D01*
X213076Y59465D01*
X213076Y51669D01*
X215025Y49721D01*
X218923Y49721D01*
X220872Y51669D01*
X224770Y57516D02*
X228668Y61414D01*
X228668Y49721D01*
X224770Y49721D02*
X232566Y49721D01*
X236464Y51669D02*
X236464Y59465D01*
X238413Y61414D01*
X242311Y61414D01*
X244260Y59465D01*
X244260Y51669D01*
X242311Y49721D01*
X238413Y49721D01*
X236464Y51669D01*
X244260Y59465D01*
M02*
