M48
;GenerationSoftware,Autodesk,EAGLE,9.6.2*%
;CreationDate,2021-12-06T16:32:44Z*%
FMAT,2
ICI,OFF
METRIC,TZ,000.000
T4C0.305
T3C1.016
T2C1.300
T1C3.300
%
G90
M71
T1
X41750Y54992
X3250Y54992
T2
X28500Y48492
X24000Y45992
X34500Y48492
X31500Y48492
X10500Y48492
X25500Y48492
X22500Y48492
X19500Y48492
X16500Y48492
X13500Y48492
X10500Y39993
X33000Y45992
X30000Y45992
X27000Y45992
X21000Y45992
X18000Y45992
X15000Y45992
X12000Y45992
X33000Y42493
X30000Y42493
X27000Y42493
X24000Y42493
X21000Y42493
X18000Y42493
X15000Y42493
X12000Y42493
X34500Y39993
X31500Y39993
X28500Y39993
X25500Y39993
X22500Y39993
X19500Y39993
X16500Y39993
X13500Y39993
T3
X21590Y11430
X37148Y1270
X37148Y3810
X39688Y1270
X39688Y3810
X42228Y1270
X42228Y3810
X19050Y24130
X21590Y24130
X19050Y21590
X21590Y21590
X19050Y19050
X21590Y19050
X19050Y16510
X21590Y16510
X19050Y13970
X21590Y13970
X19050Y11430
T4
X4128Y39846
X14129Y35560
X16510Y35243
X7302Y36989
X10478Y36989
X20003Y30797
X20003Y31432
X44132Y3492
X38735Y8255
X24765Y9049
X24765Y7937
X42386Y46355
X43021Y46355
X1905Y44450
X2540Y44450
X4445Y36989
X41275Y38100
X41910Y38100
X28099Y14605
X31671Y31591
X30718Y30639
X42228Y22701
X42228Y22066
X44132Y11112
X16669Y11271
X952Y23812
X952Y22701
X23812Y32226
X25717Y27305
X12224Y13176
X12224Y11747
X6191Y13335
X23495Y4763
X22860Y4763
X23495Y3492
X16351Y3810
X16986Y3810
X17621Y3810
X10319Y3175
X10954Y3175
X29369Y36513
X26194Y22066
X25082Y13811
X25082Y24447
X22860Y2857
X23495Y2857
X25559Y5715
X31274Y7461
X12382Y3175
X13017Y3175
X14446Y3175
X15081Y3175
X12382Y4763
X13017Y4763
X14446Y4763
X15081Y4763
X16192Y9049
X10954Y22542
X5239Y23177
X10954Y21749
X29845Y25241
X27622Y23495
X20161Y3175
X19526Y3810
X19526Y3175
X20161Y3810
X20796Y3810
X14764Y28416
X25082Y23336
X41116Y12541
X44132Y19368
X38576Y20638
X39688Y8255
X25082Y12700
X30956Y4445
X17621Y23336
X13652Y31274
X28099Y15557
X35084Y4445
X24765Y32226
X23177Y32861
X27781Y27464
X28575Y2857
X44132Y1111
X38735Y39688
X39370Y39688
X19526Y4445
X20161Y4445
X20796Y4445
X20796Y3175
X12224Y14129
X11589Y12382
X9208Y5874
X8096Y5874
X16192Y10001
X6985Y29369
X6985Y7144
X6667Y24924
X5239Y30639
X6191Y30639
X4921Y25876
X2223Y29210
X31115Y26194
X7144Y21273
X30321Y7779
X34131Y23336
X1111Y37783
X6509Y23177
X5556Y25082
X7779Y23812
X1746Y31909
X9843Y20955
X9208Y21590
X13017Y19685
X8414Y22066
X4921Y16669
X8890Y25717
X6985Y11747
X6985Y9843
X32861Y7620
X33655Y28575
X33655Y18891
X34131Y25400
X34290Y19526
X23019Y10160
X31115Y20479
X14129Y23019
X24289Y25559
X6985Y10795
X33655Y20161
X17304Y19685
X32385Y20479
X30480Y9684
X25082Y11112
X24924Y17463
X25241Y25400
X16828Y26352
X28257Y28416
X26352Y26194
X26829Y21114
X4286Y30639
X28892Y12700
X7144Y31909
X28257Y12065
X2540Y35719
X2540Y35084
X43815Y40323
X43815Y40958
X25717Y32226
X26670Y32226
X28892Y33496
X33020Y35084
X36195Y26194
X39688Y25241
X16034Y28892
X28575Y9684
X23019Y26352
X29527Y9684
X19844Y26511
X30797Y15557
X10319Y31909
X28892Y11430
X12700Y30956
X28416Y10636
X27781Y29369
X28892Y27464
X30004Y27464
X31432Y17463
X24447Y27305
X28892Y26035
X30797Y18098
X15081Y37624
X33814Y7620
X794Y41275
X36989Y17939
X33655Y17939
X11271Y15875
X20955Y7937
X10319Y15875
X7779Y26829
X2381Y4921
X1746Y4921
X1111Y4921
X1111Y5715
X1746Y5715
X2381Y5715
X17939Y33496
X27781Y30956
X38735Y42863
X39370Y42863
X41116Y24765
X33655Y13652
X33655Y14605
X41275Y41275
X41910Y41275
X6191Y14922
X27464Y22066
X34608Y16669
X25559Y4128
X26194Y4128
X26829Y4128
X35243Y16669
X10478Y9843
X11430Y9843
X9366Y30639
X14287Y19844
X16986Y17463
X5874Y1746
X5874Y952
X4921Y952
X3651Y29527
X4128Y39211
X13652Y29527
X952Y24924
X1905Y13176
X1905Y12065
X1905Y14287
X1905Y15399
X9525Y9843
X1746Y10636
X1111Y10636
X2381Y10636
X3810Y7461
X15399Y12382
X29686Y4445
X23495Y4128
X30718Y31591
X31671Y30639
X20003Y30162
X17304Y30162
X10478Y35719
X7302Y35719
X4445Y36354
X34131Y24289
X29051Y20479
X27622Y24765
X37465Y26829
X37465Y26194
X4445Y35719
X7302Y36354
X10478Y36354
X14129Y34925
X17304Y30797
X44132Y15240
X30956Y3016
X33496Y1429
X22860Y4128
X22860Y3492
X4921Y1746
X23812Y15875
X33020Y36671
X16510Y34608
X22860Y20638
X41116Y13494
X16986Y21749
X14764Y24130
X14764Y25241
X20955Y9049
M30