G75*
%MOIN*%
%OFA0B0*%
%FSLAX25Y25*%
%IPPOS*%
%LPD*%
%AMOC8*
5,1,8,0,0,1.08239X$1,22.5*
%
%ADD10C,0.00500*%
%ADD11C,0.00000*%
D10*
X0047035Y0052602D02*
X0047035Y0280948D01*
X0224200Y0280948D01*
X0224200Y0052602D01*
X0047035Y0052602D01*
D11*
X0053334Y0269108D02*
X0053336Y0269269D01*
X0053342Y0269429D01*
X0053352Y0269590D01*
X0053366Y0269750D01*
X0053384Y0269909D01*
X0053405Y0270069D01*
X0053431Y0270227D01*
X0053461Y0270385D01*
X0053494Y0270542D01*
X0053532Y0270699D01*
X0053573Y0270854D01*
X0053618Y0271008D01*
X0053667Y0271161D01*
X0053720Y0271313D01*
X0053776Y0271463D01*
X0053836Y0271612D01*
X0053900Y0271760D01*
X0053967Y0271906D01*
X0054038Y0272050D01*
X0054113Y0272192D01*
X0054191Y0272333D01*
X0054272Y0272471D01*
X0054357Y0272608D01*
X0054446Y0272742D01*
X0054537Y0272874D01*
X0054632Y0273004D01*
X0054730Y0273131D01*
X0054831Y0273256D01*
X0054935Y0273379D01*
X0055042Y0273498D01*
X0055152Y0273615D01*
X0055265Y0273730D01*
X0055381Y0273841D01*
X0055499Y0273950D01*
X0055620Y0274055D01*
X0055744Y0274158D01*
X0055870Y0274258D01*
X0055999Y0274354D01*
X0056130Y0274447D01*
X0056263Y0274537D01*
X0056398Y0274624D01*
X0056536Y0274707D01*
X0056675Y0274786D01*
X0056817Y0274863D01*
X0056960Y0274936D01*
X0057105Y0275005D01*
X0057252Y0275070D01*
X0057400Y0275132D01*
X0057550Y0275191D01*
X0057701Y0275245D01*
X0057853Y0275296D01*
X0058007Y0275343D01*
X0058162Y0275386D01*
X0058317Y0275425D01*
X0058474Y0275461D01*
X0058632Y0275493D01*
X0058790Y0275520D01*
X0058949Y0275544D01*
X0059108Y0275564D01*
X0059268Y0275580D01*
X0059429Y0275592D01*
X0059589Y0275600D01*
X0059750Y0275604D01*
X0059910Y0275604D01*
X0060071Y0275600D01*
X0060231Y0275592D01*
X0060392Y0275580D01*
X0060552Y0275564D01*
X0060711Y0275544D01*
X0060870Y0275520D01*
X0061028Y0275493D01*
X0061186Y0275461D01*
X0061343Y0275425D01*
X0061498Y0275386D01*
X0061653Y0275343D01*
X0061807Y0275296D01*
X0061959Y0275245D01*
X0062110Y0275191D01*
X0062260Y0275132D01*
X0062408Y0275070D01*
X0062555Y0275005D01*
X0062700Y0274936D01*
X0062843Y0274863D01*
X0062985Y0274786D01*
X0063124Y0274707D01*
X0063262Y0274624D01*
X0063397Y0274537D01*
X0063530Y0274447D01*
X0063661Y0274354D01*
X0063790Y0274258D01*
X0063916Y0274158D01*
X0064040Y0274055D01*
X0064161Y0273950D01*
X0064279Y0273841D01*
X0064395Y0273730D01*
X0064508Y0273615D01*
X0064618Y0273498D01*
X0064725Y0273379D01*
X0064829Y0273256D01*
X0064930Y0273131D01*
X0065028Y0273004D01*
X0065123Y0272874D01*
X0065214Y0272742D01*
X0065303Y0272608D01*
X0065388Y0272471D01*
X0065469Y0272333D01*
X0065547Y0272192D01*
X0065622Y0272050D01*
X0065693Y0271906D01*
X0065760Y0271760D01*
X0065824Y0271612D01*
X0065884Y0271463D01*
X0065940Y0271313D01*
X0065993Y0271161D01*
X0066042Y0271008D01*
X0066087Y0270854D01*
X0066128Y0270699D01*
X0066166Y0270542D01*
X0066199Y0270385D01*
X0066229Y0270227D01*
X0066255Y0270069D01*
X0066276Y0269909D01*
X0066294Y0269750D01*
X0066308Y0269590D01*
X0066318Y0269429D01*
X0066324Y0269269D01*
X0066326Y0269108D01*
X0066324Y0268947D01*
X0066318Y0268787D01*
X0066308Y0268626D01*
X0066294Y0268466D01*
X0066276Y0268307D01*
X0066255Y0268147D01*
X0066229Y0267989D01*
X0066199Y0267831D01*
X0066166Y0267674D01*
X0066128Y0267517D01*
X0066087Y0267362D01*
X0066042Y0267208D01*
X0065993Y0267055D01*
X0065940Y0266903D01*
X0065884Y0266753D01*
X0065824Y0266604D01*
X0065760Y0266456D01*
X0065693Y0266310D01*
X0065622Y0266166D01*
X0065547Y0266024D01*
X0065469Y0265883D01*
X0065388Y0265745D01*
X0065303Y0265608D01*
X0065214Y0265474D01*
X0065123Y0265342D01*
X0065028Y0265212D01*
X0064930Y0265085D01*
X0064829Y0264960D01*
X0064725Y0264837D01*
X0064618Y0264718D01*
X0064508Y0264601D01*
X0064395Y0264486D01*
X0064279Y0264375D01*
X0064161Y0264266D01*
X0064040Y0264161D01*
X0063916Y0264058D01*
X0063790Y0263958D01*
X0063661Y0263862D01*
X0063530Y0263769D01*
X0063397Y0263679D01*
X0063262Y0263592D01*
X0063124Y0263509D01*
X0062985Y0263430D01*
X0062843Y0263353D01*
X0062700Y0263280D01*
X0062555Y0263211D01*
X0062408Y0263146D01*
X0062260Y0263084D01*
X0062110Y0263025D01*
X0061959Y0262971D01*
X0061807Y0262920D01*
X0061653Y0262873D01*
X0061498Y0262830D01*
X0061343Y0262791D01*
X0061186Y0262755D01*
X0061028Y0262723D01*
X0060870Y0262696D01*
X0060711Y0262672D01*
X0060552Y0262652D01*
X0060392Y0262636D01*
X0060231Y0262624D01*
X0060071Y0262616D01*
X0059910Y0262612D01*
X0059750Y0262612D01*
X0059589Y0262616D01*
X0059429Y0262624D01*
X0059268Y0262636D01*
X0059108Y0262652D01*
X0058949Y0262672D01*
X0058790Y0262696D01*
X0058632Y0262723D01*
X0058474Y0262755D01*
X0058317Y0262791D01*
X0058162Y0262830D01*
X0058007Y0262873D01*
X0057853Y0262920D01*
X0057701Y0262971D01*
X0057550Y0263025D01*
X0057400Y0263084D01*
X0057252Y0263146D01*
X0057105Y0263211D01*
X0056960Y0263280D01*
X0056817Y0263353D01*
X0056675Y0263430D01*
X0056536Y0263509D01*
X0056398Y0263592D01*
X0056263Y0263679D01*
X0056130Y0263769D01*
X0055999Y0263862D01*
X0055870Y0263958D01*
X0055744Y0264058D01*
X0055620Y0264161D01*
X0055499Y0264266D01*
X0055381Y0264375D01*
X0055265Y0264486D01*
X0055152Y0264601D01*
X0055042Y0264718D01*
X0054935Y0264837D01*
X0054831Y0264960D01*
X0054730Y0265085D01*
X0054632Y0265212D01*
X0054537Y0265342D01*
X0054446Y0265474D01*
X0054357Y0265608D01*
X0054272Y0265745D01*
X0054191Y0265883D01*
X0054113Y0266024D01*
X0054038Y0266166D01*
X0053967Y0266310D01*
X0053900Y0266456D01*
X0053836Y0266604D01*
X0053776Y0266753D01*
X0053720Y0266903D01*
X0053667Y0267055D01*
X0053618Y0267208D01*
X0053573Y0267362D01*
X0053532Y0267517D01*
X0053494Y0267674D01*
X0053461Y0267831D01*
X0053431Y0267989D01*
X0053405Y0268147D01*
X0053384Y0268307D01*
X0053366Y0268466D01*
X0053352Y0268626D01*
X0053342Y0268787D01*
X0053336Y0268947D01*
X0053334Y0269108D01*
X0204909Y0269108D02*
X0204911Y0269269D01*
X0204917Y0269429D01*
X0204927Y0269590D01*
X0204941Y0269750D01*
X0204959Y0269909D01*
X0204980Y0270069D01*
X0205006Y0270227D01*
X0205036Y0270385D01*
X0205069Y0270542D01*
X0205107Y0270699D01*
X0205148Y0270854D01*
X0205193Y0271008D01*
X0205242Y0271161D01*
X0205295Y0271313D01*
X0205351Y0271463D01*
X0205411Y0271612D01*
X0205475Y0271760D01*
X0205542Y0271906D01*
X0205613Y0272050D01*
X0205688Y0272192D01*
X0205766Y0272333D01*
X0205847Y0272471D01*
X0205932Y0272608D01*
X0206021Y0272742D01*
X0206112Y0272874D01*
X0206207Y0273004D01*
X0206305Y0273131D01*
X0206406Y0273256D01*
X0206510Y0273379D01*
X0206617Y0273498D01*
X0206727Y0273615D01*
X0206840Y0273730D01*
X0206956Y0273841D01*
X0207074Y0273950D01*
X0207195Y0274055D01*
X0207319Y0274158D01*
X0207445Y0274258D01*
X0207574Y0274354D01*
X0207705Y0274447D01*
X0207838Y0274537D01*
X0207973Y0274624D01*
X0208111Y0274707D01*
X0208250Y0274786D01*
X0208392Y0274863D01*
X0208535Y0274936D01*
X0208680Y0275005D01*
X0208827Y0275070D01*
X0208975Y0275132D01*
X0209125Y0275191D01*
X0209276Y0275245D01*
X0209428Y0275296D01*
X0209582Y0275343D01*
X0209737Y0275386D01*
X0209892Y0275425D01*
X0210049Y0275461D01*
X0210207Y0275493D01*
X0210365Y0275520D01*
X0210524Y0275544D01*
X0210683Y0275564D01*
X0210843Y0275580D01*
X0211004Y0275592D01*
X0211164Y0275600D01*
X0211325Y0275604D01*
X0211485Y0275604D01*
X0211646Y0275600D01*
X0211806Y0275592D01*
X0211967Y0275580D01*
X0212127Y0275564D01*
X0212286Y0275544D01*
X0212445Y0275520D01*
X0212603Y0275493D01*
X0212761Y0275461D01*
X0212918Y0275425D01*
X0213073Y0275386D01*
X0213228Y0275343D01*
X0213382Y0275296D01*
X0213534Y0275245D01*
X0213685Y0275191D01*
X0213835Y0275132D01*
X0213983Y0275070D01*
X0214130Y0275005D01*
X0214275Y0274936D01*
X0214418Y0274863D01*
X0214560Y0274786D01*
X0214699Y0274707D01*
X0214837Y0274624D01*
X0214972Y0274537D01*
X0215105Y0274447D01*
X0215236Y0274354D01*
X0215365Y0274258D01*
X0215491Y0274158D01*
X0215615Y0274055D01*
X0215736Y0273950D01*
X0215854Y0273841D01*
X0215970Y0273730D01*
X0216083Y0273615D01*
X0216193Y0273498D01*
X0216300Y0273379D01*
X0216404Y0273256D01*
X0216505Y0273131D01*
X0216603Y0273004D01*
X0216698Y0272874D01*
X0216789Y0272742D01*
X0216878Y0272608D01*
X0216963Y0272471D01*
X0217044Y0272333D01*
X0217122Y0272192D01*
X0217197Y0272050D01*
X0217268Y0271906D01*
X0217335Y0271760D01*
X0217399Y0271612D01*
X0217459Y0271463D01*
X0217515Y0271313D01*
X0217568Y0271161D01*
X0217617Y0271008D01*
X0217662Y0270854D01*
X0217703Y0270699D01*
X0217741Y0270542D01*
X0217774Y0270385D01*
X0217804Y0270227D01*
X0217830Y0270069D01*
X0217851Y0269909D01*
X0217869Y0269750D01*
X0217883Y0269590D01*
X0217893Y0269429D01*
X0217899Y0269269D01*
X0217901Y0269108D01*
X0217899Y0268947D01*
X0217893Y0268787D01*
X0217883Y0268626D01*
X0217869Y0268466D01*
X0217851Y0268307D01*
X0217830Y0268147D01*
X0217804Y0267989D01*
X0217774Y0267831D01*
X0217741Y0267674D01*
X0217703Y0267517D01*
X0217662Y0267362D01*
X0217617Y0267208D01*
X0217568Y0267055D01*
X0217515Y0266903D01*
X0217459Y0266753D01*
X0217399Y0266604D01*
X0217335Y0266456D01*
X0217268Y0266310D01*
X0217197Y0266166D01*
X0217122Y0266024D01*
X0217044Y0265883D01*
X0216963Y0265745D01*
X0216878Y0265608D01*
X0216789Y0265474D01*
X0216698Y0265342D01*
X0216603Y0265212D01*
X0216505Y0265085D01*
X0216404Y0264960D01*
X0216300Y0264837D01*
X0216193Y0264718D01*
X0216083Y0264601D01*
X0215970Y0264486D01*
X0215854Y0264375D01*
X0215736Y0264266D01*
X0215615Y0264161D01*
X0215491Y0264058D01*
X0215365Y0263958D01*
X0215236Y0263862D01*
X0215105Y0263769D01*
X0214972Y0263679D01*
X0214837Y0263592D01*
X0214699Y0263509D01*
X0214560Y0263430D01*
X0214418Y0263353D01*
X0214275Y0263280D01*
X0214130Y0263211D01*
X0213983Y0263146D01*
X0213835Y0263084D01*
X0213685Y0263025D01*
X0213534Y0262971D01*
X0213382Y0262920D01*
X0213228Y0262873D01*
X0213073Y0262830D01*
X0212918Y0262791D01*
X0212761Y0262755D01*
X0212603Y0262723D01*
X0212445Y0262696D01*
X0212286Y0262672D01*
X0212127Y0262652D01*
X0211967Y0262636D01*
X0211806Y0262624D01*
X0211646Y0262616D01*
X0211485Y0262612D01*
X0211325Y0262612D01*
X0211164Y0262616D01*
X0211004Y0262624D01*
X0210843Y0262636D01*
X0210683Y0262652D01*
X0210524Y0262672D01*
X0210365Y0262696D01*
X0210207Y0262723D01*
X0210049Y0262755D01*
X0209892Y0262791D01*
X0209737Y0262830D01*
X0209582Y0262873D01*
X0209428Y0262920D01*
X0209276Y0262971D01*
X0209125Y0263025D01*
X0208975Y0263084D01*
X0208827Y0263146D01*
X0208680Y0263211D01*
X0208535Y0263280D01*
X0208392Y0263353D01*
X0208250Y0263430D01*
X0208111Y0263509D01*
X0207973Y0263592D01*
X0207838Y0263679D01*
X0207705Y0263769D01*
X0207574Y0263862D01*
X0207445Y0263958D01*
X0207319Y0264058D01*
X0207195Y0264161D01*
X0207074Y0264266D01*
X0206956Y0264375D01*
X0206840Y0264486D01*
X0206727Y0264601D01*
X0206617Y0264718D01*
X0206510Y0264837D01*
X0206406Y0264960D01*
X0206305Y0265085D01*
X0206207Y0265212D01*
X0206112Y0265342D01*
X0206021Y0265474D01*
X0205932Y0265608D01*
X0205847Y0265745D01*
X0205766Y0265883D01*
X0205688Y0266024D01*
X0205613Y0266166D01*
X0205542Y0266310D01*
X0205475Y0266456D01*
X0205411Y0266604D01*
X0205351Y0266753D01*
X0205295Y0266903D01*
X0205242Y0267055D01*
X0205193Y0267208D01*
X0205148Y0267362D01*
X0205107Y0267517D01*
X0205069Y0267674D01*
X0205036Y0267831D01*
X0205006Y0267989D01*
X0204980Y0268147D01*
X0204959Y0268307D01*
X0204941Y0268466D01*
X0204927Y0268626D01*
X0204917Y0268787D01*
X0204911Y0268947D01*
X0204909Y0269108D01*
M02*
