%
M48
M72
T01C0.01200
T02C0.04000
T03C0.05118
T04C0.12992
%
T01
X65160Y56352
X67660Y56352
X70160Y56352
X70160Y59477
X67660Y59477
X65160Y59477
X58910Y70727
X55160Y70727
X51410Y70727
X52035Y88852
X51410Y93852
X53910Y101977
X63910Y95727
X63910Y90727
X66410Y101977
X72660Y101977
X75785Y95102
X75785Y89477
X81410Y85102
X77035Y81352
X75160Y76977
X80160Y75102
X80160Y71977
X83910Y71977
X83910Y75102
X88910Y85102
X92660Y84477
X96410Y85102
X88285Y94477
X88285Y98227
X88285Y101977
X92035Y98227
X84535Y98227
X98285Y109477
X99535Y113227
X100785Y116977
X104535Y116977
X94535Y115102
X87035Y121352
X84535Y123852
X81410Y125727
X76410Y122602
X73910Y130102
X68910Y130102
X70160Y137602
X67660Y140727
X74535Y136977
X78910Y132602
X83285Y140102
X78910Y144477
X75785Y154477
X72660Y159477
X68910Y159477
X65160Y159477
X62660Y155102
X57035Y153852
X55160Y164477
X58285Y176977
X58285Y179477
X65785Y179477
X65785Y181977
X65785Y184477
X64535Y193227
X64535Y195727
X51410Y201352
X55785Y213852
X58285Y213852
X52660Y187602
X77035Y184477
X77035Y181977
X77035Y179477
X89535Y179477
X89535Y181977
X89535Y184477
X103910Y178852
X103910Y176352
X113285Y177602
X113285Y175102
X118910Y170727
X116410Y160102
X116410Y157602
X111410Y152602
X106410Y150727
X102035Y155102
X98285Y160727
X102035Y161977
X88910Y164477
X85160Y159477
X76410Y164477
X52660Y133227
X91410Y127602
X91410Y124477
X103910Y129477
X106410Y133852
X106410Y138227
X114535Y142602
X117660Y130727
X115160Y124477
X113910Y111977
X117660Y110102
X115785Y106977
X117035Y91977
X113285Y81352
X110785Y81352
X110785Y78852
X113285Y78852
X113285Y76352
X110785Y76352
X107035Y78227
X95160Y57602
X92660Y57602
X128285Y56977
X128285Y59477
X130785Y59477
X130785Y56977
X139535Y58852
X147035Y73227
X140160Y77602
X147035Y82602
X147035Y94477
X142035Y98852
X146410Y107602
X158910Y100102
X159535Y96352
X162035Y88852
X159535Y86352
X162035Y83852
X160160Y80727
X160785Y76977
X164535Y76977
X168285Y76977
X167660Y69477
X171410Y68227
X177660Y68852
X181410Y68852
X187035Y68852
X191410Y69477
X188285Y74477
X200160Y71352
X203285Y69477
X207660Y72602
X217660Y63852
X208910Y56352
X205160Y56352
X182660Y56352
X177035Y56352
X162035Y56352
X155785Y57602
X169535Y100102
X172035Y108227
X168910Y110727
X170785Y119477
X175785Y119477
X180785Y118227
X183285Y115727
X180785Y113227
X188285Y103852
X204535Y96352
X204535Y92602
X210160Y91977
X210160Y88227
X210160Y84477
X222035Y83227
X222035Y98227
X222035Y121352
X204535Y138227
X195785Y141977
X195785Y144477
X190785Y141977
X182660Y138852
X182660Y134477
X182660Y130727
X170785Y138852
X165160Y138227
X162035Y140727
X165160Y145102
X157035Y145102
X156410Y150102
X152035Y153852
X148285Y150102
X145160Y152602
X142660Y150102
X139535Y142602
X143910Y138852
X147660Y138852
X152660Y137602
X153910Y140727
X156410Y136977
X149535Y130727
X156410Y125727
X157660Y121977
X162660Y119477
X138285Y120102
X126410Y143227
X127035Y157602
X127035Y160102
X127035Y162602
X138285Y162602
X138285Y160102
X138285Y157602
X143910Y158227
X156410Y161977
X162035Y170727
X168598Y163852
X173598Y163852
X173598Y158852
X168598Y158852
X180785Y151352
X177035Y174477
X177035Y185727
X192035Y201352
X193910Y202602
X190785Y207602
X188910Y206352
X195160Y195727
X197035Y196977
X203285Y197602
X203285Y195102
X203285Y192602
X203285Y190102
X209535Y190102
X212035Y190102
X215160Y221352
X217660Y221352
X215785Y156352
X200160Y120102
X158910Y186977
X107660Y186977
T02
X123285Y135102
X123285Y125102
X133285Y125102
X133285Y135102
X133285Y115102
X123285Y115102
X123285Y105102
X123285Y95102
X133285Y95102
X133285Y105102
X133285Y85102
X123285Y85102
T03
X125057Y196302
X130962Y206145
X136868Y196302
X142773Y206145
X148679Y196302
X154584Y206145
X160490Y196302
X166395Y206145
X172301Y196302
X178206Y206145
X184112Y196302
X178206Y219924
X172301Y229767
X166395Y219924
X160490Y229767
X154584Y219924
X148679Y229767
X142773Y219924
X136868Y229767
X130962Y219924
X125057Y229767
X119151Y219924
X113246Y229767
X107340Y219924
X101435Y229767
X95529Y219924
X89624Y229767
X95529Y206145
X89624Y196302
X101435Y196302
X107340Y206145
X113246Y196302
X119151Y206145
X184112Y229767
T04
X212655Y255358
X61080Y255358
M30
