G75*
%MOIN*%
%OFA0B0*%
%FSLAX25Y25*%
%IPPOS*%
%LPD*%
%AMOC8*
5,1,8,0,0,1.08239X$1,22.5*
%
%ADD10R,0.03937X0.13386*%
%ADD11R,0.26772X0.37795*%
%ADD12R,0.05906X0.05118*%
%ADD13R,0.02700X0.05300*%
%ADD14R,0.04600X0.06300*%
%ADD15R,0.01575X0.03937*%
D10*
X0188910Y0140367D03*
X0208910Y0140367D03*
D11*
X0198910Y0180131D03*
D12*
X0208910Y0163842D03*
X0208910Y0156362D03*
D13*
X0208078Y0117223D03*
X0203078Y0117223D03*
X0198078Y0117223D03*
X0193078Y0117223D03*
X0193078Y0078473D03*
X0198078Y0078473D03*
X0203078Y0078473D03*
X0208078Y0078473D03*
D14*
X0111160Y0181352D03*
X0105160Y0181352D03*
X0099160Y0181352D03*
G36*
X0186935Y0217226D02*
X0184635Y0221208D01*
X0190089Y0224358D01*
X0192389Y0220376D01*
X0186935Y0217226D01*
G37*
G36*
X0189935Y0212030D02*
X0187635Y0216012D01*
X0193089Y0219162D01*
X0195389Y0215180D01*
X0189935Y0212030D01*
G37*
G36*
X0192935Y0206834D02*
X0190635Y0210816D01*
X0196089Y0213966D01*
X0198389Y0209984D01*
X0192935Y0206834D01*
G37*
D15*
X0135783Y0164275D03*
X0138283Y0164275D03*
X0140783Y0164275D03*
X0143283Y0164275D03*
X0145787Y0164275D03*
X0148287Y0164275D03*
X0150787Y0164275D03*
X0153287Y0164275D03*
X0153287Y0185928D03*
X0150787Y0185928D03*
X0148287Y0185928D03*
X0145787Y0185928D03*
X0143283Y0185928D03*
X0140783Y0185928D03*
X0138283Y0185928D03*
X0135783Y0185928D03*
M02*
