G75*
%MOIN*%
%OFA0B0*%
%FSLAX25Y25*%
%IPPOS*%
%LPD*%
%AMOC8*
5,1,8,0,0,1.08239X$1,22.5*
%
%ADD10C,0.00800*%
%ADD11C,0.00400*%
%ADD12C,0.00500*%
%ADD13R,0.03400X0.03000*%
%ADD14R,0.03544X0.11023*%
%ADD15R,0.03543X0.11024*%
%ADD16C,0.00600*%
%ADD17R,0.05512X0.02559*%
%ADD18C,0.00000*%
%ADD19R,0.04000X0.06000*%
%ADD20C,0.01575*%
%ADD21R,0.01181X0.04331*%
D10*
X0135086Y0167661D02*
X0153905Y0167661D01*
X0153984Y0167661D02*
X0153984Y0182543D01*
X0153905Y0182543D02*
X0135086Y0182543D01*
X0135086Y0167661D01*
X0179552Y0159112D02*
X0218268Y0159112D01*
X0218268Y0194560D01*
X0179552Y0194560D01*
X0179552Y0159112D01*
X0188810Y0194962D02*
X0209010Y0194962D01*
X0209010Y0196581D01*
X0207210Y0198381D01*
X0190610Y0198381D01*
X0188810Y0196581D01*
X0188810Y0194962D01*
X0188812Y0194962D02*
X0209009Y0194962D01*
X0209009Y0196580D01*
X0207209Y0198379D01*
X0190611Y0198379D01*
X0188812Y0196580D01*
X0188812Y0194962D01*
X0188810Y0195535D02*
X0209010Y0195535D01*
X0209010Y0196334D02*
X0188810Y0196334D01*
X0189362Y0197132D02*
X0208459Y0197132D01*
X0207660Y0197931D02*
X0190160Y0197931D01*
X0189382Y0265502D02*
X0193986Y0265502D01*
X0193986Y0274710D01*
X0189382Y0274710D01*
X0187848Y0273175D01*
X0187848Y0271640D01*
X0189382Y0270106D01*
X0193986Y0270106D01*
X0189382Y0270106D02*
X0187848Y0268571D01*
X0187848Y0267036D01*
X0189382Y0265502D01*
X0184778Y0265502D02*
X0181709Y0265502D01*
X0183244Y0265502D02*
X0183244Y0274710D01*
X0184778Y0274710D01*
X0178640Y0271640D02*
X0177105Y0271640D01*
X0177105Y0265502D01*
X0175571Y0265502D02*
X0178640Y0265502D01*
X0170967Y0267036D02*
X0170967Y0273175D01*
X0172501Y0271640D02*
X0169432Y0271640D01*
X0166363Y0271640D02*
X0160224Y0271640D01*
X0166363Y0265502D01*
X0160224Y0265502D01*
X0157155Y0265502D02*
X0152551Y0265502D01*
X0151016Y0267036D01*
X0151016Y0270106D01*
X0152551Y0271640D01*
X0157155Y0271640D01*
X0157155Y0274710D02*
X0157155Y0265502D01*
X0147947Y0267036D02*
X0146412Y0265502D01*
X0143343Y0265502D01*
X0141808Y0267036D01*
X0141808Y0270106D01*
X0143343Y0271640D01*
X0146412Y0271640D01*
X0147947Y0270106D01*
X0147947Y0267036D01*
X0138739Y0265502D02*
X0132601Y0271640D01*
X0129531Y0270106D02*
X0124927Y0270106D01*
X0123393Y0268571D01*
X0123393Y0267036D01*
X0124927Y0265502D01*
X0129531Y0265502D01*
X0129531Y0274710D01*
X0124927Y0274710D01*
X0123393Y0273175D01*
X0123393Y0271640D01*
X0124927Y0270106D01*
X0120323Y0274710D02*
X0120323Y0265502D01*
X0114185Y0265502D01*
X0111116Y0270106D02*
X0104977Y0270106D01*
X0101908Y0271640D02*
X0100373Y0270106D01*
X0095769Y0270106D01*
X0095769Y0273175D02*
X0095769Y0267036D01*
X0097304Y0265502D01*
X0100373Y0265502D01*
X0101908Y0267036D01*
X0106512Y0265502D02*
X0106512Y0274710D01*
X0111116Y0270106D01*
X0101908Y0271640D02*
X0101908Y0273175D01*
X0100373Y0274710D01*
X0097304Y0274710D01*
X0095769Y0273175D01*
X0092700Y0270106D02*
X0091165Y0271640D01*
X0086561Y0271640D01*
X0083492Y0271640D02*
X0078888Y0271640D01*
X0077353Y0270106D01*
X0077353Y0267036D01*
X0078888Y0265502D01*
X0083492Y0265502D01*
X0083492Y0262432D02*
X0083492Y0271640D01*
X0086561Y0267036D02*
X0088096Y0268571D01*
X0091165Y0268571D01*
X0092700Y0270106D01*
X0092700Y0265502D02*
X0088096Y0265502D01*
X0086561Y0267036D01*
X0132601Y0265502D02*
X0138739Y0271640D01*
X0169432Y0265502D02*
X0170967Y0267036D01*
X0177105Y0274710D02*
X0177105Y0276244D01*
D11*
X0176538Y0258205D02*
X0173986Y0258205D01*
X0173135Y0257354D01*
X0173135Y0255652D01*
X0173986Y0254802D01*
X0176538Y0254802D01*
X0176538Y0253100D02*
X0176538Y0258205D01*
X0178199Y0258205D02*
X0180751Y0258205D01*
X0181602Y0257354D01*
X0180751Y0256503D01*
X0179050Y0256503D01*
X0178199Y0255652D01*
X0179050Y0254802D01*
X0181602Y0254802D01*
X0171474Y0255652D02*
X0171474Y0257354D01*
X0170623Y0258205D01*
X0168921Y0258205D01*
X0168071Y0257354D01*
X0168071Y0256503D01*
X0171474Y0256503D01*
X0171474Y0255652D02*
X0170623Y0254802D01*
X0168921Y0254802D01*
X0166409Y0255652D02*
X0166409Y0257354D01*
X0165559Y0258205D01*
X0163857Y0258205D01*
X0163006Y0257354D01*
X0163006Y0256503D01*
X0166409Y0256503D01*
X0166409Y0255652D02*
X0165559Y0254802D01*
X0163857Y0254802D01*
X0161345Y0255652D02*
X0161345Y0257354D01*
X0160494Y0258205D01*
X0157942Y0258205D01*
X0156281Y0258205D02*
X0156281Y0255652D01*
X0155430Y0254802D01*
X0152878Y0254802D01*
X0152878Y0258205D01*
X0151216Y0258205D02*
X0150366Y0258205D01*
X0150366Y0254802D01*
X0151216Y0254802D02*
X0149515Y0254802D01*
X0147840Y0254802D02*
X0147840Y0258205D01*
X0145288Y0258205D01*
X0144437Y0257354D01*
X0144437Y0254802D01*
X0142776Y0255652D02*
X0142776Y0257354D01*
X0141925Y0258205D01*
X0140224Y0258205D01*
X0139373Y0257354D01*
X0139373Y0255652D01*
X0140224Y0254802D01*
X0141925Y0254802D01*
X0142776Y0255652D01*
X0142354Y0260302D02*
X0142354Y0263705D01*
X0140652Y0263705D02*
X0139801Y0263705D01*
X0140652Y0263705D02*
X0142354Y0262003D01*
X0144015Y0261152D02*
X0144866Y0260302D01*
X0147418Y0260302D01*
X0149093Y0260302D02*
X0150794Y0260302D01*
X0150366Y0259906D02*
X0150366Y0260757D01*
X0149943Y0260302D02*
X0149943Y0265406D01*
X0150794Y0265406D01*
X0153306Y0263705D02*
X0152456Y0262854D01*
X0152456Y0262003D01*
X0155859Y0262003D01*
X0155859Y0261152D02*
X0155859Y0262854D01*
X0155008Y0263705D01*
X0153306Y0263705D01*
X0153306Y0260302D02*
X0155008Y0260302D01*
X0155859Y0261152D01*
X0157520Y0261152D02*
X0157520Y0262854D01*
X0158371Y0263705D01*
X0160072Y0263705D01*
X0160923Y0262854D01*
X0160923Y0261152D01*
X0160072Y0260302D01*
X0158371Y0260302D01*
X0157520Y0261152D01*
X0157942Y0259906D02*
X0157942Y0254802D01*
X0160494Y0254802D01*
X0161345Y0255652D01*
X0147418Y0258600D02*
X0147418Y0263705D01*
X0144866Y0263705D01*
X0144015Y0262854D01*
X0144015Y0261152D01*
X0138133Y0260302D02*
X0136432Y0260302D01*
X0137283Y0260302D02*
X0137283Y0263705D01*
X0138133Y0263705D01*
X0137283Y0265406D02*
X0137283Y0266257D01*
X0134757Y0263705D02*
X0132205Y0263705D01*
X0131354Y0262854D01*
X0131354Y0260302D01*
X0129693Y0260302D02*
X0126290Y0260302D01*
X0124629Y0260302D02*
X0123778Y0260302D01*
X0123778Y0261152D01*
X0124629Y0261152D01*
X0124629Y0260302D01*
X0125031Y0258205D02*
X0126732Y0258205D01*
X0127583Y0257354D01*
X0127583Y0255652D01*
X0126732Y0254802D01*
X0125031Y0254802D01*
X0124180Y0255652D01*
X0124180Y0257354D01*
X0125031Y0258205D01*
X0122518Y0258205D02*
X0122518Y0254802D01*
X0120817Y0254802D02*
X0120817Y0257354D01*
X0119966Y0258205D01*
X0119116Y0257354D01*
X0119116Y0254802D01*
X0117454Y0254802D02*
X0114902Y0254802D01*
X0114051Y0255652D01*
X0114051Y0257354D01*
X0114902Y0258205D01*
X0117454Y0258205D01*
X0117454Y0253100D01*
X0120817Y0257354D02*
X0121668Y0258205D01*
X0122518Y0258205D01*
X0121246Y0260302D02*
X0119544Y0260302D01*
X0118693Y0261152D01*
X0118693Y0262854D01*
X0119544Y0263705D01*
X0121246Y0263705D01*
X0122096Y0262854D01*
X0122096Y0261152D01*
X0121246Y0260302D01*
X0117032Y0260302D02*
X0117032Y0263705D01*
X0115331Y0263705D02*
X0117032Y0262003D01*
X0115331Y0263705D02*
X0114480Y0263705D01*
X0112812Y0262854D02*
X0112812Y0261152D01*
X0111961Y0260302D01*
X0109409Y0260302D01*
X0109409Y0259451D02*
X0109409Y0263705D01*
X0111961Y0263705D01*
X0112812Y0262854D01*
X0111110Y0258600D02*
X0110260Y0258600D01*
X0109409Y0259451D01*
X0109838Y0258205D02*
X0108987Y0257354D01*
X0108987Y0254802D01*
X0111539Y0254802D01*
X0112390Y0255652D01*
X0111539Y0256503D01*
X0108987Y0256503D01*
X0109838Y0258205D02*
X0111539Y0258205D01*
X0107325Y0258205D02*
X0105624Y0258205D01*
X0106475Y0259055D02*
X0106475Y0255652D01*
X0105624Y0254802D01*
X0103949Y0254802D02*
X0102248Y0254802D01*
X0103099Y0254802D02*
X0103099Y0258205D01*
X0103949Y0258205D01*
X0103099Y0259906D02*
X0103099Y0260757D01*
X0100573Y0259906D02*
X0100573Y0254802D01*
X0098021Y0254802D01*
X0097170Y0255652D01*
X0097170Y0257354D01*
X0098021Y0258205D01*
X0100573Y0258205D01*
X0095509Y0259906D02*
X0094658Y0259906D01*
X0094658Y0254802D01*
X0095509Y0254802D02*
X0093807Y0254802D01*
X0092133Y0255652D02*
X0092133Y0257354D01*
X0091282Y0258205D01*
X0089580Y0258205D01*
X0088730Y0257354D01*
X0088730Y0256503D01*
X0092133Y0256503D01*
X0092133Y0255652D02*
X0091282Y0254802D01*
X0089580Y0254802D01*
X0126290Y0263705D02*
X0129693Y0260302D01*
X0129244Y0258205D02*
X0131796Y0258205D01*
X0132647Y0257354D01*
X0132647Y0255652D01*
X0131796Y0254802D01*
X0129244Y0254802D01*
X0134757Y0260302D02*
X0134757Y0263705D01*
X0129693Y0263705D02*
X0126290Y0263705D01*
X0192664Y0225889D02*
X0194199Y0223231D01*
X0196295Y0222669D01*
X0196857Y0224766D01*
X0195322Y0227424D01*
X0196651Y0228191D02*
X0199309Y0229726D01*
X0200460Y0227732D01*
X0198748Y0227629D01*
X0198083Y0227246D01*
X0197802Y0226198D01*
X0198569Y0224869D01*
X0199618Y0224588D01*
X0200947Y0225355D01*
X0201228Y0226403D01*
X0201789Y0228500D02*
X0204447Y0230034D01*
X0203886Y0227938D02*
X0202351Y0230596D01*
X0205092Y0225635D02*
X0203763Y0224868D01*
X0204428Y0225252D02*
X0206730Y0221265D01*
X0207394Y0221648D02*
X0206065Y0220881D01*
X0204353Y0220778D02*
X0204072Y0219730D01*
X0202743Y0218963D01*
X0201694Y0219244D01*
X0200927Y0220573D01*
X0202256Y0221340D01*
X0200160Y0221902D02*
X0200441Y0222950D01*
X0201770Y0223717D01*
X0202818Y0223436D01*
X0204353Y0220778D01*
X0204895Y0218092D02*
X0205943Y0217811D01*
X0204895Y0218092D02*
X0203566Y0217325D01*
X0203285Y0216277D01*
X0203669Y0215612D01*
X0207861Y0214489D01*
X0205203Y0212954D01*
X0203107Y0213516D02*
X0202545Y0211419D01*
X0200449Y0211981D01*
X0198914Y0214639D01*
X0198091Y0216277D02*
X0195789Y0220264D01*
X0198447Y0221799D02*
X0198091Y0216277D01*
X0200749Y0217812D02*
X0198447Y0221799D01*
X0201572Y0216174D02*
X0203107Y0213516D01*
X0210519Y0216023D02*
X0208217Y0220010D01*
X0210314Y0219449D01*
X0212026Y0219552D02*
X0214684Y0221086D01*
X0214123Y0218990D02*
X0212588Y0221648D01*
X0211848Y0216791D02*
X0209190Y0215256D01*
X0214877Y0170079D02*
X0214110Y0169311D01*
X0214110Y0167777D01*
X0214877Y0167010D01*
X0217947Y0170079D01*
X0214877Y0170079D01*
X0214877Y0167010D02*
X0217947Y0167010D01*
X0218714Y0167777D01*
X0218714Y0169311D01*
X0217947Y0170079D01*
X0214110Y0165475D02*
X0214110Y0162406D01*
X0214110Y0163940D02*
X0218714Y0163940D01*
X0217179Y0162406D01*
X0216412Y0160871D02*
X0215645Y0160104D01*
X0215645Y0157802D01*
X0215645Y0159336D02*
X0214110Y0160871D01*
X0216412Y0160871D02*
X0217947Y0160871D01*
X0218714Y0160104D01*
X0218714Y0157802D01*
X0214110Y0157802D01*
X0216412Y0147294D02*
X0216412Y0144225D01*
X0218714Y0146527D01*
X0214110Y0146527D01*
X0214877Y0142690D02*
X0214110Y0141923D01*
X0214110Y0140388D01*
X0214877Y0139621D01*
X0217947Y0139621D01*
X0218714Y0140388D01*
X0218714Y0141923D01*
X0217947Y0142690D01*
X0218714Y0138086D02*
X0218714Y0136552D01*
X0218714Y0137319D02*
X0214110Y0137319D01*
X0214110Y0136552D02*
X0214110Y0138086D01*
X0196214Y0122919D02*
X0194679Y0121385D01*
X0191610Y0121385D01*
X0192377Y0119850D02*
X0195447Y0119850D01*
X0196214Y0119083D01*
X0196214Y0116781D01*
X0191610Y0116781D01*
X0191610Y0119083D01*
X0192377Y0119850D01*
X0193912Y0121385D02*
X0193912Y0124454D01*
X0194679Y0124454D02*
X0191610Y0124454D01*
X0194679Y0124454D02*
X0196214Y0122919D01*
X0195447Y0115246D02*
X0196214Y0114479D01*
X0196214Y0112944D01*
X0195447Y0112177D01*
X0194679Y0112177D01*
X0193912Y0112944D01*
X0193912Y0114479D01*
X0193145Y0115246D01*
X0192377Y0115246D01*
X0191610Y0114479D01*
X0191610Y0112944D01*
X0192377Y0112177D01*
X0186214Y0112944D02*
X0185447Y0112177D01*
X0184679Y0112177D01*
X0183912Y0112944D01*
X0183912Y0114479D01*
X0183145Y0115246D01*
X0182377Y0115246D01*
X0181610Y0114479D01*
X0181610Y0112944D01*
X0182377Y0112177D01*
X0186214Y0112944D02*
X0186214Y0114479D01*
X0185447Y0115246D01*
X0185447Y0116781D02*
X0182377Y0116781D01*
X0181610Y0117548D01*
X0181610Y0119083D01*
X0182377Y0119850D01*
X0181610Y0121385D02*
X0181610Y0124454D01*
X0181610Y0121385D02*
X0186214Y0121385D01*
X0185447Y0119850D02*
X0186214Y0119083D01*
X0186214Y0117548D01*
X0185447Y0116781D01*
X0168778Y0109906D02*
X0168778Y0105302D01*
X0165709Y0105302D02*
X0165709Y0109906D01*
X0167243Y0108371D01*
X0168778Y0109906D01*
X0164174Y0109138D02*
X0164174Y0106069D01*
X0163407Y0105302D01*
X0161872Y0105302D01*
X0161105Y0106069D01*
X0161105Y0109138D01*
X0161872Y0109906D01*
X0163407Y0109906D01*
X0164174Y0109138D01*
X0159570Y0109138D02*
X0159570Y0108371D01*
X0158803Y0107604D01*
X0157268Y0107604D01*
X0156501Y0106836D01*
X0156501Y0106069D01*
X0157268Y0105302D01*
X0158803Y0105302D01*
X0159570Y0106069D01*
X0159570Y0109138D02*
X0158803Y0109906D01*
X0157268Y0109906D01*
X0156501Y0109138D01*
X0154966Y0109906D02*
X0153432Y0109906D01*
X0154199Y0109906D02*
X0154199Y0105302D01*
X0154966Y0105302D02*
X0153432Y0105302D01*
X0151897Y0104534D02*
X0148828Y0104534D01*
X0147293Y0105302D02*
X0147293Y0109906D01*
X0144991Y0109906D01*
X0144224Y0109138D01*
X0144224Y0107604D01*
X0144991Y0106836D01*
X0147293Y0106836D01*
X0142689Y0106836D02*
X0140387Y0106836D01*
X0139620Y0107604D01*
X0139620Y0109138D01*
X0140387Y0109906D01*
X0142689Y0109906D01*
X0142689Y0105302D01*
X0141154Y0106836D02*
X0139620Y0105302D01*
X0140387Y0099906D02*
X0139620Y0099138D01*
X0139620Y0098371D01*
X0140387Y0097604D01*
X0139620Y0096836D01*
X0139620Y0096069D01*
X0140387Y0095302D01*
X0141922Y0095302D01*
X0142689Y0096069D01*
X0144224Y0096069D02*
X0144224Y0099138D01*
X0144991Y0099906D01*
X0147293Y0099906D01*
X0147293Y0095302D01*
X0144991Y0095302D01*
X0144224Y0096069D01*
X0141154Y0097604D02*
X0140387Y0097604D01*
X0140387Y0099906D02*
X0141922Y0099906D01*
X0142689Y0099138D01*
X0148828Y0099906D02*
X0151897Y0095302D01*
X0153432Y0095302D02*
X0154966Y0096836D01*
X0154199Y0096836D02*
X0156501Y0096836D01*
X0156501Y0095302D02*
X0156501Y0099906D01*
X0154199Y0099906D01*
X0153432Y0099138D01*
X0153432Y0097604D01*
X0154199Y0096836D01*
X0151897Y0099906D02*
X0148828Y0095302D01*
X0147293Y0089906D02*
X0144991Y0089906D01*
X0144224Y0089138D01*
X0144224Y0088371D01*
X0144991Y0087604D01*
X0147293Y0087604D01*
X0147293Y0085302D02*
X0147293Y0089906D01*
X0144991Y0087604D02*
X0144224Y0086836D01*
X0144224Y0086069D01*
X0144991Y0085302D01*
X0147293Y0085302D01*
X0148828Y0084534D02*
X0151897Y0084534D01*
X0153432Y0086069D02*
X0153432Y0089138D01*
X0154199Y0089906D01*
X0156501Y0089906D01*
X0156501Y0085302D01*
X0154199Y0085302D01*
X0153432Y0086069D01*
X0158036Y0085302D02*
X0161105Y0089906D01*
X0162639Y0089906D02*
X0165709Y0089906D01*
X0164174Y0089906D02*
X0164174Y0085302D01*
X0161105Y0085302D02*
X0158036Y0089906D01*
X0142689Y0089906D02*
X0142689Y0085302D01*
X0139620Y0085302D01*
X0115585Y0085302D02*
X0115585Y0089906D01*
X0113283Y0089906D01*
X0112516Y0089138D01*
X0112516Y0087604D01*
X0113283Y0086836D01*
X0115585Y0086836D01*
X0114050Y0086836D02*
X0112516Y0085302D01*
X0110981Y0085302D02*
X0107912Y0089906D01*
X0106377Y0089906D02*
X0106377Y0085302D01*
X0104075Y0085302D01*
X0103308Y0086069D01*
X0103308Y0089138D01*
X0104075Y0089906D01*
X0106377Y0089906D01*
X0110981Y0089906D02*
X0107912Y0085302D01*
X0101773Y0084534D02*
X0098704Y0084534D01*
X0097169Y0085302D02*
X0094867Y0085302D01*
X0094100Y0086069D01*
X0094100Y0086836D01*
X0094867Y0087604D01*
X0097169Y0087604D01*
X0094867Y0087604D02*
X0094100Y0088371D01*
X0094100Y0089138D01*
X0094867Y0089906D01*
X0097169Y0089906D01*
X0097169Y0085302D01*
X0092566Y0085302D02*
X0089496Y0085302D01*
X0092566Y0085302D02*
X0092566Y0089906D01*
X0098704Y0096069D02*
X0099471Y0095302D01*
X0101006Y0095302D01*
X0101773Y0096069D01*
X0103308Y0096069D02*
X0103308Y0099138D01*
X0104075Y0099906D01*
X0106377Y0099906D01*
X0106377Y0095302D01*
X0104075Y0095302D01*
X0103308Y0096069D01*
X0100239Y0097604D02*
X0099471Y0097604D01*
X0098704Y0096836D01*
X0098704Y0096069D01*
X0099471Y0097604D02*
X0098704Y0098371D01*
X0098704Y0099138D01*
X0099471Y0099906D01*
X0101006Y0099906D01*
X0101773Y0099138D01*
X0104843Y0105302D02*
X0104843Y0109906D01*
X0106377Y0109906D02*
X0103308Y0109906D01*
X0101973Y0110702D02*
X0115785Y0110702D01*
X0115585Y0109906D02*
X0113283Y0109906D01*
X0112516Y0109138D01*
X0112516Y0107604D01*
X0113283Y0106836D01*
X0115585Y0106836D01*
X0115585Y0105302D02*
X0115585Y0109906D01*
X0114050Y0106836D02*
X0112516Y0105302D01*
X0110981Y0106069D02*
X0110214Y0105302D01*
X0108679Y0105302D01*
X0107912Y0106069D01*
X0107912Y0106836D01*
X0108679Y0107604D01*
X0110214Y0107604D01*
X0110981Y0108371D01*
X0110981Y0109138D01*
X0110214Y0109906D01*
X0108679Y0109906D01*
X0107912Y0109138D01*
X0107145Y0115302D02*
X0105610Y0115302D01*
X0104843Y0116069D01*
X0104843Y0116836D01*
X0105610Y0117604D01*
X0107145Y0117604D01*
X0107912Y0118371D01*
X0107912Y0119138D01*
X0107145Y0119906D01*
X0105610Y0119906D01*
X0104843Y0119138D01*
X0103308Y0119138D02*
X0103308Y0116069D01*
X0102541Y0115302D01*
X0101006Y0115302D01*
X0100239Y0116069D01*
X0100239Y0119138D01*
X0101006Y0119906D01*
X0102541Y0119906D01*
X0103308Y0119138D01*
X0107145Y0115302D02*
X0107912Y0116069D01*
X0109447Y0115302D02*
X0110981Y0115302D01*
X0110214Y0115302D02*
X0110214Y0119906D01*
X0110981Y0119906D02*
X0109447Y0119906D01*
X0112516Y0119906D02*
X0112516Y0115302D01*
X0115585Y0115302D02*
X0115585Y0119906D01*
X0114050Y0118371D01*
X0112516Y0119906D01*
X0112516Y0125302D02*
X0112516Y0129906D01*
X0114050Y0128371D01*
X0115585Y0129906D01*
X0115585Y0125302D01*
X0110981Y0125302D02*
X0109447Y0125302D01*
X0110214Y0125302D02*
X0110214Y0129906D01*
X0110981Y0129906D02*
X0109447Y0129906D01*
X0107912Y0129138D02*
X0107912Y0128371D01*
X0107145Y0127604D01*
X0105610Y0127604D01*
X0104843Y0126836D01*
X0104843Y0126069D01*
X0105610Y0125302D01*
X0107145Y0125302D01*
X0107912Y0126069D01*
X0107912Y0129138D02*
X0107145Y0129906D01*
X0105610Y0129906D01*
X0104843Y0129138D01*
X0103308Y0129138D02*
X0103308Y0126069D01*
X0102541Y0125302D01*
X0101006Y0125302D01*
X0100239Y0126069D01*
X0100239Y0129138D01*
X0101006Y0129906D01*
X0102541Y0129906D01*
X0103308Y0129138D01*
X0101773Y0134534D02*
X0098704Y0134534D01*
X0097169Y0135302D02*
X0094867Y0135302D01*
X0094100Y0136069D01*
X0094100Y0136836D01*
X0094867Y0137604D01*
X0097169Y0137604D01*
X0094867Y0137604D02*
X0094100Y0138371D01*
X0094100Y0139138D01*
X0094867Y0139906D01*
X0097169Y0139906D01*
X0097169Y0135302D01*
X0092566Y0135302D02*
X0092566Y0139906D01*
X0092566Y0135302D02*
X0089496Y0135302D01*
X0089496Y0129906D02*
X0089496Y0125302D01*
X0086427Y0125302D01*
X0091031Y0126069D02*
X0091798Y0125302D01*
X0094100Y0125302D01*
X0094100Y0129906D01*
X0091798Y0129906D01*
X0091031Y0129138D01*
X0091031Y0128371D01*
X0091798Y0127604D01*
X0094100Y0127604D01*
X0091798Y0127604D02*
X0091031Y0126836D01*
X0091031Y0126069D01*
X0095635Y0124534D02*
X0098704Y0124534D01*
X0094100Y0119906D02*
X0091798Y0119906D01*
X0091031Y0119138D01*
X0091031Y0118371D01*
X0091798Y0117604D01*
X0094100Y0117604D01*
X0094100Y0115302D02*
X0094100Y0119906D01*
X0091798Y0117604D02*
X0091031Y0116836D01*
X0091031Y0116069D01*
X0091798Y0115302D01*
X0094100Y0115302D01*
X0095635Y0114534D02*
X0098704Y0114534D01*
X0089496Y0115302D02*
X0086427Y0115302D01*
X0089496Y0115302D02*
X0089496Y0119906D01*
X0103308Y0135302D02*
X0105610Y0137604D01*
X0106377Y0136836D02*
X0103308Y0139906D01*
X0106377Y0139906D02*
X0106377Y0135302D01*
X0107912Y0136069D02*
X0108679Y0135302D01*
X0110214Y0135302D01*
X0110981Y0136069D01*
X0110981Y0139138D01*
X0110214Y0139906D01*
X0108679Y0139906D01*
X0107912Y0139138D01*
X0112516Y0139138D02*
X0113283Y0139906D01*
X0114818Y0139906D01*
X0115585Y0139138D01*
X0115585Y0138371D01*
X0114818Y0137604D01*
X0113283Y0137604D01*
X0112516Y0136836D01*
X0112516Y0136069D01*
X0113283Y0135302D01*
X0114818Y0135302D01*
X0115585Y0136069D01*
X0114050Y0146069D02*
X0114050Y0149138D01*
X0112516Y0147604D02*
X0115585Y0147604D01*
X0110981Y0147604D02*
X0109447Y0148371D01*
X0108679Y0148371D01*
X0107912Y0147604D01*
X0107912Y0146069D01*
X0108679Y0145302D01*
X0110214Y0145302D01*
X0110981Y0146069D01*
X0110981Y0147604D02*
X0110981Y0149906D01*
X0107912Y0149906D01*
X0106377Y0149906D02*
X0106377Y0146836D01*
X0104843Y0145302D01*
X0103308Y0146836D01*
X0103308Y0149906D01*
X0107464Y0158136D02*
X0107464Y0161205D01*
X0107464Y0159671D02*
X0102860Y0159671D01*
X0102860Y0162740D02*
X0105929Y0162740D01*
X0107464Y0164274D01*
X0105929Y0165809D01*
X0102860Y0165809D01*
X0103627Y0167344D02*
X0102860Y0168111D01*
X0102860Y0169646D01*
X0103627Y0170413D01*
X0102860Y0171948D02*
X0107464Y0171948D01*
X0106697Y0170413D02*
X0107464Y0169646D01*
X0107464Y0168111D01*
X0106697Y0167344D01*
X0103627Y0167344D01*
X0105162Y0165809D02*
X0105162Y0162740D01*
X0109735Y0162740D02*
X0109735Y0165809D01*
X0109735Y0164274D02*
X0114339Y0164274D01*
X0112804Y0162740D01*
X0112037Y0161205D02*
X0112037Y0158136D01*
X0113572Y0159671D02*
X0110502Y0159671D01*
X0109735Y0167344D02*
X0112804Y0170413D01*
X0113572Y0170413D01*
X0114339Y0169646D01*
X0114339Y0168111D01*
X0113572Y0167344D01*
X0109735Y0167344D02*
X0109735Y0170413D01*
X0111270Y0171948D02*
X0109735Y0173482D01*
X0111270Y0175017D01*
X0114339Y0175017D01*
X0114339Y0171948D02*
X0111270Y0171948D01*
X0107464Y0175017D02*
X0102860Y0175017D01*
X0100589Y0175017D02*
X0097520Y0175017D01*
X0095985Y0173482D01*
X0097520Y0171948D01*
X0100589Y0171948D01*
X0100589Y0170413D02*
X0100589Y0167344D01*
X0098287Y0167344D01*
X0099054Y0168878D01*
X0099054Y0169646D01*
X0098287Y0170413D01*
X0096752Y0170413D01*
X0095985Y0169646D01*
X0095985Y0168111D01*
X0096752Y0167344D01*
X0098287Y0165809D02*
X0098287Y0162740D01*
X0099822Y0164274D02*
X0096752Y0164274D01*
X0105162Y0171948D02*
X0105162Y0175017D01*
X0139814Y0176167D02*
X0142883Y0176167D01*
X0141349Y0176167D02*
X0141349Y0180771D01*
X0142883Y0179237D01*
X0144418Y0180004D02*
X0145185Y0180771D01*
X0146720Y0180771D01*
X0147487Y0180004D01*
X0147487Y0179237D01*
X0146720Y0178469D01*
X0145185Y0178469D01*
X0144418Y0177702D01*
X0144418Y0176935D01*
X0145185Y0176167D01*
X0146720Y0176167D01*
X0147487Y0176935D01*
X0149022Y0176935D02*
X0149022Y0180771D01*
X0152091Y0180771D02*
X0152091Y0176935D01*
X0151324Y0176167D01*
X0149789Y0176167D01*
X0149022Y0176935D01*
X0145952Y0175400D02*
X0145952Y0181539D01*
X0147293Y0149906D02*
X0144224Y0145302D01*
X0144224Y0149906D01*
X0142689Y0149906D02*
X0140387Y0149906D01*
X0139620Y0149138D01*
X0139620Y0146069D01*
X0140387Y0145302D01*
X0142689Y0145302D01*
X0142689Y0149906D01*
X0147293Y0149906D02*
X0147293Y0145302D01*
X0148828Y0146069D02*
X0148828Y0147604D01*
X0150362Y0147604D01*
X0148828Y0149138D02*
X0149595Y0149906D01*
X0151130Y0149906D01*
X0151897Y0149138D01*
X0151897Y0146069D01*
X0151130Y0145302D01*
X0149595Y0145302D01*
X0148828Y0146069D01*
X0148828Y0139906D02*
X0148828Y0135302D01*
X0147293Y0135302D02*
X0147293Y0138371D01*
X0145758Y0139906D01*
X0144224Y0138371D01*
X0144224Y0135302D01*
X0142689Y0135302D02*
X0142689Y0139906D01*
X0140387Y0139906D01*
X0139620Y0139138D01*
X0139620Y0137604D01*
X0140387Y0136836D01*
X0142689Y0136836D01*
X0144224Y0137604D02*
X0147293Y0137604D01*
X0148828Y0139906D02*
X0150362Y0138371D01*
X0151897Y0139906D01*
X0151897Y0135302D01*
X0153432Y0129906D02*
X0154966Y0129906D01*
X0154199Y0129906D02*
X0154199Y0125302D01*
X0154966Y0125302D02*
X0153432Y0125302D01*
X0151897Y0124534D02*
X0148828Y0124534D01*
X0147293Y0125302D02*
X0147293Y0129906D01*
X0144991Y0129906D01*
X0144224Y0129138D01*
X0144224Y0127604D01*
X0144991Y0126836D01*
X0147293Y0126836D01*
X0142689Y0126836D02*
X0140387Y0126836D01*
X0139620Y0127604D01*
X0139620Y0129138D01*
X0140387Y0129906D01*
X0142689Y0129906D01*
X0142689Y0125302D01*
X0141154Y0126836D02*
X0139620Y0125302D01*
X0140387Y0119906D02*
X0139620Y0119138D01*
X0139620Y0117604D01*
X0140387Y0116836D01*
X0142689Y0116836D01*
X0142689Y0115302D02*
X0142689Y0119906D01*
X0140387Y0119906D01*
X0141154Y0116836D02*
X0139620Y0115302D01*
X0144224Y0117604D02*
X0144224Y0119138D01*
X0144991Y0119906D01*
X0147293Y0119906D01*
X0147293Y0115302D01*
X0147293Y0116836D02*
X0144991Y0116836D01*
X0144224Y0117604D01*
X0148828Y0114534D02*
X0151897Y0114534D01*
X0153432Y0115302D02*
X0155734Y0117604D01*
X0156501Y0116836D02*
X0153432Y0119906D01*
X0156501Y0119906D02*
X0156501Y0115302D01*
X0158036Y0116069D02*
X0158803Y0115302D01*
X0160338Y0115302D01*
X0161105Y0116069D01*
X0161105Y0119138D01*
X0160338Y0119906D01*
X0158803Y0119906D01*
X0158036Y0119138D01*
X0162639Y0119138D02*
X0163407Y0119906D01*
X0164941Y0119906D01*
X0165709Y0119138D01*
X0165709Y0118371D01*
X0164941Y0117604D01*
X0163407Y0117604D01*
X0162639Y0116836D01*
X0162639Y0116069D01*
X0163407Y0115302D01*
X0164941Y0115302D01*
X0165709Y0116069D01*
X0165709Y0125302D02*
X0165709Y0129906D01*
X0167243Y0128371D01*
X0168778Y0129906D01*
X0168778Y0125302D01*
X0164174Y0126069D02*
X0163407Y0125302D01*
X0161872Y0125302D01*
X0161105Y0126069D01*
X0161105Y0129138D01*
X0161872Y0129906D01*
X0163407Y0129906D01*
X0164174Y0129138D01*
X0164174Y0126069D01*
X0159570Y0126069D02*
X0158803Y0125302D01*
X0157268Y0125302D01*
X0156501Y0126069D01*
X0156501Y0126836D01*
X0157268Y0127604D01*
X0158803Y0127604D01*
X0159570Y0128371D01*
X0159570Y0129138D01*
X0158803Y0129906D01*
X0157268Y0129906D01*
X0156501Y0129138D01*
X0182377Y0086892D02*
X0181610Y0086125D01*
X0181610Y0083823D01*
X0186214Y0083823D01*
X0186214Y0086125D01*
X0185447Y0086892D01*
X0182377Y0086892D01*
X0181610Y0082288D02*
X0186214Y0082288D01*
X0186214Y0079219D02*
X0181610Y0082288D01*
X0181610Y0079219D02*
X0186214Y0079219D01*
X0185447Y0077684D02*
X0186214Y0076917D01*
X0186214Y0075382D01*
X0185447Y0074615D01*
X0182377Y0074615D01*
X0181610Y0075382D01*
X0181610Y0076917D01*
X0182377Y0077684D01*
X0183912Y0077684D01*
X0183912Y0076149D01*
X0191610Y0074615D02*
X0194679Y0074615D01*
X0196214Y0076149D01*
X0194679Y0077684D01*
X0191610Y0077684D01*
X0191610Y0079219D02*
X0196214Y0079219D01*
X0196214Y0081521D01*
X0195447Y0082288D01*
X0193912Y0082288D01*
X0193145Y0081521D01*
X0193145Y0079219D01*
X0193145Y0080753D02*
X0191610Y0082288D01*
X0192377Y0083823D02*
X0191610Y0084590D01*
X0191610Y0086125D01*
X0192377Y0086892D01*
X0195447Y0086892D01*
X0196214Y0086125D01*
X0196214Y0084590D01*
X0195447Y0083823D01*
X0192377Y0083823D01*
X0193912Y0077684D02*
X0193912Y0074615D01*
X0193145Y0073080D02*
X0192377Y0073080D01*
X0191610Y0072313D01*
X0191610Y0070011D01*
X0196214Y0070011D01*
X0196214Y0072313D01*
X0195447Y0073080D01*
X0194679Y0073080D01*
X0193912Y0072313D01*
X0193912Y0070011D01*
X0193912Y0072313D02*
X0193145Y0073080D01*
X0201610Y0073080D02*
X0203145Y0071546D01*
X0203145Y0072313D02*
X0203145Y0070011D01*
X0201610Y0070011D02*
X0206214Y0070011D01*
X0206214Y0072313D01*
X0205447Y0073080D01*
X0203912Y0073080D01*
X0203145Y0072313D01*
X0201610Y0074615D02*
X0206214Y0077684D01*
X0206214Y0079219D02*
X0206214Y0081521D01*
X0205447Y0082288D01*
X0202377Y0082288D01*
X0201610Y0081521D01*
X0201610Y0079219D01*
X0206214Y0079219D01*
X0205447Y0083823D02*
X0206214Y0084590D01*
X0206214Y0086125D01*
X0205447Y0086892D01*
X0204679Y0086892D01*
X0201610Y0083823D01*
X0201610Y0086892D01*
X0201610Y0077684D02*
X0206214Y0074615D01*
X0115585Y0099906D02*
X0112516Y0099906D01*
X0114050Y0099906D02*
X0114050Y0095302D01*
X0110981Y0095302D02*
X0107912Y0099906D01*
X0110981Y0099906D02*
X0107912Y0095302D01*
D12*
X0047035Y0052602D02*
X0047035Y0280948D01*
X0224200Y0280948D01*
X0224200Y0052602D01*
X0047035Y0052602D01*
X0097762Y0171602D02*
X0097762Y0176105D01*
X0100014Y0173854D01*
X0097012Y0173854D01*
X0101615Y0176105D02*
X0103117Y0176105D01*
X0102366Y0176105D02*
X0102366Y0172352D01*
X0103117Y0171602D01*
X0103867Y0171602D01*
X0104618Y0172352D01*
X0106219Y0172352D02*
X0106970Y0171602D01*
X0108471Y0171602D01*
X0109222Y0172352D01*
X0108471Y0173854D02*
X0106970Y0173854D01*
X0106219Y0173103D01*
X0106219Y0172352D01*
X0108471Y0173854D02*
X0109222Y0174604D01*
X0109222Y0175355D01*
X0108471Y0176105D01*
X0106970Y0176105D01*
X0106219Y0175355D01*
X0109409Y0178614D02*
X0109161Y0181352D01*
X0109161Y0181352D01*
X0109409Y0184090D01*
X0109410Y0184091D01*
X0109513Y0184079D01*
X0109617Y0184064D01*
X0109719Y0184045D01*
X0109821Y0184021D01*
X0109922Y0183994D01*
X0110021Y0183964D01*
X0110120Y0183929D01*
X0110217Y0183891D01*
X0110312Y0183849D01*
X0110406Y0183803D01*
X0110498Y0183754D01*
X0110589Y0183702D01*
X0110677Y0183646D01*
X0110763Y0183587D01*
X0110846Y0183524D01*
X0110927Y0183459D01*
X0111006Y0183390D01*
X0111082Y0183319D01*
X0111155Y0183244D01*
X0111226Y0183167D01*
X0111293Y0183088D01*
X0111357Y0183005D01*
X0111419Y0182921D01*
X0111476Y0182834D01*
X0111531Y0182745D01*
X0111582Y0182654D01*
X0111630Y0182561D01*
X0111674Y0182467D01*
X0111714Y0182371D01*
X0111751Y0182273D01*
X0111784Y0182174D01*
X0111814Y0182074D01*
X0111839Y0181973D01*
X0111861Y0181871D01*
X0111878Y0181768D01*
X0111892Y0181664D01*
X0111902Y0181561D01*
X0111908Y0181456D01*
X0111910Y0181352D01*
X0111908Y0181248D01*
X0111902Y0181143D01*
X0111892Y0181040D01*
X0111878Y0180936D01*
X0111861Y0180833D01*
X0111839Y0180731D01*
X0111814Y0180630D01*
X0111784Y0180530D01*
X0111751Y0180431D01*
X0111714Y0180333D01*
X0111674Y0180237D01*
X0111630Y0180143D01*
X0111582Y0180050D01*
X0111531Y0179959D01*
X0111476Y0179870D01*
X0111419Y0179783D01*
X0111357Y0179699D01*
X0111293Y0179616D01*
X0111226Y0179537D01*
X0111155Y0179460D01*
X0111082Y0179385D01*
X0111006Y0179314D01*
X0110927Y0179245D01*
X0110846Y0179180D01*
X0110763Y0179117D01*
X0110677Y0179058D01*
X0110589Y0179002D01*
X0110498Y0178950D01*
X0110406Y0178901D01*
X0110312Y0178855D01*
X0110217Y0178813D01*
X0110120Y0178775D01*
X0110021Y0178740D01*
X0109922Y0178710D01*
X0109821Y0178683D01*
X0109719Y0178659D01*
X0109617Y0178640D01*
X0109513Y0178625D01*
X0109410Y0178613D01*
X0109409Y0179090D01*
X0109504Y0179102D01*
X0109597Y0179118D01*
X0109690Y0179139D01*
X0109782Y0179163D01*
X0109873Y0179191D01*
X0109962Y0179222D01*
X0110051Y0179257D01*
X0110137Y0179296D01*
X0110222Y0179339D01*
X0110305Y0179385D01*
X0110386Y0179435D01*
X0110465Y0179487D01*
X0110542Y0179544D01*
X0110616Y0179603D01*
X0110688Y0179665D01*
X0110757Y0179730D01*
X0110823Y0179798D01*
X0110887Y0179869D01*
X0110947Y0179942D01*
X0111004Y0180018D01*
X0111058Y0180096D01*
X0111109Y0180177D01*
X0111156Y0180259D01*
X0111200Y0180343D01*
X0111241Y0180429D01*
X0111277Y0180517D01*
X0111310Y0180606D01*
X0111340Y0180696D01*
X0111365Y0180788D01*
X0111387Y0180880D01*
X0111404Y0180974D01*
X0111418Y0181068D01*
X0111428Y0181162D01*
X0111434Y0181257D01*
X0111436Y0181352D01*
X0111434Y0181447D01*
X0111428Y0181542D01*
X0111418Y0181636D01*
X0111404Y0181730D01*
X0111387Y0181824D01*
X0111365Y0181916D01*
X0111340Y0182008D01*
X0111310Y0182098D01*
X0111277Y0182187D01*
X0111241Y0182275D01*
X0111200Y0182361D01*
X0111156Y0182445D01*
X0111109Y0182527D01*
X0111058Y0182608D01*
X0111004Y0182686D01*
X0110947Y0182762D01*
X0110887Y0182835D01*
X0110823Y0182906D01*
X0110757Y0182974D01*
X0110688Y0183039D01*
X0110616Y0183101D01*
X0110542Y0183160D01*
X0110465Y0183217D01*
X0110386Y0183269D01*
X0110305Y0183319D01*
X0110222Y0183365D01*
X0110137Y0183408D01*
X0110051Y0183447D01*
X0109962Y0183482D01*
X0109873Y0183513D01*
X0109782Y0183541D01*
X0109690Y0183565D01*
X0109597Y0183586D01*
X0109504Y0183602D01*
X0109409Y0183614D01*
X0109409Y0183137D01*
X0109491Y0183123D01*
X0109573Y0183106D01*
X0109653Y0183085D01*
X0109733Y0183061D01*
X0109811Y0183032D01*
X0109888Y0183000D01*
X0109963Y0182965D01*
X0110037Y0182926D01*
X0110109Y0182884D01*
X0110179Y0182839D01*
X0110246Y0182790D01*
X0110311Y0182738D01*
X0110374Y0182684D01*
X0110434Y0182626D01*
X0110492Y0182566D01*
X0110546Y0182503D01*
X0110598Y0182438D01*
X0110647Y0182370D01*
X0110692Y0182301D01*
X0110734Y0182229D01*
X0110773Y0182155D01*
X0110808Y0182080D01*
X0110840Y0182003D01*
X0110869Y0181925D01*
X0110893Y0181845D01*
X0110914Y0181765D01*
X0110931Y0181683D01*
X0110945Y0181601D01*
X0110954Y0181518D01*
X0110960Y0181435D01*
X0110962Y0181352D01*
X0110960Y0181269D01*
X0110954Y0181186D01*
X0110945Y0181103D01*
X0110931Y0181021D01*
X0110914Y0180939D01*
X0110893Y0180859D01*
X0110869Y0180779D01*
X0110840Y0180701D01*
X0110808Y0180624D01*
X0110773Y0180549D01*
X0110734Y0180475D01*
X0110692Y0180403D01*
X0110647Y0180334D01*
X0110598Y0180266D01*
X0110546Y0180201D01*
X0110492Y0180138D01*
X0110434Y0180078D01*
X0110374Y0180020D01*
X0110311Y0179966D01*
X0110246Y0179914D01*
X0110179Y0179865D01*
X0110109Y0179820D01*
X0110037Y0179778D01*
X0109963Y0179739D01*
X0109888Y0179704D01*
X0109811Y0179672D01*
X0109733Y0179643D01*
X0109653Y0179619D01*
X0109573Y0179598D01*
X0109491Y0179581D01*
X0109409Y0179567D01*
X0109409Y0180047D01*
X0109479Y0180063D01*
X0109548Y0180082D01*
X0109616Y0180105D01*
X0109683Y0180131D01*
X0109749Y0180162D01*
X0109812Y0180195D01*
X0109874Y0180232D01*
X0109934Y0180273D01*
X0109991Y0180316D01*
X0110046Y0180363D01*
X0110098Y0180412D01*
X0110148Y0180464D01*
X0110195Y0180519D01*
X0110238Y0180577D01*
X0110279Y0180636D01*
X0110316Y0180698D01*
X0110349Y0180761D01*
X0110380Y0180827D01*
X0110406Y0180894D01*
X0110429Y0180962D01*
X0110449Y0181031D01*
X0110464Y0181102D01*
X0110476Y0181173D01*
X0110484Y0181244D01*
X0110488Y0181316D01*
X0110488Y0181388D01*
X0110484Y0181460D01*
X0110476Y0181531D01*
X0110464Y0181602D01*
X0110449Y0181673D01*
X0110429Y0181742D01*
X0110406Y0181810D01*
X0110380Y0181877D01*
X0110349Y0181943D01*
X0110316Y0182006D01*
X0110279Y0182068D01*
X0110238Y0182127D01*
X0110195Y0182185D01*
X0110148Y0182240D01*
X0110098Y0182292D01*
X0110046Y0182341D01*
X0109991Y0182388D01*
X0109934Y0182431D01*
X0109874Y0182472D01*
X0109812Y0182509D01*
X0109749Y0182542D01*
X0109683Y0182573D01*
X0109616Y0182599D01*
X0109548Y0182622D01*
X0109479Y0182641D01*
X0109409Y0182657D01*
X0109406Y0182170D01*
X0109461Y0182151D01*
X0109514Y0182129D01*
X0109565Y0182104D01*
X0109615Y0182075D01*
X0109662Y0182043D01*
X0109708Y0182007D01*
X0109751Y0181969D01*
X0109791Y0181928D01*
X0109828Y0181884D01*
X0109862Y0181838D01*
X0109893Y0181790D01*
X0109921Y0181739D01*
X0109945Y0181687D01*
X0109966Y0181634D01*
X0109983Y0181579D01*
X0109997Y0181523D01*
X0110006Y0181467D01*
X0110012Y0181409D01*
X0110014Y0181352D01*
X0110012Y0181295D01*
X0110006Y0181237D01*
X0109997Y0181181D01*
X0109983Y0181125D01*
X0109966Y0181070D01*
X0109945Y0181017D01*
X0109921Y0180965D01*
X0109893Y0180914D01*
X0109862Y0180866D01*
X0109828Y0180820D01*
X0109791Y0180776D01*
X0109751Y0180735D01*
X0109708Y0180697D01*
X0109662Y0180661D01*
X0109615Y0180629D01*
X0109565Y0180600D01*
X0109514Y0180575D01*
X0109461Y0180553D01*
X0109406Y0180534D01*
X0109392Y0181051D01*
X0109420Y0181075D01*
X0109446Y0181101D01*
X0109468Y0181130D01*
X0109488Y0181160D01*
X0109505Y0181193D01*
X0109519Y0181227D01*
X0109529Y0181262D01*
X0109536Y0181297D01*
X0109540Y0181334D01*
X0109540Y0181370D01*
X0109536Y0181407D01*
X0109529Y0181442D01*
X0109519Y0181477D01*
X0109505Y0181511D01*
X0109488Y0181544D01*
X0109468Y0181574D01*
X0109446Y0181603D01*
X0109420Y0181629D01*
X0109392Y0181653D01*
X0100911Y0184090D02*
X0101159Y0181352D01*
X0101159Y0181352D01*
X0100911Y0178614D01*
X0100910Y0178613D01*
X0100807Y0178625D01*
X0100703Y0178640D01*
X0100601Y0178659D01*
X0100499Y0178683D01*
X0100398Y0178710D01*
X0100299Y0178740D01*
X0100200Y0178775D01*
X0100103Y0178813D01*
X0100008Y0178855D01*
X0099914Y0178901D01*
X0099822Y0178950D01*
X0099731Y0179002D01*
X0099643Y0179058D01*
X0099557Y0179117D01*
X0099474Y0179180D01*
X0099393Y0179245D01*
X0099314Y0179314D01*
X0099238Y0179385D01*
X0099165Y0179460D01*
X0099094Y0179537D01*
X0099027Y0179616D01*
X0098963Y0179699D01*
X0098901Y0179783D01*
X0098844Y0179870D01*
X0098789Y0179959D01*
X0098738Y0180050D01*
X0098690Y0180143D01*
X0098646Y0180237D01*
X0098606Y0180333D01*
X0098569Y0180431D01*
X0098536Y0180530D01*
X0098506Y0180630D01*
X0098481Y0180731D01*
X0098459Y0180833D01*
X0098442Y0180936D01*
X0098428Y0181040D01*
X0098418Y0181143D01*
X0098412Y0181248D01*
X0098410Y0181352D01*
X0098412Y0181456D01*
X0098418Y0181561D01*
X0098428Y0181664D01*
X0098442Y0181768D01*
X0098459Y0181871D01*
X0098481Y0181973D01*
X0098506Y0182074D01*
X0098536Y0182174D01*
X0098569Y0182273D01*
X0098606Y0182371D01*
X0098646Y0182467D01*
X0098690Y0182561D01*
X0098738Y0182654D01*
X0098789Y0182745D01*
X0098844Y0182834D01*
X0098901Y0182921D01*
X0098963Y0183005D01*
X0099027Y0183088D01*
X0099094Y0183167D01*
X0099165Y0183244D01*
X0099238Y0183319D01*
X0099314Y0183390D01*
X0099393Y0183459D01*
X0099474Y0183524D01*
X0099557Y0183587D01*
X0099643Y0183646D01*
X0099731Y0183702D01*
X0099822Y0183754D01*
X0099914Y0183803D01*
X0100008Y0183849D01*
X0100103Y0183891D01*
X0100200Y0183929D01*
X0100299Y0183964D01*
X0100398Y0183994D01*
X0100499Y0184021D01*
X0100601Y0184045D01*
X0100703Y0184064D01*
X0100807Y0184079D01*
X0100910Y0184091D01*
X0100911Y0183614D01*
X0100816Y0183602D01*
X0100723Y0183586D01*
X0100630Y0183565D01*
X0100538Y0183541D01*
X0100447Y0183513D01*
X0100358Y0183482D01*
X0100269Y0183447D01*
X0100183Y0183408D01*
X0100098Y0183365D01*
X0100015Y0183319D01*
X0099934Y0183269D01*
X0099855Y0183217D01*
X0099778Y0183160D01*
X0099704Y0183101D01*
X0099632Y0183039D01*
X0099563Y0182974D01*
X0099497Y0182906D01*
X0099433Y0182835D01*
X0099373Y0182762D01*
X0099316Y0182686D01*
X0099262Y0182608D01*
X0099211Y0182527D01*
X0099164Y0182445D01*
X0099120Y0182361D01*
X0099079Y0182275D01*
X0099043Y0182187D01*
X0099010Y0182098D01*
X0098980Y0182008D01*
X0098955Y0181916D01*
X0098933Y0181824D01*
X0098916Y0181730D01*
X0098902Y0181636D01*
X0098892Y0181542D01*
X0098886Y0181447D01*
X0098884Y0181352D01*
X0098886Y0181257D01*
X0098892Y0181162D01*
X0098902Y0181068D01*
X0098916Y0180974D01*
X0098933Y0180880D01*
X0098955Y0180788D01*
X0098980Y0180696D01*
X0099010Y0180606D01*
X0099043Y0180517D01*
X0099079Y0180429D01*
X0099120Y0180343D01*
X0099164Y0180259D01*
X0099211Y0180177D01*
X0099262Y0180096D01*
X0099316Y0180018D01*
X0099373Y0179942D01*
X0099433Y0179869D01*
X0099497Y0179798D01*
X0099563Y0179730D01*
X0099632Y0179665D01*
X0099704Y0179603D01*
X0099778Y0179544D01*
X0099855Y0179487D01*
X0099934Y0179435D01*
X0100015Y0179385D01*
X0100098Y0179339D01*
X0100183Y0179296D01*
X0100269Y0179257D01*
X0100358Y0179222D01*
X0100447Y0179191D01*
X0100538Y0179163D01*
X0100630Y0179139D01*
X0100723Y0179118D01*
X0100816Y0179102D01*
X0100911Y0179090D01*
X0100911Y0179567D01*
X0100829Y0179581D01*
X0100747Y0179598D01*
X0100667Y0179619D01*
X0100587Y0179643D01*
X0100509Y0179672D01*
X0100432Y0179704D01*
X0100357Y0179739D01*
X0100283Y0179778D01*
X0100211Y0179820D01*
X0100141Y0179865D01*
X0100074Y0179914D01*
X0100009Y0179966D01*
X0099946Y0180020D01*
X0099886Y0180078D01*
X0099828Y0180138D01*
X0099774Y0180201D01*
X0099722Y0180266D01*
X0099673Y0180334D01*
X0099628Y0180403D01*
X0099586Y0180475D01*
X0099547Y0180549D01*
X0099512Y0180624D01*
X0099480Y0180701D01*
X0099451Y0180779D01*
X0099427Y0180859D01*
X0099406Y0180939D01*
X0099389Y0181021D01*
X0099375Y0181103D01*
X0099366Y0181186D01*
X0099360Y0181269D01*
X0099358Y0181352D01*
X0099360Y0181435D01*
X0099366Y0181518D01*
X0099375Y0181601D01*
X0099389Y0181683D01*
X0099406Y0181765D01*
X0099427Y0181845D01*
X0099451Y0181925D01*
X0099480Y0182003D01*
X0099512Y0182080D01*
X0099547Y0182155D01*
X0099586Y0182229D01*
X0099628Y0182301D01*
X0099673Y0182370D01*
X0099722Y0182438D01*
X0099774Y0182503D01*
X0099828Y0182566D01*
X0099886Y0182626D01*
X0099946Y0182684D01*
X0100009Y0182738D01*
X0100074Y0182790D01*
X0100141Y0182839D01*
X0100211Y0182884D01*
X0100283Y0182926D01*
X0100357Y0182965D01*
X0100432Y0183000D01*
X0100509Y0183032D01*
X0100587Y0183061D01*
X0100667Y0183085D01*
X0100747Y0183106D01*
X0100829Y0183123D01*
X0100911Y0183137D01*
X0100911Y0182657D01*
X0100841Y0182641D01*
X0100772Y0182622D01*
X0100704Y0182599D01*
X0100637Y0182573D01*
X0100571Y0182542D01*
X0100508Y0182509D01*
X0100446Y0182472D01*
X0100386Y0182431D01*
X0100329Y0182388D01*
X0100274Y0182341D01*
X0100222Y0182292D01*
X0100172Y0182240D01*
X0100125Y0182185D01*
X0100082Y0182127D01*
X0100041Y0182068D01*
X0100004Y0182006D01*
X0099971Y0181943D01*
X0099940Y0181877D01*
X0099914Y0181810D01*
X0099891Y0181742D01*
X0099871Y0181673D01*
X0099856Y0181602D01*
X0099844Y0181531D01*
X0099836Y0181460D01*
X0099832Y0181388D01*
X0099832Y0181316D01*
X0099836Y0181244D01*
X0099844Y0181173D01*
X0099856Y0181102D01*
X0099871Y0181031D01*
X0099891Y0180962D01*
X0099914Y0180894D01*
X0099940Y0180827D01*
X0099971Y0180761D01*
X0100004Y0180698D01*
X0100041Y0180636D01*
X0100082Y0180577D01*
X0100125Y0180519D01*
X0100172Y0180464D01*
X0100222Y0180412D01*
X0100274Y0180363D01*
X0100329Y0180316D01*
X0100386Y0180273D01*
X0100446Y0180232D01*
X0100508Y0180195D01*
X0100571Y0180162D01*
X0100637Y0180131D01*
X0100704Y0180105D01*
X0100772Y0180082D01*
X0100841Y0180063D01*
X0100911Y0180047D01*
X0100914Y0180534D01*
X0100859Y0180553D01*
X0100806Y0180575D01*
X0100755Y0180600D01*
X0100705Y0180629D01*
X0100658Y0180661D01*
X0100612Y0180697D01*
X0100569Y0180735D01*
X0100529Y0180776D01*
X0100492Y0180820D01*
X0100458Y0180866D01*
X0100427Y0180914D01*
X0100399Y0180965D01*
X0100375Y0181017D01*
X0100354Y0181070D01*
X0100337Y0181125D01*
X0100323Y0181181D01*
X0100314Y0181237D01*
X0100308Y0181295D01*
X0100306Y0181352D01*
X0100308Y0181409D01*
X0100314Y0181467D01*
X0100323Y0181523D01*
X0100337Y0181579D01*
X0100354Y0181634D01*
X0100375Y0181687D01*
X0100399Y0181739D01*
X0100427Y0181790D01*
X0100458Y0181838D01*
X0100492Y0181884D01*
X0100529Y0181928D01*
X0100569Y0181969D01*
X0100612Y0182007D01*
X0100658Y0182043D01*
X0100705Y0182075D01*
X0100755Y0182104D01*
X0100806Y0182129D01*
X0100859Y0182151D01*
X0100914Y0182170D01*
X0100928Y0181653D01*
X0100900Y0181629D01*
X0100874Y0181603D01*
X0100852Y0181574D01*
X0100832Y0181544D01*
X0100815Y0181511D01*
X0100801Y0181477D01*
X0100791Y0181442D01*
X0100784Y0181407D01*
X0100780Y0181370D01*
X0100780Y0181334D01*
X0100784Y0181297D01*
X0100791Y0181262D01*
X0100801Y0181227D01*
X0100815Y0181193D01*
X0100832Y0181160D01*
X0100852Y0181130D01*
X0100874Y0181101D01*
X0100900Y0181075D01*
X0100928Y0181051D01*
X0179369Y0217128D02*
X0180120Y0215828D01*
X0181145Y0215553D01*
X0181694Y0217604D02*
X0181319Y0218254D01*
X0180294Y0218529D01*
X0179644Y0218153D01*
X0179369Y0217128D01*
X0181319Y0218254D02*
X0181594Y0219279D01*
X0182244Y0219655D01*
X0183269Y0219380D01*
X0184020Y0218080D01*
X0183745Y0217054D01*
X0185196Y0216043D02*
X0185947Y0214743D01*
X0185571Y0215393D02*
X0182321Y0213516D01*
X0182046Y0212491D01*
X0182421Y0211841D01*
X0183447Y0211566D01*
X0184248Y0210179D02*
X0183973Y0209154D01*
X0184723Y0207854D01*
X0185749Y0207579D01*
X0186674Y0208980D02*
X0185923Y0210280D01*
X0184898Y0210554D01*
X0184248Y0210179D01*
X0186674Y0208980D02*
X0187699Y0208705D01*
X0188349Y0209080D01*
X0188624Y0210105D01*
X0187873Y0211406D01*
X0186848Y0211680D01*
X0191266Y0210547D02*
X0193512Y0212132D01*
X0193512Y0212131D02*
X0193512Y0212131D01*
X0196008Y0213285D01*
X0196009Y0213285D01*
X0196051Y0213190D01*
X0196089Y0213093D01*
X0196123Y0212994D01*
X0196154Y0212894D01*
X0196181Y0212794D01*
X0196204Y0212692D01*
X0196224Y0212589D01*
X0196239Y0212486D01*
X0196251Y0212382D01*
X0196258Y0212278D01*
X0196262Y0212174D01*
X0196261Y0212070D01*
X0196257Y0211965D01*
X0196249Y0211861D01*
X0196236Y0211758D01*
X0196220Y0211655D01*
X0196200Y0211552D01*
X0196176Y0211451D01*
X0196149Y0211350D01*
X0196117Y0211251D01*
X0196082Y0211153D01*
X0196043Y0211056D01*
X0196000Y0210960D01*
X0195954Y0210867D01*
X0195904Y0210775D01*
X0195851Y0210685D01*
X0195794Y0210598D01*
X0195734Y0210512D01*
X0195671Y0210429D01*
X0195605Y0210348D01*
X0195536Y0210270D01*
X0195464Y0210195D01*
X0195389Y0210122D01*
X0195311Y0210052D01*
X0195231Y0209986D01*
X0195149Y0209922D01*
X0195064Y0209862D01*
X0194976Y0209804D01*
X0194887Y0209750D01*
X0194796Y0209700D01*
X0194702Y0209653D01*
X0194608Y0209610D01*
X0194511Y0209570D01*
X0194413Y0209534D01*
X0194314Y0209502D01*
X0194214Y0209473D01*
X0194112Y0209448D01*
X0194010Y0209427D01*
X0193907Y0209411D01*
X0193803Y0209397D01*
X0193700Y0209388D01*
X0193595Y0209383D01*
X0193491Y0209382D01*
X0193387Y0209385D01*
X0193283Y0209392D01*
X0193179Y0209402D01*
X0193075Y0209417D01*
X0192973Y0209435D01*
X0192871Y0209458D01*
X0192770Y0209484D01*
X0192670Y0209514D01*
X0192571Y0209548D01*
X0192474Y0209585D01*
X0192378Y0209627D01*
X0192284Y0209672D01*
X0192191Y0209720D01*
X0192101Y0209772D01*
X0192012Y0209827D01*
X0191926Y0209886D01*
X0191842Y0209947D01*
X0191760Y0210012D01*
X0191681Y0210080D01*
X0191604Y0210151D01*
X0191531Y0210225D01*
X0191460Y0210302D01*
X0191392Y0210381D01*
X0191327Y0210462D01*
X0191265Y0210546D01*
X0191678Y0210785D01*
X0191735Y0210709D01*
X0191796Y0210637D01*
X0191860Y0210566D01*
X0191927Y0210499D01*
X0191996Y0210434D01*
X0192069Y0210372D01*
X0192143Y0210313D01*
X0192220Y0210258D01*
X0192300Y0210206D01*
X0192381Y0210157D01*
X0192465Y0210111D01*
X0192550Y0210069D01*
X0192637Y0210031D01*
X0192725Y0209996D01*
X0192815Y0209965D01*
X0192906Y0209938D01*
X0192998Y0209915D01*
X0193091Y0209895D01*
X0193185Y0209880D01*
X0193279Y0209868D01*
X0193374Y0209860D01*
X0193469Y0209856D01*
X0193564Y0209857D01*
X0193659Y0209861D01*
X0193753Y0209869D01*
X0193847Y0209881D01*
X0193941Y0209897D01*
X0194034Y0209917D01*
X0194126Y0209940D01*
X0194217Y0209968D01*
X0194307Y0209999D01*
X0194395Y0210034D01*
X0194482Y0210073D01*
X0194567Y0210115D01*
X0194650Y0210161D01*
X0194731Y0210210D01*
X0194810Y0210263D01*
X0194887Y0210318D01*
X0194962Y0210377D01*
X0195034Y0210439D01*
X0195103Y0210504D01*
X0195170Y0210572D01*
X0195233Y0210643D01*
X0195294Y0210716D01*
X0195351Y0210792D01*
X0195406Y0210869D01*
X0195457Y0210950D01*
X0195504Y0211032D01*
X0195549Y0211116D01*
X0195589Y0211202D01*
X0195626Y0211289D01*
X0195660Y0211378D01*
X0195689Y0211468D01*
X0195715Y0211560D01*
X0195737Y0211652D01*
X0195755Y0211746D01*
X0195769Y0211839D01*
X0195779Y0211934D01*
X0195786Y0212029D01*
X0195788Y0212124D01*
X0195786Y0212219D01*
X0195781Y0212313D01*
X0195771Y0212408D01*
X0195758Y0212502D01*
X0195740Y0212595D01*
X0195719Y0212688D01*
X0195694Y0212780D01*
X0195665Y0212870D01*
X0195632Y0212959D01*
X0195596Y0213047D01*
X0195182Y0212809D01*
X0195212Y0212731D01*
X0195237Y0212652D01*
X0195260Y0212571D01*
X0195278Y0212490D01*
X0195293Y0212408D01*
X0195304Y0212326D01*
X0195311Y0212243D01*
X0195314Y0212160D01*
X0195313Y0212076D01*
X0195309Y0211993D01*
X0195300Y0211910D01*
X0195288Y0211828D01*
X0195272Y0211746D01*
X0195253Y0211665D01*
X0195229Y0211586D01*
X0195202Y0211507D01*
X0195171Y0211429D01*
X0195137Y0211354D01*
X0195100Y0211279D01*
X0195058Y0211207D01*
X0195014Y0211137D01*
X0194967Y0211068D01*
X0194916Y0211002D01*
X0194862Y0210939D01*
X0194806Y0210878D01*
X0194746Y0210819D01*
X0194684Y0210764D01*
X0194620Y0210711D01*
X0194553Y0210661D01*
X0194484Y0210615D01*
X0194413Y0210571D01*
X0194340Y0210531D01*
X0194265Y0210495D01*
X0194189Y0210462D01*
X0194111Y0210432D01*
X0194032Y0210407D01*
X0193952Y0210384D01*
X0193870Y0210366D01*
X0193788Y0210351D01*
X0193706Y0210340D01*
X0193623Y0210333D01*
X0193540Y0210330D01*
X0193457Y0210331D01*
X0193373Y0210335D01*
X0193291Y0210344D01*
X0193208Y0210356D01*
X0193127Y0210372D01*
X0193046Y0210391D01*
X0192966Y0210415D01*
X0192887Y0210442D01*
X0192810Y0210472D01*
X0192734Y0210507D01*
X0192660Y0210544D01*
X0192587Y0210585D01*
X0192517Y0210630D01*
X0192448Y0210677D01*
X0192382Y0210728D01*
X0192319Y0210782D01*
X0192258Y0210838D01*
X0192199Y0210897D01*
X0192144Y0210959D01*
X0192091Y0211024D01*
X0192506Y0211265D01*
X0192555Y0211211D01*
X0192606Y0211161D01*
X0192660Y0211113D01*
X0192717Y0211068D01*
X0192776Y0211027D01*
X0192836Y0210989D01*
X0192899Y0210954D01*
X0192964Y0210922D01*
X0193031Y0210894D01*
X0193098Y0210870D01*
X0193167Y0210850D01*
X0193237Y0210833D01*
X0193308Y0210820D01*
X0193380Y0210811D01*
X0193451Y0210805D01*
X0193523Y0210804D01*
X0193595Y0210807D01*
X0193667Y0210813D01*
X0193738Y0210823D01*
X0193809Y0210838D01*
X0193879Y0210856D01*
X0193947Y0210877D01*
X0194014Y0210903D01*
X0194080Y0210932D01*
X0194145Y0210964D01*
X0194207Y0211000D01*
X0194267Y0211040D01*
X0194325Y0211082D01*
X0194381Y0211128D01*
X0194434Y0211176D01*
X0194485Y0211228D01*
X0194532Y0211282D01*
X0194577Y0211338D01*
X0194618Y0211397D01*
X0194656Y0211458D01*
X0194691Y0211521D01*
X0194723Y0211586D01*
X0194750Y0211652D01*
X0194775Y0211720D01*
X0194795Y0211789D01*
X0194812Y0211859D01*
X0194825Y0211930D01*
X0194834Y0212002D01*
X0194839Y0212073D01*
X0194840Y0212145D01*
X0194837Y0212217D01*
X0194831Y0212289D01*
X0194820Y0212360D01*
X0194806Y0212431D01*
X0194788Y0212500D01*
X0194766Y0212569D01*
X0194343Y0212327D01*
X0194355Y0212271D01*
X0194362Y0212214D01*
X0194366Y0212157D01*
X0194365Y0212099D01*
X0194361Y0212042D01*
X0194353Y0211985D01*
X0194342Y0211929D01*
X0194326Y0211874D01*
X0194307Y0211820D01*
X0194284Y0211767D01*
X0194258Y0211716D01*
X0194228Y0211667D01*
X0194195Y0211620D01*
X0194159Y0211575D01*
X0194120Y0211533D01*
X0194079Y0211493D01*
X0194034Y0211456D01*
X0193988Y0211423D01*
X0193939Y0211392D01*
X0193888Y0211365D01*
X0193836Y0211342D01*
X0193782Y0211322D01*
X0193727Y0211306D01*
X0193671Y0211293D01*
X0193614Y0211284D01*
X0193557Y0211279D01*
X0193500Y0211278D01*
X0193442Y0211281D01*
X0193385Y0211287D01*
X0193329Y0211298D01*
X0193273Y0211312D01*
X0193218Y0211330D01*
X0193165Y0211352D01*
X0193114Y0211377D01*
X0193064Y0211405D01*
X0193016Y0211437D01*
X0192970Y0211472D01*
X0192927Y0211510D01*
X0193368Y0211780D01*
X0193402Y0211768D01*
X0193438Y0211759D01*
X0193474Y0211754D01*
X0193510Y0211752D01*
X0193547Y0211754D01*
X0193583Y0211759D01*
X0193618Y0211767D01*
X0193653Y0211779D01*
X0193686Y0211794D01*
X0193718Y0211812D01*
X0193747Y0211834D01*
X0193775Y0211858D01*
X0193800Y0211884D01*
X0193822Y0211913D01*
X0193842Y0211944D01*
X0193859Y0211976D01*
X0193872Y0212010D01*
X0193882Y0212045D01*
X0193889Y0212081D01*
X0191758Y0220645D02*
X0189512Y0219060D01*
X0189512Y0219061D02*
X0189512Y0219061D01*
X0187016Y0217907D01*
X0187015Y0217907D01*
X0186973Y0218002D01*
X0186935Y0218099D01*
X0186901Y0218198D01*
X0186870Y0218298D01*
X0186843Y0218398D01*
X0186820Y0218500D01*
X0186800Y0218603D01*
X0186785Y0218706D01*
X0186773Y0218810D01*
X0186766Y0218914D01*
X0186762Y0219018D01*
X0186763Y0219122D01*
X0186767Y0219227D01*
X0186775Y0219331D01*
X0186788Y0219434D01*
X0186804Y0219537D01*
X0186824Y0219640D01*
X0186848Y0219741D01*
X0186875Y0219842D01*
X0186907Y0219941D01*
X0186942Y0220039D01*
X0186981Y0220136D01*
X0187024Y0220232D01*
X0187070Y0220325D01*
X0187120Y0220417D01*
X0187173Y0220507D01*
X0187230Y0220594D01*
X0187290Y0220680D01*
X0187353Y0220763D01*
X0187419Y0220844D01*
X0187488Y0220922D01*
X0187560Y0220997D01*
X0187635Y0221070D01*
X0187713Y0221140D01*
X0187793Y0221206D01*
X0187875Y0221270D01*
X0187960Y0221330D01*
X0188048Y0221388D01*
X0188137Y0221442D01*
X0188228Y0221492D01*
X0188322Y0221539D01*
X0188416Y0221582D01*
X0188513Y0221622D01*
X0188611Y0221658D01*
X0188710Y0221690D01*
X0188810Y0221719D01*
X0188912Y0221744D01*
X0189014Y0221765D01*
X0189117Y0221781D01*
X0189221Y0221795D01*
X0189324Y0221804D01*
X0189429Y0221809D01*
X0189533Y0221810D01*
X0189637Y0221807D01*
X0189741Y0221800D01*
X0189845Y0221790D01*
X0189949Y0221775D01*
X0190051Y0221757D01*
X0190153Y0221734D01*
X0190254Y0221708D01*
X0190354Y0221678D01*
X0190453Y0221644D01*
X0190550Y0221607D01*
X0190646Y0221565D01*
X0190740Y0221520D01*
X0190833Y0221472D01*
X0190923Y0221420D01*
X0191012Y0221365D01*
X0191098Y0221306D01*
X0191182Y0221245D01*
X0191264Y0221180D01*
X0191343Y0221112D01*
X0191420Y0221041D01*
X0191493Y0220967D01*
X0191564Y0220890D01*
X0191632Y0220811D01*
X0191697Y0220730D01*
X0191759Y0220646D01*
X0191346Y0220407D01*
X0191289Y0220483D01*
X0191228Y0220555D01*
X0191164Y0220626D01*
X0191097Y0220693D01*
X0191028Y0220758D01*
X0190955Y0220820D01*
X0190881Y0220879D01*
X0190804Y0220934D01*
X0190724Y0220986D01*
X0190643Y0221035D01*
X0190559Y0221081D01*
X0190474Y0221123D01*
X0190387Y0221161D01*
X0190299Y0221196D01*
X0190209Y0221227D01*
X0190118Y0221254D01*
X0190026Y0221277D01*
X0189933Y0221297D01*
X0189839Y0221312D01*
X0189745Y0221324D01*
X0189650Y0221332D01*
X0189555Y0221336D01*
X0189460Y0221335D01*
X0189365Y0221331D01*
X0189271Y0221323D01*
X0189177Y0221311D01*
X0189083Y0221295D01*
X0188990Y0221275D01*
X0188898Y0221252D01*
X0188807Y0221224D01*
X0188717Y0221193D01*
X0188629Y0221158D01*
X0188542Y0221119D01*
X0188457Y0221077D01*
X0188374Y0221031D01*
X0188293Y0220982D01*
X0188214Y0220929D01*
X0188137Y0220874D01*
X0188062Y0220815D01*
X0187990Y0220753D01*
X0187921Y0220688D01*
X0187854Y0220620D01*
X0187791Y0220549D01*
X0187730Y0220476D01*
X0187673Y0220400D01*
X0187618Y0220323D01*
X0187567Y0220242D01*
X0187520Y0220160D01*
X0187475Y0220076D01*
X0187435Y0219990D01*
X0187398Y0219903D01*
X0187364Y0219814D01*
X0187335Y0219724D01*
X0187309Y0219632D01*
X0187287Y0219540D01*
X0187269Y0219446D01*
X0187255Y0219353D01*
X0187245Y0219258D01*
X0187238Y0219163D01*
X0187236Y0219068D01*
X0187238Y0218973D01*
X0187243Y0218879D01*
X0187253Y0218784D01*
X0187266Y0218690D01*
X0187284Y0218597D01*
X0187305Y0218504D01*
X0187330Y0218412D01*
X0187359Y0218322D01*
X0187392Y0218233D01*
X0187428Y0218145D01*
X0187842Y0218383D01*
X0187812Y0218461D01*
X0187787Y0218540D01*
X0187764Y0218621D01*
X0187746Y0218702D01*
X0187731Y0218784D01*
X0187720Y0218866D01*
X0187713Y0218949D01*
X0187710Y0219032D01*
X0187711Y0219116D01*
X0187715Y0219199D01*
X0187724Y0219282D01*
X0187736Y0219364D01*
X0187752Y0219446D01*
X0187771Y0219527D01*
X0187795Y0219606D01*
X0187822Y0219685D01*
X0187853Y0219763D01*
X0187887Y0219838D01*
X0187924Y0219913D01*
X0187966Y0219985D01*
X0188010Y0220055D01*
X0188057Y0220124D01*
X0188108Y0220190D01*
X0188162Y0220253D01*
X0188218Y0220314D01*
X0188278Y0220373D01*
X0188340Y0220428D01*
X0188404Y0220481D01*
X0188471Y0220531D01*
X0188540Y0220577D01*
X0188611Y0220621D01*
X0188684Y0220661D01*
X0188759Y0220697D01*
X0188835Y0220730D01*
X0188913Y0220760D01*
X0188992Y0220785D01*
X0189072Y0220808D01*
X0189154Y0220826D01*
X0189236Y0220841D01*
X0189318Y0220852D01*
X0189401Y0220859D01*
X0189484Y0220862D01*
X0189567Y0220861D01*
X0189651Y0220857D01*
X0189733Y0220848D01*
X0189816Y0220836D01*
X0189897Y0220820D01*
X0189978Y0220801D01*
X0190058Y0220777D01*
X0190137Y0220750D01*
X0190214Y0220720D01*
X0190290Y0220685D01*
X0190364Y0220648D01*
X0190437Y0220607D01*
X0190507Y0220562D01*
X0190576Y0220515D01*
X0190642Y0220464D01*
X0190705Y0220410D01*
X0190766Y0220354D01*
X0190825Y0220295D01*
X0190880Y0220233D01*
X0190933Y0220168D01*
X0190518Y0219927D01*
X0190469Y0219981D01*
X0190418Y0220031D01*
X0190364Y0220079D01*
X0190307Y0220124D01*
X0190248Y0220165D01*
X0190188Y0220203D01*
X0190125Y0220238D01*
X0190060Y0220270D01*
X0189993Y0220298D01*
X0189926Y0220322D01*
X0189857Y0220342D01*
X0189787Y0220359D01*
X0189716Y0220372D01*
X0189644Y0220381D01*
X0189573Y0220387D01*
X0189501Y0220388D01*
X0189429Y0220385D01*
X0189357Y0220379D01*
X0189286Y0220369D01*
X0189215Y0220354D01*
X0189145Y0220336D01*
X0189077Y0220315D01*
X0189010Y0220289D01*
X0188944Y0220260D01*
X0188879Y0220228D01*
X0188817Y0220192D01*
X0188757Y0220152D01*
X0188699Y0220110D01*
X0188643Y0220064D01*
X0188590Y0220016D01*
X0188539Y0219964D01*
X0188492Y0219910D01*
X0188447Y0219854D01*
X0188406Y0219795D01*
X0188368Y0219734D01*
X0188333Y0219671D01*
X0188301Y0219606D01*
X0188274Y0219540D01*
X0188249Y0219472D01*
X0188229Y0219403D01*
X0188212Y0219333D01*
X0188199Y0219262D01*
X0188190Y0219190D01*
X0188185Y0219119D01*
X0188184Y0219047D01*
X0188187Y0218975D01*
X0188193Y0218903D01*
X0188204Y0218832D01*
X0188218Y0218761D01*
X0188236Y0218692D01*
X0188258Y0218623D01*
X0188681Y0218865D01*
X0188669Y0218921D01*
X0188662Y0218978D01*
X0188658Y0219035D01*
X0188659Y0219093D01*
X0188663Y0219150D01*
X0188671Y0219207D01*
X0188682Y0219263D01*
X0188698Y0219318D01*
X0188717Y0219372D01*
X0188740Y0219425D01*
X0188766Y0219476D01*
X0188796Y0219525D01*
X0188829Y0219572D01*
X0188865Y0219617D01*
X0188904Y0219659D01*
X0188945Y0219699D01*
X0188990Y0219736D01*
X0189036Y0219769D01*
X0189085Y0219800D01*
X0189136Y0219827D01*
X0189188Y0219850D01*
X0189242Y0219870D01*
X0189297Y0219886D01*
X0189353Y0219899D01*
X0189410Y0219908D01*
X0189467Y0219913D01*
X0189524Y0219914D01*
X0189582Y0219911D01*
X0189639Y0219905D01*
X0189695Y0219894D01*
X0189751Y0219880D01*
X0189806Y0219862D01*
X0189859Y0219840D01*
X0189910Y0219815D01*
X0189960Y0219787D01*
X0190008Y0219755D01*
X0190054Y0219720D01*
X0190097Y0219682D01*
X0189656Y0219412D01*
X0189622Y0219424D01*
X0189586Y0219433D01*
X0189550Y0219438D01*
X0189514Y0219440D01*
X0189477Y0219438D01*
X0189441Y0219433D01*
X0189406Y0219425D01*
X0189371Y0219413D01*
X0189338Y0219398D01*
X0189306Y0219380D01*
X0189277Y0219358D01*
X0189249Y0219334D01*
X0189224Y0219308D01*
X0189202Y0219279D01*
X0189182Y0219248D01*
X0189165Y0219216D01*
X0189152Y0219182D01*
X0189142Y0219147D01*
X0189135Y0219111D01*
X0183078Y0115348D02*
X0218078Y0115348D01*
X0218078Y0082848D01*
X0215578Y0080348D01*
X0183078Y0080348D01*
X0183078Y0115348D01*
X0194672Y0097848D02*
X0194674Y0098001D01*
X0194680Y0098155D01*
X0194690Y0098308D01*
X0194704Y0098460D01*
X0194722Y0098613D01*
X0194744Y0098764D01*
X0194769Y0098915D01*
X0194799Y0099066D01*
X0194833Y0099216D01*
X0194870Y0099364D01*
X0194911Y0099512D01*
X0194956Y0099658D01*
X0195005Y0099804D01*
X0195058Y0099948D01*
X0195114Y0100090D01*
X0195174Y0100231D01*
X0195238Y0100371D01*
X0195305Y0100509D01*
X0195376Y0100645D01*
X0195451Y0100779D01*
X0195528Y0100911D01*
X0195610Y0101041D01*
X0195694Y0101169D01*
X0195782Y0101295D01*
X0195873Y0101418D01*
X0195967Y0101539D01*
X0196065Y0101657D01*
X0196165Y0101773D01*
X0196269Y0101886D01*
X0196375Y0101997D01*
X0196484Y0102105D01*
X0196596Y0102210D01*
X0196710Y0102311D01*
X0196828Y0102410D01*
X0196947Y0102506D01*
X0197069Y0102599D01*
X0197194Y0102688D01*
X0197321Y0102775D01*
X0197450Y0102857D01*
X0197581Y0102937D01*
X0197714Y0103013D01*
X0197849Y0103086D01*
X0197986Y0103155D01*
X0198125Y0103220D01*
X0198265Y0103282D01*
X0198407Y0103340D01*
X0198550Y0103395D01*
X0198695Y0103446D01*
X0198841Y0103493D01*
X0198988Y0103536D01*
X0199136Y0103575D01*
X0199285Y0103611D01*
X0199435Y0103642D01*
X0199586Y0103670D01*
X0199737Y0103694D01*
X0199890Y0103714D01*
X0200042Y0103730D01*
X0200195Y0103742D01*
X0200348Y0103750D01*
X0200501Y0103754D01*
X0200655Y0103754D01*
X0200808Y0103750D01*
X0200961Y0103742D01*
X0201114Y0103730D01*
X0201266Y0103714D01*
X0201419Y0103694D01*
X0201570Y0103670D01*
X0201721Y0103642D01*
X0201871Y0103611D01*
X0202020Y0103575D01*
X0202168Y0103536D01*
X0202315Y0103493D01*
X0202461Y0103446D01*
X0202606Y0103395D01*
X0202749Y0103340D01*
X0202891Y0103282D01*
X0203031Y0103220D01*
X0203170Y0103155D01*
X0203307Y0103086D01*
X0203442Y0103013D01*
X0203575Y0102937D01*
X0203706Y0102857D01*
X0203835Y0102775D01*
X0203962Y0102688D01*
X0204087Y0102599D01*
X0204209Y0102506D01*
X0204328Y0102410D01*
X0204446Y0102311D01*
X0204560Y0102210D01*
X0204672Y0102105D01*
X0204781Y0101997D01*
X0204887Y0101886D01*
X0204991Y0101773D01*
X0205091Y0101657D01*
X0205189Y0101539D01*
X0205283Y0101418D01*
X0205374Y0101295D01*
X0205462Y0101169D01*
X0205546Y0101041D01*
X0205628Y0100911D01*
X0205705Y0100779D01*
X0205780Y0100645D01*
X0205851Y0100509D01*
X0205918Y0100371D01*
X0205982Y0100231D01*
X0206042Y0100090D01*
X0206098Y0099948D01*
X0206151Y0099804D01*
X0206200Y0099658D01*
X0206245Y0099512D01*
X0206286Y0099364D01*
X0206323Y0099216D01*
X0206357Y0099066D01*
X0206387Y0098915D01*
X0206412Y0098764D01*
X0206434Y0098613D01*
X0206452Y0098460D01*
X0206466Y0098308D01*
X0206476Y0098155D01*
X0206482Y0098001D01*
X0206484Y0097848D01*
X0206482Y0097695D01*
X0206476Y0097541D01*
X0206466Y0097388D01*
X0206452Y0097236D01*
X0206434Y0097083D01*
X0206412Y0096932D01*
X0206387Y0096781D01*
X0206357Y0096630D01*
X0206323Y0096480D01*
X0206286Y0096332D01*
X0206245Y0096184D01*
X0206200Y0096038D01*
X0206151Y0095892D01*
X0206098Y0095748D01*
X0206042Y0095606D01*
X0205982Y0095465D01*
X0205918Y0095325D01*
X0205851Y0095187D01*
X0205780Y0095051D01*
X0205705Y0094917D01*
X0205628Y0094785D01*
X0205546Y0094655D01*
X0205462Y0094527D01*
X0205374Y0094401D01*
X0205283Y0094278D01*
X0205189Y0094157D01*
X0205091Y0094039D01*
X0204991Y0093923D01*
X0204887Y0093810D01*
X0204781Y0093699D01*
X0204672Y0093591D01*
X0204560Y0093486D01*
X0204446Y0093385D01*
X0204328Y0093286D01*
X0204209Y0093190D01*
X0204087Y0093097D01*
X0203962Y0093008D01*
X0203835Y0092921D01*
X0203706Y0092839D01*
X0203575Y0092759D01*
X0203442Y0092683D01*
X0203307Y0092610D01*
X0203170Y0092541D01*
X0203031Y0092476D01*
X0202891Y0092414D01*
X0202749Y0092356D01*
X0202606Y0092301D01*
X0202461Y0092250D01*
X0202315Y0092203D01*
X0202168Y0092160D01*
X0202020Y0092121D01*
X0201871Y0092085D01*
X0201721Y0092054D01*
X0201570Y0092026D01*
X0201419Y0092002D01*
X0201266Y0091982D01*
X0201114Y0091966D01*
X0200961Y0091954D01*
X0200808Y0091946D01*
X0200655Y0091942D01*
X0200501Y0091942D01*
X0200348Y0091946D01*
X0200195Y0091954D01*
X0200042Y0091966D01*
X0199890Y0091982D01*
X0199737Y0092002D01*
X0199586Y0092026D01*
X0199435Y0092054D01*
X0199285Y0092085D01*
X0199136Y0092121D01*
X0198988Y0092160D01*
X0198841Y0092203D01*
X0198695Y0092250D01*
X0198550Y0092301D01*
X0198407Y0092356D01*
X0198265Y0092414D01*
X0198125Y0092476D01*
X0197986Y0092541D01*
X0197849Y0092610D01*
X0197714Y0092683D01*
X0197581Y0092759D01*
X0197450Y0092839D01*
X0197321Y0092921D01*
X0197194Y0093008D01*
X0197069Y0093097D01*
X0196947Y0093190D01*
X0196828Y0093286D01*
X0196710Y0093385D01*
X0196596Y0093486D01*
X0196484Y0093591D01*
X0196375Y0093699D01*
X0196269Y0093810D01*
X0196165Y0093923D01*
X0196065Y0094039D01*
X0195967Y0094157D01*
X0195873Y0094278D01*
X0195782Y0094401D01*
X0195694Y0094527D01*
X0195610Y0094655D01*
X0195528Y0094785D01*
X0195451Y0094917D01*
X0195376Y0095051D01*
X0195305Y0095187D01*
X0195238Y0095325D01*
X0195174Y0095465D01*
X0195114Y0095606D01*
X0195058Y0095748D01*
X0195005Y0095892D01*
X0194956Y0096038D01*
X0194911Y0096184D01*
X0194870Y0096332D01*
X0194833Y0096480D01*
X0194799Y0096630D01*
X0194769Y0096781D01*
X0194744Y0096932D01*
X0194722Y0097083D01*
X0194704Y0097236D01*
X0194690Y0097388D01*
X0194680Y0097541D01*
X0194674Y0097695D01*
X0194672Y0097848D01*
D13*
X0198910Y0157448D03*
D14*
X0208910Y0153202D03*
X0188910Y0153202D03*
D15*
X0188871Y0142336D03*
X0208950Y0142336D03*
D16*
X0211410Y0158487D02*
X0211410Y0161716D01*
X0206410Y0161716D02*
X0206410Y0158487D01*
X0193663Y0205869D02*
X0198860Y0208869D01*
X0198911Y0208901D01*
X0198961Y0208936D01*
X0199008Y0208973D01*
X0199053Y0209014D01*
X0199095Y0209057D01*
X0199135Y0209103D01*
X0199171Y0209150D01*
X0199205Y0209201D01*
X0199236Y0209253D01*
X0199263Y0209306D01*
X0199288Y0209362D01*
X0199309Y0209418D01*
X0199326Y0209476D01*
X0199340Y0209535D01*
X0199350Y0209594D01*
X0199357Y0209655D01*
X0199360Y0209715D01*
X0199359Y0209775D01*
X0199355Y0209836D01*
X0199347Y0209895D01*
X0199336Y0209955D01*
X0199321Y0210013D01*
X0199302Y0210071D01*
X0199280Y0210127D01*
X0199255Y0210182D01*
X0199226Y0210235D01*
X0190726Y0224957D01*
X0190693Y0225010D01*
X0190657Y0225062D01*
X0190617Y0225110D01*
X0190574Y0225157D01*
X0190529Y0225200D01*
X0190481Y0225241D01*
X0190431Y0225278D01*
X0190378Y0225312D01*
X0190323Y0225343D01*
X0190267Y0225371D01*
X0190209Y0225394D01*
X0190149Y0225414D01*
X0190088Y0225431D01*
X0190027Y0225443D01*
X0189965Y0225452D01*
X0189902Y0225456D01*
X0189839Y0225457D01*
X0189776Y0225453D01*
X0189714Y0225446D01*
X0189652Y0225435D01*
X0189591Y0225420D01*
X0189531Y0225401D01*
X0189472Y0225379D01*
X0189415Y0225353D01*
X0189360Y0225323D01*
X0184163Y0222323D01*
X0184112Y0222291D01*
X0184062Y0222256D01*
X0184015Y0222219D01*
X0183970Y0222178D01*
X0183928Y0222135D01*
X0183888Y0222089D01*
X0183852Y0222042D01*
X0183818Y0221991D01*
X0183787Y0221939D01*
X0183760Y0221886D01*
X0183735Y0221830D01*
X0183714Y0221774D01*
X0183697Y0221716D01*
X0183683Y0221657D01*
X0183673Y0221598D01*
X0183666Y0221537D01*
X0183663Y0221477D01*
X0183664Y0221417D01*
X0183668Y0221356D01*
X0183676Y0221297D01*
X0183687Y0221237D01*
X0183702Y0221179D01*
X0183721Y0221121D01*
X0183743Y0221065D01*
X0183768Y0221010D01*
X0183797Y0220957D01*
X0192297Y0206235D01*
X0192330Y0206182D01*
X0192366Y0206130D01*
X0192406Y0206082D01*
X0192449Y0206035D01*
X0192494Y0205992D01*
X0192542Y0205951D01*
X0192592Y0205914D01*
X0192645Y0205880D01*
X0192700Y0205849D01*
X0192756Y0205821D01*
X0192814Y0205798D01*
X0192874Y0205778D01*
X0192935Y0205761D01*
X0192996Y0205749D01*
X0193058Y0205740D01*
X0193121Y0205736D01*
X0193184Y0205735D01*
X0193247Y0205739D01*
X0193309Y0205746D01*
X0193371Y0205757D01*
X0193432Y0205772D01*
X0193492Y0205791D01*
X0193551Y0205813D01*
X0193608Y0205839D01*
X0193663Y0205869D01*
X0196012Y0207802D02*
X0195012Y0209534D01*
X0194110Y0217096D02*
X0194976Y0217596D01*
X0188913Y0214096D02*
X0188047Y0213596D01*
X0188012Y0221658D02*
X0187012Y0223390D01*
X0114660Y0184352D02*
X0114660Y0178352D01*
X0114658Y0178292D01*
X0114653Y0178231D01*
X0114644Y0178172D01*
X0114631Y0178113D01*
X0114615Y0178054D01*
X0114595Y0177997D01*
X0114572Y0177942D01*
X0114545Y0177887D01*
X0114516Y0177835D01*
X0114483Y0177784D01*
X0114447Y0177735D01*
X0114409Y0177689D01*
X0114367Y0177645D01*
X0114323Y0177603D01*
X0114277Y0177565D01*
X0114228Y0177529D01*
X0114177Y0177496D01*
X0114125Y0177467D01*
X0114070Y0177440D01*
X0114015Y0177417D01*
X0113958Y0177397D01*
X0113899Y0177381D01*
X0113840Y0177368D01*
X0113781Y0177359D01*
X0113720Y0177354D01*
X0113660Y0177352D01*
X0096660Y0177352D01*
X0096600Y0177354D01*
X0096539Y0177359D01*
X0096480Y0177368D01*
X0096421Y0177381D01*
X0096362Y0177397D01*
X0096305Y0177417D01*
X0096250Y0177440D01*
X0096195Y0177467D01*
X0096143Y0177496D01*
X0096092Y0177529D01*
X0096043Y0177565D01*
X0095997Y0177603D01*
X0095953Y0177645D01*
X0095911Y0177689D01*
X0095873Y0177735D01*
X0095837Y0177784D01*
X0095804Y0177835D01*
X0095775Y0177887D01*
X0095748Y0177942D01*
X0095725Y0177997D01*
X0095705Y0178054D01*
X0095689Y0178113D01*
X0095676Y0178172D01*
X0095667Y0178231D01*
X0095662Y0178292D01*
X0095660Y0178352D01*
X0095660Y0184352D01*
X0095662Y0184412D01*
X0095667Y0184473D01*
X0095676Y0184532D01*
X0095689Y0184591D01*
X0095705Y0184650D01*
X0095725Y0184707D01*
X0095748Y0184762D01*
X0095775Y0184817D01*
X0095804Y0184869D01*
X0095837Y0184920D01*
X0095873Y0184969D01*
X0095911Y0185015D01*
X0095953Y0185059D01*
X0095997Y0185101D01*
X0096043Y0185139D01*
X0096092Y0185175D01*
X0096143Y0185208D01*
X0096195Y0185237D01*
X0096250Y0185264D01*
X0096305Y0185287D01*
X0096362Y0185307D01*
X0096421Y0185323D01*
X0096480Y0185336D01*
X0096539Y0185345D01*
X0096600Y0185350D01*
X0096660Y0185352D01*
X0113660Y0185352D01*
X0113720Y0185350D01*
X0113781Y0185345D01*
X0113840Y0185336D01*
X0113899Y0185323D01*
X0113958Y0185307D01*
X0114015Y0185287D01*
X0114070Y0185264D01*
X0114125Y0185237D01*
X0114177Y0185208D01*
X0114228Y0185175D01*
X0114277Y0185139D01*
X0114323Y0185101D01*
X0114367Y0185059D01*
X0114409Y0185015D01*
X0114447Y0184969D01*
X0114483Y0184920D01*
X0114516Y0184869D01*
X0114545Y0184817D01*
X0114572Y0184762D01*
X0114595Y0184707D01*
X0114615Y0184650D01*
X0114631Y0184591D01*
X0114644Y0184532D01*
X0114653Y0184473D01*
X0114658Y0184412D01*
X0114660Y0184352D01*
X0114160Y0181352D02*
X0112160Y0181352D01*
X0105160Y0184352D02*
X0105160Y0185352D01*
X0105160Y0178352D02*
X0105160Y0177352D01*
X0098160Y0181352D02*
X0096160Y0181352D01*
D17*
X0208916Y0162981D03*
X0208916Y0157181D03*
D18*
X0204909Y0269108D02*
X0204911Y0269269D01*
X0204917Y0269429D01*
X0204927Y0269590D01*
X0204941Y0269750D01*
X0204959Y0269909D01*
X0204980Y0270069D01*
X0205006Y0270227D01*
X0205036Y0270385D01*
X0205069Y0270542D01*
X0205107Y0270699D01*
X0205148Y0270854D01*
X0205193Y0271008D01*
X0205242Y0271161D01*
X0205295Y0271313D01*
X0205351Y0271463D01*
X0205411Y0271612D01*
X0205475Y0271760D01*
X0205542Y0271906D01*
X0205613Y0272050D01*
X0205688Y0272192D01*
X0205766Y0272333D01*
X0205847Y0272471D01*
X0205932Y0272608D01*
X0206021Y0272742D01*
X0206112Y0272874D01*
X0206207Y0273004D01*
X0206305Y0273131D01*
X0206406Y0273256D01*
X0206510Y0273379D01*
X0206617Y0273498D01*
X0206727Y0273615D01*
X0206840Y0273730D01*
X0206956Y0273841D01*
X0207074Y0273950D01*
X0207195Y0274055D01*
X0207319Y0274158D01*
X0207445Y0274258D01*
X0207574Y0274354D01*
X0207705Y0274447D01*
X0207838Y0274537D01*
X0207973Y0274624D01*
X0208111Y0274707D01*
X0208250Y0274786D01*
X0208392Y0274863D01*
X0208535Y0274936D01*
X0208680Y0275005D01*
X0208827Y0275070D01*
X0208975Y0275132D01*
X0209125Y0275191D01*
X0209276Y0275245D01*
X0209428Y0275296D01*
X0209582Y0275343D01*
X0209737Y0275386D01*
X0209892Y0275425D01*
X0210049Y0275461D01*
X0210207Y0275493D01*
X0210365Y0275520D01*
X0210524Y0275544D01*
X0210683Y0275564D01*
X0210843Y0275580D01*
X0211004Y0275592D01*
X0211164Y0275600D01*
X0211325Y0275604D01*
X0211485Y0275604D01*
X0211646Y0275600D01*
X0211806Y0275592D01*
X0211967Y0275580D01*
X0212127Y0275564D01*
X0212286Y0275544D01*
X0212445Y0275520D01*
X0212603Y0275493D01*
X0212761Y0275461D01*
X0212918Y0275425D01*
X0213073Y0275386D01*
X0213228Y0275343D01*
X0213382Y0275296D01*
X0213534Y0275245D01*
X0213685Y0275191D01*
X0213835Y0275132D01*
X0213983Y0275070D01*
X0214130Y0275005D01*
X0214275Y0274936D01*
X0214418Y0274863D01*
X0214560Y0274786D01*
X0214699Y0274707D01*
X0214837Y0274624D01*
X0214972Y0274537D01*
X0215105Y0274447D01*
X0215236Y0274354D01*
X0215365Y0274258D01*
X0215491Y0274158D01*
X0215615Y0274055D01*
X0215736Y0273950D01*
X0215854Y0273841D01*
X0215970Y0273730D01*
X0216083Y0273615D01*
X0216193Y0273498D01*
X0216300Y0273379D01*
X0216404Y0273256D01*
X0216505Y0273131D01*
X0216603Y0273004D01*
X0216698Y0272874D01*
X0216789Y0272742D01*
X0216878Y0272608D01*
X0216963Y0272471D01*
X0217044Y0272333D01*
X0217122Y0272192D01*
X0217197Y0272050D01*
X0217268Y0271906D01*
X0217335Y0271760D01*
X0217399Y0271612D01*
X0217459Y0271463D01*
X0217515Y0271313D01*
X0217568Y0271161D01*
X0217617Y0271008D01*
X0217662Y0270854D01*
X0217703Y0270699D01*
X0217741Y0270542D01*
X0217774Y0270385D01*
X0217804Y0270227D01*
X0217830Y0270069D01*
X0217851Y0269909D01*
X0217869Y0269750D01*
X0217883Y0269590D01*
X0217893Y0269429D01*
X0217899Y0269269D01*
X0217901Y0269108D01*
X0217899Y0268947D01*
X0217893Y0268787D01*
X0217883Y0268626D01*
X0217869Y0268466D01*
X0217851Y0268307D01*
X0217830Y0268147D01*
X0217804Y0267989D01*
X0217774Y0267831D01*
X0217741Y0267674D01*
X0217703Y0267517D01*
X0217662Y0267362D01*
X0217617Y0267208D01*
X0217568Y0267055D01*
X0217515Y0266903D01*
X0217459Y0266753D01*
X0217399Y0266604D01*
X0217335Y0266456D01*
X0217268Y0266310D01*
X0217197Y0266166D01*
X0217122Y0266024D01*
X0217044Y0265883D01*
X0216963Y0265745D01*
X0216878Y0265608D01*
X0216789Y0265474D01*
X0216698Y0265342D01*
X0216603Y0265212D01*
X0216505Y0265085D01*
X0216404Y0264960D01*
X0216300Y0264837D01*
X0216193Y0264718D01*
X0216083Y0264601D01*
X0215970Y0264486D01*
X0215854Y0264375D01*
X0215736Y0264266D01*
X0215615Y0264161D01*
X0215491Y0264058D01*
X0215365Y0263958D01*
X0215236Y0263862D01*
X0215105Y0263769D01*
X0214972Y0263679D01*
X0214837Y0263592D01*
X0214699Y0263509D01*
X0214560Y0263430D01*
X0214418Y0263353D01*
X0214275Y0263280D01*
X0214130Y0263211D01*
X0213983Y0263146D01*
X0213835Y0263084D01*
X0213685Y0263025D01*
X0213534Y0262971D01*
X0213382Y0262920D01*
X0213228Y0262873D01*
X0213073Y0262830D01*
X0212918Y0262791D01*
X0212761Y0262755D01*
X0212603Y0262723D01*
X0212445Y0262696D01*
X0212286Y0262672D01*
X0212127Y0262652D01*
X0211967Y0262636D01*
X0211806Y0262624D01*
X0211646Y0262616D01*
X0211485Y0262612D01*
X0211325Y0262612D01*
X0211164Y0262616D01*
X0211004Y0262624D01*
X0210843Y0262636D01*
X0210683Y0262652D01*
X0210524Y0262672D01*
X0210365Y0262696D01*
X0210207Y0262723D01*
X0210049Y0262755D01*
X0209892Y0262791D01*
X0209737Y0262830D01*
X0209582Y0262873D01*
X0209428Y0262920D01*
X0209276Y0262971D01*
X0209125Y0263025D01*
X0208975Y0263084D01*
X0208827Y0263146D01*
X0208680Y0263211D01*
X0208535Y0263280D01*
X0208392Y0263353D01*
X0208250Y0263430D01*
X0208111Y0263509D01*
X0207973Y0263592D01*
X0207838Y0263679D01*
X0207705Y0263769D01*
X0207574Y0263862D01*
X0207445Y0263958D01*
X0207319Y0264058D01*
X0207195Y0264161D01*
X0207074Y0264266D01*
X0206956Y0264375D01*
X0206840Y0264486D01*
X0206727Y0264601D01*
X0206617Y0264718D01*
X0206510Y0264837D01*
X0206406Y0264960D01*
X0206305Y0265085D01*
X0206207Y0265212D01*
X0206112Y0265342D01*
X0206021Y0265474D01*
X0205932Y0265608D01*
X0205847Y0265745D01*
X0205766Y0265883D01*
X0205688Y0266024D01*
X0205613Y0266166D01*
X0205542Y0266310D01*
X0205475Y0266456D01*
X0205411Y0266604D01*
X0205351Y0266753D01*
X0205295Y0266903D01*
X0205242Y0267055D01*
X0205193Y0267208D01*
X0205148Y0267362D01*
X0205107Y0267517D01*
X0205069Y0267674D01*
X0205036Y0267831D01*
X0205006Y0267989D01*
X0204980Y0268147D01*
X0204959Y0268307D01*
X0204941Y0268466D01*
X0204927Y0268626D01*
X0204917Y0268787D01*
X0204911Y0268947D01*
X0204909Y0269108D01*
X0053334Y0269108D02*
X0053336Y0269269D01*
X0053342Y0269429D01*
X0053352Y0269590D01*
X0053366Y0269750D01*
X0053384Y0269909D01*
X0053405Y0270069D01*
X0053431Y0270227D01*
X0053461Y0270385D01*
X0053494Y0270542D01*
X0053532Y0270699D01*
X0053573Y0270854D01*
X0053618Y0271008D01*
X0053667Y0271161D01*
X0053720Y0271313D01*
X0053776Y0271463D01*
X0053836Y0271612D01*
X0053900Y0271760D01*
X0053967Y0271906D01*
X0054038Y0272050D01*
X0054113Y0272192D01*
X0054191Y0272333D01*
X0054272Y0272471D01*
X0054357Y0272608D01*
X0054446Y0272742D01*
X0054537Y0272874D01*
X0054632Y0273004D01*
X0054730Y0273131D01*
X0054831Y0273256D01*
X0054935Y0273379D01*
X0055042Y0273498D01*
X0055152Y0273615D01*
X0055265Y0273730D01*
X0055381Y0273841D01*
X0055499Y0273950D01*
X0055620Y0274055D01*
X0055744Y0274158D01*
X0055870Y0274258D01*
X0055999Y0274354D01*
X0056130Y0274447D01*
X0056263Y0274537D01*
X0056398Y0274624D01*
X0056536Y0274707D01*
X0056675Y0274786D01*
X0056817Y0274863D01*
X0056960Y0274936D01*
X0057105Y0275005D01*
X0057252Y0275070D01*
X0057400Y0275132D01*
X0057550Y0275191D01*
X0057701Y0275245D01*
X0057853Y0275296D01*
X0058007Y0275343D01*
X0058162Y0275386D01*
X0058317Y0275425D01*
X0058474Y0275461D01*
X0058632Y0275493D01*
X0058790Y0275520D01*
X0058949Y0275544D01*
X0059108Y0275564D01*
X0059268Y0275580D01*
X0059429Y0275592D01*
X0059589Y0275600D01*
X0059750Y0275604D01*
X0059910Y0275604D01*
X0060071Y0275600D01*
X0060231Y0275592D01*
X0060392Y0275580D01*
X0060552Y0275564D01*
X0060711Y0275544D01*
X0060870Y0275520D01*
X0061028Y0275493D01*
X0061186Y0275461D01*
X0061343Y0275425D01*
X0061498Y0275386D01*
X0061653Y0275343D01*
X0061807Y0275296D01*
X0061959Y0275245D01*
X0062110Y0275191D01*
X0062260Y0275132D01*
X0062408Y0275070D01*
X0062555Y0275005D01*
X0062700Y0274936D01*
X0062843Y0274863D01*
X0062985Y0274786D01*
X0063124Y0274707D01*
X0063262Y0274624D01*
X0063397Y0274537D01*
X0063530Y0274447D01*
X0063661Y0274354D01*
X0063790Y0274258D01*
X0063916Y0274158D01*
X0064040Y0274055D01*
X0064161Y0273950D01*
X0064279Y0273841D01*
X0064395Y0273730D01*
X0064508Y0273615D01*
X0064618Y0273498D01*
X0064725Y0273379D01*
X0064829Y0273256D01*
X0064930Y0273131D01*
X0065028Y0273004D01*
X0065123Y0272874D01*
X0065214Y0272742D01*
X0065303Y0272608D01*
X0065388Y0272471D01*
X0065469Y0272333D01*
X0065547Y0272192D01*
X0065622Y0272050D01*
X0065693Y0271906D01*
X0065760Y0271760D01*
X0065824Y0271612D01*
X0065884Y0271463D01*
X0065940Y0271313D01*
X0065993Y0271161D01*
X0066042Y0271008D01*
X0066087Y0270854D01*
X0066128Y0270699D01*
X0066166Y0270542D01*
X0066199Y0270385D01*
X0066229Y0270227D01*
X0066255Y0270069D01*
X0066276Y0269909D01*
X0066294Y0269750D01*
X0066308Y0269590D01*
X0066318Y0269429D01*
X0066324Y0269269D01*
X0066326Y0269108D01*
X0066324Y0268947D01*
X0066318Y0268787D01*
X0066308Y0268626D01*
X0066294Y0268466D01*
X0066276Y0268307D01*
X0066255Y0268147D01*
X0066229Y0267989D01*
X0066199Y0267831D01*
X0066166Y0267674D01*
X0066128Y0267517D01*
X0066087Y0267362D01*
X0066042Y0267208D01*
X0065993Y0267055D01*
X0065940Y0266903D01*
X0065884Y0266753D01*
X0065824Y0266604D01*
X0065760Y0266456D01*
X0065693Y0266310D01*
X0065622Y0266166D01*
X0065547Y0266024D01*
X0065469Y0265883D01*
X0065388Y0265745D01*
X0065303Y0265608D01*
X0065214Y0265474D01*
X0065123Y0265342D01*
X0065028Y0265212D01*
X0064930Y0265085D01*
X0064829Y0264960D01*
X0064725Y0264837D01*
X0064618Y0264718D01*
X0064508Y0264601D01*
X0064395Y0264486D01*
X0064279Y0264375D01*
X0064161Y0264266D01*
X0064040Y0264161D01*
X0063916Y0264058D01*
X0063790Y0263958D01*
X0063661Y0263862D01*
X0063530Y0263769D01*
X0063397Y0263679D01*
X0063262Y0263592D01*
X0063124Y0263509D01*
X0062985Y0263430D01*
X0062843Y0263353D01*
X0062700Y0263280D01*
X0062555Y0263211D01*
X0062408Y0263146D01*
X0062260Y0263084D01*
X0062110Y0263025D01*
X0061959Y0262971D01*
X0061807Y0262920D01*
X0061653Y0262873D01*
X0061498Y0262830D01*
X0061343Y0262791D01*
X0061186Y0262755D01*
X0061028Y0262723D01*
X0060870Y0262696D01*
X0060711Y0262672D01*
X0060552Y0262652D01*
X0060392Y0262636D01*
X0060231Y0262624D01*
X0060071Y0262616D01*
X0059910Y0262612D01*
X0059750Y0262612D01*
X0059589Y0262616D01*
X0059429Y0262624D01*
X0059268Y0262636D01*
X0059108Y0262652D01*
X0058949Y0262672D01*
X0058790Y0262696D01*
X0058632Y0262723D01*
X0058474Y0262755D01*
X0058317Y0262791D01*
X0058162Y0262830D01*
X0058007Y0262873D01*
X0057853Y0262920D01*
X0057701Y0262971D01*
X0057550Y0263025D01*
X0057400Y0263084D01*
X0057252Y0263146D01*
X0057105Y0263211D01*
X0056960Y0263280D01*
X0056817Y0263353D01*
X0056675Y0263430D01*
X0056536Y0263509D01*
X0056398Y0263592D01*
X0056263Y0263679D01*
X0056130Y0263769D01*
X0055999Y0263862D01*
X0055870Y0263958D01*
X0055744Y0264058D01*
X0055620Y0264161D01*
X0055499Y0264266D01*
X0055381Y0264375D01*
X0055265Y0264486D01*
X0055152Y0264601D01*
X0055042Y0264718D01*
X0054935Y0264837D01*
X0054831Y0264960D01*
X0054730Y0265085D01*
X0054632Y0265212D01*
X0054537Y0265342D01*
X0054446Y0265474D01*
X0054357Y0265608D01*
X0054272Y0265745D01*
X0054191Y0265883D01*
X0054113Y0266024D01*
X0054038Y0266166D01*
X0053967Y0266310D01*
X0053900Y0266456D01*
X0053836Y0266604D01*
X0053776Y0266753D01*
X0053720Y0266903D01*
X0053667Y0267055D01*
X0053618Y0267208D01*
X0053573Y0267362D01*
X0053532Y0267517D01*
X0053494Y0267674D01*
X0053461Y0267831D01*
X0053431Y0267989D01*
X0053405Y0268147D01*
X0053384Y0268307D01*
X0053366Y0268466D01*
X0053352Y0268626D01*
X0053342Y0268787D01*
X0053336Y0268947D01*
X0053334Y0269108D01*
D19*
X0105160Y0181352D03*
G36*
X0189914Y0212364D02*
X0187914Y0215828D01*
X0193110Y0218828D01*
X0195110Y0215364D01*
X0189914Y0212364D01*
G37*
D20*
X0152409Y0169196D03*
D21*
X0153285Y0165062D03*
X0150785Y0165062D03*
X0148285Y0165062D03*
X0145785Y0165062D03*
X0143285Y0165062D03*
X0140785Y0165062D03*
X0138285Y0165062D03*
X0135785Y0165062D03*
X0135785Y0185141D03*
X0138285Y0185141D03*
X0140785Y0185141D03*
X0143285Y0185141D03*
X0145785Y0185141D03*
X0148285Y0185141D03*
X0150785Y0185141D03*
X0153285Y0185141D03*
M02*
