G75*
%MOIN*%
%OFA0B0*%
%FSLAX25Y25*%
%IPPOS*%
%LPD*%
%AMOC8*
5,1,8,0,0,1.08239X$1,22.5*
%
%ADD10C,0.00400*%
%ADD11R,0.02756X0.03543*%
%ADD12R,0.03543X0.02756*%
%ADD13R,0.02756X0.03937*%
%ADD14R,0.03937X0.04331*%
%ADD15R,0.05000X0.02200*%
%ADD16R,0.02200X0.05000*%
%ADD17R,0.08504X0.07008*%
%ADD18R,0.03150X0.03150*%
%ADD19R,0.11024X0.04724*%
%ADD20R,0.04331X0.03937*%
%ADD21R,0.02362X0.03543*%
%ADD22R,0.04724X0.05512*%
%ADD23R,0.05906X0.05118*%
%ADD24R,0.10630X0.06299*%
%ADD25R,0.05906X0.08268*%
%ADD26R,0.09449X0.07087*%
%ADD27R,0.03937X0.05512*%
%ADD28R,0.02362X0.08661*%
%ADD29R,0.05906X0.01378*%
%ADD30R,0.01378X0.05906*%
%ADD31C,0.07677*%
%ADD32R,0.02756X0.01181*%
%ADD33R,0.05512X0.03937*%
%ADD34R,0.01181X0.02362*%
%ADD35R,0.02362X0.01181*%
%ADD36R,0.12992X0.12992*%
%ADD37OC8,0.06000*%
%ADD38R,0.05118X0.05906*%
%ADD39R,0.01575X0.03150*%
%ADD40C,0.02800*%
%ADD41C,0.00800*%
%ADD42C,0.01000*%
%ADD43C,0.01200*%
%ADD44C,0.01600*%
%ADD45C,0.00600*%
%ADD46C,0.02000*%
%ADD47C,0.03000*%
%ADD48C,0.05000*%
D10*
X0074252Y0267802D02*
X0073485Y0268569D01*
X0073485Y0270104D01*
X0074252Y0270871D01*
X0075787Y0270871D01*
X0076554Y0270104D01*
X0076554Y0268569D01*
X0075787Y0267802D01*
X0074252Y0267802D01*
X0078089Y0268569D02*
X0078089Y0270104D01*
X0078856Y0270871D01*
X0080391Y0270871D01*
X0081158Y0270104D01*
X0081158Y0269336D01*
X0078089Y0269336D01*
X0078089Y0268569D02*
X0078856Y0267802D01*
X0080391Y0267802D01*
X0082693Y0267802D02*
X0084228Y0267802D01*
X0083460Y0267802D02*
X0083460Y0272406D01*
X0082693Y0272406D01*
X0085762Y0270871D02*
X0088064Y0270871D01*
X0088832Y0270104D01*
X0088832Y0268569D01*
X0088064Y0267802D01*
X0085762Y0267802D01*
X0085762Y0266267D02*
X0085762Y0270871D01*
X0090366Y0270871D02*
X0090366Y0267802D01*
X0090366Y0269336D02*
X0091901Y0270871D01*
X0092668Y0270871D01*
X0094203Y0270871D02*
X0094970Y0270871D01*
X0094970Y0267802D01*
X0094203Y0267802D02*
X0095737Y0267802D01*
X0097272Y0267802D02*
X0097272Y0270871D01*
X0099574Y0270871D01*
X0100341Y0270104D01*
X0100341Y0267802D01*
X0101876Y0267802D02*
X0104945Y0267802D01*
X0106480Y0267802D02*
X0107247Y0267802D01*
X0107247Y0268569D01*
X0106480Y0268569D01*
X0106480Y0267802D01*
X0108782Y0268569D02*
X0108782Y0270104D01*
X0109549Y0270871D01*
X0111084Y0270871D01*
X0111851Y0270104D01*
X0111851Y0268569D01*
X0111084Y0267802D01*
X0109549Y0267802D01*
X0108782Y0268569D01*
X0104945Y0270871D02*
X0101876Y0267802D01*
X0101876Y0270871D02*
X0104945Y0270871D01*
X0113386Y0270871D02*
X0113386Y0267802D01*
X0113386Y0269336D02*
X0114920Y0270871D01*
X0115688Y0270871D01*
X0117222Y0270104D02*
X0117222Y0268569D01*
X0117990Y0267802D01*
X0120292Y0267802D01*
X0120292Y0267034D02*
X0120292Y0270871D01*
X0117990Y0270871D01*
X0117222Y0270104D01*
X0118757Y0266267D02*
X0119524Y0266267D01*
X0120292Y0267034D01*
X0094970Y0272406D02*
X0094970Y0273173D01*
D11*
X0104476Y0196352D03*
X0109594Y0196352D03*
X0097094Y0182602D03*
X0097094Y0178227D03*
X0091976Y0178227D03*
X0091976Y0182602D03*
X0084594Y0182602D03*
X0084594Y0178227D03*
X0079476Y0178227D03*
X0079476Y0182602D03*
X0072094Y0182602D03*
X0072094Y0178227D03*
X0066976Y0178227D03*
X0066976Y0182602D03*
X0062719Y0178227D03*
X0057601Y0178227D03*
X0055726Y0173227D03*
X0060844Y0173227D03*
X0065101Y0168852D03*
X0070219Y0168852D03*
X0075101Y0173227D03*
X0080219Y0173227D03*
X0081351Y0168852D03*
X0086469Y0168852D03*
X0091976Y0168852D03*
X0097094Y0168852D03*
X0104476Y0170727D03*
X0104476Y0175102D03*
X0109594Y0175102D03*
X0109594Y0170727D03*
X0110219Y0160727D03*
X0110219Y0156352D03*
X0108851Y0151977D03*
X0108226Y0147602D03*
X0105726Y0143227D03*
X0105726Y0138852D03*
X0105726Y0134477D03*
X0106976Y0130102D03*
X0110844Y0134477D03*
X0112094Y0130102D03*
X0110844Y0138852D03*
X0110844Y0143227D03*
X0113344Y0147602D03*
X0113969Y0151977D03*
X0116976Y0156352D03*
X0116976Y0160727D03*
X0122094Y0160727D03*
X0122094Y0156352D03*
X0129476Y0156352D03*
X0129476Y0160727D03*
X0134594Y0160727D03*
X0134594Y0156352D03*
X0140101Y0148852D03*
X0140101Y0144477D03*
X0145219Y0144477D03*
X0145219Y0148852D03*
X0145219Y0138227D03*
X0145219Y0133852D03*
X0145219Y0129477D03*
X0145219Y0125102D03*
X0140101Y0125102D03*
X0140101Y0129477D03*
X0140101Y0133852D03*
X0140101Y0138227D03*
X0112719Y0121352D03*
X0107601Y0121352D03*
X0107601Y0101352D03*
X0107601Y0096977D03*
X0107601Y0092602D03*
X0107601Y0088227D03*
X0112719Y0088227D03*
X0112719Y0092602D03*
X0112719Y0096977D03*
X0112719Y0101352D03*
X0140101Y0085727D03*
X0145219Y0085727D03*
X0150101Y0070727D03*
X0155219Y0070727D03*
X0167601Y0070102D03*
X0172719Y0070102D03*
X0176976Y0065727D03*
X0176976Y0061352D03*
X0178851Y0056977D03*
X0183969Y0056977D03*
X0182094Y0061352D03*
X0182094Y0065727D03*
X0184594Y0070102D03*
X0179476Y0070102D03*
X0163344Y0056977D03*
X0158226Y0056977D03*
X0105219Y0056977D03*
X0100101Y0056977D03*
X0060219Y0091352D03*
X0060219Y0095727D03*
X0060219Y0100102D03*
X0060219Y0104477D03*
X0060219Y0108852D03*
X0060219Y0113227D03*
X0057719Y0117602D03*
X0055101Y0113227D03*
X0052601Y0117602D03*
X0055101Y0108852D03*
X0055101Y0104477D03*
X0055101Y0100102D03*
X0055101Y0095727D03*
X0055101Y0091352D03*
X0056469Y0137602D03*
X0056469Y0141977D03*
X0056469Y0146352D03*
X0056469Y0150727D03*
X0056469Y0155102D03*
X0051351Y0155102D03*
X0051351Y0150727D03*
X0051351Y0146352D03*
X0051351Y0141977D03*
X0051351Y0137602D03*
X0105101Y0156352D03*
X0105101Y0160727D03*
X0140726Y0175727D03*
X0145844Y0175727D03*
X0146976Y0183227D03*
X0152094Y0183227D03*
X0194476Y0150102D03*
X0195726Y0145727D03*
X0200844Y0145727D03*
X0199594Y0150102D03*
X0209476Y0145727D03*
X0214594Y0145727D03*
X0214476Y0150102D03*
X0219594Y0150102D03*
D12*
X0189535Y0150161D03*
X0185160Y0150161D03*
X0185160Y0145043D03*
X0189535Y0145043D03*
X0178285Y0155668D03*
X0178285Y0160786D03*
X0173910Y0160786D03*
X0173910Y0155668D03*
X0169535Y0155668D03*
X0165160Y0155668D03*
X0165160Y0160786D03*
X0169535Y0160786D03*
X0160785Y0160786D03*
X0160785Y0155668D03*
X0156410Y0155668D03*
X0156410Y0160786D03*
X0156410Y0168793D03*
X0156410Y0173911D03*
X0156410Y0179418D03*
X0156410Y0184536D03*
X0162660Y0190668D03*
X0162660Y0195786D03*
X0177035Y0196411D03*
X0177035Y0191293D03*
X0155160Y0147661D03*
X0155160Y0142543D03*
X0140785Y0120786D03*
X0145160Y0117036D03*
X0140785Y0115668D03*
X0145160Y0111918D03*
X0145785Y0104536D03*
X0145785Y0099418D03*
X0112035Y0072036D03*
X0112035Y0066918D03*
X0064535Y0081293D03*
X0064535Y0086411D03*
X0100785Y0134418D03*
X0100785Y0139536D03*
X0100785Y0146918D03*
X0100785Y0152036D03*
X0100785Y0157543D03*
X0100785Y0162661D03*
X0060785Y0197543D03*
X0055785Y0197543D03*
X0055785Y0202661D03*
X0060785Y0202661D03*
X0050160Y0205043D03*
X0050160Y0210161D03*
X0050160Y0218793D03*
X0050160Y0223911D03*
X0050160Y0228168D03*
X0050160Y0233286D03*
X0220785Y0233286D03*
X0220785Y0228168D03*
X0220785Y0223911D03*
X0220785Y0218793D03*
X0220785Y0107036D03*
X0220785Y0101918D03*
X0220785Y0093286D03*
X0220785Y0088168D03*
X0220785Y0083911D03*
X0220785Y0078793D03*
X0220785Y0074536D03*
X0220785Y0069418D03*
X0220785Y0062661D03*
X0220785Y0057543D03*
D13*
X0059525Y0085682D03*
X0052045Y0085682D03*
X0055785Y0077021D03*
D14*
X0058507Y0123227D03*
X0058507Y0129477D03*
X0051814Y0129477D03*
X0051814Y0123227D03*
X0054939Y0163852D03*
X0061632Y0163852D03*
X0098689Y0078227D03*
X0105382Y0078227D03*
X0157660Y0189880D03*
X0157660Y0196573D03*
D15*
X0095185Y0157375D03*
X0095185Y0154226D03*
X0095185Y0151076D03*
X0095185Y0147926D03*
X0095185Y0144777D03*
X0095185Y0141627D03*
X0095185Y0138478D03*
X0095185Y0135328D03*
X0100185Y0114250D03*
X0100185Y0111101D03*
X0100185Y0107951D03*
X0100185Y0104801D03*
X0100185Y0101652D03*
X0100185Y0098502D03*
X0100185Y0095353D03*
X0100185Y0092203D03*
X0066385Y0092203D03*
X0066385Y0095353D03*
X0066385Y0098502D03*
X0066385Y0101652D03*
X0066385Y0104801D03*
X0066385Y0107951D03*
X0066385Y0111101D03*
X0066385Y0114250D03*
X0061385Y0135328D03*
X0061385Y0138478D03*
X0061385Y0141627D03*
X0061385Y0144777D03*
X0061385Y0147926D03*
X0061385Y0151076D03*
X0061385Y0154226D03*
X0061385Y0157375D03*
D16*
X0067262Y0163252D03*
X0070411Y0163252D03*
X0073561Y0163252D03*
X0076710Y0163252D03*
X0079860Y0163252D03*
X0083010Y0163252D03*
X0086159Y0163252D03*
X0089309Y0163252D03*
X0089309Y0129452D03*
X0086159Y0129452D03*
X0083010Y0129452D03*
X0079860Y0129452D03*
X0076710Y0129452D03*
X0073561Y0129452D03*
X0070411Y0129452D03*
X0067262Y0129452D03*
X0072262Y0120127D03*
X0075411Y0120127D03*
X0078561Y0120127D03*
X0081710Y0120127D03*
X0084860Y0120127D03*
X0088010Y0120127D03*
X0091159Y0120127D03*
X0094309Y0120127D03*
X0094309Y0086327D03*
X0091159Y0086327D03*
X0088010Y0086327D03*
X0084860Y0086327D03*
X0081710Y0086327D03*
X0078561Y0086327D03*
X0075411Y0086327D03*
X0072262Y0086327D03*
D17*
X0080785Y0073758D03*
X0080785Y0057735D03*
D18*
X0167207Y0056977D03*
X0167207Y0061352D03*
X0167207Y0065727D03*
X0173113Y0065727D03*
X0173113Y0061352D03*
X0173113Y0056977D03*
D19*
X0053910Y0057356D03*
X0053910Y0070348D03*
D20*
X0092035Y0072380D03*
X0092035Y0079073D03*
D21*
X0099545Y0071504D03*
X0103285Y0071504D03*
X0107025Y0071504D03*
X0107025Y0062449D03*
X0103285Y0062449D03*
X0099545Y0062449D03*
D22*
X0106814Y0107021D03*
X0113507Y0107021D03*
X0113507Y0115682D03*
X0106814Y0115682D03*
X0138689Y0080057D03*
X0145382Y0080057D03*
X0145382Y0071396D03*
X0138689Y0071396D03*
D23*
X0130160Y0073217D03*
X0130160Y0065737D03*
X0092660Y0065092D03*
X0092660Y0057612D03*
X0142660Y0188862D03*
X0142660Y0196342D03*
X0150785Y0196342D03*
X0150785Y0188862D03*
X0183910Y0189255D03*
X0183910Y0195948D03*
X0190785Y0196342D03*
X0190785Y0188862D03*
X0201410Y0188862D03*
X0201410Y0196342D03*
X0209535Y0196342D03*
X0209535Y0188862D03*
X0217660Y0188862D03*
X0217660Y0196342D03*
D24*
X0120160Y0077488D03*
X0120160Y0066465D03*
D25*
X0114324Y0058227D03*
X0128497Y0058227D03*
X0131622Y0184477D03*
X0131622Y0194477D03*
X0117449Y0194477D03*
X0117449Y0184477D03*
X0065997Y0242602D03*
X0051824Y0242602D03*
X0205574Y0242602D03*
X0219747Y0242602D03*
D26*
X0066410Y0073699D03*
X0066410Y0057754D03*
D27*
X0115795Y0166396D03*
X0123275Y0166396D03*
X0128295Y0166396D03*
X0135775Y0166396D03*
X0132035Y0175057D03*
X0119535Y0175057D03*
X0110775Y0180771D03*
X0103295Y0180771D03*
X0098275Y0188271D03*
X0090795Y0188271D03*
X0085775Y0188271D03*
X0078295Y0188271D03*
X0073275Y0188271D03*
X0065795Y0188271D03*
X0060775Y0183271D03*
X0057035Y0191932D03*
X0053295Y0183271D03*
X0069535Y0196932D03*
X0063275Y0208271D03*
X0055795Y0208271D03*
X0059535Y0216932D03*
X0082035Y0196932D03*
X0094535Y0196932D03*
X0107035Y0189432D03*
D28*
X0184535Y0179088D03*
X0189535Y0179088D03*
X0194535Y0179088D03*
X0199535Y0179088D03*
X0204535Y0179088D03*
X0209535Y0179088D03*
X0214535Y0179088D03*
X0219535Y0179088D03*
X0219535Y0158615D03*
X0214535Y0158615D03*
X0209535Y0158615D03*
X0204535Y0158615D03*
X0199535Y0158615D03*
X0194535Y0158615D03*
X0189535Y0158615D03*
X0184535Y0158615D03*
D29*
X0214781Y0131224D03*
X0214781Y0129255D03*
X0214781Y0127287D03*
X0214781Y0125318D03*
X0214781Y0123350D03*
X0214781Y0121381D03*
X0214781Y0119413D03*
X0214781Y0117444D03*
X0214781Y0115476D03*
X0214781Y0113507D03*
X0214781Y0111539D03*
X0214781Y0109570D03*
X0214781Y0107602D03*
X0214781Y0105633D03*
X0214781Y0103665D03*
X0214781Y0101696D03*
X0214781Y0099728D03*
X0214781Y0097759D03*
X0214781Y0095791D03*
X0214781Y0093822D03*
X0214781Y0091854D03*
X0214781Y0089885D03*
X0214781Y0087917D03*
X0214781Y0085948D03*
X0214781Y0083980D03*
X0151789Y0083980D03*
X0151789Y0085948D03*
X0151789Y0087917D03*
X0151789Y0089885D03*
X0151789Y0091854D03*
X0151789Y0093822D03*
X0151789Y0095791D03*
X0151789Y0097759D03*
X0151789Y0099728D03*
X0151789Y0101696D03*
X0151789Y0103665D03*
X0151789Y0105633D03*
X0151789Y0107602D03*
X0151789Y0109570D03*
X0151789Y0111539D03*
X0151789Y0113507D03*
X0151789Y0115476D03*
X0151789Y0117444D03*
X0151789Y0119413D03*
X0151789Y0121381D03*
X0151789Y0123350D03*
X0151789Y0125318D03*
X0151789Y0127287D03*
X0151789Y0129255D03*
X0151789Y0131224D03*
D30*
X0159663Y0139098D03*
X0161632Y0139098D03*
X0163600Y0139098D03*
X0165569Y0139098D03*
X0167537Y0139098D03*
X0169506Y0139098D03*
X0171474Y0139098D03*
X0173443Y0139098D03*
X0175411Y0139098D03*
X0177380Y0139098D03*
X0179348Y0139098D03*
X0181317Y0139098D03*
X0183285Y0139098D03*
X0185254Y0139098D03*
X0187222Y0139098D03*
X0189191Y0139098D03*
X0191159Y0139098D03*
X0193128Y0139098D03*
X0195096Y0139098D03*
X0197065Y0139098D03*
X0199033Y0139098D03*
X0201002Y0139098D03*
X0202970Y0139098D03*
X0204939Y0139098D03*
X0206907Y0139098D03*
X0206907Y0076106D03*
X0204939Y0076106D03*
X0202970Y0076106D03*
X0201002Y0076106D03*
X0199033Y0076106D03*
X0197065Y0076106D03*
X0195096Y0076106D03*
X0193128Y0076106D03*
X0191159Y0076106D03*
X0189191Y0076106D03*
X0187222Y0076106D03*
X0185254Y0076106D03*
X0183285Y0076106D03*
X0181317Y0076106D03*
X0179348Y0076106D03*
X0177380Y0076106D03*
X0175411Y0076106D03*
X0173443Y0076106D03*
X0171474Y0076106D03*
X0169506Y0076106D03*
X0167537Y0076106D03*
X0165569Y0076106D03*
X0163600Y0076106D03*
X0161632Y0076106D03*
X0159663Y0076106D03*
D31*
X0159240Y0210052D03*
X0165145Y0219895D03*
X0171051Y0210052D03*
X0176956Y0219895D03*
X0182862Y0210052D03*
X0176956Y0233674D03*
X0171051Y0243517D03*
X0165145Y0233674D03*
X0159240Y0243517D03*
X0153334Y0233674D03*
X0147429Y0243517D03*
X0141523Y0233674D03*
X0135618Y0243517D03*
X0129712Y0233674D03*
X0123807Y0243517D03*
X0117901Y0233674D03*
X0111996Y0243517D03*
X0106090Y0233674D03*
X0100185Y0243517D03*
X0094279Y0233674D03*
X0088374Y0243517D03*
X0094279Y0219895D03*
X0088374Y0210052D03*
X0100185Y0210052D03*
X0106090Y0219895D03*
X0111996Y0210052D03*
X0117901Y0219895D03*
X0123807Y0210052D03*
X0129712Y0219895D03*
X0135618Y0210052D03*
X0141523Y0219895D03*
X0147429Y0210052D03*
X0153334Y0219895D03*
X0182862Y0243517D03*
D32*
X0177685Y0150161D03*
X0177685Y0147602D03*
X0177685Y0145043D03*
X0171386Y0145043D03*
X0171386Y0147602D03*
X0171386Y0150161D03*
X0167060Y0150161D03*
X0167060Y0147602D03*
X0167060Y0145043D03*
X0160761Y0145043D03*
X0160761Y0147602D03*
X0160761Y0150161D03*
D33*
X0215116Y0227612D03*
X0215116Y0235092D03*
X0206454Y0231352D03*
X0064491Y0231352D03*
X0055829Y0235092D03*
X0055829Y0227612D03*
D34*
X0163942Y0184157D03*
X0165911Y0184157D03*
X0167879Y0184157D03*
X0169848Y0184157D03*
X0171816Y0184157D03*
X0173785Y0184157D03*
X0175753Y0184157D03*
X0175753Y0166047D03*
X0173785Y0166047D03*
X0171816Y0166047D03*
X0169848Y0166047D03*
X0167879Y0166047D03*
X0165911Y0166047D03*
X0163942Y0166047D03*
D35*
X0160793Y0169196D03*
X0160793Y0171165D03*
X0160793Y0173133D03*
X0160793Y0175102D03*
X0160793Y0177070D03*
X0160793Y0179039D03*
X0160793Y0181007D03*
X0178903Y0181007D03*
X0178903Y0179039D03*
X0178903Y0177070D03*
X0178903Y0175102D03*
X0178903Y0173133D03*
X0178903Y0171165D03*
X0178903Y0169196D03*
D36*
X0169848Y0175102D03*
D37*
X0132035Y0147602D03*
X0122035Y0147602D03*
X0122035Y0137602D03*
X0122035Y0127602D03*
X0132035Y0127602D03*
X0132035Y0137602D03*
X0132035Y0117602D03*
X0132035Y0107602D03*
X0122035Y0107602D03*
X0122035Y0117602D03*
X0122035Y0097602D03*
X0132035Y0097602D03*
X0132035Y0087602D03*
X0122035Y0087602D03*
X0193285Y0067602D03*
X0193285Y0057602D03*
X0203285Y0057602D03*
X0203285Y0067602D03*
X0213285Y0067602D03*
X0213285Y0057602D03*
D38*
X0149525Y0170102D03*
X0142045Y0170102D03*
D39*
X0166976Y0190702D03*
X0169535Y0190702D03*
X0172094Y0190702D03*
X0172094Y0197001D03*
X0169535Y0197001D03*
X0166976Y0197001D03*
D40*
X0157660Y0200727D03*
X0160785Y0184477D03*
X0167348Y0177602D03*
X0167348Y0172602D03*
X0172348Y0172602D03*
X0172348Y0177602D03*
X0177035Y0188227D03*
X0177035Y0199477D03*
X0193910Y0209477D03*
X0195785Y0210727D03*
X0192660Y0216352D03*
X0190785Y0215102D03*
X0187660Y0220102D03*
X0189535Y0221352D03*
X0200160Y0203852D03*
X0202660Y0203852D03*
X0208285Y0203852D03*
X0210785Y0203852D03*
X0213910Y0235102D03*
X0216410Y0235102D03*
X0179535Y0165102D03*
X0189535Y0155727D03*
X0194535Y0155727D03*
X0194535Y0158227D03*
X0203285Y0151977D03*
X0208910Y0150102D03*
X0213285Y0141977D03*
X0213285Y0139477D03*
X0198910Y0133852D03*
X0192660Y0123227D03*
X0182035Y0129477D03*
X0179535Y0131977D03*
X0179535Y0126977D03*
X0179535Y0123227D03*
X0170785Y0121352D03*
X0168285Y0123852D03*
X0168285Y0113852D03*
X0157660Y0113852D03*
X0157660Y0110102D03*
X0160785Y0102602D03*
X0158285Y0100102D03*
X0160785Y0097602D03*
X0158910Y0094477D03*
X0159535Y0090727D03*
X0163285Y0090727D03*
X0167035Y0090727D03*
X0166410Y0083227D03*
X0170160Y0081977D03*
X0176410Y0082602D03*
X0180160Y0082602D03*
X0175785Y0070102D03*
X0185160Y0070102D03*
X0185160Y0065727D03*
X0185160Y0061352D03*
X0178285Y0056977D03*
X0173910Y0056977D03*
X0157660Y0056977D03*
X0155785Y0070727D03*
X0145160Y0080727D03*
X0138910Y0070727D03*
X0133910Y0080102D03*
X0130160Y0078227D03*
X0138910Y0091352D03*
X0145785Y0096352D03*
X0145785Y0108227D03*
X0140785Y0112602D03*
X0145160Y0121352D03*
X0137035Y0133852D03*
X0148285Y0144477D03*
X0151410Y0151352D03*
X0155160Y0150727D03*
X0160785Y0155102D03*
X0163910Y0151977D03*
X0169535Y0152602D03*
X0165160Y0160727D03*
X0160785Y0160727D03*
X0156410Y0160727D03*
X0158285Y0164477D03*
X0156410Y0168227D03*
X0156410Y0174477D03*
X0152035Y0179477D03*
X0148285Y0179477D03*
X0144535Y0179477D03*
X0140785Y0179477D03*
X0137035Y0175727D03*
X0125785Y0176352D03*
X0125785Y0173852D03*
X0125785Y0171352D03*
X0115160Y0171352D03*
X0115160Y0173852D03*
X0110160Y0166352D03*
X0105160Y0164477D03*
X0100785Y0168852D03*
X0097035Y0174477D03*
X0100785Y0175727D03*
X0087660Y0178227D03*
X0083910Y0173227D03*
X0075160Y0178227D03*
X0071410Y0173227D03*
X0067660Y0173227D03*
X0063910Y0173227D03*
X0061410Y0168852D03*
X0055785Y0167602D03*
X0053910Y0178227D03*
X0057035Y0190727D03*
X0057035Y0193227D03*
X0064535Y0193227D03*
X0064535Y0195727D03*
X0064535Y0198227D03*
X0063285Y0206977D03*
X0063285Y0209477D03*
X0051410Y0201352D03*
X0050160Y0215102D03*
X0054535Y0227602D03*
X0057035Y0227602D03*
X0075785Y0198227D03*
X0075785Y0195727D03*
X0075785Y0193227D03*
X0088285Y0193227D03*
X0088285Y0195727D03*
X0088285Y0198227D03*
X0102660Y0192602D03*
X0102660Y0190102D03*
X0106410Y0200727D03*
X0112035Y0191352D03*
X0112035Y0188852D03*
X0117660Y0184477D03*
X0113285Y0156352D03*
X0105160Y0151977D03*
X0105160Y0147602D03*
X0102660Y0143227D03*
X0113910Y0138227D03*
X0115160Y0130102D03*
X0113910Y0121352D03*
X0103285Y0130727D03*
X0098285Y0130102D03*
X0090160Y0138227D03*
X0090160Y0141352D03*
X0085785Y0135102D03*
X0083285Y0137602D03*
X0080160Y0139477D03*
X0077660Y0146352D03*
X0073285Y0150727D03*
X0068910Y0151352D03*
X0066410Y0154477D03*
X0067660Y0143852D03*
X0072660Y0143852D03*
X0075160Y0136352D03*
X0082035Y0153852D03*
X0077660Y0158227D03*
X0074535Y0168227D03*
X0050785Y0150727D03*
X0050785Y0146352D03*
X0050785Y0141977D03*
X0066410Y0118227D03*
X0071410Y0110727D03*
X0071410Y0105102D03*
X0074535Y0098852D03*
X0074535Y0095102D03*
X0074535Y0091352D03*
X0078285Y0096352D03*
X0087660Y0091352D03*
X0091410Y0092602D03*
X0095160Y0098852D03*
X0095160Y0104477D03*
X0091410Y0115102D03*
X0087660Y0115102D03*
X0107035Y0101352D03*
X0113285Y0096977D03*
X0107035Y0088227D03*
X0109535Y0083852D03*
X0112035Y0083852D03*
X0112035Y0081352D03*
X0109535Y0081352D03*
X0109535Y0078852D03*
X0112035Y0078852D03*
X0105785Y0078227D03*
X0093910Y0057602D03*
X0091410Y0057602D03*
X0082660Y0071977D03*
X0082660Y0075102D03*
X0078910Y0075102D03*
X0078910Y0071977D03*
X0082035Y0080102D03*
X0068910Y0059477D03*
X0066410Y0059477D03*
X0063910Y0059477D03*
X0063910Y0056352D03*
X0066410Y0056352D03*
X0068910Y0056352D03*
X0057660Y0070727D03*
X0053910Y0070727D03*
X0050160Y0070727D03*
X0052035Y0083852D03*
X0054535Y0095727D03*
X0054535Y0100102D03*
X0054535Y0104477D03*
X0054535Y0108852D03*
X0054535Y0113227D03*
X0116410Y0144477D03*
X0125160Y0156977D03*
X0137660Y0156352D03*
X0142660Y0152602D03*
X0146410Y0152602D03*
X0148285Y0160102D03*
X0143285Y0160102D03*
X0155160Y0139477D03*
X0156410Y0135727D03*
X0161410Y0133227D03*
X0169535Y0133227D03*
X0174535Y0133227D03*
X0181410Y0144477D03*
X0181410Y0148227D03*
X0181410Y0152602D03*
X0179535Y0110102D03*
X0179535Y0106352D03*
X0199535Y0085102D03*
X0203285Y0085102D03*
X0208910Y0101977D03*
X0208910Y0105727D03*
X0220785Y0096352D03*
X0220785Y0066352D03*
X0220785Y0056977D03*
X0129535Y0056977D03*
X0129535Y0059477D03*
X0127035Y0059477D03*
X0127035Y0056977D03*
D41*
X0048685Y0054252D02*
X0048685Y0061352D01*
X0072660Y0061352D01*
X0072660Y0054252D01*
X0048685Y0054252D01*
X0048685Y0054997D02*
X0072660Y0054997D01*
X0072660Y0055796D02*
X0048685Y0055796D01*
X0048685Y0056594D02*
X0072660Y0056594D01*
X0072660Y0057393D02*
X0048685Y0057393D01*
X0048685Y0058191D02*
X0072660Y0058191D01*
X0072660Y0058990D02*
X0048685Y0058990D01*
X0048685Y0059788D02*
X0072660Y0059788D01*
X0072660Y0060587D02*
X0048685Y0060587D01*
X0060785Y0063227D02*
X0060785Y0082602D01*
X0061863Y0082602D01*
X0061863Y0079542D01*
X0062391Y0079015D01*
X0066680Y0079015D01*
X0067207Y0079542D01*
X0067207Y0080093D01*
X0068098Y0080093D01*
X0069407Y0081402D01*
X0087660Y0081402D01*
X0087660Y0068852D01*
X0097972Y0068852D01*
X0097991Y0068833D01*
X0101099Y0068833D01*
X0101118Y0068852D01*
X0101712Y0068852D01*
X0101731Y0068833D01*
X0104535Y0068833D01*
X0104535Y0058852D01*
X0105785Y0058852D01*
X0105785Y0054252D01*
X0096085Y0054252D01*
X0096513Y0054680D01*
X0096513Y0060543D01*
X0095986Y0061071D01*
X0089335Y0061071D01*
X0088807Y0060543D01*
X0088807Y0054680D01*
X0089235Y0054252D01*
X0074535Y0054252D01*
X0074535Y0063227D01*
X0060785Y0063227D01*
X0060785Y0063781D02*
X0097464Y0063781D01*
X0097464Y0064579D02*
X0060785Y0064579D01*
X0060785Y0065378D02*
X0104535Y0065378D01*
X0104535Y0066176D02*
X0060785Y0066176D01*
X0060785Y0066975D02*
X0104535Y0066975D01*
X0104535Y0067773D02*
X0060785Y0067773D01*
X0060785Y0068572D02*
X0104535Y0068572D01*
X0106410Y0068572D02*
X0123910Y0068572D01*
X0123910Y0068852D02*
X0123910Y0054252D01*
X0109535Y0054252D01*
X0109535Y0060727D01*
X0106410Y0060727D01*
X0106410Y0068833D01*
X0108579Y0068833D01*
X0108598Y0068852D01*
X0123910Y0068852D01*
X0123910Y0067773D02*
X0106410Y0067773D01*
X0106410Y0066975D02*
X0123910Y0066975D01*
X0123910Y0066176D02*
X0106410Y0066176D01*
X0106410Y0065378D02*
X0123910Y0065378D01*
X0123910Y0064579D02*
X0106410Y0064579D01*
X0106410Y0063781D02*
X0123910Y0063781D01*
X0123910Y0062982D02*
X0106410Y0062982D01*
X0106410Y0062184D02*
X0123910Y0062184D01*
X0123910Y0061385D02*
X0106410Y0061385D01*
X0104535Y0061385D02*
X0101626Y0061385D01*
X0101626Y0060587D02*
X0104535Y0060587D01*
X0104535Y0059788D02*
X0101110Y0059788D01*
X0101099Y0059777D02*
X0101626Y0060305D01*
X0101626Y0064594D01*
X0101099Y0065121D01*
X0097991Y0065121D01*
X0097464Y0064594D01*
X0097464Y0060305D01*
X0097991Y0059777D01*
X0098245Y0059777D01*
X0098245Y0059543D01*
X0097823Y0059121D01*
X0097823Y0054832D01*
X0098350Y0054305D01*
X0101852Y0054305D01*
X0102379Y0054832D01*
X0102379Y0059121D01*
X0101852Y0059648D01*
X0100845Y0059648D01*
X0100845Y0059777D01*
X0101099Y0059777D01*
X0102379Y0058990D02*
X0104535Y0058990D01*
X0105785Y0058191D02*
X0102379Y0058191D01*
X0102379Y0057393D02*
X0105785Y0057393D01*
X0105785Y0056594D02*
X0102379Y0056594D01*
X0102379Y0055796D02*
X0105785Y0055796D01*
X0105785Y0054997D02*
X0102379Y0054997D01*
X0100101Y0056977D02*
X0099545Y0057370D01*
X0099545Y0062449D01*
X0101626Y0062184D02*
X0104535Y0062184D01*
X0104535Y0062982D02*
X0101626Y0062982D01*
X0101626Y0063781D02*
X0104535Y0063781D01*
X0104535Y0064579D02*
X0101626Y0064579D01*
X0097464Y0062982D02*
X0074535Y0062982D01*
X0074535Y0062184D02*
X0097464Y0062184D01*
X0097464Y0061385D02*
X0074535Y0061385D01*
X0074535Y0060587D02*
X0088851Y0060587D01*
X0088807Y0059788D02*
X0074535Y0059788D01*
X0074535Y0058990D02*
X0088807Y0058990D01*
X0088807Y0058191D02*
X0074535Y0058191D01*
X0074535Y0057393D02*
X0088807Y0057393D01*
X0088807Y0056594D02*
X0074535Y0056594D01*
X0074535Y0055796D02*
X0088807Y0055796D01*
X0088807Y0054997D02*
X0074535Y0054997D01*
X0076160Y0069354D02*
X0075633Y0069881D01*
X0075633Y0077635D01*
X0076160Y0078162D01*
X0085410Y0078162D01*
X0085937Y0077635D01*
X0085937Y0069881D01*
X0085410Y0069354D01*
X0076160Y0069354D01*
X0076144Y0069370D02*
X0060785Y0069370D01*
X0060785Y0070169D02*
X0075633Y0070169D01*
X0075633Y0070967D02*
X0060785Y0070967D01*
X0060785Y0071766D02*
X0075633Y0071766D01*
X0075633Y0072564D02*
X0060785Y0072564D01*
X0060785Y0073363D02*
X0075633Y0073363D01*
X0075633Y0074161D02*
X0060785Y0074161D01*
X0060785Y0074960D02*
X0075633Y0074960D01*
X0075633Y0075758D02*
X0060785Y0075758D01*
X0060785Y0076557D02*
X0075633Y0076557D01*
X0075633Y0077356D02*
X0060785Y0077356D01*
X0060785Y0078154D02*
X0076152Y0078154D01*
X0069354Y0081348D02*
X0087660Y0081348D01*
X0087660Y0080550D02*
X0068555Y0080550D01*
X0067207Y0079751D02*
X0087660Y0079751D01*
X0087660Y0078953D02*
X0060785Y0078953D01*
X0060785Y0079751D02*
X0061863Y0079751D01*
X0061863Y0080550D02*
X0060785Y0080550D01*
X0060785Y0081348D02*
X0061863Y0081348D01*
X0061863Y0082147D02*
X0060785Y0082147D01*
X0059525Y0085682D02*
X0060254Y0086411D01*
X0064535Y0086411D01*
X0066385Y0088261D01*
X0066385Y0092203D01*
X0066636Y0095102D02*
X0066385Y0095353D01*
X0066011Y0095727D01*
X0060219Y0095727D01*
X0060219Y0091352D01*
X0055101Y0095727D02*
X0054535Y0095727D01*
X0054535Y0100102D02*
X0055101Y0100102D01*
X0055101Y0104477D02*
X0054535Y0104477D01*
X0054535Y0108852D02*
X0055101Y0108852D01*
X0055101Y0113227D02*
X0054535Y0113227D01*
X0052601Y0117602D02*
X0052257Y0121977D01*
X0051814Y0123227D01*
X0051814Y0129477D02*
X0055564Y0133227D01*
X0057660Y0133227D01*
X0059762Y0135328D01*
X0061385Y0135328D01*
X0061385Y0138478D02*
X0056843Y0138478D01*
X0056469Y0137602D01*
X0061385Y0138478D02*
X0061661Y0138478D01*
X0061661Y0141352D02*
X0061385Y0141627D01*
X0061661Y0141352D02*
X0070160Y0141352D01*
X0072660Y0143852D01*
X0075160Y0145102D02*
X0075160Y0148852D01*
X0073285Y0150727D01*
X0075160Y0148852D02*
X0079535Y0148852D01*
X0083610Y0144777D01*
X0095185Y0144777D01*
X0095185Y0147926D02*
X0099776Y0147926D01*
X0100785Y0146918D01*
X0099825Y0151076D02*
X0095185Y0151076D01*
X0076686Y0151076D01*
X0069535Y0158227D01*
X0066410Y0158227D01*
X0064757Y0159880D01*
X0059132Y0159880D01*
X0058285Y0160727D01*
X0058285Y0168852D01*
X0057035Y0170102D01*
X0054535Y0170102D01*
X0051410Y0166977D01*
X0051410Y0155668D01*
X0051351Y0155102D01*
X0056469Y0155102D02*
X0056469Y0158168D01*
X0054939Y0159698D01*
X0054939Y0163852D01*
X0055785Y0164073D01*
X0055785Y0167602D01*
X0055726Y0173227D02*
X0055785Y0173911D01*
X0055785Y0176411D01*
X0057601Y0178227D01*
X0053295Y0182533D01*
X0053295Y0183271D01*
X0053910Y0178227D02*
X0050785Y0178227D01*
X0049535Y0179477D01*
X0049535Y0191293D01*
X0055785Y0197543D01*
X0058457Y0197931D02*
X0066667Y0197931D01*
X0066667Y0198729D02*
X0058457Y0198729D01*
X0058457Y0199293D02*
X0058315Y0199435D01*
X0066667Y0199342D01*
X0066667Y0193804D01*
X0067194Y0193276D01*
X0071876Y0193276D01*
X0072404Y0193804D01*
X0072404Y0199278D01*
X0079167Y0199203D01*
X0079167Y0193804D01*
X0079694Y0193276D01*
X0084376Y0193276D01*
X0084904Y0193804D01*
X0084904Y0199139D01*
X0091667Y0199064D01*
X0091667Y0193804D01*
X0092194Y0193276D01*
X0096876Y0193276D01*
X0097404Y0193804D01*
X0097404Y0199000D01*
X0102644Y0198942D01*
X0102198Y0198496D01*
X0102198Y0194207D01*
X0102725Y0193680D01*
X0106227Y0193680D01*
X0106754Y0194207D01*
X0106754Y0198427D01*
X0107316Y0198427D01*
X0107316Y0194207D01*
X0107843Y0193680D01*
X0107894Y0193680D01*
X0107894Y0193365D01*
X0107618Y0193088D01*
X0104694Y0193088D01*
X0104167Y0192561D01*
X0104167Y0186304D01*
X0104694Y0185776D01*
X0109376Y0185776D01*
X0109904Y0186304D01*
X0109904Y0190566D01*
X0111294Y0191957D01*
X0111294Y0193680D01*
X0111345Y0193680D01*
X0111872Y0194207D01*
X0111872Y0195102D01*
X0113596Y0195102D01*
X0113596Y0189970D01*
X0114049Y0189517D01*
X0114049Y0189436D01*
X0113596Y0188983D01*
X0113596Y0179970D01*
X0114123Y0179443D01*
X0120774Y0179443D01*
X0121301Y0179970D01*
X0121301Y0188983D01*
X0120848Y0189436D01*
X0120848Y0189517D01*
X0121301Y0189970D01*
X0121301Y0195102D01*
X0125256Y0195102D01*
X0122835Y0192681D01*
X0122835Y0181431D01*
X0120118Y0178713D01*
X0117194Y0178713D01*
X0116667Y0178186D01*
X0116667Y0171929D01*
X0117194Y0171401D01*
X0121876Y0171401D01*
X0122404Y0171929D01*
X0122404Y0176191D01*
X0125239Y0179027D01*
X0126235Y0180022D01*
X0126235Y0191272D01*
X0127739Y0192777D01*
X0127769Y0192777D01*
X0127769Y0189970D01*
X0128262Y0189477D01*
X0127769Y0188983D01*
X0127769Y0179970D01*
X0128296Y0179443D01*
X0130335Y0179443D01*
X0130335Y0178713D01*
X0129694Y0178713D01*
X0129167Y0178186D01*
X0129167Y0171929D01*
X0129694Y0171401D01*
X0134376Y0171401D01*
X0134904Y0171929D01*
X0134904Y0174605D01*
X0136082Y0173427D01*
X0137988Y0173427D01*
X0138285Y0173724D01*
X0138285Y0160102D01*
X0131754Y0160102D01*
X0131754Y0162871D01*
X0131227Y0163398D01*
X0131163Y0163398D01*
X0131163Y0169525D01*
X0130636Y0170052D01*
X0125954Y0170052D01*
X0125426Y0169525D01*
X0125426Y0163267D01*
X0125954Y0162740D01*
X0127198Y0162740D01*
X0127198Y0160102D01*
X0119254Y0160102D01*
X0119254Y0162871D01*
X0118727Y0163398D01*
X0118663Y0163398D01*
X0118663Y0169525D01*
X0118136Y0170052D01*
X0113454Y0170052D01*
X0112926Y0169525D01*
X0112926Y0163267D01*
X0113454Y0162740D01*
X0114698Y0162740D01*
X0114698Y0160102D01*
X0112497Y0160102D01*
X0112497Y0162871D01*
X0111970Y0163398D01*
X0108468Y0163398D01*
X0107941Y0162871D01*
X0107941Y0160102D01*
X0107379Y0160102D01*
X0107379Y0162871D01*
X0107093Y0163157D01*
X0107460Y0163524D01*
X0107460Y0165429D01*
X0106113Y0166777D01*
X0104207Y0166777D01*
X0103285Y0165854D01*
X0103285Y0168055D01*
X0106227Y0168055D01*
X0106754Y0168582D01*
X0106754Y0172871D01*
X0106711Y0172914D01*
X0106754Y0172957D01*
X0106754Y0177246D01*
X0106227Y0177773D01*
X0106163Y0177773D01*
X0106163Y0183900D01*
X0105636Y0184427D01*
X0100954Y0184427D01*
X0100426Y0183900D01*
X0100426Y0180727D01*
X0099017Y0180727D01*
X0098845Y0180898D01*
X0095343Y0180898D01*
X0095172Y0180727D01*
X0094254Y0180727D01*
X0094254Y0184746D01*
X0093727Y0185273D01*
X0093663Y0185273D01*
X0093663Y0191400D01*
X0093136Y0191927D01*
X0088454Y0191927D01*
X0087926Y0191400D01*
X0087926Y0185142D01*
X0088454Y0184615D01*
X0089698Y0184615D01*
X0089698Y0180727D01*
X0086517Y0180727D01*
X0086345Y0180898D01*
X0082843Y0180898D01*
X0082672Y0180727D01*
X0081754Y0180727D01*
X0081754Y0184746D01*
X0081227Y0185273D01*
X0081163Y0185273D01*
X0081163Y0191400D01*
X0080636Y0191927D01*
X0075954Y0191927D01*
X0075426Y0191400D01*
X0075426Y0185142D01*
X0075954Y0184615D01*
X0077198Y0184615D01*
X0077198Y0180727D01*
X0074017Y0180727D01*
X0073845Y0180898D01*
X0070343Y0180898D01*
X0070172Y0180727D01*
X0069254Y0180727D01*
X0069254Y0184746D01*
X0068727Y0185273D01*
X0068663Y0185273D01*
X0068663Y0191400D01*
X0068136Y0191927D01*
X0063454Y0191927D01*
X0062926Y0191400D01*
X0062926Y0185142D01*
X0063454Y0184615D01*
X0064698Y0184615D01*
X0064698Y0180457D01*
X0064741Y0180414D01*
X0064698Y0180371D01*
X0064698Y0176352D01*
X0059879Y0176352D01*
X0059879Y0180371D01*
X0059352Y0180898D01*
X0056768Y0180898D01*
X0056163Y0181503D01*
X0056163Y0186400D01*
X0055636Y0186927D01*
X0054535Y0186927D01*
X0054535Y0188435D01*
X0054694Y0188276D01*
X0059376Y0188276D01*
X0059904Y0188804D01*
X0059904Y0195061D01*
X0059376Y0195588D01*
X0058253Y0195588D01*
X0058457Y0195792D01*
X0058457Y0199293D01*
X0058457Y0197132D02*
X0066667Y0197132D01*
X0066667Y0196334D02*
X0058457Y0196334D01*
X0059429Y0195535D02*
X0066667Y0195535D01*
X0066667Y0194737D02*
X0059904Y0194737D01*
X0059904Y0193938D02*
X0066667Y0193938D01*
X0068520Y0191543D02*
X0075569Y0191543D01*
X0075426Y0190744D02*
X0068663Y0190744D01*
X0068663Y0189946D02*
X0075426Y0189946D01*
X0075426Y0189147D02*
X0068663Y0189147D01*
X0068663Y0188349D02*
X0075426Y0188349D01*
X0075426Y0187550D02*
X0068663Y0187550D01*
X0068663Y0186752D02*
X0075426Y0186752D01*
X0075426Y0185953D02*
X0068663Y0185953D01*
X0068846Y0185155D02*
X0075426Y0185155D01*
X0077198Y0184356D02*
X0069254Y0184356D01*
X0069254Y0183558D02*
X0077198Y0183558D01*
X0077198Y0182759D02*
X0069254Y0182759D01*
X0069254Y0181960D02*
X0077198Y0181960D01*
X0077198Y0181162D02*
X0069254Y0181162D01*
X0066976Y0182602D02*
X0066976Y0178227D01*
X0064698Y0177968D02*
X0059879Y0177968D01*
X0059879Y0178766D02*
X0064698Y0178766D01*
X0064698Y0179565D02*
X0059879Y0179565D01*
X0059879Y0180363D02*
X0064698Y0180363D01*
X0064698Y0181162D02*
X0056504Y0181162D01*
X0056163Y0181960D02*
X0064698Y0181960D01*
X0064698Y0182759D02*
X0056163Y0182759D01*
X0056163Y0183558D02*
X0064698Y0183558D01*
X0064698Y0184356D02*
X0056163Y0184356D01*
X0056163Y0185155D02*
X0062926Y0185155D01*
X0062926Y0185953D02*
X0056163Y0185953D01*
X0055812Y0186752D02*
X0062926Y0186752D01*
X0062926Y0187550D02*
X0054535Y0187550D01*
X0054535Y0188349D02*
X0054622Y0188349D01*
X0059449Y0188349D02*
X0062926Y0188349D01*
X0062926Y0189147D02*
X0059904Y0189147D01*
X0059904Y0189946D02*
X0062926Y0189946D01*
X0062926Y0190744D02*
X0059904Y0190744D01*
X0059904Y0191543D02*
X0063069Y0191543D01*
X0065795Y0188271D02*
X0066976Y0187090D01*
X0066976Y0182602D01*
X0064698Y0177169D02*
X0059879Y0177169D01*
X0059879Y0176371D02*
X0064698Y0176371D01*
X0067660Y0173227D02*
X0067660Y0163852D01*
X0067262Y0163852D01*
X0067262Y0163252D01*
X0067262Y0163852D02*
X0061632Y0163852D01*
X0061636Y0154477D02*
X0061385Y0154226D01*
X0057345Y0154226D01*
X0056469Y0155102D01*
X0056819Y0151076D02*
X0056469Y0150727D01*
X0056819Y0151076D02*
X0061385Y0151076D01*
X0061385Y0147926D02*
X0065460Y0147926D01*
X0068910Y0151352D01*
X0066410Y0154477D02*
X0061636Y0154477D01*
X0056469Y0146352D02*
X0058019Y0144777D01*
X0061385Y0144777D01*
X0065785Y0133852D02*
X0076410Y0133852D01*
X0077660Y0135102D01*
X0077660Y0142602D01*
X0075160Y0145102D01*
X0077660Y0146352D02*
X0078285Y0146352D01*
X0092035Y0132602D01*
X0092035Y0126352D01*
X0091159Y0125476D01*
X0091159Y0120127D01*
X0089535Y0109477D02*
X0096936Y0109477D01*
X0097312Y0109101D01*
X0103058Y0109101D01*
X0103434Y0109477D01*
X0103551Y0109477D01*
X0103551Y0106308D01*
X0103058Y0106801D01*
X0097312Y0106801D01*
X0096785Y0106274D01*
X0096785Y0106104D01*
X0096113Y0106777D01*
X0094207Y0106777D01*
X0092860Y0105429D01*
X0092860Y0103524D01*
X0094207Y0102177D01*
X0096113Y0102177D01*
X0097025Y0103089D01*
X0097312Y0102801D01*
X0103058Y0102801D01*
X0103585Y0103329D01*
X0103585Y0103859D01*
X0104079Y0103365D01*
X0105323Y0103365D01*
X0105323Y0102892D01*
X0104735Y0102304D01*
X0104735Y0100399D01*
X0105323Y0099811D01*
X0105323Y0099207D01*
X0105850Y0098680D01*
X0108910Y0098680D01*
X0108910Y0095273D01*
X0105850Y0095273D01*
X0105323Y0094746D01*
X0105323Y0093403D01*
X0103585Y0093403D01*
X0103585Y0093676D01*
X0103483Y0093778D01*
X0103585Y0093880D01*
X0103585Y0096825D01*
X0103483Y0096927D01*
X0103585Y0097029D01*
X0103585Y0099975D01*
X0103058Y0100502D01*
X0097312Y0100502D01*
X0097037Y0100227D01*
X0096113Y0101152D01*
X0094207Y0101152D01*
X0092860Y0099804D01*
X0092860Y0097899D01*
X0094207Y0096552D01*
X0096113Y0096552D01*
X0096763Y0097202D01*
X0096785Y0097202D01*
X0096785Y0097029D01*
X0096887Y0096927D01*
X0096785Y0096825D01*
X0096785Y0093880D01*
X0096887Y0093778D01*
X0096785Y0093676D01*
X0096785Y0090730D01*
X0097312Y0090203D01*
X0103058Y0090203D01*
X0103585Y0090730D01*
X0103585Y0091003D01*
X0105323Y0091003D01*
X0105323Y0090457D01*
X0105366Y0090414D01*
X0105323Y0090371D01*
X0105323Y0089767D01*
X0104735Y0089179D01*
X0104735Y0087274D01*
X0105323Y0086686D01*
X0105323Y0086082D01*
X0105850Y0085555D01*
X0109352Y0085555D01*
X0109879Y0086082D01*
X0109879Y0086352D01*
X0110441Y0086352D01*
X0110441Y0086082D01*
X0110968Y0085555D01*
X0114470Y0085555D01*
X0114997Y0086082D01*
X0114997Y0086352D01*
X0118135Y0086352D01*
X0118135Y0085986D01*
X0120420Y0083702D01*
X0123651Y0083702D01*
X0125935Y0085986D01*
X0125935Y0086352D01*
X0128135Y0086352D01*
X0128135Y0085986D01*
X0130420Y0083702D01*
X0133651Y0083702D01*
X0134535Y0084586D01*
X0134535Y0082402D01*
X0132957Y0082402D01*
X0131610Y0081054D01*
X0131610Y0080029D01*
X0131113Y0080527D01*
X0129207Y0080527D01*
X0127860Y0079179D01*
X0127860Y0077274D01*
X0129207Y0075927D01*
X0131113Y0075927D01*
X0131875Y0076689D01*
X0132710Y0075855D01*
X0132710Y0070727D01*
X0114707Y0070727D01*
X0114707Y0073786D01*
X0114180Y0074314D01*
X0109891Y0074314D01*
X0109363Y0073786D01*
X0109363Y0073204D01*
X0109106Y0073204D01*
X0109106Y0073649D01*
X0108579Y0074176D01*
X0105471Y0074176D01*
X0105155Y0073860D01*
X0104985Y0074030D01*
X0104985Y0075161D01*
X0107723Y0075161D01*
X0108250Y0075689D01*
X0108250Y0080765D01*
X0107723Y0081292D01*
X0103040Y0081292D01*
X0102513Y0080765D01*
X0102513Y0077762D01*
X0101585Y0076834D01*
X0101585Y0074030D01*
X0101415Y0073860D01*
X0101245Y0074030D01*
X0101245Y0075376D01*
X0101557Y0075689D01*
X0101557Y0080765D01*
X0101030Y0081292D01*
X0096347Y0081292D01*
X0095820Y0080765D01*
X0095820Y0075689D01*
X0096347Y0075161D01*
X0097845Y0075161D01*
X0097845Y0074080D01*
X0095100Y0074080D01*
X0095100Y0074721D01*
X0094573Y0075249D01*
X0089535Y0075249D01*
X0089535Y0082979D01*
X0089584Y0083029D01*
X0089686Y0082927D01*
X0092632Y0082927D01*
X0092734Y0083029D01*
X0092836Y0082927D01*
X0095782Y0082927D01*
X0096309Y0083454D01*
X0096309Y0089199D01*
X0095782Y0089727D01*
X0092836Y0089727D01*
X0092734Y0089625D01*
X0092632Y0089727D01*
X0092359Y0089727D01*
X0092359Y0090302D01*
X0092363Y0090302D01*
X0093710Y0091649D01*
X0093710Y0093554D01*
X0092363Y0094902D01*
X0090457Y0094902D01*
X0089535Y0093979D01*
X0089535Y0109477D01*
X0089535Y0109296D02*
X0097117Y0109296D01*
X0095485Y0104801D02*
X0095160Y0104477D01*
X0095485Y0104801D02*
X0100185Y0104801D01*
X0097206Y0102908D02*
X0096844Y0102908D01*
X0096752Y0100512D02*
X0104735Y0100512D01*
X0104735Y0101311D02*
X0089535Y0101311D01*
X0089535Y0102109D02*
X0104735Y0102109D01*
X0105323Y0102908D02*
X0103164Y0102908D01*
X0103585Y0103706D02*
X0103737Y0103706D01*
X0103551Y0106900D02*
X0089535Y0106900D01*
X0089535Y0106102D02*
X0093533Y0106102D01*
X0092860Y0105303D02*
X0089535Y0105303D01*
X0089535Y0104505D02*
X0092860Y0104505D01*
X0092860Y0103706D02*
X0089535Y0103706D01*
X0089535Y0102908D02*
X0093476Y0102908D01*
X0093568Y0100512D02*
X0089535Y0100512D01*
X0089535Y0099714D02*
X0092860Y0099714D01*
X0092860Y0098915D02*
X0089535Y0098915D01*
X0089535Y0098117D02*
X0092860Y0098117D01*
X0093441Y0097318D02*
X0089535Y0097318D01*
X0089535Y0096520D02*
X0096785Y0096520D01*
X0096785Y0095721D02*
X0089535Y0095721D01*
X0089535Y0094923D02*
X0096785Y0094923D01*
X0096785Y0094124D02*
X0093140Y0094124D01*
X0093710Y0093326D02*
X0096785Y0093326D01*
X0096785Y0092527D02*
X0093710Y0092527D01*
X0093710Y0091729D02*
X0096785Y0091729D01*
X0096785Y0090930D02*
X0092991Y0090930D01*
X0092359Y0090132D02*
X0105323Y0090132D01*
X0105323Y0090930D02*
X0103585Y0090930D01*
X0104889Y0089333D02*
X0096175Y0089333D01*
X0096309Y0088535D02*
X0104735Y0088535D01*
X0104735Y0087736D02*
X0096309Y0087736D01*
X0096309Y0086938D02*
X0105071Y0086938D01*
X0105323Y0086139D02*
X0096309Y0086139D01*
X0096309Y0085341D02*
X0118781Y0085341D01*
X0118135Y0086139D02*
X0114997Y0086139D01*
X0110441Y0086139D02*
X0109879Y0086139D01*
X0108250Y0080550D02*
X0131610Y0080550D01*
X0131904Y0081348D02*
X0089535Y0081348D01*
X0089535Y0080550D02*
X0095820Y0080550D01*
X0095820Y0079751D02*
X0089535Y0079751D01*
X0089535Y0078953D02*
X0095820Y0078953D01*
X0095820Y0078154D02*
X0089535Y0078154D01*
X0089535Y0077356D02*
X0095820Y0077356D01*
X0095820Y0076557D02*
X0089535Y0076557D01*
X0089535Y0075758D02*
X0095820Y0075758D01*
X0094862Y0074960D02*
X0097845Y0074960D01*
X0097845Y0074161D02*
X0095100Y0074161D01*
X0101245Y0074161D02*
X0101585Y0074161D01*
X0101585Y0074960D02*
X0101245Y0074960D01*
X0101557Y0075758D02*
X0101585Y0075758D01*
X0101557Y0076557D02*
X0101585Y0076557D01*
X0101557Y0077356D02*
X0102106Y0077356D01*
X0102513Y0078154D02*
X0101557Y0078154D01*
X0101557Y0078953D02*
X0102513Y0078953D01*
X0102513Y0079751D02*
X0101557Y0079751D01*
X0101557Y0080550D02*
X0102513Y0080550D01*
X0105382Y0078227D02*
X0105785Y0078227D01*
X0108250Y0078154D02*
X0127860Y0078154D01*
X0127860Y0077356D02*
X0108250Y0077356D01*
X0108250Y0076557D02*
X0128577Y0076557D01*
X0127860Y0078953D02*
X0108250Y0078953D01*
X0108250Y0079751D02*
X0128432Y0079751D01*
X0130378Y0083744D02*
X0123692Y0083744D01*
X0124491Y0084542D02*
X0129579Y0084542D01*
X0128781Y0085341D02*
X0125290Y0085341D01*
X0125935Y0086139D02*
X0128135Y0086139D01*
X0132702Y0082147D02*
X0089535Y0082147D01*
X0089535Y0082945D02*
X0089668Y0082945D01*
X0092650Y0082945D02*
X0092818Y0082945D01*
X0095800Y0082945D02*
X0134535Y0082945D01*
X0134535Y0083744D02*
X0133692Y0083744D01*
X0134491Y0084542D02*
X0134535Y0084542D01*
X0132008Y0076557D02*
X0131743Y0076557D01*
X0132710Y0075758D02*
X0108250Y0075758D01*
X0108594Y0074161D02*
X0109738Y0074161D01*
X0109363Y0073363D02*
X0109106Y0073363D01*
X0105457Y0074161D02*
X0104985Y0074161D01*
X0104985Y0074960D02*
X0132710Y0074960D01*
X0132710Y0074161D02*
X0114332Y0074161D01*
X0114707Y0073363D02*
X0132710Y0073363D01*
X0132710Y0072564D02*
X0114707Y0072564D01*
X0114707Y0071766D02*
X0132710Y0071766D01*
X0132710Y0070967D02*
X0114707Y0070967D01*
X0109535Y0060587D02*
X0123910Y0060587D01*
X0123910Y0059788D02*
X0109535Y0059788D01*
X0109535Y0058990D02*
X0123910Y0058990D01*
X0123910Y0058191D02*
X0109535Y0058191D01*
X0109535Y0057393D02*
X0123910Y0057393D01*
X0123910Y0056594D02*
X0109535Y0056594D01*
X0109535Y0055796D02*
X0123910Y0055796D01*
X0123910Y0054997D02*
X0109535Y0054997D01*
X0097823Y0054997D02*
X0096513Y0054997D01*
X0096513Y0055796D02*
X0097823Y0055796D01*
X0097823Y0056594D02*
X0096513Y0056594D01*
X0096513Y0057393D02*
X0097823Y0057393D01*
X0097823Y0058191D02*
X0096513Y0058191D01*
X0096513Y0058990D02*
X0097823Y0058990D01*
X0097980Y0059788D02*
X0096513Y0059788D01*
X0096469Y0060587D02*
X0097464Y0060587D01*
X0087660Y0069370D02*
X0085426Y0069370D01*
X0085937Y0070169D02*
X0087660Y0070169D01*
X0087660Y0070967D02*
X0085937Y0070967D01*
X0085937Y0071766D02*
X0087660Y0071766D01*
X0087660Y0072564D02*
X0085937Y0072564D01*
X0085937Y0073363D02*
X0087660Y0073363D01*
X0087660Y0074161D02*
X0085937Y0074161D01*
X0085937Y0074960D02*
X0087660Y0074960D01*
X0087660Y0075758D02*
X0085937Y0075758D01*
X0085937Y0076557D02*
X0087660Y0076557D01*
X0087660Y0077356D02*
X0085937Y0077356D01*
X0085418Y0078154D02*
X0087660Y0078154D01*
X0096309Y0083744D02*
X0120378Y0083744D01*
X0119579Y0084542D02*
X0096309Y0084542D01*
X0089680Y0094124D02*
X0089535Y0094124D01*
X0095160Y0098852D02*
X0095510Y0098502D01*
X0100185Y0098502D01*
X0103585Y0098117D02*
X0108910Y0098117D01*
X0108910Y0097318D02*
X0103585Y0097318D01*
X0103585Y0096520D02*
X0108910Y0096520D01*
X0108910Y0095721D02*
X0103585Y0095721D01*
X0103585Y0094923D02*
X0105500Y0094923D01*
X0105323Y0094124D02*
X0103585Y0094124D01*
X0103585Y0098915D02*
X0105615Y0098915D01*
X0105323Y0099714D02*
X0103585Y0099714D01*
X0107035Y0101352D02*
X0107601Y0101352D01*
X0112035Y0096977D02*
X0112719Y0096977D01*
X0113507Y0107021D02*
X0113507Y0107380D01*
X0113507Y0107021D02*
X0114028Y0107543D01*
X0113507Y0115682D02*
X0114176Y0116352D01*
X0107601Y0116470D02*
X0106814Y0115682D01*
X0107601Y0116470D02*
X0107601Y0121352D01*
X0106976Y0130102D02*
X0106976Y0130668D01*
X0107035Y0130727D01*
X0103285Y0130727D01*
X0095510Y0135328D02*
X0095185Y0135328D01*
X0105160Y0147602D02*
X0108226Y0147602D01*
X0100785Y0152036D02*
X0100785Y0157543D01*
X0100785Y0162661D02*
X0094594Y0162661D01*
X0089535Y0157602D01*
X0081410Y0157602D01*
X0078910Y0155102D01*
X0075160Y0155102D01*
X0070411Y0159851D01*
X0070411Y0163252D01*
X0070411Y0168035D01*
X0070219Y0168852D01*
X0070219Y0172036D01*
X0071410Y0173227D01*
X0079476Y0178227D02*
X0079476Y0182602D01*
X0079476Y0187090D01*
X0078295Y0188271D01*
X0081163Y0188349D02*
X0087926Y0188349D01*
X0087926Y0189147D02*
X0081163Y0189147D01*
X0081163Y0189946D02*
X0087926Y0189946D01*
X0087926Y0190744D02*
X0081163Y0190744D01*
X0081020Y0191543D02*
X0088069Y0191543D01*
X0084904Y0193938D02*
X0091667Y0193938D01*
X0091667Y0194737D02*
X0084904Y0194737D01*
X0084904Y0195535D02*
X0091667Y0195535D01*
X0091667Y0196334D02*
X0084904Y0196334D01*
X0084904Y0197132D02*
X0091667Y0197132D01*
X0091667Y0197931D02*
X0084904Y0197931D01*
X0084904Y0198729D02*
X0091667Y0198729D01*
X0097404Y0198729D02*
X0102431Y0198729D01*
X0102198Y0197931D02*
X0097404Y0197931D01*
X0097404Y0197132D02*
X0102198Y0197132D01*
X0102198Y0196334D02*
X0097404Y0196334D01*
X0097404Y0195535D02*
X0102198Y0195535D01*
X0102198Y0194737D02*
X0097404Y0194737D01*
X0097404Y0193938D02*
X0102467Y0193938D01*
X0104167Y0192341D02*
X0059904Y0192341D01*
X0059904Y0193140D02*
X0107669Y0193140D01*
X0107585Y0193938D02*
X0106485Y0193938D01*
X0106754Y0194737D02*
X0107316Y0194737D01*
X0107316Y0195535D02*
X0106754Y0195535D01*
X0106754Y0196334D02*
X0107316Y0196334D01*
X0107316Y0197132D02*
X0106754Y0197132D01*
X0106754Y0197931D02*
X0107316Y0197931D01*
X0111872Y0194737D02*
X0113596Y0194737D01*
X0113596Y0193938D02*
X0111603Y0193938D01*
X0111294Y0193140D02*
X0113596Y0193140D01*
X0113596Y0192341D02*
X0111294Y0192341D01*
X0110880Y0191543D02*
X0113596Y0191543D01*
X0113596Y0190744D02*
X0110082Y0190744D01*
X0109904Y0189946D02*
X0113620Y0189946D01*
X0113760Y0189147D02*
X0109904Y0189147D01*
X0109904Y0188349D02*
X0113596Y0188349D01*
X0113596Y0187550D02*
X0109904Y0187550D01*
X0109904Y0186752D02*
X0113596Y0186752D01*
X0113596Y0185953D02*
X0109553Y0185953D01*
X0113596Y0185155D02*
X0093846Y0185155D01*
X0093663Y0185953D02*
X0104517Y0185953D01*
X0104167Y0186752D02*
X0093663Y0186752D01*
X0093663Y0187550D02*
X0104167Y0187550D01*
X0104167Y0188349D02*
X0093663Y0188349D01*
X0093663Y0189147D02*
X0104167Y0189147D01*
X0104167Y0189946D02*
X0093663Y0189946D01*
X0093663Y0190744D02*
X0104167Y0190744D01*
X0104167Y0191543D02*
X0093520Y0191543D01*
X0090795Y0188271D02*
X0091976Y0187090D01*
X0091976Y0182602D01*
X0091976Y0178227D01*
X0089698Y0181162D02*
X0081754Y0181162D01*
X0081754Y0181960D02*
X0089698Y0181960D01*
X0089698Y0182759D02*
X0081754Y0182759D01*
X0081754Y0183558D02*
X0089698Y0183558D01*
X0089698Y0184356D02*
X0081754Y0184356D01*
X0081346Y0185155D02*
X0087926Y0185155D01*
X0087926Y0185953D02*
X0081163Y0185953D01*
X0081163Y0186752D02*
X0087926Y0186752D01*
X0087926Y0187550D02*
X0081163Y0187550D01*
X0079167Y0193938D02*
X0072404Y0193938D01*
X0072404Y0194737D02*
X0079167Y0194737D01*
X0079167Y0195535D02*
X0072404Y0195535D01*
X0072404Y0196334D02*
X0079167Y0196334D01*
X0079167Y0197132D02*
X0072404Y0197132D01*
X0072404Y0197931D02*
X0079167Y0197931D01*
X0079167Y0198729D02*
X0072404Y0198729D01*
X0060785Y0202661D02*
X0055785Y0202661D01*
X0055795Y0202671D01*
X0055795Y0208271D01*
X0058910Y0212602D02*
X0052601Y0212602D01*
X0050160Y0210161D01*
X0050160Y0205043D02*
X0051410Y0205043D01*
X0051410Y0201352D01*
X0058910Y0212602D02*
X0059535Y0213227D01*
X0059535Y0216932D01*
X0062144Y0238852D02*
X0048685Y0238852D01*
X0048685Y0263852D01*
X0053920Y0263852D01*
X0055358Y0262414D01*
X0058260Y0261212D01*
X0061401Y0261212D01*
X0064303Y0262414D01*
X0065741Y0263852D01*
X0205494Y0263852D01*
X0206932Y0262414D01*
X0209835Y0261212D01*
X0212976Y0261212D01*
X0215878Y0262414D01*
X0217316Y0263852D01*
X0222550Y0263852D01*
X0222550Y0238852D01*
X0209426Y0238852D01*
X0209426Y0247108D01*
X0208899Y0247636D01*
X0202248Y0247636D01*
X0201721Y0247108D01*
X0201721Y0245002D01*
X0196154Y0245002D01*
X0188395Y0252761D01*
X0187513Y0253127D01*
X0177783Y0253127D01*
X0176901Y0252761D01*
X0176226Y0252086D01*
X0172278Y0248138D01*
X0171993Y0248256D01*
X0170108Y0248256D01*
X0168367Y0247534D01*
X0167034Y0246201D01*
X0166312Y0244460D01*
X0166312Y0242574D01*
X0167034Y0240833D01*
X0168367Y0239500D01*
X0169932Y0238852D01*
X0167035Y0238852D01*
X0166448Y0238264D01*
X0166088Y0238413D01*
X0164203Y0238413D01*
X0162461Y0237692D01*
X0161128Y0236359D01*
X0161125Y0236352D01*
X0157354Y0236352D01*
X0157352Y0236359D01*
X0156019Y0237692D01*
X0154277Y0238413D01*
X0152392Y0238413D01*
X0150650Y0237692D01*
X0149317Y0236359D01*
X0149314Y0236352D01*
X0145543Y0236352D01*
X0145540Y0236359D01*
X0144208Y0237692D01*
X0142466Y0238413D01*
X0140581Y0238413D01*
X0138839Y0237692D01*
X0137506Y0236359D01*
X0136785Y0234617D01*
X0136785Y0232732D01*
X0137506Y0230990D01*
X0138340Y0230156D01*
X0132184Y0224000D01*
X0130655Y0224634D01*
X0128770Y0224634D01*
X0127028Y0223912D01*
X0125695Y0222579D01*
X0124974Y0220838D01*
X0124974Y0218952D01*
X0125607Y0217424D01*
X0122974Y0214791D01*
X0122864Y0214791D01*
X0121123Y0214070D01*
X0119790Y0212737D01*
X0119068Y0210995D01*
X0119068Y0209110D01*
X0116734Y0209110D01*
X0116734Y0210995D01*
X0116013Y0212737D01*
X0114680Y0214070D01*
X0112938Y0214791D01*
X0111053Y0214791D01*
X0110785Y0214680D01*
X0110785Y0218847D01*
X0110829Y0218952D01*
X0110829Y0220838D01*
X0110785Y0220943D01*
X0110785Y0232626D01*
X0110829Y0232732D01*
X0110829Y0234617D01*
X0110107Y0236359D01*
X0108774Y0237692D01*
X0107033Y0238413D01*
X0106224Y0238413D01*
X0105785Y0238852D01*
X0101304Y0238852D01*
X0102869Y0239500D01*
X0104202Y0240833D01*
X0104923Y0242574D01*
X0104923Y0244460D01*
X0104202Y0246201D01*
X0102869Y0247534D01*
X0101127Y0248256D01*
X0099242Y0248256D01*
X0098958Y0248138D01*
X0095010Y0252086D01*
X0094335Y0252761D01*
X0093452Y0253127D01*
X0083433Y0253127D01*
X0082551Y0252761D01*
X0081876Y0252086D01*
X0074791Y0245002D01*
X0069849Y0245002D01*
X0069849Y0247108D01*
X0069322Y0247636D01*
X0062671Y0247636D01*
X0062144Y0247108D01*
X0062144Y0238852D01*
X0062144Y0239453D02*
X0048685Y0239453D01*
X0048685Y0240252D02*
X0062144Y0240252D01*
X0062144Y0241050D02*
X0048685Y0241050D01*
X0048685Y0241849D02*
X0062144Y0241849D01*
X0062144Y0242647D02*
X0048685Y0242647D01*
X0048685Y0243446D02*
X0062144Y0243446D01*
X0062144Y0244244D02*
X0048685Y0244244D01*
X0048685Y0245043D02*
X0062144Y0245043D01*
X0062144Y0245841D02*
X0048685Y0245841D01*
X0048685Y0246640D02*
X0062144Y0246640D01*
X0062474Y0247438D02*
X0048685Y0247438D01*
X0048685Y0248237D02*
X0078026Y0248237D01*
X0077228Y0247438D02*
X0069519Y0247438D01*
X0069849Y0246640D02*
X0076429Y0246640D01*
X0075631Y0245841D02*
X0069849Y0245841D01*
X0069849Y0245043D02*
X0074832Y0245043D01*
X0078825Y0249035D02*
X0048685Y0249035D01*
X0048685Y0249834D02*
X0079623Y0249834D01*
X0080422Y0250632D02*
X0048685Y0250632D01*
X0048685Y0251431D02*
X0081220Y0251431D01*
X0082019Y0252229D02*
X0048685Y0252229D01*
X0048685Y0253028D02*
X0083195Y0253028D01*
X0093691Y0253028D02*
X0177545Y0253028D01*
X0176369Y0252229D02*
X0094866Y0252229D01*
X0095665Y0251431D02*
X0175571Y0251431D01*
X0174772Y0250632D02*
X0096463Y0250632D01*
X0097262Y0249834D02*
X0173974Y0249834D01*
X0173175Y0249035D02*
X0098060Y0249035D01*
X0098859Y0248237D02*
X0099197Y0248237D01*
X0101172Y0248237D02*
X0111008Y0248237D01*
X0111053Y0248256D02*
X0109312Y0247534D01*
X0107979Y0246201D01*
X0107257Y0244460D01*
X0107257Y0242574D01*
X0107979Y0240833D01*
X0109312Y0239500D01*
X0111053Y0238778D01*
X0112938Y0238778D01*
X0114680Y0239500D01*
X0116013Y0240833D01*
X0116734Y0242574D01*
X0116734Y0244460D01*
X0116013Y0246201D01*
X0114680Y0247534D01*
X0112938Y0248256D01*
X0111053Y0248256D01*
X0112983Y0248237D02*
X0122819Y0248237D01*
X0122864Y0248256D02*
X0121123Y0247534D01*
X0119790Y0246201D01*
X0119068Y0244460D01*
X0119068Y0242574D01*
X0119790Y0240833D01*
X0121123Y0239500D01*
X0122864Y0238778D01*
X0124749Y0238778D01*
X0126491Y0239500D01*
X0127824Y0240833D01*
X0128545Y0242574D01*
X0128545Y0244460D01*
X0127824Y0246201D01*
X0126491Y0247534D01*
X0124749Y0248256D01*
X0122864Y0248256D01*
X0124794Y0248237D02*
X0146441Y0248237D01*
X0146486Y0248256D02*
X0144745Y0247534D01*
X0143412Y0246201D01*
X0142690Y0244460D01*
X0142690Y0242574D01*
X0143412Y0240833D01*
X0144745Y0239500D01*
X0146486Y0238778D01*
X0148371Y0238778D01*
X0150113Y0239500D01*
X0151446Y0240833D01*
X0152167Y0242574D01*
X0152167Y0244460D01*
X0151446Y0246201D01*
X0150113Y0247534D01*
X0148371Y0248256D01*
X0146486Y0248256D01*
X0148416Y0248237D02*
X0158252Y0248237D01*
X0158297Y0248256D02*
X0156556Y0247534D01*
X0155223Y0246201D01*
X0154501Y0244460D01*
X0154501Y0242574D01*
X0155223Y0240833D01*
X0156556Y0239500D01*
X0158297Y0238778D01*
X0160182Y0238778D01*
X0161924Y0239500D01*
X0163257Y0240833D01*
X0163978Y0242574D01*
X0163978Y0244460D01*
X0163257Y0246201D01*
X0161924Y0247534D01*
X0160182Y0248256D01*
X0158297Y0248256D01*
X0160227Y0248237D02*
X0170063Y0248237D01*
X0168271Y0247438D02*
X0162020Y0247438D01*
X0162818Y0246640D02*
X0167472Y0246640D01*
X0166885Y0245841D02*
X0163406Y0245841D01*
X0163737Y0245043D02*
X0166554Y0245043D01*
X0166312Y0244244D02*
X0163978Y0244244D01*
X0163978Y0243446D02*
X0166312Y0243446D01*
X0166312Y0242647D02*
X0163978Y0242647D01*
X0163678Y0241849D02*
X0166613Y0241849D01*
X0166944Y0241050D02*
X0163347Y0241050D01*
X0162676Y0240252D02*
X0167615Y0240252D01*
X0168479Y0239453D02*
X0161812Y0239453D01*
X0162859Y0237856D02*
X0155621Y0237856D01*
X0156652Y0237058D02*
X0161827Y0237058D01*
X0166838Y0238655D02*
X0105982Y0238655D01*
X0108377Y0237856D02*
X0115615Y0237856D01*
X0115217Y0237692D02*
X0113884Y0236359D01*
X0113163Y0234617D01*
X0113163Y0232732D01*
X0113884Y0230990D01*
X0115217Y0229657D01*
X0116959Y0228936D01*
X0118844Y0228936D01*
X0120585Y0229657D01*
X0121918Y0230990D01*
X0122640Y0232732D01*
X0122640Y0234617D01*
X0121918Y0236359D01*
X0120585Y0237692D01*
X0118844Y0238413D01*
X0116959Y0238413D01*
X0115217Y0237692D01*
X0114583Y0237058D02*
X0109408Y0237058D01*
X0110149Y0236259D02*
X0113843Y0236259D01*
X0113512Y0235461D02*
X0110479Y0235461D01*
X0110810Y0234662D02*
X0113181Y0234662D01*
X0113163Y0233864D02*
X0110829Y0233864D01*
X0110829Y0233065D02*
X0113163Y0233065D01*
X0113355Y0232267D02*
X0110785Y0232267D01*
X0110785Y0231468D02*
X0113686Y0231468D01*
X0114205Y0230670D02*
X0110785Y0230670D01*
X0110785Y0229871D02*
X0115003Y0229871D01*
X0116629Y0229073D02*
X0110785Y0229073D01*
X0110785Y0228274D02*
X0136458Y0228274D01*
X0137256Y0229073D02*
X0130985Y0229073D01*
X0130655Y0228936D02*
X0132396Y0229657D01*
X0133729Y0230990D01*
X0134451Y0232732D01*
X0134451Y0234617D01*
X0133729Y0236359D01*
X0132396Y0237692D01*
X0130655Y0238413D01*
X0128770Y0238413D01*
X0127028Y0237692D01*
X0125695Y0236359D01*
X0124974Y0234617D01*
X0124974Y0232732D01*
X0125695Y0230990D01*
X0127028Y0229657D01*
X0128770Y0228936D01*
X0130655Y0228936D01*
X0132610Y0229871D02*
X0138055Y0229871D01*
X0137827Y0230670D02*
X0133409Y0230670D01*
X0133927Y0231468D02*
X0137308Y0231468D01*
X0136977Y0232267D02*
X0134258Y0232267D01*
X0134451Y0233065D02*
X0136785Y0233065D01*
X0136785Y0233864D02*
X0134451Y0233864D01*
X0134432Y0234662D02*
X0136803Y0234662D01*
X0137134Y0235461D02*
X0134101Y0235461D01*
X0133771Y0236259D02*
X0137465Y0236259D01*
X0138205Y0237058D02*
X0133030Y0237058D01*
X0131999Y0237856D02*
X0139237Y0237856D01*
X0142991Y0241849D02*
X0128245Y0241849D01*
X0128545Y0242647D02*
X0142690Y0242647D01*
X0142690Y0243446D02*
X0128545Y0243446D01*
X0128545Y0244244D02*
X0142690Y0244244D01*
X0142932Y0245043D02*
X0128304Y0245043D01*
X0127973Y0245841D02*
X0143263Y0245841D01*
X0143850Y0246640D02*
X0127385Y0246640D01*
X0126587Y0247438D02*
X0144649Y0247438D01*
X0150209Y0247438D02*
X0156460Y0247438D01*
X0155661Y0246640D02*
X0151007Y0246640D01*
X0151595Y0245841D02*
X0155074Y0245841D01*
X0154743Y0245043D02*
X0151926Y0245043D01*
X0152167Y0244244D02*
X0154501Y0244244D01*
X0154501Y0243446D02*
X0152167Y0243446D01*
X0152167Y0242647D02*
X0154501Y0242647D01*
X0154802Y0241849D02*
X0151867Y0241849D01*
X0151536Y0241050D02*
X0155133Y0241050D01*
X0155804Y0240252D02*
X0150865Y0240252D01*
X0150001Y0239453D02*
X0156668Y0239453D01*
X0151048Y0237856D02*
X0143810Y0237856D01*
X0144841Y0237058D02*
X0150016Y0237058D01*
X0144857Y0239453D02*
X0126379Y0239453D01*
X0127243Y0240252D02*
X0143993Y0240252D01*
X0143322Y0241050D02*
X0127914Y0241050D01*
X0127426Y0237856D02*
X0120188Y0237856D01*
X0121219Y0237058D02*
X0126394Y0237058D01*
X0125654Y0236259D02*
X0121960Y0236259D01*
X0122290Y0235461D02*
X0125323Y0235461D01*
X0124992Y0234662D02*
X0122621Y0234662D01*
X0122640Y0233864D02*
X0124974Y0233864D01*
X0124974Y0233065D02*
X0122640Y0233065D01*
X0122447Y0232267D02*
X0125166Y0232267D01*
X0125497Y0231468D02*
X0122116Y0231468D01*
X0121598Y0230670D02*
X0126016Y0230670D01*
X0126814Y0229871D02*
X0120799Y0229871D01*
X0119174Y0229073D02*
X0128440Y0229073D01*
X0127920Y0224282D02*
X0119694Y0224282D01*
X0118844Y0224634D02*
X0116959Y0224634D01*
X0115217Y0223912D01*
X0113884Y0222579D01*
X0113163Y0220838D01*
X0113163Y0218952D01*
X0113884Y0217211D01*
X0115217Y0215878D01*
X0116959Y0215156D01*
X0118844Y0215156D01*
X0120585Y0215878D01*
X0121918Y0217211D01*
X0122640Y0218952D01*
X0122640Y0220838D01*
X0121918Y0222579D01*
X0120585Y0223912D01*
X0118844Y0224634D01*
X0121015Y0223483D02*
X0126599Y0223483D01*
X0125801Y0222685D02*
X0121813Y0222685D01*
X0122206Y0221886D02*
X0125408Y0221886D01*
X0125077Y0221088D02*
X0122536Y0221088D01*
X0122640Y0220289D02*
X0124974Y0220289D01*
X0124974Y0219491D02*
X0122640Y0219491D01*
X0122532Y0218692D02*
X0125082Y0218692D01*
X0125412Y0217894D02*
X0122201Y0217894D01*
X0121803Y0217095D02*
X0125278Y0217095D01*
X0124480Y0216296D02*
X0121004Y0216296D01*
X0119668Y0215498D02*
X0123681Y0215498D01*
X0122643Y0214699D02*
X0113159Y0214699D01*
X0114849Y0213901D02*
X0120954Y0213901D01*
X0120155Y0213102D02*
X0115647Y0213102D01*
X0116192Y0212304D02*
X0119610Y0212304D01*
X0119280Y0211505D02*
X0116523Y0211505D01*
X0116734Y0210707D02*
X0119068Y0210707D01*
X0119068Y0209908D02*
X0116734Y0209908D01*
X0116734Y0209110D02*
X0116013Y0207368D01*
X0114680Y0206035D01*
X0113696Y0205628D01*
X0113696Y0198049D01*
X0113285Y0197638D01*
X0113285Y0196977D01*
X0120785Y0196977D01*
X0120785Y0206373D01*
X0119790Y0207368D01*
X0119068Y0209110D01*
X0119399Y0208311D02*
X0116404Y0208311D01*
X0116073Y0207513D02*
X0119730Y0207513D01*
X0120444Y0206714D02*
X0115359Y0206714D01*
X0114392Y0205916D02*
X0120785Y0205916D01*
X0120785Y0205117D02*
X0113696Y0205117D01*
X0113696Y0204319D02*
X0120785Y0204319D01*
X0120785Y0203520D02*
X0113696Y0203520D01*
X0113696Y0202722D02*
X0120785Y0202722D01*
X0120785Y0201923D02*
X0113696Y0201923D01*
X0113696Y0201125D02*
X0120785Y0201125D01*
X0120785Y0200326D02*
X0113696Y0200326D01*
X0113696Y0199528D02*
X0120785Y0199528D01*
X0120785Y0198729D02*
X0113696Y0198729D01*
X0113577Y0197931D02*
X0120785Y0197931D01*
X0120785Y0197132D02*
X0113285Y0197132D01*
X0121137Y0189147D02*
X0122835Y0189147D01*
X0122835Y0188349D02*
X0121301Y0188349D01*
X0121301Y0187550D02*
X0122835Y0187550D01*
X0122835Y0186752D02*
X0121301Y0186752D01*
X0121301Y0185953D02*
X0122835Y0185953D01*
X0122835Y0185155D02*
X0121301Y0185155D01*
X0121301Y0184356D02*
X0122835Y0184356D01*
X0122835Y0183558D02*
X0121301Y0183558D01*
X0121301Y0182759D02*
X0122835Y0182759D01*
X0122835Y0181960D02*
X0121301Y0181960D01*
X0121301Y0181162D02*
X0122566Y0181162D01*
X0121768Y0180363D02*
X0121301Y0180363D01*
X0120969Y0179565D02*
X0120896Y0179565D01*
X0120171Y0178766D02*
X0106163Y0178766D01*
X0106163Y0177968D02*
X0116667Y0177968D01*
X0116667Y0177169D02*
X0106754Y0177169D01*
X0106754Y0176371D02*
X0116667Y0176371D01*
X0116667Y0175572D02*
X0106754Y0175572D01*
X0106754Y0174774D02*
X0116667Y0174774D01*
X0116667Y0173975D02*
X0106754Y0173975D01*
X0106754Y0173177D02*
X0107622Y0173177D01*
X0107843Y0173398D02*
X0107316Y0172871D01*
X0107316Y0168582D01*
X0107843Y0168055D01*
X0108611Y0168055D01*
X0107860Y0167304D01*
X0107860Y0165399D01*
X0109207Y0164052D01*
X0111113Y0164052D01*
X0112460Y0165399D01*
X0112460Y0167304D01*
X0111527Y0168237D01*
X0111872Y0168582D01*
X0111872Y0172871D01*
X0111345Y0173398D01*
X0107843Y0173398D01*
X0107316Y0172378D02*
X0106754Y0172378D01*
X0106754Y0171580D02*
X0107316Y0171580D01*
X0107316Y0170781D02*
X0106754Y0170781D01*
X0106754Y0169983D02*
X0107316Y0169983D01*
X0107316Y0169184D02*
X0106754Y0169184D01*
X0106558Y0168386D02*
X0107513Y0168386D01*
X0108143Y0167587D02*
X0103285Y0167587D01*
X0103285Y0166789D02*
X0107860Y0166789D01*
X0107860Y0165990D02*
X0106899Y0165990D01*
X0107460Y0165192D02*
X0108067Y0165192D01*
X0107460Y0164393D02*
X0108866Y0164393D01*
X0107460Y0163595D02*
X0112926Y0163595D01*
X0112926Y0164393D02*
X0111454Y0164393D01*
X0112253Y0165192D02*
X0112926Y0165192D01*
X0112926Y0165990D02*
X0112460Y0165990D01*
X0112460Y0166789D02*
X0112926Y0166789D01*
X0112926Y0167587D02*
X0112177Y0167587D01*
X0111676Y0168386D02*
X0112926Y0168386D01*
X0112926Y0169184D02*
X0111872Y0169184D01*
X0111872Y0169983D02*
X0113385Y0169983D01*
X0111872Y0170781D02*
X0138285Y0170781D01*
X0138285Y0169983D02*
X0130705Y0169983D01*
X0131163Y0169184D02*
X0138285Y0169184D01*
X0138285Y0168386D02*
X0131163Y0168386D01*
X0131163Y0167587D02*
X0138285Y0167587D01*
X0138285Y0166789D02*
X0131163Y0166789D01*
X0131163Y0165990D02*
X0138285Y0165990D01*
X0138285Y0165192D02*
X0131163Y0165192D01*
X0131163Y0164393D02*
X0138285Y0164393D01*
X0138285Y0163595D02*
X0131163Y0163595D01*
X0131754Y0162796D02*
X0138285Y0162796D01*
X0138285Y0161998D02*
X0131754Y0161998D01*
X0131754Y0161199D02*
X0138285Y0161199D01*
X0138285Y0160401D02*
X0131754Y0160401D01*
X0129476Y0160727D02*
X0129476Y0156352D01*
X0129476Y0160727D02*
X0129476Y0164590D01*
X0128295Y0166396D01*
X0125426Y0166789D02*
X0118663Y0166789D01*
X0118663Y0167587D02*
X0125426Y0167587D01*
X0125426Y0168386D02*
X0118663Y0168386D01*
X0118663Y0169184D02*
X0125426Y0169184D01*
X0125885Y0169983D02*
X0118205Y0169983D01*
X0117015Y0171580D02*
X0111872Y0171580D01*
X0111872Y0172378D02*
X0116667Y0172378D01*
X0116667Y0173177D02*
X0111566Y0173177D01*
X0109594Y0170727D02*
X0110160Y0170161D01*
X0110160Y0166352D01*
X0107941Y0162796D02*
X0107379Y0162796D01*
X0107379Y0161998D02*
X0107941Y0161998D01*
X0107941Y0161199D02*
X0107379Y0161199D01*
X0107379Y0160401D02*
X0107941Y0160401D01*
X0110219Y0160727D02*
X0110219Y0156352D01*
X0112497Y0160401D02*
X0114698Y0160401D01*
X0114698Y0161199D02*
X0112497Y0161199D01*
X0112497Y0161998D02*
X0114698Y0161998D01*
X0113397Y0162796D02*
X0112497Y0162796D01*
X0116976Y0164590D02*
X0115795Y0166396D01*
X0116976Y0164590D02*
X0116976Y0160727D01*
X0116976Y0156352D01*
X0119254Y0160401D02*
X0127198Y0160401D01*
X0127198Y0161199D02*
X0119254Y0161199D01*
X0119254Y0161998D02*
X0127198Y0161998D01*
X0125897Y0162796D02*
X0119254Y0162796D01*
X0118663Y0163595D02*
X0125426Y0163595D01*
X0125426Y0164393D02*
X0118663Y0164393D01*
X0118663Y0165192D02*
X0125426Y0165192D01*
X0125426Y0165990D02*
X0118663Y0165990D01*
X0122055Y0171580D02*
X0129515Y0171580D01*
X0129167Y0172378D02*
X0122404Y0172378D01*
X0122404Y0173177D02*
X0129167Y0173177D01*
X0129167Y0173975D02*
X0122404Y0173975D01*
X0122404Y0174774D02*
X0129167Y0174774D01*
X0129167Y0175572D02*
X0122404Y0175572D01*
X0122584Y0176371D02*
X0129167Y0176371D01*
X0129167Y0177169D02*
X0123382Y0177169D01*
X0124181Y0177968D02*
X0129167Y0177968D01*
X0130335Y0178766D02*
X0124979Y0178766D01*
X0125778Y0179565D02*
X0128174Y0179565D01*
X0127769Y0180363D02*
X0126235Y0180363D01*
X0126235Y0181162D02*
X0127769Y0181162D01*
X0127769Y0181960D02*
X0126235Y0181960D01*
X0126235Y0182759D02*
X0127769Y0182759D01*
X0127769Y0183558D02*
X0126235Y0183558D01*
X0126235Y0184356D02*
X0127769Y0184356D01*
X0127769Y0185155D02*
X0126235Y0185155D01*
X0126235Y0185953D02*
X0127769Y0185953D01*
X0127769Y0186752D02*
X0126235Y0186752D01*
X0126235Y0187550D02*
X0127769Y0187550D01*
X0127769Y0188349D02*
X0126235Y0188349D01*
X0126235Y0189147D02*
X0127933Y0189147D01*
X0127793Y0189946D02*
X0126235Y0189946D01*
X0126235Y0190744D02*
X0127769Y0190744D01*
X0127769Y0191543D02*
X0126505Y0191543D01*
X0127304Y0192341D02*
X0127769Y0192341D01*
X0124891Y0194737D02*
X0121301Y0194737D01*
X0121301Y0193938D02*
X0124092Y0193938D01*
X0123294Y0193140D02*
X0121301Y0193140D01*
X0121301Y0192341D02*
X0122835Y0192341D01*
X0122835Y0191543D02*
X0121301Y0191543D01*
X0121301Y0190744D02*
X0122835Y0190744D01*
X0122835Y0189946D02*
X0121277Y0189946D01*
X0113596Y0184356D02*
X0105707Y0184356D01*
X0106163Y0183558D02*
X0113596Y0183558D01*
X0113596Y0182759D02*
X0106163Y0182759D01*
X0106163Y0181960D02*
X0113596Y0181960D01*
X0113596Y0181162D02*
X0106163Y0181162D01*
X0106163Y0180363D02*
X0113596Y0180363D01*
X0114001Y0179565D02*
X0106163Y0179565D01*
X0104476Y0179590D02*
X0103295Y0180771D01*
X0104476Y0179590D02*
X0104476Y0175102D01*
X0104476Y0170727D01*
X0100785Y0168852D02*
X0097094Y0168852D01*
X0103285Y0165990D02*
X0103421Y0165990D01*
X0105160Y0164477D02*
X0105160Y0160786D01*
X0105101Y0160727D01*
X0100785Y0152036D02*
X0099825Y0151076D01*
X0095185Y0154226D02*
X0094811Y0153852D01*
X0082035Y0153852D01*
X0077660Y0158227D02*
X0076710Y0159176D01*
X0076710Y0163252D01*
X0079860Y0163252D02*
X0079860Y0160426D01*
X0077660Y0158227D01*
X0083010Y0163252D02*
X0083010Y0167031D01*
X0081351Y0168852D01*
X0086159Y0168379D02*
X0086159Y0163252D01*
X0086159Y0168379D02*
X0086469Y0168852D01*
X0091976Y0168852D01*
X0094254Y0181162D02*
X0100426Y0181162D01*
X0100426Y0181960D02*
X0094254Y0181960D01*
X0094254Y0182759D02*
X0100426Y0182759D01*
X0100426Y0183558D02*
X0094254Y0183558D01*
X0094254Y0184356D02*
X0100883Y0184356D01*
X0110785Y0214699D02*
X0110832Y0214699D01*
X0110785Y0215498D02*
X0116134Y0215498D01*
X0114798Y0216296D02*
X0110785Y0216296D01*
X0110785Y0217095D02*
X0114000Y0217095D01*
X0113601Y0217894D02*
X0110785Y0217894D01*
X0110785Y0218692D02*
X0113271Y0218692D01*
X0113163Y0219491D02*
X0110829Y0219491D01*
X0110829Y0220289D02*
X0113163Y0220289D01*
X0113266Y0221088D02*
X0110785Y0221088D01*
X0110785Y0221886D02*
X0113597Y0221886D01*
X0113990Y0222685D02*
X0110785Y0222685D01*
X0110785Y0223483D02*
X0114788Y0223483D01*
X0116109Y0224282D02*
X0110785Y0224282D01*
X0110785Y0225080D02*
X0133264Y0225080D01*
X0134062Y0225879D02*
X0110785Y0225879D01*
X0110785Y0226677D02*
X0134861Y0226677D01*
X0135659Y0227476D02*
X0110785Y0227476D01*
X0109424Y0239453D02*
X0102757Y0239453D01*
X0103621Y0240252D02*
X0108560Y0240252D01*
X0107888Y0241050D02*
X0104292Y0241050D01*
X0104623Y0241849D02*
X0107558Y0241849D01*
X0107257Y0242647D02*
X0104923Y0242647D01*
X0104923Y0243446D02*
X0107257Y0243446D01*
X0107257Y0244244D02*
X0104923Y0244244D01*
X0104682Y0245043D02*
X0107499Y0245043D01*
X0107830Y0245841D02*
X0104351Y0245841D01*
X0103763Y0246640D02*
X0108417Y0246640D01*
X0109216Y0247438D02*
X0102965Y0247438D01*
X0114776Y0247438D02*
X0121027Y0247438D01*
X0120228Y0246640D02*
X0115574Y0246640D01*
X0116162Y0245841D02*
X0119641Y0245841D01*
X0119310Y0245043D02*
X0116493Y0245043D01*
X0116734Y0244244D02*
X0119068Y0244244D01*
X0119068Y0243446D02*
X0116734Y0243446D01*
X0116734Y0242647D02*
X0119068Y0242647D01*
X0119369Y0241849D02*
X0116434Y0241849D01*
X0116103Y0241050D02*
X0119699Y0241050D01*
X0120371Y0240252D02*
X0115432Y0240252D01*
X0114568Y0239453D02*
X0121235Y0239453D01*
X0131505Y0224282D02*
X0132465Y0224282D01*
X0157660Y0200727D02*
X0157660Y0196573D01*
X0150785Y0188862D02*
X0150844Y0188177D01*
X0143275Y0188862D02*
X0142660Y0188862D01*
X0138285Y0173177D02*
X0134904Y0173177D01*
X0134904Y0173975D02*
X0135534Y0173975D01*
X0134904Y0172378D02*
X0138285Y0172378D01*
X0138285Y0171580D02*
X0134555Y0171580D01*
X0155160Y0147661D02*
X0155844Y0147602D01*
X0160761Y0147602D01*
X0163910Y0148227D02*
X0163910Y0151977D01*
X0163910Y0148227D02*
X0164535Y0147602D01*
X0167060Y0147602D01*
X0171386Y0147602D01*
X0169535Y0152602D02*
X0169535Y0155668D01*
X0169535Y0157602D01*
X0170160Y0158227D01*
X0177660Y0158227D01*
X0178285Y0158852D01*
X0178285Y0160786D01*
X0188235Y0163846D02*
X0188235Y0166352D01*
X0210335Y0166352D01*
X0210335Y0163846D01*
X0207981Y0163846D01*
X0207454Y0163319D01*
X0207454Y0154859D01*
X0206616Y0154021D01*
X0206616Y0163319D01*
X0206089Y0163846D01*
X0202981Y0163846D01*
X0202454Y0163319D01*
X0202454Y0154277D01*
X0202332Y0154277D01*
X0200985Y0152929D01*
X0200985Y0152773D01*
X0200835Y0152773D01*
X0200835Y0153385D01*
X0201089Y0153385D01*
X0201616Y0153912D01*
X0201616Y0163319D01*
X0201089Y0163846D01*
X0197981Y0163846D01*
X0197454Y0163319D01*
X0197454Y0153912D01*
X0197981Y0153385D01*
X0198235Y0153385D01*
X0198235Y0152773D01*
X0197843Y0152773D01*
X0197316Y0152246D01*
X0197316Y0147957D01*
X0197843Y0147430D01*
X0198566Y0147430D01*
X0198566Y0144841D01*
X0198047Y0144143D01*
X0197733Y0143829D01*
X0197733Y0143721D01*
X0197669Y0143634D01*
X0197733Y0143196D01*
X0197733Y0142712D01*
X0197444Y0142423D01*
X0197444Y0137602D01*
X0196685Y0137602D01*
X0196685Y0142423D01*
X0196158Y0142950D01*
X0187490Y0142950D01*
X0187832Y0143292D01*
X0187832Y0146793D01*
X0187305Y0147321D01*
X0187035Y0147321D01*
X0187035Y0147883D01*
X0187305Y0147883D01*
X0187348Y0147926D01*
X0187391Y0147883D01*
X0191680Y0147883D01*
X0192207Y0148410D01*
X0192207Y0151911D01*
X0191680Y0152439D01*
X0190835Y0152439D01*
X0190835Y0153385D01*
X0191089Y0153385D01*
X0191616Y0153912D01*
X0191616Y0154555D01*
X0191835Y0154774D01*
X0191835Y0156679D01*
X0191616Y0156898D01*
X0191616Y0163319D01*
X0191089Y0163846D01*
X0188235Y0163846D01*
X0188235Y0164393D02*
X0210335Y0164393D01*
X0210335Y0165192D02*
X0188235Y0165192D01*
X0188235Y0165990D02*
X0210335Y0165990D01*
X0207730Y0163595D02*
X0206340Y0163595D01*
X0206616Y0162796D02*
X0207454Y0162796D01*
X0207454Y0161998D02*
X0206616Y0161998D01*
X0206616Y0161199D02*
X0207454Y0161199D01*
X0207454Y0160401D02*
X0206616Y0160401D01*
X0206616Y0159602D02*
X0207454Y0159602D01*
X0207454Y0158804D02*
X0206616Y0158804D01*
X0206616Y0158005D02*
X0207454Y0158005D01*
X0207454Y0157207D02*
X0206616Y0157207D01*
X0206616Y0156408D02*
X0207454Y0156408D01*
X0207454Y0155610D02*
X0206616Y0155610D01*
X0206616Y0154811D02*
X0207406Y0154811D01*
X0209535Y0155102D02*
X0206410Y0151977D01*
X0206410Y0148793D01*
X0209476Y0145727D01*
X0209535Y0145786D01*
X0209476Y0145727D02*
X0206907Y0143158D01*
X0206907Y0139098D01*
X0208496Y0138841D02*
X0215327Y0138841D01*
X0215835Y0139349D02*
X0214088Y0137602D01*
X0208496Y0137602D01*
X0208496Y0142423D01*
X0208254Y0142666D01*
X0208643Y0143055D01*
X0211227Y0143055D01*
X0211754Y0143582D01*
X0211754Y0147871D01*
X0211227Y0148398D01*
X0210459Y0148398D01*
X0211210Y0149149D01*
X0211210Y0149997D01*
X0212739Y0151527D01*
X0213735Y0152522D01*
X0213735Y0166352D01*
X0215835Y0166352D01*
X0215835Y0139349D01*
X0215835Y0139639D02*
X0208496Y0139639D01*
X0208496Y0140438D02*
X0215835Y0140438D01*
X0215835Y0141236D02*
X0208496Y0141236D01*
X0208496Y0142035D02*
X0215835Y0142035D01*
X0215835Y0142833D02*
X0208421Y0142833D01*
X0204939Y0139098D02*
X0204939Y0150323D01*
X0203285Y0151977D01*
X0201270Y0153214D02*
X0200835Y0153214D01*
X0201616Y0154013D02*
X0202068Y0154013D01*
X0202454Y0154811D02*
X0201616Y0154811D01*
X0201616Y0155610D02*
X0202454Y0155610D01*
X0202454Y0156408D02*
X0201616Y0156408D01*
X0201616Y0157207D02*
X0202454Y0157207D01*
X0202454Y0158005D02*
X0201616Y0158005D01*
X0201616Y0158804D02*
X0202454Y0158804D01*
X0202454Y0159602D02*
X0201616Y0159602D01*
X0201616Y0160401D02*
X0202454Y0160401D01*
X0202454Y0161199D02*
X0201616Y0161199D01*
X0201616Y0161998D02*
X0202454Y0161998D01*
X0202454Y0162796D02*
X0201616Y0162796D01*
X0201340Y0163595D02*
X0202730Y0163595D01*
X0199535Y0158615D02*
X0199535Y0150161D01*
X0199594Y0150102D01*
X0201410Y0150102D01*
X0203285Y0148227D01*
X0203285Y0143227D01*
X0202970Y0142912D01*
X0202970Y0139098D01*
X0199033Y0139098D02*
X0199033Y0143291D01*
X0200844Y0145727D01*
X0198566Y0146027D02*
X0187832Y0146027D01*
X0187832Y0145229D02*
X0198566Y0145229D01*
X0198261Y0144430D02*
X0187832Y0144430D01*
X0187832Y0143632D02*
X0197669Y0143632D01*
X0197065Y0143763D02*
X0195726Y0145727D01*
X0197065Y0143763D02*
X0197065Y0139098D01*
X0197444Y0138841D02*
X0196685Y0138841D01*
X0196685Y0139639D02*
X0197444Y0139639D01*
X0197444Y0140438D02*
X0196685Y0140438D01*
X0196685Y0141236D02*
X0197444Y0141236D01*
X0197444Y0142035D02*
X0196685Y0142035D01*
X0196275Y0142833D02*
X0197733Y0142833D01*
X0199033Y0139098D02*
X0199033Y0133975D01*
X0198910Y0133852D01*
X0197444Y0138042D02*
X0196685Y0138042D01*
X0198566Y0146826D02*
X0187799Y0146826D01*
X0187035Y0147625D02*
X0197649Y0147625D01*
X0197316Y0148423D02*
X0192207Y0148423D01*
X0192207Y0149222D02*
X0197316Y0149222D01*
X0197316Y0150020D02*
X0192207Y0150020D01*
X0192207Y0150819D02*
X0197316Y0150819D01*
X0197316Y0151617D02*
X0192207Y0151617D01*
X0191703Y0152416D02*
X0197486Y0152416D01*
X0198235Y0153214D02*
X0190835Y0153214D01*
X0191616Y0154013D02*
X0197454Y0154013D01*
X0197454Y0154811D02*
X0191835Y0154811D01*
X0191835Y0155610D02*
X0197454Y0155610D01*
X0197454Y0156408D02*
X0191835Y0156408D01*
X0191616Y0157207D02*
X0197454Y0157207D01*
X0197454Y0158005D02*
X0191616Y0158005D01*
X0191616Y0158804D02*
X0197454Y0158804D01*
X0197454Y0159602D02*
X0191616Y0159602D01*
X0191616Y0160401D02*
X0197454Y0160401D01*
X0197454Y0161199D02*
X0191616Y0161199D01*
X0191616Y0161998D02*
X0197454Y0161998D01*
X0197454Y0162796D02*
X0191616Y0162796D01*
X0191340Y0163595D02*
X0197730Y0163595D01*
X0189535Y0158615D02*
X0189535Y0155727D01*
X0189535Y0150161D01*
X0181410Y0148227D02*
X0180785Y0147602D01*
X0177685Y0147602D01*
X0169506Y0139098D02*
X0169535Y0139068D01*
X0161632Y0139098D02*
X0161632Y0133448D01*
X0161410Y0133227D01*
X0160785Y0160727D02*
X0160785Y0160786D01*
X0167348Y0172602D02*
X0169848Y0175102D01*
X0172348Y0177602D02*
X0171816Y0178133D01*
X0171816Y0184157D01*
X0160793Y0179039D02*
X0157847Y0179039D01*
X0157601Y0179418D01*
X0156410Y0179418D01*
X0113910Y0138227D02*
X0111410Y0138227D01*
X0110844Y0138793D01*
X0110844Y0138852D01*
X0103551Y0109296D02*
X0103253Y0109296D01*
X0103551Y0108497D02*
X0089535Y0108497D01*
X0089535Y0107699D02*
X0103551Y0107699D01*
X0076710Y0126652D02*
X0076410Y0126352D01*
X0070160Y0123227D01*
X0070160Y0116977D01*
X0073910Y0113227D01*
X0073910Y0109477D01*
X0072385Y0107951D01*
X0066385Y0107951D01*
X0059870Y0107951D01*
X0060219Y0108852D01*
X0060544Y0104801D02*
X0060219Y0104477D01*
X0060544Y0104801D02*
X0066385Y0104801D01*
X0066385Y0101652D02*
X0069835Y0101652D01*
X0071410Y0103227D01*
X0071410Y0105102D01*
X0071410Y0110727D02*
X0066759Y0110727D01*
X0066385Y0111101D01*
X0063595Y0111101D01*
X0060219Y0113227D01*
X0061410Y0117602D02*
X0057719Y0117602D01*
X0057035Y0117602D01*
X0061410Y0117602D02*
X0067035Y0123227D01*
X0073285Y0126352D01*
X0073561Y0126627D01*
X0073561Y0129452D01*
X0076710Y0129452D02*
X0076710Y0126652D01*
X0070411Y0126603D02*
X0070411Y0129452D01*
X0070411Y0126603D02*
X0063910Y0123227D01*
X0058507Y0123227D01*
X0058507Y0129477D02*
X0061410Y0129477D01*
X0065785Y0133852D01*
X0060219Y0100102D02*
X0063069Y0098502D01*
X0066385Y0098502D01*
X0066735Y0098852D01*
X0074535Y0098852D01*
X0074535Y0095102D02*
X0066636Y0095102D01*
X0138689Y0071396D02*
X0138910Y0071174D01*
X0138910Y0070727D01*
X0167601Y0070102D02*
X0169506Y0072006D01*
X0169506Y0076106D01*
X0169506Y0081322D01*
X0170160Y0081977D01*
X0171410Y0076170D02*
X0171474Y0076106D01*
X0171474Y0071347D01*
X0172719Y0070102D01*
X0175785Y0070102D01*
X0176976Y0065727D02*
X0173113Y0065727D01*
X0173113Y0061352D02*
X0176976Y0061352D01*
X0182094Y0061352D02*
X0185160Y0061352D01*
X0185160Y0065727D02*
X0182094Y0065727D01*
X0220785Y0093286D02*
X0220785Y0096352D01*
X0214781Y0131224D02*
X0214781Y0132848D01*
X0219594Y0137661D01*
X0219594Y0150102D01*
X0219535Y0150161D01*
X0219535Y0158615D01*
X0215835Y0158804D02*
X0213735Y0158804D01*
X0213735Y0159602D02*
X0215835Y0159602D01*
X0215835Y0160401D02*
X0213735Y0160401D01*
X0213735Y0161199D02*
X0215835Y0161199D01*
X0215835Y0161998D02*
X0213735Y0161998D01*
X0213735Y0162796D02*
X0215835Y0162796D01*
X0215835Y0163595D02*
X0213735Y0163595D01*
X0213735Y0164393D02*
X0215835Y0164393D01*
X0215835Y0165192D02*
X0213735Y0165192D01*
X0213735Y0165990D02*
X0215835Y0165990D01*
X0215835Y0158005D02*
X0213735Y0158005D01*
X0213735Y0157207D02*
X0215835Y0157207D01*
X0215835Y0156408D02*
X0213735Y0156408D01*
X0213735Y0155610D02*
X0215835Y0155610D01*
X0215835Y0154811D02*
X0213735Y0154811D01*
X0213735Y0154013D02*
X0215835Y0154013D01*
X0215835Y0153214D02*
X0213735Y0153214D01*
X0213628Y0152416D02*
X0215835Y0152416D01*
X0215835Y0151617D02*
X0212830Y0151617D01*
X0212031Y0150819D02*
X0215835Y0150819D01*
X0215835Y0150020D02*
X0211233Y0150020D01*
X0211210Y0149222D02*
X0215835Y0149222D01*
X0215835Y0148423D02*
X0210484Y0148423D01*
X0211754Y0147625D02*
X0215835Y0147625D01*
X0215835Y0146826D02*
X0211754Y0146826D01*
X0211754Y0146027D02*
X0215835Y0146027D01*
X0215835Y0145229D02*
X0211754Y0145229D01*
X0211754Y0144430D02*
X0215835Y0144430D01*
X0215835Y0143632D02*
X0211754Y0143632D01*
X0214529Y0138042D02*
X0208496Y0138042D01*
X0209535Y0155102D02*
X0209535Y0158615D01*
X0212035Y0193852D02*
X0207035Y0193852D01*
X0207035Y0205102D01*
X0212035Y0205102D01*
X0212035Y0193852D01*
X0212035Y0193938D02*
X0207035Y0193938D01*
X0207035Y0194737D02*
X0212035Y0194737D01*
X0212035Y0195535D02*
X0207035Y0195535D01*
X0207035Y0196334D02*
X0212035Y0196334D01*
X0212035Y0197132D02*
X0207035Y0197132D01*
X0207035Y0197931D02*
X0212035Y0197931D01*
X0212035Y0198729D02*
X0207035Y0198729D01*
X0207035Y0199528D02*
X0212035Y0199528D01*
X0212035Y0200326D02*
X0207035Y0200326D01*
X0207035Y0201125D02*
X0212035Y0201125D01*
X0212035Y0201923D02*
X0207035Y0201923D01*
X0207035Y0202722D02*
X0212035Y0202722D01*
X0212035Y0203520D02*
X0207035Y0203520D01*
X0207035Y0204319D02*
X0212035Y0204319D01*
X0220785Y0223911D02*
X0220785Y0228168D01*
X0220229Y0227612D01*
X0215116Y0227612D01*
X0216410Y0235102D02*
X0218969Y0235102D01*
X0220785Y0233286D01*
X0222550Y0239453D02*
X0209426Y0239453D01*
X0209426Y0240252D02*
X0222550Y0240252D01*
X0222550Y0241050D02*
X0209426Y0241050D01*
X0209426Y0241849D02*
X0222550Y0241849D01*
X0222550Y0242647D02*
X0209426Y0242647D01*
X0209426Y0243446D02*
X0222550Y0243446D01*
X0222550Y0244244D02*
X0209426Y0244244D01*
X0209426Y0245043D02*
X0222550Y0245043D01*
X0222550Y0245841D02*
X0209426Y0245841D01*
X0209426Y0246640D02*
X0222550Y0246640D01*
X0222550Y0247438D02*
X0209096Y0247438D01*
X0202051Y0247438D02*
X0193717Y0247438D01*
X0192919Y0248237D02*
X0222550Y0248237D01*
X0222550Y0249035D02*
X0192120Y0249035D01*
X0191322Y0249834D02*
X0222550Y0249834D01*
X0222550Y0250632D02*
X0190523Y0250632D01*
X0189725Y0251431D02*
X0222550Y0251431D01*
X0222550Y0252229D02*
X0188926Y0252229D01*
X0187751Y0253028D02*
X0222550Y0253028D01*
X0222550Y0253827D02*
X0048685Y0253827D01*
X0048685Y0254625D02*
X0222550Y0254625D01*
X0222550Y0255424D02*
X0048685Y0255424D01*
X0048685Y0256222D02*
X0222550Y0256222D01*
X0222550Y0257021D02*
X0048685Y0257021D01*
X0048685Y0257819D02*
X0222550Y0257819D01*
X0222550Y0258618D02*
X0048685Y0258618D01*
X0048685Y0259416D02*
X0222550Y0259416D01*
X0222550Y0260215D02*
X0048685Y0260215D01*
X0048685Y0261013D02*
X0222550Y0261013D01*
X0222550Y0261812D02*
X0214425Y0261812D01*
X0216074Y0262610D02*
X0222550Y0262610D01*
X0222550Y0263409D02*
X0216873Y0263409D01*
X0208386Y0261812D02*
X0062850Y0261812D01*
X0064500Y0262610D02*
X0206736Y0262610D01*
X0205937Y0263409D02*
X0065298Y0263409D01*
X0056811Y0261812D02*
X0048685Y0261812D01*
X0048685Y0262610D02*
X0055161Y0262610D01*
X0054363Y0263409D02*
X0048685Y0263409D01*
X0172038Y0248237D02*
X0172377Y0248237D01*
X0194516Y0246640D02*
X0201721Y0246640D01*
X0201721Y0245841D02*
X0195314Y0245841D01*
X0196113Y0245043D02*
X0201721Y0245043D01*
D42*
X0177035Y0199477D02*
X0177035Y0196411D01*
X0173851Y0193852D01*
X0170160Y0193852D01*
X0169535Y0193227D01*
X0169535Y0190702D01*
X0165911Y0186226D02*
X0165911Y0184157D01*
X0163942Y0184477D02*
X0160785Y0184477D01*
X0160785Y0181007D01*
X0160793Y0181007D01*
X0156410Y0184536D02*
X0157660Y0189880D01*
X0157823Y0190668D01*
X0162660Y0190668D01*
X0163344Y0190668D01*
X0165911Y0186226D01*
X0163344Y0195102D02*
X0162660Y0195786D01*
X0157823Y0195786D01*
X0157660Y0196573D01*
X0144535Y0179477D02*
X0145844Y0178168D01*
X0145844Y0175727D01*
X0148285Y0175727D01*
X0149525Y0174487D01*
X0149525Y0170102D01*
X0142045Y0170102D02*
X0140726Y0171421D01*
X0140726Y0175727D01*
X0140726Y0179418D01*
X0140785Y0179477D01*
X0155160Y0150727D02*
X0155160Y0147661D01*
X0155844Y0143227D02*
X0155160Y0142543D01*
X0155160Y0139477D01*
X0155844Y0143227D02*
X0159535Y0143227D01*
X0159663Y0143099D01*
X0159663Y0139098D01*
X0159535Y0143227D02*
X0162660Y0143227D01*
X0163600Y0142287D01*
X0163600Y0139098D01*
X0148285Y0144477D02*
X0145219Y0144477D01*
X0113910Y0121352D02*
X0112719Y0121352D01*
X0073561Y0163252D02*
X0073561Y0167252D01*
X0074535Y0168227D01*
X0074535Y0173286D01*
X0075101Y0173227D01*
X0080219Y0173227D02*
X0083910Y0173227D01*
X0104476Y0196352D02*
X0104476Y0198793D01*
X0106410Y0200727D01*
X0208910Y0105727D02*
X0209004Y0105633D01*
X0214781Y0105633D01*
X0218758Y0105633D01*
X0220785Y0107036D01*
X0218413Y0103665D02*
X0220785Y0101918D01*
X0218413Y0103665D02*
X0214781Y0103665D01*
X0210598Y0103665D01*
X0208910Y0101977D01*
X0173910Y0056977D02*
X0173113Y0056977D01*
X0167207Y0056977D02*
X0163344Y0056977D01*
X0158226Y0056977D02*
X0157660Y0056977D01*
D43*
X0103285Y0130727D02*
X0100785Y0134418D01*
X0101381Y0138478D02*
X0100785Y0139536D01*
X0099314Y0141352D01*
X0094910Y0141352D01*
X0095185Y0141627D01*
X0094910Y0141352D02*
X0090160Y0141352D01*
X0090411Y0138478D02*
X0090160Y0138227D01*
X0090411Y0138478D02*
X0095185Y0138478D01*
X0101381Y0138478D01*
X0067660Y0143852D02*
X0066710Y0144777D01*
X0061385Y0144777D01*
X0061410Y0168852D02*
X0065101Y0168852D01*
X0177035Y0188227D02*
X0182882Y0188227D01*
X0183910Y0189255D01*
X0177035Y0188227D02*
X0177035Y0191293D01*
D44*
X0189535Y0187602D02*
X0189535Y0179088D01*
X0189535Y0187602D02*
X0190785Y0188852D01*
X0190785Y0188862D01*
X0199535Y0187612D02*
X0199535Y0179088D01*
X0199535Y0187612D02*
X0201410Y0188862D01*
X0209535Y0179088D02*
X0209535Y0172602D01*
X0212035Y0170102D01*
X0212035Y0153227D01*
X0208910Y0150102D01*
X0219535Y0179088D02*
X0219535Y0188237D01*
X0217660Y0188862D01*
X0217660Y0196342D02*
X0217660Y0208719D01*
X0182862Y0243517D01*
X0153334Y0219895D02*
X0153334Y0205151D01*
X0150785Y0202602D01*
X0150785Y0196342D01*
X0142660Y0196342D02*
X0142660Y0205284D01*
X0147429Y0210052D01*
X0137035Y0208635D02*
X0135618Y0210052D01*
X0137035Y0208635D02*
X0137035Y0185727D01*
X0135785Y0184477D01*
X0131622Y0184477D01*
X0132035Y0184063D01*
X0132035Y0175057D01*
X0124535Y0180727D02*
X0124535Y0191977D01*
X0127035Y0194477D01*
X0131622Y0194477D01*
X0131622Y0202237D01*
X0123807Y0210052D01*
X0111996Y0210052D02*
X0111996Y0198753D01*
X0109594Y0196352D01*
X0109594Y0192661D01*
X0107035Y0190102D01*
X0107035Y0189432D01*
X0119535Y0175727D02*
X0119535Y0175057D01*
X0119535Y0175727D02*
X0124535Y0180727D01*
X0105382Y0078227D02*
X0103285Y0076130D01*
X0103285Y0071504D01*
X0099545Y0072380D02*
X0092035Y0072380D01*
X0098689Y0078227D02*
X0099545Y0078620D01*
X0099545Y0072380D01*
X0107025Y0071504D02*
X0111966Y0071504D01*
X0112035Y0072036D01*
D45*
X0125785Y0062515D02*
X0125806Y0062515D01*
X0126275Y0062984D01*
X0126275Y0068852D01*
X0132810Y0068852D01*
X0132810Y0067146D01*
X0133454Y0066502D01*
X0134535Y0065421D01*
X0134535Y0054152D01*
X0125785Y0054152D01*
X0125785Y0062515D01*
X0125785Y0062178D02*
X0134535Y0062178D01*
X0134535Y0062776D02*
X0126068Y0062776D01*
X0126275Y0063375D02*
X0134535Y0063375D01*
X0134535Y0063973D02*
X0126275Y0063973D01*
X0126275Y0064572D02*
X0134535Y0064572D01*
X0134535Y0065170D02*
X0126275Y0065170D01*
X0126275Y0065769D02*
X0134187Y0065769D01*
X0133589Y0066367D02*
X0126275Y0066367D01*
X0126275Y0066966D02*
X0132990Y0066966D01*
X0132810Y0067564D02*
X0126275Y0067564D01*
X0126275Y0068163D02*
X0132810Y0068163D01*
X0132810Y0068761D02*
X0126275Y0068761D01*
X0125785Y0061579D02*
X0134535Y0061579D01*
X0134535Y0060981D02*
X0125785Y0060981D01*
X0125785Y0060382D02*
X0134535Y0060382D01*
X0134535Y0059784D02*
X0125785Y0059784D01*
X0125785Y0059185D02*
X0134535Y0059185D01*
X0134535Y0058587D02*
X0125785Y0058587D01*
X0125785Y0057988D02*
X0134535Y0057988D01*
X0134535Y0057390D02*
X0125785Y0057390D01*
X0125785Y0056791D02*
X0134535Y0056791D01*
X0134535Y0056193D02*
X0125785Y0056193D01*
X0125785Y0055594D02*
X0134535Y0055594D01*
X0134535Y0054996D02*
X0125785Y0054996D01*
X0125785Y0054397D02*
X0134535Y0054397D01*
X0135785Y0065727D02*
X0133910Y0067602D01*
X0133910Y0076352D01*
X0132035Y0078227D01*
X0130160Y0078227D01*
X0133910Y0080102D02*
X0135160Y0078852D01*
X0135160Y0068227D01*
X0136410Y0066977D01*
X0165957Y0066977D01*
X0167207Y0065727D01*
X0167207Y0061352D02*
X0165160Y0061352D01*
X0160785Y0065727D01*
X0135785Y0065727D01*
X0142660Y0075727D02*
X0138689Y0079698D01*
X0138689Y0080057D01*
X0140101Y0081470D01*
X0140101Y0085727D01*
X0145219Y0085727D02*
X0145219Y0080786D01*
X0145160Y0080727D01*
X0145160Y0080279D01*
X0145382Y0080057D01*
X0142660Y0075727D02*
X0149535Y0075727D01*
X0157035Y0083227D01*
X0160785Y0083227D01*
X0164535Y0086977D01*
X0170785Y0086977D01*
X0173910Y0083852D01*
X0173910Y0081352D01*
X0175411Y0079851D01*
X0175411Y0076106D01*
X0173443Y0076106D02*
X0173443Y0079944D01*
X0172660Y0080727D01*
X0172660Y0083227D01*
X0170160Y0085727D01*
X0165160Y0085727D01*
X0161410Y0081977D01*
X0157660Y0081977D01*
X0150160Y0074477D01*
X0148462Y0074477D01*
X0145382Y0071396D01*
X0146051Y0070727D01*
X0150101Y0070727D01*
X0155219Y0070727D02*
X0155785Y0070727D01*
X0155913Y0083980D02*
X0151789Y0083980D01*
X0152011Y0085727D02*
X0151789Y0085948D01*
X0152011Y0085727D02*
X0158285Y0085727D01*
X0163285Y0090727D01*
X0163910Y0088227D02*
X0174535Y0088227D01*
X0180160Y0082602D01*
X0177380Y0081696D02*
X0177380Y0076106D01*
X0177380Y0072198D01*
X0179476Y0070102D01*
X0184594Y0070102D02*
X0185160Y0070102D01*
X0188285Y0062602D02*
X0193285Y0067602D01*
X0193128Y0067759D01*
X0193128Y0076106D01*
X0195096Y0076106D02*
X0195096Y0072041D01*
X0198285Y0068852D01*
X0198285Y0062602D01*
X0220726Y0062602D01*
X0220785Y0062661D01*
X0220785Y0066352D02*
X0220785Y0069418D01*
X0220785Y0074536D02*
X0216469Y0074536D01*
X0213285Y0071352D01*
X0213285Y0067602D01*
X0220785Y0074536D02*
X0220785Y0078793D01*
X0218851Y0081977D02*
X0220785Y0083911D01*
X0220785Y0088168D01*
X0218851Y0081977D02*
X0198910Y0081977D01*
X0177035Y0103852D01*
X0177035Y0115727D01*
X0184535Y0124477D01*
X0184535Y0130727D01*
X0179348Y0135914D01*
X0179348Y0139098D01*
X0177380Y0139098D02*
X0177380Y0145043D01*
X0177685Y0145043D01*
X0181410Y0144477D02*
X0184594Y0144477D01*
X0185160Y0145043D01*
X0185160Y0150161D02*
X0185160Y0151977D01*
X0187035Y0153852D01*
X0187035Y0183852D01*
X0185785Y0185102D01*
X0183285Y0185102D01*
X0182035Y0183852D01*
X0182035Y0181977D01*
X0181066Y0181007D01*
X0178903Y0181007D01*
X0178903Y0177070D02*
X0180692Y0177070D01*
X0182348Y0175414D01*
X0182348Y0164164D01*
X0181410Y0163227D01*
X0181410Y0152602D01*
X0178285Y0150161D02*
X0178285Y0155668D01*
X0173910Y0155668D01*
X0173910Y0160786D02*
X0169535Y0160786D01*
X0169535Y0162602D01*
X0168910Y0163227D01*
X0159535Y0163227D01*
X0158285Y0164477D01*
X0156410Y0168227D02*
X0156410Y0168793D01*
X0156410Y0173911D02*
X0156410Y0174477D01*
X0152035Y0179477D02*
X0152094Y0179536D01*
X0152094Y0183227D01*
X0152094Y0187552D01*
X0150785Y0188862D01*
X0146410Y0185727D02*
X0146410Y0183793D01*
X0146976Y0183227D01*
X0146976Y0180786D01*
X0148285Y0179477D01*
X0146410Y0185727D02*
X0143275Y0188862D01*
X0159240Y0210052D02*
X0166976Y0202316D01*
X0166976Y0197001D01*
X0172094Y0197001D02*
X0172094Y0200043D01*
X0166410Y0205727D01*
X0166410Y0208852D01*
X0167611Y0210052D01*
X0171051Y0210052D01*
X0174576Y0207018D02*
X0179337Y0207018D01*
X0178929Y0207425D02*
X0180234Y0206120D01*
X0181939Y0205414D01*
X0183785Y0205414D01*
X0185489Y0206120D01*
X0185785Y0206416D01*
X0185785Y0193852D01*
X0181410Y0193852D01*
X0181410Y0198227D01*
X0173564Y0206073D01*
X0173678Y0206120D01*
X0174983Y0207425D01*
X0175689Y0209130D01*
X0175689Y0210975D01*
X0174983Y0212680D01*
X0173678Y0213985D01*
X0171974Y0214691D01*
X0170128Y0214691D01*
X0168423Y0213985D01*
X0167118Y0212680D01*
X0167071Y0212566D01*
X0160785Y0218852D01*
X0160785Y0221352D01*
X0163285Y0223852D01*
X0167035Y0223852D01*
X0172318Y0219273D01*
X0172318Y0218972D01*
X0173024Y0217267D01*
X0174329Y0215963D01*
X0176034Y0215256D01*
X0176953Y0215256D01*
X0179392Y0213142D01*
X0178929Y0212680D01*
X0178223Y0210975D01*
X0178223Y0209130D01*
X0178929Y0207425D01*
X0178850Y0207616D02*
X0175062Y0207616D01*
X0175310Y0208215D02*
X0178602Y0208215D01*
X0178354Y0208813D02*
X0175558Y0208813D01*
X0175689Y0209412D02*
X0178223Y0209412D01*
X0178223Y0210010D02*
X0175689Y0210010D01*
X0175689Y0210609D02*
X0178223Y0210609D01*
X0178319Y0211207D02*
X0175593Y0211207D01*
X0175345Y0211806D02*
X0178567Y0211806D01*
X0178815Y0212404D02*
X0175098Y0212404D01*
X0174661Y0213003D02*
X0179252Y0213003D01*
X0178863Y0213601D02*
X0174062Y0213601D01*
X0173160Y0214200D02*
X0178172Y0214200D01*
X0177481Y0214798D02*
X0164839Y0214798D01*
X0165437Y0214200D02*
X0168942Y0214200D01*
X0168040Y0213601D02*
X0166036Y0213601D01*
X0166634Y0213003D02*
X0167441Y0213003D01*
X0164240Y0215397D02*
X0175695Y0215397D01*
X0174296Y0215995D02*
X0163642Y0215995D01*
X0163043Y0216594D02*
X0173698Y0216594D01*
X0173099Y0217192D02*
X0162445Y0217192D01*
X0161846Y0217791D02*
X0172807Y0217791D01*
X0172559Y0218389D02*
X0161247Y0218389D01*
X0160785Y0218988D02*
X0172318Y0218988D01*
X0171957Y0219586D02*
X0160785Y0219586D01*
X0160785Y0220185D02*
X0171266Y0220185D01*
X0170575Y0220783D02*
X0160785Y0220783D01*
X0160815Y0221382D02*
X0169885Y0221382D01*
X0169194Y0221980D02*
X0161414Y0221980D01*
X0162012Y0222579D02*
X0168504Y0222579D01*
X0167813Y0223177D02*
X0162611Y0223177D01*
X0163209Y0223776D02*
X0167123Y0223776D01*
X0173977Y0206419D02*
X0179935Y0206419D01*
X0180957Y0205821D02*
X0173816Y0205821D01*
X0174415Y0205222D02*
X0185785Y0205222D01*
X0185785Y0204624D02*
X0175013Y0204624D01*
X0175612Y0204025D02*
X0185785Y0204025D01*
X0185785Y0203427D02*
X0176210Y0203427D01*
X0176809Y0202828D02*
X0185785Y0202828D01*
X0185785Y0202229D02*
X0177407Y0202229D01*
X0178006Y0201631D02*
X0185785Y0201631D01*
X0185785Y0201032D02*
X0178604Y0201032D01*
X0179203Y0200434D02*
X0185785Y0200434D01*
X0185785Y0199835D02*
X0179801Y0199835D01*
X0180400Y0199237D02*
X0185785Y0199237D01*
X0185785Y0198638D02*
X0180998Y0198638D01*
X0181410Y0198040D02*
X0185785Y0198040D01*
X0185785Y0197441D02*
X0181410Y0197441D01*
X0181410Y0196843D02*
X0185785Y0196843D01*
X0185785Y0196244D02*
X0181410Y0196244D01*
X0181410Y0195646D02*
X0185785Y0195646D01*
X0185785Y0195047D02*
X0181410Y0195047D01*
X0181410Y0194449D02*
X0185785Y0194449D01*
X0187258Y0192653D02*
X0197660Y0192653D01*
X0197660Y0192055D02*
X0194235Y0192055D01*
X0194069Y0192221D02*
X0187588Y0192221D01*
X0187207Y0192602D01*
X0187588Y0192983D01*
X0194069Y0192983D01*
X0194538Y0193451D01*
X0194538Y0199232D01*
X0194069Y0199701D01*
X0187501Y0199701D01*
X0187107Y0199307D01*
X0187035Y0199307D01*
X0187035Y0208006D01*
X0187500Y0209130D01*
X0187500Y0210975D01*
X0187035Y0212099D01*
X0187035Y0215102D01*
X0192660Y0218852D01*
X0197660Y0212602D01*
X0197660Y0211963D01*
X0196696Y0212927D01*
X0194874Y0212927D01*
X0193624Y0211677D01*
X0192999Y0211677D01*
X0191710Y0210388D01*
X0191710Y0208565D01*
X0192999Y0207277D01*
X0194821Y0207277D01*
X0196071Y0208527D01*
X0196696Y0208527D01*
X0197660Y0209490D01*
X0197660Y0199235D01*
X0197657Y0199232D01*
X0197657Y0193451D01*
X0197660Y0193449D01*
X0197660Y0191755D01*
X0197657Y0191752D01*
X0197657Y0185971D01*
X0197935Y0185693D01*
X0197935Y0184131D01*
X0197554Y0183750D01*
X0197554Y0174426D01*
X0198023Y0173957D01*
X0201048Y0173957D01*
X0201516Y0174426D01*
X0201516Y0183750D01*
X0201135Y0184131D01*
X0201135Y0185502D01*
X0204694Y0185502D01*
X0205163Y0185971D01*
X0205163Y0191352D01*
X0213907Y0191352D01*
X0213907Y0185971D01*
X0214376Y0185502D01*
X0215785Y0185502D01*
X0215785Y0168852D01*
X0213635Y0168852D01*
X0213635Y0170764D01*
X0211135Y0173264D01*
X0211135Y0174045D01*
X0211516Y0174426D01*
X0211516Y0183750D01*
X0211048Y0184219D01*
X0208023Y0184219D01*
X0207554Y0183750D01*
X0207554Y0174426D01*
X0207935Y0174045D01*
X0207935Y0171939D01*
X0210435Y0169439D01*
X0210435Y0168852D01*
X0188135Y0168852D01*
X0188135Y0173957D01*
X0191048Y0173957D01*
X0191516Y0174426D01*
X0191516Y0183750D01*
X0191135Y0184131D01*
X0191135Y0185502D01*
X0194069Y0185502D01*
X0194538Y0185971D01*
X0194538Y0191752D01*
X0194069Y0192221D01*
X0194538Y0191456D02*
X0197657Y0191456D01*
X0197657Y0190858D02*
X0194538Y0190858D01*
X0194538Y0190259D02*
X0197657Y0190259D01*
X0197657Y0189661D02*
X0194538Y0189661D01*
X0194538Y0189062D02*
X0197657Y0189062D01*
X0197657Y0188464D02*
X0194538Y0188464D01*
X0194538Y0187865D02*
X0197657Y0187865D01*
X0197657Y0187267D02*
X0194538Y0187267D01*
X0194538Y0186668D02*
X0197657Y0186668D01*
X0197657Y0186070D02*
X0194538Y0186070D01*
X0197935Y0185471D02*
X0191135Y0185471D01*
X0191135Y0184873D02*
X0197935Y0184873D01*
X0197935Y0184274D02*
X0191135Y0184274D01*
X0191516Y0183676D02*
X0197554Y0183676D01*
X0197554Y0183077D02*
X0191516Y0183077D01*
X0191516Y0182479D02*
X0197554Y0182479D01*
X0197554Y0181880D02*
X0191516Y0181880D01*
X0191516Y0181282D02*
X0197554Y0181282D01*
X0197554Y0180683D02*
X0191516Y0180683D01*
X0191516Y0180085D02*
X0197554Y0180085D01*
X0197554Y0179486D02*
X0191516Y0179486D01*
X0191516Y0178888D02*
X0197554Y0178888D01*
X0197554Y0178289D02*
X0191516Y0178289D01*
X0191516Y0177691D02*
X0197554Y0177691D01*
X0197554Y0177092D02*
X0191516Y0177092D01*
X0191516Y0176494D02*
X0197554Y0176494D01*
X0197554Y0175895D02*
X0191516Y0175895D01*
X0191516Y0175296D02*
X0197554Y0175296D01*
X0197554Y0174698D02*
X0191516Y0174698D01*
X0191190Y0174099D02*
X0197880Y0174099D01*
X0201190Y0174099D02*
X0202880Y0174099D01*
X0203023Y0173957D02*
X0206048Y0173957D01*
X0206516Y0174426D01*
X0206516Y0183750D01*
X0206048Y0184219D01*
X0203023Y0184219D01*
X0202554Y0183750D01*
X0202554Y0174426D01*
X0203023Y0173957D01*
X0202554Y0174698D02*
X0201516Y0174698D01*
X0201516Y0175296D02*
X0202554Y0175296D01*
X0202554Y0175895D02*
X0201516Y0175895D01*
X0201516Y0176494D02*
X0202554Y0176494D01*
X0202554Y0177092D02*
X0201516Y0177092D01*
X0201516Y0177691D02*
X0202554Y0177691D01*
X0202554Y0178289D02*
X0201516Y0178289D01*
X0201516Y0178888D02*
X0202554Y0178888D01*
X0202554Y0179486D02*
X0201516Y0179486D01*
X0201516Y0180085D02*
X0202554Y0180085D01*
X0202554Y0180683D02*
X0201516Y0180683D01*
X0201516Y0181282D02*
X0202554Y0181282D01*
X0202554Y0181880D02*
X0201516Y0181880D01*
X0201516Y0182479D02*
X0202554Y0182479D01*
X0202554Y0183077D02*
X0201516Y0183077D01*
X0201516Y0183676D02*
X0202554Y0183676D01*
X0201135Y0184274D02*
X0215785Y0184274D01*
X0215785Y0183676D02*
X0211516Y0183676D01*
X0211516Y0183077D02*
X0215785Y0183077D01*
X0215785Y0182479D02*
X0211516Y0182479D01*
X0211516Y0181880D02*
X0215785Y0181880D01*
X0215785Y0181282D02*
X0211516Y0181282D01*
X0211516Y0180683D02*
X0215785Y0180683D01*
X0215785Y0180085D02*
X0211516Y0180085D01*
X0211516Y0179486D02*
X0215785Y0179486D01*
X0215785Y0178888D02*
X0211516Y0178888D01*
X0211516Y0178289D02*
X0215785Y0178289D01*
X0215785Y0177691D02*
X0211516Y0177691D01*
X0211516Y0177092D02*
X0215785Y0177092D01*
X0215785Y0176494D02*
X0211516Y0176494D01*
X0211516Y0175895D02*
X0215785Y0175895D01*
X0215785Y0175296D02*
X0211516Y0175296D01*
X0211516Y0174698D02*
X0215785Y0174698D01*
X0215785Y0174099D02*
X0211190Y0174099D01*
X0211135Y0173501D02*
X0215785Y0173501D01*
X0215785Y0172902D02*
X0211497Y0172902D01*
X0212096Y0172304D02*
X0215785Y0172304D01*
X0215785Y0171705D02*
X0212694Y0171705D01*
X0213293Y0171107D02*
X0215785Y0171107D01*
X0215785Y0170508D02*
X0213635Y0170508D01*
X0213635Y0169910D02*
X0215785Y0169910D01*
X0215785Y0169311D02*
X0213635Y0169311D01*
X0217035Y0166352D02*
X0217035Y0138852D01*
X0212035Y0133852D01*
X0203285Y0133852D01*
X0192660Y0123227D01*
X0182035Y0129477D02*
X0165785Y0129477D01*
X0164535Y0128227D01*
X0156410Y0128227D01*
X0155382Y0129255D01*
X0151789Y0129255D01*
X0151789Y0127287D02*
X0155475Y0127287D01*
X0155785Y0126977D01*
X0165160Y0126977D01*
X0166410Y0128227D01*
X0178285Y0128227D01*
X0179535Y0126977D01*
X0175785Y0126977D02*
X0179535Y0123227D01*
X0175785Y0126977D02*
X0167035Y0126977D01*
X0163408Y0123350D01*
X0151789Y0123350D01*
X0151789Y0121381D02*
X0165815Y0121381D01*
X0168285Y0123852D01*
X0170785Y0121352D02*
X0175785Y0116352D01*
X0175785Y0103227D01*
X0199033Y0079979D01*
X0199033Y0076106D01*
X0197065Y0076106D02*
X0197065Y0080072D01*
X0186410Y0090727D01*
X0167035Y0090727D01*
X0163910Y0088227D02*
X0160160Y0084477D01*
X0156410Y0084477D01*
X0155913Y0083980D01*
X0156725Y0087917D02*
X0151789Y0087917D01*
X0151789Y0089885D02*
X0144752Y0089885D01*
X0140160Y0094477D01*
X0140160Y0097602D01*
X0134535Y0103227D01*
X0129535Y0103227D01*
X0127035Y0105727D01*
X0127035Y0122602D01*
X0132035Y0127602D01*
X0140101Y0125102D02*
X0140785Y0124418D01*
X0140785Y0120786D01*
X0145160Y0121352D02*
X0145160Y0125043D01*
X0145219Y0125102D01*
X0145219Y0129477D01*
X0142660Y0125727D02*
X0142035Y0125102D01*
X0140101Y0125102D01*
X0142660Y0125727D02*
X0142660Y0140727D01*
X0143285Y0141352D01*
X0149535Y0141352D01*
X0153226Y0145043D01*
X0160761Y0145043D01*
X0163344Y0145043D01*
X0165569Y0142818D01*
X0165569Y0139098D01*
X0167537Y0139098D02*
X0167537Y0134979D01*
X0163285Y0130727D01*
X0160160Y0130727D01*
X0156410Y0134477D01*
X0156410Y0135727D01*
X0155785Y0133227D02*
X0145844Y0133227D01*
X0145219Y0133852D01*
X0145219Y0138227D01*
X0140101Y0138227D02*
X0140101Y0144477D01*
X0140101Y0148852D01*
X0140101Y0151918D01*
X0140785Y0152602D01*
X0142660Y0152602D01*
X0140785Y0155102D02*
X0138910Y0153227D01*
X0115219Y0153227D01*
X0113969Y0151977D01*
X0113910Y0151293D01*
X0113910Y0148227D01*
X0113344Y0147661D01*
X0113344Y0147602D01*
X0114594Y0151352D02*
X0113969Y0151977D01*
X0109535Y0152602D02*
X0109535Y0155668D01*
X0110219Y0156352D01*
X0113285Y0156352D01*
X0109535Y0152602D02*
X0108910Y0151977D01*
X0108851Y0151977D01*
X0105160Y0151977D02*
X0105160Y0156293D01*
X0105101Y0156352D01*
X0105726Y0143227D02*
X0102660Y0143227D01*
X0105726Y0143227D02*
X0105726Y0138852D01*
X0105726Y0134477D01*
X0110844Y0134477D02*
X0112094Y0130102D01*
X0115160Y0130102D01*
X0117660Y0128852D02*
X0115785Y0126977D01*
X0101410Y0126977D01*
X0098285Y0130102D01*
X0095785Y0134728D02*
X0095185Y0135328D01*
X0095785Y0134728D02*
X0095785Y0124477D01*
X0097035Y0123227D01*
X0097035Y0116977D01*
X0092660Y0112602D01*
X0082035Y0112602D01*
X0078561Y0116076D01*
X0078561Y0120127D01*
X0075411Y0120127D02*
X0075411Y0122853D01*
X0077035Y0123852D01*
X0083910Y0123852D01*
X0086159Y0126101D01*
X0086159Y0129452D01*
X0086159Y0134728D01*
X0085785Y0135102D01*
X0083285Y0137602D02*
X0083010Y0137326D01*
X0083010Y0129452D01*
X0083010Y0126076D01*
X0082035Y0125102D01*
X0077035Y0125102D01*
X0072262Y0122828D01*
X0072262Y0120127D01*
X0066410Y0118227D02*
X0066410Y0114275D01*
X0066385Y0114250D01*
X0079860Y0129452D02*
X0079860Y0139176D01*
X0080160Y0139477D01*
X0075160Y0136352D02*
X0073034Y0138478D01*
X0061661Y0138478D01*
X0056469Y0137602D02*
X0056469Y0141977D01*
X0053910Y0139477D02*
X0053910Y0145727D01*
X0054535Y0146352D01*
X0056469Y0146352D01*
X0051351Y0146352D02*
X0050785Y0146352D01*
X0050785Y0141977D02*
X0051351Y0141977D01*
X0051410Y0138793D02*
X0053226Y0138793D01*
X0053910Y0139477D01*
X0051410Y0138793D02*
X0051351Y0137602D01*
X0051410Y0150668D02*
X0050785Y0150727D01*
X0051351Y0150727D02*
X0051410Y0150668D01*
X0060844Y0173227D02*
X0063910Y0173227D01*
X0072094Y0178227D02*
X0075160Y0178227D01*
X0084594Y0178227D02*
X0087660Y0178227D01*
X0097094Y0178227D02*
X0097035Y0176977D01*
X0097035Y0174477D01*
X0122094Y0156352D02*
X0125160Y0156977D01*
X0134594Y0156352D02*
X0137660Y0156352D01*
X0140785Y0155102D02*
X0147660Y0155102D01*
X0151410Y0151352D01*
X0151410Y0148852D02*
X0152601Y0147661D01*
X0155160Y0147661D01*
X0151410Y0148852D02*
X0145219Y0148852D01*
X0145785Y0157602D02*
X0143285Y0160102D01*
X0145785Y0157602D02*
X0150785Y0157602D01*
X0151410Y0158227D01*
X0162660Y0158227D01*
X0165160Y0160727D01*
X0165160Y0160786D01*
X0169535Y0160786D02*
X0169535Y0160102D01*
X0165160Y0155668D02*
X0165160Y0153227D01*
X0163910Y0151977D01*
X0160761Y0150161D02*
X0160761Y0155077D01*
X0160785Y0155102D01*
X0160785Y0155668D01*
X0156410Y0155668D01*
X0156410Y0160727D02*
X0156410Y0160786D01*
X0167060Y0145043D02*
X0167537Y0145043D01*
X0167537Y0139098D01*
X0169535Y0139068D02*
X0169535Y0133227D01*
X0171474Y0135038D02*
X0172035Y0134477D01*
X0172035Y0131977D01*
X0170785Y0130727D01*
X0165160Y0130727D01*
X0163910Y0129477D01*
X0159535Y0129477D01*
X0155785Y0133227D01*
X0151789Y0119413D02*
X0162724Y0119413D01*
X0168285Y0113852D01*
X0157660Y0113852D02*
X0157316Y0113507D01*
X0151789Y0113507D01*
X0148689Y0113507D01*
X0145160Y0117036D01*
X0140785Y0115668D02*
X0140785Y0112602D01*
X0145160Y0111918D02*
X0146031Y0111539D01*
X0151789Y0111539D01*
X0155598Y0111539D01*
X0157660Y0110102D01*
X0155347Y0103665D02*
X0160785Y0102602D01*
X0158285Y0100102D02*
X0155441Y0101696D01*
X0151789Y0101696D01*
X0151789Y0099728D02*
X0155534Y0099728D01*
X0157660Y0097602D01*
X0160785Y0097602D01*
X0158910Y0094477D02*
X0155628Y0097759D01*
X0151789Y0097759D01*
X0151789Y0093822D02*
X0144565Y0093822D01*
X0142660Y0095727D01*
X0142660Y0098852D01*
X0137035Y0104477D01*
X0137035Y0112602D01*
X0132035Y0117602D01*
X0132035Y0107602D02*
X0141410Y0098227D01*
X0141410Y0095102D01*
X0144658Y0091854D01*
X0151789Y0091854D01*
X0156725Y0087917D02*
X0159535Y0090727D01*
X0166410Y0083227D02*
X0167537Y0082100D01*
X0167537Y0076106D01*
X0176410Y0082602D02*
X0177380Y0081696D01*
X0188285Y0062602D02*
X0188285Y0058227D01*
X0187035Y0056977D01*
X0183969Y0056977D01*
X0178851Y0056977D02*
X0178285Y0056977D01*
X0193285Y0057602D02*
X0198285Y0062602D01*
X0220785Y0057543D02*
X0220785Y0056977D01*
X0179535Y0106352D02*
X0181410Y0108227D01*
X0210160Y0108227D01*
X0210785Y0107602D01*
X0214781Y0107602D01*
X0214781Y0109570D02*
X0180067Y0109570D01*
X0179535Y0110102D01*
X0179535Y0131977D02*
X0177380Y0134132D01*
X0177380Y0139098D01*
X0175411Y0139098D02*
X0175411Y0149728D01*
X0175844Y0150161D01*
X0177685Y0150161D01*
X0178285Y0150161D01*
X0173910Y0149477D02*
X0173910Y0143852D01*
X0173443Y0143384D01*
X0173443Y0139098D01*
X0173443Y0134319D01*
X0174535Y0133227D01*
X0171474Y0135038D02*
X0171474Y0139098D01*
X0171474Y0145043D01*
X0171386Y0145043D01*
X0173910Y0149477D02*
X0173226Y0150161D01*
X0171386Y0150161D01*
X0179535Y0165102D02*
X0181098Y0166664D01*
X0181098Y0174477D01*
X0180473Y0175102D01*
X0178903Y0175102D01*
X0188135Y0173501D02*
X0207935Y0173501D01*
X0207935Y0172902D02*
X0188135Y0172902D01*
X0188135Y0172304D02*
X0207935Y0172304D01*
X0208169Y0171705D02*
X0188135Y0171705D01*
X0188135Y0171107D02*
X0208767Y0171107D01*
X0209366Y0170508D02*
X0188135Y0170508D01*
X0188135Y0169910D02*
X0209964Y0169910D01*
X0210435Y0169311D02*
X0188135Y0169311D01*
X0201135Y0184873D02*
X0215785Y0184873D01*
X0215785Y0185471D02*
X0201135Y0185471D01*
X0205163Y0186070D02*
X0213907Y0186070D01*
X0213907Y0186668D02*
X0205163Y0186668D01*
X0205163Y0187267D02*
X0213907Y0187267D01*
X0213907Y0187865D02*
X0205163Y0187865D01*
X0205163Y0188464D02*
X0213907Y0188464D01*
X0213907Y0189062D02*
X0205163Y0189062D01*
X0205163Y0189661D02*
X0213907Y0189661D01*
X0213907Y0190259D02*
X0205163Y0190259D01*
X0205163Y0190858D02*
X0213907Y0190858D01*
X0207554Y0183676D02*
X0206516Y0183676D01*
X0206516Y0183077D02*
X0207554Y0183077D01*
X0207554Y0182479D02*
X0206516Y0182479D01*
X0206516Y0181880D02*
X0207554Y0181880D01*
X0207554Y0181282D02*
X0206516Y0181282D01*
X0206516Y0180683D02*
X0207554Y0180683D01*
X0207554Y0180085D02*
X0206516Y0180085D01*
X0206516Y0179486D02*
X0207554Y0179486D01*
X0207554Y0178888D02*
X0206516Y0178888D01*
X0206516Y0178289D02*
X0207554Y0178289D01*
X0207554Y0177691D02*
X0206516Y0177691D01*
X0206516Y0177092D02*
X0207554Y0177092D01*
X0207554Y0176494D02*
X0206516Y0176494D01*
X0206516Y0175895D02*
X0207554Y0175895D01*
X0207554Y0175296D02*
X0206516Y0175296D01*
X0206516Y0174698D02*
X0207554Y0174698D01*
X0207880Y0174099D02*
X0206190Y0174099D01*
X0217035Y0166352D02*
X0222035Y0171352D01*
X0222035Y0218793D01*
X0220785Y0218793D01*
X0203910Y0205102D02*
X0198910Y0205102D01*
X0198910Y0193852D01*
X0203910Y0193852D01*
X0203910Y0205102D01*
X0203910Y0204624D02*
X0198910Y0204624D01*
X0198910Y0204025D02*
X0203910Y0204025D01*
X0203910Y0203427D02*
X0198910Y0203427D01*
X0198910Y0202828D02*
X0203910Y0202828D01*
X0203910Y0202229D02*
X0198910Y0202229D01*
X0198910Y0201631D02*
X0203910Y0201631D01*
X0203910Y0201032D02*
X0198910Y0201032D01*
X0198910Y0200434D02*
X0203910Y0200434D01*
X0203910Y0199835D02*
X0198910Y0199835D01*
X0198910Y0199237D02*
X0203910Y0199237D01*
X0203910Y0198638D02*
X0198910Y0198638D01*
X0198910Y0198040D02*
X0203910Y0198040D01*
X0203910Y0197441D02*
X0198910Y0197441D01*
X0198910Y0196843D02*
X0203910Y0196843D01*
X0203910Y0196244D02*
X0198910Y0196244D01*
X0198910Y0195646D02*
X0203910Y0195646D01*
X0203910Y0195047D02*
X0198910Y0195047D01*
X0198910Y0194449D02*
X0203910Y0194449D01*
X0197657Y0194449D02*
X0194538Y0194449D01*
X0194538Y0195047D02*
X0197657Y0195047D01*
X0197657Y0195646D02*
X0194538Y0195646D01*
X0194538Y0196244D02*
X0197657Y0196244D01*
X0197657Y0196843D02*
X0194538Y0196843D01*
X0194538Y0197441D02*
X0197657Y0197441D01*
X0197657Y0198040D02*
X0194538Y0198040D01*
X0194538Y0198638D02*
X0197657Y0198638D01*
X0197660Y0199237D02*
X0194533Y0199237D01*
X0197660Y0199835D02*
X0187035Y0199835D01*
X0187035Y0200434D02*
X0197660Y0200434D01*
X0197660Y0201032D02*
X0187035Y0201032D01*
X0187035Y0201631D02*
X0197660Y0201631D01*
X0197660Y0202229D02*
X0187035Y0202229D01*
X0187035Y0202828D02*
X0197660Y0202828D01*
X0197660Y0203427D02*
X0187035Y0203427D01*
X0187035Y0204025D02*
X0197660Y0204025D01*
X0197660Y0204624D02*
X0187035Y0204624D01*
X0187035Y0205222D02*
X0197660Y0205222D01*
X0197660Y0205821D02*
X0187035Y0205821D01*
X0187035Y0206419D02*
X0197660Y0206419D01*
X0197660Y0207018D02*
X0187035Y0207018D01*
X0187035Y0207616D02*
X0192659Y0207616D01*
X0192061Y0208215D02*
X0187121Y0208215D01*
X0187369Y0208813D02*
X0191710Y0208813D01*
X0191710Y0209412D02*
X0187500Y0209412D01*
X0187500Y0210010D02*
X0191710Y0210010D01*
X0191931Y0210609D02*
X0187500Y0210609D01*
X0187404Y0211207D02*
X0192529Y0211207D01*
X0193753Y0211806D02*
X0187156Y0211806D01*
X0187035Y0212404D02*
X0194351Y0212404D01*
X0196382Y0214200D02*
X0187035Y0214200D01*
X0187035Y0214798D02*
X0195903Y0214798D01*
X0195424Y0215397D02*
X0187478Y0215397D01*
X0188376Y0215995D02*
X0194945Y0215995D01*
X0194466Y0216594D02*
X0189273Y0216594D01*
X0190171Y0217192D02*
X0193988Y0217192D01*
X0193509Y0217791D02*
X0191069Y0217791D01*
X0191967Y0218389D02*
X0193030Y0218389D01*
X0196860Y0213601D02*
X0187035Y0213601D01*
X0187035Y0213003D02*
X0197339Y0213003D01*
X0197219Y0212404D02*
X0197660Y0212404D01*
X0197660Y0209412D02*
X0197581Y0209412D01*
X0197660Y0208813D02*
X0196983Y0208813D01*
X0197660Y0208215D02*
X0195759Y0208215D01*
X0195161Y0207616D02*
X0197660Y0207616D01*
X0185785Y0205821D02*
X0184766Y0205821D01*
X0194538Y0193850D02*
X0197657Y0193850D01*
X0197660Y0193252D02*
X0194338Y0193252D01*
X0172094Y0190702D02*
X0172094Y0188286D01*
X0169848Y0186039D01*
X0169848Y0184157D01*
X0167879Y0184157D02*
X0167879Y0186758D01*
X0166976Y0187661D01*
X0166976Y0190702D01*
X0122035Y0137602D02*
X0117660Y0133227D01*
X0117660Y0128852D01*
X0113910Y0121352D02*
X0113910Y0116086D01*
X0113507Y0115682D01*
X0109535Y0111352D02*
X0100436Y0111352D01*
X0100185Y0111101D01*
X0100185Y0114250D02*
X0105382Y0114250D01*
X0106814Y0115682D01*
X0109535Y0111352D02*
X0113507Y0107380D01*
X0113507Y0107021D02*
X0112719Y0106234D01*
X0112719Y0101352D01*
X0107601Y0101352D02*
X0107601Y0105102D01*
X0107301Y0104801D01*
X0107601Y0105102D02*
X0107601Y0106234D01*
X0106814Y0107021D01*
X0107601Y0092602D02*
X0107202Y0092203D01*
X0100185Y0092203D01*
X0091410Y0092602D02*
X0091159Y0092351D01*
X0091159Y0086327D01*
X0088010Y0086327D02*
X0088010Y0091002D01*
X0087660Y0091352D01*
X0084860Y0089801D02*
X0084860Y0086327D01*
X0084860Y0089801D02*
X0078285Y0096352D01*
X0074535Y0091352D02*
X0072262Y0089078D01*
X0072262Y0086327D01*
X0068910Y0082602D02*
X0089535Y0082602D01*
X0068910Y0082602D02*
X0067601Y0081293D01*
X0064535Y0081293D01*
X0060785Y0082602D02*
X0057660Y0082602D01*
X0055101Y0085161D01*
X0055101Y0091352D01*
X0087660Y0115102D02*
X0088010Y0115451D01*
X0088010Y0120127D01*
X0091410Y0115102D02*
X0092660Y0115102D01*
X0094309Y0116750D01*
X0094309Y0120127D01*
X0110844Y0143227D02*
X0115160Y0143227D01*
X0116410Y0144477D01*
X0145785Y0108227D02*
X0145785Y0104536D01*
X0145785Y0099418D02*
X0145785Y0096352D01*
X0151789Y0103665D02*
X0155347Y0103665D01*
X0138910Y0091352D02*
X0137660Y0092602D01*
X0112719Y0092602D01*
X0112719Y0088227D01*
X0112719Y0092602D02*
X0112035Y0092602D01*
X0050160Y0215102D02*
X0050160Y0218793D01*
X0050160Y0223911D02*
X0058969Y0223911D01*
X0060160Y0225102D01*
X0060160Y0231977D01*
X0057045Y0235092D01*
X0055829Y0235092D01*
X0056454Y0234521D01*
X0055785Y0233852D01*
X0051351Y0233852D01*
X0050160Y0233286D01*
X0050160Y0228168D02*
X0050726Y0227602D01*
X0054535Y0227602D01*
D46*
X0137035Y0133852D02*
X0140101Y0133852D01*
X0140101Y0129477D01*
D47*
X0094535Y0196932D02*
X0094535Y0204403D01*
X0100185Y0210052D01*
X0094279Y0219895D02*
X0088078Y0219895D01*
X0069535Y0201352D01*
X0069535Y0196932D01*
X0082035Y0196932D02*
X0082035Y0203714D01*
X0088374Y0210052D01*
X0077537Y0216932D02*
X0094279Y0233674D01*
X0100185Y0243517D02*
X0092975Y0250727D01*
X0083910Y0250727D01*
X0075785Y0242602D01*
X0065997Y0242602D01*
X0065160Y0242602D01*
X0065160Y0232021D01*
X0064491Y0231352D01*
X0059535Y0216932D02*
X0077537Y0216932D01*
X0171051Y0243517D02*
X0178261Y0250727D01*
X0187035Y0250727D01*
X0195160Y0242602D01*
X0205574Y0242602D01*
X0206454Y0242346D01*
X0206454Y0231352D01*
D48*
X0117449Y0194477D02*
X0117449Y0184688D01*
X0117660Y0184477D01*
M02*
