%
M48
M72
T01C0.01200
T02C0.04000
T03C0.05118
T04C0.12992
%
T01
X50160Y70727
X53910Y70727
X57660Y70727
X63910Y59477
X66410Y59477
X68910Y59477
X68910Y56352
X66410Y56352
X63910Y56352
X78910Y71977
X78910Y75102
X82660Y75102
X82660Y71977
X82035Y80102
X87660Y91352
X91410Y92602
X95160Y98852
X95160Y104477
X91410Y115102
X87660Y115102
X98285Y130102
X103285Y130727
X102660Y143227
X105160Y147602
X105160Y151977
X113285Y156352
X110160Y166352
X105160Y164477
X100785Y168852
X97035Y174477
X100785Y175727
X87660Y178227
X83910Y173227
X75160Y178227
X71410Y173227
X67660Y173227
X63910Y173227
X61410Y168852
X55785Y167602
X53910Y178227
X57035Y190727
X57035Y193227
X64535Y193227
X64535Y195727
X64535Y198227
X63285Y206977
X63285Y209477
X51410Y201352
X50160Y215102
X54535Y227602
X57035Y227602
X75785Y198227
X75785Y195727
X75785Y193227
X88285Y193227
X88285Y195727
X88285Y198227
X102660Y192602
X102660Y190102
X106410Y200727
X112035Y191352
X112035Y188852
X117660Y184477
X125785Y176352
X125785Y173852
X125785Y171352
X115160Y171352
X115160Y173852
X125160Y156977
X116410Y144477
X113910Y138227
X115160Y130102
X113910Y121352
X107035Y101352
X113285Y96977
X107035Y88227
X109535Y83852
X112035Y83852
X112035Y81352
X109535Y81352
X109535Y78852
X112035Y78852
X105785Y78227
X93910Y57602
X91410Y57602
X74535Y91352
X74535Y95102
X74535Y98852
X78285Y96352
X71410Y105102
X71410Y110727
X66410Y118227
X54535Y113227
X54535Y108852
X54535Y104477
X54535Y100102
X54535Y95727
X52035Y83852
X85785Y135102
X83285Y137602
X80160Y139477
X77660Y146352
X73285Y150727
X68910Y151352
X66410Y154477
X67660Y143852
X72660Y143852
X75160Y136352
X82035Y153852
X77660Y158227
X74535Y168227
X50785Y150727
X50785Y146352
X50785Y141977
X90160Y141352
X90160Y138227
X137035Y133852
X145160Y121352
X140785Y112602
X145785Y108227
X145785Y96352
X138910Y91352
X133910Y80102
X130160Y78227
X138910Y70727
X145160Y80727
X155785Y70727
X166410Y83227
X170160Y81977
X176410Y82602
X180160Y82602
X175785Y70102
X185160Y70102
X185160Y65727
X185160Y61352
X178285Y56977
X173910Y56977
X157660Y56977
X129535Y56977
X129535Y59477
X127035Y59477
X127035Y56977
X159535Y90727
X158910Y94477
X160785Y97602
X158285Y100102
X160785Y102602
X157660Y110102
X157660Y113852
X168285Y113852
X170785Y121352
X168285Y123852
X169535Y133227
X174535Y133227
X179535Y131977
X182035Y129477
X179535Y126977
X179535Y123227
X192660Y123227
X198910Y133852
X213285Y139477
X213285Y141977
X208910Y150102
X203285Y151977
X194535Y155727
X194535Y158227
X189535Y155727
X181410Y152602
X181410Y148227
X181410Y144477
X169535Y152602
X163910Y151977
X160785Y155102
X160785Y160727
X156410Y160727
X158285Y164477
X156410Y168227
X156410Y174477
X152035Y179477
X148285Y179477
X144535Y179477
X140785Y179477
X138285Y181977
X143285Y160102
X148285Y160102
X146410Y152602
X142660Y152602
X137660Y156352
X148285Y144477
X151410Y151352
X155160Y150727
X155160Y139477
X156410Y135727
X161410Y133227
X165160Y160727
X167348Y172602
X167348Y177602
X172348Y177602
X172348Y172602
X179535Y165102
X177035Y188227
X177035Y199477
X160785Y184477
X157660Y200727
X199535Y208852
X202035Y208852
X209535Y215102
X212035Y215102
X219535Y213852
X219535Y211352
X212035Y202602
X209535Y202602
X202035Y221352
X199535Y221352
X213910Y235102
X216410Y235102
X179535Y110102
X179535Y106352
X167035Y90727
X163285Y90727
X199535Y85102
X203285Y85102
X208910Y101977
X208910Y105727
X220785Y96352
X220785Y66352
X220785Y56977
T02
X213285Y57602
X213285Y67602
X203285Y67602
X203285Y57602
X193285Y57602
X193285Y67602
X132035Y87602
X132035Y97602
X132035Y107602
X132035Y117602
X132035Y127602
X132035Y137602
X132035Y147602
X122035Y147602
X122035Y137602
X122035Y127602
X122035Y117602
X122035Y107602
X122035Y97602
X122035Y87602
T03
X123807Y210052
X129712Y219895
X135618Y210052
X141523Y219895
X147429Y210052
X153334Y219895
X159240Y210052
X165145Y219895
X171051Y210052
X176956Y219895
X182862Y210052
X176956Y233674
X171051Y243517
X165145Y233674
X159240Y243517
X153334Y233674
X147429Y243517
X141523Y233674
X135618Y243517
X129712Y233674
X123807Y243517
X117901Y233674
X111996Y243517
X106090Y233674
X100185Y243517
X94279Y233674
X88374Y243517
X94279Y219895
X88374Y210052
X100185Y210052
X106090Y219895
X111996Y210052
X117901Y219895
X182862Y243517
T04
X211405Y269108
X59830Y269108
M30
