G75*
%MOIN*%
%OFA0B0*%
%FSLAX25Y25*%
%IPPOS*%
%LPD*%
%AMOC8*
5,1,8,0,0,1.08239X$1,22.5*
%
%ADD10C,0.00500*%
%ADD11C,0.00400*%
%ADD12C,0.00600*%
%ADD13C,0.00300*%
%ADD14R,0.15000X0.02500*%
%ADD15R,0.00984X0.00886*%
%ADD16C,0.00787*%
%ADD17C,0.00394*%
%ADD18C,0.00800*%
%ADD19R,0.09646X0.02657*%
%ADD20C,0.01000*%
%ADD21C,0.00000*%
%ADD22C,0.01181*%
D10*
X0047035Y0052602D02*
X0047035Y0280948D01*
X0224200Y0280948D01*
X0224200Y0052602D01*
X0047035Y0052602D01*
X0075785Y0068227D02*
X0080785Y0063227D01*
X0085785Y0068227D01*
X0075785Y0068227D01*
X0119200Y0058227D02*
X0120160Y0058227D01*
X0120160Y0060102D01*
X0120160Y0058227D02*
X0120160Y0056351D01*
X0120160Y0058227D02*
X0122660Y0060102D01*
X0122660Y0058227D01*
X0123620Y0058227D01*
X0122660Y0058227D02*
X0122660Y0056351D01*
X0120160Y0058227D01*
X0188535Y0076102D02*
X0189286Y0075352D01*
X0190036Y0075352D01*
X0190787Y0076102D01*
X0190787Y0079855D01*
X0190036Y0079855D02*
X0191538Y0079855D01*
X0193139Y0079855D02*
X0195391Y0079855D01*
X0196142Y0079105D01*
X0196142Y0077604D01*
X0195391Y0076853D01*
X0193139Y0076853D01*
X0193139Y0075352D02*
X0193139Y0079855D01*
X0197743Y0079105D02*
X0198494Y0079855D01*
X0199995Y0079855D01*
X0200746Y0079105D01*
X0200746Y0078354D01*
X0197743Y0075352D01*
X0200746Y0075352D01*
X0143534Y0139040D02*
X0144285Y0139791D01*
X0144285Y0140541D01*
X0143534Y0141292D01*
X0139781Y0141292D01*
X0139781Y0142042D02*
X0139781Y0140541D01*
X0139781Y0143644D02*
X0139781Y0145896D01*
X0140532Y0146646D01*
X0142033Y0146646D01*
X0142784Y0145896D01*
X0142784Y0143644D01*
X0144285Y0143644D02*
X0139781Y0143644D01*
X0141283Y0148248D02*
X0139781Y0149749D01*
X0144285Y0149749D01*
X0144285Y0148248D02*
X0144285Y0151250D01*
X0125785Y0182601D02*
X0125785Y0184477D01*
X0126745Y0184477D01*
X0125785Y0184477D02*
X0125785Y0186352D01*
X0123285Y0184477D01*
X0122325Y0184477D01*
X0123285Y0184477D02*
X0123285Y0186352D01*
X0123285Y0184477D02*
X0123285Y0182601D01*
X0123285Y0184477D02*
X0125785Y0182601D01*
X0125785Y0192601D02*
X0123285Y0194477D01*
X0122325Y0194477D01*
X0123285Y0194477D02*
X0123285Y0196352D01*
X0123285Y0194477D02*
X0123285Y0192601D01*
X0123285Y0194477D02*
X0125785Y0196352D01*
X0125785Y0194477D01*
X0126745Y0194477D01*
X0125785Y0194477D02*
X0125785Y0192601D01*
X0061120Y0242602D02*
X0060160Y0242602D01*
X0060160Y0244477D01*
X0057660Y0242602D01*
X0056700Y0242602D01*
X0057660Y0242602D02*
X0057660Y0244477D01*
X0057660Y0242602D02*
X0057660Y0240726D01*
X0057660Y0242602D02*
X0060160Y0240726D01*
X0060160Y0242602D01*
X0191107Y0217312D02*
X0191858Y0218063D01*
X0192608Y0218063D01*
X0193359Y0217312D01*
X0194109Y0218063D01*
X0194860Y0218063D01*
X0195611Y0217312D01*
X0195611Y0215811D01*
X0194860Y0215061D01*
X0193359Y0216562D02*
X0193359Y0217312D01*
X0191107Y0217312D02*
X0191107Y0215811D01*
X0191858Y0215061D01*
X0191107Y0213459D02*
X0191107Y0211958D01*
X0191107Y0212709D02*
X0194860Y0212709D01*
X0195611Y0211958D01*
X0195611Y0211207D01*
X0194860Y0210457D01*
X0194860Y0208855D02*
X0195611Y0208105D01*
X0195611Y0206603D01*
X0194860Y0205853D01*
X0193359Y0206603D02*
X0193359Y0208105D01*
X0194109Y0208855D01*
X0194860Y0208855D01*
X0193359Y0206603D02*
X0192608Y0205853D01*
X0191858Y0205853D01*
X0191107Y0206603D01*
X0191107Y0208105D01*
X0191858Y0208855D01*
X0216031Y0211791D02*
X0216782Y0211040D01*
X0217533Y0211040D01*
X0218283Y0211791D01*
X0218283Y0213292D01*
X0219034Y0214042D01*
X0219784Y0214042D01*
X0220535Y0213292D01*
X0220535Y0211791D01*
X0219784Y0211040D01*
X0216031Y0211791D02*
X0216031Y0213292D01*
X0216782Y0214042D01*
X0216031Y0217145D02*
X0216031Y0218646D01*
X0216031Y0217896D02*
X0219784Y0217896D01*
X0220535Y0217145D01*
X0220535Y0216394D01*
X0219784Y0215644D01*
X0220535Y0220248D02*
X0220535Y0223250D01*
X0220535Y0221749D02*
X0216031Y0221749D01*
X0217533Y0220248D01*
X0213910Y0240726D02*
X0213910Y0242602D01*
X0214870Y0242602D01*
X0213910Y0242602D02*
X0213910Y0244477D01*
X0213910Y0242602D02*
X0211410Y0240726D01*
X0211410Y0242602D01*
X0210450Y0242602D01*
X0211410Y0242602D02*
X0211410Y0244477D01*
X0213910Y0242602D01*
D11*
X0215652Y0237906D02*
X0217954Y0237906D01*
X0218722Y0237138D01*
X0218722Y0234069D01*
X0217954Y0233302D01*
X0215652Y0233302D01*
X0215652Y0237906D01*
X0220256Y0237138D02*
X0220256Y0236371D01*
X0221023Y0235604D01*
X0222558Y0235604D01*
X0223325Y0234836D01*
X0223325Y0234069D01*
X0222558Y0233302D01*
X0221023Y0233302D01*
X0220256Y0234069D01*
X0220256Y0234836D01*
X0221023Y0235604D01*
X0222558Y0235604D02*
X0223325Y0236371D01*
X0223325Y0237138D01*
X0222558Y0237906D01*
X0221023Y0237906D01*
X0220256Y0237138D01*
X0223481Y0231892D02*
X0224249Y0230357D01*
X0225783Y0228823D01*
X0225783Y0231125D01*
X0226550Y0231892D01*
X0227318Y0231892D01*
X0228085Y0231125D01*
X0228085Y0229590D01*
X0227318Y0228823D01*
X0225783Y0228823D01*
X0225016Y0227288D02*
X0228085Y0224219D01*
X0228085Y0227288D01*
X0225016Y0227288D02*
X0224249Y0227288D01*
X0223481Y0226521D01*
X0223481Y0224986D01*
X0224249Y0224219D01*
X0224249Y0222684D02*
X0225783Y0222684D01*
X0226550Y0221917D01*
X0226550Y0219615D01*
X0225783Y0219448D02*
X0225016Y0220982D01*
X0225016Y0221750D01*
X0225783Y0222517D01*
X0227318Y0222517D01*
X0228085Y0221750D01*
X0228085Y0220215D01*
X0227318Y0219448D01*
X0228085Y0219615D02*
X0223481Y0219615D01*
X0223481Y0221917D01*
X0224249Y0222684D01*
X0223481Y0222517D02*
X0223481Y0219448D01*
X0225783Y0219448D01*
X0225016Y0217913D02*
X0224249Y0217913D01*
X0223481Y0217146D01*
X0223481Y0215611D01*
X0224249Y0214844D01*
X0224249Y0213309D02*
X0225783Y0213309D01*
X0226550Y0212542D01*
X0226550Y0210240D01*
X0226550Y0211774D02*
X0228085Y0213309D01*
X0228085Y0214844D02*
X0225016Y0217913D01*
X0226550Y0221149D02*
X0228085Y0222684D01*
X0228085Y0217913D02*
X0228085Y0214844D01*
X0228085Y0210240D02*
X0223481Y0210240D01*
X0223481Y0212542D01*
X0224249Y0213309D01*
X0212460Y0201811D02*
X0207856Y0201811D01*
X0210158Y0199510D01*
X0210158Y0202579D01*
X0209391Y0197975D02*
X0208624Y0197975D01*
X0207856Y0197208D01*
X0207856Y0195673D01*
X0208624Y0194906D01*
X0208624Y0193371D02*
X0210158Y0193371D01*
X0210925Y0192604D01*
X0210925Y0190302D01*
X0210925Y0191836D02*
X0212460Y0193371D01*
X0212460Y0194906D02*
X0209391Y0197975D01*
X0212460Y0197975D02*
X0212460Y0194906D01*
X0214731Y0196267D02*
X0215499Y0196267D01*
X0218568Y0193198D01*
X0219335Y0193198D01*
X0219335Y0191663D02*
X0219335Y0188594D01*
X0219335Y0190128D02*
X0214731Y0190128D01*
X0216266Y0188594D01*
X0215499Y0187059D02*
X0214731Y0186292D01*
X0214731Y0184757D01*
X0215499Y0183990D01*
X0218568Y0183990D01*
X0219335Y0184757D01*
X0219335Y0186292D01*
X0218568Y0187059D01*
X0214731Y0193198D02*
X0214731Y0196267D01*
X0212460Y0190302D02*
X0207856Y0190302D01*
X0207856Y0192604D01*
X0208624Y0193371D01*
X0196210Y0193371D02*
X0194675Y0191836D01*
X0194675Y0192604D02*
X0194675Y0190302D01*
X0196210Y0190302D02*
X0191606Y0190302D01*
X0191606Y0192604D01*
X0192374Y0193371D01*
X0193908Y0193371D01*
X0194675Y0192604D01*
X0195443Y0194906D02*
X0196210Y0195673D01*
X0196210Y0197208D01*
X0195443Y0197975D01*
X0194675Y0197975D01*
X0193908Y0197208D01*
X0193908Y0196440D01*
X0193908Y0197208D02*
X0193141Y0197975D01*
X0192374Y0197975D01*
X0191606Y0197208D01*
X0191606Y0195673D01*
X0192374Y0194906D01*
X0192374Y0199510D02*
X0193141Y0199510D01*
X0193908Y0200277D01*
X0193908Y0202579D01*
X0192374Y0202579D02*
X0191606Y0201811D01*
X0191606Y0200277D01*
X0192374Y0199510D01*
X0192374Y0202579D02*
X0195443Y0202579D01*
X0196210Y0201811D01*
X0196210Y0200277D01*
X0195443Y0199510D01*
X0185585Y0200277D02*
X0184818Y0199510D01*
X0185585Y0200277D02*
X0185585Y0201811D01*
X0184818Y0202579D01*
X0183283Y0202579D01*
X0182516Y0201811D01*
X0182516Y0201044D01*
X0183283Y0199510D01*
X0180981Y0199510D01*
X0180981Y0202579D01*
X0176147Y0202830D02*
X0176147Y0203597D01*
X0175380Y0204364D01*
X0173845Y0204364D01*
X0173078Y0203597D01*
X0171543Y0203597D02*
X0170776Y0204364D01*
X0169241Y0204364D01*
X0168474Y0203597D01*
X0168474Y0200528D01*
X0169241Y0199760D01*
X0170776Y0199760D01*
X0171543Y0200528D01*
X0172033Y0199225D02*
X0172033Y0196156D01*
X0169731Y0198458D01*
X0174335Y0198458D01*
X0173078Y0199760D02*
X0176147Y0202830D01*
X0174335Y0200760D02*
X0173568Y0200760D01*
X0170499Y0203829D01*
X0169731Y0203829D01*
X0169731Y0200760D01*
X0166939Y0199760D02*
X0165404Y0199760D01*
X0166172Y0199760D02*
X0166172Y0204364D01*
X0166939Y0204364D02*
X0165404Y0204364D01*
X0173078Y0199760D02*
X0176147Y0199760D01*
X0175106Y0195940D02*
X0179710Y0195940D01*
X0180981Y0196440D02*
X0185585Y0196440D01*
X0185585Y0194906D02*
X0185585Y0197975D01*
X0182516Y0194906D02*
X0180981Y0196440D01*
X0179710Y0197475D02*
X0179710Y0194406D01*
X0179710Y0192871D02*
X0179710Y0189802D01*
X0175106Y0189802D01*
X0173568Y0191552D02*
X0174335Y0192319D01*
X0174335Y0193854D01*
X0173568Y0194621D01*
X0175106Y0195940D02*
X0176641Y0194406D01*
X0173568Y0191552D02*
X0170499Y0191552D01*
X0169731Y0192319D01*
X0169731Y0193854D01*
X0170499Y0194621D01*
X0169960Y0193625D02*
X0169960Y0192090D01*
X0169193Y0191323D01*
X0168425Y0191323D01*
X0167658Y0192090D01*
X0167658Y0193625D01*
X0168425Y0194392D01*
X0169193Y0194392D01*
X0169960Y0193625D01*
X0167658Y0193625D02*
X0166891Y0194392D01*
X0166124Y0194392D01*
X0165356Y0193625D01*
X0165356Y0192090D01*
X0166124Y0191323D01*
X0166891Y0191323D01*
X0167658Y0192090D01*
X0168425Y0189788D02*
X0167658Y0189021D01*
X0167658Y0186719D01*
X0169193Y0186719D01*
X0169960Y0187486D01*
X0169960Y0189021D01*
X0169193Y0189788D01*
X0168425Y0189788D01*
X0166124Y0188253D02*
X0167658Y0186719D01*
X0166124Y0188253D02*
X0165356Y0189788D01*
X0164960Y0189021D02*
X0164193Y0189788D01*
X0163425Y0189788D01*
X0162658Y0189021D01*
X0162658Y0186719D01*
X0164193Y0186719D01*
X0164960Y0187486D01*
X0164960Y0189021D01*
X0164960Y0191323D02*
X0164193Y0191323D01*
X0161124Y0194392D01*
X0160356Y0194392D01*
X0160356Y0191323D01*
X0160356Y0189788D02*
X0161124Y0188253D01*
X0162658Y0186719D01*
X0161124Y0185184D02*
X0160356Y0184417D01*
X0160356Y0182882D01*
X0161124Y0182115D01*
X0164193Y0182115D01*
X0164960Y0182882D01*
X0164960Y0184417D01*
X0164193Y0185184D01*
X0165356Y0184417D02*
X0165356Y0182882D01*
X0166124Y0182115D01*
X0169193Y0182115D01*
X0169960Y0182882D01*
X0169960Y0184417D01*
X0169193Y0185184D01*
X0166124Y0185184D02*
X0165356Y0184417D01*
X0163710Y0182375D02*
X0162943Y0183142D01*
X0159874Y0183142D01*
X0159106Y0182375D01*
X0159106Y0180840D01*
X0159874Y0180073D01*
X0160641Y0180073D01*
X0161408Y0180840D01*
X0161408Y0183142D01*
X0163710Y0182375D02*
X0163710Y0180840D01*
X0162943Y0180073D01*
X0162943Y0178538D02*
X0162175Y0178538D01*
X0161408Y0177771D01*
X0161408Y0175469D01*
X0162943Y0175469D01*
X0163710Y0176236D01*
X0163710Y0177771D01*
X0162943Y0178538D01*
X0159874Y0177003D02*
X0161408Y0175469D01*
X0161408Y0173934D02*
X0159874Y0173934D01*
X0159106Y0173167D01*
X0159106Y0170865D01*
X0163710Y0170865D01*
X0162175Y0170865D02*
X0162175Y0173167D01*
X0161408Y0173934D01*
X0162175Y0172399D02*
X0163710Y0173934D01*
X0159874Y0177003D02*
X0159106Y0178538D01*
X0153710Y0179027D02*
X0152943Y0178260D01*
X0152175Y0178260D01*
X0151408Y0179027D01*
X0151408Y0180561D01*
X0152175Y0181329D01*
X0152943Y0181329D01*
X0153710Y0180561D01*
X0153710Y0179027D01*
X0151408Y0179027D02*
X0150641Y0178260D01*
X0149874Y0178260D01*
X0149106Y0179027D01*
X0149106Y0180561D01*
X0149874Y0181329D01*
X0150641Y0181329D01*
X0151408Y0180561D01*
X0150641Y0176725D02*
X0149874Y0176725D01*
X0149106Y0175958D01*
X0149106Y0174423D01*
X0149874Y0173656D01*
X0149874Y0172121D02*
X0151408Y0172121D01*
X0152175Y0171354D01*
X0152175Y0169052D01*
X0152175Y0170586D02*
X0153710Y0172121D01*
X0153710Y0173656D02*
X0150641Y0176725D01*
X0153710Y0176725D02*
X0153710Y0173656D01*
X0149874Y0172121D02*
X0149106Y0171354D01*
X0149106Y0169052D01*
X0153710Y0169052D01*
X0149450Y0164138D02*
X0148683Y0164906D01*
X0147148Y0164906D01*
X0146381Y0164138D01*
X0146381Y0163371D01*
X0147148Y0162604D01*
X0149450Y0162604D01*
X0149450Y0164138D02*
X0149450Y0161069D01*
X0148683Y0160302D01*
X0147148Y0160302D01*
X0146381Y0161069D01*
X0144847Y0160302D02*
X0141777Y0160302D01*
X0142012Y0159819D02*
X0141245Y0159052D01*
X0139710Y0159052D01*
X0138943Y0159819D01*
X0142012Y0162888D01*
X0142012Y0159819D01*
X0143312Y0160302D02*
X0143312Y0164906D01*
X0141777Y0163371D01*
X0142012Y0162888D02*
X0141245Y0163656D01*
X0139710Y0163656D01*
X0138943Y0162888D01*
X0138943Y0159819D01*
X0139475Y0160302D02*
X0140243Y0161069D01*
X0139475Y0160302D02*
X0137941Y0160302D01*
X0137173Y0161069D01*
X0137173Y0164138D01*
X0137941Y0164906D01*
X0139475Y0164906D01*
X0140243Y0164138D01*
X0137408Y0163656D02*
X0135874Y0162888D01*
X0134339Y0161354D01*
X0136641Y0161354D01*
X0137408Y0160586D01*
X0137408Y0159819D01*
X0136641Y0159052D01*
X0135106Y0159052D01*
X0134339Y0159819D01*
X0134339Y0161354D01*
X0132804Y0161354D02*
X0132037Y0160586D01*
X0129735Y0160586D01*
X0129512Y0160586D02*
X0128745Y0161354D01*
X0126443Y0161354D01*
X0126443Y0159819D01*
X0127210Y0159052D01*
X0128745Y0159052D01*
X0129512Y0159819D01*
X0129512Y0160586D01*
X0129735Y0159052D02*
X0129735Y0163656D01*
X0132037Y0163656D01*
X0132804Y0162888D01*
X0132804Y0161354D01*
X0131270Y0160586D02*
X0132804Y0159052D01*
X0131666Y0158031D02*
X0130131Y0156496D01*
X0128597Y0158031D02*
X0127062Y0157263D01*
X0125527Y0155729D01*
X0127829Y0155729D01*
X0128597Y0154961D01*
X0128597Y0154194D01*
X0127829Y0153427D01*
X0126295Y0153427D01*
X0125527Y0154194D01*
X0125527Y0155729D01*
X0123993Y0155729D02*
X0123225Y0154961D01*
X0120923Y0154961D01*
X0120700Y0154194D02*
X0120700Y0157263D01*
X0119933Y0158031D01*
X0118398Y0158031D01*
X0117631Y0157263D01*
X0117631Y0156496D01*
X0118398Y0155729D01*
X0120700Y0155729D01*
X0119995Y0154906D02*
X0118460Y0154906D01*
X0117693Y0154138D01*
X0117693Y0151069D01*
X0120762Y0154138D01*
X0120762Y0151069D01*
X0119995Y0150302D01*
X0118460Y0150302D01*
X0117693Y0151069D01*
X0116158Y0152604D02*
X0113089Y0152604D01*
X0115391Y0154906D01*
X0115391Y0150302D01*
X0115329Y0153427D02*
X0113795Y0153427D01*
X0113027Y0154194D01*
X0111554Y0154138D02*
X0110787Y0154906D01*
X0109252Y0154906D01*
X0108485Y0154138D01*
X0108485Y0151069D01*
X0109252Y0150302D01*
X0110787Y0150302D01*
X0111554Y0151069D01*
X0111808Y0149281D02*
X0110273Y0149281D01*
X0109506Y0148513D01*
X0109506Y0147746D01*
X0110273Y0146979D01*
X0111808Y0146979D01*
X0112575Y0146211D01*
X0112575Y0145444D01*
X0111808Y0144677D01*
X0110273Y0144677D01*
X0109506Y0145444D01*
X0109506Y0146211D01*
X0110273Y0146979D01*
X0111808Y0146979D02*
X0112575Y0147746D01*
X0112575Y0148513D01*
X0111808Y0149281D01*
X0108085Y0148990D02*
X0108085Y0152059D01*
X0108423Y0153427D02*
X0108423Y0158031D01*
X0110725Y0158031D01*
X0111493Y0157263D01*
X0111493Y0155729D01*
X0110725Y0154961D01*
X0108423Y0154961D01*
X0108085Y0154361D02*
X0107318Y0153594D01*
X0104249Y0156663D01*
X0107318Y0156663D01*
X0108085Y0155896D01*
X0108085Y0154361D01*
X0107318Y0153594D02*
X0104249Y0153594D01*
X0103481Y0154361D01*
X0103481Y0155896D01*
X0104249Y0156663D01*
X0104249Y0158198D02*
X0105016Y0158198D01*
X0105783Y0158965D01*
X0105783Y0160500D01*
X0106550Y0161267D01*
X0107318Y0161267D01*
X0108085Y0160500D01*
X0108085Y0158965D01*
X0107318Y0158198D01*
X0106550Y0158198D01*
X0105783Y0158965D01*
X0106127Y0159052D02*
X0107662Y0159052D01*
X0108429Y0159819D01*
X0109964Y0159052D02*
X0113033Y0159052D01*
X0113027Y0158031D02*
X0113027Y0155729D01*
X0114562Y0156496D01*
X0115329Y0156496D01*
X0116097Y0155729D01*
X0116097Y0154194D01*
X0115329Y0153427D01*
X0117631Y0154194D02*
X0118398Y0153427D01*
X0119933Y0153427D01*
X0120700Y0154194D01*
X0120762Y0154138D02*
X0119995Y0154906D01*
X0120923Y0153427D02*
X0120923Y0158031D01*
X0123225Y0158031D01*
X0123993Y0157263D01*
X0123993Y0155729D01*
X0122458Y0154961D02*
X0123993Y0153427D01*
X0124141Y0159052D02*
X0122606Y0159052D01*
X0121839Y0159819D01*
X0121839Y0161354D02*
X0123374Y0162121D01*
X0124141Y0162121D01*
X0124908Y0161354D01*
X0124908Y0159819D01*
X0124141Y0159052D01*
X0121839Y0161354D02*
X0121839Y0163656D01*
X0124908Y0163656D01*
X0126443Y0161354D02*
X0127978Y0162888D01*
X0129512Y0163656D01*
X0132941Y0168427D02*
X0134475Y0168427D01*
X0135243Y0169194D01*
X0136777Y0168427D02*
X0139847Y0168427D01*
X0141381Y0168427D02*
X0144450Y0171496D01*
X0144450Y0172263D01*
X0143683Y0173031D01*
X0142148Y0173031D01*
X0141381Y0172263D01*
X0138312Y0173031D02*
X0138312Y0168427D01*
X0141381Y0168427D02*
X0144450Y0168427D01*
X0138312Y0173031D02*
X0136777Y0171496D01*
X0135243Y0172263D02*
X0134475Y0173031D01*
X0132941Y0173031D01*
X0132173Y0172263D01*
X0132173Y0169194D01*
X0132941Y0168427D01*
X0131641Y0178427D02*
X0130106Y0178427D01*
X0129339Y0179194D01*
X0129339Y0180729D01*
X0131641Y0180729D01*
X0132408Y0179961D01*
X0132408Y0179194D01*
X0131641Y0178427D01*
X0129339Y0180729D02*
X0130874Y0182263D01*
X0132408Y0183031D01*
X0127804Y0182263D02*
X0127804Y0179194D01*
X0127037Y0178427D01*
X0125502Y0178427D01*
X0124735Y0179194D01*
X0124735Y0182263D01*
X0125502Y0183031D01*
X0127037Y0183031D01*
X0127804Y0182263D01*
X0126270Y0179961D02*
X0127804Y0178427D01*
X0119908Y0179194D02*
X0119141Y0178427D01*
X0117606Y0178427D01*
X0116839Y0179194D01*
X0116245Y0178031D02*
X0114710Y0178031D01*
X0113943Y0177263D01*
X0114537Y0178427D02*
X0113002Y0178427D01*
X0112235Y0179194D01*
X0112235Y0182263D01*
X0113002Y0183031D01*
X0114537Y0183031D01*
X0115304Y0182263D01*
X0115304Y0179194D01*
X0114537Y0178427D01*
X0115304Y0178427D02*
X0113770Y0179961D01*
X0112408Y0178031D02*
X0110874Y0177263D01*
X0109339Y0175729D01*
X0111641Y0175729D01*
X0112408Y0174961D01*
X0112408Y0174194D01*
X0111641Y0173427D01*
X0110106Y0173427D01*
X0109339Y0174194D01*
X0109339Y0175729D01*
X0107804Y0175729D02*
X0107037Y0174961D01*
X0104735Y0174961D01*
X0104735Y0173427D02*
X0104735Y0178031D01*
X0107037Y0178031D01*
X0107804Y0177263D01*
X0107804Y0175729D01*
X0106270Y0174961D02*
X0107804Y0173427D01*
X0107433Y0172406D02*
X0105898Y0172406D01*
X0105131Y0171638D01*
X0103597Y0172406D02*
X0102062Y0171638D01*
X0100527Y0170104D01*
X0102829Y0170104D01*
X0103597Y0169336D01*
X0103597Y0168569D01*
X0102829Y0167802D01*
X0101295Y0167802D01*
X0100527Y0168569D01*
X0100527Y0170104D01*
X0098993Y0170104D02*
X0098225Y0169336D01*
X0095923Y0169336D01*
X0095923Y0167802D02*
X0095923Y0172406D01*
X0098225Y0172406D01*
X0098993Y0171638D01*
X0098993Y0170104D01*
X0097458Y0169336D02*
X0098993Y0167802D01*
X0095700Y0166156D02*
X0094166Y0165388D01*
X0092631Y0163854D01*
X0094933Y0163854D01*
X0095700Y0163086D01*
X0095700Y0162319D01*
X0094933Y0161552D01*
X0093398Y0161552D01*
X0092631Y0162319D01*
X0092631Y0163854D01*
X0091097Y0163086D02*
X0090329Y0163854D01*
X0088027Y0163854D01*
X0088027Y0162319D01*
X0088795Y0161552D01*
X0090329Y0161552D01*
X0091097Y0162319D01*
X0091097Y0163086D01*
X0089562Y0165388D02*
X0088027Y0163854D01*
X0086493Y0165388D02*
X0085725Y0166156D01*
X0084191Y0166156D01*
X0083423Y0165388D01*
X0083423Y0162319D01*
X0084191Y0161552D01*
X0085725Y0161552D01*
X0086493Y0162319D01*
X0085075Y0165388D02*
X0082006Y0162319D01*
X0082006Y0161552D01*
X0080472Y0162319D02*
X0079704Y0161552D01*
X0078170Y0161552D01*
X0077402Y0162319D01*
X0080472Y0165388D01*
X0080472Y0162319D01*
X0080472Y0165388D02*
X0079704Y0166156D01*
X0078170Y0166156D01*
X0077402Y0165388D01*
X0077402Y0162319D01*
X0075868Y0161552D02*
X0072798Y0161552D01*
X0071264Y0161552D02*
X0069729Y0163086D01*
X0070496Y0163086D02*
X0068194Y0163086D01*
X0068194Y0161552D02*
X0068194Y0166156D01*
X0070496Y0166156D01*
X0071264Y0165388D01*
X0071264Y0163854D01*
X0070496Y0163086D01*
X0072798Y0164621D02*
X0074333Y0166156D01*
X0074333Y0161552D01*
X0074222Y0165927D02*
X0071152Y0165927D01*
X0074222Y0168996D01*
X0074222Y0169763D01*
X0073454Y0170531D01*
X0071920Y0170531D01*
X0071152Y0169763D01*
X0069618Y0169763D02*
X0068850Y0170531D01*
X0067316Y0170531D01*
X0066548Y0169763D01*
X0066548Y0166694D01*
X0067316Y0165927D01*
X0068850Y0165927D01*
X0069618Y0166694D01*
X0070731Y0171552D02*
X0069964Y0172319D01*
X0069964Y0173086D01*
X0070731Y0173854D01*
X0072266Y0173854D01*
X0073033Y0173086D01*
X0073033Y0172319D01*
X0072266Y0171552D01*
X0070731Y0171552D01*
X0070731Y0173854D02*
X0069964Y0174621D01*
X0069964Y0175388D01*
X0070731Y0176156D01*
X0072266Y0176156D01*
X0073033Y0175388D01*
X0073033Y0174621D01*
X0072266Y0173854D01*
X0070700Y0176069D02*
X0069933Y0175302D01*
X0068398Y0175302D01*
X0067631Y0176069D01*
X0067662Y0176156D02*
X0066127Y0176156D01*
X0065360Y0175388D01*
X0065360Y0172319D01*
X0066127Y0171552D01*
X0067662Y0171552D01*
X0068429Y0172319D01*
X0068429Y0175388D02*
X0067662Y0176156D01*
X0067495Y0175927D02*
X0068262Y0176694D01*
X0068262Y0179763D01*
X0067495Y0180531D01*
X0065960Y0180531D01*
X0065193Y0179763D01*
X0065193Y0178996D01*
X0065960Y0178229D01*
X0068262Y0178229D01*
X0067631Y0177604D02*
X0069166Y0178371D01*
X0069933Y0178371D01*
X0070700Y0177604D01*
X0070700Y0176069D01*
X0070700Y0179906D02*
X0067631Y0179906D01*
X0067631Y0177604D01*
X0066097Y0177604D02*
X0066097Y0176069D01*
X0065329Y0175302D01*
X0063795Y0175302D01*
X0063027Y0176069D01*
X0062891Y0175927D02*
X0062891Y0180531D01*
X0060589Y0178229D01*
X0063658Y0178229D01*
X0063027Y0177604D02*
X0064562Y0178371D01*
X0065329Y0178371D01*
X0066097Y0177604D01*
X0065193Y0176694D02*
X0065960Y0175927D01*
X0067495Y0175927D01*
X0066097Y0179906D02*
X0063027Y0179906D01*
X0063027Y0177604D01*
X0061493Y0177604D02*
X0060725Y0176836D01*
X0058423Y0176836D01*
X0058287Y0177461D02*
X0055985Y0177461D01*
X0055985Y0175927D02*
X0055985Y0180531D01*
X0058287Y0180531D01*
X0059054Y0179763D01*
X0059054Y0178229D01*
X0058287Y0177461D01*
X0057520Y0177461D02*
X0059054Y0175927D01*
X0059023Y0175531D02*
X0060558Y0175531D01*
X0061325Y0174763D01*
X0058256Y0171694D01*
X0059023Y0170927D01*
X0060558Y0170927D01*
X0061325Y0171694D01*
X0061325Y0174763D01*
X0061493Y0175302D02*
X0059958Y0176836D01*
X0059023Y0175531D02*
X0058256Y0174763D01*
X0058256Y0171694D01*
X0056722Y0171694D02*
X0056722Y0173229D01*
X0055954Y0173996D01*
X0055187Y0173996D01*
X0053652Y0173229D01*
X0053652Y0175531D01*
X0056722Y0175531D01*
X0058423Y0175302D02*
X0058423Y0179906D01*
X0060725Y0179906D01*
X0061493Y0179138D01*
X0061493Y0177604D01*
X0067235Y0180927D02*
X0067235Y0185531D01*
X0069537Y0185531D01*
X0070304Y0184763D01*
X0070304Y0183229D01*
X0069537Y0182461D01*
X0067235Y0182461D01*
X0068770Y0182461D02*
X0070304Y0180927D01*
X0071839Y0181694D02*
X0072606Y0180927D01*
X0074141Y0180927D01*
X0074908Y0181694D01*
X0074908Y0183229D01*
X0074141Y0183996D01*
X0073374Y0183996D01*
X0071839Y0183229D01*
X0071839Y0185531D01*
X0074908Y0185531D01*
X0076443Y0183996D02*
X0077978Y0185531D01*
X0077978Y0180927D01*
X0077829Y0179906D02*
X0078597Y0179138D01*
X0078597Y0177604D01*
X0077829Y0176836D01*
X0075527Y0176836D01*
X0075527Y0175302D02*
X0075527Y0179906D01*
X0077829Y0179906D01*
X0076443Y0180927D02*
X0079512Y0180927D01*
X0079735Y0180927D02*
X0079735Y0185531D01*
X0082037Y0185531D01*
X0082804Y0184763D01*
X0082804Y0183229D01*
X0082037Y0182461D01*
X0079735Y0182461D01*
X0081270Y0182461D02*
X0082804Y0180927D01*
X0082433Y0179906D02*
X0083200Y0179138D01*
X0083200Y0178371D01*
X0082433Y0177604D01*
X0083200Y0176836D01*
X0083200Y0176069D01*
X0082433Y0175302D01*
X0080898Y0175302D01*
X0080131Y0176069D01*
X0078597Y0175302D02*
X0077062Y0176836D01*
X0080131Y0179138D02*
X0080898Y0179906D01*
X0082433Y0179906D01*
X0083423Y0179906D02*
X0085725Y0179906D01*
X0086493Y0179138D01*
X0086493Y0177604D01*
X0085725Y0176836D01*
X0083423Y0176836D01*
X0082433Y0177604D02*
X0081666Y0177604D01*
X0083423Y0175302D02*
X0083423Y0179906D01*
X0084339Y0180927D02*
X0087408Y0183996D01*
X0087408Y0184763D01*
X0086641Y0185531D01*
X0085106Y0185531D01*
X0084339Y0184763D01*
X0084339Y0180927D02*
X0087408Y0180927D01*
X0089562Y0179906D02*
X0089562Y0175302D01*
X0088027Y0175302D02*
X0091097Y0175302D01*
X0092631Y0175302D02*
X0092631Y0176069D01*
X0095700Y0179138D01*
X0095700Y0179906D01*
X0092631Y0179906D01*
X0092235Y0180927D02*
X0092235Y0185531D01*
X0094537Y0185531D01*
X0095304Y0184763D01*
X0095304Y0183229D01*
X0094537Y0182461D01*
X0092235Y0182461D01*
X0093770Y0182461D02*
X0095304Y0180927D01*
X0096839Y0180927D02*
X0099908Y0180927D01*
X0098374Y0180927D02*
X0098374Y0185531D01*
X0096839Y0183996D01*
X0101443Y0183229D02*
X0103745Y0183229D01*
X0104512Y0182461D01*
X0104512Y0181694D01*
X0103745Y0180927D01*
X0102210Y0180927D01*
X0101443Y0181694D01*
X0101443Y0183229D01*
X0102978Y0184763D01*
X0104512Y0185531D01*
X0104339Y0192802D02*
X0104339Y0193569D01*
X0107408Y0196638D01*
X0107408Y0197406D01*
X0104339Y0197406D01*
X0104735Y0199052D02*
X0104735Y0203656D01*
X0107037Y0203656D01*
X0107804Y0202888D01*
X0107804Y0201354D01*
X0107037Y0200586D01*
X0104735Y0200586D01*
X0106270Y0200586D02*
X0107804Y0199052D01*
X0109339Y0199819D02*
X0109339Y0200586D01*
X0110106Y0201354D01*
X0111641Y0201354D01*
X0112408Y0200586D01*
X0112408Y0199819D01*
X0111641Y0199052D01*
X0110106Y0199052D01*
X0109339Y0199819D01*
X0110106Y0201354D02*
X0109339Y0202121D01*
X0109339Y0202888D01*
X0110106Y0203656D01*
X0111641Y0203656D01*
X0112408Y0202888D01*
X0112408Y0202121D01*
X0111641Y0201354D01*
X0112735Y0199177D02*
X0115037Y0199177D01*
X0115804Y0199944D01*
X0115804Y0203013D01*
X0115037Y0203781D01*
X0112735Y0203781D01*
X0112735Y0199177D01*
X0117339Y0199944D02*
X0118106Y0199177D01*
X0119641Y0199177D01*
X0120408Y0199944D01*
X0120408Y0200711D01*
X0119641Y0201479D01*
X0118874Y0201479D01*
X0119641Y0201479D02*
X0120408Y0202246D01*
X0120408Y0203013D01*
X0119641Y0203781D01*
X0118106Y0203781D01*
X0117339Y0203013D01*
X0117339Y0193781D02*
X0117339Y0191479D01*
X0118874Y0192246D01*
X0119641Y0192246D01*
X0120408Y0191479D01*
X0120408Y0189944D01*
X0119641Y0189177D01*
X0118106Y0189177D01*
X0117339Y0189944D01*
X0115804Y0189944D02*
X0115037Y0189177D01*
X0112735Y0189177D01*
X0112735Y0193781D01*
X0115037Y0193781D01*
X0115804Y0193013D01*
X0115804Y0189944D01*
X0117339Y0193781D02*
X0120408Y0193781D01*
X0119908Y0183031D02*
X0116839Y0183031D01*
X0116839Y0180729D01*
X0118374Y0181496D01*
X0119141Y0181496D01*
X0119908Y0180729D01*
X0119908Y0179194D01*
X0117012Y0177263D02*
X0116245Y0178031D01*
X0117012Y0177263D02*
X0117012Y0176496D01*
X0113943Y0173427D01*
X0117012Y0173427D01*
X0116870Y0168031D02*
X0115335Y0168031D01*
X0114568Y0167263D01*
X0114568Y0164194D01*
X0117637Y0167263D01*
X0117637Y0164194D01*
X0116870Y0163427D01*
X0115335Y0163427D01*
X0114568Y0164194D01*
X0114568Y0163656D02*
X0114568Y0161354D01*
X0116103Y0162121D01*
X0116870Y0162121D01*
X0117637Y0161354D01*
X0117637Y0159819D01*
X0116870Y0159052D01*
X0115335Y0159052D01*
X0114568Y0159819D01*
X0116097Y0158031D02*
X0113027Y0158031D01*
X0111499Y0159052D02*
X0111499Y0163656D01*
X0109964Y0162121D01*
X0108429Y0162888D02*
X0107662Y0163656D01*
X0106127Y0163656D01*
X0105360Y0162888D01*
X0105360Y0159819D01*
X0106127Y0159052D01*
X0105783Y0160500D02*
X0105016Y0161267D01*
X0104249Y0161267D01*
X0103481Y0160500D01*
X0103481Y0158965D01*
X0104249Y0158198D01*
X0105360Y0163427D02*
X0105360Y0168031D01*
X0107662Y0168031D01*
X0108429Y0167263D01*
X0108429Y0165729D01*
X0107662Y0164961D01*
X0105360Y0164961D01*
X0106895Y0164961D02*
X0108429Y0163427D01*
X0109964Y0165729D02*
X0113033Y0165729D01*
X0112266Y0163427D02*
X0112266Y0168031D01*
X0109964Y0165729D01*
X0107433Y0167802D02*
X0105898Y0167802D01*
X0105131Y0168569D01*
X0106666Y0170104D02*
X0107433Y0170104D01*
X0108200Y0169336D01*
X0108200Y0168569D01*
X0107433Y0167802D01*
X0107433Y0170104D02*
X0108200Y0170871D01*
X0108200Y0171638D01*
X0107433Y0172406D01*
X0114568Y0163656D02*
X0117637Y0163656D01*
X0117235Y0163656D02*
X0119537Y0163656D01*
X0120304Y0162888D01*
X0120304Y0161354D01*
X0119537Y0160586D01*
X0117235Y0160586D01*
X0117235Y0159052D02*
X0117235Y0163656D01*
X0118770Y0160586D02*
X0120304Y0159052D01*
X0117637Y0167263D02*
X0116870Y0168031D01*
X0109958Y0154961D02*
X0111493Y0153427D01*
X0108085Y0150524D02*
X0103481Y0150524D01*
X0105016Y0148990D01*
X0105783Y0148340D02*
X0105783Y0150642D01*
X0106437Y0149281D02*
X0106437Y0144677D01*
X0106550Y0144386D02*
X0106550Y0146688D01*
X0105783Y0147455D01*
X0104249Y0147455D01*
X0103481Y0146688D01*
X0103481Y0144386D01*
X0108085Y0144386D01*
X0107972Y0144677D02*
X0104902Y0144677D01*
X0104249Y0146038D02*
X0107318Y0142969D01*
X0108085Y0143736D01*
X0108085Y0145271D01*
X0107318Y0146038D01*
X0104249Y0146038D01*
X0103481Y0145271D01*
X0103481Y0143736D01*
X0104249Y0142969D01*
X0107318Y0142969D01*
X0108085Y0141434D02*
X0108085Y0138365D01*
X0107318Y0138142D02*
X0106550Y0138142D01*
X0105783Y0137375D01*
X0105783Y0135073D01*
X0107318Y0135073D01*
X0108085Y0135840D01*
X0108085Y0137375D01*
X0107318Y0138142D01*
X0106381Y0138229D02*
X0108683Y0140531D01*
X0108683Y0135927D01*
X0109450Y0136156D02*
X0107916Y0135388D01*
X0106381Y0133854D01*
X0108683Y0133854D01*
X0109450Y0133086D01*
X0109450Y0132319D01*
X0108683Y0131552D01*
X0107148Y0131552D01*
X0106381Y0132319D01*
X0106381Y0133854D01*
X0106550Y0133761D02*
X0106550Y0136063D01*
X0105783Y0136830D01*
X0104249Y0136830D01*
X0103481Y0136063D01*
X0103481Y0133761D01*
X0108085Y0133761D01*
X0108085Y0133538D02*
X0108085Y0130469D01*
X0107916Y0131013D02*
X0106381Y0129479D01*
X0108683Y0129479D01*
X0109450Y0128711D01*
X0109450Y0127944D01*
X0108683Y0127177D01*
X0107148Y0127177D01*
X0106381Y0127944D01*
X0106381Y0129479D01*
X0107318Y0128934D02*
X0108085Y0128167D01*
X0108085Y0126632D01*
X0107318Y0125865D01*
X0104249Y0125865D01*
X0103481Y0126632D01*
X0103481Y0128167D01*
X0104249Y0128934D01*
X0104079Y0128711D02*
X0101777Y0128711D01*
X0101777Y0127177D02*
X0101777Y0131781D01*
X0104079Y0131781D01*
X0104847Y0131013D01*
X0104847Y0129479D01*
X0104079Y0128711D01*
X0103312Y0128711D02*
X0104847Y0127177D01*
X0105016Y0130469D02*
X0103481Y0132003D01*
X0108085Y0132003D01*
X0108002Y0132802D02*
X0109537Y0132802D01*
X0110304Y0133569D01*
X0109450Y0131781D02*
X0107916Y0131013D01*
X0108002Y0132802D02*
X0107235Y0133569D01*
X0107235Y0136638D01*
X0108002Y0137406D01*
X0109537Y0137406D01*
X0110304Y0136638D01*
X0109450Y0138229D02*
X0106381Y0138229D01*
X0105016Y0138365D02*
X0103481Y0139899D01*
X0108085Y0139899D01*
X0108085Y0136830D02*
X0106550Y0135296D01*
X0105783Y0135073D02*
X0104249Y0136607D01*
X0103481Y0138142D01*
X0103312Y0138229D02*
X0104079Y0138229D01*
X0104847Y0137461D01*
X0104847Y0136694D01*
X0104079Y0135927D01*
X0102545Y0135927D01*
X0101777Y0136694D01*
X0102545Y0136156D02*
X0101777Y0135388D01*
X0102545Y0136156D02*
X0104079Y0136156D01*
X0104847Y0135388D01*
X0104847Y0134621D01*
X0104079Y0133854D01*
X0104847Y0133086D01*
X0104847Y0132319D01*
X0104079Y0131552D01*
X0102545Y0131552D01*
X0101777Y0132319D01*
X0100243Y0132319D02*
X0099475Y0131552D01*
X0097941Y0131552D01*
X0097173Y0132319D01*
X0097173Y0135388D01*
X0097941Y0136156D01*
X0099475Y0136156D01*
X0100243Y0135388D01*
X0100243Y0135927D02*
X0098708Y0137461D01*
X0099475Y0137461D02*
X0097173Y0137461D01*
X0097173Y0135927D02*
X0097173Y0140531D01*
X0099475Y0140531D01*
X0100243Y0139763D01*
X0100243Y0138229D01*
X0099475Y0137461D01*
X0101777Y0139763D02*
X0102545Y0140531D01*
X0104079Y0140531D01*
X0104847Y0139763D01*
X0104847Y0138996D01*
X0104079Y0138229D01*
X0104079Y0133854D02*
X0103312Y0133854D01*
X0111839Y0135104D02*
X0114908Y0135104D01*
X0116443Y0136638D02*
X0117210Y0137406D01*
X0118745Y0137406D01*
X0119512Y0136638D01*
X0119512Y0135871D01*
X0116443Y0132802D01*
X0119512Y0132802D01*
X0114141Y0132802D02*
X0114141Y0137406D01*
X0111839Y0135104D01*
X0106550Y0145921D02*
X0108085Y0147455D01*
X0107318Y0147573D02*
X0108085Y0148340D01*
X0108085Y0149875D01*
X0107318Y0150642D01*
X0104249Y0150642D01*
X0103481Y0149875D01*
X0103481Y0148340D01*
X0104249Y0147573D01*
X0105016Y0147573D01*
X0105783Y0148340D01*
X0104902Y0147746D02*
X0106437Y0149281D01*
X0103368Y0148513D02*
X0103368Y0146979D01*
X0102600Y0146211D01*
X0100298Y0146211D01*
X0100298Y0144677D02*
X0100298Y0149281D01*
X0102600Y0149281D01*
X0103368Y0148513D01*
X0101833Y0146211D02*
X0103368Y0144677D01*
X0091097Y0166156D02*
X0089562Y0165388D01*
X0085075Y0165388D02*
X0085075Y0166156D01*
X0082006Y0166156D01*
X0078825Y0166694D02*
X0078825Y0168229D01*
X0078058Y0168996D01*
X0077291Y0168996D01*
X0075756Y0168229D01*
X0075756Y0170531D01*
X0078825Y0170531D01*
X0078825Y0166694D02*
X0078058Y0165927D01*
X0076523Y0165927D01*
X0075756Y0166694D01*
X0068491Y0155729D02*
X0065422Y0155729D01*
X0067724Y0158031D01*
X0067724Y0153427D01*
X0063887Y0154194D02*
X0063887Y0157263D01*
X0060818Y0154194D01*
X0061585Y0153427D01*
X0063120Y0153427D01*
X0063887Y0154194D01*
X0060818Y0154194D02*
X0060818Y0157263D01*
X0061585Y0158031D01*
X0063120Y0158031D01*
X0063887Y0157263D01*
X0059450Y0157319D02*
X0058683Y0156552D01*
X0057148Y0156552D01*
X0056381Y0157319D01*
X0056214Y0156496D02*
X0057749Y0158031D01*
X0057749Y0153427D01*
X0059283Y0153427D02*
X0056214Y0153427D01*
X0054679Y0153427D02*
X0053145Y0154961D01*
X0053912Y0154961D02*
X0051610Y0154961D01*
X0051610Y0153427D02*
X0051610Y0158031D01*
X0053912Y0158031D01*
X0054679Y0157263D01*
X0054679Y0155729D01*
X0053912Y0154961D01*
X0054079Y0156552D02*
X0052545Y0156552D01*
X0051777Y0157319D01*
X0054847Y0160388D01*
X0054847Y0157319D01*
X0054079Y0156552D01*
X0051777Y0157319D02*
X0051777Y0160388D01*
X0052545Y0161156D01*
X0054079Y0161156D01*
X0054847Y0160388D01*
X0056381Y0160388D02*
X0057148Y0161156D01*
X0058683Y0161156D01*
X0059450Y0160388D01*
X0059450Y0159621D01*
X0058683Y0158854D01*
X0059450Y0158086D01*
X0059450Y0157319D01*
X0058683Y0158854D02*
X0057916Y0158854D01*
X0054308Y0152406D02*
X0052773Y0152406D01*
X0052006Y0151638D01*
X0052006Y0148569D01*
X0055075Y0151638D01*
X0055075Y0148569D01*
X0054308Y0147802D01*
X0052773Y0147802D01*
X0052006Y0148569D01*
X0051610Y0148513D02*
X0051610Y0145444D01*
X0052377Y0144677D01*
X0053912Y0144677D01*
X0054679Y0145444D01*
X0053912Y0144906D02*
X0054679Y0144138D01*
X0054679Y0142604D01*
X0053912Y0141836D01*
X0051610Y0141836D01*
X0051610Y0140302D02*
X0051610Y0144906D01*
X0053912Y0144906D01*
X0055075Y0143656D02*
X0052006Y0143656D01*
X0050472Y0142888D02*
X0050472Y0139819D01*
X0049704Y0139052D01*
X0048170Y0139052D01*
X0047402Y0139819D01*
X0050472Y0142888D01*
X0049704Y0143656D01*
X0048170Y0143656D01*
X0047402Y0142888D01*
X0047402Y0139819D01*
X0045868Y0139052D02*
X0042798Y0139052D01*
X0044333Y0139052D02*
X0044333Y0143656D01*
X0042798Y0142121D01*
X0041264Y0142888D02*
X0040496Y0143656D01*
X0038962Y0143656D01*
X0038194Y0142888D01*
X0038194Y0139819D01*
X0038962Y0139052D01*
X0040496Y0139052D01*
X0041264Y0139819D01*
X0041264Y0147802D02*
X0039729Y0149336D01*
X0040496Y0149336D02*
X0038194Y0149336D01*
X0038194Y0147802D02*
X0038194Y0152406D01*
X0040496Y0152406D01*
X0041264Y0151638D01*
X0041264Y0150104D01*
X0040496Y0149336D01*
X0042798Y0147802D02*
X0045868Y0147802D01*
X0047402Y0147802D02*
X0050472Y0147802D01*
X0051610Y0148513D02*
X0052377Y0149281D01*
X0053912Y0149281D01*
X0054679Y0148513D01*
X0056214Y0148513D02*
X0056981Y0149281D01*
X0058516Y0149281D01*
X0059283Y0148513D01*
X0059283Y0147746D01*
X0056214Y0144677D01*
X0059283Y0144677D01*
X0057749Y0144906D02*
X0056214Y0143371D01*
X0055075Y0143656D02*
X0055075Y0142888D01*
X0052006Y0139819D01*
X0052006Y0139052D01*
X0054679Y0140302D02*
X0053145Y0141836D01*
X0056214Y0140302D02*
X0059283Y0140302D01*
X0057749Y0140302D02*
X0057749Y0144906D01*
X0060818Y0145444D02*
X0061585Y0144677D01*
X0063120Y0144677D01*
X0063887Y0145444D01*
X0063887Y0148513D01*
X0063120Y0149281D01*
X0061585Y0149281D01*
X0060818Y0148513D01*
X0060818Y0147746D01*
X0061585Y0146979D01*
X0063887Y0146979D01*
X0062353Y0144906D02*
X0060818Y0143371D01*
X0062353Y0144906D02*
X0062353Y0140302D01*
X0063887Y0140302D02*
X0060818Y0140302D01*
X0055075Y0151638D02*
X0054308Y0152406D01*
X0048937Y0152406D02*
X0048937Y0147802D01*
X0047402Y0150871D02*
X0048937Y0152406D01*
X0048708Y0156552D02*
X0048708Y0161156D01*
X0047173Y0159621D01*
X0045639Y0160388D02*
X0045639Y0158854D01*
X0044871Y0158086D01*
X0042569Y0158086D01*
X0042569Y0156552D02*
X0042569Y0161156D01*
X0044871Y0161156D01*
X0045639Y0160388D01*
X0044104Y0158086D02*
X0045639Y0156552D01*
X0047173Y0156552D02*
X0050243Y0156552D01*
X0044333Y0152406D02*
X0044333Y0147802D01*
X0042798Y0150871D02*
X0044333Y0152406D01*
X0049048Y0170927D02*
X0049048Y0175531D01*
X0051350Y0175531D01*
X0052118Y0174763D01*
X0052118Y0173229D01*
X0051350Y0172461D01*
X0049048Y0172461D01*
X0050583Y0172461D02*
X0052118Y0170927D01*
X0053652Y0171694D02*
X0054420Y0170927D01*
X0055954Y0170927D01*
X0056722Y0171694D01*
X0058481Y0188990D02*
X0058481Y0191292D01*
X0059249Y0192059D01*
X0060783Y0192059D01*
X0061550Y0191292D01*
X0061550Y0188990D01*
X0061550Y0190524D02*
X0063085Y0192059D01*
X0063085Y0193594D02*
X0062318Y0193594D01*
X0059249Y0196663D01*
X0058481Y0196663D01*
X0058481Y0193594D01*
X0057408Y0195302D02*
X0054339Y0195302D01*
X0057408Y0198371D01*
X0057408Y0199138D01*
X0056641Y0199906D01*
X0055106Y0199906D01*
X0054339Y0199138D01*
X0053624Y0199559D02*
X0055158Y0199559D01*
X0055925Y0198792D01*
X0055925Y0196490D01*
X0056550Y0197802D02*
X0056550Y0200104D01*
X0055783Y0200871D01*
X0054249Y0200871D01*
X0053481Y0200104D01*
X0053481Y0197802D01*
X0058085Y0197802D01*
X0058481Y0198965D02*
X0058481Y0200500D01*
X0059249Y0201267D01*
X0060016Y0201267D01*
X0060783Y0200500D01*
X0060783Y0198965D01*
X0060016Y0198198D01*
X0059249Y0198198D01*
X0058481Y0198965D01*
X0057460Y0199559D02*
X0055925Y0198024D01*
X0056550Y0199336D02*
X0058085Y0200871D01*
X0057460Y0201094D02*
X0056693Y0201094D01*
X0053624Y0204163D01*
X0052856Y0204163D01*
X0052856Y0201094D01*
X0052037Y0199906D02*
X0050502Y0199906D01*
X0049735Y0199138D01*
X0049735Y0196069D01*
X0050502Y0195302D01*
X0052037Y0195302D01*
X0052804Y0196069D01*
X0052804Y0199138D01*
X0052037Y0199906D01*
X0052856Y0198792D02*
X0053624Y0199559D01*
X0052856Y0198792D02*
X0052856Y0196490D01*
X0057460Y0196490D01*
X0060783Y0198965D02*
X0061550Y0198198D01*
X0062318Y0198198D01*
X0063085Y0198965D01*
X0063085Y0200500D01*
X0062318Y0201267D01*
X0061550Y0201267D01*
X0060783Y0200500D01*
X0062235Y0201069D02*
X0063002Y0200302D01*
X0064537Y0200302D01*
X0065304Y0201069D01*
X0065304Y0204138D01*
X0064537Y0204906D01*
X0063002Y0204906D01*
X0062235Y0204138D01*
X0062235Y0201069D01*
X0063770Y0201836D02*
X0065304Y0200302D01*
X0066839Y0202604D02*
X0069908Y0202604D01*
X0069141Y0200302D02*
X0069141Y0204906D01*
X0066839Y0202604D01*
X0074735Y0201069D02*
X0074735Y0204138D01*
X0075502Y0204906D01*
X0077037Y0204906D01*
X0077804Y0204138D01*
X0077804Y0201069D01*
X0077037Y0200302D01*
X0075502Y0200302D01*
X0074735Y0201069D01*
X0076270Y0201836D02*
X0077804Y0200302D01*
X0079339Y0200302D02*
X0082408Y0200302D01*
X0080874Y0200302D02*
X0080874Y0204906D01*
X0079339Y0203371D01*
X0087235Y0204138D02*
X0087235Y0201069D01*
X0088002Y0200302D01*
X0089537Y0200302D01*
X0090304Y0201069D01*
X0090304Y0204138D01*
X0089537Y0204906D01*
X0088002Y0204906D01*
X0087235Y0204138D01*
X0088770Y0201836D02*
X0090304Y0200302D01*
X0091839Y0201069D02*
X0091839Y0201836D01*
X0092606Y0202604D01*
X0094141Y0202604D01*
X0094908Y0201836D01*
X0094908Y0201069D01*
X0094141Y0200302D01*
X0092606Y0200302D01*
X0091839Y0201069D01*
X0092606Y0202604D02*
X0091839Y0203371D01*
X0091839Y0204138D01*
X0092606Y0204906D01*
X0094141Y0204906D01*
X0094908Y0204138D01*
X0094908Y0203371D01*
X0094141Y0202604D01*
X0099735Y0196638D02*
X0099735Y0193569D01*
X0100502Y0192802D01*
X0102037Y0192802D01*
X0102804Y0193569D01*
X0102804Y0196638D01*
X0102037Y0197406D01*
X0100502Y0197406D01*
X0099735Y0196638D01*
X0101270Y0194336D02*
X0102804Y0192802D01*
X0089562Y0179906D02*
X0088027Y0178371D01*
X0084958Y0176836D02*
X0086493Y0175302D01*
X0063085Y0188990D02*
X0058481Y0188990D01*
X0052804Y0195302D02*
X0051270Y0196836D01*
X0054249Y0202406D02*
X0055016Y0202406D01*
X0055783Y0203173D01*
X0055783Y0204708D01*
X0056550Y0205475D01*
X0057318Y0205475D01*
X0058085Y0204708D01*
X0058085Y0203173D01*
X0057318Y0202406D01*
X0056550Y0202406D01*
X0055783Y0203173D01*
X0055783Y0204708D02*
X0055016Y0205475D01*
X0054249Y0205475D01*
X0053481Y0204708D01*
X0053481Y0203173D01*
X0054249Y0202406D01*
X0054391Y0205698D02*
X0055158Y0206465D01*
X0055158Y0208767D01*
X0053624Y0208767D02*
X0052856Y0208000D01*
X0052856Y0206465D01*
X0053624Y0205698D01*
X0054391Y0205698D01*
X0054249Y0207010D02*
X0053481Y0207777D01*
X0053481Y0209311D01*
X0054249Y0210079D01*
X0057318Y0207010D01*
X0058085Y0207777D01*
X0058085Y0209311D01*
X0057318Y0210079D01*
X0054249Y0210079D01*
X0053624Y0208767D02*
X0056693Y0208767D01*
X0057460Y0208000D01*
X0057460Y0206465D01*
X0056693Y0205698D01*
X0057318Y0207010D02*
X0054249Y0207010D01*
X0052856Y0214844D02*
X0052856Y0217146D01*
X0053624Y0217913D01*
X0055158Y0217913D01*
X0055925Y0217146D01*
X0055925Y0214844D01*
X0055925Y0216378D02*
X0057460Y0217913D01*
X0057460Y0219448D02*
X0056693Y0219448D01*
X0053624Y0222517D01*
X0052856Y0222517D01*
X0052856Y0219448D01*
X0053002Y0220302D02*
X0052235Y0221069D01*
X0052235Y0224138D01*
X0053002Y0224906D01*
X0054537Y0224906D01*
X0055304Y0224138D01*
X0055304Y0221069D01*
X0054537Y0220302D01*
X0053002Y0220302D01*
X0053770Y0221836D02*
X0055304Y0220302D01*
X0056839Y0221069D02*
X0057606Y0220302D01*
X0059141Y0220302D01*
X0059908Y0221069D01*
X0059908Y0221836D01*
X0059141Y0222604D01*
X0058374Y0222604D01*
X0059141Y0222604D02*
X0059908Y0223371D01*
X0059908Y0224138D01*
X0059141Y0224906D01*
X0057606Y0224906D01*
X0056839Y0224138D01*
X0057460Y0214844D02*
X0052856Y0214844D01*
X0047460Y0228427D02*
X0042856Y0228427D01*
X0042856Y0230729D01*
X0043624Y0231496D01*
X0045158Y0231496D01*
X0045925Y0230729D01*
X0045925Y0228427D01*
X0045925Y0229961D02*
X0047460Y0231496D01*
X0047460Y0233031D02*
X0044391Y0236100D01*
X0043624Y0236100D01*
X0042856Y0235333D01*
X0042856Y0233798D01*
X0043624Y0233031D01*
X0047460Y0233031D02*
X0047460Y0236100D01*
X0047460Y0237635D02*
X0044391Y0240704D01*
X0043624Y0240704D01*
X0042856Y0239936D01*
X0042856Y0238402D01*
X0043624Y0237635D01*
X0047460Y0237635D02*
X0047460Y0240704D01*
X0047110Y0247302D02*
X0049412Y0247302D01*
X0050179Y0248069D01*
X0050179Y0251138D01*
X0049412Y0251906D01*
X0047110Y0251906D01*
X0047110Y0247302D01*
X0051714Y0247302D02*
X0051714Y0248069D01*
X0054783Y0251138D01*
X0054783Y0251906D01*
X0051714Y0251906D01*
X0067856Y0236750D02*
X0067856Y0235215D01*
X0068624Y0234448D01*
X0069391Y0234448D01*
X0070158Y0235215D01*
X0070158Y0237517D01*
X0068624Y0237517D02*
X0067856Y0236750D01*
X0068624Y0237517D02*
X0071693Y0237517D01*
X0072460Y0236750D01*
X0072460Y0235215D01*
X0071693Y0234448D01*
X0071693Y0232913D02*
X0072460Y0232146D01*
X0072460Y0230611D01*
X0071693Y0229844D01*
X0068624Y0229844D01*
X0067856Y0230611D01*
X0067856Y0232146D01*
X0068624Y0232913D01*
X0071693Y0232913D01*
X0072460Y0232913D02*
X0070925Y0231378D01*
X0132856Y0201811D02*
X0135158Y0199510D01*
X0135158Y0202579D01*
X0137460Y0201811D02*
X0132856Y0201811D01*
X0132856Y0196440D02*
X0137460Y0196440D01*
X0137460Y0194906D02*
X0137460Y0197975D01*
X0140981Y0196440D02*
X0142516Y0194906D01*
X0141749Y0193371D02*
X0143283Y0193371D01*
X0144050Y0192604D01*
X0144050Y0190302D01*
X0144050Y0191836D02*
X0145585Y0193371D01*
X0145585Y0194906D02*
X0145585Y0197975D01*
X0145585Y0199510D02*
X0142516Y0202579D01*
X0141749Y0202579D01*
X0140981Y0201811D01*
X0140981Y0200277D01*
X0141749Y0199510D01*
X0140981Y0196440D02*
X0145585Y0196440D01*
X0145585Y0199510D02*
X0145585Y0202579D01*
X0141749Y0193371D02*
X0140981Y0192604D01*
X0140981Y0190302D01*
X0145585Y0190302D01*
X0147235Y0189763D02*
X0147235Y0186694D01*
X0148002Y0185927D01*
X0149537Y0185927D01*
X0150304Y0186694D01*
X0151839Y0185927D02*
X0154908Y0185927D01*
X0153374Y0185927D02*
X0153374Y0190531D01*
X0151839Y0188996D01*
X0150304Y0189763D02*
X0149537Y0190531D01*
X0148002Y0190531D01*
X0147235Y0189763D01*
X0156443Y0188229D02*
X0159512Y0188229D01*
X0158745Y0185927D02*
X0158745Y0190531D01*
X0156443Y0188229D01*
X0167374Y0168204D02*
X0166606Y0167436D01*
X0166606Y0165902D01*
X0167374Y0165135D01*
X0167374Y0163600D02*
X0166606Y0162833D01*
X0166606Y0161298D01*
X0167374Y0160531D01*
X0166835Y0160531D02*
X0166068Y0160531D01*
X0162999Y0163600D01*
X0162231Y0163600D01*
X0162231Y0160531D01*
X0162943Y0159392D02*
X0159874Y0159392D01*
X0159106Y0158625D01*
X0159106Y0157090D01*
X0159874Y0156323D01*
X0160641Y0156323D01*
X0161408Y0157090D01*
X0161408Y0159392D01*
X0162231Y0158229D02*
X0162231Y0156694D01*
X0162999Y0155927D01*
X0166068Y0155927D01*
X0166835Y0156694D01*
X0166835Y0158229D01*
X0166068Y0158996D01*
X0166606Y0158229D02*
X0167374Y0158996D01*
X0168908Y0158996D01*
X0169675Y0158229D01*
X0169675Y0155927D01*
X0169391Y0156323D02*
X0170158Y0157090D01*
X0170158Y0159392D01*
X0171210Y0158996D02*
X0169675Y0157461D01*
X0169391Y0156323D02*
X0168624Y0156323D01*
X0167856Y0157090D01*
X0167856Y0158625D01*
X0168624Y0159392D01*
X0171693Y0159392D01*
X0172460Y0158625D01*
X0172460Y0157090D01*
X0171693Y0156323D01*
X0171210Y0155927D02*
X0166606Y0155927D01*
X0166606Y0158229D01*
X0167318Y0159392D02*
X0164249Y0159392D01*
X0167318Y0156323D01*
X0168085Y0157090D01*
X0168085Y0158625D01*
X0167318Y0159392D01*
X0167318Y0156323D02*
X0164249Y0156323D01*
X0163481Y0157090D01*
X0163481Y0158625D01*
X0164249Y0159392D01*
X0163710Y0158625D02*
X0162943Y0159392D01*
X0162999Y0158996D02*
X0162231Y0158229D01*
X0163710Y0158625D02*
X0163710Y0157090D01*
X0162943Y0156323D01*
X0163710Y0154788D02*
X0163710Y0151719D01*
X0160641Y0154788D01*
X0159874Y0154788D01*
X0159106Y0154021D01*
X0159106Y0152486D01*
X0159874Y0151719D01*
X0159874Y0150184D02*
X0161408Y0150184D01*
X0162175Y0149417D01*
X0162175Y0147115D01*
X0161693Y0146267D02*
X0158624Y0146267D01*
X0157856Y0145500D01*
X0157856Y0143965D01*
X0158624Y0143198D01*
X0159391Y0143198D01*
X0160158Y0143965D01*
X0160158Y0146267D01*
X0159106Y0147115D02*
X0159106Y0149417D01*
X0159874Y0150184D01*
X0159843Y0148804D02*
X0158308Y0148804D01*
X0159075Y0148804D02*
X0159075Y0144200D01*
X0158308Y0144200D02*
X0159843Y0144200D01*
X0161377Y0144967D02*
X0162145Y0144200D01*
X0163679Y0144200D01*
X0164447Y0144967D01*
X0164023Y0145006D02*
X0164023Y0143471D01*
X0164023Y0144238D02*
X0168626Y0144238D01*
X0169050Y0144200D02*
X0165981Y0144200D01*
X0167516Y0144200D02*
X0167516Y0148804D01*
X0165981Y0147269D01*
X0166550Y0147115D02*
X0166550Y0149417D01*
X0165783Y0150184D01*
X0164249Y0150184D01*
X0163481Y0149417D01*
X0163481Y0147115D01*
X0168085Y0147115D01*
X0167856Y0147115D02*
X0167856Y0149417D01*
X0168624Y0150184D01*
X0170158Y0150184D01*
X0170925Y0149417D01*
X0170925Y0147115D01*
X0170582Y0147528D02*
X0169815Y0148296D01*
X0169815Y0149830D01*
X0170582Y0150598D01*
X0171350Y0150598D01*
X0174419Y0147528D01*
X0174419Y0150598D01*
X0172460Y0150184D02*
X0170925Y0148649D01*
X0172460Y0147115D02*
X0167856Y0147115D01*
X0167859Y0146540D02*
X0168626Y0147308D01*
X0168626Y0148842D01*
X0167859Y0149610D01*
X0168085Y0150184D02*
X0166550Y0148649D01*
X0164790Y0149610D02*
X0164023Y0148842D01*
X0164023Y0147308D01*
X0164790Y0146540D01*
X0167859Y0146540D01*
X0168626Y0145006D02*
X0168626Y0143471D01*
X0169815Y0144459D02*
X0174419Y0144459D01*
X0174419Y0142924D02*
X0174419Y0145994D01*
X0171350Y0142924D02*
X0169815Y0144459D01*
X0170582Y0141390D02*
X0169815Y0140623D01*
X0169815Y0139088D01*
X0170582Y0138321D01*
X0173651Y0138321D01*
X0174419Y0139088D01*
X0174419Y0140623D01*
X0173651Y0141390D01*
X0174419Y0136786D02*
X0174419Y0135251D01*
X0174419Y0136019D02*
X0169815Y0136019D01*
X0169815Y0136786D02*
X0169815Y0135251D01*
X0162460Y0134757D02*
X0162460Y0136292D01*
X0161693Y0137059D01*
X0160158Y0138594D02*
X0157856Y0140896D01*
X0162460Y0140896D01*
X0161693Y0143198D02*
X0162460Y0143965D01*
X0162460Y0145500D01*
X0161693Y0146267D01*
X0161377Y0144967D02*
X0161377Y0148036D01*
X0162145Y0148804D01*
X0163679Y0148804D01*
X0164447Y0148036D01*
X0163710Y0147115D02*
X0159106Y0147115D01*
X0162175Y0148649D02*
X0163710Y0150184D01*
X0164249Y0151719D02*
X0163481Y0152486D01*
X0163481Y0154021D01*
X0164249Y0154788D01*
X0165016Y0154788D01*
X0168085Y0151719D01*
X0168085Y0154788D01*
X0167859Y0154213D02*
X0167092Y0154213D01*
X0166325Y0153446D01*
X0166325Y0151144D01*
X0167859Y0151144D01*
X0168626Y0151911D01*
X0168626Y0153446D01*
X0167859Y0154213D01*
X0167856Y0153253D02*
X0172460Y0153253D01*
X0172460Y0151719D02*
X0172460Y0154788D01*
X0169391Y0151719D02*
X0167856Y0153253D01*
X0166325Y0151144D02*
X0164790Y0152679D01*
X0164023Y0154213D01*
X0170443Y0160531D02*
X0171210Y0161298D01*
X0171210Y0162833D01*
X0170443Y0163600D01*
X0169675Y0163600D01*
X0168908Y0162833D01*
X0168908Y0162065D01*
X0168908Y0162833D02*
X0168141Y0163600D01*
X0167374Y0163600D01*
X0171210Y0165135D02*
X0168141Y0168204D01*
X0167374Y0168204D01*
X0171210Y0168204D02*
X0171210Y0165135D01*
X0176731Y0165388D02*
X0177499Y0164621D01*
X0180568Y0164621D01*
X0181335Y0165388D01*
X0181335Y0166923D01*
X0180568Y0167690D01*
X0181335Y0169225D02*
X0181335Y0172294D01*
X0182544Y0173025D02*
X0182544Y0174559D01*
X0182544Y0173792D02*
X0187148Y0173792D01*
X0187148Y0173025D02*
X0187148Y0174559D01*
X0186380Y0176094D02*
X0187148Y0176861D01*
X0187148Y0178396D01*
X0186380Y0179163D01*
X0186380Y0180698D02*
X0187148Y0181465D01*
X0187148Y0183000D01*
X0186380Y0183767D01*
X0183311Y0183767D01*
X0182544Y0183000D01*
X0182544Y0181465D01*
X0183311Y0180698D01*
X0184078Y0180698D01*
X0184846Y0181465D01*
X0184846Y0183767D01*
X0183311Y0179163D02*
X0182544Y0178396D01*
X0182544Y0176861D01*
X0183311Y0176094D01*
X0186380Y0176094D01*
X0181335Y0175363D02*
X0176731Y0175363D01*
X0178266Y0173829D01*
X0181335Y0173829D02*
X0181335Y0176898D01*
X0181335Y0170759D02*
X0176731Y0170759D01*
X0178266Y0169225D01*
X0177499Y0167690D02*
X0176731Y0166923D01*
X0176731Y0165388D01*
X0176731Y0163086D02*
X0176731Y0161552D01*
X0176731Y0162319D02*
X0181335Y0162319D01*
X0181335Y0161552D02*
X0181335Y0163086D01*
X0180981Y0157857D02*
X0185585Y0157857D01*
X0185300Y0157579D02*
X0184533Y0156811D01*
X0184533Y0154510D01*
X0186068Y0154510D01*
X0186835Y0155277D01*
X0186835Y0156811D01*
X0186068Y0157579D01*
X0185300Y0157579D01*
X0185585Y0156323D02*
X0185585Y0159392D01*
X0182231Y0157579D02*
X0182999Y0156044D01*
X0184533Y0154510D01*
X0185585Y0154788D02*
X0185585Y0151719D01*
X0184533Y0151440D02*
X0184533Y0152208D01*
X0185300Y0152975D01*
X0186068Y0152975D01*
X0186835Y0152208D01*
X0186835Y0150673D01*
X0186068Y0149906D01*
X0185585Y0149417D02*
X0184818Y0150184D01*
X0185585Y0149417D02*
X0185585Y0147882D01*
X0184818Y0147115D01*
X0181749Y0147115D01*
X0180981Y0147882D01*
X0180981Y0149417D01*
X0181749Y0150184D01*
X0182231Y0150673D02*
X0182231Y0152208D01*
X0182999Y0152975D01*
X0183766Y0152975D01*
X0184533Y0152208D01*
X0185585Y0153253D02*
X0180981Y0153253D01*
X0182516Y0151719D01*
X0182231Y0150673D02*
X0182999Y0149906D01*
X0182999Y0148371D02*
X0184533Y0148371D01*
X0185300Y0147604D01*
X0185300Y0145302D01*
X0185300Y0146836D02*
X0186835Y0148371D01*
X0187856Y0148000D02*
X0187856Y0146465D01*
X0188624Y0145698D01*
X0187856Y0144163D02*
X0187856Y0141094D01*
X0190158Y0141094D01*
X0189391Y0142628D01*
X0189391Y0143396D01*
X0190158Y0144163D01*
X0191693Y0144163D01*
X0192460Y0143396D01*
X0192460Y0141861D01*
X0191693Y0141094D01*
X0191693Y0139559D02*
X0192460Y0138792D01*
X0192460Y0137257D01*
X0191693Y0136490D01*
X0188624Y0136490D01*
X0187856Y0137257D01*
X0187856Y0138792D01*
X0188624Y0139559D01*
X0186835Y0145302D02*
X0182231Y0145302D01*
X0182231Y0147604D01*
X0182999Y0148371D01*
X0187856Y0148000D02*
X0188624Y0148767D01*
X0189391Y0148767D01*
X0192460Y0145698D01*
X0192460Y0148767D01*
X0195985Y0149194D02*
X0195985Y0152263D01*
X0196752Y0153031D01*
X0198287Y0153031D01*
X0199054Y0152263D01*
X0200106Y0152802D02*
X0199339Y0153569D01*
X0200106Y0152802D02*
X0201641Y0152802D01*
X0202408Y0153569D01*
X0202408Y0154336D01*
X0201641Y0155104D01*
X0200874Y0155104D01*
X0201641Y0155104D02*
X0202408Y0155871D01*
X0202408Y0156638D01*
X0201641Y0157406D01*
X0200106Y0157406D01*
X0199339Y0156638D01*
X0197804Y0156638D02*
X0197804Y0155104D01*
X0197037Y0154336D01*
X0194735Y0154336D01*
X0194735Y0152802D02*
X0194735Y0157406D01*
X0197037Y0157406D01*
X0197804Y0156638D01*
X0196270Y0154336D02*
X0197804Y0152802D01*
X0200589Y0151496D02*
X0202124Y0153031D01*
X0202124Y0148427D01*
X0203658Y0148427D02*
X0200589Y0148427D01*
X0199054Y0149194D02*
X0198287Y0148427D01*
X0196752Y0148427D01*
X0195985Y0149194D01*
X0200923Y0143031D02*
X0203225Y0143031D01*
X0203993Y0142263D01*
X0203993Y0140729D01*
X0203225Y0139961D01*
X0200923Y0139961D01*
X0200923Y0138427D02*
X0200923Y0143031D01*
X0202458Y0139961D02*
X0203993Y0138427D01*
X0205527Y0139194D02*
X0206295Y0138427D01*
X0207829Y0138427D01*
X0208597Y0139194D01*
X0208597Y0140729D01*
X0207829Y0141496D01*
X0207062Y0141496D01*
X0205527Y0140729D01*
X0205527Y0143031D01*
X0208597Y0143031D01*
X0210131Y0142263D02*
X0210898Y0143031D01*
X0212433Y0143031D01*
X0213200Y0142263D01*
X0213200Y0141496D01*
X0210131Y0138427D01*
X0213200Y0138427D01*
X0207495Y0148427D02*
X0205960Y0148427D01*
X0205193Y0149194D01*
X0206728Y0150729D02*
X0207495Y0150729D01*
X0208262Y0149961D01*
X0208262Y0149194D01*
X0207495Y0148427D01*
X0207495Y0150729D02*
X0208262Y0151496D01*
X0208262Y0152263D01*
X0207495Y0153031D01*
X0205960Y0153031D01*
X0205193Y0152263D01*
X0204710Y0152802D02*
X0203943Y0153569D01*
X0203943Y0154336D01*
X0204710Y0155104D01*
X0206245Y0155104D01*
X0207012Y0154336D01*
X0207012Y0153569D01*
X0206245Y0152802D01*
X0204710Y0152802D01*
X0204710Y0155104D02*
X0203943Y0155871D01*
X0203943Y0156638D01*
X0204710Y0157406D01*
X0206245Y0157406D01*
X0207012Y0156638D01*
X0207012Y0155871D01*
X0206245Y0155104D01*
X0201335Y0161552D02*
X0201335Y0163086D01*
X0201335Y0162319D02*
X0196731Y0162319D01*
X0196731Y0161552D02*
X0196731Y0163086D01*
X0197499Y0164621D02*
X0200568Y0164621D01*
X0201335Y0165388D01*
X0201335Y0166923D01*
X0200568Y0167690D01*
X0201335Y0169225D02*
X0201335Y0172294D01*
X0201335Y0170759D02*
X0196731Y0170759D01*
X0198266Y0169225D01*
X0197499Y0167690D02*
X0196731Y0166923D01*
X0196731Y0165388D01*
X0197499Y0164621D01*
X0197499Y0173829D02*
X0196731Y0174596D01*
X0196731Y0176131D01*
X0197499Y0176898D01*
X0200568Y0173829D01*
X0201335Y0174596D01*
X0201335Y0176131D01*
X0200568Y0176898D01*
X0197499Y0176898D01*
X0197499Y0173829D02*
X0200568Y0173829D01*
X0214735Y0157406D02*
X0217037Y0157406D01*
X0217804Y0156638D01*
X0217804Y0155104D01*
X0217037Y0154336D01*
X0214735Y0154336D01*
X0214735Y0152802D02*
X0214735Y0157406D01*
X0216270Y0154336D02*
X0217804Y0152802D01*
X0219339Y0153569D02*
X0220106Y0152802D01*
X0221641Y0152802D01*
X0222408Y0153569D01*
X0222408Y0156638D01*
X0221641Y0157406D01*
X0220106Y0157406D01*
X0219339Y0156638D01*
X0219339Y0155871D01*
X0220106Y0155104D01*
X0222408Y0155104D01*
X0185585Y0190302D02*
X0180981Y0190302D01*
X0180981Y0192604D01*
X0181749Y0193371D01*
X0183283Y0193371D01*
X0184050Y0192604D01*
X0184050Y0190302D01*
X0184050Y0191836D02*
X0185585Y0193371D01*
X0199249Y0224052D02*
X0198481Y0224819D01*
X0198481Y0226354D01*
X0199249Y0227121D01*
X0202318Y0227121D01*
X0203085Y0226354D01*
X0203085Y0224819D01*
X0202318Y0224052D01*
X0199249Y0224052D01*
X0201550Y0225586D02*
X0203085Y0227121D01*
X0203085Y0228656D02*
X0203085Y0231725D01*
X0203085Y0230190D02*
X0198481Y0230190D01*
X0200016Y0228656D01*
X0199249Y0233260D02*
X0198481Y0234027D01*
X0198481Y0235561D01*
X0199249Y0236329D01*
X0202318Y0233260D01*
X0203085Y0234027D01*
X0203085Y0235561D01*
X0202318Y0236329D01*
X0199249Y0236329D01*
X0199249Y0233260D02*
X0202318Y0233260D01*
X0137460Y0193371D02*
X0135925Y0191836D01*
X0135925Y0192604D02*
X0135925Y0190302D01*
X0137460Y0190302D02*
X0132856Y0190302D01*
X0132856Y0192604D01*
X0133624Y0193371D01*
X0135158Y0193371D01*
X0135925Y0192604D01*
X0134391Y0194906D02*
X0132856Y0196440D01*
X0131666Y0158031D02*
X0131666Y0153427D01*
X0133200Y0153427D02*
X0130131Y0153427D01*
X0132316Y0146156D02*
X0131548Y0145388D01*
X0131548Y0142319D01*
X0132316Y0141552D01*
X0133850Y0141552D01*
X0134618Y0142319D01*
X0133850Y0141781D02*
X0134618Y0141013D01*
X0134618Y0139479D01*
X0133850Y0138711D01*
X0131548Y0138711D01*
X0131548Y0137177D02*
X0131548Y0141781D01*
X0133850Y0141781D01*
X0136152Y0142319D02*
X0136920Y0141552D01*
X0138454Y0141552D01*
X0139222Y0142319D01*
X0139222Y0143086D01*
X0138454Y0143854D01*
X0137687Y0143854D01*
X0138454Y0143854D02*
X0139222Y0144621D01*
X0139222Y0145388D01*
X0138454Y0146156D01*
X0136920Y0146156D01*
X0136152Y0145388D01*
X0134618Y0145388D02*
X0133850Y0146156D01*
X0132316Y0146156D01*
X0136920Y0141781D02*
X0136152Y0141013D01*
X0136920Y0141781D02*
X0138454Y0141781D01*
X0139222Y0141013D01*
X0139222Y0140246D01*
X0138454Y0139479D01*
X0139222Y0138711D01*
X0139222Y0137944D01*
X0138454Y0137177D01*
X0136920Y0137177D01*
X0136152Y0137944D01*
X0134618Y0137177D02*
X0133083Y0138711D01*
X0133850Y0135531D02*
X0131548Y0135531D01*
X0131548Y0130927D01*
X0131548Y0132461D02*
X0133850Y0132461D01*
X0134618Y0133229D01*
X0134618Y0134763D01*
X0133850Y0135531D01*
X0136152Y0133996D02*
X0137687Y0135531D01*
X0137687Y0130927D01*
X0136152Y0130927D02*
X0139222Y0130927D01*
X0140756Y0131694D02*
X0141523Y0130927D01*
X0143058Y0130927D01*
X0143825Y0131694D01*
X0143825Y0132461D01*
X0143058Y0133229D01*
X0142291Y0133229D01*
X0143058Y0133229D02*
X0143825Y0133996D01*
X0143825Y0134763D01*
X0143058Y0135531D01*
X0141523Y0135531D01*
X0140756Y0134763D01*
X0140360Y0136013D02*
X0140360Y0132944D01*
X0141127Y0132177D01*
X0142662Y0132177D01*
X0143429Y0132944D01*
X0142662Y0132406D02*
X0143429Y0131638D01*
X0143429Y0130104D01*
X0142662Y0129336D01*
X0140360Y0129336D01*
X0140360Y0127802D02*
X0140360Y0132406D01*
X0142662Y0132406D01*
X0144964Y0132177D02*
X0148033Y0135246D01*
X0148033Y0136013D01*
X0147266Y0136781D01*
X0145731Y0136781D01*
X0144964Y0136013D01*
X0143429Y0136013D02*
X0142662Y0136781D01*
X0141127Y0136781D01*
X0140360Y0136013D01*
X0141127Y0136552D02*
X0140360Y0137319D01*
X0140360Y0140388D01*
X0141127Y0141156D01*
X0142662Y0141156D01*
X0143429Y0140388D01*
X0143058Y0140246D02*
X0143825Y0139479D01*
X0143825Y0137944D01*
X0143058Y0137177D01*
X0141523Y0137177D01*
X0140756Y0137944D01*
X0141127Y0136552D02*
X0142662Y0136552D01*
X0143429Y0137319D01*
X0144964Y0138854D02*
X0148033Y0138854D01*
X0149568Y0139621D02*
X0151103Y0141156D01*
X0151103Y0136552D01*
X0151870Y0136781D02*
X0152637Y0136013D01*
X0152637Y0135246D01*
X0151870Y0134479D01*
X0150335Y0134479D01*
X0149568Y0135246D01*
X0149568Y0136013D01*
X0150335Y0136781D01*
X0151870Y0136781D01*
X0152637Y0136552D02*
X0149568Y0136552D01*
X0150335Y0134479D02*
X0149568Y0133711D01*
X0149568Y0132944D01*
X0150335Y0132177D01*
X0151870Y0132177D01*
X0152637Y0132944D01*
X0152637Y0133711D01*
X0151870Y0134479D01*
X0151870Y0132406D02*
X0150335Y0132406D01*
X0149568Y0131638D01*
X0149568Y0128569D01*
X0152637Y0131638D01*
X0152637Y0128569D01*
X0151870Y0127802D01*
X0150335Y0127802D01*
X0149568Y0128569D01*
X0148033Y0128569D02*
X0147266Y0127802D01*
X0145731Y0127802D01*
X0144964Y0128569D01*
X0143429Y0127802D02*
X0141895Y0129336D01*
X0144964Y0131638D02*
X0145731Y0132406D01*
X0147266Y0132406D01*
X0148033Y0131638D01*
X0148033Y0130871D01*
X0147266Y0130104D01*
X0148033Y0129336D01*
X0148033Y0128569D01*
X0147266Y0130104D02*
X0146499Y0130104D01*
X0148033Y0132177D02*
X0144964Y0132177D01*
X0147266Y0136552D02*
X0147266Y0141156D01*
X0144964Y0138854D01*
X0143058Y0140246D02*
X0142291Y0140246D01*
X0140756Y0139479D01*
X0140756Y0141781D01*
X0143825Y0141781D01*
X0143825Y0142319D02*
X0143058Y0141552D01*
X0141523Y0141552D01*
X0140756Y0142319D01*
X0143825Y0145388D01*
X0143825Y0142319D01*
X0140756Y0142319D02*
X0140756Y0145388D01*
X0141523Y0146156D01*
X0143058Y0146156D01*
X0143825Y0145388D01*
X0138454Y0139479D02*
X0137687Y0139479D01*
X0133083Y0132461D02*
X0134618Y0130927D01*
X0134249Y0128204D02*
X0133481Y0127436D01*
X0133481Y0125902D01*
X0134249Y0125135D01*
X0135016Y0125135D01*
X0135783Y0125902D01*
X0135783Y0128204D01*
X0134249Y0128204D02*
X0137318Y0128204D01*
X0138085Y0127436D01*
X0138085Y0125902D01*
X0137318Y0125135D01*
X0137318Y0123600D02*
X0138085Y0122833D01*
X0138085Y0121298D01*
X0137318Y0120531D01*
X0137856Y0119850D02*
X0137856Y0116781D01*
X0140158Y0116781D01*
X0139391Y0118315D01*
X0139391Y0119083D01*
X0140158Y0119850D01*
X0141693Y0119850D01*
X0142460Y0119083D01*
X0142460Y0117548D01*
X0141693Y0116781D01*
X0141693Y0115246D02*
X0142460Y0114479D01*
X0142460Y0112944D01*
X0141693Y0112177D01*
X0138624Y0112177D01*
X0137856Y0112944D01*
X0137856Y0114479D01*
X0138624Y0115246D01*
X0137318Y0115927D02*
X0138085Y0116694D01*
X0138085Y0118229D01*
X0137318Y0118996D01*
X0134249Y0118996D02*
X0133481Y0118229D01*
X0133481Y0116694D01*
X0134249Y0115927D01*
X0137318Y0115927D01*
X0134249Y0120531D02*
X0133481Y0121298D01*
X0133481Y0122833D01*
X0134249Y0123600D01*
X0135016Y0123600D01*
X0135783Y0122833D01*
X0136550Y0123600D01*
X0137318Y0123600D01*
X0137856Y0122919D02*
X0142460Y0122919D01*
X0142460Y0121385D02*
X0142460Y0124454D01*
X0139391Y0121385D02*
X0137856Y0122919D01*
X0135783Y0122833D02*
X0135783Y0122065D01*
X0151870Y0132406D02*
X0152637Y0131638D01*
X0157856Y0134757D02*
X0158624Y0133990D01*
X0161693Y0133990D01*
X0162460Y0134757D01*
X0158624Y0137059D02*
X0157856Y0136292D01*
X0157856Y0134757D01*
X0160158Y0138594D02*
X0160158Y0141663D01*
X0180981Y0157857D02*
X0182516Y0156323D01*
X0223481Y0104875D02*
X0225783Y0102573D01*
X0225783Y0105642D01*
X0228085Y0104875D02*
X0223481Y0104875D01*
X0224249Y0101038D02*
X0225016Y0101038D01*
X0225783Y0100271D01*
X0226550Y0101038D01*
X0227318Y0101038D01*
X0228085Y0100271D01*
X0228085Y0098736D01*
X0227318Y0097969D01*
X0227318Y0096434D02*
X0228085Y0095667D01*
X0228085Y0094132D01*
X0227318Y0093365D01*
X0224249Y0093365D01*
X0223481Y0094132D01*
X0223481Y0095667D01*
X0224249Y0096434D01*
X0224249Y0097969D02*
X0223481Y0098736D01*
X0223481Y0100271D01*
X0224249Y0101038D01*
X0225783Y0100271D02*
X0225783Y0099503D01*
X0225783Y0091892D02*
X0225016Y0091125D01*
X0225016Y0090357D01*
X0225783Y0088823D01*
X0223481Y0088823D01*
X0223481Y0091892D01*
X0225783Y0091892D02*
X0227318Y0091892D01*
X0228085Y0091125D01*
X0228085Y0089590D01*
X0227318Y0088823D01*
X0227318Y0087288D02*
X0228085Y0086521D01*
X0228085Y0084986D01*
X0227318Y0084219D01*
X0224249Y0084219D01*
X0223481Y0084986D01*
X0223481Y0086521D01*
X0224249Y0087288D01*
X0224249Y0082517D02*
X0227318Y0079448D01*
X0228085Y0079448D01*
X0228085Y0077913D02*
X0228085Y0074844D01*
X0225016Y0077913D01*
X0224249Y0077913D01*
X0223481Y0077146D01*
X0223481Y0075611D01*
X0224249Y0074844D01*
X0224249Y0073309D02*
X0225783Y0073309D01*
X0226550Y0072542D01*
X0226550Y0070240D01*
X0226550Y0071774D02*
X0228085Y0073309D01*
X0228085Y0070240D02*
X0223481Y0070240D01*
X0223481Y0072542D01*
X0224249Y0073309D01*
X0223481Y0079448D02*
X0223481Y0082517D01*
X0224249Y0082517D01*
X0218085Y0077350D02*
X0218085Y0074281D01*
X0218085Y0075815D02*
X0213481Y0075815D01*
X0215016Y0074281D01*
X0214249Y0072746D02*
X0213481Y0071979D01*
X0213481Y0070444D01*
X0214249Y0069677D01*
X0217318Y0069677D01*
X0218085Y0070444D01*
X0218085Y0071979D01*
X0217318Y0072746D01*
X0217318Y0070079D02*
X0218085Y0069311D01*
X0218085Y0067777D01*
X0217318Y0067010D01*
X0217318Y0065475D02*
X0218085Y0064708D01*
X0218085Y0063173D01*
X0217318Y0062406D01*
X0218085Y0060871D02*
X0216550Y0059336D01*
X0216550Y0060104D02*
X0216550Y0057802D01*
X0218085Y0057802D02*
X0213481Y0057802D01*
X0213481Y0060104D01*
X0214249Y0060871D01*
X0215783Y0060871D01*
X0216550Y0060104D01*
X0214249Y0062406D02*
X0213481Y0063173D01*
X0213481Y0064708D01*
X0214249Y0065475D01*
X0215016Y0065475D01*
X0215783Y0064708D01*
X0216550Y0065475D01*
X0217318Y0065475D01*
X0215783Y0064708D02*
X0215783Y0063940D01*
X0214249Y0067010D02*
X0213481Y0067777D01*
X0213481Y0069311D01*
X0214249Y0070079D01*
X0215016Y0070079D01*
X0215783Y0069311D01*
X0216550Y0070079D01*
X0217318Y0070079D01*
X0215783Y0069311D02*
X0215783Y0068544D01*
X0192012Y0072802D02*
X0188943Y0072802D01*
X0188745Y0073031D02*
X0189512Y0072263D01*
X0189512Y0071496D01*
X0188745Y0070729D01*
X0189512Y0069961D01*
X0189512Y0069194D01*
X0188745Y0068427D01*
X0187210Y0068427D01*
X0186443Y0069194D01*
X0184908Y0069194D02*
X0184141Y0068427D01*
X0182606Y0068427D01*
X0181839Y0069194D01*
X0181839Y0068656D02*
X0181839Y0066354D01*
X0183374Y0067121D01*
X0184141Y0067121D01*
X0184908Y0066354D01*
X0184908Y0064819D01*
X0184141Y0064052D01*
X0182606Y0064052D01*
X0181839Y0064819D01*
X0181412Y0064281D02*
X0182179Y0063513D01*
X0182179Y0061979D01*
X0181412Y0061211D01*
X0179110Y0061211D01*
X0178700Y0061881D02*
X0178700Y0064950D01*
X0177933Y0065718D01*
X0175631Y0065718D01*
X0175631Y0061114D01*
X0177933Y0061114D01*
X0178700Y0061881D01*
X0180235Y0061114D02*
X0183304Y0061114D01*
X0183714Y0060444D02*
X0184481Y0059677D01*
X0186016Y0059677D01*
X0186783Y0060444D01*
X0186783Y0061211D01*
X0186016Y0061979D01*
X0185249Y0061979D01*
X0186016Y0061979D02*
X0186783Y0062746D01*
X0186783Y0063513D01*
X0186016Y0064281D01*
X0184481Y0064281D01*
X0183714Y0063513D01*
X0181412Y0064281D02*
X0179110Y0064281D01*
X0179110Y0059677D01*
X0180645Y0061211D02*
X0182179Y0059677D01*
X0181770Y0061114D02*
X0181770Y0065718D01*
X0180235Y0064183D01*
X0180304Y0064052D02*
X0178770Y0065586D01*
X0179537Y0065586D02*
X0177235Y0065586D01*
X0177235Y0064052D02*
X0177235Y0068656D01*
X0179537Y0068656D01*
X0180304Y0067888D01*
X0180304Y0066354D01*
X0179537Y0065586D01*
X0180304Y0068427D02*
X0178770Y0069961D01*
X0179537Y0069961D02*
X0177235Y0069961D01*
X0177235Y0068427D02*
X0177235Y0073031D01*
X0179537Y0073031D01*
X0180304Y0072263D01*
X0180304Y0070729D01*
X0179537Y0069961D01*
X0181839Y0070729D02*
X0183374Y0071496D01*
X0184141Y0071496D01*
X0184908Y0070729D01*
X0184908Y0069194D01*
X0184908Y0068656D02*
X0181839Y0068656D01*
X0181839Y0070729D02*
X0181839Y0073031D01*
X0184908Y0073031D01*
X0184339Y0072802D02*
X0187408Y0075871D01*
X0187408Y0076638D01*
X0186641Y0077406D01*
X0185106Y0077406D01*
X0184339Y0076638D01*
X0182804Y0076638D02*
X0182804Y0075104D01*
X0182037Y0074336D01*
X0179735Y0074336D01*
X0179735Y0072802D02*
X0179735Y0077406D01*
X0182037Y0077406D01*
X0182804Y0076638D01*
X0181270Y0074336D02*
X0182804Y0072802D01*
X0184339Y0072802D02*
X0187408Y0072802D01*
X0187210Y0073031D02*
X0188745Y0073031D01*
X0187210Y0073031D02*
X0186443Y0072263D01*
X0187978Y0070729D02*
X0188745Y0070729D01*
X0188745Y0068656D02*
X0186443Y0066354D01*
X0189512Y0066354D01*
X0189853Y0064281D02*
X0188318Y0062746D01*
X0188745Y0064052D02*
X0188745Y0068656D01*
X0190478Y0072802D02*
X0190478Y0077406D01*
X0188943Y0075871D01*
X0189853Y0064281D02*
X0189853Y0059677D01*
X0191387Y0059677D02*
X0188318Y0059677D01*
X0174096Y0061114D02*
X0171027Y0061114D01*
X0171027Y0065718D01*
X0174096Y0065718D01*
X0172562Y0063416D02*
X0171027Y0063416D01*
X0171325Y0062802D02*
X0168256Y0062802D01*
X0171325Y0065871D01*
X0171325Y0066638D01*
X0170558Y0067406D01*
X0169023Y0067406D01*
X0168256Y0066638D01*
X0169373Y0067105D02*
X0170948Y0067105D01*
X0170948Y0064349D02*
X0169373Y0064349D01*
X0169373Y0062730D02*
X0170948Y0062730D01*
X0170460Y0061594D02*
X0169693Y0060826D01*
X0169492Y0061114D02*
X0166423Y0061114D01*
X0166423Y0065718D01*
X0166722Y0065871D02*
X0166722Y0066638D01*
X0165954Y0067406D01*
X0164420Y0067406D01*
X0163652Y0066638D01*
X0162118Y0066638D02*
X0161350Y0067406D01*
X0159816Y0067406D01*
X0159048Y0066638D01*
X0159048Y0063569D01*
X0159816Y0062802D01*
X0161350Y0062802D01*
X0162118Y0063569D01*
X0163652Y0062802D02*
X0166722Y0065871D01*
X0166722Y0062802D02*
X0163652Y0062802D01*
X0163555Y0061594D02*
X0160485Y0061594D01*
X0160485Y0056990D01*
X0163555Y0056990D01*
X0163555Y0057219D02*
X0160485Y0057219D01*
X0160485Y0052615D01*
X0163555Y0052615D01*
X0165089Y0052615D02*
X0167391Y0052615D01*
X0168159Y0053382D01*
X0168159Y0056451D01*
X0167391Y0057219D01*
X0165089Y0057219D01*
X0165089Y0052615D01*
X0169693Y0053382D02*
X0170460Y0052615D01*
X0171995Y0052615D01*
X0172762Y0053382D01*
X0172762Y0054149D01*
X0171995Y0054917D01*
X0171228Y0054917D01*
X0170948Y0055599D02*
X0169373Y0055599D01*
X0169693Y0056451D02*
X0170460Y0057219D01*
X0171995Y0057219D01*
X0172762Y0056451D01*
X0172762Y0055684D01*
X0171995Y0054917D01*
X0172762Y0056990D02*
X0169693Y0056990D01*
X0172762Y0060059D01*
X0172762Y0060826D01*
X0171995Y0061594D01*
X0170460Y0061594D01*
X0170948Y0059974D02*
X0169373Y0059974D01*
X0168159Y0060826D02*
X0167391Y0061594D01*
X0165089Y0061594D01*
X0165089Y0056990D01*
X0167391Y0056990D01*
X0168159Y0057757D01*
X0168159Y0060826D01*
X0169373Y0058355D02*
X0170948Y0058355D01*
X0162020Y0059292D02*
X0160485Y0059292D01*
X0158951Y0056990D02*
X0155881Y0056990D01*
X0155881Y0061594D01*
X0154512Y0064052D02*
X0151443Y0064052D01*
X0151523Y0063427D02*
X0150756Y0064194D01*
X0153825Y0067263D01*
X0153825Y0064194D01*
X0153058Y0063427D01*
X0151523Y0063427D01*
X0150756Y0064194D02*
X0150756Y0067263D01*
X0151523Y0068031D01*
X0153058Y0068031D01*
X0153825Y0067263D01*
X0152978Y0068656D02*
X0152978Y0064052D01*
X0151443Y0067121D02*
X0152978Y0068656D01*
X0149141Y0068656D02*
X0149141Y0064052D01*
X0149222Y0063427D02*
X0146152Y0063427D01*
X0149222Y0066496D01*
X0149222Y0067263D01*
X0148454Y0068031D01*
X0146920Y0068031D01*
X0146152Y0067263D01*
X0145304Y0067888D02*
X0145304Y0066354D01*
X0144537Y0065586D01*
X0142235Y0065586D01*
X0142235Y0064052D02*
X0142235Y0068656D01*
X0144537Y0068656D01*
X0145304Y0067888D01*
X0144618Y0067263D02*
X0143850Y0068031D01*
X0142316Y0068031D01*
X0141548Y0067263D01*
X0141548Y0064194D01*
X0142316Y0063427D01*
X0143850Y0063427D01*
X0144618Y0064194D01*
X0145304Y0064052D02*
X0143770Y0065586D01*
X0146839Y0066354D02*
X0149908Y0066354D01*
X0149141Y0068656D02*
X0146839Y0066354D01*
X0143058Y0078427D02*
X0141523Y0078427D01*
X0140756Y0079194D01*
X0139222Y0078427D02*
X0136152Y0078427D01*
X0139222Y0081496D01*
X0139222Y0082263D01*
X0138454Y0083031D01*
X0136920Y0083031D01*
X0136152Y0082263D01*
X0134618Y0082263D02*
X0133850Y0083031D01*
X0132316Y0083031D01*
X0131548Y0082263D01*
X0131548Y0079194D01*
X0132316Y0078427D01*
X0133850Y0078427D01*
X0134618Y0079194D01*
X0140756Y0082263D02*
X0141523Y0083031D01*
X0143058Y0083031D01*
X0143825Y0082263D01*
X0143825Y0081496D01*
X0143058Y0080729D01*
X0143825Y0079961D01*
X0143825Y0079194D01*
X0143058Y0078427D01*
X0143058Y0080729D02*
X0142291Y0080729D01*
X0148481Y0090865D02*
X0148481Y0093167D01*
X0149249Y0093934D01*
X0150783Y0093934D01*
X0151550Y0093167D01*
X0151550Y0090865D01*
X0151550Y0092399D02*
X0153085Y0093934D01*
X0150783Y0095469D02*
X0150783Y0098538D01*
X0150016Y0100073D02*
X0149249Y0100073D01*
X0148481Y0100840D01*
X0148481Y0102375D01*
X0149249Y0103142D01*
X0150016Y0103142D01*
X0150783Y0102375D01*
X0150783Y0100840D01*
X0150016Y0100073D01*
X0150783Y0100840D02*
X0151550Y0100073D01*
X0152318Y0100073D01*
X0153085Y0100840D01*
X0153085Y0102375D01*
X0152318Y0103142D01*
X0151550Y0103142D01*
X0150783Y0102375D01*
X0148481Y0097771D02*
X0150783Y0095469D01*
X0153085Y0097771D02*
X0148481Y0097771D01*
X0148481Y0090865D02*
X0153085Y0090865D01*
X0155881Y0057219D02*
X0155881Y0052615D01*
X0158951Y0052615D01*
X0158881Y0052746D02*
X0160416Y0054281D01*
X0160416Y0049677D01*
X0161950Y0049677D02*
X0158881Y0049677D01*
X0157347Y0049677D02*
X0155812Y0051211D01*
X0156579Y0051211D02*
X0154277Y0051211D01*
X0154277Y0049677D02*
X0154277Y0054281D01*
X0156579Y0054281D01*
X0157347Y0053513D01*
X0157347Y0051979D01*
X0156579Y0051211D01*
X0160485Y0054917D02*
X0162020Y0054917D01*
X0124960Y0065444D02*
X0124193Y0064677D01*
X0121124Y0064677D01*
X0120356Y0065444D01*
X0120356Y0066979D01*
X0121124Y0067746D01*
X0122658Y0069281D02*
X0122658Y0072350D01*
X0120356Y0071583D02*
X0122658Y0069281D01*
X0124193Y0067746D02*
X0124960Y0066979D01*
X0124960Y0065444D01*
X0124960Y0071583D02*
X0120356Y0071583D01*
X0117283Y0067531D02*
X0115749Y0066763D01*
X0114214Y0065229D01*
X0116516Y0065229D01*
X0117283Y0064461D01*
X0117283Y0063694D01*
X0116516Y0062927D01*
X0114981Y0062927D01*
X0114214Y0063694D01*
X0114214Y0065229D01*
X0112460Y0065246D02*
X0112460Y0062177D01*
X0107856Y0062177D01*
X0109610Y0062927D02*
X0111912Y0062927D01*
X0112679Y0063694D01*
X0112679Y0066763D01*
X0111912Y0067531D01*
X0109610Y0067531D01*
X0109610Y0062927D01*
X0107704Y0060079D02*
X0105302Y0060079D01*
X0105302Y0058277D01*
X0106503Y0058878D01*
X0107104Y0058878D01*
X0107704Y0058277D01*
X0107704Y0057076D01*
X0107104Y0056476D01*
X0105902Y0056476D01*
X0105302Y0057076D01*
X0104021Y0057076D02*
X0103420Y0056476D01*
X0102219Y0056476D01*
X0101619Y0057076D01*
X0101619Y0059478D01*
X0102219Y0060079D01*
X0103420Y0060079D01*
X0104021Y0059478D01*
X0100364Y0060079D02*
X0099163Y0060079D01*
X0099764Y0060079D02*
X0099764Y0056476D01*
X0100364Y0056476D02*
X0099163Y0056476D01*
X0098454Y0054281D02*
X0099222Y0053513D01*
X0099222Y0051979D01*
X0098454Y0051211D01*
X0096152Y0051211D01*
X0096152Y0049677D02*
X0096152Y0054281D01*
X0098454Y0054281D01*
X0100756Y0054281D02*
X0100756Y0051979D01*
X0102291Y0052746D01*
X0103058Y0052746D01*
X0103825Y0051979D01*
X0103825Y0050444D01*
X0103058Y0049677D01*
X0101523Y0049677D01*
X0100756Y0050444D01*
X0099222Y0049677D02*
X0097687Y0051211D01*
X0100756Y0054281D02*
X0103825Y0054281D01*
X0105499Y0067177D02*
X0108568Y0067177D01*
X0109335Y0067944D01*
X0109335Y0069479D01*
X0108568Y0070246D01*
X0107856Y0069083D02*
X0110158Y0066781D01*
X0110158Y0069850D01*
X0112460Y0069083D02*
X0107856Y0069083D01*
X0105499Y0070246D02*
X0104731Y0069479D01*
X0104731Y0067944D01*
X0105499Y0067177D01*
X0107033Y0071781D02*
X0107033Y0074850D01*
X0107033Y0076385D02*
X0105499Y0077919D01*
X0104731Y0079454D01*
X0105106Y0080927D02*
X0104339Y0081694D01*
X0105106Y0080927D02*
X0106641Y0080927D01*
X0107408Y0081694D01*
X0107408Y0083229D01*
X0106641Y0083996D01*
X0105874Y0083996D01*
X0104339Y0083229D01*
X0104339Y0085531D01*
X0107408Y0085531D01*
X0108943Y0085531D02*
X0112012Y0085531D01*
X0112012Y0084763D01*
X0108943Y0081694D01*
X0108943Y0080927D01*
X0108568Y0079454D02*
X0107800Y0079454D01*
X0107033Y0078686D01*
X0107033Y0076385D01*
X0108568Y0076385D01*
X0109335Y0077152D01*
X0109335Y0078686D01*
X0108568Y0079454D01*
X0109335Y0074083D02*
X0104731Y0074083D01*
X0107033Y0071781D01*
X0102804Y0080927D02*
X0101270Y0082461D01*
X0102037Y0082461D02*
X0099735Y0082461D01*
X0099735Y0080927D02*
X0099735Y0085531D01*
X0102037Y0085531D01*
X0102804Y0084763D01*
X0102804Y0083229D01*
X0102037Y0082461D01*
X0108627Y0090927D02*
X0110162Y0090927D01*
X0110929Y0091694D01*
X0112464Y0090927D02*
X0115533Y0090927D01*
X0113999Y0090927D02*
X0113999Y0095531D01*
X0112464Y0093996D01*
X0110929Y0094763D02*
X0110162Y0095531D01*
X0108627Y0095531D01*
X0107860Y0094763D01*
X0107860Y0091694D01*
X0108627Y0090927D01*
X0107860Y0095302D02*
X0107860Y0099906D01*
X0110162Y0099906D01*
X0110929Y0099138D01*
X0110929Y0097604D01*
X0110162Y0096836D01*
X0107860Y0096836D01*
X0109395Y0096836D02*
X0110929Y0095302D01*
X0112464Y0097604D02*
X0115533Y0097604D01*
X0115533Y0099677D02*
X0112464Y0099677D01*
X0115533Y0102746D01*
X0115533Y0103513D01*
X0114766Y0104281D01*
X0113231Y0104281D01*
X0112464Y0103513D01*
X0113231Y0104052D02*
X0112464Y0104819D01*
X0113231Y0104052D02*
X0114766Y0104052D01*
X0115533Y0104819D01*
X0115533Y0105586D01*
X0114766Y0106354D01*
X0113999Y0106354D01*
X0114766Y0106354D02*
X0115533Y0107121D01*
X0115533Y0107888D01*
X0114766Y0108656D01*
X0113231Y0108656D01*
X0112464Y0107888D01*
X0110929Y0107888D02*
X0110162Y0108656D01*
X0108627Y0108656D01*
X0107860Y0107888D01*
X0107860Y0104819D01*
X0108627Y0104052D01*
X0110162Y0104052D01*
X0110929Y0104819D01*
X0110162Y0104281D02*
X0108627Y0104281D01*
X0107860Y0103513D01*
X0107860Y0100444D01*
X0108627Y0099677D01*
X0110162Y0099677D01*
X0110929Y0100444D01*
X0110929Y0103513D02*
X0110162Y0104281D01*
X0114766Y0099906D02*
X0112464Y0097604D01*
X0114766Y0095302D02*
X0114766Y0099906D01*
X0117068Y0100444D02*
X0117068Y0101979D01*
X0119370Y0101979D01*
X0120137Y0101211D01*
X0120137Y0100444D01*
X0119370Y0099677D01*
X0117835Y0099677D01*
X0117068Y0100444D01*
X0117068Y0101979D02*
X0118603Y0103513D01*
X0120137Y0104281D01*
X0119370Y0095531D02*
X0117835Y0095531D01*
X0117068Y0094763D01*
X0117068Y0091694D01*
X0120137Y0094763D01*
X0120137Y0091694D01*
X0119370Y0090927D01*
X0117835Y0090927D01*
X0117068Y0091694D01*
X0120137Y0094763D02*
X0119370Y0095531D01*
X0111325Y0114052D02*
X0108256Y0114052D01*
X0111325Y0117121D01*
X0111325Y0117888D01*
X0110558Y0118656D01*
X0109023Y0118656D01*
X0108256Y0117888D01*
X0106722Y0117888D02*
X0105954Y0118656D01*
X0104420Y0118656D01*
X0103652Y0117888D01*
X0103652Y0114819D01*
X0104420Y0114052D01*
X0105954Y0114052D01*
X0106722Y0114819D01*
X0088568Y0085704D02*
X0089335Y0084936D01*
X0089335Y0083402D01*
X0088568Y0082635D01*
X0087800Y0082635D01*
X0087033Y0083402D01*
X0087033Y0084936D01*
X0087800Y0085704D01*
X0088568Y0085704D01*
X0087033Y0084936D02*
X0086266Y0085704D01*
X0085499Y0085704D01*
X0084731Y0084936D01*
X0084731Y0083402D01*
X0085499Y0082635D01*
X0086266Y0082635D01*
X0087033Y0083402D01*
X0087033Y0081100D02*
X0088568Y0081100D01*
X0089335Y0080333D01*
X0089335Y0078798D01*
X0088568Y0078031D01*
X0087033Y0078031D02*
X0086266Y0079565D01*
X0086266Y0080333D01*
X0087033Y0081100D01*
X0084731Y0081100D02*
X0084731Y0078031D01*
X0087033Y0078031D01*
X0087033Y0076496D02*
X0087800Y0075729D01*
X0087800Y0073427D01*
X0088344Y0074546D02*
X0088344Y0056908D01*
X0087460Y0057319D02*
X0087460Y0058854D01*
X0086693Y0059621D01*
X0086693Y0061156D02*
X0087460Y0061923D01*
X0087460Y0063458D01*
X0086693Y0064225D01*
X0085925Y0064225D01*
X0085158Y0063458D01*
X0085158Y0061156D01*
X0086693Y0061156D01*
X0085158Y0061156D02*
X0083624Y0062690D01*
X0082856Y0064225D01*
X0083624Y0059621D02*
X0082856Y0058854D01*
X0082856Y0057319D01*
X0083624Y0056552D01*
X0086693Y0056552D01*
X0087460Y0057319D01*
X0078710Y0066719D02*
X0078710Y0069021D01*
X0077943Y0069788D01*
X0074874Y0069788D01*
X0074106Y0069021D01*
X0074106Y0066719D01*
X0078710Y0066719D01*
X0078710Y0071323D02*
X0075641Y0074392D01*
X0074874Y0074392D01*
X0074106Y0073625D01*
X0074106Y0072090D01*
X0074874Y0071323D01*
X0073226Y0074546D02*
X0073226Y0056908D01*
X0070585Y0058427D02*
X0070585Y0060729D01*
X0069818Y0061496D01*
X0066749Y0061496D01*
X0065981Y0060729D01*
X0065981Y0058427D01*
X0070585Y0058427D01*
X0068283Y0063031D02*
X0068283Y0066100D01*
X0065981Y0065333D02*
X0068283Y0063031D01*
X0070585Y0065333D02*
X0065981Y0065333D01*
X0064616Y0065787D02*
X0064616Y0062718D01*
X0061546Y0065787D01*
X0060779Y0065787D01*
X0060012Y0065020D01*
X0060012Y0063485D01*
X0060779Y0062718D01*
X0060779Y0061183D02*
X0060012Y0060416D01*
X0060012Y0058114D01*
X0064616Y0058114D01*
X0063081Y0058114D02*
X0063081Y0060416D01*
X0062314Y0061183D01*
X0060779Y0061183D01*
X0063081Y0059649D02*
X0064616Y0061183D01*
X0063848Y0067322D02*
X0064616Y0068089D01*
X0064616Y0069624D01*
X0063848Y0070391D01*
X0063081Y0070391D01*
X0062314Y0069624D01*
X0062314Y0068856D01*
X0061950Y0069052D02*
X0058881Y0069052D01*
X0060012Y0069624D02*
X0060779Y0070391D01*
X0061546Y0070391D01*
X0062314Y0069624D01*
X0060416Y0069052D02*
X0060416Y0073656D01*
X0058881Y0072121D01*
X0057347Y0072888D02*
X0057347Y0069819D01*
X0056579Y0069052D01*
X0054277Y0069052D01*
X0054277Y0073656D01*
X0056579Y0073656D01*
X0057347Y0072888D01*
X0060012Y0069624D02*
X0060012Y0068089D01*
X0060779Y0067322D01*
X0060300Y0081552D02*
X0060300Y0083854D01*
X0059533Y0084621D01*
X0057999Y0084621D01*
X0057231Y0083854D01*
X0057231Y0081552D01*
X0061835Y0081552D01*
X0060300Y0083086D02*
X0061835Y0084621D01*
X0061835Y0086156D02*
X0061068Y0086156D01*
X0057999Y0089225D01*
X0057231Y0089225D01*
X0057231Y0086156D01*
X0055756Y0088427D02*
X0055756Y0089194D01*
X0058825Y0092263D01*
X0058825Y0093031D01*
X0055756Y0093031D01*
X0055360Y0094052D02*
X0055360Y0098656D01*
X0057662Y0098656D01*
X0058429Y0097888D01*
X0058429Y0096354D01*
X0057662Y0095586D01*
X0055360Y0095586D01*
X0056895Y0095586D02*
X0058429Y0094052D01*
X0058766Y0093829D02*
X0059533Y0093061D01*
X0060300Y0093829D01*
X0061068Y0093829D01*
X0061835Y0093061D01*
X0061835Y0091527D01*
X0061068Y0090760D01*
X0059533Y0092294D02*
X0059533Y0093061D01*
X0058766Y0093829D02*
X0057999Y0093829D01*
X0057231Y0093061D01*
X0057231Y0091527D01*
X0057999Y0090760D01*
X0054222Y0090729D02*
X0051152Y0090729D01*
X0053454Y0093031D01*
X0053454Y0088427D01*
X0049618Y0088427D02*
X0048083Y0089961D01*
X0048850Y0089961D02*
X0046548Y0089961D01*
X0046548Y0088427D02*
X0046548Y0093031D01*
X0048850Y0093031D01*
X0049618Y0092263D01*
X0049618Y0090729D01*
X0048850Y0089961D01*
X0048850Y0097177D02*
X0047316Y0097177D01*
X0046548Y0097944D01*
X0046548Y0101013D01*
X0047316Y0101781D01*
X0048850Y0101781D01*
X0049618Y0101013D01*
X0051152Y0100246D02*
X0052687Y0101781D01*
X0052687Y0097177D01*
X0051152Y0097177D02*
X0054222Y0097177D01*
X0055756Y0097944D02*
X0055756Y0098711D01*
X0056523Y0099479D01*
X0058058Y0099479D01*
X0058825Y0098711D01*
X0058825Y0097944D01*
X0058058Y0097177D01*
X0056523Y0097177D01*
X0055756Y0097944D01*
X0056523Y0099479D02*
X0055756Y0100246D01*
X0055756Y0101013D01*
X0056523Y0101781D01*
X0058058Y0101781D01*
X0058825Y0101013D01*
X0058825Y0100246D01*
X0058058Y0099479D01*
X0059964Y0097888D02*
X0060731Y0098656D01*
X0062266Y0098656D01*
X0063033Y0097888D01*
X0063033Y0097121D01*
X0062266Y0096354D01*
X0063033Y0095586D01*
X0063033Y0094819D01*
X0062266Y0094052D01*
X0060731Y0094052D01*
X0059964Y0094819D01*
X0061499Y0096354D02*
X0062266Y0096354D01*
X0064568Y0094819D02*
X0064568Y0094052D01*
X0064568Y0094819D02*
X0067637Y0097888D01*
X0067637Y0098656D01*
X0064568Y0098656D01*
X0065335Y0102802D02*
X0064568Y0103569D01*
X0065335Y0102802D02*
X0066870Y0102802D01*
X0067637Y0103569D01*
X0067637Y0105104D01*
X0066870Y0105871D01*
X0066103Y0105871D01*
X0064568Y0105104D01*
X0064568Y0107406D01*
X0067637Y0107406D01*
X0067637Y0111552D02*
X0064568Y0111552D01*
X0067637Y0114621D01*
X0067637Y0115388D01*
X0066870Y0116156D01*
X0065335Y0116156D01*
X0064568Y0115388D01*
X0063033Y0115388D02*
X0062266Y0116156D01*
X0060731Y0116156D01*
X0059964Y0115388D01*
X0059964Y0114621D01*
X0060731Y0113854D01*
X0062266Y0113854D01*
X0063033Y0113086D01*
X0063033Y0112319D01*
X0062266Y0111552D01*
X0060731Y0111552D01*
X0059964Y0112319D01*
X0059964Y0113086D01*
X0060731Y0113854D01*
X0062266Y0113854D02*
X0063033Y0114621D01*
X0063033Y0115388D01*
X0062266Y0115927D02*
X0063033Y0116694D01*
X0063033Y0119763D01*
X0062266Y0120531D01*
X0060731Y0120531D01*
X0059964Y0119763D01*
X0059964Y0118996D01*
X0060731Y0118229D01*
X0063033Y0118229D01*
X0062266Y0115927D02*
X0060731Y0115927D01*
X0059964Y0116694D01*
X0058429Y0116694D02*
X0057662Y0115927D01*
X0056127Y0115927D01*
X0055360Y0116694D01*
X0055360Y0119763D01*
X0056127Y0120531D01*
X0057662Y0120531D01*
X0058429Y0119763D01*
X0056325Y0120531D02*
X0053256Y0120531D01*
X0053256Y0118229D01*
X0054791Y0118996D01*
X0055558Y0118996D01*
X0056325Y0118229D01*
X0056325Y0116694D01*
X0055558Y0115927D01*
X0054023Y0115927D01*
X0053256Y0116694D01*
X0051722Y0116694D02*
X0050954Y0115927D01*
X0049420Y0115927D01*
X0048652Y0116694D01*
X0051722Y0119763D01*
X0051722Y0116694D01*
X0051722Y0114906D02*
X0050187Y0114138D01*
X0048652Y0112604D01*
X0050954Y0112604D01*
X0051722Y0111836D01*
X0051722Y0111069D01*
X0050954Y0110302D01*
X0049420Y0110302D01*
X0048652Y0111069D01*
X0048652Y0112604D01*
X0047118Y0114138D02*
X0046350Y0114906D01*
X0044816Y0114906D01*
X0044048Y0114138D01*
X0044048Y0111069D01*
X0044816Y0110302D01*
X0046350Y0110302D01*
X0047118Y0111069D01*
X0047118Y0115927D02*
X0044048Y0115927D01*
X0042514Y0115927D02*
X0040979Y0117461D01*
X0041746Y0117461D02*
X0039444Y0117461D01*
X0039444Y0115927D02*
X0039444Y0120531D01*
X0041746Y0120531D01*
X0042514Y0119763D01*
X0042514Y0118229D01*
X0041746Y0117461D01*
X0044048Y0118996D02*
X0045583Y0120531D01*
X0045583Y0115927D01*
X0048652Y0116694D02*
X0048652Y0119763D01*
X0049420Y0120531D01*
X0050954Y0120531D01*
X0051722Y0119763D01*
X0050954Y0122177D02*
X0049420Y0122177D01*
X0048652Y0122944D01*
X0051722Y0126013D01*
X0051722Y0122944D01*
X0050954Y0122177D01*
X0053256Y0122177D02*
X0056325Y0125246D01*
X0056325Y0126013D01*
X0055558Y0126781D01*
X0054023Y0126781D01*
X0053256Y0126013D01*
X0051722Y0126013D02*
X0050954Y0126781D01*
X0049420Y0126781D01*
X0048652Y0126013D01*
X0048652Y0122944D01*
X0047118Y0122177D02*
X0044048Y0122177D01*
X0042514Y0122177D02*
X0040979Y0123711D01*
X0041746Y0123711D02*
X0039444Y0123711D01*
X0039444Y0122177D02*
X0039444Y0126781D01*
X0041746Y0126781D01*
X0042514Y0126013D01*
X0042514Y0124479D01*
X0041746Y0123711D01*
X0044048Y0125246D02*
X0045583Y0126781D01*
X0045583Y0122177D01*
X0053256Y0122177D02*
X0056325Y0122177D01*
X0056127Y0116156D02*
X0055360Y0115388D01*
X0055360Y0112319D01*
X0056127Y0111552D01*
X0057662Y0111552D01*
X0058429Y0112319D01*
X0056325Y0112604D02*
X0056325Y0111069D01*
X0055558Y0110302D01*
X0054023Y0110302D01*
X0053256Y0111069D01*
X0053256Y0112604D02*
X0054791Y0113371D01*
X0055558Y0113371D01*
X0056325Y0112604D01*
X0056325Y0114906D02*
X0053256Y0114906D01*
X0053256Y0112604D01*
X0056127Y0116156D02*
X0057662Y0116156D01*
X0058429Y0115388D01*
X0057662Y0107406D02*
X0056127Y0107406D01*
X0055360Y0106638D01*
X0055360Y0103569D01*
X0056127Y0102802D01*
X0057662Y0102802D01*
X0058429Y0103569D01*
X0059964Y0105104D02*
X0063033Y0105104D01*
X0062266Y0107406D02*
X0059964Y0105104D01*
X0058429Y0106638D02*
X0057662Y0107406D01*
X0062266Y0107406D02*
X0062266Y0102802D01*
X0049618Y0097944D02*
X0048850Y0097177D01*
X0078710Y0074392D02*
X0078710Y0071323D01*
X0084731Y0073427D02*
X0084731Y0075729D01*
X0085499Y0076496D01*
X0087033Y0076496D01*
X0087800Y0074961D02*
X0089335Y0076496D01*
X0089335Y0073427D02*
X0084731Y0073427D01*
D12*
X0097687Y0070051D02*
X0097687Y0063902D01*
X0108887Y0063902D02*
X0108887Y0070051D01*
X0119535Y0082602D02*
X0134535Y0082602D01*
X0137035Y0085102D01*
X0137035Y0090102D01*
X0134535Y0092602D01*
X0119535Y0092602D01*
X0117035Y0090102D01*
X0117035Y0085102D01*
X0119535Y0082602D01*
X0119535Y0092602D02*
X0117035Y0095102D01*
X0117035Y0100102D01*
X0119535Y0102602D01*
X0134535Y0102602D01*
X0137035Y0100102D01*
X0137035Y0095102D01*
X0134535Y0092602D01*
X0134535Y0102602D02*
X0137035Y0105102D01*
X0137035Y0110102D01*
X0134535Y0112602D01*
X0119535Y0112602D01*
X0117035Y0110102D01*
X0117035Y0105102D01*
X0119535Y0102602D01*
X0119535Y0112602D02*
X0117035Y0115102D01*
X0117035Y0120102D01*
X0119535Y0122602D01*
X0134535Y0122602D01*
X0137035Y0120102D01*
X0137035Y0115102D01*
X0134535Y0112602D01*
X0134535Y0122602D02*
X0137035Y0125102D01*
X0137035Y0130102D01*
X0134535Y0132602D01*
X0119535Y0132602D01*
X0117035Y0130102D01*
X0117035Y0125102D01*
X0119535Y0122602D01*
X0119535Y0132602D02*
X0117035Y0135102D01*
X0117035Y0140102D01*
X0119535Y0142602D01*
X0134535Y0142602D01*
X0137035Y0140102D01*
X0137035Y0135102D01*
X0134535Y0132602D01*
X0134535Y0142602D02*
X0137035Y0145102D01*
X0137035Y0150102D01*
X0134535Y0152602D01*
X0119535Y0152602D01*
X0117035Y0150102D01*
X0117035Y0145102D01*
X0119535Y0142602D01*
X0097084Y0117026D02*
X0097084Y0090825D01*
X0095687Y0089427D01*
X0069486Y0089427D01*
X0069486Y0117026D01*
X0097084Y0117026D01*
X0092084Y0132552D02*
X0064486Y0132552D01*
X0064486Y0158753D01*
X0065884Y0160151D01*
X0092084Y0160151D01*
X0092084Y0132552D01*
X0066071Y0157152D02*
X0066073Y0157227D01*
X0066079Y0157301D01*
X0066089Y0157375D01*
X0066102Y0157448D01*
X0066120Y0157521D01*
X0066141Y0157592D01*
X0066166Y0157663D01*
X0066195Y0157732D01*
X0066228Y0157799D01*
X0066264Y0157864D01*
X0066303Y0157928D01*
X0066345Y0157989D01*
X0066391Y0158048D01*
X0066440Y0158105D01*
X0066492Y0158158D01*
X0066546Y0158209D01*
X0066603Y0158258D01*
X0066663Y0158302D01*
X0066725Y0158344D01*
X0066789Y0158383D01*
X0066855Y0158418D01*
X0066922Y0158449D01*
X0066992Y0158477D01*
X0067062Y0158501D01*
X0067134Y0158522D01*
X0067207Y0158538D01*
X0067280Y0158551D01*
X0067355Y0158560D01*
X0067429Y0158565D01*
X0067504Y0158566D01*
X0067578Y0158563D01*
X0067653Y0158556D01*
X0067726Y0158545D01*
X0067800Y0158531D01*
X0067872Y0158512D01*
X0067943Y0158490D01*
X0068013Y0158464D01*
X0068082Y0158434D01*
X0068148Y0158401D01*
X0068213Y0158364D01*
X0068276Y0158324D01*
X0068337Y0158280D01*
X0068395Y0158234D01*
X0068451Y0158184D01*
X0068504Y0158132D01*
X0068555Y0158077D01*
X0068602Y0158019D01*
X0068646Y0157959D01*
X0068687Y0157896D01*
X0068725Y0157832D01*
X0068759Y0157766D01*
X0068790Y0157697D01*
X0068817Y0157628D01*
X0068840Y0157557D01*
X0068859Y0157485D01*
X0068875Y0157412D01*
X0068887Y0157338D01*
X0068895Y0157264D01*
X0068899Y0157189D01*
X0068899Y0157115D01*
X0068895Y0157040D01*
X0068887Y0156966D01*
X0068875Y0156892D01*
X0068859Y0156819D01*
X0068840Y0156747D01*
X0068817Y0156676D01*
X0068790Y0156607D01*
X0068759Y0156538D01*
X0068725Y0156472D01*
X0068687Y0156408D01*
X0068646Y0156345D01*
X0068602Y0156285D01*
X0068555Y0156227D01*
X0068504Y0156172D01*
X0068451Y0156120D01*
X0068395Y0156070D01*
X0068337Y0156024D01*
X0068276Y0155980D01*
X0068213Y0155940D01*
X0068148Y0155903D01*
X0068082Y0155870D01*
X0068013Y0155840D01*
X0067943Y0155814D01*
X0067872Y0155792D01*
X0067800Y0155773D01*
X0067726Y0155759D01*
X0067653Y0155748D01*
X0067578Y0155741D01*
X0067504Y0155738D01*
X0067429Y0155739D01*
X0067355Y0155744D01*
X0067280Y0155753D01*
X0067207Y0155766D01*
X0067134Y0155782D01*
X0067062Y0155803D01*
X0066992Y0155827D01*
X0066922Y0155855D01*
X0066855Y0155886D01*
X0066789Y0155921D01*
X0066725Y0155960D01*
X0066663Y0156002D01*
X0066603Y0156046D01*
X0066546Y0156095D01*
X0066492Y0156146D01*
X0066440Y0156199D01*
X0066391Y0156256D01*
X0066345Y0156315D01*
X0066303Y0156376D01*
X0066264Y0156440D01*
X0066228Y0156505D01*
X0066195Y0156572D01*
X0066166Y0156641D01*
X0066141Y0156712D01*
X0066120Y0156783D01*
X0066102Y0156856D01*
X0066089Y0156929D01*
X0066079Y0157003D01*
X0066073Y0157077D01*
X0066071Y0157152D01*
X0092671Y0092427D02*
X0092673Y0092502D01*
X0092679Y0092576D01*
X0092689Y0092650D01*
X0092702Y0092723D01*
X0092720Y0092796D01*
X0092741Y0092867D01*
X0092766Y0092938D01*
X0092795Y0093007D01*
X0092828Y0093074D01*
X0092864Y0093139D01*
X0092903Y0093203D01*
X0092945Y0093264D01*
X0092991Y0093323D01*
X0093040Y0093380D01*
X0093092Y0093433D01*
X0093146Y0093484D01*
X0093203Y0093533D01*
X0093263Y0093577D01*
X0093325Y0093619D01*
X0093389Y0093658D01*
X0093455Y0093693D01*
X0093522Y0093724D01*
X0093592Y0093752D01*
X0093662Y0093776D01*
X0093734Y0093797D01*
X0093807Y0093813D01*
X0093880Y0093826D01*
X0093955Y0093835D01*
X0094029Y0093840D01*
X0094104Y0093841D01*
X0094178Y0093838D01*
X0094253Y0093831D01*
X0094326Y0093820D01*
X0094400Y0093806D01*
X0094472Y0093787D01*
X0094543Y0093765D01*
X0094613Y0093739D01*
X0094682Y0093709D01*
X0094748Y0093676D01*
X0094813Y0093639D01*
X0094876Y0093599D01*
X0094937Y0093555D01*
X0094995Y0093509D01*
X0095051Y0093459D01*
X0095104Y0093407D01*
X0095155Y0093352D01*
X0095202Y0093294D01*
X0095246Y0093234D01*
X0095287Y0093171D01*
X0095325Y0093107D01*
X0095359Y0093041D01*
X0095390Y0092972D01*
X0095417Y0092903D01*
X0095440Y0092832D01*
X0095459Y0092760D01*
X0095475Y0092687D01*
X0095487Y0092613D01*
X0095495Y0092539D01*
X0095499Y0092464D01*
X0095499Y0092390D01*
X0095495Y0092315D01*
X0095487Y0092241D01*
X0095475Y0092167D01*
X0095459Y0092094D01*
X0095440Y0092022D01*
X0095417Y0091951D01*
X0095390Y0091882D01*
X0095359Y0091813D01*
X0095325Y0091747D01*
X0095287Y0091683D01*
X0095246Y0091620D01*
X0095202Y0091560D01*
X0095155Y0091502D01*
X0095104Y0091447D01*
X0095051Y0091395D01*
X0094995Y0091345D01*
X0094937Y0091299D01*
X0094876Y0091255D01*
X0094813Y0091215D01*
X0094748Y0091178D01*
X0094682Y0091145D01*
X0094613Y0091115D01*
X0094543Y0091089D01*
X0094472Y0091067D01*
X0094400Y0091048D01*
X0094326Y0091034D01*
X0094253Y0091023D01*
X0094178Y0091016D01*
X0094104Y0091013D01*
X0094029Y0091014D01*
X0093955Y0091019D01*
X0093880Y0091028D01*
X0093807Y0091041D01*
X0093734Y0091057D01*
X0093662Y0091078D01*
X0093592Y0091102D01*
X0093522Y0091130D01*
X0093455Y0091161D01*
X0093389Y0091196D01*
X0093325Y0091235D01*
X0093263Y0091277D01*
X0093203Y0091321D01*
X0093146Y0091370D01*
X0093092Y0091421D01*
X0093040Y0091474D01*
X0092991Y0091531D01*
X0092945Y0091590D01*
X0092903Y0091651D01*
X0092864Y0091715D01*
X0092828Y0091780D01*
X0092795Y0091847D01*
X0092766Y0091916D01*
X0092741Y0091987D01*
X0092720Y0092058D01*
X0092702Y0092131D01*
X0092689Y0092204D01*
X0092679Y0092278D01*
X0092673Y0092352D01*
X0092671Y0092427D01*
X0188285Y0070102D02*
X0188285Y0055102D01*
X0190785Y0052602D01*
X0195785Y0052602D01*
X0198285Y0055102D01*
X0198285Y0070102D01*
X0200785Y0072602D01*
X0205785Y0072602D01*
X0208285Y0070102D01*
X0210785Y0072602D01*
X0215785Y0072602D01*
X0218285Y0070102D01*
X0218285Y0055102D01*
X0215785Y0052602D01*
X0210785Y0052602D01*
X0208285Y0055102D01*
X0208285Y0070102D01*
X0198285Y0070102D02*
X0195785Y0072602D01*
X0190785Y0072602D01*
X0188285Y0070102D01*
X0198285Y0055102D02*
X0200785Y0052602D01*
X0205785Y0052602D01*
X0208285Y0055102D01*
X0207785Y0205602D02*
X0213785Y0205602D01*
X0213845Y0205604D01*
X0213906Y0205609D01*
X0213965Y0205618D01*
X0214024Y0205631D01*
X0214083Y0205647D01*
X0214140Y0205667D01*
X0214195Y0205690D01*
X0214250Y0205717D01*
X0214302Y0205746D01*
X0214353Y0205779D01*
X0214402Y0205815D01*
X0214448Y0205853D01*
X0214492Y0205895D01*
X0214534Y0205939D01*
X0214572Y0205985D01*
X0214608Y0206034D01*
X0214641Y0206085D01*
X0214670Y0206137D01*
X0214697Y0206192D01*
X0214720Y0206247D01*
X0214740Y0206304D01*
X0214756Y0206363D01*
X0214769Y0206422D01*
X0214778Y0206481D01*
X0214783Y0206542D01*
X0214785Y0206602D01*
X0214785Y0223602D01*
X0214783Y0223662D01*
X0214778Y0223723D01*
X0214769Y0223782D01*
X0214756Y0223841D01*
X0214740Y0223900D01*
X0214720Y0223957D01*
X0214697Y0224012D01*
X0214670Y0224067D01*
X0214641Y0224119D01*
X0214608Y0224170D01*
X0214572Y0224219D01*
X0214534Y0224265D01*
X0214492Y0224309D01*
X0214448Y0224351D01*
X0214402Y0224389D01*
X0214353Y0224425D01*
X0214302Y0224458D01*
X0214250Y0224487D01*
X0214195Y0224514D01*
X0214140Y0224537D01*
X0214083Y0224557D01*
X0214024Y0224573D01*
X0213965Y0224586D01*
X0213906Y0224595D01*
X0213845Y0224600D01*
X0213785Y0224602D01*
X0207785Y0224602D01*
X0207725Y0224600D01*
X0207664Y0224595D01*
X0207605Y0224586D01*
X0207546Y0224573D01*
X0207487Y0224557D01*
X0207430Y0224537D01*
X0207375Y0224514D01*
X0207320Y0224487D01*
X0207268Y0224458D01*
X0207217Y0224425D01*
X0207168Y0224389D01*
X0207122Y0224351D01*
X0207078Y0224309D01*
X0207036Y0224265D01*
X0206998Y0224219D01*
X0206962Y0224170D01*
X0206929Y0224119D01*
X0206900Y0224067D01*
X0206873Y0224012D01*
X0206850Y0223957D01*
X0206830Y0223900D01*
X0206814Y0223841D01*
X0206801Y0223782D01*
X0206792Y0223723D01*
X0206787Y0223662D01*
X0206785Y0223602D01*
X0206785Y0206602D01*
X0206787Y0206542D01*
X0206792Y0206481D01*
X0206801Y0206422D01*
X0206814Y0206363D01*
X0206830Y0206304D01*
X0206850Y0206247D01*
X0206873Y0206192D01*
X0206900Y0206137D01*
X0206929Y0206085D01*
X0206962Y0206034D01*
X0206998Y0205985D01*
X0207036Y0205939D01*
X0207078Y0205895D01*
X0207122Y0205853D01*
X0207168Y0205815D01*
X0207217Y0205779D01*
X0207268Y0205746D01*
X0207320Y0205717D01*
X0207375Y0205690D01*
X0207430Y0205667D01*
X0207487Y0205647D01*
X0207546Y0205631D01*
X0207605Y0205618D01*
X0207664Y0205609D01*
X0207725Y0205604D01*
X0207785Y0205602D01*
X0204861Y0206603D02*
X0204861Y0223603D01*
X0204859Y0223663D01*
X0204854Y0223724D01*
X0204845Y0223783D01*
X0204832Y0223842D01*
X0204816Y0223901D01*
X0204796Y0223958D01*
X0204773Y0224013D01*
X0204746Y0224068D01*
X0204717Y0224120D01*
X0204684Y0224171D01*
X0204648Y0224220D01*
X0204610Y0224266D01*
X0204568Y0224310D01*
X0204524Y0224352D01*
X0204478Y0224390D01*
X0204429Y0224426D01*
X0204378Y0224459D01*
X0204326Y0224488D01*
X0204271Y0224515D01*
X0204216Y0224538D01*
X0204159Y0224558D01*
X0204100Y0224574D01*
X0204041Y0224587D01*
X0203982Y0224596D01*
X0203921Y0224601D01*
X0203861Y0224603D01*
X0197861Y0224603D01*
X0197801Y0224601D01*
X0197740Y0224596D01*
X0197681Y0224587D01*
X0197622Y0224574D01*
X0197563Y0224558D01*
X0197506Y0224538D01*
X0197451Y0224515D01*
X0197396Y0224488D01*
X0197344Y0224459D01*
X0197293Y0224426D01*
X0197244Y0224390D01*
X0197198Y0224352D01*
X0197154Y0224310D01*
X0197112Y0224266D01*
X0197074Y0224220D01*
X0197038Y0224171D01*
X0197005Y0224120D01*
X0196976Y0224068D01*
X0196949Y0224013D01*
X0196926Y0223958D01*
X0196906Y0223901D01*
X0196890Y0223842D01*
X0196877Y0223783D01*
X0196868Y0223724D01*
X0196863Y0223663D01*
X0196861Y0223603D01*
X0196861Y0206603D01*
X0196863Y0206543D01*
X0196868Y0206482D01*
X0196877Y0206423D01*
X0196890Y0206364D01*
X0196906Y0206305D01*
X0196926Y0206248D01*
X0196949Y0206193D01*
X0196976Y0206138D01*
X0197005Y0206086D01*
X0197038Y0206035D01*
X0197074Y0205986D01*
X0197112Y0205940D01*
X0197154Y0205896D01*
X0197198Y0205854D01*
X0197244Y0205816D01*
X0197293Y0205780D01*
X0197344Y0205747D01*
X0197396Y0205718D01*
X0197451Y0205691D01*
X0197506Y0205668D01*
X0197563Y0205648D01*
X0197622Y0205632D01*
X0197681Y0205619D01*
X0197740Y0205610D01*
X0197801Y0205605D01*
X0197861Y0205603D01*
X0203861Y0205603D01*
X0203921Y0205605D01*
X0203982Y0205610D01*
X0204041Y0205619D01*
X0204100Y0205632D01*
X0204159Y0205648D01*
X0204216Y0205668D01*
X0204271Y0205691D01*
X0204326Y0205718D01*
X0204378Y0205747D01*
X0204429Y0205780D01*
X0204478Y0205816D01*
X0204524Y0205854D01*
X0204568Y0205896D01*
X0204610Y0205940D01*
X0204648Y0205986D01*
X0204684Y0206035D01*
X0204717Y0206086D01*
X0204746Y0206138D01*
X0204773Y0206193D01*
X0204796Y0206248D01*
X0204816Y0206305D01*
X0204832Y0206364D01*
X0204845Y0206423D01*
X0204854Y0206482D01*
X0204859Y0206543D01*
X0204861Y0206603D01*
D13*
X0092840Y0083079D02*
X0092840Y0080177D01*
X0093324Y0081628D02*
X0091389Y0081628D01*
X0092840Y0083079D01*
X0090377Y0080177D02*
X0088442Y0080177D01*
X0089410Y0080177D02*
X0089410Y0083079D01*
X0088442Y0082112D01*
X0087431Y0082595D02*
X0086947Y0083079D01*
X0085979Y0083079D01*
X0085496Y0082595D01*
X0085496Y0080660D01*
X0085979Y0080177D01*
X0086947Y0080177D01*
X0087431Y0080660D01*
X0084499Y0080177D02*
X0083531Y0080177D01*
X0084015Y0080177D02*
X0084015Y0083079D01*
X0083531Y0083079D02*
X0084499Y0083079D01*
X0073897Y0166502D02*
X0072930Y0166502D01*
X0072446Y0166985D01*
X0071434Y0166985D02*
X0070951Y0166502D01*
X0069983Y0166502D01*
X0069499Y0166985D01*
X0069499Y0168920D01*
X0069983Y0169404D01*
X0070951Y0169404D01*
X0071434Y0168920D01*
X0072446Y0168920D02*
X0072930Y0169404D01*
X0073897Y0169404D01*
X0074381Y0168920D01*
X0074381Y0168437D01*
X0073897Y0167953D01*
X0074381Y0167469D01*
X0074381Y0166985D01*
X0073897Y0166502D01*
X0073897Y0167953D02*
X0073413Y0167953D01*
X0068503Y0169404D02*
X0067535Y0169404D01*
X0068019Y0169404D02*
X0068019Y0166502D01*
X0067535Y0166502D02*
X0068503Y0166502D01*
D14*
X0080785Y0061977D03*
D15*
X0169668Y0058109D03*
X0170652Y0060220D03*
X0170652Y0064595D03*
D16*
X0107813Y0068945D03*
D17*
X0137114Y0069427D02*
X0146956Y0069427D01*
X0146956Y0082026D01*
X0137114Y0082026D01*
X0137114Y0069427D01*
X0115081Y0105052D02*
X0105239Y0105052D01*
X0105239Y0117651D01*
X0115081Y0117651D01*
X0115081Y0105052D01*
D18*
X0071528Y0069801D02*
X0071528Y0061691D01*
X0061292Y0061691D02*
X0061292Y0069801D01*
X0161745Y0143665D02*
X0166075Y0143665D01*
X0172370Y0143665D02*
X0176700Y0143665D01*
X0176700Y0151539D02*
X0172370Y0151539D01*
X0166075Y0151539D02*
X0161745Y0151539D01*
X0165598Y0191686D02*
X0165598Y0196017D01*
X0173472Y0196017D02*
X0173472Y0191686D01*
D19*
X0066410Y0068591D03*
D20*
X0155726Y0081027D02*
X0155726Y0132208D01*
X0158679Y0135161D01*
X0209860Y0135161D01*
X0210844Y0134176D01*
X0210844Y0081027D01*
X0209860Y0080043D01*
X0156710Y0080043D01*
X0155726Y0081027D01*
X0158679Y0131224D02*
X0158681Y0131286D01*
X0158687Y0131349D01*
X0158697Y0131410D01*
X0158711Y0131471D01*
X0158728Y0131531D01*
X0158749Y0131590D01*
X0158775Y0131647D01*
X0158803Y0131702D01*
X0158835Y0131756D01*
X0158871Y0131807D01*
X0158909Y0131857D01*
X0158951Y0131903D01*
X0158995Y0131947D01*
X0159043Y0131988D01*
X0159092Y0132026D01*
X0159144Y0132060D01*
X0159198Y0132091D01*
X0159254Y0132119D01*
X0159312Y0132143D01*
X0159371Y0132164D01*
X0159431Y0132180D01*
X0159492Y0132193D01*
X0159554Y0132202D01*
X0159616Y0132207D01*
X0159679Y0132208D01*
X0159741Y0132205D01*
X0159803Y0132198D01*
X0159865Y0132187D01*
X0159925Y0132172D01*
X0159985Y0132154D01*
X0160043Y0132132D01*
X0160100Y0132106D01*
X0160155Y0132076D01*
X0160208Y0132043D01*
X0160259Y0132007D01*
X0160307Y0131968D01*
X0160353Y0131925D01*
X0160396Y0131880D01*
X0160436Y0131832D01*
X0160473Y0131782D01*
X0160507Y0131729D01*
X0160538Y0131675D01*
X0160564Y0131619D01*
X0160588Y0131561D01*
X0160607Y0131501D01*
X0160623Y0131441D01*
X0160635Y0131379D01*
X0160643Y0131318D01*
X0160647Y0131255D01*
X0160647Y0131193D01*
X0160643Y0131130D01*
X0160635Y0131069D01*
X0160623Y0131007D01*
X0160607Y0130947D01*
X0160588Y0130887D01*
X0160564Y0130829D01*
X0160538Y0130773D01*
X0160507Y0130719D01*
X0160473Y0130666D01*
X0160436Y0130616D01*
X0160396Y0130568D01*
X0160353Y0130523D01*
X0160307Y0130480D01*
X0160259Y0130441D01*
X0160208Y0130405D01*
X0160155Y0130372D01*
X0160100Y0130342D01*
X0160043Y0130316D01*
X0159985Y0130294D01*
X0159925Y0130276D01*
X0159865Y0130261D01*
X0159803Y0130250D01*
X0159741Y0130243D01*
X0159679Y0130240D01*
X0159616Y0130241D01*
X0159554Y0130246D01*
X0159492Y0130255D01*
X0159431Y0130268D01*
X0159371Y0130284D01*
X0159312Y0130305D01*
X0159254Y0130329D01*
X0159198Y0130357D01*
X0159144Y0130388D01*
X0159092Y0130422D01*
X0159043Y0130460D01*
X0158995Y0130501D01*
X0158951Y0130545D01*
X0158909Y0130591D01*
X0158871Y0130641D01*
X0158835Y0130692D01*
X0158803Y0130746D01*
X0158775Y0130801D01*
X0158749Y0130858D01*
X0158728Y0130917D01*
X0158711Y0130977D01*
X0158697Y0131038D01*
X0158687Y0131099D01*
X0158681Y0131162D01*
X0158679Y0131224D01*
D21*
X0204909Y0269108D02*
X0204911Y0269269D01*
X0204917Y0269429D01*
X0204927Y0269590D01*
X0204941Y0269750D01*
X0204959Y0269909D01*
X0204980Y0270069D01*
X0205006Y0270227D01*
X0205036Y0270385D01*
X0205069Y0270542D01*
X0205107Y0270699D01*
X0205148Y0270854D01*
X0205193Y0271008D01*
X0205242Y0271161D01*
X0205295Y0271313D01*
X0205351Y0271463D01*
X0205411Y0271612D01*
X0205475Y0271760D01*
X0205542Y0271906D01*
X0205613Y0272050D01*
X0205688Y0272192D01*
X0205766Y0272333D01*
X0205847Y0272471D01*
X0205932Y0272608D01*
X0206021Y0272742D01*
X0206112Y0272874D01*
X0206207Y0273004D01*
X0206305Y0273131D01*
X0206406Y0273256D01*
X0206510Y0273379D01*
X0206617Y0273498D01*
X0206727Y0273615D01*
X0206840Y0273730D01*
X0206956Y0273841D01*
X0207074Y0273950D01*
X0207195Y0274055D01*
X0207319Y0274158D01*
X0207445Y0274258D01*
X0207574Y0274354D01*
X0207705Y0274447D01*
X0207838Y0274537D01*
X0207973Y0274624D01*
X0208111Y0274707D01*
X0208250Y0274786D01*
X0208392Y0274863D01*
X0208535Y0274936D01*
X0208680Y0275005D01*
X0208827Y0275070D01*
X0208975Y0275132D01*
X0209125Y0275191D01*
X0209276Y0275245D01*
X0209428Y0275296D01*
X0209582Y0275343D01*
X0209737Y0275386D01*
X0209892Y0275425D01*
X0210049Y0275461D01*
X0210207Y0275493D01*
X0210365Y0275520D01*
X0210524Y0275544D01*
X0210683Y0275564D01*
X0210843Y0275580D01*
X0211004Y0275592D01*
X0211164Y0275600D01*
X0211325Y0275604D01*
X0211485Y0275604D01*
X0211646Y0275600D01*
X0211806Y0275592D01*
X0211967Y0275580D01*
X0212127Y0275564D01*
X0212286Y0275544D01*
X0212445Y0275520D01*
X0212603Y0275493D01*
X0212761Y0275461D01*
X0212918Y0275425D01*
X0213073Y0275386D01*
X0213228Y0275343D01*
X0213382Y0275296D01*
X0213534Y0275245D01*
X0213685Y0275191D01*
X0213835Y0275132D01*
X0213983Y0275070D01*
X0214130Y0275005D01*
X0214275Y0274936D01*
X0214418Y0274863D01*
X0214560Y0274786D01*
X0214699Y0274707D01*
X0214837Y0274624D01*
X0214972Y0274537D01*
X0215105Y0274447D01*
X0215236Y0274354D01*
X0215365Y0274258D01*
X0215491Y0274158D01*
X0215615Y0274055D01*
X0215736Y0273950D01*
X0215854Y0273841D01*
X0215970Y0273730D01*
X0216083Y0273615D01*
X0216193Y0273498D01*
X0216300Y0273379D01*
X0216404Y0273256D01*
X0216505Y0273131D01*
X0216603Y0273004D01*
X0216698Y0272874D01*
X0216789Y0272742D01*
X0216878Y0272608D01*
X0216963Y0272471D01*
X0217044Y0272333D01*
X0217122Y0272192D01*
X0217197Y0272050D01*
X0217268Y0271906D01*
X0217335Y0271760D01*
X0217399Y0271612D01*
X0217459Y0271463D01*
X0217515Y0271313D01*
X0217568Y0271161D01*
X0217617Y0271008D01*
X0217662Y0270854D01*
X0217703Y0270699D01*
X0217741Y0270542D01*
X0217774Y0270385D01*
X0217804Y0270227D01*
X0217830Y0270069D01*
X0217851Y0269909D01*
X0217869Y0269750D01*
X0217883Y0269590D01*
X0217893Y0269429D01*
X0217899Y0269269D01*
X0217901Y0269108D01*
X0217899Y0268947D01*
X0217893Y0268787D01*
X0217883Y0268626D01*
X0217869Y0268466D01*
X0217851Y0268307D01*
X0217830Y0268147D01*
X0217804Y0267989D01*
X0217774Y0267831D01*
X0217741Y0267674D01*
X0217703Y0267517D01*
X0217662Y0267362D01*
X0217617Y0267208D01*
X0217568Y0267055D01*
X0217515Y0266903D01*
X0217459Y0266753D01*
X0217399Y0266604D01*
X0217335Y0266456D01*
X0217268Y0266310D01*
X0217197Y0266166D01*
X0217122Y0266024D01*
X0217044Y0265883D01*
X0216963Y0265745D01*
X0216878Y0265608D01*
X0216789Y0265474D01*
X0216698Y0265342D01*
X0216603Y0265212D01*
X0216505Y0265085D01*
X0216404Y0264960D01*
X0216300Y0264837D01*
X0216193Y0264718D01*
X0216083Y0264601D01*
X0215970Y0264486D01*
X0215854Y0264375D01*
X0215736Y0264266D01*
X0215615Y0264161D01*
X0215491Y0264058D01*
X0215365Y0263958D01*
X0215236Y0263862D01*
X0215105Y0263769D01*
X0214972Y0263679D01*
X0214837Y0263592D01*
X0214699Y0263509D01*
X0214560Y0263430D01*
X0214418Y0263353D01*
X0214275Y0263280D01*
X0214130Y0263211D01*
X0213983Y0263146D01*
X0213835Y0263084D01*
X0213685Y0263025D01*
X0213534Y0262971D01*
X0213382Y0262920D01*
X0213228Y0262873D01*
X0213073Y0262830D01*
X0212918Y0262791D01*
X0212761Y0262755D01*
X0212603Y0262723D01*
X0212445Y0262696D01*
X0212286Y0262672D01*
X0212127Y0262652D01*
X0211967Y0262636D01*
X0211806Y0262624D01*
X0211646Y0262616D01*
X0211485Y0262612D01*
X0211325Y0262612D01*
X0211164Y0262616D01*
X0211004Y0262624D01*
X0210843Y0262636D01*
X0210683Y0262652D01*
X0210524Y0262672D01*
X0210365Y0262696D01*
X0210207Y0262723D01*
X0210049Y0262755D01*
X0209892Y0262791D01*
X0209737Y0262830D01*
X0209582Y0262873D01*
X0209428Y0262920D01*
X0209276Y0262971D01*
X0209125Y0263025D01*
X0208975Y0263084D01*
X0208827Y0263146D01*
X0208680Y0263211D01*
X0208535Y0263280D01*
X0208392Y0263353D01*
X0208250Y0263430D01*
X0208111Y0263509D01*
X0207973Y0263592D01*
X0207838Y0263679D01*
X0207705Y0263769D01*
X0207574Y0263862D01*
X0207445Y0263958D01*
X0207319Y0264058D01*
X0207195Y0264161D01*
X0207074Y0264266D01*
X0206956Y0264375D01*
X0206840Y0264486D01*
X0206727Y0264601D01*
X0206617Y0264718D01*
X0206510Y0264837D01*
X0206406Y0264960D01*
X0206305Y0265085D01*
X0206207Y0265212D01*
X0206112Y0265342D01*
X0206021Y0265474D01*
X0205932Y0265608D01*
X0205847Y0265745D01*
X0205766Y0265883D01*
X0205688Y0266024D01*
X0205613Y0266166D01*
X0205542Y0266310D01*
X0205475Y0266456D01*
X0205411Y0266604D01*
X0205351Y0266753D01*
X0205295Y0266903D01*
X0205242Y0267055D01*
X0205193Y0267208D01*
X0205148Y0267362D01*
X0205107Y0267517D01*
X0205069Y0267674D01*
X0205036Y0267831D01*
X0205006Y0267989D01*
X0204980Y0268147D01*
X0204959Y0268307D01*
X0204941Y0268466D01*
X0204927Y0268626D01*
X0204917Y0268787D01*
X0204911Y0268947D01*
X0204909Y0269108D01*
X0053334Y0269108D02*
X0053336Y0269269D01*
X0053342Y0269429D01*
X0053352Y0269590D01*
X0053366Y0269750D01*
X0053384Y0269909D01*
X0053405Y0270069D01*
X0053431Y0270227D01*
X0053461Y0270385D01*
X0053494Y0270542D01*
X0053532Y0270699D01*
X0053573Y0270854D01*
X0053618Y0271008D01*
X0053667Y0271161D01*
X0053720Y0271313D01*
X0053776Y0271463D01*
X0053836Y0271612D01*
X0053900Y0271760D01*
X0053967Y0271906D01*
X0054038Y0272050D01*
X0054113Y0272192D01*
X0054191Y0272333D01*
X0054272Y0272471D01*
X0054357Y0272608D01*
X0054446Y0272742D01*
X0054537Y0272874D01*
X0054632Y0273004D01*
X0054730Y0273131D01*
X0054831Y0273256D01*
X0054935Y0273379D01*
X0055042Y0273498D01*
X0055152Y0273615D01*
X0055265Y0273730D01*
X0055381Y0273841D01*
X0055499Y0273950D01*
X0055620Y0274055D01*
X0055744Y0274158D01*
X0055870Y0274258D01*
X0055999Y0274354D01*
X0056130Y0274447D01*
X0056263Y0274537D01*
X0056398Y0274624D01*
X0056536Y0274707D01*
X0056675Y0274786D01*
X0056817Y0274863D01*
X0056960Y0274936D01*
X0057105Y0275005D01*
X0057252Y0275070D01*
X0057400Y0275132D01*
X0057550Y0275191D01*
X0057701Y0275245D01*
X0057853Y0275296D01*
X0058007Y0275343D01*
X0058162Y0275386D01*
X0058317Y0275425D01*
X0058474Y0275461D01*
X0058632Y0275493D01*
X0058790Y0275520D01*
X0058949Y0275544D01*
X0059108Y0275564D01*
X0059268Y0275580D01*
X0059429Y0275592D01*
X0059589Y0275600D01*
X0059750Y0275604D01*
X0059910Y0275604D01*
X0060071Y0275600D01*
X0060231Y0275592D01*
X0060392Y0275580D01*
X0060552Y0275564D01*
X0060711Y0275544D01*
X0060870Y0275520D01*
X0061028Y0275493D01*
X0061186Y0275461D01*
X0061343Y0275425D01*
X0061498Y0275386D01*
X0061653Y0275343D01*
X0061807Y0275296D01*
X0061959Y0275245D01*
X0062110Y0275191D01*
X0062260Y0275132D01*
X0062408Y0275070D01*
X0062555Y0275005D01*
X0062700Y0274936D01*
X0062843Y0274863D01*
X0062985Y0274786D01*
X0063124Y0274707D01*
X0063262Y0274624D01*
X0063397Y0274537D01*
X0063530Y0274447D01*
X0063661Y0274354D01*
X0063790Y0274258D01*
X0063916Y0274158D01*
X0064040Y0274055D01*
X0064161Y0273950D01*
X0064279Y0273841D01*
X0064395Y0273730D01*
X0064508Y0273615D01*
X0064618Y0273498D01*
X0064725Y0273379D01*
X0064829Y0273256D01*
X0064930Y0273131D01*
X0065028Y0273004D01*
X0065123Y0272874D01*
X0065214Y0272742D01*
X0065303Y0272608D01*
X0065388Y0272471D01*
X0065469Y0272333D01*
X0065547Y0272192D01*
X0065622Y0272050D01*
X0065693Y0271906D01*
X0065760Y0271760D01*
X0065824Y0271612D01*
X0065884Y0271463D01*
X0065940Y0271313D01*
X0065993Y0271161D01*
X0066042Y0271008D01*
X0066087Y0270854D01*
X0066128Y0270699D01*
X0066166Y0270542D01*
X0066199Y0270385D01*
X0066229Y0270227D01*
X0066255Y0270069D01*
X0066276Y0269909D01*
X0066294Y0269750D01*
X0066308Y0269590D01*
X0066318Y0269429D01*
X0066324Y0269269D01*
X0066326Y0269108D01*
X0066324Y0268947D01*
X0066318Y0268787D01*
X0066308Y0268626D01*
X0066294Y0268466D01*
X0066276Y0268307D01*
X0066255Y0268147D01*
X0066229Y0267989D01*
X0066199Y0267831D01*
X0066166Y0267674D01*
X0066128Y0267517D01*
X0066087Y0267362D01*
X0066042Y0267208D01*
X0065993Y0267055D01*
X0065940Y0266903D01*
X0065884Y0266753D01*
X0065824Y0266604D01*
X0065760Y0266456D01*
X0065693Y0266310D01*
X0065622Y0266166D01*
X0065547Y0266024D01*
X0065469Y0265883D01*
X0065388Y0265745D01*
X0065303Y0265608D01*
X0065214Y0265474D01*
X0065123Y0265342D01*
X0065028Y0265212D01*
X0064930Y0265085D01*
X0064829Y0264960D01*
X0064725Y0264837D01*
X0064618Y0264718D01*
X0064508Y0264601D01*
X0064395Y0264486D01*
X0064279Y0264375D01*
X0064161Y0264266D01*
X0064040Y0264161D01*
X0063916Y0264058D01*
X0063790Y0263958D01*
X0063661Y0263862D01*
X0063530Y0263769D01*
X0063397Y0263679D01*
X0063262Y0263592D01*
X0063124Y0263509D01*
X0062985Y0263430D01*
X0062843Y0263353D01*
X0062700Y0263280D01*
X0062555Y0263211D01*
X0062408Y0263146D01*
X0062260Y0263084D01*
X0062110Y0263025D01*
X0061959Y0262971D01*
X0061807Y0262920D01*
X0061653Y0262873D01*
X0061498Y0262830D01*
X0061343Y0262791D01*
X0061186Y0262755D01*
X0061028Y0262723D01*
X0060870Y0262696D01*
X0060711Y0262672D01*
X0060552Y0262652D01*
X0060392Y0262636D01*
X0060231Y0262624D01*
X0060071Y0262616D01*
X0059910Y0262612D01*
X0059750Y0262612D01*
X0059589Y0262616D01*
X0059429Y0262624D01*
X0059268Y0262636D01*
X0059108Y0262652D01*
X0058949Y0262672D01*
X0058790Y0262696D01*
X0058632Y0262723D01*
X0058474Y0262755D01*
X0058317Y0262791D01*
X0058162Y0262830D01*
X0058007Y0262873D01*
X0057853Y0262920D01*
X0057701Y0262971D01*
X0057550Y0263025D01*
X0057400Y0263084D01*
X0057252Y0263146D01*
X0057105Y0263211D01*
X0056960Y0263280D01*
X0056817Y0263353D01*
X0056675Y0263430D01*
X0056536Y0263509D01*
X0056398Y0263592D01*
X0056263Y0263679D01*
X0056130Y0263769D01*
X0055999Y0263862D01*
X0055870Y0263958D01*
X0055744Y0264058D01*
X0055620Y0264161D01*
X0055499Y0264266D01*
X0055381Y0264375D01*
X0055265Y0264486D01*
X0055152Y0264601D01*
X0055042Y0264718D01*
X0054935Y0264837D01*
X0054831Y0264960D01*
X0054730Y0265085D01*
X0054632Y0265212D01*
X0054537Y0265342D01*
X0054446Y0265474D01*
X0054357Y0265608D01*
X0054272Y0265745D01*
X0054191Y0265883D01*
X0054113Y0266024D01*
X0054038Y0266166D01*
X0053967Y0266310D01*
X0053900Y0266456D01*
X0053836Y0266604D01*
X0053776Y0266753D01*
X0053720Y0266903D01*
X0053667Y0267055D01*
X0053618Y0267208D01*
X0053573Y0267362D01*
X0053532Y0267517D01*
X0053494Y0267674D01*
X0053461Y0267831D01*
X0053431Y0267989D01*
X0053405Y0268147D01*
X0053384Y0268307D01*
X0053366Y0268466D01*
X0053352Y0268626D01*
X0053342Y0268787D01*
X0053336Y0268947D01*
X0053334Y0269108D01*
D22*
X0162926Y0150358D03*
X0175519Y0144846D03*
X0166779Y0192867D03*
M02*
