G75*
%MOIN*%
%OFA0B0*%
%FSLAX25Y25*%
%IPPOS*%
%LPD*%
%AMOC8*
5,1,8,0,0,1.08239X$1,22.5*
%
%ADD10R,0.04737X0.14186*%
%ADD11R,0.27572X0.38595*%
%ADD12R,0.06706X0.05918*%
%ADD13C,0.08477*%
%ADD14C,0.13792*%
%ADD15R,0.03500X0.06100*%
%ADD16R,0.05400X0.07100*%
%ADD17OC8,0.06800*%
%ADD18C,0.03600*%
D10*
X0190160Y0140367D03*
X0210160Y0140367D03*
D11*
X0200160Y0180131D03*
D12*
X0210160Y0163842D03*
X0210160Y0156362D03*
D13*
X0184112Y0210052D03*
X0178206Y0219895D03*
X0172301Y0210052D03*
X0166395Y0219895D03*
X0160490Y0210052D03*
X0154584Y0219895D03*
X0148679Y0210052D03*
X0142773Y0219895D03*
X0136868Y0210052D03*
X0130962Y0219895D03*
X0125057Y0210052D03*
X0119151Y0219895D03*
X0113246Y0210052D03*
X0107340Y0219895D03*
X0101435Y0210052D03*
X0095529Y0219895D03*
X0089624Y0210052D03*
X0095529Y0233674D03*
X0089624Y0243517D03*
X0101435Y0243517D03*
X0107340Y0233674D03*
X0113246Y0243517D03*
X0119151Y0233674D03*
X0125057Y0243517D03*
X0130962Y0233674D03*
X0136868Y0243517D03*
X0142773Y0233674D03*
X0148679Y0243517D03*
X0154584Y0233674D03*
X0160490Y0243517D03*
X0166395Y0233674D03*
X0172301Y0243517D03*
X0178206Y0233674D03*
X0184112Y0243517D03*
D14*
X0212655Y0269108D03*
X0061080Y0269108D03*
D15*
X0194328Y0117223D03*
X0199328Y0117223D03*
X0204328Y0117223D03*
X0209328Y0117223D03*
X0209328Y0078473D03*
X0204328Y0078473D03*
X0199328Y0078473D03*
X0194328Y0078473D03*
D16*
X0106785Y0183852D03*
X0100785Y0183852D03*
X0094785Y0183852D03*
D17*
X0123285Y0147602D03*
X0133285Y0147602D03*
X0133285Y0137602D03*
X0133285Y0127602D03*
X0123285Y0127602D03*
X0123285Y0137602D03*
X0123285Y0117602D03*
X0123285Y0107602D03*
X0133285Y0107602D03*
X0133285Y0117602D03*
X0133285Y0097602D03*
X0123285Y0097602D03*
X0123285Y0087602D03*
X0133285Y0087602D03*
X0184535Y0067602D03*
X0184535Y0057602D03*
X0194535Y0057602D03*
X0194535Y0067602D03*
X0204535Y0067602D03*
X0204535Y0057602D03*
X0214535Y0057602D03*
X0214535Y0067602D03*
D18*
X0051410Y0070727D03*
X0055160Y0070727D03*
X0058910Y0070727D03*
X0065160Y0059477D03*
X0067660Y0059477D03*
X0070160Y0059477D03*
X0070160Y0056352D03*
X0067660Y0056352D03*
X0065160Y0056352D03*
X0080160Y0056352D03*
X0080160Y0058852D03*
X0083910Y0058852D03*
X0083910Y0056352D03*
X0092660Y0057602D03*
X0095160Y0057602D03*
X0104535Y0067602D03*
X0112660Y0083227D03*
X0108285Y0088227D03*
X0104535Y0088852D03*
X0102035Y0088852D03*
X0102035Y0086352D03*
X0104535Y0086352D03*
X0092660Y0092602D03*
X0088910Y0091352D03*
X0082035Y0096352D03*
X0077660Y0095102D03*
X0075785Y0098852D03*
X0075785Y0091352D03*
X0078285Y0081352D03*
X0082035Y0081352D03*
X0088910Y0076352D03*
X0096410Y0098852D03*
X0096410Y0104477D03*
X0092660Y0115102D03*
X0088910Y0115102D03*
X0099535Y0130102D03*
X0104535Y0130727D03*
X0103910Y0143227D03*
X0106410Y0147602D03*
X0106410Y0151977D03*
X0111410Y0156352D03*
X0106410Y0160727D03*
X0097660Y0165102D03*
X0098285Y0168852D03*
X0095160Y0173852D03*
X0090785Y0173852D03*
X0081410Y0173852D03*
X0078910Y0178227D03*
X0073285Y0178227D03*
X0072660Y0173227D03*
X0068910Y0173227D03*
X0065160Y0173227D03*
X0062660Y0168852D03*
X0057035Y0167602D03*
X0055160Y0178227D03*
X0058285Y0190727D03*
X0058285Y0193227D03*
X0065785Y0193227D03*
X0065785Y0195727D03*
X0065785Y0198227D03*
X0064535Y0206977D03*
X0064535Y0209477D03*
X0052660Y0201352D03*
X0051410Y0218227D03*
X0055785Y0227602D03*
X0058285Y0227602D03*
X0077035Y0198227D03*
X0077035Y0195727D03*
X0077035Y0193227D03*
X0089535Y0193227D03*
X0089535Y0195727D03*
X0089535Y0198227D03*
X0100785Y0198852D03*
X0103285Y0195102D03*
X0103285Y0192602D03*
X0114535Y0195727D03*
X0120785Y0184477D03*
X0120785Y0181977D03*
X0117660Y0175727D03*
X0115160Y0175727D03*
X0115160Y0173227D03*
X0117660Y0173227D03*
X0127660Y0172602D03*
X0127660Y0170102D03*
X0121410Y0160727D03*
X0121410Y0156352D03*
X0130785Y0156352D03*
X0142660Y0160727D03*
X0147660Y0160727D03*
X0152660Y0160727D03*
X0157660Y0156352D03*
X0157660Y0151352D03*
X0156410Y0147602D03*
X0152660Y0151352D03*
X0147660Y0152602D03*
X0143910Y0152602D03*
X0149535Y0144477D03*
X0156410Y0139477D03*
X0157660Y0135727D03*
X0162660Y0133227D03*
X0170785Y0133227D03*
X0175785Y0133227D03*
X0180785Y0131977D03*
X0183285Y0129477D03*
X0180785Y0126977D03*
X0180785Y0123227D03*
X0172035Y0121352D03*
X0169535Y0123852D03*
X0169535Y0113852D03*
X0158910Y0113852D03*
X0158910Y0110102D03*
X0162035Y0102602D03*
X0159535Y0100102D03*
X0162035Y0097602D03*
X0160160Y0094477D03*
X0160785Y0090727D03*
X0164535Y0090727D03*
X0168285Y0090727D03*
X0167660Y0083227D03*
X0171410Y0081977D03*
X0177660Y0082602D03*
X0181410Y0082602D03*
X0175160Y0070102D03*
X0175160Y0065727D03*
X0175160Y0061352D03*
X0175160Y0056977D03*
X0165785Y0070102D03*
X0160785Y0070102D03*
X0156410Y0070727D03*
X0146410Y0080727D03*
X0140160Y0070727D03*
X0135160Y0080102D03*
X0131410Y0078227D03*
X0123910Y0078227D03*
X0121410Y0078227D03*
X0118910Y0078227D03*
X0128285Y0059477D03*
X0130785Y0059477D03*
X0130785Y0056977D03*
X0128285Y0056977D03*
X0140160Y0091352D03*
X0147035Y0096352D03*
X0146410Y0120727D03*
X0146410Y0125102D03*
X0138285Y0133852D03*
X0117660Y0144477D03*
X0115160Y0138227D03*
X0116410Y0130102D03*
X0115160Y0121352D03*
X0108285Y0101352D03*
X0114535Y0096977D03*
X0087035Y0135102D03*
X0084535Y0137602D03*
X0081410Y0139477D03*
X0076410Y0136352D03*
X0073910Y0143852D03*
X0068910Y0143852D03*
X0070160Y0151352D03*
X0067660Y0154477D03*
X0074535Y0150727D03*
X0078910Y0146352D03*
X0083285Y0153852D03*
X0078910Y0158227D03*
X0075785Y0168227D03*
X0052660Y0150727D03*
X0052660Y0146352D03*
X0052660Y0141977D03*
X0067660Y0118227D03*
X0072660Y0110727D03*
X0072660Y0105102D03*
X0056410Y0104477D03*
X0056410Y0100102D03*
X0056410Y0095727D03*
X0052035Y0083852D03*
X0056410Y0108852D03*
X0056410Y0113227D03*
X0091410Y0138227D03*
X0091410Y0141352D03*
X0130160Y0181977D03*
X0130160Y0184477D03*
X0137660Y0181352D03*
X0145785Y0193227D03*
X0158910Y0200727D03*
X0162035Y0184477D03*
X0168598Y0177602D03*
X0168598Y0172602D03*
X0173598Y0172602D03*
X0173598Y0177602D03*
X0178285Y0188227D03*
X0178285Y0199477D03*
X0201410Y0208852D03*
X0203910Y0208852D03*
X0210785Y0203227D03*
X0213285Y0203227D03*
X0220785Y0211352D03*
X0220785Y0213852D03*
X0213285Y0215102D03*
X0210785Y0215102D03*
X0203910Y0221352D03*
X0201410Y0221352D03*
X0215160Y0235102D03*
X0217660Y0235102D03*
X0180785Y0165102D03*
X0180160Y0160727D03*
X0171410Y0160727D03*
X0171410Y0155727D03*
X0167035Y0161352D03*
X0162660Y0161352D03*
X0157660Y0168227D03*
X0165160Y0152602D03*
X0182660Y0151977D03*
X0182660Y0148227D03*
X0182660Y0144477D03*
X0190785Y0155727D03*
X0195785Y0155727D03*
X0195785Y0158227D03*
X0204535Y0151977D03*
X0210160Y0150102D03*
X0214535Y0141977D03*
X0214535Y0139477D03*
X0200160Y0133852D03*
X0193910Y0123227D03*
X0180785Y0110102D03*
X0180785Y0106352D03*
X0200785Y0085102D03*
X0204535Y0085102D03*
X0210160Y0101977D03*
X0210160Y0105727D03*
X0222035Y0096352D03*
X0222035Y0066352D03*
X0222035Y0056977D03*
X0160160Y0056977D03*
M02*
