G75*
%MOIN*%
%OFA0B0*%
%FSLAX25Y25*%
%IPPOS*%
%LPD*%
%AMOC8*
5,1,8,0,0,1.08239X$1,22.5*
%
%ADD10C,0.07677*%
%ADD11C,0.06000*%
%ADD12C,0.02800*%
%ADD13C,0.00800*%
D10*
X0089624Y0210052D03*
X0095529Y0219895D03*
X0101435Y0210052D03*
X0107340Y0219895D03*
X0113246Y0210052D03*
X0119151Y0219895D03*
X0125057Y0210052D03*
X0130962Y0219895D03*
X0136868Y0210052D03*
X0142773Y0219895D03*
X0148679Y0210052D03*
X0154584Y0219895D03*
X0160490Y0210052D03*
X0166395Y0219895D03*
X0172301Y0210052D03*
X0178206Y0219895D03*
X0184112Y0210052D03*
X0178206Y0233674D03*
X0172301Y0243517D03*
X0166395Y0233674D03*
X0160490Y0243517D03*
X0154584Y0233674D03*
X0148679Y0243517D03*
X0142773Y0233674D03*
X0136868Y0243517D03*
X0130962Y0233674D03*
X0125057Y0243517D03*
X0119151Y0233674D03*
X0113246Y0243517D03*
X0107340Y0233674D03*
X0101435Y0243517D03*
X0095529Y0233674D03*
X0089624Y0243517D03*
X0184112Y0243517D03*
D11*
X0133285Y0147602D03*
X0123285Y0147602D03*
X0123285Y0137602D03*
X0123285Y0127602D03*
X0133285Y0127602D03*
X0133285Y0137602D03*
X0133285Y0117602D03*
X0133285Y0107602D03*
X0123285Y0107602D03*
X0123285Y0117602D03*
X0123285Y0097602D03*
X0133285Y0097602D03*
X0133285Y0087602D03*
X0123285Y0087602D03*
X0184535Y0067602D03*
X0184535Y0057602D03*
X0194535Y0057602D03*
X0194535Y0067602D03*
X0204535Y0067602D03*
X0204535Y0057602D03*
X0214535Y0057602D03*
X0214535Y0067602D03*
D12*
X0222035Y0066352D03*
X0222035Y0056977D03*
X0204535Y0085102D03*
X0200785Y0085102D03*
X0210160Y0101977D03*
X0210160Y0105727D03*
X0222035Y0096352D03*
X0193910Y0123227D03*
X0183285Y0129477D03*
X0180785Y0131977D03*
X0180785Y0126977D03*
X0180785Y0123227D03*
X0172035Y0121352D03*
X0169535Y0123852D03*
X0169535Y0113852D03*
X0158910Y0113852D03*
X0158910Y0110102D03*
X0162035Y0102602D03*
X0159535Y0100102D03*
X0162035Y0097602D03*
X0160160Y0094477D03*
X0160785Y0090727D03*
X0164535Y0090727D03*
X0168285Y0090727D03*
X0167660Y0083227D03*
X0171410Y0081977D03*
X0177660Y0082602D03*
X0181410Y0082602D03*
X0175160Y0070102D03*
X0175160Y0065727D03*
X0175160Y0061352D03*
X0175160Y0056977D03*
X0165785Y0070102D03*
X0160785Y0070102D03*
X0156410Y0070727D03*
X0146410Y0080727D03*
X0140160Y0070727D03*
X0135160Y0080102D03*
X0131410Y0078227D03*
X0123910Y0078227D03*
X0121410Y0078227D03*
X0118910Y0078227D03*
X0112660Y0083227D03*
X0108285Y0088227D03*
X0104535Y0088852D03*
X0102035Y0088852D03*
X0102035Y0086352D03*
X0104535Y0086352D03*
X0092660Y0092602D03*
X0088910Y0091352D03*
X0082035Y0096352D03*
X0077660Y0095102D03*
X0075785Y0098852D03*
X0075785Y0091352D03*
X0078285Y0081352D03*
X0082035Y0081352D03*
X0088910Y0076352D03*
X0104535Y0067602D03*
X0095160Y0057602D03*
X0092660Y0057602D03*
X0083910Y0058852D03*
X0083910Y0056352D03*
X0080160Y0056352D03*
X0080160Y0058852D03*
X0070160Y0059477D03*
X0067660Y0059477D03*
X0065160Y0059477D03*
X0065160Y0056352D03*
X0067660Y0056352D03*
X0070160Y0056352D03*
X0058910Y0070727D03*
X0055160Y0070727D03*
X0051410Y0070727D03*
X0052035Y0083852D03*
X0056410Y0095727D03*
X0056410Y0100102D03*
X0056410Y0104477D03*
X0056410Y0108852D03*
X0056410Y0113227D03*
X0067660Y0118227D03*
X0072660Y0110727D03*
X0072660Y0105102D03*
X0088910Y0115102D03*
X0092660Y0115102D03*
X0096410Y0104477D03*
X0096410Y0098852D03*
X0108285Y0101352D03*
X0114535Y0096977D03*
X0115160Y0121352D03*
X0116410Y0130102D03*
X0115160Y0138227D03*
X0117660Y0144477D03*
X0121410Y0156352D03*
X0121410Y0160727D03*
X0130785Y0156352D03*
X0142660Y0160727D03*
X0147660Y0160727D03*
X0152660Y0160727D03*
X0157660Y0156352D03*
X0157660Y0151352D03*
X0156410Y0147602D03*
X0152660Y0151352D03*
X0147660Y0152602D03*
X0143910Y0152602D03*
X0149535Y0144477D03*
X0156410Y0139477D03*
X0157660Y0135727D03*
X0162660Y0133227D03*
X0170785Y0133227D03*
X0175785Y0133227D03*
X0182660Y0144477D03*
X0182660Y0148227D03*
X0182660Y0151977D03*
X0180160Y0160727D03*
X0180785Y0165102D03*
X0173598Y0172602D03*
X0173598Y0177602D03*
X0168598Y0177602D03*
X0168598Y0172602D03*
X0167035Y0161352D03*
X0162660Y0161352D03*
X0157660Y0168227D03*
X0171410Y0160727D03*
X0171410Y0155727D03*
X0165160Y0152602D03*
X0146410Y0125102D03*
X0146410Y0120727D03*
X0138285Y0133852D03*
X0111410Y0156352D03*
X0106410Y0160727D03*
X0106410Y0151977D03*
X0106410Y0147602D03*
X0103910Y0143227D03*
X0104535Y0130727D03*
X0099535Y0130102D03*
X0091410Y0138227D03*
X0091410Y0141352D03*
X0087035Y0135102D03*
X0084535Y0137602D03*
X0081410Y0139477D03*
X0076410Y0136352D03*
X0073910Y0143852D03*
X0068910Y0143852D03*
X0070160Y0151352D03*
X0067660Y0154477D03*
X0074535Y0150727D03*
X0078910Y0146352D03*
X0083285Y0153852D03*
X0078910Y0158227D03*
X0075785Y0168227D03*
X0072660Y0173227D03*
X0068910Y0173227D03*
X0065160Y0173227D03*
X0062660Y0168852D03*
X0057035Y0167602D03*
X0055160Y0178227D03*
X0058285Y0190727D03*
X0058285Y0193227D03*
X0065785Y0193227D03*
X0065785Y0195727D03*
X0065785Y0198227D03*
X0064535Y0206977D03*
X0064535Y0209477D03*
X0052660Y0201352D03*
X0051410Y0218227D03*
X0055785Y0227602D03*
X0058285Y0227602D03*
X0077035Y0198227D03*
X0077035Y0195727D03*
X0077035Y0193227D03*
X0089535Y0193227D03*
X0089535Y0195727D03*
X0089535Y0198227D03*
X0100785Y0198852D03*
X0103285Y0195102D03*
X0103285Y0192602D03*
X0114535Y0195727D03*
X0120785Y0184477D03*
X0120785Y0181977D03*
X0117660Y0175727D03*
X0115160Y0175727D03*
X0115160Y0173227D03*
X0117660Y0173227D03*
X0127660Y0172602D03*
X0127660Y0170102D03*
X0130160Y0181977D03*
X0130160Y0184477D03*
X0137660Y0181352D03*
X0145785Y0193227D03*
X0158910Y0200727D03*
X0162035Y0184477D03*
X0178285Y0188227D03*
X0178285Y0199477D03*
X0201410Y0208852D03*
X0203910Y0208852D03*
X0210785Y0203227D03*
X0213285Y0203227D03*
X0220785Y0211352D03*
X0220785Y0213852D03*
X0213285Y0215102D03*
X0210785Y0215102D03*
X0203910Y0221352D03*
X0201410Y0221352D03*
X0215160Y0235102D03*
X0217660Y0235102D03*
X0195785Y0158227D03*
X0195785Y0155727D03*
X0190785Y0155727D03*
X0204535Y0151977D03*
X0210160Y0150102D03*
X0214535Y0141977D03*
X0214535Y0139477D03*
X0200160Y0133852D03*
X0180785Y0110102D03*
X0180785Y0106352D03*
X0147035Y0096352D03*
X0140160Y0091352D03*
X0130785Y0059477D03*
X0128285Y0059477D03*
X0128285Y0056977D03*
X0130785Y0056977D03*
X0160160Y0056977D03*
X0097660Y0165102D03*
X0098285Y0168852D03*
X0095160Y0173852D03*
X0090785Y0173852D03*
X0081410Y0173852D03*
X0078910Y0178227D03*
X0073285Y0178227D03*
X0052660Y0150727D03*
X0052660Y0146352D03*
X0052660Y0141977D03*
D13*
X0049935Y0216449D02*
X0049935Y0054252D01*
X0064007Y0054252D01*
X0062860Y0055399D01*
X0062860Y0057304D01*
X0063470Y0057914D01*
X0062860Y0058524D01*
X0062860Y0060429D01*
X0064207Y0061777D01*
X0066113Y0061777D01*
X0066410Y0061479D01*
X0066707Y0061777D01*
X0068613Y0061777D01*
X0068910Y0061479D01*
X0069207Y0061777D01*
X0071113Y0061777D01*
X0072460Y0060429D01*
X0072460Y0058524D01*
X0071850Y0057914D01*
X0072460Y0057304D01*
X0072460Y0055399D01*
X0071313Y0054252D01*
X0182432Y0054252D01*
X0182326Y0054295D01*
X0181229Y0055392D01*
X0180635Y0056826D01*
X0180635Y0058377D01*
X0181229Y0059811D01*
X0182326Y0060908D01*
X0183759Y0061502D01*
X0185311Y0061502D01*
X0186744Y0060908D01*
X0187841Y0059811D01*
X0188435Y0058377D01*
X0188435Y0056826D01*
X0187841Y0055392D01*
X0186744Y0054295D01*
X0186639Y0054252D01*
X0192432Y0054252D01*
X0192326Y0054295D01*
X0191229Y0055392D01*
X0190635Y0056826D01*
X0190635Y0058377D01*
X0191229Y0059811D01*
X0192326Y0060908D01*
X0193759Y0061502D01*
X0195311Y0061502D01*
X0196744Y0060908D01*
X0197841Y0059811D01*
X0198435Y0058377D01*
X0198435Y0056826D01*
X0197841Y0055392D01*
X0196744Y0054295D01*
X0196639Y0054252D01*
X0223800Y0054252D01*
X0223800Y0055489D01*
X0222988Y0054677D01*
X0221082Y0054677D01*
X0219735Y0056024D01*
X0219735Y0057929D01*
X0221082Y0059277D01*
X0222988Y0059277D01*
X0223800Y0058464D01*
X0223800Y0279298D01*
X0049935Y0279298D01*
X0049935Y0220004D01*
X0050457Y0220527D01*
X0052363Y0220527D01*
X0053710Y0219179D01*
X0053710Y0217274D01*
X0052363Y0215927D01*
X0050457Y0215927D01*
X0049935Y0216449D01*
X0049935Y0216296D02*
X0050088Y0216296D01*
X0049935Y0215498D02*
X0093762Y0215498D01*
X0094587Y0215156D02*
X0096472Y0215156D01*
X0098213Y0215878D01*
X0099546Y0217211D01*
X0100268Y0218952D01*
X0100268Y0220838D01*
X0099546Y0222579D01*
X0098213Y0223912D01*
X0096472Y0224634D01*
X0094587Y0224634D01*
X0092845Y0223912D01*
X0091512Y0222579D01*
X0090791Y0220838D01*
X0090791Y0218952D01*
X0091512Y0217211D01*
X0092845Y0215878D01*
X0094587Y0215156D01*
X0093275Y0213102D02*
X0097783Y0213102D01*
X0097418Y0212737D02*
X0098751Y0214070D01*
X0100492Y0214791D01*
X0102377Y0214791D01*
X0104119Y0214070D01*
X0105452Y0212737D01*
X0106173Y0210995D01*
X0106173Y0209110D01*
X0108507Y0209110D01*
X0109229Y0207368D01*
X0110562Y0206035D01*
X0112303Y0205314D01*
X0114188Y0205314D01*
X0115930Y0206035D01*
X0117263Y0207368D01*
X0117984Y0209110D01*
X0120318Y0209110D01*
X0121040Y0207368D01*
X0122373Y0206035D01*
X0124114Y0205314D01*
X0125999Y0205314D01*
X0127741Y0206035D01*
X0129074Y0207368D01*
X0129795Y0209110D01*
X0132129Y0209110D01*
X0132851Y0207368D01*
X0134184Y0206035D01*
X0135925Y0205314D01*
X0137810Y0205314D01*
X0139552Y0206035D01*
X0140885Y0207368D01*
X0141606Y0209110D01*
X0143940Y0209110D01*
X0144662Y0207368D01*
X0145995Y0206035D01*
X0147736Y0205314D01*
X0149621Y0205314D01*
X0151363Y0206035D01*
X0152696Y0207368D01*
X0153417Y0209110D01*
X0155751Y0209110D01*
X0156473Y0207368D01*
X0157806Y0206035D01*
X0159547Y0205314D01*
X0161432Y0205314D01*
X0163174Y0206035D01*
X0164507Y0207368D01*
X0165228Y0209110D01*
X0167562Y0209110D01*
X0168284Y0207368D01*
X0169617Y0206035D01*
X0171358Y0205314D01*
X0173243Y0205314D01*
X0174985Y0206035D01*
X0176318Y0207368D01*
X0177039Y0209110D01*
X0179373Y0209110D01*
X0180095Y0207368D01*
X0181428Y0206035D01*
X0183169Y0205314D01*
X0185054Y0205314D01*
X0186796Y0206035D01*
X0188129Y0207368D01*
X0188850Y0209110D01*
X0199110Y0209110D01*
X0199110Y0209804D02*
X0199110Y0207899D01*
X0200457Y0206552D01*
X0202363Y0206552D01*
X0202660Y0206849D01*
X0202957Y0206552D01*
X0204863Y0206552D01*
X0206210Y0207899D01*
X0206210Y0209804D01*
X0204863Y0211152D01*
X0202957Y0211152D01*
X0202660Y0210854D01*
X0202363Y0211152D01*
X0200457Y0211152D01*
X0199110Y0209804D01*
X0199214Y0209908D02*
X0188850Y0209908D01*
X0188850Y0209110D02*
X0188850Y0210995D01*
X0188129Y0212737D01*
X0186796Y0214070D01*
X0185054Y0214791D01*
X0183169Y0214791D01*
X0181428Y0214070D01*
X0180095Y0212737D01*
X0179373Y0210995D01*
X0179373Y0209110D01*
X0179373Y0209908D02*
X0177039Y0209908D01*
X0177039Y0209110D02*
X0177039Y0210995D01*
X0176318Y0212737D01*
X0174985Y0214070D01*
X0173243Y0214791D01*
X0171358Y0214791D01*
X0169617Y0214070D01*
X0168284Y0212737D01*
X0167562Y0210995D01*
X0167562Y0209110D01*
X0167562Y0209908D02*
X0165228Y0209908D01*
X0165228Y0209110D02*
X0165228Y0210995D01*
X0164507Y0212737D01*
X0163174Y0214070D01*
X0161432Y0214791D01*
X0159547Y0214791D01*
X0157806Y0214070D01*
X0156473Y0212737D01*
X0155751Y0210995D01*
X0155751Y0209110D01*
X0155751Y0209908D02*
X0153417Y0209908D01*
X0153417Y0209110D02*
X0153417Y0210995D01*
X0152696Y0212737D01*
X0151363Y0214070D01*
X0149621Y0214791D01*
X0147736Y0214791D01*
X0145995Y0214070D01*
X0144662Y0212737D01*
X0143940Y0210995D01*
X0143940Y0209110D01*
X0143940Y0209908D02*
X0141606Y0209908D01*
X0141606Y0209110D02*
X0141606Y0210995D01*
X0140885Y0212737D01*
X0139552Y0214070D01*
X0137810Y0214791D01*
X0135925Y0214791D01*
X0134184Y0214070D01*
X0132851Y0212737D01*
X0132129Y0210995D01*
X0132129Y0209110D01*
X0132129Y0209908D02*
X0129795Y0209908D01*
X0129795Y0209110D02*
X0129795Y0210995D01*
X0129074Y0212737D01*
X0127741Y0214070D01*
X0125999Y0214791D01*
X0124114Y0214791D01*
X0122373Y0214070D01*
X0121040Y0212737D01*
X0120318Y0210995D01*
X0120318Y0209110D01*
X0120318Y0209908D02*
X0117984Y0209908D01*
X0117984Y0209110D02*
X0117984Y0210995D01*
X0117263Y0212737D01*
X0115930Y0214070D01*
X0114188Y0214791D01*
X0112303Y0214791D01*
X0110562Y0214070D01*
X0109229Y0212737D01*
X0108507Y0210995D01*
X0108507Y0209110D01*
X0108507Y0209908D02*
X0106173Y0209908D01*
X0106173Y0209110D02*
X0105452Y0207368D01*
X0104119Y0206035D01*
X0102377Y0205314D01*
X0100492Y0205314D01*
X0098751Y0206035D01*
X0097418Y0207368D01*
X0096696Y0209110D01*
X0094362Y0209110D01*
X0093641Y0207368D01*
X0092308Y0206035D01*
X0090566Y0205314D01*
X0088681Y0205314D01*
X0086940Y0206035D01*
X0085607Y0207368D01*
X0084885Y0209110D01*
X0049935Y0209110D01*
X0049935Y0209908D02*
X0084885Y0209908D01*
X0084885Y0209110D02*
X0084885Y0210995D01*
X0085607Y0212737D01*
X0086940Y0214070D01*
X0088681Y0214791D01*
X0090566Y0214791D01*
X0092308Y0214070D01*
X0093641Y0212737D01*
X0094362Y0210995D01*
X0094362Y0209110D01*
X0094362Y0209908D02*
X0096696Y0209908D01*
X0096696Y0209110D02*
X0096696Y0210995D01*
X0097418Y0212737D01*
X0097238Y0212304D02*
X0093820Y0212304D01*
X0094151Y0211505D02*
X0096908Y0211505D01*
X0096696Y0210707D02*
X0094362Y0210707D01*
X0094032Y0208311D02*
X0097027Y0208311D01*
X0097358Y0207513D02*
X0093701Y0207513D01*
X0092987Y0206714D02*
X0098071Y0206714D01*
X0099039Y0205916D02*
X0092020Y0205916D01*
X0087228Y0205916D02*
X0049935Y0205916D01*
X0049935Y0206714D02*
X0086260Y0206714D01*
X0085547Y0207513D02*
X0049935Y0207513D01*
X0049935Y0208311D02*
X0085216Y0208311D01*
X0084885Y0210707D02*
X0049935Y0210707D01*
X0049935Y0211505D02*
X0085097Y0211505D01*
X0085427Y0212304D02*
X0049935Y0212304D01*
X0049935Y0213102D02*
X0085972Y0213102D01*
X0086771Y0213901D02*
X0049935Y0213901D01*
X0049935Y0214699D02*
X0088460Y0214699D01*
X0090787Y0214699D02*
X0100271Y0214699D01*
X0098582Y0213901D02*
X0092477Y0213901D01*
X0092426Y0216296D02*
X0052733Y0216296D01*
X0053531Y0217095D02*
X0091628Y0217095D01*
X0091229Y0217894D02*
X0053710Y0217894D01*
X0053710Y0218692D02*
X0090898Y0218692D01*
X0090791Y0219491D02*
X0053399Y0219491D01*
X0052600Y0220289D02*
X0090791Y0220289D01*
X0090894Y0221088D02*
X0049935Y0221088D01*
X0049935Y0221886D02*
X0091225Y0221886D01*
X0091617Y0222685D02*
X0049935Y0222685D01*
X0049935Y0223483D02*
X0092416Y0223483D01*
X0093737Y0224282D02*
X0049935Y0224282D01*
X0049935Y0225080D02*
X0223800Y0225080D01*
X0223800Y0224282D02*
X0168188Y0224282D01*
X0167338Y0224634D02*
X0169080Y0223912D01*
X0170413Y0222579D01*
X0171134Y0220838D01*
X0171134Y0218952D01*
X0170413Y0217211D01*
X0169080Y0215878D01*
X0167338Y0215156D01*
X0165453Y0215156D01*
X0163711Y0215878D01*
X0162378Y0217211D01*
X0161657Y0218952D01*
X0161657Y0220838D01*
X0162378Y0222579D01*
X0163711Y0223912D01*
X0165453Y0224634D01*
X0167338Y0224634D01*
X0169509Y0223483D02*
X0200289Y0223483D01*
X0200457Y0223652D02*
X0199110Y0222304D01*
X0199110Y0220399D01*
X0200457Y0219052D01*
X0202363Y0219052D01*
X0202660Y0219349D01*
X0202957Y0219052D01*
X0204863Y0219052D01*
X0206210Y0220399D01*
X0206210Y0222304D01*
X0204863Y0223652D01*
X0202957Y0223652D01*
X0202660Y0223354D01*
X0202363Y0223652D01*
X0200457Y0223652D01*
X0199490Y0222685D02*
X0170307Y0222685D01*
X0170700Y0221886D02*
X0199110Y0221886D01*
X0199110Y0221088D02*
X0171030Y0221088D01*
X0171134Y0220289D02*
X0199220Y0220289D01*
X0200019Y0219491D02*
X0171134Y0219491D01*
X0171026Y0218692D02*
X0223800Y0218692D01*
X0223800Y0217894D02*
X0170695Y0217894D01*
X0170297Y0217095D02*
X0209526Y0217095D01*
X0209832Y0217402D02*
X0208485Y0216054D01*
X0208485Y0214149D01*
X0209832Y0212802D01*
X0211738Y0212802D01*
X0212035Y0213099D01*
X0212332Y0212802D01*
X0214238Y0212802D01*
X0215585Y0214149D01*
X0215585Y0216054D01*
X0214238Y0217402D01*
X0212332Y0217402D01*
X0212035Y0217104D01*
X0211738Y0217402D01*
X0209832Y0217402D01*
X0208727Y0216296D02*
X0169498Y0216296D01*
X0168163Y0215498D02*
X0208485Y0215498D01*
X0208485Y0214699D02*
X0185276Y0214699D01*
X0186965Y0213901D02*
X0208733Y0213901D01*
X0209532Y0213102D02*
X0187763Y0213102D01*
X0188308Y0212304D02*
X0218485Y0212304D01*
X0218485Y0210399D01*
X0219832Y0209052D01*
X0221738Y0209052D01*
X0223085Y0210399D01*
X0223085Y0212304D01*
X0223800Y0212304D01*
X0223085Y0212304D02*
X0222788Y0212602D01*
X0223085Y0212899D01*
X0223085Y0214804D01*
X0221738Y0216152D01*
X0219832Y0216152D01*
X0218485Y0214804D01*
X0218485Y0212899D01*
X0218782Y0212602D01*
X0218485Y0212304D01*
X0218485Y0213102D02*
X0214539Y0213102D01*
X0215337Y0213901D02*
X0218485Y0213901D01*
X0218485Y0214699D02*
X0215585Y0214699D01*
X0215585Y0215498D02*
X0219179Y0215498D01*
X0215343Y0216296D02*
X0223800Y0216296D01*
X0223800Y0215498D02*
X0222391Y0215498D01*
X0223085Y0214699D02*
X0223800Y0214699D01*
X0223800Y0213901D02*
X0223085Y0213901D01*
X0223085Y0213102D02*
X0223800Y0213102D01*
X0223800Y0211505D02*
X0223085Y0211505D01*
X0223085Y0210707D02*
X0223800Y0210707D01*
X0223800Y0209908D02*
X0222595Y0209908D01*
X0221796Y0209110D02*
X0223800Y0209110D01*
X0223800Y0208311D02*
X0206210Y0208311D01*
X0206210Y0209110D02*
X0219774Y0209110D01*
X0218976Y0209908D02*
X0206106Y0209908D01*
X0205308Y0210707D02*
X0218485Y0210707D01*
X0218485Y0211505D02*
X0188639Y0211505D01*
X0188850Y0210707D02*
X0200013Y0210707D01*
X0199110Y0208311D02*
X0188520Y0208311D01*
X0188189Y0207513D02*
X0199496Y0207513D01*
X0200295Y0206714D02*
X0187475Y0206714D01*
X0186508Y0205916D02*
X0223800Y0205916D01*
X0223800Y0206714D02*
X0205025Y0206714D01*
X0205824Y0207513D02*
X0223800Y0207513D01*
X0223800Y0205117D02*
X0049935Y0205117D01*
X0049935Y0204319D02*
X0223800Y0204319D01*
X0223800Y0203520D02*
X0053744Y0203520D01*
X0053613Y0203652D02*
X0054960Y0202304D01*
X0054960Y0200399D01*
X0053613Y0199052D01*
X0051707Y0199052D01*
X0050360Y0200399D01*
X0050360Y0202304D01*
X0051707Y0203652D01*
X0053613Y0203652D01*
X0054543Y0202722D02*
X0223800Y0202722D01*
X0223800Y0201923D02*
X0054960Y0201923D01*
X0054960Y0201125D02*
X0099806Y0201125D01*
X0099832Y0201152D02*
X0098485Y0199804D01*
X0098485Y0197899D01*
X0099832Y0196552D01*
X0101738Y0196552D01*
X0103085Y0197899D01*
X0103085Y0199804D01*
X0101738Y0201152D01*
X0099832Y0201152D01*
X0099007Y0200326D02*
X0054887Y0200326D01*
X0054089Y0199528D02*
X0098485Y0199528D01*
X0098485Y0198729D02*
X0049935Y0198729D01*
X0049935Y0197931D02*
X0098485Y0197931D01*
X0099252Y0197132D02*
X0049935Y0197132D01*
X0049935Y0196334D02*
X0112235Y0196334D01*
X0112235Y0196679D02*
X0112235Y0194774D01*
X0113582Y0193427D01*
X0115488Y0193427D01*
X0116835Y0194774D01*
X0116835Y0196679D01*
X0115488Y0198027D01*
X0113582Y0198027D01*
X0112235Y0196679D01*
X0112688Y0197132D02*
X0102318Y0197132D01*
X0103085Y0197931D02*
X0113487Y0197931D01*
X0115584Y0197931D02*
X0223800Y0197931D01*
X0223800Y0198729D02*
X0103085Y0198729D01*
X0103085Y0199528D02*
X0223800Y0199528D01*
X0223800Y0200326D02*
X0102563Y0200326D01*
X0101765Y0201125D02*
X0223800Y0201125D01*
X0223800Y0197132D02*
X0116382Y0197132D01*
X0116835Y0196334D02*
X0223800Y0196334D01*
X0223800Y0195535D02*
X0116835Y0195535D01*
X0116798Y0194737D02*
X0223800Y0194737D01*
X0223800Y0193938D02*
X0115999Y0193938D01*
X0113071Y0193938D02*
X0060585Y0193938D01*
X0060585Y0194179D02*
X0059238Y0195527D01*
X0057332Y0195527D01*
X0055985Y0194179D01*
X0055985Y0192274D01*
X0056282Y0191977D01*
X0055985Y0191679D01*
X0055985Y0189774D01*
X0057332Y0188427D01*
X0059238Y0188427D01*
X0060585Y0189774D01*
X0060585Y0191679D01*
X0060288Y0191977D01*
X0060585Y0192274D01*
X0060585Y0194179D01*
X0060028Y0194737D02*
X0112272Y0194737D01*
X0112235Y0195535D02*
X0049935Y0195535D01*
X0049935Y0194737D02*
X0056542Y0194737D01*
X0055985Y0193938D02*
X0049935Y0193938D01*
X0049935Y0193140D02*
X0055985Y0193140D01*
X0055985Y0192341D02*
X0049935Y0192341D01*
X0049935Y0191543D02*
X0055985Y0191543D01*
X0055985Y0190744D02*
X0049935Y0190744D01*
X0049935Y0189946D02*
X0055985Y0189946D01*
X0056612Y0189147D02*
X0049935Y0189147D01*
X0049935Y0188349D02*
X0175985Y0188349D01*
X0175985Y0189147D02*
X0059958Y0189147D01*
X0060585Y0189946D02*
X0176751Y0189946D01*
X0177332Y0190527D02*
X0175985Y0189179D01*
X0175985Y0187274D01*
X0177332Y0185927D01*
X0179238Y0185927D01*
X0180585Y0187274D01*
X0180585Y0189179D01*
X0179238Y0190527D01*
X0177332Y0190527D01*
X0179819Y0189946D02*
X0223800Y0189946D01*
X0223800Y0190744D02*
X0060585Y0190744D01*
X0060585Y0191543D02*
X0223800Y0191543D01*
X0223800Y0192341D02*
X0060585Y0192341D01*
X0060585Y0193140D02*
X0223800Y0193140D01*
X0223800Y0189147D02*
X0180585Y0189147D01*
X0180585Y0188349D02*
X0223800Y0188349D01*
X0223800Y0187550D02*
X0180585Y0187550D01*
X0180063Y0186752D02*
X0223800Y0186752D01*
X0223800Y0185953D02*
X0179264Y0185953D01*
X0177306Y0185953D02*
X0163811Y0185953D01*
X0164335Y0185429D02*
X0162988Y0186777D01*
X0161082Y0186777D01*
X0159735Y0185429D01*
X0159735Y0183524D01*
X0161082Y0182177D01*
X0162988Y0182177D01*
X0164335Y0183524D01*
X0164335Y0185429D01*
X0164335Y0185155D02*
X0223800Y0185155D01*
X0223800Y0184356D02*
X0164335Y0184356D01*
X0164335Y0183558D02*
X0223800Y0183558D01*
X0223800Y0182759D02*
X0163570Y0182759D01*
X0160500Y0182759D02*
X0132460Y0182759D01*
X0132460Y0182929D02*
X0132163Y0183227D01*
X0132460Y0183524D01*
X0132460Y0185429D01*
X0131113Y0186777D01*
X0129207Y0186777D01*
X0127860Y0185429D01*
X0127860Y0183524D01*
X0128157Y0183227D01*
X0127860Y0182929D01*
X0127860Y0181024D01*
X0129207Y0179677D01*
X0131113Y0179677D01*
X0132460Y0181024D01*
X0132460Y0182929D01*
X0132460Y0183558D02*
X0159735Y0183558D01*
X0159735Y0184356D02*
X0132460Y0184356D01*
X0132460Y0185155D02*
X0159735Y0185155D01*
X0160259Y0185953D02*
X0131936Y0185953D01*
X0131138Y0186752D02*
X0161057Y0186752D01*
X0163013Y0186752D02*
X0176508Y0186752D01*
X0175985Y0187550D02*
X0049935Y0187550D01*
X0049935Y0186752D02*
X0119807Y0186752D01*
X0119832Y0186777D02*
X0118485Y0185429D01*
X0118485Y0183524D01*
X0118782Y0183227D01*
X0118485Y0182929D01*
X0118485Y0181024D01*
X0119832Y0179677D01*
X0121738Y0179677D01*
X0123085Y0181024D01*
X0123085Y0182929D01*
X0122788Y0183227D01*
X0123085Y0183524D01*
X0123085Y0185429D01*
X0121738Y0186777D01*
X0119832Y0186777D01*
X0119009Y0185953D02*
X0049935Y0185953D01*
X0049935Y0185155D02*
X0118485Y0185155D01*
X0118485Y0184356D02*
X0049935Y0184356D01*
X0049935Y0183558D02*
X0118485Y0183558D01*
X0118485Y0182759D02*
X0049935Y0182759D01*
X0049935Y0181960D02*
X0118485Y0181960D01*
X0118485Y0181162D02*
X0049935Y0181162D01*
X0049935Y0180363D02*
X0054044Y0180363D01*
X0054207Y0180527D02*
X0052860Y0179179D01*
X0052860Y0177274D01*
X0054207Y0175927D01*
X0056113Y0175927D01*
X0057460Y0177274D01*
X0057460Y0179179D01*
X0056113Y0180527D01*
X0054207Y0180527D01*
X0053246Y0179565D02*
X0049935Y0179565D01*
X0049935Y0178766D02*
X0052860Y0178766D01*
X0052860Y0177968D02*
X0049935Y0177968D01*
X0049935Y0177169D02*
X0052965Y0177169D01*
X0053763Y0176371D02*
X0049935Y0176371D01*
X0049935Y0175572D02*
X0089253Y0175572D01*
X0089832Y0176152D02*
X0088485Y0174804D01*
X0088485Y0172899D01*
X0089832Y0171552D01*
X0091738Y0171552D01*
X0092973Y0172786D01*
X0094207Y0171552D01*
X0096113Y0171552D01*
X0097460Y0172899D01*
X0097460Y0174804D01*
X0096113Y0176152D01*
X0094207Y0176152D01*
X0092973Y0174917D01*
X0091738Y0176152D01*
X0089832Y0176152D01*
X0088485Y0174774D02*
X0074366Y0174774D01*
X0074960Y0174179D02*
X0073613Y0175527D01*
X0071707Y0175527D01*
X0070785Y0174604D01*
X0069863Y0175527D01*
X0067957Y0175527D01*
X0067035Y0174604D01*
X0066113Y0175527D01*
X0064207Y0175527D01*
X0062860Y0174179D01*
X0062860Y0172274D01*
X0064207Y0170927D01*
X0066113Y0170927D01*
X0067035Y0171849D01*
X0067957Y0170927D01*
X0069863Y0170927D01*
X0070785Y0171849D01*
X0071707Y0170927D01*
X0073613Y0170927D01*
X0074960Y0172274D01*
X0074960Y0174179D01*
X0074960Y0173975D02*
X0088485Y0173975D01*
X0088485Y0173177D02*
X0074960Y0173177D01*
X0074960Y0172378D02*
X0089006Y0172378D01*
X0089804Y0171580D02*
X0074266Y0171580D01*
X0074832Y0170527D02*
X0073485Y0169179D01*
X0073485Y0167274D01*
X0074832Y0165927D01*
X0076738Y0165927D01*
X0078085Y0167274D01*
X0078085Y0169179D01*
X0076738Y0170527D01*
X0074832Y0170527D01*
X0074289Y0169983D02*
X0049935Y0169983D01*
X0049935Y0170781D02*
X0223800Y0170781D01*
X0223800Y0169983D02*
X0077282Y0169983D01*
X0078080Y0169184D02*
X0223800Y0169184D01*
X0223800Y0168386D02*
X0078085Y0168386D01*
X0078085Y0167587D02*
X0223800Y0167587D01*
X0223800Y0166789D02*
X0182351Y0166789D01*
X0181738Y0167402D02*
X0179832Y0167402D01*
X0178485Y0166054D01*
X0178485Y0164149D01*
X0179832Y0162802D01*
X0181738Y0162802D01*
X0183085Y0164149D01*
X0183085Y0166054D01*
X0181738Y0167402D01*
X0183085Y0165990D02*
X0223800Y0165990D01*
X0223800Y0165192D02*
X0183085Y0165192D01*
X0183085Y0164393D02*
X0223800Y0164393D01*
X0223800Y0163595D02*
X0182531Y0163595D01*
X0179039Y0163595D02*
X0168045Y0163595D01*
X0167988Y0163652D02*
X0166082Y0163652D01*
X0164848Y0162417D01*
X0163613Y0163652D01*
X0161707Y0163652D01*
X0160360Y0162304D01*
X0160360Y0160399D01*
X0161707Y0159052D01*
X0163613Y0159052D01*
X0164848Y0160286D01*
X0166082Y0159052D01*
X0167988Y0159052D01*
X0169110Y0160174D01*
X0169110Y0159774D01*
X0170457Y0158427D01*
X0172363Y0158427D01*
X0173710Y0159774D01*
X0173710Y0161679D01*
X0172363Y0163027D01*
X0170457Y0163027D01*
X0169335Y0161904D01*
X0169335Y0162304D01*
X0167988Y0163652D01*
X0168843Y0162796D02*
X0170227Y0162796D01*
X0169429Y0161998D02*
X0169335Y0161998D01*
X0169282Y0159602D02*
X0168538Y0159602D01*
X0170080Y0158804D02*
X0153990Y0158804D01*
X0153613Y0158427D02*
X0154960Y0159774D01*
X0154960Y0161679D01*
X0153613Y0163027D01*
X0151707Y0163027D01*
X0150360Y0161679D01*
X0150360Y0159774D01*
X0151707Y0158427D01*
X0153613Y0158427D01*
X0154788Y0159602D02*
X0161157Y0159602D01*
X0160360Y0160401D02*
X0154960Y0160401D01*
X0154960Y0161199D02*
X0160360Y0161199D01*
X0160360Y0161998D02*
X0154642Y0161998D01*
X0153843Y0162796D02*
X0160852Y0162796D01*
X0161651Y0163595D02*
X0099406Y0163595D01*
X0099960Y0164149D02*
X0098613Y0162802D01*
X0096707Y0162802D01*
X0095360Y0164149D01*
X0095360Y0166054D01*
X0096707Y0167402D01*
X0098613Y0167402D01*
X0099960Y0166054D01*
X0099960Y0164149D01*
X0099960Y0164393D02*
X0178485Y0164393D01*
X0178485Y0165192D02*
X0099960Y0165192D01*
X0099960Y0165990D02*
X0178485Y0165990D01*
X0179220Y0166789D02*
X0099226Y0166789D01*
X0096095Y0166789D02*
X0077600Y0166789D01*
X0076801Y0165990D02*
X0095360Y0165990D01*
X0095360Y0165192D02*
X0049935Y0165192D01*
X0049935Y0165990D02*
X0055394Y0165990D01*
X0054735Y0166649D02*
X0056082Y0165302D01*
X0057988Y0165302D01*
X0059335Y0166649D01*
X0059335Y0168554D01*
X0057988Y0169902D01*
X0056082Y0169902D01*
X0054735Y0168554D01*
X0054735Y0166649D01*
X0054735Y0166789D02*
X0049935Y0166789D01*
X0049935Y0167587D02*
X0054735Y0167587D01*
X0054735Y0168386D02*
X0049935Y0168386D01*
X0049935Y0169184D02*
X0055365Y0169184D01*
X0058705Y0169184D02*
X0073490Y0169184D01*
X0073485Y0168386D02*
X0059335Y0168386D01*
X0059335Y0167587D02*
X0073485Y0167587D01*
X0073970Y0166789D02*
X0059335Y0166789D01*
X0058676Y0165990D02*
X0074769Y0165990D01*
X0071054Y0171580D02*
X0070516Y0171580D01*
X0070616Y0174774D02*
X0070955Y0174774D01*
X0072332Y0175927D02*
X0074238Y0175927D01*
X0075585Y0177274D01*
X0075585Y0179179D01*
X0074238Y0180527D01*
X0072332Y0180527D01*
X0070985Y0179179D01*
X0070985Y0177274D01*
X0072332Y0175927D01*
X0071888Y0176371D02*
X0056557Y0176371D01*
X0057356Y0177169D02*
X0071090Y0177169D01*
X0070985Y0177968D02*
X0057460Y0177968D01*
X0057460Y0178766D02*
X0070985Y0178766D01*
X0071371Y0179565D02*
X0057074Y0179565D01*
X0056276Y0180363D02*
X0072169Y0180363D01*
X0074401Y0180363D02*
X0077794Y0180363D01*
X0077957Y0180527D02*
X0076610Y0179179D01*
X0076610Y0177274D01*
X0077957Y0175927D01*
X0079863Y0175927D01*
X0081210Y0177274D01*
X0081210Y0179179D01*
X0079863Y0180527D01*
X0077957Y0180527D01*
X0076996Y0179565D02*
X0075199Y0179565D01*
X0075585Y0178766D02*
X0076610Y0178766D01*
X0076610Y0177968D02*
X0075585Y0177968D01*
X0075481Y0177169D02*
X0076715Y0177169D01*
X0077513Y0176371D02*
X0074682Y0176371D01*
X0080307Y0176371D02*
X0223800Y0176371D01*
X0223800Y0177169D02*
X0081106Y0177169D01*
X0081210Y0177968D02*
X0223800Y0177968D01*
X0223800Y0178766D02*
X0081210Y0178766D01*
X0080824Y0179565D02*
X0223800Y0179565D01*
X0223800Y0180363D02*
X0131800Y0180363D01*
X0132460Y0181162D02*
X0223800Y0181162D01*
X0223800Y0181960D02*
X0132460Y0181960D01*
X0128521Y0180363D02*
X0122425Y0180363D01*
X0123085Y0181162D02*
X0127860Y0181162D01*
X0127860Y0181960D02*
X0123085Y0181960D01*
X0123085Y0182759D02*
X0127860Y0182759D01*
X0127860Y0183558D02*
X0123085Y0183558D01*
X0123085Y0184356D02*
X0127860Y0184356D01*
X0127860Y0185155D02*
X0123085Y0185155D01*
X0122561Y0185953D02*
X0128384Y0185953D01*
X0129182Y0186752D02*
X0121763Y0186752D01*
X0119146Y0180363D02*
X0080026Y0180363D01*
X0092317Y0175572D02*
X0093628Y0175572D01*
X0096692Y0175572D02*
X0223800Y0175572D01*
X0223800Y0174774D02*
X0097460Y0174774D01*
X0097460Y0173975D02*
X0223800Y0173975D01*
X0223800Y0173177D02*
X0097460Y0173177D01*
X0096940Y0172378D02*
X0223800Y0172378D01*
X0223800Y0171580D02*
X0096141Y0171580D01*
X0094179Y0171580D02*
X0091766Y0171580D01*
X0092565Y0172378D02*
X0093381Y0172378D01*
X0095360Y0164393D02*
X0049935Y0164393D01*
X0049935Y0163595D02*
X0095914Y0163595D01*
X0104110Y0161679D02*
X0104110Y0159774D01*
X0105457Y0158427D01*
X0107363Y0158427D01*
X0108710Y0159774D01*
X0108710Y0161679D01*
X0107363Y0163027D01*
X0105457Y0163027D01*
X0104110Y0161679D01*
X0104428Y0161998D02*
X0049935Y0161998D01*
X0049935Y0162796D02*
X0105227Y0162796D01*
X0104110Y0161199D02*
X0049935Y0161199D01*
X0049935Y0160401D02*
X0104110Y0160401D01*
X0104282Y0159602D02*
X0049935Y0159602D01*
X0049935Y0158804D02*
X0105080Y0158804D01*
X0107740Y0158804D02*
X0141330Y0158804D01*
X0141707Y0158427D02*
X0140360Y0159774D01*
X0140360Y0161679D01*
X0141707Y0163027D01*
X0143613Y0163027D01*
X0144960Y0161679D01*
X0144960Y0159774D01*
X0143613Y0158427D01*
X0141707Y0158427D01*
X0140532Y0159602D02*
X0108538Y0159602D01*
X0108710Y0160401D02*
X0140360Y0160401D01*
X0140360Y0161199D02*
X0108710Y0161199D01*
X0108392Y0161998D02*
X0140678Y0161998D01*
X0141477Y0162796D02*
X0107593Y0162796D01*
X0110457Y0158652D02*
X0109110Y0157304D01*
X0109110Y0155399D01*
X0110457Y0154052D01*
X0112363Y0154052D01*
X0113710Y0155399D01*
X0113710Y0157304D01*
X0112363Y0158652D01*
X0110457Y0158652D01*
X0109811Y0158005D02*
X0049935Y0158005D01*
X0049935Y0157207D02*
X0109110Y0157207D01*
X0109110Y0156408D02*
X0068981Y0156408D01*
X0068613Y0156777D02*
X0066707Y0156777D01*
X0065360Y0155429D01*
X0065360Y0153524D01*
X0066707Y0152177D01*
X0067860Y0152177D01*
X0067860Y0150399D01*
X0069207Y0149052D01*
X0071113Y0149052D01*
X0072235Y0150174D01*
X0072235Y0149774D01*
X0073582Y0148427D01*
X0075488Y0148427D01*
X0076835Y0149774D01*
X0076835Y0151679D01*
X0075488Y0153027D01*
X0073582Y0153027D01*
X0072460Y0151904D01*
X0072460Y0152304D01*
X0071113Y0153652D01*
X0069960Y0153652D01*
X0069960Y0155429D01*
X0068613Y0156777D01*
X0069780Y0155610D02*
X0081790Y0155610D01*
X0082332Y0156152D02*
X0080985Y0154804D01*
X0080985Y0152899D01*
X0082332Y0151552D01*
X0084238Y0151552D01*
X0085585Y0152899D01*
X0085585Y0154804D01*
X0084238Y0156152D01*
X0082332Y0156152D01*
X0080992Y0154811D02*
X0069960Y0154811D01*
X0069960Y0154013D02*
X0080985Y0154013D01*
X0080985Y0153214D02*
X0071550Y0153214D01*
X0072349Y0152416D02*
X0072971Y0152416D01*
X0072235Y0150020D02*
X0072081Y0150020D01*
X0072788Y0149222D02*
X0071283Y0149222D01*
X0069038Y0149222D02*
X0049935Y0149222D01*
X0049935Y0150020D02*
X0068239Y0150020D01*
X0067860Y0150819D02*
X0049935Y0150819D01*
X0049935Y0151617D02*
X0067860Y0151617D01*
X0066469Y0152416D02*
X0049935Y0152416D01*
X0049935Y0153214D02*
X0065670Y0153214D01*
X0065360Y0154013D02*
X0049935Y0154013D01*
X0049935Y0154811D02*
X0065360Y0154811D01*
X0065540Y0155610D02*
X0049935Y0155610D01*
X0049935Y0156408D02*
X0066339Y0156408D01*
X0067957Y0146152D02*
X0066610Y0144804D01*
X0066610Y0142899D01*
X0067957Y0141552D01*
X0069863Y0141552D01*
X0071210Y0142899D01*
X0071210Y0144804D01*
X0069863Y0146152D01*
X0067957Y0146152D01*
X0067833Y0146027D02*
X0049935Y0146027D01*
X0049935Y0145229D02*
X0067035Y0145229D01*
X0066610Y0144430D02*
X0049935Y0144430D01*
X0049935Y0143632D02*
X0066610Y0143632D01*
X0066676Y0142833D02*
X0049935Y0142833D01*
X0049935Y0142035D02*
X0067474Y0142035D01*
X0070346Y0142035D02*
X0072474Y0142035D01*
X0072957Y0141552D02*
X0074863Y0141552D01*
X0076210Y0142899D01*
X0076210Y0144804D01*
X0074863Y0146152D01*
X0072957Y0146152D01*
X0071610Y0144804D01*
X0071610Y0142899D01*
X0072957Y0141552D01*
X0071676Y0142833D02*
X0071145Y0142833D01*
X0071210Y0143632D02*
X0071610Y0143632D01*
X0071610Y0144430D02*
X0071210Y0144430D01*
X0070785Y0145229D02*
X0072035Y0145229D01*
X0072833Y0146027D02*
X0069987Y0146027D01*
X0074987Y0146027D02*
X0076610Y0146027D01*
X0076610Y0145399D02*
X0077957Y0144052D01*
X0079863Y0144052D01*
X0081210Y0145399D01*
X0081210Y0147304D01*
X0079863Y0148652D01*
X0077957Y0148652D01*
X0076610Y0147304D01*
X0076610Y0145399D01*
X0076780Y0145229D02*
X0075785Y0145229D01*
X0076210Y0144430D02*
X0077579Y0144430D01*
X0076210Y0143632D02*
X0090438Y0143632D01*
X0090457Y0143652D02*
X0089110Y0142304D01*
X0089110Y0140399D01*
X0089720Y0139789D01*
X0089110Y0139179D01*
X0089110Y0137274D01*
X0090457Y0135927D01*
X0092363Y0135927D01*
X0093710Y0137274D01*
X0093710Y0139179D01*
X0093100Y0139789D01*
X0093710Y0140399D01*
X0093710Y0142304D01*
X0092363Y0143652D01*
X0090457Y0143652D01*
X0089639Y0142833D02*
X0076145Y0142833D01*
X0075346Y0142035D02*
X0089110Y0142035D01*
X0089110Y0141236D02*
X0082903Y0141236D01*
X0082363Y0141777D02*
X0083710Y0140429D01*
X0083710Y0139902D01*
X0085488Y0139902D01*
X0086835Y0138554D01*
X0086835Y0137402D01*
X0087988Y0137402D01*
X0089335Y0136054D01*
X0089335Y0134149D01*
X0087988Y0132802D01*
X0086082Y0132802D01*
X0084735Y0134149D01*
X0084735Y0135302D01*
X0083582Y0135302D01*
X0082235Y0136649D01*
X0082235Y0137177D01*
X0080457Y0137177D01*
X0079110Y0138524D01*
X0079110Y0140429D01*
X0080457Y0141777D01*
X0082363Y0141777D01*
X0083702Y0140438D02*
X0089110Y0140438D01*
X0089570Y0139639D02*
X0085750Y0139639D01*
X0086549Y0138841D02*
X0089110Y0138841D01*
X0089110Y0138042D02*
X0086835Y0138042D01*
X0088146Y0137244D02*
X0089140Y0137244D01*
X0088944Y0136445D02*
X0089939Y0136445D01*
X0089335Y0135647D02*
X0119873Y0135647D01*
X0119979Y0135392D02*
X0121076Y0134295D01*
X0122509Y0133702D01*
X0124061Y0133702D01*
X0125494Y0134295D01*
X0126591Y0135392D01*
X0127185Y0136826D01*
X0127185Y0138377D01*
X0126591Y0139811D01*
X0125494Y0140908D01*
X0124061Y0141502D01*
X0122509Y0141502D01*
X0121076Y0140908D01*
X0119979Y0139811D01*
X0119385Y0138377D01*
X0119385Y0136826D01*
X0119979Y0135392D01*
X0120523Y0134848D02*
X0089335Y0134848D01*
X0089236Y0134050D02*
X0121669Y0134050D01*
X0122509Y0131502D02*
X0121076Y0130908D01*
X0119979Y0129811D01*
X0119385Y0128377D01*
X0119385Y0126826D01*
X0119979Y0125392D01*
X0121076Y0124295D01*
X0122509Y0123702D01*
X0124061Y0123702D01*
X0125494Y0124295D01*
X0126591Y0125392D01*
X0127185Y0126826D01*
X0127185Y0128377D01*
X0126591Y0129811D01*
X0125494Y0130908D01*
X0124061Y0131502D01*
X0122509Y0131502D01*
X0121024Y0130856D02*
X0118710Y0130856D01*
X0118710Y0131054D02*
X0117363Y0132402D01*
X0115457Y0132402D01*
X0114110Y0131054D01*
X0114110Y0129149D01*
X0115457Y0127802D01*
X0117363Y0127802D01*
X0118710Y0129149D01*
X0118710Y0131054D01*
X0118110Y0131654D02*
X0169105Y0131654D01*
X0168485Y0132274D02*
X0169832Y0130927D01*
X0171738Y0130927D01*
X0173085Y0132274D01*
X0173085Y0134179D01*
X0171738Y0135527D01*
X0169832Y0135527D01*
X0168485Y0134179D01*
X0168485Y0132274D01*
X0168485Y0132453D02*
X0049935Y0132453D01*
X0049935Y0133251D02*
X0085633Y0133251D01*
X0084834Y0134050D02*
X0049935Y0134050D01*
X0049935Y0134848D02*
X0074661Y0134848D01*
X0074110Y0135399D02*
X0075457Y0134052D01*
X0077363Y0134052D01*
X0078710Y0135399D01*
X0078710Y0137304D01*
X0077363Y0138652D01*
X0075457Y0138652D01*
X0074110Y0137304D01*
X0074110Y0135399D01*
X0074110Y0135647D02*
X0049935Y0135647D01*
X0049935Y0136445D02*
X0074110Y0136445D01*
X0074110Y0137244D02*
X0049935Y0137244D01*
X0049935Y0138042D02*
X0074848Y0138042D01*
X0077972Y0138042D02*
X0079592Y0138042D01*
X0079110Y0138841D02*
X0049935Y0138841D01*
X0049935Y0139639D02*
X0079110Y0139639D01*
X0079119Y0140438D02*
X0049935Y0140438D01*
X0049935Y0141236D02*
X0079917Y0141236D01*
X0080390Y0137244D02*
X0078710Y0137244D01*
X0078710Y0136445D02*
X0082439Y0136445D01*
X0083237Y0135647D02*
X0078710Y0135647D01*
X0078159Y0134848D02*
X0084735Y0134848D01*
X0088437Y0133251D02*
X0168485Y0133251D01*
X0168485Y0134050D02*
X0159236Y0134050D01*
X0158613Y0133427D02*
X0159960Y0134774D01*
X0159960Y0136679D01*
X0158613Y0138027D01*
X0158213Y0138027D01*
X0158710Y0138524D01*
X0158710Y0140429D01*
X0157363Y0141777D01*
X0155457Y0141777D01*
X0154110Y0140429D01*
X0154110Y0138524D01*
X0155457Y0137177D01*
X0155857Y0137177D01*
X0155360Y0136679D01*
X0155360Y0134774D01*
X0156707Y0133427D01*
X0158613Y0133427D01*
X0159960Y0134848D02*
X0169154Y0134848D01*
X0172416Y0134848D02*
X0174154Y0134848D01*
X0173485Y0134179D02*
X0173485Y0132274D01*
X0174832Y0130927D01*
X0176738Y0130927D01*
X0178085Y0132274D01*
X0178085Y0134179D01*
X0176738Y0135527D01*
X0174832Y0135527D01*
X0173485Y0134179D01*
X0173485Y0134050D02*
X0173085Y0134050D01*
X0173085Y0133251D02*
X0173485Y0133251D01*
X0173485Y0132453D02*
X0173085Y0132453D01*
X0172465Y0131654D02*
X0174105Y0131654D01*
X0177465Y0131654D02*
X0178485Y0131654D01*
X0178485Y0131024D02*
X0179832Y0129677D01*
X0180985Y0129677D01*
X0180985Y0129277D01*
X0179832Y0129277D01*
X0178485Y0127929D01*
X0178485Y0126024D01*
X0179407Y0125102D01*
X0178485Y0124179D01*
X0178485Y0122274D01*
X0179832Y0120927D01*
X0181738Y0120927D01*
X0183085Y0122274D01*
X0183085Y0124179D01*
X0182163Y0125102D01*
X0183085Y0126024D01*
X0183085Y0127177D01*
X0184238Y0127177D01*
X0185585Y0128524D01*
X0185585Y0130429D01*
X0184238Y0131777D01*
X0183085Y0131777D01*
X0183085Y0132929D01*
X0181738Y0134277D01*
X0179832Y0134277D01*
X0178485Y0132929D01*
X0178485Y0131024D01*
X0178653Y0130856D02*
X0135546Y0130856D01*
X0135494Y0130908D02*
X0134061Y0131502D01*
X0132509Y0131502D01*
X0131076Y0130908D01*
X0129979Y0129811D01*
X0129385Y0128377D01*
X0129385Y0126826D01*
X0129979Y0125392D01*
X0131076Y0124295D01*
X0132509Y0123702D01*
X0134061Y0123702D01*
X0135494Y0124295D01*
X0136591Y0125392D01*
X0137185Y0126826D01*
X0137185Y0128377D01*
X0136591Y0129811D01*
X0135494Y0130908D01*
X0136345Y0130057D02*
X0179452Y0130057D01*
X0179815Y0129259D02*
X0136820Y0129259D01*
X0137151Y0128460D02*
X0179016Y0128460D01*
X0178485Y0127662D02*
X0137185Y0127662D01*
X0137185Y0126863D02*
X0144919Y0126863D01*
X0145457Y0127402D02*
X0144110Y0126054D01*
X0144110Y0124149D01*
X0145457Y0122802D01*
X0147363Y0122802D01*
X0148710Y0124149D01*
X0148710Y0126054D01*
X0147363Y0127402D01*
X0145457Y0127402D01*
X0144120Y0126065D02*
X0136870Y0126065D01*
X0136465Y0125266D02*
X0144110Y0125266D01*
X0144110Y0124468D02*
X0135667Y0124468D01*
X0134611Y0121274D02*
X0169735Y0121274D01*
X0169735Y0121552D02*
X0169735Y0120399D01*
X0171082Y0119052D01*
X0172988Y0119052D01*
X0174335Y0120399D01*
X0174335Y0122304D01*
X0172988Y0123652D01*
X0171835Y0123652D01*
X0171835Y0124804D01*
X0170488Y0126152D01*
X0168582Y0126152D01*
X0167235Y0124804D01*
X0167235Y0122899D01*
X0168582Y0121552D01*
X0169735Y0121552D01*
X0169735Y0120475D02*
X0135927Y0120475D01*
X0135494Y0120908D02*
X0134061Y0121502D01*
X0132509Y0121502D01*
X0131076Y0120908D01*
X0129979Y0119811D01*
X0129385Y0118377D01*
X0129385Y0116826D01*
X0129979Y0115392D01*
X0131076Y0114295D01*
X0132509Y0113702D01*
X0134061Y0113702D01*
X0135494Y0114295D01*
X0136591Y0115392D01*
X0137185Y0116826D01*
X0137185Y0118377D01*
X0136591Y0119811D01*
X0135494Y0120908D01*
X0136647Y0119677D02*
X0170457Y0119677D01*
X0168062Y0122072D02*
X0049935Y0122072D01*
X0049935Y0121274D02*
X0121959Y0121274D01*
X0122509Y0121502D02*
X0121076Y0120908D01*
X0119979Y0119811D01*
X0119385Y0118377D01*
X0119385Y0116826D01*
X0119979Y0115392D01*
X0121076Y0114295D01*
X0122509Y0113702D01*
X0124061Y0113702D01*
X0125494Y0114295D01*
X0126591Y0115392D01*
X0127185Y0116826D01*
X0127185Y0118377D01*
X0126591Y0119811D01*
X0125494Y0120908D01*
X0124061Y0121502D01*
X0122509Y0121502D01*
X0124611Y0121274D02*
X0131959Y0121274D01*
X0130643Y0120475D02*
X0125927Y0120475D01*
X0126647Y0119677D02*
X0129923Y0119677D01*
X0129593Y0118878D02*
X0126978Y0118878D01*
X0127185Y0118080D02*
X0129385Y0118080D01*
X0129385Y0117281D02*
X0127185Y0117281D01*
X0127043Y0116483D02*
X0129527Y0116483D01*
X0129858Y0115684D02*
X0126712Y0115684D01*
X0126084Y0114886D02*
X0130486Y0114886D01*
X0131579Y0114087D02*
X0124991Y0114087D01*
X0124061Y0111502D02*
X0122509Y0111502D01*
X0121076Y0110908D01*
X0119979Y0109811D01*
X0119385Y0108377D01*
X0119385Y0106826D01*
X0119979Y0105392D01*
X0121076Y0104295D01*
X0122509Y0103702D01*
X0124061Y0103702D01*
X0125494Y0104295D01*
X0126591Y0105392D01*
X0127185Y0106826D01*
X0127185Y0108377D01*
X0126591Y0109811D01*
X0125494Y0110908D01*
X0124061Y0111502D01*
X0125509Y0110893D02*
X0131061Y0110893D01*
X0131076Y0110908D02*
X0129979Y0109811D01*
X0129385Y0108377D01*
X0129385Y0106826D01*
X0129979Y0105392D01*
X0131076Y0104295D01*
X0132509Y0103702D01*
X0134061Y0103702D01*
X0135494Y0104295D01*
X0136591Y0105392D01*
X0137185Y0106826D01*
X0137185Y0108377D01*
X0136591Y0109811D01*
X0135494Y0110908D01*
X0134061Y0111502D01*
X0132509Y0111502D01*
X0131076Y0110908D01*
X0130263Y0110094D02*
X0126308Y0110094D01*
X0126805Y0109296D02*
X0129766Y0109296D01*
X0129435Y0108497D02*
X0127135Y0108497D01*
X0127185Y0107699D02*
X0129385Y0107699D01*
X0129385Y0106900D02*
X0127185Y0106900D01*
X0126885Y0106102D02*
X0129685Y0106102D01*
X0130068Y0105303D02*
X0126502Y0105303D01*
X0125704Y0104505D02*
X0130866Y0104505D01*
X0132498Y0103706D02*
X0124072Y0103706D01*
X0122498Y0103706D02*
X0049935Y0103706D01*
X0049935Y0102908D02*
X0159735Y0102908D01*
X0159735Y0102402D02*
X0158582Y0102402D01*
X0157235Y0101054D01*
X0157235Y0099149D01*
X0158582Y0097802D01*
X0159735Y0097802D01*
X0159735Y0096777D01*
X0159207Y0096777D01*
X0157860Y0095429D01*
X0157860Y0093524D01*
X0159095Y0092289D01*
X0158485Y0091679D01*
X0158485Y0089774D01*
X0159832Y0088427D01*
X0161738Y0088427D01*
X0162660Y0089349D01*
X0163582Y0088427D01*
X0165488Y0088427D01*
X0166410Y0089349D01*
X0167332Y0088427D01*
X0169238Y0088427D01*
X0170585Y0089774D01*
X0170585Y0091679D01*
X0169238Y0093027D01*
X0167332Y0093027D01*
X0166410Y0092104D01*
X0165488Y0093027D01*
X0163582Y0093027D01*
X0162660Y0092104D01*
X0161850Y0092914D01*
X0162460Y0093524D01*
X0162460Y0095302D01*
X0162988Y0095302D01*
X0164335Y0096649D01*
X0164335Y0098554D01*
X0162988Y0099902D01*
X0161835Y0099902D01*
X0161835Y0100302D01*
X0162988Y0100302D01*
X0164335Y0101649D01*
X0164335Y0103554D01*
X0162988Y0104902D01*
X0161082Y0104902D01*
X0159735Y0103554D01*
X0159735Y0102402D01*
X0159887Y0103706D02*
X0134072Y0103706D01*
X0135704Y0104505D02*
X0160686Y0104505D01*
X0158290Y0102109D02*
X0049935Y0102109D01*
X0049935Y0101311D02*
X0122049Y0101311D01*
X0122509Y0101502D02*
X0121076Y0100908D01*
X0119979Y0099811D01*
X0119385Y0098377D01*
X0119385Y0096826D01*
X0119979Y0095392D01*
X0121076Y0094295D01*
X0122509Y0093702D01*
X0124061Y0093702D01*
X0125494Y0094295D01*
X0126591Y0095392D01*
X0127185Y0096826D01*
X0127185Y0098377D01*
X0126591Y0099811D01*
X0125494Y0100908D01*
X0124061Y0101502D01*
X0122509Y0101502D01*
X0124522Y0101311D02*
X0132049Y0101311D01*
X0132509Y0101502D02*
X0131076Y0100908D01*
X0129979Y0099811D01*
X0129385Y0098377D01*
X0129385Y0096826D01*
X0129979Y0095392D01*
X0131076Y0094295D01*
X0132509Y0093702D01*
X0134061Y0093702D01*
X0135494Y0094295D01*
X0136591Y0095392D01*
X0137185Y0096826D01*
X0137185Y0098377D01*
X0136591Y0099811D01*
X0135494Y0100908D01*
X0134061Y0101502D01*
X0132509Y0101502D01*
X0134522Y0101311D02*
X0157492Y0101311D01*
X0157235Y0100512D02*
X0135890Y0100512D01*
X0136632Y0099714D02*
X0157235Y0099714D01*
X0157469Y0098915D02*
X0136962Y0098915D01*
X0137185Y0098117D02*
X0145548Y0098117D01*
X0146082Y0098652D02*
X0144735Y0097304D01*
X0144735Y0095399D01*
X0146082Y0094052D01*
X0147988Y0094052D01*
X0149335Y0095399D01*
X0149335Y0097304D01*
X0147988Y0098652D01*
X0146082Y0098652D01*
X0144749Y0097318D02*
X0137185Y0097318D01*
X0137058Y0096520D02*
X0144735Y0096520D01*
X0144735Y0095721D02*
X0136728Y0095721D01*
X0136122Y0094923D02*
X0145211Y0094923D01*
X0146010Y0094124D02*
X0135081Y0094124D01*
X0134061Y0091502D02*
X0132509Y0091502D01*
X0131076Y0090908D01*
X0129979Y0089811D01*
X0129385Y0088377D01*
X0129385Y0086826D01*
X0129979Y0085392D01*
X0131076Y0084295D01*
X0132509Y0083702D01*
X0134061Y0083702D01*
X0135494Y0084295D01*
X0136591Y0085392D01*
X0137185Y0086826D01*
X0137185Y0088377D01*
X0136591Y0089811D01*
X0135494Y0090908D01*
X0134061Y0091502D01*
X0135440Y0090930D02*
X0137860Y0090930D01*
X0137860Y0090399D02*
X0137860Y0092304D01*
X0139207Y0093652D01*
X0141113Y0093652D01*
X0142460Y0092304D01*
X0142460Y0090399D01*
X0141113Y0089052D01*
X0139207Y0089052D01*
X0137860Y0090399D01*
X0138127Y0090132D02*
X0136271Y0090132D01*
X0136789Y0089333D02*
X0138926Y0089333D01*
X0137120Y0088535D02*
X0159724Y0088535D01*
X0158926Y0089333D02*
X0141394Y0089333D01*
X0142193Y0090132D02*
X0158485Y0090132D01*
X0158485Y0090930D02*
X0142460Y0090930D01*
X0142460Y0091729D02*
X0158535Y0091729D01*
X0158857Y0092527D02*
X0142237Y0092527D01*
X0141439Y0093326D02*
X0158058Y0093326D01*
X0157860Y0094124D02*
X0148060Y0094124D01*
X0148859Y0094923D02*
X0157860Y0094923D01*
X0158152Y0095721D02*
X0149335Y0095721D01*
X0149335Y0096520D02*
X0158951Y0096520D01*
X0159735Y0097318D02*
X0149321Y0097318D01*
X0148523Y0098117D02*
X0158267Y0098117D01*
X0163176Y0099714D02*
X0209170Y0099714D01*
X0209207Y0099677D02*
X0211113Y0099677D01*
X0212460Y0101024D01*
X0212460Y0102929D01*
X0211113Y0104277D01*
X0209207Y0104277D01*
X0207860Y0102929D01*
X0207860Y0101024D01*
X0209207Y0099677D01*
X0208372Y0100512D02*
X0163198Y0100512D01*
X0163997Y0101311D02*
X0207860Y0101311D01*
X0207860Y0102109D02*
X0164335Y0102109D01*
X0164335Y0102908D02*
X0207860Y0102908D01*
X0208637Y0103706D02*
X0164183Y0103706D01*
X0163385Y0104505D02*
X0179379Y0104505D01*
X0179832Y0104052D02*
X0181738Y0104052D01*
X0183085Y0105399D01*
X0183085Y0107304D01*
X0182163Y0108227D01*
X0183085Y0109149D01*
X0183085Y0111054D01*
X0181738Y0112402D01*
X0179832Y0112402D01*
X0178485Y0111054D01*
X0178485Y0109149D01*
X0179407Y0108227D01*
X0178485Y0107304D01*
X0178485Y0105399D01*
X0179832Y0104052D01*
X0178581Y0105303D02*
X0136502Y0105303D01*
X0136885Y0106102D02*
X0178485Y0106102D01*
X0178485Y0106900D02*
X0137185Y0106900D01*
X0137185Y0107699D02*
X0178880Y0107699D01*
X0179137Y0108497D02*
X0137135Y0108497D01*
X0136805Y0109296D02*
X0178485Y0109296D01*
X0178485Y0110094D02*
X0136308Y0110094D01*
X0135509Y0110893D02*
X0178485Y0110893D01*
X0179122Y0111691D02*
X0170628Y0111691D01*
X0170488Y0111552D02*
X0171835Y0112899D01*
X0171835Y0114804D01*
X0170488Y0116152D01*
X0168582Y0116152D01*
X0167235Y0114804D01*
X0167235Y0112899D01*
X0168582Y0111552D01*
X0170488Y0111552D01*
X0171426Y0112490D02*
X0223800Y0112490D01*
X0223800Y0111691D02*
X0182448Y0111691D01*
X0183085Y0110893D02*
X0223800Y0110893D01*
X0223800Y0110094D02*
X0183085Y0110094D01*
X0183085Y0109296D02*
X0223800Y0109296D01*
X0223800Y0108497D02*
X0182434Y0108497D01*
X0182691Y0107699D02*
X0223800Y0107699D01*
X0223800Y0106900D02*
X0183085Y0106900D01*
X0183085Y0106102D02*
X0223800Y0106102D01*
X0223800Y0105303D02*
X0182990Y0105303D01*
X0182191Y0104505D02*
X0223800Y0104505D01*
X0223800Y0103706D02*
X0211683Y0103706D01*
X0212460Y0102908D02*
X0223800Y0102908D01*
X0223800Y0102109D02*
X0212460Y0102109D01*
X0212460Y0101311D02*
X0223800Y0101311D01*
X0223800Y0100512D02*
X0211948Y0100512D01*
X0211150Y0099714D02*
X0223800Y0099714D01*
X0223800Y0098915D02*
X0163974Y0098915D01*
X0164335Y0098117D02*
X0223800Y0098117D01*
X0223800Y0097318D02*
X0164335Y0097318D01*
X0164206Y0096520D02*
X0223800Y0096520D01*
X0223800Y0095721D02*
X0163407Y0095721D01*
X0162460Y0094923D02*
X0223800Y0094923D01*
X0223800Y0094124D02*
X0162460Y0094124D01*
X0162262Y0093326D02*
X0223800Y0093326D01*
X0223800Y0092527D02*
X0169737Y0092527D01*
X0170536Y0091729D02*
X0223800Y0091729D01*
X0223800Y0090930D02*
X0170585Y0090930D01*
X0170585Y0090132D02*
X0223800Y0090132D01*
X0223800Y0089333D02*
X0170144Y0089333D01*
X0169346Y0088535D02*
X0223800Y0088535D01*
X0223800Y0087736D02*
X0137185Y0087736D01*
X0137185Y0086938D02*
X0203118Y0086938D01*
X0203582Y0087402D02*
X0202235Y0086054D01*
X0202235Y0084149D01*
X0203582Y0082802D01*
X0205488Y0082802D01*
X0206835Y0084149D01*
X0206835Y0086054D01*
X0205488Y0087402D01*
X0203582Y0087402D01*
X0202320Y0086139D02*
X0136901Y0086139D01*
X0136540Y0085341D02*
X0166521Y0085341D01*
X0166707Y0085527D02*
X0165360Y0084179D01*
X0165360Y0082274D01*
X0166707Y0080927D01*
X0168613Y0080927D01*
X0169110Y0081424D01*
X0169110Y0081024D01*
X0170457Y0079677D01*
X0172363Y0079677D01*
X0173710Y0081024D01*
X0173710Y0082929D01*
X0172363Y0084277D01*
X0170457Y0084277D01*
X0169960Y0083779D01*
X0169960Y0084179D01*
X0168613Y0085527D01*
X0166707Y0085527D01*
X0165723Y0084542D02*
X0135741Y0084542D01*
X0134162Y0083744D02*
X0165360Y0083744D01*
X0165360Y0082945D02*
X0083694Y0082945D01*
X0084335Y0082304D02*
X0082988Y0083652D01*
X0081082Y0083652D01*
X0080160Y0082729D01*
X0079238Y0083652D01*
X0077332Y0083652D01*
X0075985Y0082304D01*
X0075985Y0080399D01*
X0077332Y0079052D01*
X0079238Y0079052D01*
X0080160Y0079974D01*
X0081082Y0079052D01*
X0082988Y0079052D01*
X0084335Y0080399D01*
X0084335Y0082304D01*
X0084335Y0082147D02*
X0133952Y0082147D01*
X0134207Y0082402D02*
X0132860Y0081054D01*
X0132860Y0080029D01*
X0132363Y0080527D01*
X0130457Y0080527D01*
X0129110Y0079179D01*
X0129110Y0077274D01*
X0130457Y0075927D01*
X0132363Y0075927D01*
X0133710Y0077274D01*
X0133710Y0078299D01*
X0134207Y0077802D01*
X0136113Y0077802D01*
X0137460Y0079149D01*
X0137460Y0081054D01*
X0136113Y0082402D01*
X0134207Y0082402D01*
X0133154Y0081348D02*
X0084335Y0081348D01*
X0084335Y0080550D02*
X0132860Y0080550D01*
X0133710Y0078154D02*
X0133855Y0078154D01*
X0133710Y0077356D02*
X0223800Y0077356D01*
X0223800Y0078154D02*
X0136465Y0078154D01*
X0137264Y0078953D02*
X0223800Y0078953D01*
X0223800Y0079751D02*
X0172437Y0079751D01*
X0173236Y0080550D02*
X0176460Y0080550D01*
X0176707Y0080302D02*
X0178613Y0080302D01*
X0179535Y0081224D01*
X0180457Y0080302D01*
X0182363Y0080302D01*
X0183710Y0081649D01*
X0183710Y0083554D01*
X0182363Y0084902D01*
X0180457Y0084902D01*
X0179535Y0083979D01*
X0178613Y0084902D01*
X0176707Y0084902D01*
X0175360Y0083554D01*
X0175360Y0081649D01*
X0176707Y0080302D01*
X0175661Y0081348D02*
X0173710Y0081348D01*
X0173710Y0082147D02*
X0175360Y0082147D01*
X0175360Y0082945D02*
X0173694Y0082945D01*
X0172896Y0083744D02*
X0175549Y0083744D01*
X0176348Y0084542D02*
X0169597Y0084542D01*
X0168799Y0085341D02*
X0202235Y0085341D01*
X0202235Y0084542D02*
X0182722Y0084542D01*
X0183521Y0083744D02*
X0202640Y0083744D01*
X0203439Y0082945D02*
X0183710Y0082945D01*
X0183710Y0082147D02*
X0223800Y0082147D01*
X0223800Y0082945D02*
X0205631Y0082945D01*
X0206430Y0083744D02*
X0223800Y0083744D01*
X0223800Y0084542D02*
X0206835Y0084542D01*
X0206835Y0085341D02*
X0223800Y0085341D01*
X0223800Y0086139D02*
X0206750Y0086139D01*
X0205952Y0086938D02*
X0223800Y0086938D01*
X0223800Y0081348D02*
X0183409Y0081348D01*
X0182611Y0080550D02*
X0223800Y0080550D01*
X0223800Y0076557D02*
X0132993Y0076557D01*
X0129827Y0076557D02*
X0125493Y0076557D01*
X0124863Y0075927D02*
X0126210Y0077274D01*
X0126210Y0079179D01*
X0124863Y0080527D01*
X0122957Y0080527D01*
X0122660Y0080229D01*
X0122363Y0080527D01*
X0120457Y0080527D01*
X0120160Y0080229D01*
X0119863Y0080527D01*
X0117957Y0080527D01*
X0116610Y0079179D01*
X0116610Y0077274D01*
X0117957Y0075927D01*
X0119863Y0075927D01*
X0120160Y0076224D01*
X0120457Y0075927D01*
X0122363Y0075927D01*
X0122660Y0076224D01*
X0122957Y0075927D01*
X0124863Y0075927D01*
X0126210Y0077356D02*
X0129110Y0077356D01*
X0129110Y0078154D02*
X0126210Y0078154D01*
X0126210Y0078953D02*
X0129110Y0078953D01*
X0129682Y0079751D02*
X0125638Y0079751D01*
X0124061Y0083702D02*
X0125494Y0084295D01*
X0126591Y0085392D01*
X0127185Y0086826D01*
X0127185Y0088377D01*
X0126591Y0089811D01*
X0125494Y0090908D01*
X0124061Y0091502D01*
X0122509Y0091502D01*
X0121076Y0090908D01*
X0119979Y0089811D01*
X0119385Y0088377D01*
X0119385Y0086826D01*
X0119979Y0085392D01*
X0121076Y0084295D01*
X0122509Y0083702D01*
X0124061Y0083702D01*
X0124162Y0083744D02*
X0132408Y0083744D01*
X0130829Y0084542D02*
X0125741Y0084542D01*
X0126540Y0085341D02*
X0130031Y0085341D01*
X0129670Y0086139D02*
X0126901Y0086139D01*
X0127185Y0086938D02*
X0129385Y0086938D01*
X0129385Y0087736D02*
X0127185Y0087736D01*
X0127120Y0088535D02*
X0129450Y0088535D01*
X0129781Y0089333D02*
X0126789Y0089333D01*
X0126271Y0090132D02*
X0130300Y0090132D01*
X0131130Y0090930D02*
X0125440Y0090930D01*
X0125081Y0094124D02*
X0131489Y0094124D01*
X0130449Y0094923D02*
X0126122Y0094923D01*
X0126728Y0095721D02*
X0129843Y0095721D01*
X0129512Y0096520D02*
X0127058Y0096520D01*
X0127185Y0097318D02*
X0129385Y0097318D01*
X0129385Y0098117D02*
X0127185Y0098117D01*
X0126962Y0098915D02*
X0129608Y0098915D01*
X0129939Y0099714D02*
X0126632Y0099714D01*
X0125890Y0100512D02*
X0130680Y0100512D01*
X0138083Y0092527D02*
X0094960Y0092527D01*
X0094960Y0091729D02*
X0137860Y0091729D01*
X0138882Y0093326D02*
X0094960Y0093326D01*
X0094960Y0093554D02*
X0093613Y0094902D01*
X0091707Y0094902D01*
X0090360Y0093554D01*
X0090360Y0093154D01*
X0089863Y0093652D01*
X0087957Y0093652D01*
X0086610Y0092304D01*
X0086610Y0090399D01*
X0087957Y0089052D01*
X0089863Y0089052D01*
X0091210Y0090399D01*
X0091210Y0090799D01*
X0091707Y0090302D01*
X0093613Y0090302D01*
X0094960Y0091649D01*
X0094960Y0093554D01*
X0094390Y0094124D02*
X0121489Y0094124D01*
X0120449Y0094923D02*
X0083859Y0094923D01*
X0084335Y0095399D02*
X0082988Y0094052D01*
X0081082Y0094052D01*
X0079960Y0095174D01*
X0079960Y0094149D01*
X0078613Y0092802D01*
X0077588Y0092802D01*
X0078085Y0092304D01*
X0078085Y0090399D01*
X0076738Y0089052D01*
X0074832Y0089052D01*
X0073485Y0090399D01*
X0073485Y0092304D01*
X0074832Y0093652D01*
X0075857Y0093652D01*
X0075360Y0094149D01*
X0075360Y0096054D01*
X0075857Y0096552D01*
X0074832Y0096552D01*
X0073485Y0097899D01*
X0073485Y0099804D01*
X0074832Y0101152D01*
X0076738Y0101152D01*
X0078085Y0099804D01*
X0078085Y0097899D01*
X0077588Y0097402D01*
X0078613Y0097402D01*
X0079735Y0096279D01*
X0079735Y0097304D01*
X0081082Y0098652D01*
X0082988Y0098652D01*
X0084335Y0097304D01*
X0084335Y0095399D01*
X0084335Y0095721D02*
X0119843Y0095721D01*
X0119512Y0096520D02*
X0084335Y0096520D01*
X0084321Y0097318D02*
X0119385Y0097318D01*
X0119385Y0098117D02*
X0083523Y0098117D01*
X0080548Y0098117D02*
X0078085Y0098117D01*
X0078085Y0098915D02*
X0119608Y0098915D01*
X0119939Y0099714D02*
X0078085Y0099714D01*
X0077377Y0100512D02*
X0120680Y0100512D01*
X0120866Y0104505D02*
X0049935Y0104505D01*
X0049935Y0105303D02*
X0120068Y0105303D01*
X0119685Y0106102D02*
X0049935Y0106102D01*
X0049935Y0106900D02*
X0119385Y0106900D01*
X0119385Y0107699D02*
X0049935Y0107699D01*
X0049935Y0108497D02*
X0071637Y0108497D01*
X0071707Y0108427D02*
X0073613Y0108427D01*
X0074960Y0109774D01*
X0074960Y0111679D01*
X0073613Y0113027D01*
X0071707Y0113027D01*
X0070360Y0111679D01*
X0070360Y0109774D01*
X0071707Y0108427D01*
X0070838Y0109296D02*
X0049935Y0109296D01*
X0049935Y0110094D02*
X0070360Y0110094D01*
X0070360Y0110893D02*
X0049935Y0110893D01*
X0049935Y0111691D02*
X0070372Y0111691D01*
X0071171Y0112490D02*
X0049935Y0112490D01*
X0049935Y0113289D02*
X0087471Y0113289D01*
X0087957Y0112802D02*
X0086610Y0114149D01*
X0086610Y0116054D01*
X0087957Y0117402D01*
X0089863Y0117402D01*
X0090785Y0116479D01*
X0091707Y0117402D01*
X0093613Y0117402D01*
X0094960Y0116054D01*
X0094960Y0114149D01*
X0093613Y0112802D01*
X0091707Y0112802D01*
X0090785Y0113724D01*
X0089863Y0112802D01*
X0087957Y0112802D01*
X0086672Y0114087D02*
X0049935Y0114087D01*
X0049935Y0114886D02*
X0086610Y0114886D01*
X0086610Y0115684D02*
X0049935Y0115684D01*
X0049935Y0116483D02*
X0066152Y0116483D01*
X0066707Y0115927D02*
X0068613Y0115927D01*
X0069960Y0117274D01*
X0069960Y0119179D01*
X0068613Y0120527D01*
X0066707Y0120527D01*
X0065360Y0119179D01*
X0065360Y0117274D01*
X0066707Y0115927D01*
X0065360Y0117281D02*
X0049935Y0117281D01*
X0049935Y0118080D02*
X0065360Y0118080D01*
X0065360Y0118878D02*
X0049935Y0118878D01*
X0049935Y0119677D02*
X0065857Y0119677D01*
X0066656Y0120475D02*
X0049935Y0120475D01*
X0049935Y0122871D02*
X0145388Y0122871D01*
X0144590Y0123669D02*
X0049935Y0123669D01*
X0049935Y0124468D02*
X0120904Y0124468D01*
X0120105Y0125266D02*
X0049935Y0125266D01*
X0049935Y0126065D02*
X0119700Y0126065D01*
X0119385Y0126863D02*
X0049935Y0126863D01*
X0049935Y0127662D02*
X0119385Y0127662D01*
X0119419Y0128460D02*
X0118021Y0128460D01*
X0118710Y0129259D02*
X0119750Y0129259D01*
X0120225Y0130057D02*
X0118710Y0130057D01*
X0114799Y0128460D02*
X0101146Y0128460D01*
X0100488Y0127802D02*
X0101835Y0129149D01*
X0101835Y0131054D01*
X0100488Y0132402D01*
X0098582Y0132402D01*
X0097235Y0131054D01*
X0097235Y0129149D01*
X0098582Y0127802D01*
X0100488Y0127802D01*
X0101835Y0129259D02*
X0114110Y0129259D01*
X0114110Y0130057D02*
X0101835Y0130057D01*
X0101835Y0130856D02*
X0114110Y0130856D01*
X0114710Y0131654D02*
X0101235Y0131654D01*
X0097835Y0131654D02*
X0049935Y0131654D01*
X0049935Y0130856D02*
X0097235Y0130856D01*
X0097235Y0130057D02*
X0049935Y0130057D01*
X0049935Y0129259D02*
X0097235Y0129259D01*
X0097924Y0128460D02*
X0049935Y0128460D01*
X0049935Y0146826D02*
X0076610Y0146826D01*
X0076930Y0147625D02*
X0049935Y0147625D01*
X0049935Y0148423D02*
X0077729Y0148423D01*
X0076283Y0149222D02*
X0119735Y0149222D01*
X0119979Y0149811D02*
X0119385Y0148377D01*
X0119385Y0146826D01*
X0081210Y0146826D01*
X0081210Y0146027D02*
X0115958Y0146027D01*
X0115360Y0145429D02*
X0115360Y0143524D01*
X0116707Y0142177D01*
X0118613Y0142177D01*
X0119960Y0143524D01*
X0119960Y0145429D01*
X0118613Y0146777D01*
X0116707Y0146777D01*
X0115360Y0145429D01*
X0115360Y0145229D02*
X0105160Y0145229D01*
X0104863Y0145527D02*
X0102957Y0145527D01*
X0101610Y0144179D01*
X0101610Y0142274D01*
X0102957Y0140927D01*
X0104863Y0140927D01*
X0106210Y0142274D01*
X0106210Y0144179D01*
X0104863Y0145527D01*
X0105959Y0144430D02*
X0115360Y0144430D01*
X0115360Y0143632D02*
X0106210Y0143632D01*
X0106210Y0142833D02*
X0116051Y0142833D01*
X0119270Y0142833D02*
X0147926Y0142833D01*
X0148582Y0142177D02*
X0150488Y0142177D01*
X0151835Y0143524D01*
X0151835Y0145429D01*
X0150488Y0146777D01*
X0148582Y0146777D01*
X0147235Y0145429D01*
X0147235Y0143524D01*
X0148582Y0142177D01*
X0147235Y0143632D02*
X0119960Y0143632D01*
X0119960Y0144430D02*
X0120941Y0144430D01*
X0121076Y0144295D02*
X0122509Y0143702D01*
X0124061Y0143702D01*
X0125494Y0144295D01*
X0126591Y0145392D01*
X0127185Y0146826D01*
X0223800Y0146826D01*
X0223800Y0146027D02*
X0184362Y0146027D01*
X0184960Y0145429D02*
X0183613Y0146777D01*
X0181707Y0146777D01*
X0180360Y0145429D01*
X0180360Y0143524D01*
X0181707Y0142177D01*
X0183613Y0142177D01*
X0184960Y0143524D01*
X0184960Y0145429D01*
X0184960Y0145229D02*
X0223800Y0145229D01*
X0223800Y0144430D02*
X0184960Y0144430D01*
X0184960Y0143632D02*
X0223800Y0143632D01*
X0223800Y0142833D02*
X0184270Y0142833D01*
X0181051Y0142833D02*
X0151145Y0142833D01*
X0151835Y0143632D02*
X0180360Y0143632D01*
X0180360Y0144430D02*
X0151835Y0144430D01*
X0151835Y0145229D02*
X0180360Y0145229D01*
X0180958Y0146027D02*
X0151237Y0146027D01*
X0151707Y0149052D02*
X0153613Y0149052D01*
X0154960Y0150399D01*
X0154960Y0152304D01*
X0153613Y0153652D01*
X0151707Y0153652D01*
X0150360Y0152304D01*
X0150360Y0150399D01*
X0151707Y0149052D01*
X0151538Y0149222D02*
X0126835Y0149222D01*
X0126591Y0149811D02*
X0127185Y0148377D01*
X0127185Y0146826D01*
X0127185Y0147625D02*
X0223800Y0147625D01*
X0223800Y0148423D02*
X0211734Y0148423D01*
X0211113Y0147802D02*
X0212460Y0149149D01*
X0212460Y0151054D01*
X0211113Y0152402D01*
X0209207Y0152402D01*
X0207860Y0151054D01*
X0207860Y0149149D01*
X0209207Y0147802D01*
X0211113Y0147802D01*
X0212460Y0149222D02*
X0223800Y0149222D01*
X0223800Y0150020D02*
X0212460Y0150020D01*
X0212460Y0150819D02*
X0223800Y0150819D01*
X0223800Y0151617D02*
X0211897Y0151617D01*
X0208423Y0151617D02*
X0206835Y0151617D01*
X0206835Y0151024D02*
X0205488Y0149677D01*
X0203582Y0149677D01*
X0202235Y0151024D01*
X0202235Y0152929D01*
X0203582Y0154277D01*
X0205488Y0154277D01*
X0206835Y0152929D01*
X0206835Y0151024D01*
X0206630Y0150819D02*
X0207860Y0150819D01*
X0207860Y0150020D02*
X0205831Y0150020D01*
X0207860Y0149222D02*
X0158783Y0149222D01*
X0158613Y0149052D02*
X0159960Y0150399D01*
X0159960Y0152304D01*
X0158613Y0153652D01*
X0156707Y0153652D01*
X0155360Y0152304D01*
X0155360Y0150399D01*
X0156707Y0149052D01*
X0158613Y0149052D01*
X0159581Y0150020D02*
X0181364Y0150020D01*
X0181707Y0149677D02*
X0183613Y0149677D01*
X0184960Y0151024D01*
X0184960Y0152929D01*
X0183613Y0154277D01*
X0181707Y0154277D01*
X0180360Y0152929D01*
X0180360Y0151024D01*
X0181707Y0149677D01*
X0180566Y0150819D02*
X0166630Y0150819D01*
X0166113Y0150302D02*
X0167460Y0151649D01*
X0167460Y0153554D01*
X0166113Y0154902D01*
X0164207Y0154902D01*
X0162860Y0153554D01*
X0162860Y0151649D01*
X0164207Y0150302D01*
X0166113Y0150302D01*
X0167428Y0151617D02*
X0180360Y0151617D01*
X0180360Y0152416D02*
X0167460Y0152416D01*
X0167460Y0153214D02*
X0180645Y0153214D01*
X0181443Y0154013D02*
X0167002Y0154013D01*
X0166203Y0154811D02*
X0188485Y0154811D01*
X0188485Y0154774D02*
X0189832Y0153427D01*
X0191738Y0153427D01*
X0193085Y0154774D01*
X0193085Y0156679D01*
X0191738Y0158027D01*
X0189832Y0158027D01*
X0188485Y0156679D01*
X0188485Y0154774D01*
X0188485Y0155610D02*
X0133085Y0155610D01*
X0133085Y0155399D02*
X0133085Y0157304D01*
X0131738Y0158652D01*
X0129832Y0158652D01*
X0128485Y0157304D01*
X0128485Y0155399D01*
X0129832Y0154052D01*
X0131738Y0154052D01*
X0133085Y0155399D01*
X0132497Y0154811D02*
X0142867Y0154811D01*
X0142957Y0154902D02*
X0141610Y0153554D01*
X0141610Y0151649D01*
X0142957Y0150302D01*
X0144863Y0150302D01*
X0145785Y0151224D01*
X0146707Y0150302D01*
X0148613Y0150302D01*
X0149960Y0151649D01*
X0149960Y0153554D01*
X0148613Y0154902D01*
X0146707Y0154902D01*
X0145785Y0153979D01*
X0144863Y0154902D01*
X0142957Y0154902D01*
X0142068Y0154013D02*
X0085585Y0154013D01*
X0085578Y0154811D02*
X0109698Y0154811D01*
X0109110Y0155610D02*
X0084780Y0155610D01*
X0085585Y0153214D02*
X0141610Y0153214D01*
X0141610Y0152416D02*
X0085102Y0152416D01*
X0084303Y0151617D02*
X0141642Y0151617D01*
X0142441Y0150819D02*
X0125584Y0150819D01*
X0125494Y0150908D02*
X0124061Y0151502D01*
X0122509Y0151502D01*
X0121076Y0150908D01*
X0119979Y0149811D01*
X0120188Y0150020D02*
X0076835Y0150020D01*
X0076835Y0150819D02*
X0120987Y0150819D01*
X0119404Y0148423D02*
X0080091Y0148423D01*
X0080890Y0147625D02*
X0119385Y0147625D01*
X0119385Y0146826D02*
X0119979Y0145392D01*
X0121076Y0144295D01*
X0120142Y0145229D02*
X0119960Y0145229D01*
X0119716Y0146027D02*
X0119362Y0146027D01*
X0121869Y0141236D02*
X0105173Y0141236D01*
X0105971Y0142035D02*
X0223800Y0142035D01*
X0223800Y0141236D02*
X0157903Y0141236D01*
X0158702Y0140438D02*
X0223800Y0140438D01*
X0223800Y0139639D02*
X0158710Y0139639D01*
X0158710Y0138841D02*
X0223800Y0138841D01*
X0223800Y0138042D02*
X0158229Y0138042D01*
X0159396Y0137244D02*
X0223800Y0137244D01*
X0223800Y0136445D02*
X0159960Y0136445D01*
X0159960Y0135647D02*
X0198703Y0135647D01*
X0199207Y0136152D02*
X0197860Y0134804D01*
X0197860Y0132899D01*
X0199207Y0131552D01*
X0201113Y0131552D01*
X0202460Y0132899D01*
X0202460Y0134804D01*
X0201113Y0136152D01*
X0199207Y0136152D01*
X0197904Y0134848D02*
X0177416Y0134848D01*
X0178085Y0134050D02*
X0179606Y0134050D01*
X0178807Y0133251D02*
X0178085Y0133251D01*
X0178085Y0132453D02*
X0178485Y0132453D01*
X0181965Y0134050D02*
X0197860Y0134050D01*
X0197860Y0133251D02*
X0182763Y0133251D01*
X0183085Y0132453D02*
X0198306Y0132453D01*
X0199105Y0131654D02*
X0184360Y0131654D01*
X0185159Y0130856D02*
X0223800Y0130856D01*
X0223800Y0131654D02*
X0201215Y0131654D01*
X0202014Y0132453D02*
X0223800Y0132453D01*
X0223800Y0133251D02*
X0202460Y0133251D01*
X0202460Y0134050D02*
X0223800Y0134050D01*
X0223800Y0134848D02*
X0202416Y0134848D01*
X0201618Y0135647D02*
X0223800Y0135647D01*
X0223800Y0130057D02*
X0185585Y0130057D01*
X0185585Y0129259D02*
X0223800Y0129259D01*
X0223800Y0128460D02*
X0185521Y0128460D01*
X0184723Y0127662D02*
X0223800Y0127662D01*
X0223800Y0126863D02*
X0183085Y0126863D01*
X0183085Y0126065D02*
X0223800Y0126065D01*
X0223800Y0125266D02*
X0195123Y0125266D01*
X0194863Y0125527D02*
X0196210Y0124179D01*
X0196210Y0122274D01*
X0194863Y0120927D01*
X0192957Y0120927D01*
X0191610Y0122274D01*
X0191610Y0124179D01*
X0192957Y0125527D01*
X0194863Y0125527D01*
X0195922Y0124468D02*
X0223800Y0124468D01*
X0223800Y0123669D02*
X0196210Y0123669D01*
X0196210Y0122871D02*
X0223800Y0122871D01*
X0223800Y0122072D02*
X0196008Y0122072D01*
X0195210Y0121274D02*
X0223800Y0121274D01*
X0223800Y0120475D02*
X0174335Y0120475D01*
X0174335Y0121274D02*
X0179485Y0121274D01*
X0178687Y0122072D02*
X0174335Y0122072D01*
X0173769Y0122871D02*
X0178485Y0122871D01*
X0178485Y0123669D02*
X0171835Y0123669D01*
X0171835Y0124468D02*
X0178773Y0124468D01*
X0179243Y0125266D02*
X0171373Y0125266D01*
X0170575Y0126065D02*
X0178485Y0126065D01*
X0178485Y0126863D02*
X0147901Y0126863D01*
X0148700Y0126065D02*
X0168495Y0126065D01*
X0167697Y0125266D02*
X0148710Y0125266D01*
X0148710Y0124468D02*
X0167235Y0124468D01*
X0167235Y0123669D02*
X0148230Y0123669D01*
X0147432Y0122871D02*
X0167263Y0122871D01*
X0173613Y0119677D02*
X0223800Y0119677D01*
X0223800Y0118878D02*
X0136978Y0118878D01*
X0137185Y0118080D02*
X0223800Y0118080D01*
X0223800Y0117281D02*
X0137185Y0117281D01*
X0137043Y0116483D02*
X0223800Y0116483D01*
X0223800Y0115684D02*
X0170955Y0115684D01*
X0171754Y0114886D02*
X0223800Y0114886D01*
X0223800Y0114087D02*
X0171835Y0114087D01*
X0171835Y0113289D02*
X0223800Y0113289D01*
X0192610Y0121274D02*
X0182085Y0121274D01*
X0182883Y0122072D02*
X0191812Y0122072D01*
X0191610Y0122871D02*
X0183085Y0122871D01*
X0183085Y0123669D02*
X0191610Y0123669D01*
X0191898Y0124468D02*
X0182797Y0124468D01*
X0182327Y0125266D02*
X0192697Y0125266D01*
X0208586Y0148423D02*
X0127166Y0148423D01*
X0126591Y0149811D02*
X0125494Y0150908D01*
X0126382Y0150020D02*
X0150739Y0150020D01*
X0150360Y0150819D02*
X0149130Y0150819D01*
X0149928Y0151617D02*
X0150360Y0151617D01*
X0150471Y0152416D02*
X0149960Y0152416D01*
X0149960Y0153214D02*
X0151270Y0153214D01*
X0149502Y0154013D02*
X0163318Y0154013D01*
X0162860Y0153214D02*
X0159050Y0153214D01*
X0159849Y0152416D02*
X0162860Y0152416D01*
X0162892Y0151617D02*
X0159960Y0151617D01*
X0159960Y0150819D02*
X0163691Y0150819D01*
X0164117Y0154811D02*
X0148703Y0154811D01*
X0146617Y0154811D02*
X0144953Y0154811D01*
X0145752Y0154013D02*
X0145818Y0154013D01*
X0146191Y0150819D02*
X0145380Y0150819D01*
X0147833Y0146027D02*
X0126854Y0146027D01*
X0126428Y0145229D02*
X0147235Y0145229D01*
X0147235Y0144430D02*
X0125629Y0144430D01*
X0124701Y0141236D02*
X0131869Y0141236D01*
X0132509Y0141502D02*
X0131076Y0140908D01*
X0129979Y0139811D01*
X0129385Y0138377D01*
X0129385Y0136826D01*
X0129979Y0135392D01*
X0131076Y0134295D01*
X0132509Y0133702D01*
X0134061Y0133702D01*
X0135494Y0134295D01*
X0136591Y0135392D01*
X0137185Y0136826D01*
X0137185Y0138377D01*
X0136591Y0139811D01*
X0135494Y0140908D01*
X0134061Y0141502D01*
X0132509Y0141502D01*
X0130606Y0140438D02*
X0125964Y0140438D01*
X0126662Y0139639D02*
X0129908Y0139639D01*
X0129577Y0138841D02*
X0126993Y0138841D01*
X0127185Y0138042D02*
X0129385Y0138042D01*
X0129385Y0137244D02*
X0127185Y0137244D01*
X0127027Y0136445D02*
X0129543Y0136445D01*
X0129873Y0135647D02*
X0126697Y0135647D01*
X0126047Y0134848D02*
X0130523Y0134848D01*
X0131669Y0134050D02*
X0124901Y0134050D01*
X0125546Y0130856D02*
X0131024Y0130856D01*
X0130225Y0130057D02*
X0126345Y0130057D01*
X0126820Y0129259D02*
X0129750Y0129259D01*
X0129419Y0128460D02*
X0127151Y0128460D01*
X0127185Y0127662D02*
X0129385Y0127662D01*
X0129385Y0126863D02*
X0127185Y0126863D01*
X0126870Y0126065D02*
X0129700Y0126065D01*
X0130105Y0125266D02*
X0126465Y0125266D01*
X0125667Y0124468D02*
X0130904Y0124468D01*
X0134901Y0134050D02*
X0156084Y0134050D01*
X0155360Y0134848D02*
X0136047Y0134848D01*
X0136697Y0135647D02*
X0155360Y0135647D01*
X0155360Y0136445D02*
X0137027Y0136445D01*
X0137185Y0137244D02*
X0155390Y0137244D01*
X0154592Y0138042D02*
X0137185Y0138042D01*
X0136993Y0138841D02*
X0154110Y0138841D01*
X0154110Y0139639D02*
X0136662Y0139639D01*
X0135964Y0140438D02*
X0154119Y0140438D01*
X0154917Y0141236D02*
X0134701Y0141236D01*
X0129073Y0154811D02*
X0123122Y0154811D01*
X0123710Y0155399D02*
X0122363Y0154052D01*
X0120457Y0154052D01*
X0119110Y0155399D01*
X0119110Y0157304D01*
X0120457Y0158652D01*
X0122363Y0158652D01*
X0123710Y0157304D01*
X0123710Y0155399D01*
X0123710Y0155610D02*
X0128485Y0155610D01*
X0128485Y0156408D02*
X0123710Y0156408D01*
X0123710Y0157207D02*
X0128485Y0157207D01*
X0129186Y0158005D02*
X0123009Y0158005D01*
X0119811Y0158005D02*
X0113009Y0158005D01*
X0113710Y0157207D02*
X0119110Y0157207D01*
X0119110Y0156408D02*
X0113710Y0156408D01*
X0113710Y0155610D02*
X0119110Y0155610D01*
X0119698Y0154811D02*
X0113122Y0154811D01*
X0102660Y0145229D02*
X0081040Y0145229D01*
X0080242Y0144430D02*
X0101861Y0144430D01*
X0101610Y0143632D02*
X0092383Y0143632D01*
X0093181Y0142833D02*
X0101610Y0142833D01*
X0101849Y0142035D02*
X0093710Y0142035D01*
X0093710Y0141236D02*
X0102648Y0141236D01*
X0093710Y0140438D02*
X0120606Y0140438D01*
X0119908Y0139639D02*
X0093250Y0139639D01*
X0093710Y0138841D02*
X0119577Y0138841D01*
X0119385Y0138042D02*
X0093710Y0138042D01*
X0093680Y0137244D02*
X0119385Y0137244D01*
X0119543Y0136445D02*
X0092881Y0136445D01*
X0082267Y0151617D02*
X0076835Y0151617D01*
X0076099Y0152416D02*
X0081469Y0152416D01*
X0067304Y0171580D02*
X0066766Y0171580D01*
X0066866Y0174774D02*
X0067205Y0174774D01*
X0063455Y0174774D02*
X0049935Y0174774D01*
X0049935Y0173975D02*
X0062860Y0173975D01*
X0062860Y0173177D02*
X0049935Y0173177D01*
X0049935Y0172378D02*
X0062860Y0172378D01*
X0063554Y0171580D02*
X0049935Y0171580D01*
X0049935Y0199528D02*
X0051231Y0199528D01*
X0050433Y0200326D02*
X0049935Y0200326D01*
X0049935Y0201125D02*
X0050360Y0201125D01*
X0050360Y0201923D02*
X0049935Y0201923D01*
X0049935Y0202722D02*
X0050778Y0202722D01*
X0051576Y0203520D02*
X0049935Y0203520D01*
X0049935Y0220289D02*
X0050220Y0220289D01*
X0049935Y0225879D02*
X0223800Y0225879D01*
X0223800Y0226677D02*
X0049935Y0226677D01*
X0049935Y0227476D02*
X0223800Y0227476D01*
X0223800Y0228274D02*
X0049935Y0228274D01*
X0049935Y0229073D02*
X0094256Y0229073D01*
X0094587Y0228936D02*
X0092845Y0229657D01*
X0091512Y0230990D01*
X0090791Y0232732D01*
X0090791Y0234617D01*
X0091512Y0236359D01*
X0092845Y0237692D01*
X0094587Y0238413D01*
X0096472Y0238413D01*
X0098213Y0237692D01*
X0099546Y0236359D01*
X0100268Y0234617D01*
X0100268Y0232732D01*
X0099546Y0230990D01*
X0098213Y0229657D01*
X0096472Y0228936D01*
X0094587Y0228936D01*
X0092631Y0229871D02*
X0049935Y0229871D01*
X0049935Y0230670D02*
X0091833Y0230670D01*
X0091314Y0231468D02*
X0049935Y0231468D01*
X0049935Y0232267D02*
X0090983Y0232267D01*
X0090791Y0233065D02*
X0049935Y0233065D01*
X0049935Y0233864D02*
X0090791Y0233864D01*
X0090809Y0234662D02*
X0049935Y0234662D01*
X0049935Y0235461D02*
X0091140Y0235461D01*
X0091471Y0236259D02*
X0049935Y0236259D01*
X0049935Y0237058D02*
X0092211Y0237058D01*
X0093242Y0237856D02*
X0049935Y0237856D01*
X0049935Y0238655D02*
X0223800Y0238655D01*
X0223800Y0239453D02*
X0186684Y0239453D01*
X0186796Y0239500D02*
X0188129Y0240833D01*
X0188850Y0242574D01*
X0188850Y0244460D01*
X0188129Y0246201D01*
X0186796Y0247534D01*
X0185054Y0248256D01*
X0183169Y0248256D01*
X0181428Y0247534D01*
X0180095Y0246201D01*
X0179373Y0244460D01*
X0179373Y0242574D01*
X0180095Y0240833D01*
X0181428Y0239500D01*
X0183169Y0238778D01*
X0185054Y0238778D01*
X0186796Y0239500D01*
X0187548Y0240252D02*
X0223800Y0240252D01*
X0223800Y0241050D02*
X0188219Y0241050D01*
X0188550Y0241849D02*
X0223800Y0241849D01*
X0223800Y0242647D02*
X0188850Y0242647D01*
X0188850Y0243446D02*
X0223800Y0243446D01*
X0223800Y0244244D02*
X0188850Y0244244D01*
X0188609Y0245043D02*
X0223800Y0245043D01*
X0223800Y0245841D02*
X0188278Y0245841D01*
X0187690Y0246640D02*
X0223800Y0246640D01*
X0223800Y0247438D02*
X0186892Y0247438D01*
X0185099Y0248237D02*
X0223800Y0248237D01*
X0223800Y0249035D02*
X0049935Y0249035D01*
X0049935Y0248237D02*
X0088636Y0248237D01*
X0088681Y0248256D02*
X0086940Y0247534D01*
X0085607Y0246201D01*
X0084885Y0244460D01*
X0084885Y0242574D01*
X0085607Y0240833D01*
X0086940Y0239500D01*
X0088681Y0238778D01*
X0090566Y0238778D01*
X0092308Y0239500D01*
X0093641Y0240833D01*
X0094362Y0242574D01*
X0094362Y0244460D01*
X0093641Y0246201D01*
X0092308Y0247534D01*
X0090566Y0248256D01*
X0088681Y0248256D01*
X0090611Y0248237D02*
X0100447Y0248237D01*
X0100492Y0248256D02*
X0098751Y0247534D01*
X0097418Y0246201D01*
X0096696Y0244460D01*
X0096696Y0242574D01*
X0097418Y0240833D01*
X0098751Y0239500D01*
X0100492Y0238778D01*
X0102377Y0238778D01*
X0104119Y0239500D01*
X0105452Y0240833D01*
X0106173Y0242574D01*
X0106173Y0244460D01*
X0105452Y0246201D01*
X0104119Y0247534D01*
X0102377Y0248256D01*
X0100492Y0248256D01*
X0102422Y0248237D02*
X0112258Y0248237D01*
X0112303Y0248256D02*
X0110562Y0247534D01*
X0109229Y0246201D01*
X0108507Y0244460D01*
X0108507Y0242574D01*
X0109229Y0240833D01*
X0110562Y0239500D01*
X0112303Y0238778D01*
X0114188Y0238778D01*
X0115930Y0239500D01*
X0117263Y0240833D01*
X0117984Y0242574D01*
X0117984Y0244460D01*
X0117263Y0246201D01*
X0115930Y0247534D01*
X0114188Y0248256D01*
X0112303Y0248256D01*
X0114233Y0248237D02*
X0124069Y0248237D01*
X0124114Y0248256D02*
X0122373Y0247534D01*
X0121040Y0246201D01*
X0120318Y0244460D01*
X0120318Y0242574D01*
X0121040Y0240833D01*
X0122373Y0239500D01*
X0124114Y0238778D01*
X0125999Y0238778D01*
X0127741Y0239500D01*
X0129074Y0240833D01*
X0129795Y0242574D01*
X0129795Y0244460D01*
X0129074Y0246201D01*
X0127741Y0247534D01*
X0125999Y0248256D01*
X0124114Y0248256D01*
X0126044Y0248237D02*
X0135880Y0248237D01*
X0135925Y0248256D02*
X0134184Y0247534D01*
X0132851Y0246201D01*
X0132129Y0244460D01*
X0132129Y0242574D01*
X0132851Y0240833D01*
X0134184Y0239500D01*
X0135925Y0238778D01*
X0137810Y0238778D01*
X0139552Y0239500D01*
X0140885Y0240833D01*
X0141606Y0242574D01*
X0141606Y0244460D01*
X0140885Y0246201D01*
X0139552Y0247534D01*
X0137810Y0248256D01*
X0135925Y0248256D01*
X0137855Y0248237D02*
X0171313Y0248237D01*
X0171358Y0248256D02*
X0169617Y0247534D01*
X0168284Y0246201D01*
X0167562Y0244460D01*
X0167562Y0242574D01*
X0168284Y0240833D01*
X0169617Y0239500D01*
X0171358Y0238778D01*
X0173243Y0238778D01*
X0174985Y0239500D01*
X0176318Y0240833D01*
X0177039Y0242574D01*
X0177039Y0244460D01*
X0176318Y0246201D01*
X0174985Y0247534D01*
X0173243Y0248256D01*
X0171358Y0248256D01*
X0173288Y0248237D02*
X0183124Y0248237D01*
X0181332Y0247438D02*
X0175081Y0247438D01*
X0175879Y0246640D02*
X0180533Y0246640D01*
X0179946Y0245841D02*
X0176467Y0245841D01*
X0176798Y0245043D02*
X0179615Y0245043D01*
X0179373Y0244244D02*
X0177039Y0244244D01*
X0177039Y0243446D02*
X0179373Y0243446D01*
X0179373Y0242647D02*
X0177039Y0242647D01*
X0176739Y0241849D02*
X0179674Y0241849D01*
X0180005Y0241050D02*
X0176408Y0241050D01*
X0175737Y0240252D02*
X0180676Y0240252D01*
X0181540Y0239453D02*
X0174873Y0239453D01*
X0175522Y0237692D02*
X0174189Y0236359D01*
X0173468Y0234617D01*
X0173468Y0232732D01*
X0174189Y0230990D01*
X0175522Y0229657D01*
X0177264Y0228936D01*
X0179149Y0228936D01*
X0180891Y0229657D01*
X0182224Y0230990D01*
X0182945Y0232732D01*
X0182945Y0234617D01*
X0182224Y0236359D01*
X0180891Y0237692D01*
X0179149Y0238413D01*
X0177264Y0238413D01*
X0175522Y0237692D01*
X0175920Y0237856D02*
X0168682Y0237856D01*
X0169080Y0237692D02*
X0167338Y0238413D01*
X0165453Y0238413D01*
X0163711Y0237692D01*
X0162378Y0236359D01*
X0161657Y0234617D01*
X0161657Y0232732D01*
X0162378Y0230990D01*
X0163711Y0229657D01*
X0165453Y0228936D01*
X0167338Y0228936D01*
X0169080Y0229657D01*
X0170413Y0230990D01*
X0171134Y0232732D01*
X0171134Y0234617D01*
X0170413Y0236359D01*
X0169080Y0237692D01*
X0169713Y0237058D02*
X0174888Y0237058D01*
X0174148Y0236259D02*
X0170454Y0236259D01*
X0170784Y0235461D02*
X0173817Y0235461D01*
X0173487Y0234662D02*
X0171115Y0234662D01*
X0171134Y0233864D02*
X0173468Y0233864D01*
X0173468Y0233065D02*
X0171134Y0233065D01*
X0170941Y0232267D02*
X0173660Y0232267D01*
X0173991Y0231468D02*
X0170610Y0231468D01*
X0170092Y0230670D02*
X0174510Y0230670D01*
X0175308Y0229871D02*
X0169293Y0229871D01*
X0167668Y0229073D02*
X0176934Y0229073D01*
X0179479Y0229073D02*
X0223800Y0229073D01*
X0223800Y0229871D02*
X0181104Y0229871D01*
X0181903Y0230670D02*
X0223800Y0230670D01*
X0223800Y0231468D02*
X0182421Y0231468D01*
X0182752Y0232267D02*
X0223800Y0232267D01*
X0223800Y0233065D02*
X0182945Y0233065D01*
X0182945Y0233864D02*
X0223800Y0233864D01*
X0223800Y0234662D02*
X0182926Y0234662D01*
X0182595Y0235461D02*
X0223800Y0235461D01*
X0223800Y0236259D02*
X0182265Y0236259D01*
X0181524Y0237058D02*
X0223800Y0237058D01*
X0223800Y0237856D02*
X0180493Y0237856D01*
X0169729Y0239453D02*
X0139440Y0239453D01*
X0140304Y0240252D02*
X0168865Y0240252D01*
X0168194Y0241050D02*
X0140975Y0241050D01*
X0141306Y0241849D02*
X0167863Y0241849D01*
X0167562Y0242647D02*
X0141606Y0242647D01*
X0141606Y0243446D02*
X0167562Y0243446D01*
X0167562Y0244244D02*
X0141606Y0244244D01*
X0141365Y0245043D02*
X0167804Y0245043D01*
X0168135Y0245841D02*
X0141034Y0245841D01*
X0140446Y0246640D02*
X0168722Y0246640D01*
X0169521Y0247438D02*
X0139648Y0247438D01*
X0134088Y0247438D02*
X0127837Y0247438D01*
X0128635Y0246640D02*
X0133289Y0246640D01*
X0132702Y0245841D02*
X0129223Y0245841D01*
X0129554Y0245043D02*
X0132371Y0245043D01*
X0132129Y0244244D02*
X0129795Y0244244D01*
X0129795Y0243446D02*
X0132129Y0243446D01*
X0132129Y0242647D02*
X0129795Y0242647D01*
X0129495Y0241849D02*
X0132430Y0241849D01*
X0132761Y0241050D02*
X0129164Y0241050D01*
X0128493Y0240252D02*
X0133432Y0240252D01*
X0134296Y0239453D02*
X0127629Y0239453D01*
X0128278Y0237692D02*
X0126945Y0236359D01*
X0126224Y0234617D01*
X0126224Y0232732D01*
X0126945Y0230990D01*
X0128278Y0229657D01*
X0130020Y0228936D01*
X0131905Y0228936D01*
X0133646Y0229657D01*
X0134979Y0230990D01*
X0135701Y0232732D01*
X0135701Y0234617D01*
X0134979Y0236359D01*
X0133646Y0237692D01*
X0131905Y0238413D01*
X0130020Y0238413D01*
X0128278Y0237692D01*
X0128676Y0237856D02*
X0121438Y0237856D01*
X0121835Y0237692D02*
X0120094Y0238413D01*
X0118209Y0238413D01*
X0116467Y0237692D01*
X0115134Y0236359D01*
X0114413Y0234617D01*
X0114413Y0232732D01*
X0115134Y0230990D01*
X0116467Y0229657D01*
X0118209Y0228936D01*
X0120094Y0228936D01*
X0121835Y0229657D01*
X0123168Y0230990D01*
X0123890Y0232732D01*
X0123890Y0234617D01*
X0123168Y0236359D01*
X0121835Y0237692D01*
X0122469Y0237058D02*
X0127644Y0237058D01*
X0126904Y0236259D02*
X0123210Y0236259D01*
X0123540Y0235461D02*
X0126573Y0235461D01*
X0126242Y0234662D02*
X0123871Y0234662D01*
X0123890Y0233864D02*
X0126224Y0233864D01*
X0126224Y0233065D02*
X0123890Y0233065D01*
X0123697Y0232267D02*
X0126416Y0232267D01*
X0126747Y0231468D02*
X0123366Y0231468D01*
X0122848Y0230670D02*
X0127266Y0230670D01*
X0128064Y0229871D02*
X0122049Y0229871D01*
X0120424Y0229073D02*
X0129690Y0229073D01*
X0132235Y0229073D02*
X0141501Y0229073D01*
X0141831Y0228936D02*
X0143716Y0228936D01*
X0145458Y0229657D01*
X0146790Y0230990D01*
X0147512Y0232732D01*
X0147512Y0234617D01*
X0146790Y0236359D01*
X0145458Y0237692D01*
X0143716Y0238413D01*
X0141831Y0238413D01*
X0140089Y0237692D01*
X0138756Y0236359D01*
X0138035Y0234617D01*
X0138035Y0232732D01*
X0138756Y0230990D01*
X0140089Y0229657D01*
X0141831Y0228936D01*
X0139875Y0229871D02*
X0133860Y0229871D01*
X0134659Y0230670D02*
X0139077Y0230670D01*
X0138558Y0231468D02*
X0135177Y0231468D01*
X0135508Y0232267D02*
X0138227Y0232267D01*
X0138035Y0233065D02*
X0135701Y0233065D01*
X0135701Y0233864D02*
X0138035Y0233864D01*
X0138053Y0234662D02*
X0135682Y0234662D01*
X0135351Y0235461D02*
X0138384Y0235461D01*
X0138715Y0236259D02*
X0135021Y0236259D01*
X0134280Y0237058D02*
X0139455Y0237058D01*
X0140487Y0237856D02*
X0133249Y0237856D01*
X0122485Y0239453D02*
X0115818Y0239453D01*
X0116682Y0240252D02*
X0121621Y0240252D01*
X0120949Y0241050D02*
X0117353Y0241050D01*
X0117684Y0241849D02*
X0120619Y0241849D01*
X0120318Y0242647D02*
X0117984Y0242647D01*
X0117984Y0243446D02*
X0120318Y0243446D01*
X0120318Y0244244D02*
X0117984Y0244244D01*
X0117743Y0245043D02*
X0120560Y0245043D01*
X0120891Y0245841D02*
X0117412Y0245841D01*
X0116824Y0246640D02*
X0121478Y0246640D01*
X0122277Y0247438D02*
X0116026Y0247438D01*
X0110466Y0247438D02*
X0104215Y0247438D01*
X0105013Y0246640D02*
X0109667Y0246640D01*
X0109080Y0245841D02*
X0105601Y0245841D01*
X0105932Y0245043D02*
X0108749Y0245043D01*
X0108507Y0244244D02*
X0106173Y0244244D01*
X0106173Y0243446D02*
X0108507Y0243446D01*
X0108507Y0242647D02*
X0106173Y0242647D01*
X0105873Y0241849D02*
X0108808Y0241849D01*
X0109138Y0241050D02*
X0105542Y0241050D01*
X0104871Y0240252D02*
X0109810Y0240252D01*
X0110674Y0239453D02*
X0104007Y0239453D01*
X0104656Y0237692D02*
X0103323Y0236359D01*
X0102602Y0234617D01*
X0102602Y0232732D01*
X0103323Y0230990D01*
X0104656Y0229657D01*
X0106398Y0228936D01*
X0108283Y0228936D01*
X0110024Y0229657D01*
X0111357Y0230990D01*
X0112079Y0232732D01*
X0112079Y0234617D01*
X0111357Y0236359D01*
X0110024Y0237692D01*
X0108283Y0238413D01*
X0106398Y0238413D01*
X0104656Y0237692D01*
X0105053Y0237856D02*
X0097816Y0237856D01*
X0098847Y0237058D02*
X0104022Y0237058D01*
X0103282Y0236259D02*
X0099588Y0236259D01*
X0099918Y0235461D02*
X0102951Y0235461D01*
X0102620Y0234662D02*
X0100249Y0234662D01*
X0100268Y0233864D02*
X0102602Y0233864D01*
X0102602Y0233065D02*
X0100268Y0233065D01*
X0100075Y0232267D02*
X0102794Y0232267D01*
X0103125Y0231468D02*
X0099744Y0231468D01*
X0099226Y0230670D02*
X0103644Y0230670D01*
X0104442Y0229871D02*
X0098427Y0229871D01*
X0096802Y0229073D02*
X0106068Y0229073D01*
X0108613Y0229073D02*
X0117879Y0229073D01*
X0116253Y0229871D02*
X0110238Y0229871D01*
X0111037Y0230670D02*
X0115455Y0230670D01*
X0114936Y0231468D02*
X0111555Y0231468D01*
X0111886Y0232267D02*
X0114605Y0232267D01*
X0114413Y0233065D02*
X0112079Y0233065D01*
X0112079Y0233864D02*
X0114413Y0233864D01*
X0114431Y0234662D02*
X0112060Y0234662D01*
X0111729Y0235461D02*
X0114762Y0235461D01*
X0115093Y0236259D02*
X0111399Y0236259D01*
X0110658Y0237058D02*
X0115833Y0237058D01*
X0116865Y0237856D02*
X0109627Y0237856D01*
X0098863Y0239453D02*
X0092196Y0239453D01*
X0093060Y0240252D02*
X0097999Y0240252D01*
X0097327Y0241050D02*
X0093731Y0241050D01*
X0094062Y0241849D02*
X0096997Y0241849D01*
X0096696Y0242647D02*
X0094362Y0242647D01*
X0094362Y0243446D02*
X0096696Y0243446D01*
X0096696Y0244244D02*
X0094362Y0244244D01*
X0094121Y0245043D02*
X0096938Y0245043D01*
X0097269Y0245841D02*
X0093790Y0245841D01*
X0093202Y0246640D02*
X0097856Y0246640D01*
X0098655Y0247438D02*
X0092404Y0247438D01*
X0086844Y0247438D02*
X0049935Y0247438D01*
X0049935Y0246640D02*
X0086045Y0246640D01*
X0085458Y0245841D02*
X0049935Y0245841D01*
X0049935Y0245043D02*
X0085127Y0245043D01*
X0084885Y0244244D02*
X0049935Y0244244D01*
X0049935Y0243446D02*
X0084885Y0243446D01*
X0084885Y0242647D02*
X0049935Y0242647D01*
X0049935Y0241849D02*
X0085186Y0241849D01*
X0085516Y0241050D02*
X0049935Y0241050D01*
X0049935Y0240252D02*
X0086188Y0240252D01*
X0087052Y0239453D02*
X0049935Y0239453D01*
X0049935Y0249834D02*
X0223800Y0249834D01*
X0223800Y0250632D02*
X0049935Y0250632D01*
X0049935Y0251431D02*
X0223800Y0251431D01*
X0223800Y0252229D02*
X0049935Y0252229D01*
X0049935Y0253028D02*
X0223800Y0253028D01*
X0223800Y0253827D02*
X0049935Y0253827D01*
X0049935Y0254625D02*
X0223800Y0254625D01*
X0223800Y0255424D02*
X0049935Y0255424D01*
X0049935Y0256222D02*
X0223800Y0256222D01*
X0223800Y0257021D02*
X0049935Y0257021D01*
X0049935Y0257819D02*
X0223800Y0257819D01*
X0223800Y0258618D02*
X0049935Y0258618D01*
X0049935Y0259416D02*
X0223800Y0259416D01*
X0223800Y0260215D02*
X0049935Y0260215D01*
X0049935Y0261013D02*
X0223800Y0261013D01*
X0223800Y0261812D02*
X0215675Y0261812D01*
X0214226Y0261212D02*
X0217128Y0262414D01*
X0219349Y0264635D01*
X0220551Y0267537D01*
X0220551Y0270678D01*
X0219349Y0273580D01*
X0217128Y0275802D01*
X0214226Y0277004D01*
X0211085Y0277004D01*
X0208182Y0275802D01*
X0205961Y0273580D01*
X0204759Y0270678D01*
X0204759Y0267537D01*
X0205961Y0264635D01*
X0208182Y0262414D01*
X0211085Y0261212D01*
X0214226Y0261212D01*
X0209636Y0261812D02*
X0064100Y0261812D01*
X0062651Y0261212D02*
X0065553Y0262414D01*
X0067774Y0264635D01*
X0068976Y0267537D01*
X0068976Y0270678D01*
X0067774Y0273580D01*
X0065553Y0275802D01*
X0062651Y0277004D01*
X0059510Y0277004D01*
X0056608Y0275802D01*
X0054386Y0273580D01*
X0053184Y0270678D01*
X0053184Y0267537D01*
X0054386Y0264635D01*
X0056608Y0262414D01*
X0059510Y0261212D01*
X0062651Y0261212D01*
X0065750Y0262610D02*
X0207986Y0262610D01*
X0207187Y0263409D02*
X0066548Y0263409D01*
X0067347Y0264207D02*
X0206389Y0264207D01*
X0205808Y0265006D02*
X0067928Y0265006D01*
X0068259Y0265804D02*
X0205477Y0265804D01*
X0205146Y0266603D02*
X0068589Y0266603D01*
X0068920Y0267401D02*
X0204815Y0267401D01*
X0204759Y0268200D02*
X0068976Y0268200D01*
X0068976Y0268998D02*
X0204759Y0268998D01*
X0204759Y0269797D02*
X0068976Y0269797D01*
X0068976Y0270595D02*
X0204759Y0270595D01*
X0205056Y0271394D02*
X0068680Y0271394D01*
X0068349Y0272192D02*
X0205386Y0272192D01*
X0205717Y0272991D02*
X0068019Y0272991D01*
X0067565Y0273789D02*
X0206170Y0273789D01*
X0206969Y0274588D02*
X0066767Y0274588D01*
X0065968Y0275386D02*
X0207767Y0275386D01*
X0209108Y0276185D02*
X0064628Y0276185D01*
X0062700Y0276983D02*
X0211036Y0276983D01*
X0214275Y0276983D02*
X0223800Y0276983D01*
X0223800Y0276185D02*
X0216203Y0276185D01*
X0217543Y0275386D02*
X0223800Y0275386D01*
X0223800Y0274588D02*
X0218342Y0274588D01*
X0219140Y0273789D02*
X0223800Y0273789D01*
X0223800Y0272991D02*
X0219593Y0272991D01*
X0219924Y0272192D02*
X0223800Y0272192D01*
X0223800Y0271394D02*
X0220255Y0271394D01*
X0220551Y0270595D02*
X0223800Y0270595D01*
X0223800Y0269797D02*
X0220551Y0269797D01*
X0220551Y0268998D02*
X0223800Y0268998D01*
X0223800Y0268200D02*
X0220551Y0268200D01*
X0220495Y0267401D02*
X0223800Y0267401D01*
X0223800Y0266603D02*
X0220164Y0266603D01*
X0219834Y0265804D02*
X0223800Y0265804D01*
X0223800Y0265006D02*
X0219503Y0265006D01*
X0218922Y0264207D02*
X0223800Y0264207D01*
X0223800Y0263409D02*
X0218123Y0263409D01*
X0217324Y0262610D02*
X0223800Y0262610D01*
X0223800Y0277782D02*
X0049935Y0277782D01*
X0049935Y0278580D02*
X0223800Y0278580D01*
X0223800Y0223483D02*
X0205031Y0223483D01*
X0205830Y0222685D02*
X0223800Y0222685D01*
X0223800Y0221886D02*
X0206210Y0221886D01*
X0206210Y0221088D02*
X0223800Y0221088D01*
X0223800Y0220289D02*
X0206100Y0220289D01*
X0205302Y0219491D02*
X0223800Y0219491D01*
X0223800Y0217095D02*
X0214544Y0217095D01*
X0202789Y0223483D02*
X0202531Y0223483D01*
X0202525Y0206714D02*
X0202795Y0206714D01*
X0182948Y0214699D02*
X0173464Y0214699D01*
X0175154Y0213901D02*
X0181259Y0213901D01*
X0180461Y0213102D02*
X0175952Y0213102D01*
X0176497Y0212304D02*
X0179915Y0212304D01*
X0179585Y0211505D02*
X0176828Y0211505D01*
X0177039Y0210707D02*
X0179373Y0210707D01*
X0179704Y0208311D02*
X0176709Y0208311D01*
X0176378Y0207513D02*
X0180035Y0207513D01*
X0180749Y0206714D02*
X0175664Y0206714D01*
X0174697Y0205916D02*
X0181716Y0205916D01*
X0171137Y0214699D02*
X0161653Y0214699D01*
X0163343Y0213901D02*
X0169448Y0213901D01*
X0168649Y0213102D02*
X0164141Y0213102D01*
X0164686Y0212304D02*
X0168104Y0212304D01*
X0167774Y0211505D02*
X0165017Y0211505D01*
X0165228Y0210707D02*
X0167562Y0210707D01*
X0167893Y0208311D02*
X0164898Y0208311D01*
X0164567Y0207513D02*
X0168224Y0207513D01*
X0168938Y0206714D02*
X0163853Y0206714D01*
X0162886Y0205916D02*
X0169905Y0205916D01*
X0164628Y0215498D02*
X0156352Y0215498D01*
X0155527Y0215156D02*
X0157269Y0215878D01*
X0158602Y0217211D01*
X0159323Y0218952D01*
X0159323Y0220838D01*
X0158602Y0222579D01*
X0157269Y0223912D01*
X0155527Y0224634D01*
X0153642Y0224634D01*
X0151900Y0223912D01*
X0150567Y0222579D01*
X0149846Y0220838D01*
X0149846Y0218952D01*
X0150567Y0217211D01*
X0151900Y0215878D01*
X0153642Y0215156D01*
X0155527Y0215156D01*
X0156838Y0213102D02*
X0152330Y0213102D01*
X0152875Y0212304D02*
X0156293Y0212304D01*
X0155963Y0211505D02*
X0153206Y0211505D01*
X0153417Y0210707D02*
X0155751Y0210707D01*
X0156082Y0208311D02*
X0153087Y0208311D01*
X0152756Y0207513D02*
X0156413Y0207513D01*
X0157127Y0206714D02*
X0152042Y0206714D01*
X0151075Y0205916D02*
X0158094Y0205916D01*
X0157637Y0213901D02*
X0151532Y0213901D01*
X0149842Y0214699D02*
X0159326Y0214699D01*
X0157687Y0216296D02*
X0163292Y0216296D01*
X0162494Y0217095D02*
X0158486Y0217095D01*
X0158884Y0217894D02*
X0162095Y0217894D01*
X0161765Y0218692D02*
X0159215Y0218692D01*
X0159323Y0219491D02*
X0161657Y0219491D01*
X0161657Y0220289D02*
X0159323Y0220289D01*
X0159219Y0221088D02*
X0161760Y0221088D01*
X0162091Y0221886D02*
X0158889Y0221886D01*
X0158496Y0222685D02*
X0162484Y0222685D01*
X0163282Y0223483D02*
X0157698Y0223483D01*
X0156377Y0224282D02*
X0164603Y0224282D01*
X0165123Y0229073D02*
X0144046Y0229073D01*
X0145671Y0229871D02*
X0163497Y0229871D01*
X0162699Y0230670D02*
X0146470Y0230670D01*
X0146988Y0231468D02*
X0162180Y0231468D01*
X0161849Y0232267D02*
X0147319Y0232267D01*
X0147512Y0233065D02*
X0161657Y0233065D01*
X0161657Y0233864D02*
X0147512Y0233864D01*
X0147493Y0234662D02*
X0161676Y0234662D01*
X0162006Y0235461D02*
X0147162Y0235461D01*
X0146832Y0236259D02*
X0162337Y0236259D01*
X0163077Y0237058D02*
X0146091Y0237058D01*
X0145060Y0237856D02*
X0164109Y0237856D01*
X0152792Y0224282D02*
X0144566Y0224282D01*
X0143716Y0224634D02*
X0145458Y0223912D01*
X0146790Y0222579D01*
X0147512Y0220838D01*
X0147512Y0218952D01*
X0146790Y0217211D01*
X0145458Y0215878D01*
X0143716Y0215156D01*
X0141831Y0215156D01*
X0140089Y0215878D01*
X0138756Y0217211D01*
X0138035Y0218952D01*
X0138035Y0220838D01*
X0138756Y0222579D01*
X0140089Y0223912D01*
X0141831Y0224634D01*
X0143716Y0224634D01*
X0145887Y0223483D02*
X0151471Y0223483D01*
X0150673Y0222685D02*
X0146685Y0222685D01*
X0147078Y0221886D02*
X0150280Y0221886D01*
X0149949Y0221088D02*
X0147408Y0221088D01*
X0147512Y0220289D02*
X0149846Y0220289D01*
X0149846Y0219491D02*
X0147512Y0219491D01*
X0147404Y0218692D02*
X0149954Y0218692D01*
X0150284Y0217894D02*
X0147073Y0217894D01*
X0146675Y0217095D02*
X0150683Y0217095D01*
X0151481Y0216296D02*
X0145876Y0216296D01*
X0144541Y0215498D02*
X0152817Y0215498D01*
X0147515Y0214699D02*
X0138031Y0214699D01*
X0139721Y0213901D02*
X0145826Y0213901D01*
X0145027Y0213102D02*
X0140519Y0213102D01*
X0141064Y0212304D02*
X0144482Y0212304D01*
X0144152Y0211505D02*
X0141395Y0211505D01*
X0141606Y0210707D02*
X0143940Y0210707D01*
X0144271Y0208311D02*
X0141276Y0208311D01*
X0140945Y0207513D02*
X0144602Y0207513D01*
X0145316Y0206714D02*
X0140231Y0206714D01*
X0139264Y0205916D02*
X0146283Y0205916D01*
X0141006Y0215498D02*
X0132730Y0215498D01*
X0131905Y0215156D02*
X0133646Y0215878D01*
X0134979Y0217211D01*
X0135701Y0218952D01*
X0135701Y0220838D01*
X0134979Y0222579D01*
X0133646Y0223912D01*
X0131905Y0224634D01*
X0130020Y0224634D01*
X0128278Y0223912D01*
X0126945Y0222579D01*
X0126224Y0220838D01*
X0126224Y0218952D01*
X0126945Y0217211D01*
X0128278Y0215878D01*
X0130020Y0215156D01*
X0131905Y0215156D01*
X0133216Y0213102D02*
X0128708Y0213102D01*
X0129253Y0212304D02*
X0132671Y0212304D01*
X0132341Y0211505D02*
X0129584Y0211505D01*
X0129795Y0210707D02*
X0132129Y0210707D01*
X0132460Y0208311D02*
X0129465Y0208311D01*
X0129134Y0207513D02*
X0132791Y0207513D01*
X0133505Y0206714D02*
X0128420Y0206714D01*
X0127453Y0205916D02*
X0134472Y0205916D01*
X0134015Y0213901D02*
X0127910Y0213901D01*
X0126220Y0214699D02*
X0135704Y0214699D01*
X0134065Y0216296D02*
X0139670Y0216296D01*
X0138872Y0217095D02*
X0134864Y0217095D01*
X0135262Y0217894D02*
X0138473Y0217894D01*
X0138143Y0218692D02*
X0135593Y0218692D01*
X0135701Y0219491D02*
X0138035Y0219491D01*
X0138035Y0220289D02*
X0135701Y0220289D01*
X0135597Y0221088D02*
X0138138Y0221088D01*
X0138469Y0221886D02*
X0135267Y0221886D01*
X0134874Y0222685D02*
X0138862Y0222685D01*
X0139660Y0223483D02*
X0134076Y0223483D01*
X0132755Y0224282D02*
X0140981Y0224282D01*
X0129195Y0215498D02*
X0120918Y0215498D01*
X0120094Y0215156D02*
X0121835Y0215878D01*
X0123168Y0217211D01*
X0123890Y0218952D01*
X0123890Y0220838D01*
X0123168Y0222579D01*
X0121835Y0223912D01*
X0120094Y0224634D01*
X0118209Y0224634D01*
X0116467Y0223912D01*
X0115134Y0222579D01*
X0114413Y0220838D01*
X0114413Y0218952D01*
X0115134Y0217211D01*
X0116467Y0215878D01*
X0118209Y0215156D01*
X0120094Y0215156D01*
X0121405Y0213102D02*
X0116897Y0213102D01*
X0117442Y0212304D02*
X0120860Y0212304D01*
X0120530Y0211505D02*
X0117773Y0211505D01*
X0117984Y0210707D02*
X0120318Y0210707D01*
X0120649Y0208311D02*
X0117654Y0208311D01*
X0117323Y0207513D02*
X0120980Y0207513D01*
X0121694Y0206714D02*
X0116609Y0206714D01*
X0115642Y0205916D02*
X0122661Y0205916D01*
X0122204Y0213901D02*
X0116099Y0213901D01*
X0114409Y0214699D02*
X0123893Y0214699D01*
X0122254Y0216296D02*
X0127859Y0216296D01*
X0127061Y0217095D02*
X0123053Y0217095D01*
X0123451Y0217894D02*
X0126662Y0217894D01*
X0126332Y0218692D02*
X0123782Y0218692D01*
X0123890Y0219491D02*
X0126224Y0219491D01*
X0126224Y0220289D02*
X0123890Y0220289D01*
X0123786Y0221088D02*
X0126327Y0221088D01*
X0126658Y0221886D02*
X0123456Y0221886D01*
X0123063Y0222685D02*
X0127051Y0222685D01*
X0127849Y0223483D02*
X0122265Y0223483D01*
X0120944Y0224282D02*
X0129170Y0224282D01*
X0117359Y0224282D02*
X0109132Y0224282D01*
X0108283Y0224634D02*
X0106398Y0224634D01*
X0104656Y0223912D01*
X0103323Y0222579D01*
X0102602Y0220838D01*
X0102602Y0218952D01*
X0103323Y0217211D01*
X0104656Y0215878D01*
X0106398Y0215156D01*
X0108283Y0215156D01*
X0110024Y0215878D01*
X0111357Y0217211D01*
X0112079Y0218952D01*
X0112079Y0220838D01*
X0111357Y0222579D01*
X0110024Y0223912D01*
X0108283Y0224634D01*
X0110453Y0223483D02*
X0116038Y0223483D01*
X0115240Y0222685D02*
X0111252Y0222685D01*
X0111645Y0221886D02*
X0114847Y0221886D01*
X0114516Y0221088D02*
X0111975Y0221088D01*
X0112079Y0220289D02*
X0114413Y0220289D01*
X0114413Y0219491D02*
X0112079Y0219491D01*
X0111971Y0218692D02*
X0114521Y0218692D01*
X0114851Y0217894D02*
X0111640Y0217894D01*
X0111242Y0217095D02*
X0115250Y0217095D01*
X0116048Y0216296D02*
X0110443Y0216296D01*
X0109107Y0215498D02*
X0117384Y0215498D01*
X0112082Y0214699D02*
X0102598Y0214699D01*
X0104288Y0213901D02*
X0110393Y0213901D01*
X0109594Y0213102D02*
X0105086Y0213102D01*
X0105631Y0212304D02*
X0109049Y0212304D01*
X0108719Y0211505D02*
X0105962Y0211505D01*
X0106173Y0210707D02*
X0108507Y0210707D01*
X0108838Y0208311D02*
X0105843Y0208311D01*
X0105512Y0207513D02*
X0109169Y0207513D01*
X0109882Y0206714D02*
X0104798Y0206714D01*
X0103831Y0205916D02*
X0110850Y0205916D01*
X0105573Y0215498D02*
X0097296Y0215498D01*
X0098632Y0216296D02*
X0104237Y0216296D01*
X0103439Y0217095D02*
X0099431Y0217095D01*
X0099829Y0217894D02*
X0103040Y0217894D01*
X0102710Y0218692D02*
X0100160Y0218692D01*
X0100268Y0219491D02*
X0102602Y0219491D01*
X0102602Y0220289D02*
X0100268Y0220289D01*
X0100164Y0221088D02*
X0102705Y0221088D01*
X0103036Y0221886D02*
X0099833Y0221886D01*
X0099441Y0222685D02*
X0103428Y0222685D01*
X0104227Y0223483D02*
X0098642Y0223483D01*
X0097321Y0224282D02*
X0105548Y0224282D01*
X0059461Y0276983D02*
X0049935Y0276983D01*
X0049935Y0276185D02*
X0057533Y0276185D01*
X0056192Y0275386D02*
X0049935Y0275386D01*
X0049935Y0274588D02*
X0055394Y0274588D01*
X0054595Y0273789D02*
X0049935Y0273789D01*
X0049935Y0272991D02*
X0054142Y0272991D01*
X0053812Y0272192D02*
X0049935Y0272192D01*
X0049935Y0271394D02*
X0053481Y0271394D01*
X0053184Y0270595D02*
X0049935Y0270595D01*
X0049935Y0269797D02*
X0053184Y0269797D01*
X0053184Y0268998D02*
X0049935Y0268998D01*
X0049935Y0268200D02*
X0053184Y0268200D01*
X0053241Y0267401D02*
X0049935Y0267401D01*
X0049935Y0266603D02*
X0053571Y0266603D01*
X0053902Y0265804D02*
X0049935Y0265804D01*
X0049935Y0265006D02*
X0054233Y0265006D01*
X0054814Y0264207D02*
X0049935Y0264207D01*
X0049935Y0263409D02*
X0055613Y0263409D01*
X0056411Y0262610D02*
X0049935Y0262610D01*
X0049935Y0261812D02*
X0058061Y0261812D01*
X0143843Y0162796D02*
X0146477Y0162796D01*
X0146707Y0163027D02*
X0145360Y0161679D01*
X0145360Y0159774D01*
X0146707Y0158427D01*
X0148613Y0158427D01*
X0149960Y0159774D01*
X0149960Y0161679D01*
X0148613Y0163027D01*
X0146707Y0163027D01*
X0145678Y0161998D02*
X0144642Y0161998D01*
X0144960Y0161199D02*
X0145360Y0161199D01*
X0145360Y0160401D02*
X0144960Y0160401D01*
X0144788Y0159602D02*
X0145532Y0159602D01*
X0146330Y0158804D02*
X0143990Y0158804D01*
X0148990Y0158804D02*
X0151330Y0158804D01*
X0150532Y0159602D02*
X0149788Y0159602D01*
X0149960Y0160401D02*
X0150360Y0160401D01*
X0150360Y0161199D02*
X0149960Y0161199D01*
X0149642Y0161998D02*
X0150678Y0161998D01*
X0151477Y0162796D02*
X0148843Y0162796D01*
X0154050Y0153214D02*
X0156270Y0153214D01*
X0155471Y0152416D02*
X0154849Y0152416D01*
X0154960Y0151617D02*
X0155360Y0151617D01*
X0155360Y0150819D02*
X0154960Y0150819D01*
X0154581Y0150020D02*
X0155739Y0150020D01*
X0156538Y0149222D02*
X0153783Y0149222D01*
X0164163Y0159602D02*
X0165532Y0159602D01*
X0165227Y0162796D02*
X0164468Y0162796D01*
X0163670Y0163595D02*
X0166026Y0163595D01*
X0172593Y0162796D02*
X0223800Y0162796D01*
X0223800Y0161998D02*
X0173392Y0161998D01*
X0173710Y0161199D02*
X0223800Y0161199D01*
X0223800Y0160401D02*
X0173710Y0160401D01*
X0173538Y0159602D02*
X0223800Y0159602D01*
X0223800Y0158804D02*
X0172740Y0158804D01*
X0183877Y0154013D02*
X0189246Y0154013D01*
X0188485Y0156408D02*
X0133085Y0156408D01*
X0133085Y0157207D02*
X0189012Y0157207D01*
X0189811Y0158005D02*
X0132384Y0158005D01*
X0120643Y0120475D02*
X0068664Y0120475D01*
X0069463Y0119677D02*
X0119923Y0119677D01*
X0119593Y0118878D02*
X0069960Y0118878D01*
X0069960Y0118080D02*
X0119385Y0118080D01*
X0119385Y0117281D02*
X0093733Y0117281D01*
X0094532Y0116483D02*
X0119527Y0116483D01*
X0119858Y0115684D02*
X0094960Y0115684D01*
X0094960Y0114886D02*
X0120486Y0114886D01*
X0121579Y0114087D02*
X0094898Y0114087D01*
X0094100Y0113289D02*
X0156610Y0113289D01*
X0156610Y0112899D02*
X0156610Y0114804D01*
X0157957Y0116152D01*
X0159863Y0116152D01*
X0161210Y0114804D01*
X0161210Y0112899D01*
X0159863Y0111552D01*
X0157957Y0111552D01*
X0156610Y0112899D01*
X0157019Y0112490D02*
X0074149Y0112490D01*
X0074948Y0111691D02*
X0157818Y0111691D01*
X0160003Y0111691D02*
X0168443Y0111691D01*
X0167644Y0112490D02*
X0160801Y0112490D01*
X0161210Y0113289D02*
X0167235Y0113289D01*
X0167235Y0114087D02*
X0161210Y0114087D01*
X0161129Y0114886D02*
X0167316Y0114886D01*
X0168115Y0115684D02*
X0160330Y0115684D01*
X0157490Y0115684D02*
X0136712Y0115684D01*
X0136084Y0114886D02*
X0156691Y0114886D01*
X0156610Y0114087D02*
X0134991Y0114087D01*
X0121061Y0110893D02*
X0074960Y0110893D01*
X0074960Y0110094D02*
X0120263Y0110094D01*
X0119766Y0109296D02*
X0074482Y0109296D01*
X0073684Y0108497D02*
X0119435Y0108497D01*
X0121130Y0090930D02*
X0105709Y0090930D01*
X0105488Y0091152D02*
X0103582Y0091152D01*
X0103285Y0090854D01*
X0102988Y0091152D01*
X0101082Y0091152D01*
X0099735Y0089804D01*
X0099735Y0087899D01*
X0100032Y0087602D01*
X0099735Y0087304D01*
X0099735Y0085399D01*
X0101082Y0084052D01*
X0102988Y0084052D01*
X0103285Y0084349D01*
X0103582Y0084052D01*
X0105488Y0084052D01*
X0106835Y0085399D01*
X0106835Y0087304D01*
X0106538Y0087602D01*
X0106835Y0087899D01*
X0106835Y0089804D01*
X0105488Y0091152D01*
X0106508Y0090132D02*
X0120300Y0090132D01*
X0119781Y0089333D02*
X0106835Y0089333D01*
X0106835Y0088535D02*
X0119450Y0088535D01*
X0119385Y0087736D02*
X0106672Y0087736D01*
X0106835Y0086938D02*
X0119385Y0086938D01*
X0119670Y0086139D02*
X0106835Y0086139D01*
X0106777Y0085341D02*
X0120031Y0085341D01*
X0120829Y0084542D02*
X0105978Y0084542D01*
X0100592Y0084542D02*
X0049935Y0084542D01*
X0049935Y0083744D02*
X0122408Y0083744D01*
X0117182Y0079751D02*
X0083687Y0079751D01*
X0086610Y0077304D02*
X0086610Y0075399D01*
X0087957Y0074052D01*
X0089863Y0074052D01*
X0091210Y0075399D01*
X0091210Y0077304D01*
X0089863Y0078652D01*
X0087957Y0078652D01*
X0086610Y0077304D01*
X0086661Y0077356D02*
X0049935Y0077356D01*
X0049935Y0078154D02*
X0087460Y0078154D01*
X0086610Y0076557D02*
X0049935Y0076557D01*
X0049935Y0075758D02*
X0086610Y0075758D01*
X0087049Y0074960D02*
X0049935Y0074960D01*
X0049935Y0074161D02*
X0087848Y0074161D01*
X0089973Y0074161D02*
X0223800Y0074161D01*
X0223800Y0073363D02*
X0049935Y0073363D01*
X0049935Y0072564D02*
X0223800Y0072564D01*
X0223800Y0071766D02*
X0167374Y0071766D01*
X0166738Y0072402D02*
X0164832Y0072402D01*
X0163485Y0071054D01*
X0163485Y0069149D01*
X0164832Y0067802D01*
X0166738Y0067802D01*
X0168085Y0069149D01*
X0168085Y0071054D01*
X0166738Y0072402D01*
X0168085Y0070967D02*
X0182470Y0070967D01*
X0182326Y0070908D02*
X0181229Y0069811D01*
X0180635Y0068377D01*
X0180635Y0066826D01*
X0181229Y0065392D01*
X0182326Y0064295D01*
X0183759Y0063702D01*
X0185311Y0063702D01*
X0186744Y0064295D01*
X0187841Y0065392D01*
X0188435Y0066826D01*
X0188435Y0068377D01*
X0187841Y0069811D01*
X0186744Y0070908D01*
X0185311Y0071502D01*
X0183759Y0071502D01*
X0182326Y0070908D01*
X0181587Y0070169D02*
X0168085Y0070169D01*
X0168085Y0069370D02*
X0181046Y0069370D01*
X0180716Y0068572D02*
X0167508Y0068572D01*
X0164062Y0068572D02*
X0162508Y0068572D01*
X0163085Y0069149D02*
X0161738Y0067802D01*
X0159832Y0067802D01*
X0158485Y0069149D01*
X0158485Y0071054D01*
X0159832Y0072402D01*
X0161738Y0072402D01*
X0163085Y0071054D01*
X0163085Y0069149D01*
X0163085Y0069370D02*
X0163485Y0069370D01*
X0163485Y0070169D02*
X0163085Y0070169D01*
X0163085Y0070967D02*
X0163485Y0070967D01*
X0164197Y0071766D02*
X0162374Y0071766D01*
X0159197Y0071766D02*
X0049935Y0071766D01*
X0049935Y0070967D02*
X0158485Y0070967D01*
X0158485Y0070169D02*
X0049935Y0070169D01*
X0049935Y0069370D02*
X0158485Y0069370D01*
X0159062Y0068572D02*
X0049935Y0068572D01*
X0049935Y0067773D02*
X0180635Y0067773D01*
X0180635Y0066975D02*
X0049935Y0066975D01*
X0049935Y0066176D02*
X0180904Y0066176D01*
X0181244Y0065378D02*
X0049935Y0065378D01*
X0049935Y0064579D02*
X0182042Y0064579D01*
X0183568Y0063781D02*
X0049935Y0063781D01*
X0049935Y0062982D02*
X0223800Y0062982D01*
X0223800Y0062184D02*
X0049935Y0062184D01*
X0049935Y0061385D02*
X0063816Y0061385D01*
X0063018Y0060587D02*
X0049935Y0060587D01*
X0049935Y0059788D02*
X0062860Y0059788D01*
X0062860Y0058990D02*
X0049935Y0058990D01*
X0049935Y0058191D02*
X0063193Y0058191D01*
X0062949Y0057393D02*
X0049935Y0057393D01*
X0049935Y0056594D02*
X0062860Y0056594D01*
X0062860Y0055796D02*
X0049935Y0055796D01*
X0049935Y0054997D02*
X0063262Y0054997D01*
X0072058Y0054997D02*
X0158887Y0054997D01*
X0159207Y0054677D02*
X0161113Y0054677D01*
X0162460Y0056024D01*
X0162460Y0057929D01*
X0161113Y0059277D01*
X0159207Y0059277D01*
X0157860Y0057929D01*
X0157860Y0056024D01*
X0159207Y0054677D01*
X0158088Y0055796D02*
X0072460Y0055796D01*
X0072460Y0056594D02*
X0157860Y0056594D01*
X0157860Y0057393D02*
X0072372Y0057393D01*
X0072127Y0058191D02*
X0158122Y0058191D01*
X0158921Y0058990D02*
X0072460Y0058990D01*
X0072460Y0059788D02*
X0181220Y0059788D01*
X0180889Y0058990D02*
X0161400Y0058990D01*
X0162198Y0058191D02*
X0180635Y0058191D01*
X0180635Y0057393D02*
X0162460Y0057393D01*
X0162460Y0056594D02*
X0180731Y0056594D01*
X0181062Y0055796D02*
X0162232Y0055796D01*
X0161433Y0054997D02*
X0181624Y0054997D01*
X0182005Y0060587D02*
X0072303Y0060587D01*
X0071504Y0061385D02*
X0183478Y0061385D01*
X0185592Y0061385D02*
X0193478Y0061385D01*
X0192005Y0060587D02*
X0187065Y0060587D01*
X0187851Y0059788D02*
X0191220Y0059788D01*
X0190889Y0058990D02*
X0188181Y0058990D01*
X0188435Y0058191D02*
X0190635Y0058191D01*
X0190635Y0057393D02*
X0188435Y0057393D01*
X0188339Y0056594D02*
X0190731Y0056594D01*
X0191062Y0055796D02*
X0188008Y0055796D01*
X0187446Y0054997D02*
X0191624Y0054997D01*
X0195592Y0061385D02*
X0223800Y0061385D01*
X0223800Y0060587D02*
X0197065Y0060587D01*
X0197851Y0059788D02*
X0223800Y0059788D01*
X0223800Y0058990D02*
X0223275Y0058990D01*
X0220796Y0058990D02*
X0198181Y0058990D01*
X0198435Y0058191D02*
X0219997Y0058191D01*
X0219735Y0057393D02*
X0198435Y0057393D01*
X0198339Y0056594D02*
X0219735Y0056594D01*
X0219963Y0055796D02*
X0198008Y0055796D01*
X0197446Y0054997D02*
X0220762Y0054997D01*
X0223308Y0054997D02*
X0223800Y0054997D01*
X0223800Y0063781D02*
X0215502Y0063781D01*
X0215311Y0063702D02*
X0216744Y0064295D01*
X0217841Y0065392D01*
X0218435Y0066826D01*
X0218435Y0068377D01*
X0217841Y0069811D01*
X0216744Y0070908D01*
X0215311Y0071502D01*
X0213759Y0071502D01*
X0212326Y0070908D01*
X0211229Y0069811D01*
X0210635Y0068377D01*
X0210635Y0066826D01*
X0211229Y0065392D01*
X0212326Y0064295D01*
X0213759Y0063702D01*
X0215311Y0063702D01*
X0213568Y0063781D02*
X0205502Y0063781D01*
X0205311Y0063702D02*
X0206744Y0064295D01*
X0207841Y0065392D01*
X0208435Y0066826D01*
X0208435Y0068377D01*
X0207841Y0069811D01*
X0206744Y0070908D01*
X0205311Y0071502D01*
X0203759Y0071502D01*
X0202326Y0070908D01*
X0201229Y0069811D01*
X0200635Y0068377D01*
X0200635Y0066826D01*
X0201229Y0065392D01*
X0202326Y0064295D01*
X0203759Y0063702D01*
X0205311Y0063702D01*
X0203568Y0063781D02*
X0195502Y0063781D01*
X0195311Y0063702D02*
X0196744Y0064295D01*
X0197841Y0065392D01*
X0198435Y0066826D01*
X0198435Y0068377D01*
X0197841Y0069811D01*
X0196744Y0070908D01*
X0195311Y0071502D01*
X0193759Y0071502D01*
X0192326Y0070908D01*
X0191229Y0069811D01*
X0190635Y0068377D01*
X0190635Y0066826D01*
X0191229Y0065392D01*
X0192326Y0064295D01*
X0193759Y0063702D01*
X0195311Y0063702D01*
X0193568Y0063781D02*
X0185502Y0063781D01*
X0187028Y0064579D02*
X0192042Y0064579D01*
X0191244Y0065378D02*
X0187827Y0065378D01*
X0188166Y0066176D02*
X0190904Y0066176D01*
X0190635Y0066975D02*
X0188435Y0066975D01*
X0188435Y0067773D02*
X0190635Y0067773D01*
X0190716Y0068572D02*
X0188355Y0068572D01*
X0188024Y0069370D02*
X0191046Y0069370D01*
X0191587Y0070169D02*
X0187483Y0070169D01*
X0186601Y0070967D02*
X0192470Y0070967D01*
X0196601Y0070967D02*
X0202470Y0070967D01*
X0201587Y0070169D02*
X0197483Y0070169D01*
X0198024Y0069370D02*
X0201046Y0069370D01*
X0200716Y0068572D02*
X0198355Y0068572D01*
X0198435Y0067773D02*
X0200635Y0067773D01*
X0200635Y0066975D02*
X0198435Y0066975D01*
X0198166Y0066176D02*
X0200904Y0066176D01*
X0201244Y0065378D02*
X0197827Y0065378D01*
X0197028Y0064579D02*
X0202042Y0064579D01*
X0207028Y0064579D02*
X0212042Y0064579D01*
X0211244Y0065378D02*
X0207827Y0065378D01*
X0208166Y0066176D02*
X0210904Y0066176D01*
X0210635Y0066975D02*
X0208435Y0066975D01*
X0208435Y0067773D02*
X0210635Y0067773D01*
X0210716Y0068572D02*
X0208355Y0068572D01*
X0208024Y0069370D02*
X0211046Y0069370D01*
X0211587Y0070169D02*
X0207483Y0070169D01*
X0206601Y0070967D02*
X0212470Y0070967D01*
X0216601Y0070967D02*
X0223800Y0070967D01*
X0223800Y0070169D02*
X0217483Y0070169D01*
X0218024Y0069370D02*
X0223800Y0069370D01*
X0223800Y0068572D02*
X0218355Y0068572D01*
X0218435Y0067773D02*
X0223800Y0067773D01*
X0223800Y0066975D02*
X0218435Y0066975D01*
X0218166Y0066176D02*
X0223800Y0066176D01*
X0223800Y0065378D02*
X0217827Y0065378D01*
X0217028Y0064579D02*
X0223800Y0064579D01*
X0223800Y0074960D02*
X0090771Y0074960D01*
X0091210Y0075758D02*
X0223800Y0075758D01*
X0180210Y0080550D02*
X0178861Y0080550D01*
X0178972Y0084542D02*
X0180098Y0084542D01*
X0170383Y0079751D02*
X0137460Y0079751D01*
X0137460Y0080550D02*
X0169585Y0080550D01*
X0169110Y0081348D02*
X0169034Y0081348D01*
X0166286Y0081348D02*
X0137166Y0081348D01*
X0136368Y0082147D02*
X0165488Y0082147D01*
X0165596Y0088535D02*
X0167224Y0088535D01*
X0166426Y0089333D02*
X0166394Y0089333D01*
X0163474Y0088535D02*
X0161846Y0088535D01*
X0162644Y0089333D02*
X0162676Y0089333D01*
X0163083Y0092527D02*
X0162237Y0092527D01*
X0165987Y0092527D02*
X0166833Y0092527D01*
X0117327Y0076557D02*
X0091210Y0076557D01*
X0091159Y0077356D02*
X0116610Y0077356D01*
X0116610Y0078154D02*
X0090360Y0078154D01*
X0099793Y0085341D02*
X0049935Y0085341D01*
X0049935Y0086139D02*
X0099735Y0086139D01*
X0099735Y0086938D02*
X0049935Y0086938D01*
X0049935Y0087736D02*
X0099898Y0087736D01*
X0099735Y0088535D02*
X0049935Y0088535D01*
X0049935Y0089333D02*
X0074551Y0089333D01*
X0073752Y0090132D02*
X0049935Y0090132D01*
X0049935Y0090930D02*
X0073485Y0090930D01*
X0073485Y0091729D02*
X0049935Y0091729D01*
X0049935Y0092527D02*
X0073708Y0092527D01*
X0074507Y0093326D02*
X0049935Y0093326D01*
X0049935Y0094124D02*
X0075385Y0094124D01*
X0075360Y0094923D02*
X0049935Y0094923D01*
X0049935Y0095721D02*
X0075360Y0095721D01*
X0075826Y0096520D02*
X0049935Y0096520D01*
X0049935Y0097318D02*
X0074066Y0097318D01*
X0073485Y0098117D02*
X0049935Y0098117D01*
X0049935Y0098915D02*
X0073485Y0098915D01*
X0073485Y0099714D02*
X0049935Y0099714D01*
X0049935Y0100512D02*
X0074193Y0100512D01*
X0078696Y0097318D02*
X0079749Y0097318D01*
X0079735Y0096520D02*
X0079495Y0096520D01*
X0079960Y0094923D02*
X0080211Y0094923D01*
X0079935Y0094124D02*
X0081010Y0094124D01*
X0079137Y0093326D02*
X0087632Y0093326D01*
X0086833Y0092527D02*
X0077862Y0092527D01*
X0078085Y0091729D02*
X0086610Y0091729D01*
X0086610Y0090930D02*
X0078085Y0090930D01*
X0077818Y0090132D02*
X0086877Y0090132D01*
X0087676Y0089333D02*
X0077019Y0089333D01*
X0076626Y0082945D02*
X0049935Y0082945D01*
X0049935Y0082147D02*
X0075985Y0082147D01*
X0075985Y0081348D02*
X0049935Y0081348D01*
X0049935Y0080550D02*
X0075985Y0080550D01*
X0076633Y0079751D02*
X0049935Y0079751D01*
X0049935Y0078953D02*
X0116610Y0078953D01*
X0103361Y0090930D02*
X0103209Y0090930D01*
X0100861Y0090930D02*
X0094241Y0090930D01*
X0090943Y0090132D02*
X0100062Y0090132D01*
X0099735Y0089333D02*
X0090144Y0089333D01*
X0090189Y0093326D02*
X0090360Y0093326D01*
X0090930Y0094124D02*
X0083060Y0094124D01*
X0080376Y0082945D02*
X0079944Y0082945D01*
X0079937Y0079751D02*
X0080383Y0079751D01*
X0090350Y0113289D02*
X0091221Y0113289D01*
X0090788Y0116483D02*
X0090782Y0116483D01*
X0089983Y0117281D02*
X0091587Y0117281D01*
X0087837Y0117281D02*
X0069960Y0117281D01*
X0069169Y0116483D02*
X0087038Y0116483D01*
X0183956Y0150020D02*
X0203239Y0150020D01*
X0202441Y0150819D02*
X0184755Y0150819D01*
X0184960Y0151617D02*
X0202235Y0151617D01*
X0202235Y0152416D02*
X0184960Y0152416D01*
X0184675Y0153214D02*
X0202520Y0153214D01*
X0203318Y0154013D02*
X0192324Y0154013D01*
X0193085Y0154811D02*
X0223800Y0154811D01*
X0223800Y0154013D02*
X0205752Y0154013D01*
X0206550Y0153214D02*
X0223800Y0153214D01*
X0223800Y0152416D02*
X0206835Y0152416D01*
X0193085Y0155610D02*
X0223800Y0155610D01*
X0223800Y0156408D02*
X0193085Y0156408D01*
X0192558Y0157207D02*
X0223800Y0157207D01*
X0223800Y0158005D02*
X0191759Y0158005D01*
M02*
