G75*
%MOIN*%
%OFA0B0*%
%FSLAX25Y25*%
%IPPOS*%
%LPD*%
%AMOC8*
5,1,8,0,0,1.08239X$1,22.5*
%
%ADD10C,0.00500*%
%ADD11C,0.00400*%
%ADD12C,0.00600*%
%ADD13C,0.00300*%
%ADD14R,0.15000X0.02500*%
%ADD15R,0.00984X0.00886*%
%ADD16C,0.00787*%
%ADD17C,0.00394*%
%ADD18C,0.00800*%
%ADD19R,0.09646X0.02657*%
%ADD20C,0.01000*%
%ADD21C,0.00000*%
%ADD22C,0.01181*%
D10*
X0048285Y0052602D02*
X0048285Y0280948D01*
X0225450Y0280948D01*
X0225450Y0052602D01*
X0048285Y0052602D01*
X0077035Y0063227D02*
X0087035Y0063227D01*
X0082035Y0068227D01*
X0077035Y0063227D01*
X0120450Y0058227D02*
X0121410Y0058227D01*
X0121410Y0060102D01*
X0121410Y0058227D02*
X0121410Y0056351D01*
X0121410Y0058227D02*
X0123910Y0060102D01*
X0123910Y0058227D01*
X0124870Y0058227D01*
X0123910Y0058227D02*
X0123910Y0056351D01*
X0121410Y0058227D01*
X0179785Y0076102D02*
X0180536Y0075352D01*
X0181286Y0075352D01*
X0182037Y0076102D01*
X0182037Y0079855D01*
X0181286Y0079855D02*
X0182788Y0079855D01*
X0184389Y0079855D02*
X0186641Y0079855D01*
X0187392Y0079105D01*
X0187392Y0077604D01*
X0186641Y0076853D01*
X0184389Y0076853D01*
X0184389Y0075352D02*
X0184389Y0079855D01*
X0188993Y0079105D02*
X0189744Y0079855D01*
X0191245Y0079855D01*
X0191996Y0079105D01*
X0191996Y0078354D01*
X0191245Y0077604D01*
X0191996Y0076853D01*
X0191996Y0076102D01*
X0191245Y0075352D01*
X0189744Y0075352D01*
X0188993Y0076102D01*
X0190494Y0077604D02*
X0191245Y0077604D01*
X0144784Y0139040D02*
X0145535Y0139791D01*
X0145535Y0140541D01*
X0144784Y0141292D01*
X0141031Y0141292D01*
X0141031Y0142042D02*
X0141031Y0140541D01*
X0141031Y0143644D02*
X0141031Y0145896D01*
X0141782Y0146646D01*
X0143283Y0146646D01*
X0144034Y0145896D01*
X0144034Y0143644D01*
X0145535Y0143644D02*
X0141031Y0143644D01*
X0142533Y0148248D02*
X0141031Y0149749D01*
X0145535Y0149749D01*
X0145535Y0148248D02*
X0145535Y0151250D01*
X0130160Y0187892D02*
X0130160Y0188852D01*
X0132035Y0188852D01*
X0130160Y0191352D01*
X0130160Y0192312D01*
X0130160Y0191352D02*
X0128285Y0191352D01*
X0130160Y0191352D02*
X0128285Y0188852D01*
X0130160Y0188852D01*
X0130160Y0191352D02*
X0132035Y0191352D01*
X0122660Y0191352D02*
X0120785Y0191352D01*
X0120785Y0192312D01*
X0120785Y0191352D02*
X0118910Y0191352D01*
X0120785Y0191352D02*
X0118910Y0188852D01*
X0120785Y0188852D01*
X0120785Y0187892D01*
X0120785Y0188852D02*
X0122660Y0188852D01*
X0120785Y0191352D01*
X0061410Y0240726D02*
X0061410Y0242602D01*
X0062370Y0242602D01*
X0061410Y0242602D02*
X0061410Y0244477D01*
X0058910Y0242602D01*
X0057950Y0242602D01*
X0058910Y0242602D02*
X0058910Y0244477D01*
X0058910Y0242602D02*
X0058910Y0240726D01*
X0058910Y0242602D02*
X0061410Y0240726D01*
X0192906Y0217311D02*
X0193657Y0218062D01*
X0194408Y0218062D01*
X0195158Y0217311D01*
X0195909Y0218062D01*
X0196659Y0218062D01*
X0197410Y0217311D01*
X0197410Y0215810D01*
X0196659Y0215060D01*
X0195158Y0216561D02*
X0195158Y0217311D01*
X0192906Y0217311D02*
X0192906Y0215810D01*
X0193657Y0215060D01*
X0192906Y0213458D02*
X0192906Y0211957D01*
X0192906Y0212708D02*
X0196659Y0212708D01*
X0197410Y0211957D01*
X0197410Y0211206D01*
X0196659Y0210456D01*
X0196659Y0208854D02*
X0197410Y0208104D01*
X0197410Y0206602D01*
X0196659Y0205852D01*
X0195158Y0206602D02*
X0195158Y0208104D01*
X0195909Y0208854D01*
X0196659Y0208854D01*
X0195158Y0206602D02*
X0194408Y0205852D01*
X0193657Y0205852D01*
X0192906Y0206602D01*
X0192906Y0208104D01*
X0193657Y0208854D01*
X0217281Y0211791D02*
X0218032Y0211040D01*
X0218783Y0211040D01*
X0219533Y0211791D01*
X0219533Y0213292D01*
X0220284Y0214042D01*
X0221034Y0214042D01*
X0221785Y0213292D01*
X0221785Y0211791D01*
X0221034Y0211040D01*
X0217281Y0211791D02*
X0217281Y0213292D01*
X0218032Y0214042D01*
X0217281Y0217145D02*
X0217281Y0218646D01*
X0217281Y0217896D02*
X0221034Y0217896D01*
X0221785Y0217145D01*
X0221785Y0216394D01*
X0221034Y0215644D01*
X0221785Y0220248D02*
X0218783Y0223250D01*
X0218032Y0223250D01*
X0217281Y0222500D01*
X0217281Y0220998D01*
X0218032Y0220248D01*
X0221785Y0220248D02*
X0221785Y0223250D01*
X0215160Y0240726D02*
X0215160Y0242602D01*
X0216120Y0242602D01*
X0215160Y0242602D02*
X0215160Y0244477D01*
X0215160Y0242602D02*
X0212660Y0240726D01*
X0212660Y0242602D01*
X0211700Y0242602D01*
X0212660Y0242602D02*
X0212660Y0244477D01*
X0215160Y0242602D01*
D11*
X0216902Y0237906D02*
X0219204Y0237906D01*
X0219972Y0237138D01*
X0219972Y0234069D01*
X0219204Y0233302D01*
X0216902Y0233302D01*
X0216902Y0237906D01*
X0221506Y0237138D02*
X0221506Y0236371D01*
X0222273Y0235604D01*
X0223808Y0235604D01*
X0224575Y0234836D01*
X0224575Y0234069D01*
X0223808Y0233302D01*
X0222273Y0233302D01*
X0221506Y0234069D01*
X0221506Y0234836D01*
X0222273Y0235604D01*
X0223808Y0235604D02*
X0224575Y0236371D01*
X0224575Y0237138D01*
X0223808Y0237906D01*
X0222273Y0237906D01*
X0221506Y0237138D01*
X0224731Y0231892D02*
X0225499Y0230357D01*
X0227033Y0228823D01*
X0227033Y0231125D01*
X0227800Y0231892D01*
X0228568Y0231892D01*
X0229335Y0231125D01*
X0229335Y0229590D01*
X0228568Y0228823D01*
X0227033Y0228823D01*
X0226266Y0227288D02*
X0229335Y0224219D01*
X0229335Y0227288D01*
X0226266Y0227288D02*
X0225499Y0227288D01*
X0224731Y0226521D01*
X0224731Y0224986D01*
X0225499Y0224219D01*
X0225499Y0222684D02*
X0227033Y0222684D01*
X0227800Y0221917D01*
X0227800Y0219615D01*
X0227033Y0219448D02*
X0226266Y0220982D01*
X0226266Y0221750D01*
X0227033Y0222517D01*
X0228568Y0222517D01*
X0229335Y0221750D01*
X0229335Y0220215D01*
X0228568Y0219448D01*
X0229335Y0219615D02*
X0224731Y0219615D01*
X0224731Y0221917D01*
X0225499Y0222684D01*
X0224731Y0222517D02*
X0224731Y0219448D01*
X0227033Y0219448D01*
X0226266Y0217913D02*
X0225499Y0217913D01*
X0224731Y0217146D01*
X0224731Y0215611D01*
X0225499Y0214844D01*
X0225499Y0213309D02*
X0227033Y0213309D01*
X0227800Y0212542D01*
X0227800Y0210240D01*
X0227800Y0211774D02*
X0229335Y0213309D01*
X0229335Y0214844D02*
X0226266Y0217913D01*
X0227800Y0221149D02*
X0229335Y0222684D01*
X0229335Y0217913D02*
X0229335Y0214844D01*
X0229335Y0210240D02*
X0224731Y0210240D01*
X0224731Y0212542D01*
X0225499Y0213309D01*
X0213710Y0201811D02*
X0209106Y0201811D01*
X0211408Y0199510D01*
X0211408Y0202579D01*
X0210641Y0197975D02*
X0209874Y0197975D01*
X0209106Y0197208D01*
X0209106Y0195673D01*
X0209874Y0194906D01*
X0209874Y0193371D02*
X0211408Y0193371D01*
X0212175Y0192604D01*
X0212175Y0190302D01*
X0212175Y0191836D02*
X0213710Y0193371D01*
X0213710Y0194906D02*
X0210641Y0197975D01*
X0213710Y0197975D02*
X0213710Y0194906D01*
X0215981Y0196267D02*
X0216749Y0196267D01*
X0219818Y0193198D01*
X0220585Y0193198D01*
X0220585Y0191663D02*
X0220585Y0188594D01*
X0220585Y0190128D02*
X0215981Y0190128D01*
X0217516Y0188594D01*
X0216749Y0187059D02*
X0215981Y0186292D01*
X0215981Y0184757D01*
X0216749Y0183990D01*
X0219818Y0183990D01*
X0220585Y0184757D01*
X0220585Y0186292D01*
X0219818Y0187059D01*
X0215981Y0193198D02*
X0215981Y0196267D01*
X0213710Y0190302D02*
X0209106Y0190302D01*
X0209106Y0192604D01*
X0209874Y0193371D01*
X0197460Y0193371D02*
X0195925Y0191836D01*
X0195925Y0192604D02*
X0195925Y0190302D01*
X0197460Y0190302D02*
X0192856Y0190302D01*
X0192856Y0192604D01*
X0193624Y0193371D01*
X0195158Y0193371D01*
X0195925Y0192604D01*
X0196693Y0194906D02*
X0197460Y0195673D01*
X0197460Y0197208D01*
X0196693Y0197975D01*
X0195925Y0197975D01*
X0195158Y0197208D01*
X0195158Y0196440D01*
X0195158Y0197208D02*
X0194391Y0197975D01*
X0193624Y0197975D01*
X0192856Y0197208D01*
X0192856Y0195673D01*
X0193624Y0194906D01*
X0193624Y0199510D02*
X0194391Y0199510D01*
X0195158Y0200277D01*
X0195158Y0202579D01*
X0193624Y0202579D02*
X0196693Y0202579D01*
X0197460Y0201811D01*
X0197460Y0200277D01*
X0196693Y0199510D01*
X0193624Y0199510D02*
X0192856Y0200277D01*
X0192856Y0201811D01*
X0193624Y0202579D01*
X0186835Y0201811D02*
X0186835Y0200277D01*
X0186068Y0199510D01*
X0184533Y0199510D02*
X0183766Y0201044D01*
X0183766Y0201811D01*
X0184533Y0202579D01*
X0186068Y0202579D01*
X0186835Y0201811D01*
X0184533Y0199510D02*
X0182231Y0199510D01*
X0182231Y0202579D01*
X0177397Y0202830D02*
X0177397Y0203597D01*
X0176630Y0204364D01*
X0175095Y0204364D01*
X0174328Y0203597D01*
X0172793Y0203597D02*
X0172026Y0204364D01*
X0170491Y0204364D01*
X0169724Y0203597D01*
X0169724Y0200528D01*
X0170491Y0199760D01*
X0172026Y0199760D01*
X0172793Y0200528D01*
X0173283Y0199225D02*
X0173283Y0196156D01*
X0170981Y0198458D01*
X0175585Y0198458D01*
X0174328Y0199760D02*
X0177397Y0199760D01*
X0175585Y0200760D02*
X0174818Y0200760D01*
X0171749Y0203829D01*
X0170981Y0203829D01*
X0170981Y0200760D01*
X0168189Y0199760D02*
X0166654Y0199760D01*
X0167422Y0199760D02*
X0167422Y0204364D01*
X0168189Y0204364D02*
X0166654Y0204364D01*
X0174328Y0199760D02*
X0177397Y0202830D01*
X0180960Y0197475D02*
X0180960Y0194406D01*
X0180960Y0195940D02*
X0176356Y0195940D01*
X0177891Y0194406D01*
X0175585Y0193854D02*
X0174818Y0194621D01*
X0175585Y0193854D02*
X0175585Y0192319D01*
X0174818Y0191552D01*
X0171749Y0191552D01*
X0170981Y0192319D01*
X0170981Y0193854D01*
X0171749Y0194621D01*
X0171210Y0193625D02*
X0171210Y0192090D01*
X0170443Y0191323D01*
X0169675Y0191323D01*
X0168908Y0192090D01*
X0168908Y0193625D01*
X0169675Y0194392D01*
X0170443Y0194392D01*
X0171210Y0193625D01*
X0168908Y0193625D02*
X0168141Y0194392D01*
X0167374Y0194392D01*
X0166606Y0193625D01*
X0166606Y0192090D01*
X0167374Y0191323D01*
X0168141Y0191323D01*
X0168908Y0192090D01*
X0169675Y0189788D02*
X0168908Y0189021D01*
X0168908Y0186719D01*
X0170443Y0186719D01*
X0171210Y0187486D01*
X0171210Y0189021D01*
X0170443Y0189788D01*
X0169675Y0189788D01*
X0167374Y0188253D02*
X0168908Y0186719D01*
X0167374Y0188253D02*
X0166606Y0189788D01*
X0166210Y0189021D02*
X0165443Y0189788D01*
X0164675Y0189788D01*
X0163908Y0189021D01*
X0163908Y0186719D01*
X0165443Y0186719D01*
X0166210Y0187486D01*
X0166210Y0189021D01*
X0166210Y0191323D02*
X0165443Y0191323D01*
X0162374Y0194392D01*
X0161606Y0194392D01*
X0161606Y0191323D01*
X0161606Y0189788D02*
X0162374Y0188253D01*
X0163908Y0186719D01*
X0162374Y0185184D02*
X0161606Y0184417D01*
X0161606Y0182882D01*
X0162374Y0182115D01*
X0165443Y0182115D01*
X0166210Y0182882D01*
X0166210Y0184417D01*
X0165443Y0185184D01*
X0166606Y0184417D02*
X0166606Y0182882D01*
X0167374Y0182115D01*
X0170443Y0182115D01*
X0171210Y0182882D01*
X0171210Y0184417D01*
X0170443Y0185184D01*
X0167374Y0185184D02*
X0166606Y0184417D01*
X0164960Y0182375D02*
X0164193Y0183142D01*
X0161124Y0183142D01*
X0160356Y0182375D01*
X0160356Y0180840D01*
X0161124Y0180073D01*
X0161891Y0180073D01*
X0162658Y0180840D01*
X0162658Y0183142D01*
X0164960Y0182375D02*
X0164960Y0180840D01*
X0164193Y0180073D01*
X0164193Y0178538D02*
X0163425Y0178538D01*
X0162658Y0177771D01*
X0162658Y0175469D01*
X0164193Y0175469D01*
X0164960Y0176236D01*
X0164960Y0177771D01*
X0164193Y0178538D01*
X0161124Y0177003D02*
X0162658Y0175469D01*
X0162658Y0173934D02*
X0163425Y0173167D01*
X0163425Y0170865D01*
X0163425Y0172399D02*
X0164960Y0173934D01*
X0162658Y0173934D02*
X0161124Y0173934D01*
X0160356Y0173167D01*
X0160356Y0170865D01*
X0164960Y0170865D01*
X0161227Y0170753D02*
X0155089Y0170753D01*
X0154960Y0171496D02*
X0153425Y0169961D01*
X0153425Y0170729D02*
X0153425Y0168427D01*
X0154960Y0168427D02*
X0150356Y0168427D01*
X0150356Y0170729D01*
X0151124Y0171496D01*
X0152658Y0171496D01*
X0153425Y0170729D01*
X0152658Y0173031D02*
X0152658Y0176100D01*
X0151124Y0177635D02*
X0150356Y0178402D01*
X0150356Y0179936D01*
X0151124Y0180704D01*
X0151891Y0180704D01*
X0154960Y0177635D01*
X0154960Y0180704D01*
X0153085Y0180382D02*
X0153085Y0181917D01*
X0152318Y0182684D01*
X0153085Y0184219D02*
X0153085Y0187288D01*
X0153085Y0185753D02*
X0148481Y0185753D01*
X0150016Y0184219D01*
X0149249Y0182684D02*
X0148481Y0181917D01*
X0148481Y0180382D01*
X0149249Y0179615D01*
X0152318Y0179615D01*
X0153085Y0180382D01*
X0156624Y0176892D02*
X0155856Y0176125D01*
X0155856Y0174590D01*
X0156624Y0173823D01*
X0156624Y0172288D02*
X0155856Y0171521D01*
X0155856Y0169986D01*
X0156624Y0169219D01*
X0157391Y0169219D01*
X0158158Y0169986D01*
X0158158Y0171521D01*
X0158925Y0172288D01*
X0159693Y0172288D01*
X0160460Y0171521D01*
X0160460Y0169986D01*
X0159693Y0169219D01*
X0159693Y0167684D02*
X0155856Y0167684D01*
X0155856Y0164615D02*
X0159693Y0164615D01*
X0160460Y0165382D01*
X0160460Y0166917D01*
X0159693Y0167684D01*
X0164106Y0163600D02*
X0164874Y0163600D01*
X0167943Y0160531D01*
X0168710Y0160531D01*
X0169249Y0160531D02*
X0168481Y0161298D01*
X0168481Y0162833D01*
X0169249Y0163600D01*
X0170016Y0163600D01*
X0170783Y0162833D01*
X0171550Y0163600D01*
X0172318Y0163600D01*
X0173085Y0162833D01*
X0173085Y0161298D01*
X0172318Y0160531D01*
X0172033Y0160017D02*
X0172033Y0157715D01*
X0171266Y0156948D01*
X0170499Y0156948D01*
X0169731Y0157715D01*
X0169731Y0159250D01*
X0170499Y0160017D01*
X0173568Y0160017D01*
X0174335Y0159250D01*
X0174335Y0157715D01*
X0173568Y0156948D01*
X0173085Y0155927D02*
X0168481Y0155927D01*
X0168481Y0158229D01*
X0169249Y0158996D01*
X0170783Y0158996D01*
X0171550Y0158229D01*
X0171550Y0155927D01*
X0171266Y0155413D02*
X0170499Y0155413D01*
X0169731Y0154646D01*
X0169731Y0153111D01*
X0170499Y0152344D01*
X0169960Y0152344D02*
X0166891Y0155413D01*
X0166124Y0155413D01*
X0165356Y0154646D01*
X0165356Y0153111D01*
X0166124Y0152344D01*
X0164960Y0152969D02*
X0164960Y0156038D01*
X0164874Y0155927D02*
X0167943Y0155927D01*
X0168710Y0156694D01*
X0168710Y0158229D01*
X0167943Y0158996D01*
X0169193Y0160017D02*
X0166124Y0160017D01*
X0169193Y0156948D01*
X0169960Y0157715D01*
X0169960Y0159250D01*
X0169193Y0160017D01*
X0170783Y0162065D02*
X0170783Y0162833D01*
X0169249Y0165135D02*
X0168481Y0165902D01*
X0168481Y0167436D01*
X0169249Y0168204D01*
X0170016Y0168204D01*
X0173085Y0165135D01*
X0173085Y0168204D01*
X0177981Y0166923D02*
X0177981Y0165388D01*
X0178749Y0164621D01*
X0181818Y0164621D01*
X0182585Y0165388D01*
X0182585Y0166923D01*
X0181818Y0167690D01*
X0182585Y0169225D02*
X0182585Y0172294D01*
X0183794Y0173025D02*
X0183794Y0174559D01*
X0183794Y0173792D02*
X0188398Y0173792D01*
X0188398Y0173025D02*
X0188398Y0174559D01*
X0187630Y0176094D02*
X0188398Y0176861D01*
X0188398Y0178396D01*
X0187630Y0179163D01*
X0187630Y0180698D02*
X0188398Y0181465D01*
X0188398Y0183000D01*
X0187630Y0183767D01*
X0184561Y0183767D01*
X0183794Y0183000D01*
X0183794Y0181465D01*
X0184561Y0180698D01*
X0185328Y0180698D01*
X0186096Y0181465D01*
X0186096Y0183767D01*
X0184561Y0179163D02*
X0183794Y0178396D01*
X0183794Y0176861D01*
X0184561Y0176094D01*
X0187630Y0176094D01*
X0182585Y0175363D02*
X0177981Y0175363D01*
X0179516Y0173829D01*
X0182585Y0173829D02*
X0182585Y0176898D01*
X0182585Y0170759D02*
X0177981Y0170759D01*
X0179516Y0169225D01*
X0178749Y0167690D02*
X0177981Y0166923D01*
X0177981Y0163086D02*
X0177981Y0161552D01*
X0177981Y0162319D02*
X0182585Y0162319D01*
X0182585Y0161552D02*
X0182585Y0163086D01*
X0182856Y0157857D02*
X0187460Y0157857D01*
X0187318Y0157579D02*
X0186550Y0157579D01*
X0185783Y0156811D01*
X0185783Y0154510D01*
X0187318Y0154510D01*
X0188085Y0155277D01*
X0188085Y0156811D01*
X0187318Y0157579D01*
X0187460Y0156323D02*
X0187460Y0159392D01*
X0184391Y0156323D02*
X0182856Y0157857D01*
X0183481Y0157579D02*
X0184249Y0156044D01*
X0185783Y0154510D01*
X0187460Y0154788D02*
X0187460Y0151719D01*
X0188085Y0152208D02*
X0187318Y0152975D01*
X0186550Y0152975D01*
X0185783Y0152208D01*
X0185783Y0151440D01*
X0185783Y0152208D02*
X0185016Y0152975D01*
X0184249Y0152975D01*
X0183481Y0152208D01*
X0183481Y0150673D01*
X0184249Y0149906D01*
X0183624Y0150184D02*
X0182856Y0149417D01*
X0182856Y0147882D01*
X0183624Y0147115D01*
X0186693Y0147115D01*
X0187460Y0147882D01*
X0187460Y0149417D01*
X0186693Y0150184D01*
X0187318Y0149906D02*
X0188085Y0150673D01*
X0188085Y0152208D01*
X0187460Y0153253D02*
X0182856Y0153253D01*
X0184391Y0151719D01*
X0184249Y0148371D02*
X0185783Y0148371D01*
X0186550Y0147604D01*
X0186550Y0145302D01*
X0186550Y0146836D02*
X0188085Y0148371D01*
X0189106Y0148000D02*
X0189106Y0146465D01*
X0189874Y0145698D01*
X0189106Y0144163D02*
X0189106Y0141094D01*
X0191408Y0141094D01*
X0190641Y0142628D01*
X0190641Y0143396D01*
X0191408Y0144163D01*
X0192943Y0144163D01*
X0193710Y0143396D01*
X0193710Y0141861D01*
X0192943Y0141094D01*
X0192943Y0139559D02*
X0193710Y0138792D01*
X0193710Y0137257D01*
X0192943Y0136490D01*
X0189874Y0136490D01*
X0189106Y0137257D01*
X0189106Y0138792D01*
X0189874Y0139559D01*
X0188085Y0145302D02*
X0183481Y0145302D01*
X0183481Y0147604D01*
X0184249Y0148371D01*
X0189106Y0148000D02*
X0189874Y0148767D01*
X0190641Y0148767D01*
X0193710Y0145698D01*
X0193710Y0148767D01*
X0197235Y0149194D02*
X0197235Y0152263D01*
X0198002Y0153031D01*
X0199537Y0153031D01*
X0200304Y0152263D01*
X0201356Y0152802D02*
X0200589Y0153569D01*
X0201356Y0152802D02*
X0202891Y0152802D01*
X0203658Y0153569D01*
X0203658Y0154336D01*
X0202891Y0155104D01*
X0202124Y0155104D01*
X0202891Y0155104D02*
X0203658Y0155871D01*
X0203658Y0156638D01*
X0202891Y0157406D01*
X0201356Y0157406D01*
X0200589Y0156638D01*
X0199054Y0156638D02*
X0199054Y0155104D01*
X0198287Y0154336D01*
X0195985Y0154336D01*
X0195985Y0152802D02*
X0195985Y0157406D01*
X0198287Y0157406D01*
X0199054Y0156638D01*
X0197520Y0154336D02*
X0199054Y0152802D01*
X0201839Y0151496D02*
X0203374Y0153031D01*
X0203374Y0148427D01*
X0204908Y0148427D02*
X0201839Y0148427D01*
X0200304Y0149194D02*
X0199537Y0148427D01*
X0198002Y0148427D01*
X0197235Y0149194D01*
X0202173Y0143031D02*
X0204475Y0143031D01*
X0205243Y0142263D01*
X0205243Y0140729D01*
X0204475Y0139961D01*
X0202173Y0139961D01*
X0202173Y0138427D02*
X0202173Y0143031D01*
X0203708Y0139961D02*
X0205243Y0138427D01*
X0206777Y0139194D02*
X0207545Y0138427D01*
X0209079Y0138427D01*
X0209847Y0139194D01*
X0209847Y0140729D01*
X0209079Y0141496D01*
X0208312Y0141496D01*
X0206777Y0140729D01*
X0206777Y0143031D01*
X0209847Y0143031D01*
X0211381Y0142263D02*
X0212148Y0143031D01*
X0213683Y0143031D01*
X0214450Y0142263D01*
X0214450Y0141496D01*
X0211381Y0138427D01*
X0214450Y0138427D01*
X0208745Y0148427D02*
X0207210Y0148427D01*
X0206443Y0149194D01*
X0207978Y0150729D02*
X0208745Y0150729D01*
X0209512Y0149961D01*
X0209512Y0149194D01*
X0208745Y0148427D01*
X0208745Y0150729D02*
X0209512Y0151496D01*
X0209512Y0152263D01*
X0208745Y0153031D01*
X0207210Y0153031D01*
X0206443Y0152263D01*
X0205960Y0152802D02*
X0205193Y0153569D01*
X0205193Y0154336D01*
X0205960Y0155104D01*
X0207495Y0155104D01*
X0208262Y0154336D01*
X0208262Y0153569D01*
X0207495Y0152802D01*
X0205960Y0152802D01*
X0205960Y0155104D02*
X0205193Y0155871D01*
X0205193Y0156638D01*
X0205960Y0157406D01*
X0207495Y0157406D01*
X0208262Y0156638D01*
X0208262Y0155871D01*
X0207495Y0155104D01*
X0202585Y0161552D02*
X0202585Y0163086D01*
X0202585Y0162319D02*
X0197981Y0162319D01*
X0197981Y0161552D02*
X0197981Y0163086D01*
X0198749Y0164621D02*
X0201818Y0164621D01*
X0202585Y0165388D01*
X0202585Y0166923D01*
X0201818Y0167690D01*
X0202585Y0169225D02*
X0202585Y0172294D01*
X0202585Y0170759D02*
X0197981Y0170759D01*
X0199516Y0169225D01*
X0198749Y0167690D02*
X0197981Y0166923D01*
X0197981Y0165388D01*
X0198749Y0164621D01*
X0198749Y0173829D02*
X0197981Y0174596D01*
X0197981Y0176131D01*
X0198749Y0176898D01*
X0201818Y0173829D01*
X0202585Y0174596D01*
X0202585Y0176131D01*
X0201818Y0176898D01*
X0198749Y0176898D01*
X0198749Y0173829D02*
X0201818Y0173829D01*
X0215985Y0157406D02*
X0218287Y0157406D01*
X0219054Y0156638D01*
X0219054Y0155104D01*
X0218287Y0154336D01*
X0215985Y0154336D01*
X0215985Y0152802D02*
X0215985Y0157406D01*
X0217520Y0154336D02*
X0219054Y0152802D01*
X0220589Y0153569D02*
X0221356Y0152802D01*
X0222891Y0152802D01*
X0223658Y0153569D01*
X0223658Y0156638D01*
X0222891Y0157406D01*
X0221356Y0157406D01*
X0220589Y0156638D01*
X0220589Y0155871D01*
X0221356Y0155104D01*
X0223658Y0155104D01*
X0186835Y0190302D02*
X0182231Y0190302D01*
X0182231Y0192604D01*
X0182999Y0193371D01*
X0184533Y0193371D01*
X0185300Y0192604D01*
X0185300Y0190302D01*
X0185300Y0191836D02*
X0186835Y0193371D01*
X0186835Y0194906D02*
X0186835Y0197975D01*
X0186835Y0196440D02*
X0182231Y0196440D01*
X0183766Y0194906D01*
X0180960Y0192871D02*
X0180960Y0189802D01*
X0176356Y0189802D01*
X0160356Y0178538D02*
X0161124Y0177003D01*
X0160460Y0176892D02*
X0160460Y0173823D01*
X0157391Y0176892D01*
X0156624Y0176892D01*
X0154960Y0175333D02*
X0150356Y0175333D01*
X0152658Y0173031D01*
X0164106Y0163600D02*
X0164106Y0160531D01*
X0164193Y0160642D02*
X0161124Y0160642D01*
X0160356Y0159875D01*
X0160356Y0158340D01*
X0161124Y0157573D01*
X0161891Y0157573D01*
X0162658Y0158340D01*
X0162658Y0160642D01*
X0164193Y0160642D02*
X0164960Y0159875D01*
X0164960Y0158340D01*
X0164193Y0157573D01*
X0164106Y0158229D02*
X0164106Y0156694D01*
X0164874Y0155927D01*
X0164960Y0154503D02*
X0160356Y0154503D01*
X0161891Y0152969D01*
X0161124Y0151434D02*
X0160356Y0150667D01*
X0160356Y0149132D01*
X0161124Y0148365D01*
X0164193Y0148365D01*
X0164960Y0149132D01*
X0164960Y0150667D01*
X0164193Y0151434D01*
X0165273Y0151144D02*
X0165273Y0154213D01*
X0166040Y0154213D01*
X0169109Y0151144D01*
X0169876Y0151144D01*
X0169960Y0150809D02*
X0168425Y0149274D01*
X0168766Y0148804D02*
X0168766Y0144200D01*
X0169876Y0144238D02*
X0165273Y0144238D01*
X0164929Y0144200D02*
X0165697Y0144967D01*
X0165273Y0145006D02*
X0165273Y0143471D01*
X0164929Y0144200D02*
X0163395Y0144200D01*
X0162627Y0144967D01*
X0162627Y0148036D01*
X0163395Y0148804D01*
X0164929Y0148804D01*
X0165697Y0148036D01*
X0165356Y0147740D02*
X0165356Y0150042D01*
X0166124Y0150809D01*
X0167658Y0150809D01*
X0168425Y0150042D01*
X0168425Y0147740D01*
X0168766Y0148804D02*
X0167231Y0147269D01*
X0166040Y0146540D02*
X0169109Y0146540D01*
X0169876Y0147308D01*
X0169876Y0148842D01*
X0169109Y0149610D01*
X0169731Y0150042D02*
X0169731Y0147740D01*
X0174335Y0147740D01*
X0174134Y0147528D02*
X0173367Y0148296D01*
X0173367Y0149830D01*
X0174134Y0150598D01*
X0174901Y0150598D01*
X0175669Y0149830D01*
X0175669Y0148296D01*
X0174901Y0147528D01*
X0174134Y0147528D01*
X0173367Y0148296D02*
X0172600Y0147528D01*
X0171832Y0147528D01*
X0171065Y0148296D01*
X0171065Y0149830D01*
X0171832Y0150598D01*
X0172600Y0150598D01*
X0173367Y0149830D01*
X0172800Y0150042D02*
X0172800Y0147740D01*
X0172800Y0149274D02*
X0174335Y0150809D01*
X0174335Y0152344D02*
X0171266Y0155413D01*
X0169960Y0155413D02*
X0169960Y0152344D01*
X0170499Y0150809D02*
X0172033Y0150809D01*
X0172800Y0150042D01*
X0170499Y0150809D02*
X0169731Y0150042D01*
X0169960Y0147740D02*
X0165356Y0147740D01*
X0165273Y0147308D02*
X0166040Y0146540D01*
X0165273Y0147308D02*
X0165273Y0148842D01*
X0166040Y0149610D01*
X0162943Y0146267D02*
X0163710Y0145500D01*
X0163710Y0143965D01*
X0162943Y0143198D01*
X0161408Y0143965D02*
X0161408Y0146267D01*
X0159874Y0146267D02*
X0162943Y0146267D01*
X0161408Y0143965D02*
X0160641Y0143198D01*
X0159874Y0143198D01*
X0159106Y0143965D01*
X0159106Y0145500D01*
X0159874Y0146267D01*
X0159558Y0144200D02*
X0161093Y0144200D01*
X0160325Y0144200D02*
X0160325Y0148804D01*
X0159558Y0148804D02*
X0161093Y0148804D01*
X0161408Y0141663D02*
X0161408Y0138594D01*
X0159106Y0140896D01*
X0163710Y0140896D01*
X0162943Y0137059D02*
X0163710Y0136292D01*
X0163710Y0134757D01*
X0162943Y0133990D01*
X0159874Y0133990D01*
X0159106Y0134757D01*
X0159106Y0136292D01*
X0159874Y0137059D01*
X0153887Y0136552D02*
X0150818Y0136552D01*
X0150818Y0136013D02*
X0150818Y0135246D01*
X0151585Y0134479D01*
X0153120Y0134479D01*
X0153887Y0133711D01*
X0153887Y0132944D01*
X0153120Y0132177D01*
X0151585Y0132177D01*
X0150818Y0132944D01*
X0150818Y0133711D01*
X0151585Y0134479D01*
X0153120Y0134479D02*
X0153887Y0135246D01*
X0153887Y0136013D01*
X0153120Y0136781D01*
X0151585Y0136781D01*
X0150818Y0136013D01*
X0149283Y0136013D02*
X0148516Y0136781D01*
X0146981Y0136781D01*
X0146214Y0136013D01*
X0144679Y0136013D02*
X0143912Y0136781D01*
X0142377Y0136781D01*
X0141610Y0136013D01*
X0141610Y0132944D01*
X0142377Y0132177D01*
X0143912Y0132177D01*
X0144679Y0132944D01*
X0144308Y0133229D02*
X0145075Y0132461D01*
X0145075Y0131694D01*
X0144308Y0130927D01*
X0142773Y0130927D01*
X0142006Y0131694D01*
X0141610Y0132406D02*
X0143912Y0132406D01*
X0144679Y0131638D01*
X0144679Y0130104D01*
X0143912Y0129336D01*
X0141610Y0129336D01*
X0141610Y0127802D02*
X0141610Y0132406D01*
X0140472Y0130927D02*
X0137402Y0130927D01*
X0135868Y0130927D02*
X0134333Y0132461D01*
X0135100Y0132461D02*
X0132798Y0132461D01*
X0132798Y0130927D02*
X0132798Y0135531D01*
X0135100Y0135531D01*
X0135868Y0134763D01*
X0135868Y0133229D01*
X0135100Y0132461D01*
X0137402Y0133996D02*
X0138937Y0135531D01*
X0138937Y0130927D01*
X0143145Y0129336D02*
X0144679Y0127802D01*
X0146214Y0128569D02*
X0146981Y0127802D01*
X0148516Y0127802D01*
X0149283Y0128569D01*
X0149283Y0129336D01*
X0148516Y0130104D01*
X0147749Y0130104D01*
X0148516Y0130104D02*
X0149283Y0130871D01*
X0149283Y0131638D01*
X0148516Y0132406D01*
X0146981Y0132406D01*
X0146214Y0131638D01*
X0146214Y0132177D02*
X0149283Y0135246D01*
X0149283Y0136013D01*
X0148516Y0136552D02*
X0148516Y0141156D01*
X0146214Y0138854D01*
X0149283Y0138854D01*
X0150818Y0139621D02*
X0152353Y0141156D01*
X0152353Y0136552D01*
X0153120Y0132406D02*
X0153887Y0131638D01*
X0150818Y0128569D01*
X0151585Y0127802D01*
X0153120Y0127802D01*
X0153887Y0128569D01*
X0153887Y0131638D01*
X0153120Y0132406D02*
X0151585Y0132406D01*
X0150818Y0131638D01*
X0150818Y0128569D01*
X0149283Y0132177D02*
X0146214Y0132177D01*
X0145075Y0133996D02*
X0144308Y0133229D01*
X0143541Y0133229D01*
X0145075Y0133996D02*
X0145075Y0134763D01*
X0144308Y0135531D01*
X0142773Y0135531D01*
X0142006Y0134763D01*
X0142377Y0136552D02*
X0143912Y0136552D01*
X0144679Y0137319D01*
X0144308Y0137177D02*
X0142773Y0137177D01*
X0142006Y0137944D01*
X0141610Y0137319D02*
X0142377Y0136552D01*
X0141610Y0137319D02*
X0141610Y0140388D01*
X0142377Y0141156D01*
X0143912Y0141156D01*
X0144679Y0140388D01*
X0144308Y0140246D02*
X0145075Y0139479D01*
X0145075Y0137944D01*
X0144308Y0137177D01*
X0144308Y0140246D02*
X0143541Y0140246D01*
X0142006Y0139479D01*
X0142006Y0141781D01*
X0145075Y0141781D01*
X0145075Y0142319D02*
X0144308Y0141552D01*
X0142773Y0141552D01*
X0142006Y0142319D01*
X0145075Y0145388D01*
X0145075Y0142319D01*
X0142006Y0142319D02*
X0142006Y0145388D01*
X0142773Y0146156D01*
X0144308Y0146156D01*
X0145075Y0145388D01*
X0140472Y0145388D02*
X0140472Y0144621D01*
X0139704Y0143854D01*
X0140472Y0143086D01*
X0140472Y0142319D01*
X0139704Y0141552D01*
X0138170Y0141552D01*
X0137402Y0142319D01*
X0138170Y0141781D02*
X0139704Y0141781D01*
X0140472Y0141013D01*
X0140472Y0140246D01*
X0139704Y0139479D01*
X0140472Y0138711D01*
X0140472Y0137944D01*
X0139704Y0137177D01*
X0138170Y0137177D01*
X0137402Y0137944D01*
X0135868Y0137177D02*
X0134333Y0138711D01*
X0135100Y0138711D02*
X0132798Y0138711D01*
X0132798Y0137177D02*
X0132798Y0141781D01*
X0135100Y0141781D01*
X0135868Y0141013D01*
X0135868Y0139479D01*
X0135100Y0138711D01*
X0135100Y0141552D02*
X0133566Y0141552D01*
X0132798Y0142319D01*
X0132798Y0145388D01*
X0133566Y0146156D01*
X0135100Y0146156D01*
X0135868Y0145388D01*
X0137402Y0145388D02*
X0138170Y0146156D01*
X0139704Y0146156D01*
X0140472Y0145388D01*
X0139704Y0143854D02*
X0138937Y0143854D01*
X0138170Y0141781D02*
X0137402Y0141013D01*
X0135868Y0142319D02*
X0135100Y0141552D01*
X0138937Y0139479D02*
X0139704Y0139479D01*
X0130075Y0153427D02*
X0127006Y0153427D01*
X0128541Y0153427D02*
X0128541Y0158031D01*
X0127006Y0156496D01*
X0125472Y0158031D02*
X0123937Y0157263D01*
X0122402Y0155729D01*
X0124704Y0155729D01*
X0125472Y0154961D01*
X0125472Y0154194D01*
X0124704Y0153427D01*
X0123170Y0153427D01*
X0122402Y0154194D01*
X0122402Y0155729D01*
X0121245Y0154906D02*
X0122012Y0154138D01*
X0118943Y0151069D01*
X0119710Y0150302D01*
X0121245Y0150302D01*
X0122012Y0151069D01*
X0122012Y0154138D01*
X0121245Y0154906D02*
X0119710Y0154906D01*
X0118943Y0154138D01*
X0118943Y0151069D01*
X0117408Y0152604D02*
X0114339Y0152604D01*
X0116641Y0154906D01*
X0116641Y0150302D01*
X0117773Y0153427D02*
X0119308Y0153427D01*
X0120075Y0154194D01*
X0120075Y0157263D01*
X0119308Y0158031D01*
X0117773Y0158031D01*
X0117006Y0157263D01*
X0117006Y0156496D01*
X0117773Y0155729D01*
X0120075Y0155729D01*
X0120100Y0154961D02*
X0120868Y0155729D01*
X0120868Y0157263D01*
X0120100Y0158031D01*
X0117798Y0158031D01*
X0117798Y0153427D01*
X0117773Y0153427D02*
X0117006Y0154194D01*
X0117798Y0154961D02*
X0120100Y0154961D01*
X0119333Y0154961D02*
X0120868Y0153427D01*
X0115472Y0154194D02*
X0114704Y0153427D01*
X0113170Y0153427D01*
X0112402Y0154194D01*
X0112804Y0154138D02*
X0112037Y0154906D01*
X0110502Y0154906D01*
X0109735Y0154138D01*
X0109735Y0151069D01*
X0110502Y0150302D01*
X0112037Y0150302D01*
X0112804Y0151069D01*
X0113058Y0149281D02*
X0111523Y0149281D01*
X0110756Y0148513D01*
X0110756Y0147746D01*
X0111523Y0146979D01*
X0113058Y0146979D01*
X0113825Y0146211D01*
X0113825Y0145444D01*
X0113058Y0144677D01*
X0111523Y0144677D01*
X0110756Y0145444D01*
X0110756Y0146211D01*
X0111523Y0146979D01*
X0113058Y0146979D02*
X0113825Y0147746D01*
X0113825Y0148513D01*
X0113058Y0149281D01*
X0109335Y0148990D02*
X0109335Y0152059D01*
X0109335Y0150524D02*
X0104731Y0150524D01*
X0106266Y0148990D01*
X0107033Y0148340D02*
X0107033Y0150642D01*
X0107687Y0149281D02*
X0106152Y0147746D01*
X0106266Y0147573D02*
X0107033Y0148340D01*
X0107033Y0147455D02*
X0107800Y0146688D01*
X0107800Y0144386D01*
X0107687Y0144677D02*
X0107687Y0149281D01*
X0108568Y0150642D02*
X0105499Y0150642D01*
X0104731Y0149875D01*
X0104731Y0148340D01*
X0105499Y0147573D01*
X0106266Y0147573D01*
X0105499Y0147455D02*
X0107033Y0147455D01*
X0105499Y0147455D02*
X0104731Y0146688D01*
X0104731Y0144386D01*
X0109335Y0144386D01*
X0109222Y0144677D02*
X0106152Y0144677D01*
X0105499Y0146038D02*
X0108568Y0142969D01*
X0109335Y0143736D01*
X0109335Y0145271D01*
X0108568Y0146038D01*
X0105499Y0146038D01*
X0104731Y0145271D01*
X0104731Y0143736D01*
X0105499Y0142969D01*
X0108568Y0142969D01*
X0109335Y0141434D02*
X0109335Y0138365D01*
X0108568Y0138142D02*
X0107800Y0138142D01*
X0107033Y0137375D01*
X0107033Y0135073D01*
X0108568Y0135073D01*
X0109335Y0135840D01*
X0109335Y0137375D01*
X0108568Y0138142D01*
X0107631Y0138229D02*
X0110700Y0138229D01*
X0110787Y0137406D02*
X0109252Y0137406D01*
X0108485Y0136638D01*
X0108485Y0133569D01*
X0109252Y0132802D01*
X0110787Y0132802D01*
X0111554Y0133569D01*
X0110700Y0133086D02*
X0109933Y0133854D01*
X0107631Y0133854D01*
X0107631Y0132319D01*
X0108398Y0131552D01*
X0109933Y0131552D01*
X0110700Y0132319D01*
X0110700Y0133086D01*
X0110700Y0131781D02*
X0109166Y0131013D01*
X0107631Y0129479D01*
X0109933Y0129479D01*
X0110700Y0128711D01*
X0110700Y0127944D01*
X0109933Y0127177D01*
X0108398Y0127177D01*
X0107631Y0127944D01*
X0107631Y0129479D01*
X0108568Y0128934D02*
X0109335Y0128167D01*
X0109335Y0126632D01*
X0108568Y0125865D01*
X0105499Y0125865D01*
X0104731Y0126632D01*
X0104731Y0128167D01*
X0105499Y0128934D01*
X0105329Y0128711D02*
X0103027Y0128711D01*
X0103027Y0127177D02*
X0103027Y0131781D01*
X0105329Y0131781D01*
X0106097Y0131013D01*
X0106097Y0129479D01*
X0105329Y0128711D01*
X0104562Y0128711D02*
X0106097Y0127177D01*
X0106266Y0130469D02*
X0104731Y0132003D01*
X0109335Y0132003D01*
X0109335Y0130469D02*
X0109335Y0133538D01*
X0109335Y0133761D02*
X0104731Y0133761D01*
X0104731Y0136063D01*
X0105499Y0136830D01*
X0107033Y0136830D01*
X0107800Y0136063D01*
X0107800Y0133761D01*
X0107631Y0133854D02*
X0109166Y0135388D01*
X0110700Y0136156D01*
X0109933Y0135927D02*
X0109933Y0140531D01*
X0107631Y0138229D01*
X0106266Y0138365D02*
X0104731Y0139899D01*
X0109335Y0139899D01*
X0110787Y0137406D02*
X0111554Y0136638D01*
X0113089Y0135104D02*
X0116158Y0135104D01*
X0117693Y0136638D02*
X0118460Y0137406D01*
X0119995Y0137406D01*
X0120762Y0136638D01*
X0120762Y0135871D01*
X0117693Y0132802D01*
X0120762Y0132802D01*
X0115391Y0132802D02*
X0115391Y0137406D01*
X0113089Y0135104D01*
X0109335Y0136830D02*
X0107800Y0135296D01*
X0107033Y0135073D02*
X0105499Y0136607D01*
X0104731Y0138142D01*
X0104562Y0138229D02*
X0105329Y0138229D01*
X0106097Y0137461D01*
X0106097Y0136694D01*
X0105329Y0135927D01*
X0103795Y0135927D01*
X0103027Y0136694D01*
X0103795Y0136156D02*
X0105329Y0136156D01*
X0106097Y0135388D01*
X0106097Y0134621D01*
X0105329Y0133854D01*
X0106097Y0133086D01*
X0106097Y0132319D01*
X0105329Y0131552D01*
X0103795Y0131552D01*
X0103027Y0132319D01*
X0101493Y0132319D02*
X0100725Y0131552D01*
X0099191Y0131552D01*
X0098423Y0132319D01*
X0098423Y0135388D01*
X0099191Y0136156D01*
X0100725Y0136156D01*
X0101493Y0135388D01*
X0101493Y0135927D02*
X0099958Y0137461D01*
X0100725Y0137461D02*
X0098423Y0137461D01*
X0098423Y0135927D02*
X0098423Y0140531D01*
X0100725Y0140531D01*
X0101493Y0139763D01*
X0101493Y0138229D01*
X0100725Y0137461D01*
X0103027Y0135388D02*
X0103795Y0136156D01*
X0104562Y0133854D02*
X0105329Y0133854D01*
X0105329Y0138229D02*
X0106097Y0138996D01*
X0106097Y0139763D01*
X0105329Y0140531D01*
X0103795Y0140531D01*
X0103027Y0139763D01*
X0101548Y0144677D02*
X0101548Y0149281D01*
X0103850Y0149281D01*
X0104618Y0148513D01*
X0104618Y0146979D01*
X0103850Y0146211D01*
X0101548Y0146211D01*
X0103083Y0146211D02*
X0104618Y0144677D01*
X0107800Y0145921D02*
X0109335Y0147455D01*
X0108568Y0147573D02*
X0109335Y0148340D01*
X0109335Y0149875D01*
X0108568Y0150642D01*
X0107798Y0153427D02*
X0107798Y0158031D01*
X0110100Y0158031D01*
X0110868Y0157263D01*
X0110868Y0155729D01*
X0110100Y0154961D01*
X0107798Y0154961D01*
X0109333Y0154961D02*
X0110868Y0153427D01*
X0109335Y0154361D02*
X0109335Y0155896D01*
X0108568Y0156663D01*
X0105499Y0156663D01*
X0108568Y0153594D01*
X0109335Y0154361D01*
X0108568Y0153594D02*
X0105499Y0153594D01*
X0104731Y0154361D01*
X0104731Y0155896D01*
X0105499Y0156663D01*
X0105499Y0158198D02*
X0106266Y0158198D01*
X0107033Y0158965D01*
X0107033Y0160500D01*
X0107800Y0161267D01*
X0108568Y0161267D01*
X0109335Y0160500D01*
X0109335Y0158965D01*
X0108568Y0158198D01*
X0107800Y0158198D01*
X0107033Y0158965D01*
X0107377Y0159052D02*
X0106610Y0159819D01*
X0106610Y0162888D01*
X0107377Y0163656D01*
X0108912Y0163656D01*
X0109679Y0162888D01*
X0109679Y0163427D02*
X0108145Y0164961D01*
X0108912Y0164961D02*
X0106610Y0164961D01*
X0106610Y0163427D02*
X0106610Y0168031D01*
X0108912Y0168031D01*
X0109679Y0167263D01*
X0109679Y0165729D01*
X0108912Y0164961D01*
X0111214Y0165729D02*
X0114283Y0165729D01*
X0115818Y0167263D02*
X0116585Y0168031D01*
X0118120Y0168031D01*
X0118887Y0167263D01*
X0115818Y0164194D01*
X0116585Y0163427D01*
X0118120Y0163427D01*
X0118887Y0164194D01*
X0118887Y0167263D01*
X0115818Y0167263D02*
X0115818Y0164194D01*
X0115818Y0163656D02*
X0115818Y0161354D01*
X0117353Y0162121D01*
X0118120Y0162121D01*
X0118887Y0161354D01*
X0118887Y0159819D01*
X0118120Y0159052D01*
X0116585Y0159052D01*
X0115818Y0159819D01*
X0116610Y0160586D02*
X0118912Y0160586D01*
X0119679Y0161354D01*
X0119679Y0162888D01*
X0118912Y0163656D01*
X0116610Y0163656D01*
X0116610Y0159052D01*
X0115472Y0158031D02*
X0112402Y0158031D01*
X0112402Y0155729D01*
X0113937Y0156496D01*
X0114704Y0156496D01*
X0115472Y0155729D01*
X0115472Y0154194D01*
X0114283Y0159052D02*
X0111214Y0159052D01*
X0112749Y0159052D02*
X0112749Y0163656D01*
X0111214Y0162121D01*
X0113516Y0163427D02*
X0113516Y0168031D01*
X0111214Y0165729D01*
X0115818Y0163656D02*
X0118887Y0163656D01*
X0121214Y0163656D02*
X0121214Y0161354D01*
X0122749Y0162121D01*
X0123516Y0162121D01*
X0124283Y0161354D01*
X0124283Y0159819D01*
X0123516Y0159052D01*
X0121981Y0159052D01*
X0121214Y0159819D01*
X0119679Y0159052D02*
X0118145Y0160586D01*
X0121214Y0163656D02*
X0124283Y0163656D01*
X0125985Y0163656D02*
X0125985Y0159052D01*
X0126585Y0159052D02*
X0128120Y0159052D01*
X0128887Y0159819D01*
X0128887Y0160586D01*
X0128120Y0161354D01*
X0125818Y0161354D01*
X0125818Y0159819D01*
X0126585Y0159052D01*
X0125985Y0160586D02*
X0128287Y0160586D01*
X0129054Y0161354D01*
X0129054Y0162888D01*
X0128287Y0163656D01*
X0125985Y0163656D01*
X0127353Y0162888D02*
X0125818Y0161354D01*
X0127520Y0160586D02*
X0129054Y0159052D01*
X0130589Y0159819D02*
X0130589Y0161354D01*
X0132891Y0161354D01*
X0133658Y0160586D01*
X0133658Y0159819D01*
X0132891Y0159052D01*
X0131356Y0159052D01*
X0130589Y0159819D01*
X0130589Y0161354D02*
X0132124Y0162888D01*
X0133658Y0163656D01*
X0135193Y0162888D02*
X0135193Y0159819D01*
X0138262Y0162888D01*
X0138262Y0159819D01*
X0137495Y0159052D01*
X0135960Y0159052D01*
X0135193Y0159819D01*
X0135193Y0162888D02*
X0135960Y0163656D01*
X0137495Y0163656D01*
X0138262Y0162888D01*
X0129960Y0170444D02*
X0129960Y0171979D01*
X0129193Y0172746D01*
X0129960Y0174281D02*
X0129960Y0177350D01*
X0129960Y0178885D02*
X0126891Y0181954D01*
X0126124Y0181954D01*
X0125356Y0181186D01*
X0125356Y0179652D01*
X0126124Y0178885D01*
X0123658Y0179194D02*
X0123658Y0179961D01*
X0122891Y0180729D01*
X0120589Y0180729D01*
X0120589Y0179194D01*
X0121356Y0178427D01*
X0122891Y0178427D01*
X0123658Y0179194D01*
X0122124Y0182263D02*
X0120589Y0180729D01*
X0119054Y0182263D02*
X0119054Y0179194D01*
X0118287Y0178427D01*
X0116752Y0178427D01*
X0115985Y0179194D01*
X0115985Y0182263D01*
X0116752Y0183031D01*
X0118287Y0183031D01*
X0119054Y0182263D01*
X0117520Y0179961D02*
X0119054Y0178427D01*
X0122124Y0182263D02*
X0123658Y0183031D01*
X0125356Y0175815D02*
X0129960Y0175815D01*
X0129960Y0178885D02*
X0129960Y0181954D01*
X0125356Y0175815D02*
X0126891Y0174281D01*
X0126124Y0172746D02*
X0125356Y0171979D01*
X0125356Y0170444D01*
X0126124Y0169677D01*
X0129193Y0169677D01*
X0129960Y0170444D01*
X0128887Y0163656D02*
X0127353Y0162888D01*
X0109908Y0181069D02*
X0109141Y0180302D01*
X0107606Y0180302D01*
X0106839Y0181069D01*
X0105304Y0181069D02*
X0104537Y0180302D01*
X0103002Y0180302D01*
X0102235Y0181069D01*
X0102235Y0184138D01*
X0103002Y0184906D01*
X0104537Y0184906D01*
X0105304Y0184138D01*
X0105304Y0181069D01*
X0105304Y0180302D02*
X0103770Y0181836D01*
X0106839Y0182604D02*
X0106839Y0184906D01*
X0109908Y0184906D01*
X0109283Y0186069D02*
X0109283Y0186836D01*
X0108516Y0187604D01*
X0106214Y0187604D01*
X0106214Y0186069D01*
X0106981Y0185302D01*
X0108516Y0185302D01*
X0109283Y0186069D01*
X0110818Y0186069D02*
X0111585Y0185302D01*
X0113120Y0185302D01*
X0113887Y0186069D01*
X0113887Y0186836D01*
X0113120Y0187604D01*
X0112353Y0187604D01*
X0113120Y0187604D02*
X0113887Y0188371D01*
X0113887Y0189138D01*
X0113120Y0189906D01*
X0111585Y0189906D01*
X0110818Y0189138D01*
X0109283Y0189906D02*
X0107749Y0189138D01*
X0106214Y0187604D01*
X0104679Y0187604D02*
X0103912Y0186836D01*
X0101610Y0186836D01*
X0101610Y0185302D02*
X0101610Y0189906D01*
X0103912Y0189906D01*
X0104679Y0189138D01*
X0104679Y0187604D01*
X0103145Y0186836D02*
X0104679Y0185302D01*
X0106839Y0182604D02*
X0108374Y0183371D01*
X0109141Y0183371D01*
X0109908Y0182604D01*
X0109908Y0181069D01*
X0103262Y0189138D02*
X0103262Y0189906D01*
X0100193Y0189906D01*
X0103262Y0189138D02*
X0100193Y0186069D01*
X0100193Y0185302D01*
X0098658Y0185302D02*
X0095589Y0185302D01*
X0094054Y0185302D02*
X0092520Y0186836D01*
X0093287Y0186836D02*
X0090985Y0186836D01*
X0090985Y0185302D02*
X0090985Y0189906D01*
X0093287Y0189906D01*
X0094054Y0189138D01*
X0094054Y0187604D01*
X0093287Y0186836D01*
X0095589Y0188371D02*
X0097124Y0189906D01*
X0097124Y0185302D01*
X0094450Y0175531D02*
X0092916Y0174763D01*
X0091381Y0173229D01*
X0093683Y0173229D01*
X0094450Y0172461D01*
X0094450Y0171694D01*
X0093683Y0170927D01*
X0092148Y0170927D01*
X0091381Y0171694D01*
X0091381Y0173229D01*
X0089847Y0170927D02*
X0086777Y0170927D01*
X0086548Y0171156D02*
X0088850Y0171156D01*
X0089618Y0170388D01*
X0089618Y0168854D01*
X0088850Y0168086D01*
X0086548Y0168086D01*
X0086548Y0166552D02*
X0086548Y0171156D01*
X0085243Y0170927D02*
X0083708Y0172461D01*
X0084475Y0172461D02*
X0082173Y0172461D01*
X0082173Y0170927D02*
X0082173Y0175531D01*
X0084475Y0175531D01*
X0085243Y0174763D01*
X0085243Y0173229D01*
X0084475Y0172461D01*
X0082575Y0170927D02*
X0079506Y0170927D01*
X0082575Y0173996D01*
X0082575Y0174763D01*
X0081808Y0175531D01*
X0080273Y0175531D01*
X0079506Y0174763D01*
X0079847Y0175302D02*
X0078312Y0176836D01*
X0079079Y0176836D02*
X0076777Y0176836D01*
X0077204Y0175531D02*
X0077972Y0174763D01*
X0077972Y0173229D01*
X0077204Y0172461D01*
X0074902Y0172461D01*
X0074283Y0172319D02*
X0073516Y0171552D01*
X0071981Y0171552D01*
X0071214Y0172319D01*
X0071214Y0173086D01*
X0071981Y0173854D01*
X0073516Y0173854D01*
X0074283Y0173086D01*
X0074283Y0172319D01*
X0074704Y0171156D02*
X0073170Y0171156D01*
X0072402Y0170388D01*
X0070868Y0170388D02*
X0070100Y0171156D01*
X0068566Y0171156D01*
X0067798Y0170388D01*
X0067798Y0167319D01*
X0068566Y0166552D01*
X0070100Y0166552D01*
X0070868Y0167319D01*
X0071746Y0166156D02*
X0069444Y0166156D01*
X0069444Y0161552D01*
X0069444Y0163086D02*
X0071746Y0163086D01*
X0072514Y0163854D01*
X0072514Y0165388D01*
X0071746Y0166156D01*
X0072402Y0166552D02*
X0075472Y0169621D01*
X0075472Y0170388D01*
X0074704Y0171156D01*
X0074902Y0170927D02*
X0074902Y0175531D01*
X0077204Y0175531D01*
X0076777Y0175302D02*
X0076777Y0179906D01*
X0079079Y0179906D01*
X0079847Y0179138D01*
X0079847Y0177604D01*
X0079079Y0176836D01*
X0081381Y0176069D02*
X0082148Y0175302D01*
X0083683Y0175302D01*
X0084450Y0176069D01*
X0084450Y0176836D01*
X0083683Y0177604D01*
X0082916Y0177604D01*
X0083683Y0177604D02*
X0084450Y0178371D01*
X0084450Y0179138D01*
X0083683Y0179906D01*
X0082148Y0179906D01*
X0081381Y0179138D01*
X0080762Y0180927D02*
X0077693Y0180927D01*
X0079228Y0180927D02*
X0079228Y0185531D01*
X0077693Y0183996D01*
X0076158Y0183229D02*
X0076158Y0181694D01*
X0075391Y0180927D01*
X0073856Y0180927D01*
X0073089Y0181694D01*
X0073089Y0183229D02*
X0074624Y0183996D01*
X0075391Y0183996D01*
X0076158Y0183229D01*
X0076158Y0185531D02*
X0073089Y0185531D01*
X0073089Y0183229D01*
X0071554Y0183229D02*
X0070787Y0182461D01*
X0068485Y0182461D01*
X0068485Y0180927D02*
X0068485Y0185531D01*
X0070787Y0185531D01*
X0071554Y0184763D01*
X0071554Y0183229D01*
X0070020Y0182461D02*
X0071554Y0180927D01*
X0071950Y0179906D02*
X0068881Y0179906D01*
X0068881Y0177604D01*
X0070416Y0178371D01*
X0071183Y0178371D01*
X0071950Y0177604D01*
X0071950Y0176069D01*
X0071183Y0175302D01*
X0069648Y0175302D01*
X0068881Y0176069D01*
X0068912Y0176156D02*
X0067377Y0176156D01*
X0066610Y0175388D01*
X0066610Y0172319D01*
X0067377Y0171552D01*
X0068912Y0171552D01*
X0069679Y0172319D01*
X0071214Y0174621D02*
X0071214Y0175388D01*
X0071981Y0176156D01*
X0073516Y0176156D01*
X0074283Y0175388D01*
X0074283Y0174621D01*
X0073516Y0173854D01*
X0071981Y0173854D02*
X0071214Y0174621D01*
X0069679Y0175388D02*
X0068912Y0176156D01*
X0068745Y0175927D02*
X0069512Y0176694D01*
X0069512Y0179763D01*
X0068745Y0180531D01*
X0067210Y0180531D01*
X0066443Y0179763D01*
X0066443Y0178996D01*
X0067210Y0178229D01*
X0069512Y0178229D01*
X0067347Y0177604D02*
X0067347Y0176069D01*
X0066579Y0175302D01*
X0065045Y0175302D01*
X0064277Y0176069D01*
X0064141Y0175927D02*
X0064141Y0180531D01*
X0061839Y0178229D01*
X0064908Y0178229D01*
X0064277Y0177604D02*
X0064277Y0179906D01*
X0067347Y0179906D01*
X0066579Y0178371D02*
X0067347Y0177604D01*
X0066579Y0178371D02*
X0065812Y0178371D01*
X0064277Y0177604D01*
X0062743Y0177604D02*
X0062743Y0179138D01*
X0061975Y0179906D01*
X0059673Y0179906D01*
X0059673Y0175302D01*
X0059506Y0174763D02*
X0060273Y0175531D01*
X0061808Y0175531D01*
X0062575Y0174763D01*
X0059506Y0171694D01*
X0060273Y0170927D01*
X0061808Y0170927D01*
X0062575Y0171694D01*
X0062575Y0174763D01*
X0062743Y0175302D02*
X0061208Y0176836D01*
X0061975Y0176836D02*
X0059673Y0176836D01*
X0059537Y0177461D02*
X0057235Y0177461D01*
X0057235Y0175927D02*
X0057235Y0180531D01*
X0059537Y0180531D01*
X0060304Y0179763D01*
X0060304Y0178229D01*
X0059537Y0177461D01*
X0058770Y0177461D02*
X0060304Y0175927D01*
X0059506Y0174763D02*
X0059506Y0171694D01*
X0057972Y0171694D02*
X0057972Y0173229D01*
X0057204Y0173996D01*
X0056437Y0173996D01*
X0054902Y0173229D01*
X0054902Y0175531D01*
X0057972Y0175531D01*
X0057972Y0171694D02*
X0057204Y0170927D01*
X0055670Y0170927D01*
X0054902Y0171694D01*
X0053368Y0170927D02*
X0051833Y0172461D01*
X0052600Y0172461D02*
X0050298Y0172461D01*
X0050298Y0170927D02*
X0050298Y0175531D01*
X0052600Y0175531D01*
X0053368Y0174763D01*
X0053368Y0173229D01*
X0052600Y0172461D01*
X0061975Y0176836D02*
X0062743Y0177604D01*
X0066443Y0176694D02*
X0067210Y0175927D01*
X0068745Y0175927D01*
X0076437Y0172461D02*
X0077972Y0170927D01*
X0077006Y0171156D02*
X0077006Y0168854D01*
X0078541Y0169621D01*
X0079308Y0169621D01*
X0080075Y0168854D01*
X0080075Y0167319D01*
X0079308Y0166552D01*
X0077773Y0166552D01*
X0077006Y0167319D01*
X0075472Y0166552D02*
X0072402Y0166552D01*
X0074048Y0164621D02*
X0075583Y0166156D01*
X0075583Y0161552D01*
X0074048Y0161552D02*
X0077118Y0161552D01*
X0078652Y0162319D02*
X0078652Y0165388D01*
X0079420Y0166156D01*
X0080954Y0166156D01*
X0081722Y0165388D01*
X0078652Y0162319D01*
X0079420Y0161552D01*
X0080954Y0161552D01*
X0081722Y0162319D01*
X0081722Y0165388D01*
X0083256Y0166156D02*
X0086325Y0166156D01*
X0086325Y0165388D01*
X0083256Y0162319D01*
X0083256Y0161552D01*
X0084673Y0162319D02*
X0085441Y0161552D01*
X0086975Y0161552D01*
X0087743Y0162319D01*
X0089277Y0162319D02*
X0090045Y0161552D01*
X0091579Y0161552D01*
X0092347Y0162319D01*
X0092347Y0163086D01*
X0091579Y0163854D01*
X0089277Y0163854D01*
X0089277Y0162319D01*
X0089277Y0163854D02*
X0090812Y0165388D01*
X0092347Y0166156D01*
X0091920Y0166552D02*
X0093454Y0166552D01*
X0094222Y0167319D01*
X0094222Y0168086D01*
X0093454Y0168854D01*
X0091152Y0168854D01*
X0091152Y0167319D01*
X0091920Y0166552D01*
X0089618Y0166552D02*
X0088083Y0168086D01*
X0086975Y0166156D02*
X0085441Y0166156D01*
X0084673Y0165388D01*
X0084673Y0162319D01*
X0087743Y0165388D02*
X0086975Y0166156D01*
X0088312Y0170927D02*
X0088312Y0175531D01*
X0086777Y0173996D01*
X0091152Y0168854D02*
X0092687Y0170388D01*
X0094222Y0171156D01*
X0095756Y0170388D02*
X0096523Y0171156D01*
X0098058Y0171156D01*
X0098825Y0170388D01*
X0098825Y0169621D01*
X0095756Y0166552D01*
X0098825Y0166552D01*
X0096950Y0166156D02*
X0095416Y0165388D01*
X0093881Y0163854D01*
X0096183Y0163854D01*
X0096950Y0163086D01*
X0096950Y0162319D01*
X0096183Y0161552D01*
X0094648Y0161552D01*
X0093881Y0162319D01*
X0093881Y0163854D01*
X0104731Y0160500D02*
X0105499Y0161267D01*
X0106266Y0161267D01*
X0107033Y0160500D01*
X0107377Y0159052D02*
X0108912Y0159052D01*
X0109679Y0159819D01*
X0105499Y0158198D02*
X0104731Y0158965D01*
X0104731Y0160500D01*
X0080075Y0171156D02*
X0077006Y0171156D01*
X0070979Y0163086D02*
X0072514Y0161552D01*
X0068974Y0158031D02*
X0066672Y0155729D01*
X0069741Y0155729D01*
X0068974Y0153427D02*
X0068974Y0158031D01*
X0065137Y0157263D02*
X0065137Y0154194D01*
X0064370Y0153427D01*
X0062835Y0153427D01*
X0062068Y0154194D01*
X0065137Y0157263D01*
X0064370Y0158031D01*
X0062835Y0158031D01*
X0062068Y0157263D01*
X0062068Y0154194D01*
X0060533Y0153427D02*
X0057464Y0153427D01*
X0055929Y0153427D02*
X0054395Y0154961D01*
X0055162Y0154961D02*
X0052860Y0154961D01*
X0052860Y0153427D02*
X0052860Y0158031D01*
X0055162Y0158031D01*
X0055929Y0157263D01*
X0055929Y0155729D01*
X0055162Y0154961D01*
X0055329Y0156552D02*
X0053795Y0156552D01*
X0053027Y0157319D01*
X0056097Y0160388D01*
X0056097Y0157319D01*
X0055329Y0156552D01*
X0057464Y0156496D02*
X0058999Y0158031D01*
X0058999Y0153427D01*
X0058398Y0156552D02*
X0057631Y0157319D01*
X0058398Y0156552D02*
X0059933Y0156552D01*
X0060700Y0157319D01*
X0060700Y0158086D01*
X0059933Y0158854D01*
X0059166Y0158854D01*
X0059933Y0158854D02*
X0060700Y0159621D01*
X0060700Y0160388D01*
X0059933Y0161156D01*
X0058398Y0161156D01*
X0057631Y0160388D01*
X0056097Y0160388D02*
X0055329Y0161156D01*
X0053795Y0161156D01*
X0053027Y0160388D01*
X0053027Y0157319D01*
X0051493Y0156552D02*
X0048423Y0156552D01*
X0046889Y0156552D02*
X0045354Y0158086D01*
X0046121Y0158086D02*
X0043819Y0158086D01*
X0043819Y0156552D02*
X0043819Y0161156D01*
X0046121Y0161156D01*
X0046889Y0160388D01*
X0046889Y0158854D01*
X0046121Y0158086D01*
X0048423Y0159621D02*
X0049958Y0161156D01*
X0049958Y0156552D01*
X0050187Y0152406D02*
X0048652Y0150871D01*
X0050187Y0152406D02*
X0050187Y0147802D01*
X0048652Y0147802D02*
X0051722Y0147802D01*
X0052860Y0148513D02*
X0052860Y0145444D01*
X0053627Y0144677D01*
X0055162Y0144677D01*
X0055929Y0145444D01*
X0055162Y0144906D02*
X0055929Y0144138D01*
X0055929Y0142604D01*
X0055162Y0141836D01*
X0052860Y0141836D01*
X0052860Y0140302D02*
X0052860Y0144906D01*
X0055162Y0144906D01*
X0056325Y0143656D02*
X0053256Y0143656D01*
X0051722Y0142888D02*
X0048652Y0139819D01*
X0049420Y0139052D01*
X0050954Y0139052D01*
X0051722Y0139819D01*
X0051722Y0142888D01*
X0050954Y0143656D01*
X0049420Y0143656D01*
X0048652Y0142888D01*
X0048652Y0139819D01*
X0047118Y0139052D02*
X0044048Y0139052D01*
X0045583Y0139052D02*
X0045583Y0143656D01*
X0044048Y0142121D01*
X0042514Y0142888D02*
X0041746Y0143656D01*
X0040212Y0143656D01*
X0039444Y0142888D01*
X0039444Y0139819D01*
X0040212Y0139052D01*
X0041746Y0139052D01*
X0042514Y0139819D01*
X0042514Y0147802D02*
X0040979Y0149336D01*
X0041746Y0149336D02*
X0039444Y0149336D01*
X0039444Y0147802D02*
X0039444Y0152406D01*
X0041746Y0152406D01*
X0042514Y0151638D01*
X0042514Y0150104D01*
X0041746Y0149336D01*
X0044048Y0147802D02*
X0047118Y0147802D01*
X0045583Y0147802D02*
X0045583Y0152406D01*
X0044048Y0150871D01*
X0052860Y0148513D02*
X0053627Y0149281D01*
X0055162Y0149281D01*
X0055929Y0148513D01*
X0056325Y0148569D02*
X0055558Y0147802D01*
X0054023Y0147802D01*
X0053256Y0148569D01*
X0056325Y0151638D01*
X0056325Y0148569D01*
X0057464Y0148513D02*
X0058231Y0149281D01*
X0059766Y0149281D01*
X0060533Y0148513D01*
X0060533Y0147746D01*
X0057464Y0144677D01*
X0060533Y0144677D01*
X0058999Y0144906D02*
X0058999Y0140302D01*
X0060533Y0140302D02*
X0057464Y0140302D01*
X0055929Y0140302D02*
X0054395Y0141836D01*
X0056325Y0142888D02*
X0053256Y0139819D01*
X0053256Y0139052D01*
X0056325Y0142888D02*
X0056325Y0143656D01*
X0057464Y0143371D02*
X0058999Y0144906D01*
X0062068Y0145444D02*
X0062835Y0144677D01*
X0064370Y0144677D01*
X0065137Y0145444D01*
X0065137Y0148513D01*
X0064370Y0149281D01*
X0062835Y0149281D01*
X0062068Y0148513D01*
X0062068Y0147746D01*
X0062835Y0146979D01*
X0065137Y0146979D01*
X0063603Y0144906D02*
X0063603Y0140302D01*
X0065137Y0140302D02*
X0062068Y0140302D01*
X0062068Y0143371D02*
X0063603Y0144906D01*
X0056325Y0151638D02*
X0055558Y0152406D01*
X0054023Y0152406D01*
X0053256Y0151638D01*
X0053256Y0148569D01*
X0052204Y0126781D02*
X0050670Y0126781D01*
X0049902Y0126013D01*
X0049902Y0122944D01*
X0052972Y0126013D01*
X0052972Y0122944D01*
X0052204Y0122177D01*
X0050670Y0122177D01*
X0049902Y0122944D01*
X0048368Y0122177D02*
X0045298Y0122177D01*
X0043764Y0122177D02*
X0042229Y0123711D01*
X0042996Y0123711D02*
X0040694Y0123711D01*
X0040694Y0122177D02*
X0040694Y0126781D01*
X0042996Y0126781D01*
X0043764Y0126013D01*
X0043764Y0124479D01*
X0042996Y0123711D01*
X0045298Y0125246D02*
X0046833Y0126781D01*
X0046833Y0122177D01*
X0046833Y0120531D02*
X0045298Y0118996D01*
X0043764Y0119763D02*
X0043764Y0118229D01*
X0042996Y0117461D01*
X0040694Y0117461D01*
X0040694Y0115927D02*
X0040694Y0120531D01*
X0042996Y0120531D01*
X0043764Y0119763D01*
X0042229Y0117461D02*
X0043764Y0115927D01*
X0045298Y0115927D02*
X0048368Y0115927D01*
X0047600Y0114906D02*
X0046066Y0114906D01*
X0045298Y0114138D01*
X0045298Y0111069D01*
X0046066Y0110302D01*
X0047600Y0110302D01*
X0048368Y0111069D01*
X0049902Y0111069D02*
X0050670Y0110302D01*
X0052204Y0110302D01*
X0052972Y0111069D01*
X0052972Y0111836D01*
X0052204Y0112604D01*
X0049902Y0112604D01*
X0049902Y0111069D01*
X0049902Y0112604D02*
X0051437Y0114138D01*
X0052972Y0114906D01*
X0052204Y0115927D02*
X0050670Y0115927D01*
X0049902Y0116694D01*
X0052972Y0119763D01*
X0052972Y0116694D01*
X0052204Y0115927D01*
X0049902Y0116694D02*
X0049902Y0119763D01*
X0050670Y0120531D01*
X0052204Y0120531D01*
X0052972Y0119763D01*
X0054506Y0120531D02*
X0054506Y0118229D01*
X0056041Y0118996D01*
X0056808Y0118996D01*
X0057575Y0118229D01*
X0057575Y0116694D01*
X0056808Y0115927D01*
X0055273Y0115927D01*
X0054506Y0116694D01*
X0054506Y0114906D02*
X0054506Y0112604D01*
X0056041Y0113371D01*
X0056808Y0113371D01*
X0057575Y0112604D01*
X0057575Y0111069D01*
X0056808Y0110302D01*
X0055273Y0110302D01*
X0054506Y0111069D01*
X0056610Y0112319D02*
X0056610Y0115388D01*
X0057377Y0116156D01*
X0058912Y0116156D01*
X0059679Y0115388D01*
X0058912Y0115927D02*
X0059679Y0116694D01*
X0058912Y0115927D02*
X0057377Y0115927D01*
X0056610Y0116694D01*
X0056610Y0119763D01*
X0057377Y0120531D01*
X0058912Y0120531D01*
X0059679Y0119763D01*
X0061214Y0119763D02*
X0061214Y0118996D01*
X0061981Y0118229D01*
X0064283Y0118229D01*
X0064283Y0119763D02*
X0064283Y0116694D01*
X0063516Y0115927D01*
X0061981Y0115927D01*
X0061214Y0116694D01*
X0061981Y0116156D02*
X0063516Y0116156D01*
X0064283Y0115388D01*
X0064283Y0114621D01*
X0063516Y0113854D01*
X0061981Y0113854D01*
X0061214Y0114621D01*
X0061214Y0115388D01*
X0061981Y0116156D01*
X0061981Y0113854D02*
X0061214Y0113086D01*
X0061214Y0112319D01*
X0061981Y0111552D01*
X0063516Y0111552D01*
X0064283Y0112319D01*
X0064283Y0113086D01*
X0063516Y0113854D01*
X0065818Y0115388D02*
X0066585Y0116156D01*
X0068120Y0116156D01*
X0068887Y0115388D01*
X0068887Y0114621D01*
X0065818Y0111552D01*
X0068887Y0111552D01*
X0068887Y0107406D02*
X0065818Y0107406D01*
X0065818Y0105104D01*
X0067353Y0105871D01*
X0068120Y0105871D01*
X0068887Y0105104D01*
X0068887Y0103569D01*
X0068120Y0102802D01*
X0066585Y0102802D01*
X0065818Y0103569D01*
X0064283Y0105104D02*
X0061214Y0105104D01*
X0063516Y0107406D01*
X0063516Y0102802D01*
X0060075Y0101013D02*
X0060075Y0100246D01*
X0059308Y0099479D01*
X0057773Y0099479D01*
X0057006Y0100246D01*
X0057006Y0101013D01*
X0057773Y0101781D01*
X0059308Y0101781D01*
X0060075Y0101013D01*
X0059308Y0099479D02*
X0060075Y0098711D01*
X0060075Y0097944D01*
X0059308Y0097177D01*
X0057773Y0097177D01*
X0057006Y0097944D01*
X0057006Y0098711D01*
X0057773Y0099479D01*
X0058912Y0098656D02*
X0056610Y0098656D01*
X0056610Y0094052D01*
X0057006Y0093031D02*
X0060075Y0093031D01*
X0060075Y0092263D01*
X0057006Y0089194D01*
X0057006Y0088427D01*
X0057231Y0089225D02*
X0057999Y0089225D01*
X0061068Y0086156D01*
X0061835Y0086156D01*
X0061835Y0084621D02*
X0060300Y0083086D01*
X0060300Y0083854D02*
X0060300Y0081552D01*
X0061835Y0081552D02*
X0057231Y0081552D01*
X0057231Y0083854D01*
X0057999Y0084621D01*
X0059533Y0084621D01*
X0060300Y0083854D01*
X0057231Y0086156D02*
X0057231Y0089225D01*
X0057999Y0090760D02*
X0057231Y0091527D01*
X0057231Y0093061D01*
X0057999Y0093829D01*
X0058766Y0093829D01*
X0059533Y0093061D01*
X0060300Y0093829D01*
X0061068Y0093829D01*
X0061835Y0093061D01*
X0061835Y0091527D01*
X0061068Y0090760D01*
X0059533Y0092294D02*
X0059533Y0093061D01*
X0059679Y0094052D02*
X0058145Y0095586D01*
X0058912Y0095586D02*
X0056610Y0095586D01*
X0055472Y0097177D02*
X0052402Y0097177D01*
X0053937Y0097177D02*
X0053937Y0101781D01*
X0052402Y0100246D01*
X0050868Y0101013D02*
X0050100Y0101781D01*
X0048566Y0101781D01*
X0047798Y0101013D01*
X0047798Y0097944D01*
X0048566Y0097177D01*
X0050100Y0097177D01*
X0050868Y0097944D01*
X0050100Y0093031D02*
X0047798Y0093031D01*
X0047798Y0088427D01*
X0047798Y0089961D02*
X0050100Y0089961D01*
X0050868Y0090729D01*
X0050868Y0092263D01*
X0050100Y0093031D01*
X0049333Y0089961D02*
X0050868Y0088427D01*
X0052402Y0090729D02*
X0055472Y0090729D01*
X0054704Y0093031D02*
X0052402Y0090729D01*
X0054704Y0088427D02*
X0054704Y0093031D01*
X0058912Y0095586D02*
X0059679Y0096354D01*
X0059679Y0097888D01*
X0058912Y0098656D01*
X0061214Y0097888D02*
X0061981Y0098656D01*
X0063516Y0098656D01*
X0064283Y0097888D01*
X0064283Y0097121D01*
X0063516Y0096354D01*
X0064283Y0095586D01*
X0064283Y0094819D01*
X0063516Y0094052D01*
X0061981Y0094052D01*
X0061214Y0094819D01*
X0062749Y0096354D02*
X0063516Y0096354D01*
X0065818Y0094819D02*
X0065818Y0094052D01*
X0065818Y0094819D02*
X0068887Y0097888D01*
X0068887Y0098656D01*
X0065818Y0098656D01*
X0059679Y0103569D02*
X0058912Y0102802D01*
X0057377Y0102802D01*
X0056610Y0103569D01*
X0056610Y0106638D01*
X0057377Y0107406D01*
X0058912Y0107406D01*
X0059679Y0106638D01*
X0058912Y0111552D02*
X0057377Y0111552D01*
X0056610Y0112319D01*
X0058912Y0111552D02*
X0059679Y0112319D01*
X0057575Y0114906D02*
X0054506Y0114906D01*
X0054506Y0120531D02*
X0057575Y0120531D01*
X0057575Y0122177D02*
X0054506Y0122177D01*
X0057575Y0125246D01*
X0057575Y0126013D01*
X0056808Y0126781D01*
X0055273Y0126781D01*
X0054506Y0126013D01*
X0052972Y0126013D02*
X0052204Y0126781D01*
X0046833Y0120531D02*
X0046833Y0115927D01*
X0047600Y0114906D02*
X0048368Y0114138D01*
X0061214Y0119763D02*
X0061981Y0120531D01*
X0063516Y0120531D01*
X0064283Y0119763D01*
X0076210Y0085017D02*
X0076210Y0081948D01*
X0076210Y0083482D02*
X0071606Y0083482D01*
X0073141Y0081948D01*
X0073141Y0080413D02*
X0072374Y0080413D01*
X0071606Y0079646D01*
X0071606Y0078111D01*
X0072374Y0077344D01*
X0072374Y0075809D02*
X0073908Y0075809D01*
X0074675Y0075042D01*
X0074675Y0072740D01*
X0075356Y0072090D02*
X0076124Y0071323D01*
X0075356Y0072090D02*
X0075356Y0073625D01*
X0076124Y0074392D01*
X0076891Y0074392D01*
X0079960Y0071323D01*
X0079960Y0074392D01*
X0076210Y0075809D02*
X0074675Y0074274D01*
X0074476Y0074546D02*
X0074476Y0056908D01*
X0065866Y0058114D02*
X0061262Y0058114D01*
X0061262Y0060416D01*
X0062029Y0061183D01*
X0063564Y0061183D01*
X0064331Y0060416D01*
X0064331Y0058114D01*
X0064331Y0059649D02*
X0065866Y0061183D01*
X0065866Y0062718D02*
X0062796Y0065787D01*
X0062029Y0065787D01*
X0061262Y0065020D01*
X0061262Y0063485D01*
X0062029Y0062718D01*
X0062029Y0067322D02*
X0061262Y0068089D01*
X0061262Y0069624D01*
X0062029Y0070391D01*
X0062796Y0070391D01*
X0063564Y0069624D01*
X0064331Y0070391D01*
X0065098Y0070391D01*
X0065866Y0069624D01*
X0065866Y0068089D01*
X0065098Y0067322D01*
X0065866Y0065787D02*
X0065866Y0062718D01*
X0063564Y0068856D02*
X0063564Y0069624D01*
X0061950Y0069052D02*
X0058881Y0069052D01*
X0060416Y0069052D02*
X0060416Y0073656D01*
X0058881Y0072121D01*
X0057347Y0072888D02*
X0057347Y0069819D01*
X0056579Y0069052D01*
X0054277Y0069052D01*
X0054277Y0073656D01*
X0056579Y0073656D01*
X0057347Y0072888D01*
X0071606Y0072740D02*
X0071606Y0075042D01*
X0072374Y0075809D01*
X0071606Y0072740D02*
X0076210Y0072740D01*
X0076124Y0069788D02*
X0075356Y0069021D01*
X0075356Y0066719D01*
X0079960Y0066719D01*
X0079960Y0069021D01*
X0079193Y0069788D01*
X0076124Y0069788D01*
X0076210Y0077344D02*
X0073141Y0080413D01*
X0076210Y0080413D02*
X0076210Y0077344D01*
X0086606Y0078031D02*
X0088908Y0078031D01*
X0088141Y0079565D01*
X0088141Y0080333D01*
X0088908Y0081100D01*
X0090443Y0081100D01*
X0091210Y0080333D01*
X0091210Y0078798D01*
X0090443Y0078031D01*
X0091210Y0076496D02*
X0089675Y0074961D01*
X0089594Y0074546D02*
X0089594Y0056908D01*
X0088710Y0057319D02*
X0088710Y0058854D01*
X0087943Y0059621D01*
X0087943Y0061156D02*
X0088710Y0061923D01*
X0088710Y0063458D01*
X0087943Y0064225D01*
X0087175Y0064225D01*
X0086408Y0063458D01*
X0086408Y0061156D01*
X0087943Y0061156D01*
X0086408Y0061156D02*
X0084874Y0062690D01*
X0084106Y0064225D01*
X0084874Y0059621D02*
X0084106Y0058854D01*
X0084106Y0057319D01*
X0084874Y0056552D01*
X0087943Y0056552D01*
X0088710Y0057319D01*
X0092231Y0064219D02*
X0092231Y0066521D01*
X0092999Y0067288D01*
X0096068Y0067288D01*
X0096835Y0066521D01*
X0096835Y0064219D01*
X0092231Y0064219D01*
X0094533Y0068823D02*
X0094533Y0071892D01*
X0092231Y0071125D02*
X0094533Y0068823D01*
X0096835Y0071125D02*
X0092231Y0071125D01*
X0091210Y0073427D02*
X0086606Y0073427D01*
X0086606Y0075729D01*
X0087374Y0076496D01*
X0088908Y0076496D01*
X0089675Y0075729D01*
X0089675Y0073427D01*
X0086606Y0078031D02*
X0086606Y0081100D01*
X0087374Y0082635D02*
X0088141Y0082635D01*
X0088908Y0083402D01*
X0088908Y0084936D01*
X0089675Y0085704D01*
X0090443Y0085704D01*
X0091210Y0084936D01*
X0091210Y0083402D01*
X0090443Y0082635D01*
X0089675Y0082635D01*
X0088908Y0083402D01*
X0088908Y0084936D02*
X0088141Y0085704D01*
X0087374Y0085704D01*
X0086606Y0084936D01*
X0086606Y0083402D01*
X0087374Y0082635D01*
X0100985Y0082461D02*
X0103287Y0082461D01*
X0104054Y0083229D01*
X0104054Y0084763D01*
X0103287Y0085531D01*
X0100985Y0085531D01*
X0100985Y0080927D01*
X0102520Y0082461D02*
X0104054Y0080927D01*
X0105356Y0080104D02*
X0105356Y0077802D01*
X0109960Y0077802D01*
X0110585Y0078061D02*
X0109818Y0078829D01*
X0109050Y0078829D01*
X0108283Y0078061D01*
X0108283Y0075760D01*
X0109818Y0075760D01*
X0110585Y0076527D01*
X0110585Y0078061D01*
X0108425Y0077802D02*
X0108425Y0080104D01*
X0107658Y0080871D01*
X0106124Y0080871D01*
X0105356Y0080104D01*
X0106356Y0080927D02*
X0105589Y0081694D01*
X0106356Y0080927D02*
X0107891Y0080927D01*
X0108658Y0081694D01*
X0108658Y0083229D01*
X0107891Y0083996D01*
X0107124Y0083996D01*
X0105589Y0083229D01*
X0105589Y0085531D01*
X0108658Y0085531D01*
X0107658Y0085475D02*
X0107658Y0082406D01*
X0105356Y0084708D01*
X0109960Y0084708D01*
X0110193Y0085531D02*
X0113262Y0085531D01*
X0113262Y0084763D01*
X0110193Y0081694D01*
X0110193Y0080927D01*
X0109960Y0080871D02*
X0108425Y0079336D01*
X0105981Y0078829D02*
X0106749Y0077294D01*
X0108283Y0075760D01*
X0108283Y0074225D02*
X0108283Y0071156D01*
X0105981Y0073458D01*
X0110585Y0073458D01*
X0111408Y0069850D02*
X0111408Y0066781D01*
X0109106Y0069083D01*
X0113710Y0069083D01*
X0113162Y0067531D02*
X0110860Y0067531D01*
X0110860Y0062927D01*
X0113162Y0062927D01*
X0113929Y0063694D01*
X0113929Y0066763D01*
X0113162Y0067531D01*
X0113710Y0065246D02*
X0113710Y0062177D01*
X0109106Y0062177D01*
X0108954Y0060079D02*
X0106552Y0060079D01*
X0106552Y0058277D01*
X0107753Y0058878D01*
X0108354Y0058878D01*
X0108954Y0058277D01*
X0108954Y0057076D01*
X0108354Y0056476D01*
X0107152Y0056476D01*
X0106552Y0057076D01*
X0105271Y0057076D02*
X0104670Y0056476D01*
X0103469Y0056476D01*
X0102869Y0057076D01*
X0102869Y0059478D01*
X0103469Y0060079D01*
X0104670Y0060079D01*
X0105271Y0059478D01*
X0101614Y0060079D02*
X0100413Y0060079D01*
X0101014Y0060079D02*
X0101014Y0056476D01*
X0101614Y0056476D02*
X0100413Y0056476D01*
X0099704Y0054281D02*
X0100472Y0053513D01*
X0100472Y0051979D01*
X0099704Y0051211D01*
X0097402Y0051211D01*
X0097402Y0049677D02*
X0097402Y0054281D01*
X0099704Y0054281D01*
X0102006Y0054281D02*
X0102006Y0051979D01*
X0103541Y0052746D01*
X0104308Y0052746D01*
X0105075Y0051979D01*
X0105075Y0050444D01*
X0104308Y0049677D01*
X0102773Y0049677D01*
X0102006Y0050444D01*
X0100472Y0049677D02*
X0098937Y0051211D01*
X0102006Y0054281D02*
X0105075Y0054281D01*
X0106749Y0066552D02*
X0109818Y0066552D01*
X0110585Y0067319D01*
X0110585Y0068854D01*
X0109818Y0069621D01*
X0106749Y0069621D02*
X0105981Y0068854D01*
X0105981Y0067319D01*
X0106749Y0066552D01*
X0115464Y0065229D02*
X0115464Y0063694D01*
X0116231Y0062927D01*
X0117766Y0062927D01*
X0118533Y0063694D01*
X0118533Y0064461D01*
X0117766Y0065229D01*
X0115464Y0065229D01*
X0116999Y0066763D01*
X0118533Y0067531D01*
X0121606Y0066979D02*
X0121606Y0065444D01*
X0122374Y0064677D01*
X0125443Y0064677D01*
X0126210Y0065444D01*
X0126210Y0066979D01*
X0125443Y0067746D01*
X0123908Y0069281D02*
X0123908Y0072350D01*
X0121606Y0071583D02*
X0123908Y0069281D01*
X0122374Y0067746D02*
X0121606Y0066979D01*
X0121606Y0071583D02*
X0126210Y0071583D01*
X0133566Y0078427D02*
X0132798Y0079194D01*
X0132798Y0082263D01*
X0133566Y0083031D01*
X0135100Y0083031D01*
X0135868Y0082263D01*
X0137402Y0082263D02*
X0138170Y0083031D01*
X0139704Y0083031D01*
X0140472Y0082263D01*
X0140472Y0081496D01*
X0137402Y0078427D01*
X0140472Y0078427D01*
X0142006Y0079194D02*
X0142773Y0078427D01*
X0144308Y0078427D01*
X0145075Y0079194D01*
X0145075Y0079961D01*
X0144308Y0080729D01*
X0143541Y0080729D01*
X0144308Y0080729D02*
X0145075Y0081496D01*
X0145075Y0082263D01*
X0144308Y0083031D01*
X0142773Y0083031D01*
X0142006Y0082263D01*
X0135868Y0079194D02*
X0135100Y0078427D01*
X0133566Y0078427D01*
X0143485Y0068656D02*
X0145787Y0068656D01*
X0146554Y0067888D01*
X0146554Y0066354D01*
X0145787Y0065586D01*
X0143485Y0065586D01*
X0143485Y0064052D02*
X0143485Y0068656D01*
X0143566Y0068031D02*
X0142798Y0067263D01*
X0142798Y0064194D01*
X0143566Y0063427D01*
X0145100Y0063427D01*
X0145868Y0064194D01*
X0146554Y0064052D02*
X0145020Y0065586D01*
X0145868Y0067263D02*
X0145100Y0068031D01*
X0143566Y0068031D01*
X0147402Y0067263D02*
X0148170Y0068031D01*
X0149704Y0068031D01*
X0150472Y0067263D01*
X0150472Y0066496D01*
X0147402Y0063427D01*
X0150472Y0063427D01*
X0150391Y0064052D02*
X0150391Y0068656D01*
X0148089Y0066354D01*
X0151158Y0066354D01*
X0152006Y0067263D02*
X0152773Y0068031D01*
X0154308Y0068031D01*
X0155075Y0067263D01*
X0152006Y0064194D01*
X0152773Y0063427D01*
X0154308Y0063427D01*
X0155075Y0064194D01*
X0155075Y0067263D01*
X0154228Y0068656D02*
X0154228Y0064052D01*
X0155762Y0064052D02*
X0152693Y0064052D01*
X0152006Y0064194D02*
X0152006Y0067263D01*
X0152693Y0067121D02*
X0154228Y0068656D01*
X0153610Y0061594D02*
X0153610Y0056990D01*
X0156680Y0056990D01*
X0156680Y0057219D02*
X0153610Y0057219D01*
X0153610Y0052615D01*
X0156680Y0052615D01*
X0156680Y0052844D02*
X0153610Y0052844D01*
X0153610Y0048240D01*
X0156680Y0048240D01*
X0158214Y0048240D02*
X0160516Y0048240D01*
X0161284Y0049007D01*
X0161284Y0052076D01*
X0160516Y0052844D01*
X0158214Y0052844D01*
X0158214Y0048240D01*
X0155145Y0050542D02*
X0153610Y0050542D01*
X0152076Y0052615D02*
X0149006Y0052615D01*
X0149006Y0057219D01*
X0149006Y0056990D02*
X0152076Y0056990D01*
X0153610Y0054917D02*
X0155145Y0054917D01*
X0158214Y0056990D02*
X0160516Y0056990D01*
X0161284Y0057757D01*
X0161284Y0060826D01*
X0160516Y0061594D01*
X0158214Y0061594D01*
X0158214Y0056990D01*
X0158214Y0057219D02*
X0160516Y0057219D01*
X0161284Y0056451D01*
X0161284Y0053382D01*
X0160516Y0052615D01*
X0158214Y0052615D01*
X0158214Y0057219D01*
X0155145Y0059292D02*
X0153610Y0059292D01*
X0153610Y0061594D02*
X0156680Y0061594D01*
X0161548Y0063569D02*
X0161548Y0066638D01*
X0162316Y0067406D01*
X0163850Y0067406D01*
X0164618Y0066638D01*
X0164073Y0067105D02*
X0162498Y0067105D01*
X0162498Y0064349D02*
X0164073Y0064349D01*
X0164618Y0063569D02*
X0163850Y0062802D01*
X0162316Y0062802D01*
X0161548Y0063569D01*
X0162498Y0062730D02*
X0164073Y0062730D01*
X0163585Y0061594D02*
X0162818Y0060826D01*
X0162498Y0059974D02*
X0164073Y0059974D01*
X0164073Y0058355D02*
X0162498Y0058355D01*
X0162818Y0056990D02*
X0165887Y0060059D01*
X0165887Y0060826D01*
X0165120Y0061594D01*
X0163585Y0061594D01*
X0166152Y0062802D02*
X0169222Y0065871D01*
X0169222Y0066638D01*
X0168454Y0067406D01*
X0166920Y0067406D01*
X0166152Y0066638D01*
X0166152Y0062802D02*
X0169222Y0062802D01*
X0170756Y0062802D02*
X0173825Y0065871D01*
X0173825Y0066638D01*
X0173058Y0067406D01*
X0171523Y0067406D01*
X0170756Y0066638D01*
X0170360Y0065586D02*
X0172662Y0065586D01*
X0173429Y0066354D01*
X0173429Y0067888D01*
X0172662Y0068656D01*
X0170360Y0068656D01*
X0170360Y0064052D01*
X0170360Y0064281D02*
X0172662Y0064281D01*
X0173429Y0063513D01*
X0173429Y0061979D01*
X0172662Y0061211D01*
X0170360Y0061211D01*
X0170360Y0059677D02*
X0170360Y0064281D01*
X0170756Y0062802D02*
X0173825Y0062802D01*
X0174964Y0062746D02*
X0176499Y0064281D01*
X0176499Y0059677D01*
X0178033Y0059677D02*
X0174964Y0059677D01*
X0173429Y0059677D02*
X0171895Y0061211D01*
X0173429Y0064052D02*
X0171895Y0065586D01*
X0174964Y0064819D02*
X0175731Y0064052D01*
X0177266Y0064052D01*
X0178033Y0064819D01*
X0178033Y0066354D01*
X0177266Y0067121D01*
X0176499Y0067121D01*
X0174964Y0066354D01*
X0174964Y0068656D01*
X0178033Y0068656D01*
X0178033Y0069194D02*
X0177266Y0068427D01*
X0175731Y0068427D01*
X0174964Y0069194D01*
X0174964Y0070729D02*
X0176499Y0071496D01*
X0177266Y0071496D01*
X0178033Y0070729D01*
X0178033Y0069194D01*
X0179568Y0069194D02*
X0180335Y0068427D01*
X0181870Y0068427D01*
X0182637Y0069194D01*
X0182637Y0069961D01*
X0181870Y0070729D01*
X0181103Y0070729D01*
X0181870Y0070729D02*
X0182637Y0071496D01*
X0182637Y0072263D01*
X0181870Y0073031D01*
X0180335Y0073031D01*
X0179568Y0072263D01*
X0178033Y0073031D02*
X0174964Y0073031D01*
X0174964Y0070729D01*
X0173429Y0070729D02*
X0172662Y0069961D01*
X0170360Y0069961D01*
X0170360Y0068427D02*
X0170360Y0073031D01*
X0172662Y0073031D01*
X0173429Y0072263D01*
X0173429Y0070729D01*
X0171895Y0069961D02*
X0173429Y0068427D01*
X0173262Y0072802D02*
X0170193Y0072802D01*
X0171728Y0072802D02*
X0171728Y0077406D01*
X0170193Y0075871D01*
X0168658Y0075871D02*
X0167891Y0075104D01*
X0168658Y0074336D01*
X0168658Y0073569D01*
X0167891Y0072802D01*
X0166356Y0072802D01*
X0165589Y0073569D01*
X0164054Y0072802D02*
X0162520Y0074336D01*
X0163287Y0074336D02*
X0160985Y0074336D01*
X0160985Y0072802D02*
X0160985Y0077406D01*
X0163287Y0077406D01*
X0164054Y0076638D01*
X0164054Y0075104D01*
X0163287Y0074336D01*
X0165589Y0076638D02*
X0166356Y0077406D01*
X0167891Y0077406D01*
X0168658Y0076638D01*
X0168658Y0075871D01*
X0167891Y0075104D02*
X0167124Y0075104D01*
X0179568Y0066354D02*
X0182637Y0066354D01*
X0181870Y0064052D02*
X0181870Y0068656D01*
X0179568Y0066354D01*
X0165887Y0056990D02*
X0162818Y0056990D01*
X0162818Y0056451D02*
X0163585Y0057219D01*
X0165120Y0057219D01*
X0165887Y0056451D01*
X0165887Y0055684D01*
X0165120Y0054917D01*
X0165887Y0054149D01*
X0165887Y0053382D01*
X0165120Y0052615D01*
X0163585Y0052615D01*
X0162818Y0053382D01*
X0164353Y0052844D02*
X0162818Y0051309D01*
X0164353Y0052844D02*
X0164353Y0048240D01*
X0165887Y0048240D02*
X0162818Y0048240D01*
X0164353Y0054917D02*
X0165120Y0054917D01*
X0164073Y0055599D02*
X0162498Y0055599D01*
X0152076Y0048240D02*
X0149006Y0048240D01*
X0149006Y0052844D01*
X0149006Y0056990D02*
X0149006Y0061594D01*
X0120620Y0090927D02*
X0119085Y0090927D01*
X0118318Y0091694D01*
X0121387Y0094763D01*
X0121387Y0091694D01*
X0120620Y0090927D01*
X0118318Y0091694D02*
X0118318Y0094763D01*
X0119085Y0095531D01*
X0120620Y0095531D01*
X0121387Y0094763D01*
X0120620Y0099677D02*
X0119085Y0099677D01*
X0118318Y0100444D01*
X0118318Y0101979D01*
X0120620Y0101979D01*
X0121387Y0101211D01*
X0121387Y0100444D01*
X0120620Y0099677D01*
X0118318Y0101979D02*
X0119853Y0103513D01*
X0121387Y0104281D01*
X0116783Y0104819D02*
X0116016Y0104052D01*
X0114481Y0104052D01*
X0113714Y0104819D01*
X0114481Y0104281D02*
X0113714Y0103513D01*
X0114481Y0104281D02*
X0116016Y0104281D01*
X0116783Y0103513D01*
X0116783Y0102746D01*
X0113714Y0099677D01*
X0116783Y0099677D01*
X0116016Y0099906D02*
X0113714Y0097604D01*
X0116783Y0097604D01*
X0116016Y0095302D02*
X0116016Y0099906D01*
X0112179Y0100444D02*
X0111412Y0099677D01*
X0109877Y0099677D01*
X0109110Y0100444D01*
X0109110Y0103513D01*
X0109877Y0104281D01*
X0111412Y0104281D01*
X0112179Y0103513D01*
X0111412Y0104052D02*
X0112179Y0104819D01*
X0111412Y0104052D02*
X0109877Y0104052D01*
X0109110Y0104819D01*
X0109110Y0107888D01*
X0109877Y0108656D01*
X0111412Y0108656D01*
X0112179Y0107888D01*
X0113714Y0107888D02*
X0114481Y0108656D01*
X0116016Y0108656D01*
X0116783Y0107888D01*
X0116783Y0107121D01*
X0116016Y0106354D01*
X0116783Y0105586D01*
X0116783Y0104819D01*
X0116016Y0106354D02*
X0115249Y0106354D01*
X0111412Y0099906D02*
X0112179Y0099138D01*
X0112179Y0097604D01*
X0111412Y0096836D01*
X0109110Y0096836D01*
X0109877Y0095531D02*
X0109110Y0094763D01*
X0109110Y0091694D01*
X0109877Y0090927D01*
X0111412Y0090927D01*
X0112179Y0091694D01*
X0113714Y0090927D02*
X0116783Y0090927D01*
X0115249Y0090927D02*
X0115249Y0095531D01*
X0113714Y0093996D01*
X0112179Y0094763D02*
X0111412Y0095531D01*
X0109877Y0095531D01*
X0109110Y0095302D02*
X0109110Y0099906D01*
X0111412Y0099906D01*
X0110645Y0096836D02*
X0112179Y0095302D01*
X0109193Y0090079D02*
X0109960Y0089311D01*
X0109960Y0087777D01*
X0109193Y0087010D01*
X0107658Y0088544D02*
X0107658Y0089311D01*
X0108425Y0090079D01*
X0109193Y0090079D01*
X0107658Y0089311D02*
X0106891Y0090079D01*
X0106124Y0090079D01*
X0105356Y0089311D01*
X0105356Y0087777D01*
X0106124Y0087010D01*
X0105670Y0114052D02*
X0107204Y0114052D01*
X0107972Y0114819D01*
X0109506Y0114052D02*
X0112575Y0117121D01*
X0112575Y0117888D01*
X0111808Y0118656D01*
X0110273Y0118656D01*
X0109506Y0117888D01*
X0107972Y0117888D02*
X0107204Y0118656D01*
X0105670Y0118656D01*
X0104902Y0117888D01*
X0104902Y0114819D01*
X0105670Y0114052D01*
X0109506Y0114052D02*
X0112575Y0114052D01*
X0132798Y0114194D02*
X0133566Y0113427D01*
X0135100Y0113427D01*
X0135868Y0114194D01*
X0137402Y0114194D02*
X0138170Y0113427D01*
X0139704Y0113427D01*
X0140472Y0114194D01*
X0140472Y0114961D01*
X0139704Y0115729D01*
X0138937Y0115729D01*
X0139704Y0115729D02*
X0140472Y0116496D01*
X0140472Y0117263D01*
X0139704Y0118031D01*
X0138170Y0118031D01*
X0137402Y0117263D01*
X0135868Y0117263D02*
X0135100Y0118031D01*
X0133566Y0118031D01*
X0132798Y0117263D01*
X0132798Y0114194D01*
X0139731Y0114281D02*
X0142033Y0114281D01*
X0141266Y0115815D01*
X0141266Y0116583D01*
X0142033Y0117350D01*
X0143568Y0117350D01*
X0144335Y0116583D01*
X0144335Y0115048D01*
X0143568Y0114281D01*
X0144308Y0113427D02*
X0142773Y0113427D01*
X0142006Y0114194D01*
X0142773Y0115729D02*
X0145075Y0115729D01*
X0145075Y0117263D02*
X0145075Y0114194D01*
X0144308Y0113427D01*
X0143568Y0112746D02*
X0144335Y0111979D01*
X0144335Y0110444D01*
X0143568Y0109677D01*
X0140499Y0109677D01*
X0139731Y0110444D01*
X0139731Y0111979D01*
X0140499Y0112746D01*
X0139731Y0114281D02*
X0139731Y0117350D01*
X0141266Y0118885D02*
X0139731Y0120419D01*
X0144335Y0120419D01*
X0144335Y0118885D02*
X0144335Y0121954D01*
X0144308Y0118031D02*
X0142773Y0118031D01*
X0142006Y0117263D01*
X0142006Y0116496D01*
X0142773Y0115729D01*
X0145075Y0117263D02*
X0144308Y0118031D01*
X0167231Y0144200D02*
X0170300Y0144200D01*
X0169876Y0143471D02*
X0169876Y0145006D01*
X0171065Y0145226D02*
X0171065Y0143692D01*
X0171832Y0142924D01*
X0174901Y0142924D01*
X0175669Y0143692D01*
X0175669Y0145226D01*
X0174901Y0145994D01*
X0171832Y0145994D02*
X0171065Y0145226D01*
X0171065Y0141390D02*
X0171065Y0139855D01*
X0171065Y0140623D02*
X0175669Y0140623D01*
X0175669Y0141390D02*
X0175669Y0139855D01*
X0174335Y0152344D02*
X0174335Y0155413D01*
X0171550Y0157461D02*
X0173085Y0158996D01*
X0169193Y0156948D02*
X0166124Y0156948D01*
X0165356Y0157715D01*
X0165356Y0159250D01*
X0166124Y0160017D01*
X0164874Y0158996D02*
X0164106Y0158229D01*
X0150783Y0188823D02*
X0150783Y0191892D01*
X0148481Y0191125D02*
X0150783Y0188823D01*
X0153085Y0191125D02*
X0148481Y0191125D01*
X0146835Y0190302D02*
X0142231Y0190302D01*
X0142231Y0192604D01*
X0142999Y0193371D01*
X0144533Y0193371D01*
X0145300Y0192604D01*
X0145300Y0190302D01*
X0145300Y0191836D02*
X0146835Y0193371D01*
X0146835Y0194906D02*
X0146835Y0197975D01*
X0146835Y0199510D02*
X0143766Y0202579D01*
X0142999Y0202579D01*
X0142231Y0201811D01*
X0142231Y0200277D01*
X0142999Y0199510D01*
X0142231Y0196440D02*
X0146835Y0196440D01*
X0146835Y0199510D02*
X0146835Y0202579D01*
X0142231Y0196440D02*
X0143766Y0194906D01*
X0139460Y0195396D02*
X0138693Y0196163D01*
X0135624Y0196163D01*
X0134856Y0195396D01*
X0134856Y0193094D01*
X0139460Y0193094D01*
X0139460Y0195396D01*
X0138693Y0197698D02*
X0139460Y0198465D01*
X0139460Y0200000D01*
X0138693Y0200767D01*
X0137158Y0200767D01*
X0136391Y0200000D01*
X0136391Y0199232D01*
X0137158Y0197698D01*
X0134856Y0197698D01*
X0134856Y0200767D01*
X0134335Y0201811D02*
X0129731Y0201811D01*
X0132033Y0199510D01*
X0132033Y0202579D01*
X0130085Y0200000D02*
X0130085Y0198465D01*
X0129318Y0197698D01*
X0129731Y0196440D02*
X0134335Y0196440D01*
X0134335Y0194906D02*
X0134335Y0197975D01*
X0131266Y0194906D02*
X0129731Y0196440D01*
X0129318Y0196163D02*
X0126249Y0196163D01*
X0125481Y0195396D01*
X0125481Y0193094D01*
X0130085Y0193094D01*
X0130085Y0195396D01*
X0129318Y0196163D01*
X0130499Y0193371D02*
X0132033Y0193371D01*
X0132800Y0192604D01*
X0132800Y0190302D01*
X0132800Y0191836D02*
X0134335Y0193371D01*
X0134335Y0190302D02*
X0129731Y0190302D01*
X0129731Y0192604D01*
X0130499Y0193371D01*
X0126249Y0197698D02*
X0125481Y0198465D01*
X0125481Y0200000D01*
X0126249Y0200767D01*
X0127016Y0200767D01*
X0127783Y0200000D01*
X0128550Y0200767D01*
X0129318Y0200767D01*
X0130085Y0200000D01*
X0127783Y0200000D02*
X0127783Y0199232D01*
X0110533Y0204138D02*
X0107464Y0201069D01*
X0107464Y0200302D01*
X0107891Y0201552D02*
X0106356Y0201552D01*
X0105589Y0202319D01*
X0105589Y0203086D01*
X0106356Y0203854D01*
X0107891Y0203854D01*
X0108658Y0203086D01*
X0108658Y0202319D01*
X0107891Y0201552D01*
X0105929Y0201069D02*
X0105162Y0200302D01*
X0103627Y0200302D01*
X0102860Y0201069D01*
X0102860Y0204138D01*
X0103627Y0204906D01*
X0105162Y0204906D01*
X0105929Y0204138D01*
X0105929Y0201069D01*
X0105929Y0200302D02*
X0104395Y0201836D01*
X0104054Y0201552D02*
X0102520Y0203086D01*
X0103287Y0203086D02*
X0100985Y0203086D01*
X0100985Y0201552D02*
X0100985Y0206156D01*
X0103287Y0206156D01*
X0104054Y0205388D01*
X0104054Y0203854D01*
X0103287Y0203086D01*
X0105589Y0204621D02*
X0105589Y0205388D01*
X0106356Y0206156D01*
X0107891Y0206156D01*
X0108658Y0205388D01*
X0108658Y0204621D01*
X0107891Y0203854D01*
X0107464Y0204906D02*
X0110533Y0204906D01*
X0110533Y0204138D01*
X0106356Y0203854D02*
X0105589Y0204621D01*
X0096158Y0204138D02*
X0096158Y0203371D01*
X0095391Y0202604D01*
X0093856Y0202604D01*
X0093089Y0203371D01*
X0093089Y0204138D01*
X0093856Y0204906D01*
X0095391Y0204906D01*
X0096158Y0204138D01*
X0095391Y0202604D02*
X0096158Y0201836D01*
X0096158Y0201069D01*
X0095391Y0200302D01*
X0093856Y0200302D01*
X0093089Y0201069D01*
X0093089Y0201836D01*
X0093856Y0202604D01*
X0091554Y0204138D02*
X0091554Y0201069D01*
X0090787Y0200302D01*
X0089252Y0200302D01*
X0088485Y0201069D01*
X0088485Y0204138D01*
X0089252Y0204906D01*
X0090787Y0204906D01*
X0091554Y0204138D01*
X0090020Y0201836D02*
X0091554Y0200302D01*
X0083658Y0200302D02*
X0080589Y0200302D01*
X0079054Y0200302D02*
X0077520Y0201836D01*
X0078287Y0200302D02*
X0076752Y0200302D01*
X0075985Y0201069D01*
X0075985Y0204138D01*
X0076752Y0204906D01*
X0078287Y0204906D01*
X0079054Y0204138D01*
X0079054Y0201069D01*
X0078287Y0200302D01*
X0080589Y0203371D02*
X0082124Y0204906D01*
X0082124Y0200302D01*
X0071158Y0202604D02*
X0068089Y0202604D01*
X0070391Y0204906D01*
X0070391Y0200302D01*
X0066554Y0200302D02*
X0065020Y0201836D01*
X0064335Y0200500D02*
X0063568Y0201267D01*
X0062800Y0201267D01*
X0062033Y0200500D01*
X0062033Y0198965D01*
X0061266Y0198198D01*
X0060499Y0198198D01*
X0059731Y0198965D01*
X0059731Y0200500D01*
X0060499Y0201267D01*
X0061266Y0201267D01*
X0062033Y0200500D01*
X0062033Y0198965D02*
X0062800Y0198198D01*
X0063568Y0198198D01*
X0064335Y0198965D01*
X0064335Y0200500D01*
X0064252Y0200302D02*
X0063485Y0201069D01*
X0063485Y0204138D01*
X0064252Y0204906D01*
X0065787Y0204906D01*
X0066554Y0204138D01*
X0066554Y0201069D01*
X0065787Y0200302D01*
X0064252Y0200302D01*
X0059335Y0200871D02*
X0057800Y0199336D01*
X0057891Y0199906D02*
X0056356Y0199906D01*
X0055589Y0199138D01*
X0054874Y0199559D02*
X0056408Y0199559D01*
X0057175Y0198792D01*
X0057175Y0196490D01*
X0057800Y0197802D02*
X0057800Y0200104D01*
X0057033Y0200871D01*
X0055499Y0200871D01*
X0054731Y0200104D01*
X0054731Y0197802D01*
X0059335Y0197802D01*
X0058658Y0198371D02*
X0058658Y0199138D01*
X0057891Y0199906D01*
X0058710Y0199559D02*
X0057175Y0198024D01*
X0058658Y0198371D02*
X0055589Y0195302D01*
X0058658Y0195302D01*
X0058710Y0196490D02*
X0054106Y0196490D01*
X0054106Y0198792D01*
X0054874Y0199559D01*
X0054054Y0199138D02*
X0054054Y0196069D01*
X0053287Y0195302D01*
X0051752Y0195302D01*
X0050985Y0196069D01*
X0050985Y0199138D01*
X0051752Y0199906D01*
X0053287Y0199906D01*
X0054054Y0199138D01*
X0054106Y0201094D02*
X0054106Y0204163D01*
X0054874Y0204163D01*
X0057943Y0201094D01*
X0058710Y0201094D01*
X0058568Y0202406D02*
X0057800Y0202406D01*
X0057033Y0203173D01*
X0057033Y0204708D01*
X0057800Y0205475D01*
X0058568Y0205475D01*
X0059335Y0204708D01*
X0059335Y0203173D01*
X0058568Y0202406D01*
X0057033Y0203173D02*
X0056266Y0202406D01*
X0055499Y0202406D01*
X0054731Y0203173D01*
X0054731Y0204708D01*
X0055499Y0205475D01*
X0056266Y0205475D01*
X0057033Y0204708D01*
X0057943Y0205698D02*
X0058710Y0206465D01*
X0058710Y0208000D01*
X0057943Y0208767D01*
X0054874Y0208767D01*
X0054106Y0208000D01*
X0054106Y0206465D01*
X0054874Y0205698D01*
X0055641Y0205698D01*
X0056408Y0206465D01*
X0056408Y0208767D01*
X0055499Y0210079D02*
X0058568Y0207010D01*
X0059335Y0207777D01*
X0059335Y0209311D01*
X0058568Y0210079D01*
X0055499Y0210079D01*
X0054731Y0209311D01*
X0054731Y0207777D01*
X0055499Y0207010D01*
X0058568Y0207010D01*
X0058710Y0214844D02*
X0054106Y0214844D01*
X0054106Y0217146D01*
X0054874Y0217913D01*
X0056408Y0217913D01*
X0057175Y0217146D01*
X0057175Y0214844D01*
X0057175Y0216378D02*
X0058710Y0217913D01*
X0058710Y0219448D02*
X0057943Y0219448D01*
X0054874Y0222517D01*
X0054106Y0222517D01*
X0054106Y0219448D01*
X0054252Y0220302D02*
X0053485Y0221069D01*
X0053485Y0224138D01*
X0054252Y0224906D01*
X0055787Y0224906D01*
X0056554Y0224138D01*
X0056554Y0221069D01*
X0055787Y0220302D01*
X0054252Y0220302D01*
X0055020Y0221836D02*
X0056554Y0220302D01*
X0058089Y0221069D02*
X0058856Y0220302D01*
X0060391Y0220302D01*
X0061158Y0221069D01*
X0061158Y0221836D01*
X0060391Y0222604D01*
X0059624Y0222604D01*
X0060391Y0222604D02*
X0061158Y0223371D01*
X0061158Y0224138D01*
X0060391Y0224906D01*
X0058856Y0224906D01*
X0058089Y0224138D01*
X0048710Y0228427D02*
X0044106Y0228427D01*
X0044106Y0230729D01*
X0044874Y0231496D01*
X0046408Y0231496D01*
X0047175Y0230729D01*
X0047175Y0228427D01*
X0047175Y0229961D02*
X0048710Y0231496D01*
X0048710Y0233031D02*
X0045641Y0236100D01*
X0044874Y0236100D01*
X0044106Y0235333D01*
X0044106Y0233798D01*
X0044874Y0233031D01*
X0048710Y0233031D02*
X0048710Y0236100D01*
X0048710Y0237635D02*
X0045641Y0240704D01*
X0044874Y0240704D01*
X0044106Y0239936D01*
X0044106Y0238402D01*
X0044874Y0237635D01*
X0048710Y0237635D02*
X0048710Y0240704D01*
X0048360Y0247302D02*
X0050662Y0247302D01*
X0051429Y0248069D01*
X0051429Y0251138D01*
X0050662Y0251906D01*
X0048360Y0251906D01*
X0048360Y0247302D01*
X0052964Y0247302D02*
X0052964Y0248069D01*
X0056033Y0251138D01*
X0056033Y0251906D01*
X0052964Y0251906D01*
X0069106Y0236750D02*
X0069106Y0235215D01*
X0069874Y0234448D01*
X0070641Y0234448D01*
X0071408Y0235215D01*
X0071408Y0237517D01*
X0069874Y0237517D02*
X0072943Y0237517D01*
X0073710Y0236750D01*
X0073710Y0235215D01*
X0072943Y0234448D01*
X0072943Y0232913D02*
X0073710Y0232146D01*
X0073710Y0230611D01*
X0072943Y0229844D01*
X0069874Y0229844D01*
X0069106Y0230611D01*
X0069106Y0232146D01*
X0069874Y0232913D01*
X0072943Y0232913D01*
X0073710Y0232913D02*
X0072175Y0231378D01*
X0069106Y0236750D02*
X0069874Y0237517D01*
X0060499Y0196663D02*
X0063568Y0193594D01*
X0064335Y0193594D01*
X0064335Y0192059D02*
X0062800Y0190524D01*
X0062800Y0191292D02*
X0062800Y0188990D01*
X0064335Y0188990D02*
X0059731Y0188990D01*
X0059731Y0191292D01*
X0060499Y0192059D01*
X0062033Y0192059D01*
X0062800Y0191292D01*
X0059731Y0193594D02*
X0059731Y0196663D01*
X0060499Y0196663D01*
X0054054Y0195302D02*
X0052520Y0196836D01*
X0199731Y0224819D02*
X0199731Y0226354D01*
X0200499Y0227121D01*
X0203568Y0227121D01*
X0204335Y0226354D01*
X0204335Y0224819D01*
X0203568Y0224052D01*
X0200499Y0224052D01*
X0199731Y0224819D01*
X0201266Y0228656D02*
X0199731Y0230190D01*
X0204335Y0230190D01*
X0204335Y0228656D02*
X0204335Y0231725D01*
X0203568Y0233260D02*
X0200499Y0233260D01*
X0199731Y0234027D01*
X0199731Y0235561D01*
X0200499Y0236329D01*
X0203568Y0233260D01*
X0204335Y0234027D01*
X0204335Y0235561D01*
X0203568Y0236329D01*
X0200499Y0236329D01*
X0204335Y0227121D02*
X0202800Y0225586D01*
X0227033Y0105642D02*
X0227033Y0102573D01*
X0224731Y0104875D01*
X0229335Y0104875D01*
X0228568Y0101038D02*
X0229335Y0100271D01*
X0229335Y0098736D01*
X0228568Y0097969D01*
X0228568Y0096434D02*
X0229335Y0095667D01*
X0229335Y0094132D01*
X0228568Y0093365D01*
X0225499Y0093365D01*
X0224731Y0094132D01*
X0224731Y0095667D01*
X0225499Y0096434D01*
X0225499Y0097969D02*
X0224731Y0098736D01*
X0224731Y0100271D01*
X0225499Y0101038D01*
X0226266Y0101038D01*
X0227033Y0100271D01*
X0227800Y0101038D01*
X0228568Y0101038D01*
X0227033Y0100271D02*
X0227033Y0099503D01*
X0227033Y0091892D02*
X0226266Y0091125D01*
X0226266Y0090357D01*
X0227033Y0088823D01*
X0224731Y0088823D01*
X0224731Y0091892D01*
X0227033Y0091892D02*
X0228568Y0091892D01*
X0229335Y0091125D01*
X0229335Y0089590D01*
X0228568Y0088823D01*
X0228568Y0087288D02*
X0229335Y0086521D01*
X0229335Y0084986D01*
X0228568Y0084219D01*
X0225499Y0084219D01*
X0224731Y0084986D01*
X0224731Y0086521D01*
X0225499Y0087288D01*
X0225499Y0082517D02*
X0228568Y0079448D01*
X0229335Y0079448D01*
X0229335Y0077913D02*
X0229335Y0074844D01*
X0226266Y0077913D01*
X0225499Y0077913D01*
X0224731Y0077146D01*
X0224731Y0075611D01*
X0225499Y0074844D01*
X0225499Y0073309D02*
X0227033Y0073309D01*
X0227800Y0072542D01*
X0227800Y0070240D01*
X0227800Y0071774D02*
X0229335Y0073309D01*
X0229335Y0070240D02*
X0224731Y0070240D01*
X0224731Y0072542D01*
X0225499Y0073309D01*
X0224731Y0079448D02*
X0224731Y0082517D01*
X0225499Y0082517D01*
X0219335Y0077350D02*
X0219335Y0074281D01*
X0219335Y0075815D02*
X0214731Y0075815D01*
X0216266Y0074281D01*
X0215499Y0072746D02*
X0214731Y0071979D01*
X0214731Y0070444D01*
X0215499Y0069677D01*
X0218568Y0069677D01*
X0219335Y0070444D01*
X0219335Y0071979D01*
X0218568Y0072746D01*
X0218568Y0070079D02*
X0219335Y0069311D01*
X0219335Y0067777D01*
X0218568Y0067010D01*
X0218568Y0065475D02*
X0219335Y0064708D01*
X0219335Y0063173D01*
X0218568Y0062406D01*
X0219335Y0060871D02*
X0217800Y0059336D01*
X0217800Y0060104D02*
X0217800Y0057802D01*
X0219335Y0057802D02*
X0214731Y0057802D01*
X0214731Y0060104D01*
X0215499Y0060871D01*
X0217033Y0060871D01*
X0217800Y0060104D01*
X0215499Y0062406D02*
X0214731Y0063173D01*
X0214731Y0064708D01*
X0215499Y0065475D01*
X0216266Y0065475D01*
X0217033Y0064708D01*
X0217800Y0065475D01*
X0218568Y0065475D01*
X0217033Y0064708D02*
X0217033Y0063940D01*
X0215499Y0067010D02*
X0214731Y0067777D01*
X0214731Y0069311D01*
X0215499Y0070079D01*
X0216266Y0070079D01*
X0217033Y0069311D01*
X0217800Y0070079D01*
X0218568Y0070079D01*
X0217033Y0069311D02*
X0217033Y0068544D01*
D12*
X0219535Y0070102D02*
X0217035Y0072602D01*
X0212035Y0072602D01*
X0209535Y0070102D01*
X0209535Y0055102D01*
X0212035Y0052602D01*
X0217035Y0052602D01*
X0219535Y0055102D01*
X0219535Y0070102D01*
X0209535Y0070102D02*
X0207035Y0072602D01*
X0202035Y0072602D01*
X0199535Y0070102D01*
X0199535Y0055102D01*
X0202035Y0052602D01*
X0207035Y0052602D01*
X0209535Y0055102D01*
X0199535Y0055102D02*
X0197035Y0052602D01*
X0192035Y0052602D01*
X0189535Y0055102D01*
X0189535Y0070102D01*
X0192035Y0072602D01*
X0197035Y0072602D01*
X0199535Y0070102D01*
X0189535Y0070102D02*
X0187035Y0072602D01*
X0182035Y0072602D01*
X0179535Y0070102D01*
X0179535Y0055102D01*
X0182035Y0052602D01*
X0187035Y0052602D01*
X0189535Y0055102D01*
X0138285Y0085102D02*
X0135785Y0082602D01*
X0120785Y0082602D01*
X0118285Y0085102D01*
X0118285Y0090102D01*
X0120785Y0092602D01*
X0135785Y0092602D01*
X0138285Y0090102D01*
X0138285Y0085102D01*
X0135785Y0092602D02*
X0138285Y0095102D01*
X0138285Y0100102D01*
X0135785Y0102602D01*
X0120785Y0102602D01*
X0118285Y0100102D01*
X0118285Y0095102D01*
X0120785Y0092602D01*
X0120785Y0102602D02*
X0118285Y0105102D01*
X0118285Y0110102D01*
X0120785Y0112602D01*
X0135785Y0112602D01*
X0138285Y0110102D01*
X0138285Y0105102D01*
X0135785Y0102602D01*
X0135785Y0112602D02*
X0138285Y0115102D01*
X0138285Y0120102D01*
X0135785Y0122602D01*
X0120785Y0122602D01*
X0118285Y0120102D01*
X0118285Y0115102D01*
X0120785Y0112602D01*
X0120785Y0122602D02*
X0118285Y0125102D01*
X0118285Y0130102D01*
X0120785Y0132602D01*
X0135785Y0132602D01*
X0138285Y0130102D01*
X0138285Y0125102D01*
X0135785Y0122602D01*
X0135785Y0132602D02*
X0138285Y0135102D01*
X0138285Y0140102D01*
X0135785Y0142602D01*
X0120785Y0142602D01*
X0118285Y0140102D01*
X0118285Y0135102D01*
X0120785Y0132602D01*
X0120785Y0142602D02*
X0118285Y0145102D01*
X0118285Y0150102D01*
X0120785Y0152602D01*
X0135785Y0152602D01*
X0138285Y0150102D01*
X0138285Y0145102D01*
X0135785Y0142602D01*
X0098334Y0117026D02*
X0098334Y0090825D01*
X0096937Y0089427D01*
X0070736Y0089427D01*
X0070736Y0117026D01*
X0098334Y0117026D01*
X0093334Y0132552D02*
X0065736Y0132552D01*
X0065736Y0158753D01*
X0067134Y0160151D01*
X0093334Y0160151D01*
X0093334Y0132552D01*
X0067321Y0157152D02*
X0067323Y0157227D01*
X0067329Y0157301D01*
X0067339Y0157375D01*
X0067352Y0157448D01*
X0067370Y0157521D01*
X0067391Y0157592D01*
X0067416Y0157663D01*
X0067445Y0157732D01*
X0067478Y0157799D01*
X0067514Y0157864D01*
X0067553Y0157928D01*
X0067595Y0157989D01*
X0067641Y0158048D01*
X0067690Y0158105D01*
X0067742Y0158158D01*
X0067796Y0158209D01*
X0067853Y0158258D01*
X0067913Y0158302D01*
X0067975Y0158344D01*
X0068039Y0158383D01*
X0068105Y0158418D01*
X0068172Y0158449D01*
X0068242Y0158477D01*
X0068312Y0158501D01*
X0068384Y0158522D01*
X0068457Y0158538D01*
X0068530Y0158551D01*
X0068605Y0158560D01*
X0068679Y0158565D01*
X0068754Y0158566D01*
X0068828Y0158563D01*
X0068903Y0158556D01*
X0068976Y0158545D01*
X0069050Y0158531D01*
X0069122Y0158512D01*
X0069193Y0158490D01*
X0069263Y0158464D01*
X0069332Y0158434D01*
X0069398Y0158401D01*
X0069463Y0158364D01*
X0069526Y0158324D01*
X0069587Y0158280D01*
X0069645Y0158234D01*
X0069701Y0158184D01*
X0069754Y0158132D01*
X0069805Y0158077D01*
X0069852Y0158019D01*
X0069896Y0157959D01*
X0069937Y0157896D01*
X0069975Y0157832D01*
X0070009Y0157766D01*
X0070040Y0157697D01*
X0070067Y0157628D01*
X0070090Y0157557D01*
X0070109Y0157485D01*
X0070125Y0157412D01*
X0070137Y0157338D01*
X0070145Y0157264D01*
X0070149Y0157189D01*
X0070149Y0157115D01*
X0070145Y0157040D01*
X0070137Y0156966D01*
X0070125Y0156892D01*
X0070109Y0156819D01*
X0070090Y0156747D01*
X0070067Y0156676D01*
X0070040Y0156607D01*
X0070009Y0156538D01*
X0069975Y0156472D01*
X0069937Y0156408D01*
X0069896Y0156345D01*
X0069852Y0156285D01*
X0069805Y0156227D01*
X0069754Y0156172D01*
X0069701Y0156120D01*
X0069645Y0156070D01*
X0069587Y0156024D01*
X0069526Y0155980D01*
X0069463Y0155940D01*
X0069398Y0155903D01*
X0069332Y0155870D01*
X0069263Y0155840D01*
X0069193Y0155814D01*
X0069122Y0155792D01*
X0069050Y0155773D01*
X0068976Y0155759D01*
X0068903Y0155748D01*
X0068828Y0155741D01*
X0068754Y0155738D01*
X0068679Y0155739D01*
X0068605Y0155744D01*
X0068530Y0155753D01*
X0068457Y0155766D01*
X0068384Y0155782D01*
X0068312Y0155803D01*
X0068242Y0155827D01*
X0068172Y0155855D01*
X0068105Y0155886D01*
X0068039Y0155921D01*
X0067975Y0155960D01*
X0067913Y0156002D01*
X0067853Y0156046D01*
X0067796Y0156095D01*
X0067742Y0156146D01*
X0067690Y0156199D01*
X0067641Y0156256D01*
X0067595Y0156315D01*
X0067553Y0156376D01*
X0067514Y0156440D01*
X0067478Y0156505D01*
X0067445Y0156572D01*
X0067416Y0156641D01*
X0067391Y0156712D01*
X0067370Y0156783D01*
X0067352Y0156856D01*
X0067339Y0156929D01*
X0067329Y0157003D01*
X0067323Y0157077D01*
X0067321Y0157152D01*
X0093921Y0092427D02*
X0093923Y0092502D01*
X0093929Y0092576D01*
X0093939Y0092650D01*
X0093952Y0092723D01*
X0093970Y0092796D01*
X0093991Y0092867D01*
X0094016Y0092938D01*
X0094045Y0093007D01*
X0094078Y0093074D01*
X0094114Y0093139D01*
X0094153Y0093203D01*
X0094195Y0093264D01*
X0094241Y0093323D01*
X0094290Y0093380D01*
X0094342Y0093433D01*
X0094396Y0093484D01*
X0094453Y0093533D01*
X0094513Y0093577D01*
X0094575Y0093619D01*
X0094639Y0093658D01*
X0094705Y0093693D01*
X0094772Y0093724D01*
X0094842Y0093752D01*
X0094912Y0093776D01*
X0094984Y0093797D01*
X0095057Y0093813D01*
X0095130Y0093826D01*
X0095205Y0093835D01*
X0095279Y0093840D01*
X0095354Y0093841D01*
X0095428Y0093838D01*
X0095503Y0093831D01*
X0095576Y0093820D01*
X0095650Y0093806D01*
X0095722Y0093787D01*
X0095793Y0093765D01*
X0095863Y0093739D01*
X0095932Y0093709D01*
X0095998Y0093676D01*
X0096063Y0093639D01*
X0096126Y0093599D01*
X0096187Y0093555D01*
X0096245Y0093509D01*
X0096301Y0093459D01*
X0096354Y0093407D01*
X0096405Y0093352D01*
X0096452Y0093294D01*
X0096496Y0093234D01*
X0096537Y0093171D01*
X0096575Y0093107D01*
X0096609Y0093041D01*
X0096640Y0092972D01*
X0096667Y0092903D01*
X0096690Y0092832D01*
X0096709Y0092760D01*
X0096725Y0092687D01*
X0096737Y0092613D01*
X0096745Y0092539D01*
X0096749Y0092464D01*
X0096749Y0092390D01*
X0096745Y0092315D01*
X0096737Y0092241D01*
X0096725Y0092167D01*
X0096709Y0092094D01*
X0096690Y0092022D01*
X0096667Y0091951D01*
X0096640Y0091882D01*
X0096609Y0091813D01*
X0096575Y0091747D01*
X0096537Y0091683D01*
X0096496Y0091620D01*
X0096452Y0091560D01*
X0096405Y0091502D01*
X0096354Y0091447D01*
X0096301Y0091395D01*
X0096245Y0091345D01*
X0096187Y0091299D01*
X0096126Y0091255D01*
X0096063Y0091215D01*
X0095998Y0091178D01*
X0095932Y0091145D01*
X0095863Y0091115D01*
X0095793Y0091089D01*
X0095722Y0091067D01*
X0095650Y0091048D01*
X0095576Y0091034D01*
X0095503Y0091023D01*
X0095428Y0091016D01*
X0095354Y0091013D01*
X0095279Y0091014D01*
X0095205Y0091019D01*
X0095130Y0091028D01*
X0095057Y0091041D01*
X0094984Y0091057D01*
X0094912Y0091078D01*
X0094842Y0091102D01*
X0094772Y0091130D01*
X0094705Y0091161D01*
X0094639Y0091196D01*
X0094575Y0091235D01*
X0094513Y0091277D01*
X0094453Y0091321D01*
X0094396Y0091370D01*
X0094342Y0091421D01*
X0094290Y0091474D01*
X0094241Y0091531D01*
X0094195Y0091590D01*
X0094153Y0091651D01*
X0094114Y0091715D01*
X0094078Y0091780D01*
X0094045Y0091847D01*
X0094016Y0091916D01*
X0093991Y0091987D01*
X0093970Y0092058D01*
X0093952Y0092131D01*
X0093939Y0092204D01*
X0093929Y0092278D01*
X0093923Y0092352D01*
X0093921Y0092427D01*
X0098937Y0070051D02*
X0098937Y0063902D01*
X0110137Y0063902D02*
X0110137Y0070051D01*
X0199660Y0205602D02*
X0205660Y0205602D01*
X0205720Y0205604D01*
X0205781Y0205609D01*
X0205840Y0205618D01*
X0205899Y0205631D01*
X0205958Y0205647D01*
X0206015Y0205667D01*
X0206070Y0205690D01*
X0206125Y0205717D01*
X0206177Y0205746D01*
X0206228Y0205779D01*
X0206277Y0205815D01*
X0206323Y0205853D01*
X0206367Y0205895D01*
X0206409Y0205939D01*
X0206447Y0205985D01*
X0206483Y0206034D01*
X0206516Y0206085D01*
X0206545Y0206137D01*
X0206572Y0206192D01*
X0206595Y0206247D01*
X0206615Y0206304D01*
X0206631Y0206363D01*
X0206644Y0206422D01*
X0206653Y0206481D01*
X0206658Y0206542D01*
X0206660Y0206602D01*
X0206660Y0223602D01*
X0206658Y0223662D01*
X0206653Y0223723D01*
X0206644Y0223782D01*
X0206631Y0223841D01*
X0206615Y0223900D01*
X0206595Y0223957D01*
X0206572Y0224012D01*
X0206545Y0224067D01*
X0206516Y0224119D01*
X0206483Y0224170D01*
X0206447Y0224219D01*
X0206409Y0224265D01*
X0206367Y0224309D01*
X0206323Y0224351D01*
X0206277Y0224389D01*
X0206228Y0224425D01*
X0206177Y0224458D01*
X0206125Y0224487D01*
X0206070Y0224514D01*
X0206015Y0224537D01*
X0205958Y0224557D01*
X0205899Y0224573D01*
X0205840Y0224586D01*
X0205781Y0224595D01*
X0205720Y0224600D01*
X0205660Y0224602D01*
X0199660Y0224602D01*
X0199600Y0224600D01*
X0199539Y0224595D01*
X0199480Y0224586D01*
X0199421Y0224573D01*
X0199362Y0224557D01*
X0199305Y0224537D01*
X0199250Y0224514D01*
X0199195Y0224487D01*
X0199143Y0224458D01*
X0199092Y0224425D01*
X0199043Y0224389D01*
X0198997Y0224351D01*
X0198953Y0224309D01*
X0198911Y0224265D01*
X0198873Y0224219D01*
X0198837Y0224170D01*
X0198804Y0224119D01*
X0198775Y0224067D01*
X0198748Y0224012D01*
X0198725Y0223957D01*
X0198705Y0223900D01*
X0198689Y0223841D01*
X0198676Y0223782D01*
X0198667Y0223723D01*
X0198662Y0223662D01*
X0198660Y0223602D01*
X0198660Y0206602D01*
X0198662Y0206542D01*
X0198667Y0206481D01*
X0198676Y0206422D01*
X0198689Y0206363D01*
X0198705Y0206304D01*
X0198725Y0206247D01*
X0198748Y0206192D01*
X0198775Y0206137D01*
X0198804Y0206085D01*
X0198837Y0206034D01*
X0198873Y0205985D01*
X0198911Y0205939D01*
X0198953Y0205895D01*
X0198997Y0205853D01*
X0199043Y0205815D01*
X0199092Y0205779D01*
X0199143Y0205746D01*
X0199195Y0205717D01*
X0199250Y0205690D01*
X0199305Y0205667D01*
X0199362Y0205647D01*
X0199421Y0205631D01*
X0199480Y0205618D01*
X0199539Y0205609D01*
X0199600Y0205604D01*
X0199660Y0205602D01*
X0208035Y0206602D02*
X0208035Y0223602D01*
X0208037Y0223662D01*
X0208042Y0223723D01*
X0208051Y0223782D01*
X0208064Y0223841D01*
X0208080Y0223900D01*
X0208100Y0223957D01*
X0208123Y0224012D01*
X0208150Y0224067D01*
X0208179Y0224119D01*
X0208212Y0224170D01*
X0208248Y0224219D01*
X0208286Y0224265D01*
X0208328Y0224309D01*
X0208372Y0224351D01*
X0208418Y0224389D01*
X0208467Y0224425D01*
X0208518Y0224458D01*
X0208570Y0224487D01*
X0208625Y0224514D01*
X0208680Y0224537D01*
X0208737Y0224557D01*
X0208796Y0224573D01*
X0208855Y0224586D01*
X0208914Y0224595D01*
X0208975Y0224600D01*
X0209035Y0224602D01*
X0215035Y0224602D01*
X0215095Y0224600D01*
X0215156Y0224595D01*
X0215215Y0224586D01*
X0215274Y0224573D01*
X0215333Y0224557D01*
X0215390Y0224537D01*
X0215445Y0224514D01*
X0215500Y0224487D01*
X0215552Y0224458D01*
X0215603Y0224425D01*
X0215652Y0224389D01*
X0215698Y0224351D01*
X0215742Y0224309D01*
X0215784Y0224265D01*
X0215822Y0224219D01*
X0215858Y0224170D01*
X0215891Y0224119D01*
X0215920Y0224067D01*
X0215947Y0224012D01*
X0215970Y0223957D01*
X0215990Y0223900D01*
X0216006Y0223841D01*
X0216019Y0223782D01*
X0216028Y0223723D01*
X0216033Y0223662D01*
X0216035Y0223602D01*
X0216035Y0206602D01*
X0216033Y0206542D01*
X0216028Y0206481D01*
X0216019Y0206422D01*
X0216006Y0206363D01*
X0215990Y0206304D01*
X0215970Y0206247D01*
X0215947Y0206192D01*
X0215920Y0206137D01*
X0215891Y0206085D01*
X0215858Y0206034D01*
X0215822Y0205985D01*
X0215784Y0205939D01*
X0215742Y0205895D01*
X0215698Y0205853D01*
X0215652Y0205815D01*
X0215603Y0205779D01*
X0215552Y0205746D01*
X0215500Y0205717D01*
X0215445Y0205690D01*
X0215390Y0205667D01*
X0215333Y0205647D01*
X0215274Y0205631D01*
X0215215Y0205618D01*
X0215156Y0205609D01*
X0215095Y0205604D01*
X0215035Y0205602D01*
X0209035Y0205602D01*
X0208975Y0205604D01*
X0208914Y0205609D01*
X0208855Y0205618D01*
X0208796Y0205631D01*
X0208737Y0205647D01*
X0208680Y0205667D01*
X0208625Y0205690D01*
X0208570Y0205717D01*
X0208518Y0205746D01*
X0208467Y0205779D01*
X0208418Y0205815D01*
X0208372Y0205853D01*
X0208328Y0205895D01*
X0208286Y0205939D01*
X0208248Y0205985D01*
X0208212Y0206034D01*
X0208179Y0206085D01*
X0208150Y0206137D01*
X0208123Y0206192D01*
X0208100Y0206247D01*
X0208080Y0206304D01*
X0208064Y0206363D01*
X0208051Y0206422D01*
X0208042Y0206481D01*
X0208037Y0206542D01*
X0208035Y0206602D01*
D13*
X0094090Y0083079D02*
X0092639Y0081628D01*
X0094574Y0081628D01*
X0094090Y0080177D02*
X0094090Y0083079D01*
X0090660Y0083079D02*
X0090660Y0080177D01*
X0091627Y0080177D02*
X0089692Y0080177D01*
X0088681Y0080660D02*
X0088197Y0080177D01*
X0087229Y0080177D01*
X0086746Y0080660D01*
X0086746Y0082595D01*
X0087229Y0083079D01*
X0088197Y0083079D01*
X0088681Y0082595D01*
X0089692Y0082112D02*
X0090660Y0083079D01*
X0085749Y0083079D02*
X0084781Y0083079D01*
X0085265Y0083079D02*
X0085265Y0080177D01*
X0084781Y0080177D02*
X0085749Y0080177D01*
X0075147Y0166502D02*
X0074180Y0166502D01*
X0073696Y0166985D01*
X0072684Y0166985D02*
X0072201Y0166502D01*
X0071233Y0166502D01*
X0070749Y0166985D01*
X0070749Y0168920D01*
X0071233Y0169404D01*
X0072201Y0169404D01*
X0072684Y0168920D01*
X0073696Y0168920D02*
X0074180Y0169404D01*
X0075147Y0169404D01*
X0075631Y0168920D01*
X0075631Y0168437D01*
X0075147Y0167953D01*
X0075631Y0167469D01*
X0075631Y0166985D01*
X0075147Y0166502D01*
X0075147Y0167953D02*
X0074663Y0167953D01*
X0069753Y0169404D02*
X0068785Y0169404D01*
X0069269Y0169404D02*
X0069269Y0166502D01*
X0068785Y0166502D02*
X0069753Y0166502D01*
D14*
X0082035Y0069477D03*
D15*
X0163777Y0064595D03*
X0163777Y0060220D03*
X0163777Y0055845D03*
D16*
X0109063Y0068945D03*
D17*
X0138364Y0069427D02*
X0148206Y0069427D01*
X0148206Y0082026D01*
X0138364Y0082026D01*
X0138364Y0069427D01*
X0116331Y0105052D02*
X0106489Y0105052D01*
X0106489Y0117651D01*
X0116331Y0117651D01*
X0116331Y0105052D01*
D18*
X0072778Y0069801D02*
X0072778Y0061691D01*
X0062542Y0061691D02*
X0062542Y0069801D01*
X0162995Y0143665D02*
X0167325Y0143665D01*
X0173620Y0143665D02*
X0177950Y0143665D01*
X0177950Y0151539D02*
X0173620Y0151539D01*
X0167325Y0151539D02*
X0162995Y0151539D01*
X0166848Y0191686D02*
X0166848Y0196017D01*
X0174722Y0196017D02*
X0174722Y0191686D01*
D19*
X0067660Y0068591D03*
D20*
X0156976Y0081027D02*
X0156976Y0132208D01*
X0159929Y0135161D01*
X0211110Y0135161D01*
X0212094Y0134176D01*
X0212094Y0081027D01*
X0211110Y0080043D01*
X0157960Y0080043D01*
X0156976Y0081027D01*
X0159929Y0131224D02*
X0159931Y0131286D01*
X0159937Y0131349D01*
X0159947Y0131410D01*
X0159961Y0131471D01*
X0159978Y0131531D01*
X0159999Y0131590D01*
X0160025Y0131647D01*
X0160053Y0131702D01*
X0160085Y0131756D01*
X0160121Y0131807D01*
X0160159Y0131857D01*
X0160201Y0131903D01*
X0160245Y0131947D01*
X0160293Y0131988D01*
X0160342Y0132026D01*
X0160394Y0132060D01*
X0160448Y0132091D01*
X0160504Y0132119D01*
X0160562Y0132143D01*
X0160621Y0132164D01*
X0160681Y0132180D01*
X0160742Y0132193D01*
X0160804Y0132202D01*
X0160866Y0132207D01*
X0160929Y0132208D01*
X0160991Y0132205D01*
X0161053Y0132198D01*
X0161115Y0132187D01*
X0161175Y0132172D01*
X0161235Y0132154D01*
X0161293Y0132132D01*
X0161350Y0132106D01*
X0161405Y0132076D01*
X0161458Y0132043D01*
X0161509Y0132007D01*
X0161557Y0131968D01*
X0161603Y0131925D01*
X0161646Y0131880D01*
X0161686Y0131832D01*
X0161723Y0131782D01*
X0161757Y0131729D01*
X0161788Y0131675D01*
X0161814Y0131619D01*
X0161838Y0131561D01*
X0161857Y0131501D01*
X0161873Y0131441D01*
X0161885Y0131379D01*
X0161893Y0131318D01*
X0161897Y0131255D01*
X0161897Y0131193D01*
X0161893Y0131130D01*
X0161885Y0131069D01*
X0161873Y0131007D01*
X0161857Y0130947D01*
X0161838Y0130887D01*
X0161814Y0130829D01*
X0161788Y0130773D01*
X0161757Y0130719D01*
X0161723Y0130666D01*
X0161686Y0130616D01*
X0161646Y0130568D01*
X0161603Y0130523D01*
X0161557Y0130480D01*
X0161509Y0130441D01*
X0161458Y0130405D01*
X0161405Y0130372D01*
X0161350Y0130342D01*
X0161293Y0130316D01*
X0161235Y0130294D01*
X0161175Y0130276D01*
X0161115Y0130261D01*
X0161053Y0130250D01*
X0160991Y0130243D01*
X0160929Y0130240D01*
X0160866Y0130241D01*
X0160804Y0130246D01*
X0160742Y0130255D01*
X0160681Y0130268D01*
X0160621Y0130284D01*
X0160562Y0130305D01*
X0160504Y0130329D01*
X0160448Y0130357D01*
X0160394Y0130388D01*
X0160342Y0130422D01*
X0160293Y0130460D01*
X0160245Y0130501D01*
X0160201Y0130545D01*
X0160159Y0130591D01*
X0160121Y0130641D01*
X0160085Y0130692D01*
X0160053Y0130746D01*
X0160025Y0130801D01*
X0159999Y0130858D01*
X0159978Y0130917D01*
X0159961Y0130977D01*
X0159947Y0131038D01*
X0159937Y0131099D01*
X0159931Y0131162D01*
X0159929Y0131224D01*
D21*
X0206159Y0269108D02*
X0206161Y0269269D01*
X0206167Y0269429D01*
X0206177Y0269590D01*
X0206191Y0269750D01*
X0206209Y0269909D01*
X0206230Y0270069D01*
X0206256Y0270227D01*
X0206286Y0270385D01*
X0206319Y0270542D01*
X0206357Y0270699D01*
X0206398Y0270854D01*
X0206443Y0271008D01*
X0206492Y0271161D01*
X0206545Y0271313D01*
X0206601Y0271463D01*
X0206661Y0271612D01*
X0206725Y0271760D01*
X0206792Y0271906D01*
X0206863Y0272050D01*
X0206938Y0272192D01*
X0207016Y0272333D01*
X0207097Y0272471D01*
X0207182Y0272608D01*
X0207271Y0272742D01*
X0207362Y0272874D01*
X0207457Y0273004D01*
X0207555Y0273131D01*
X0207656Y0273256D01*
X0207760Y0273379D01*
X0207867Y0273498D01*
X0207977Y0273615D01*
X0208090Y0273730D01*
X0208206Y0273841D01*
X0208324Y0273950D01*
X0208445Y0274055D01*
X0208569Y0274158D01*
X0208695Y0274258D01*
X0208824Y0274354D01*
X0208955Y0274447D01*
X0209088Y0274537D01*
X0209223Y0274624D01*
X0209361Y0274707D01*
X0209500Y0274786D01*
X0209642Y0274863D01*
X0209785Y0274936D01*
X0209930Y0275005D01*
X0210077Y0275070D01*
X0210225Y0275132D01*
X0210375Y0275191D01*
X0210526Y0275245D01*
X0210678Y0275296D01*
X0210832Y0275343D01*
X0210987Y0275386D01*
X0211142Y0275425D01*
X0211299Y0275461D01*
X0211457Y0275493D01*
X0211615Y0275520D01*
X0211774Y0275544D01*
X0211933Y0275564D01*
X0212093Y0275580D01*
X0212254Y0275592D01*
X0212414Y0275600D01*
X0212575Y0275604D01*
X0212735Y0275604D01*
X0212896Y0275600D01*
X0213056Y0275592D01*
X0213217Y0275580D01*
X0213377Y0275564D01*
X0213536Y0275544D01*
X0213695Y0275520D01*
X0213853Y0275493D01*
X0214011Y0275461D01*
X0214168Y0275425D01*
X0214323Y0275386D01*
X0214478Y0275343D01*
X0214632Y0275296D01*
X0214784Y0275245D01*
X0214935Y0275191D01*
X0215085Y0275132D01*
X0215233Y0275070D01*
X0215380Y0275005D01*
X0215525Y0274936D01*
X0215668Y0274863D01*
X0215810Y0274786D01*
X0215949Y0274707D01*
X0216087Y0274624D01*
X0216222Y0274537D01*
X0216355Y0274447D01*
X0216486Y0274354D01*
X0216615Y0274258D01*
X0216741Y0274158D01*
X0216865Y0274055D01*
X0216986Y0273950D01*
X0217104Y0273841D01*
X0217220Y0273730D01*
X0217333Y0273615D01*
X0217443Y0273498D01*
X0217550Y0273379D01*
X0217654Y0273256D01*
X0217755Y0273131D01*
X0217853Y0273004D01*
X0217948Y0272874D01*
X0218039Y0272742D01*
X0218128Y0272608D01*
X0218213Y0272471D01*
X0218294Y0272333D01*
X0218372Y0272192D01*
X0218447Y0272050D01*
X0218518Y0271906D01*
X0218585Y0271760D01*
X0218649Y0271612D01*
X0218709Y0271463D01*
X0218765Y0271313D01*
X0218818Y0271161D01*
X0218867Y0271008D01*
X0218912Y0270854D01*
X0218953Y0270699D01*
X0218991Y0270542D01*
X0219024Y0270385D01*
X0219054Y0270227D01*
X0219080Y0270069D01*
X0219101Y0269909D01*
X0219119Y0269750D01*
X0219133Y0269590D01*
X0219143Y0269429D01*
X0219149Y0269269D01*
X0219151Y0269108D01*
X0219149Y0268947D01*
X0219143Y0268787D01*
X0219133Y0268626D01*
X0219119Y0268466D01*
X0219101Y0268307D01*
X0219080Y0268147D01*
X0219054Y0267989D01*
X0219024Y0267831D01*
X0218991Y0267674D01*
X0218953Y0267517D01*
X0218912Y0267362D01*
X0218867Y0267208D01*
X0218818Y0267055D01*
X0218765Y0266903D01*
X0218709Y0266753D01*
X0218649Y0266604D01*
X0218585Y0266456D01*
X0218518Y0266310D01*
X0218447Y0266166D01*
X0218372Y0266024D01*
X0218294Y0265883D01*
X0218213Y0265745D01*
X0218128Y0265608D01*
X0218039Y0265474D01*
X0217948Y0265342D01*
X0217853Y0265212D01*
X0217755Y0265085D01*
X0217654Y0264960D01*
X0217550Y0264837D01*
X0217443Y0264718D01*
X0217333Y0264601D01*
X0217220Y0264486D01*
X0217104Y0264375D01*
X0216986Y0264266D01*
X0216865Y0264161D01*
X0216741Y0264058D01*
X0216615Y0263958D01*
X0216486Y0263862D01*
X0216355Y0263769D01*
X0216222Y0263679D01*
X0216087Y0263592D01*
X0215949Y0263509D01*
X0215810Y0263430D01*
X0215668Y0263353D01*
X0215525Y0263280D01*
X0215380Y0263211D01*
X0215233Y0263146D01*
X0215085Y0263084D01*
X0214935Y0263025D01*
X0214784Y0262971D01*
X0214632Y0262920D01*
X0214478Y0262873D01*
X0214323Y0262830D01*
X0214168Y0262791D01*
X0214011Y0262755D01*
X0213853Y0262723D01*
X0213695Y0262696D01*
X0213536Y0262672D01*
X0213377Y0262652D01*
X0213217Y0262636D01*
X0213056Y0262624D01*
X0212896Y0262616D01*
X0212735Y0262612D01*
X0212575Y0262612D01*
X0212414Y0262616D01*
X0212254Y0262624D01*
X0212093Y0262636D01*
X0211933Y0262652D01*
X0211774Y0262672D01*
X0211615Y0262696D01*
X0211457Y0262723D01*
X0211299Y0262755D01*
X0211142Y0262791D01*
X0210987Y0262830D01*
X0210832Y0262873D01*
X0210678Y0262920D01*
X0210526Y0262971D01*
X0210375Y0263025D01*
X0210225Y0263084D01*
X0210077Y0263146D01*
X0209930Y0263211D01*
X0209785Y0263280D01*
X0209642Y0263353D01*
X0209500Y0263430D01*
X0209361Y0263509D01*
X0209223Y0263592D01*
X0209088Y0263679D01*
X0208955Y0263769D01*
X0208824Y0263862D01*
X0208695Y0263958D01*
X0208569Y0264058D01*
X0208445Y0264161D01*
X0208324Y0264266D01*
X0208206Y0264375D01*
X0208090Y0264486D01*
X0207977Y0264601D01*
X0207867Y0264718D01*
X0207760Y0264837D01*
X0207656Y0264960D01*
X0207555Y0265085D01*
X0207457Y0265212D01*
X0207362Y0265342D01*
X0207271Y0265474D01*
X0207182Y0265608D01*
X0207097Y0265745D01*
X0207016Y0265883D01*
X0206938Y0266024D01*
X0206863Y0266166D01*
X0206792Y0266310D01*
X0206725Y0266456D01*
X0206661Y0266604D01*
X0206601Y0266753D01*
X0206545Y0266903D01*
X0206492Y0267055D01*
X0206443Y0267208D01*
X0206398Y0267362D01*
X0206357Y0267517D01*
X0206319Y0267674D01*
X0206286Y0267831D01*
X0206256Y0267989D01*
X0206230Y0268147D01*
X0206209Y0268307D01*
X0206191Y0268466D01*
X0206177Y0268626D01*
X0206167Y0268787D01*
X0206161Y0268947D01*
X0206159Y0269108D01*
X0054584Y0269108D02*
X0054586Y0269269D01*
X0054592Y0269429D01*
X0054602Y0269590D01*
X0054616Y0269750D01*
X0054634Y0269909D01*
X0054655Y0270069D01*
X0054681Y0270227D01*
X0054711Y0270385D01*
X0054744Y0270542D01*
X0054782Y0270699D01*
X0054823Y0270854D01*
X0054868Y0271008D01*
X0054917Y0271161D01*
X0054970Y0271313D01*
X0055026Y0271463D01*
X0055086Y0271612D01*
X0055150Y0271760D01*
X0055217Y0271906D01*
X0055288Y0272050D01*
X0055363Y0272192D01*
X0055441Y0272333D01*
X0055522Y0272471D01*
X0055607Y0272608D01*
X0055696Y0272742D01*
X0055787Y0272874D01*
X0055882Y0273004D01*
X0055980Y0273131D01*
X0056081Y0273256D01*
X0056185Y0273379D01*
X0056292Y0273498D01*
X0056402Y0273615D01*
X0056515Y0273730D01*
X0056631Y0273841D01*
X0056749Y0273950D01*
X0056870Y0274055D01*
X0056994Y0274158D01*
X0057120Y0274258D01*
X0057249Y0274354D01*
X0057380Y0274447D01*
X0057513Y0274537D01*
X0057648Y0274624D01*
X0057786Y0274707D01*
X0057925Y0274786D01*
X0058067Y0274863D01*
X0058210Y0274936D01*
X0058355Y0275005D01*
X0058502Y0275070D01*
X0058650Y0275132D01*
X0058800Y0275191D01*
X0058951Y0275245D01*
X0059103Y0275296D01*
X0059257Y0275343D01*
X0059412Y0275386D01*
X0059567Y0275425D01*
X0059724Y0275461D01*
X0059882Y0275493D01*
X0060040Y0275520D01*
X0060199Y0275544D01*
X0060358Y0275564D01*
X0060518Y0275580D01*
X0060679Y0275592D01*
X0060839Y0275600D01*
X0061000Y0275604D01*
X0061160Y0275604D01*
X0061321Y0275600D01*
X0061481Y0275592D01*
X0061642Y0275580D01*
X0061802Y0275564D01*
X0061961Y0275544D01*
X0062120Y0275520D01*
X0062278Y0275493D01*
X0062436Y0275461D01*
X0062593Y0275425D01*
X0062748Y0275386D01*
X0062903Y0275343D01*
X0063057Y0275296D01*
X0063209Y0275245D01*
X0063360Y0275191D01*
X0063510Y0275132D01*
X0063658Y0275070D01*
X0063805Y0275005D01*
X0063950Y0274936D01*
X0064093Y0274863D01*
X0064235Y0274786D01*
X0064374Y0274707D01*
X0064512Y0274624D01*
X0064647Y0274537D01*
X0064780Y0274447D01*
X0064911Y0274354D01*
X0065040Y0274258D01*
X0065166Y0274158D01*
X0065290Y0274055D01*
X0065411Y0273950D01*
X0065529Y0273841D01*
X0065645Y0273730D01*
X0065758Y0273615D01*
X0065868Y0273498D01*
X0065975Y0273379D01*
X0066079Y0273256D01*
X0066180Y0273131D01*
X0066278Y0273004D01*
X0066373Y0272874D01*
X0066464Y0272742D01*
X0066553Y0272608D01*
X0066638Y0272471D01*
X0066719Y0272333D01*
X0066797Y0272192D01*
X0066872Y0272050D01*
X0066943Y0271906D01*
X0067010Y0271760D01*
X0067074Y0271612D01*
X0067134Y0271463D01*
X0067190Y0271313D01*
X0067243Y0271161D01*
X0067292Y0271008D01*
X0067337Y0270854D01*
X0067378Y0270699D01*
X0067416Y0270542D01*
X0067449Y0270385D01*
X0067479Y0270227D01*
X0067505Y0270069D01*
X0067526Y0269909D01*
X0067544Y0269750D01*
X0067558Y0269590D01*
X0067568Y0269429D01*
X0067574Y0269269D01*
X0067576Y0269108D01*
X0067574Y0268947D01*
X0067568Y0268787D01*
X0067558Y0268626D01*
X0067544Y0268466D01*
X0067526Y0268307D01*
X0067505Y0268147D01*
X0067479Y0267989D01*
X0067449Y0267831D01*
X0067416Y0267674D01*
X0067378Y0267517D01*
X0067337Y0267362D01*
X0067292Y0267208D01*
X0067243Y0267055D01*
X0067190Y0266903D01*
X0067134Y0266753D01*
X0067074Y0266604D01*
X0067010Y0266456D01*
X0066943Y0266310D01*
X0066872Y0266166D01*
X0066797Y0266024D01*
X0066719Y0265883D01*
X0066638Y0265745D01*
X0066553Y0265608D01*
X0066464Y0265474D01*
X0066373Y0265342D01*
X0066278Y0265212D01*
X0066180Y0265085D01*
X0066079Y0264960D01*
X0065975Y0264837D01*
X0065868Y0264718D01*
X0065758Y0264601D01*
X0065645Y0264486D01*
X0065529Y0264375D01*
X0065411Y0264266D01*
X0065290Y0264161D01*
X0065166Y0264058D01*
X0065040Y0263958D01*
X0064911Y0263862D01*
X0064780Y0263769D01*
X0064647Y0263679D01*
X0064512Y0263592D01*
X0064374Y0263509D01*
X0064235Y0263430D01*
X0064093Y0263353D01*
X0063950Y0263280D01*
X0063805Y0263211D01*
X0063658Y0263146D01*
X0063510Y0263084D01*
X0063360Y0263025D01*
X0063209Y0262971D01*
X0063057Y0262920D01*
X0062903Y0262873D01*
X0062748Y0262830D01*
X0062593Y0262791D01*
X0062436Y0262755D01*
X0062278Y0262723D01*
X0062120Y0262696D01*
X0061961Y0262672D01*
X0061802Y0262652D01*
X0061642Y0262636D01*
X0061481Y0262624D01*
X0061321Y0262616D01*
X0061160Y0262612D01*
X0061000Y0262612D01*
X0060839Y0262616D01*
X0060679Y0262624D01*
X0060518Y0262636D01*
X0060358Y0262652D01*
X0060199Y0262672D01*
X0060040Y0262696D01*
X0059882Y0262723D01*
X0059724Y0262755D01*
X0059567Y0262791D01*
X0059412Y0262830D01*
X0059257Y0262873D01*
X0059103Y0262920D01*
X0058951Y0262971D01*
X0058800Y0263025D01*
X0058650Y0263084D01*
X0058502Y0263146D01*
X0058355Y0263211D01*
X0058210Y0263280D01*
X0058067Y0263353D01*
X0057925Y0263430D01*
X0057786Y0263509D01*
X0057648Y0263592D01*
X0057513Y0263679D01*
X0057380Y0263769D01*
X0057249Y0263862D01*
X0057120Y0263958D01*
X0056994Y0264058D01*
X0056870Y0264161D01*
X0056749Y0264266D01*
X0056631Y0264375D01*
X0056515Y0264486D01*
X0056402Y0264601D01*
X0056292Y0264718D01*
X0056185Y0264837D01*
X0056081Y0264960D01*
X0055980Y0265085D01*
X0055882Y0265212D01*
X0055787Y0265342D01*
X0055696Y0265474D01*
X0055607Y0265608D01*
X0055522Y0265745D01*
X0055441Y0265883D01*
X0055363Y0266024D01*
X0055288Y0266166D01*
X0055217Y0266310D01*
X0055150Y0266456D01*
X0055086Y0266604D01*
X0055026Y0266753D01*
X0054970Y0266903D01*
X0054917Y0267055D01*
X0054868Y0267208D01*
X0054823Y0267362D01*
X0054782Y0267517D01*
X0054744Y0267674D01*
X0054711Y0267831D01*
X0054681Y0267989D01*
X0054655Y0268147D01*
X0054634Y0268307D01*
X0054616Y0268466D01*
X0054602Y0268626D01*
X0054592Y0268787D01*
X0054586Y0268947D01*
X0054584Y0269108D01*
D22*
X0164176Y0150358D03*
X0176769Y0144846D03*
X0168029Y0192867D03*
M02*
