G75*
%MOIN*%
%OFA0B0*%
%FSLAX25Y25*%
%IPPOS*%
%LPD*%
%AMOC8*
5,1,8,0,0,1.08239X$1,22.5*
%
%ADD10C,0.00400*%
%ADD11R,0.02756X0.03543*%
%ADD12R,0.03543X0.02756*%
%ADD13R,0.02756X0.03937*%
%ADD14R,0.03937X0.04331*%
%ADD15R,0.05000X0.02200*%
%ADD16R,0.02200X0.05000*%
%ADD17R,0.08504X0.07008*%
%ADD18R,0.03150X0.03150*%
%ADD19R,0.11024X0.04724*%
%ADD20R,0.04331X0.03937*%
%ADD21R,0.02362X0.03543*%
%ADD22R,0.04724X0.05512*%
%ADD23R,0.05906X0.05118*%
%ADD24R,0.10630X0.06299*%
%ADD25R,0.05906X0.08268*%
%ADD26R,0.09449X0.07087*%
%ADD27R,0.03937X0.05512*%
%ADD28R,0.02362X0.08661*%
%ADD29R,0.05906X0.01378*%
%ADD30R,0.01378X0.05906*%
%ADD31C,0.07677*%
%ADD32R,0.08268X0.05906*%
%ADD33R,0.05512X0.03937*%
%ADD34R,0.06300X0.04600*%
%ADD35R,0.01181X0.02362*%
%ADD36R,0.02362X0.01181*%
%ADD37R,0.12992X0.12992*%
%ADD38OC8,0.06000*%
%ADD39R,0.01575X0.03150*%
%ADD40R,0.03150X0.01575*%
%ADD41R,0.05118X0.05906*%
%ADD42C,0.02800*%
%ADD43C,0.00800*%
%ADD44C,0.01000*%
%ADD45C,0.01200*%
%ADD46C,0.01600*%
%ADD47C,0.00600*%
%ADD48C,0.02000*%
%ADD49C,0.03000*%
D10*
X0075502Y0267802D02*
X0074735Y0268569D01*
X0074735Y0270104D01*
X0075502Y0270871D01*
X0077037Y0270871D01*
X0077804Y0270104D01*
X0077804Y0268569D01*
X0077037Y0267802D01*
X0075502Y0267802D01*
X0079339Y0268569D02*
X0079339Y0270104D01*
X0080106Y0270871D01*
X0081641Y0270871D01*
X0082408Y0270104D01*
X0082408Y0269336D01*
X0079339Y0269336D01*
X0079339Y0268569D02*
X0080106Y0267802D01*
X0081641Y0267802D01*
X0083943Y0267802D02*
X0085478Y0267802D01*
X0084710Y0267802D02*
X0084710Y0272406D01*
X0083943Y0272406D01*
X0087012Y0270871D02*
X0089314Y0270871D01*
X0090082Y0270104D01*
X0090082Y0268569D01*
X0089314Y0267802D01*
X0087012Y0267802D01*
X0087012Y0266267D02*
X0087012Y0270871D01*
X0091616Y0270871D02*
X0091616Y0267802D01*
X0091616Y0269336D02*
X0093151Y0270871D01*
X0093918Y0270871D01*
X0095453Y0270871D02*
X0096220Y0270871D01*
X0096220Y0267802D01*
X0095453Y0267802D02*
X0096987Y0267802D01*
X0098522Y0267802D02*
X0098522Y0270871D01*
X0100824Y0270871D01*
X0101591Y0270104D01*
X0101591Y0267802D01*
X0103126Y0267802D02*
X0106195Y0267802D01*
X0107730Y0267802D02*
X0108497Y0267802D01*
X0108497Y0268569D01*
X0107730Y0268569D01*
X0107730Y0267802D01*
X0110032Y0268569D02*
X0110032Y0270104D01*
X0110799Y0270871D01*
X0112334Y0270871D01*
X0113101Y0270104D01*
X0113101Y0268569D01*
X0112334Y0267802D01*
X0110799Y0267802D01*
X0110032Y0268569D01*
X0106195Y0270871D02*
X0103126Y0267802D01*
X0103126Y0270871D02*
X0106195Y0270871D01*
X0114636Y0270871D02*
X0114636Y0267802D01*
X0114636Y0269336D02*
X0116170Y0270871D01*
X0116938Y0270871D01*
X0118472Y0270104D02*
X0118472Y0268569D01*
X0119240Y0267802D01*
X0121542Y0267802D01*
X0121542Y0267034D02*
X0121542Y0270871D01*
X0119240Y0270871D01*
X0118472Y0270104D01*
X0120007Y0266267D02*
X0120774Y0266267D01*
X0121542Y0267034D01*
X0132235Y0267802D02*
X0132235Y0272406D01*
X0134537Y0272406D01*
X0135304Y0271638D01*
X0135304Y0270104D01*
X0134537Y0269336D01*
X0132235Y0269336D01*
X0133770Y0269336D02*
X0135304Y0267802D01*
X0136839Y0268569D02*
X0139908Y0271638D01*
X0139908Y0268569D01*
X0139141Y0267802D01*
X0137606Y0267802D01*
X0136839Y0268569D01*
X0136839Y0271638D01*
X0137606Y0272406D01*
X0139141Y0272406D01*
X0139908Y0271638D01*
X0143745Y0271638D02*
X0144512Y0272406D01*
X0146047Y0272406D01*
X0146814Y0271638D01*
X0143745Y0268569D01*
X0144512Y0267802D01*
X0146047Y0267802D01*
X0146814Y0268569D01*
X0146814Y0271638D01*
X0150651Y0271638D02*
X0150651Y0270871D01*
X0151418Y0270104D01*
X0152953Y0270104D01*
X0153720Y0269336D01*
X0153720Y0268569D01*
X0152953Y0267802D01*
X0151418Y0267802D01*
X0150651Y0268569D01*
X0150651Y0269336D01*
X0151418Y0270104D01*
X0152953Y0270104D02*
X0153720Y0270871D01*
X0153720Y0271638D01*
X0152953Y0272406D01*
X0151418Y0272406D01*
X0150651Y0271638D01*
X0149116Y0268569D02*
X0148349Y0268569D01*
X0148349Y0267802D01*
X0149116Y0267802D01*
X0149116Y0268569D01*
X0143745Y0268569D02*
X0143745Y0271638D01*
X0142210Y0268569D02*
X0142210Y0267802D01*
X0141443Y0267802D01*
X0141443Y0268569D01*
X0142210Y0268569D01*
X0096220Y0272406D02*
X0096220Y0273173D01*
D11*
X0100726Y0198852D03*
X0105844Y0198852D03*
X0106469Y0182602D03*
X0101351Y0182602D03*
X0095844Y0182602D03*
X0095844Y0178227D03*
X0095101Y0173852D03*
X0100219Y0173852D03*
X0098344Y0168852D03*
X0093226Y0168852D03*
X0087719Y0168852D03*
X0082601Y0168852D03*
X0081469Y0173852D03*
X0083969Y0178227D03*
X0085844Y0182602D03*
X0090726Y0182602D03*
X0090726Y0178227D03*
X0080726Y0182602D03*
X0078851Y0178227D03*
X0076351Y0173852D03*
X0073344Y0178227D03*
X0073344Y0182602D03*
X0068226Y0182602D03*
X0068226Y0178227D03*
X0063969Y0178227D03*
X0058851Y0178227D03*
X0056976Y0173227D03*
X0062094Y0173227D03*
X0066351Y0168852D03*
X0071469Y0168852D03*
X0057719Y0155102D03*
X0057719Y0150727D03*
X0057719Y0146352D03*
X0057719Y0141977D03*
X0057719Y0137602D03*
X0052601Y0137602D03*
X0052601Y0141977D03*
X0052601Y0146352D03*
X0052601Y0150727D03*
X0052601Y0155102D03*
X0053851Y0117602D03*
X0056351Y0113227D03*
X0058969Y0117602D03*
X0061469Y0113227D03*
X0061469Y0108852D03*
X0061469Y0104477D03*
X0061469Y0100102D03*
X0061469Y0095727D03*
X0061469Y0091352D03*
X0056351Y0091352D03*
X0056351Y0095727D03*
X0056351Y0100102D03*
X0056351Y0104477D03*
X0056351Y0108852D03*
X0101351Y0056977D03*
X0106469Y0056977D03*
X0108851Y0088227D03*
X0108851Y0092602D03*
X0108851Y0096977D03*
X0108851Y0101352D03*
X0113969Y0101352D03*
X0113969Y0096977D03*
X0113969Y0092602D03*
X0113969Y0088227D03*
X0141351Y0085727D03*
X0146469Y0085727D03*
X0151351Y0070727D03*
X0156469Y0070727D03*
X0160726Y0070102D03*
X0165844Y0070102D03*
X0170101Y0070102D03*
X0170101Y0065727D03*
X0170101Y0061352D03*
X0170101Y0056977D03*
X0175219Y0056977D03*
X0175219Y0061352D03*
X0175219Y0065727D03*
X0175219Y0070102D03*
X0146469Y0120727D03*
X0146469Y0125102D03*
X0146469Y0129477D03*
X0146469Y0133852D03*
X0146469Y0138227D03*
X0141351Y0138227D03*
X0141351Y0133852D03*
X0141351Y0129477D03*
X0141351Y0125102D03*
X0141351Y0120727D03*
X0141351Y0144477D03*
X0141351Y0148852D03*
X0146469Y0148852D03*
X0146469Y0144477D03*
X0130844Y0156352D03*
X0131469Y0160727D03*
X0126351Y0160727D03*
X0125726Y0156352D03*
X0121469Y0156352D03*
X0121469Y0160727D03*
X0116351Y0160727D03*
X0116351Y0156352D03*
X0115219Y0151977D03*
X0114594Y0147602D03*
X0112094Y0143227D03*
X0112094Y0138852D03*
X0112094Y0134477D03*
X0113344Y0130102D03*
X0108226Y0130102D03*
X0106976Y0134477D03*
X0106976Y0138852D03*
X0106976Y0143227D03*
X0109476Y0147602D03*
X0110101Y0151977D03*
X0111469Y0156352D03*
X0111469Y0160727D03*
X0106351Y0160727D03*
X0106351Y0156352D03*
X0108851Y0121352D03*
X0113969Y0121352D03*
X0196976Y0145727D03*
X0195726Y0150102D03*
X0200844Y0150102D03*
X0202094Y0145727D03*
X0210726Y0145727D03*
X0215844Y0145727D03*
X0215726Y0150102D03*
X0220844Y0150102D03*
D12*
X0190785Y0150161D03*
X0186410Y0150161D03*
X0186410Y0145043D03*
X0190785Y0145043D03*
X0180160Y0155668D03*
X0175785Y0155668D03*
X0175785Y0160786D03*
X0180160Y0160786D03*
X0171410Y0160786D03*
X0171410Y0155668D03*
X0167035Y0156293D03*
X0162660Y0156293D03*
X0162660Y0161411D03*
X0167035Y0161411D03*
X0157660Y0168168D03*
X0157660Y0173286D03*
X0157660Y0179418D03*
X0157660Y0184536D03*
X0163910Y0190668D03*
X0163910Y0195786D03*
X0178285Y0196411D03*
X0178285Y0191293D03*
X0145785Y0193286D03*
X0145785Y0188168D03*
X0132660Y0174536D03*
X0132660Y0169418D03*
X0156410Y0147661D03*
X0156410Y0142543D03*
X0147035Y0114536D03*
X0147035Y0109418D03*
X0113285Y0071411D03*
X0113285Y0066293D03*
X0068910Y0081293D03*
X0064535Y0081293D03*
X0064535Y0086411D03*
X0068910Y0086411D03*
X0102035Y0134418D03*
X0102035Y0139536D03*
X0102035Y0146918D03*
X0102035Y0152036D03*
X0102035Y0157543D03*
X0102035Y0162661D03*
X0062035Y0197543D03*
X0057035Y0197543D03*
X0057035Y0202661D03*
X0062035Y0202661D03*
X0051410Y0205043D03*
X0051410Y0210161D03*
X0051410Y0218793D03*
X0051410Y0223911D03*
X0051410Y0228168D03*
X0051410Y0233286D03*
X0222035Y0233286D03*
X0222035Y0228168D03*
X0222035Y0223911D03*
X0222035Y0218793D03*
X0222035Y0107036D03*
X0222035Y0101918D03*
X0222035Y0093286D03*
X0222035Y0088168D03*
X0222035Y0083911D03*
X0222035Y0078793D03*
X0222035Y0074536D03*
X0222035Y0069418D03*
X0222035Y0062661D03*
X0222035Y0057543D03*
D13*
X0059525Y0085682D03*
X0052045Y0085682D03*
X0055785Y0077021D03*
D14*
X0053064Y0123227D03*
X0053064Y0129477D03*
X0059757Y0129477D03*
X0059757Y0123227D03*
X0062882Y0163852D03*
X0056189Y0163852D03*
X0099939Y0078227D03*
X0106632Y0078227D03*
X0157660Y0156130D03*
X0157660Y0162823D03*
X0158910Y0189880D03*
X0158910Y0196573D03*
D15*
X0096435Y0157375D03*
X0096435Y0154226D03*
X0096435Y0151076D03*
X0096435Y0147926D03*
X0096435Y0144777D03*
X0096435Y0141627D03*
X0096435Y0138478D03*
X0096435Y0135328D03*
X0101435Y0114250D03*
X0101435Y0111101D03*
X0101435Y0107951D03*
X0101435Y0104801D03*
X0101435Y0101652D03*
X0101435Y0098502D03*
X0101435Y0095353D03*
X0101435Y0092203D03*
X0067635Y0092203D03*
X0067635Y0095353D03*
X0067635Y0098502D03*
X0067635Y0101652D03*
X0067635Y0104801D03*
X0067635Y0107951D03*
X0067635Y0111101D03*
X0067635Y0114250D03*
X0062635Y0135328D03*
X0062635Y0138478D03*
X0062635Y0141627D03*
X0062635Y0144777D03*
X0062635Y0147926D03*
X0062635Y0151076D03*
X0062635Y0154226D03*
X0062635Y0157375D03*
D16*
X0068512Y0163252D03*
X0071661Y0163252D03*
X0074811Y0163252D03*
X0077960Y0163252D03*
X0081110Y0163252D03*
X0084260Y0163252D03*
X0087409Y0163252D03*
X0090559Y0163252D03*
X0090559Y0129452D03*
X0087409Y0129452D03*
X0084260Y0129452D03*
X0081110Y0129452D03*
X0077960Y0129452D03*
X0074811Y0129452D03*
X0071661Y0129452D03*
X0068512Y0129452D03*
X0073512Y0120127D03*
X0076661Y0120127D03*
X0079811Y0120127D03*
X0082960Y0120127D03*
X0086110Y0120127D03*
X0089260Y0120127D03*
X0092409Y0120127D03*
X0095559Y0120127D03*
X0095559Y0086327D03*
X0092409Y0086327D03*
X0089260Y0086327D03*
X0086110Y0086327D03*
X0082960Y0086327D03*
X0079811Y0086327D03*
X0076661Y0086327D03*
X0073512Y0086327D03*
D17*
X0082035Y0073719D03*
X0082035Y0057695D03*
D18*
X0160332Y0056977D03*
X0160332Y0061352D03*
X0160332Y0065727D03*
X0166238Y0065727D03*
X0166238Y0061352D03*
X0166238Y0056977D03*
D19*
X0055160Y0057356D03*
X0055160Y0070348D03*
D20*
X0093910Y0072380D03*
X0093910Y0079073D03*
X0112660Y0076755D03*
X0112660Y0083448D03*
D21*
X0108275Y0071504D03*
X0104535Y0071504D03*
X0100795Y0071504D03*
X0100795Y0062449D03*
X0104535Y0062449D03*
X0108275Y0062449D03*
D22*
X0139939Y0071396D03*
X0146632Y0071396D03*
X0146632Y0080057D03*
X0139939Y0080057D03*
X0114757Y0107021D03*
X0108064Y0107021D03*
X0108064Y0115682D03*
X0114757Y0115682D03*
D23*
X0131410Y0073217D03*
X0131410Y0065737D03*
X0093910Y0065092D03*
X0093910Y0057612D03*
X0139535Y0188862D03*
X0139535Y0196342D03*
X0152035Y0196342D03*
X0152035Y0188862D03*
X0185160Y0189255D03*
X0185160Y0195948D03*
X0192035Y0196342D03*
X0192035Y0188862D03*
X0202660Y0188862D03*
X0202660Y0196342D03*
X0210785Y0196342D03*
X0210785Y0188862D03*
X0218910Y0188862D03*
X0218910Y0196342D03*
D24*
X0121410Y0077488D03*
X0121410Y0066465D03*
D25*
X0115574Y0058227D03*
X0129747Y0058227D03*
X0067247Y0242602D03*
X0053074Y0242602D03*
X0206824Y0242602D03*
X0220997Y0242602D03*
D26*
X0067660Y0073699D03*
X0067660Y0057754D03*
D27*
X0119545Y0166396D03*
X0113275Y0168271D03*
X0105795Y0168271D03*
X0109535Y0176932D03*
X0106420Y0188271D03*
X0099525Y0188271D03*
X0092045Y0188271D03*
X0087025Y0188271D03*
X0079545Y0188271D03*
X0074525Y0188271D03*
X0067045Y0188271D03*
X0062025Y0183271D03*
X0054545Y0183271D03*
X0058285Y0191932D03*
X0070785Y0196932D03*
X0064525Y0208271D03*
X0057045Y0208271D03*
X0060785Y0216932D03*
X0083285Y0196932D03*
X0095785Y0196932D03*
X0110160Y0196932D03*
X0113900Y0188271D03*
X0123285Y0175057D03*
X0127025Y0166396D03*
D28*
X0137660Y0160490D03*
X0142660Y0160490D03*
X0147660Y0160490D03*
X0152660Y0160490D03*
X0152660Y0180963D03*
X0147660Y0180963D03*
X0142660Y0180963D03*
X0137660Y0180963D03*
X0185785Y0179088D03*
X0190785Y0179088D03*
X0195785Y0179088D03*
X0200785Y0179088D03*
X0205785Y0179088D03*
X0210785Y0179088D03*
X0215785Y0179088D03*
X0220785Y0179088D03*
X0220785Y0158615D03*
X0215785Y0158615D03*
X0210785Y0158615D03*
X0205785Y0158615D03*
X0200785Y0158615D03*
X0195785Y0158615D03*
X0190785Y0158615D03*
X0185785Y0158615D03*
D29*
X0216031Y0131224D03*
X0216031Y0129255D03*
X0216031Y0127287D03*
X0216031Y0125318D03*
X0216031Y0123350D03*
X0216031Y0121381D03*
X0216031Y0119413D03*
X0216031Y0117444D03*
X0216031Y0115476D03*
X0216031Y0113507D03*
X0216031Y0111539D03*
X0216031Y0109570D03*
X0216031Y0107602D03*
X0216031Y0105633D03*
X0216031Y0103665D03*
X0216031Y0101696D03*
X0216031Y0099728D03*
X0216031Y0097759D03*
X0216031Y0095791D03*
X0216031Y0093822D03*
X0216031Y0091854D03*
X0216031Y0089885D03*
X0216031Y0087917D03*
X0216031Y0085948D03*
X0216031Y0083980D03*
X0153039Y0083980D03*
X0153039Y0085948D03*
X0153039Y0087917D03*
X0153039Y0089885D03*
X0153039Y0091854D03*
X0153039Y0093822D03*
X0153039Y0095791D03*
X0153039Y0097759D03*
X0153039Y0099728D03*
X0153039Y0101696D03*
X0153039Y0103665D03*
X0153039Y0105633D03*
X0153039Y0107602D03*
X0153039Y0109570D03*
X0153039Y0111539D03*
X0153039Y0113507D03*
X0153039Y0115476D03*
X0153039Y0117444D03*
X0153039Y0119413D03*
X0153039Y0121381D03*
X0153039Y0123350D03*
X0153039Y0125318D03*
X0153039Y0127287D03*
X0153039Y0129255D03*
X0153039Y0131224D03*
D30*
X0160913Y0139098D03*
X0162882Y0139098D03*
X0164850Y0139098D03*
X0166819Y0139098D03*
X0168787Y0139098D03*
X0170756Y0139098D03*
X0172724Y0139098D03*
X0174693Y0139098D03*
X0176661Y0139098D03*
X0178630Y0139098D03*
X0180598Y0139098D03*
X0182567Y0139098D03*
X0184535Y0139098D03*
X0186504Y0139098D03*
X0188472Y0139098D03*
X0190441Y0139098D03*
X0192409Y0139098D03*
X0194378Y0139098D03*
X0196346Y0139098D03*
X0198315Y0139098D03*
X0200283Y0139098D03*
X0202252Y0139098D03*
X0204220Y0139098D03*
X0206189Y0139098D03*
X0208157Y0139098D03*
X0208157Y0076106D03*
X0206189Y0076106D03*
X0204220Y0076106D03*
X0202252Y0076106D03*
X0200283Y0076106D03*
X0198315Y0076106D03*
X0196346Y0076106D03*
X0194378Y0076106D03*
X0192409Y0076106D03*
X0190441Y0076106D03*
X0188472Y0076106D03*
X0186504Y0076106D03*
X0184535Y0076106D03*
X0182567Y0076106D03*
X0180598Y0076106D03*
X0178630Y0076106D03*
X0176661Y0076106D03*
X0174693Y0076106D03*
X0172724Y0076106D03*
X0170756Y0076106D03*
X0168787Y0076106D03*
X0166819Y0076106D03*
X0164850Y0076106D03*
X0162882Y0076106D03*
X0160913Y0076106D03*
D31*
X0160490Y0210052D03*
X0166395Y0219895D03*
X0172301Y0210052D03*
X0178206Y0219895D03*
X0184112Y0210052D03*
X0178206Y0233674D03*
X0172301Y0243517D03*
X0166395Y0233674D03*
X0160490Y0243517D03*
X0154584Y0233674D03*
X0148679Y0243517D03*
X0142773Y0233674D03*
X0136868Y0243517D03*
X0130962Y0233674D03*
X0125057Y0243517D03*
X0119151Y0233674D03*
X0113246Y0243517D03*
X0107340Y0233674D03*
X0101435Y0243517D03*
X0095529Y0233674D03*
X0089624Y0243517D03*
X0095529Y0219895D03*
X0089624Y0210052D03*
X0101435Y0210052D03*
X0107340Y0219895D03*
X0113246Y0210052D03*
X0119151Y0219895D03*
X0125057Y0210052D03*
X0130962Y0219895D03*
X0136868Y0210052D03*
X0142773Y0219895D03*
X0148679Y0210052D03*
X0154584Y0219895D03*
X0184112Y0243517D03*
D32*
X0130160Y0197188D03*
X0120785Y0197188D03*
X0120785Y0183015D03*
X0130160Y0183015D03*
D33*
X0065741Y0231352D03*
X0057079Y0235092D03*
X0057079Y0227612D03*
X0207704Y0231352D03*
X0216366Y0235092D03*
X0216366Y0227612D03*
D34*
X0212035Y0221102D03*
X0212035Y0215102D03*
X0212035Y0209102D03*
X0202660Y0209102D03*
X0202660Y0215102D03*
X0202660Y0221102D03*
D35*
X0177003Y0184157D03*
X0175035Y0184157D03*
X0173066Y0184157D03*
X0171098Y0184157D03*
X0169129Y0184157D03*
X0167161Y0184157D03*
X0165192Y0184157D03*
X0165192Y0166047D03*
X0167161Y0166047D03*
X0169129Y0166047D03*
X0171098Y0166047D03*
X0173066Y0166047D03*
X0175035Y0166047D03*
X0177003Y0166047D03*
D36*
X0180153Y0169196D03*
X0180153Y0171165D03*
X0180153Y0173133D03*
X0180153Y0175102D03*
X0180153Y0177070D03*
X0180153Y0179039D03*
X0180153Y0181007D03*
X0162043Y0181007D03*
X0162043Y0179039D03*
X0162043Y0177070D03*
X0162043Y0175102D03*
X0162043Y0173133D03*
X0162043Y0171165D03*
X0162043Y0169196D03*
D37*
X0171098Y0175102D03*
D38*
X0133285Y0147602D03*
X0123285Y0147602D03*
X0123285Y0137602D03*
X0123285Y0127602D03*
X0133285Y0127602D03*
X0133285Y0137602D03*
X0133285Y0117602D03*
X0133285Y0107602D03*
X0123285Y0107602D03*
X0123285Y0117602D03*
X0123285Y0097602D03*
X0133285Y0097602D03*
X0133285Y0087602D03*
X0123285Y0087602D03*
X0184535Y0067602D03*
X0184535Y0057602D03*
X0194535Y0057602D03*
X0194535Y0067602D03*
X0204535Y0067602D03*
X0204535Y0057602D03*
X0214535Y0057602D03*
X0214535Y0067602D03*
D39*
X0173344Y0190702D03*
X0170785Y0190702D03*
X0168226Y0190702D03*
X0168226Y0197001D03*
X0170785Y0197001D03*
X0173344Y0197001D03*
D40*
X0172636Y0150161D03*
X0172636Y0147602D03*
X0172636Y0145043D03*
X0168310Y0145043D03*
X0168310Y0147602D03*
X0168310Y0150161D03*
X0162011Y0150161D03*
X0162011Y0147602D03*
X0162011Y0145043D03*
X0178935Y0145043D03*
X0178935Y0147602D03*
X0178935Y0150161D03*
D41*
X0149525Y0058852D03*
X0142045Y0058852D03*
D42*
X0130785Y0059477D03*
X0128285Y0059477D03*
X0128285Y0056977D03*
X0130785Y0056977D03*
X0140160Y0070727D03*
X0135160Y0080102D03*
X0131410Y0078227D03*
X0123910Y0078227D03*
X0121410Y0078227D03*
X0118910Y0078227D03*
X0112660Y0083227D03*
X0108285Y0088227D03*
X0104535Y0088852D03*
X0102035Y0088852D03*
X0102035Y0086352D03*
X0104535Y0086352D03*
X0092660Y0092602D03*
X0088910Y0091352D03*
X0082035Y0096352D03*
X0077660Y0095102D03*
X0075785Y0098852D03*
X0075785Y0091352D03*
X0078285Y0081352D03*
X0082035Y0081352D03*
X0088910Y0076352D03*
X0104535Y0067602D03*
X0095160Y0057602D03*
X0092660Y0057602D03*
X0083910Y0058852D03*
X0083910Y0056352D03*
X0080160Y0056352D03*
X0080160Y0058852D03*
X0070160Y0059477D03*
X0067660Y0059477D03*
X0065160Y0059477D03*
X0065160Y0056352D03*
X0067660Y0056352D03*
X0070160Y0056352D03*
X0058910Y0070727D03*
X0055160Y0070727D03*
X0051410Y0070727D03*
X0052035Y0083852D03*
X0056410Y0095727D03*
X0056410Y0100102D03*
X0056410Y0104477D03*
X0056410Y0108852D03*
X0056410Y0113227D03*
X0067660Y0118227D03*
X0072660Y0110727D03*
X0072660Y0105102D03*
X0088910Y0115102D03*
X0092660Y0115102D03*
X0096410Y0104477D03*
X0096410Y0098852D03*
X0108285Y0101352D03*
X0114535Y0096977D03*
X0115160Y0121352D03*
X0116410Y0130102D03*
X0115160Y0138227D03*
X0117660Y0144477D03*
X0121410Y0156352D03*
X0121410Y0160727D03*
X0130785Y0156352D03*
X0142660Y0160727D03*
X0147660Y0160727D03*
X0152660Y0160727D03*
X0157660Y0156352D03*
X0157660Y0151352D03*
X0156410Y0147602D03*
X0152660Y0151352D03*
X0147660Y0152602D03*
X0143910Y0152602D03*
X0149535Y0144477D03*
X0156410Y0139477D03*
X0157660Y0135727D03*
X0162660Y0133227D03*
X0170785Y0133227D03*
X0175785Y0133227D03*
X0180785Y0131977D03*
X0183285Y0129477D03*
X0180785Y0126977D03*
X0180785Y0123227D03*
X0172035Y0121352D03*
X0169535Y0123852D03*
X0169535Y0113852D03*
X0158910Y0113852D03*
X0158910Y0110102D03*
X0162035Y0102602D03*
X0159535Y0100102D03*
X0162035Y0097602D03*
X0160160Y0094477D03*
X0160785Y0090727D03*
X0164535Y0090727D03*
X0168285Y0090727D03*
X0167660Y0083227D03*
X0171410Y0081977D03*
X0177660Y0082602D03*
X0181410Y0082602D03*
X0175160Y0070102D03*
X0175160Y0065727D03*
X0175160Y0061352D03*
X0175160Y0056977D03*
X0165785Y0070102D03*
X0160785Y0070102D03*
X0156410Y0070727D03*
X0146410Y0080727D03*
X0140160Y0091352D03*
X0147035Y0096352D03*
X0146410Y0120727D03*
X0146410Y0125102D03*
X0138285Y0133852D03*
X0162660Y0161352D03*
X0167035Y0161352D03*
X0171410Y0160727D03*
X0171410Y0155727D03*
X0165160Y0152602D03*
X0180160Y0160727D03*
X0180785Y0165102D03*
X0173598Y0172602D03*
X0173598Y0177602D03*
X0168598Y0177602D03*
X0168598Y0172602D03*
X0162035Y0184477D03*
X0158910Y0200727D03*
X0145785Y0193227D03*
X0137660Y0181352D03*
X0130160Y0181977D03*
X0130160Y0184477D03*
X0120785Y0184477D03*
X0120785Y0181977D03*
X0117660Y0175727D03*
X0115160Y0175727D03*
X0115160Y0173227D03*
X0117660Y0173227D03*
X0127660Y0172602D03*
X0127660Y0170102D03*
X0111410Y0156352D03*
X0106410Y0160727D03*
X0106410Y0151977D03*
X0106410Y0147602D03*
X0103910Y0143227D03*
X0104535Y0130727D03*
X0099535Y0130102D03*
X0091410Y0138227D03*
X0091410Y0141352D03*
X0087035Y0135102D03*
X0084535Y0137602D03*
X0081410Y0139477D03*
X0076410Y0136352D03*
X0073910Y0143852D03*
X0068910Y0143852D03*
X0070160Y0151352D03*
X0067660Y0154477D03*
X0074535Y0150727D03*
X0078910Y0146352D03*
X0083285Y0153852D03*
X0078910Y0158227D03*
X0075785Y0168227D03*
X0072660Y0173227D03*
X0068910Y0173227D03*
X0065160Y0173227D03*
X0062660Y0168852D03*
X0057035Y0167602D03*
X0055160Y0178227D03*
X0058285Y0190727D03*
X0058285Y0193227D03*
X0065785Y0193227D03*
X0065785Y0195727D03*
X0065785Y0198227D03*
X0064535Y0206977D03*
X0064535Y0209477D03*
X0052660Y0201352D03*
X0051410Y0218227D03*
X0055785Y0227602D03*
X0058285Y0227602D03*
X0077035Y0198227D03*
X0077035Y0195727D03*
X0077035Y0193227D03*
X0089535Y0193227D03*
X0089535Y0195727D03*
X0089535Y0198227D03*
X0100785Y0198852D03*
X0103285Y0195102D03*
X0103285Y0192602D03*
X0114535Y0195727D03*
X0095160Y0173852D03*
X0090785Y0173852D03*
X0098285Y0168852D03*
X0097660Y0165102D03*
X0081410Y0173852D03*
X0078910Y0178227D03*
X0073285Y0178227D03*
X0052660Y0150727D03*
X0052660Y0146352D03*
X0052660Y0141977D03*
X0157660Y0168227D03*
X0178285Y0188227D03*
X0178285Y0199477D03*
X0201410Y0208852D03*
X0203910Y0208852D03*
X0210785Y0203227D03*
X0213285Y0203227D03*
X0220785Y0211352D03*
X0220785Y0213852D03*
X0213285Y0215102D03*
X0210785Y0215102D03*
X0203910Y0221352D03*
X0201410Y0221352D03*
X0215160Y0235102D03*
X0217660Y0235102D03*
X0195785Y0158227D03*
X0195785Y0155727D03*
X0190785Y0155727D03*
X0182660Y0151977D03*
X0182660Y0148227D03*
X0182660Y0144477D03*
X0200160Y0133852D03*
X0193910Y0123227D03*
X0180785Y0110102D03*
X0180785Y0106352D03*
X0200785Y0085102D03*
X0204535Y0085102D03*
X0210160Y0101977D03*
X0210160Y0105727D03*
X0222035Y0096352D03*
X0222035Y0066352D03*
X0222035Y0056977D03*
X0160160Y0056977D03*
X0214535Y0139477D03*
X0214535Y0141977D03*
X0210160Y0150102D03*
X0204535Y0151977D03*
D43*
X0049935Y0061352D02*
X0049935Y0054252D01*
X0075785Y0054252D01*
X0075785Y0061352D01*
X0049935Y0061352D01*
X0049935Y0060587D02*
X0075785Y0060587D01*
X0075785Y0059788D02*
X0049935Y0059788D01*
X0049935Y0058990D02*
X0075785Y0058990D01*
X0075785Y0058191D02*
X0049935Y0058191D01*
X0049935Y0057393D02*
X0075785Y0057393D01*
X0075785Y0056594D02*
X0049935Y0056594D01*
X0049935Y0055796D02*
X0075785Y0055796D01*
X0075785Y0054997D02*
X0049935Y0054997D01*
X0062035Y0063227D02*
X0062035Y0079370D01*
X0062391Y0079015D01*
X0066680Y0079015D01*
X0066723Y0079058D01*
X0066766Y0079015D01*
X0071055Y0079015D01*
X0071582Y0079542D01*
X0071582Y0079993D01*
X0074056Y0079993D01*
X0075735Y0078313D01*
X0076497Y0077552D01*
X0090160Y0077552D01*
X0090160Y0068852D01*
X0099222Y0068852D01*
X0099241Y0068833D01*
X0102349Y0068833D01*
X0102368Y0068852D01*
X0102532Y0068852D01*
X0102235Y0068554D01*
X0102235Y0066649D01*
X0103582Y0065302D01*
X0105488Y0065302D01*
X0105785Y0065599D01*
X0105785Y0058852D01*
X0107660Y0058852D01*
X0107660Y0054252D01*
X0097335Y0054252D01*
X0097763Y0054680D01*
X0097763Y0060543D01*
X0097236Y0061071D01*
X0090585Y0061071D01*
X0090057Y0060543D01*
X0090057Y0054680D01*
X0090485Y0054252D01*
X0087187Y0054252D01*
X0087187Y0061572D01*
X0086660Y0062099D01*
X0077660Y0062099D01*
X0077660Y0063227D01*
X0062035Y0063227D01*
X0062035Y0063781D02*
X0098714Y0063781D01*
X0098714Y0064579D02*
X0062035Y0064579D01*
X0062035Y0065378D02*
X0103506Y0065378D01*
X0102876Y0064594D02*
X0102349Y0065121D01*
X0099241Y0065121D01*
X0098714Y0064594D01*
X0098714Y0060305D01*
X0099241Y0059777D01*
X0099495Y0059777D01*
X0099495Y0059543D01*
X0099073Y0059121D01*
X0099073Y0054832D01*
X0099600Y0054305D01*
X0103102Y0054305D01*
X0103629Y0054832D01*
X0103629Y0059121D01*
X0103102Y0059648D01*
X0102095Y0059648D01*
X0102095Y0059777D01*
X0102349Y0059777D01*
X0102876Y0060305D01*
X0102876Y0064594D01*
X0102876Y0064579D02*
X0105785Y0064579D01*
X0105785Y0063781D02*
X0102876Y0063781D01*
X0102876Y0062982D02*
X0105785Y0062982D01*
X0105785Y0062184D02*
X0102876Y0062184D01*
X0102876Y0061385D02*
X0105785Y0061385D01*
X0105785Y0060587D02*
X0102876Y0060587D01*
X0102360Y0059788D02*
X0105785Y0059788D01*
X0105785Y0058990D02*
X0103629Y0058990D01*
X0103629Y0058191D02*
X0107660Y0058191D01*
X0107660Y0057393D02*
X0103629Y0057393D01*
X0103629Y0056594D02*
X0107660Y0056594D01*
X0107660Y0055796D02*
X0103629Y0055796D01*
X0103629Y0054997D02*
X0107660Y0054997D01*
X0109535Y0054997D02*
X0125160Y0054997D01*
X0125160Y0054252D02*
X0109535Y0054252D01*
X0109535Y0060727D01*
X0107660Y0060727D01*
X0107660Y0068833D01*
X0109829Y0068833D01*
X0109848Y0068852D01*
X0125160Y0068852D01*
X0125160Y0054252D01*
X0125160Y0055796D02*
X0109535Y0055796D01*
X0109535Y0056594D02*
X0125160Y0056594D01*
X0125160Y0057393D02*
X0109535Y0057393D01*
X0109535Y0058191D02*
X0125160Y0058191D01*
X0125160Y0058990D02*
X0109535Y0058990D01*
X0109535Y0059788D02*
X0125160Y0059788D01*
X0125160Y0060587D02*
X0109535Y0060587D01*
X0107660Y0061385D02*
X0125160Y0061385D01*
X0125160Y0062184D02*
X0107660Y0062184D01*
X0107660Y0062982D02*
X0125160Y0062982D01*
X0125160Y0063781D02*
X0107660Y0063781D01*
X0107660Y0064579D02*
X0125160Y0064579D01*
X0125160Y0065378D02*
X0107660Y0065378D01*
X0107660Y0066176D02*
X0125160Y0066176D01*
X0125160Y0066975D02*
X0107660Y0066975D01*
X0107660Y0067773D02*
X0125160Y0067773D01*
X0125160Y0068572D02*
X0107660Y0068572D01*
X0105785Y0065378D02*
X0105564Y0065378D01*
X0102708Y0066176D02*
X0062035Y0066176D01*
X0062035Y0066975D02*
X0102235Y0066975D01*
X0102235Y0067773D02*
X0062035Y0067773D01*
X0062035Y0068572D02*
X0102253Y0068572D01*
X0102665Y0073860D02*
X0102495Y0074030D01*
X0102495Y0075376D01*
X0102807Y0075689D01*
X0102807Y0080765D01*
X0102280Y0081292D01*
X0097597Y0081292D01*
X0097070Y0080765D01*
X0097070Y0075689D01*
X0097597Y0075161D01*
X0099095Y0075161D01*
X0099095Y0074080D01*
X0096975Y0074080D01*
X0096975Y0074721D01*
X0096448Y0075249D01*
X0092035Y0075249D01*
X0092035Y0082927D01*
X0093882Y0082927D01*
X0093984Y0083029D01*
X0094086Y0082927D01*
X0097032Y0082927D01*
X0097559Y0083454D01*
X0097559Y0089199D01*
X0097032Y0089727D01*
X0094086Y0089727D01*
X0093984Y0089625D01*
X0093882Y0089727D01*
X0093609Y0089727D01*
X0093609Y0090302D01*
X0093613Y0090302D01*
X0094960Y0091649D01*
X0094960Y0093554D01*
X0093613Y0094902D01*
X0092035Y0094902D01*
X0092035Y0109477D01*
X0098186Y0109477D01*
X0098562Y0109101D01*
X0104308Y0109101D01*
X0104684Y0109477D01*
X0104801Y0109477D01*
X0104801Y0106308D01*
X0104308Y0106801D01*
X0098562Y0106801D01*
X0098035Y0106274D01*
X0098035Y0106104D01*
X0097363Y0106777D01*
X0095457Y0106777D01*
X0094110Y0105429D01*
X0094110Y0103524D01*
X0095457Y0102177D01*
X0097363Y0102177D01*
X0098275Y0103089D01*
X0098562Y0102801D01*
X0104308Y0102801D01*
X0104835Y0103329D01*
X0104835Y0103859D01*
X0105329Y0103365D01*
X0106573Y0103365D01*
X0106573Y0102892D01*
X0105985Y0102304D01*
X0105985Y0100399D01*
X0106573Y0099811D01*
X0106573Y0099207D01*
X0107100Y0098680D01*
X0110160Y0098680D01*
X0110160Y0095273D01*
X0107100Y0095273D01*
X0106573Y0094746D01*
X0106573Y0093403D01*
X0104835Y0093403D01*
X0104835Y0093676D01*
X0104733Y0093778D01*
X0104835Y0093880D01*
X0104835Y0096825D01*
X0104733Y0096927D01*
X0104835Y0097029D01*
X0104835Y0099975D01*
X0104308Y0100502D01*
X0098562Y0100502D01*
X0098287Y0100227D01*
X0097363Y0101152D01*
X0095457Y0101152D01*
X0094110Y0099804D01*
X0094110Y0097899D01*
X0095457Y0096552D01*
X0097363Y0096552D01*
X0098013Y0097202D01*
X0098035Y0097202D01*
X0098035Y0097029D01*
X0098137Y0096927D01*
X0098035Y0096825D01*
X0098035Y0093880D01*
X0098137Y0093778D01*
X0098035Y0093676D01*
X0098035Y0090730D01*
X0098562Y0090203D01*
X0104308Y0090203D01*
X0104835Y0090730D01*
X0104835Y0091003D01*
X0106573Y0091003D01*
X0106573Y0090457D01*
X0106616Y0090414D01*
X0106573Y0090371D01*
X0106573Y0089767D01*
X0105985Y0089179D01*
X0105985Y0087274D01*
X0106573Y0086686D01*
X0106573Y0086082D01*
X0107100Y0085555D01*
X0109595Y0085555D01*
X0109595Y0081107D01*
X0110122Y0080580D01*
X0115198Y0080580D01*
X0115725Y0081107D01*
X0115725Y0085561D01*
X0116247Y0086082D01*
X0116247Y0086352D01*
X0119385Y0086352D01*
X0119385Y0085986D01*
X0121670Y0083702D01*
X0124901Y0083702D01*
X0127185Y0085986D01*
X0127185Y0086352D01*
X0129385Y0086352D01*
X0129385Y0085986D01*
X0131670Y0083702D01*
X0134901Y0083702D01*
X0135785Y0084586D01*
X0135785Y0082402D01*
X0134207Y0082402D01*
X0132860Y0081054D01*
X0132860Y0080029D01*
X0132363Y0080527D01*
X0130457Y0080527D01*
X0129110Y0079179D01*
X0129110Y0077274D01*
X0130457Y0075927D01*
X0132363Y0075927D01*
X0133125Y0076689D01*
X0133960Y0075855D01*
X0133960Y0070727D01*
X0115957Y0070727D01*
X0115957Y0073161D01*
X0115430Y0073689D01*
X0111141Y0073689D01*
X0110656Y0073204D01*
X0110356Y0073204D01*
X0110356Y0073649D01*
X0109829Y0074176D01*
X0106721Y0074176D01*
X0106405Y0073860D01*
X0106089Y0074176D01*
X0102981Y0074176D01*
X0102665Y0073860D01*
X0102495Y0074161D02*
X0102967Y0074161D01*
X0102495Y0074960D02*
X0109595Y0074960D01*
X0109595Y0074414D02*
X0110122Y0073887D01*
X0115198Y0073887D01*
X0115725Y0074414D01*
X0115725Y0079096D01*
X0115198Y0079624D01*
X0110122Y0079624D01*
X0109800Y0079302D01*
X0109500Y0079302D01*
X0109500Y0080765D01*
X0108973Y0081292D01*
X0104290Y0081292D01*
X0103763Y0080765D01*
X0103763Y0075689D01*
X0104290Y0075161D01*
X0108973Y0075161D01*
X0109500Y0075689D01*
X0109500Y0075902D01*
X0109595Y0075902D01*
X0109595Y0074414D01*
X0109844Y0074161D02*
X0109847Y0074161D01*
X0110356Y0073363D02*
X0110815Y0073363D01*
X0109595Y0075758D02*
X0109500Y0075758D01*
X0106707Y0074161D02*
X0106103Y0074161D01*
X0103763Y0075758D02*
X0102807Y0075758D01*
X0102807Y0076557D02*
X0103763Y0076557D01*
X0103763Y0077356D02*
X0102807Y0077356D01*
X0102807Y0078154D02*
X0103763Y0078154D01*
X0103763Y0078953D02*
X0102807Y0078953D01*
X0102807Y0079751D02*
X0103763Y0079751D01*
X0103763Y0080550D02*
X0102807Y0080550D01*
X0097559Y0083744D02*
X0109595Y0083744D01*
X0109595Y0084542D02*
X0097559Y0084542D01*
X0097559Y0085341D02*
X0109595Y0085341D01*
X0109595Y0082945D02*
X0097050Y0082945D01*
X0097070Y0080550D02*
X0092035Y0080550D01*
X0092035Y0081348D02*
X0109595Y0081348D01*
X0109595Y0082147D02*
X0092035Y0082147D01*
X0093900Y0082945D02*
X0094068Y0082945D01*
X0092035Y0079751D02*
X0097070Y0079751D01*
X0097070Y0078953D02*
X0092035Y0078953D01*
X0092035Y0078852D02*
X0077035Y0078852D01*
X0074594Y0081293D01*
X0068910Y0081293D01*
X0064535Y0081293D01*
X0062035Y0078953D02*
X0075096Y0078953D01*
X0074297Y0079751D02*
X0071582Y0079751D01*
X0075894Y0078154D02*
X0062035Y0078154D01*
X0062035Y0077356D02*
X0090160Y0077356D01*
X0090160Y0076557D02*
X0062035Y0076557D01*
X0062035Y0075758D02*
X0090160Y0075758D01*
X0090160Y0074960D02*
X0062035Y0074960D01*
X0062035Y0074161D02*
X0090160Y0074161D01*
X0090160Y0073363D02*
X0062035Y0073363D01*
X0062035Y0072564D02*
X0090160Y0072564D01*
X0090160Y0071766D02*
X0062035Y0071766D01*
X0062035Y0070967D02*
X0090160Y0070967D01*
X0090160Y0070169D02*
X0062035Y0070169D01*
X0062035Y0069370D02*
X0090160Y0069370D01*
X0092035Y0075758D02*
X0097070Y0075758D01*
X0097070Y0076557D02*
X0092035Y0076557D01*
X0092035Y0077356D02*
X0097070Y0077356D01*
X0097070Y0078154D02*
X0092035Y0078154D01*
X0096737Y0074960D02*
X0099095Y0074960D01*
X0099095Y0074161D02*
X0096975Y0074161D01*
X0098714Y0062982D02*
X0077660Y0062982D01*
X0077660Y0062184D02*
X0098714Y0062184D01*
X0098714Y0061385D02*
X0087187Y0061385D01*
X0087187Y0060587D02*
X0090101Y0060587D01*
X0090057Y0059788D02*
X0087187Y0059788D01*
X0087187Y0058990D02*
X0090057Y0058990D01*
X0090057Y0058191D02*
X0087187Y0058191D01*
X0087187Y0057393D02*
X0090057Y0057393D01*
X0090057Y0056594D02*
X0087187Y0056594D01*
X0087187Y0055796D02*
X0090057Y0055796D01*
X0090057Y0054997D02*
X0087187Y0054997D01*
X0097763Y0054997D02*
X0099073Y0054997D01*
X0099073Y0055796D02*
X0097763Y0055796D01*
X0097763Y0056594D02*
X0099073Y0056594D01*
X0099073Y0057393D02*
X0097763Y0057393D01*
X0097763Y0058191D02*
X0099073Y0058191D01*
X0099073Y0058990D02*
X0097763Y0058990D01*
X0097763Y0059788D02*
X0099230Y0059788D01*
X0098714Y0060587D02*
X0097719Y0060587D01*
X0100795Y0062449D02*
X0100795Y0057370D01*
X0101351Y0056977D01*
X0115957Y0070967D02*
X0133960Y0070967D01*
X0133960Y0071766D02*
X0115957Y0071766D01*
X0115957Y0072564D02*
X0133960Y0072564D01*
X0133960Y0073363D02*
X0115755Y0073363D01*
X0115473Y0074161D02*
X0133960Y0074161D01*
X0133960Y0074960D02*
X0115725Y0074960D01*
X0115725Y0075758D02*
X0133960Y0075758D01*
X0133258Y0076557D02*
X0132993Y0076557D01*
X0129827Y0076557D02*
X0115725Y0076557D01*
X0115725Y0077356D02*
X0129110Y0077356D01*
X0129110Y0078154D02*
X0115725Y0078154D01*
X0115725Y0078953D02*
X0129110Y0078953D01*
X0129682Y0079751D02*
X0109500Y0079751D01*
X0109500Y0080550D02*
X0132860Y0080550D01*
X0133154Y0081348D02*
X0115725Y0081348D01*
X0115725Y0082147D02*
X0133952Y0082147D01*
X0134942Y0083744D02*
X0135785Y0083744D01*
X0135785Y0084542D02*
X0135741Y0084542D01*
X0135785Y0082945D02*
X0115725Y0082945D01*
X0115725Y0083744D02*
X0121628Y0083744D01*
X0120829Y0084542D02*
X0115725Y0084542D01*
X0115725Y0085341D02*
X0120031Y0085341D01*
X0119385Y0086139D02*
X0116247Y0086139D01*
X0110160Y0095721D02*
X0104835Y0095721D01*
X0104835Y0094923D02*
X0106750Y0094923D01*
X0106573Y0094124D02*
X0104835Y0094124D01*
X0104835Y0096520D02*
X0110160Y0096520D01*
X0110160Y0097318D02*
X0104835Y0097318D01*
X0104835Y0098117D02*
X0110160Y0098117D01*
X0113285Y0096977D02*
X0113969Y0096977D01*
X0108851Y0101352D02*
X0108285Y0101352D01*
X0105985Y0101311D02*
X0092035Y0101311D01*
X0092035Y0102109D02*
X0105985Y0102109D01*
X0106573Y0102908D02*
X0104414Y0102908D01*
X0104835Y0103706D02*
X0104987Y0103706D01*
X0104801Y0106900D02*
X0092035Y0106900D01*
X0092035Y0106102D02*
X0094783Y0106102D01*
X0094110Y0105303D02*
X0092035Y0105303D01*
X0092035Y0104505D02*
X0094110Y0104505D01*
X0094110Y0103706D02*
X0092035Y0103706D01*
X0092035Y0102908D02*
X0094726Y0102908D01*
X0096410Y0104477D02*
X0096735Y0104801D01*
X0101435Y0104801D01*
X0098456Y0102908D02*
X0098094Y0102908D01*
X0098002Y0100512D02*
X0105985Y0100512D01*
X0106573Y0099714D02*
X0104835Y0099714D01*
X0104835Y0098915D02*
X0106865Y0098915D01*
X0101435Y0098502D02*
X0096760Y0098502D01*
X0096410Y0098852D01*
X0094818Y0100512D02*
X0092035Y0100512D01*
X0092035Y0099714D02*
X0094110Y0099714D01*
X0094110Y0098915D02*
X0092035Y0098915D01*
X0092035Y0098117D02*
X0094110Y0098117D01*
X0094691Y0097318D02*
X0092035Y0097318D01*
X0092035Y0096520D02*
X0098035Y0096520D01*
X0098035Y0095721D02*
X0092035Y0095721D01*
X0092035Y0094923D02*
X0098035Y0094923D01*
X0098035Y0094124D02*
X0094390Y0094124D01*
X0094960Y0093326D02*
X0098035Y0093326D01*
X0098035Y0092527D02*
X0094960Y0092527D01*
X0094960Y0091729D02*
X0098035Y0091729D01*
X0098035Y0090930D02*
X0094241Y0090930D01*
X0093609Y0090132D02*
X0106573Y0090132D01*
X0106573Y0090930D02*
X0104835Y0090930D01*
X0106139Y0089333D02*
X0097425Y0089333D01*
X0097559Y0088535D02*
X0105985Y0088535D01*
X0105985Y0087736D02*
X0097559Y0087736D01*
X0097559Y0086938D02*
X0106321Y0086938D01*
X0106573Y0086139D02*
X0097559Y0086139D01*
X0114757Y0107021D02*
X0114757Y0107380D01*
X0114757Y0107021D02*
X0115278Y0107543D01*
X0114757Y0115682D02*
X0115426Y0116352D01*
X0108851Y0116470D02*
X0108064Y0115682D01*
X0108851Y0116470D02*
X0108851Y0121352D01*
X0108226Y0130102D02*
X0108226Y0130668D01*
X0108285Y0130727D01*
X0104535Y0130727D01*
X0096760Y0135328D02*
X0096435Y0135328D01*
X0093285Y0132602D02*
X0093285Y0126352D01*
X0092409Y0125476D01*
X0092409Y0120127D01*
X0092035Y0109296D02*
X0098367Y0109296D01*
X0104503Y0109296D02*
X0104801Y0109296D01*
X0104801Y0108497D02*
X0092035Y0108497D01*
X0092035Y0107699D02*
X0104801Y0107699D01*
X0093285Y0132602D02*
X0079535Y0146352D01*
X0078910Y0146352D01*
X0076410Y0145102D02*
X0076410Y0148852D01*
X0074535Y0150727D01*
X0076410Y0148852D02*
X0080785Y0148852D01*
X0084860Y0144777D01*
X0096435Y0144777D01*
X0096435Y0147926D02*
X0101026Y0147926D01*
X0102035Y0146918D01*
X0101075Y0151076D02*
X0096435Y0151076D01*
X0077936Y0151076D01*
X0070785Y0158227D01*
X0067660Y0158227D01*
X0066007Y0159880D01*
X0060382Y0159880D01*
X0059535Y0160727D01*
X0059535Y0168852D01*
X0058285Y0170102D01*
X0055785Y0170102D01*
X0052660Y0166977D01*
X0052660Y0155668D01*
X0052601Y0155102D01*
X0057719Y0155102D02*
X0057719Y0158168D01*
X0056189Y0159698D01*
X0056189Y0163852D01*
X0057035Y0164073D01*
X0057035Y0167602D01*
X0056976Y0173227D02*
X0057035Y0173911D01*
X0057035Y0176411D01*
X0058851Y0178227D01*
X0054545Y0182533D01*
X0054545Y0183271D01*
X0057413Y0183558D02*
X0065948Y0183558D01*
X0065948Y0184356D02*
X0057413Y0184356D01*
X0057413Y0185155D02*
X0064176Y0185155D01*
X0064176Y0185142D02*
X0064704Y0184615D01*
X0065948Y0184615D01*
X0065948Y0180457D01*
X0065991Y0180414D01*
X0065948Y0180371D01*
X0065948Y0176352D01*
X0061129Y0176352D01*
X0061129Y0180371D01*
X0060602Y0180898D01*
X0058018Y0180898D01*
X0057413Y0181503D01*
X0057413Y0186400D01*
X0056886Y0186927D01*
X0055785Y0186927D01*
X0055785Y0188435D01*
X0055944Y0188276D01*
X0060626Y0188276D01*
X0061154Y0188804D01*
X0061154Y0195061D01*
X0060626Y0195588D01*
X0059503Y0195588D01*
X0059707Y0195792D01*
X0059707Y0199293D01*
X0059567Y0199433D01*
X0067917Y0199337D01*
X0067917Y0193804D01*
X0068444Y0193276D01*
X0073126Y0193276D01*
X0073654Y0193804D01*
X0073654Y0199271D01*
X0080417Y0199194D01*
X0080417Y0193804D01*
X0080944Y0193276D01*
X0085626Y0193276D01*
X0086154Y0193804D01*
X0086154Y0199128D01*
X0092917Y0199050D01*
X0092917Y0193804D01*
X0093444Y0193276D01*
X0098126Y0193276D01*
X0098654Y0193804D01*
X0098654Y0196502D01*
X0098975Y0196180D01*
X0102477Y0196180D01*
X0103004Y0196707D01*
X0103004Y0197818D01*
X0103085Y0197899D01*
X0103085Y0198933D01*
X0103444Y0198929D01*
X0103444Y0198374D01*
X0103566Y0198080D01*
X0103566Y0196707D01*
X0104093Y0196180D01*
X0107292Y0196180D01*
X0107292Y0193804D01*
X0107819Y0193276D01*
X0110160Y0193276D01*
X0110160Y0192602D01*
X0138910Y0192602D01*
X0138910Y0192321D01*
X0136210Y0192321D01*
X0135682Y0191793D01*
X0135682Y0185930D01*
X0136210Y0185402D01*
X0138910Y0185402D01*
X0138910Y0176236D01*
X0135332Y0176236D01*
X0135332Y0176286D01*
X0134805Y0176814D01*
X0130516Y0176814D01*
X0129988Y0176286D01*
X0129988Y0172785D01*
X0130516Y0172258D01*
X0134805Y0172258D01*
X0135332Y0172785D01*
X0135332Y0172836D01*
X0138910Y0172836D01*
X0138910Y0159477D01*
X0128629Y0159477D01*
X0128629Y0162871D01*
X0128102Y0163398D01*
X0125290Y0163398D01*
X0123193Y0165250D01*
X0123184Y0165312D01*
X0122795Y0165601D01*
X0122433Y0165921D01*
X0122413Y0165920D01*
X0122413Y0169525D01*
X0121886Y0170052D01*
X0117204Y0170052D01*
X0116676Y0169525D01*
X0116676Y0164657D01*
X0116282Y0165052D01*
X0108573Y0165052D01*
X0108663Y0165142D01*
X0108663Y0171400D01*
X0108136Y0171927D01*
X0104535Y0171927D01*
X0104535Y0177652D01*
X0106282Y0177652D01*
X0106667Y0178036D01*
X0106667Y0173804D01*
X0107194Y0173276D01*
X0111876Y0173276D01*
X0112404Y0173804D01*
X0112404Y0175826D01*
X0116009Y0179432D01*
X0116278Y0179162D01*
X0123996Y0179162D01*
X0123547Y0178713D01*
X0120944Y0178713D01*
X0120417Y0178186D01*
X0120417Y0171929D01*
X0120944Y0171401D01*
X0125626Y0171401D01*
X0126154Y0171929D01*
X0126154Y0174532D01*
X0130784Y0179162D01*
X0134667Y0179162D01*
X0135194Y0179689D01*
X0135194Y0186341D01*
X0134667Y0186868D01*
X0125653Y0186868D01*
X0125473Y0186687D01*
X0125292Y0186868D01*
X0116278Y0186868D01*
X0115751Y0186341D01*
X0115751Y0184377D01*
X0114683Y0184377D01*
X0113801Y0184011D01*
X0113126Y0183336D01*
X0110378Y0180588D01*
X0108747Y0180588D01*
X0108747Y0184615D01*
X0108761Y0184615D01*
X0109288Y0185142D01*
X0109288Y0191400D01*
X0108761Y0191927D01*
X0104079Y0191927D01*
X0103551Y0191400D01*
X0103551Y0185142D01*
X0104079Y0184615D01*
X0104191Y0184615D01*
X0104191Y0180727D01*
X0098122Y0180727D01*
X0098122Y0184746D01*
X0097595Y0185273D01*
X0095791Y0185273D01*
X0094913Y0186777D01*
X0094913Y0191400D01*
X0094386Y0191927D01*
X0089704Y0191927D01*
X0089176Y0191400D01*
X0089176Y0185142D01*
X0089704Y0184615D01*
X0093165Y0184615D01*
X0093566Y0183927D01*
X0093566Y0180727D01*
X0092648Y0180727D01*
X0092477Y0180898D01*
X0088975Y0180898D01*
X0088804Y0180727D01*
X0085892Y0180727D01*
X0085720Y0180898D01*
X0083607Y0180898D01*
X0083004Y0181712D01*
X0083004Y0184746D01*
X0082477Y0185273D01*
X0082413Y0185273D01*
X0082413Y0191400D01*
X0081886Y0191927D01*
X0077204Y0191927D01*
X0076676Y0191400D01*
X0076676Y0185142D01*
X0077204Y0184615D01*
X0078448Y0184615D01*
X0078448Y0180898D01*
X0077100Y0180898D01*
X0076929Y0180727D01*
X0075267Y0180727D01*
X0075095Y0180898D01*
X0071593Y0180898D01*
X0071422Y0180727D01*
X0070504Y0180727D01*
X0070504Y0184746D01*
X0069977Y0185273D01*
X0069913Y0185273D01*
X0069913Y0191400D01*
X0069386Y0191927D01*
X0064704Y0191927D01*
X0064176Y0191400D01*
X0064176Y0185142D01*
X0064176Y0185953D02*
X0057413Y0185953D01*
X0057062Y0186752D02*
X0064176Y0186752D01*
X0064176Y0187550D02*
X0055785Y0187550D01*
X0055785Y0188349D02*
X0055872Y0188349D01*
X0060699Y0188349D02*
X0064176Y0188349D01*
X0064176Y0189147D02*
X0061154Y0189147D01*
X0061154Y0189946D02*
X0064176Y0189946D01*
X0064176Y0190744D02*
X0061154Y0190744D01*
X0061154Y0191543D02*
X0064319Y0191543D01*
X0061154Y0192341D02*
X0138910Y0192341D01*
X0135682Y0191543D02*
X0109145Y0191543D01*
X0109288Y0190744D02*
X0135682Y0190744D01*
X0135682Y0189946D02*
X0109288Y0189946D01*
X0109288Y0189147D02*
X0135682Y0189147D01*
X0135682Y0188349D02*
X0109288Y0188349D01*
X0109288Y0187550D02*
X0135682Y0187550D01*
X0135682Y0186752D02*
X0134783Y0186752D01*
X0135194Y0185953D02*
X0135682Y0185953D01*
X0135194Y0185155D02*
X0138910Y0185155D01*
X0138910Y0184356D02*
X0135194Y0184356D01*
X0135194Y0183558D02*
X0138910Y0183558D01*
X0138910Y0182759D02*
X0135194Y0182759D01*
X0135194Y0181960D02*
X0138910Y0181960D01*
X0138910Y0181162D02*
X0135194Y0181162D01*
X0135194Y0180363D02*
X0138910Y0180363D01*
X0138910Y0179565D02*
X0135069Y0179565D01*
X0135247Y0176371D02*
X0138910Y0176371D01*
X0138910Y0177169D02*
X0128791Y0177169D01*
X0127993Y0176371D02*
X0130073Y0176371D01*
X0129988Y0175572D02*
X0127194Y0175572D01*
X0126396Y0174774D02*
X0129988Y0174774D01*
X0129988Y0173975D02*
X0126154Y0173975D01*
X0126154Y0173177D02*
X0129988Y0173177D01*
X0130395Y0172378D02*
X0126154Y0172378D01*
X0125805Y0171580D02*
X0138910Y0171580D01*
X0138910Y0172378D02*
X0134925Y0172378D01*
X0138910Y0170781D02*
X0108663Y0170781D01*
X0108663Y0169983D02*
X0117135Y0169983D01*
X0116676Y0169184D02*
X0108663Y0169184D01*
X0108663Y0168386D02*
X0116676Y0168386D01*
X0116676Y0167587D02*
X0108663Y0167587D01*
X0108663Y0166789D02*
X0116676Y0166789D01*
X0116676Y0165990D02*
X0108663Y0165990D01*
X0108663Y0165192D02*
X0116676Y0165192D01*
X0118629Y0162740D02*
X0121886Y0162740D01*
X0121990Y0162844D01*
X0124073Y0161004D01*
X0124073Y0159477D01*
X0118629Y0159477D01*
X0118629Y0162740D01*
X0118629Y0161998D02*
X0122948Y0161998D01*
X0123852Y0161199D02*
X0118629Y0161199D01*
X0118629Y0160401D02*
X0124073Y0160401D01*
X0124073Y0159602D02*
X0118629Y0159602D01*
X0116351Y0160727D02*
X0116351Y0156352D01*
X0111469Y0156352D02*
X0111469Y0160727D01*
X0106410Y0160727D02*
X0106410Y0160786D01*
X0106351Y0160727D01*
X0102035Y0162661D02*
X0095844Y0162661D01*
X0090785Y0157602D01*
X0082660Y0157602D01*
X0080160Y0155102D01*
X0076410Y0155102D01*
X0071661Y0159851D01*
X0071661Y0163252D01*
X0071661Y0168035D01*
X0071469Y0168852D01*
X0071469Y0172036D01*
X0072660Y0173227D01*
X0068910Y0173227D02*
X0068910Y0163852D01*
X0068512Y0163852D01*
X0068512Y0163252D01*
X0068512Y0163852D02*
X0062882Y0163852D01*
X0062886Y0154477D02*
X0062635Y0154226D01*
X0058595Y0154226D01*
X0057719Y0155102D01*
X0058069Y0151076D02*
X0057719Y0150727D01*
X0058069Y0151076D02*
X0062635Y0151076D01*
X0062635Y0147926D02*
X0066710Y0147926D01*
X0070160Y0151352D01*
X0067660Y0154477D02*
X0062886Y0154477D01*
X0057719Y0146352D02*
X0059269Y0144777D01*
X0062635Y0144777D01*
X0062635Y0141627D02*
X0062911Y0141352D01*
X0071410Y0141352D01*
X0073910Y0143852D01*
X0076410Y0145102D02*
X0078910Y0142602D01*
X0078910Y0135102D01*
X0077660Y0133852D01*
X0067035Y0133852D01*
X0062660Y0129477D01*
X0059757Y0129477D01*
X0058910Y0133227D02*
X0056814Y0133227D01*
X0053064Y0129477D01*
X0053064Y0123227D02*
X0053507Y0121977D01*
X0053851Y0117602D01*
X0058285Y0117602D02*
X0058969Y0117602D01*
X0062660Y0117602D01*
X0068285Y0123227D01*
X0074535Y0126352D01*
X0074811Y0126627D01*
X0074811Y0129452D01*
X0077960Y0129452D02*
X0077960Y0126652D01*
X0077660Y0126352D01*
X0071410Y0123227D01*
X0071410Y0116977D01*
X0075160Y0113227D01*
X0075160Y0109477D01*
X0073635Y0107951D01*
X0067635Y0107951D01*
X0061120Y0107951D01*
X0061469Y0108852D01*
X0064845Y0111101D02*
X0061469Y0113227D01*
X0064845Y0111101D02*
X0067635Y0111101D01*
X0068009Y0110727D01*
X0072660Y0110727D01*
X0072660Y0105102D02*
X0072660Y0103227D01*
X0071085Y0101652D01*
X0067635Y0101652D01*
X0067985Y0098852D02*
X0067635Y0098502D01*
X0064319Y0098502D01*
X0061469Y0100102D01*
X0061469Y0104477D02*
X0061794Y0104801D01*
X0067635Y0104801D01*
X0067985Y0098852D02*
X0075785Y0098852D01*
X0067886Y0095102D02*
X0067635Y0095353D01*
X0067261Y0095727D01*
X0061469Y0095727D01*
X0061469Y0091352D01*
X0064535Y0090102D02*
X0066637Y0092203D01*
X0067635Y0092203D01*
X0064535Y0090102D02*
X0064535Y0086411D01*
X0060254Y0086411D01*
X0059525Y0085682D01*
X0056410Y0095727D02*
X0056351Y0095727D01*
X0056351Y0100102D02*
X0056410Y0100102D01*
X0056351Y0104477D02*
X0056410Y0104477D01*
X0056351Y0108852D02*
X0056410Y0108852D01*
X0056410Y0113227D02*
X0056351Y0113227D01*
X0059757Y0123227D02*
X0065160Y0123227D01*
X0071661Y0126603D01*
X0071661Y0129452D01*
X0062635Y0135328D02*
X0061012Y0135328D01*
X0058910Y0133227D01*
X0057719Y0137602D02*
X0058093Y0138478D01*
X0062635Y0138478D01*
X0062911Y0138478D01*
X0078910Y0158227D02*
X0077960Y0159176D01*
X0077960Y0163252D01*
X0081110Y0163252D02*
X0081110Y0160426D01*
X0078910Y0158227D01*
X0083285Y0153852D02*
X0096061Y0153852D01*
X0096435Y0154226D01*
X0101075Y0151076D02*
X0102035Y0152036D01*
X0102035Y0157543D01*
X0106410Y0147602D02*
X0109476Y0147602D01*
X0112094Y0138852D02*
X0112094Y0138793D01*
X0112660Y0138227D01*
X0115160Y0138227D01*
X0125726Y0156352D02*
X0126351Y0160727D01*
X0121976Y0164590D01*
X0119545Y0166396D01*
X0122413Y0166789D02*
X0138910Y0166789D01*
X0138910Y0167587D02*
X0122413Y0167587D01*
X0122413Y0168386D02*
X0138910Y0168386D01*
X0138910Y0169184D02*
X0122413Y0169184D01*
X0121955Y0169983D02*
X0138910Y0169983D01*
X0138910Y0165990D02*
X0122413Y0165990D01*
X0123258Y0165192D02*
X0138910Y0165192D01*
X0138910Y0164393D02*
X0124163Y0164393D01*
X0125067Y0163595D02*
X0138910Y0163595D01*
X0138910Y0162796D02*
X0128629Y0162796D01*
X0128629Y0161998D02*
X0138910Y0161998D01*
X0138910Y0161199D02*
X0128629Y0161199D01*
X0128629Y0160401D02*
X0138910Y0160401D01*
X0138910Y0159602D02*
X0128629Y0159602D01*
X0122043Y0162796D02*
X0121942Y0162796D01*
X0120765Y0171580D02*
X0108483Y0171580D01*
X0106667Y0173975D02*
X0104535Y0173975D01*
X0104535Y0173177D02*
X0120417Y0173177D01*
X0120417Y0173975D02*
X0112404Y0173975D01*
X0112404Y0174774D02*
X0120417Y0174774D01*
X0120417Y0175572D02*
X0112404Y0175572D01*
X0112948Y0176371D02*
X0120417Y0176371D01*
X0120417Y0177169D02*
X0113747Y0177169D01*
X0114545Y0177968D02*
X0120417Y0177968D01*
X0123600Y0178766D02*
X0115344Y0178766D01*
X0112548Y0182759D02*
X0108747Y0182759D01*
X0108747Y0183558D02*
X0113347Y0183558D01*
X0114633Y0184356D02*
X0108747Y0184356D01*
X0109288Y0185155D02*
X0115751Y0185155D01*
X0115751Y0185953D02*
X0109288Y0185953D01*
X0109288Y0186752D02*
X0116162Y0186752D01*
X0111750Y0181960D02*
X0108747Y0181960D01*
X0108747Y0181162D02*
X0110951Y0181162D01*
X0106667Y0177968D02*
X0106598Y0177968D01*
X0106667Y0177169D02*
X0104535Y0177169D01*
X0104535Y0176371D02*
X0106667Y0176371D01*
X0106667Y0175572D02*
X0104535Y0175572D01*
X0104535Y0174774D02*
X0106667Y0174774D01*
X0104535Y0172378D02*
X0120417Y0172378D01*
X0129590Y0177968D02*
X0138910Y0177968D01*
X0138910Y0178766D02*
X0130388Y0178766D01*
X0125537Y0186752D02*
X0125408Y0186752D01*
X0134535Y0194477D02*
X0134535Y0200727D01*
X0122035Y0200727D01*
X0122035Y0206373D01*
X0121040Y0207368D01*
X0120318Y0209110D01*
X0117984Y0209110D01*
X0117984Y0210995D01*
X0117263Y0212737D01*
X0115930Y0214070D01*
X0114188Y0214791D01*
X0112303Y0214791D01*
X0112035Y0214680D01*
X0112035Y0218847D01*
X0112079Y0218952D01*
X0112079Y0220838D01*
X0112035Y0220943D01*
X0112035Y0232626D01*
X0112079Y0232732D01*
X0112079Y0234617D01*
X0111357Y0236359D01*
X0110024Y0237692D01*
X0108283Y0238413D01*
X0107474Y0238413D01*
X0107035Y0238852D01*
X0102554Y0238852D01*
X0104119Y0239500D01*
X0105452Y0240833D01*
X0106173Y0242574D01*
X0106173Y0244460D01*
X0105452Y0246201D01*
X0104119Y0247534D01*
X0102377Y0248256D01*
X0100492Y0248256D01*
X0100208Y0248138D01*
X0096260Y0252086D01*
X0095585Y0252761D01*
X0094702Y0253127D01*
X0084683Y0253127D01*
X0083801Y0252761D01*
X0083126Y0252086D01*
X0076041Y0245002D01*
X0071099Y0245002D01*
X0071099Y0247108D01*
X0070572Y0247636D01*
X0063921Y0247636D01*
X0063394Y0247108D01*
X0063394Y0238852D01*
X0049935Y0238852D01*
X0049935Y0263852D01*
X0055170Y0263852D01*
X0056608Y0262414D01*
X0059510Y0261212D01*
X0062651Y0261212D01*
X0065553Y0262414D01*
X0066991Y0263852D01*
X0206744Y0263852D01*
X0208182Y0262414D01*
X0211085Y0261212D01*
X0214226Y0261212D01*
X0217128Y0262414D01*
X0218566Y0263852D01*
X0223800Y0263852D01*
X0223800Y0239477D01*
X0210676Y0239477D01*
X0210676Y0247108D01*
X0210149Y0247636D01*
X0203498Y0247636D01*
X0202971Y0247108D01*
X0202971Y0239477D01*
X0186740Y0239477D01*
X0186796Y0239500D01*
X0188129Y0240833D01*
X0188850Y0242574D01*
X0188850Y0244460D01*
X0188129Y0246201D01*
X0186796Y0247534D01*
X0185054Y0248256D01*
X0183169Y0248256D01*
X0181428Y0247534D01*
X0180095Y0246201D01*
X0179373Y0244460D01*
X0179373Y0242574D01*
X0180095Y0240833D01*
X0181428Y0239500D01*
X0181484Y0239477D01*
X0174929Y0239477D01*
X0174985Y0239500D01*
X0176318Y0240833D01*
X0177039Y0242574D01*
X0177039Y0244460D01*
X0176318Y0246201D01*
X0174985Y0247534D01*
X0173243Y0248256D01*
X0171358Y0248256D01*
X0169617Y0247534D01*
X0168284Y0246201D01*
X0167562Y0244460D01*
X0167562Y0242574D01*
X0168284Y0240833D01*
X0169617Y0239500D01*
X0170601Y0239092D01*
X0170601Y0237417D01*
X0169977Y0236794D01*
X0169080Y0237692D01*
X0167338Y0238413D01*
X0165453Y0238413D01*
X0163711Y0237692D01*
X0162378Y0236359D01*
X0162375Y0236352D01*
X0158604Y0236352D01*
X0158602Y0236359D01*
X0157269Y0237692D01*
X0155527Y0238413D01*
X0153642Y0238413D01*
X0151900Y0237692D01*
X0150567Y0236359D01*
X0150564Y0236352D01*
X0146793Y0236352D01*
X0146790Y0236359D01*
X0145458Y0237692D01*
X0143716Y0238413D01*
X0141831Y0238413D01*
X0140089Y0237692D01*
X0138756Y0236359D01*
X0138035Y0234617D01*
X0138035Y0232732D01*
X0138756Y0230990D01*
X0139590Y0230156D01*
X0133434Y0224000D01*
X0131905Y0224634D01*
X0130020Y0224634D01*
X0128278Y0223912D01*
X0126945Y0222579D01*
X0126224Y0220838D01*
X0126224Y0218952D01*
X0126857Y0217424D01*
X0124224Y0214791D01*
X0124114Y0214791D01*
X0122373Y0214070D01*
X0121040Y0212737D01*
X0120318Y0210995D01*
X0120318Y0209110D01*
X0120318Y0209908D02*
X0117984Y0209908D01*
X0117984Y0209110D02*
X0117263Y0207368D01*
X0115930Y0206035D01*
X0114188Y0205314D01*
X0112560Y0205314D01*
X0112560Y0200530D01*
X0113029Y0200061D01*
X0113029Y0194477D01*
X0134535Y0194477D01*
X0134535Y0194737D02*
X0113029Y0194737D01*
X0113029Y0195535D02*
X0134535Y0195535D01*
X0134535Y0196334D02*
X0113029Y0196334D01*
X0113029Y0197132D02*
X0134535Y0197132D01*
X0134535Y0197931D02*
X0113029Y0197931D01*
X0113029Y0198729D02*
X0134535Y0198729D01*
X0134535Y0199528D02*
X0113029Y0199528D01*
X0112763Y0200326D02*
X0134535Y0200326D01*
X0122035Y0201125D02*
X0112560Y0201125D01*
X0112560Y0201923D02*
X0122035Y0201923D01*
X0122035Y0202722D02*
X0112560Y0202722D01*
X0112560Y0203520D02*
X0122035Y0203520D01*
X0122035Y0204319D02*
X0112560Y0204319D01*
X0112560Y0205117D02*
X0122035Y0205117D01*
X0122035Y0205916D02*
X0115642Y0205916D01*
X0116609Y0206714D02*
X0121694Y0206714D01*
X0120980Y0207513D02*
X0117323Y0207513D01*
X0117654Y0208311D02*
X0120649Y0208311D01*
X0120318Y0210707D02*
X0117984Y0210707D01*
X0117773Y0211505D02*
X0120530Y0211505D01*
X0120860Y0212304D02*
X0117442Y0212304D01*
X0116897Y0213102D02*
X0121405Y0213102D01*
X0122204Y0213901D02*
X0116099Y0213901D01*
X0114409Y0214699D02*
X0123893Y0214699D01*
X0124931Y0215498D02*
X0120918Y0215498D01*
X0120094Y0215156D02*
X0121835Y0215878D01*
X0123168Y0217211D01*
X0123890Y0218952D01*
X0123890Y0220838D01*
X0123168Y0222579D01*
X0121835Y0223912D01*
X0120094Y0224634D01*
X0118209Y0224634D01*
X0116467Y0223912D01*
X0115134Y0222579D01*
X0114413Y0220838D01*
X0114413Y0218952D01*
X0115134Y0217211D01*
X0116467Y0215878D01*
X0118209Y0215156D01*
X0120094Y0215156D01*
X0122254Y0216296D02*
X0125730Y0216296D01*
X0126528Y0217095D02*
X0123053Y0217095D01*
X0123451Y0217894D02*
X0126662Y0217894D01*
X0126332Y0218692D02*
X0123782Y0218692D01*
X0123890Y0219491D02*
X0126224Y0219491D01*
X0126224Y0220289D02*
X0123890Y0220289D01*
X0123786Y0221088D02*
X0126327Y0221088D01*
X0126658Y0221886D02*
X0123456Y0221886D01*
X0123063Y0222685D02*
X0127051Y0222685D01*
X0127849Y0223483D02*
X0122265Y0223483D01*
X0120944Y0224282D02*
X0129170Y0224282D01*
X0130020Y0228936D02*
X0131905Y0228936D01*
X0133646Y0229657D01*
X0134979Y0230990D01*
X0135701Y0232732D01*
X0135701Y0234617D01*
X0134979Y0236359D01*
X0133646Y0237692D01*
X0131905Y0238413D01*
X0130020Y0238413D01*
X0128278Y0237692D01*
X0126945Y0236359D01*
X0126224Y0234617D01*
X0126224Y0232732D01*
X0126945Y0230990D01*
X0128278Y0229657D01*
X0130020Y0228936D01*
X0129690Y0229073D02*
X0120424Y0229073D01*
X0120094Y0228936D02*
X0121835Y0229657D01*
X0123168Y0230990D01*
X0123890Y0232732D01*
X0123890Y0234617D01*
X0123168Y0236359D01*
X0121835Y0237692D01*
X0120094Y0238413D01*
X0118209Y0238413D01*
X0116467Y0237692D01*
X0115134Y0236359D01*
X0114413Y0234617D01*
X0114413Y0232732D01*
X0115134Y0230990D01*
X0116467Y0229657D01*
X0118209Y0228936D01*
X0120094Y0228936D01*
X0122049Y0229871D02*
X0128064Y0229871D01*
X0127266Y0230670D02*
X0122848Y0230670D01*
X0123366Y0231468D02*
X0126747Y0231468D01*
X0126416Y0232267D02*
X0123697Y0232267D01*
X0123890Y0233065D02*
X0126224Y0233065D01*
X0126224Y0233864D02*
X0123890Y0233864D01*
X0123871Y0234662D02*
X0126242Y0234662D01*
X0126573Y0235461D02*
X0123540Y0235461D01*
X0123210Y0236259D02*
X0126904Y0236259D01*
X0127644Y0237058D02*
X0122469Y0237058D01*
X0121438Y0237856D02*
X0128676Y0237856D01*
X0127741Y0239500D02*
X0129074Y0240833D01*
X0129795Y0242574D01*
X0129795Y0244460D01*
X0129074Y0246201D01*
X0127741Y0247534D01*
X0125999Y0248256D01*
X0124114Y0248256D01*
X0122373Y0247534D01*
X0121040Y0246201D01*
X0120318Y0244460D01*
X0120318Y0242574D01*
X0121040Y0240833D01*
X0122373Y0239500D01*
X0124114Y0238778D01*
X0125999Y0238778D01*
X0127741Y0239500D01*
X0127629Y0239453D02*
X0146107Y0239453D01*
X0145995Y0239500D02*
X0147736Y0238778D01*
X0149621Y0238778D01*
X0151363Y0239500D01*
X0152696Y0240833D01*
X0153417Y0242574D01*
X0153417Y0244460D01*
X0152696Y0246201D01*
X0151363Y0247534D01*
X0149621Y0248256D01*
X0147736Y0248256D01*
X0145995Y0247534D01*
X0144662Y0246201D01*
X0143940Y0244460D01*
X0143940Y0242574D01*
X0144662Y0240833D01*
X0145995Y0239500D01*
X0145243Y0240252D02*
X0128493Y0240252D01*
X0129164Y0241050D02*
X0144572Y0241050D01*
X0144241Y0241849D02*
X0129495Y0241849D01*
X0129795Y0242647D02*
X0143940Y0242647D01*
X0143940Y0243446D02*
X0129795Y0243446D01*
X0129795Y0244244D02*
X0143940Y0244244D01*
X0144182Y0245043D02*
X0129554Y0245043D01*
X0129223Y0245841D02*
X0144513Y0245841D01*
X0145100Y0246640D02*
X0128635Y0246640D01*
X0127837Y0247438D02*
X0145899Y0247438D01*
X0147691Y0248237D02*
X0126044Y0248237D01*
X0124069Y0248237D02*
X0114233Y0248237D01*
X0114188Y0248256D02*
X0112303Y0248256D01*
X0110562Y0247534D01*
X0109229Y0246201D01*
X0108507Y0244460D01*
X0108507Y0242574D01*
X0109229Y0240833D01*
X0110562Y0239500D01*
X0112303Y0238778D01*
X0114188Y0238778D01*
X0115930Y0239500D01*
X0117263Y0240833D01*
X0117984Y0242574D01*
X0117984Y0244460D01*
X0117263Y0246201D01*
X0115930Y0247534D01*
X0114188Y0248256D01*
X0112258Y0248237D02*
X0102422Y0248237D01*
X0104215Y0247438D02*
X0110466Y0247438D01*
X0109667Y0246640D02*
X0105013Y0246640D01*
X0105601Y0245841D02*
X0109080Y0245841D01*
X0108749Y0245043D02*
X0105932Y0245043D01*
X0106173Y0244244D02*
X0108507Y0244244D01*
X0108507Y0243446D02*
X0106173Y0243446D01*
X0106173Y0242647D02*
X0108507Y0242647D01*
X0108808Y0241849D02*
X0105873Y0241849D01*
X0105542Y0241050D02*
X0109138Y0241050D01*
X0109810Y0240252D02*
X0104871Y0240252D01*
X0104007Y0239453D02*
X0110674Y0239453D01*
X0109627Y0237856D02*
X0116865Y0237856D01*
X0115833Y0237058D02*
X0110658Y0237058D01*
X0111399Y0236259D02*
X0115093Y0236259D01*
X0114762Y0235461D02*
X0111729Y0235461D01*
X0112060Y0234662D02*
X0114431Y0234662D01*
X0114413Y0233864D02*
X0112079Y0233864D01*
X0112079Y0233065D02*
X0114413Y0233065D01*
X0114605Y0232267D02*
X0112035Y0232267D01*
X0112035Y0231468D02*
X0114936Y0231468D01*
X0115455Y0230670D02*
X0112035Y0230670D01*
X0112035Y0229871D02*
X0116253Y0229871D01*
X0117879Y0229073D02*
X0112035Y0229073D01*
X0112035Y0228274D02*
X0137708Y0228274D01*
X0138506Y0229073D02*
X0132235Y0229073D01*
X0133860Y0229871D02*
X0139305Y0229871D01*
X0139077Y0230670D02*
X0134659Y0230670D01*
X0135177Y0231468D02*
X0138558Y0231468D01*
X0138227Y0232267D02*
X0135508Y0232267D01*
X0135701Y0233065D02*
X0138035Y0233065D01*
X0138035Y0233864D02*
X0135701Y0233864D01*
X0135682Y0234662D02*
X0138053Y0234662D01*
X0138384Y0235461D02*
X0135351Y0235461D01*
X0135021Y0236259D02*
X0138715Y0236259D01*
X0139455Y0237058D02*
X0134280Y0237058D01*
X0133249Y0237856D02*
X0140487Y0237856D01*
X0145060Y0237856D02*
X0152298Y0237856D01*
X0151266Y0237058D02*
X0146091Y0237058D01*
X0151251Y0239453D02*
X0157918Y0239453D01*
X0157806Y0239500D02*
X0159547Y0238778D01*
X0161432Y0238778D01*
X0163174Y0239500D01*
X0164507Y0240833D01*
X0165228Y0242574D01*
X0165228Y0244460D01*
X0164507Y0246201D01*
X0163174Y0247534D01*
X0161432Y0248256D01*
X0159547Y0248256D01*
X0157806Y0247534D01*
X0156473Y0246201D01*
X0155751Y0244460D01*
X0155751Y0242574D01*
X0156473Y0240833D01*
X0157806Y0239500D01*
X0157054Y0240252D02*
X0152115Y0240252D01*
X0152786Y0241050D02*
X0156383Y0241050D01*
X0156052Y0241849D02*
X0153117Y0241849D01*
X0153417Y0242647D02*
X0155751Y0242647D01*
X0155751Y0243446D02*
X0153417Y0243446D01*
X0153417Y0244244D02*
X0155751Y0244244D01*
X0155993Y0245043D02*
X0153176Y0245043D01*
X0152845Y0245841D02*
X0156324Y0245841D01*
X0156911Y0246640D02*
X0152257Y0246640D01*
X0151459Y0247438D02*
X0157710Y0247438D01*
X0159502Y0248237D02*
X0149666Y0248237D01*
X0156871Y0237856D02*
X0164109Y0237856D01*
X0163077Y0237058D02*
X0157902Y0237058D01*
X0163062Y0239453D02*
X0169729Y0239453D01*
X0168865Y0240252D02*
X0163926Y0240252D01*
X0164597Y0241050D02*
X0168194Y0241050D01*
X0167863Y0241849D02*
X0164928Y0241849D01*
X0165228Y0242647D02*
X0167562Y0242647D01*
X0167562Y0243446D02*
X0165228Y0243446D01*
X0165228Y0244244D02*
X0167562Y0244244D01*
X0167804Y0245043D02*
X0164987Y0245043D01*
X0164656Y0245841D02*
X0168135Y0245841D01*
X0168722Y0246640D02*
X0164068Y0246640D01*
X0163270Y0247438D02*
X0169521Y0247438D01*
X0171313Y0248237D02*
X0161477Y0248237D01*
X0168682Y0237856D02*
X0170601Y0237856D01*
X0170601Y0238655D02*
X0107232Y0238655D01*
X0100447Y0248237D02*
X0100109Y0248237D01*
X0099310Y0249035D02*
X0223800Y0249035D01*
X0223800Y0248237D02*
X0185099Y0248237D01*
X0186892Y0247438D02*
X0203301Y0247438D01*
X0202971Y0246640D02*
X0187690Y0246640D01*
X0188278Y0245841D02*
X0202971Y0245841D01*
X0202971Y0245043D02*
X0188609Y0245043D01*
X0188850Y0244244D02*
X0202971Y0244244D01*
X0202971Y0243446D02*
X0188850Y0243446D01*
X0188850Y0242647D02*
X0202971Y0242647D01*
X0202971Y0241849D02*
X0188550Y0241849D01*
X0188219Y0241050D02*
X0202971Y0241050D01*
X0202971Y0240252D02*
X0187548Y0240252D01*
X0180676Y0240252D02*
X0175737Y0240252D01*
X0176408Y0241050D02*
X0180005Y0241050D01*
X0179674Y0241849D02*
X0176739Y0241849D01*
X0177039Y0242647D02*
X0179373Y0242647D01*
X0179373Y0243446D02*
X0177039Y0243446D01*
X0177039Y0244244D02*
X0179373Y0244244D01*
X0179615Y0245043D02*
X0176798Y0245043D01*
X0176467Y0245841D02*
X0179946Y0245841D01*
X0180533Y0246640D02*
X0175879Y0246640D01*
X0175081Y0247438D02*
X0181332Y0247438D01*
X0183124Y0248237D02*
X0173288Y0248237D01*
X0170241Y0237058D02*
X0169713Y0237058D01*
X0136909Y0227476D02*
X0112035Y0227476D01*
X0112035Y0226677D02*
X0136111Y0226677D01*
X0135312Y0225879D02*
X0112035Y0225879D01*
X0112035Y0225080D02*
X0134514Y0225080D01*
X0133715Y0224282D02*
X0132755Y0224282D01*
X0122485Y0239453D02*
X0115818Y0239453D01*
X0116682Y0240252D02*
X0121621Y0240252D01*
X0120949Y0241050D02*
X0117353Y0241050D01*
X0117684Y0241849D02*
X0120619Y0241849D01*
X0120318Y0242647D02*
X0117984Y0242647D01*
X0117984Y0243446D02*
X0120318Y0243446D01*
X0120318Y0244244D02*
X0117984Y0244244D01*
X0117743Y0245043D02*
X0120560Y0245043D01*
X0120891Y0245841D02*
X0117412Y0245841D01*
X0116824Y0246640D02*
X0121478Y0246640D01*
X0122277Y0247438D02*
X0116026Y0247438D01*
X0098512Y0249834D02*
X0223800Y0249834D01*
X0223800Y0250632D02*
X0097713Y0250632D01*
X0096915Y0251431D02*
X0223800Y0251431D01*
X0223800Y0252229D02*
X0096116Y0252229D01*
X0096260Y0252086D02*
X0096260Y0252086D01*
X0094941Y0253028D02*
X0223800Y0253028D01*
X0223800Y0253827D02*
X0049935Y0253827D01*
X0049935Y0254625D02*
X0223800Y0254625D01*
X0223800Y0255424D02*
X0049935Y0255424D01*
X0049935Y0256222D02*
X0223800Y0256222D01*
X0223800Y0257021D02*
X0049935Y0257021D01*
X0049935Y0257819D02*
X0223800Y0257819D01*
X0223800Y0258618D02*
X0049935Y0258618D01*
X0049935Y0259416D02*
X0223800Y0259416D01*
X0223800Y0260215D02*
X0049935Y0260215D01*
X0049935Y0261013D02*
X0223800Y0261013D01*
X0223800Y0261812D02*
X0215675Y0261812D01*
X0217324Y0262610D02*
X0223800Y0262610D01*
X0223800Y0263409D02*
X0218123Y0263409D01*
X0209636Y0261812D02*
X0064100Y0261812D01*
X0065750Y0262610D02*
X0207986Y0262610D01*
X0207187Y0263409D02*
X0066548Y0263409D01*
X0058061Y0261812D02*
X0049935Y0261812D01*
X0049935Y0262610D02*
X0056411Y0262610D01*
X0055613Y0263409D02*
X0049935Y0263409D01*
X0049935Y0253028D02*
X0084445Y0253028D01*
X0083269Y0252229D02*
X0049935Y0252229D01*
X0049935Y0251431D02*
X0082470Y0251431D01*
X0081672Y0250632D02*
X0049935Y0250632D01*
X0049935Y0249834D02*
X0080873Y0249834D01*
X0080075Y0249035D02*
X0049935Y0249035D01*
X0049935Y0248237D02*
X0079276Y0248237D01*
X0078478Y0247438D02*
X0070769Y0247438D01*
X0071099Y0246640D02*
X0077679Y0246640D01*
X0076881Y0245841D02*
X0071099Y0245841D01*
X0071099Y0245043D02*
X0076082Y0245043D01*
X0063724Y0247438D02*
X0049935Y0247438D01*
X0049935Y0246640D02*
X0063394Y0246640D01*
X0063394Y0245841D02*
X0049935Y0245841D01*
X0049935Y0245043D02*
X0063394Y0245043D01*
X0063394Y0244244D02*
X0049935Y0244244D01*
X0049935Y0243446D02*
X0063394Y0243446D01*
X0063394Y0242647D02*
X0049935Y0242647D01*
X0049935Y0241849D02*
X0063394Y0241849D01*
X0063394Y0241050D02*
X0049935Y0241050D01*
X0049935Y0240252D02*
X0063394Y0240252D01*
X0063394Y0239453D02*
X0049935Y0239453D01*
X0060785Y0216932D02*
X0060785Y0213227D01*
X0060160Y0212602D01*
X0053851Y0212602D01*
X0051410Y0210161D01*
X0051410Y0205043D02*
X0052660Y0205043D01*
X0052660Y0201352D01*
X0057035Y0202661D02*
X0057045Y0202671D01*
X0057045Y0208271D01*
X0057035Y0202661D02*
X0062035Y0202661D01*
X0059707Y0198729D02*
X0067917Y0198729D01*
X0067917Y0197931D02*
X0059707Y0197931D01*
X0059707Y0197132D02*
X0067917Y0197132D01*
X0067917Y0196334D02*
X0059707Y0196334D01*
X0060679Y0195535D02*
X0067917Y0195535D01*
X0067917Y0194737D02*
X0061154Y0194737D01*
X0061154Y0193938D02*
X0067917Y0193938D01*
X0069770Y0191543D02*
X0076819Y0191543D01*
X0076676Y0190744D02*
X0069913Y0190744D01*
X0069913Y0189946D02*
X0076676Y0189946D01*
X0076676Y0189147D02*
X0069913Y0189147D01*
X0069913Y0188349D02*
X0076676Y0188349D01*
X0076676Y0187550D02*
X0069913Y0187550D01*
X0069913Y0186752D02*
X0076676Y0186752D01*
X0076676Y0185953D02*
X0069913Y0185953D01*
X0070096Y0185155D02*
X0076676Y0185155D01*
X0078448Y0184356D02*
X0070504Y0184356D01*
X0070504Y0183558D02*
X0078448Y0183558D01*
X0078448Y0182759D02*
X0070504Y0182759D01*
X0070504Y0181960D02*
X0078448Y0181960D01*
X0078448Y0181162D02*
X0070504Y0181162D01*
X0068226Y0182602D02*
X0068226Y0178227D01*
X0065948Y0177968D02*
X0061129Y0177968D01*
X0061129Y0178766D02*
X0065948Y0178766D01*
X0065948Y0179565D02*
X0061129Y0179565D01*
X0061129Y0180363D02*
X0065948Y0180363D01*
X0065948Y0181162D02*
X0057754Y0181162D01*
X0057413Y0181960D02*
X0065948Y0181960D01*
X0065948Y0182759D02*
X0057413Y0182759D01*
X0055160Y0178227D02*
X0052035Y0178227D01*
X0050785Y0179477D01*
X0050785Y0191293D01*
X0057035Y0197543D01*
X0061154Y0193140D02*
X0110160Y0193140D01*
X0107292Y0193938D02*
X0098654Y0193938D01*
X0098654Y0194737D02*
X0107292Y0194737D01*
X0107292Y0195535D02*
X0098654Y0195535D01*
X0098654Y0196334D02*
X0098822Y0196334D01*
X0102630Y0196334D02*
X0103940Y0196334D01*
X0103566Y0197132D02*
X0103004Y0197132D01*
X0103085Y0197931D02*
X0103566Y0197931D01*
X0103444Y0198729D02*
X0103085Y0198729D01*
X0103694Y0191543D02*
X0094770Y0191543D01*
X0094913Y0190744D02*
X0103551Y0190744D01*
X0103551Y0189946D02*
X0094913Y0189946D01*
X0094913Y0189147D02*
X0103551Y0189147D01*
X0103551Y0188349D02*
X0094913Y0188349D01*
X0094913Y0187550D02*
X0103551Y0187550D01*
X0103551Y0186752D02*
X0094928Y0186752D01*
X0095394Y0185953D02*
X0103551Y0185953D01*
X0103551Y0185155D02*
X0097714Y0185155D01*
X0098122Y0184356D02*
X0104191Y0184356D01*
X0104191Y0183558D02*
X0098122Y0183558D01*
X0098122Y0182759D02*
X0104191Y0182759D01*
X0104191Y0181960D02*
X0098122Y0181960D01*
X0098122Y0181162D02*
X0104191Y0181162D01*
X0095844Y0182602D02*
X0095844Y0178227D01*
X0093566Y0181162D02*
X0083411Y0181162D01*
X0083004Y0181960D02*
X0093566Y0181960D01*
X0093566Y0182759D02*
X0083004Y0182759D01*
X0083004Y0183558D02*
X0093566Y0183558D01*
X0093316Y0184356D02*
X0083004Y0184356D01*
X0082596Y0185155D02*
X0089176Y0185155D01*
X0089176Y0185953D02*
X0082413Y0185953D01*
X0082413Y0186752D02*
X0089176Y0186752D01*
X0089176Y0187550D02*
X0082413Y0187550D01*
X0082413Y0188349D02*
X0089176Y0188349D01*
X0089176Y0189147D02*
X0082413Y0189147D01*
X0082413Y0189946D02*
X0089176Y0189946D01*
X0089176Y0190744D02*
X0082413Y0190744D01*
X0082270Y0191543D02*
X0089319Y0191543D01*
X0086154Y0193938D02*
X0092917Y0193938D01*
X0092917Y0194737D02*
X0086154Y0194737D01*
X0086154Y0195535D02*
X0092917Y0195535D01*
X0092917Y0196334D02*
X0086154Y0196334D01*
X0086154Y0197132D02*
X0092917Y0197132D01*
X0092917Y0197931D02*
X0086154Y0197931D01*
X0086154Y0198729D02*
X0092917Y0198729D01*
X0092045Y0188271D02*
X0093226Y0187090D01*
X0095844Y0182602D01*
X0095160Y0174536D02*
X0095101Y0173852D01*
X0095160Y0173852D02*
X0095160Y0174536D01*
X0093226Y0168852D02*
X0087719Y0168852D01*
X0087409Y0168379D01*
X0087409Y0163252D01*
X0084260Y0163252D02*
X0084260Y0167031D01*
X0082601Y0168852D01*
X0083969Y0178227D02*
X0080726Y0182602D01*
X0080726Y0187090D01*
X0079545Y0188271D01*
X0080417Y0193938D02*
X0073654Y0193938D01*
X0073654Y0194737D02*
X0080417Y0194737D01*
X0080417Y0195535D02*
X0073654Y0195535D01*
X0073654Y0196334D02*
X0080417Y0196334D01*
X0080417Y0197132D02*
X0073654Y0197132D01*
X0073654Y0197931D02*
X0080417Y0197931D01*
X0080417Y0198729D02*
X0073654Y0198729D01*
X0067045Y0188271D02*
X0068226Y0187090D01*
X0068226Y0182602D01*
X0065948Y0177169D02*
X0061129Y0177169D01*
X0061129Y0176371D02*
X0065948Y0176371D01*
X0098285Y0168852D02*
X0098344Y0168852D01*
X0112035Y0214699D02*
X0112082Y0214699D01*
X0112035Y0215498D02*
X0117384Y0215498D01*
X0116048Y0216296D02*
X0112035Y0216296D01*
X0112035Y0217095D02*
X0115250Y0217095D01*
X0114851Y0217894D02*
X0112035Y0217894D01*
X0112035Y0218692D02*
X0114521Y0218692D01*
X0114413Y0219491D02*
X0112079Y0219491D01*
X0112079Y0220289D02*
X0114413Y0220289D01*
X0114516Y0221088D02*
X0112035Y0221088D01*
X0112035Y0221886D02*
X0114847Y0221886D01*
X0115240Y0222685D02*
X0112035Y0222685D01*
X0112035Y0223483D02*
X0116038Y0223483D01*
X0117359Y0224282D02*
X0112035Y0224282D01*
X0152035Y0188862D02*
X0152094Y0188177D01*
X0157660Y0179418D02*
X0158851Y0179418D01*
X0159097Y0179039D01*
X0162043Y0179039D01*
X0168598Y0172602D02*
X0171098Y0175102D01*
X0173598Y0177602D02*
X0173066Y0178133D01*
X0173066Y0184157D01*
X0158910Y0196573D02*
X0158910Y0200727D01*
X0189485Y0166352D02*
X0211585Y0166352D01*
X0211585Y0163846D01*
X0209231Y0163846D01*
X0208704Y0163319D01*
X0208704Y0154859D01*
X0207866Y0154021D01*
X0207866Y0163319D01*
X0207339Y0163846D01*
X0204231Y0163846D01*
X0203704Y0163319D01*
X0203704Y0154277D01*
X0203582Y0154277D01*
X0202235Y0152929D01*
X0202235Y0152773D01*
X0202085Y0152773D01*
X0202085Y0153385D01*
X0202339Y0153385D01*
X0202866Y0153912D01*
X0202866Y0163319D01*
X0202339Y0163846D01*
X0199231Y0163846D01*
X0198704Y0163319D01*
X0198704Y0153912D01*
X0199231Y0153385D01*
X0199485Y0153385D01*
X0199485Y0152773D01*
X0199093Y0152773D01*
X0198566Y0152246D01*
X0198566Y0147957D01*
X0199093Y0147430D01*
X0199816Y0147430D01*
X0199816Y0144841D01*
X0199297Y0144143D01*
X0198983Y0143829D01*
X0198983Y0143721D01*
X0198919Y0143634D01*
X0198983Y0143196D01*
X0198983Y0142712D01*
X0198694Y0142423D01*
X0198694Y0137602D01*
X0197935Y0137602D01*
X0197935Y0142423D01*
X0197408Y0142950D01*
X0188740Y0142950D01*
X0189082Y0143292D01*
X0189082Y0146793D01*
X0188555Y0147321D01*
X0188285Y0147321D01*
X0188285Y0147883D01*
X0188555Y0147883D01*
X0188598Y0147926D01*
X0188641Y0147883D01*
X0192930Y0147883D01*
X0193457Y0148410D01*
X0193457Y0151911D01*
X0192930Y0152439D01*
X0192085Y0152439D01*
X0192085Y0153385D01*
X0192339Y0153385D01*
X0192866Y0153912D01*
X0192866Y0154555D01*
X0193085Y0154774D01*
X0193085Y0156679D01*
X0192866Y0156898D01*
X0192866Y0163319D01*
X0192339Y0163846D01*
X0189485Y0163846D01*
X0189485Y0166352D01*
X0189485Y0165990D02*
X0211585Y0165990D01*
X0211585Y0165192D02*
X0189485Y0165192D01*
X0189485Y0164393D02*
X0211585Y0164393D01*
X0208980Y0163595D02*
X0207590Y0163595D01*
X0207866Y0162796D02*
X0208704Y0162796D01*
X0208704Y0161998D02*
X0207866Y0161998D01*
X0207866Y0161199D02*
X0208704Y0161199D01*
X0208704Y0160401D02*
X0207866Y0160401D01*
X0207866Y0159602D02*
X0208704Y0159602D01*
X0208704Y0158804D02*
X0207866Y0158804D01*
X0207866Y0158005D02*
X0208704Y0158005D01*
X0208704Y0157207D02*
X0207866Y0157207D01*
X0207866Y0156408D02*
X0208704Y0156408D01*
X0208704Y0155610D02*
X0207866Y0155610D01*
X0207866Y0154811D02*
X0208656Y0154811D01*
X0210785Y0155102D02*
X0207660Y0151977D01*
X0207660Y0148793D01*
X0210726Y0145727D01*
X0210785Y0145786D01*
X0210726Y0145727D02*
X0208157Y0143158D01*
X0208157Y0139098D01*
X0209746Y0138841D02*
X0216577Y0138841D01*
X0217085Y0139349D02*
X0215338Y0137602D01*
X0209746Y0137602D01*
X0209746Y0142423D01*
X0209504Y0142666D01*
X0209893Y0143055D01*
X0212477Y0143055D01*
X0213004Y0143582D01*
X0213004Y0147871D01*
X0212477Y0148398D01*
X0211709Y0148398D01*
X0212460Y0149149D01*
X0212460Y0149997D01*
X0214985Y0152522D01*
X0214985Y0166352D01*
X0217085Y0166352D01*
X0217085Y0139349D01*
X0217085Y0139639D02*
X0209746Y0139639D01*
X0209746Y0140438D02*
X0217085Y0140438D01*
X0217085Y0141236D02*
X0209746Y0141236D01*
X0209746Y0142035D02*
X0217085Y0142035D01*
X0217085Y0142833D02*
X0209671Y0142833D01*
X0213004Y0143632D02*
X0217085Y0143632D01*
X0217085Y0144430D02*
X0213004Y0144430D01*
X0213004Y0145229D02*
X0217085Y0145229D01*
X0217085Y0146027D02*
X0213004Y0146027D01*
X0213004Y0146826D02*
X0217085Y0146826D01*
X0217085Y0147625D02*
X0213004Y0147625D01*
X0211734Y0148423D02*
X0217085Y0148423D01*
X0217085Y0149222D02*
X0212460Y0149222D01*
X0212483Y0150020D02*
X0217085Y0150020D01*
X0217085Y0150819D02*
X0213281Y0150819D01*
X0214080Y0151617D02*
X0217085Y0151617D01*
X0217085Y0152416D02*
X0214878Y0152416D01*
X0214985Y0153214D02*
X0217085Y0153214D01*
X0217085Y0154013D02*
X0214985Y0154013D01*
X0214985Y0154811D02*
X0217085Y0154811D01*
X0217085Y0155610D02*
X0214985Y0155610D01*
X0214985Y0156408D02*
X0217085Y0156408D01*
X0217085Y0157207D02*
X0214985Y0157207D01*
X0214985Y0158005D02*
X0217085Y0158005D01*
X0217085Y0158804D02*
X0214985Y0158804D01*
X0214985Y0159602D02*
X0217085Y0159602D01*
X0217085Y0160401D02*
X0214985Y0160401D01*
X0214985Y0161199D02*
X0217085Y0161199D01*
X0217085Y0161998D02*
X0214985Y0161998D01*
X0214985Y0162796D02*
X0217085Y0162796D01*
X0217085Y0163595D02*
X0214985Y0163595D01*
X0214985Y0164393D02*
X0217085Y0164393D01*
X0217085Y0165192D02*
X0214985Y0165192D01*
X0214985Y0165990D02*
X0217085Y0165990D01*
X0220785Y0158615D02*
X0220785Y0150161D01*
X0220844Y0150102D01*
X0220844Y0137661D01*
X0216031Y0132848D01*
X0216031Y0131224D01*
X0215779Y0138042D02*
X0209746Y0138042D01*
X0206189Y0139098D02*
X0206189Y0150323D01*
X0204535Y0151977D01*
X0202520Y0153214D02*
X0202085Y0153214D01*
X0202866Y0154013D02*
X0203318Y0154013D01*
X0203704Y0154811D02*
X0202866Y0154811D01*
X0202866Y0155610D02*
X0203704Y0155610D01*
X0203704Y0156408D02*
X0202866Y0156408D01*
X0202866Y0157207D02*
X0203704Y0157207D01*
X0203704Y0158005D02*
X0202866Y0158005D01*
X0202866Y0158804D02*
X0203704Y0158804D01*
X0203704Y0159602D02*
X0202866Y0159602D01*
X0202866Y0160401D02*
X0203704Y0160401D01*
X0203704Y0161199D02*
X0202866Y0161199D01*
X0202866Y0161998D02*
X0203704Y0161998D01*
X0203704Y0162796D02*
X0202866Y0162796D01*
X0202590Y0163595D02*
X0203980Y0163595D01*
X0200785Y0158615D02*
X0200785Y0150161D01*
X0200844Y0150102D01*
X0202660Y0150102D01*
X0204535Y0148227D01*
X0204535Y0143227D01*
X0204220Y0142912D01*
X0204220Y0139098D01*
X0200283Y0139098D02*
X0200283Y0143291D01*
X0202094Y0145727D01*
X0199816Y0146027D02*
X0189082Y0146027D01*
X0189082Y0145229D02*
X0199816Y0145229D01*
X0199511Y0144430D02*
X0189082Y0144430D01*
X0189082Y0143632D02*
X0198919Y0143632D01*
X0198315Y0143763D02*
X0196976Y0145727D01*
X0198315Y0143763D02*
X0198315Y0139098D01*
X0198694Y0138841D02*
X0197935Y0138841D01*
X0197935Y0139639D02*
X0198694Y0139639D01*
X0198694Y0140438D02*
X0197935Y0140438D01*
X0197935Y0141236D02*
X0198694Y0141236D01*
X0198694Y0142035D02*
X0197935Y0142035D01*
X0197525Y0142833D02*
X0198983Y0142833D01*
X0200283Y0139098D02*
X0200283Y0133975D01*
X0200160Y0133852D01*
X0198694Y0138042D02*
X0197935Y0138042D01*
X0199816Y0146826D02*
X0189049Y0146826D01*
X0188285Y0147625D02*
X0198899Y0147625D01*
X0198566Y0148423D02*
X0193457Y0148423D01*
X0193457Y0149222D02*
X0198566Y0149222D01*
X0198566Y0150020D02*
X0193457Y0150020D01*
X0193457Y0150819D02*
X0198566Y0150819D01*
X0198566Y0151617D02*
X0193457Y0151617D01*
X0192953Y0152416D02*
X0198736Y0152416D01*
X0199485Y0153214D02*
X0192085Y0153214D01*
X0192866Y0154013D02*
X0198704Y0154013D01*
X0198704Y0154811D02*
X0193085Y0154811D01*
X0193085Y0155610D02*
X0198704Y0155610D01*
X0198704Y0156408D02*
X0193085Y0156408D01*
X0192866Y0157207D02*
X0198704Y0157207D01*
X0198704Y0158005D02*
X0192866Y0158005D01*
X0192866Y0158804D02*
X0198704Y0158804D01*
X0198704Y0159602D02*
X0192866Y0159602D01*
X0192866Y0160401D02*
X0198704Y0160401D01*
X0198704Y0161199D02*
X0192866Y0161199D01*
X0192866Y0161998D02*
X0198704Y0161998D01*
X0198704Y0162796D02*
X0192866Y0162796D01*
X0192590Y0163595D02*
X0198980Y0163595D01*
X0190785Y0158615D02*
X0190785Y0155727D01*
X0190785Y0150161D01*
X0182660Y0148227D02*
X0182035Y0147602D01*
X0178935Y0147602D01*
X0172636Y0147602D02*
X0168310Y0147602D01*
X0165785Y0147602D01*
X0165160Y0148227D01*
X0165160Y0152602D01*
X0162011Y0147602D02*
X0157094Y0147602D01*
X0156410Y0147661D01*
X0162882Y0139098D02*
X0162882Y0133448D01*
X0162660Y0133227D01*
X0170756Y0139098D02*
X0170785Y0139068D01*
X0162660Y0161352D02*
X0162660Y0161411D01*
X0208285Y0193852D02*
X0214535Y0193852D01*
X0214535Y0204477D01*
X0209814Y0204477D01*
X0208285Y0202948D01*
X0208285Y0193852D01*
X0208285Y0193938D02*
X0214535Y0193938D01*
X0214535Y0194737D02*
X0208285Y0194737D01*
X0208285Y0195535D02*
X0214535Y0195535D01*
X0214535Y0196334D02*
X0208285Y0196334D01*
X0208285Y0197132D02*
X0214535Y0197132D01*
X0214535Y0197931D02*
X0208285Y0197931D01*
X0208285Y0198729D02*
X0214535Y0198729D01*
X0214535Y0199528D02*
X0208285Y0199528D01*
X0208285Y0200326D02*
X0214535Y0200326D01*
X0214535Y0201125D02*
X0208285Y0201125D01*
X0208285Y0201923D02*
X0214535Y0201923D01*
X0214535Y0202722D02*
X0208285Y0202722D01*
X0208858Y0203520D02*
X0214535Y0203520D01*
X0214535Y0204319D02*
X0209656Y0204319D01*
X0210676Y0240252D02*
X0223800Y0240252D01*
X0223800Y0241050D02*
X0210676Y0241050D01*
X0210676Y0241849D02*
X0223800Y0241849D01*
X0223800Y0242647D02*
X0210676Y0242647D01*
X0210676Y0243446D02*
X0223800Y0243446D01*
X0223800Y0244244D02*
X0210676Y0244244D01*
X0210676Y0245043D02*
X0223800Y0245043D01*
X0223800Y0245841D02*
X0210676Y0245841D01*
X0210676Y0246640D02*
X0223800Y0246640D01*
X0223800Y0247438D02*
X0210346Y0247438D01*
X0210785Y0158615D02*
X0210785Y0155102D01*
X0222035Y0096352D02*
X0222035Y0093286D01*
X0175219Y0070102D02*
X0172724Y0072597D01*
X0172724Y0076106D01*
X0172660Y0076170D01*
X0170756Y0076106D02*
X0170756Y0081322D01*
X0171410Y0081977D01*
X0170756Y0076106D02*
X0170756Y0070756D01*
X0170101Y0070102D01*
X0165844Y0070102D02*
X0165785Y0070102D01*
X0166238Y0065727D02*
X0170101Y0065727D01*
X0170101Y0061352D02*
X0166238Y0061352D01*
X0175160Y0061352D02*
X0175219Y0061352D01*
X0175219Y0065727D02*
X0175160Y0065727D01*
X0175160Y0070102D02*
X0175219Y0070102D01*
X0140160Y0070727D02*
X0140160Y0071174D01*
X0139939Y0071396D01*
X0131628Y0083744D02*
X0124942Y0083744D01*
X0125741Y0084542D02*
X0130829Y0084542D01*
X0130031Y0085341D02*
X0126540Y0085341D01*
X0127185Y0086139D02*
X0129385Y0086139D01*
D44*
X0115160Y0121352D02*
X0113969Y0121352D01*
X0146469Y0144477D02*
X0149535Y0144477D01*
X0156410Y0142543D02*
X0156410Y0139477D01*
X0156410Y0142543D02*
X0157094Y0143227D01*
X0160785Y0143227D01*
X0160913Y0143099D01*
X0160913Y0139098D01*
X0164850Y0139098D02*
X0164850Y0142287D01*
X0163910Y0143227D01*
X0160785Y0143227D01*
X0156410Y0147602D02*
X0156410Y0147661D01*
X0162035Y0181007D02*
X0162035Y0184477D01*
X0165192Y0184477D01*
X0167161Y0184157D02*
X0167161Y0186226D01*
X0164594Y0190668D01*
X0163910Y0190668D01*
X0159073Y0190668D01*
X0158910Y0189880D01*
X0157660Y0184536D01*
X0162035Y0181007D02*
X0162043Y0181007D01*
X0170785Y0190702D02*
X0170785Y0193227D01*
X0171410Y0193852D01*
X0175101Y0193852D01*
X0178285Y0196411D01*
X0178285Y0199477D01*
X0164594Y0195102D02*
X0163910Y0195786D01*
X0159073Y0195786D01*
X0158910Y0196573D01*
X0081469Y0173852D02*
X0081410Y0173852D01*
X0076351Y0173852D02*
X0075785Y0173286D01*
X0075785Y0168227D01*
X0074811Y0167252D01*
X0074811Y0163252D01*
X0160160Y0056977D02*
X0160332Y0056977D01*
X0166238Y0056977D02*
X0170101Y0056977D01*
X0175160Y0056977D02*
X0175219Y0056977D01*
X0210160Y0101977D02*
X0211848Y0103665D01*
X0216031Y0103665D01*
X0219663Y0103665D01*
X0222035Y0101918D01*
X0220008Y0105633D02*
X0222035Y0107036D01*
X0220008Y0105633D02*
X0216031Y0105633D01*
X0210254Y0105633D01*
X0210160Y0105727D01*
D45*
X0157660Y0162823D02*
X0152660Y0162823D01*
X0152660Y0160727D01*
X0178285Y0188227D02*
X0178285Y0191293D01*
X0178285Y0188227D02*
X0184132Y0188227D01*
X0185160Y0189255D01*
X0102035Y0139536D02*
X0102631Y0138478D01*
X0096435Y0138478D01*
X0091661Y0138478D01*
X0091410Y0138227D01*
X0091410Y0141352D02*
X0096160Y0141352D01*
X0100564Y0141352D01*
X0102035Y0139536D01*
X0102035Y0134418D02*
X0104535Y0130727D01*
X0096160Y0141352D02*
X0096435Y0141627D01*
X0068910Y0143852D02*
X0067960Y0144777D01*
X0062635Y0144777D01*
X0062660Y0168852D02*
X0066351Y0168852D01*
D46*
X0132660Y0174536D02*
X0141469Y0174536D01*
X0142660Y0175727D01*
X0142660Y0180963D01*
X0142660Y0185112D01*
X0139535Y0188862D01*
X0145785Y0188168D02*
X0151341Y0188168D01*
X0152035Y0188862D01*
X0147660Y0186293D02*
X0147660Y0180963D01*
X0147660Y0186293D02*
X0145785Y0188168D01*
X0139535Y0196342D02*
X0139535Y0200909D01*
X0148679Y0210052D01*
X0154584Y0205151D02*
X0152035Y0202602D01*
X0152035Y0196342D01*
X0154584Y0205151D02*
X0154584Y0219895D01*
X0166395Y0219895D02*
X0178285Y0213005D01*
X0178285Y0206977D01*
X0185160Y0200102D01*
X0185160Y0195948D01*
X0192035Y0196342D02*
X0192035Y0210102D01*
X0179535Y0227602D01*
X0175785Y0227602D01*
X0172301Y0231086D01*
X0172301Y0243517D01*
X0202660Y0221102D02*
X0202910Y0221352D01*
X0203910Y0221352D01*
X0211410Y0221727D02*
X0212035Y0221102D01*
X0207704Y0231352D02*
X0206824Y0232233D01*
X0206824Y0242602D01*
X0220785Y0213852D02*
X0220785Y0198217D01*
X0218910Y0196342D01*
X0218910Y0188862D02*
X0220785Y0188237D01*
X0220785Y0179088D01*
X0213285Y0170102D02*
X0213285Y0153227D01*
X0210160Y0150102D01*
X0213285Y0170102D02*
X0210785Y0172602D01*
X0210785Y0179088D01*
X0202660Y0188862D02*
X0200785Y0187612D01*
X0200785Y0179088D01*
X0190785Y0179088D02*
X0190785Y0187602D01*
X0192035Y0188852D01*
X0192035Y0188862D01*
X0202660Y0196342D02*
X0202660Y0199727D01*
X0212035Y0209102D01*
X0203910Y0208852D02*
X0202910Y0208852D01*
X0202660Y0209102D01*
X0112660Y0077602D02*
X0107035Y0077602D01*
X0107035Y0078227D01*
X0106632Y0078227D01*
X0100795Y0078620D02*
X0100795Y0072380D01*
X0093910Y0072380D01*
X0099939Y0078227D02*
X0100795Y0078620D01*
X0104535Y0071504D02*
X0104535Y0067602D01*
X0108275Y0071504D02*
X0113216Y0071504D01*
X0113285Y0071411D01*
X0112660Y0076755D02*
X0112660Y0077602D01*
D47*
X0112660Y0083227D02*
X0112660Y0083448D01*
X0113969Y0088227D02*
X0113969Y0092602D01*
X0113285Y0092602D01*
X0113969Y0092602D02*
X0138910Y0092602D01*
X0140160Y0091352D01*
X0141410Y0094477D02*
X0146002Y0089885D01*
X0153039Y0089885D01*
X0153039Y0087917D02*
X0157975Y0087917D01*
X0160785Y0090727D01*
X0160160Y0094477D02*
X0156878Y0097759D01*
X0153039Y0097759D01*
X0153039Y0099728D02*
X0156784Y0099728D01*
X0158910Y0097602D01*
X0162035Y0097602D01*
X0159535Y0100102D02*
X0156691Y0101696D01*
X0153039Y0101696D01*
X0153039Y0103665D02*
X0156597Y0103665D01*
X0162035Y0102602D01*
X0158910Y0110102D02*
X0156848Y0111539D01*
X0153039Y0111539D01*
X0149781Y0111539D01*
X0147035Y0109418D01*
X0148064Y0113507D02*
X0147035Y0114536D01*
X0148064Y0113507D02*
X0153039Y0113507D01*
X0158566Y0113507D01*
X0158910Y0113852D01*
X0163974Y0119413D02*
X0169535Y0113852D01*
X0163974Y0119413D02*
X0153039Y0119413D01*
X0153039Y0121381D02*
X0167065Y0121381D01*
X0169535Y0123852D01*
X0168285Y0126977D02*
X0177035Y0126977D01*
X0180785Y0123227D01*
X0180785Y0126977D02*
X0179535Y0128227D01*
X0167660Y0128227D01*
X0166410Y0126977D01*
X0157035Y0126977D01*
X0156725Y0127287D01*
X0153039Y0127287D01*
X0153039Y0129255D02*
X0156632Y0129255D01*
X0157660Y0128227D01*
X0165785Y0128227D01*
X0167035Y0129477D01*
X0183285Y0129477D01*
X0185785Y0130727D02*
X0185785Y0124477D01*
X0178285Y0115727D01*
X0178285Y0103852D01*
X0200160Y0081977D01*
X0220101Y0081977D01*
X0222035Y0083911D01*
X0222035Y0088168D01*
X0222035Y0078793D02*
X0222035Y0074536D01*
X0217719Y0074536D01*
X0214535Y0071352D01*
X0214535Y0067602D01*
X0222035Y0066352D02*
X0222035Y0069418D01*
X0222035Y0062661D02*
X0221976Y0062602D01*
X0199535Y0062602D01*
X0194535Y0057602D01*
X0199535Y0062602D02*
X0199535Y0068852D01*
X0196346Y0072041D01*
X0196346Y0076106D01*
X0194378Y0076106D02*
X0194378Y0067759D01*
X0194535Y0067602D01*
X0198315Y0076106D02*
X0198315Y0080072D01*
X0187660Y0090727D01*
X0168285Y0090727D01*
X0164535Y0090727D02*
X0159535Y0085727D01*
X0153261Y0085727D01*
X0153039Y0085948D01*
X0153039Y0083980D02*
X0157163Y0083980D01*
X0157660Y0084477D01*
X0161410Y0084477D01*
X0165160Y0088227D01*
X0175785Y0088227D01*
X0181410Y0082602D01*
X0178630Y0081696D02*
X0178630Y0076106D01*
X0176661Y0076106D02*
X0176661Y0079851D01*
X0175160Y0081352D01*
X0175160Y0083852D01*
X0172035Y0086977D01*
X0165785Y0086977D01*
X0162035Y0083227D01*
X0158285Y0083227D01*
X0150785Y0075727D01*
X0143910Y0075727D01*
X0139939Y0079698D01*
X0139939Y0080057D01*
X0141351Y0081470D01*
X0141351Y0085727D01*
X0145908Y0091854D02*
X0153039Y0091854D01*
X0153039Y0093822D02*
X0145815Y0093822D01*
X0143910Y0095727D01*
X0143910Y0098852D01*
X0138285Y0104477D01*
X0138285Y0112602D01*
X0133285Y0117602D01*
X0128285Y0122602D02*
X0133285Y0127602D01*
X0128285Y0122602D02*
X0128285Y0105727D01*
X0130785Y0103227D01*
X0135785Y0103227D01*
X0141410Y0097602D01*
X0141410Y0094477D01*
X0142660Y0095102D02*
X0145908Y0091854D01*
X0142660Y0095102D02*
X0142660Y0098227D01*
X0133285Y0107602D01*
X0141351Y0120727D02*
X0141351Y0125102D01*
X0143910Y0127661D01*
X0143910Y0140727D01*
X0144535Y0141352D01*
X0150785Y0141352D01*
X0154476Y0145043D01*
X0162011Y0145043D01*
X0164594Y0145043D01*
X0166819Y0142818D01*
X0166819Y0139098D01*
X0168787Y0139098D02*
X0168787Y0134979D01*
X0164535Y0130727D01*
X0161410Y0130727D01*
X0157660Y0134477D01*
X0157660Y0135727D01*
X0157035Y0133227D02*
X0147094Y0133227D01*
X0146469Y0133852D01*
X0146469Y0138227D01*
X0141351Y0138227D02*
X0141351Y0144477D01*
X0141351Y0148852D01*
X0141351Y0151918D01*
X0142035Y0152602D01*
X0143910Y0152602D01*
X0142035Y0155102D02*
X0148910Y0155102D01*
X0152660Y0151352D01*
X0157660Y0151352D02*
X0158851Y0150161D01*
X0162011Y0150161D01*
X0162011Y0155643D01*
X0162660Y0156293D01*
X0162035Y0156352D01*
X0165844Y0156352D01*
X0167035Y0156293D01*
X0171410Y0155727D02*
X0171410Y0155668D01*
X0171410Y0160727D02*
X0171410Y0160786D01*
X0175785Y0160786D01*
X0180160Y0160727D02*
X0180160Y0160786D01*
X0180160Y0155668D02*
X0175785Y0155668D01*
X0179535Y0155668D02*
X0179535Y0150161D01*
X0178935Y0150161D01*
X0177094Y0150161D01*
X0176349Y0149415D01*
X0176349Y0143601D01*
X0176661Y0143288D01*
X0176661Y0139098D01*
X0174693Y0139098D02*
X0174693Y0143384D01*
X0175160Y0143852D01*
X0175160Y0149477D01*
X0174476Y0150161D01*
X0172636Y0150161D01*
X0172636Y0145043D02*
X0172724Y0145043D01*
X0172724Y0139098D01*
X0172724Y0135038D01*
X0173285Y0134477D01*
X0173285Y0131977D01*
X0172035Y0130727D01*
X0166410Y0130727D01*
X0165160Y0129477D01*
X0160785Y0129477D01*
X0157035Y0133227D01*
X0153039Y0123350D02*
X0164658Y0123350D01*
X0168285Y0126977D01*
X0172035Y0121352D02*
X0177035Y0116352D01*
X0177035Y0103227D01*
X0200283Y0079979D01*
X0200283Y0076106D01*
X0178630Y0081696D02*
X0177660Y0082602D01*
X0173910Y0083227D02*
X0173910Y0080727D01*
X0174693Y0079944D01*
X0174693Y0076106D01*
X0168787Y0076106D02*
X0168787Y0082100D01*
X0167660Y0083227D01*
X0166410Y0085727D02*
X0162660Y0081977D01*
X0158910Y0081977D01*
X0151410Y0074477D01*
X0149712Y0074477D01*
X0146632Y0071396D01*
X0147301Y0070727D01*
X0151351Y0070727D01*
X0156410Y0070727D02*
X0156469Y0070727D01*
X0160726Y0070102D02*
X0160785Y0070102D01*
X0159082Y0066977D02*
X0160332Y0065727D01*
X0159082Y0066977D02*
X0137660Y0066977D01*
X0136410Y0068227D01*
X0136410Y0078852D01*
X0135160Y0080102D01*
X0133285Y0078227D02*
X0131410Y0078227D01*
X0133285Y0078227D02*
X0135160Y0076352D01*
X0135160Y0067602D01*
X0137035Y0065727D01*
X0153910Y0065727D01*
X0158285Y0061352D01*
X0160332Y0061352D01*
X0146632Y0080057D02*
X0146410Y0080279D01*
X0146410Y0080727D01*
X0146469Y0080786D01*
X0146469Y0085727D01*
X0134060Y0068852D02*
X0134060Y0067146D01*
X0134704Y0066502D01*
X0135785Y0065421D01*
X0135785Y0054152D01*
X0127035Y0054152D01*
X0127035Y0062515D01*
X0127056Y0062515D01*
X0127525Y0062984D01*
X0127525Y0068852D01*
X0134060Y0068852D01*
X0134060Y0068761D02*
X0127525Y0068761D01*
X0127525Y0068163D02*
X0134060Y0068163D01*
X0134060Y0067564D02*
X0127525Y0067564D01*
X0127525Y0066966D02*
X0134240Y0066966D01*
X0134704Y0066502D02*
X0134704Y0066502D01*
X0134839Y0066367D02*
X0127525Y0066367D01*
X0127525Y0065769D02*
X0135437Y0065769D01*
X0135785Y0065170D02*
X0127525Y0065170D01*
X0127525Y0064572D02*
X0135785Y0064572D01*
X0135785Y0063973D02*
X0127525Y0063973D01*
X0127525Y0063375D02*
X0135785Y0063375D01*
X0135785Y0062776D02*
X0127318Y0062776D01*
X0127035Y0062178D02*
X0135785Y0062178D01*
X0135785Y0061579D02*
X0127035Y0061579D01*
X0127035Y0060981D02*
X0135785Y0060981D01*
X0135785Y0060382D02*
X0127035Y0060382D01*
X0127035Y0059784D02*
X0135785Y0059784D01*
X0135785Y0059185D02*
X0127035Y0059185D01*
X0127035Y0058587D02*
X0135785Y0058587D01*
X0135785Y0057988D02*
X0127035Y0057988D01*
X0127035Y0057390D02*
X0135785Y0057390D01*
X0135785Y0056791D02*
X0127035Y0056791D01*
X0127035Y0056193D02*
X0135785Y0056193D01*
X0135785Y0055594D02*
X0127035Y0055594D01*
X0127035Y0054996D02*
X0135785Y0054996D01*
X0135785Y0054397D02*
X0127035Y0054397D01*
X0108851Y0088227D02*
X0108285Y0088227D01*
X0108452Y0092203D02*
X0108851Y0092602D01*
X0108452Y0092203D02*
X0101435Y0092203D01*
X0092660Y0092602D02*
X0092409Y0092351D01*
X0092409Y0086327D01*
X0089260Y0086327D02*
X0089260Y0091002D01*
X0088910Y0091352D01*
X0086110Y0092301D02*
X0086110Y0086327D01*
X0082960Y0086327D02*
X0082960Y0082277D01*
X0082035Y0081352D01*
X0079811Y0082877D02*
X0078285Y0081352D01*
X0079811Y0082877D02*
X0079811Y0086327D01*
X0073512Y0086327D02*
X0068994Y0086327D01*
X0068910Y0086411D01*
X0073512Y0086327D02*
X0073512Y0089078D01*
X0075785Y0091352D01*
X0077660Y0095102D02*
X0067886Y0095102D01*
X0056351Y0091352D02*
X0056351Y0082661D01*
X0060160Y0078852D01*
X0062035Y0078852D01*
X0055160Y0070727D02*
X0055160Y0070348D01*
X0052035Y0083852D02*
X0052035Y0085673D01*
X0052045Y0085682D01*
X0067635Y0114250D02*
X0067660Y0114275D01*
X0067660Y0118227D01*
X0073512Y0120127D02*
X0073512Y0122828D01*
X0078285Y0125102D01*
X0083285Y0125102D01*
X0084260Y0126076D01*
X0084260Y0129452D01*
X0084260Y0137326D01*
X0084535Y0137602D01*
X0087035Y0135102D02*
X0087409Y0134728D01*
X0087409Y0129452D01*
X0087409Y0126101D01*
X0085160Y0123852D01*
X0078285Y0123852D01*
X0076661Y0122853D01*
X0076661Y0120127D01*
X0079811Y0120127D02*
X0079811Y0116076D01*
X0083285Y0112602D01*
X0093910Y0112602D01*
X0098285Y0116977D01*
X0098285Y0123227D01*
X0097035Y0124477D01*
X0097035Y0134728D01*
X0096435Y0135328D01*
X0099535Y0130102D02*
X0102660Y0126977D01*
X0117035Y0126977D01*
X0118910Y0128852D01*
X0118910Y0133227D01*
X0123285Y0137602D01*
X0116410Y0143227D02*
X0117660Y0144477D01*
X0116410Y0143227D02*
X0112094Y0143227D01*
X0114594Y0147602D02*
X0114594Y0147661D01*
X0115160Y0148227D01*
X0115160Y0151293D01*
X0115219Y0151977D01*
X0116469Y0153227D01*
X0140160Y0153227D01*
X0142035Y0155102D01*
X0142660Y0160490D02*
X0142660Y0160727D01*
X0147660Y0160727D02*
X0147660Y0160490D01*
X0152660Y0160490D02*
X0152660Y0160727D01*
X0157660Y0156352D02*
X0157660Y0156130D01*
X0156410Y0147661D02*
X0147660Y0147661D01*
X0146469Y0148852D01*
X0130844Y0156352D02*
X0130785Y0156352D01*
X0121469Y0156352D02*
X0121410Y0156352D01*
X0116351Y0160727D02*
X0116351Y0163286D01*
X0115785Y0163852D01*
X0106410Y0163852D01*
X0105785Y0164477D01*
X0105795Y0164487D01*
X0105795Y0168271D01*
X0100219Y0173852D02*
X0100219Y0178286D01*
X0100785Y0178852D01*
X0105785Y0178852D01*
X0106469Y0179536D01*
X0106469Y0182602D01*
X0106469Y0188271D01*
X0106420Y0188271D01*
X0120785Y0183015D02*
X0120785Y0181977D01*
X0130160Y0181977D02*
X0130160Y0183015D01*
X0130160Y0184477D01*
X0145785Y0193227D02*
X0145785Y0193286D01*
X0152660Y0180963D02*
X0152660Y0175102D01*
X0154476Y0173286D01*
X0157660Y0173286D01*
X0157660Y0168227D02*
X0157660Y0168168D01*
X0167035Y0161411D02*
X0167035Y0161352D01*
X0179535Y0155668D02*
X0180160Y0155668D01*
X0183598Y0152914D02*
X0182660Y0151977D01*
X0183598Y0152914D02*
X0183598Y0175414D01*
X0181942Y0177070D01*
X0180153Y0177070D01*
X0180153Y0175102D02*
X0181723Y0175102D01*
X0182348Y0174477D01*
X0182348Y0166664D01*
X0180785Y0165102D01*
X0190160Y0168852D02*
X0190160Y0173957D01*
X0192298Y0173957D01*
X0192766Y0174426D01*
X0192766Y0183750D01*
X0192385Y0184131D01*
X0192385Y0185502D01*
X0195319Y0185502D01*
X0195788Y0185971D01*
X0195788Y0191752D01*
X0195319Y0192221D01*
X0190160Y0192221D01*
X0190160Y0192983D01*
X0195319Y0192983D01*
X0195788Y0193451D01*
X0195788Y0199232D01*
X0195319Y0199701D01*
X0193635Y0199701D01*
X0193635Y0209969D01*
X0193722Y0210492D01*
X0193635Y0210614D01*
X0193635Y0210764D01*
X0193260Y0211139D01*
X0190160Y0215479D01*
X0190160Y0217602D01*
X0205785Y0217602D01*
X0205785Y0212202D01*
X0199179Y0212202D01*
X0198710Y0211733D01*
X0198710Y0206470D01*
X0198910Y0206270D01*
X0198910Y0199235D01*
X0198907Y0199232D01*
X0198907Y0193451D01*
X0198910Y0193449D01*
X0198910Y0191755D01*
X0198907Y0191752D01*
X0198907Y0185971D01*
X0199185Y0185693D01*
X0199185Y0184131D01*
X0198804Y0183750D01*
X0198804Y0174426D01*
X0199273Y0173957D01*
X0202298Y0173957D01*
X0202766Y0174426D01*
X0202766Y0183750D01*
X0202385Y0184131D01*
X0202385Y0185502D01*
X0205944Y0185502D01*
X0206413Y0185971D01*
X0206413Y0191352D01*
X0215157Y0191352D01*
X0215157Y0185971D01*
X0215626Y0185502D01*
X0217035Y0185502D01*
X0217035Y0168852D01*
X0214885Y0168852D01*
X0214885Y0170764D01*
X0213948Y0171702D01*
X0212385Y0173264D01*
X0212385Y0174045D01*
X0212766Y0174426D01*
X0212766Y0183750D01*
X0212298Y0184219D01*
X0209273Y0184219D01*
X0208804Y0183750D01*
X0208804Y0174426D01*
X0209185Y0174045D01*
X0209185Y0171939D01*
X0211685Y0169439D01*
X0211685Y0168852D01*
X0190160Y0168852D01*
X0190160Y0169311D02*
X0211685Y0169311D01*
X0211214Y0169910D02*
X0190160Y0169910D01*
X0190160Y0170508D02*
X0210616Y0170508D01*
X0210017Y0171107D02*
X0190160Y0171107D01*
X0190160Y0171705D02*
X0209419Y0171705D01*
X0209185Y0172304D02*
X0190160Y0172304D01*
X0190160Y0172902D02*
X0209185Y0172902D01*
X0209185Y0173501D02*
X0190160Y0173501D01*
X0192440Y0174099D02*
X0199130Y0174099D01*
X0198804Y0174698D02*
X0192766Y0174698D01*
X0192766Y0175296D02*
X0198804Y0175296D01*
X0198804Y0175895D02*
X0192766Y0175895D01*
X0192766Y0176494D02*
X0198804Y0176494D01*
X0198804Y0177092D02*
X0192766Y0177092D01*
X0192766Y0177691D02*
X0198804Y0177691D01*
X0198804Y0178289D02*
X0192766Y0178289D01*
X0192766Y0178888D02*
X0198804Y0178888D01*
X0198804Y0179486D02*
X0192766Y0179486D01*
X0192766Y0180085D02*
X0198804Y0180085D01*
X0198804Y0180683D02*
X0192766Y0180683D01*
X0192766Y0181282D02*
X0198804Y0181282D01*
X0198804Y0181880D02*
X0192766Y0181880D01*
X0192766Y0182479D02*
X0198804Y0182479D01*
X0198804Y0183077D02*
X0192766Y0183077D01*
X0192766Y0183676D02*
X0198804Y0183676D01*
X0199185Y0184274D02*
X0192385Y0184274D01*
X0192385Y0184873D02*
X0199185Y0184873D01*
X0199185Y0185471D02*
X0192385Y0185471D01*
X0188285Y0183852D02*
X0187035Y0185102D01*
X0184535Y0185102D01*
X0183285Y0183852D01*
X0183285Y0181977D01*
X0182316Y0181007D01*
X0180153Y0181007D01*
X0173344Y0188286D02*
X0171098Y0186039D01*
X0171098Y0184157D01*
X0169129Y0184157D02*
X0169129Y0186758D01*
X0168226Y0187661D01*
X0168226Y0190702D01*
X0173344Y0190702D02*
X0173344Y0188286D01*
X0173344Y0197001D02*
X0173344Y0200043D01*
X0167660Y0205727D01*
X0167660Y0208852D01*
X0168861Y0210052D01*
X0172301Y0210052D01*
X0168226Y0202316D02*
X0168226Y0197001D01*
X0168226Y0202316D02*
X0160490Y0210052D01*
X0188285Y0183852D02*
X0188285Y0153852D01*
X0186410Y0151977D01*
X0186410Y0150161D01*
X0186410Y0145043D02*
X0185844Y0144477D01*
X0182660Y0144477D01*
X0178935Y0145043D02*
X0178630Y0145043D01*
X0178630Y0139098D01*
X0178630Y0134132D01*
X0180785Y0131977D01*
X0180598Y0135914D02*
X0185785Y0130727D01*
X0180598Y0135914D02*
X0180598Y0139098D01*
X0175785Y0133227D02*
X0174693Y0134319D01*
X0174693Y0139098D01*
X0170785Y0139068D02*
X0170785Y0133227D01*
X0168787Y0139098D02*
X0168787Y0145043D01*
X0168310Y0145043D01*
X0146469Y0129477D02*
X0146469Y0125102D01*
X0146410Y0125043D01*
X0146410Y0125102D01*
X0146469Y0120727D02*
X0146410Y0120727D01*
X0166410Y0085727D02*
X0171410Y0085727D01*
X0173910Y0083227D01*
X0180785Y0106352D02*
X0182660Y0108227D01*
X0211410Y0108227D01*
X0212035Y0107602D01*
X0216031Y0107602D01*
X0216031Y0109570D02*
X0181317Y0109570D01*
X0180785Y0110102D01*
X0193910Y0123227D02*
X0204535Y0133852D01*
X0213285Y0133852D01*
X0218285Y0138852D01*
X0218285Y0166352D01*
X0223285Y0171352D01*
X0223285Y0218793D01*
X0222035Y0218793D01*
X0222035Y0223911D02*
X0222035Y0228168D01*
X0221479Y0227612D01*
X0216366Y0227612D01*
X0217660Y0235102D02*
X0220219Y0235102D01*
X0222035Y0233286D01*
X0205785Y0217192D02*
X0190160Y0217192D01*
X0190160Y0216594D02*
X0205785Y0216594D01*
X0205785Y0215995D02*
X0190160Y0215995D01*
X0190219Y0215397D02*
X0205785Y0215397D01*
X0205785Y0214798D02*
X0190647Y0214798D01*
X0191074Y0214200D02*
X0205785Y0214200D01*
X0205785Y0213601D02*
X0191502Y0213601D01*
X0191929Y0213003D02*
X0205785Y0213003D01*
X0205785Y0212404D02*
X0192357Y0212404D01*
X0192784Y0211806D02*
X0198783Y0211806D01*
X0198710Y0211207D02*
X0193212Y0211207D01*
X0193639Y0210609D02*
X0198710Y0210609D01*
X0198710Y0210010D02*
X0193642Y0210010D01*
X0193635Y0209412D02*
X0198710Y0209412D01*
X0198710Y0208813D02*
X0193635Y0208813D01*
X0193635Y0208215D02*
X0198710Y0208215D01*
X0198710Y0207616D02*
X0193635Y0207616D01*
X0193635Y0207018D02*
X0198710Y0207018D01*
X0198761Y0206419D02*
X0193635Y0206419D01*
X0193635Y0205821D02*
X0198910Y0205821D01*
X0198910Y0205222D02*
X0193635Y0205222D01*
X0193635Y0204624D02*
X0198910Y0204624D01*
X0198910Y0204025D02*
X0193635Y0204025D01*
X0193635Y0203427D02*
X0198910Y0203427D01*
X0198910Y0202828D02*
X0193635Y0202828D01*
X0193635Y0202229D02*
X0198910Y0202229D01*
X0198910Y0201631D02*
X0193635Y0201631D01*
X0193635Y0201032D02*
X0198910Y0201032D01*
X0198910Y0200434D02*
X0193635Y0200434D01*
X0193635Y0199835D02*
X0198910Y0199835D01*
X0198910Y0199237D02*
X0195783Y0199237D01*
X0195788Y0198638D02*
X0198907Y0198638D01*
X0198907Y0198040D02*
X0195788Y0198040D01*
X0195788Y0197441D02*
X0198907Y0197441D01*
X0198907Y0196843D02*
X0195788Y0196843D01*
X0195788Y0196244D02*
X0198907Y0196244D01*
X0198907Y0195646D02*
X0195788Y0195646D01*
X0195788Y0195047D02*
X0198907Y0195047D01*
X0198907Y0194449D02*
X0195788Y0194449D01*
X0195788Y0193850D02*
X0198907Y0193850D01*
X0198910Y0193252D02*
X0195588Y0193252D01*
X0195485Y0192055D02*
X0198910Y0192055D01*
X0198910Y0192653D02*
X0190160Y0192653D01*
X0195788Y0191456D02*
X0198907Y0191456D01*
X0198907Y0190858D02*
X0195788Y0190858D01*
X0195788Y0190259D02*
X0198907Y0190259D01*
X0198907Y0189661D02*
X0195788Y0189661D01*
X0195788Y0189062D02*
X0198907Y0189062D01*
X0198907Y0188464D02*
X0195788Y0188464D01*
X0195788Y0187865D02*
X0198907Y0187865D01*
X0198907Y0187267D02*
X0195788Y0187267D01*
X0195788Y0186668D02*
X0198907Y0186668D01*
X0198907Y0186070D02*
X0195788Y0186070D01*
X0202385Y0185471D02*
X0217035Y0185471D01*
X0217035Y0184873D02*
X0202385Y0184873D01*
X0202385Y0184274D02*
X0217035Y0184274D01*
X0217035Y0183676D02*
X0212766Y0183676D01*
X0212766Y0183077D02*
X0217035Y0183077D01*
X0217035Y0182479D02*
X0212766Y0182479D01*
X0212766Y0181880D02*
X0217035Y0181880D01*
X0217035Y0181282D02*
X0212766Y0181282D01*
X0212766Y0180683D02*
X0217035Y0180683D01*
X0217035Y0180085D02*
X0212766Y0180085D01*
X0212766Y0179486D02*
X0217035Y0179486D01*
X0217035Y0178888D02*
X0212766Y0178888D01*
X0212766Y0178289D02*
X0217035Y0178289D01*
X0217035Y0177691D02*
X0212766Y0177691D01*
X0212766Y0177092D02*
X0217035Y0177092D01*
X0217035Y0176494D02*
X0212766Y0176494D01*
X0212766Y0175895D02*
X0217035Y0175895D01*
X0217035Y0175296D02*
X0212766Y0175296D01*
X0212766Y0174698D02*
X0217035Y0174698D01*
X0217035Y0174099D02*
X0212440Y0174099D01*
X0212385Y0173501D02*
X0217035Y0173501D01*
X0217035Y0172902D02*
X0212747Y0172902D01*
X0213346Y0172304D02*
X0217035Y0172304D01*
X0217035Y0171705D02*
X0213944Y0171705D01*
X0214543Y0171107D02*
X0217035Y0171107D01*
X0217035Y0170508D02*
X0214885Y0170508D01*
X0214885Y0169910D02*
X0217035Y0169910D01*
X0217035Y0169311D02*
X0214885Y0169311D01*
X0209130Y0174099D02*
X0207440Y0174099D01*
X0207298Y0173957D02*
X0207766Y0174426D01*
X0207766Y0183750D01*
X0207298Y0184219D01*
X0204273Y0184219D01*
X0203804Y0183750D01*
X0203804Y0174426D01*
X0204273Y0173957D01*
X0207298Y0173957D01*
X0207766Y0174698D02*
X0208804Y0174698D01*
X0208804Y0175296D02*
X0207766Y0175296D01*
X0207766Y0175895D02*
X0208804Y0175895D01*
X0208804Y0176494D02*
X0207766Y0176494D01*
X0207766Y0177092D02*
X0208804Y0177092D01*
X0208804Y0177691D02*
X0207766Y0177691D01*
X0207766Y0178289D02*
X0208804Y0178289D01*
X0208804Y0178888D02*
X0207766Y0178888D01*
X0207766Y0179486D02*
X0208804Y0179486D01*
X0208804Y0180085D02*
X0207766Y0180085D01*
X0207766Y0180683D02*
X0208804Y0180683D01*
X0208804Y0181282D02*
X0207766Y0181282D01*
X0207766Y0181880D02*
X0208804Y0181880D01*
X0208804Y0182479D02*
X0207766Y0182479D01*
X0207766Y0183077D02*
X0208804Y0183077D01*
X0208804Y0183676D02*
X0207766Y0183676D01*
X0206413Y0186070D02*
X0215157Y0186070D01*
X0215157Y0186668D02*
X0206413Y0186668D01*
X0206413Y0187267D02*
X0215157Y0187267D01*
X0215157Y0187865D02*
X0206413Y0187865D01*
X0206413Y0188464D02*
X0215157Y0188464D01*
X0215157Y0189062D02*
X0206413Y0189062D01*
X0206413Y0189661D02*
X0215157Y0189661D01*
X0215157Y0190259D02*
X0206413Y0190259D01*
X0206413Y0190858D02*
X0215157Y0190858D01*
X0203804Y0183676D02*
X0202766Y0183676D01*
X0202766Y0183077D02*
X0203804Y0183077D01*
X0203804Y0182479D02*
X0202766Y0182479D01*
X0202766Y0181880D02*
X0203804Y0181880D01*
X0203804Y0181282D02*
X0202766Y0181282D01*
X0202766Y0180683D02*
X0203804Y0180683D01*
X0203804Y0180085D02*
X0202766Y0180085D01*
X0202766Y0179486D02*
X0203804Y0179486D01*
X0203804Y0178888D02*
X0202766Y0178888D01*
X0202766Y0178289D02*
X0203804Y0178289D01*
X0203804Y0177691D02*
X0202766Y0177691D01*
X0202766Y0177092D02*
X0203804Y0177092D01*
X0203804Y0176494D02*
X0202766Y0176494D01*
X0202766Y0175895D02*
X0203804Y0175895D01*
X0203804Y0175296D02*
X0202766Y0175296D01*
X0202766Y0174698D02*
X0203804Y0174698D01*
X0204130Y0174099D02*
X0202440Y0174099D01*
X0115844Y0151352D02*
X0115219Y0151977D01*
X0110785Y0152602D02*
X0110785Y0155668D01*
X0111469Y0156352D01*
X0111410Y0156352D01*
X0110785Y0152602D02*
X0110160Y0151977D01*
X0110101Y0151977D01*
X0106410Y0151977D02*
X0106410Y0156293D01*
X0106351Y0156352D01*
X0106976Y0143227D02*
X0103910Y0143227D01*
X0106976Y0143227D02*
X0106976Y0138852D01*
X0106976Y0134477D01*
X0112094Y0134477D02*
X0113344Y0130102D01*
X0116410Y0130102D01*
X0115160Y0121352D02*
X0115160Y0116086D01*
X0114757Y0115682D01*
X0110785Y0111352D02*
X0101686Y0111352D01*
X0101435Y0111101D01*
X0101435Y0114250D02*
X0106632Y0114250D01*
X0108064Y0115682D01*
X0110785Y0111352D02*
X0114757Y0107380D01*
X0114757Y0107021D02*
X0113969Y0106234D01*
X0113969Y0101352D01*
X0113969Y0096977D02*
X0114535Y0096977D01*
X0108851Y0101352D02*
X0108851Y0105102D01*
X0108551Y0104801D01*
X0108851Y0105102D02*
X0108851Y0106234D01*
X0108064Y0107021D01*
X0095559Y0116750D02*
X0095559Y0120127D01*
X0095559Y0116750D02*
X0093910Y0115102D01*
X0092660Y0115102D01*
X0089260Y0115451D02*
X0089260Y0120127D01*
X0089260Y0115451D02*
X0088910Y0115102D01*
X0081110Y0129452D02*
X0081110Y0139176D01*
X0081410Y0139477D01*
X0076410Y0136352D02*
X0074284Y0138478D01*
X0062911Y0138478D01*
X0057719Y0137602D02*
X0057719Y0141977D01*
X0055160Y0139477D02*
X0055160Y0145727D01*
X0055785Y0146352D01*
X0057719Y0146352D01*
X0052660Y0146352D02*
X0052601Y0146352D01*
X0052601Y0141977D02*
X0052660Y0141977D01*
X0052660Y0138793D02*
X0054476Y0138793D01*
X0055160Y0139477D01*
X0052660Y0138793D02*
X0052601Y0137602D01*
X0052660Y0150668D02*
X0052601Y0150727D01*
X0052660Y0150727D02*
X0052660Y0150668D01*
X0062094Y0173227D02*
X0065160Y0173227D01*
X0073285Y0178227D02*
X0073344Y0178227D01*
X0078851Y0178227D02*
X0078910Y0178227D01*
X0090726Y0178227D02*
X0090785Y0175727D01*
X0090785Y0173852D01*
X0051410Y0218227D02*
X0051410Y0218793D01*
X0051410Y0223911D02*
X0060219Y0223911D01*
X0061410Y0225102D01*
X0061410Y0231977D01*
X0058295Y0235092D01*
X0057079Y0235092D01*
X0057704Y0234521D01*
X0057035Y0233852D01*
X0052601Y0233852D01*
X0051410Y0233286D01*
X0051410Y0228168D02*
X0051976Y0227602D01*
X0055785Y0227602D01*
X0082035Y0096352D02*
X0086110Y0092301D01*
X0082035Y0057695D02*
X0081504Y0056883D01*
X0080160Y0056352D01*
X0222035Y0056977D02*
X0222035Y0057543D01*
D48*
X0141351Y0129477D02*
X0141351Y0133852D01*
X0138285Y0133852D01*
X0211410Y0221727D02*
X0211410Y0227646D01*
X0207704Y0231352D01*
D49*
X0130160Y0181977D02*
X0130160Y0181932D01*
X0123285Y0175057D01*
X0120785Y0181977D02*
X0115160Y0181977D01*
X0110116Y0176932D01*
X0109535Y0176932D01*
X0110160Y0196932D02*
X0110160Y0206967D01*
X0113246Y0210052D01*
X0108241Y0198852D02*
X0105844Y0198852D01*
X0108241Y0198852D02*
X0110160Y0196932D01*
X0101435Y0210052D02*
X0095785Y0204403D01*
X0095785Y0196932D01*
X0083285Y0196932D02*
X0083285Y0203714D01*
X0089624Y0210052D01*
X0089328Y0219895D02*
X0095529Y0219895D01*
X0089328Y0219895D02*
X0070785Y0201352D01*
X0070785Y0196932D01*
X0078787Y0216932D02*
X0060785Y0216932D01*
X0065741Y0231352D02*
X0066410Y0232021D01*
X0066410Y0242602D01*
X0067247Y0242602D01*
X0077035Y0242602D01*
X0085160Y0250727D01*
X0094225Y0250727D01*
X0101435Y0243517D01*
X0095529Y0233674D02*
X0078787Y0216932D01*
M02*
