G75*
%MOIN*%
%OFA0B0*%
%FSLAX25Y25*%
%IPPOS*%
%LPD*%
%AMOC8*
5,1,8,0,0,1.08239X$1,22.5*
%
%ADD10C,0.00800*%
%ADD11C,0.00400*%
%ADD12C,0.00500*%
%ADD13C,0.00600*%
%ADD14R,0.03400X0.03000*%
%ADD15R,0.03544X0.11023*%
%ADD16C,0.00000*%
D10*
X0180802Y0159112D02*
X0219518Y0159112D01*
X0219518Y0194560D01*
X0180802Y0194560D02*
X0180802Y0159112D01*
X0167613Y0265502D02*
X0163009Y0265502D01*
X0161474Y0267036D01*
X0161474Y0270106D01*
X0163009Y0271640D01*
X0167613Y0271640D01*
X0167613Y0274710D02*
X0167613Y0265502D01*
X0158405Y0265502D02*
X0155336Y0265502D01*
X0156870Y0265502D02*
X0156870Y0274710D01*
X0158405Y0274710D01*
X0152266Y0271640D02*
X0150732Y0271640D01*
X0150732Y0265502D01*
X0152266Y0265502D02*
X0149197Y0265502D01*
X0144593Y0267036D02*
X0143058Y0265502D01*
X0144593Y0267036D02*
X0144593Y0273175D01*
X0146128Y0271640D02*
X0143058Y0271640D01*
X0139989Y0271640D02*
X0133851Y0271640D01*
X0139989Y0265502D01*
X0133851Y0265502D01*
X0130781Y0265502D02*
X0126177Y0265502D01*
X0124643Y0267036D01*
X0124643Y0268571D01*
X0126177Y0270106D01*
X0130781Y0270106D01*
X0130781Y0274710D02*
X0126177Y0274710D01*
X0124643Y0273175D01*
X0124643Y0271640D01*
X0126177Y0270106D01*
X0121573Y0273175D02*
X0120039Y0274710D01*
X0116969Y0274710D01*
X0115435Y0273175D01*
X0115435Y0267036D01*
X0116969Y0265502D01*
X0120039Y0265502D01*
X0121573Y0267036D01*
X0121573Y0273175D01*
X0112366Y0274710D02*
X0106227Y0265502D01*
X0112366Y0265502D02*
X0106227Y0274710D01*
X0130781Y0274710D02*
X0130781Y0265502D01*
X0150732Y0274710D02*
X0150732Y0276244D01*
D11*
X0151193Y0265406D02*
X0151193Y0260302D01*
X0150343Y0260302D02*
X0152044Y0260302D01*
X0151616Y0259507D02*
X0151616Y0258656D01*
X0151616Y0256955D02*
X0151616Y0253552D01*
X0152466Y0253552D02*
X0150765Y0253552D01*
X0149090Y0253552D02*
X0149090Y0256955D01*
X0146538Y0256955D01*
X0145687Y0256104D01*
X0145687Y0253552D01*
X0144026Y0254402D02*
X0143175Y0253552D01*
X0141474Y0253552D01*
X0140623Y0254402D01*
X0140623Y0256104D01*
X0141474Y0256955D01*
X0143175Y0256955D01*
X0144026Y0256104D01*
X0144026Y0254402D01*
X0148668Y0258600D02*
X0148668Y0263705D01*
X0146116Y0263705D01*
X0145265Y0262854D01*
X0145265Y0261152D01*
X0146116Y0260302D01*
X0148668Y0260302D01*
X0151616Y0256955D02*
X0152466Y0256955D01*
X0154128Y0256955D02*
X0154128Y0253552D01*
X0156680Y0253552D01*
X0157531Y0254402D01*
X0157531Y0256955D01*
X0159192Y0256955D02*
X0161744Y0256955D01*
X0162595Y0256104D01*
X0162595Y0254402D01*
X0161744Y0253552D01*
X0159192Y0253552D01*
X0159192Y0258656D01*
X0159621Y0260302D02*
X0158770Y0261152D01*
X0158770Y0262854D01*
X0159621Y0263705D01*
X0161322Y0263705D01*
X0162173Y0262854D01*
X0162173Y0261152D01*
X0161322Y0260302D01*
X0159621Y0260302D01*
X0157109Y0261152D02*
X0157109Y0262854D01*
X0156258Y0263705D01*
X0154556Y0263705D01*
X0153706Y0262854D01*
X0153706Y0262003D01*
X0157109Y0262003D01*
X0157109Y0261152D02*
X0156258Y0260302D01*
X0154556Y0260302D01*
X0152044Y0265406D02*
X0151193Y0265406D01*
X0143604Y0263705D02*
X0143604Y0260302D01*
X0143604Y0262003D02*
X0141902Y0263705D01*
X0141051Y0263705D01*
X0139383Y0263705D02*
X0138533Y0263705D01*
X0138533Y0260302D01*
X0139383Y0260302D02*
X0137682Y0260302D01*
X0136007Y0260302D02*
X0136007Y0263705D01*
X0133455Y0263705D01*
X0132604Y0262854D01*
X0132604Y0260302D01*
X0130943Y0260302D02*
X0127540Y0260302D01*
X0125879Y0260302D02*
X0125028Y0260302D01*
X0125028Y0261152D01*
X0125879Y0261152D01*
X0125879Y0260302D01*
X0123346Y0261152D02*
X0122496Y0260302D01*
X0120794Y0260302D01*
X0119943Y0261152D01*
X0119943Y0262854D01*
X0120794Y0263705D01*
X0122496Y0263705D01*
X0123346Y0262854D01*
X0123346Y0261152D01*
X0123768Y0256955D02*
X0122918Y0256955D01*
X0122067Y0256104D01*
X0121216Y0256955D01*
X0120366Y0256104D01*
X0120366Y0253552D01*
X0118704Y0253552D02*
X0116152Y0253552D01*
X0115301Y0254402D01*
X0115301Y0256104D01*
X0116152Y0256955D01*
X0118704Y0256955D01*
X0118704Y0251850D01*
X0122067Y0253552D02*
X0122067Y0256104D01*
X0123768Y0256955D02*
X0123768Y0253552D01*
X0125430Y0254402D02*
X0125430Y0256104D01*
X0126281Y0256955D01*
X0127982Y0256955D01*
X0128833Y0256104D01*
X0128833Y0254402D01*
X0127982Y0253552D01*
X0126281Y0253552D01*
X0125430Y0254402D01*
X0130494Y0253552D02*
X0133046Y0253552D01*
X0133897Y0254402D01*
X0133897Y0256104D01*
X0133046Y0256955D01*
X0130494Y0256955D01*
X0130943Y0260302D02*
X0127540Y0263705D01*
X0130943Y0263705D01*
X0138533Y0265406D02*
X0138533Y0266257D01*
X0118282Y0263705D02*
X0118282Y0260302D01*
X0118282Y0262003D02*
X0116581Y0263705D01*
X0115730Y0263705D01*
X0114062Y0262854D02*
X0114062Y0261152D01*
X0113211Y0260302D01*
X0110659Y0260302D01*
X0110659Y0259451D02*
X0110659Y0263705D01*
X0113211Y0263705D01*
X0114062Y0262854D01*
X0112360Y0258600D02*
X0111510Y0258600D01*
X0110659Y0259451D01*
X0111088Y0256955D02*
X0110237Y0256104D01*
X0110237Y0253552D01*
X0112789Y0253552D01*
X0113640Y0254402D01*
X0112789Y0255253D01*
X0110237Y0255253D01*
X0111088Y0256955D02*
X0112789Y0256955D01*
X0108575Y0256955D02*
X0106874Y0256955D01*
X0107725Y0257805D02*
X0107725Y0254402D01*
X0106874Y0253552D01*
X0105199Y0253552D02*
X0103498Y0253552D01*
X0104349Y0253552D02*
X0104349Y0256955D01*
X0105199Y0256955D01*
X0104349Y0258656D02*
X0104349Y0259507D01*
X0101823Y0258656D02*
X0101823Y0253552D01*
X0099271Y0253552D01*
X0098420Y0254402D01*
X0098420Y0256104D01*
X0099271Y0256955D01*
X0101823Y0256955D01*
X0096759Y0258656D02*
X0095908Y0258656D01*
X0095908Y0253552D01*
X0096759Y0253552D02*
X0095057Y0253552D01*
X0093383Y0254402D02*
X0093383Y0256104D01*
X0092532Y0256955D01*
X0090830Y0256955D01*
X0089980Y0256104D01*
X0089980Y0255253D01*
X0093383Y0255253D01*
X0093383Y0254402D02*
X0092532Y0253552D01*
X0090830Y0253552D01*
X0092520Y0175017D02*
X0095589Y0175017D01*
X0097860Y0175017D02*
X0102464Y0175017D01*
X0100162Y0175017D02*
X0100162Y0171948D01*
X0098627Y0170413D02*
X0097860Y0169646D01*
X0097860Y0168111D01*
X0098627Y0167344D01*
X0101697Y0167344D01*
X0102464Y0168111D01*
X0102464Y0169646D01*
X0101697Y0170413D01*
X0102464Y0171948D02*
X0097860Y0171948D01*
X0095589Y0171948D02*
X0092520Y0171948D01*
X0090985Y0173482D01*
X0092520Y0175017D01*
X0093287Y0170413D02*
X0091752Y0170413D01*
X0090985Y0169646D01*
X0090985Y0168111D01*
X0091752Y0167344D01*
X0093287Y0167344D02*
X0094054Y0168878D01*
X0094054Y0169646D01*
X0093287Y0170413D01*
X0095589Y0170413D02*
X0095589Y0167344D01*
X0093287Y0167344D01*
X0093287Y0165809D02*
X0093287Y0162740D01*
X0094822Y0164274D02*
X0091752Y0164274D01*
X0097860Y0162740D02*
X0100929Y0162740D01*
X0102464Y0164274D01*
X0100929Y0165809D01*
X0097860Y0165809D01*
X0100162Y0165809D02*
X0100162Y0162740D01*
X0102464Y0161205D02*
X0102464Y0158136D01*
X0102464Y0159671D02*
X0097860Y0159671D01*
X0104735Y0162740D02*
X0104735Y0165809D01*
X0104735Y0164274D02*
X0109339Y0164274D01*
X0107804Y0162740D01*
X0107037Y0161205D02*
X0107037Y0158136D01*
X0108572Y0159671D02*
X0105502Y0159671D01*
X0104735Y0167344D02*
X0107804Y0170413D01*
X0108572Y0170413D01*
X0109339Y0169646D01*
X0109339Y0168111D01*
X0108572Y0167344D01*
X0109339Y0171948D02*
X0106270Y0171948D01*
X0104735Y0173482D01*
X0106270Y0175017D01*
X0109339Y0175017D01*
X0104735Y0170413D02*
X0104735Y0167344D01*
X0104558Y0149906D02*
X0104558Y0146836D01*
X0106093Y0145302D01*
X0107627Y0146836D01*
X0107627Y0149906D01*
X0109162Y0149906D02*
X0112231Y0149906D01*
X0112231Y0147604D01*
X0110697Y0148371D01*
X0109929Y0148371D01*
X0109162Y0147604D01*
X0109162Y0146069D01*
X0109929Y0145302D01*
X0111464Y0145302D01*
X0112231Y0146069D01*
X0113766Y0147604D02*
X0116835Y0147604D01*
X0115300Y0149138D02*
X0115300Y0146069D01*
X0113766Y0139906D02*
X0113766Y0135302D01*
X0112231Y0135302D02*
X0110697Y0135302D01*
X0111464Y0135302D02*
X0111464Y0139906D01*
X0112231Y0139906D02*
X0110697Y0139906D01*
X0109162Y0139138D02*
X0109162Y0138371D01*
X0108395Y0137604D01*
X0106860Y0137604D01*
X0106093Y0136836D01*
X0106093Y0136069D01*
X0106860Y0135302D01*
X0108395Y0135302D01*
X0109162Y0136069D01*
X0109162Y0139138D02*
X0108395Y0139906D01*
X0106860Y0139906D01*
X0106093Y0139138D01*
X0104558Y0139138D02*
X0104558Y0136069D01*
X0103791Y0135302D01*
X0102256Y0135302D01*
X0101489Y0136069D01*
X0101489Y0139138D01*
X0102256Y0139906D01*
X0103791Y0139906D01*
X0104558Y0139138D01*
X0099954Y0134534D02*
X0096885Y0134534D01*
X0095350Y0135302D02*
X0093048Y0135302D01*
X0092281Y0136069D01*
X0092281Y0136836D01*
X0093048Y0137604D01*
X0095350Y0137604D01*
X0095350Y0139906D02*
X0093048Y0139906D01*
X0092281Y0139138D01*
X0092281Y0138371D01*
X0093048Y0137604D01*
X0090746Y0139906D02*
X0090746Y0135302D01*
X0087677Y0135302D01*
X0093816Y0129906D02*
X0093816Y0125302D01*
X0090746Y0125302D01*
X0095350Y0126069D02*
X0096117Y0125302D01*
X0098419Y0125302D01*
X0098419Y0129906D01*
X0096117Y0129906D01*
X0095350Y0129138D01*
X0095350Y0128371D01*
X0096117Y0127604D01*
X0098419Y0127604D01*
X0096117Y0127604D02*
X0095350Y0126836D01*
X0095350Y0126069D01*
X0099954Y0124534D02*
X0103023Y0124534D01*
X0104558Y0125302D02*
X0106860Y0127604D01*
X0107627Y0126836D02*
X0104558Y0129906D01*
X0107627Y0129906D02*
X0107627Y0125302D01*
X0109162Y0126069D02*
X0109929Y0125302D01*
X0111464Y0125302D01*
X0112231Y0126069D01*
X0112231Y0129138D01*
X0111464Y0129906D01*
X0109929Y0129906D01*
X0109162Y0129138D01*
X0113766Y0129138D02*
X0114533Y0129906D01*
X0116068Y0129906D01*
X0116835Y0129138D01*
X0116835Y0128371D01*
X0116068Y0127604D01*
X0114533Y0127604D01*
X0113766Y0126836D01*
X0113766Y0126069D01*
X0114533Y0125302D01*
X0116068Y0125302D01*
X0116835Y0126069D01*
X0116835Y0119906D02*
X0115300Y0118371D01*
X0113766Y0119906D01*
X0113766Y0115302D01*
X0112231Y0116069D02*
X0111464Y0115302D01*
X0109929Y0115302D01*
X0109162Y0116069D01*
X0109162Y0119138D01*
X0109929Y0119906D01*
X0111464Y0119906D01*
X0112231Y0119138D01*
X0112231Y0116069D01*
X0116835Y0115302D02*
X0116835Y0119906D01*
X0117035Y0110702D02*
X0103223Y0110702D01*
X0104558Y0109906D02*
X0107627Y0109906D01*
X0106093Y0109906D02*
X0106093Y0105302D01*
X0109162Y0106069D02*
X0109929Y0105302D01*
X0111464Y0105302D01*
X0112231Y0106069D01*
X0111464Y0107604D02*
X0109929Y0107604D01*
X0109162Y0106836D01*
X0109162Y0106069D01*
X0111464Y0107604D02*
X0112231Y0108371D01*
X0112231Y0109138D01*
X0111464Y0109906D01*
X0109929Y0109906D01*
X0109162Y0109138D01*
X0113766Y0109138D02*
X0113766Y0107604D01*
X0114533Y0106836D01*
X0116835Y0106836D01*
X0116835Y0105302D02*
X0116835Y0109906D01*
X0114533Y0109906D01*
X0113766Y0109138D01*
X0115300Y0106836D02*
X0113766Y0105302D01*
X0113766Y0099906D02*
X0116835Y0099906D01*
X0115300Y0099906D02*
X0115300Y0095302D01*
X0112231Y0095302D02*
X0109162Y0099906D01*
X0107627Y0099906D02*
X0105325Y0099906D01*
X0104558Y0099138D01*
X0104558Y0096069D01*
X0105325Y0095302D01*
X0107627Y0095302D01*
X0107627Y0099906D01*
X0112231Y0099906D02*
X0109162Y0095302D01*
X0109162Y0089906D02*
X0112231Y0085302D01*
X0113766Y0085302D02*
X0115300Y0086836D01*
X0114533Y0086836D02*
X0116835Y0086836D01*
X0116835Y0085302D02*
X0116835Y0089906D01*
X0114533Y0089906D01*
X0113766Y0089138D01*
X0113766Y0087604D01*
X0114533Y0086836D01*
X0112231Y0089906D02*
X0109162Y0085302D01*
X0107627Y0085302D02*
X0105325Y0085302D01*
X0104558Y0086069D01*
X0104558Y0089138D01*
X0105325Y0089906D01*
X0107627Y0089906D01*
X0107627Y0085302D01*
X0103023Y0084534D02*
X0099954Y0084534D01*
X0098419Y0085302D02*
X0096117Y0085302D01*
X0095350Y0086069D01*
X0095350Y0086836D01*
X0096117Y0087604D01*
X0098419Y0087604D01*
X0096117Y0087604D02*
X0095350Y0088371D01*
X0095350Y0089138D01*
X0096117Y0089906D01*
X0098419Y0089906D01*
X0098419Y0085302D01*
X0093816Y0085302D02*
X0090746Y0085302D01*
X0093816Y0085302D02*
X0093816Y0089906D01*
X0099954Y0096069D02*
X0099954Y0096836D01*
X0100721Y0097604D01*
X0101489Y0097604D01*
X0100721Y0097604D02*
X0099954Y0098371D01*
X0099954Y0099138D01*
X0100721Y0099906D01*
X0102256Y0099906D01*
X0103023Y0099138D01*
X0103023Y0096069D02*
X0102256Y0095302D01*
X0100721Y0095302D01*
X0099954Y0096069D01*
X0099954Y0114534D02*
X0096885Y0114534D01*
X0095350Y0115302D02*
X0093048Y0115302D01*
X0092281Y0116069D01*
X0092281Y0116836D01*
X0093048Y0117604D01*
X0095350Y0117604D01*
X0095350Y0119906D02*
X0093048Y0119906D01*
X0092281Y0119138D01*
X0092281Y0118371D01*
X0093048Y0117604D01*
X0090746Y0119906D02*
X0090746Y0115302D01*
X0087677Y0115302D01*
X0095350Y0115302D02*
X0095350Y0119906D01*
X0101489Y0119906D02*
X0103023Y0119906D01*
X0102256Y0119906D02*
X0102256Y0115302D01*
X0103023Y0115302D02*
X0101489Y0115302D01*
X0104558Y0116069D02*
X0105325Y0115302D01*
X0106860Y0115302D01*
X0107627Y0116069D01*
X0106860Y0117604D02*
X0107627Y0118371D01*
X0107627Y0119138D01*
X0106860Y0119906D01*
X0105325Y0119906D01*
X0104558Y0119138D01*
X0105325Y0117604D02*
X0104558Y0116836D01*
X0104558Y0116069D01*
X0105325Y0117604D02*
X0106860Y0117604D01*
X0116835Y0135302D02*
X0116835Y0139906D01*
X0115300Y0138371D01*
X0113766Y0139906D01*
X0095350Y0139906D02*
X0095350Y0135302D01*
X0140870Y0137604D02*
X0141637Y0136836D01*
X0143939Y0136836D01*
X0143939Y0135302D02*
X0143939Y0139906D01*
X0141637Y0139906D01*
X0140870Y0139138D01*
X0140870Y0137604D01*
X0145474Y0137604D02*
X0148543Y0137604D01*
X0148543Y0138371D02*
X0147008Y0139906D01*
X0145474Y0138371D01*
X0145474Y0135302D01*
X0148543Y0135302D02*
X0148543Y0138371D01*
X0150078Y0139906D02*
X0150078Y0135302D01*
X0153147Y0135302D02*
X0153147Y0139906D01*
X0151612Y0138371D01*
X0150078Y0139906D01*
X0150845Y0145302D02*
X0150078Y0146069D01*
X0150078Y0147604D01*
X0151612Y0147604D01*
X0150078Y0149138D02*
X0150845Y0149906D01*
X0152380Y0149906D01*
X0153147Y0149138D01*
X0153147Y0146069D01*
X0152380Y0145302D01*
X0150845Y0145302D01*
X0148543Y0145302D02*
X0148543Y0149906D01*
X0145474Y0145302D01*
X0145474Y0149906D01*
X0143939Y0149906D02*
X0141637Y0149906D01*
X0140870Y0149138D01*
X0140870Y0146069D01*
X0141637Y0145302D01*
X0143939Y0145302D01*
X0143939Y0149906D01*
X0143939Y0129906D02*
X0141637Y0129906D01*
X0140870Y0129138D01*
X0140870Y0127604D01*
X0141637Y0126836D01*
X0143939Y0126836D01*
X0143939Y0125302D02*
X0143939Y0129906D01*
X0145474Y0129138D02*
X0145474Y0127604D01*
X0146241Y0126836D01*
X0148543Y0126836D01*
X0148543Y0125302D02*
X0148543Y0129906D01*
X0146241Y0129906D01*
X0145474Y0129138D01*
X0142404Y0126836D02*
X0140870Y0125302D01*
X0141637Y0119906D02*
X0140870Y0119138D01*
X0140870Y0117604D01*
X0141637Y0116836D01*
X0143939Y0116836D01*
X0143939Y0115302D02*
X0143939Y0119906D01*
X0141637Y0119906D01*
X0142404Y0116836D02*
X0140870Y0115302D01*
X0145474Y0117604D02*
X0145474Y0119138D01*
X0146241Y0119906D01*
X0148543Y0119906D01*
X0148543Y0115302D01*
X0148543Y0116836D02*
X0146241Y0116836D01*
X0145474Y0117604D01*
X0150078Y0114534D02*
X0153147Y0114534D01*
X0154682Y0115302D02*
X0156984Y0117604D01*
X0157751Y0116836D02*
X0154682Y0119906D01*
X0157751Y0119906D02*
X0157751Y0115302D01*
X0159286Y0116069D02*
X0160053Y0115302D01*
X0161588Y0115302D01*
X0162355Y0116069D01*
X0162355Y0119138D01*
X0161588Y0119906D01*
X0160053Y0119906D01*
X0159286Y0119138D01*
X0163889Y0119138D02*
X0164657Y0119906D01*
X0166191Y0119906D01*
X0166959Y0119138D01*
X0166959Y0118371D01*
X0166191Y0117604D01*
X0164657Y0117604D01*
X0163889Y0116836D01*
X0163889Y0116069D01*
X0164657Y0115302D01*
X0166191Y0115302D01*
X0166959Y0116069D01*
X0166959Y0109906D02*
X0166959Y0105302D01*
X0165424Y0106069D02*
X0165424Y0109138D01*
X0164657Y0109906D01*
X0163122Y0109906D01*
X0162355Y0109138D01*
X0162355Y0106069D01*
X0163122Y0105302D01*
X0164657Y0105302D01*
X0165424Y0106069D01*
X0168493Y0108371D02*
X0166959Y0109906D01*
X0168493Y0108371D02*
X0170028Y0109906D01*
X0170028Y0105302D01*
X0160820Y0106069D02*
X0160053Y0105302D01*
X0158518Y0105302D01*
X0157751Y0106069D01*
X0157751Y0106836D01*
X0158518Y0107604D01*
X0160053Y0107604D01*
X0160820Y0108371D01*
X0160820Y0109138D01*
X0160053Y0109906D01*
X0158518Y0109906D01*
X0157751Y0109138D01*
X0156216Y0109906D02*
X0154682Y0109906D01*
X0155449Y0109906D02*
X0155449Y0105302D01*
X0156216Y0105302D02*
X0154682Y0105302D01*
X0153147Y0104534D02*
X0150078Y0104534D01*
X0148543Y0105302D02*
X0148543Y0109906D01*
X0146241Y0109906D01*
X0145474Y0109138D01*
X0145474Y0107604D01*
X0146241Y0106836D01*
X0148543Y0106836D01*
X0143939Y0106836D02*
X0141637Y0106836D01*
X0140870Y0107604D01*
X0140870Y0109138D01*
X0141637Y0109906D01*
X0143939Y0109906D01*
X0143939Y0105302D01*
X0142404Y0106836D02*
X0140870Y0105302D01*
X0141637Y0099906D02*
X0140870Y0099138D01*
X0140870Y0098371D01*
X0141637Y0097604D01*
X0140870Y0096836D01*
X0140870Y0096069D01*
X0141637Y0095302D01*
X0143172Y0095302D01*
X0143939Y0096069D01*
X0145474Y0096069D02*
X0145474Y0099138D01*
X0146241Y0099906D01*
X0148543Y0099906D01*
X0148543Y0095302D01*
X0146241Y0095302D01*
X0145474Y0096069D01*
X0142404Y0097604D02*
X0141637Y0097604D01*
X0141637Y0099906D02*
X0143172Y0099906D01*
X0143939Y0099138D01*
X0150078Y0099906D02*
X0153147Y0095302D01*
X0154682Y0095302D02*
X0156216Y0096836D01*
X0155449Y0096836D02*
X0157751Y0096836D01*
X0157751Y0095302D02*
X0157751Y0099906D01*
X0155449Y0099906D01*
X0154682Y0099138D01*
X0154682Y0097604D01*
X0155449Y0096836D01*
X0153147Y0099906D02*
X0150078Y0095302D01*
X0148543Y0089906D02*
X0146241Y0089906D01*
X0145474Y0089138D01*
X0145474Y0088371D01*
X0146241Y0087604D01*
X0148543Y0087604D01*
X0148543Y0085302D02*
X0148543Y0089906D01*
X0146241Y0087604D02*
X0145474Y0086836D01*
X0145474Y0086069D01*
X0146241Y0085302D01*
X0148543Y0085302D01*
X0150078Y0084534D02*
X0153147Y0084534D01*
X0154682Y0086069D02*
X0154682Y0089138D01*
X0155449Y0089906D01*
X0157751Y0089906D01*
X0157751Y0085302D01*
X0155449Y0085302D01*
X0154682Y0086069D01*
X0159286Y0085302D02*
X0162355Y0089906D01*
X0163889Y0089906D02*
X0166959Y0089906D01*
X0165424Y0089906D02*
X0165424Y0085302D01*
X0162355Y0085302D02*
X0159286Y0089906D01*
X0143939Y0089906D02*
X0143939Y0085302D01*
X0140870Y0085302D01*
X0155691Y0069906D02*
X0155691Y0065302D01*
X0152621Y0065302D01*
X0157225Y0066069D02*
X0157992Y0065302D01*
X0160294Y0065302D01*
X0160294Y0069906D01*
X0157992Y0069906D01*
X0157225Y0069138D01*
X0157225Y0068371D01*
X0157992Y0067604D01*
X0160294Y0067604D01*
X0157992Y0067604D02*
X0157225Y0066836D01*
X0157225Y0066069D01*
X0161829Y0064534D02*
X0164898Y0064534D01*
X0166433Y0065302D02*
X0169502Y0065302D01*
X0169502Y0069906D01*
X0171037Y0069138D02*
X0171804Y0069906D01*
X0173339Y0069906D01*
X0174106Y0069138D01*
X0174106Y0066069D01*
X0173339Y0065302D01*
X0171804Y0065302D01*
X0171037Y0066069D01*
X0175641Y0066069D02*
X0176408Y0065302D01*
X0177943Y0065302D01*
X0178710Y0066069D01*
X0177943Y0067604D02*
X0176408Y0067604D01*
X0175641Y0066836D01*
X0175641Y0066069D01*
X0177943Y0067604D02*
X0178710Y0068371D01*
X0178710Y0069138D01*
X0177943Y0069906D01*
X0176408Y0069906D01*
X0175641Y0069138D01*
X0176408Y0059906D02*
X0177943Y0059906D01*
X0178710Y0059138D01*
X0178710Y0058371D01*
X0177943Y0057604D01*
X0176408Y0057604D01*
X0175641Y0056836D01*
X0175641Y0056069D01*
X0176408Y0055302D01*
X0177943Y0055302D01*
X0178710Y0056069D01*
X0175641Y0059138D02*
X0176408Y0059906D01*
X0174106Y0059906D02*
X0171804Y0059906D01*
X0171037Y0059138D01*
X0171037Y0056069D01*
X0171804Y0055302D01*
X0174106Y0055302D01*
X0174106Y0059906D01*
X0169502Y0058371D02*
X0169502Y0055302D01*
X0169502Y0057604D02*
X0166433Y0057604D01*
X0166433Y0058371D02*
X0166433Y0055302D01*
X0164898Y0054534D02*
X0161829Y0054534D01*
X0160294Y0055302D02*
X0157992Y0055302D01*
X0157225Y0056069D01*
X0157225Y0056836D01*
X0157992Y0057604D01*
X0160294Y0057604D01*
X0157992Y0057604D02*
X0157225Y0058371D01*
X0157225Y0059138D01*
X0157992Y0059906D01*
X0160294Y0059906D01*
X0160294Y0055302D01*
X0155691Y0055302D02*
X0155691Y0059906D01*
X0155691Y0055302D02*
X0152621Y0055302D01*
X0166433Y0058371D02*
X0167968Y0059906D01*
X0169502Y0058371D01*
X0191752Y0084677D02*
X0190985Y0085444D01*
X0190985Y0086979D01*
X0191752Y0087746D01*
X0192520Y0087746D01*
X0193287Y0086979D01*
X0193287Y0085444D01*
X0194054Y0084677D01*
X0194822Y0084677D01*
X0195589Y0085444D01*
X0195589Y0086979D01*
X0194822Y0087746D01*
X0194822Y0089281D02*
X0191752Y0089281D01*
X0190985Y0090048D01*
X0190985Y0091583D01*
X0191752Y0092350D01*
X0190985Y0093885D02*
X0190985Y0096954D01*
X0190985Y0093885D02*
X0195589Y0093885D01*
X0197235Y0093885D02*
X0200304Y0093885D01*
X0201839Y0095419D01*
X0200304Y0096954D01*
X0197235Y0096954D01*
X0199537Y0096954D02*
X0199537Y0093885D01*
X0198002Y0092350D02*
X0197235Y0091583D01*
X0197235Y0089281D01*
X0201839Y0089281D01*
X0201839Y0091583D01*
X0201072Y0092350D01*
X0198002Y0092350D01*
X0195589Y0091583D02*
X0195589Y0090048D01*
X0194822Y0089281D01*
X0195589Y0091583D02*
X0194822Y0092350D01*
X0198002Y0087746D02*
X0197235Y0086979D01*
X0197235Y0085444D01*
X0198002Y0084677D01*
X0199537Y0085444D02*
X0199537Y0086979D01*
X0198770Y0087746D01*
X0198002Y0087746D01*
X0199537Y0085444D02*
X0200304Y0084677D01*
X0201072Y0084677D01*
X0201839Y0085444D01*
X0201839Y0086979D01*
X0201072Y0087746D01*
X0203485Y0090048D02*
X0203485Y0091583D01*
X0204252Y0092350D01*
X0205787Y0092350D01*
X0206554Y0091583D01*
X0206554Y0090815D01*
X0205787Y0089281D01*
X0208089Y0089281D01*
X0208089Y0092350D01*
X0208089Y0093885D02*
X0205020Y0093885D01*
X0203485Y0095419D01*
X0205020Y0096954D01*
X0208089Y0096954D01*
X0212235Y0096954D02*
X0213770Y0095419D01*
X0213770Y0096186D02*
X0213770Y0093885D01*
X0212235Y0093885D02*
X0216839Y0093885D01*
X0216839Y0096186D01*
X0216072Y0096954D01*
X0214537Y0096954D01*
X0213770Y0096186D01*
X0213002Y0098488D02*
X0212235Y0099256D01*
X0212235Y0100790D01*
X0213002Y0101558D01*
X0216072Y0101558D01*
X0216839Y0100790D01*
X0216839Y0099256D01*
X0216072Y0098488D01*
X0213002Y0098488D01*
X0212235Y0092350D02*
X0215304Y0092350D01*
X0216839Y0090815D01*
X0215304Y0089281D01*
X0212235Y0089281D01*
X0213002Y0087746D02*
X0212235Y0086979D01*
X0212235Y0084677D01*
X0216839Y0084677D01*
X0216839Y0086979D01*
X0216072Y0087746D01*
X0215304Y0087746D01*
X0214537Y0086979D01*
X0214537Y0084677D01*
X0214537Y0086979D02*
X0213770Y0087746D01*
X0213002Y0087746D01*
X0214537Y0089281D02*
X0214537Y0092350D01*
X0219110Y0092350D02*
X0223714Y0092350D01*
X0223714Y0093885D02*
X0223714Y0096186D01*
X0222947Y0096954D01*
X0219877Y0096954D01*
X0219110Y0096186D01*
X0219110Y0093885D01*
X0223714Y0093885D01*
X0223714Y0089281D02*
X0219110Y0089281D01*
X0219877Y0087746D02*
X0219110Y0086979D01*
X0219110Y0085444D01*
X0219877Y0084677D01*
X0222947Y0084677D01*
X0223714Y0085444D01*
X0223714Y0086979D01*
X0222947Y0087746D01*
X0221412Y0087746D02*
X0221412Y0086211D01*
X0221412Y0087746D02*
X0219877Y0087746D01*
X0223714Y0089281D02*
X0219110Y0092350D01*
X0207322Y0086211D02*
X0204252Y0086211D01*
X0205787Y0084677D02*
X0205787Y0087746D01*
X0204252Y0089281D02*
X0203485Y0090048D01*
X0170028Y0125302D02*
X0170028Y0129906D01*
X0168493Y0128371D01*
X0166959Y0129906D01*
X0166959Y0125302D01*
X0165424Y0125302D02*
X0163889Y0125302D01*
X0164657Y0125302D02*
X0164657Y0129906D01*
X0165424Y0129906D02*
X0163889Y0129906D01*
X0162355Y0129138D02*
X0162355Y0128371D01*
X0161588Y0127604D01*
X0160053Y0127604D01*
X0159286Y0126836D01*
X0159286Y0126069D01*
X0160053Y0125302D01*
X0161588Y0125302D01*
X0162355Y0126069D01*
X0162355Y0129138D02*
X0161588Y0129906D01*
X0160053Y0129906D01*
X0159286Y0129138D01*
X0157751Y0129138D02*
X0157751Y0126069D01*
X0156984Y0125302D01*
X0155449Y0125302D01*
X0154682Y0126069D01*
X0154682Y0129138D01*
X0155449Y0129906D01*
X0156984Y0129906D01*
X0157751Y0129138D01*
X0153147Y0124534D02*
X0150078Y0124534D01*
X0215360Y0136552D02*
X0215360Y0138086D01*
X0215360Y0137319D02*
X0219964Y0137319D01*
X0219964Y0136552D02*
X0219964Y0138086D01*
X0219197Y0139621D02*
X0216127Y0139621D01*
X0215360Y0140388D01*
X0215360Y0141923D01*
X0216127Y0142690D01*
X0217662Y0144225D02*
X0217662Y0147294D01*
X0215360Y0146527D02*
X0219964Y0146527D01*
X0217662Y0144225D01*
X0219197Y0142690D02*
X0219964Y0141923D01*
X0219964Y0140388D01*
X0219197Y0139621D01*
X0219964Y0157802D02*
X0215360Y0157802D01*
X0216895Y0157802D02*
X0216895Y0160104D01*
X0217662Y0160871D01*
X0219197Y0160871D01*
X0219964Y0160104D01*
X0219964Y0157802D01*
X0216895Y0159336D02*
X0215360Y0160871D01*
X0215360Y0162406D02*
X0215360Y0165475D01*
X0215360Y0163940D02*
X0219964Y0163940D01*
X0218429Y0162406D01*
X0219197Y0167010D02*
X0216127Y0167010D01*
X0219197Y0170079D01*
X0216127Y0170079D01*
X0215360Y0169311D01*
X0215360Y0167777D01*
X0216127Y0167010D01*
X0219197Y0167010D02*
X0219964Y0167777D01*
X0219964Y0169311D01*
X0219197Y0170079D01*
X0182852Y0253552D02*
X0180300Y0253552D01*
X0179449Y0254402D01*
X0180300Y0255253D01*
X0182001Y0255253D01*
X0182852Y0256104D01*
X0182001Y0256955D01*
X0179449Y0256955D01*
X0177788Y0256955D02*
X0177788Y0251850D01*
X0177788Y0253552D02*
X0175236Y0253552D01*
X0174385Y0254402D01*
X0174385Y0256104D01*
X0175236Y0256955D01*
X0177788Y0256955D01*
X0172724Y0256104D02*
X0172724Y0254402D01*
X0171873Y0253552D01*
X0170171Y0253552D01*
X0169321Y0255253D02*
X0172724Y0255253D01*
X0172724Y0256104D02*
X0171873Y0256955D01*
X0170171Y0256955D01*
X0169321Y0256104D01*
X0169321Y0255253D01*
X0167659Y0255253D02*
X0164256Y0255253D01*
X0164256Y0256104D01*
X0165107Y0256955D01*
X0166809Y0256955D01*
X0167659Y0256104D01*
X0167659Y0254402D01*
X0166809Y0253552D01*
X0165107Y0253552D01*
D12*
X0048285Y0280948D02*
X0048285Y0052602D01*
X0225450Y0052602D01*
X0225450Y0280948D01*
X0048285Y0280948D01*
X0093387Y0178605D02*
X0095639Y0176354D01*
X0092637Y0176354D01*
X0093387Y0178605D02*
X0093387Y0174102D01*
X0097991Y0174852D02*
X0097991Y0178605D01*
X0098742Y0178605D02*
X0097240Y0178605D01*
X0097991Y0174852D02*
X0098742Y0174102D01*
X0099492Y0174102D01*
X0100243Y0174852D01*
X0101844Y0174852D02*
X0102595Y0174102D01*
X0104096Y0174102D01*
X0104847Y0174852D01*
X0104096Y0176354D02*
X0102595Y0176354D01*
X0101844Y0175603D01*
X0101844Y0174852D01*
X0104096Y0176354D02*
X0104847Y0177104D01*
X0104847Y0177855D01*
X0104096Y0178605D01*
X0102595Y0178605D01*
X0101844Y0177855D01*
D13*
X0109285Y0179852D02*
X0092285Y0179852D01*
X0092225Y0179854D01*
X0092164Y0179859D01*
X0092105Y0179868D01*
X0092046Y0179881D01*
X0091987Y0179897D01*
X0091930Y0179917D01*
X0091875Y0179940D01*
X0091820Y0179967D01*
X0091768Y0179996D01*
X0091717Y0180029D01*
X0091668Y0180065D01*
X0091622Y0180103D01*
X0091578Y0180145D01*
X0091536Y0180189D01*
X0091498Y0180235D01*
X0091462Y0180284D01*
X0091429Y0180335D01*
X0091400Y0180387D01*
X0091373Y0180442D01*
X0091350Y0180497D01*
X0091330Y0180554D01*
X0091314Y0180613D01*
X0091301Y0180672D01*
X0091292Y0180731D01*
X0091287Y0180792D01*
X0091285Y0180852D01*
X0091285Y0186852D01*
X0091287Y0186912D01*
X0091292Y0186973D01*
X0091301Y0187032D01*
X0091314Y0187091D01*
X0091330Y0187150D01*
X0091350Y0187207D01*
X0091373Y0187262D01*
X0091400Y0187317D01*
X0091429Y0187369D01*
X0091462Y0187420D01*
X0091498Y0187469D01*
X0091536Y0187515D01*
X0091578Y0187559D01*
X0091622Y0187601D01*
X0091668Y0187639D01*
X0091717Y0187675D01*
X0091768Y0187708D01*
X0091820Y0187737D01*
X0091875Y0187764D01*
X0091930Y0187787D01*
X0091987Y0187807D01*
X0092046Y0187823D01*
X0092105Y0187836D01*
X0092164Y0187845D01*
X0092225Y0187850D01*
X0092285Y0187852D01*
X0109285Y0187852D01*
X0109345Y0187850D01*
X0109406Y0187845D01*
X0109465Y0187836D01*
X0109524Y0187823D01*
X0109583Y0187807D01*
X0109640Y0187787D01*
X0109695Y0187764D01*
X0109750Y0187737D01*
X0109802Y0187708D01*
X0109853Y0187675D01*
X0109902Y0187639D01*
X0109948Y0187601D01*
X0109992Y0187559D01*
X0110034Y0187515D01*
X0110072Y0187469D01*
X0110108Y0187420D01*
X0110141Y0187369D01*
X0110170Y0187317D01*
X0110197Y0187262D01*
X0110220Y0187207D01*
X0110240Y0187150D01*
X0110256Y0187091D01*
X0110269Y0187032D01*
X0110278Y0186973D01*
X0110283Y0186912D01*
X0110285Y0186852D01*
X0110285Y0180852D01*
X0110283Y0180792D01*
X0110278Y0180731D01*
X0110269Y0180672D01*
X0110256Y0180613D01*
X0110240Y0180554D01*
X0110220Y0180497D01*
X0110197Y0180442D01*
X0110170Y0180387D01*
X0110141Y0180335D01*
X0110108Y0180284D01*
X0110072Y0180235D01*
X0110034Y0180189D01*
X0109992Y0180145D01*
X0109948Y0180103D01*
X0109902Y0180065D01*
X0109853Y0180029D01*
X0109802Y0179996D01*
X0109750Y0179967D01*
X0109695Y0179940D01*
X0109640Y0179917D01*
X0109583Y0179897D01*
X0109524Y0179881D01*
X0109465Y0179868D01*
X0109406Y0179859D01*
X0109345Y0179854D01*
X0109285Y0179852D01*
X0193910Y0083227D02*
X0193910Y0070727D01*
X0199535Y0062602D02*
X0199535Y0082602D01*
X0205160Y0083227D02*
X0205160Y0070727D01*
X0209535Y0062602D02*
X0207035Y0060102D01*
X0209535Y0062602D02*
X0219535Y0062602D01*
X0217035Y0060102D01*
X0219535Y0062602D02*
X0221410Y0064477D01*
X0221410Y0083227D01*
X0215160Y0083227D02*
X0215160Y0070727D01*
X0199535Y0062602D02*
X0197035Y0060102D01*
D14*
X0200160Y0157448D03*
D15*
X0190160Y0153202D03*
X0210160Y0153202D03*
D16*
X0206159Y0269108D02*
X0206161Y0269269D01*
X0206167Y0269429D01*
X0206177Y0269590D01*
X0206191Y0269750D01*
X0206209Y0269909D01*
X0206230Y0270069D01*
X0206256Y0270227D01*
X0206286Y0270385D01*
X0206319Y0270542D01*
X0206357Y0270699D01*
X0206398Y0270854D01*
X0206443Y0271008D01*
X0206492Y0271161D01*
X0206545Y0271313D01*
X0206601Y0271463D01*
X0206661Y0271612D01*
X0206725Y0271760D01*
X0206792Y0271906D01*
X0206863Y0272050D01*
X0206938Y0272192D01*
X0207016Y0272333D01*
X0207097Y0272471D01*
X0207182Y0272608D01*
X0207271Y0272742D01*
X0207362Y0272874D01*
X0207457Y0273004D01*
X0207555Y0273131D01*
X0207656Y0273256D01*
X0207760Y0273379D01*
X0207867Y0273498D01*
X0207977Y0273615D01*
X0208090Y0273730D01*
X0208206Y0273841D01*
X0208324Y0273950D01*
X0208445Y0274055D01*
X0208569Y0274158D01*
X0208695Y0274258D01*
X0208824Y0274354D01*
X0208955Y0274447D01*
X0209088Y0274537D01*
X0209223Y0274624D01*
X0209361Y0274707D01*
X0209500Y0274786D01*
X0209642Y0274863D01*
X0209785Y0274936D01*
X0209930Y0275005D01*
X0210077Y0275070D01*
X0210225Y0275132D01*
X0210375Y0275191D01*
X0210526Y0275245D01*
X0210678Y0275296D01*
X0210832Y0275343D01*
X0210987Y0275386D01*
X0211142Y0275425D01*
X0211299Y0275461D01*
X0211457Y0275493D01*
X0211615Y0275520D01*
X0211774Y0275544D01*
X0211933Y0275564D01*
X0212093Y0275580D01*
X0212254Y0275592D01*
X0212414Y0275600D01*
X0212575Y0275604D01*
X0212735Y0275604D01*
X0212896Y0275600D01*
X0213056Y0275592D01*
X0213217Y0275580D01*
X0213377Y0275564D01*
X0213536Y0275544D01*
X0213695Y0275520D01*
X0213853Y0275493D01*
X0214011Y0275461D01*
X0214168Y0275425D01*
X0214323Y0275386D01*
X0214478Y0275343D01*
X0214632Y0275296D01*
X0214784Y0275245D01*
X0214935Y0275191D01*
X0215085Y0275132D01*
X0215233Y0275070D01*
X0215380Y0275005D01*
X0215525Y0274936D01*
X0215668Y0274863D01*
X0215810Y0274786D01*
X0215949Y0274707D01*
X0216087Y0274624D01*
X0216222Y0274537D01*
X0216355Y0274447D01*
X0216486Y0274354D01*
X0216615Y0274258D01*
X0216741Y0274158D01*
X0216865Y0274055D01*
X0216986Y0273950D01*
X0217104Y0273841D01*
X0217220Y0273730D01*
X0217333Y0273615D01*
X0217443Y0273498D01*
X0217550Y0273379D01*
X0217654Y0273256D01*
X0217755Y0273131D01*
X0217853Y0273004D01*
X0217948Y0272874D01*
X0218039Y0272742D01*
X0218128Y0272608D01*
X0218213Y0272471D01*
X0218294Y0272333D01*
X0218372Y0272192D01*
X0218447Y0272050D01*
X0218518Y0271906D01*
X0218585Y0271760D01*
X0218649Y0271612D01*
X0218709Y0271463D01*
X0218765Y0271313D01*
X0218818Y0271161D01*
X0218867Y0271008D01*
X0218912Y0270854D01*
X0218953Y0270699D01*
X0218991Y0270542D01*
X0219024Y0270385D01*
X0219054Y0270227D01*
X0219080Y0270069D01*
X0219101Y0269909D01*
X0219119Y0269750D01*
X0219133Y0269590D01*
X0219143Y0269429D01*
X0219149Y0269269D01*
X0219151Y0269108D01*
X0219149Y0268947D01*
X0219143Y0268787D01*
X0219133Y0268626D01*
X0219119Y0268466D01*
X0219101Y0268307D01*
X0219080Y0268147D01*
X0219054Y0267989D01*
X0219024Y0267831D01*
X0218991Y0267674D01*
X0218953Y0267517D01*
X0218912Y0267362D01*
X0218867Y0267208D01*
X0218818Y0267055D01*
X0218765Y0266903D01*
X0218709Y0266753D01*
X0218649Y0266604D01*
X0218585Y0266456D01*
X0218518Y0266310D01*
X0218447Y0266166D01*
X0218372Y0266024D01*
X0218294Y0265883D01*
X0218213Y0265745D01*
X0218128Y0265608D01*
X0218039Y0265474D01*
X0217948Y0265342D01*
X0217853Y0265212D01*
X0217755Y0265085D01*
X0217654Y0264960D01*
X0217550Y0264837D01*
X0217443Y0264718D01*
X0217333Y0264601D01*
X0217220Y0264486D01*
X0217104Y0264375D01*
X0216986Y0264266D01*
X0216865Y0264161D01*
X0216741Y0264058D01*
X0216615Y0263958D01*
X0216486Y0263862D01*
X0216355Y0263769D01*
X0216222Y0263679D01*
X0216087Y0263592D01*
X0215949Y0263509D01*
X0215810Y0263430D01*
X0215668Y0263353D01*
X0215525Y0263280D01*
X0215380Y0263211D01*
X0215233Y0263146D01*
X0215085Y0263084D01*
X0214935Y0263025D01*
X0214784Y0262971D01*
X0214632Y0262920D01*
X0214478Y0262873D01*
X0214323Y0262830D01*
X0214168Y0262791D01*
X0214011Y0262755D01*
X0213853Y0262723D01*
X0213695Y0262696D01*
X0213536Y0262672D01*
X0213377Y0262652D01*
X0213217Y0262636D01*
X0213056Y0262624D01*
X0212896Y0262616D01*
X0212735Y0262612D01*
X0212575Y0262612D01*
X0212414Y0262616D01*
X0212254Y0262624D01*
X0212093Y0262636D01*
X0211933Y0262652D01*
X0211774Y0262672D01*
X0211615Y0262696D01*
X0211457Y0262723D01*
X0211299Y0262755D01*
X0211142Y0262791D01*
X0210987Y0262830D01*
X0210832Y0262873D01*
X0210678Y0262920D01*
X0210526Y0262971D01*
X0210375Y0263025D01*
X0210225Y0263084D01*
X0210077Y0263146D01*
X0209930Y0263211D01*
X0209785Y0263280D01*
X0209642Y0263353D01*
X0209500Y0263430D01*
X0209361Y0263509D01*
X0209223Y0263592D01*
X0209088Y0263679D01*
X0208955Y0263769D01*
X0208824Y0263862D01*
X0208695Y0263958D01*
X0208569Y0264058D01*
X0208445Y0264161D01*
X0208324Y0264266D01*
X0208206Y0264375D01*
X0208090Y0264486D01*
X0207977Y0264601D01*
X0207867Y0264718D01*
X0207760Y0264837D01*
X0207656Y0264960D01*
X0207555Y0265085D01*
X0207457Y0265212D01*
X0207362Y0265342D01*
X0207271Y0265474D01*
X0207182Y0265608D01*
X0207097Y0265745D01*
X0207016Y0265883D01*
X0206938Y0266024D01*
X0206863Y0266166D01*
X0206792Y0266310D01*
X0206725Y0266456D01*
X0206661Y0266604D01*
X0206601Y0266753D01*
X0206545Y0266903D01*
X0206492Y0267055D01*
X0206443Y0267208D01*
X0206398Y0267362D01*
X0206357Y0267517D01*
X0206319Y0267674D01*
X0206286Y0267831D01*
X0206256Y0267989D01*
X0206230Y0268147D01*
X0206209Y0268307D01*
X0206191Y0268466D01*
X0206177Y0268626D01*
X0206167Y0268787D01*
X0206161Y0268947D01*
X0206159Y0269108D01*
X0054584Y0269108D02*
X0054586Y0269269D01*
X0054592Y0269429D01*
X0054602Y0269590D01*
X0054616Y0269750D01*
X0054634Y0269909D01*
X0054655Y0270069D01*
X0054681Y0270227D01*
X0054711Y0270385D01*
X0054744Y0270542D01*
X0054782Y0270699D01*
X0054823Y0270854D01*
X0054868Y0271008D01*
X0054917Y0271161D01*
X0054970Y0271313D01*
X0055026Y0271463D01*
X0055086Y0271612D01*
X0055150Y0271760D01*
X0055217Y0271906D01*
X0055288Y0272050D01*
X0055363Y0272192D01*
X0055441Y0272333D01*
X0055522Y0272471D01*
X0055607Y0272608D01*
X0055696Y0272742D01*
X0055787Y0272874D01*
X0055882Y0273004D01*
X0055980Y0273131D01*
X0056081Y0273256D01*
X0056185Y0273379D01*
X0056292Y0273498D01*
X0056402Y0273615D01*
X0056515Y0273730D01*
X0056631Y0273841D01*
X0056749Y0273950D01*
X0056870Y0274055D01*
X0056994Y0274158D01*
X0057120Y0274258D01*
X0057249Y0274354D01*
X0057380Y0274447D01*
X0057513Y0274537D01*
X0057648Y0274624D01*
X0057786Y0274707D01*
X0057925Y0274786D01*
X0058067Y0274863D01*
X0058210Y0274936D01*
X0058355Y0275005D01*
X0058502Y0275070D01*
X0058650Y0275132D01*
X0058800Y0275191D01*
X0058951Y0275245D01*
X0059103Y0275296D01*
X0059257Y0275343D01*
X0059412Y0275386D01*
X0059567Y0275425D01*
X0059724Y0275461D01*
X0059882Y0275493D01*
X0060040Y0275520D01*
X0060199Y0275544D01*
X0060358Y0275564D01*
X0060518Y0275580D01*
X0060679Y0275592D01*
X0060839Y0275600D01*
X0061000Y0275604D01*
X0061160Y0275604D01*
X0061321Y0275600D01*
X0061481Y0275592D01*
X0061642Y0275580D01*
X0061802Y0275564D01*
X0061961Y0275544D01*
X0062120Y0275520D01*
X0062278Y0275493D01*
X0062436Y0275461D01*
X0062593Y0275425D01*
X0062748Y0275386D01*
X0062903Y0275343D01*
X0063057Y0275296D01*
X0063209Y0275245D01*
X0063360Y0275191D01*
X0063510Y0275132D01*
X0063658Y0275070D01*
X0063805Y0275005D01*
X0063950Y0274936D01*
X0064093Y0274863D01*
X0064235Y0274786D01*
X0064374Y0274707D01*
X0064512Y0274624D01*
X0064647Y0274537D01*
X0064780Y0274447D01*
X0064911Y0274354D01*
X0065040Y0274258D01*
X0065166Y0274158D01*
X0065290Y0274055D01*
X0065411Y0273950D01*
X0065529Y0273841D01*
X0065645Y0273730D01*
X0065758Y0273615D01*
X0065868Y0273498D01*
X0065975Y0273379D01*
X0066079Y0273256D01*
X0066180Y0273131D01*
X0066278Y0273004D01*
X0066373Y0272874D01*
X0066464Y0272742D01*
X0066553Y0272608D01*
X0066638Y0272471D01*
X0066719Y0272333D01*
X0066797Y0272192D01*
X0066872Y0272050D01*
X0066943Y0271906D01*
X0067010Y0271760D01*
X0067074Y0271612D01*
X0067134Y0271463D01*
X0067190Y0271313D01*
X0067243Y0271161D01*
X0067292Y0271008D01*
X0067337Y0270854D01*
X0067378Y0270699D01*
X0067416Y0270542D01*
X0067449Y0270385D01*
X0067479Y0270227D01*
X0067505Y0270069D01*
X0067526Y0269909D01*
X0067544Y0269750D01*
X0067558Y0269590D01*
X0067568Y0269429D01*
X0067574Y0269269D01*
X0067576Y0269108D01*
X0067574Y0268947D01*
X0067568Y0268787D01*
X0067558Y0268626D01*
X0067544Y0268466D01*
X0067526Y0268307D01*
X0067505Y0268147D01*
X0067479Y0267989D01*
X0067449Y0267831D01*
X0067416Y0267674D01*
X0067378Y0267517D01*
X0067337Y0267362D01*
X0067292Y0267208D01*
X0067243Y0267055D01*
X0067190Y0266903D01*
X0067134Y0266753D01*
X0067074Y0266604D01*
X0067010Y0266456D01*
X0066943Y0266310D01*
X0066872Y0266166D01*
X0066797Y0266024D01*
X0066719Y0265883D01*
X0066638Y0265745D01*
X0066553Y0265608D01*
X0066464Y0265474D01*
X0066373Y0265342D01*
X0066278Y0265212D01*
X0066180Y0265085D01*
X0066079Y0264960D01*
X0065975Y0264837D01*
X0065868Y0264718D01*
X0065758Y0264601D01*
X0065645Y0264486D01*
X0065529Y0264375D01*
X0065411Y0264266D01*
X0065290Y0264161D01*
X0065166Y0264058D01*
X0065040Y0263958D01*
X0064911Y0263862D01*
X0064780Y0263769D01*
X0064647Y0263679D01*
X0064512Y0263592D01*
X0064374Y0263509D01*
X0064235Y0263430D01*
X0064093Y0263353D01*
X0063950Y0263280D01*
X0063805Y0263211D01*
X0063658Y0263146D01*
X0063510Y0263084D01*
X0063360Y0263025D01*
X0063209Y0262971D01*
X0063057Y0262920D01*
X0062903Y0262873D01*
X0062748Y0262830D01*
X0062593Y0262791D01*
X0062436Y0262755D01*
X0062278Y0262723D01*
X0062120Y0262696D01*
X0061961Y0262672D01*
X0061802Y0262652D01*
X0061642Y0262636D01*
X0061481Y0262624D01*
X0061321Y0262616D01*
X0061160Y0262612D01*
X0061000Y0262612D01*
X0060839Y0262616D01*
X0060679Y0262624D01*
X0060518Y0262636D01*
X0060358Y0262652D01*
X0060199Y0262672D01*
X0060040Y0262696D01*
X0059882Y0262723D01*
X0059724Y0262755D01*
X0059567Y0262791D01*
X0059412Y0262830D01*
X0059257Y0262873D01*
X0059103Y0262920D01*
X0058951Y0262971D01*
X0058800Y0263025D01*
X0058650Y0263084D01*
X0058502Y0263146D01*
X0058355Y0263211D01*
X0058210Y0263280D01*
X0058067Y0263353D01*
X0057925Y0263430D01*
X0057786Y0263509D01*
X0057648Y0263592D01*
X0057513Y0263679D01*
X0057380Y0263769D01*
X0057249Y0263862D01*
X0057120Y0263958D01*
X0056994Y0264058D01*
X0056870Y0264161D01*
X0056749Y0264266D01*
X0056631Y0264375D01*
X0056515Y0264486D01*
X0056402Y0264601D01*
X0056292Y0264718D01*
X0056185Y0264837D01*
X0056081Y0264960D01*
X0055980Y0265085D01*
X0055882Y0265212D01*
X0055787Y0265342D01*
X0055696Y0265474D01*
X0055607Y0265608D01*
X0055522Y0265745D01*
X0055441Y0265883D01*
X0055363Y0266024D01*
X0055288Y0266166D01*
X0055217Y0266310D01*
X0055150Y0266456D01*
X0055086Y0266604D01*
X0055026Y0266753D01*
X0054970Y0266903D01*
X0054917Y0267055D01*
X0054868Y0267208D01*
X0054823Y0267362D01*
X0054782Y0267517D01*
X0054744Y0267674D01*
X0054711Y0267831D01*
X0054681Y0267989D01*
X0054655Y0268147D01*
X0054634Y0268307D01*
X0054616Y0268466D01*
X0054602Y0268626D01*
X0054592Y0268787D01*
X0054586Y0268947D01*
X0054584Y0269108D01*
M02*
