G75*
%MOIN*%
%OFA0B0*%
%FSLAX25Y25*%
%IPPOS*%
%LPD*%
%AMOC8*
5,1,8,0,0,1.08239X$1,22.5*
%
%ADD10R,0.02756X0.03543*%
%ADD11R,0.03543X0.02756*%
%ADD12R,0.02756X0.03937*%
%ADD13R,0.03937X0.04331*%
%ADD14R,0.05000X0.02200*%
%ADD15R,0.02200X0.05000*%
%ADD16R,0.08504X0.07008*%
%ADD17R,0.03150X0.03150*%
%ADD18R,0.11024X0.04724*%
%ADD19R,0.04331X0.03937*%
%ADD20R,0.02362X0.03543*%
%ADD21R,0.04724X0.05512*%
%ADD22R,0.05906X0.05118*%
%ADD23R,0.10630X0.06299*%
%ADD24R,0.05906X0.08268*%
%ADD25R,0.09449X0.07087*%
%ADD26R,0.03937X0.05512*%
%ADD27R,0.02362X0.08661*%
%ADD28R,0.05906X0.01378*%
%ADD29R,0.01378X0.05906*%
%ADD30R,0.08268X0.05906*%
%ADD31R,0.05512X0.03937*%
%ADD32R,0.06300X0.04600*%
%ADD33R,0.01024X0.02205*%
%ADD34R,0.02205X0.01024*%
%ADD35R,0.01575X0.01575*%
%ADD36R,0.01575X0.03150*%
%ADD37R,0.03150X0.01575*%
%ADD38R,0.05118X0.05906*%
D10*
X0056351Y0091352D03*
X0056351Y0095727D03*
X0056351Y0100102D03*
X0056351Y0104477D03*
X0056351Y0108852D03*
X0056351Y0113227D03*
X0053851Y0117602D03*
X0058969Y0117602D03*
X0061469Y0113227D03*
X0061469Y0108852D03*
X0061469Y0104477D03*
X0061469Y0100102D03*
X0061469Y0095727D03*
X0061469Y0091352D03*
X0057719Y0137602D03*
X0057719Y0141977D03*
X0057719Y0146352D03*
X0057719Y0150727D03*
X0057719Y0155102D03*
X0052601Y0155102D03*
X0052601Y0150727D03*
X0052601Y0146352D03*
X0052601Y0141977D03*
X0052601Y0137602D03*
X0066351Y0168852D03*
X0071469Y0168852D03*
X0076351Y0173852D03*
X0078851Y0178227D03*
X0080726Y0182602D03*
X0083969Y0178227D03*
X0085844Y0182602D03*
X0090726Y0182602D03*
X0090726Y0178227D03*
X0095844Y0178227D03*
X0095844Y0182602D03*
X0101351Y0182602D03*
X0106469Y0182602D03*
X0100219Y0173852D03*
X0095101Y0173852D03*
X0093226Y0168852D03*
X0098344Y0168852D03*
X0106351Y0160727D03*
X0106351Y0156352D03*
X0111469Y0156352D03*
X0111469Y0160727D03*
X0116351Y0160727D03*
X0116351Y0156352D03*
X0115219Y0151977D03*
X0114594Y0147602D03*
X0112094Y0143227D03*
X0112094Y0138852D03*
X0112094Y0134477D03*
X0113344Y0130102D03*
X0108226Y0130102D03*
X0106976Y0134477D03*
X0106976Y0138852D03*
X0106976Y0143227D03*
X0109476Y0147602D03*
X0110101Y0151977D03*
X0121469Y0156352D03*
X0121469Y0160727D03*
X0126351Y0160727D03*
X0125726Y0156352D03*
X0130844Y0156352D03*
X0131469Y0160727D03*
X0141351Y0148852D03*
X0141351Y0144477D03*
X0146469Y0144477D03*
X0146469Y0148852D03*
X0146469Y0138227D03*
X0146469Y0133852D03*
X0146469Y0129477D03*
X0146469Y0125102D03*
X0146469Y0120727D03*
X0141351Y0120727D03*
X0141351Y0125102D03*
X0141351Y0129477D03*
X0141351Y0133852D03*
X0141351Y0138227D03*
X0113969Y0121352D03*
X0108851Y0121352D03*
X0108851Y0101352D03*
X0108851Y0096977D03*
X0108851Y0092602D03*
X0108851Y0088227D03*
X0113969Y0088227D03*
X0113969Y0092602D03*
X0113969Y0096977D03*
X0113969Y0101352D03*
X0141351Y0085727D03*
X0146469Y0085727D03*
X0151351Y0070727D03*
X0156469Y0070727D03*
X0160726Y0070102D03*
X0165844Y0070102D03*
X0170101Y0070102D03*
X0170101Y0065727D03*
X0170101Y0061352D03*
X0170101Y0056977D03*
X0175219Y0056977D03*
X0175219Y0061352D03*
X0175219Y0065727D03*
X0175219Y0070102D03*
X0196976Y0145727D03*
X0195726Y0150102D03*
X0200844Y0150102D03*
X0202094Y0145727D03*
X0210726Y0145727D03*
X0215844Y0145727D03*
X0215726Y0150102D03*
X0220844Y0150102D03*
X0105844Y0198852D03*
X0100726Y0198852D03*
X0081469Y0173852D03*
X0082601Y0168852D03*
X0087719Y0168852D03*
X0073344Y0178227D03*
X0073344Y0182602D03*
X0068226Y0182602D03*
X0068226Y0178227D03*
X0063969Y0178227D03*
X0058851Y0178227D03*
X0056976Y0173227D03*
X0062094Y0173227D03*
X0101351Y0056977D03*
X0106469Y0056977D03*
D11*
X0113285Y0066293D03*
X0113285Y0071411D03*
X0147035Y0109418D03*
X0147035Y0114536D03*
X0156410Y0142543D03*
X0156410Y0147661D03*
X0162660Y0156293D03*
X0167035Y0156293D03*
X0171410Y0155668D03*
X0171410Y0160786D03*
X0175785Y0160786D03*
X0180160Y0160786D03*
X0180160Y0155668D03*
X0175785Y0155668D03*
X0167035Y0161411D03*
X0162660Y0161411D03*
X0157660Y0168168D03*
X0157660Y0173286D03*
X0157660Y0179418D03*
X0157660Y0184536D03*
X0163910Y0190668D03*
X0163910Y0195786D03*
X0178285Y0196411D03*
X0178285Y0191293D03*
X0145785Y0193286D03*
X0145785Y0188168D03*
X0132660Y0174536D03*
X0132660Y0169418D03*
X0102035Y0162661D03*
X0102035Y0157543D03*
X0102035Y0152036D03*
X0102035Y0146918D03*
X0102035Y0139536D03*
X0102035Y0134418D03*
X0068910Y0086411D03*
X0064535Y0086411D03*
X0064535Y0081293D03*
X0068910Y0081293D03*
X0062035Y0197543D03*
X0057035Y0197543D03*
X0057035Y0202661D03*
X0062035Y0202661D03*
X0051410Y0205043D03*
X0051410Y0210161D03*
X0051410Y0218793D03*
X0051410Y0223911D03*
X0051410Y0228168D03*
X0051410Y0233286D03*
X0186410Y0150161D03*
X0190785Y0150161D03*
X0190785Y0145043D03*
X0186410Y0145043D03*
X0222035Y0107036D03*
X0222035Y0101918D03*
X0222035Y0093286D03*
X0222035Y0088168D03*
X0222035Y0083911D03*
X0222035Y0078793D03*
X0222035Y0074536D03*
X0222035Y0069418D03*
X0222035Y0062661D03*
X0222035Y0057543D03*
X0222035Y0218793D03*
X0222035Y0223911D03*
X0222035Y0228168D03*
X0222035Y0233286D03*
D12*
X0059525Y0085682D03*
X0052045Y0085682D03*
X0055785Y0077021D03*
D13*
X0053064Y0123227D03*
X0053064Y0129477D03*
X0059757Y0129477D03*
X0059757Y0123227D03*
X0062882Y0163852D03*
X0056189Y0163852D03*
X0099939Y0078227D03*
X0106632Y0078227D03*
X0157660Y0156130D03*
X0157660Y0162823D03*
X0158910Y0189880D03*
X0158910Y0196573D03*
D14*
X0096435Y0157375D03*
X0096435Y0154226D03*
X0096435Y0151076D03*
X0096435Y0147926D03*
X0096435Y0144777D03*
X0096435Y0141627D03*
X0096435Y0138478D03*
X0096435Y0135328D03*
X0101435Y0114250D03*
X0101435Y0111101D03*
X0101435Y0107951D03*
X0101435Y0104801D03*
X0101435Y0101652D03*
X0101435Y0098502D03*
X0101435Y0095353D03*
X0101435Y0092203D03*
X0067635Y0092203D03*
X0067635Y0095353D03*
X0067635Y0098502D03*
X0067635Y0101652D03*
X0067635Y0104801D03*
X0067635Y0107951D03*
X0067635Y0111101D03*
X0067635Y0114250D03*
X0062635Y0135328D03*
X0062635Y0138478D03*
X0062635Y0141627D03*
X0062635Y0144777D03*
X0062635Y0147926D03*
X0062635Y0151076D03*
X0062635Y0154226D03*
X0062635Y0157375D03*
D15*
X0068512Y0163252D03*
X0071661Y0163252D03*
X0074811Y0163252D03*
X0077960Y0163252D03*
X0081110Y0163252D03*
X0084260Y0163252D03*
X0087409Y0163252D03*
X0090559Y0163252D03*
X0090559Y0129452D03*
X0087409Y0129452D03*
X0084260Y0129452D03*
X0081110Y0129452D03*
X0077960Y0129452D03*
X0074811Y0129452D03*
X0071661Y0129452D03*
X0068512Y0129452D03*
X0073512Y0120127D03*
X0076661Y0120127D03*
X0079811Y0120127D03*
X0082960Y0120127D03*
X0086110Y0120127D03*
X0089260Y0120127D03*
X0092409Y0120127D03*
X0095559Y0120127D03*
X0095559Y0086327D03*
X0092409Y0086327D03*
X0089260Y0086327D03*
X0086110Y0086327D03*
X0082960Y0086327D03*
X0079811Y0086327D03*
X0076661Y0086327D03*
X0073512Y0086327D03*
D16*
X0082035Y0073719D03*
X0082035Y0057695D03*
D17*
X0160332Y0056977D03*
X0160332Y0061352D03*
X0160332Y0065727D03*
X0166238Y0065727D03*
X0166238Y0061352D03*
X0166238Y0056977D03*
D18*
X0055160Y0057356D03*
X0055160Y0070348D03*
D19*
X0093910Y0072380D03*
X0093910Y0079073D03*
X0112660Y0076755D03*
X0112660Y0083448D03*
D20*
X0108275Y0071504D03*
X0104535Y0071504D03*
X0100795Y0071504D03*
X0100795Y0062449D03*
X0104535Y0062449D03*
X0108275Y0062449D03*
D21*
X0139939Y0071396D03*
X0146632Y0071396D03*
X0146632Y0080057D03*
X0139939Y0080057D03*
X0114757Y0107021D03*
X0108064Y0107021D03*
X0108064Y0115682D03*
X0114757Y0115682D03*
D22*
X0131410Y0073217D03*
X0131410Y0065737D03*
X0093910Y0065092D03*
X0093910Y0057612D03*
X0139535Y0188862D03*
X0139535Y0196342D03*
X0152035Y0196342D03*
X0152035Y0188862D03*
X0185160Y0189255D03*
X0185160Y0195948D03*
X0192035Y0196342D03*
X0192035Y0188862D03*
X0202660Y0188862D03*
X0202660Y0196342D03*
X0210785Y0196342D03*
X0210785Y0188862D03*
X0218910Y0188862D03*
X0218910Y0196342D03*
D23*
X0121410Y0077488D03*
X0121410Y0066465D03*
D24*
X0115574Y0058227D03*
X0129747Y0058227D03*
X0067247Y0242602D03*
X0053074Y0242602D03*
X0206824Y0242602D03*
X0220997Y0242602D03*
D25*
X0067660Y0073699D03*
X0067660Y0057754D03*
D26*
X0119545Y0166396D03*
X0113275Y0168271D03*
X0105795Y0168271D03*
X0109535Y0176932D03*
X0106420Y0188271D03*
X0099525Y0188271D03*
X0092045Y0188271D03*
X0087025Y0188271D03*
X0079545Y0188271D03*
X0074525Y0188271D03*
X0067045Y0188271D03*
X0062025Y0183271D03*
X0054545Y0183271D03*
X0058285Y0191932D03*
X0070785Y0196932D03*
X0064525Y0208271D03*
X0057045Y0208271D03*
X0060785Y0216932D03*
X0083285Y0196932D03*
X0095785Y0196932D03*
X0110160Y0196932D03*
X0113900Y0188271D03*
X0123285Y0175057D03*
X0127025Y0166396D03*
D27*
X0137660Y0160490D03*
X0142660Y0160490D03*
X0147660Y0160490D03*
X0152660Y0160490D03*
X0152660Y0180963D03*
X0147660Y0180963D03*
X0142660Y0180963D03*
X0137660Y0180963D03*
X0185785Y0179088D03*
X0190785Y0179088D03*
X0195785Y0179088D03*
X0200785Y0179088D03*
X0205785Y0179088D03*
X0210785Y0179088D03*
X0215785Y0179088D03*
X0220785Y0179088D03*
X0220785Y0158615D03*
X0215785Y0158615D03*
X0210785Y0158615D03*
X0205785Y0158615D03*
X0200785Y0158615D03*
X0195785Y0158615D03*
X0190785Y0158615D03*
X0185785Y0158615D03*
D28*
X0216031Y0131224D03*
X0216031Y0129255D03*
X0216031Y0127287D03*
X0216031Y0125318D03*
X0216031Y0123350D03*
X0216031Y0121381D03*
X0216031Y0119413D03*
X0216031Y0117444D03*
X0216031Y0115476D03*
X0216031Y0113507D03*
X0216031Y0111539D03*
X0216031Y0109570D03*
X0216031Y0107602D03*
X0216031Y0105633D03*
X0216031Y0103665D03*
X0216031Y0101696D03*
X0216031Y0099728D03*
X0216031Y0097759D03*
X0216031Y0095791D03*
X0216031Y0093822D03*
X0216031Y0091854D03*
X0216031Y0089885D03*
X0216031Y0087917D03*
X0216031Y0085948D03*
X0216031Y0083980D03*
X0153039Y0083980D03*
X0153039Y0085948D03*
X0153039Y0087917D03*
X0153039Y0089885D03*
X0153039Y0091854D03*
X0153039Y0093822D03*
X0153039Y0095791D03*
X0153039Y0097759D03*
X0153039Y0099728D03*
X0153039Y0101696D03*
X0153039Y0103665D03*
X0153039Y0105633D03*
X0153039Y0107602D03*
X0153039Y0109570D03*
X0153039Y0111539D03*
X0153039Y0113507D03*
X0153039Y0115476D03*
X0153039Y0117444D03*
X0153039Y0119413D03*
X0153039Y0121381D03*
X0153039Y0123350D03*
X0153039Y0125318D03*
X0153039Y0127287D03*
X0153039Y0129255D03*
X0153039Y0131224D03*
D29*
X0160913Y0139098D03*
X0162882Y0139098D03*
X0164850Y0139098D03*
X0166819Y0139098D03*
X0168787Y0139098D03*
X0170756Y0139098D03*
X0172724Y0139098D03*
X0174693Y0139098D03*
X0176661Y0139098D03*
X0178630Y0139098D03*
X0180598Y0139098D03*
X0182567Y0139098D03*
X0184535Y0139098D03*
X0186504Y0139098D03*
X0188472Y0139098D03*
X0190441Y0139098D03*
X0192409Y0139098D03*
X0194378Y0139098D03*
X0196346Y0139098D03*
X0198315Y0139098D03*
X0200283Y0139098D03*
X0202252Y0139098D03*
X0204220Y0139098D03*
X0206189Y0139098D03*
X0208157Y0139098D03*
X0208157Y0076106D03*
X0206189Y0076106D03*
X0204220Y0076106D03*
X0202252Y0076106D03*
X0200283Y0076106D03*
X0198315Y0076106D03*
X0196346Y0076106D03*
X0194378Y0076106D03*
X0192409Y0076106D03*
X0190441Y0076106D03*
X0188472Y0076106D03*
X0186504Y0076106D03*
X0184535Y0076106D03*
X0182567Y0076106D03*
X0180598Y0076106D03*
X0178630Y0076106D03*
X0176661Y0076106D03*
X0174693Y0076106D03*
X0172724Y0076106D03*
X0170756Y0076106D03*
X0168787Y0076106D03*
X0166819Y0076106D03*
X0164850Y0076106D03*
X0162882Y0076106D03*
X0160913Y0076106D03*
D30*
X0130160Y0183015D03*
X0120785Y0183015D03*
X0120785Y0197188D03*
X0130160Y0197188D03*
D31*
X0065741Y0231352D03*
X0057079Y0235092D03*
X0057079Y0227612D03*
X0207704Y0231352D03*
X0216366Y0235092D03*
X0216366Y0227612D03*
D32*
X0212035Y0221102D03*
X0212035Y0215102D03*
X0212035Y0209102D03*
X0202660Y0209102D03*
X0202660Y0215102D03*
X0202660Y0221102D03*
D33*
X0177003Y0184157D03*
X0175035Y0184157D03*
X0173066Y0184157D03*
X0171098Y0184157D03*
X0169129Y0184157D03*
X0167161Y0184157D03*
X0165192Y0184157D03*
X0165192Y0166047D03*
X0167161Y0166047D03*
X0169129Y0166047D03*
X0171098Y0166047D03*
X0173066Y0166047D03*
X0175035Y0166047D03*
X0177003Y0166047D03*
D34*
X0180153Y0169196D03*
X0180153Y0171165D03*
X0180153Y0173133D03*
X0180153Y0175102D03*
X0180153Y0177070D03*
X0180153Y0179039D03*
X0180153Y0181007D03*
X0162043Y0181007D03*
X0162043Y0179039D03*
X0162043Y0177070D03*
X0162043Y0175102D03*
X0162043Y0173133D03*
X0162043Y0171165D03*
X0162043Y0169196D03*
D35*
X0179365Y0183369D03*
D36*
X0173344Y0190702D03*
X0170785Y0190702D03*
X0168226Y0190702D03*
X0168226Y0197001D03*
X0170785Y0197001D03*
X0173344Y0197001D03*
D37*
X0172636Y0150161D03*
X0172636Y0147602D03*
X0172636Y0145043D03*
X0168310Y0145043D03*
X0168310Y0147602D03*
X0168310Y0150161D03*
X0162011Y0150161D03*
X0162011Y0147602D03*
X0162011Y0145043D03*
X0178935Y0145043D03*
X0178935Y0147602D03*
X0178935Y0150161D03*
D38*
X0149525Y0058852D03*
X0142045Y0058852D03*
M02*
