G75*
%MOIN*%
%OFA0B0*%
%FSLAX25Y25*%
%IPPOS*%
%LPD*%
%AMOC8*
5,1,8,0,0,1.08239X$1,22.5*
%
%ADD10R,0.04737X0.14186*%
%ADD11R,0.27572X0.38595*%
%ADD12R,0.06706X0.05918*%
%ADD13C,0.08477*%
%ADD14C,0.13792*%
%ADD15R,0.03500X0.06100*%
%ADD16C,0.08674*%
%ADD17OC8,0.06800*%
%ADD18R,0.05400X0.07100*%
%ADD19R,0.00600X0.07200*%
%ADD20C,0.03600*%
D10*
X0197660Y0126617D03*
X0217660Y0126617D03*
D11*
X0207660Y0166381D03*
D12*
X0217660Y0150092D03*
X0217660Y0142612D03*
D13*
X0188049Y0196302D03*
X0182143Y0206145D03*
X0176238Y0196302D03*
X0170332Y0206145D03*
X0164427Y0196302D03*
X0158521Y0206145D03*
X0152616Y0196302D03*
X0146710Y0206145D03*
X0140805Y0196302D03*
X0134899Y0206145D03*
X0128994Y0196302D03*
X0123088Y0206145D03*
X0117183Y0196302D03*
X0111277Y0206145D03*
X0105372Y0196302D03*
X0099466Y0206145D03*
X0093561Y0196302D03*
X0099466Y0219924D03*
X0093561Y0229767D03*
X0105372Y0229767D03*
X0111277Y0219924D03*
X0117183Y0229767D03*
X0123088Y0219924D03*
X0128994Y0229767D03*
X0134899Y0219924D03*
X0140805Y0229767D03*
X0146710Y0219924D03*
X0152616Y0229767D03*
X0158521Y0219924D03*
X0164427Y0229767D03*
X0170332Y0219924D03*
X0176238Y0229767D03*
X0182143Y0219924D03*
X0188049Y0229767D03*
D14*
X0216592Y0255358D03*
X0065017Y0255358D03*
D15*
X0194328Y0103473D03*
X0199328Y0103473D03*
X0204328Y0103473D03*
X0209328Y0103473D03*
X0209328Y0064723D03*
X0204328Y0064723D03*
X0199328Y0064723D03*
X0194328Y0064723D03*
D16*
X0195160Y0080102D03*
X0205160Y0080102D03*
X0185160Y0080102D03*
D17*
X0133285Y0085102D03*
X0133285Y0095102D03*
X0133285Y0105102D03*
X0133285Y0115102D03*
X0133285Y0125102D03*
X0133285Y0135102D03*
X0123285Y0135102D03*
X0123285Y0125102D03*
X0123285Y0115102D03*
X0123285Y0105102D03*
X0123285Y0095102D03*
X0123285Y0085102D03*
D18*
X0108785Y0087602D03*
X0102785Y0087602D03*
X0102785Y0096352D03*
X0108785Y0096352D03*
X0106410Y0167602D03*
X0100410Y0167602D03*
X0112410Y0167602D03*
G36*
X0195538Y0202929D02*
X0192838Y0207605D01*
X0198986Y0211155D01*
X0201686Y0206479D01*
X0195538Y0202929D01*
G37*
G36*
X0198538Y0197733D02*
X0195838Y0202409D01*
X0201986Y0205959D01*
X0204686Y0201283D01*
X0198538Y0197733D01*
G37*
G36*
X0201538Y0192537D02*
X0198838Y0197213D01*
X0204986Y0200763D01*
X0207686Y0196087D01*
X0201538Y0192537D01*
G37*
D19*
X0105785Y0096352D03*
X0105785Y0087602D03*
D20*
X0065160Y0056352D03*
X0067660Y0056352D03*
X0070160Y0056352D03*
X0070160Y0059477D03*
X0067660Y0059477D03*
X0065160Y0059477D03*
X0058910Y0070727D03*
X0055160Y0070727D03*
X0051410Y0070727D03*
X0052035Y0088852D03*
X0051410Y0093852D03*
X0053910Y0101977D03*
X0063910Y0095727D03*
X0063910Y0090727D03*
X0066410Y0101977D03*
X0072660Y0101977D03*
X0075785Y0095102D03*
X0075785Y0089477D03*
X0081410Y0085102D03*
X0077035Y0081352D03*
X0075160Y0076977D03*
X0080160Y0075102D03*
X0080160Y0071977D03*
X0083910Y0071977D03*
X0083910Y0075102D03*
X0088910Y0085102D03*
X0092660Y0084477D03*
X0096410Y0085102D03*
X0088285Y0094477D03*
X0088285Y0098227D03*
X0088285Y0101977D03*
X0092035Y0098227D03*
X0084535Y0098227D03*
X0098285Y0109477D03*
X0099535Y0113227D03*
X0100785Y0116977D03*
X0104535Y0116977D03*
X0094535Y0115102D03*
X0087035Y0121352D03*
X0084535Y0123852D03*
X0081410Y0125727D03*
X0076410Y0122602D03*
X0078910Y0132602D03*
X0076410Y0135102D03*
X0071410Y0132602D03*
X0068910Y0130102D03*
X0068285Y0136977D03*
X0067660Y0140727D03*
X0078910Y0144477D03*
X0075785Y0154477D03*
X0072660Y0159477D03*
X0068910Y0159477D03*
X0065160Y0159477D03*
X0062660Y0155102D03*
X0057035Y0153852D03*
X0055160Y0164477D03*
X0058285Y0176977D03*
X0058285Y0179477D03*
X0065785Y0179477D03*
X0065785Y0181977D03*
X0065785Y0184477D03*
X0064535Y0193227D03*
X0064535Y0195727D03*
X0051410Y0201352D03*
X0055785Y0213852D03*
X0058285Y0213852D03*
X0052660Y0187602D03*
X0077035Y0184477D03*
X0077035Y0181977D03*
X0077035Y0179477D03*
X0089535Y0179477D03*
X0089535Y0181977D03*
X0089535Y0184477D03*
X0103910Y0178852D03*
X0103910Y0176352D03*
X0107660Y0186977D03*
X0118285Y0170727D03*
X0116410Y0160102D03*
X0116410Y0157602D03*
X0111410Y0152602D03*
X0106410Y0150727D03*
X0102035Y0155102D03*
X0098285Y0160727D03*
X0102035Y0161977D03*
X0088910Y0164477D03*
X0085160Y0159477D03*
X0076410Y0164477D03*
X0091410Y0140102D03*
X0091410Y0127602D03*
X0091410Y0124477D03*
X0103910Y0129477D03*
X0106410Y0133852D03*
X0106410Y0138227D03*
X0114535Y0142602D03*
X0117660Y0130727D03*
X0115160Y0124477D03*
X0113910Y0111977D03*
X0117660Y0110102D03*
X0115785Y0106977D03*
X0117035Y0091977D03*
X0113285Y0081352D03*
X0110785Y0081352D03*
X0110785Y0078852D03*
X0113285Y0078852D03*
X0113285Y0076352D03*
X0110785Y0076352D03*
X0107035Y0078227D03*
X0094535Y0057602D03*
X0092035Y0057602D03*
X0128285Y0056977D03*
X0128285Y0059477D03*
X0130785Y0059477D03*
X0130785Y0056977D03*
X0139535Y0058852D03*
X0147035Y0073227D03*
X0140160Y0077602D03*
X0147035Y0082602D03*
X0160785Y0076977D03*
X0161410Y0081977D03*
X0163285Y0085102D03*
X0161410Y0088227D03*
X0163285Y0091352D03*
X0158910Y0096977D03*
X0158910Y0100727D03*
X0169535Y0110727D03*
X0172035Y0108227D03*
X0180785Y0113227D03*
X0183285Y0115727D03*
X0180785Y0118227D03*
X0175785Y0119477D03*
X0170785Y0119477D03*
X0162660Y0119477D03*
X0156410Y0121977D03*
X0156410Y0125727D03*
X0149535Y0130727D03*
X0152660Y0137602D03*
X0153910Y0140727D03*
X0156410Y0136977D03*
X0158910Y0144477D03*
X0158910Y0146977D03*
X0163910Y0150102D03*
X0168285Y0151977D03*
X0169535Y0146977D03*
X0168910Y0139477D03*
X0165160Y0138227D03*
X0178285Y0138852D03*
X0182660Y0134477D03*
X0188910Y0130727D03*
X0198285Y0141977D03*
X0203285Y0141977D03*
X0203285Y0144477D03*
X0207660Y0132602D03*
X0198910Y0115102D03*
X0182035Y0100102D03*
X0182035Y0096352D03*
X0182035Y0092602D03*
X0169535Y0083852D03*
X0167660Y0080727D03*
X0170785Y0078227D03*
X0167660Y0069477D03*
X0171410Y0068227D03*
X0177660Y0068852D03*
X0181410Y0068852D03*
X0187035Y0069477D03*
X0198285Y0070102D03*
X0203285Y0069477D03*
X0207660Y0072602D03*
X0217660Y0063852D03*
X0226410Y0065727D03*
X0230785Y0064477D03*
X0222035Y0083227D03*
X0210160Y0084477D03*
X0210160Y0088227D03*
X0210160Y0091977D03*
X0208910Y0056352D03*
X0205160Y0056352D03*
X0182660Y0056352D03*
X0177035Y0056352D03*
X0162035Y0056352D03*
X0155785Y0057602D03*
X0142035Y0098852D03*
X0146410Y0107602D03*
X0138285Y0120102D03*
X0143910Y0138852D03*
X0147660Y0138852D03*
X0148910Y0144477D03*
X0143910Y0153852D03*
X0143910Y0158852D03*
X0143910Y0161352D03*
X0138285Y0156977D03*
X0138285Y0154477D03*
X0127035Y0157602D03*
X0127035Y0160102D03*
X0127035Y0162602D03*
X0133285Y0169477D03*
X0133285Y0171977D03*
X0137660Y0171352D03*
X0140785Y0173227D03*
X0148910Y0170727D03*
X0154223Y0175102D03*
X0166410Y0186977D03*
X0170785Y0173227D03*
X0176410Y0167602D03*
X0181410Y0167602D03*
X0181410Y0162602D03*
X0176410Y0162602D03*
X0185785Y0150727D03*
X0188285Y0155102D03*
X0190785Y0151977D03*
X0190785Y0175727D03*
X0185160Y0186352D03*
X0199535Y0201352D03*
X0201410Y0202602D03*
X0198285Y0207602D03*
X0196410Y0206352D03*
X0202660Y0195727D03*
X0204535Y0196977D03*
X0210785Y0197602D03*
X0210785Y0195102D03*
X0210785Y0192602D03*
X0210785Y0190102D03*
X0216410Y0190102D03*
X0218910Y0190102D03*
X0222660Y0221352D03*
X0225160Y0221352D03*
X0223285Y0156352D03*
X0159535Y0158852D03*
X0139535Y0142602D03*
X0126410Y0143227D03*
X0055160Y0121352D03*
X0052660Y0133227D03*
M02*
