%
M48
M72
T01C0.01200
T02C0.04000
T03C0.05118
T04C0.12992
%
T01
X65160Y56352
X67660Y56352
X70160Y56352
X70160Y59477
X67660Y59477
X65160Y59477
X58910Y70727
X55160Y70727
X51410Y70727
X52035Y88852
X51410Y93852
X53910Y101977
X63910Y95727
X63910Y90727
X66410Y101977
X72660Y101977
X75785Y95102
X75785Y89477
X81410Y85102
X77035Y81352
X75160Y76977
X80160Y75102
X80160Y71977
X83910Y71977
X83910Y75102
X88910Y85102
X92660Y84477
X96410Y85102
X88285Y94477
X88285Y98227
X88285Y101977
X92035Y98227
X84535Y98227
X98285Y109477
X99535Y113227
X100785Y116977
X104535Y116977
X94535Y115102
X87035Y121352
X84535Y123852
X81410Y125727
X76410Y122602
X78910Y132602
X76410Y135102
X71410Y132602
X68910Y130102
X68285Y136977
X67660Y140727
X78910Y144477
X75785Y154477
X72660Y159477
X68910Y159477
X65160Y159477
X62660Y155102
X57035Y153852
X55160Y164477
X58285Y176977
X58285Y179477
X65785Y179477
X65785Y181977
X65785Y184477
X64535Y193227
X64535Y195727
X51410Y201352
X55785Y213852
X58285Y213852
X52660Y187602
X77035Y184477
X77035Y181977
X77035Y179477
X89535Y179477
X89535Y181977
X89535Y184477
X103910Y178852
X103910Y176352
X107660Y186977
X118285Y170727
X116410Y160102
X116410Y157602
X111410Y152602
X106410Y150727
X102035Y155102
X98285Y160727
X102035Y161977
X88910Y164477
X85160Y159477
X76410Y164477
X91410Y140102
X91410Y127602
X91410Y124477
X103910Y129477
X106410Y133852
X106410Y138227
X114535Y142602
X117660Y130727
X115160Y124477
X113910Y111977
X117660Y110102
X115785Y106977
X117035Y91977
X113285Y81352
X110785Y81352
X110785Y78852
X113285Y78852
X113285Y76352
X110785Y76352
X107035Y78227
X94535Y57602
X92035Y57602
X128285Y56977
X128285Y59477
X130785Y59477
X130785Y56977
X139535Y58852
X147035Y73227
X140160Y77602
X147035Y82602
X160785Y76977
X161410Y81977
X163285Y85102
X161410Y88227
X163285Y91352
X158910Y96977
X158910Y100727
X169535Y110727
X172035Y108227
X180785Y113227
X183285Y115727
X180785Y118227
X175785Y119477
X170785Y119477
X162660Y119477
X156410Y121977
X156410Y125727
X149535Y130727
X152660Y137602
X153910Y140727
X156410Y136977
X158910Y144477
X158910Y146977
X163910Y150102
X168285Y151977
X169535Y146977
X168910Y139477
X165160Y138227
X178285Y138852
X182660Y134477
X188910Y130727
X198285Y141977
X203285Y141977
X203285Y144477
X207660Y132602
X198910Y115102
X182035Y100102
X182035Y96352
X182035Y92602
X169535Y83852
X167660Y80727
X170785Y78227
X167660Y69477
X171410Y68227
X177660Y68852
X181410Y68852
X187035Y69477
X198285Y70102
X203285Y69477
X207660Y72602
X217660Y63852
X226410Y65727
X230785Y64477
X222035Y83227
X210160Y84477
X210160Y88227
X210160Y91977
X208910Y56352
X205160Y56352
X182660Y56352
X177035Y56352
X162035Y56352
X155785Y57602
X142035Y98852
X146410Y107602
X138285Y120102
X143910Y138852
X147660Y138852
X148910Y144477
X143910Y153852
X143910Y158852
X143910Y161352
X138285Y156977
X138285Y154477
X127035Y157602
X127035Y160102
X127035Y162602
X133285Y169477
X133285Y171977
X137660Y171352
X140785Y173227
X148910Y170727
X154223Y175102
X166410Y186977
X170785Y173227
X176410Y167602
X181410Y167602
X181410Y162602
X176410Y162602
X185785Y150727
X188285Y155102
X190785Y151977
X190785Y175727
X185160Y186352
X199535Y201352
X201410Y202602
X198285Y207602
X196410Y206352
X202660Y195727
X204535Y196977
X210785Y197602
X210785Y195102
X210785Y192602
X210785Y190102
X216410Y190102
X218910Y190102
X222660Y221352
X225160Y221352
X223285Y156352
X159535Y158852
X139535Y142602
X126410Y143227
X55160Y121352
X52660Y133227
T02
X123285Y135102
X123285Y125102
X133285Y125102
X133285Y135102
X133285Y115102
X123285Y115102
X123285Y105102
X123285Y95102
X133285Y95102
X133285Y105102
X133285Y85102
X123285Y85102
T03
X128994Y196302
X134899Y206145
X140805Y196302
X146710Y206145
X152616Y196302
X158521Y206145
X164427Y196302
X170332Y206145
X176238Y196302
X182143Y206145
X188049Y196302
X182143Y219924
X176238Y229767
X170332Y219924
X164427Y229767
X158521Y219924
X152616Y229767
X146710Y219924
X140805Y229767
X134899Y219924
X128994Y229767
X123088Y219924
X117183Y229767
X111277Y219924
X105372Y229767
X99466Y219924
X93561Y229767
X99466Y206145
X93561Y196302
X105372Y196302
X111277Y206145
X117183Y196302
X123088Y206145
X188049Y229767
T04
X216592Y255358
X65017Y255358
M30
