G75*
%MOIN*%
%OFA0B0*%
%FSLAX25Y25*%
%IPPOS*%
%LPD*%
%AMOC8*
5,1,8,0,0,1.08239X$1,22.5*
%
%ADD10R,0.04737X0.14186*%
%ADD11R,0.27572X0.38595*%
%ADD12R,0.06706X0.05918*%
%ADD13C,0.08477*%
%ADD14C,0.13792*%
%ADD15R,0.03500X0.06100*%
%ADD16R,0.05400X0.07100*%
%ADD17OC8,0.06800*%
%ADD18R,0.02375X0.04737*%
%ADD19C,0.03600*%
D10*
X0188910Y0140367D03*
X0208910Y0140367D03*
D11*
X0198910Y0180131D03*
D12*
X0208910Y0163842D03*
X0208910Y0156362D03*
D13*
X0182862Y0210052D03*
X0176956Y0219895D03*
X0171051Y0210052D03*
X0165145Y0219895D03*
X0159240Y0210052D03*
X0153334Y0219895D03*
X0147429Y0210052D03*
X0141523Y0219895D03*
X0135618Y0210052D03*
X0129712Y0219895D03*
X0123807Y0210052D03*
X0117901Y0219895D03*
X0111996Y0210052D03*
X0106090Y0219895D03*
X0100185Y0210052D03*
X0094279Y0219895D03*
X0088374Y0210052D03*
X0094279Y0233674D03*
X0088374Y0243517D03*
X0100185Y0243517D03*
X0106090Y0233674D03*
X0111996Y0243517D03*
X0117901Y0233674D03*
X0123807Y0243517D03*
X0129712Y0233674D03*
X0135618Y0243517D03*
X0141523Y0233674D03*
X0147429Y0243517D03*
X0153334Y0233674D03*
X0159240Y0243517D03*
X0165145Y0233674D03*
X0171051Y0243517D03*
X0176956Y0233674D03*
X0182862Y0243517D03*
D14*
X0211405Y0269108D03*
X0059830Y0269108D03*
D15*
X0193078Y0117223D03*
X0198078Y0117223D03*
X0203078Y0117223D03*
X0208078Y0117223D03*
X0208078Y0078473D03*
X0203078Y0078473D03*
X0198078Y0078473D03*
X0193078Y0078473D03*
D16*
X0111160Y0181352D03*
X0105160Y0181352D03*
X0099160Y0181352D03*
D17*
X0122035Y0147602D03*
X0132035Y0147602D03*
X0132035Y0137602D03*
X0132035Y0127602D03*
X0122035Y0127602D03*
X0122035Y0137602D03*
X0122035Y0117602D03*
X0122035Y0107602D03*
X0132035Y0107602D03*
X0132035Y0117602D03*
X0132035Y0097602D03*
X0122035Y0097602D03*
X0122035Y0087602D03*
X0132035Y0087602D03*
X0193285Y0067602D03*
X0193285Y0057602D03*
X0203285Y0057602D03*
X0203285Y0067602D03*
X0213285Y0067602D03*
X0213285Y0057602D03*
D18*
X0153287Y0164275D03*
X0150787Y0164275D03*
X0148287Y0164275D03*
X0145787Y0164275D03*
X0143283Y0164275D03*
X0140783Y0164275D03*
X0138283Y0164275D03*
X0135783Y0164275D03*
X0135783Y0185928D03*
X0138283Y0185928D03*
X0140783Y0185928D03*
X0143283Y0185928D03*
X0145787Y0185928D03*
X0148287Y0185928D03*
X0150787Y0185928D03*
X0153287Y0185928D03*
D19*
X0050160Y0070727D03*
X0053910Y0070727D03*
X0057660Y0070727D03*
X0063910Y0059477D03*
X0066410Y0059477D03*
X0068910Y0059477D03*
X0068910Y0056352D03*
X0066410Y0056352D03*
X0063910Y0056352D03*
X0078910Y0071977D03*
X0078910Y0075102D03*
X0082660Y0075102D03*
X0082660Y0071977D03*
X0082035Y0080102D03*
X0087660Y0091352D03*
X0091410Y0092602D03*
X0095160Y0098852D03*
X0095160Y0104477D03*
X0091410Y0115102D03*
X0087660Y0115102D03*
X0098285Y0130102D03*
X0103285Y0130727D03*
X0102660Y0143227D03*
X0105160Y0147602D03*
X0105160Y0151977D03*
X0113285Y0156352D03*
X0110160Y0166352D03*
X0105160Y0164477D03*
X0100785Y0168852D03*
X0097035Y0174477D03*
X0100785Y0175727D03*
X0087660Y0178227D03*
X0083910Y0173227D03*
X0075160Y0178227D03*
X0071410Y0173227D03*
X0067660Y0173227D03*
X0063910Y0173227D03*
X0061410Y0168852D03*
X0055785Y0167602D03*
X0053910Y0178227D03*
X0057035Y0190727D03*
X0057035Y0193227D03*
X0064535Y0193227D03*
X0064535Y0195727D03*
X0064535Y0198227D03*
X0063285Y0206977D03*
X0063285Y0209477D03*
X0051410Y0201352D03*
X0050160Y0215102D03*
X0054535Y0227602D03*
X0057035Y0227602D03*
X0075785Y0198227D03*
X0075785Y0195727D03*
X0075785Y0193227D03*
X0088285Y0193227D03*
X0088285Y0195727D03*
X0088285Y0198227D03*
X0102660Y0192602D03*
X0102660Y0190102D03*
X0106410Y0200727D03*
X0112035Y0191352D03*
X0112035Y0188852D03*
X0117660Y0184477D03*
X0125785Y0176352D03*
X0125785Y0173852D03*
X0125785Y0171352D03*
X0115160Y0171352D03*
X0115160Y0173852D03*
X0125160Y0156977D03*
X0116410Y0144477D03*
X0113910Y0138227D03*
X0115160Y0130102D03*
X0113910Y0121352D03*
X0107035Y0101352D03*
X0113285Y0096977D03*
X0107035Y0088227D03*
X0109535Y0083852D03*
X0112035Y0083852D03*
X0112035Y0081352D03*
X0109535Y0081352D03*
X0109535Y0078852D03*
X0112035Y0078852D03*
X0105785Y0078227D03*
X0093910Y0057602D03*
X0091410Y0057602D03*
X0074535Y0091352D03*
X0074535Y0095102D03*
X0074535Y0098852D03*
X0078285Y0096352D03*
X0071410Y0105102D03*
X0071410Y0110727D03*
X0066410Y0118227D03*
X0054535Y0113227D03*
X0054535Y0108852D03*
X0054535Y0104477D03*
X0054535Y0100102D03*
X0054535Y0095727D03*
X0052035Y0083852D03*
X0085785Y0135102D03*
X0083285Y0137602D03*
X0080160Y0139477D03*
X0077660Y0146352D03*
X0073285Y0150727D03*
X0068910Y0151352D03*
X0066410Y0154477D03*
X0067660Y0143852D03*
X0072660Y0143852D03*
X0075160Y0136352D03*
X0082035Y0153852D03*
X0077660Y0158227D03*
X0074535Y0168227D03*
X0050785Y0150727D03*
X0050785Y0146352D03*
X0050785Y0141977D03*
X0090160Y0141352D03*
X0090160Y0138227D03*
X0137035Y0133852D03*
X0145160Y0121352D03*
X0140785Y0112602D03*
X0145785Y0108227D03*
X0145785Y0096352D03*
X0138910Y0091352D03*
X0133910Y0080102D03*
X0130160Y0078227D03*
X0138910Y0070727D03*
X0145160Y0080727D03*
X0155785Y0070727D03*
X0166410Y0083227D03*
X0170160Y0081977D03*
X0176410Y0082602D03*
X0180160Y0082602D03*
X0175785Y0070102D03*
X0185160Y0070102D03*
X0185160Y0065727D03*
X0185160Y0061352D03*
X0178285Y0056977D03*
X0173910Y0056977D03*
X0157660Y0056977D03*
X0129535Y0056977D03*
X0129535Y0059477D03*
X0127035Y0059477D03*
X0127035Y0056977D03*
X0159535Y0090727D03*
X0158910Y0094477D03*
X0160785Y0097602D03*
X0158285Y0100102D03*
X0160785Y0102602D03*
X0157660Y0110102D03*
X0157660Y0113852D03*
X0168285Y0113852D03*
X0170785Y0121352D03*
X0168285Y0123852D03*
X0169535Y0133227D03*
X0174535Y0133227D03*
X0179535Y0131977D03*
X0182035Y0129477D03*
X0179535Y0126977D03*
X0179535Y0123227D03*
X0192660Y0123227D03*
X0198910Y0133852D03*
X0213285Y0139477D03*
X0213285Y0141977D03*
X0208910Y0150102D03*
X0203285Y0151977D03*
X0194535Y0155727D03*
X0194535Y0158227D03*
X0189535Y0155727D03*
X0181410Y0152602D03*
X0181410Y0148227D03*
X0181410Y0144477D03*
X0169535Y0152602D03*
X0163910Y0151977D03*
X0160785Y0155102D03*
X0160785Y0160727D03*
X0156410Y0160727D03*
X0158285Y0164477D03*
X0156410Y0168227D03*
X0156410Y0174477D03*
X0152035Y0179477D03*
X0148285Y0179477D03*
X0144535Y0179477D03*
X0140785Y0179477D03*
X0138285Y0181977D03*
X0143285Y0160102D03*
X0148285Y0160102D03*
X0146410Y0152602D03*
X0142660Y0152602D03*
X0137660Y0156352D03*
X0148285Y0144477D03*
X0151410Y0151352D03*
X0155160Y0150727D03*
X0155160Y0139477D03*
X0156410Y0135727D03*
X0161410Y0133227D03*
X0165160Y0160727D03*
X0167348Y0172602D03*
X0167348Y0177602D03*
X0172348Y0177602D03*
X0172348Y0172602D03*
X0179535Y0165102D03*
X0177035Y0188227D03*
X0177035Y0199477D03*
X0160785Y0184477D03*
X0157660Y0200727D03*
X0199535Y0208852D03*
X0202035Y0208852D03*
X0209535Y0215102D03*
X0212035Y0215102D03*
X0219535Y0213852D03*
X0219535Y0211352D03*
X0212035Y0202602D03*
X0209535Y0202602D03*
X0202035Y0221352D03*
X0199535Y0221352D03*
X0213910Y0235102D03*
X0216410Y0235102D03*
X0179535Y0110102D03*
X0179535Y0106352D03*
X0167035Y0090727D03*
X0163285Y0090727D03*
X0199535Y0085102D03*
X0203285Y0085102D03*
X0208910Y0101977D03*
X0208910Y0105727D03*
X0220785Y0096352D03*
X0220785Y0066352D03*
X0220785Y0056977D03*
M02*
