G75*
%MOIN*%
%OFA0B0*%
%FSLAX25Y25*%
%IPPOS*%
%LPD*%
%AMOC8*
5,1,8,0,0,1.08239X$1,22.5*
%
%ADD10R,0.02756X0.03543*%
%ADD11R,0.03543X0.02756*%
%ADD12R,0.02756X0.03937*%
%ADD13R,0.03937X0.04331*%
%ADD14R,0.05000X0.02200*%
%ADD15R,0.02200X0.05000*%
%ADD16R,0.08504X0.07008*%
%ADD17R,0.03150X0.03150*%
%ADD18R,0.11024X0.04724*%
%ADD19R,0.04331X0.03937*%
%ADD20R,0.02362X0.03543*%
%ADD21R,0.04724X0.05512*%
%ADD22R,0.05906X0.05118*%
%ADD23R,0.10630X0.06299*%
%ADD24R,0.05906X0.08268*%
%ADD25R,0.09449X0.07087*%
%ADD26R,0.03937X0.05512*%
%ADD27R,0.02362X0.08661*%
%ADD28R,0.05906X0.01378*%
%ADD29R,0.01378X0.05906*%
%ADD30R,0.05512X0.03937*%
%ADD31R,0.06300X0.04600*%
%ADD32R,0.01024X0.02205*%
%ADD33R,0.02205X0.01024*%
%ADD34R,0.01575X0.01575*%
%ADD35R,0.05118X0.05906*%
%ADD36R,0.01575X0.03150*%
%ADD37R,0.02756X0.01181*%
D10*
X0055101Y0091352D03*
X0055101Y0095727D03*
X0055101Y0100102D03*
X0055101Y0104477D03*
X0055101Y0108852D03*
X0055101Y0113227D03*
X0052601Y0117602D03*
X0057719Y0117602D03*
X0060219Y0113227D03*
X0060219Y0108852D03*
X0060219Y0104477D03*
X0060219Y0100102D03*
X0060219Y0095727D03*
X0060219Y0091352D03*
X0056469Y0137602D03*
X0056469Y0141977D03*
X0056469Y0146352D03*
X0056469Y0150727D03*
X0056469Y0155102D03*
X0051351Y0155102D03*
X0051351Y0150727D03*
X0051351Y0146352D03*
X0051351Y0141977D03*
X0051351Y0137602D03*
X0065101Y0168852D03*
X0070219Y0168852D03*
X0075101Y0173227D03*
X0072094Y0178227D03*
X0072094Y0182602D03*
X0066976Y0182602D03*
X0066976Y0178227D03*
X0062719Y0178227D03*
X0057601Y0178227D03*
X0055726Y0173227D03*
X0060844Y0173227D03*
X0079476Y0178227D03*
X0079476Y0182602D03*
X0084594Y0182602D03*
X0084594Y0178227D03*
X0080219Y0173227D03*
X0081351Y0168852D03*
X0086469Y0168852D03*
X0091976Y0168852D03*
X0097094Y0168852D03*
X0104476Y0170727D03*
X0104476Y0175102D03*
X0109594Y0175102D03*
X0109594Y0170727D03*
X0110219Y0160727D03*
X0110219Y0156352D03*
X0108851Y0151977D03*
X0108226Y0147602D03*
X0105726Y0143227D03*
X0105726Y0138852D03*
X0105726Y0134477D03*
X0106976Y0130102D03*
X0110844Y0134477D03*
X0112094Y0130102D03*
X0110844Y0138852D03*
X0110844Y0143227D03*
X0113344Y0147602D03*
X0113969Y0151977D03*
X0116976Y0156352D03*
X0116976Y0160727D03*
X0122094Y0160727D03*
X0122094Y0156352D03*
X0129476Y0156352D03*
X0129476Y0160727D03*
X0134594Y0160727D03*
X0134594Y0156352D03*
X0140101Y0148852D03*
X0140101Y0144477D03*
X0145219Y0144477D03*
X0145219Y0148852D03*
X0145219Y0138227D03*
X0145219Y0133852D03*
X0145219Y0129477D03*
X0145219Y0125102D03*
X0140101Y0125102D03*
X0140101Y0129477D03*
X0140101Y0133852D03*
X0140101Y0138227D03*
X0112719Y0121352D03*
X0107601Y0121352D03*
X0107601Y0101352D03*
X0107601Y0096977D03*
X0107601Y0092602D03*
X0107601Y0088227D03*
X0112719Y0088227D03*
X0112719Y0092602D03*
X0112719Y0096977D03*
X0112719Y0101352D03*
X0140101Y0085727D03*
X0145219Y0085727D03*
X0150101Y0070727D03*
X0155219Y0070727D03*
X0167601Y0070102D03*
X0172719Y0070102D03*
X0176976Y0065727D03*
X0176976Y0061352D03*
X0178851Y0056977D03*
X0183969Y0056977D03*
X0182094Y0061352D03*
X0182094Y0065727D03*
X0184594Y0070102D03*
X0179476Y0070102D03*
X0163344Y0056977D03*
X0158226Y0056977D03*
X0105219Y0056977D03*
X0100101Y0056977D03*
X0105101Y0156352D03*
X0105101Y0160727D03*
X0097094Y0178227D03*
X0097094Y0182602D03*
X0091976Y0182602D03*
X0091976Y0178227D03*
X0104476Y0196352D03*
X0109594Y0196352D03*
X0140726Y0175727D03*
X0145844Y0175727D03*
X0146976Y0183227D03*
X0152094Y0183227D03*
X0194476Y0150102D03*
X0195726Y0145727D03*
X0200844Y0145727D03*
X0199594Y0150102D03*
X0209476Y0145727D03*
X0214594Y0145727D03*
X0214476Y0150102D03*
X0219594Y0150102D03*
D11*
X0189535Y0150161D03*
X0185160Y0150161D03*
X0185160Y0145043D03*
X0189535Y0145043D03*
X0178285Y0155668D03*
X0178285Y0160786D03*
X0173910Y0160786D03*
X0173910Y0155668D03*
X0169535Y0155668D03*
X0165160Y0155668D03*
X0165160Y0160786D03*
X0169535Y0160786D03*
X0160785Y0160786D03*
X0160785Y0155668D03*
X0156410Y0155668D03*
X0156410Y0160786D03*
X0156410Y0168793D03*
X0156410Y0173911D03*
X0156410Y0179418D03*
X0156410Y0184536D03*
X0162660Y0190668D03*
X0162660Y0195786D03*
X0177035Y0196411D03*
X0177035Y0191293D03*
X0155160Y0147661D03*
X0155160Y0142543D03*
X0140785Y0120786D03*
X0145160Y0117036D03*
X0140785Y0115668D03*
X0145160Y0111918D03*
X0145785Y0104536D03*
X0145785Y0099418D03*
X0112035Y0072036D03*
X0112035Y0066918D03*
X0064535Y0081293D03*
X0064535Y0086411D03*
X0100785Y0134418D03*
X0100785Y0139536D03*
X0100785Y0146918D03*
X0100785Y0152036D03*
X0100785Y0157543D03*
X0100785Y0162661D03*
X0060785Y0197543D03*
X0055785Y0197543D03*
X0055785Y0202661D03*
X0060785Y0202661D03*
X0050160Y0205043D03*
X0050160Y0210161D03*
X0050160Y0218793D03*
X0050160Y0223911D03*
X0050160Y0228168D03*
X0050160Y0233286D03*
X0220785Y0233286D03*
X0220785Y0228168D03*
X0220785Y0223911D03*
X0220785Y0218793D03*
X0220785Y0107036D03*
X0220785Y0101918D03*
X0220785Y0093286D03*
X0220785Y0088168D03*
X0220785Y0083911D03*
X0220785Y0078793D03*
X0220785Y0074536D03*
X0220785Y0069418D03*
X0220785Y0062661D03*
X0220785Y0057543D03*
D12*
X0059525Y0085682D03*
X0052045Y0085682D03*
X0055785Y0077021D03*
D13*
X0058507Y0123227D03*
X0058507Y0129477D03*
X0051814Y0129477D03*
X0051814Y0123227D03*
X0054939Y0163852D03*
X0061632Y0163852D03*
X0098689Y0078227D03*
X0105382Y0078227D03*
X0157660Y0189880D03*
X0157660Y0196573D03*
D14*
X0095185Y0157375D03*
X0095185Y0154226D03*
X0095185Y0151076D03*
X0095185Y0147926D03*
X0095185Y0144777D03*
X0095185Y0141627D03*
X0095185Y0138478D03*
X0095185Y0135328D03*
X0100185Y0114250D03*
X0100185Y0111101D03*
X0100185Y0107951D03*
X0100185Y0104801D03*
X0100185Y0101652D03*
X0100185Y0098502D03*
X0100185Y0095353D03*
X0100185Y0092203D03*
X0066385Y0092203D03*
X0066385Y0095353D03*
X0066385Y0098502D03*
X0066385Y0101652D03*
X0066385Y0104801D03*
X0066385Y0107951D03*
X0066385Y0111101D03*
X0066385Y0114250D03*
X0061385Y0135328D03*
X0061385Y0138478D03*
X0061385Y0141627D03*
X0061385Y0144777D03*
X0061385Y0147926D03*
X0061385Y0151076D03*
X0061385Y0154226D03*
X0061385Y0157375D03*
D15*
X0067262Y0163252D03*
X0070411Y0163252D03*
X0073561Y0163252D03*
X0076710Y0163252D03*
X0079860Y0163252D03*
X0083010Y0163252D03*
X0086159Y0163252D03*
X0089309Y0163252D03*
X0089309Y0129452D03*
X0086159Y0129452D03*
X0083010Y0129452D03*
X0079860Y0129452D03*
X0076710Y0129452D03*
X0073561Y0129452D03*
X0070411Y0129452D03*
X0067262Y0129452D03*
X0072262Y0120127D03*
X0075411Y0120127D03*
X0078561Y0120127D03*
X0081710Y0120127D03*
X0084860Y0120127D03*
X0088010Y0120127D03*
X0091159Y0120127D03*
X0094309Y0120127D03*
X0094309Y0086327D03*
X0091159Y0086327D03*
X0088010Y0086327D03*
X0084860Y0086327D03*
X0081710Y0086327D03*
X0078561Y0086327D03*
X0075411Y0086327D03*
X0072262Y0086327D03*
D16*
X0080785Y0073758D03*
X0080785Y0057735D03*
D17*
X0167207Y0056977D03*
X0167207Y0061352D03*
X0167207Y0065727D03*
X0173113Y0065727D03*
X0173113Y0061352D03*
X0173113Y0056977D03*
D18*
X0053910Y0057356D03*
X0053910Y0070348D03*
D19*
X0092035Y0072380D03*
X0092035Y0079073D03*
D20*
X0099545Y0071504D03*
X0103285Y0071504D03*
X0107025Y0071504D03*
X0107025Y0062449D03*
X0103285Y0062449D03*
X0099545Y0062449D03*
D21*
X0106814Y0107021D03*
X0113507Y0107021D03*
X0113507Y0115682D03*
X0106814Y0115682D03*
X0138689Y0080057D03*
X0145382Y0080057D03*
X0145382Y0071396D03*
X0138689Y0071396D03*
D22*
X0130160Y0073217D03*
X0130160Y0065737D03*
X0092660Y0065092D03*
X0092660Y0057612D03*
X0142660Y0188862D03*
X0142660Y0196342D03*
X0150785Y0196342D03*
X0150785Y0188862D03*
X0183910Y0189255D03*
X0183910Y0195948D03*
X0190785Y0196342D03*
X0190785Y0188862D03*
X0201410Y0188862D03*
X0201410Y0196342D03*
X0209535Y0196342D03*
X0209535Y0188862D03*
X0217660Y0188862D03*
X0217660Y0196342D03*
D23*
X0120160Y0077488D03*
X0120160Y0066465D03*
D24*
X0114324Y0058227D03*
X0128497Y0058227D03*
X0131622Y0184477D03*
X0131622Y0194477D03*
X0117449Y0194477D03*
X0117449Y0184477D03*
X0065997Y0242602D03*
X0051824Y0242602D03*
X0205574Y0242602D03*
X0219747Y0242602D03*
D25*
X0066410Y0073699D03*
X0066410Y0057754D03*
D26*
X0115795Y0166396D03*
X0123275Y0166396D03*
X0128295Y0166396D03*
X0135775Y0166396D03*
X0132035Y0175057D03*
X0119535Y0175057D03*
X0110775Y0180771D03*
X0103295Y0180771D03*
X0098275Y0188271D03*
X0090795Y0188271D03*
X0085775Y0188271D03*
X0078295Y0188271D03*
X0073275Y0188271D03*
X0065795Y0188271D03*
X0060775Y0183271D03*
X0057035Y0191932D03*
X0053295Y0183271D03*
X0069535Y0196932D03*
X0063275Y0208271D03*
X0055795Y0208271D03*
X0059535Y0216932D03*
X0082035Y0196932D03*
X0094535Y0196932D03*
X0107035Y0189432D03*
D27*
X0184535Y0179088D03*
X0189535Y0179088D03*
X0194535Y0179088D03*
X0199535Y0179088D03*
X0204535Y0179088D03*
X0209535Y0179088D03*
X0214535Y0179088D03*
X0219535Y0179088D03*
X0219535Y0158615D03*
X0214535Y0158615D03*
X0209535Y0158615D03*
X0204535Y0158615D03*
X0199535Y0158615D03*
X0194535Y0158615D03*
X0189535Y0158615D03*
X0184535Y0158615D03*
D28*
X0214781Y0131224D03*
X0214781Y0129255D03*
X0214781Y0127287D03*
X0214781Y0125318D03*
X0214781Y0123350D03*
X0214781Y0121381D03*
X0214781Y0119413D03*
X0214781Y0117444D03*
X0214781Y0115476D03*
X0214781Y0113507D03*
X0214781Y0111539D03*
X0214781Y0109570D03*
X0214781Y0107602D03*
X0214781Y0105633D03*
X0214781Y0103665D03*
X0214781Y0101696D03*
X0214781Y0099728D03*
X0214781Y0097759D03*
X0214781Y0095791D03*
X0214781Y0093822D03*
X0214781Y0091854D03*
X0214781Y0089885D03*
X0214781Y0087917D03*
X0214781Y0085948D03*
X0214781Y0083980D03*
X0151789Y0083980D03*
X0151789Y0085948D03*
X0151789Y0087917D03*
X0151789Y0089885D03*
X0151789Y0091854D03*
X0151789Y0093822D03*
X0151789Y0095791D03*
X0151789Y0097759D03*
X0151789Y0099728D03*
X0151789Y0101696D03*
X0151789Y0103665D03*
X0151789Y0105633D03*
X0151789Y0107602D03*
X0151789Y0109570D03*
X0151789Y0111539D03*
X0151789Y0113507D03*
X0151789Y0115476D03*
X0151789Y0117444D03*
X0151789Y0119413D03*
X0151789Y0121381D03*
X0151789Y0123350D03*
X0151789Y0125318D03*
X0151789Y0127287D03*
X0151789Y0129255D03*
X0151789Y0131224D03*
D29*
X0159663Y0139098D03*
X0161632Y0139098D03*
X0163600Y0139098D03*
X0165569Y0139098D03*
X0167537Y0139098D03*
X0169506Y0139098D03*
X0171474Y0139098D03*
X0173443Y0139098D03*
X0175411Y0139098D03*
X0177380Y0139098D03*
X0179348Y0139098D03*
X0181317Y0139098D03*
X0183285Y0139098D03*
X0185254Y0139098D03*
X0187222Y0139098D03*
X0189191Y0139098D03*
X0191159Y0139098D03*
X0193128Y0139098D03*
X0195096Y0139098D03*
X0197065Y0139098D03*
X0199033Y0139098D03*
X0201002Y0139098D03*
X0202970Y0139098D03*
X0204939Y0139098D03*
X0206907Y0139098D03*
X0206907Y0076106D03*
X0204939Y0076106D03*
X0202970Y0076106D03*
X0201002Y0076106D03*
X0199033Y0076106D03*
X0197065Y0076106D03*
X0195096Y0076106D03*
X0193128Y0076106D03*
X0191159Y0076106D03*
X0189191Y0076106D03*
X0187222Y0076106D03*
X0185254Y0076106D03*
X0183285Y0076106D03*
X0181317Y0076106D03*
X0179348Y0076106D03*
X0177380Y0076106D03*
X0175411Y0076106D03*
X0173443Y0076106D03*
X0171474Y0076106D03*
X0169506Y0076106D03*
X0167537Y0076106D03*
X0165569Y0076106D03*
X0163600Y0076106D03*
X0161632Y0076106D03*
X0159663Y0076106D03*
D30*
X0215116Y0227612D03*
X0215116Y0235092D03*
X0206454Y0231352D03*
X0064491Y0231352D03*
X0055829Y0235092D03*
X0055829Y0227612D03*
D31*
X0200861Y0221103D03*
X0200861Y0215103D03*
X0200861Y0209103D03*
X0210785Y0209102D03*
X0210785Y0215102D03*
X0210785Y0221102D03*
D32*
X0175753Y0184157D03*
X0173785Y0184157D03*
X0171816Y0184157D03*
X0169848Y0184157D03*
X0167879Y0184157D03*
X0165911Y0184157D03*
X0163942Y0184157D03*
X0163942Y0166047D03*
X0165911Y0166047D03*
X0167879Y0166047D03*
X0169848Y0166047D03*
X0171816Y0166047D03*
X0173785Y0166047D03*
X0175753Y0166047D03*
D33*
X0178903Y0169196D03*
X0178903Y0171165D03*
X0178903Y0173133D03*
X0178903Y0175102D03*
X0178903Y0177070D03*
X0178903Y0179039D03*
X0178903Y0181007D03*
X0160793Y0181007D03*
X0160793Y0179039D03*
X0160793Y0177070D03*
X0160793Y0175102D03*
X0160793Y0173133D03*
X0160793Y0171165D03*
X0160793Y0169196D03*
D34*
X0178115Y0183369D03*
D35*
X0149525Y0170102D03*
X0142045Y0170102D03*
X0140795Y0058852D03*
X0148275Y0058852D03*
D36*
X0166976Y0190702D03*
X0169535Y0190702D03*
X0172094Y0190702D03*
X0172094Y0197001D03*
X0169535Y0197001D03*
X0166976Y0197001D03*
D37*
X0167060Y0150161D03*
X0167060Y0147602D03*
X0167060Y0145043D03*
X0171386Y0145043D03*
X0171386Y0147602D03*
X0171386Y0150161D03*
X0177685Y0150161D03*
X0177685Y0147602D03*
X0177685Y0145043D03*
X0160761Y0145043D03*
X0160761Y0147602D03*
X0160761Y0150161D03*
M02*
