%
M48
M72
T01C0.01200
T02C0.04000
T03C0.05118
T04C0.12992
%
T01
X51410Y70727
X55160Y70727
X58910Y70727
X65160Y59477
X67660Y59477
X70160Y59477
X70160Y56352
X67660Y56352
X65160Y56352
X80160Y56352
X80160Y58852
X83910Y58852
X83910Y56352
X92660Y57602
X95160Y57602
X105785Y67602
X114535Y61352
X122660Y78227
X122660Y80727
X125160Y80727
X127660Y80727
X130160Y80727
X130160Y78227
X127660Y78227
X125160Y78227
X138910Y92602
X155160Y75102
X157660Y77602
X167660Y83227
X171410Y81977
X177660Y82602
X181410Y82602
X187035Y82602
X189535Y85102
X200785Y85102
X204535Y85102
X216410Y78852
X222035Y66352
X222035Y57602
X196410Y64477
X178910Y58852
X172660Y60727
X172660Y65102
X172660Y69477
X172660Y56352
X157660Y56352
X143285Y57602
X140785Y57602
X138285Y57602
X160785Y90727
X164535Y90727
X168285Y90727
X162035Y97602
X159535Y100102
X162035Y102602
X160160Y94477
X158910Y110102
X158910Y113852
X169535Y113852
X172660Y119477
X170785Y124477
X170785Y133227
X175785Y133227
X180785Y131977
X183285Y129477
X180785Y126977
X183285Y123227
X193910Y123227
X200160Y133852
X214535Y139477
X214535Y141977
X210160Y150102
X204535Y151977
X195785Y155727
X195785Y158227
X190785Y155727
X182660Y151977
X182660Y148227
X182660Y144477
X171410Y155727
X167035Y156352
X165160Y152602
X157660Y151977
X153285Y151352
X150785Y148227
X146410Y147602
X149535Y143227
X156410Y139477
X157660Y135727
X162035Y133227
X156410Y147602
X148285Y151352
X144535Y151352
X157660Y156977
X157660Y162602
X157660Y167602
X153285Y168227
X148910Y172602
X145785Y176977
X140785Y177602
X135785Y177602
X130160Y181977
X130160Y184477
X138285Y191977
X152035Y176977
X157660Y175102
X162035Y184477
X168598Y177602
X173598Y177602
X173598Y172602
X168598Y172602
X167035Y161352
X162660Y161352
X171410Y160727
X180160Y160727
X180785Y165102
X178910Y188227
X178910Y196352
X159535Y196977
X137035Y168227
X130785Y163227
X130785Y156977
X121410Y156352
X121410Y160727
X121410Y167602
X121410Y170102
X116410Y174477
X114535Y175727
X116410Y176977
X114535Y173227
X120785Y182602
X120785Y185102
X114535Y195727
X103285Y195102
X103285Y192602
X100785Y198852
X89535Y198227
X89535Y195727
X89535Y193227
X77035Y193227
X77035Y195727
X77035Y198227
X65785Y198227
X65785Y195727
X65785Y193227
X58285Y193227
X58285Y190727
X52660Y201352
X64535Y206977
X64535Y209477
X51410Y218227
X55785Y227602
X58285Y227602
X55160Y178227
X62660Y168852
X65160Y173227
X68910Y173227
X72660Y173227
X73285Y178227
X78910Y178227
X81410Y173852
X75785Y168227
X78910Y158227
X83285Y153852
X78910Y146352
X73910Y143852
X68910Y143852
X74535Y150727
X70160Y151352
X67660Y154477
X57035Y167602
X52660Y150727
X52660Y146352
X52660Y141977
X67660Y118227
X72660Y110727
X72660Y105102
X75785Y98852
X77660Y95102
X75785Y91352
X82035Y96352
X88910Y91352
X92660Y92602
X96410Y98852
X96410Y104477
X92660Y115102
X88910Y115102
X99535Y130102
X104535Y130727
X112035Y138852
X107035Y143227
X108285Y147602
X106410Y151977
X111410Y156352
X106410Y160727
X97660Y165102
X98285Y168852
X95160Y173852
X90785Y173852
X91410Y141352
X91410Y138227
X87035Y135102
X84535Y137602
X81410Y139477
X76410Y136352
X56410Y113227
X56410Y108852
X56410Y104477
X56410Y100102
X56410Y95727
X56410Y91352
X52035Y83852
X78285Y81352
X82035Y81352
X88910Y76352
X93910Y71977
X96410Y71977
X105785Y80727
X104535Y86352
X104535Y88852
X102035Y88852
X102035Y86352
X108285Y88227
X114535Y96977
X108285Y101352
X115160Y121352
X116410Y130102
X117660Y144477
X138285Y133852
X146410Y123852
X146410Y119477
X180785Y110102
X180785Y106352
X210160Y105727
X210160Y101977
X222035Y96352
X213285Y203227
X210785Y203227
X203910Y208852
X201410Y208852
X210785Y215102
X213285Y215102
X220785Y213852
X220785Y211352
X203910Y221352
X201410Y221352
X215160Y235102
X217660Y235102
T02
X133285Y147602
X133285Y137602
X123285Y137602
X123285Y147602
X123285Y127602
X123285Y117602
X133285Y117602
X133285Y127602
X133285Y107602
X133285Y97602
X123285Y97602
X123285Y107602
X123285Y87602
X133285Y87602
X204535Y67602
X204535Y57602
X214535Y57602
X214535Y67602
T03
X184112Y210052
X178206Y219895
X172301Y210052
X166395Y219895
X160490Y210052
X154584Y219895
X148679Y210052
X142773Y219895
X136868Y210052
X130962Y219895
X125057Y210052
X119151Y219895
X113246Y210052
X107340Y219895
X101435Y210052
X95529Y219895
X89624Y210052
X95529Y233674
X89624Y243517
X101435Y243517
X107340Y233674
X113246Y243517
X119151Y233674
X125057Y243517
X130962Y233674
X136868Y243517
X142773Y233674
X148679Y243517
X154584Y233674
X160490Y243517
X166395Y233674
X172301Y243517
X178206Y233674
X184112Y243517
T04
X212655Y269108
X61080Y269108
M30
