G75*
%MOIN*%
%OFA0B0*%
%FSLAX25Y25*%
%IPPOS*%
%LPD*%
%AMOC8*
5,1,8,0,0,1.08239X$1,22.5*
%
%ADD10C,0.00400*%
%ADD11R,0.03937X0.13386*%
%ADD12R,0.26772X0.37795*%
%ADD13R,0.05906X0.05118*%
%ADD14C,0.07677*%
%ADD15R,0.02700X0.05300*%
%ADD16R,0.04600X0.06300*%
%ADD17OC8,0.06000*%
%ADD18R,0.01575X0.03937*%
%ADD19C,0.02800*%
%ADD20C,0.00600*%
%ADD21C,0.01000*%
%ADD22C,0.00800*%
%ADD23C,0.03000*%
%ADD24C,0.01600*%
%ADD25C,0.01200*%
%ADD26C,0.06000*%
%ADD27C,0.10000*%
D10*
X0061752Y0086960D02*
X0060985Y0087728D01*
X0060985Y0089262D01*
X0061752Y0090030D01*
X0063287Y0090030D01*
X0064054Y0089262D01*
X0064054Y0087728D01*
X0063287Y0086960D01*
X0061752Y0086960D01*
X0061752Y0091564D02*
X0063287Y0091564D01*
X0064054Y0092332D01*
X0064054Y0093866D01*
X0063287Y0094634D01*
X0062520Y0094634D01*
X0062520Y0091564D01*
X0061752Y0091564D02*
X0060985Y0092332D01*
X0060985Y0093866D01*
X0060985Y0096168D02*
X0060985Y0097703D01*
X0060985Y0096936D02*
X0065589Y0096936D01*
X0065589Y0096168D01*
X0064054Y0099237D02*
X0064054Y0101539D01*
X0063287Y0102307D01*
X0061752Y0102307D01*
X0060985Y0101539D01*
X0060985Y0099237D01*
X0059450Y0099237D02*
X0064054Y0099237D01*
X0064054Y0103841D02*
X0060985Y0103841D01*
X0062520Y0103841D02*
X0064054Y0105376D01*
X0064054Y0106143D01*
X0064054Y0107678D02*
X0064054Y0108445D01*
X0060985Y0108445D01*
X0060985Y0107678D02*
X0060985Y0109213D01*
X0060985Y0110747D02*
X0064054Y0110747D01*
X0064054Y0113049D01*
X0063287Y0113817D01*
X0060985Y0113817D01*
X0060985Y0115351D02*
X0060985Y0118420D01*
X0060985Y0119955D02*
X0060985Y0120722D01*
X0061752Y0120722D01*
X0061752Y0119955D01*
X0060985Y0119955D01*
X0061752Y0122257D02*
X0060985Y0123024D01*
X0060985Y0124559D01*
X0061752Y0125326D01*
X0063287Y0125326D01*
X0064054Y0124559D01*
X0064054Y0123024D01*
X0063287Y0122257D01*
X0061752Y0122257D01*
X0064054Y0118420D02*
X0060985Y0115351D01*
X0064054Y0115351D02*
X0064054Y0118420D01*
X0064054Y0126861D02*
X0060985Y0126861D01*
X0062520Y0126861D02*
X0064054Y0128396D01*
X0064054Y0129163D01*
X0063287Y0130698D02*
X0064054Y0131465D01*
X0064054Y0133767D01*
X0060218Y0133767D01*
X0059450Y0133000D01*
X0059450Y0132232D01*
X0060985Y0131465D02*
X0061752Y0130698D01*
X0063287Y0130698D01*
X0060985Y0131465D02*
X0060985Y0133767D01*
X0065589Y0108445D02*
X0066356Y0108445D01*
D11*
X0190160Y0140367D03*
X0210160Y0140367D03*
D12*
X0200160Y0180131D03*
D13*
X0210160Y0163842D03*
X0210160Y0156362D03*
D14*
X0184112Y0210052D03*
X0178206Y0219895D03*
X0172301Y0210052D03*
X0166395Y0219895D03*
X0160490Y0210052D03*
X0154584Y0219895D03*
X0148679Y0210052D03*
X0142773Y0219895D03*
X0136868Y0210052D03*
X0130962Y0219895D03*
X0125057Y0210052D03*
X0119151Y0219895D03*
X0113246Y0210052D03*
X0107340Y0219895D03*
X0101435Y0210052D03*
X0095529Y0219895D03*
X0089624Y0210052D03*
X0095529Y0233674D03*
X0089624Y0243517D03*
X0101435Y0243517D03*
X0107340Y0233674D03*
X0113246Y0243517D03*
X0119151Y0233674D03*
X0125057Y0243517D03*
X0130962Y0233674D03*
X0136868Y0243517D03*
X0142773Y0233674D03*
X0148679Y0243517D03*
X0154584Y0233674D03*
X0160490Y0243517D03*
X0166395Y0233674D03*
X0172301Y0243517D03*
X0178206Y0233674D03*
X0184112Y0243517D03*
D15*
X0194328Y0117223D03*
X0199328Y0117223D03*
X0204328Y0117223D03*
X0209328Y0117223D03*
X0209328Y0078473D03*
X0204328Y0078473D03*
X0199328Y0078473D03*
X0194328Y0078473D03*
D16*
X0106785Y0183852D03*
X0100785Y0183852D03*
X0094785Y0183852D03*
D17*
X0123285Y0147602D03*
X0123285Y0137602D03*
X0133285Y0137602D03*
X0133285Y0147602D03*
X0133285Y0127602D03*
X0133285Y0117602D03*
X0123285Y0117602D03*
X0123285Y0127602D03*
X0123285Y0107602D03*
X0123285Y0097602D03*
X0133285Y0097602D03*
X0133285Y0107602D03*
X0133285Y0087602D03*
X0123285Y0087602D03*
X0204535Y0067602D03*
X0204535Y0057602D03*
X0214535Y0057602D03*
X0214535Y0067602D03*
D18*
X0153912Y0161775D03*
X0151412Y0161775D03*
X0148912Y0161775D03*
X0146412Y0161775D03*
X0143908Y0161775D03*
X0141408Y0161775D03*
X0138908Y0161775D03*
X0136408Y0161775D03*
X0136408Y0183428D03*
X0138908Y0183428D03*
X0141408Y0183428D03*
X0143908Y0183428D03*
X0146412Y0183428D03*
X0148912Y0183428D03*
X0151412Y0183428D03*
X0153912Y0183428D03*
D19*
X0051410Y0070727D03*
X0055160Y0070727D03*
X0058910Y0070727D03*
X0065160Y0059477D03*
X0067660Y0059477D03*
X0070160Y0059477D03*
X0070160Y0056352D03*
X0067660Y0056352D03*
X0065160Y0056352D03*
X0080160Y0056352D03*
X0080160Y0058852D03*
X0083910Y0058852D03*
X0083910Y0056352D03*
X0092660Y0057602D03*
X0095160Y0057602D03*
X0105785Y0067602D03*
X0114535Y0061352D03*
X0122660Y0078227D03*
X0122660Y0080727D03*
X0125160Y0080727D03*
X0127660Y0080727D03*
X0130160Y0080727D03*
X0130160Y0078227D03*
X0127660Y0078227D03*
X0125160Y0078227D03*
X0138910Y0092602D03*
X0155160Y0075102D03*
X0157660Y0077602D03*
X0167660Y0083227D03*
X0171410Y0081977D03*
X0177660Y0082602D03*
X0181410Y0082602D03*
X0187035Y0082602D03*
X0189535Y0085102D03*
X0200785Y0085102D03*
X0204535Y0085102D03*
X0216410Y0078852D03*
X0222035Y0066352D03*
X0222035Y0057602D03*
X0196410Y0064477D03*
X0178910Y0058852D03*
X0172660Y0060727D03*
X0172660Y0065102D03*
X0172660Y0069477D03*
X0172660Y0056352D03*
X0157660Y0056352D03*
X0143285Y0057602D03*
X0140785Y0057602D03*
X0138285Y0057602D03*
X0160785Y0090727D03*
X0164535Y0090727D03*
X0168285Y0090727D03*
X0162035Y0097602D03*
X0159535Y0100102D03*
X0162035Y0102602D03*
X0160160Y0094477D03*
X0158910Y0110102D03*
X0158910Y0113852D03*
X0169535Y0113852D03*
X0172660Y0119477D03*
X0170785Y0124477D03*
X0170785Y0133227D03*
X0175785Y0133227D03*
X0180785Y0131977D03*
X0183285Y0129477D03*
X0180785Y0126977D03*
X0183285Y0123227D03*
X0193910Y0123227D03*
X0200160Y0133852D03*
X0214535Y0139477D03*
X0214535Y0141977D03*
X0210160Y0150102D03*
X0204535Y0151977D03*
X0195785Y0155727D03*
X0195785Y0158227D03*
X0190785Y0155727D03*
X0182660Y0151977D03*
X0182660Y0148227D03*
X0182660Y0144477D03*
X0171410Y0155727D03*
X0167035Y0156352D03*
X0165160Y0152602D03*
X0157660Y0151977D03*
X0153285Y0151352D03*
X0150785Y0148227D03*
X0146410Y0147602D03*
X0149535Y0143227D03*
X0156410Y0139477D03*
X0157660Y0135727D03*
X0162035Y0133227D03*
X0156410Y0147602D03*
X0148285Y0151352D03*
X0144535Y0151352D03*
X0157660Y0156977D03*
X0157660Y0162602D03*
X0157660Y0167602D03*
X0153285Y0168227D03*
X0148910Y0172602D03*
X0145785Y0176977D03*
X0140785Y0177602D03*
X0135785Y0177602D03*
X0130160Y0181977D03*
X0130160Y0184477D03*
X0138285Y0191977D03*
X0152035Y0176977D03*
X0157660Y0175102D03*
X0162035Y0184477D03*
X0168598Y0177602D03*
X0173598Y0177602D03*
X0173598Y0172602D03*
X0168598Y0172602D03*
X0167035Y0161352D03*
X0162660Y0161352D03*
X0171410Y0160727D03*
X0180160Y0160727D03*
X0180785Y0165102D03*
X0178910Y0188227D03*
X0178910Y0196352D03*
X0159535Y0196977D03*
X0137035Y0168227D03*
X0130785Y0163227D03*
X0130785Y0156977D03*
X0121410Y0156352D03*
X0121410Y0160727D03*
X0121410Y0167602D03*
X0121410Y0170102D03*
X0116410Y0174477D03*
X0114535Y0175727D03*
X0116410Y0176977D03*
X0114535Y0173227D03*
X0120785Y0182602D03*
X0120785Y0185102D03*
X0114535Y0195727D03*
X0103285Y0195102D03*
X0103285Y0192602D03*
X0100785Y0198852D03*
X0089535Y0198227D03*
X0089535Y0195727D03*
X0089535Y0193227D03*
X0077035Y0193227D03*
X0077035Y0195727D03*
X0077035Y0198227D03*
X0065785Y0198227D03*
X0065785Y0195727D03*
X0065785Y0193227D03*
X0058285Y0193227D03*
X0058285Y0190727D03*
X0052660Y0201352D03*
X0064535Y0206977D03*
X0064535Y0209477D03*
X0051410Y0218227D03*
X0055785Y0227602D03*
X0058285Y0227602D03*
X0055160Y0178227D03*
X0062660Y0168852D03*
X0065160Y0173227D03*
X0068910Y0173227D03*
X0072660Y0173227D03*
X0073285Y0178227D03*
X0078910Y0178227D03*
X0081410Y0173852D03*
X0075785Y0168227D03*
X0078910Y0158227D03*
X0083285Y0153852D03*
X0078910Y0146352D03*
X0073910Y0143852D03*
X0068910Y0143852D03*
X0074535Y0150727D03*
X0070160Y0151352D03*
X0067660Y0154477D03*
X0057035Y0167602D03*
X0052660Y0150727D03*
X0052660Y0146352D03*
X0052660Y0141977D03*
X0067660Y0118227D03*
X0072660Y0110727D03*
X0072660Y0105102D03*
X0075785Y0098852D03*
X0077660Y0095102D03*
X0075785Y0091352D03*
X0082035Y0096352D03*
X0088910Y0091352D03*
X0092660Y0092602D03*
X0096410Y0098852D03*
X0096410Y0104477D03*
X0092660Y0115102D03*
X0088910Y0115102D03*
X0099535Y0130102D03*
X0104535Y0130727D03*
X0112035Y0138852D03*
X0107035Y0143227D03*
X0108285Y0147602D03*
X0106410Y0151977D03*
X0111410Y0156352D03*
X0106410Y0160727D03*
X0097660Y0165102D03*
X0098285Y0168852D03*
X0095160Y0173852D03*
X0090785Y0173852D03*
X0091410Y0141352D03*
X0091410Y0138227D03*
X0087035Y0135102D03*
X0084535Y0137602D03*
X0081410Y0139477D03*
X0076410Y0136352D03*
X0056410Y0113227D03*
X0056410Y0108852D03*
X0056410Y0104477D03*
X0056410Y0100102D03*
X0056410Y0095727D03*
X0056410Y0091352D03*
X0052035Y0083852D03*
X0078285Y0081352D03*
X0082035Y0081352D03*
X0088910Y0076352D03*
X0093910Y0071977D03*
X0096410Y0071977D03*
X0105785Y0080727D03*
X0104535Y0086352D03*
X0104535Y0088852D03*
X0102035Y0088852D03*
X0102035Y0086352D03*
X0108285Y0088227D03*
X0114535Y0096977D03*
X0108285Y0101352D03*
X0115160Y0121352D03*
X0116410Y0130102D03*
X0117660Y0144477D03*
X0138285Y0133852D03*
X0146410Y0123852D03*
X0146410Y0119477D03*
X0180785Y0110102D03*
X0180785Y0106352D03*
X0210160Y0105727D03*
X0210160Y0101977D03*
X0222035Y0096352D03*
X0213285Y0203227D03*
X0210785Y0203227D03*
X0203910Y0208852D03*
X0201410Y0208852D03*
X0210785Y0215102D03*
X0213285Y0215102D03*
X0220785Y0213852D03*
X0220785Y0211352D03*
X0203910Y0221352D03*
X0201410Y0221352D03*
X0215160Y0235102D03*
X0217660Y0235102D03*
D20*
X0180160Y0192602D02*
X0182660Y0190102D01*
X0182660Y0171977D01*
X0171410Y0160727D01*
X0172660Y0163852D02*
X0181410Y0172602D01*
X0181410Y0189477D01*
X0179535Y0191352D01*
X0177660Y0191352D01*
X0165785Y0203227D01*
X0165785Y0212602D01*
X0172035Y0218852D01*
X0172035Y0228035D01*
X0166395Y0233674D01*
X0171410Y0235727D02*
X0168285Y0238852D01*
X0163910Y0238852D01*
X0160785Y0235727D01*
X0160785Y0230102D01*
X0157035Y0226352D01*
X0151730Y0226352D01*
X0142773Y0219895D01*
X0137035Y0217602D02*
X0137035Y0222602D01*
X0141410Y0226977D01*
X0145387Y0226977D01*
X0154584Y0233674D01*
X0171410Y0235727D02*
X0171410Y0230727D01*
X0173285Y0228852D01*
X0173285Y0218227D01*
X0167035Y0211977D01*
X0167035Y0203852D01*
X0178285Y0192602D01*
X0180160Y0192602D01*
X0180785Y0165102D02*
X0186410Y0159477D01*
X0186410Y0142602D01*
X0185785Y0141977D01*
X0185785Y0128227D01*
X0184535Y0126977D01*
X0180785Y0126977D01*
X0178285Y0125102D02*
X0178285Y0129477D01*
X0180785Y0131977D01*
X0178285Y0131352D02*
X0178285Y0140102D01*
X0182660Y0144477D01*
X0185160Y0143227D02*
X0183285Y0141352D01*
X0183285Y0129477D01*
X0178285Y0131352D02*
X0177035Y0130102D01*
X0177035Y0124477D01*
X0178910Y0122602D01*
X0178910Y0113852D01*
X0177035Y0111977D01*
X0177035Y0110102D01*
X0174535Y0107602D01*
X0174535Y0090102D01*
X0167660Y0083227D01*
X0166410Y0084477D01*
X0153285Y0084477D01*
X0147660Y0090102D01*
X0137660Y0090102D01*
X0135160Y0092602D01*
X0130785Y0092602D01*
X0128285Y0095102D01*
X0128285Y0102602D01*
X0123285Y0107602D01*
X0112035Y0118852D01*
X0082035Y0118852D01*
X0082035Y0130727D01*
X0076410Y0136352D01*
X0081410Y0139477D02*
X0082035Y0140102D01*
X0085785Y0140102D01*
X0090160Y0135727D01*
X0107035Y0135727D01*
X0110160Y0132602D01*
X0118285Y0132602D01*
X0123285Y0127602D01*
X0120785Y0122602D02*
X0126410Y0122602D01*
X0128285Y0120727D01*
X0128285Y0105727D01*
X0130785Y0103227D01*
X0135160Y0103227D01*
X0144535Y0093852D01*
X0147660Y0093852D01*
X0154535Y0086977D01*
X0167660Y0086977D01*
X0172035Y0091352D01*
X0172035Y0108852D01*
X0174535Y0111352D01*
X0174535Y0113227D01*
X0176410Y0115102D01*
X0176410Y0121352D01*
X0174535Y0123227D01*
X0174535Y0125727D01*
X0168285Y0131977D01*
X0168285Y0134477D01*
X0169535Y0135727D01*
X0173285Y0135727D01*
X0175785Y0133227D01*
X0175785Y0128227D02*
X0170785Y0133227D01*
X0167035Y0128227D02*
X0170785Y0124477D01*
X0170160Y0121977D02*
X0173910Y0121977D01*
X0175160Y0120727D01*
X0175160Y0115727D01*
X0173285Y0113852D01*
X0173285Y0111977D01*
X0170785Y0109477D01*
X0170785Y0093227D01*
X0168285Y0090727D01*
X0168285Y0085727D02*
X0173285Y0090727D01*
X0173285Y0108227D01*
X0175785Y0110727D01*
X0175785Y0112602D01*
X0177660Y0114477D01*
X0177660Y0121977D01*
X0175785Y0123852D01*
X0175785Y0128227D01*
X0178285Y0125102D02*
X0180160Y0123227D01*
X0180160Y0113227D01*
X0178285Y0111352D01*
X0178285Y0109477D01*
X0175785Y0106977D01*
X0175785Y0089477D01*
X0174535Y0088227D01*
X0174535Y0081352D01*
X0172660Y0079477D01*
X0170785Y0079477D01*
X0163910Y0072602D01*
X0101410Y0072602D01*
X0097660Y0076352D01*
X0096410Y0076352D01*
X0077660Y0095102D01*
X0079535Y0091352D02*
X0075785Y0091352D01*
X0079535Y0091352D02*
X0095785Y0075102D01*
X0097035Y0075102D01*
X0100785Y0071352D01*
X0164535Y0071352D01*
X0171410Y0078227D01*
X0173285Y0078227D01*
X0177660Y0082602D01*
X0181410Y0082602D02*
X0175785Y0076977D01*
X0172035Y0076977D01*
X0165160Y0070102D01*
X0100785Y0070102D01*
X0098910Y0068227D01*
X0093285Y0068227D01*
X0091410Y0070102D01*
X0086410Y0075102D01*
X0086410Y0080727D01*
X0079535Y0087602D01*
X0073910Y0087602D01*
X0072035Y0089477D01*
X0072035Y0100727D01*
X0075160Y0103852D01*
X0075160Y0129477D01*
X0070785Y0133852D01*
X0070785Y0139477D01*
X0071410Y0140102D01*
X0071410Y0145102D01*
X0069535Y0146977D01*
X0067660Y0146977D01*
X0050160Y0164477D01*
X0050160Y0216977D01*
X0051410Y0218227D01*
X0085785Y0201352D02*
X0088285Y0203852D01*
X0103285Y0203852D01*
X0107035Y0207602D01*
X0107035Y0212602D01*
X0113285Y0218852D01*
X0113285Y0227808D01*
X0119151Y0233674D01*
X0125160Y0227872D02*
X0130962Y0233674D01*
X0125160Y0227872D02*
X0125160Y0218852D01*
X0118285Y0211977D01*
X0118285Y0191352D01*
X0110785Y0183852D01*
X0110785Y0169477D01*
X0116410Y0163852D01*
X0122035Y0163852D01*
X0126410Y0159477D01*
X0132035Y0159477D01*
X0134535Y0156977D01*
X0138910Y0156977D01*
X0144535Y0151352D01*
X0142035Y0150727D02*
X0142035Y0145727D01*
X0172035Y0115727D01*
X0172035Y0112602D01*
X0169535Y0110102D01*
X0169535Y0095727D01*
X0164535Y0090727D01*
X0160785Y0090727D02*
X0168285Y0098227D01*
X0168285Y0105727D01*
X0167035Y0106977D01*
X0167035Y0116977D01*
X0139535Y0144477D01*
X0139535Y0149477D01*
X0135785Y0153227D01*
X0120160Y0153227D01*
X0113285Y0160102D01*
X0109535Y0160102D01*
X0106410Y0156977D01*
X0102035Y0156977D01*
X0092035Y0166977D01*
X0092035Y0170727D01*
X0095160Y0173852D01*
X0090785Y0173852D02*
X0090785Y0166352D01*
X0101410Y0155727D01*
X0107035Y0155727D01*
X0110160Y0158852D01*
X0112660Y0158852D01*
X0119535Y0151977D01*
X0135160Y0151977D01*
X0138285Y0148852D01*
X0138285Y0143852D01*
X0165785Y0116352D01*
X0165785Y0106352D01*
X0167035Y0105102D01*
X0167035Y0098852D01*
X0162660Y0094477D01*
X0160160Y0094477D01*
X0162035Y0097602D02*
X0165785Y0101352D01*
X0165785Y0104477D01*
X0164535Y0105727D01*
X0164535Y0115727D01*
X0137035Y0143227D01*
X0120785Y0143227D01*
X0119535Y0141977D01*
X0116410Y0141977D01*
X0115785Y0142602D01*
X0110160Y0142602D01*
X0108285Y0140727D01*
X0105785Y0140727D01*
X0097035Y0149477D01*
X0097035Y0154477D01*
X0078910Y0172602D01*
X0078910Y0178227D01*
X0073285Y0178227D02*
X0073285Y0176352D01*
X0095785Y0153852D01*
X0095785Y0148852D01*
X0105160Y0139477D01*
X0108910Y0139477D01*
X0110785Y0141352D01*
X0115160Y0141352D01*
X0115785Y0140727D01*
X0120160Y0140727D01*
X0121410Y0141977D01*
X0136410Y0141977D01*
X0163285Y0115102D01*
X0163285Y0105102D01*
X0164535Y0103852D01*
X0164535Y0101977D01*
X0162660Y0100102D01*
X0159535Y0100102D01*
X0162035Y0102602D02*
X0162035Y0114477D01*
X0145160Y0131352D01*
X0137035Y0131352D01*
X0135785Y0132602D01*
X0120160Y0132602D01*
X0118910Y0133852D01*
X0110785Y0133852D01*
X0106410Y0138227D01*
X0104535Y0138227D01*
X0094535Y0148227D01*
X0094535Y0153227D01*
X0077035Y0170727D01*
X0067660Y0170727D01*
X0065160Y0173227D01*
X0085785Y0167602D02*
X0085785Y0201352D01*
X0087035Y0200727D02*
X0088910Y0202602D01*
X0103910Y0202602D01*
X0108285Y0206977D01*
X0108285Y0211977D01*
X0116203Y0219895D01*
X0119151Y0219895D01*
X0119535Y0211352D02*
X0128078Y0219895D01*
X0130962Y0219895D01*
X0137035Y0217602D02*
X0142660Y0211977D01*
X0142660Y0196352D01*
X0138285Y0191977D01*
X0136408Y0190100D01*
X0136408Y0183428D01*
X0141408Y0183428D02*
X0141410Y0183430D01*
X0145785Y0176977D02*
X0147660Y0176977D01*
X0151412Y0180729D01*
X0151412Y0183428D01*
X0153912Y0183428D02*
X0153912Y0178854D01*
X0152035Y0176977D01*
X0165160Y0163852D02*
X0172660Y0163852D01*
X0165160Y0163852D02*
X0162660Y0161352D01*
X0157660Y0160102D02*
X0157660Y0162602D01*
X0157660Y0160102D02*
X0155785Y0158227D01*
X0147035Y0158227D01*
X0146410Y0158852D01*
X0146410Y0161773D01*
X0146412Y0161775D01*
X0146412Y0161975D01*
X0148910Y0161777D02*
X0148912Y0161775D01*
X0147660Y0156977D02*
X0145785Y0156977D01*
X0143908Y0158854D01*
X0143908Y0161775D01*
X0141410Y0158227D02*
X0135160Y0158227D01*
X0132660Y0160727D01*
X0127035Y0160727D01*
X0122660Y0165102D01*
X0117035Y0165102D01*
X0112035Y0170102D01*
X0112035Y0183227D01*
X0119535Y0190727D01*
X0119535Y0211352D01*
X0087035Y0200727D02*
X0087035Y0168227D01*
X0100785Y0154477D01*
X0109535Y0154477D01*
X0111410Y0156352D01*
X0121410Y0156352D02*
X0123285Y0154477D01*
X0136410Y0154477D01*
X0140785Y0150102D01*
X0140785Y0145102D01*
X0169535Y0116352D01*
X0169535Y0113852D01*
X0170160Y0119477D02*
X0152035Y0137602D01*
X0152035Y0146977D01*
X0150785Y0148227D01*
X0150785Y0153852D01*
X0155785Y0153852D01*
X0157660Y0151977D01*
X0153285Y0151352D02*
X0153285Y0138227D01*
X0155785Y0135727D01*
X0157660Y0135727D01*
X0167035Y0128227D02*
X0167035Y0150727D01*
X0168285Y0151977D01*
X0168285Y0155102D01*
X0167035Y0156352D01*
X0162660Y0155102D02*
X0162660Y0150727D01*
X0165785Y0147602D01*
X0165785Y0126352D01*
X0170160Y0121977D01*
X0170160Y0119477D02*
X0172660Y0119477D01*
X0183285Y0123227D02*
X0193910Y0123227D01*
X0185160Y0143227D02*
X0185160Y0149477D01*
X0182660Y0151977D01*
X0162660Y0155102D02*
X0157660Y0160102D01*
X0150785Y0153852D02*
X0147660Y0156977D01*
X0148285Y0151352D02*
X0141410Y0158227D01*
X0137035Y0155727D02*
X0142035Y0150727D01*
X0137035Y0155727D02*
X0132035Y0155727D01*
X0130785Y0156977D01*
X0107035Y0143227D02*
X0098285Y0151977D01*
X0098285Y0155102D01*
X0085785Y0167602D01*
X0084535Y0137602D02*
X0084535Y0133852D01*
X0088285Y0130102D01*
X0099535Y0130102D01*
X0106410Y0134477D02*
X0123285Y0117602D01*
X0120785Y0122602D02*
X0116410Y0126977D01*
X0116410Y0130102D01*
X0106410Y0134477D02*
X0087660Y0134477D01*
X0087035Y0135102D01*
X0082035Y0118852D02*
X0082035Y0096352D01*
X0084535Y0090102D02*
X0097035Y0077602D01*
X0098285Y0077602D01*
X0102035Y0073852D01*
X0153910Y0073852D01*
X0155160Y0075102D01*
X0153910Y0077602D02*
X0157660Y0077602D01*
X0153910Y0077602D02*
X0151410Y0075102D01*
X0102660Y0075102D01*
X0098910Y0078852D01*
X0097660Y0078852D01*
X0085785Y0090727D01*
X0085785Y0108227D01*
X0092660Y0115102D01*
X0088910Y0115102D02*
X0084535Y0110727D01*
X0084535Y0090102D01*
X0088910Y0091352D02*
X0090160Y0090102D01*
X0093910Y0090102D01*
X0095160Y0091352D01*
X0119535Y0091352D01*
X0123285Y0087602D01*
X0128285Y0092602D02*
X0133285Y0087602D01*
X0128285Y0092602D02*
X0092660Y0092602D01*
X0082660Y0081352D02*
X0085160Y0078852D01*
X0085160Y0074477D01*
X0094535Y0065102D01*
X0107035Y0065102D01*
X0110785Y0068852D01*
X0165785Y0068852D01*
X0172660Y0075727D01*
X0180160Y0075727D01*
X0187035Y0082602D01*
X0189535Y0081352D02*
X0189535Y0085102D01*
X0189535Y0081352D02*
X0183285Y0074477D01*
X0173285Y0074477D01*
X0166410Y0067602D01*
X0111410Y0067602D01*
X0107660Y0063852D01*
X0093910Y0063852D01*
X0083910Y0073852D01*
X0083910Y0075727D01*
X0078285Y0081352D01*
X0082035Y0081352D02*
X0082660Y0081352D01*
X0138910Y0092602D02*
X0147035Y0092602D01*
X0153910Y0085727D01*
X0168285Y0085727D01*
X0194535Y0079516D02*
X0194328Y0078473D01*
X0194328Y0074058D01*
X0195785Y0072602D01*
X0209535Y0072602D01*
X0214535Y0067602D01*
X0204328Y0078473D02*
X0204328Y0084683D01*
X0204535Y0085102D01*
X0200785Y0085102D02*
X0199328Y0083433D01*
X0199328Y0078473D01*
D21*
X0153912Y0161775D02*
X0153912Y0165100D01*
X0153285Y0165727D01*
X0153285Y0168227D01*
X0153285Y0165727D02*
X0149539Y0165727D01*
X0148912Y0165100D01*
X0148285Y0165727D01*
X0142035Y0165727D01*
X0141410Y0165102D01*
X0141410Y0161777D01*
X0141408Y0161775D01*
X0141410Y0165102D02*
X0140785Y0165727D01*
X0137035Y0165727D01*
X0137035Y0168227D01*
X0137035Y0165727D02*
X0136408Y0165100D01*
X0136408Y0161775D01*
X0148912Y0161775D02*
X0148912Y0165100D01*
X0157660Y0175102D02*
X0157660Y0184477D01*
X0155160Y0186977D01*
X0147035Y0186977D01*
X0146410Y0186352D01*
X0146410Y0183430D01*
X0146412Y0183428D01*
X0148912Y0183428D02*
X0148912Y0180729D01*
X0148285Y0180102D01*
X0140785Y0180102D01*
X0140785Y0177602D01*
X0140785Y0180102D02*
X0139535Y0180102D01*
X0138910Y0180727D01*
X0138910Y0183426D01*
X0138908Y0183428D01*
X0141410Y0183430D02*
X0141410Y0186352D01*
X0142035Y0186977D01*
X0145785Y0186977D01*
X0146410Y0186352D01*
X0114535Y0195727D02*
X0111410Y0195727D01*
X0106785Y0191102D01*
X0106785Y0183852D01*
X0100785Y0183852D02*
X0100785Y0198852D01*
X0094785Y0183852D02*
X0094785Y0179227D01*
X0100785Y0173227D01*
X0100785Y0166352D01*
X0099535Y0165102D01*
X0097660Y0165102D01*
D22*
X0083285Y0153852D02*
X0083285Y0144477D01*
X0080785Y0141977D01*
X0078285Y0141977D01*
X0073910Y0137602D01*
X0073910Y0135102D01*
X0078285Y0130727D01*
X0078285Y0101352D01*
X0075785Y0098852D01*
X0073285Y0100102D02*
X0073285Y0090102D01*
X0074535Y0088852D01*
X0080160Y0088852D01*
X0088910Y0080102D01*
X0088910Y0076352D01*
X0073285Y0100102D02*
X0076410Y0103227D01*
X0076410Y0130102D01*
X0072035Y0134477D01*
X0072035Y0138227D01*
X0077660Y0143852D01*
X0080160Y0143852D01*
X0081410Y0145102D01*
X0081410Y0149477D01*
X0075785Y0155102D01*
X0075785Y0168227D01*
X0072660Y0173227D02*
X0070160Y0175727D01*
X0070160Y0180727D01*
X0074535Y0185102D01*
X0074535Y0213227D01*
X0077035Y0215727D01*
X0092035Y0215727D01*
X0093910Y0213852D01*
X0097660Y0213852D01*
X0103703Y0219895D01*
X0107340Y0219895D01*
X0107660Y0225727D02*
X0113285Y0231352D01*
X0113285Y0235727D01*
X0117035Y0239477D01*
X0121016Y0239477D01*
X0125057Y0243517D01*
X0113246Y0243517D02*
X0109830Y0240102D01*
X0105785Y0240102D01*
X0103285Y0237602D01*
X0099535Y0237602D01*
X0097660Y0239477D01*
X0093285Y0239477D01*
X0068910Y0215102D01*
X0068910Y0186977D01*
X0057035Y0175102D01*
X0057035Y0167602D01*
X0054535Y0166352D02*
X0054535Y0177602D01*
X0055160Y0178227D01*
X0060160Y0175727D02*
X0070785Y0186352D01*
X0070785Y0214477D01*
X0083910Y0227602D01*
X0101267Y0227602D01*
X0107340Y0233674D01*
X0107660Y0225727D02*
X0084535Y0225727D01*
X0072660Y0213852D01*
X0072660Y0185727D01*
X0068285Y0181352D01*
X0068285Y0173852D01*
X0068910Y0173227D01*
X0060160Y0175727D02*
X0060160Y0163227D01*
X0063910Y0159477D01*
X0068910Y0159477D01*
X0074535Y0153852D01*
X0074535Y0150727D01*
X0070160Y0151352D02*
X0075160Y0146352D01*
X0078910Y0146352D01*
X0073910Y0145102D02*
X0070160Y0148852D01*
X0068910Y0148852D01*
X0052660Y0165102D01*
X0052660Y0201352D01*
X0054535Y0166352D02*
X0063285Y0157602D01*
X0068285Y0157602D01*
X0070160Y0155727D01*
X0070160Y0151352D01*
X0073910Y0145102D02*
X0073910Y0143852D01*
X0178731Y0224634D02*
X0174535Y0231977D01*
X0174535Y0235102D01*
X0177035Y0237602D01*
X0187623Y0237602D01*
X0196823Y0228402D01*
X0212581Y0228402D01*
X0219085Y0221897D01*
X0219085Y0215404D01*
X0218485Y0214804D01*
X0218485Y0212899D01*
X0218782Y0212602D01*
X0218485Y0212304D01*
X0189604Y0212304D01*
X0190038Y0211505D02*
X0218485Y0211505D01*
X0218485Y0210707D02*
X0205308Y0210707D01*
X0204863Y0211152D02*
X0206210Y0209804D01*
X0206210Y0207899D01*
X0204863Y0206552D01*
X0202957Y0206552D01*
X0202660Y0206849D01*
X0202363Y0206552D01*
X0200457Y0206552D01*
X0199110Y0207899D01*
X0199110Y0209804D01*
X0200457Y0211152D01*
X0202363Y0211152D01*
X0202660Y0210854D01*
X0202957Y0211152D01*
X0204863Y0211152D01*
X0206106Y0209908D02*
X0218976Y0209908D01*
X0218485Y0210399D02*
X0219832Y0209052D01*
X0221738Y0209052D01*
X0223085Y0210399D01*
X0223085Y0212304D01*
X0223800Y0212304D01*
X0223085Y0212304D02*
X0222788Y0212602D01*
X0223085Y0212899D01*
X0223085Y0214804D01*
X0222485Y0215404D01*
X0222485Y0220902D01*
X0223800Y0219586D01*
X0223800Y0126352D01*
X0188285Y0126352D01*
X0188285Y0147602D01*
X0199535Y0147602D01*
X0199535Y0150677D01*
X0202582Y0150677D01*
X0203582Y0149677D01*
X0205488Y0149677D01*
X0206835Y0151024D01*
X0206835Y0152902D01*
X0208460Y0152902D01*
X0208460Y0151654D01*
X0207860Y0151054D01*
X0207860Y0149149D01*
X0208460Y0148549D01*
X0208460Y0147960D01*
X0207819Y0147960D01*
X0207292Y0147433D01*
X0207292Y0133302D01*
X0207819Y0132774D01*
X0212501Y0132774D01*
X0213029Y0133302D01*
X0213029Y0137730D01*
X0213582Y0137177D01*
X0215488Y0137177D01*
X0216835Y0138524D01*
X0216835Y0140429D01*
X0216538Y0140727D01*
X0216835Y0141024D01*
X0216835Y0142929D01*
X0215488Y0144277D01*
X0213582Y0144277D01*
X0213029Y0143723D01*
X0213029Y0147433D01*
X0212501Y0147960D01*
X0211860Y0147960D01*
X0211860Y0148549D01*
X0212460Y0149149D01*
X0212460Y0151054D01*
X0211860Y0151654D01*
X0211860Y0152902D01*
X0213486Y0152902D01*
X0214013Y0153430D01*
X0214013Y0159293D01*
X0213486Y0159821D01*
X0206835Y0159821D01*
X0206307Y0159293D01*
X0206307Y0153457D01*
X0205488Y0154277D01*
X0203582Y0154277D01*
X0202582Y0153277D01*
X0199535Y0153277D01*
X0199535Y0160334D01*
X0213919Y0160334D01*
X0214446Y0160861D01*
X0214446Y0199402D01*
X0213919Y0199929D01*
X0196337Y0199929D01*
X0188733Y0213903D01*
X0186908Y0215379D01*
X0184657Y0216043D01*
X0183698Y0215942D01*
X0182538Y0217971D01*
X0182945Y0218952D01*
X0182945Y0220838D01*
X0182224Y0222579D01*
X0180891Y0223912D01*
X0179149Y0224634D01*
X0178731Y0224634D01*
X0178476Y0225080D02*
X0215903Y0225080D01*
X0216701Y0224282D02*
X0179999Y0224282D01*
X0181320Y0223483D02*
X0200289Y0223483D01*
X0200457Y0223652D02*
X0199110Y0222304D01*
X0199110Y0220399D01*
X0200457Y0219052D01*
X0202363Y0219052D01*
X0202660Y0219349D01*
X0202957Y0219052D01*
X0204863Y0219052D01*
X0206210Y0220399D01*
X0206210Y0222304D01*
X0204863Y0223652D01*
X0202957Y0223652D01*
X0202660Y0223354D01*
X0202363Y0223652D01*
X0200457Y0223652D01*
X0199490Y0222685D02*
X0182118Y0222685D01*
X0182511Y0221886D02*
X0199110Y0221886D01*
X0199110Y0221088D02*
X0182841Y0221088D01*
X0182945Y0220289D02*
X0199220Y0220289D01*
X0200019Y0219491D02*
X0182945Y0219491D01*
X0182837Y0218692D02*
X0219085Y0218692D01*
X0219085Y0217894D02*
X0182583Y0217894D01*
X0183039Y0217095D02*
X0219085Y0217095D01*
X0219085Y0216296D02*
X0183495Y0216296D01*
X0186504Y0215498D02*
X0219085Y0215498D01*
X0218485Y0214699D02*
X0187748Y0214699D01*
X0188735Y0213901D02*
X0218485Y0213901D01*
X0218485Y0213102D02*
X0189169Y0213102D01*
X0190473Y0210707D02*
X0200013Y0210707D01*
X0199214Y0209908D02*
X0190907Y0209908D01*
X0191342Y0209110D02*
X0199110Y0209110D01*
X0199110Y0208311D02*
X0191776Y0208311D01*
X0192211Y0207513D02*
X0199496Y0207513D01*
X0200295Y0206714D02*
X0192645Y0206714D01*
X0193080Y0205916D02*
X0223800Y0205916D01*
X0223800Y0206714D02*
X0205025Y0206714D01*
X0205824Y0207513D02*
X0223800Y0207513D01*
X0223800Y0208311D02*
X0206210Y0208311D01*
X0206210Y0209110D02*
X0219774Y0209110D01*
X0218485Y0210399D02*
X0218485Y0212304D01*
X0221796Y0209110D02*
X0223800Y0209110D01*
X0223800Y0209908D02*
X0222595Y0209908D01*
X0223085Y0210707D02*
X0223800Y0210707D01*
X0223800Y0211505D02*
X0223085Y0211505D01*
X0223085Y0213102D02*
X0223800Y0213102D01*
X0223800Y0213901D02*
X0223085Y0213901D01*
X0223085Y0214699D02*
X0223800Y0214699D01*
X0223800Y0215498D02*
X0222485Y0215498D01*
X0222485Y0216296D02*
X0223800Y0216296D01*
X0223800Y0217095D02*
X0222485Y0217095D01*
X0222485Y0217894D02*
X0223800Y0217894D01*
X0223800Y0218692D02*
X0222485Y0218692D01*
X0222485Y0219491D02*
X0223800Y0219491D01*
X0223098Y0220289D02*
X0222485Y0220289D01*
X0219085Y0220289D02*
X0206100Y0220289D01*
X0206210Y0221088D02*
X0219085Y0221088D01*
X0219085Y0221886D02*
X0206210Y0221886D01*
X0205830Y0222685D02*
X0218298Y0222685D01*
X0217500Y0223483D02*
X0205031Y0223483D01*
X0202789Y0223483D02*
X0202531Y0223483D01*
X0205302Y0219491D02*
X0219085Y0219491D01*
X0215104Y0225879D02*
X0178020Y0225879D01*
X0177563Y0226677D02*
X0214305Y0226677D01*
X0213507Y0227476D02*
X0177107Y0227476D01*
X0176651Y0228274D02*
X0212708Y0228274D01*
X0196152Y0229073D02*
X0176195Y0229073D01*
X0175738Y0229871D02*
X0195354Y0229871D01*
X0194555Y0230670D02*
X0175282Y0230670D01*
X0174826Y0231468D02*
X0193757Y0231468D01*
X0192958Y0232267D02*
X0174535Y0232267D01*
X0174535Y0233065D02*
X0192160Y0233065D01*
X0191361Y0233864D02*
X0174535Y0233864D01*
X0174535Y0234662D02*
X0190562Y0234662D01*
X0189764Y0235461D02*
X0174894Y0235461D01*
X0175693Y0236259D02*
X0188965Y0236259D01*
X0188167Y0237058D02*
X0176491Y0237058D01*
X0202525Y0206714D02*
X0202795Y0206714D01*
X0208485Y0204179D02*
X0208485Y0202274D01*
X0209832Y0200927D01*
X0211738Y0200927D01*
X0212035Y0201224D01*
X0212332Y0200927D01*
X0214238Y0200927D01*
X0215585Y0202274D01*
X0215585Y0204179D01*
X0214238Y0205527D01*
X0212332Y0205527D01*
X0212035Y0205229D01*
X0211738Y0205527D01*
X0209832Y0205527D01*
X0208485Y0204179D01*
X0208625Y0204319D02*
X0193948Y0204319D01*
X0193514Y0205117D02*
X0209423Y0205117D01*
X0208485Y0203520D02*
X0194383Y0203520D01*
X0194817Y0202722D02*
X0208485Y0202722D01*
X0208836Y0201923D02*
X0195252Y0201923D01*
X0195686Y0201125D02*
X0209634Y0201125D01*
X0211936Y0201125D02*
X0212134Y0201125D01*
X0214436Y0201125D02*
X0223800Y0201125D01*
X0223800Y0201923D02*
X0215234Y0201923D01*
X0215585Y0202722D02*
X0223800Y0202722D01*
X0223800Y0203520D02*
X0215585Y0203520D01*
X0215446Y0204319D02*
X0223800Y0204319D01*
X0223800Y0205117D02*
X0214647Y0205117D01*
X0214320Y0199528D02*
X0223800Y0199528D01*
X0223800Y0200326D02*
X0196121Y0200326D01*
X0214446Y0198729D02*
X0223800Y0198729D01*
X0223800Y0197931D02*
X0214446Y0197931D01*
X0214446Y0197132D02*
X0223800Y0197132D01*
X0223800Y0196334D02*
X0214446Y0196334D01*
X0214446Y0195535D02*
X0223800Y0195535D01*
X0223800Y0194737D02*
X0214446Y0194737D01*
X0214446Y0193938D02*
X0223800Y0193938D01*
X0223800Y0193140D02*
X0214446Y0193140D01*
X0214446Y0192341D02*
X0223800Y0192341D01*
X0223800Y0191543D02*
X0214446Y0191543D01*
X0214446Y0190744D02*
X0223800Y0190744D01*
X0223800Y0189946D02*
X0214446Y0189946D01*
X0214446Y0189147D02*
X0223800Y0189147D01*
X0223800Y0188349D02*
X0214446Y0188349D01*
X0214446Y0187550D02*
X0223800Y0187550D01*
X0223800Y0186752D02*
X0214446Y0186752D01*
X0214446Y0185953D02*
X0223800Y0185953D01*
X0223800Y0185155D02*
X0214446Y0185155D01*
X0214446Y0184356D02*
X0223800Y0184356D01*
X0223800Y0183558D02*
X0214446Y0183558D01*
X0214446Y0182759D02*
X0223800Y0182759D01*
X0223800Y0181960D02*
X0214446Y0181960D01*
X0214446Y0181162D02*
X0223800Y0181162D01*
X0223800Y0180363D02*
X0214446Y0180363D01*
X0214446Y0179565D02*
X0223800Y0179565D01*
X0223800Y0178766D02*
X0214446Y0178766D01*
X0214446Y0177968D02*
X0223800Y0177968D01*
X0223800Y0177169D02*
X0214446Y0177169D01*
X0214446Y0176371D02*
X0223800Y0176371D01*
X0223800Y0175572D02*
X0214446Y0175572D01*
X0214446Y0174774D02*
X0223800Y0174774D01*
X0223800Y0173975D02*
X0214446Y0173975D01*
X0214446Y0173177D02*
X0223800Y0173177D01*
X0223800Y0172378D02*
X0214446Y0172378D01*
X0214446Y0171580D02*
X0223800Y0171580D01*
X0223800Y0170781D02*
X0214446Y0170781D01*
X0214446Y0169983D02*
X0223800Y0169983D01*
X0223800Y0169184D02*
X0214446Y0169184D01*
X0214446Y0168386D02*
X0223800Y0168386D01*
X0223800Y0167587D02*
X0214446Y0167587D01*
X0214446Y0166789D02*
X0223800Y0166789D01*
X0223800Y0165990D02*
X0214446Y0165990D01*
X0214446Y0165192D02*
X0223800Y0165192D01*
X0223800Y0164393D02*
X0214446Y0164393D01*
X0214446Y0163595D02*
X0223800Y0163595D01*
X0223800Y0162796D02*
X0214446Y0162796D01*
X0214446Y0161998D02*
X0223800Y0161998D01*
X0223800Y0161199D02*
X0214446Y0161199D01*
X0213986Y0160401D02*
X0223800Y0160401D01*
X0223800Y0159602D02*
X0213704Y0159602D01*
X0214013Y0158804D02*
X0223800Y0158804D01*
X0223800Y0158005D02*
X0214013Y0158005D01*
X0214013Y0157207D02*
X0223800Y0157207D01*
X0223800Y0156408D02*
X0214013Y0156408D01*
X0214013Y0155610D02*
X0223800Y0155610D01*
X0223800Y0154811D02*
X0214013Y0154811D01*
X0214013Y0154013D02*
X0223800Y0154013D01*
X0223800Y0153214D02*
X0213797Y0153214D01*
X0211860Y0152416D02*
X0223800Y0152416D01*
X0223800Y0151617D02*
X0211897Y0151617D01*
X0212460Y0150819D02*
X0223800Y0150819D01*
X0223800Y0150020D02*
X0212460Y0150020D01*
X0212460Y0149222D02*
X0223800Y0149222D01*
X0223800Y0148423D02*
X0211860Y0148423D01*
X0212837Y0147625D02*
X0223800Y0147625D01*
X0223800Y0146826D02*
X0213029Y0146826D01*
X0213029Y0146027D02*
X0223800Y0146027D01*
X0223800Y0145229D02*
X0213029Y0145229D01*
X0213029Y0144430D02*
X0223800Y0144430D01*
X0223800Y0143632D02*
X0216133Y0143632D01*
X0216835Y0142833D02*
X0223800Y0142833D01*
X0223800Y0142035D02*
X0216835Y0142035D01*
X0216835Y0141236D02*
X0223800Y0141236D01*
X0223800Y0140438D02*
X0216827Y0140438D01*
X0216835Y0139639D02*
X0223800Y0139639D01*
X0223800Y0138841D02*
X0216835Y0138841D01*
X0216354Y0138042D02*
X0223800Y0138042D01*
X0223800Y0137244D02*
X0215555Y0137244D01*
X0213515Y0137244D02*
X0213029Y0137244D01*
X0213029Y0136445D02*
X0223800Y0136445D01*
X0223800Y0135647D02*
X0213029Y0135647D01*
X0213029Y0134848D02*
X0223800Y0134848D01*
X0223800Y0134050D02*
X0213029Y0134050D01*
X0212978Y0133251D02*
X0223800Y0133251D01*
X0223800Y0132453D02*
X0202014Y0132453D01*
X0202460Y0132899D02*
X0201113Y0131552D01*
X0199207Y0131552D01*
X0197860Y0132899D01*
X0197860Y0134804D01*
X0199207Y0136152D01*
X0201113Y0136152D01*
X0202460Y0134804D01*
X0202460Y0132899D01*
X0202460Y0133251D02*
X0207342Y0133251D01*
X0207292Y0134050D02*
X0202460Y0134050D01*
X0202416Y0134848D02*
X0207292Y0134848D01*
X0207292Y0135647D02*
X0201618Y0135647D01*
X0198703Y0135647D02*
X0188285Y0135647D01*
X0188285Y0136445D02*
X0207292Y0136445D01*
X0207292Y0137244D02*
X0188285Y0137244D01*
X0188285Y0138042D02*
X0207292Y0138042D01*
X0207292Y0138841D02*
X0188285Y0138841D01*
X0188285Y0139639D02*
X0207292Y0139639D01*
X0207292Y0140438D02*
X0188285Y0140438D01*
X0188285Y0141236D02*
X0207292Y0141236D01*
X0207292Y0142035D02*
X0188285Y0142035D01*
X0188285Y0142833D02*
X0207292Y0142833D01*
X0207292Y0143632D02*
X0188285Y0143632D01*
X0188285Y0144430D02*
X0207292Y0144430D01*
X0207292Y0145229D02*
X0188285Y0145229D01*
X0188285Y0146027D02*
X0207292Y0146027D01*
X0207292Y0146826D02*
X0188285Y0146826D01*
X0194535Y0151977D02*
X0190785Y0155727D01*
X0194535Y0151977D02*
X0204535Y0151977D01*
X0206835Y0151617D02*
X0208423Y0151617D01*
X0208460Y0152416D02*
X0206835Y0152416D01*
X0206630Y0150819D02*
X0207860Y0150819D01*
X0207860Y0150020D02*
X0205831Y0150020D01*
X0207860Y0149222D02*
X0199535Y0149222D01*
X0199535Y0150020D02*
X0203239Y0150020D01*
X0203318Y0154013D02*
X0199535Y0154013D01*
X0199535Y0154811D02*
X0206307Y0154811D01*
X0206307Y0154013D02*
X0205752Y0154013D01*
X0206307Y0155610D02*
X0199535Y0155610D01*
X0199535Y0156408D02*
X0206307Y0156408D01*
X0206307Y0157207D02*
X0199535Y0157207D01*
X0199535Y0158005D02*
X0206307Y0158005D01*
X0206307Y0158804D02*
X0199535Y0158804D01*
X0199535Y0159602D02*
X0206616Y0159602D01*
X0208460Y0148423D02*
X0199535Y0148423D01*
X0199535Y0147625D02*
X0207483Y0147625D01*
X0197904Y0134848D02*
X0188285Y0134848D01*
X0188285Y0134050D02*
X0197860Y0134050D01*
X0197860Y0133251D02*
X0188285Y0133251D01*
X0188285Y0132453D02*
X0198306Y0132453D01*
X0199105Y0131654D02*
X0188285Y0131654D01*
X0188285Y0130856D02*
X0223800Y0130856D01*
X0223800Y0131654D02*
X0201215Y0131654D01*
X0188285Y0130057D02*
X0223800Y0130057D01*
X0223800Y0129259D02*
X0188285Y0129259D01*
X0188285Y0128460D02*
X0223800Y0128460D01*
X0223800Y0127662D02*
X0188285Y0127662D01*
X0188285Y0126863D02*
X0223800Y0126863D01*
D23*
X0136868Y0210052D02*
X0130160Y0203345D01*
X0130160Y0181977D01*
X0125057Y0189373D02*
X0125057Y0210052D01*
X0125057Y0189373D02*
X0120785Y0185102D01*
X0120785Y0182602D01*
X0089624Y0243517D02*
X0058285Y0212178D01*
X0058285Y0193227D01*
X0058285Y0190727D01*
D24*
X0184112Y0243517D02*
X0197527Y0230102D01*
X0213285Y0230102D01*
X0220785Y0222602D01*
X0220785Y0213852D01*
X0220785Y0211352D01*
X0200160Y0180131D02*
X0210160Y0169506D01*
X0210160Y0163842D01*
X0210160Y0156362D02*
X0210160Y0150102D01*
X0210160Y0140367D01*
D25*
X0178910Y0188227D02*
X0165785Y0188227D01*
X0162035Y0184477D01*
D26*
X0198285Y0184004D02*
X0200160Y0180131D01*
D27*
X0198285Y0184004D02*
X0184112Y0210052D01*
M02*
