G75*
%MOIN*%
%OFA0B0*%
%FSLAX25Y25*%
%IPPOS*%
%LPD*%
%AMOC8*
5,1,8,0,0,1.08239X$1,22.5*
%
%ADD10C,0.00800*%
%ADD11C,0.00400*%
%ADD12C,0.00500*%
%ADD13R,0.03400X0.03000*%
%ADD14R,0.03544X0.11023*%
%ADD15R,0.03543X0.11024*%
%ADD16C,0.00600*%
%ADD17R,0.05512X0.02559*%
%ADD18C,0.00000*%
%ADD19R,0.04000X0.06000*%
%ADD20C,0.01575*%
%ADD21R,0.01181X0.04331*%
D10*
X0135711Y0165161D02*
X0154530Y0165161D01*
X0154609Y0165161D02*
X0154609Y0180043D01*
X0154530Y0180043D02*
X0135711Y0180043D01*
X0135711Y0165161D01*
X0180802Y0159112D02*
X0219518Y0159112D01*
X0219518Y0194560D01*
X0180802Y0194560D01*
X0180802Y0159112D01*
X0190060Y0194962D02*
X0210260Y0194962D01*
X0210260Y0196581D01*
X0208460Y0198381D01*
X0191860Y0198381D01*
X0190060Y0196581D01*
X0190060Y0194962D01*
X0190062Y0194962D02*
X0210259Y0194962D01*
X0210259Y0196580D01*
X0208459Y0198379D01*
X0191861Y0198379D01*
X0190062Y0196580D01*
X0190062Y0194962D01*
X0190060Y0195535D02*
X0210260Y0195535D01*
X0210260Y0196334D02*
X0190060Y0196334D01*
X0190612Y0197132D02*
X0209709Y0197132D01*
X0208910Y0197931D02*
X0191410Y0197931D01*
X0167613Y0265502D02*
X0163009Y0265502D01*
X0161474Y0267036D01*
X0161474Y0270106D01*
X0163009Y0271640D01*
X0167613Y0271640D01*
X0167613Y0274710D02*
X0167613Y0265502D01*
X0158405Y0265502D02*
X0155336Y0265502D01*
X0156870Y0265502D02*
X0156870Y0274710D01*
X0158405Y0274710D01*
X0152266Y0271640D02*
X0150732Y0271640D01*
X0150732Y0265502D01*
X0152266Y0265502D02*
X0149197Y0265502D01*
X0144593Y0267036D02*
X0144593Y0273175D01*
X0146128Y0271640D02*
X0143058Y0271640D01*
X0139989Y0271640D02*
X0133851Y0271640D01*
X0139989Y0265502D01*
X0133851Y0265502D01*
X0130781Y0265502D02*
X0126177Y0265502D01*
X0124643Y0267036D01*
X0124643Y0268571D01*
X0126177Y0270106D01*
X0130781Y0270106D01*
X0130781Y0265502D02*
X0130781Y0274710D01*
X0126177Y0274710D01*
X0124643Y0273175D01*
X0124643Y0271640D01*
X0126177Y0270106D01*
X0121573Y0273175D02*
X0120039Y0274710D01*
X0116969Y0274710D01*
X0115435Y0273175D01*
X0115435Y0267036D01*
X0116969Y0265502D01*
X0120039Y0265502D01*
X0121573Y0267036D01*
X0121573Y0273175D01*
X0112366Y0274710D02*
X0106227Y0265502D01*
X0112366Y0265502D02*
X0106227Y0274710D01*
X0143058Y0265502D02*
X0144593Y0267036D01*
X0150732Y0274710D02*
X0150732Y0276244D01*
D11*
X0151193Y0265406D02*
X0151193Y0260302D01*
X0150343Y0260302D02*
X0152044Y0260302D01*
X0151616Y0259507D02*
X0151616Y0258656D01*
X0151616Y0256955D02*
X0151616Y0253552D01*
X0152466Y0253552D02*
X0150765Y0253552D01*
X0149090Y0253552D02*
X0149090Y0256955D01*
X0146538Y0256955D01*
X0145687Y0256104D01*
X0145687Y0253552D01*
X0144026Y0254402D02*
X0143175Y0253552D01*
X0141474Y0253552D01*
X0140623Y0254402D01*
X0140623Y0256104D01*
X0141474Y0256955D01*
X0143175Y0256955D01*
X0144026Y0256104D01*
X0144026Y0254402D01*
X0148668Y0258600D02*
X0148668Y0263705D01*
X0146116Y0263705D01*
X0145265Y0262854D01*
X0145265Y0261152D01*
X0146116Y0260302D01*
X0148668Y0260302D01*
X0151616Y0256955D02*
X0152466Y0256955D01*
X0154128Y0256955D02*
X0154128Y0253552D01*
X0156680Y0253552D01*
X0157531Y0254402D01*
X0157531Y0256955D01*
X0159192Y0256955D02*
X0161744Y0256955D01*
X0162595Y0256104D01*
X0162595Y0254402D01*
X0161744Y0253552D01*
X0159192Y0253552D01*
X0159192Y0258656D01*
X0159621Y0260302D02*
X0158770Y0261152D01*
X0158770Y0262854D01*
X0159621Y0263705D01*
X0161322Y0263705D01*
X0162173Y0262854D01*
X0162173Y0261152D01*
X0161322Y0260302D01*
X0159621Y0260302D01*
X0157109Y0261152D02*
X0157109Y0262854D01*
X0156258Y0263705D01*
X0154556Y0263705D01*
X0153706Y0262854D01*
X0153706Y0262003D01*
X0157109Y0262003D01*
X0157109Y0261152D02*
X0156258Y0260302D01*
X0154556Y0260302D01*
X0152044Y0265406D02*
X0151193Y0265406D01*
X0143604Y0263705D02*
X0143604Y0260302D01*
X0143604Y0262003D02*
X0141902Y0263705D01*
X0141051Y0263705D01*
X0139383Y0263705D02*
X0138533Y0263705D01*
X0138533Y0260302D01*
X0139383Y0260302D02*
X0137682Y0260302D01*
X0136007Y0260302D02*
X0136007Y0263705D01*
X0133455Y0263705D01*
X0132604Y0262854D01*
X0132604Y0260302D01*
X0130943Y0260302D02*
X0127540Y0260302D01*
X0125879Y0260302D02*
X0125028Y0260302D01*
X0125028Y0261152D01*
X0125879Y0261152D01*
X0125879Y0260302D01*
X0123346Y0261152D02*
X0123346Y0262854D01*
X0122496Y0263705D01*
X0120794Y0263705D01*
X0119943Y0262854D01*
X0119943Y0261152D01*
X0120794Y0260302D01*
X0122496Y0260302D01*
X0123346Y0261152D01*
X0123768Y0256955D02*
X0122918Y0256955D01*
X0122067Y0256104D01*
X0121216Y0256955D01*
X0120366Y0256104D01*
X0120366Y0253552D01*
X0118704Y0253552D02*
X0116152Y0253552D01*
X0115301Y0254402D01*
X0115301Y0256104D01*
X0116152Y0256955D01*
X0118704Y0256955D01*
X0118704Y0251850D01*
X0122067Y0253552D02*
X0122067Y0256104D01*
X0123768Y0256955D02*
X0123768Y0253552D01*
X0125430Y0254402D02*
X0125430Y0256104D01*
X0126281Y0256955D01*
X0127982Y0256955D01*
X0128833Y0256104D01*
X0128833Y0254402D01*
X0127982Y0253552D01*
X0126281Y0253552D01*
X0125430Y0254402D01*
X0130494Y0253552D02*
X0133046Y0253552D01*
X0133897Y0254402D01*
X0133897Y0256104D01*
X0133046Y0256955D01*
X0130494Y0256955D01*
X0130943Y0260302D02*
X0127540Y0263705D01*
X0130943Y0263705D01*
X0138533Y0265406D02*
X0138533Y0266257D01*
X0118282Y0263705D02*
X0118282Y0260302D01*
X0118282Y0262003D02*
X0116581Y0263705D01*
X0115730Y0263705D01*
X0114062Y0262854D02*
X0114062Y0261152D01*
X0113211Y0260302D01*
X0110659Y0260302D01*
X0110659Y0259451D02*
X0110659Y0263705D01*
X0113211Y0263705D01*
X0114062Y0262854D01*
X0112360Y0258600D02*
X0111510Y0258600D01*
X0110659Y0259451D01*
X0111088Y0256955D02*
X0110237Y0256104D01*
X0110237Y0253552D01*
X0112789Y0253552D01*
X0113640Y0254402D01*
X0112789Y0255253D01*
X0110237Y0255253D01*
X0111088Y0256955D02*
X0112789Y0256955D01*
X0108575Y0256955D02*
X0106874Y0256955D01*
X0107725Y0257805D02*
X0107725Y0254402D01*
X0106874Y0253552D01*
X0105199Y0253552D02*
X0103498Y0253552D01*
X0104349Y0253552D02*
X0104349Y0256955D01*
X0105199Y0256955D01*
X0104349Y0258656D02*
X0104349Y0259507D01*
X0101823Y0258656D02*
X0101823Y0253552D01*
X0099271Y0253552D01*
X0098420Y0254402D01*
X0098420Y0256104D01*
X0099271Y0256955D01*
X0101823Y0256955D01*
X0096759Y0258656D02*
X0095908Y0258656D01*
X0095908Y0253552D01*
X0096759Y0253552D02*
X0095057Y0253552D01*
X0093383Y0254402D02*
X0093383Y0256104D01*
X0092532Y0256955D01*
X0090830Y0256955D01*
X0089980Y0256104D01*
X0089980Y0255253D01*
X0093383Y0255253D01*
X0093383Y0254402D02*
X0092532Y0253552D01*
X0090830Y0253552D01*
X0093145Y0177517D02*
X0096214Y0177517D01*
X0098485Y0177517D02*
X0103089Y0177517D01*
X0104735Y0175982D02*
X0106270Y0177517D01*
X0109339Y0177517D01*
X0109339Y0174448D02*
X0106270Y0174448D01*
X0104735Y0175982D01*
X0103089Y0174448D02*
X0098485Y0174448D01*
X0099252Y0172913D02*
X0098485Y0172146D01*
X0098485Y0170611D01*
X0099252Y0169844D01*
X0102322Y0169844D01*
X0103089Y0170611D01*
X0103089Y0172146D01*
X0102322Y0172913D01*
X0100787Y0174448D02*
X0100787Y0177517D01*
X0096214Y0174448D02*
X0093145Y0174448D01*
X0091610Y0175982D01*
X0093145Y0177517D01*
X0093912Y0172913D02*
X0092377Y0172913D01*
X0091610Y0172146D01*
X0091610Y0170611D01*
X0092377Y0169844D01*
X0093912Y0169844D02*
X0094679Y0171378D01*
X0094679Y0172146D01*
X0093912Y0172913D01*
X0096214Y0172913D02*
X0096214Y0169844D01*
X0093912Y0169844D01*
X0093912Y0168309D02*
X0093912Y0165240D01*
X0095447Y0166774D02*
X0092377Y0166774D01*
X0098485Y0165240D02*
X0101554Y0165240D01*
X0103089Y0166774D01*
X0101554Y0168309D01*
X0098485Y0168309D01*
X0100787Y0168309D02*
X0100787Y0165240D01*
X0103089Y0163705D02*
X0103089Y0160636D01*
X0103089Y0162171D02*
X0098485Y0162171D01*
X0104735Y0165240D02*
X0104735Y0168309D01*
X0104735Y0166774D02*
X0109339Y0166774D01*
X0107804Y0165240D01*
X0107037Y0163705D02*
X0107037Y0160636D01*
X0108572Y0162171D02*
X0105502Y0162171D01*
X0104735Y0169844D02*
X0107804Y0172913D01*
X0108572Y0172913D01*
X0109339Y0172146D01*
X0109339Y0170611D01*
X0108572Y0169844D01*
X0104735Y0169844D02*
X0104735Y0172913D01*
X0104558Y0149906D02*
X0104558Y0146836D01*
X0106093Y0145302D01*
X0107627Y0146836D01*
X0107627Y0149906D01*
X0109162Y0149906D02*
X0112231Y0149906D01*
X0112231Y0147604D01*
X0110697Y0148371D01*
X0109929Y0148371D01*
X0109162Y0147604D01*
X0109162Y0146069D01*
X0109929Y0145302D01*
X0111464Y0145302D01*
X0112231Y0146069D01*
X0113766Y0147604D02*
X0116835Y0147604D01*
X0115300Y0149138D02*
X0115300Y0146069D01*
X0113766Y0139906D02*
X0113766Y0135302D01*
X0112231Y0135302D02*
X0110697Y0135302D01*
X0111464Y0135302D02*
X0111464Y0139906D01*
X0112231Y0139906D02*
X0110697Y0139906D01*
X0109162Y0139138D02*
X0109162Y0138371D01*
X0108395Y0137604D01*
X0106860Y0137604D01*
X0106093Y0136836D01*
X0106093Y0136069D01*
X0106860Y0135302D01*
X0108395Y0135302D01*
X0109162Y0136069D01*
X0109162Y0139138D02*
X0108395Y0139906D01*
X0106860Y0139906D01*
X0106093Y0139138D01*
X0104558Y0139138D02*
X0104558Y0136069D01*
X0103791Y0135302D01*
X0102256Y0135302D01*
X0101489Y0136069D01*
X0101489Y0139138D01*
X0102256Y0139906D01*
X0103791Y0139906D01*
X0104558Y0139138D01*
X0099954Y0134534D02*
X0096885Y0134534D01*
X0095350Y0135302D02*
X0093048Y0135302D01*
X0092281Y0136069D01*
X0092281Y0136836D01*
X0093048Y0137604D01*
X0095350Y0137604D01*
X0095350Y0139906D02*
X0093048Y0139906D01*
X0092281Y0139138D01*
X0092281Y0138371D01*
X0093048Y0137604D01*
X0090746Y0139906D02*
X0090746Y0135302D01*
X0087677Y0135302D01*
X0093816Y0129906D02*
X0093816Y0125302D01*
X0090746Y0125302D01*
X0090746Y0119906D02*
X0090746Y0115302D01*
X0087677Y0115302D01*
X0092281Y0116069D02*
X0093048Y0115302D01*
X0095350Y0115302D01*
X0095350Y0119906D01*
X0093048Y0119906D01*
X0092281Y0119138D01*
X0092281Y0118371D01*
X0093048Y0117604D01*
X0095350Y0117604D01*
X0093048Y0117604D02*
X0092281Y0116836D01*
X0092281Y0116069D01*
X0096885Y0114534D02*
X0099954Y0114534D01*
X0101489Y0115302D02*
X0103023Y0115302D01*
X0102256Y0115302D02*
X0102256Y0119906D01*
X0103023Y0119906D02*
X0101489Y0119906D01*
X0104558Y0119138D02*
X0105325Y0119906D01*
X0106860Y0119906D01*
X0107627Y0119138D01*
X0107627Y0118371D01*
X0106860Y0117604D01*
X0105325Y0117604D01*
X0104558Y0116836D01*
X0104558Y0116069D01*
X0105325Y0115302D01*
X0106860Y0115302D01*
X0107627Y0116069D01*
X0109162Y0116069D02*
X0109162Y0119138D01*
X0109929Y0119906D01*
X0111464Y0119906D01*
X0112231Y0119138D01*
X0112231Y0116069D01*
X0111464Y0115302D01*
X0109929Y0115302D01*
X0109162Y0116069D01*
X0113766Y0115302D02*
X0113766Y0119906D01*
X0115300Y0118371D01*
X0116835Y0119906D01*
X0116835Y0115302D01*
X0117035Y0110702D02*
X0103223Y0110702D01*
X0104558Y0109906D02*
X0107627Y0109906D01*
X0106093Y0109906D02*
X0106093Y0105302D01*
X0109162Y0106069D02*
X0109929Y0105302D01*
X0111464Y0105302D01*
X0112231Y0106069D01*
X0111464Y0107604D02*
X0112231Y0108371D01*
X0112231Y0109138D01*
X0111464Y0109906D01*
X0109929Y0109906D01*
X0109162Y0109138D01*
X0109929Y0107604D02*
X0109162Y0106836D01*
X0109162Y0106069D01*
X0109929Y0107604D02*
X0111464Y0107604D01*
X0113766Y0107604D02*
X0113766Y0109138D01*
X0114533Y0109906D01*
X0116835Y0109906D01*
X0116835Y0105302D01*
X0116835Y0106836D02*
X0114533Y0106836D01*
X0113766Y0107604D01*
X0115300Y0106836D02*
X0113766Y0105302D01*
X0113766Y0099906D02*
X0116835Y0099906D01*
X0115300Y0099906D02*
X0115300Y0095302D01*
X0112231Y0095302D02*
X0109162Y0099906D01*
X0107627Y0099906D02*
X0105325Y0099906D01*
X0104558Y0099138D01*
X0104558Y0096069D01*
X0105325Y0095302D01*
X0107627Y0095302D01*
X0107627Y0099906D01*
X0112231Y0099906D02*
X0109162Y0095302D01*
X0109162Y0089906D02*
X0112231Y0085302D01*
X0113766Y0085302D02*
X0115300Y0086836D01*
X0114533Y0086836D02*
X0116835Y0086836D01*
X0116835Y0085302D02*
X0116835Y0089906D01*
X0114533Y0089906D01*
X0113766Y0089138D01*
X0113766Y0087604D01*
X0114533Y0086836D01*
X0112231Y0089906D02*
X0109162Y0085302D01*
X0107627Y0085302D02*
X0105325Y0085302D01*
X0104558Y0086069D01*
X0104558Y0089138D01*
X0105325Y0089906D01*
X0107627Y0089906D01*
X0107627Y0085302D01*
X0103023Y0084534D02*
X0099954Y0084534D01*
X0098419Y0085302D02*
X0096117Y0085302D01*
X0095350Y0086069D01*
X0095350Y0086836D01*
X0096117Y0087604D01*
X0098419Y0087604D01*
X0096117Y0087604D02*
X0095350Y0088371D01*
X0095350Y0089138D01*
X0096117Y0089906D01*
X0098419Y0089906D01*
X0098419Y0085302D01*
X0093816Y0085302D02*
X0093816Y0089906D01*
X0093816Y0085302D02*
X0090746Y0085302D01*
X0100721Y0095302D02*
X0102256Y0095302D01*
X0103023Y0096069D01*
X0101489Y0097604D02*
X0100721Y0097604D01*
X0099954Y0096836D01*
X0099954Y0096069D01*
X0100721Y0095302D01*
X0100721Y0097604D02*
X0099954Y0098371D01*
X0099954Y0099138D01*
X0100721Y0099906D01*
X0102256Y0099906D01*
X0103023Y0099138D01*
X0103023Y0124534D02*
X0099954Y0124534D01*
X0098419Y0125302D02*
X0096117Y0125302D01*
X0095350Y0126069D01*
X0095350Y0126836D01*
X0096117Y0127604D01*
X0098419Y0127604D01*
X0096117Y0127604D02*
X0095350Y0128371D01*
X0095350Y0129138D01*
X0096117Y0129906D01*
X0098419Y0129906D01*
X0098419Y0125302D01*
X0104558Y0125302D02*
X0106860Y0127604D01*
X0107627Y0126836D02*
X0104558Y0129906D01*
X0107627Y0129906D02*
X0107627Y0125302D01*
X0109162Y0126069D02*
X0109929Y0125302D01*
X0111464Y0125302D01*
X0112231Y0126069D01*
X0112231Y0129138D01*
X0111464Y0129906D01*
X0109929Y0129906D01*
X0109162Y0129138D01*
X0113766Y0129138D02*
X0114533Y0129906D01*
X0116068Y0129906D01*
X0116835Y0129138D01*
X0116835Y0128371D01*
X0116068Y0127604D01*
X0114533Y0127604D01*
X0113766Y0126836D01*
X0113766Y0126069D01*
X0114533Y0125302D01*
X0116068Y0125302D01*
X0116835Y0126069D01*
X0116835Y0135302D02*
X0116835Y0139906D01*
X0115300Y0138371D01*
X0113766Y0139906D01*
X0095350Y0139906D02*
X0095350Y0135302D01*
X0140870Y0137604D02*
X0141637Y0136836D01*
X0143939Y0136836D01*
X0143939Y0135302D02*
X0143939Y0139906D01*
X0141637Y0139906D01*
X0140870Y0139138D01*
X0140870Y0137604D01*
X0145474Y0137604D02*
X0148543Y0137604D01*
X0148543Y0138371D02*
X0147008Y0139906D01*
X0145474Y0138371D01*
X0145474Y0135302D01*
X0148543Y0135302D02*
X0148543Y0138371D01*
X0150078Y0139906D02*
X0150078Y0135302D01*
X0153147Y0135302D02*
X0153147Y0139906D01*
X0151612Y0138371D01*
X0150078Y0139906D01*
X0150845Y0145302D02*
X0150078Y0146069D01*
X0150078Y0147604D01*
X0151612Y0147604D01*
X0150078Y0149138D02*
X0150845Y0149906D01*
X0152380Y0149906D01*
X0153147Y0149138D01*
X0153147Y0146069D01*
X0152380Y0145302D01*
X0150845Y0145302D01*
X0148543Y0145302D02*
X0148543Y0149906D01*
X0145474Y0145302D01*
X0145474Y0149906D01*
X0143939Y0149906D02*
X0141637Y0149906D01*
X0140870Y0149138D01*
X0140870Y0146069D01*
X0141637Y0145302D01*
X0143939Y0145302D01*
X0143939Y0149906D01*
X0143939Y0129906D02*
X0141637Y0129906D01*
X0140870Y0129138D01*
X0140870Y0127604D01*
X0141637Y0126836D01*
X0143939Y0126836D01*
X0143939Y0125302D02*
X0143939Y0129906D01*
X0145474Y0129138D02*
X0145474Y0127604D01*
X0146241Y0126836D01*
X0148543Y0126836D01*
X0148543Y0125302D02*
X0148543Y0129906D01*
X0146241Y0129906D01*
X0145474Y0129138D01*
X0142404Y0126836D02*
X0140870Y0125302D01*
X0141637Y0119906D02*
X0140870Y0119138D01*
X0140870Y0117604D01*
X0141637Y0116836D01*
X0143939Y0116836D01*
X0143939Y0115302D02*
X0143939Y0119906D01*
X0141637Y0119906D01*
X0145474Y0119138D02*
X0145474Y0117604D01*
X0146241Y0116836D01*
X0148543Y0116836D01*
X0148543Y0115302D02*
X0148543Y0119906D01*
X0146241Y0119906D01*
X0145474Y0119138D01*
X0142404Y0116836D02*
X0140870Y0115302D01*
X0141637Y0109906D02*
X0140870Y0109138D01*
X0140870Y0107604D01*
X0141637Y0106836D01*
X0143939Y0106836D01*
X0143939Y0105302D02*
X0143939Y0109906D01*
X0141637Y0109906D01*
X0142404Y0106836D02*
X0140870Y0105302D01*
X0141637Y0099906D02*
X0140870Y0099138D01*
X0140870Y0098371D01*
X0141637Y0097604D01*
X0140870Y0096836D01*
X0140870Y0096069D01*
X0141637Y0095302D01*
X0143172Y0095302D01*
X0143939Y0096069D01*
X0145474Y0096069D02*
X0145474Y0099138D01*
X0146241Y0099906D01*
X0148543Y0099906D01*
X0148543Y0095302D01*
X0146241Y0095302D01*
X0145474Y0096069D01*
X0143939Y0099138D02*
X0143172Y0099906D01*
X0141637Y0099906D01*
X0141637Y0097604D02*
X0142404Y0097604D01*
X0148543Y0105302D02*
X0148543Y0109906D01*
X0146241Y0109906D01*
X0145474Y0109138D01*
X0145474Y0107604D01*
X0146241Y0106836D01*
X0148543Y0106836D01*
X0150078Y0104534D02*
X0153147Y0104534D01*
X0154682Y0105302D02*
X0156216Y0105302D01*
X0155449Y0105302D02*
X0155449Y0109906D01*
X0156216Y0109906D02*
X0154682Y0109906D01*
X0157751Y0109138D02*
X0158518Y0109906D01*
X0160053Y0109906D01*
X0160820Y0109138D01*
X0160820Y0108371D01*
X0160053Y0107604D01*
X0158518Y0107604D01*
X0157751Y0106836D01*
X0157751Y0106069D01*
X0158518Y0105302D01*
X0160053Y0105302D01*
X0160820Y0106069D01*
X0162355Y0106069D02*
X0163122Y0105302D01*
X0164657Y0105302D01*
X0165424Y0106069D01*
X0165424Y0109138D01*
X0164657Y0109906D01*
X0163122Y0109906D01*
X0162355Y0109138D01*
X0162355Y0106069D01*
X0166959Y0105302D02*
X0166959Y0109906D01*
X0168493Y0108371D01*
X0170028Y0109906D01*
X0170028Y0105302D01*
X0166191Y0115302D02*
X0164657Y0115302D01*
X0163889Y0116069D01*
X0163889Y0116836D01*
X0164657Y0117604D01*
X0166191Y0117604D01*
X0166959Y0118371D01*
X0166959Y0119138D01*
X0166191Y0119906D01*
X0164657Y0119906D01*
X0163889Y0119138D01*
X0162355Y0119138D02*
X0162355Y0116069D01*
X0161588Y0115302D01*
X0160053Y0115302D01*
X0159286Y0116069D01*
X0157751Y0116836D02*
X0154682Y0119906D01*
X0157751Y0119906D02*
X0157751Y0115302D01*
X0156984Y0117604D02*
X0154682Y0115302D01*
X0153147Y0114534D02*
X0150078Y0114534D01*
X0150078Y0124534D02*
X0153147Y0124534D01*
X0154682Y0126069D02*
X0154682Y0129138D01*
X0155449Y0129906D01*
X0156984Y0129906D01*
X0157751Y0129138D01*
X0157751Y0126069D01*
X0156984Y0125302D01*
X0155449Y0125302D01*
X0154682Y0126069D01*
X0159286Y0126069D02*
X0160053Y0125302D01*
X0161588Y0125302D01*
X0162355Y0126069D01*
X0163889Y0125302D02*
X0165424Y0125302D01*
X0164657Y0125302D02*
X0164657Y0129906D01*
X0165424Y0129906D02*
X0163889Y0129906D01*
X0162355Y0129138D02*
X0162355Y0128371D01*
X0161588Y0127604D01*
X0160053Y0127604D01*
X0159286Y0126836D01*
X0159286Y0126069D01*
X0159286Y0129138D02*
X0160053Y0129906D01*
X0161588Y0129906D01*
X0162355Y0129138D01*
X0166959Y0129906D02*
X0166959Y0125302D01*
X0170028Y0125302D02*
X0170028Y0129906D01*
X0168493Y0128371D01*
X0166959Y0129906D01*
X0161588Y0119906D02*
X0160053Y0119906D01*
X0159286Y0119138D01*
X0161588Y0119906D02*
X0162355Y0119138D01*
X0166191Y0115302D02*
X0166959Y0116069D01*
X0157751Y0099906D02*
X0155449Y0099906D01*
X0154682Y0099138D01*
X0154682Y0097604D01*
X0155449Y0096836D01*
X0157751Y0096836D01*
X0157751Y0095302D02*
X0157751Y0099906D01*
X0156216Y0096836D02*
X0154682Y0095302D01*
X0153147Y0095302D02*
X0150078Y0099906D01*
X0153147Y0099906D02*
X0150078Y0095302D01*
X0148543Y0089906D02*
X0146241Y0089906D01*
X0145474Y0089138D01*
X0145474Y0088371D01*
X0146241Y0087604D01*
X0148543Y0087604D01*
X0148543Y0085302D02*
X0148543Y0089906D01*
X0146241Y0087604D02*
X0145474Y0086836D01*
X0145474Y0086069D01*
X0146241Y0085302D01*
X0148543Y0085302D01*
X0150078Y0084534D02*
X0153147Y0084534D01*
X0154682Y0086069D02*
X0154682Y0089138D01*
X0155449Y0089906D01*
X0157751Y0089906D01*
X0157751Y0085302D01*
X0155449Y0085302D01*
X0154682Y0086069D01*
X0159286Y0085302D02*
X0162355Y0089906D01*
X0163889Y0089906D02*
X0166959Y0089906D01*
X0165424Y0089906D02*
X0165424Y0085302D01*
X0162355Y0085302D02*
X0159286Y0089906D01*
X0143939Y0089906D02*
X0143939Y0085302D01*
X0140870Y0085302D01*
X0151941Y0069906D02*
X0151941Y0065302D01*
X0148871Y0065302D01*
X0153475Y0066069D02*
X0154242Y0065302D01*
X0156544Y0065302D01*
X0156544Y0069906D01*
X0154242Y0069906D01*
X0153475Y0069138D01*
X0153475Y0068371D01*
X0154242Y0067604D01*
X0156544Y0067604D01*
X0154242Y0067604D02*
X0153475Y0066836D01*
X0153475Y0066069D01*
X0158079Y0064534D02*
X0161148Y0064534D01*
X0162683Y0065302D02*
X0165752Y0065302D01*
X0165752Y0069906D01*
X0167287Y0069138D02*
X0168054Y0069906D01*
X0169589Y0069906D01*
X0170356Y0069138D01*
X0170356Y0066069D01*
X0169589Y0065302D01*
X0168054Y0065302D01*
X0167287Y0066069D01*
X0171891Y0066069D02*
X0172658Y0065302D01*
X0174193Y0065302D01*
X0174960Y0066069D01*
X0174193Y0067604D02*
X0172658Y0067604D01*
X0171891Y0066836D01*
X0171891Y0066069D01*
X0174193Y0067604D02*
X0174960Y0068371D01*
X0174960Y0069138D01*
X0174193Y0069906D01*
X0172658Y0069906D01*
X0171891Y0069138D01*
X0172658Y0059906D02*
X0174193Y0059906D01*
X0174960Y0059138D01*
X0174960Y0058371D01*
X0174193Y0057604D01*
X0172658Y0057604D01*
X0171891Y0056836D01*
X0171891Y0056069D01*
X0172658Y0055302D01*
X0174193Y0055302D01*
X0174960Y0056069D01*
X0171891Y0059138D02*
X0172658Y0059906D01*
X0170356Y0059906D02*
X0170356Y0055302D01*
X0168054Y0055302D01*
X0167287Y0056069D01*
X0167287Y0059138D01*
X0168054Y0059906D01*
X0170356Y0059906D01*
X0165752Y0058371D02*
X0165752Y0055302D01*
X0165752Y0057604D02*
X0162683Y0057604D01*
X0162683Y0058371D02*
X0162683Y0055302D01*
X0161148Y0054534D02*
X0158079Y0054534D01*
X0156544Y0055302D02*
X0154242Y0055302D01*
X0153475Y0056069D01*
X0153475Y0056836D01*
X0154242Y0057604D01*
X0156544Y0057604D01*
X0154242Y0057604D02*
X0153475Y0058371D01*
X0153475Y0059138D01*
X0154242Y0059906D01*
X0156544Y0059906D01*
X0156544Y0055302D01*
X0151941Y0055302D02*
X0148871Y0055302D01*
X0151941Y0055302D02*
X0151941Y0059906D01*
X0162683Y0058371D02*
X0164218Y0059906D01*
X0165752Y0058371D01*
X0185808Y0059138D02*
X0185808Y0056069D01*
X0186575Y0055302D01*
X0188877Y0055302D01*
X0188877Y0059906D01*
X0186575Y0059906D01*
X0185808Y0059138D01*
X0190412Y0059906D02*
X0190412Y0055302D01*
X0193481Y0059906D01*
X0193481Y0055302D01*
X0195016Y0056069D02*
X0195016Y0057604D01*
X0196550Y0057604D01*
X0195016Y0059138D02*
X0195783Y0059906D01*
X0197318Y0059906D01*
X0198085Y0059138D01*
X0198085Y0056069D01*
X0197318Y0055302D01*
X0195783Y0055302D01*
X0195016Y0056069D01*
X0204537Y0073427D02*
X0204537Y0076496D01*
X0204537Y0078031D02*
X0205304Y0079565D01*
X0205304Y0080333D01*
X0204537Y0081100D01*
X0203002Y0081100D01*
X0202235Y0080333D01*
X0202235Y0078798D01*
X0203002Y0078031D01*
X0204537Y0078031D02*
X0206839Y0078031D01*
X0206839Y0081100D01*
X0206839Y0082635D02*
X0203770Y0082635D01*
X0202235Y0084169D01*
X0203770Y0085704D01*
X0206839Y0085704D01*
X0212235Y0085704D02*
X0213770Y0084169D01*
X0213770Y0084936D02*
X0213770Y0082635D01*
X0212235Y0082635D02*
X0216839Y0082635D01*
X0216839Y0084936D01*
X0216072Y0085704D01*
X0214537Y0085704D01*
X0213770Y0084936D01*
X0213002Y0087238D02*
X0212235Y0088006D01*
X0212235Y0089540D01*
X0213002Y0090308D01*
X0216072Y0090308D01*
X0216839Y0089540D01*
X0216839Y0088006D01*
X0216072Y0087238D01*
X0213002Y0087238D01*
X0212235Y0081100D02*
X0215304Y0081100D01*
X0216839Y0079565D01*
X0215304Y0078031D01*
X0212235Y0078031D01*
X0213002Y0076496D02*
X0212235Y0075729D01*
X0212235Y0073427D01*
X0216839Y0073427D01*
X0216839Y0075729D01*
X0216072Y0076496D01*
X0215304Y0076496D01*
X0214537Y0075729D01*
X0214537Y0073427D01*
X0214537Y0075729D02*
X0213770Y0076496D01*
X0213002Y0076496D01*
X0214537Y0078031D02*
X0214537Y0081100D01*
X0206072Y0074961D02*
X0203002Y0074961D01*
X0215360Y0136552D02*
X0215360Y0138086D01*
X0215360Y0137319D02*
X0219964Y0137319D01*
X0219964Y0136552D02*
X0219964Y0138086D01*
X0219197Y0139621D02*
X0219964Y0140388D01*
X0219964Y0141923D01*
X0219197Y0142690D01*
X0217662Y0144225D02*
X0217662Y0147294D01*
X0215360Y0146527D02*
X0219964Y0146527D01*
X0217662Y0144225D01*
X0216127Y0142690D02*
X0215360Y0141923D01*
X0215360Y0140388D01*
X0216127Y0139621D01*
X0219197Y0139621D01*
X0219964Y0157802D02*
X0215360Y0157802D01*
X0216895Y0157802D02*
X0216895Y0160104D01*
X0217662Y0160871D01*
X0219197Y0160871D01*
X0219964Y0160104D01*
X0219964Y0157802D01*
X0218429Y0162406D02*
X0219964Y0163940D01*
X0215360Y0163940D01*
X0215360Y0162406D02*
X0215360Y0165475D01*
X0216127Y0167010D02*
X0219197Y0170079D01*
X0216127Y0170079D01*
X0215360Y0169311D01*
X0215360Y0167777D01*
X0216127Y0167010D01*
X0219197Y0167010D01*
X0219964Y0167777D01*
X0219964Y0169311D01*
X0219197Y0170079D01*
X0215360Y0160871D02*
X0216895Y0159336D01*
X0152716Y0173667D02*
X0151181Y0173667D01*
X0151949Y0173667D02*
X0151949Y0178271D01*
X0152716Y0178271D02*
X0151181Y0178271D01*
X0149647Y0177504D02*
X0149647Y0174435D01*
X0148879Y0173667D01*
X0147345Y0173667D01*
X0146577Y0174435D01*
X0145043Y0174435D02*
X0144276Y0173667D01*
X0142741Y0173667D01*
X0141974Y0174435D01*
X0141974Y0175202D01*
X0142741Y0175969D01*
X0145043Y0175969D01*
X0145043Y0174435D01*
X0145043Y0175969D02*
X0143508Y0177504D01*
X0141974Y0178271D01*
X0146577Y0177504D02*
X0147345Y0178271D01*
X0148879Y0178271D01*
X0149647Y0177504D01*
X0165107Y0253552D02*
X0166809Y0253552D01*
X0167659Y0254402D01*
X0167659Y0256104D01*
X0166809Y0256955D01*
X0165107Y0256955D01*
X0164256Y0256104D01*
X0164256Y0255253D01*
X0167659Y0255253D01*
X0169321Y0255253D02*
X0172724Y0255253D01*
X0172724Y0254402D02*
X0172724Y0256104D01*
X0171873Y0256955D01*
X0170171Y0256955D01*
X0169321Y0256104D01*
X0169321Y0255253D01*
X0170171Y0253552D02*
X0171873Y0253552D01*
X0172724Y0254402D01*
X0174385Y0254402D02*
X0175236Y0253552D01*
X0177788Y0253552D01*
X0177788Y0251850D02*
X0177788Y0256955D01*
X0175236Y0256955D01*
X0174385Y0256104D01*
X0174385Y0254402D01*
X0179449Y0254402D02*
X0180300Y0253552D01*
X0182852Y0253552D01*
X0182001Y0255253D02*
X0182852Y0256104D01*
X0182001Y0256955D01*
X0179449Y0256955D01*
X0180300Y0255253D02*
X0182001Y0255253D01*
X0180300Y0255253D02*
X0179449Y0254402D01*
D12*
X0048285Y0280948D02*
X0048285Y0052602D01*
X0225450Y0052602D01*
X0225450Y0280948D01*
X0048285Y0280948D01*
X0096536Y0186590D02*
X0096784Y0183852D01*
X0096784Y0183852D01*
X0096536Y0181114D01*
X0096535Y0181113D01*
X0096432Y0181125D01*
X0096328Y0181140D01*
X0096226Y0181159D01*
X0096124Y0181183D01*
X0096023Y0181210D01*
X0095924Y0181240D01*
X0095825Y0181275D01*
X0095728Y0181313D01*
X0095633Y0181355D01*
X0095539Y0181401D01*
X0095447Y0181450D01*
X0095356Y0181502D01*
X0095268Y0181558D01*
X0095182Y0181617D01*
X0095099Y0181680D01*
X0095018Y0181745D01*
X0094939Y0181814D01*
X0094863Y0181885D01*
X0094790Y0181960D01*
X0094719Y0182037D01*
X0094652Y0182116D01*
X0094588Y0182199D01*
X0094526Y0182283D01*
X0094469Y0182370D01*
X0094414Y0182459D01*
X0094363Y0182550D01*
X0094315Y0182643D01*
X0094271Y0182737D01*
X0094231Y0182833D01*
X0094194Y0182931D01*
X0094161Y0183030D01*
X0094131Y0183130D01*
X0094106Y0183231D01*
X0094084Y0183333D01*
X0094067Y0183436D01*
X0094053Y0183540D01*
X0094043Y0183643D01*
X0094037Y0183748D01*
X0094035Y0183852D01*
X0094037Y0183956D01*
X0094043Y0184061D01*
X0094053Y0184164D01*
X0094067Y0184268D01*
X0094084Y0184371D01*
X0094106Y0184473D01*
X0094131Y0184574D01*
X0094161Y0184674D01*
X0094194Y0184773D01*
X0094231Y0184871D01*
X0094271Y0184967D01*
X0094315Y0185061D01*
X0094363Y0185154D01*
X0094414Y0185245D01*
X0094469Y0185334D01*
X0094526Y0185421D01*
X0094588Y0185505D01*
X0094652Y0185588D01*
X0094719Y0185667D01*
X0094790Y0185744D01*
X0094863Y0185819D01*
X0094939Y0185890D01*
X0095018Y0185959D01*
X0095099Y0186024D01*
X0095182Y0186087D01*
X0095268Y0186146D01*
X0095356Y0186202D01*
X0095447Y0186254D01*
X0095539Y0186303D01*
X0095633Y0186349D01*
X0095728Y0186391D01*
X0095825Y0186429D01*
X0095924Y0186464D01*
X0096023Y0186494D01*
X0096124Y0186521D01*
X0096226Y0186545D01*
X0096328Y0186564D01*
X0096432Y0186579D01*
X0096535Y0186591D01*
X0096536Y0186114D01*
X0096441Y0186102D01*
X0096348Y0186086D01*
X0096255Y0186065D01*
X0096163Y0186041D01*
X0096072Y0186013D01*
X0095983Y0185982D01*
X0095894Y0185947D01*
X0095808Y0185908D01*
X0095723Y0185865D01*
X0095640Y0185819D01*
X0095559Y0185769D01*
X0095480Y0185717D01*
X0095403Y0185660D01*
X0095329Y0185601D01*
X0095257Y0185539D01*
X0095188Y0185474D01*
X0095122Y0185406D01*
X0095058Y0185335D01*
X0094998Y0185262D01*
X0094941Y0185186D01*
X0094887Y0185108D01*
X0094836Y0185027D01*
X0094789Y0184945D01*
X0094745Y0184861D01*
X0094704Y0184775D01*
X0094668Y0184687D01*
X0094635Y0184598D01*
X0094605Y0184508D01*
X0094580Y0184416D01*
X0094558Y0184324D01*
X0094541Y0184230D01*
X0094527Y0184136D01*
X0094517Y0184042D01*
X0094511Y0183947D01*
X0094509Y0183852D01*
X0094511Y0183757D01*
X0094517Y0183662D01*
X0094527Y0183568D01*
X0094541Y0183474D01*
X0094558Y0183380D01*
X0094580Y0183288D01*
X0094605Y0183196D01*
X0094635Y0183106D01*
X0094668Y0183017D01*
X0094704Y0182929D01*
X0094745Y0182843D01*
X0094789Y0182759D01*
X0094836Y0182677D01*
X0094887Y0182596D01*
X0094941Y0182518D01*
X0094998Y0182442D01*
X0095058Y0182369D01*
X0095122Y0182298D01*
X0095188Y0182230D01*
X0095257Y0182165D01*
X0095329Y0182103D01*
X0095403Y0182044D01*
X0095480Y0181987D01*
X0095559Y0181935D01*
X0095640Y0181885D01*
X0095723Y0181839D01*
X0095808Y0181796D01*
X0095894Y0181757D01*
X0095983Y0181722D01*
X0096072Y0181691D01*
X0096163Y0181663D01*
X0096255Y0181639D01*
X0096348Y0181618D01*
X0096441Y0181602D01*
X0096536Y0181590D01*
X0096536Y0182067D01*
X0096454Y0182081D01*
X0096372Y0182098D01*
X0096292Y0182119D01*
X0096212Y0182143D01*
X0096134Y0182172D01*
X0096057Y0182204D01*
X0095982Y0182239D01*
X0095908Y0182278D01*
X0095836Y0182320D01*
X0095766Y0182365D01*
X0095699Y0182414D01*
X0095634Y0182466D01*
X0095571Y0182520D01*
X0095511Y0182578D01*
X0095453Y0182638D01*
X0095399Y0182701D01*
X0095347Y0182766D01*
X0095298Y0182834D01*
X0095253Y0182903D01*
X0095211Y0182975D01*
X0095172Y0183049D01*
X0095137Y0183124D01*
X0095105Y0183201D01*
X0095076Y0183279D01*
X0095052Y0183359D01*
X0095031Y0183439D01*
X0095014Y0183521D01*
X0095000Y0183603D01*
X0094991Y0183686D01*
X0094985Y0183769D01*
X0094983Y0183852D01*
X0094985Y0183935D01*
X0094991Y0184018D01*
X0095000Y0184101D01*
X0095014Y0184183D01*
X0095031Y0184265D01*
X0095052Y0184345D01*
X0095076Y0184425D01*
X0095105Y0184503D01*
X0095137Y0184580D01*
X0095172Y0184655D01*
X0095211Y0184729D01*
X0095253Y0184801D01*
X0095298Y0184870D01*
X0095347Y0184938D01*
X0095399Y0185003D01*
X0095453Y0185066D01*
X0095511Y0185126D01*
X0095571Y0185184D01*
X0095634Y0185238D01*
X0095699Y0185290D01*
X0095766Y0185339D01*
X0095836Y0185384D01*
X0095908Y0185426D01*
X0095982Y0185465D01*
X0096057Y0185500D01*
X0096134Y0185532D01*
X0096212Y0185561D01*
X0096292Y0185585D01*
X0096372Y0185606D01*
X0096454Y0185623D01*
X0096536Y0185637D01*
X0096536Y0185157D01*
X0096466Y0185141D01*
X0096397Y0185122D01*
X0096329Y0185099D01*
X0096262Y0185073D01*
X0096196Y0185042D01*
X0096133Y0185009D01*
X0096071Y0184972D01*
X0096011Y0184931D01*
X0095954Y0184888D01*
X0095899Y0184841D01*
X0095847Y0184792D01*
X0095797Y0184740D01*
X0095750Y0184685D01*
X0095707Y0184627D01*
X0095666Y0184568D01*
X0095629Y0184506D01*
X0095596Y0184443D01*
X0095565Y0184377D01*
X0095539Y0184310D01*
X0095516Y0184242D01*
X0095496Y0184173D01*
X0095481Y0184102D01*
X0095469Y0184031D01*
X0095461Y0183960D01*
X0095457Y0183888D01*
X0095457Y0183816D01*
X0095461Y0183744D01*
X0095469Y0183673D01*
X0095481Y0183602D01*
X0095496Y0183531D01*
X0095516Y0183462D01*
X0095539Y0183394D01*
X0095565Y0183327D01*
X0095596Y0183261D01*
X0095629Y0183198D01*
X0095666Y0183136D01*
X0095707Y0183077D01*
X0095750Y0183019D01*
X0095797Y0182964D01*
X0095847Y0182912D01*
X0095899Y0182863D01*
X0095954Y0182816D01*
X0096011Y0182773D01*
X0096071Y0182732D01*
X0096133Y0182695D01*
X0096196Y0182662D01*
X0096262Y0182631D01*
X0096329Y0182605D01*
X0096397Y0182582D01*
X0096466Y0182563D01*
X0096536Y0182547D01*
X0096539Y0183034D01*
X0096484Y0183053D01*
X0096431Y0183075D01*
X0096380Y0183100D01*
X0096330Y0183129D01*
X0096283Y0183161D01*
X0096237Y0183197D01*
X0096194Y0183235D01*
X0096154Y0183276D01*
X0096117Y0183320D01*
X0096083Y0183366D01*
X0096052Y0183414D01*
X0096024Y0183465D01*
X0096000Y0183517D01*
X0095979Y0183570D01*
X0095962Y0183625D01*
X0095948Y0183681D01*
X0095939Y0183737D01*
X0095933Y0183795D01*
X0095931Y0183852D01*
X0095933Y0183909D01*
X0095939Y0183967D01*
X0095948Y0184023D01*
X0095962Y0184079D01*
X0095979Y0184134D01*
X0096000Y0184187D01*
X0096024Y0184239D01*
X0096052Y0184290D01*
X0096083Y0184338D01*
X0096117Y0184384D01*
X0096154Y0184428D01*
X0096194Y0184469D01*
X0096237Y0184507D01*
X0096283Y0184543D01*
X0096330Y0184575D01*
X0096380Y0184604D01*
X0096431Y0184629D01*
X0096484Y0184651D01*
X0096539Y0184670D01*
X0096553Y0184153D01*
X0096525Y0184129D01*
X0096499Y0184103D01*
X0096477Y0184074D01*
X0096457Y0184044D01*
X0096440Y0184011D01*
X0096426Y0183977D01*
X0096416Y0183942D01*
X0096409Y0183907D01*
X0096405Y0183870D01*
X0096405Y0183834D01*
X0096409Y0183797D01*
X0096416Y0183762D01*
X0096426Y0183727D01*
X0096440Y0183693D01*
X0096457Y0183660D01*
X0096477Y0183630D01*
X0096499Y0183601D01*
X0096525Y0183575D01*
X0096553Y0183551D01*
X0097240Y0178605D02*
X0098742Y0178605D01*
X0097991Y0178605D02*
X0097991Y0174852D01*
X0098742Y0174102D01*
X0099492Y0174102D01*
X0100243Y0174852D01*
X0101844Y0174852D02*
X0102595Y0174102D01*
X0104096Y0174102D01*
X0104847Y0174852D01*
X0104096Y0176354D02*
X0104847Y0177104D01*
X0104847Y0177855D01*
X0104096Y0178605D01*
X0102595Y0178605D01*
X0101844Y0177855D01*
X0102595Y0176354D02*
X0101844Y0175603D01*
X0101844Y0174852D01*
X0102595Y0176354D02*
X0104096Y0176354D01*
X0105034Y0181114D02*
X0104786Y0183852D01*
X0104786Y0183852D01*
X0105034Y0186590D01*
X0105035Y0186591D01*
X0105138Y0186579D01*
X0105242Y0186564D01*
X0105344Y0186545D01*
X0105446Y0186521D01*
X0105547Y0186494D01*
X0105646Y0186464D01*
X0105745Y0186429D01*
X0105842Y0186391D01*
X0105937Y0186349D01*
X0106031Y0186303D01*
X0106123Y0186254D01*
X0106214Y0186202D01*
X0106302Y0186146D01*
X0106388Y0186087D01*
X0106471Y0186024D01*
X0106552Y0185959D01*
X0106631Y0185890D01*
X0106707Y0185819D01*
X0106780Y0185744D01*
X0106851Y0185667D01*
X0106918Y0185588D01*
X0106982Y0185505D01*
X0107044Y0185421D01*
X0107101Y0185334D01*
X0107156Y0185245D01*
X0107207Y0185154D01*
X0107255Y0185061D01*
X0107299Y0184967D01*
X0107339Y0184871D01*
X0107376Y0184773D01*
X0107409Y0184674D01*
X0107439Y0184574D01*
X0107464Y0184473D01*
X0107486Y0184371D01*
X0107503Y0184268D01*
X0107517Y0184164D01*
X0107527Y0184061D01*
X0107533Y0183956D01*
X0107535Y0183852D01*
X0107533Y0183748D01*
X0107527Y0183643D01*
X0107517Y0183540D01*
X0107503Y0183436D01*
X0107486Y0183333D01*
X0107464Y0183231D01*
X0107439Y0183130D01*
X0107409Y0183030D01*
X0107376Y0182931D01*
X0107339Y0182833D01*
X0107299Y0182737D01*
X0107255Y0182643D01*
X0107207Y0182550D01*
X0107156Y0182459D01*
X0107101Y0182370D01*
X0107044Y0182283D01*
X0106982Y0182199D01*
X0106918Y0182116D01*
X0106851Y0182037D01*
X0106780Y0181960D01*
X0106707Y0181885D01*
X0106631Y0181814D01*
X0106552Y0181745D01*
X0106471Y0181680D01*
X0106388Y0181617D01*
X0106302Y0181558D01*
X0106214Y0181502D01*
X0106123Y0181450D01*
X0106031Y0181401D01*
X0105937Y0181355D01*
X0105842Y0181313D01*
X0105745Y0181275D01*
X0105646Y0181240D01*
X0105547Y0181210D01*
X0105446Y0181183D01*
X0105344Y0181159D01*
X0105242Y0181140D01*
X0105138Y0181125D01*
X0105035Y0181113D01*
X0105034Y0181590D01*
X0105129Y0181602D01*
X0105222Y0181618D01*
X0105315Y0181639D01*
X0105407Y0181663D01*
X0105498Y0181691D01*
X0105587Y0181722D01*
X0105676Y0181757D01*
X0105762Y0181796D01*
X0105847Y0181839D01*
X0105930Y0181885D01*
X0106011Y0181935D01*
X0106090Y0181987D01*
X0106167Y0182044D01*
X0106241Y0182103D01*
X0106313Y0182165D01*
X0106382Y0182230D01*
X0106448Y0182298D01*
X0106512Y0182369D01*
X0106572Y0182442D01*
X0106629Y0182518D01*
X0106683Y0182596D01*
X0106734Y0182677D01*
X0106781Y0182759D01*
X0106825Y0182843D01*
X0106866Y0182929D01*
X0106902Y0183017D01*
X0106935Y0183106D01*
X0106965Y0183196D01*
X0106990Y0183288D01*
X0107012Y0183380D01*
X0107029Y0183474D01*
X0107043Y0183568D01*
X0107053Y0183662D01*
X0107059Y0183757D01*
X0107061Y0183852D01*
X0107059Y0183947D01*
X0107053Y0184042D01*
X0107043Y0184136D01*
X0107029Y0184230D01*
X0107012Y0184324D01*
X0106990Y0184416D01*
X0106965Y0184508D01*
X0106935Y0184598D01*
X0106902Y0184687D01*
X0106866Y0184775D01*
X0106825Y0184861D01*
X0106781Y0184945D01*
X0106734Y0185027D01*
X0106683Y0185108D01*
X0106629Y0185186D01*
X0106572Y0185262D01*
X0106512Y0185335D01*
X0106448Y0185406D01*
X0106382Y0185474D01*
X0106313Y0185539D01*
X0106241Y0185601D01*
X0106167Y0185660D01*
X0106090Y0185717D01*
X0106011Y0185769D01*
X0105930Y0185819D01*
X0105847Y0185865D01*
X0105762Y0185908D01*
X0105676Y0185947D01*
X0105587Y0185982D01*
X0105498Y0186013D01*
X0105407Y0186041D01*
X0105315Y0186065D01*
X0105222Y0186086D01*
X0105129Y0186102D01*
X0105034Y0186114D01*
X0105034Y0185637D01*
X0105116Y0185623D01*
X0105198Y0185606D01*
X0105278Y0185585D01*
X0105358Y0185561D01*
X0105436Y0185532D01*
X0105513Y0185500D01*
X0105588Y0185465D01*
X0105662Y0185426D01*
X0105734Y0185384D01*
X0105804Y0185339D01*
X0105871Y0185290D01*
X0105936Y0185238D01*
X0105999Y0185184D01*
X0106059Y0185126D01*
X0106117Y0185066D01*
X0106171Y0185003D01*
X0106223Y0184938D01*
X0106272Y0184870D01*
X0106317Y0184801D01*
X0106359Y0184729D01*
X0106398Y0184655D01*
X0106433Y0184580D01*
X0106465Y0184503D01*
X0106494Y0184425D01*
X0106518Y0184345D01*
X0106539Y0184265D01*
X0106556Y0184183D01*
X0106570Y0184101D01*
X0106579Y0184018D01*
X0106585Y0183935D01*
X0106587Y0183852D01*
X0106585Y0183769D01*
X0106579Y0183686D01*
X0106570Y0183603D01*
X0106556Y0183521D01*
X0106539Y0183439D01*
X0106518Y0183359D01*
X0106494Y0183279D01*
X0106465Y0183201D01*
X0106433Y0183124D01*
X0106398Y0183049D01*
X0106359Y0182975D01*
X0106317Y0182903D01*
X0106272Y0182834D01*
X0106223Y0182766D01*
X0106171Y0182701D01*
X0106117Y0182638D01*
X0106059Y0182578D01*
X0105999Y0182520D01*
X0105936Y0182466D01*
X0105871Y0182414D01*
X0105804Y0182365D01*
X0105734Y0182320D01*
X0105662Y0182278D01*
X0105588Y0182239D01*
X0105513Y0182204D01*
X0105436Y0182172D01*
X0105358Y0182143D01*
X0105278Y0182119D01*
X0105198Y0182098D01*
X0105116Y0182081D01*
X0105034Y0182067D01*
X0105034Y0182547D01*
X0105104Y0182563D01*
X0105173Y0182582D01*
X0105241Y0182605D01*
X0105308Y0182631D01*
X0105374Y0182662D01*
X0105437Y0182695D01*
X0105499Y0182732D01*
X0105559Y0182773D01*
X0105616Y0182816D01*
X0105671Y0182863D01*
X0105723Y0182912D01*
X0105773Y0182964D01*
X0105820Y0183019D01*
X0105863Y0183077D01*
X0105904Y0183136D01*
X0105941Y0183198D01*
X0105974Y0183261D01*
X0106005Y0183327D01*
X0106031Y0183394D01*
X0106054Y0183462D01*
X0106074Y0183531D01*
X0106089Y0183602D01*
X0106101Y0183673D01*
X0106109Y0183744D01*
X0106113Y0183816D01*
X0106113Y0183888D01*
X0106109Y0183960D01*
X0106101Y0184031D01*
X0106089Y0184102D01*
X0106074Y0184173D01*
X0106054Y0184242D01*
X0106031Y0184310D01*
X0106005Y0184377D01*
X0105974Y0184443D01*
X0105941Y0184506D01*
X0105904Y0184568D01*
X0105863Y0184627D01*
X0105820Y0184685D01*
X0105773Y0184740D01*
X0105723Y0184792D01*
X0105671Y0184841D01*
X0105616Y0184888D01*
X0105559Y0184931D01*
X0105499Y0184972D01*
X0105437Y0185009D01*
X0105374Y0185042D01*
X0105308Y0185073D01*
X0105241Y0185099D01*
X0105173Y0185122D01*
X0105104Y0185141D01*
X0105034Y0185157D01*
X0105031Y0184670D01*
X0105086Y0184651D01*
X0105139Y0184629D01*
X0105190Y0184604D01*
X0105240Y0184575D01*
X0105287Y0184543D01*
X0105333Y0184507D01*
X0105376Y0184469D01*
X0105416Y0184428D01*
X0105453Y0184384D01*
X0105487Y0184338D01*
X0105518Y0184290D01*
X0105546Y0184239D01*
X0105570Y0184187D01*
X0105591Y0184134D01*
X0105608Y0184079D01*
X0105622Y0184023D01*
X0105631Y0183967D01*
X0105637Y0183909D01*
X0105639Y0183852D01*
X0105637Y0183795D01*
X0105631Y0183737D01*
X0105622Y0183681D01*
X0105608Y0183625D01*
X0105591Y0183570D01*
X0105570Y0183517D01*
X0105546Y0183465D01*
X0105518Y0183414D01*
X0105487Y0183366D01*
X0105453Y0183320D01*
X0105416Y0183276D01*
X0105376Y0183235D01*
X0105333Y0183197D01*
X0105287Y0183161D01*
X0105240Y0183129D01*
X0105190Y0183100D01*
X0105139Y0183075D01*
X0105086Y0183053D01*
X0105031Y0183034D01*
X0105017Y0183551D01*
X0105045Y0183575D01*
X0105071Y0183601D01*
X0105093Y0183630D01*
X0105113Y0183660D01*
X0105130Y0183693D01*
X0105144Y0183727D01*
X0105154Y0183762D01*
X0105161Y0183797D01*
X0105165Y0183834D01*
X0105165Y0183870D01*
X0105161Y0183907D01*
X0105154Y0183942D01*
X0105144Y0183977D01*
X0105130Y0184011D01*
X0105113Y0184044D01*
X0105093Y0184074D01*
X0105071Y0184103D01*
X0105045Y0184129D01*
X0105017Y0184153D01*
X0095639Y0176354D02*
X0092637Y0176354D01*
X0093387Y0178605D02*
X0093387Y0174102D01*
X0095639Y0176354D02*
X0093387Y0178605D01*
X0184328Y0115348D02*
X0184328Y0080348D01*
X0216828Y0080348D01*
X0219328Y0082848D01*
X0219328Y0115348D01*
X0184328Y0115348D01*
X0195922Y0097848D02*
X0195924Y0098001D01*
X0195930Y0098155D01*
X0195940Y0098308D01*
X0195954Y0098460D01*
X0195972Y0098613D01*
X0195994Y0098764D01*
X0196019Y0098915D01*
X0196049Y0099066D01*
X0196083Y0099216D01*
X0196120Y0099364D01*
X0196161Y0099512D01*
X0196206Y0099658D01*
X0196255Y0099804D01*
X0196308Y0099948D01*
X0196364Y0100090D01*
X0196424Y0100231D01*
X0196488Y0100371D01*
X0196555Y0100509D01*
X0196626Y0100645D01*
X0196701Y0100779D01*
X0196778Y0100911D01*
X0196860Y0101041D01*
X0196944Y0101169D01*
X0197032Y0101295D01*
X0197123Y0101418D01*
X0197217Y0101539D01*
X0197315Y0101657D01*
X0197415Y0101773D01*
X0197519Y0101886D01*
X0197625Y0101997D01*
X0197734Y0102105D01*
X0197846Y0102210D01*
X0197960Y0102311D01*
X0198078Y0102410D01*
X0198197Y0102506D01*
X0198319Y0102599D01*
X0198444Y0102688D01*
X0198571Y0102775D01*
X0198700Y0102857D01*
X0198831Y0102937D01*
X0198964Y0103013D01*
X0199099Y0103086D01*
X0199236Y0103155D01*
X0199375Y0103220D01*
X0199515Y0103282D01*
X0199657Y0103340D01*
X0199800Y0103395D01*
X0199945Y0103446D01*
X0200091Y0103493D01*
X0200238Y0103536D01*
X0200386Y0103575D01*
X0200535Y0103611D01*
X0200685Y0103642D01*
X0200836Y0103670D01*
X0200987Y0103694D01*
X0201140Y0103714D01*
X0201292Y0103730D01*
X0201445Y0103742D01*
X0201598Y0103750D01*
X0201751Y0103754D01*
X0201905Y0103754D01*
X0202058Y0103750D01*
X0202211Y0103742D01*
X0202364Y0103730D01*
X0202516Y0103714D01*
X0202669Y0103694D01*
X0202820Y0103670D01*
X0202971Y0103642D01*
X0203121Y0103611D01*
X0203270Y0103575D01*
X0203418Y0103536D01*
X0203565Y0103493D01*
X0203711Y0103446D01*
X0203856Y0103395D01*
X0203999Y0103340D01*
X0204141Y0103282D01*
X0204281Y0103220D01*
X0204420Y0103155D01*
X0204557Y0103086D01*
X0204692Y0103013D01*
X0204825Y0102937D01*
X0204956Y0102857D01*
X0205085Y0102775D01*
X0205212Y0102688D01*
X0205337Y0102599D01*
X0205459Y0102506D01*
X0205578Y0102410D01*
X0205696Y0102311D01*
X0205810Y0102210D01*
X0205922Y0102105D01*
X0206031Y0101997D01*
X0206137Y0101886D01*
X0206241Y0101773D01*
X0206341Y0101657D01*
X0206439Y0101539D01*
X0206533Y0101418D01*
X0206624Y0101295D01*
X0206712Y0101169D01*
X0206796Y0101041D01*
X0206878Y0100911D01*
X0206955Y0100779D01*
X0207030Y0100645D01*
X0207101Y0100509D01*
X0207168Y0100371D01*
X0207232Y0100231D01*
X0207292Y0100090D01*
X0207348Y0099948D01*
X0207401Y0099804D01*
X0207450Y0099658D01*
X0207495Y0099512D01*
X0207536Y0099364D01*
X0207573Y0099216D01*
X0207607Y0099066D01*
X0207637Y0098915D01*
X0207662Y0098764D01*
X0207684Y0098613D01*
X0207702Y0098460D01*
X0207716Y0098308D01*
X0207726Y0098155D01*
X0207732Y0098001D01*
X0207734Y0097848D01*
X0207732Y0097695D01*
X0207726Y0097541D01*
X0207716Y0097388D01*
X0207702Y0097236D01*
X0207684Y0097083D01*
X0207662Y0096932D01*
X0207637Y0096781D01*
X0207607Y0096630D01*
X0207573Y0096480D01*
X0207536Y0096332D01*
X0207495Y0096184D01*
X0207450Y0096038D01*
X0207401Y0095892D01*
X0207348Y0095748D01*
X0207292Y0095606D01*
X0207232Y0095465D01*
X0207168Y0095325D01*
X0207101Y0095187D01*
X0207030Y0095051D01*
X0206955Y0094917D01*
X0206878Y0094785D01*
X0206796Y0094655D01*
X0206712Y0094527D01*
X0206624Y0094401D01*
X0206533Y0094278D01*
X0206439Y0094157D01*
X0206341Y0094039D01*
X0206241Y0093923D01*
X0206137Y0093810D01*
X0206031Y0093699D01*
X0205922Y0093591D01*
X0205810Y0093486D01*
X0205696Y0093385D01*
X0205578Y0093286D01*
X0205459Y0093190D01*
X0205337Y0093097D01*
X0205212Y0093008D01*
X0205085Y0092921D01*
X0204956Y0092839D01*
X0204825Y0092759D01*
X0204692Y0092683D01*
X0204557Y0092610D01*
X0204420Y0092541D01*
X0204281Y0092476D01*
X0204141Y0092414D01*
X0203999Y0092356D01*
X0203856Y0092301D01*
X0203711Y0092250D01*
X0203565Y0092203D01*
X0203418Y0092160D01*
X0203270Y0092121D01*
X0203121Y0092085D01*
X0202971Y0092054D01*
X0202820Y0092026D01*
X0202669Y0092002D01*
X0202516Y0091982D01*
X0202364Y0091966D01*
X0202211Y0091954D01*
X0202058Y0091946D01*
X0201905Y0091942D01*
X0201751Y0091942D01*
X0201598Y0091946D01*
X0201445Y0091954D01*
X0201292Y0091966D01*
X0201140Y0091982D01*
X0200987Y0092002D01*
X0200836Y0092026D01*
X0200685Y0092054D01*
X0200535Y0092085D01*
X0200386Y0092121D01*
X0200238Y0092160D01*
X0200091Y0092203D01*
X0199945Y0092250D01*
X0199800Y0092301D01*
X0199657Y0092356D01*
X0199515Y0092414D01*
X0199375Y0092476D01*
X0199236Y0092541D01*
X0199099Y0092610D01*
X0198964Y0092683D01*
X0198831Y0092759D01*
X0198700Y0092839D01*
X0198571Y0092921D01*
X0198444Y0093008D01*
X0198319Y0093097D01*
X0198197Y0093190D01*
X0198078Y0093286D01*
X0197960Y0093385D01*
X0197846Y0093486D01*
X0197734Y0093591D01*
X0197625Y0093699D01*
X0197519Y0093810D01*
X0197415Y0093923D01*
X0197315Y0094039D01*
X0197217Y0094157D01*
X0197123Y0094278D01*
X0197032Y0094401D01*
X0196944Y0094527D01*
X0196860Y0094655D01*
X0196778Y0094785D01*
X0196701Y0094917D01*
X0196626Y0095051D01*
X0196555Y0095187D01*
X0196488Y0095325D01*
X0196424Y0095465D01*
X0196364Y0095606D01*
X0196308Y0095748D01*
X0196255Y0095892D01*
X0196206Y0096038D01*
X0196161Y0096184D01*
X0196120Y0096332D01*
X0196083Y0096480D01*
X0196049Y0096630D01*
X0196019Y0096781D01*
X0195994Y0096932D01*
X0195972Y0097083D01*
X0195954Y0097236D01*
X0195940Y0097388D01*
X0195930Y0097541D01*
X0195924Y0097695D01*
X0195922Y0097848D01*
D13*
X0200160Y0157448D03*
D14*
X0190160Y0153202D03*
X0210160Y0153202D03*
D15*
X0210200Y0142336D03*
X0190121Y0142336D03*
D16*
X0207660Y0158487D02*
X0207660Y0161716D01*
X0212660Y0161716D02*
X0212660Y0158487D01*
X0110285Y0180852D02*
X0110285Y0186852D01*
X0110283Y0186912D01*
X0110278Y0186973D01*
X0110269Y0187032D01*
X0110256Y0187091D01*
X0110240Y0187150D01*
X0110220Y0187207D01*
X0110197Y0187262D01*
X0110170Y0187317D01*
X0110141Y0187369D01*
X0110108Y0187420D01*
X0110072Y0187469D01*
X0110034Y0187515D01*
X0109992Y0187559D01*
X0109948Y0187601D01*
X0109902Y0187639D01*
X0109853Y0187675D01*
X0109802Y0187708D01*
X0109750Y0187737D01*
X0109695Y0187764D01*
X0109640Y0187787D01*
X0109583Y0187807D01*
X0109524Y0187823D01*
X0109465Y0187836D01*
X0109406Y0187845D01*
X0109345Y0187850D01*
X0109285Y0187852D01*
X0092285Y0187852D01*
X0092225Y0187850D01*
X0092164Y0187845D01*
X0092105Y0187836D01*
X0092046Y0187823D01*
X0091987Y0187807D01*
X0091930Y0187787D01*
X0091875Y0187764D01*
X0091820Y0187737D01*
X0091768Y0187708D01*
X0091717Y0187675D01*
X0091668Y0187639D01*
X0091622Y0187601D01*
X0091578Y0187559D01*
X0091536Y0187515D01*
X0091498Y0187469D01*
X0091462Y0187420D01*
X0091429Y0187369D01*
X0091400Y0187317D01*
X0091373Y0187262D01*
X0091350Y0187207D01*
X0091330Y0187150D01*
X0091314Y0187091D01*
X0091301Y0187032D01*
X0091292Y0186973D01*
X0091287Y0186912D01*
X0091285Y0186852D01*
X0091285Y0180852D01*
X0091287Y0180792D01*
X0091292Y0180731D01*
X0091301Y0180672D01*
X0091314Y0180613D01*
X0091330Y0180554D01*
X0091350Y0180497D01*
X0091373Y0180442D01*
X0091400Y0180387D01*
X0091429Y0180335D01*
X0091462Y0180284D01*
X0091498Y0180235D01*
X0091536Y0180189D01*
X0091578Y0180145D01*
X0091622Y0180103D01*
X0091668Y0180065D01*
X0091717Y0180029D01*
X0091768Y0179996D01*
X0091820Y0179967D01*
X0091875Y0179940D01*
X0091930Y0179917D01*
X0091987Y0179897D01*
X0092046Y0179881D01*
X0092105Y0179868D01*
X0092164Y0179859D01*
X0092225Y0179854D01*
X0092285Y0179852D01*
X0109285Y0179852D01*
X0109345Y0179854D01*
X0109406Y0179859D01*
X0109465Y0179868D01*
X0109524Y0179881D01*
X0109583Y0179897D01*
X0109640Y0179917D01*
X0109695Y0179940D01*
X0109750Y0179967D01*
X0109802Y0179996D01*
X0109853Y0180029D01*
X0109902Y0180065D01*
X0109948Y0180103D01*
X0109992Y0180145D01*
X0110034Y0180189D01*
X0110072Y0180235D01*
X0110108Y0180284D01*
X0110141Y0180335D01*
X0110170Y0180387D01*
X0110197Y0180442D01*
X0110220Y0180497D01*
X0110240Y0180554D01*
X0110256Y0180613D01*
X0110269Y0180672D01*
X0110278Y0180731D01*
X0110283Y0180792D01*
X0110285Y0180852D01*
X0109785Y0183852D02*
X0107785Y0183852D01*
X0100785Y0186852D02*
X0100785Y0187852D01*
X0100785Y0180852D02*
X0100785Y0179852D01*
X0093785Y0183852D02*
X0091785Y0183852D01*
D17*
X0210166Y0162981D03*
X0210166Y0157181D03*
D18*
X0206159Y0269108D02*
X0206161Y0269269D01*
X0206167Y0269429D01*
X0206177Y0269590D01*
X0206191Y0269750D01*
X0206209Y0269909D01*
X0206230Y0270069D01*
X0206256Y0270227D01*
X0206286Y0270385D01*
X0206319Y0270542D01*
X0206357Y0270699D01*
X0206398Y0270854D01*
X0206443Y0271008D01*
X0206492Y0271161D01*
X0206545Y0271313D01*
X0206601Y0271463D01*
X0206661Y0271612D01*
X0206725Y0271760D01*
X0206792Y0271906D01*
X0206863Y0272050D01*
X0206938Y0272192D01*
X0207016Y0272333D01*
X0207097Y0272471D01*
X0207182Y0272608D01*
X0207271Y0272742D01*
X0207362Y0272874D01*
X0207457Y0273004D01*
X0207555Y0273131D01*
X0207656Y0273256D01*
X0207760Y0273379D01*
X0207867Y0273498D01*
X0207977Y0273615D01*
X0208090Y0273730D01*
X0208206Y0273841D01*
X0208324Y0273950D01*
X0208445Y0274055D01*
X0208569Y0274158D01*
X0208695Y0274258D01*
X0208824Y0274354D01*
X0208955Y0274447D01*
X0209088Y0274537D01*
X0209223Y0274624D01*
X0209361Y0274707D01*
X0209500Y0274786D01*
X0209642Y0274863D01*
X0209785Y0274936D01*
X0209930Y0275005D01*
X0210077Y0275070D01*
X0210225Y0275132D01*
X0210375Y0275191D01*
X0210526Y0275245D01*
X0210678Y0275296D01*
X0210832Y0275343D01*
X0210987Y0275386D01*
X0211142Y0275425D01*
X0211299Y0275461D01*
X0211457Y0275493D01*
X0211615Y0275520D01*
X0211774Y0275544D01*
X0211933Y0275564D01*
X0212093Y0275580D01*
X0212254Y0275592D01*
X0212414Y0275600D01*
X0212575Y0275604D01*
X0212735Y0275604D01*
X0212896Y0275600D01*
X0213056Y0275592D01*
X0213217Y0275580D01*
X0213377Y0275564D01*
X0213536Y0275544D01*
X0213695Y0275520D01*
X0213853Y0275493D01*
X0214011Y0275461D01*
X0214168Y0275425D01*
X0214323Y0275386D01*
X0214478Y0275343D01*
X0214632Y0275296D01*
X0214784Y0275245D01*
X0214935Y0275191D01*
X0215085Y0275132D01*
X0215233Y0275070D01*
X0215380Y0275005D01*
X0215525Y0274936D01*
X0215668Y0274863D01*
X0215810Y0274786D01*
X0215949Y0274707D01*
X0216087Y0274624D01*
X0216222Y0274537D01*
X0216355Y0274447D01*
X0216486Y0274354D01*
X0216615Y0274258D01*
X0216741Y0274158D01*
X0216865Y0274055D01*
X0216986Y0273950D01*
X0217104Y0273841D01*
X0217220Y0273730D01*
X0217333Y0273615D01*
X0217443Y0273498D01*
X0217550Y0273379D01*
X0217654Y0273256D01*
X0217755Y0273131D01*
X0217853Y0273004D01*
X0217948Y0272874D01*
X0218039Y0272742D01*
X0218128Y0272608D01*
X0218213Y0272471D01*
X0218294Y0272333D01*
X0218372Y0272192D01*
X0218447Y0272050D01*
X0218518Y0271906D01*
X0218585Y0271760D01*
X0218649Y0271612D01*
X0218709Y0271463D01*
X0218765Y0271313D01*
X0218818Y0271161D01*
X0218867Y0271008D01*
X0218912Y0270854D01*
X0218953Y0270699D01*
X0218991Y0270542D01*
X0219024Y0270385D01*
X0219054Y0270227D01*
X0219080Y0270069D01*
X0219101Y0269909D01*
X0219119Y0269750D01*
X0219133Y0269590D01*
X0219143Y0269429D01*
X0219149Y0269269D01*
X0219151Y0269108D01*
X0219149Y0268947D01*
X0219143Y0268787D01*
X0219133Y0268626D01*
X0219119Y0268466D01*
X0219101Y0268307D01*
X0219080Y0268147D01*
X0219054Y0267989D01*
X0219024Y0267831D01*
X0218991Y0267674D01*
X0218953Y0267517D01*
X0218912Y0267362D01*
X0218867Y0267208D01*
X0218818Y0267055D01*
X0218765Y0266903D01*
X0218709Y0266753D01*
X0218649Y0266604D01*
X0218585Y0266456D01*
X0218518Y0266310D01*
X0218447Y0266166D01*
X0218372Y0266024D01*
X0218294Y0265883D01*
X0218213Y0265745D01*
X0218128Y0265608D01*
X0218039Y0265474D01*
X0217948Y0265342D01*
X0217853Y0265212D01*
X0217755Y0265085D01*
X0217654Y0264960D01*
X0217550Y0264837D01*
X0217443Y0264718D01*
X0217333Y0264601D01*
X0217220Y0264486D01*
X0217104Y0264375D01*
X0216986Y0264266D01*
X0216865Y0264161D01*
X0216741Y0264058D01*
X0216615Y0263958D01*
X0216486Y0263862D01*
X0216355Y0263769D01*
X0216222Y0263679D01*
X0216087Y0263592D01*
X0215949Y0263509D01*
X0215810Y0263430D01*
X0215668Y0263353D01*
X0215525Y0263280D01*
X0215380Y0263211D01*
X0215233Y0263146D01*
X0215085Y0263084D01*
X0214935Y0263025D01*
X0214784Y0262971D01*
X0214632Y0262920D01*
X0214478Y0262873D01*
X0214323Y0262830D01*
X0214168Y0262791D01*
X0214011Y0262755D01*
X0213853Y0262723D01*
X0213695Y0262696D01*
X0213536Y0262672D01*
X0213377Y0262652D01*
X0213217Y0262636D01*
X0213056Y0262624D01*
X0212896Y0262616D01*
X0212735Y0262612D01*
X0212575Y0262612D01*
X0212414Y0262616D01*
X0212254Y0262624D01*
X0212093Y0262636D01*
X0211933Y0262652D01*
X0211774Y0262672D01*
X0211615Y0262696D01*
X0211457Y0262723D01*
X0211299Y0262755D01*
X0211142Y0262791D01*
X0210987Y0262830D01*
X0210832Y0262873D01*
X0210678Y0262920D01*
X0210526Y0262971D01*
X0210375Y0263025D01*
X0210225Y0263084D01*
X0210077Y0263146D01*
X0209930Y0263211D01*
X0209785Y0263280D01*
X0209642Y0263353D01*
X0209500Y0263430D01*
X0209361Y0263509D01*
X0209223Y0263592D01*
X0209088Y0263679D01*
X0208955Y0263769D01*
X0208824Y0263862D01*
X0208695Y0263958D01*
X0208569Y0264058D01*
X0208445Y0264161D01*
X0208324Y0264266D01*
X0208206Y0264375D01*
X0208090Y0264486D01*
X0207977Y0264601D01*
X0207867Y0264718D01*
X0207760Y0264837D01*
X0207656Y0264960D01*
X0207555Y0265085D01*
X0207457Y0265212D01*
X0207362Y0265342D01*
X0207271Y0265474D01*
X0207182Y0265608D01*
X0207097Y0265745D01*
X0207016Y0265883D01*
X0206938Y0266024D01*
X0206863Y0266166D01*
X0206792Y0266310D01*
X0206725Y0266456D01*
X0206661Y0266604D01*
X0206601Y0266753D01*
X0206545Y0266903D01*
X0206492Y0267055D01*
X0206443Y0267208D01*
X0206398Y0267362D01*
X0206357Y0267517D01*
X0206319Y0267674D01*
X0206286Y0267831D01*
X0206256Y0267989D01*
X0206230Y0268147D01*
X0206209Y0268307D01*
X0206191Y0268466D01*
X0206177Y0268626D01*
X0206167Y0268787D01*
X0206161Y0268947D01*
X0206159Y0269108D01*
X0054584Y0269108D02*
X0054586Y0269269D01*
X0054592Y0269429D01*
X0054602Y0269590D01*
X0054616Y0269750D01*
X0054634Y0269909D01*
X0054655Y0270069D01*
X0054681Y0270227D01*
X0054711Y0270385D01*
X0054744Y0270542D01*
X0054782Y0270699D01*
X0054823Y0270854D01*
X0054868Y0271008D01*
X0054917Y0271161D01*
X0054970Y0271313D01*
X0055026Y0271463D01*
X0055086Y0271612D01*
X0055150Y0271760D01*
X0055217Y0271906D01*
X0055288Y0272050D01*
X0055363Y0272192D01*
X0055441Y0272333D01*
X0055522Y0272471D01*
X0055607Y0272608D01*
X0055696Y0272742D01*
X0055787Y0272874D01*
X0055882Y0273004D01*
X0055980Y0273131D01*
X0056081Y0273256D01*
X0056185Y0273379D01*
X0056292Y0273498D01*
X0056402Y0273615D01*
X0056515Y0273730D01*
X0056631Y0273841D01*
X0056749Y0273950D01*
X0056870Y0274055D01*
X0056994Y0274158D01*
X0057120Y0274258D01*
X0057249Y0274354D01*
X0057380Y0274447D01*
X0057513Y0274537D01*
X0057648Y0274624D01*
X0057786Y0274707D01*
X0057925Y0274786D01*
X0058067Y0274863D01*
X0058210Y0274936D01*
X0058355Y0275005D01*
X0058502Y0275070D01*
X0058650Y0275132D01*
X0058800Y0275191D01*
X0058951Y0275245D01*
X0059103Y0275296D01*
X0059257Y0275343D01*
X0059412Y0275386D01*
X0059567Y0275425D01*
X0059724Y0275461D01*
X0059882Y0275493D01*
X0060040Y0275520D01*
X0060199Y0275544D01*
X0060358Y0275564D01*
X0060518Y0275580D01*
X0060679Y0275592D01*
X0060839Y0275600D01*
X0061000Y0275604D01*
X0061160Y0275604D01*
X0061321Y0275600D01*
X0061481Y0275592D01*
X0061642Y0275580D01*
X0061802Y0275564D01*
X0061961Y0275544D01*
X0062120Y0275520D01*
X0062278Y0275493D01*
X0062436Y0275461D01*
X0062593Y0275425D01*
X0062748Y0275386D01*
X0062903Y0275343D01*
X0063057Y0275296D01*
X0063209Y0275245D01*
X0063360Y0275191D01*
X0063510Y0275132D01*
X0063658Y0275070D01*
X0063805Y0275005D01*
X0063950Y0274936D01*
X0064093Y0274863D01*
X0064235Y0274786D01*
X0064374Y0274707D01*
X0064512Y0274624D01*
X0064647Y0274537D01*
X0064780Y0274447D01*
X0064911Y0274354D01*
X0065040Y0274258D01*
X0065166Y0274158D01*
X0065290Y0274055D01*
X0065411Y0273950D01*
X0065529Y0273841D01*
X0065645Y0273730D01*
X0065758Y0273615D01*
X0065868Y0273498D01*
X0065975Y0273379D01*
X0066079Y0273256D01*
X0066180Y0273131D01*
X0066278Y0273004D01*
X0066373Y0272874D01*
X0066464Y0272742D01*
X0066553Y0272608D01*
X0066638Y0272471D01*
X0066719Y0272333D01*
X0066797Y0272192D01*
X0066872Y0272050D01*
X0066943Y0271906D01*
X0067010Y0271760D01*
X0067074Y0271612D01*
X0067134Y0271463D01*
X0067190Y0271313D01*
X0067243Y0271161D01*
X0067292Y0271008D01*
X0067337Y0270854D01*
X0067378Y0270699D01*
X0067416Y0270542D01*
X0067449Y0270385D01*
X0067479Y0270227D01*
X0067505Y0270069D01*
X0067526Y0269909D01*
X0067544Y0269750D01*
X0067558Y0269590D01*
X0067568Y0269429D01*
X0067574Y0269269D01*
X0067576Y0269108D01*
X0067574Y0268947D01*
X0067568Y0268787D01*
X0067558Y0268626D01*
X0067544Y0268466D01*
X0067526Y0268307D01*
X0067505Y0268147D01*
X0067479Y0267989D01*
X0067449Y0267831D01*
X0067416Y0267674D01*
X0067378Y0267517D01*
X0067337Y0267362D01*
X0067292Y0267208D01*
X0067243Y0267055D01*
X0067190Y0266903D01*
X0067134Y0266753D01*
X0067074Y0266604D01*
X0067010Y0266456D01*
X0066943Y0266310D01*
X0066872Y0266166D01*
X0066797Y0266024D01*
X0066719Y0265883D01*
X0066638Y0265745D01*
X0066553Y0265608D01*
X0066464Y0265474D01*
X0066373Y0265342D01*
X0066278Y0265212D01*
X0066180Y0265085D01*
X0066079Y0264960D01*
X0065975Y0264837D01*
X0065868Y0264718D01*
X0065758Y0264601D01*
X0065645Y0264486D01*
X0065529Y0264375D01*
X0065411Y0264266D01*
X0065290Y0264161D01*
X0065166Y0264058D01*
X0065040Y0263958D01*
X0064911Y0263862D01*
X0064780Y0263769D01*
X0064647Y0263679D01*
X0064512Y0263592D01*
X0064374Y0263509D01*
X0064235Y0263430D01*
X0064093Y0263353D01*
X0063950Y0263280D01*
X0063805Y0263211D01*
X0063658Y0263146D01*
X0063510Y0263084D01*
X0063360Y0263025D01*
X0063209Y0262971D01*
X0063057Y0262920D01*
X0062903Y0262873D01*
X0062748Y0262830D01*
X0062593Y0262791D01*
X0062436Y0262755D01*
X0062278Y0262723D01*
X0062120Y0262696D01*
X0061961Y0262672D01*
X0061802Y0262652D01*
X0061642Y0262636D01*
X0061481Y0262624D01*
X0061321Y0262616D01*
X0061160Y0262612D01*
X0061000Y0262612D01*
X0060839Y0262616D01*
X0060679Y0262624D01*
X0060518Y0262636D01*
X0060358Y0262652D01*
X0060199Y0262672D01*
X0060040Y0262696D01*
X0059882Y0262723D01*
X0059724Y0262755D01*
X0059567Y0262791D01*
X0059412Y0262830D01*
X0059257Y0262873D01*
X0059103Y0262920D01*
X0058951Y0262971D01*
X0058800Y0263025D01*
X0058650Y0263084D01*
X0058502Y0263146D01*
X0058355Y0263211D01*
X0058210Y0263280D01*
X0058067Y0263353D01*
X0057925Y0263430D01*
X0057786Y0263509D01*
X0057648Y0263592D01*
X0057513Y0263679D01*
X0057380Y0263769D01*
X0057249Y0263862D01*
X0057120Y0263958D01*
X0056994Y0264058D01*
X0056870Y0264161D01*
X0056749Y0264266D01*
X0056631Y0264375D01*
X0056515Y0264486D01*
X0056402Y0264601D01*
X0056292Y0264718D01*
X0056185Y0264837D01*
X0056081Y0264960D01*
X0055980Y0265085D01*
X0055882Y0265212D01*
X0055787Y0265342D01*
X0055696Y0265474D01*
X0055607Y0265608D01*
X0055522Y0265745D01*
X0055441Y0265883D01*
X0055363Y0266024D01*
X0055288Y0266166D01*
X0055217Y0266310D01*
X0055150Y0266456D01*
X0055086Y0266604D01*
X0055026Y0266753D01*
X0054970Y0266903D01*
X0054917Y0267055D01*
X0054868Y0267208D01*
X0054823Y0267362D01*
X0054782Y0267517D01*
X0054744Y0267674D01*
X0054711Y0267831D01*
X0054681Y0267989D01*
X0054655Y0268147D01*
X0054634Y0268307D01*
X0054616Y0268466D01*
X0054602Y0268626D01*
X0054592Y0268787D01*
X0054586Y0268947D01*
X0054584Y0269108D01*
D19*
X0100785Y0183852D03*
D20*
X0153034Y0166696D03*
D21*
X0153910Y0162562D03*
X0151410Y0162562D03*
X0148910Y0162562D03*
X0146410Y0162562D03*
X0143910Y0162562D03*
X0141410Y0162562D03*
X0138910Y0162562D03*
X0136410Y0162562D03*
X0136410Y0182641D03*
X0138910Y0182641D03*
X0141410Y0182641D03*
X0143910Y0182641D03*
X0146410Y0182641D03*
X0148910Y0182641D03*
X0151410Y0182641D03*
X0153910Y0182641D03*
M02*
