G75*
%MOIN*%
%OFA0B0*%
%FSLAX25Y25*%
%IPPOS*%
%LPD*%
%AMOC8*
5,1,8,0,0,1.08239X$1,22.5*
%
%ADD10R,0.03937X0.13386*%
%ADD11R,0.26772X0.37795*%
%ADD12R,0.05906X0.05118*%
%ADD13C,0.07677*%
%ADD14R,0.02700X0.05300*%
%ADD15C,0.07874*%
%ADD16OC8,0.06000*%
%ADD17R,0.04600X0.06300*%
%ADD18C,0.02800*%
%ADD19C,0.00800*%
%ADD20C,0.00600*%
%ADD21C,0.01000*%
%ADD22C,0.03000*%
%ADD23C,0.01200*%
%ADD24C,0.06000*%
%ADD25C,0.10000*%
%ADD26C,0.01600*%
D10*
X0190160Y0126617D03*
X0210160Y0126617D03*
D11*
X0200160Y0166381D03*
D12*
X0210160Y0150092D03*
X0210160Y0142612D03*
D13*
X0184112Y0196302D03*
X0178206Y0206145D03*
X0172301Y0196302D03*
X0166395Y0206145D03*
X0160490Y0196302D03*
X0154584Y0206145D03*
X0148679Y0196302D03*
X0142773Y0206145D03*
X0136868Y0196302D03*
X0130962Y0206145D03*
X0125057Y0196302D03*
X0119151Y0206145D03*
X0113246Y0196302D03*
X0107340Y0206145D03*
X0101435Y0196302D03*
X0095529Y0206145D03*
X0089624Y0196302D03*
X0095529Y0219924D03*
X0089624Y0229767D03*
X0101435Y0229767D03*
X0107340Y0219924D03*
X0113246Y0229767D03*
X0119151Y0219924D03*
X0125057Y0229767D03*
X0130962Y0219924D03*
X0136868Y0229767D03*
X0142773Y0219924D03*
X0148679Y0229767D03*
X0154584Y0219924D03*
X0160490Y0229767D03*
X0166395Y0219924D03*
X0172301Y0229767D03*
X0178206Y0219924D03*
X0184112Y0229767D03*
D14*
X0194328Y0103473D03*
X0199328Y0103473D03*
X0204328Y0103473D03*
X0209328Y0103473D03*
X0209328Y0064723D03*
X0204328Y0064723D03*
X0199328Y0064723D03*
X0194328Y0064723D03*
D15*
X0195160Y0080102D03*
X0205160Y0080102D03*
X0185160Y0080102D03*
D16*
X0133285Y0085102D03*
X0133285Y0095102D03*
X0133285Y0105102D03*
X0133285Y0115102D03*
X0133285Y0125102D03*
X0133285Y0135102D03*
X0123285Y0135102D03*
X0123285Y0125102D03*
X0123285Y0115102D03*
X0123285Y0105102D03*
X0123285Y0095102D03*
X0123285Y0085102D03*
D17*
X0108785Y0087602D03*
X0102785Y0087602D03*
X0102785Y0096352D03*
X0108785Y0096352D03*
X0106410Y0167602D03*
X0100410Y0167602D03*
X0112410Y0167602D03*
G36*
X0188185Y0203476D02*
X0185885Y0207458D01*
X0191339Y0210608D01*
X0193639Y0206626D01*
X0188185Y0203476D01*
G37*
G36*
X0191185Y0198280D02*
X0188885Y0202262D01*
X0194339Y0205412D01*
X0196639Y0201430D01*
X0191185Y0198280D01*
G37*
G36*
X0194185Y0193084D02*
X0191885Y0197066D01*
X0197339Y0200216D01*
X0199639Y0196234D01*
X0194185Y0193084D01*
G37*
D18*
X0065160Y0056352D03*
X0067660Y0056352D03*
X0070160Y0056352D03*
X0070160Y0059477D03*
X0067660Y0059477D03*
X0065160Y0059477D03*
X0058910Y0070727D03*
X0055160Y0070727D03*
X0051410Y0070727D03*
X0052035Y0088852D03*
X0051410Y0093852D03*
X0053910Y0101977D03*
X0063910Y0095727D03*
X0063910Y0090727D03*
X0066410Y0101977D03*
X0072660Y0101977D03*
X0075785Y0095102D03*
X0075785Y0089477D03*
X0081410Y0085102D03*
X0077035Y0081352D03*
X0075160Y0076977D03*
X0080160Y0075102D03*
X0080160Y0071977D03*
X0083910Y0071977D03*
X0083910Y0075102D03*
X0088910Y0085102D03*
X0092660Y0084477D03*
X0096410Y0085102D03*
X0088285Y0094477D03*
X0088285Y0098227D03*
X0088285Y0101977D03*
X0092035Y0098227D03*
X0084535Y0098227D03*
X0098285Y0109477D03*
X0099535Y0113227D03*
X0100785Y0116977D03*
X0104535Y0116977D03*
X0094535Y0115102D03*
X0087035Y0121352D03*
X0084535Y0123852D03*
X0081410Y0125727D03*
X0076410Y0122602D03*
X0073910Y0130102D03*
X0068910Y0130102D03*
X0070160Y0137602D03*
X0067660Y0140727D03*
X0074535Y0136977D03*
X0078910Y0132602D03*
X0083285Y0140102D03*
X0078910Y0144477D03*
X0075785Y0154477D03*
X0072660Y0159477D03*
X0068910Y0159477D03*
X0065160Y0159477D03*
X0062660Y0155102D03*
X0057035Y0153852D03*
X0055160Y0164477D03*
X0058285Y0176977D03*
X0058285Y0179477D03*
X0065785Y0179477D03*
X0065785Y0181977D03*
X0065785Y0184477D03*
X0064535Y0193227D03*
X0064535Y0195727D03*
X0051410Y0201352D03*
X0055785Y0213852D03*
X0058285Y0213852D03*
X0052660Y0187602D03*
X0077035Y0184477D03*
X0077035Y0181977D03*
X0077035Y0179477D03*
X0089535Y0179477D03*
X0089535Y0181977D03*
X0089535Y0184477D03*
X0103910Y0178852D03*
X0103910Y0176352D03*
X0113285Y0177602D03*
X0113285Y0175102D03*
X0118910Y0170727D03*
X0116410Y0160102D03*
X0116410Y0157602D03*
X0111410Y0152602D03*
X0106410Y0150727D03*
X0102035Y0155102D03*
X0098285Y0160727D03*
X0102035Y0161977D03*
X0088910Y0164477D03*
X0085160Y0159477D03*
X0076410Y0164477D03*
X0052660Y0133227D03*
X0091410Y0127602D03*
X0091410Y0124477D03*
X0103910Y0129477D03*
X0106410Y0133852D03*
X0106410Y0138227D03*
X0114535Y0142602D03*
X0117660Y0130727D03*
X0115160Y0124477D03*
X0113910Y0111977D03*
X0117660Y0110102D03*
X0115785Y0106977D03*
X0117035Y0091977D03*
X0113285Y0081352D03*
X0110785Y0081352D03*
X0110785Y0078852D03*
X0113285Y0078852D03*
X0113285Y0076352D03*
X0110785Y0076352D03*
X0107035Y0078227D03*
X0094535Y0057602D03*
X0092035Y0057602D03*
X0128285Y0056977D03*
X0128285Y0059477D03*
X0130785Y0059477D03*
X0130785Y0056977D03*
X0139535Y0058852D03*
X0147035Y0073227D03*
X0140160Y0077602D03*
X0147035Y0082602D03*
X0147035Y0094477D03*
X0142035Y0098852D03*
X0146410Y0107602D03*
X0158910Y0100102D03*
X0159535Y0096352D03*
X0162035Y0088852D03*
X0159535Y0086352D03*
X0162035Y0083852D03*
X0160160Y0080727D03*
X0160785Y0076977D03*
X0166410Y0076977D03*
X0170160Y0076977D03*
X0169535Y0083852D03*
X0167660Y0069477D03*
X0171410Y0068227D03*
X0177660Y0068852D03*
X0181410Y0068852D03*
X0187035Y0069477D03*
X0198285Y0070102D03*
X0203285Y0069477D03*
X0207660Y0072602D03*
X0217660Y0063852D03*
X0208910Y0056352D03*
X0205160Y0056352D03*
X0182660Y0056352D03*
X0177035Y0056352D03*
X0162035Y0056352D03*
X0155785Y0057602D03*
X0188285Y0097602D03*
X0204535Y0096352D03*
X0204535Y0092602D03*
X0210160Y0091977D03*
X0210160Y0088227D03*
X0210160Y0084477D03*
X0222035Y0083227D03*
X0222035Y0098227D03*
X0222035Y0121352D03*
X0204535Y0138227D03*
X0195785Y0141977D03*
X0195785Y0144477D03*
X0190785Y0141977D03*
X0183285Y0151977D03*
X0180785Y0155102D03*
X0178285Y0150727D03*
X0173910Y0162602D03*
X0173910Y0167602D03*
X0168910Y0167602D03*
X0168910Y0162602D03*
X0163285Y0173227D03*
X0156410Y0161977D03*
X0152035Y0153852D03*
X0148285Y0150102D03*
X0145160Y0152602D03*
X0142660Y0150102D03*
X0139535Y0142602D03*
X0143910Y0138852D03*
X0147660Y0138852D03*
X0152660Y0137602D03*
X0156410Y0136977D03*
X0153910Y0141352D03*
X0157035Y0145727D03*
X0156410Y0150102D03*
X0160785Y0151977D03*
X0165160Y0145727D03*
X0162035Y0141352D03*
X0165160Y0138227D03*
X0170785Y0138852D03*
X0182660Y0134477D03*
X0182660Y0130727D03*
X0175785Y0119477D03*
X0170785Y0119477D03*
X0162660Y0119477D03*
X0157660Y0121977D03*
X0156410Y0125727D03*
X0149535Y0130727D03*
X0138285Y0120102D03*
X0126410Y0143227D03*
X0127035Y0157602D03*
X0127035Y0160102D03*
X0127035Y0162602D03*
X0138285Y0162602D03*
X0138285Y0160102D03*
X0138285Y0157602D03*
X0143910Y0158227D03*
X0158910Y0186977D03*
X0177660Y0186352D03*
X0183285Y0175727D03*
X0195160Y0195727D03*
X0197035Y0196977D03*
X0193910Y0202602D03*
X0192035Y0201352D03*
X0188910Y0206352D03*
X0190785Y0207602D03*
X0203285Y0197602D03*
X0203285Y0195102D03*
X0203285Y0192602D03*
X0203285Y0190102D03*
X0208910Y0190102D03*
X0211410Y0190102D03*
X0215160Y0221352D03*
X0217660Y0221352D03*
X0215785Y0156352D03*
X0200160Y0120102D03*
X0183285Y0115727D03*
X0180785Y0118227D03*
X0180785Y0113227D03*
X0172035Y0108852D03*
X0168910Y0110727D03*
X0107660Y0186977D03*
D19*
X0097660Y0200102D02*
X0103703Y0206145D01*
X0107340Y0206145D01*
X0107660Y0211977D02*
X0113285Y0217602D01*
X0113285Y0221977D01*
X0117035Y0225727D01*
X0121016Y0225727D01*
X0125057Y0229767D01*
X0113246Y0229767D02*
X0109830Y0226352D01*
X0105785Y0226352D01*
X0103285Y0223852D01*
X0099535Y0223852D01*
X0097660Y0225727D01*
X0093285Y0225727D01*
X0068910Y0201352D01*
X0068910Y0169477D01*
X0057035Y0157602D01*
X0057035Y0153852D01*
X0054535Y0152602D02*
X0054535Y0163852D01*
X0055160Y0164477D01*
X0060160Y0158227D02*
X0070785Y0168852D01*
X0070785Y0200727D01*
X0083910Y0213852D01*
X0101267Y0213852D01*
X0107340Y0219924D01*
X0107660Y0211977D02*
X0084535Y0211977D01*
X0072660Y0200102D01*
X0072660Y0168227D01*
X0068910Y0164477D01*
X0068910Y0159477D01*
X0072660Y0159477D02*
X0072660Y0165727D01*
X0074535Y0167602D01*
X0074535Y0199477D01*
X0077035Y0201977D01*
X0092035Y0201977D01*
X0093910Y0200102D01*
X0097660Y0200102D01*
X0060160Y0158227D02*
X0060160Y0149477D01*
X0063910Y0145727D01*
X0068910Y0145727D01*
X0074535Y0140102D01*
X0074535Y0136977D01*
X0070160Y0137602D02*
X0070160Y0141977D01*
X0068285Y0143852D01*
X0063285Y0143852D01*
X0054535Y0152602D01*
X0052660Y0151352D02*
X0052660Y0187602D01*
X0075785Y0154477D02*
X0075785Y0141352D01*
X0081410Y0135727D01*
X0081410Y0131352D01*
X0080160Y0130102D01*
X0077660Y0130102D01*
X0072035Y0124477D01*
X0072035Y0120102D01*
X0077660Y0114477D01*
X0077660Y0100727D01*
X0071410Y0094477D01*
X0071410Y0080727D01*
X0075160Y0076977D01*
X0075785Y0095102D02*
X0079535Y0098852D01*
X0079535Y0115102D01*
X0073910Y0120727D01*
X0073910Y0123852D01*
X0078285Y0128227D01*
X0080785Y0128227D01*
X0083285Y0130727D01*
X0083285Y0140102D01*
X0078910Y0132602D02*
X0075160Y0132602D01*
X0070160Y0137602D01*
X0070160Y0135102D02*
X0068910Y0135102D01*
X0052660Y0151352D01*
X0070160Y0135102D02*
X0073910Y0131352D01*
X0073910Y0130102D01*
X0094535Y0115102D02*
X0098285Y0109477D01*
X0072660Y0101977D02*
X0069535Y0098852D01*
X0062035Y0098852D01*
X0057035Y0093852D01*
X0051410Y0093852D01*
X0178731Y0210884D02*
X0174535Y0218227D01*
X0174535Y0221352D01*
X0177035Y0223852D01*
X0223800Y0223852D01*
X0223800Y0122839D01*
X0222988Y0123652D01*
X0221082Y0123652D01*
X0219735Y0122304D01*
X0219735Y0120399D01*
X0221082Y0119052D01*
X0222988Y0119052D01*
X0223800Y0119864D01*
X0223800Y0112602D01*
X0188285Y0112602D01*
X0188285Y0133852D01*
X0199535Y0133852D01*
X0199535Y0136927D01*
X0202582Y0136927D01*
X0203582Y0135927D01*
X0205488Y0135927D01*
X0206835Y0137274D01*
X0206835Y0139152D01*
X0208460Y0139152D01*
X0208460Y0134210D01*
X0207819Y0134210D01*
X0207292Y0133683D01*
X0207292Y0119552D01*
X0207819Y0119024D01*
X0212501Y0119024D01*
X0213029Y0119552D01*
X0213029Y0133683D01*
X0212501Y0134210D01*
X0211860Y0134210D01*
X0211860Y0139152D01*
X0213486Y0139152D01*
X0214013Y0139680D01*
X0214013Y0140912D01*
X0214624Y0140912D01*
X0217485Y0143772D01*
X0217485Y0154799D01*
X0218085Y0155399D01*
X0218085Y0157304D01*
X0216738Y0158652D01*
X0214832Y0158652D01*
X0214446Y0158265D01*
X0214446Y0185652D01*
X0213919Y0186179D01*
X0196337Y0186179D01*
X0188733Y0200153D01*
X0186908Y0201629D01*
X0184657Y0202293D01*
X0183698Y0202192D01*
X0182538Y0204221D01*
X0182945Y0205202D01*
X0182945Y0207088D01*
X0182224Y0208829D01*
X0180891Y0210162D01*
X0179149Y0210884D01*
X0178731Y0210884D01*
X0178376Y0211505D02*
X0191092Y0211505D01*
X0191212Y0211575D02*
X0185111Y0208052D01*
X0184918Y0207332D01*
X0187591Y0202703D01*
X0188038Y0202583D01*
X0187918Y0202136D01*
X0190591Y0197506D01*
X0191038Y0197387D01*
X0190918Y0196940D01*
X0193591Y0192310D01*
X0194311Y0192117D01*
X0200412Y0195640D01*
X0200605Y0196360D01*
X0197933Y0200990D01*
X0197486Y0201109D01*
X0197605Y0201556D01*
X0194933Y0206186D01*
X0194486Y0206306D01*
X0194605Y0206753D01*
X0191933Y0211382D01*
X0191212Y0211575D01*
X0191472Y0211505D02*
X0223800Y0211505D01*
X0223800Y0210707D02*
X0192322Y0210707D01*
X0192783Y0209908D02*
X0223800Y0209908D01*
X0223800Y0209110D02*
X0193244Y0209110D01*
X0193705Y0208311D02*
X0223800Y0208311D01*
X0223800Y0207513D02*
X0194166Y0207513D01*
X0194595Y0206714D02*
X0223800Y0206714D01*
X0223800Y0205916D02*
X0195088Y0205916D01*
X0195549Y0205117D02*
X0223800Y0205117D01*
X0223800Y0204319D02*
X0196010Y0204319D01*
X0196472Y0203520D02*
X0223800Y0203520D01*
X0223800Y0202722D02*
X0196933Y0202722D01*
X0197394Y0201923D02*
X0223800Y0201923D01*
X0223800Y0201125D02*
X0197490Y0201125D01*
X0198316Y0200326D02*
X0223800Y0200326D01*
X0223800Y0199528D02*
X0198777Y0199528D01*
X0199238Y0198729D02*
X0223800Y0198729D01*
X0223800Y0197931D02*
X0199699Y0197931D01*
X0200160Y0197132D02*
X0223800Y0197132D01*
X0223800Y0196334D02*
X0200598Y0196334D01*
X0200231Y0195535D02*
X0223800Y0195535D01*
X0223800Y0194737D02*
X0198848Y0194737D01*
X0197465Y0193938D02*
X0223800Y0193938D01*
X0223800Y0193140D02*
X0196082Y0193140D01*
X0194698Y0192341D02*
X0207897Y0192341D01*
X0207957Y0192402D02*
X0206610Y0191054D01*
X0206610Y0189149D01*
X0207957Y0187802D01*
X0209863Y0187802D01*
X0210160Y0188099D01*
X0210457Y0187802D01*
X0212363Y0187802D01*
X0213710Y0189149D01*
X0213710Y0191054D01*
X0212363Y0192402D01*
X0210457Y0192402D01*
X0210160Y0192104D01*
X0209863Y0192402D01*
X0207957Y0192402D01*
X0207098Y0191543D02*
X0193419Y0191543D01*
X0193573Y0192341D02*
X0192984Y0192341D01*
X0193112Y0193140D02*
X0192550Y0193140D01*
X0192651Y0193938D02*
X0192115Y0193938D01*
X0192190Y0194737D02*
X0191681Y0194737D01*
X0191729Y0195535D02*
X0191246Y0195535D01*
X0191268Y0196334D02*
X0190812Y0196334D01*
X0190969Y0197132D02*
X0190377Y0197132D01*
X0190346Y0197931D02*
X0189943Y0197931D01*
X0189885Y0198729D02*
X0189508Y0198729D01*
X0189424Y0199528D02*
X0189074Y0199528D01*
X0188963Y0200326D02*
X0188519Y0200326D01*
X0188501Y0201125D02*
X0187531Y0201125D01*
X0188040Y0201923D02*
X0185910Y0201923D01*
X0187579Y0202722D02*
X0183395Y0202722D01*
X0182939Y0203520D02*
X0187118Y0203520D01*
X0186657Y0204319D02*
X0182579Y0204319D01*
X0182910Y0205117D02*
X0186196Y0205117D01*
X0185735Y0205916D02*
X0182945Y0205916D01*
X0182945Y0206714D02*
X0185274Y0206714D01*
X0184966Y0207513D02*
X0182769Y0207513D01*
X0182438Y0208311D02*
X0185560Y0208311D01*
X0186943Y0209110D02*
X0181943Y0209110D01*
X0181144Y0209908D02*
X0188326Y0209908D01*
X0189709Y0210707D02*
X0179575Y0210707D01*
X0177920Y0212304D02*
X0223800Y0212304D01*
X0223800Y0213102D02*
X0177463Y0213102D01*
X0177007Y0213901D02*
X0223800Y0213901D01*
X0223800Y0214699D02*
X0176551Y0214699D01*
X0176094Y0215498D02*
X0223800Y0215498D01*
X0223800Y0216296D02*
X0175638Y0216296D01*
X0175182Y0217095D02*
X0223800Y0217095D01*
X0223800Y0217894D02*
X0174726Y0217894D01*
X0174535Y0218692D02*
X0223800Y0218692D01*
X0223800Y0219491D02*
X0219052Y0219491D01*
X0218613Y0219052D02*
X0219960Y0220399D01*
X0219960Y0222304D01*
X0218613Y0223652D01*
X0216707Y0223652D01*
X0216410Y0223354D01*
X0216113Y0223652D01*
X0214207Y0223652D01*
X0212860Y0222304D01*
X0212860Y0220399D01*
X0214207Y0219052D01*
X0216113Y0219052D01*
X0216410Y0219349D01*
X0216707Y0219052D01*
X0218613Y0219052D01*
X0219850Y0220289D02*
X0223800Y0220289D01*
X0223800Y0221088D02*
X0219960Y0221088D01*
X0219960Y0221886D02*
X0223800Y0221886D01*
X0223800Y0222685D02*
X0219580Y0222685D01*
X0218781Y0223483D02*
X0223800Y0223483D01*
X0216539Y0223483D02*
X0216281Y0223483D01*
X0214039Y0223483D02*
X0176667Y0223483D01*
X0175868Y0222685D02*
X0213240Y0222685D01*
X0212860Y0221886D02*
X0175070Y0221886D01*
X0174535Y0221088D02*
X0212860Y0221088D01*
X0212970Y0220289D02*
X0174535Y0220289D01*
X0174535Y0219491D02*
X0213769Y0219491D01*
X0212423Y0192341D02*
X0223800Y0192341D01*
X0223800Y0191543D02*
X0213222Y0191543D01*
X0213710Y0190744D02*
X0223800Y0190744D01*
X0223800Y0189946D02*
X0213710Y0189946D01*
X0213708Y0189147D02*
X0223800Y0189147D01*
X0223800Y0188349D02*
X0212910Y0188349D01*
X0214145Y0185953D02*
X0223800Y0185953D01*
X0223800Y0185155D02*
X0214446Y0185155D01*
X0214446Y0184356D02*
X0223800Y0184356D01*
X0223800Y0183558D02*
X0214446Y0183558D01*
X0214446Y0182759D02*
X0223800Y0182759D01*
X0223800Y0181960D02*
X0214446Y0181960D01*
X0214446Y0181162D02*
X0223800Y0181162D01*
X0223800Y0180363D02*
X0214446Y0180363D01*
X0214446Y0179565D02*
X0223800Y0179565D01*
X0223800Y0178766D02*
X0214446Y0178766D01*
X0214446Y0177968D02*
X0223800Y0177968D01*
X0223800Y0177169D02*
X0214446Y0177169D01*
X0214446Y0176371D02*
X0223800Y0176371D01*
X0223800Y0175572D02*
X0214446Y0175572D01*
X0214446Y0174774D02*
X0223800Y0174774D01*
X0223800Y0173975D02*
X0214446Y0173975D01*
X0214446Y0173177D02*
X0223800Y0173177D01*
X0223800Y0172378D02*
X0214446Y0172378D01*
X0214446Y0171580D02*
X0223800Y0171580D01*
X0223800Y0170781D02*
X0214446Y0170781D01*
X0214446Y0169983D02*
X0223800Y0169983D01*
X0223800Y0169184D02*
X0214446Y0169184D01*
X0214446Y0168386D02*
X0223800Y0168386D01*
X0223800Y0167587D02*
X0214446Y0167587D01*
X0214446Y0166789D02*
X0223800Y0166789D01*
X0223800Y0165990D02*
X0214446Y0165990D01*
X0214446Y0165192D02*
X0223800Y0165192D01*
X0223800Y0164393D02*
X0214446Y0164393D01*
X0214446Y0163595D02*
X0223800Y0163595D01*
X0223800Y0162796D02*
X0214446Y0162796D01*
X0214446Y0161998D02*
X0223800Y0161998D01*
X0223800Y0161199D02*
X0214446Y0161199D01*
X0214446Y0160401D02*
X0223800Y0160401D01*
X0223800Y0159602D02*
X0214446Y0159602D01*
X0214446Y0158804D02*
X0223800Y0158804D01*
X0223800Y0158005D02*
X0217384Y0158005D01*
X0218085Y0157207D02*
X0223800Y0157207D01*
X0223800Y0156408D02*
X0218085Y0156408D01*
X0218085Y0155610D02*
X0223800Y0155610D01*
X0223800Y0154811D02*
X0217497Y0154811D01*
X0217485Y0154013D02*
X0223800Y0154013D01*
X0223800Y0153214D02*
X0217485Y0153214D01*
X0217485Y0152416D02*
X0223800Y0152416D01*
X0223800Y0151617D02*
X0217485Y0151617D01*
X0217485Y0150819D02*
X0223800Y0150819D01*
X0223800Y0150020D02*
X0217485Y0150020D01*
X0217485Y0149222D02*
X0223800Y0149222D01*
X0223800Y0148423D02*
X0217485Y0148423D01*
X0217485Y0147625D02*
X0223800Y0147625D01*
X0223800Y0146826D02*
X0217485Y0146826D01*
X0217485Y0146027D02*
X0223800Y0146027D01*
X0223800Y0145229D02*
X0217485Y0145229D01*
X0217485Y0144430D02*
X0223800Y0144430D01*
X0223800Y0143632D02*
X0217345Y0143632D01*
X0216546Y0142833D02*
X0223800Y0142833D01*
X0223800Y0142035D02*
X0215748Y0142035D01*
X0214949Y0141236D02*
X0223800Y0141236D01*
X0223800Y0140438D02*
X0214013Y0140438D01*
X0213973Y0139639D02*
X0223800Y0139639D01*
X0223800Y0138841D02*
X0211860Y0138841D01*
X0211860Y0138042D02*
X0223800Y0138042D01*
X0223800Y0137244D02*
X0211860Y0137244D01*
X0211860Y0136445D02*
X0223800Y0136445D01*
X0223800Y0135647D02*
X0211860Y0135647D01*
X0211860Y0134848D02*
X0223800Y0134848D01*
X0223800Y0134050D02*
X0212662Y0134050D01*
X0213029Y0133251D02*
X0223800Y0133251D01*
X0223800Y0132453D02*
X0213029Y0132453D01*
X0213029Y0131654D02*
X0223800Y0131654D01*
X0223800Y0130856D02*
X0213029Y0130856D01*
X0213029Y0130057D02*
X0223800Y0130057D01*
X0223800Y0129259D02*
X0213029Y0129259D01*
X0213029Y0128460D02*
X0223800Y0128460D01*
X0223800Y0127662D02*
X0213029Y0127662D01*
X0213029Y0126863D02*
X0223800Y0126863D01*
X0223800Y0126065D02*
X0213029Y0126065D01*
X0213029Y0125266D02*
X0223800Y0125266D01*
X0223800Y0124468D02*
X0213029Y0124468D01*
X0213029Y0123669D02*
X0223800Y0123669D01*
X0223769Y0122871D02*
X0223800Y0122871D01*
X0223800Y0119677D02*
X0223613Y0119677D01*
X0223800Y0118878D02*
X0202189Y0118878D01*
X0202460Y0119149D02*
X0201113Y0117802D01*
X0199207Y0117802D01*
X0197860Y0119149D01*
X0197860Y0121054D01*
X0199207Y0122402D01*
X0201113Y0122402D01*
X0202460Y0121054D01*
X0202460Y0119149D01*
X0202460Y0119677D02*
X0207292Y0119677D01*
X0207292Y0120475D02*
X0202460Y0120475D01*
X0202241Y0121274D02*
X0207292Y0121274D01*
X0207292Y0122072D02*
X0201442Y0122072D01*
X0198878Y0122072D02*
X0188285Y0122072D01*
X0188285Y0121274D02*
X0198079Y0121274D01*
X0197860Y0120475D02*
X0188285Y0120475D01*
X0188285Y0119677D02*
X0197860Y0119677D01*
X0198131Y0118878D02*
X0188285Y0118878D01*
X0188285Y0118080D02*
X0198930Y0118080D01*
X0201391Y0118080D02*
X0223800Y0118080D01*
X0223800Y0117281D02*
X0188285Y0117281D01*
X0188285Y0116483D02*
X0223800Y0116483D01*
X0223800Y0115684D02*
X0188285Y0115684D01*
X0188285Y0114886D02*
X0223800Y0114886D01*
X0223800Y0114087D02*
X0188285Y0114087D01*
X0188285Y0113289D02*
X0223800Y0113289D01*
X0220457Y0119677D02*
X0213029Y0119677D01*
X0213029Y0120475D02*
X0219735Y0120475D01*
X0219735Y0121274D02*
X0213029Y0121274D01*
X0213029Y0122072D02*
X0219735Y0122072D01*
X0220301Y0122871D02*
X0213029Y0122871D01*
X0207292Y0122871D02*
X0188285Y0122871D01*
X0188285Y0123669D02*
X0207292Y0123669D01*
X0207292Y0124468D02*
X0188285Y0124468D01*
X0188285Y0125266D02*
X0207292Y0125266D01*
X0207292Y0126065D02*
X0188285Y0126065D01*
X0188285Y0126863D02*
X0207292Y0126863D01*
X0207292Y0127662D02*
X0188285Y0127662D01*
X0188285Y0128460D02*
X0207292Y0128460D01*
X0207292Y0129259D02*
X0188285Y0129259D01*
X0188285Y0130057D02*
X0207292Y0130057D01*
X0207292Y0130856D02*
X0188285Y0130856D01*
X0188285Y0131654D02*
X0207292Y0131654D01*
X0207292Y0132453D02*
X0188285Y0132453D01*
X0188285Y0133251D02*
X0207292Y0133251D01*
X0207658Y0134050D02*
X0199535Y0134050D01*
X0199535Y0134848D02*
X0208460Y0134848D01*
X0208460Y0135647D02*
X0199535Y0135647D01*
X0199535Y0136445D02*
X0203064Y0136445D01*
X0204535Y0138227D02*
X0194535Y0138227D01*
X0190785Y0141977D01*
X0206006Y0136445D02*
X0208460Y0136445D01*
X0208460Y0137244D02*
X0206805Y0137244D01*
X0206835Y0138042D02*
X0208460Y0138042D01*
X0208460Y0138841D02*
X0206835Y0138841D01*
X0196025Y0186752D02*
X0223800Y0186752D01*
X0223800Y0187550D02*
X0195591Y0187550D01*
X0195157Y0188349D02*
X0207411Y0188349D01*
X0206612Y0189147D02*
X0194722Y0189147D01*
X0194288Y0189946D02*
X0206610Y0189946D01*
X0206610Y0190744D02*
X0193853Y0190744D01*
X0209923Y0192341D02*
X0210397Y0192341D01*
X0210160Y0084477D02*
X0205160Y0080102D01*
X0187035Y0078227D02*
X0187035Y0069477D01*
X0187035Y0078227D02*
X0185160Y0080102D01*
D20*
X0179535Y0075727D02*
X0179535Y0088852D01*
X0188285Y0097602D01*
X0173285Y0102602D02*
X0173285Y0080102D01*
X0170160Y0076977D01*
X0167660Y0074477D01*
X0155160Y0074477D01*
X0147035Y0082602D01*
X0145785Y0078852D02*
X0133910Y0090727D01*
X0130785Y0090727D01*
X0128285Y0093227D01*
X0128285Y0106977D01*
X0125160Y0110102D01*
X0117660Y0110102D01*
X0114535Y0103852D02*
X0122035Y0103852D01*
X0123285Y0105102D01*
X0117035Y0101352D02*
X0123285Y0095102D01*
X0117035Y0101352D02*
X0097660Y0101352D01*
X0081410Y0117602D01*
X0081410Y0092602D01*
X0088910Y0085102D01*
X0103285Y0070727D01*
X0166410Y0070727D01*
X0167660Y0069477D01*
X0168910Y0070727D01*
X0171410Y0070727D01*
X0177035Y0076352D01*
X0177035Y0116352D01*
X0178285Y0117602D01*
X0178285Y0126352D01*
X0182660Y0130727D01*
X0173285Y0121977D02*
X0175785Y0119477D01*
X0173285Y0121977D02*
X0169535Y0121977D01*
X0168285Y0120727D01*
X0168285Y0118227D01*
X0174535Y0111977D01*
X0174535Y0077602D01*
X0170160Y0073227D01*
X0154535Y0073227D01*
X0148910Y0078852D01*
X0145785Y0078852D01*
X0148285Y0077602D02*
X0140160Y0077602D01*
X0148285Y0077602D02*
X0153910Y0071977D01*
X0170785Y0071977D01*
X0175785Y0076977D01*
X0175785Y0114477D01*
X0170785Y0119477D01*
X0167035Y0117602D02*
X0172035Y0112602D01*
X0172035Y0108852D01*
X0168910Y0110727D02*
X0165785Y0113852D01*
X0165785Y0133852D01*
X0162035Y0137602D01*
X0162035Y0141352D01*
X0165160Y0145727D02*
X0168285Y0142602D01*
X0168285Y0136977D01*
X0167035Y0135727D01*
X0167035Y0117602D01*
X0158910Y0123227D02*
X0157660Y0121977D01*
X0158910Y0123227D02*
X0158910Y0128852D01*
X0152660Y0135102D01*
X0152660Y0137602D01*
X0150160Y0135727D02*
X0153285Y0132602D01*
X0153285Y0122602D01*
X0173285Y0102602D01*
X0172035Y0101977D02*
X0172035Y0082602D01*
X0166410Y0076977D01*
X0162660Y0080727D02*
X0165160Y0083227D01*
X0165160Y0085102D01*
X0167035Y0086977D01*
X0167035Y0101352D01*
X0147660Y0120727D01*
X0147660Y0125102D01*
X0144535Y0128227D01*
X0144535Y0129477D01*
X0134535Y0139477D01*
X0122660Y0139477D01*
X0117035Y0145102D01*
X0103285Y0145102D01*
X0098285Y0150102D01*
X0098285Y0160727D01*
X0088910Y0164477D02*
X0088910Y0153852D01*
X0097035Y0145727D01*
X0097035Y0130727D01*
X0100785Y0126977D01*
X0110160Y0126977D01*
X0116410Y0133227D01*
X0118910Y0133227D01*
X0121410Y0130727D01*
X0140160Y0130727D01*
X0146410Y0124477D01*
X0146410Y0120102D01*
X0165785Y0100727D01*
X0165785Y0087602D01*
X0162035Y0083852D01*
X0162660Y0086352D02*
X0159535Y0086352D01*
X0162660Y0086352D02*
X0164535Y0088227D01*
X0164535Y0100102D01*
X0145160Y0119477D01*
X0145160Y0123852D01*
X0139535Y0129477D01*
X0120160Y0129477D01*
X0118910Y0128227D01*
X0113285Y0128227D01*
X0110785Y0125727D01*
X0100160Y0125727D01*
X0095785Y0130102D01*
X0095785Y0145102D01*
X0076410Y0164477D01*
X0082035Y0156977D02*
X0094535Y0144477D01*
X0094535Y0129477D01*
X0099535Y0124477D01*
X0111410Y0124477D01*
X0113910Y0126977D01*
X0116410Y0126977D01*
X0118285Y0125102D01*
X0118285Y0122602D01*
X0120160Y0120727D01*
X0133910Y0120727D01*
X0137035Y0117602D01*
X0145160Y0117602D01*
X0162035Y0100727D01*
X0162035Y0088852D01*
X0166410Y0084477D02*
X0166410Y0082602D01*
X0160785Y0076977D01*
X0160160Y0080727D02*
X0162660Y0080727D01*
X0166410Y0084477D02*
X0168285Y0086352D01*
X0168285Y0101977D01*
X0148910Y0121352D01*
X0148910Y0125727D01*
X0145785Y0128852D01*
X0145785Y0130102D01*
X0135160Y0140727D01*
X0123285Y0140727D01*
X0111410Y0152602D01*
X0114535Y0142602D02*
X0103910Y0142602D01*
X0095785Y0150727D01*
X0095785Y0180727D01*
X0105785Y0190727D01*
X0115785Y0190727D01*
X0119151Y0194093D01*
X0119151Y0206145D01*
X0113285Y0204477D02*
X0113285Y0214058D01*
X0119151Y0219924D01*
X0125160Y0214122D02*
X0130962Y0219924D01*
X0125160Y0214122D02*
X0125160Y0203852D01*
X0130160Y0198852D01*
X0130160Y0156352D01*
X0143910Y0142602D01*
X0143910Y0138852D01*
X0147660Y0138852D02*
X0147660Y0140727D01*
X0131410Y0156977D01*
X0131410Y0205697D01*
X0130962Y0206145D01*
X0142773Y0206145D02*
X0142773Y0169363D01*
X0156410Y0155727D01*
X0156410Y0150102D01*
X0157035Y0145727D02*
X0158285Y0145727D01*
X0163285Y0150727D01*
X0163285Y0153227D01*
X0159535Y0156977D01*
X0159535Y0174477D01*
X0154535Y0179477D01*
X0154535Y0198227D01*
X0148910Y0203852D01*
X0148910Y0214349D01*
X0154584Y0219924D01*
X0160785Y0214285D02*
X0166395Y0219924D01*
X0160785Y0214285D02*
X0160785Y0203852D01*
X0165785Y0198852D01*
X0165785Y0179477D01*
X0160785Y0174477D01*
X0160785Y0157602D01*
X0164535Y0153852D01*
X0164535Y0150102D01*
X0155785Y0141352D01*
X0153910Y0141352D01*
X0150160Y0140102D02*
X0150160Y0135727D01*
X0150785Y0133227D02*
X0152035Y0131977D01*
X0152035Y0121977D01*
X0172035Y0101977D01*
X0169535Y0102602D02*
X0169535Y0083852D01*
X0178285Y0075727D02*
X0174535Y0071977D01*
X0174535Y0067602D01*
X0172660Y0065727D01*
X0167660Y0065727D01*
X0163910Y0069477D01*
X0100785Y0069477D01*
X0080785Y0089477D01*
X0075785Y0089477D01*
X0081410Y0085102D02*
X0098285Y0068227D01*
X0163285Y0068227D01*
X0167035Y0064477D01*
X0173285Y0064477D01*
X0177660Y0068852D01*
X0181410Y0068852D02*
X0175785Y0063227D01*
X0166410Y0063227D01*
X0162660Y0066977D01*
X0081410Y0066977D01*
X0069535Y0078852D01*
X0069535Y0095102D01*
X0075785Y0101352D01*
X0075785Y0113852D01*
X0070160Y0119477D01*
X0070160Y0125102D01*
X0071410Y0126352D01*
X0071410Y0131352D01*
X0069535Y0133227D01*
X0067660Y0133227D01*
X0050160Y0150727D01*
X0050160Y0200102D01*
X0051410Y0201352D01*
X0065160Y0159477D02*
X0067660Y0156977D01*
X0082035Y0156977D01*
X0094535Y0150102D02*
X0094535Y0181352D01*
X0107660Y0194477D01*
X0107660Y0198852D01*
X0113285Y0204477D01*
X0145160Y0152602D02*
X0145160Y0145102D01*
X0150160Y0140102D01*
X0150785Y0133227D02*
X0146410Y0133227D01*
X0139535Y0140102D01*
X0139535Y0142602D01*
X0134535Y0143227D02*
X0147035Y0130727D01*
X0147035Y0129477D01*
X0150160Y0126352D01*
X0150160Y0121977D01*
X0169535Y0102602D01*
X0178285Y0115727D02*
X0180785Y0118227D01*
X0178285Y0115727D02*
X0178285Y0075727D01*
X0179535Y0075727D02*
X0183910Y0071352D01*
X0183910Y0066977D01*
X0178910Y0061977D01*
X0167660Y0061977D01*
X0162035Y0056352D01*
X0133285Y0085102D02*
X0128910Y0080727D01*
X0121410Y0080727D01*
X0114535Y0087602D01*
X0108785Y0087602D01*
X0102785Y0087602D02*
X0098910Y0087602D01*
X0096410Y0085102D01*
X0092660Y0084477D02*
X0092660Y0090727D01*
X0098285Y0096352D01*
X0102785Y0096352D01*
X0108785Y0096352D02*
X0116410Y0096352D01*
X0123285Y0089477D01*
X0123285Y0085102D01*
X0114535Y0103852D02*
X0110160Y0108227D01*
X0110160Y0116352D01*
X0105785Y0120727D01*
X0087660Y0120727D01*
X0087035Y0121352D01*
X0090160Y0121977D02*
X0116410Y0121977D01*
X0123285Y0115102D01*
X0103910Y0129477D02*
X0103910Y0140727D01*
X0094535Y0150102D01*
X0085785Y0126352D02*
X0082035Y0126352D01*
X0081410Y0125727D01*
X0085785Y0126352D02*
X0090160Y0121977D01*
X0081410Y0117602D02*
X0076410Y0122602D01*
X0126410Y0143227D02*
X0134535Y0143227D01*
X0179535Y0145102D02*
X0183285Y0148852D01*
X0183285Y0151977D01*
X0195160Y0080102D02*
X0195160Y0072602D01*
X0194535Y0071977D01*
X0194535Y0065766D01*
X0194328Y0064723D01*
X0199328Y0064723D02*
X0199328Y0069058D01*
X0198285Y0070102D01*
X0195160Y0072602D02*
X0207660Y0072602D01*
X0204328Y0068433D02*
X0203285Y0069477D01*
X0204328Y0068433D02*
X0204328Y0064723D01*
D21*
X0112410Y0167602D02*
X0112410Y0167977D01*
X0115160Y0170727D01*
X0118910Y0170727D01*
X0107660Y0168852D02*
X0107660Y0186977D01*
X0107660Y0168852D02*
X0106410Y0167602D01*
X0102035Y0165977D02*
X0102035Y0161977D01*
X0102035Y0165977D02*
X0100410Y0167602D01*
X0188910Y0206352D02*
X0189071Y0206352D01*
X0189762Y0207042D01*
X0192762Y0201846D02*
X0192267Y0201352D01*
X0192035Y0201352D01*
X0195762Y0196650D02*
X0195160Y0196049D01*
X0195160Y0195727D01*
D22*
X0089624Y0229767D02*
X0058285Y0198428D01*
X0058285Y0179477D01*
X0058285Y0176977D01*
D23*
X0163285Y0173227D02*
X0165785Y0175727D01*
X0183285Y0175727D01*
D24*
X0198285Y0170254D02*
X0200160Y0166381D01*
D25*
X0198285Y0170254D02*
X0184112Y0196302D01*
D26*
X0200160Y0166381D02*
X0210160Y0155756D01*
X0210160Y0150092D01*
X0215785Y0144477D02*
X0213920Y0142612D01*
X0210160Y0142612D01*
X0210160Y0126617D01*
X0215785Y0144477D02*
X0215785Y0156352D01*
M02*
