M48
;GenerationSoftware,Autodesk,EAGLE,9.6.2*%
;CreationDate,2021-08-24T14:25:27Z*%
FMAT,2
ICI,OFF
METRIC,TZ,000.000
T5C0.305
T4C1.016
T3C1.300
T2C3.300
%
G90
M71
T2
X41750Y54992
X3250Y54992
T3
X33000Y42493
X30000Y42493
X10500Y39993
X13500Y39993
X16500Y39993
X19500Y39993
X22500Y39993
X25500Y39993
X28500Y39993
X31500Y39993
X34500Y39993
X12000Y42493
X15000Y42493
X18000Y42493
X21000Y42493
X24000Y42493
X27000Y42493
X15000Y45992
X34500Y48492
X31500Y48492
X28500Y48492
X25500Y48492
X22500Y48492
X19500Y48492
X16500Y48492
X13500Y48492
X10500Y48492
X33000Y45992
X30000Y45992
X27000Y45992
X24000Y45992
X21000Y45992
X18000Y45992
X12000Y45992
T4
X42228Y3810
X21590Y24130
X19050Y24130
X42228Y1270
X39688Y3810
X39688Y1270
X37148Y3810
X37148Y1270
X21590Y8890
X19050Y8890
X21590Y11430
X21590Y13970
X19050Y13970
X21590Y16510
X19050Y16510
X21590Y19050
X19050Y19050
X21590Y21590
X19050Y21590
X19050Y11430
T5
X27781Y21114
X26511Y25082
X28257Y28416
X16828Y26352
X25241Y25400
X24924Y17463
X25082Y11112
X30480Y9684
X32385Y20479
X33020Y34449
X17304Y19685
X4286Y30639
X28892Y12700
X7144Y31909
X28257Y12065
X2540Y35719
X2540Y35084
X43815Y40323
X43815Y40958
X25717Y32226
X26670Y32226
X28892Y33496
X6985Y9843
X5556Y25082
X6509Y23177
X7779Y23812
X1746Y31909
X9843Y20955
X9208Y21590
X13017Y19685
X8414Y22066
X4921Y16669
X8890Y25717
X6985Y11747
X33655Y20161
X32861Y7620
X33655Y28575
X33655Y18891
X34131Y25400
X34290Y19526
X23336Y9843
X31115Y20479
X14129Y23019
X24289Y25400
X6985Y10795
X17939Y33496
X33655Y17939
X11271Y15875
X22066Y6985
X10319Y15875
X21114Y6509
X4286Y1746
X4921Y1746
X5556Y1746
X5556Y952
X4921Y952
X4286Y952
X36989Y17939
X27781Y30956
X38735Y42863
X39370Y42863
X41116Y24765
X33655Y13652
X33655Y14605
X10319Y9843
X11271Y10160
X41275Y41275
X41910Y41275
X28416Y10636
X39688Y25241
X16034Y28892
X28575Y9684
X23019Y26352
X29527Y9684
X19844Y26511
X30797Y15557
X10319Y31909
X28892Y11430
X12700Y30956
X36195Y26194
X27781Y29369
X28892Y27464
X30004Y27464
X31432Y17463
X24447Y27305
X28892Y26035
X30797Y18098
X15081Y37624
X33814Y7620
X794Y41275
X28099Y1111
X22860Y20638
X16510Y34608
X33020Y37306
X23812Y15240
X8096Y5715
X20003Y3175
X20003Y3810
X24924Y7144
X23336Y4604
X41116Y13494
X31115Y26194
X17304Y30797
X14129Y34925
X10478Y36354
X7302Y36354
X4445Y35719
X37465Y26194
X37465Y26829
X10478Y36989
X43021Y46355
X42386Y46355
X35084Y3334
X35084Y2223
X38735Y8255
X44132Y3492
X20003Y31432
X20003Y30797
X27464Y24924
X7302Y36989
X16510Y35243
X14129Y35560
X4128Y39846
X14764Y25241
X14764Y24130
X16986Y21749
X1270Y7937
X3651Y29527
X1746Y4604
X1905Y15399
X1905Y14287
X1905Y12065
X1905Y13176
X952Y24924
X13652Y29527
X4128Y39211
X794Y4604
X8096Y4921
X9049Y4921
X9049Y5715
X11430Y3175
X12065Y3175
X16986Y17463
X14287Y19844
X9366Y30639
X31829Y30480
X29051Y20479
X34131Y24289
X4445Y36354
X7302Y35719
X10478Y35719
X17304Y30162
X20003Y30162
X28099Y37624
X1905Y44450
X30559Y31750
X20638Y3810
X21273Y3175
X32702Y4445
X15240Y9049
X15240Y12382
X1905Y10954
X2699Y4604
X31274Y7461
X33338Y1111
X27781Y27464
X23177Y32861
X24765Y32226
X35084Y4445
X6191Y14764
X28099Y15557
X13652Y31274
X17621Y23336
X44132Y1111
X25082Y14129
X39688Y8255
X38576Y20638
X32226Y1111
X41116Y12541
X25717Y23336
X14764Y28416
X18098Y3810
X5239Y30639
X1111Y37783
X34131Y23336
X30321Y7779
X7144Y21273
X7937Y11112
X2223Y29210
X4921Y25876
X6191Y30639
X17463Y3810
X6667Y24924
X8890Y6985
X6985Y29369
X18098Y4445
X17463Y4445
X16828Y4445
X39370Y39688
X38735Y39688
X42228Y22066
X12224Y13176
X25717Y27305
X23812Y32226
X952Y22701
X952Y23812
X27622Y4604
X16828Y11271
X44132Y11112
X12224Y11747
X42228Y22701
X30559Y30480
X31829Y31750
X28099Y14605
X41910Y38100
X41275Y38100
X4445Y36989
X2540Y44450
X10954Y22542
X16828Y3175
X16828Y3810
X18098Y3175
X17463Y3175
X27464Y22066
X29686Y25241
X10954Y21749
X5239Y23177
X7779Y26829
X20638Y3175
X21273Y3810
X20003Y4445
X11430Y4763
X12065Y4763
X21273Y4445
X20638Y4445
X6191Y13335
M30