G04 EAGLE Gerber RS-274X export*
G75*
%MOMM*%
%FSLAX34Y34*%
%LPD*%
%INInner Copper Layer 1*%
%IPPOS*%
%AMOC8*
5,1,8,0,0,1.08239X$1,22.5*%
G01*
%ADD10C,1.950000*%
%ADD11C,1.524000*%
%ADD12C,0.711200*%

G36*
X39964Y3180D02*
X39964Y3180D01*
X39993Y3177D01*
X40104Y3200D01*
X40216Y3216D01*
X40243Y3228D01*
X40272Y3233D01*
X40372Y3286D01*
X40476Y3332D01*
X40498Y3351D01*
X40524Y3364D01*
X40606Y3442D01*
X40693Y3515D01*
X40709Y3540D01*
X40730Y3560D01*
X40787Y3658D01*
X40850Y3752D01*
X40859Y3780D01*
X40874Y3805D01*
X40902Y3915D01*
X40936Y4023D01*
X40937Y4053D01*
X40944Y4081D01*
X40940Y4194D01*
X40943Y4307D01*
X40936Y4336D01*
X40935Y4365D01*
X40900Y4473D01*
X40871Y4582D01*
X40857Y4608D01*
X40847Y4636D01*
X40802Y4699D01*
X40726Y4827D01*
X40681Y4870D01*
X40653Y4909D01*
X38036Y7526D01*
X38036Y11524D01*
X39287Y12776D01*
X39322Y12823D01*
X39365Y12863D01*
X39408Y12936D01*
X39458Y13003D01*
X39479Y13058D01*
X39509Y13108D01*
X39529Y13190D01*
X39559Y13269D01*
X39564Y13327D01*
X39579Y13384D01*
X39576Y13468D01*
X39583Y13552D01*
X39572Y13609D01*
X39570Y13668D01*
X39544Y13748D01*
X39527Y13831D01*
X39500Y13883D01*
X39482Y13938D01*
X39442Y13995D01*
X39396Y14083D01*
X39327Y14155D01*
X39287Y14212D01*
X38036Y15463D01*
X38036Y19462D01*
X40863Y22289D01*
X44862Y22289D01*
X45320Y21831D01*
X45366Y21796D01*
X45407Y21754D01*
X45479Y21711D01*
X45547Y21661D01*
X45601Y21640D01*
X45652Y21610D01*
X45733Y21589D01*
X45812Y21559D01*
X45871Y21554D01*
X45927Y21540D01*
X46012Y21543D01*
X46096Y21536D01*
X46153Y21547D01*
X46212Y21549D01*
X46292Y21575D01*
X46374Y21592D01*
X46426Y21619D01*
X46482Y21637D01*
X46538Y21677D01*
X46627Y21723D01*
X46699Y21791D01*
X46755Y21831D01*
X47213Y22289D01*
X51212Y22289D01*
X51670Y21831D01*
X51716Y21796D01*
X51757Y21754D01*
X51829Y21711D01*
X51897Y21661D01*
X51951Y21640D01*
X52002Y21610D01*
X52083Y21589D01*
X52162Y21559D01*
X52221Y21554D01*
X52277Y21540D01*
X52362Y21543D01*
X52446Y21536D01*
X52503Y21547D01*
X52562Y21549D01*
X52642Y21575D01*
X52724Y21592D01*
X52776Y21619D01*
X52832Y21637D01*
X52888Y21677D01*
X52977Y21723D01*
X53049Y21791D01*
X53105Y21831D01*
X53563Y22289D01*
X57562Y22289D01*
X60389Y19462D01*
X60389Y15463D01*
X59138Y14212D01*
X59103Y14165D01*
X59060Y14125D01*
X59017Y14052D01*
X58967Y13984D01*
X58946Y13930D01*
X58916Y13879D01*
X58896Y13798D01*
X58866Y13719D01*
X58861Y13660D01*
X58846Y13604D01*
X58849Y13520D01*
X58842Y13436D01*
X58853Y13378D01*
X58855Y13320D01*
X58881Y13239D01*
X58898Y13157D01*
X58925Y13105D01*
X58943Y13049D01*
X58983Y12993D01*
X59029Y12904D01*
X59098Y12832D01*
X59138Y12776D01*
X60389Y11524D01*
X60389Y7526D01*
X57772Y4909D01*
X57755Y4885D01*
X57732Y4866D01*
X57670Y4772D01*
X57601Y4682D01*
X57591Y4654D01*
X57575Y4630D01*
X57541Y4522D01*
X57500Y4416D01*
X57498Y4387D01*
X57489Y4359D01*
X57486Y4245D01*
X57477Y4133D01*
X57482Y4104D01*
X57482Y4075D01*
X57510Y3965D01*
X57533Y3854D01*
X57546Y3828D01*
X57554Y3800D01*
X57611Y3702D01*
X57664Y3602D01*
X57684Y3580D01*
X57699Y3555D01*
X57781Y3478D01*
X57859Y3396D01*
X57885Y3381D01*
X57906Y3361D01*
X58007Y3309D01*
X58105Y3252D01*
X58133Y3245D01*
X58159Y3231D01*
X58237Y3218D01*
X58380Y3182D01*
X58443Y3184D01*
X58490Y3176D01*
X366132Y3176D01*
X366217Y3188D01*
X366303Y3190D01*
X366357Y3208D01*
X366414Y3216D01*
X366492Y3251D01*
X366574Y3277D01*
X366621Y3309D01*
X366673Y3332D01*
X366739Y3387D01*
X366810Y3435D01*
X366847Y3479D01*
X366890Y3515D01*
X366938Y3587D01*
X366993Y3653D01*
X367016Y3705D01*
X367048Y3752D01*
X367074Y3834D01*
X367108Y3913D01*
X367116Y3969D01*
X367133Y4023D01*
X367136Y4109D01*
X367147Y4194D01*
X367139Y4251D01*
X367141Y4307D01*
X367119Y4390D01*
X367107Y4476D01*
X367083Y4528D01*
X367069Y4582D01*
X367025Y4656D01*
X366989Y4735D01*
X366953Y4778D01*
X366924Y4827D01*
X366861Y4886D01*
X366805Y4951D01*
X366763Y4977D01*
X366716Y5021D01*
X366587Y5087D01*
X366520Y5129D01*
X366439Y5163D01*
X363938Y7664D01*
X362584Y10932D01*
X362584Y14468D01*
X363938Y17736D01*
X366439Y20237D01*
X369707Y21591D01*
X373243Y21591D01*
X376511Y20237D01*
X379012Y17736D01*
X380366Y14468D01*
X380366Y10932D01*
X379012Y7664D01*
X376511Y5163D01*
X376430Y5129D01*
X376355Y5085D01*
X376277Y5050D01*
X376234Y5013D01*
X376185Y4985D01*
X376126Y4922D01*
X376060Y4866D01*
X376029Y4819D01*
X375989Y4778D01*
X375950Y4701D01*
X375902Y4630D01*
X375885Y4576D01*
X375859Y4525D01*
X375843Y4441D01*
X375817Y4359D01*
X375815Y4302D01*
X375804Y4246D01*
X375812Y4161D01*
X375809Y4075D01*
X375824Y4020D01*
X375829Y3963D01*
X375860Y3883D01*
X375881Y3800D01*
X375910Y3751D01*
X375931Y3698D01*
X375983Y3629D01*
X376026Y3555D01*
X376068Y3516D01*
X376102Y3471D01*
X376171Y3419D01*
X376234Y3361D01*
X376284Y3335D01*
X376330Y3301D01*
X376410Y3270D01*
X376487Y3231D01*
X376536Y3223D01*
X376596Y3200D01*
X376741Y3189D01*
X376818Y3176D01*
X391532Y3176D01*
X391617Y3188D01*
X391703Y3190D01*
X391757Y3208D01*
X391814Y3216D01*
X391892Y3251D01*
X391974Y3277D01*
X392021Y3309D01*
X392073Y3332D01*
X392139Y3387D01*
X392210Y3435D01*
X392247Y3479D01*
X392290Y3515D01*
X392338Y3587D01*
X392393Y3653D01*
X392416Y3705D01*
X392448Y3752D01*
X392474Y3834D01*
X392508Y3913D01*
X392516Y3969D01*
X392533Y4023D01*
X392536Y4109D01*
X392547Y4194D01*
X392539Y4251D01*
X392541Y4307D01*
X392519Y4390D01*
X392507Y4476D01*
X392483Y4528D01*
X392469Y4582D01*
X392425Y4656D01*
X392389Y4735D01*
X392353Y4778D01*
X392324Y4827D01*
X392261Y4886D01*
X392205Y4951D01*
X392163Y4977D01*
X392116Y5021D01*
X391987Y5087D01*
X391920Y5129D01*
X391839Y5163D01*
X389338Y7664D01*
X387984Y10932D01*
X387984Y14468D01*
X389338Y17736D01*
X391839Y20237D01*
X395107Y21591D01*
X398643Y21591D01*
X401911Y20237D01*
X404412Y17736D01*
X405766Y14468D01*
X405766Y10932D01*
X404412Y7664D01*
X401911Y5163D01*
X401830Y5129D01*
X401755Y5085D01*
X401677Y5050D01*
X401634Y5013D01*
X401585Y4985D01*
X401526Y4922D01*
X401460Y4866D01*
X401429Y4819D01*
X401389Y4778D01*
X401350Y4701D01*
X401302Y4630D01*
X401285Y4576D01*
X401259Y4525D01*
X401243Y4441D01*
X401217Y4359D01*
X401215Y4302D01*
X401204Y4246D01*
X401212Y4161D01*
X401209Y4075D01*
X401224Y4020D01*
X401229Y3963D01*
X401260Y3883D01*
X401281Y3800D01*
X401310Y3751D01*
X401331Y3698D01*
X401383Y3629D01*
X401426Y3555D01*
X401468Y3516D01*
X401502Y3471D01*
X401571Y3419D01*
X401634Y3361D01*
X401684Y3335D01*
X401730Y3301D01*
X401810Y3270D01*
X401887Y3231D01*
X401936Y3223D01*
X401996Y3200D01*
X402141Y3189D01*
X402218Y3176D01*
X416932Y3176D01*
X417017Y3188D01*
X417103Y3190D01*
X417157Y3208D01*
X417214Y3216D01*
X417292Y3251D01*
X417374Y3277D01*
X417421Y3309D01*
X417473Y3332D01*
X417539Y3387D01*
X417610Y3435D01*
X417647Y3479D01*
X417690Y3515D01*
X417738Y3587D01*
X417793Y3653D01*
X417816Y3705D01*
X417848Y3752D01*
X417874Y3834D01*
X417908Y3913D01*
X417916Y3969D01*
X417933Y4023D01*
X417936Y4109D01*
X417947Y4194D01*
X417939Y4251D01*
X417941Y4307D01*
X417919Y4390D01*
X417907Y4476D01*
X417883Y4528D01*
X417869Y4582D01*
X417825Y4656D01*
X417789Y4735D01*
X417753Y4778D01*
X417724Y4827D01*
X417661Y4886D01*
X417605Y4951D01*
X417563Y4977D01*
X417516Y5021D01*
X417387Y5087D01*
X417320Y5129D01*
X417239Y5163D01*
X414738Y7664D01*
X413384Y10932D01*
X413384Y14468D01*
X414738Y17736D01*
X417239Y20237D01*
X420507Y21591D01*
X424043Y21591D01*
X427311Y20237D01*
X429812Y17736D01*
X431166Y14468D01*
X431166Y10932D01*
X429812Y7664D01*
X427311Y5163D01*
X427230Y5129D01*
X427155Y5085D01*
X427077Y5050D01*
X427034Y5013D01*
X426985Y4985D01*
X426926Y4922D01*
X426860Y4866D01*
X426829Y4819D01*
X426789Y4778D01*
X426750Y4701D01*
X426702Y4630D01*
X426685Y4576D01*
X426659Y4525D01*
X426643Y4441D01*
X426617Y4359D01*
X426615Y4302D01*
X426604Y4246D01*
X426612Y4161D01*
X426609Y4075D01*
X426624Y4020D01*
X426629Y3963D01*
X426660Y3883D01*
X426681Y3800D01*
X426710Y3751D01*
X426731Y3698D01*
X426783Y3629D01*
X426826Y3555D01*
X426868Y3516D01*
X426902Y3471D01*
X426971Y3419D01*
X427034Y3361D01*
X427084Y3335D01*
X427130Y3301D01*
X427210Y3270D01*
X427287Y3231D01*
X427336Y3223D01*
X427396Y3200D01*
X427541Y3189D01*
X427618Y3176D01*
X445809Y3176D01*
X445867Y3184D01*
X445925Y3182D01*
X446007Y3204D01*
X446091Y3216D01*
X446144Y3239D01*
X446200Y3254D01*
X446273Y3297D01*
X446350Y3332D01*
X446395Y3370D01*
X446445Y3399D01*
X446503Y3461D01*
X446567Y3515D01*
X446599Y3564D01*
X446639Y3607D01*
X446678Y3682D01*
X446725Y3752D01*
X446742Y3808D01*
X446769Y3860D01*
X446780Y3928D01*
X446810Y4023D01*
X446813Y4123D01*
X446824Y4191D01*
X446824Y7335D01*
X446820Y7364D01*
X446823Y7393D01*
X446800Y7504D01*
X446784Y7616D01*
X446772Y7643D01*
X446767Y7672D01*
X446714Y7772D01*
X446668Y7876D01*
X446649Y7898D01*
X446636Y7924D01*
X446558Y8006D01*
X446485Y8093D01*
X446460Y8109D01*
X446440Y8130D01*
X446342Y8187D01*
X446248Y8250D01*
X446220Y8259D01*
X446195Y8274D01*
X446085Y8302D01*
X445977Y8336D01*
X445947Y8337D01*
X445919Y8344D01*
X445806Y8340D01*
X445693Y8343D01*
X445664Y8336D01*
X445635Y8335D01*
X445527Y8300D01*
X445418Y8271D01*
X445392Y8257D01*
X445364Y8247D01*
X445301Y8202D01*
X445173Y8126D01*
X445130Y8081D01*
X445091Y8053D01*
X443324Y6286D01*
X439326Y6286D01*
X436498Y9113D01*
X436498Y13112D01*
X439326Y15939D01*
X443324Y15939D01*
X445091Y14172D01*
X445115Y14155D01*
X445134Y14132D01*
X445228Y14070D01*
X445318Y14001D01*
X445346Y13991D01*
X445370Y13975D01*
X445478Y13941D01*
X445584Y13900D01*
X445613Y13898D01*
X445641Y13889D01*
X445755Y13886D01*
X445867Y13877D01*
X445896Y13882D01*
X445925Y13882D01*
X446035Y13910D01*
X446146Y13933D01*
X446172Y13946D01*
X446200Y13954D01*
X446298Y14011D01*
X446398Y14064D01*
X446420Y14084D01*
X446445Y14099D01*
X446522Y14181D01*
X446604Y14259D01*
X446619Y14285D01*
X446639Y14306D01*
X446691Y14407D01*
X446748Y14505D01*
X446755Y14533D01*
X446769Y14559D01*
X446782Y14637D01*
X446818Y14780D01*
X446816Y14843D01*
X446824Y14890D01*
X446824Y575809D01*
X446817Y575862D01*
X446818Y575893D01*
X446817Y575896D01*
X446818Y575925D01*
X446796Y576007D01*
X446784Y576091D01*
X446761Y576144D01*
X446746Y576200D01*
X446703Y576273D01*
X446668Y576350D01*
X446630Y576395D01*
X446601Y576445D01*
X446539Y576503D01*
X446485Y576567D01*
X446436Y576599D01*
X446393Y576639D01*
X446318Y576678D01*
X446248Y576725D01*
X446192Y576742D01*
X446140Y576769D01*
X446072Y576780D01*
X445977Y576810D01*
X445877Y576813D01*
X445809Y576824D01*
X4191Y576824D01*
X4133Y576816D01*
X4075Y576818D01*
X3993Y576796D01*
X3909Y576784D01*
X3856Y576761D01*
X3800Y576746D01*
X3727Y576703D01*
X3650Y576668D01*
X3605Y576630D01*
X3555Y576601D01*
X3497Y576539D01*
X3433Y576485D01*
X3401Y576436D01*
X3361Y576393D01*
X3322Y576318D01*
X3275Y576248D01*
X3258Y576192D01*
X3231Y576140D01*
X3220Y576072D01*
X3190Y575977D01*
X3187Y575877D01*
X3176Y575809D01*
X3176Y417265D01*
X3180Y417236D01*
X3177Y417207D01*
X3200Y417096D01*
X3216Y416984D01*
X3228Y416957D01*
X3233Y416928D01*
X3286Y416828D01*
X3332Y416724D01*
X3351Y416702D01*
X3364Y416676D01*
X3442Y416594D01*
X3515Y416507D01*
X3540Y416491D01*
X3560Y416470D01*
X3658Y416413D01*
X3752Y416350D01*
X3780Y416341D01*
X3805Y416326D01*
X3915Y416298D01*
X4023Y416264D01*
X4053Y416263D01*
X4081Y416256D01*
X4194Y416260D01*
X4307Y416257D01*
X4336Y416264D01*
X4365Y416265D01*
X4473Y416300D01*
X4582Y416329D01*
X4608Y416343D01*
X4636Y416353D01*
X4700Y416398D01*
X4827Y416474D01*
X4870Y416519D01*
X4909Y416547D01*
X5938Y417577D01*
X9937Y417577D01*
X12764Y414749D01*
X12764Y410751D01*
X9937Y407923D01*
X5938Y407923D01*
X4909Y408953D01*
X4885Y408970D01*
X4866Y408993D01*
X4772Y409055D01*
X4682Y409124D01*
X4654Y409134D01*
X4630Y409150D01*
X4522Y409184D01*
X4416Y409225D01*
X4387Y409227D01*
X4359Y409236D01*
X4245Y409239D01*
X4133Y409248D01*
X4104Y409243D01*
X4075Y409243D01*
X3965Y409215D01*
X3854Y409192D01*
X3828Y409179D01*
X3800Y409171D01*
X3702Y409114D01*
X3602Y409061D01*
X3580Y409041D01*
X3555Y409026D01*
X3478Y408944D01*
X3396Y408866D01*
X3381Y408840D01*
X3361Y408819D01*
X3309Y408718D01*
X3252Y408620D01*
X3245Y408592D01*
X3231Y408566D01*
X3218Y408488D01*
X3182Y408345D01*
X3184Y408282D01*
X3176Y408235D01*
X3176Y4191D01*
X3184Y4133D01*
X3182Y4075D01*
X3204Y3993D01*
X3216Y3909D01*
X3239Y3856D01*
X3254Y3800D01*
X3297Y3727D01*
X3332Y3650D01*
X3370Y3605D01*
X3399Y3555D01*
X3461Y3497D01*
X3515Y3433D01*
X3564Y3401D01*
X3607Y3361D01*
X3682Y3322D01*
X3752Y3275D01*
X3808Y3258D01*
X3860Y3231D01*
X3928Y3220D01*
X4023Y3190D01*
X4123Y3187D01*
X4191Y3176D01*
X39935Y3176D01*
X39964Y3180D01*
G37*
%LPC*%
G36*
X28713Y530884D02*
X28713Y530884D01*
X21714Y533783D01*
X16358Y539139D01*
X13459Y546138D01*
X13459Y553712D01*
X16358Y560711D01*
X21714Y566067D01*
X28713Y568966D01*
X36287Y568966D01*
X43286Y566067D01*
X48642Y560711D01*
X51541Y553712D01*
X51541Y546138D01*
X48642Y539139D01*
X43286Y533783D01*
X36287Y530884D01*
X28713Y530884D01*
G37*
%LPD*%
%LPC*%
G36*
X413713Y530884D02*
X413713Y530884D01*
X406714Y533783D01*
X401358Y539139D01*
X398459Y546138D01*
X398459Y553712D01*
X401358Y560711D01*
X406714Y566067D01*
X413713Y568966D01*
X421287Y568966D01*
X428286Y566067D01*
X433642Y560711D01*
X436541Y553712D01*
X436541Y546138D01*
X433642Y539139D01*
X428286Y533783D01*
X421287Y530884D01*
X413713Y530884D01*
G37*
%LPD*%
%LPC*%
G36*
X283751Y92011D02*
X283751Y92011D01*
X280923Y94838D01*
X280923Y98837D01*
X282175Y100088D01*
X282210Y100135D01*
X282252Y100175D01*
X282295Y100248D01*
X282346Y100316D01*
X282367Y100370D01*
X282396Y100421D01*
X282417Y100502D01*
X282447Y100581D01*
X282452Y100640D01*
X282466Y100696D01*
X282464Y100780D01*
X282471Y100864D01*
X282459Y100922D01*
X282457Y100980D01*
X282431Y101061D01*
X282415Y101143D01*
X282388Y101195D01*
X282370Y101251D01*
X282330Y101307D01*
X282284Y101396D01*
X282215Y101468D01*
X282175Y101524D01*
X279336Y104363D01*
X279336Y108362D01*
X282163Y111189D01*
X283083Y111189D01*
X283141Y111197D01*
X283199Y111196D01*
X283281Y111217D01*
X283365Y111229D01*
X283418Y111253D01*
X283474Y111268D01*
X283547Y111311D01*
X283624Y111345D01*
X283669Y111383D01*
X283719Y111413D01*
X283777Y111475D01*
X283841Y111529D01*
X283873Y111578D01*
X283913Y111620D01*
X283952Y111695D01*
X283999Y111766D01*
X284016Y111821D01*
X284043Y111873D01*
X284054Y111941D01*
X284084Y112037D01*
X284087Y112136D01*
X284098Y112204D01*
X284098Y114808D01*
X284090Y114866D01*
X284092Y114924D01*
X284070Y115006D01*
X284058Y115090D01*
X284035Y115143D01*
X284020Y115199D01*
X283977Y115272D01*
X283942Y115349D01*
X283904Y115394D01*
X283875Y115444D01*
X283813Y115502D01*
X283759Y115566D01*
X283710Y115598D01*
X283667Y115638D01*
X283592Y115677D01*
X283522Y115724D01*
X283466Y115741D01*
X283414Y115768D01*
X283346Y115779D01*
X283251Y115809D01*
X283151Y115812D01*
X283083Y115823D01*
X280576Y115823D01*
X277748Y118651D01*
X277748Y122649D01*
X280576Y125477D01*
X283083Y125477D01*
X283141Y125485D01*
X283199Y125483D01*
X283281Y125505D01*
X283365Y125517D01*
X283418Y125540D01*
X283474Y125555D01*
X283547Y125598D01*
X283624Y125633D01*
X283669Y125671D01*
X283719Y125700D01*
X283777Y125762D01*
X283841Y125816D01*
X283873Y125865D01*
X283913Y125908D01*
X283952Y125983D01*
X283999Y126053D01*
X284016Y126109D01*
X284043Y126161D01*
X284054Y126229D01*
X284084Y126324D01*
X284087Y126424D01*
X284098Y126492D01*
X284098Y128999D01*
X286926Y131827D01*
X290924Y131827D01*
X293752Y128999D01*
X293752Y125001D01*
X290924Y122173D01*
X288417Y122173D01*
X288359Y122165D01*
X288301Y122167D01*
X288219Y122145D01*
X288135Y122133D01*
X288082Y122110D01*
X288026Y122095D01*
X287953Y122052D01*
X287876Y122017D01*
X287831Y121979D01*
X287781Y121950D01*
X287723Y121888D01*
X287659Y121834D01*
X287627Y121785D01*
X287587Y121742D01*
X287548Y121667D01*
X287501Y121597D01*
X287484Y121541D01*
X287457Y121489D01*
X287446Y121421D01*
X287416Y121326D01*
X287413Y121226D01*
X287402Y121158D01*
X287402Y120142D01*
X287410Y120084D01*
X287408Y120026D01*
X287430Y119944D01*
X287442Y119860D01*
X287465Y119807D01*
X287480Y119751D01*
X287523Y119678D01*
X287558Y119601D01*
X287596Y119556D01*
X287625Y119506D01*
X287687Y119448D01*
X287741Y119384D01*
X287790Y119352D01*
X287833Y119312D01*
X287908Y119273D01*
X287978Y119226D01*
X288034Y119209D01*
X288086Y119182D01*
X288154Y119171D01*
X288249Y119141D01*
X288349Y119138D01*
X288417Y119127D01*
X290924Y119127D01*
X293752Y116299D01*
X293752Y112301D01*
X290924Y109473D01*
X290004Y109473D01*
X289947Y109465D01*
X289888Y109467D01*
X289807Y109445D01*
X289723Y109433D01*
X289670Y109410D01*
X289613Y109395D01*
X289541Y109352D01*
X289464Y109317D01*
X289419Y109279D01*
X289369Y109250D01*
X289311Y109188D01*
X289247Y109134D01*
X289214Y109085D01*
X289174Y109042D01*
X289136Y108967D01*
X289089Y108897D01*
X289071Y108841D01*
X289045Y108789D01*
X289033Y108721D01*
X289003Y108626D01*
X289001Y108526D01*
X288989Y108458D01*
X288989Y104363D01*
X287738Y103112D01*
X287703Y103065D01*
X287660Y103025D01*
X287617Y102952D01*
X287567Y102884D01*
X287546Y102830D01*
X287516Y102779D01*
X287496Y102698D01*
X287466Y102619D01*
X287461Y102560D01*
X287446Y102504D01*
X287449Y102420D01*
X287442Y102335D01*
X287453Y102278D01*
X287455Y102220D01*
X287481Y102139D01*
X287498Y102057D01*
X287525Y102005D01*
X287543Y101949D01*
X287583Y101893D01*
X287629Y101804D01*
X287698Y101732D01*
X287738Y101676D01*
X289795Y99619D01*
X289841Y99584D01*
X289882Y99541D01*
X289955Y99499D01*
X290022Y99448D01*
X290076Y99427D01*
X290127Y99398D01*
X290209Y99377D01*
X290287Y99347D01*
X290346Y99342D01*
X290402Y99328D01*
X290487Y99330D01*
X290571Y99323D01*
X290628Y99335D01*
X290687Y99337D01*
X290767Y99363D01*
X290849Y99379D01*
X290901Y99406D01*
X290957Y99424D01*
X291013Y99464D01*
X291102Y99510D01*
X291174Y99579D01*
X291230Y99619D01*
X293276Y101664D01*
X297274Y101664D01*
X299320Y99619D01*
X299366Y99584D01*
X299407Y99541D01*
X299479Y99499D01*
X299547Y99448D01*
X299601Y99427D01*
X299652Y99398D01*
X299734Y99377D01*
X299812Y99347D01*
X299871Y99342D01*
X299927Y99328D01*
X300012Y99330D01*
X300096Y99323D01*
X300153Y99335D01*
X300212Y99337D01*
X300292Y99363D01*
X300374Y99379D01*
X300426Y99406D01*
X300482Y99424D01*
X300538Y99464D01*
X300627Y99510D01*
X300699Y99579D01*
X300755Y99619D01*
X302801Y101664D01*
X306799Y101664D01*
X309627Y98837D01*
X309627Y94838D01*
X306799Y92011D01*
X302801Y92011D01*
X300755Y94056D01*
X300709Y94091D01*
X300668Y94134D01*
X300596Y94176D01*
X300528Y94227D01*
X300474Y94248D01*
X300423Y94277D01*
X300341Y94298D01*
X300263Y94328D01*
X300204Y94333D01*
X300148Y94347D01*
X300063Y94345D01*
X299979Y94352D01*
X299922Y94340D01*
X299863Y94338D01*
X299783Y94312D01*
X299700Y94296D01*
X299649Y94269D01*
X299593Y94251D01*
X299537Y94211D01*
X299448Y94165D01*
X299376Y94096D01*
X299320Y94056D01*
X297274Y92011D01*
X293276Y92011D01*
X291230Y94056D01*
X291184Y94091D01*
X291143Y94134D01*
X291071Y94176D01*
X291003Y94227D01*
X290949Y94248D01*
X290898Y94277D01*
X290816Y94298D01*
X290738Y94328D01*
X290679Y94333D01*
X290623Y94347D01*
X290538Y94345D01*
X290454Y94352D01*
X290397Y94340D01*
X290338Y94338D01*
X290258Y94312D01*
X290175Y94296D01*
X290124Y94269D01*
X290068Y94251D01*
X290012Y94211D01*
X289923Y94165D01*
X289851Y94096D01*
X289795Y94056D01*
X287749Y92011D01*
X283751Y92011D01*
G37*
%LPD*%
%LPC*%
G36*
X166276Y26923D02*
X166276Y26923D01*
X163448Y29751D01*
X163448Y33749D01*
X163906Y34207D01*
X163941Y34254D01*
X163984Y34294D01*
X164026Y34367D01*
X164077Y34434D01*
X164098Y34489D01*
X164127Y34539D01*
X164148Y34621D01*
X164178Y34700D01*
X164183Y34758D01*
X164197Y34815D01*
X164195Y34899D01*
X164202Y34983D01*
X164190Y35041D01*
X164188Y35099D01*
X164162Y35179D01*
X164146Y35262D01*
X164119Y35314D01*
X164101Y35370D01*
X164061Y35426D01*
X164015Y35514D01*
X163946Y35587D01*
X163906Y35643D01*
X163448Y36101D01*
X163448Y40099D01*
X163906Y40557D01*
X163941Y40604D01*
X163984Y40644D01*
X164026Y40717D01*
X164077Y40784D01*
X164098Y40839D01*
X164127Y40889D01*
X164148Y40971D01*
X164178Y41050D01*
X164183Y41108D01*
X164197Y41165D01*
X164195Y41249D01*
X164202Y41333D01*
X164190Y41391D01*
X164188Y41449D01*
X164162Y41529D01*
X164146Y41612D01*
X164119Y41664D01*
X164101Y41720D01*
X164061Y41776D01*
X164015Y41864D01*
X163946Y41937D01*
X163906Y41993D01*
X163448Y42451D01*
X163448Y46449D01*
X166276Y49277D01*
X170274Y49277D01*
X170732Y48819D01*
X170779Y48784D01*
X170819Y48741D01*
X170892Y48699D01*
X170959Y48648D01*
X171014Y48627D01*
X171064Y48598D01*
X171146Y48577D01*
X171225Y48547D01*
X171283Y48542D01*
X171340Y48528D01*
X171424Y48530D01*
X171508Y48523D01*
X171566Y48535D01*
X171624Y48537D01*
X171704Y48563D01*
X171787Y48579D01*
X171839Y48606D01*
X171895Y48624D01*
X171951Y48664D01*
X172039Y48710D01*
X172112Y48779D01*
X172168Y48819D01*
X172626Y49277D01*
X176624Y49277D01*
X177082Y48819D01*
X177129Y48784D01*
X177169Y48741D01*
X177242Y48699D01*
X177309Y48648D01*
X177364Y48627D01*
X177414Y48598D01*
X177496Y48577D01*
X177575Y48547D01*
X177633Y48542D01*
X177690Y48528D01*
X177774Y48530D01*
X177858Y48523D01*
X177916Y48535D01*
X177974Y48537D01*
X178054Y48563D01*
X178137Y48579D01*
X178189Y48606D01*
X178245Y48624D01*
X178301Y48664D01*
X178389Y48710D01*
X178462Y48779D01*
X178518Y48819D01*
X178976Y49277D01*
X182974Y49277D01*
X185802Y46449D01*
X185802Y42451D01*
X185344Y41993D01*
X185309Y41946D01*
X185266Y41906D01*
X185224Y41833D01*
X185173Y41766D01*
X185152Y41711D01*
X185123Y41661D01*
X185102Y41579D01*
X185072Y41500D01*
X185067Y41442D01*
X185053Y41385D01*
X185055Y41301D01*
X185048Y41217D01*
X185060Y41159D01*
X185062Y41101D01*
X185088Y41021D01*
X185104Y40938D01*
X185131Y40886D01*
X185149Y40830D01*
X185189Y40774D01*
X185235Y40686D01*
X185304Y40613D01*
X185344Y40557D01*
X185802Y40099D01*
X185802Y36101D01*
X185344Y35643D01*
X185309Y35596D01*
X185266Y35556D01*
X185224Y35483D01*
X185173Y35416D01*
X185152Y35361D01*
X185123Y35311D01*
X185102Y35229D01*
X185072Y35150D01*
X185067Y35092D01*
X185053Y35035D01*
X185055Y34951D01*
X185048Y34867D01*
X185060Y34809D01*
X185062Y34751D01*
X185088Y34671D01*
X185104Y34588D01*
X185131Y34536D01*
X185149Y34480D01*
X185189Y34424D01*
X185235Y34336D01*
X185304Y34263D01*
X185344Y34207D01*
X185802Y33749D01*
X185802Y29751D01*
X182974Y26923D01*
X178976Y26923D01*
X178518Y27381D01*
X178471Y27416D01*
X178431Y27459D01*
X178358Y27501D01*
X178291Y27552D01*
X178236Y27573D01*
X178186Y27602D01*
X178104Y27623D01*
X178025Y27653D01*
X177967Y27658D01*
X177910Y27672D01*
X177826Y27670D01*
X177742Y27677D01*
X177684Y27665D01*
X177626Y27663D01*
X177546Y27637D01*
X177463Y27621D01*
X177411Y27594D01*
X177355Y27576D01*
X177299Y27536D01*
X177211Y27490D01*
X177138Y27421D01*
X177082Y27381D01*
X176624Y26923D01*
X172626Y26923D01*
X172168Y27381D01*
X172121Y27416D01*
X172081Y27459D01*
X172008Y27501D01*
X171941Y27552D01*
X171886Y27573D01*
X171836Y27602D01*
X171754Y27623D01*
X171675Y27653D01*
X171617Y27658D01*
X171560Y27672D01*
X171476Y27670D01*
X171392Y27677D01*
X171334Y27665D01*
X171276Y27663D01*
X171196Y27637D01*
X171113Y27621D01*
X171061Y27594D01*
X171005Y27576D01*
X170949Y27536D01*
X170861Y27490D01*
X170788Y27421D01*
X170732Y27381D01*
X170274Y26923D01*
X166276Y26923D01*
G37*
%LPD*%
%LPC*%
G36*
X275813Y269811D02*
X275813Y269811D01*
X272986Y272638D01*
X272986Y276637D01*
X275813Y279464D01*
X277996Y279464D01*
X278025Y279468D01*
X278055Y279466D01*
X278166Y279488D01*
X278278Y279504D01*
X278304Y279516D01*
X278333Y279522D01*
X278434Y279574D01*
X278537Y279620D01*
X278560Y279639D01*
X278586Y279653D01*
X278668Y279731D01*
X278754Y279804D01*
X278770Y279828D01*
X278792Y279849D01*
X278849Y279946D01*
X278912Y280041D01*
X278921Y280069D01*
X278935Y280094D01*
X278963Y280203D01*
X278998Y280312D01*
X278998Y280341D01*
X279005Y280369D01*
X279002Y280482D01*
X279005Y280596D01*
X278997Y280624D01*
X278996Y280654D01*
X278962Y280762D01*
X278933Y280871D01*
X278918Y280896D01*
X278909Y280924D01*
X278863Y280988D01*
X278788Y281115D01*
X278742Y281158D01*
X278714Y281197D01*
X277748Y282163D01*
X277748Y286162D01*
X278714Y287128D01*
X278732Y287151D01*
X278754Y287170D01*
X278817Y287264D01*
X278885Y287355D01*
X278895Y287382D01*
X278912Y287407D01*
X278946Y287515D01*
X278986Y287620D01*
X278989Y287650D01*
X278998Y287678D01*
X279000Y287791D01*
X279010Y287904D01*
X279004Y287932D01*
X279005Y287962D01*
X278976Y288071D01*
X278954Y288183D01*
X278940Y288209D01*
X278933Y288237D01*
X278875Y288334D01*
X278823Y288435D01*
X278803Y288456D01*
X278788Y288481D01*
X278705Y288559D01*
X278627Y288641D01*
X278602Y288656D01*
X278580Y288676D01*
X278480Y288727D01*
X278382Y288785D01*
X278353Y288792D01*
X278327Y288805D01*
X278250Y288818D01*
X278106Y288855D01*
X278044Y288853D01*
X277996Y288861D01*
X275813Y288861D01*
X272986Y291688D01*
X272986Y295687D01*
X275813Y298514D01*
X279812Y298514D01*
X282639Y295687D01*
X282639Y291688D01*
X281673Y290722D01*
X281656Y290699D01*
X281633Y290680D01*
X281571Y290586D01*
X281502Y290495D01*
X281492Y290468D01*
X281476Y290443D01*
X281442Y290335D01*
X281401Y290230D01*
X281399Y290200D01*
X281390Y290172D01*
X281387Y290059D01*
X281378Y289946D01*
X281383Y289918D01*
X281383Y289888D01*
X281411Y289779D01*
X281434Y289667D01*
X281447Y289641D01*
X281455Y289613D01*
X281512Y289516D01*
X281565Y289415D01*
X281585Y289394D01*
X281600Y289369D01*
X281682Y289291D01*
X281760Y289209D01*
X281786Y289194D01*
X281807Y289174D01*
X281908Y289123D01*
X282006Y289065D01*
X282034Y289058D01*
X282060Y289045D01*
X282138Y289032D01*
X282281Y288995D01*
X282344Y288997D01*
X282391Y288989D01*
X284574Y288989D01*
X287402Y286162D01*
X287402Y282163D01*
X286436Y281197D01*
X286418Y281174D01*
X286396Y281155D01*
X286333Y281061D01*
X286265Y280970D01*
X286255Y280943D01*
X286238Y280918D01*
X286204Y280810D01*
X286164Y280705D01*
X286161Y280675D01*
X286152Y280647D01*
X286150Y280534D01*
X286140Y280421D01*
X286146Y280393D01*
X286145Y280363D01*
X286174Y280254D01*
X286196Y280142D01*
X286210Y280116D01*
X286217Y280088D01*
X286275Y279991D01*
X286327Y279890D01*
X286347Y279869D01*
X286362Y279844D01*
X286445Y279766D01*
X286523Y279684D01*
X286548Y279669D01*
X286570Y279649D01*
X286670Y279598D01*
X286768Y279540D01*
X286797Y279533D01*
X286823Y279520D01*
X286900Y279507D01*
X287044Y279470D01*
X287106Y279472D01*
X287154Y279464D01*
X290924Y279464D01*
X293763Y276625D01*
X293810Y276590D01*
X293850Y276548D01*
X293923Y276505D01*
X293991Y276454D01*
X294045Y276433D01*
X294096Y276404D01*
X294177Y276383D01*
X294256Y276353D01*
X294315Y276348D01*
X294371Y276334D01*
X294455Y276336D01*
X294539Y276329D01*
X294597Y276341D01*
X294655Y276343D01*
X294736Y276369D01*
X294818Y276385D01*
X294870Y276412D01*
X294926Y276430D01*
X294982Y276470D01*
X295071Y276516D01*
X295143Y276585D01*
X295199Y276625D01*
X298038Y279464D01*
X302037Y279464D01*
X304864Y276637D01*
X304864Y272638D01*
X302037Y269811D01*
X298038Y269811D01*
X295199Y272650D01*
X295152Y272685D01*
X295112Y272727D01*
X295039Y272770D01*
X294972Y272821D01*
X294917Y272842D01*
X294867Y272871D01*
X294785Y272892D01*
X294706Y272922D01*
X294648Y272927D01*
X294591Y272941D01*
X294507Y272939D01*
X294423Y272946D01*
X294366Y272934D01*
X294307Y272932D01*
X294227Y272906D01*
X294144Y272890D01*
X294092Y272863D01*
X294037Y272845D01*
X293980Y272805D01*
X293892Y272759D01*
X293820Y272690D01*
X293763Y272650D01*
X290924Y269811D01*
X286926Y269811D01*
X284087Y272650D01*
X284040Y272685D01*
X284000Y272727D01*
X283927Y272770D01*
X283859Y272821D01*
X283805Y272842D01*
X283754Y272871D01*
X283673Y272892D01*
X283594Y272922D01*
X283535Y272927D01*
X283479Y272941D01*
X283395Y272939D01*
X283310Y272946D01*
X283253Y272934D01*
X283195Y272932D01*
X283114Y272906D01*
X283032Y272890D01*
X282980Y272863D01*
X282924Y272845D01*
X282868Y272805D01*
X282779Y272759D01*
X282707Y272690D01*
X282651Y272650D01*
X279812Y269811D01*
X275813Y269811D01*
G37*
%LPD*%
%LPC*%
G36*
X237808Y413904D02*
X237808Y413904D01*
X233757Y415582D01*
X230657Y418682D01*
X228979Y422733D01*
X228979Y427117D01*
X230657Y431168D01*
X233757Y434268D01*
X237808Y435946D01*
X242192Y435946D01*
X246243Y434268D01*
X249343Y431168D01*
X251021Y427117D01*
X251021Y422733D01*
X249343Y418682D01*
X246243Y415582D01*
X242192Y413904D01*
X237808Y413904D01*
G37*
%LPD*%
%LPC*%
G36*
X132808Y473904D02*
X132808Y473904D01*
X128757Y475582D01*
X125657Y478682D01*
X123979Y482733D01*
X123979Y487117D01*
X125657Y491168D01*
X128757Y494268D01*
X132808Y495946D01*
X137192Y495946D01*
X141243Y494268D01*
X144343Y491168D01*
X146021Y487117D01*
X146021Y482733D01*
X144343Y478682D01*
X141243Y475582D01*
X137192Y473904D01*
X132808Y473904D01*
G37*
%LPD*%
%LPC*%
G36*
X117808Y413904D02*
X117808Y413904D01*
X113757Y415582D01*
X110657Y418682D01*
X108979Y422733D01*
X108979Y427117D01*
X110657Y431168D01*
X113757Y434268D01*
X117808Y435946D01*
X122192Y435946D01*
X126243Y434268D01*
X129343Y431168D01*
X131021Y427117D01*
X131021Y422733D01*
X129343Y418682D01*
X126243Y415582D01*
X122192Y413904D01*
X117808Y413904D01*
G37*
%LPD*%
%LPC*%
G36*
X177808Y413904D02*
X177808Y413904D01*
X173757Y415582D01*
X170657Y418682D01*
X168979Y422733D01*
X168979Y427117D01*
X170657Y431168D01*
X173757Y434268D01*
X177808Y435946D01*
X182192Y435946D01*
X186243Y434268D01*
X189343Y431168D01*
X191021Y427117D01*
X191021Y422733D01*
X189343Y418682D01*
X186243Y415582D01*
X182192Y413904D01*
X177808Y413904D01*
G37*
%LPD*%
%LPC*%
G36*
X297808Y413904D02*
X297808Y413904D01*
X293757Y415582D01*
X290657Y418682D01*
X288979Y422733D01*
X288979Y427117D01*
X290657Y431168D01*
X293757Y434268D01*
X297808Y435946D01*
X302192Y435946D01*
X306243Y434268D01*
X309343Y431168D01*
X311021Y427117D01*
X311021Y422733D01*
X309343Y418682D01*
X306243Y415582D01*
X302192Y413904D01*
X297808Y413904D01*
G37*
%LPD*%
%LPC*%
G36*
X132808Y388904D02*
X132808Y388904D01*
X128757Y390582D01*
X125657Y393682D01*
X123979Y397733D01*
X123979Y402117D01*
X125657Y406168D01*
X128757Y409268D01*
X132808Y410946D01*
X137192Y410946D01*
X141243Y409268D01*
X144343Y406168D01*
X146021Y402117D01*
X146021Y397733D01*
X144343Y393682D01*
X141243Y390582D01*
X137192Y388904D01*
X132808Y388904D01*
G37*
%LPD*%
%LPC*%
G36*
X222808Y388904D02*
X222808Y388904D01*
X218757Y390582D01*
X215657Y393682D01*
X213979Y397733D01*
X213979Y402117D01*
X215657Y406168D01*
X218757Y409268D01*
X222808Y410946D01*
X227192Y410946D01*
X231243Y409268D01*
X234343Y406168D01*
X236021Y402117D01*
X236021Y397733D01*
X234343Y393682D01*
X231243Y390582D01*
X227192Y388904D01*
X222808Y388904D01*
G37*
%LPD*%
%LPC*%
G36*
X192808Y388904D02*
X192808Y388904D01*
X188757Y390582D01*
X185657Y393682D01*
X183979Y397733D01*
X183979Y402117D01*
X185657Y406168D01*
X188757Y409268D01*
X192808Y410946D01*
X197192Y410946D01*
X201243Y409268D01*
X204343Y406168D01*
X206021Y402117D01*
X206021Y397733D01*
X204343Y393682D01*
X201243Y390582D01*
X197192Y388904D01*
X192808Y388904D01*
G37*
%LPD*%
%LPC*%
G36*
X162808Y388904D02*
X162808Y388904D01*
X158757Y390582D01*
X155657Y393682D01*
X153979Y397733D01*
X153979Y402117D01*
X155657Y406168D01*
X158757Y409268D01*
X162808Y410946D01*
X167192Y410946D01*
X171243Y409268D01*
X174343Y406168D01*
X176021Y402117D01*
X176021Y397733D01*
X174343Y393682D01*
X171243Y390582D01*
X167192Y388904D01*
X162808Y388904D01*
G37*
%LPD*%
%LPC*%
G36*
X342808Y388904D02*
X342808Y388904D01*
X338757Y390582D01*
X335657Y393682D01*
X333979Y397733D01*
X333979Y402117D01*
X335657Y406168D01*
X338757Y409268D01*
X342808Y410946D01*
X347192Y410946D01*
X351243Y409268D01*
X354343Y406168D01*
X356021Y402117D01*
X356021Y397733D01*
X354343Y393682D01*
X351243Y390582D01*
X347192Y388904D01*
X342808Y388904D01*
G37*
%LPD*%
%LPC*%
G36*
X312808Y388904D02*
X312808Y388904D01*
X308757Y390582D01*
X305657Y393682D01*
X303979Y397733D01*
X303979Y402117D01*
X305657Y406168D01*
X308757Y409268D01*
X312808Y410946D01*
X317192Y410946D01*
X321243Y409268D01*
X324343Y406168D01*
X326021Y402117D01*
X326021Y397733D01*
X324343Y393682D01*
X321243Y390582D01*
X317192Y388904D01*
X312808Y388904D01*
G37*
%LPD*%
%LPC*%
G36*
X282808Y388904D02*
X282808Y388904D01*
X278757Y390582D01*
X275657Y393682D01*
X273979Y397733D01*
X273979Y402117D01*
X275657Y406168D01*
X278757Y409268D01*
X282808Y410946D01*
X287192Y410946D01*
X291243Y409268D01*
X294343Y406168D01*
X296021Y402117D01*
X296021Y397733D01*
X294343Y393682D01*
X291243Y390582D01*
X287192Y388904D01*
X282808Y388904D01*
G37*
%LPD*%
%LPC*%
G36*
X252808Y388904D02*
X252808Y388904D01*
X248757Y390582D01*
X245657Y393682D01*
X243979Y397733D01*
X243979Y402117D01*
X245657Y406168D01*
X248757Y409268D01*
X252808Y410946D01*
X257192Y410946D01*
X261243Y409268D01*
X264343Y406168D01*
X266021Y402117D01*
X266021Y397733D01*
X264343Y393682D01*
X261243Y390582D01*
X257192Y388904D01*
X252808Y388904D01*
G37*
%LPD*%
%LPC*%
G36*
X102808Y388904D02*
X102808Y388904D01*
X98757Y390582D01*
X95657Y393682D01*
X93979Y397733D01*
X93979Y402117D01*
X95657Y406168D01*
X98757Y409268D01*
X102808Y410946D01*
X107192Y410946D01*
X111243Y409268D01*
X114343Y406168D01*
X116021Y402117D01*
X116021Y397733D01*
X114343Y393682D01*
X111243Y390582D01*
X107192Y388904D01*
X102808Y388904D01*
G37*
%LPD*%
%LPC*%
G36*
X207808Y448904D02*
X207808Y448904D01*
X203757Y450582D01*
X200657Y453682D01*
X198979Y457733D01*
X198979Y462117D01*
X200657Y466168D01*
X203757Y469268D01*
X207808Y470946D01*
X212192Y470946D01*
X216243Y469268D01*
X219343Y466168D01*
X221021Y462117D01*
X221021Y457733D01*
X219343Y453682D01*
X216243Y450582D01*
X212192Y448904D01*
X207808Y448904D01*
G37*
%LPD*%
%LPC*%
G36*
X147808Y413904D02*
X147808Y413904D01*
X143757Y415582D01*
X140657Y418682D01*
X138979Y422733D01*
X138979Y427117D01*
X140657Y431168D01*
X143757Y434268D01*
X147808Y435946D01*
X152192Y435946D01*
X156243Y434268D01*
X159343Y431168D01*
X161021Y427117D01*
X161021Y422733D01*
X159343Y418682D01*
X156243Y415582D01*
X152192Y413904D01*
X147808Y413904D01*
G37*
%LPD*%
%LPC*%
G36*
X162808Y473904D02*
X162808Y473904D01*
X158757Y475582D01*
X155657Y478682D01*
X153979Y482733D01*
X153979Y487117D01*
X155657Y491168D01*
X158757Y494268D01*
X162808Y495946D01*
X167192Y495946D01*
X171243Y494268D01*
X174343Y491168D01*
X176021Y487117D01*
X176021Y482733D01*
X174343Y478682D01*
X171243Y475582D01*
X167192Y473904D01*
X162808Y473904D01*
G37*
%LPD*%
%LPC*%
G36*
X312808Y473904D02*
X312808Y473904D01*
X308757Y475582D01*
X305657Y478682D01*
X303979Y482733D01*
X303979Y487117D01*
X305657Y491168D01*
X308757Y494268D01*
X312808Y495946D01*
X317192Y495946D01*
X321243Y494268D01*
X324343Y491168D01*
X326021Y487117D01*
X326021Y482733D01*
X324343Y478682D01*
X321243Y475582D01*
X317192Y473904D01*
X312808Y473904D01*
G37*
%LPD*%
%LPC*%
G36*
X192808Y473904D02*
X192808Y473904D01*
X188757Y475582D01*
X185657Y478682D01*
X183979Y482733D01*
X183979Y487117D01*
X185657Y491168D01*
X188757Y494268D01*
X192808Y495946D01*
X197192Y495946D01*
X201243Y494268D01*
X204343Y491168D01*
X206021Y487117D01*
X206021Y482733D01*
X204343Y478682D01*
X201243Y475582D01*
X197192Y473904D01*
X192808Y473904D01*
G37*
%LPD*%
%LPC*%
G36*
X222808Y473904D02*
X222808Y473904D01*
X218757Y475582D01*
X215657Y478682D01*
X213979Y482733D01*
X213979Y487117D01*
X215657Y491168D01*
X218757Y494268D01*
X222808Y495946D01*
X227192Y495946D01*
X231243Y494268D01*
X234343Y491168D01*
X236021Y487117D01*
X236021Y482733D01*
X234343Y478682D01*
X231243Y475582D01*
X227192Y473904D01*
X222808Y473904D01*
G37*
%LPD*%
%LPC*%
G36*
X117808Y448904D02*
X117808Y448904D01*
X113757Y450582D01*
X110657Y453682D01*
X108979Y457733D01*
X108979Y462117D01*
X110657Y466168D01*
X113757Y469268D01*
X117808Y470946D01*
X122192Y470946D01*
X126243Y469268D01*
X129343Y466168D01*
X131021Y462117D01*
X131021Y457733D01*
X129343Y453682D01*
X126243Y450582D01*
X122192Y448904D01*
X117808Y448904D01*
G37*
%LPD*%
%LPC*%
G36*
X147808Y448904D02*
X147808Y448904D01*
X143757Y450582D01*
X140657Y453682D01*
X138979Y457733D01*
X138979Y462117D01*
X140657Y466168D01*
X143757Y469268D01*
X147808Y470946D01*
X152192Y470946D01*
X156243Y469268D01*
X159343Y466168D01*
X161021Y462117D01*
X161021Y457733D01*
X159343Y453682D01*
X156243Y450582D01*
X152192Y448904D01*
X147808Y448904D01*
G37*
%LPD*%
%LPC*%
G36*
X177808Y448904D02*
X177808Y448904D01*
X173757Y450582D01*
X170657Y453682D01*
X168979Y457733D01*
X168979Y462117D01*
X170657Y466168D01*
X173757Y469268D01*
X177808Y470946D01*
X182192Y470946D01*
X186243Y469268D01*
X189343Y466168D01*
X191021Y462117D01*
X191021Y457733D01*
X189343Y453682D01*
X186243Y450582D01*
X182192Y448904D01*
X177808Y448904D01*
G37*
%LPD*%
%LPC*%
G36*
X237808Y448904D02*
X237808Y448904D01*
X233757Y450582D01*
X230657Y453682D01*
X228979Y457733D01*
X228979Y462117D01*
X230657Y466168D01*
X233757Y469268D01*
X237808Y470946D01*
X242192Y470946D01*
X246243Y469268D01*
X249343Y466168D01*
X251021Y462117D01*
X251021Y457733D01*
X249343Y453682D01*
X246243Y450582D01*
X242192Y448904D01*
X237808Y448904D01*
G37*
%LPD*%
%LPC*%
G36*
X267808Y448904D02*
X267808Y448904D01*
X263757Y450582D01*
X260657Y453682D01*
X258979Y457733D01*
X258979Y462117D01*
X260657Y466168D01*
X263757Y469268D01*
X267808Y470946D01*
X272192Y470946D01*
X276243Y469268D01*
X279343Y466168D01*
X281021Y462117D01*
X281021Y457733D01*
X279343Y453682D01*
X276243Y450582D01*
X272192Y448904D01*
X267808Y448904D01*
G37*
%LPD*%
%LPC*%
G36*
X102808Y473904D02*
X102808Y473904D01*
X98757Y475582D01*
X95657Y478682D01*
X93979Y482733D01*
X93979Y487117D01*
X95657Y491168D01*
X98757Y494268D01*
X102808Y495946D01*
X107192Y495946D01*
X111243Y494268D01*
X114343Y491168D01*
X116021Y487117D01*
X116021Y482733D01*
X114343Y478682D01*
X111243Y475582D01*
X107192Y473904D01*
X102808Y473904D01*
G37*
%LPD*%
%LPC*%
G36*
X342808Y473904D02*
X342808Y473904D01*
X338757Y475582D01*
X335657Y478682D01*
X333979Y482733D01*
X333979Y487117D01*
X335657Y491168D01*
X338757Y494268D01*
X342808Y495946D01*
X347192Y495946D01*
X351243Y494268D01*
X354343Y491168D01*
X356021Y487117D01*
X356021Y482733D01*
X354343Y478682D01*
X351243Y475582D01*
X347192Y473904D01*
X342808Y473904D01*
G37*
%LPD*%
%LPC*%
G36*
X297808Y448904D02*
X297808Y448904D01*
X293757Y450582D01*
X290657Y453682D01*
X288979Y457733D01*
X288979Y462117D01*
X290657Y466168D01*
X293757Y469268D01*
X297808Y470946D01*
X302192Y470946D01*
X306243Y469268D01*
X309343Y466168D01*
X311021Y462117D01*
X311021Y457733D01*
X309343Y453682D01*
X306243Y450582D01*
X302192Y448904D01*
X297808Y448904D01*
G37*
%LPD*%
%LPC*%
G36*
X327808Y448904D02*
X327808Y448904D01*
X323757Y450582D01*
X320657Y453682D01*
X318979Y457733D01*
X318979Y462117D01*
X320657Y466168D01*
X323757Y469268D01*
X327808Y470946D01*
X332192Y470946D01*
X336243Y469268D01*
X339343Y466168D01*
X341021Y462117D01*
X341021Y457733D01*
X339343Y453682D01*
X336243Y450582D01*
X332192Y448904D01*
X327808Y448904D01*
G37*
%LPD*%
%LPC*%
G36*
X267808Y413904D02*
X267808Y413904D01*
X263757Y415582D01*
X260657Y418682D01*
X258979Y422733D01*
X258979Y427117D01*
X260657Y431168D01*
X263757Y434268D01*
X267808Y435946D01*
X272192Y435946D01*
X276243Y434268D01*
X279343Y431168D01*
X281021Y427117D01*
X281021Y422733D01*
X279343Y418682D01*
X276243Y415582D01*
X272192Y413904D01*
X267808Y413904D01*
G37*
%LPD*%
%LPC*%
G36*
X207808Y413904D02*
X207808Y413904D01*
X203757Y415582D01*
X200657Y418682D01*
X198979Y422733D01*
X198979Y427117D01*
X200657Y431168D01*
X203757Y434268D01*
X207808Y435946D01*
X212192Y435946D01*
X216243Y434268D01*
X219343Y431168D01*
X221021Y427117D01*
X221021Y422733D01*
X219343Y418682D01*
X216243Y415582D01*
X212192Y413904D01*
X207808Y413904D01*
G37*
%LPD*%
%LPC*%
G36*
X67851Y93598D02*
X67851Y93598D01*
X65023Y96426D01*
X65023Y100424D01*
X67069Y102470D01*
X67104Y102516D01*
X67146Y102557D01*
X67189Y102629D01*
X67239Y102697D01*
X67260Y102751D01*
X67290Y102802D01*
X67311Y102884D01*
X67341Y102962D01*
X67346Y103021D01*
X67360Y103077D01*
X67357Y103162D01*
X67364Y103246D01*
X67353Y103303D01*
X67351Y103362D01*
X67325Y103442D01*
X67308Y103524D01*
X67281Y103576D01*
X67263Y103632D01*
X67223Y103688D01*
X67177Y103777D01*
X67109Y103849D01*
X67069Y103905D01*
X65023Y105951D01*
X65023Y109949D01*
X67069Y111995D01*
X67104Y112041D01*
X67146Y112082D01*
X67189Y112154D01*
X67239Y112222D01*
X67260Y112276D01*
X67290Y112327D01*
X67311Y112409D01*
X67341Y112487D01*
X67346Y112546D01*
X67360Y112602D01*
X67357Y112687D01*
X67364Y112771D01*
X67353Y112828D01*
X67351Y112887D01*
X67325Y112967D01*
X67308Y113050D01*
X67281Y113101D01*
X67263Y113157D01*
X67223Y113213D01*
X67177Y113302D01*
X67109Y113374D01*
X67069Y113430D01*
X65023Y115476D01*
X65023Y119474D01*
X67851Y122302D01*
X71849Y122302D01*
X74677Y119474D01*
X74677Y115704D01*
X74681Y115675D01*
X74678Y115645D01*
X74701Y115534D01*
X74717Y115422D01*
X74729Y115396D01*
X74734Y115367D01*
X74787Y115266D01*
X74833Y115163D01*
X74852Y115140D01*
X74865Y115114D01*
X74943Y115032D01*
X75016Y114946D01*
X75041Y114930D01*
X75061Y114908D01*
X75159Y114851D01*
X75253Y114788D01*
X75281Y114779D01*
X75306Y114765D01*
X75416Y114737D01*
X75524Y114702D01*
X75554Y114702D01*
X75582Y114695D01*
X75695Y114698D01*
X75808Y114695D01*
X75837Y114703D01*
X75866Y114704D01*
X75974Y114738D01*
X76083Y114767D01*
X76109Y114782D01*
X76137Y114791D01*
X76201Y114837D01*
X76328Y114912D01*
X76371Y114958D01*
X76410Y114986D01*
X77376Y115952D01*
X81374Y115952D01*
X84202Y113124D01*
X84202Y109126D01*
X81374Y106298D01*
X77376Y106298D01*
X76410Y107264D01*
X76386Y107282D01*
X76367Y107304D01*
X76273Y107367D01*
X76183Y107435D01*
X76155Y107445D01*
X76131Y107462D01*
X76023Y107496D01*
X75917Y107536D01*
X75888Y107539D01*
X75860Y107548D01*
X75746Y107550D01*
X75634Y107560D01*
X75605Y107554D01*
X75576Y107555D01*
X75466Y107526D01*
X75355Y107504D01*
X75329Y107490D01*
X75301Y107483D01*
X75203Y107425D01*
X75103Y107373D01*
X75081Y107353D01*
X75056Y107338D01*
X74979Y107255D01*
X74897Y107177D01*
X74882Y107152D01*
X74862Y107130D01*
X74810Y107030D01*
X74753Y106932D01*
X74746Y106903D01*
X74732Y106877D01*
X74719Y106800D01*
X74683Y106656D01*
X74685Y106594D01*
X74677Y106546D01*
X74677Y105951D01*
X72631Y103905D01*
X72596Y103859D01*
X72554Y103818D01*
X72511Y103746D01*
X72461Y103678D01*
X72440Y103624D01*
X72410Y103573D01*
X72389Y103491D01*
X72359Y103413D01*
X72354Y103354D01*
X72340Y103298D01*
X72343Y103213D01*
X72336Y103129D01*
X72347Y103072D01*
X72349Y103013D01*
X72375Y102933D01*
X72392Y102850D01*
X72419Y102799D01*
X72437Y102743D01*
X72477Y102687D01*
X72523Y102598D01*
X72591Y102526D01*
X72631Y102470D01*
X74677Y100424D01*
X74677Y96426D01*
X71849Y93598D01*
X67851Y93598D01*
G37*
%LPD*%
%LPC*%
G36*
X334551Y174561D02*
X334551Y174561D01*
X331723Y177388D01*
X331723Y181387D01*
X333769Y183432D01*
X333804Y183479D01*
X333846Y183519D01*
X333889Y183592D01*
X333939Y183659D01*
X333960Y183714D01*
X333990Y183764D01*
X334011Y183846D01*
X334041Y183925D01*
X334046Y183983D01*
X334060Y184040D01*
X334057Y184124D01*
X334064Y184208D01*
X334053Y184266D01*
X334051Y184324D01*
X334025Y184404D01*
X334008Y184487D01*
X333981Y184539D01*
X333963Y184595D01*
X333923Y184651D01*
X333877Y184739D01*
X333809Y184812D01*
X333769Y184868D01*
X331723Y186913D01*
X331723Y190912D01*
X334551Y193739D01*
X337058Y193739D01*
X337116Y193747D01*
X337174Y193746D01*
X337256Y193767D01*
X337340Y193779D01*
X337393Y193803D01*
X337449Y193818D01*
X337522Y193861D01*
X337599Y193895D01*
X337644Y193933D01*
X337694Y193963D01*
X337752Y194025D01*
X337816Y194079D01*
X337848Y194128D01*
X337888Y194170D01*
X337927Y194245D01*
X337974Y194316D01*
X337991Y194371D01*
X338018Y194423D01*
X338029Y194491D01*
X338059Y194587D01*
X338062Y194686D01*
X338073Y194754D01*
X338073Y195771D01*
X338065Y195828D01*
X338067Y195887D01*
X338045Y195968D01*
X338033Y196052D01*
X338010Y196105D01*
X337995Y196162D01*
X337952Y196234D01*
X337917Y196311D01*
X337879Y196356D01*
X337850Y196406D01*
X337788Y196464D01*
X337734Y196528D01*
X337685Y196561D01*
X337642Y196601D01*
X337567Y196639D01*
X337497Y196686D01*
X337441Y196704D01*
X337389Y196730D01*
X337321Y196742D01*
X337226Y196772D01*
X337126Y196774D01*
X337058Y196786D01*
X334551Y196786D01*
X331723Y199613D01*
X331723Y203612D01*
X334551Y206439D01*
X338549Y206439D01*
X341377Y203612D01*
X341377Y201104D01*
X341384Y201054D01*
X341383Y201033D01*
X341384Y201029D01*
X341383Y200988D01*
X341405Y200907D01*
X341417Y200823D01*
X341440Y200770D01*
X341455Y200713D01*
X341498Y200641D01*
X341533Y200564D01*
X341571Y200519D01*
X341600Y200469D01*
X341662Y200411D01*
X341716Y200347D01*
X341765Y200314D01*
X341808Y200274D01*
X341883Y200236D01*
X341953Y200189D01*
X342009Y200171D01*
X342061Y200145D01*
X342129Y200133D01*
X342224Y200103D01*
X342324Y200101D01*
X342392Y200089D01*
X344899Y200089D01*
X347727Y197262D01*
X347727Y193263D01*
X344899Y190436D01*
X342392Y190436D01*
X342334Y190428D01*
X342276Y190429D01*
X342194Y190408D01*
X342110Y190396D01*
X342057Y190372D01*
X342001Y190357D01*
X341928Y190314D01*
X341851Y190280D01*
X341806Y190242D01*
X341756Y190212D01*
X341698Y190150D01*
X341634Y190096D01*
X341602Y190047D01*
X341562Y190005D01*
X341523Y189930D01*
X341476Y189859D01*
X341459Y189804D01*
X341432Y189752D01*
X341421Y189684D01*
X341391Y189588D01*
X341388Y189489D01*
X341377Y189421D01*
X341377Y186913D01*
X339331Y184868D01*
X339296Y184821D01*
X339254Y184781D01*
X339211Y184708D01*
X339161Y184641D01*
X339140Y184586D01*
X339110Y184536D01*
X339089Y184454D01*
X339059Y184375D01*
X339054Y184317D01*
X339040Y184260D01*
X339043Y184176D01*
X339036Y184092D01*
X339047Y184034D01*
X339049Y183976D01*
X339075Y183896D01*
X339092Y183813D01*
X339119Y183761D01*
X339137Y183705D01*
X339177Y183649D01*
X339223Y183561D01*
X339291Y183488D01*
X339331Y183432D01*
X341377Y181387D01*
X341377Y177388D01*
X338549Y174561D01*
X334551Y174561D01*
G37*
%LPD*%
%LPC*%
G36*
X188732Y80009D02*
X188732Y80009D01*
X185464Y81363D01*
X182963Y83864D01*
X181609Y87132D01*
X181609Y90668D01*
X182963Y93936D01*
X185464Y96437D01*
X188732Y97791D01*
X192268Y97791D01*
X195536Y96437D01*
X198037Y93936D01*
X199391Y90668D01*
X199391Y87132D01*
X198037Y83864D01*
X195536Y81363D01*
X192268Y80009D01*
X188732Y80009D01*
G37*
%LPD*%
%LPC*%
G36*
X188732Y232409D02*
X188732Y232409D01*
X185464Y233763D01*
X182963Y236264D01*
X181609Y239532D01*
X181609Y243068D01*
X182963Y246336D01*
X185464Y248837D01*
X188732Y250191D01*
X192268Y250191D01*
X195536Y248837D01*
X198037Y246336D01*
X199391Y243068D01*
X199391Y239532D01*
X198037Y236264D01*
X195536Y233763D01*
X192268Y232409D01*
X188732Y232409D01*
G37*
%LPD*%
%LPC*%
G36*
X214132Y207009D02*
X214132Y207009D01*
X210864Y208363D01*
X208363Y210864D01*
X207009Y214132D01*
X207009Y217668D01*
X208363Y220936D01*
X210864Y223437D01*
X214132Y224791D01*
X217668Y224791D01*
X220936Y223437D01*
X223437Y220936D01*
X224791Y217668D01*
X224791Y214132D01*
X223437Y210864D01*
X220936Y208363D01*
X217668Y207009D01*
X214132Y207009D01*
G37*
%LPD*%
%LPC*%
G36*
X369707Y29209D02*
X369707Y29209D01*
X366439Y30563D01*
X363938Y33064D01*
X362584Y36332D01*
X362584Y39868D01*
X363938Y43136D01*
X366439Y45637D01*
X369707Y46991D01*
X373243Y46991D01*
X376511Y45637D01*
X379012Y43136D01*
X380366Y39868D01*
X380366Y36332D01*
X379012Y33064D01*
X376511Y30563D01*
X373243Y29209D01*
X369707Y29209D01*
G37*
%LPD*%
%LPC*%
G36*
X188732Y207009D02*
X188732Y207009D01*
X185464Y208363D01*
X182963Y210864D01*
X181609Y214132D01*
X181609Y217668D01*
X182963Y220936D01*
X185464Y223437D01*
X188732Y224791D01*
X192268Y224791D01*
X195536Y223437D01*
X198037Y220936D01*
X199391Y217668D01*
X199391Y214132D01*
X198037Y210864D01*
X195536Y208363D01*
X192268Y207009D01*
X188732Y207009D01*
G37*
%LPD*%
%LPC*%
G36*
X214132Y181609D02*
X214132Y181609D01*
X210864Y182963D01*
X208363Y185464D01*
X207009Y188732D01*
X207009Y192268D01*
X208363Y195536D01*
X210864Y198037D01*
X214132Y199391D01*
X217668Y199391D01*
X220936Y198037D01*
X223437Y195536D01*
X224791Y192268D01*
X224791Y188732D01*
X223437Y185464D01*
X220936Y182963D01*
X217668Y181609D01*
X214132Y181609D01*
G37*
%LPD*%
%LPC*%
G36*
X188732Y181609D02*
X188732Y181609D01*
X185464Y182963D01*
X182963Y185464D01*
X181609Y188732D01*
X181609Y192268D01*
X182963Y195536D01*
X185464Y198037D01*
X188732Y199391D01*
X192268Y199391D01*
X195536Y198037D01*
X198037Y195536D01*
X199391Y192268D01*
X199391Y188732D01*
X198037Y185464D01*
X195536Y182963D01*
X192268Y181609D01*
X188732Y181609D01*
G37*
%LPD*%
%LPC*%
G36*
X214132Y156209D02*
X214132Y156209D01*
X210864Y157563D01*
X208363Y160064D01*
X207009Y163332D01*
X207009Y166868D01*
X208363Y170136D01*
X210864Y172637D01*
X214132Y173991D01*
X217668Y173991D01*
X220936Y172637D01*
X223437Y170136D01*
X224791Y166868D01*
X224791Y163332D01*
X223437Y160064D01*
X220936Y157563D01*
X217668Y156209D01*
X214132Y156209D01*
G37*
%LPD*%
%LPC*%
G36*
X188732Y156209D02*
X188732Y156209D01*
X185464Y157563D01*
X182963Y160064D01*
X181609Y163332D01*
X181609Y166868D01*
X182963Y170136D01*
X185464Y172637D01*
X188732Y173991D01*
X192268Y173991D01*
X195536Y172637D01*
X198037Y170136D01*
X199391Y166868D01*
X199391Y163332D01*
X198037Y160064D01*
X195536Y157563D01*
X192268Y156209D01*
X188732Y156209D01*
G37*
%LPD*%
%LPC*%
G36*
X214132Y130809D02*
X214132Y130809D01*
X210864Y132163D01*
X208363Y134664D01*
X207009Y137932D01*
X207009Y141468D01*
X208363Y144736D01*
X210864Y147237D01*
X214132Y148591D01*
X217668Y148591D01*
X220936Y147237D01*
X223437Y144736D01*
X224791Y141468D01*
X224791Y137932D01*
X223437Y134664D01*
X220936Y132163D01*
X217668Y130809D01*
X214132Y130809D01*
G37*
%LPD*%
%LPC*%
G36*
X188732Y130809D02*
X188732Y130809D01*
X185464Y132163D01*
X182963Y134664D01*
X181609Y137932D01*
X181609Y141468D01*
X182963Y144736D01*
X185464Y147237D01*
X188732Y148591D01*
X192268Y148591D01*
X195536Y147237D01*
X198037Y144736D01*
X199391Y141468D01*
X199391Y137932D01*
X198037Y134664D01*
X195536Y132163D01*
X192268Y130809D01*
X188732Y130809D01*
G37*
%LPD*%
%LPC*%
G36*
X420507Y29209D02*
X420507Y29209D01*
X417239Y30563D01*
X414738Y33064D01*
X413384Y36332D01*
X413384Y39868D01*
X414738Y43136D01*
X417239Y45637D01*
X420507Y46991D01*
X424043Y46991D01*
X427311Y45637D01*
X429812Y43136D01*
X431166Y39868D01*
X431166Y36332D01*
X429812Y33064D01*
X427311Y30563D01*
X424043Y29209D01*
X420507Y29209D01*
G37*
%LPD*%
%LPC*%
G36*
X214132Y105409D02*
X214132Y105409D01*
X210864Y106763D01*
X208363Y109264D01*
X207009Y112532D01*
X207009Y116068D01*
X208363Y119336D01*
X210864Y121837D01*
X214132Y123191D01*
X217668Y123191D01*
X220936Y121837D01*
X223437Y119336D01*
X224791Y116068D01*
X224791Y112532D01*
X223437Y109264D01*
X220936Y106763D01*
X217668Y105409D01*
X214132Y105409D01*
G37*
%LPD*%
%LPC*%
G36*
X188732Y105409D02*
X188732Y105409D01*
X185464Y106763D01*
X182963Y109264D01*
X181609Y112532D01*
X181609Y116068D01*
X182963Y119336D01*
X185464Y121837D01*
X188732Y123191D01*
X192268Y123191D01*
X195536Y121837D01*
X198037Y119336D01*
X199391Y116068D01*
X199391Y112532D01*
X198037Y109264D01*
X195536Y106763D01*
X192268Y105409D01*
X188732Y105409D01*
G37*
%LPD*%
%LPC*%
G36*
X214132Y80009D02*
X214132Y80009D01*
X210864Y81363D01*
X208363Y83864D01*
X207009Y87132D01*
X207009Y90668D01*
X208363Y93936D01*
X210864Y96437D01*
X214132Y97791D01*
X217668Y97791D01*
X220936Y96437D01*
X223437Y93936D01*
X224791Y90668D01*
X224791Y87132D01*
X223437Y83864D01*
X220936Y81363D01*
X217668Y80009D01*
X214132Y80009D01*
G37*
%LPD*%
%LPC*%
G36*
X64676Y244411D02*
X64676Y244411D01*
X61848Y247238D01*
X61848Y247834D01*
X61844Y247863D01*
X61847Y247892D01*
X61824Y248003D01*
X61808Y248115D01*
X61796Y248142D01*
X61791Y248171D01*
X61738Y248271D01*
X61692Y248375D01*
X61673Y248397D01*
X61660Y248423D01*
X61582Y248505D01*
X61509Y248592D01*
X61484Y248608D01*
X61464Y248629D01*
X61366Y248686D01*
X61272Y248749D01*
X61244Y248758D01*
X61219Y248773D01*
X61109Y248801D01*
X61001Y248835D01*
X60971Y248836D01*
X60943Y248843D01*
X60830Y248839D01*
X60717Y248842D01*
X60688Y248835D01*
X60659Y248834D01*
X60551Y248799D01*
X60442Y248770D01*
X60416Y248756D01*
X60388Y248746D01*
X60325Y248701D01*
X60197Y248625D01*
X60154Y248580D01*
X60115Y248552D01*
X57562Y245998D01*
X53563Y245998D01*
X50736Y248826D01*
X50736Y252921D01*
X50728Y252978D01*
X50729Y253037D01*
X50708Y253118D01*
X50696Y253202D01*
X50672Y253255D01*
X50657Y253312D01*
X50614Y253384D01*
X50580Y253461D01*
X50542Y253506D01*
X50512Y253556D01*
X50450Y253614D01*
X50396Y253678D01*
X50347Y253711D01*
X50305Y253751D01*
X50230Y253789D01*
X50159Y253836D01*
X50104Y253854D01*
X50052Y253880D01*
X49984Y253892D01*
X49888Y253922D01*
X49789Y253924D01*
X49721Y253936D01*
X47213Y253936D01*
X44386Y256763D01*
X44386Y260762D01*
X47213Y263589D01*
X51212Y263589D01*
X54039Y260762D01*
X54039Y256667D01*
X54047Y256609D01*
X54046Y256551D01*
X54067Y256469D01*
X54079Y256385D01*
X54103Y256332D01*
X54118Y256276D01*
X54161Y256203D01*
X54195Y256126D01*
X54233Y256081D01*
X54263Y256031D01*
X54325Y255973D01*
X54379Y255909D01*
X54428Y255877D01*
X54470Y255837D01*
X54545Y255798D01*
X54616Y255751D01*
X54671Y255734D01*
X54723Y255707D01*
X54791Y255696D01*
X54887Y255666D01*
X54986Y255663D01*
X55054Y255652D01*
X57562Y255652D01*
X60389Y252824D01*
X60389Y252229D01*
X60393Y252200D01*
X60391Y252170D01*
X60413Y252059D01*
X60429Y251947D01*
X60441Y251921D01*
X60447Y251892D01*
X60499Y251791D01*
X60545Y251688D01*
X60564Y251665D01*
X60578Y251639D01*
X60656Y251557D01*
X60729Y251471D01*
X60753Y251455D01*
X60774Y251433D01*
X60871Y251376D01*
X60966Y251313D01*
X60994Y251304D01*
X61019Y251290D01*
X61128Y251262D01*
X61237Y251227D01*
X61266Y251227D01*
X61294Y251220D01*
X61407Y251223D01*
X61521Y251220D01*
X61549Y251228D01*
X61579Y251229D01*
X61686Y251263D01*
X61796Y251292D01*
X61821Y251307D01*
X61849Y251316D01*
X61913Y251362D01*
X62040Y251437D01*
X62083Y251483D01*
X62122Y251511D01*
X64676Y254064D01*
X68674Y254064D01*
X71502Y251237D01*
X71502Y247238D01*
X68674Y244411D01*
X64676Y244411D01*
G37*
%LPD*%
%LPC*%
G36*
X245651Y317436D02*
X245651Y317436D01*
X242823Y320263D01*
X242823Y324262D01*
X245651Y327089D01*
X249649Y327089D01*
X251695Y325044D01*
X251741Y325009D01*
X251782Y324966D01*
X251854Y324924D01*
X251922Y324873D01*
X251976Y324852D01*
X252027Y324823D01*
X252109Y324802D01*
X252187Y324772D01*
X252246Y324767D01*
X252302Y324753D01*
X252387Y324755D01*
X252471Y324748D01*
X252528Y324760D01*
X252587Y324762D01*
X252667Y324788D01*
X252749Y324804D01*
X252801Y324831D01*
X252857Y324849D01*
X252913Y324889D01*
X253002Y324935D01*
X253074Y325004D01*
X253130Y325044D01*
X255176Y327089D01*
X259174Y327089D01*
X261220Y325044D01*
X261266Y325009D01*
X261307Y324966D01*
X261379Y324924D01*
X261447Y324873D01*
X261501Y324852D01*
X261552Y324823D01*
X261634Y324802D01*
X261712Y324772D01*
X261771Y324767D01*
X261827Y324753D01*
X261912Y324755D01*
X261996Y324748D01*
X262053Y324760D01*
X262112Y324762D01*
X262192Y324788D01*
X262274Y324804D01*
X262326Y324831D01*
X262382Y324849D01*
X262438Y324889D01*
X262527Y324935D01*
X262599Y325004D01*
X262655Y325044D01*
X264701Y327089D01*
X268699Y327089D01*
X271527Y324262D01*
X271527Y320263D01*
X268699Y317436D01*
X264701Y317436D01*
X262655Y319481D01*
X262609Y319516D01*
X262568Y319559D01*
X262496Y319601D01*
X262428Y319652D01*
X262374Y319673D01*
X262323Y319702D01*
X262241Y319723D01*
X262163Y319753D01*
X262104Y319758D01*
X262048Y319772D01*
X261963Y319770D01*
X261879Y319777D01*
X261822Y319765D01*
X261763Y319763D01*
X261683Y319737D01*
X261600Y319721D01*
X261549Y319694D01*
X261493Y319676D01*
X261437Y319636D01*
X261348Y319590D01*
X261276Y319521D01*
X261220Y319481D01*
X259174Y317436D01*
X255176Y317436D01*
X253130Y319481D01*
X253084Y319516D01*
X253043Y319559D01*
X252971Y319601D01*
X252903Y319652D01*
X252849Y319673D01*
X252798Y319702D01*
X252716Y319723D01*
X252638Y319753D01*
X252579Y319758D01*
X252523Y319772D01*
X252438Y319770D01*
X252354Y319777D01*
X252297Y319765D01*
X252238Y319763D01*
X252158Y319737D01*
X252075Y319721D01*
X252024Y319694D01*
X251968Y319676D01*
X251912Y319636D01*
X251823Y319590D01*
X251751Y319521D01*
X251695Y319481D01*
X249649Y317436D01*
X245651Y317436D01*
G37*
%LPD*%
%LPC*%
G36*
X40863Y301561D02*
X40863Y301561D01*
X38036Y304388D01*
X38036Y308387D01*
X40863Y311214D01*
X44862Y311214D01*
X46907Y309169D01*
X46954Y309134D01*
X46994Y309091D01*
X47067Y309049D01*
X47134Y308998D01*
X47189Y308977D01*
X47239Y308948D01*
X47321Y308927D01*
X47400Y308897D01*
X47458Y308892D01*
X47515Y308878D01*
X47599Y308880D01*
X47683Y308873D01*
X47741Y308885D01*
X47799Y308887D01*
X47879Y308913D01*
X47962Y308929D01*
X48014Y308956D01*
X48070Y308974D01*
X48126Y309014D01*
X48214Y309060D01*
X48287Y309129D01*
X48343Y309169D01*
X50388Y311214D01*
X54387Y311214D01*
X56432Y309169D01*
X56479Y309134D01*
X56519Y309091D01*
X56592Y309049D01*
X56659Y308998D01*
X56714Y308977D01*
X56764Y308948D01*
X56846Y308927D01*
X56925Y308897D01*
X56983Y308892D01*
X57040Y308878D01*
X57124Y308880D01*
X57208Y308873D01*
X57266Y308885D01*
X57324Y308887D01*
X57404Y308913D01*
X57487Y308929D01*
X57539Y308956D01*
X57595Y308974D01*
X57651Y309014D01*
X57739Y309060D01*
X57812Y309129D01*
X57868Y309169D01*
X59913Y311214D01*
X63912Y311214D01*
X66739Y308387D01*
X66739Y304388D01*
X63912Y301561D01*
X59913Y301561D01*
X57868Y303606D01*
X57821Y303641D01*
X57781Y303684D01*
X57708Y303726D01*
X57641Y303777D01*
X57586Y303798D01*
X57536Y303827D01*
X57454Y303848D01*
X57375Y303878D01*
X57317Y303883D01*
X57260Y303897D01*
X57176Y303895D01*
X57092Y303902D01*
X57034Y303890D01*
X56976Y303888D01*
X56896Y303862D01*
X56813Y303846D01*
X56761Y303819D01*
X56705Y303801D01*
X56649Y303761D01*
X56561Y303715D01*
X56488Y303646D01*
X56432Y303606D01*
X54387Y301561D01*
X50388Y301561D01*
X48343Y303606D01*
X48296Y303641D01*
X48256Y303684D01*
X48183Y303726D01*
X48116Y303777D01*
X48061Y303798D01*
X48011Y303827D01*
X47929Y303848D01*
X47850Y303878D01*
X47792Y303883D01*
X47735Y303897D01*
X47651Y303895D01*
X47567Y303902D01*
X47509Y303890D01*
X47451Y303888D01*
X47371Y303862D01*
X47288Y303846D01*
X47236Y303819D01*
X47180Y303801D01*
X47124Y303761D01*
X47036Y303715D01*
X46963Y303646D01*
X46907Y303606D01*
X44862Y301561D01*
X40863Y301561D01*
G37*
%LPD*%
%LPC*%
G36*
X96426Y204723D02*
X96426Y204723D01*
X93598Y207551D01*
X93598Y210058D01*
X93590Y210116D01*
X93592Y210174D01*
X93570Y210256D01*
X93558Y210340D01*
X93535Y210393D01*
X93520Y210449D01*
X93477Y210522D01*
X93442Y210599D01*
X93404Y210644D01*
X93375Y210694D01*
X93313Y210752D01*
X93259Y210816D01*
X93210Y210848D01*
X93167Y210888D01*
X93092Y210927D01*
X93022Y210974D01*
X92966Y210991D01*
X92914Y211018D01*
X92846Y211029D01*
X92751Y211059D01*
X92651Y211062D01*
X92583Y211073D01*
X90076Y211073D01*
X87248Y213901D01*
X87248Y214821D01*
X87240Y214878D01*
X87242Y214937D01*
X87220Y215018D01*
X87208Y215102D01*
X87185Y215155D01*
X87170Y215212D01*
X87127Y215284D01*
X87092Y215361D01*
X87054Y215406D01*
X87025Y215456D01*
X86963Y215514D01*
X86909Y215578D01*
X86860Y215611D01*
X86817Y215651D01*
X86742Y215689D01*
X86672Y215736D01*
X86616Y215754D01*
X86564Y215780D01*
X86496Y215792D01*
X86401Y215822D01*
X86301Y215824D01*
X86233Y215836D01*
X82138Y215836D01*
X79311Y218663D01*
X79311Y222662D01*
X82138Y225489D01*
X86137Y225489D01*
X88964Y222662D01*
X88964Y221742D01*
X88972Y221684D01*
X88971Y221626D01*
X88992Y221544D01*
X89004Y221460D01*
X89028Y221407D01*
X89043Y221351D01*
X89086Y221278D01*
X89120Y221201D01*
X89158Y221156D01*
X89188Y221106D01*
X89250Y221048D01*
X89304Y220984D01*
X89353Y220952D01*
X89395Y220912D01*
X89470Y220873D01*
X89541Y220826D01*
X89596Y220809D01*
X89648Y220782D01*
X89716Y220771D01*
X89812Y220741D01*
X89911Y220738D01*
X89979Y220727D01*
X94074Y220727D01*
X96902Y217899D01*
X96902Y215392D01*
X96910Y215334D01*
X96908Y215276D01*
X96930Y215194D01*
X96942Y215110D01*
X96965Y215057D01*
X96980Y215001D01*
X97023Y214928D01*
X97058Y214851D01*
X97096Y214806D01*
X97125Y214756D01*
X97187Y214698D01*
X97241Y214634D01*
X97290Y214602D01*
X97333Y214562D01*
X97408Y214523D01*
X97478Y214476D01*
X97534Y214459D01*
X97586Y214432D01*
X97654Y214421D01*
X97749Y214391D01*
X97849Y214388D01*
X97917Y214377D01*
X100424Y214377D01*
X103252Y211549D01*
X103252Y207551D01*
X100424Y204723D01*
X96426Y204723D01*
G37*
%LPD*%
%LPC*%
G36*
X294863Y247586D02*
X294863Y247586D01*
X292036Y250413D01*
X292036Y254508D01*
X292028Y254566D01*
X292029Y254624D01*
X292008Y254706D01*
X291996Y254790D01*
X291972Y254843D01*
X291957Y254899D01*
X291914Y254972D01*
X291880Y255049D01*
X291842Y255094D01*
X291812Y255144D01*
X291750Y255202D01*
X291696Y255266D01*
X291647Y255298D01*
X291605Y255338D01*
X291530Y255377D01*
X291459Y255424D01*
X291404Y255441D01*
X291352Y255468D01*
X291284Y255479D01*
X291188Y255509D01*
X291089Y255512D01*
X291021Y255523D01*
X286926Y255523D01*
X284098Y258351D01*
X284098Y262349D01*
X286926Y265177D01*
X290924Y265177D01*
X293752Y262349D01*
X293752Y258254D01*
X293760Y258197D01*
X293758Y258138D01*
X293780Y258057D01*
X293792Y257973D01*
X293815Y257920D01*
X293830Y257863D01*
X293873Y257791D01*
X293908Y257714D01*
X293946Y257669D01*
X293975Y257619D01*
X294037Y257561D01*
X294091Y257497D01*
X294140Y257464D01*
X294183Y257424D01*
X294258Y257386D01*
X294328Y257339D01*
X294384Y257321D01*
X294436Y257295D01*
X294504Y257283D01*
X294599Y257253D01*
X294699Y257251D01*
X294767Y257239D01*
X298862Y257239D01*
X301689Y254412D01*
X301689Y250413D01*
X298862Y247586D01*
X294863Y247586D01*
G37*
%LPD*%
%LPC*%
G36*
X320263Y6286D02*
X320263Y6286D01*
X317436Y9113D01*
X317436Y13112D01*
X320263Y15939D01*
X324262Y15939D01*
X327101Y13100D01*
X327148Y13065D01*
X327188Y13023D01*
X327261Y12980D01*
X327328Y12929D01*
X327383Y12908D01*
X327433Y12879D01*
X327515Y12858D01*
X327594Y12828D01*
X327652Y12823D01*
X327709Y12809D01*
X327793Y12811D01*
X327877Y12804D01*
X327934Y12816D01*
X327993Y12818D01*
X328073Y12844D01*
X328156Y12860D01*
X328208Y12887D01*
X328263Y12905D01*
X328320Y12945D01*
X328408Y12991D01*
X328480Y13060D01*
X328537Y13100D01*
X331376Y15939D01*
X335374Y15939D01*
X338202Y13112D01*
X338202Y9113D01*
X335374Y6286D01*
X331376Y6286D01*
X328537Y9125D01*
X328490Y9160D01*
X328450Y9202D01*
X328377Y9245D01*
X328309Y9296D01*
X328255Y9317D01*
X328204Y9346D01*
X328123Y9367D01*
X328044Y9397D01*
X327985Y9402D01*
X327929Y9416D01*
X327845Y9414D01*
X327761Y9421D01*
X327703Y9409D01*
X327645Y9407D01*
X327564Y9381D01*
X327482Y9365D01*
X327430Y9338D01*
X327374Y9320D01*
X327318Y9280D01*
X327229Y9234D01*
X327157Y9165D01*
X327101Y9125D01*
X324262Y6286D01*
X320263Y6286D01*
G37*
%LPD*%
%LPC*%
G36*
X209138Y60261D02*
X209138Y60261D01*
X206311Y63088D01*
X206311Y67087D01*
X209138Y69914D01*
X213137Y69914D01*
X214103Y68948D01*
X214126Y68931D01*
X214145Y68908D01*
X214239Y68846D01*
X214330Y68777D01*
X214357Y68767D01*
X214382Y68751D01*
X214490Y68717D01*
X214595Y68676D01*
X214625Y68674D01*
X214653Y68665D01*
X214766Y68662D01*
X214879Y68653D01*
X214907Y68658D01*
X214937Y68658D01*
X215046Y68686D01*
X215158Y68709D01*
X215184Y68722D01*
X215212Y68730D01*
X215309Y68787D01*
X215410Y68840D01*
X215431Y68860D01*
X215456Y68875D01*
X215534Y68957D01*
X215616Y69035D01*
X215631Y69061D01*
X215651Y69082D01*
X215702Y69183D01*
X215760Y69281D01*
X215767Y69309D01*
X215780Y69335D01*
X215793Y69413D01*
X215830Y69556D01*
X215828Y69619D01*
X215836Y69666D01*
X215836Y71849D01*
X218663Y74677D01*
X222662Y74677D01*
X225489Y71849D01*
X225489Y67851D01*
X222662Y65023D01*
X218663Y65023D01*
X217697Y65989D01*
X217674Y66007D01*
X217655Y66029D01*
X217561Y66092D01*
X217470Y66160D01*
X217443Y66170D01*
X217418Y66187D01*
X217310Y66221D01*
X217205Y66261D01*
X217175Y66264D01*
X217147Y66273D01*
X217034Y66275D01*
X216921Y66285D01*
X216893Y66279D01*
X216863Y66280D01*
X216754Y66251D01*
X216642Y66229D01*
X216616Y66215D01*
X216588Y66208D01*
X216491Y66150D01*
X216390Y66098D01*
X216369Y66078D01*
X216344Y66063D01*
X216266Y65980D01*
X216184Y65902D01*
X216169Y65877D01*
X216149Y65855D01*
X216098Y65755D01*
X216040Y65657D01*
X216033Y65628D01*
X216020Y65602D01*
X216007Y65525D01*
X215970Y65381D01*
X215972Y65319D01*
X215964Y65271D01*
X215964Y63088D01*
X213137Y60261D01*
X209138Y60261D01*
G37*
%LPD*%
%LPC*%
G36*
X310738Y69786D02*
X310738Y69786D01*
X307911Y72613D01*
X307911Y73209D01*
X307907Y73238D01*
X307909Y73267D01*
X307887Y73378D01*
X307871Y73490D01*
X307859Y73517D01*
X307853Y73546D01*
X307801Y73646D01*
X307755Y73750D01*
X307736Y73772D01*
X307722Y73798D01*
X307644Y73880D01*
X307571Y73967D01*
X307547Y73983D01*
X307526Y74004D01*
X307429Y74061D01*
X307334Y74124D01*
X307306Y74133D01*
X307281Y74148D01*
X307172Y74176D01*
X307063Y74210D01*
X307034Y74211D01*
X307006Y74218D01*
X306893Y74214D01*
X306779Y74217D01*
X306751Y74210D01*
X306721Y74209D01*
X306613Y74174D01*
X306504Y74145D01*
X306479Y74131D01*
X306451Y74121D01*
X306387Y74076D01*
X306260Y74000D01*
X306217Y73955D01*
X306178Y73927D01*
X305212Y72961D01*
X301213Y72961D01*
X298386Y75788D01*
X298386Y79787D01*
X301213Y82614D01*
X305212Y82614D01*
X308039Y79787D01*
X308039Y79191D01*
X308043Y79162D01*
X308041Y79133D01*
X308063Y79022D01*
X308079Y78910D01*
X308091Y78883D01*
X308097Y78854D01*
X308149Y78754D01*
X308195Y78650D01*
X308214Y78628D01*
X308228Y78602D01*
X308306Y78520D01*
X308379Y78433D01*
X308403Y78417D01*
X308424Y78396D01*
X308521Y78339D01*
X308616Y78276D01*
X308644Y78267D01*
X308669Y78252D01*
X308778Y78224D01*
X308887Y78190D01*
X308916Y78189D01*
X308944Y78182D01*
X309057Y78186D01*
X309171Y78183D01*
X309199Y78190D01*
X309229Y78191D01*
X309337Y78226D01*
X309446Y78255D01*
X309471Y78269D01*
X309499Y78279D01*
X309563Y78324D01*
X309690Y78400D01*
X309733Y78445D01*
X309772Y78473D01*
X310738Y79439D01*
X314737Y79439D01*
X317564Y76612D01*
X317564Y72613D01*
X314737Y69786D01*
X310738Y69786D01*
G37*
%LPD*%
%LPC*%
G36*
X101188Y93598D02*
X101188Y93598D01*
X98361Y96426D01*
X98361Y100424D01*
X101188Y103252D01*
X105187Y103252D01*
X106153Y102286D01*
X106176Y102268D01*
X106195Y102246D01*
X106289Y102183D01*
X106380Y102115D01*
X106407Y102105D01*
X106432Y102088D01*
X106540Y102054D01*
X106645Y102014D01*
X106675Y102011D01*
X106703Y102002D01*
X106816Y102000D01*
X106929Y101990D01*
X106957Y101996D01*
X106987Y101995D01*
X107096Y102024D01*
X107208Y102046D01*
X107234Y102060D01*
X107262Y102067D01*
X107359Y102125D01*
X107460Y102177D01*
X107481Y102197D01*
X107506Y102212D01*
X107584Y102295D01*
X107666Y102373D01*
X107681Y102398D01*
X107701Y102420D01*
X107752Y102520D01*
X107810Y102618D01*
X107817Y102647D01*
X107830Y102673D01*
X107843Y102750D01*
X107880Y102894D01*
X107878Y102956D01*
X107886Y103004D01*
X107886Y103599D01*
X110713Y106427D01*
X114712Y106427D01*
X117539Y103599D01*
X117539Y99601D01*
X114712Y96773D01*
X110713Y96773D01*
X109747Y97739D01*
X109724Y97757D01*
X109705Y97779D01*
X109611Y97842D01*
X109520Y97910D01*
X109493Y97920D01*
X109468Y97937D01*
X109360Y97971D01*
X109255Y98011D01*
X109225Y98014D01*
X109197Y98023D01*
X109084Y98025D01*
X108971Y98035D01*
X108943Y98029D01*
X108913Y98030D01*
X108804Y98001D01*
X108692Y97979D01*
X108666Y97965D01*
X108638Y97958D01*
X108541Y97900D01*
X108440Y97848D01*
X108419Y97828D01*
X108394Y97813D01*
X108316Y97730D01*
X108234Y97652D01*
X108219Y97627D01*
X108199Y97605D01*
X108148Y97505D01*
X108090Y97407D01*
X108083Y97378D01*
X108070Y97352D01*
X108057Y97275D01*
X108020Y97131D01*
X108022Y97069D01*
X108014Y97021D01*
X108014Y96426D01*
X105187Y93598D01*
X101188Y93598D01*
G37*
%LPD*%
%LPC*%
G36*
X125001Y304736D02*
X125001Y304736D01*
X122173Y307563D01*
X122173Y311562D01*
X125001Y314389D01*
X128999Y314389D01*
X129965Y313423D01*
X129989Y313406D01*
X130008Y313383D01*
X130102Y313321D01*
X130192Y313252D01*
X130220Y313242D01*
X130244Y313226D01*
X130352Y313192D01*
X130458Y313151D01*
X130487Y313149D01*
X130515Y313140D01*
X130629Y313137D01*
X130741Y313128D01*
X130770Y313133D01*
X130799Y313133D01*
X130909Y313161D01*
X131020Y313184D01*
X131046Y313197D01*
X131074Y313205D01*
X131172Y313262D01*
X131272Y313315D01*
X131294Y313335D01*
X131319Y313350D01*
X131396Y313432D01*
X131478Y313510D01*
X131493Y313536D01*
X131513Y313557D01*
X131565Y313658D01*
X131622Y313756D01*
X131629Y313784D01*
X131643Y313810D01*
X131656Y313888D01*
X131692Y314031D01*
X131690Y314094D01*
X131698Y314141D01*
X131698Y314737D01*
X134526Y317564D01*
X138524Y317564D01*
X141352Y314737D01*
X141352Y310738D01*
X138524Y307911D01*
X134526Y307911D01*
X133560Y308877D01*
X133536Y308894D01*
X133517Y308917D01*
X133423Y308979D01*
X133333Y309048D01*
X133305Y309058D01*
X133281Y309074D01*
X133173Y309108D01*
X133067Y309149D01*
X133038Y309151D01*
X133010Y309160D01*
X132896Y309163D01*
X132784Y309172D01*
X132755Y309167D01*
X132726Y309167D01*
X132616Y309139D01*
X132505Y309116D01*
X132479Y309103D01*
X132451Y309095D01*
X132353Y309038D01*
X132253Y308985D01*
X132231Y308965D01*
X132206Y308950D01*
X132129Y308868D01*
X132047Y308790D01*
X132032Y308764D01*
X132012Y308743D01*
X131960Y308642D01*
X131903Y308544D01*
X131896Y308516D01*
X131882Y308490D01*
X131869Y308412D01*
X131833Y308269D01*
X131835Y308206D01*
X131827Y308159D01*
X131827Y307563D01*
X128999Y304736D01*
X125001Y304736D01*
G37*
%LPD*%
%LPC*%
G36*
X275813Y206311D02*
X275813Y206311D01*
X272986Y209138D01*
X272986Y213137D01*
X273952Y214103D01*
X273969Y214126D01*
X273992Y214145D01*
X274054Y214239D01*
X274123Y214330D01*
X274133Y214357D01*
X274149Y214382D01*
X274183Y214490D01*
X274224Y214595D01*
X274226Y214625D01*
X274235Y214653D01*
X274238Y214766D01*
X274247Y214879D01*
X274242Y214907D01*
X274242Y214937D01*
X274214Y215046D01*
X274191Y215158D01*
X274178Y215184D01*
X274170Y215212D01*
X274113Y215309D01*
X274060Y215410D01*
X274040Y215431D01*
X274025Y215456D01*
X273943Y215534D01*
X273865Y215616D01*
X273839Y215631D01*
X273818Y215651D01*
X273717Y215702D01*
X273619Y215760D01*
X273591Y215767D01*
X273565Y215780D01*
X273487Y215793D01*
X273344Y215830D01*
X273281Y215828D01*
X273234Y215836D01*
X272638Y215836D01*
X269811Y218663D01*
X269811Y222662D01*
X272638Y225489D01*
X276637Y225489D01*
X279464Y222662D01*
X279464Y218663D01*
X278498Y217697D01*
X278481Y217674D01*
X278458Y217655D01*
X278396Y217561D01*
X278327Y217470D01*
X278317Y217443D01*
X278301Y217418D01*
X278267Y217310D01*
X278226Y217205D01*
X278224Y217175D01*
X278215Y217147D01*
X278212Y217034D01*
X278203Y216921D01*
X278208Y216893D01*
X278208Y216863D01*
X278236Y216754D01*
X278259Y216642D01*
X278272Y216616D01*
X278280Y216588D01*
X278337Y216491D01*
X278390Y216390D01*
X278410Y216369D01*
X278425Y216344D01*
X278507Y216266D01*
X278585Y216184D01*
X278611Y216169D01*
X278632Y216149D01*
X278733Y216098D01*
X278831Y216040D01*
X278859Y216033D01*
X278885Y216020D01*
X278963Y216007D01*
X279106Y215970D01*
X279169Y215972D01*
X279216Y215964D01*
X279812Y215964D01*
X282639Y213137D01*
X282639Y209138D01*
X279812Y206311D01*
X275813Y206311D01*
G37*
%LPD*%
%LPC*%
G36*
X326613Y71373D02*
X326613Y71373D01*
X323786Y74201D01*
X323786Y78199D01*
X326613Y81027D01*
X330612Y81027D01*
X332657Y78981D01*
X332704Y78946D01*
X332744Y78904D01*
X332817Y78861D01*
X332884Y78811D01*
X332939Y78790D01*
X332989Y78760D01*
X333071Y78739D01*
X333150Y78709D01*
X333208Y78704D01*
X333265Y78690D01*
X333349Y78693D01*
X333433Y78686D01*
X333491Y78697D01*
X333549Y78699D01*
X333629Y78725D01*
X333712Y78742D01*
X333764Y78769D01*
X333820Y78787D01*
X333876Y78827D01*
X333964Y78873D01*
X334037Y78941D01*
X334093Y78981D01*
X336138Y81027D01*
X340137Y81027D01*
X342964Y78199D01*
X342964Y74201D01*
X340137Y71373D01*
X336138Y71373D01*
X334093Y73419D01*
X334046Y73454D01*
X334006Y73496D01*
X333933Y73539D01*
X333866Y73589D01*
X333811Y73610D01*
X333761Y73640D01*
X333679Y73661D01*
X333600Y73691D01*
X333542Y73696D01*
X333485Y73710D01*
X333401Y73707D01*
X333317Y73714D01*
X333259Y73703D01*
X333201Y73701D01*
X333121Y73675D01*
X333038Y73658D01*
X332986Y73631D01*
X332930Y73613D01*
X332874Y73573D01*
X332786Y73527D01*
X332713Y73459D01*
X332657Y73419D01*
X330612Y71373D01*
X326613Y71373D01*
G37*
%LPD*%
%LPC*%
G36*
X240888Y249173D02*
X240888Y249173D01*
X238061Y252001D01*
X238061Y255999D01*
X240888Y258827D01*
X244887Y258827D01*
X246932Y256781D01*
X246979Y256746D01*
X247019Y256704D01*
X247092Y256661D01*
X247159Y256611D01*
X247214Y256590D01*
X247264Y256560D01*
X247346Y256539D01*
X247425Y256509D01*
X247483Y256504D01*
X247540Y256490D01*
X247624Y256493D01*
X247708Y256486D01*
X247766Y256497D01*
X247824Y256499D01*
X247904Y256525D01*
X247987Y256542D01*
X248039Y256569D01*
X248095Y256587D01*
X248151Y256627D01*
X248239Y256673D01*
X248312Y256741D01*
X248368Y256781D01*
X250413Y258827D01*
X254412Y258827D01*
X257239Y255999D01*
X257239Y252001D01*
X254412Y249173D01*
X250413Y249173D01*
X248368Y251219D01*
X248321Y251254D01*
X248281Y251296D01*
X248208Y251339D01*
X248141Y251389D01*
X248086Y251410D01*
X248036Y251440D01*
X247954Y251461D01*
X247875Y251491D01*
X247817Y251496D01*
X247760Y251510D01*
X247676Y251507D01*
X247592Y251514D01*
X247534Y251503D01*
X247476Y251501D01*
X247396Y251475D01*
X247313Y251458D01*
X247261Y251431D01*
X247205Y251413D01*
X247149Y251373D01*
X247061Y251327D01*
X246988Y251259D01*
X246932Y251219D01*
X244887Y249173D01*
X240888Y249173D01*
G37*
%LPD*%
%LPC*%
G36*
X101188Y153923D02*
X101188Y153923D01*
X98361Y156751D01*
X98361Y160749D01*
X101188Y163577D01*
X105187Y163577D01*
X107232Y161531D01*
X107279Y161496D01*
X107319Y161454D01*
X107392Y161411D01*
X107459Y161361D01*
X107514Y161340D01*
X107564Y161310D01*
X107646Y161289D01*
X107725Y161259D01*
X107783Y161254D01*
X107840Y161240D01*
X107924Y161243D01*
X108008Y161236D01*
X108066Y161247D01*
X108124Y161249D01*
X108204Y161275D01*
X108287Y161292D01*
X108339Y161319D01*
X108395Y161337D01*
X108451Y161377D01*
X108539Y161423D01*
X108612Y161491D01*
X108668Y161531D01*
X110713Y163577D01*
X114712Y163577D01*
X117539Y160749D01*
X117539Y156751D01*
X114712Y153923D01*
X110713Y153923D01*
X108668Y155969D01*
X108621Y156004D01*
X108581Y156046D01*
X108508Y156089D01*
X108441Y156139D01*
X108386Y156160D01*
X108336Y156190D01*
X108254Y156211D01*
X108175Y156241D01*
X108117Y156246D01*
X108060Y156260D01*
X107976Y156257D01*
X107892Y156264D01*
X107834Y156253D01*
X107776Y156251D01*
X107696Y156225D01*
X107613Y156208D01*
X107561Y156181D01*
X107505Y156163D01*
X107449Y156123D01*
X107361Y156077D01*
X107288Y156009D01*
X107232Y155969D01*
X105187Y153923D01*
X101188Y153923D01*
G37*
%LPD*%
%LPC*%
G36*
X334551Y131698D02*
X334551Y131698D01*
X331723Y134526D01*
X331723Y138524D01*
X333769Y140570D01*
X333804Y140616D01*
X333846Y140657D01*
X333889Y140729D01*
X333939Y140797D01*
X333960Y140851D01*
X333990Y140902D01*
X334011Y140984D01*
X334041Y141062D01*
X334046Y141121D01*
X334060Y141177D01*
X334057Y141262D01*
X334064Y141346D01*
X334053Y141403D01*
X334051Y141462D01*
X334025Y141542D01*
X334008Y141624D01*
X333981Y141676D01*
X333963Y141732D01*
X333923Y141788D01*
X333877Y141877D01*
X333809Y141949D01*
X333769Y142005D01*
X331723Y144051D01*
X331723Y148049D01*
X334551Y150877D01*
X338549Y150877D01*
X341377Y148049D01*
X341377Y144051D01*
X339331Y142005D01*
X339296Y141959D01*
X339254Y141918D01*
X339211Y141846D01*
X339161Y141778D01*
X339140Y141724D01*
X339110Y141673D01*
X339089Y141591D01*
X339059Y141513D01*
X339054Y141454D01*
X339040Y141398D01*
X339043Y141313D01*
X339036Y141229D01*
X339047Y141172D01*
X339049Y141113D01*
X339075Y141033D01*
X339092Y140950D01*
X339119Y140899D01*
X339137Y140843D01*
X339177Y140787D01*
X339223Y140698D01*
X339284Y140634D01*
X339296Y140614D01*
X339308Y140602D01*
X339331Y140570D01*
X341377Y138524D01*
X341377Y134526D01*
X338549Y131698D01*
X334551Y131698D01*
G37*
%LPD*%
%LPC*%
G36*
X312326Y169798D02*
X312326Y169798D01*
X309498Y172626D01*
X309498Y175133D01*
X309490Y175191D01*
X309492Y175249D01*
X309470Y175331D01*
X309458Y175415D01*
X309435Y175468D01*
X309420Y175524D01*
X309377Y175597D01*
X309342Y175674D01*
X309304Y175719D01*
X309275Y175769D01*
X309213Y175827D01*
X309159Y175891D01*
X309110Y175923D01*
X309067Y175963D01*
X308992Y176002D01*
X308922Y176049D01*
X308866Y176066D01*
X308814Y176093D01*
X308746Y176104D01*
X308651Y176134D01*
X308551Y176137D01*
X308483Y176148D01*
X305976Y176148D01*
X303148Y178976D01*
X303148Y182974D01*
X305976Y185802D01*
X309974Y185802D01*
X312802Y182974D01*
X312802Y180467D01*
X312810Y180409D01*
X312808Y180351D01*
X312830Y180269D01*
X312842Y180185D01*
X312865Y180132D01*
X312880Y180076D01*
X312923Y180003D01*
X312958Y179926D01*
X312996Y179881D01*
X313025Y179831D01*
X313087Y179773D01*
X313141Y179709D01*
X313190Y179677D01*
X313233Y179637D01*
X313308Y179598D01*
X313378Y179551D01*
X313434Y179534D01*
X313486Y179507D01*
X313554Y179496D01*
X313649Y179466D01*
X313749Y179463D01*
X313817Y179452D01*
X316324Y179452D01*
X319152Y176624D01*
X319152Y172626D01*
X316324Y169798D01*
X312326Y169798D01*
G37*
%LPD*%
%LPC*%
G36*
X107538Y212661D02*
X107538Y212661D01*
X104711Y215488D01*
X104711Y219487D01*
X105962Y220738D01*
X105979Y220761D01*
X106001Y220779D01*
X106017Y220804D01*
X106040Y220825D01*
X106083Y220898D01*
X106133Y220966D01*
X106144Y220995D01*
X106158Y221016D01*
X106166Y221041D01*
X106184Y221071D01*
X106204Y221152D01*
X106234Y221231D01*
X106237Y221266D01*
X106244Y221287D01*
X106245Y221310D01*
X106254Y221346D01*
X106251Y221430D01*
X106258Y221515D01*
X106251Y221551D01*
X106251Y221571D01*
X106246Y221591D01*
X106245Y221630D01*
X106219Y221711D01*
X106202Y221793D01*
X106184Y221828D01*
X106179Y221846D01*
X106170Y221862D01*
X106157Y221901D01*
X106117Y221957D01*
X106071Y222046D01*
X106043Y222075D01*
X106034Y222090D01*
X105998Y222124D01*
X105962Y222174D01*
X104711Y223426D01*
X104711Y227424D01*
X107538Y230252D01*
X111537Y230252D01*
X114364Y227424D01*
X114364Y223426D01*
X113113Y222174D01*
X113088Y222142D01*
X113074Y222130D01*
X113065Y222115D01*
X113035Y222087D01*
X112992Y222014D01*
X112942Y221947D01*
X112927Y221909D01*
X112917Y221893D01*
X112911Y221876D01*
X112891Y221842D01*
X112871Y221760D01*
X112841Y221681D01*
X112837Y221642D01*
X112831Y221622D01*
X112831Y221603D01*
X112821Y221566D01*
X112824Y221482D01*
X112817Y221398D01*
X112824Y221361D01*
X112824Y221338D01*
X112829Y221317D01*
X112830Y221282D01*
X112856Y221202D01*
X112873Y221119D01*
X112889Y221088D01*
X112896Y221063D01*
X112908Y221042D01*
X112918Y221012D01*
X112958Y220956D01*
X113004Y220867D01*
X113026Y220844D01*
X113041Y220819D01*
X113085Y220777D01*
X113113Y220738D01*
X114364Y219487D01*
X114364Y215488D01*
X111537Y212661D01*
X107538Y212661D01*
G37*
%LPD*%
%LPC*%
G36*
X23401Y346011D02*
X23401Y346011D01*
X20573Y348838D01*
X20573Y352837D01*
X21031Y353295D01*
X21066Y353341D01*
X21109Y353382D01*
X21151Y353455D01*
X21202Y353522D01*
X21223Y353576D01*
X21252Y353627D01*
X21273Y353709D01*
X21303Y353787D01*
X21308Y353846D01*
X21322Y353902D01*
X21320Y353987D01*
X21327Y354071D01*
X21315Y354128D01*
X21313Y354187D01*
X21287Y354267D01*
X21271Y354350D01*
X21244Y354401D01*
X21226Y354457D01*
X21186Y354513D01*
X21140Y354602D01*
X21071Y354674D01*
X21031Y354730D01*
X20573Y355188D01*
X20573Y359187D01*
X23401Y362014D01*
X27399Y362014D01*
X30227Y359187D01*
X30227Y355188D01*
X29769Y354730D01*
X29734Y354684D01*
X29691Y354643D01*
X29649Y354571D01*
X29598Y354503D01*
X29577Y354449D01*
X29548Y354398D01*
X29527Y354317D01*
X29497Y354238D01*
X29492Y354179D01*
X29478Y354123D01*
X29480Y354038D01*
X29473Y353954D01*
X29485Y353897D01*
X29487Y353838D01*
X29513Y353758D01*
X29529Y353676D01*
X29556Y353624D01*
X29574Y353568D01*
X29614Y353512D01*
X29660Y353423D01*
X29729Y353351D01*
X29769Y353295D01*
X30227Y352837D01*
X30227Y348838D01*
X27399Y346011D01*
X23401Y346011D01*
G37*
%LPD*%
%LPC*%
G36*
X385351Y423798D02*
X385351Y423798D01*
X382523Y426626D01*
X382523Y430624D01*
X385351Y433452D01*
X389349Y433452D01*
X389807Y432994D01*
X389854Y432959D01*
X389894Y432916D01*
X389967Y432874D01*
X390034Y432823D01*
X390089Y432802D01*
X390139Y432773D01*
X390221Y432752D01*
X390300Y432722D01*
X390358Y432717D01*
X390415Y432703D01*
X390499Y432705D01*
X390583Y432698D01*
X390641Y432710D01*
X390699Y432712D01*
X390779Y432738D01*
X390862Y432754D01*
X390914Y432781D01*
X390970Y432799D01*
X391026Y432839D01*
X391114Y432885D01*
X391187Y432954D01*
X391243Y432994D01*
X391701Y433452D01*
X395699Y433452D01*
X398527Y430624D01*
X398527Y426626D01*
X395699Y423798D01*
X391701Y423798D01*
X391243Y424256D01*
X391196Y424291D01*
X391156Y424334D01*
X391083Y424376D01*
X391016Y424427D01*
X390961Y424448D01*
X390911Y424477D01*
X390829Y424498D01*
X390750Y424528D01*
X390692Y424533D01*
X390635Y424547D01*
X390551Y424545D01*
X390467Y424552D01*
X390409Y424540D01*
X390351Y424538D01*
X390271Y424512D01*
X390188Y424496D01*
X390136Y424469D01*
X390080Y424451D01*
X390024Y424411D01*
X389936Y424365D01*
X389863Y424296D01*
X389807Y424256D01*
X389349Y423798D01*
X385351Y423798D01*
G37*
%LPD*%
%LPC*%
G36*
X410751Y407923D02*
X410751Y407923D01*
X407923Y410751D01*
X407923Y414749D01*
X410751Y417577D01*
X414749Y417577D01*
X415207Y417119D01*
X415254Y417084D01*
X415294Y417041D01*
X415367Y416999D01*
X415434Y416948D01*
X415489Y416927D01*
X415539Y416898D01*
X415621Y416877D01*
X415700Y416847D01*
X415758Y416842D01*
X415815Y416828D01*
X415899Y416830D01*
X415983Y416823D01*
X416041Y416835D01*
X416099Y416837D01*
X416179Y416863D01*
X416262Y416879D01*
X416314Y416906D01*
X416370Y416924D01*
X416426Y416964D01*
X416514Y417010D01*
X416587Y417079D01*
X416643Y417119D01*
X417101Y417577D01*
X421099Y417577D01*
X423927Y414749D01*
X423927Y410751D01*
X421099Y407923D01*
X417101Y407923D01*
X416643Y408381D01*
X416596Y408416D01*
X416556Y408459D01*
X416483Y408501D01*
X416416Y408552D01*
X416361Y408573D01*
X416311Y408602D01*
X416229Y408623D01*
X416150Y408653D01*
X416092Y408658D01*
X416035Y408672D01*
X415951Y408670D01*
X415867Y408677D01*
X415809Y408665D01*
X415751Y408663D01*
X415671Y408637D01*
X415588Y408621D01*
X415536Y408594D01*
X415480Y408576D01*
X415424Y408536D01*
X415336Y408490D01*
X415263Y408421D01*
X415207Y408381D01*
X414749Y407923D01*
X410751Y407923D01*
G37*
%LPD*%
%LPC*%
G36*
X436151Y398398D02*
X436151Y398398D01*
X433323Y401226D01*
X433323Y405224D01*
X433781Y405682D01*
X433816Y405729D01*
X433859Y405769D01*
X433901Y405842D01*
X433952Y405909D01*
X433973Y405964D01*
X434002Y406014D01*
X434023Y406096D01*
X434053Y406175D01*
X434058Y406233D01*
X434072Y406290D01*
X434070Y406374D01*
X434077Y406458D01*
X434065Y406516D01*
X434063Y406574D01*
X434037Y406654D01*
X434021Y406737D01*
X433994Y406789D01*
X433976Y406845D01*
X433936Y406901D01*
X433890Y406989D01*
X433821Y407062D01*
X433781Y407118D01*
X433323Y407576D01*
X433323Y411574D01*
X436151Y414402D01*
X440149Y414402D01*
X442977Y411574D01*
X442977Y407576D01*
X442519Y407118D01*
X442484Y407071D01*
X442441Y407031D01*
X442399Y406958D01*
X442348Y406891D01*
X442327Y406836D01*
X442298Y406786D01*
X442277Y406704D01*
X442247Y406625D01*
X442242Y406567D01*
X442228Y406510D01*
X442230Y406426D01*
X442223Y406342D01*
X442235Y406284D01*
X442237Y406226D01*
X442263Y406146D01*
X442279Y406063D01*
X442306Y406011D01*
X442324Y405955D01*
X442364Y405899D01*
X442410Y405811D01*
X442479Y405738D01*
X442519Y405682D01*
X442977Y405224D01*
X442977Y401226D01*
X440149Y398398D01*
X436151Y398398D01*
G37*
%LPD*%
%LPC*%
G36*
X385351Y392048D02*
X385351Y392048D01*
X382523Y394876D01*
X382523Y398874D01*
X385351Y401702D01*
X389349Y401702D01*
X389807Y401244D01*
X389854Y401209D01*
X389894Y401166D01*
X389967Y401124D01*
X390034Y401073D01*
X390089Y401052D01*
X390139Y401023D01*
X390221Y401002D01*
X390300Y400972D01*
X390358Y400967D01*
X390415Y400953D01*
X390499Y400955D01*
X390583Y400948D01*
X390641Y400960D01*
X390699Y400962D01*
X390779Y400988D01*
X390862Y401004D01*
X390914Y401031D01*
X390970Y401049D01*
X391026Y401089D01*
X391114Y401135D01*
X391187Y401204D01*
X391243Y401244D01*
X391701Y401702D01*
X395699Y401702D01*
X398527Y398874D01*
X398527Y394876D01*
X395699Y392048D01*
X391701Y392048D01*
X391243Y392506D01*
X391196Y392541D01*
X391156Y392584D01*
X391083Y392626D01*
X391016Y392677D01*
X390961Y392698D01*
X390911Y392727D01*
X390829Y392748D01*
X390750Y392778D01*
X390692Y392783D01*
X390635Y392797D01*
X390551Y392795D01*
X390467Y392802D01*
X390409Y392790D01*
X390351Y392788D01*
X390271Y392762D01*
X390188Y392746D01*
X390136Y392719D01*
X390080Y392701D01*
X390024Y392661D01*
X389936Y392615D01*
X389863Y392546D01*
X389807Y392506D01*
X389349Y392048D01*
X385351Y392048D01*
G37*
%LPD*%
%LPC*%
G36*
X229776Y323786D02*
X229776Y323786D01*
X226948Y326613D01*
X226948Y330612D01*
X229776Y333439D01*
X233774Y333439D01*
X236602Y330612D01*
X236602Y326613D01*
X233774Y323786D01*
X229776Y323786D01*
G37*
%LPD*%
%LPC*%
G36*
X328201Y339661D02*
X328201Y339661D01*
X325373Y342488D01*
X325373Y346487D01*
X328201Y349314D01*
X332199Y349314D01*
X335027Y346487D01*
X335027Y342488D01*
X332199Y339661D01*
X328201Y339661D01*
G37*
%LPD*%
%LPC*%
G36*
X409163Y120586D02*
X409163Y120586D01*
X406336Y123413D01*
X406336Y127412D01*
X409163Y130239D01*
X413162Y130239D01*
X415989Y127412D01*
X415989Y123413D01*
X413162Y120586D01*
X409163Y120586D01*
G37*
%LPD*%
%LPC*%
G36*
X286926Y330136D02*
X286926Y330136D01*
X284098Y332963D01*
X284098Y336962D01*
X286926Y339789D01*
X290924Y339789D01*
X293752Y336962D01*
X293752Y332963D01*
X290924Y330136D01*
X286926Y330136D01*
G37*
%LPD*%
%LPC*%
G36*
X248826Y136461D02*
X248826Y136461D01*
X245998Y139288D01*
X245998Y143287D01*
X248826Y146114D01*
X252824Y146114D01*
X255652Y143287D01*
X255652Y139288D01*
X252824Y136461D01*
X248826Y136461D01*
G37*
%LPD*%
%LPC*%
G36*
X177388Y330136D02*
X177388Y330136D01*
X174561Y332963D01*
X174561Y336962D01*
X177388Y339789D01*
X181387Y339789D01*
X184214Y336962D01*
X184214Y332963D01*
X181387Y330136D01*
X177388Y330136D01*
G37*
%LPD*%
%LPC*%
G36*
X231363Y93598D02*
X231363Y93598D01*
X228536Y96426D01*
X228536Y100424D01*
X231363Y103252D01*
X235362Y103252D01*
X238189Y100424D01*
X238189Y96426D01*
X235362Y93598D01*
X231363Y93598D01*
G37*
%LPD*%
%LPC*%
G36*
X86901Y252348D02*
X86901Y252348D01*
X84073Y255176D01*
X84073Y259174D01*
X86901Y262002D01*
X90899Y262002D01*
X93727Y259174D01*
X93727Y255176D01*
X90899Y252348D01*
X86901Y252348D01*
G37*
%LPD*%
%LPC*%
G36*
X59913Y142811D02*
X59913Y142811D01*
X57086Y145638D01*
X57086Y149637D01*
X59913Y152464D01*
X63912Y152464D01*
X66739Y149637D01*
X66739Y145638D01*
X63912Y142811D01*
X59913Y142811D01*
G37*
%LPD*%
%LPC*%
G36*
X278988Y150748D02*
X278988Y150748D01*
X276161Y153576D01*
X276161Y157574D01*
X278988Y160402D01*
X282987Y160402D01*
X285814Y157574D01*
X285814Y153576D01*
X282987Y150748D01*
X278988Y150748D01*
G37*
%LPD*%
%LPC*%
G36*
X305976Y150748D02*
X305976Y150748D01*
X303148Y153576D01*
X303148Y157574D01*
X305976Y160402D01*
X309974Y160402D01*
X312802Y157574D01*
X312802Y153576D01*
X309974Y150748D01*
X305976Y150748D01*
G37*
%LPD*%
%LPC*%
G36*
X148813Y371411D02*
X148813Y371411D01*
X145986Y374238D01*
X145986Y378237D01*
X148813Y381064D01*
X152812Y381064D01*
X155639Y378237D01*
X155639Y374238D01*
X152812Y371411D01*
X148813Y371411D01*
G37*
%LPD*%
%LPC*%
G36*
X248826Y106298D02*
X248826Y106298D01*
X245998Y109126D01*
X245998Y113124D01*
X248826Y115952D01*
X252824Y115952D01*
X255652Y113124D01*
X255652Y109126D01*
X252824Y106298D01*
X248826Y106298D01*
G37*
%LPD*%
%LPC*%
G36*
X145638Y279336D02*
X145638Y279336D01*
X142811Y282163D01*
X142811Y286162D01*
X145638Y288989D01*
X149637Y288989D01*
X152464Y286162D01*
X152464Y282163D01*
X149637Y279336D01*
X145638Y279336D01*
G37*
%LPD*%
%LPC*%
G36*
X47213Y161861D02*
X47213Y161861D01*
X44386Y164688D01*
X44386Y168687D01*
X47213Y171514D01*
X51212Y171514D01*
X54039Y168687D01*
X54039Y164688D01*
X51212Y161861D01*
X47213Y161861D01*
G37*
%LPD*%
%LPC*%
G36*
X9113Y372998D02*
X9113Y372998D01*
X6286Y375826D01*
X6286Y379824D01*
X9113Y382652D01*
X13112Y382652D01*
X15939Y379824D01*
X15939Y375826D01*
X13112Y372998D01*
X9113Y372998D01*
G37*
%LPD*%
%LPC*%
G36*
X394876Y77723D02*
X394876Y77723D01*
X392048Y80551D01*
X392048Y84549D01*
X394876Y87377D01*
X398874Y87377D01*
X401702Y84549D01*
X401702Y80551D01*
X398874Y77723D01*
X394876Y77723D01*
G37*
%LPD*%
%LPC*%
G36*
X242476Y268223D02*
X242476Y268223D01*
X239648Y271051D01*
X239648Y275049D01*
X242476Y277877D01*
X246474Y277877D01*
X249302Y275049D01*
X249302Y271051D01*
X246474Y268223D01*
X242476Y268223D01*
G37*
%LPD*%
%LPC*%
G36*
X359951Y257111D02*
X359951Y257111D01*
X357123Y259938D01*
X357123Y263937D01*
X359951Y266764D01*
X363949Y266764D01*
X366777Y263937D01*
X366777Y259938D01*
X363949Y257111D01*
X359951Y257111D01*
G37*
%LPD*%
%LPC*%
G36*
X86901Y65023D02*
X86901Y65023D01*
X84073Y67851D01*
X84073Y71849D01*
X86901Y74677D01*
X90899Y74677D01*
X93727Y71849D01*
X93727Y67851D01*
X90899Y65023D01*
X86901Y65023D01*
G37*
%LPD*%
%LPC*%
G36*
X228188Y258698D02*
X228188Y258698D01*
X225361Y261526D01*
X225361Y265524D01*
X228188Y268352D01*
X232187Y268352D01*
X235014Y265524D01*
X235014Y261526D01*
X232187Y258698D01*
X228188Y258698D01*
G37*
%LPD*%
%LPC*%
G36*
X348838Y39623D02*
X348838Y39623D01*
X346011Y42451D01*
X346011Y46449D01*
X348838Y49277D01*
X352837Y49277D01*
X355664Y46449D01*
X355664Y42451D01*
X352837Y39623D01*
X348838Y39623D01*
G37*
%LPD*%
%LPC*%
G36*
X166276Y258698D02*
X166276Y258698D01*
X163448Y261526D01*
X163448Y265524D01*
X166276Y268352D01*
X170274Y268352D01*
X173102Y265524D01*
X173102Y261526D01*
X170274Y258698D01*
X166276Y258698D01*
G37*
%LPD*%
%LPC*%
G36*
X383763Y201548D02*
X383763Y201548D01*
X380936Y204376D01*
X380936Y208374D01*
X383763Y211202D01*
X387762Y211202D01*
X390589Y208374D01*
X390589Y204376D01*
X387762Y201548D01*
X383763Y201548D01*
G37*
%LPD*%
%LPC*%
G36*
X334551Y280923D02*
X334551Y280923D01*
X331723Y283751D01*
X331723Y287749D01*
X334551Y290577D01*
X338549Y290577D01*
X341377Y287749D01*
X341377Y283751D01*
X338549Y280923D01*
X334551Y280923D01*
G37*
%LPD*%
%LPC*%
G36*
X75788Y233298D02*
X75788Y233298D01*
X72961Y236126D01*
X72961Y240124D01*
X75788Y242952D01*
X79787Y242952D01*
X82614Y240124D01*
X82614Y236126D01*
X79787Y233298D01*
X75788Y233298D01*
G37*
%LPD*%
%LPC*%
G36*
X339313Y228536D02*
X339313Y228536D01*
X336486Y231363D01*
X336486Y235362D01*
X339313Y238189D01*
X343312Y238189D01*
X346139Y235362D01*
X346139Y231363D01*
X343312Y228536D01*
X339313Y228536D01*
G37*
%LPD*%
%LPC*%
G36*
X255176Y228536D02*
X255176Y228536D01*
X252348Y231363D01*
X252348Y235362D01*
X255176Y238189D01*
X259174Y238189D01*
X262002Y235362D01*
X262002Y231363D01*
X259174Y228536D01*
X255176Y228536D01*
G37*
%LPD*%
%LPC*%
G36*
X174213Y228536D02*
X174213Y228536D01*
X171386Y231363D01*
X171386Y235362D01*
X174213Y238189D01*
X178212Y238189D01*
X181039Y235362D01*
X181039Y231363D01*
X178212Y228536D01*
X174213Y228536D01*
G37*
%LPD*%
%LPC*%
G36*
X63088Y226948D02*
X63088Y226948D01*
X60261Y229776D01*
X60261Y233774D01*
X63088Y236602D01*
X67087Y236602D01*
X69914Y233774D01*
X69914Y229776D01*
X67087Y226948D01*
X63088Y226948D01*
G37*
%LPD*%
%LPC*%
G36*
X50388Y226948D02*
X50388Y226948D01*
X47561Y229776D01*
X47561Y233774D01*
X50388Y236602D01*
X54387Y236602D01*
X57214Y233774D01*
X57214Y229776D01*
X54387Y226948D01*
X50388Y226948D01*
G37*
%LPD*%
%LPC*%
G36*
X139288Y225361D02*
X139288Y225361D01*
X136461Y228188D01*
X136461Y232187D01*
X139288Y235014D01*
X143287Y235014D01*
X146114Y232187D01*
X146114Y228188D01*
X143287Y225361D01*
X139288Y225361D01*
G37*
%LPD*%
%LPC*%
G36*
X158338Y284098D02*
X158338Y284098D01*
X155511Y286926D01*
X155511Y290924D01*
X158338Y293752D01*
X162337Y293752D01*
X165164Y290924D01*
X165164Y286926D01*
X162337Y284098D01*
X158338Y284098D01*
G37*
%LPD*%
%LPC*%
G36*
X263113Y245998D02*
X263113Y245998D01*
X260286Y248826D01*
X260286Y252824D01*
X263113Y255652D01*
X267112Y255652D01*
X269939Y252824D01*
X269939Y248826D01*
X267112Y245998D01*
X263113Y245998D01*
G37*
%LPD*%
%LPC*%
G36*
X20226Y287273D02*
X20226Y287273D01*
X17398Y290101D01*
X17398Y294099D01*
X20226Y296927D01*
X24224Y296927D01*
X27052Y294099D01*
X27052Y290101D01*
X24224Y287273D01*
X20226Y287273D01*
G37*
%LPD*%
%LPC*%
G36*
X67851Y288861D02*
X67851Y288861D01*
X65023Y291688D01*
X65023Y295687D01*
X67851Y298514D01*
X71849Y298514D01*
X74677Y295687D01*
X74677Y291688D01*
X71849Y288861D01*
X67851Y288861D01*
G37*
%LPD*%
%LPC*%
G36*
X69438Y207898D02*
X69438Y207898D01*
X66611Y210726D01*
X66611Y214724D01*
X69438Y217552D01*
X73437Y217552D01*
X76264Y214724D01*
X76264Y210726D01*
X73437Y207898D01*
X69438Y207898D01*
G37*
%LPD*%
%LPC*%
G36*
X339313Y249173D02*
X339313Y249173D01*
X336486Y252001D01*
X336486Y255999D01*
X339313Y258827D01*
X343312Y258827D01*
X346139Y255999D01*
X346139Y252001D01*
X343312Y249173D01*
X339313Y249173D01*
G37*
%LPD*%
%LPC*%
G36*
X321851Y199961D02*
X321851Y199961D01*
X319023Y202788D01*
X319023Y206787D01*
X321851Y209614D01*
X325849Y209614D01*
X328677Y206787D01*
X328677Y202788D01*
X325849Y199961D01*
X321851Y199961D01*
G37*
%LPD*%
%LPC*%
G36*
X309151Y199961D02*
X309151Y199961D01*
X306323Y202788D01*
X306323Y206787D01*
X309151Y209614D01*
X313149Y209614D01*
X315977Y206787D01*
X315977Y202788D01*
X313149Y199961D01*
X309151Y199961D01*
G37*
%LPD*%
%LPC*%
G36*
X275813Y304736D02*
X275813Y304736D01*
X272986Y307563D01*
X272986Y311562D01*
X275813Y314389D01*
X279812Y314389D01*
X282639Y311562D01*
X282639Y307563D01*
X279812Y304736D01*
X275813Y304736D01*
G37*
%LPD*%
%LPC*%
G36*
X128176Y192023D02*
X128176Y192023D01*
X125348Y194851D01*
X125348Y198849D01*
X128176Y201677D01*
X132174Y201677D01*
X135002Y198849D01*
X135002Y194851D01*
X132174Y192023D01*
X128176Y192023D01*
G37*
%LPD*%
%LPC*%
G36*
X171038Y192023D02*
X171038Y192023D01*
X168211Y194851D01*
X168211Y198849D01*
X171038Y201677D01*
X175037Y201677D01*
X177864Y198849D01*
X177864Y194851D01*
X175037Y192023D01*
X171038Y192023D01*
G37*
%LPD*%
%LPC*%
G36*
X394876Y247586D02*
X394876Y247586D01*
X392048Y250413D01*
X392048Y254412D01*
X394876Y257239D01*
X398874Y257239D01*
X401702Y254412D01*
X401702Y250413D01*
X398874Y247586D01*
X394876Y247586D01*
G37*
%LPD*%
%LPC*%
G36*
X15463Y314261D02*
X15463Y314261D01*
X12636Y317088D01*
X12636Y321087D01*
X15463Y323914D01*
X19462Y323914D01*
X22289Y321087D01*
X22289Y317088D01*
X19462Y314261D01*
X15463Y314261D01*
G37*
%LPD*%
%LPC*%
G36*
X196438Y260286D02*
X196438Y260286D01*
X193611Y263113D01*
X193611Y267112D01*
X196438Y269939D01*
X200437Y269939D01*
X203264Y267112D01*
X203264Y263113D01*
X200437Y260286D01*
X196438Y260286D01*
G37*
%LPD*%
%LPC*%
G36*
X367888Y174561D02*
X367888Y174561D01*
X365061Y177388D01*
X365061Y181387D01*
X367888Y184214D01*
X371887Y184214D01*
X374714Y181387D01*
X374714Y177388D01*
X371887Y174561D01*
X367888Y174561D01*
G37*
%LPD*%
%LPC*%
G36*
X247238Y169798D02*
X247238Y169798D01*
X244411Y172626D01*
X244411Y176624D01*
X247238Y179452D01*
X251237Y179452D01*
X254064Y176624D01*
X254064Y172626D01*
X251237Y169798D01*
X247238Y169798D01*
G37*
%LPD*%
%LPC*%
G36*
X69438Y314261D02*
X69438Y314261D01*
X66611Y317088D01*
X66611Y321087D01*
X69438Y323914D01*
X73437Y323914D01*
X76264Y321087D01*
X76264Y317088D01*
X73437Y314261D01*
X69438Y314261D01*
G37*
%LPD*%
%LPC*%
G36*
X101188Y314261D02*
X101188Y314261D01*
X98361Y317088D01*
X98361Y321087D01*
X101188Y323914D01*
X105187Y323914D01*
X108014Y321087D01*
X108014Y317088D01*
X105187Y314261D01*
X101188Y314261D01*
G37*
%LPD*%
%LPC*%
G36*
X409163Y242823D02*
X409163Y242823D01*
X406336Y245651D01*
X406336Y249649D01*
X409163Y252477D01*
X413162Y252477D01*
X415989Y249649D01*
X415989Y245651D01*
X413162Y242823D01*
X409163Y242823D01*
G37*
%LPD*%
D10*
X345000Y484925D03*
X315000Y484925D03*
X285000Y484925D03*
X255000Y484925D03*
X225000Y484925D03*
X195000Y484925D03*
X165000Y484925D03*
X135000Y484925D03*
X105000Y484925D03*
X330000Y459925D03*
X300000Y459925D03*
X270000Y459925D03*
X240000Y459925D03*
X210000Y459925D03*
X180000Y459925D03*
X150000Y459925D03*
X120000Y459925D03*
X330000Y424925D03*
X300000Y424925D03*
X270000Y424925D03*
X240000Y424925D03*
X210000Y424925D03*
X180000Y424925D03*
X150000Y424925D03*
X120000Y424925D03*
X345000Y399925D03*
X315000Y399925D03*
X285000Y399925D03*
X255000Y399925D03*
X225000Y399925D03*
X195000Y399925D03*
X165000Y399925D03*
X135000Y399925D03*
X105000Y399925D03*
D11*
X190500Y241300D03*
X215900Y241300D03*
X190500Y215900D03*
X215900Y215900D03*
X190500Y190500D03*
X215900Y190500D03*
X190500Y165100D03*
X215900Y165100D03*
X190500Y139700D03*
X215900Y139700D03*
X190500Y114300D03*
X215900Y114300D03*
X190500Y88900D03*
X215900Y88900D03*
X371475Y12700D03*
X371475Y38100D03*
X396875Y12700D03*
X396875Y38100D03*
X422275Y12700D03*
X422275Y38100D03*
D12*
X77788Y268288D03*
X93663Y306388D03*
X142875Y198438D03*
X169863Y174625D03*
X120650Y31750D03*
X114300Y31750D03*
X90488Y57150D03*
X90488Y49213D03*
X80963Y49213D03*
X36513Y295275D03*
X41275Y392113D03*
X136525Y295275D03*
X9525Y249238D03*
X19050Y131763D03*
X19050Y120650D03*
X19050Y142875D03*
X19050Y153988D03*
X17463Y46038D03*
X7938Y46038D03*
X26988Y46038D03*
X19050Y109538D03*
X152400Y123825D03*
X152400Y90488D03*
X327025Y44450D03*
X212725Y31750D03*
X206375Y38100D03*
X305594Y317500D03*
X318294Y304800D03*
X280988Y376238D03*
X200025Y301625D03*
X173038Y301625D03*
X104775Y357188D03*
X73025Y357188D03*
X44450Y363538D03*
X341313Y242888D03*
X290513Y204788D03*
X274638Y249238D03*
X374650Y268288D03*
X374650Y261938D03*
X44450Y357188D03*
X73025Y363538D03*
X104775Y363538D03*
X141288Y349250D03*
X173038Y307975D03*
X311150Y261938D03*
X280988Y11113D03*
X233363Y46038D03*
X249238Y71438D03*
X200025Y38100D03*
X200025Y31750D03*
X80963Y57150D03*
X238125Y152400D03*
X330200Y373063D03*
X165100Y346075D03*
X228600Y206375D03*
X411163Y134938D03*
X12700Y79375D03*
X169863Y217488D03*
X147638Y241300D03*
X147638Y252413D03*
X41275Y398463D03*
X141288Y355600D03*
X165100Y352425D03*
X73025Y369888D03*
X104775Y369888D03*
X200025Y307975D03*
X200025Y314325D03*
X441325Y34925D03*
X387350Y82550D03*
X350838Y22225D03*
X350838Y33338D03*
X423863Y463550D03*
X430213Y463550D03*
X19050Y444500D03*
X25400Y444500D03*
X44450Y369888D03*
X412750Y381000D03*
X419100Y381000D03*
X280988Y146050D03*
X318294Y317500D03*
X305594Y304800D03*
X422275Y227013D03*
X422275Y220663D03*
X441325Y111125D03*
X168275Y112713D03*
X276225Y46038D03*
X9525Y238125D03*
X9525Y227013D03*
X238125Y322263D03*
X257175Y273050D03*
X122238Y131763D03*
X122238Y117475D03*
X61913Y133350D03*
X206375Y44450D03*
X212725Y44450D03*
X120650Y47625D03*
X114300Y47625D03*
X200025Y44450D03*
X212725Y38100D03*
X206375Y31750D03*
X109538Y225425D03*
X52388Y231775D03*
X109538Y217488D03*
X296863Y252413D03*
X274638Y220663D03*
X174625Y31750D03*
X180975Y31750D03*
X168275Y38100D03*
X168275Y31750D03*
X174625Y38100D03*
X180975Y38100D03*
X147638Y284163D03*
X257175Y233363D03*
X411163Y125413D03*
X322263Y11113D03*
X385763Y206375D03*
X396875Y82550D03*
X250825Y141288D03*
X312738Y74613D03*
X176213Y233363D03*
X136525Y312738D03*
X280988Y155575D03*
X61913Y147638D03*
X350838Y44450D03*
X247650Y322263D03*
X231775Y328613D03*
X277813Y274638D03*
X333375Y11113D03*
X441325Y11113D03*
X387350Y396875D03*
X393700Y396875D03*
X168275Y44450D03*
X174625Y44450D03*
X180975Y44450D03*
X69850Y293688D03*
X88900Y69850D03*
X66675Y249238D03*
X52388Y306388D03*
X61913Y306388D03*
X49213Y258763D03*
X22225Y292100D03*
X79375Y111125D03*
X71438Y212725D03*
X303213Y77788D03*
X341313Y233363D03*
X11113Y377825D03*
X65088Y231775D03*
X55563Y250825D03*
X77788Y238125D03*
X17463Y319088D03*
X98425Y209550D03*
X92075Y215900D03*
X130175Y196850D03*
X84138Y220663D03*
X49213Y166688D03*
X88900Y257175D03*
X69850Y117475D03*
X69850Y98425D03*
X328613Y76200D03*
X336550Y285750D03*
X336550Y188913D03*
X341313Y254000D03*
X342900Y195263D03*
X233363Y98425D03*
X311150Y204788D03*
X141288Y230188D03*
X242888Y254000D03*
X69850Y107950D03*
X336550Y201613D03*
X173038Y196850D03*
X323850Y204788D03*
X304800Y96838D03*
X250825Y111125D03*
X249238Y174625D03*
X252413Y254000D03*
X168275Y263525D03*
X282575Y284163D03*
X265113Y250825D03*
X277813Y211138D03*
X42863Y306388D03*
X288925Y127000D03*
X71438Y319088D03*
X282575Y120650D03*
X25400Y357188D03*
X25400Y350838D03*
X438150Y403225D03*
X438150Y409575D03*
X257175Y322263D03*
X266700Y322263D03*
X288925Y334963D03*
X330200Y344488D03*
X361950Y261938D03*
X396875Y252413D03*
X160338Y288925D03*
X285750Y96838D03*
X230188Y263525D03*
X295275Y96838D03*
X198438Y265113D03*
X307975Y155575D03*
X103188Y319088D03*
X288925Y114300D03*
X127000Y309563D03*
X284163Y106363D03*
X277813Y293688D03*
X288925Y274638D03*
X300038Y274638D03*
X314325Y174625D03*
X244475Y273050D03*
X288925Y260350D03*
X307975Y180975D03*
X150813Y376238D03*
X338138Y76200D03*
X7938Y412750D03*
X369888Y179388D03*
X336550Y179388D03*
X112713Y158750D03*
X220663Y69850D03*
X103188Y158750D03*
X211138Y65088D03*
X42863Y17463D03*
X49213Y17463D03*
X55563Y17463D03*
X55563Y9525D03*
X49213Y9525D03*
X42863Y9525D03*
X179388Y334963D03*
X277813Y309563D03*
X387350Y428625D03*
X393700Y428625D03*
X411163Y247650D03*
X336550Y136525D03*
X336550Y146050D03*
X103188Y98425D03*
X112713Y101600D03*
X412750Y412750D03*
X419100Y412750D03*
M02*
