G04 EAGLE Gerber RS-274X export*
G75*
%MOMM*%
%FSLAX34Y34*%
%LPD*%
%INTop Copper*%
%IPPOS*%
%AMOC8*
5,1,8,0,0,1.08239X$1,22.5*%
G01*
%ADD10C,0.101600*%
%ADD11R,0.700000X0.900000*%
%ADD12R,0.900000X0.700000*%
%ADD13R,0.700000X1.000000*%
%ADD14R,1.000000X1.100000*%
%ADD15R,1.270000X0.558800*%
%ADD16R,0.558800X1.270000*%
%ADD17R,2.160000X1.780000*%
%ADD18R,0.800000X0.800000*%
%ADD19R,2.800000X1.200000*%
%ADD20R,1.200000X1.400000*%
%ADD21R,1.500000X1.300000*%
%ADD22R,2.400000X1.800000*%
%ADD23R,1.000000X1.400000*%
%ADD24R,0.600000X2.200000*%
%ADD25R,1.500000X0.350000*%
%ADD26R,0.350000X1.500000*%
%ADD27C,1.950000*%
%ADD28R,1.500000X2.100000*%
%ADD29R,1.400000X1.000000*%
%ADD30R,1.600200X1.168400*%
%ADD31R,0.300000X0.600000*%
%ADD32R,0.600000X0.300000*%
%ADD33R,3.300000X3.300000*%
%ADD34P,1.649562X8X292.500000*%
%ADD35P,1.649562X8X22.500000*%
%ADD36R,1.300000X1.500000*%
%ADD37R,0.400000X0.800000*%
%ADD38R,0.700000X0.300000*%
%ADD39R,2.235200X1.219200*%
%ADD40R,2.200000X3.600000*%
%ADD41C,0.711200*%
%ADD42C,0.203200*%
%ADD43C,0.254000*%
%ADD44C,0.304800*%
%ADD45C,0.152400*%
%ADD46C,0.508000*%
%ADD47C,0.762000*%
%ADD48C,0.406400*%
%ADD49C,1.270000*%

G36*
X187383Y365705D02*
X187383Y365705D01*
X187441Y365704D01*
X187523Y365725D01*
X187607Y365737D01*
X187660Y365761D01*
X187716Y365776D01*
X187789Y365819D01*
X187866Y365853D01*
X187911Y365891D01*
X187961Y365921D01*
X188019Y365983D01*
X188083Y366037D01*
X188115Y366086D01*
X188155Y366128D01*
X188194Y366203D01*
X188241Y366274D01*
X188258Y366329D01*
X188285Y366381D01*
X188296Y366449D01*
X188326Y366545D01*
X188329Y366644D01*
X188340Y366713D01*
X188340Y390579D01*
X188328Y390665D01*
X188325Y390753D01*
X188308Y390805D01*
X188300Y390860D01*
X188265Y390940D01*
X188238Y391023D01*
X188210Y391062D01*
X188184Y391119D01*
X188088Y391233D01*
X188043Y391296D01*
X185657Y393682D01*
X183979Y397733D01*
X183979Y402117D01*
X185657Y406168D01*
X188757Y409268D01*
X192808Y410946D01*
X192886Y410946D01*
X192973Y410958D01*
X193060Y410961D01*
X193113Y410978D01*
X193167Y410986D01*
X193247Y411021D01*
X193331Y411048D01*
X193370Y411076D01*
X193427Y411102D01*
X193540Y411198D01*
X193604Y411243D01*
X200290Y417930D01*
X200291Y417931D01*
X200293Y417932D01*
X200379Y418047D01*
X200461Y418157D01*
X200462Y418158D01*
X200463Y418160D01*
X200513Y418293D01*
X200563Y418423D01*
X200563Y418424D01*
X200563Y418426D01*
X200575Y418570D01*
X200586Y418706D01*
X200586Y418707D01*
X200586Y418709D01*
X200582Y418725D01*
X200530Y418985D01*
X200516Y419012D01*
X200511Y419036D01*
X198979Y422733D01*
X198979Y427117D01*
X200657Y431168D01*
X203757Y434268D01*
X207808Y435946D01*
X212192Y435946D01*
X215889Y434414D01*
X215890Y434414D01*
X215892Y434413D01*
X216026Y434379D01*
X216164Y434344D01*
X216166Y434344D01*
X216167Y434343D01*
X216308Y434348D01*
X216448Y434352D01*
X216450Y434352D01*
X216451Y434352D01*
X216584Y434395D01*
X216719Y434438D01*
X216721Y434439D01*
X216722Y434440D01*
X216734Y434448D01*
X216955Y434597D01*
X216975Y434620D01*
X216995Y434635D01*
X232632Y450271D01*
X232646Y450290D01*
X232661Y450303D01*
X232678Y450329D01*
X232710Y450358D01*
X232752Y450431D01*
X232803Y450499D01*
X232818Y450539D01*
X232819Y450539D01*
X232820Y450542D01*
X232824Y450553D01*
X232853Y450604D01*
X232874Y450685D01*
X232904Y450764D01*
X232909Y450823D01*
X232924Y450879D01*
X232921Y450963D01*
X232928Y451048D01*
X232916Y451105D01*
X232914Y451163D01*
X232889Y451244D01*
X232872Y451326D01*
X232845Y451378D01*
X232827Y451434D01*
X232787Y451490D01*
X232741Y451579D01*
X232672Y451651D01*
X232632Y451707D01*
X230657Y453682D01*
X228979Y457733D01*
X228979Y462117D01*
X230657Y466168D01*
X233757Y469268D01*
X237808Y470946D01*
X242192Y470946D01*
X246243Y469268D01*
X249415Y466096D01*
X249417Y466092D01*
X249418Y466091D01*
X249419Y466089D01*
X249452Y466058D01*
X249486Y466025D01*
X249497Y466017D01*
X249521Y465994D01*
X249624Y465897D01*
X249625Y465896D01*
X249627Y465895D01*
X249753Y465830D01*
X249876Y465767D01*
X249878Y465766D01*
X249880Y465765D01*
X249898Y465762D01*
X250155Y465711D01*
X250186Y465714D01*
X250211Y465710D01*
X259789Y465710D01*
X259791Y465710D01*
X259793Y465710D01*
X259933Y465730D01*
X260071Y465750D01*
X260072Y465750D01*
X260074Y465751D01*
X260201Y465808D01*
X260330Y465866D01*
X260331Y465867D01*
X260333Y465868D01*
X260439Y465958D01*
X260547Y466050D01*
X260548Y466051D01*
X260550Y466052D01*
X260559Y466068D01*
X260563Y466074D01*
X263757Y469268D01*
X267808Y470946D01*
X272192Y470946D01*
X276243Y469268D01*
X279415Y466096D01*
X279417Y466092D01*
X279418Y466091D01*
X279419Y466089D01*
X279452Y466058D01*
X279486Y466025D01*
X279497Y466017D01*
X279521Y465994D01*
X279624Y465897D01*
X279625Y465896D01*
X279627Y465895D01*
X279753Y465830D01*
X279876Y465767D01*
X279878Y465766D01*
X279880Y465765D01*
X279898Y465762D01*
X280155Y465711D01*
X280186Y465714D01*
X280211Y465710D01*
X289789Y465710D01*
X289791Y465710D01*
X289793Y465710D01*
X289933Y465730D01*
X290071Y465750D01*
X290072Y465750D01*
X290074Y465751D01*
X290201Y465808D01*
X290330Y465866D01*
X290331Y465867D01*
X290333Y465868D01*
X290439Y465958D01*
X290547Y466050D01*
X290548Y466051D01*
X290550Y466052D01*
X290559Y466068D01*
X290563Y466074D01*
X293757Y469268D01*
X297808Y470946D01*
X302192Y470946D01*
X302919Y470645D01*
X302921Y470644D01*
X302922Y470643D01*
X303054Y470610D01*
X303194Y470574D01*
X303196Y470574D01*
X303197Y470573D01*
X303338Y470578D01*
X303478Y470582D01*
X303480Y470582D01*
X303482Y470582D01*
X303617Y470626D01*
X303749Y470668D01*
X303751Y470669D01*
X303752Y470670D01*
X303765Y470679D01*
X303985Y470827D01*
X304005Y470850D01*
X304025Y470865D01*
X305221Y472060D01*
X310682Y472060D01*
X310740Y472068D01*
X310798Y472066D01*
X310880Y472088D01*
X310964Y472100D01*
X311017Y472124D01*
X311073Y472138D01*
X311146Y472181D01*
X311223Y472216D01*
X311268Y472254D01*
X311318Y472284D01*
X311376Y472345D01*
X311440Y472400D01*
X311472Y472448D01*
X311512Y472491D01*
X311551Y472566D01*
X311598Y472636D01*
X311615Y472692D01*
X311642Y472744D01*
X311653Y472812D01*
X311683Y472907D01*
X311686Y473007D01*
X311697Y473075D01*
X311697Y473686D01*
X311697Y473687D01*
X311697Y473689D01*
X311677Y473827D01*
X311657Y473967D01*
X311657Y473969D01*
X311657Y473970D01*
X311602Y474090D01*
X311541Y474227D01*
X311540Y474228D01*
X311539Y474229D01*
X311449Y474336D01*
X311358Y474444D01*
X311356Y474445D01*
X311355Y474446D01*
X311342Y474454D01*
X311121Y474601D01*
X311092Y474611D01*
X311071Y474624D01*
X308757Y475582D01*
X305657Y478682D01*
X303979Y482733D01*
X303979Y487117D01*
X305657Y491168D01*
X308757Y494268D01*
X312808Y495946D01*
X317192Y495946D01*
X321243Y494268D01*
X324343Y491168D01*
X326021Y487117D01*
X326021Y482733D01*
X324343Y478682D01*
X321243Y475582D01*
X318929Y474624D01*
X318928Y474623D01*
X318927Y474623D01*
X318806Y474551D01*
X318685Y474479D01*
X318684Y474478D01*
X318682Y474477D01*
X318585Y474373D01*
X318489Y474273D01*
X318489Y474271D01*
X318488Y474270D01*
X318423Y474144D01*
X318359Y474020D01*
X318359Y474018D01*
X318358Y474017D01*
X318356Y474002D01*
X318304Y473741D01*
X318307Y473711D01*
X318303Y473686D01*
X318303Y473075D01*
X318311Y473017D01*
X318309Y472959D01*
X318331Y472877D01*
X318343Y472794D01*
X318366Y472740D01*
X318381Y472684D01*
X318424Y472611D01*
X318459Y472534D01*
X318497Y472489D01*
X318526Y472439D01*
X318588Y472381D01*
X318642Y472317D01*
X318691Y472285D01*
X318734Y472245D01*
X318809Y472206D01*
X318879Y472160D01*
X318935Y472142D01*
X318987Y472115D01*
X319055Y472104D01*
X319150Y472074D01*
X319250Y472071D01*
X319318Y472060D01*
X342157Y472060D01*
X342242Y472072D01*
X342328Y472074D01*
X342382Y472092D01*
X342438Y472100D01*
X342517Y472135D01*
X342599Y472161D01*
X342646Y472193D01*
X342698Y472216D01*
X342763Y472271D01*
X342835Y472319D01*
X342871Y472363D01*
X342915Y472400D01*
X342962Y472471D01*
X343018Y472537D01*
X343041Y472589D01*
X343072Y472636D01*
X343098Y472718D01*
X343133Y472797D01*
X343141Y472853D01*
X343158Y472907D01*
X343160Y472993D01*
X343172Y473078D01*
X343164Y473134D01*
X343165Y473191D01*
X343144Y473274D01*
X343131Y473360D01*
X343108Y473411D01*
X343094Y473466D01*
X343050Y473540D01*
X343014Y473619D01*
X342978Y473662D01*
X342948Y473711D01*
X342886Y473770D01*
X342830Y473835D01*
X342788Y473861D01*
X342741Y473905D01*
X342612Y473971D01*
X342545Y474013D01*
X338757Y475582D01*
X335657Y478682D01*
X333979Y482733D01*
X333979Y487117D01*
X335657Y491168D01*
X338757Y494268D01*
X342808Y495946D01*
X347192Y495946D01*
X351243Y494268D01*
X354343Y491168D01*
X356021Y487117D01*
X356021Y482733D01*
X354343Y478682D01*
X351243Y475582D01*
X347455Y474013D01*
X347381Y473969D01*
X347302Y473934D01*
X347259Y473897D01*
X347210Y473868D01*
X347151Y473806D01*
X347085Y473751D01*
X347054Y473703D01*
X347015Y473662D01*
X346975Y473585D01*
X346928Y473514D01*
X346910Y473460D01*
X346884Y473409D01*
X346868Y473325D01*
X346842Y473243D01*
X346840Y473186D01*
X346829Y473130D01*
X346837Y473045D01*
X346835Y472959D01*
X346849Y472904D01*
X346854Y472847D01*
X346885Y472767D01*
X346906Y472684D01*
X346935Y472635D01*
X346956Y472582D01*
X347008Y472513D01*
X347052Y472439D01*
X347093Y472400D01*
X347127Y472355D01*
X347196Y472304D01*
X347259Y472245D01*
X347310Y472219D01*
X347355Y472185D01*
X347436Y472154D01*
X347512Y472115D01*
X347561Y472107D01*
X347621Y472084D01*
X347766Y472073D01*
X347843Y472060D01*
X392902Y472060D01*
X392959Y472068D01*
X393018Y472066D01*
X393099Y472088D01*
X393183Y472100D01*
X393236Y472124D01*
X393293Y472138D01*
X393365Y472181D01*
X393442Y472216D01*
X393487Y472254D01*
X393537Y472284D01*
X393595Y472345D01*
X393659Y472400D01*
X393692Y472448D01*
X393732Y472491D01*
X393770Y472566D01*
X393817Y472636D01*
X393835Y472692D01*
X393861Y472744D01*
X393873Y472812D01*
X393903Y472907D01*
X393905Y473007D01*
X393917Y473075D01*
X393917Y493626D01*
X394661Y494371D01*
X410714Y494371D01*
X411458Y493626D01*
X411458Y473075D01*
X411466Y473017D01*
X411465Y472959D01*
X411486Y472877D01*
X411498Y472794D01*
X411522Y472740D01*
X411537Y472684D01*
X411580Y472611D01*
X411614Y472534D01*
X411652Y472489D01*
X411682Y472439D01*
X411744Y472381D01*
X411798Y472317D01*
X411847Y472285D01*
X411889Y472245D01*
X411964Y472206D01*
X412035Y472160D01*
X412090Y472142D01*
X412142Y472115D01*
X412210Y472104D01*
X412306Y472074D01*
X412405Y472071D01*
X412473Y472060D01*
X445809Y472060D01*
X445867Y472068D01*
X445925Y472066D01*
X446007Y472088D01*
X446091Y472100D01*
X446144Y472124D01*
X446200Y472138D01*
X446273Y472181D01*
X446350Y472216D01*
X446395Y472254D01*
X446445Y472284D01*
X446503Y472345D01*
X446567Y472400D01*
X446599Y472448D01*
X446639Y472491D01*
X446678Y472566D01*
X446725Y472636D01*
X446742Y472692D01*
X446769Y472744D01*
X446780Y472812D01*
X446810Y472907D01*
X446813Y473007D01*
X446824Y473075D01*
X446824Y536575D01*
X446816Y536633D01*
X446818Y536691D01*
X446796Y536773D01*
X446784Y536857D01*
X446761Y536910D01*
X446746Y536966D01*
X446703Y537039D01*
X446668Y537116D01*
X446630Y537161D01*
X446601Y537211D01*
X446539Y537269D01*
X446485Y537333D01*
X446436Y537365D01*
X446393Y537405D01*
X446318Y537444D01*
X446248Y537491D01*
X446192Y537508D01*
X446140Y537535D01*
X446072Y537546D01*
X445977Y537576D01*
X445877Y537579D01*
X445809Y537590D01*
X432513Y537590D01*
X432427Y537578D01*
X432339Y537575D01*
X432287Y537558D01*
X432232Y537550D01*
X432152Y537515D01*
X432069Y537488D01*
X432030Y537460D01*
X431973Y537434D01*
X431859Y537338D01*
X431796Y537293D01*
X428286Y533783D01*
X421287Y530884D01*
X413713Y530884D01*
X406714Y533783D01*
X403204Y537293D01*
X403135Y537345D01*
X403071Y537405D01*
X403021Y537431D01*
X402977Y537464D01*
X402896Y537495D01*
X402818Y537535D01*
X402770Y537543D01*
X402712Y537565D01*
X402564Y537577D01*
X402487Y537590D01*
X47513Y537590D01*
X47427Y537578D01*
X47339Y537575D01*
X47287Y537558D01*
X47232Y537550D01*
X47152Y537515D01*
X47069Y537488D01*
X47030Y537460D01*
X46973Y537434D01*
X46859Y537338D01*
X46796Y537293D01*
X43286Y533783D01*
X36287Y530884D01*
X28713Y530884D01*
X21714Y533783D01*
X18204Y537293D01*
X18135Y537345D01*
X18071Y537405D01*
X18021Y537431D01*
X17977Y537464D01*
X17896Y537495D01*
X17818Y537535D01*
X17770Y537543D01*
X17712Y537565D01*
X17564Y537577D01*
X17487Y537590D01*
X4191Y537590D01*
X4133Y537582D01*
X4075Y537584D01*
X3993Y537562D01*
X3909Y537550D01*
X3856Y537527D01*
X3800Y537512D01*
X3727Y537469D01*
X3650Y537434D01*
X3605Y537396D01*
X3555Y537367D01*
X3497Y537305D01*
X3433Y537251D01*
X3401Y537202D01*
X3361Y537159D01*
X3322Y537084D01*
X3275Y537014D01*
X3258Y536958D01*
X3231Y536906D01*
X3220Y536838D01*
X3190Y536743D01*
X3187Y536643D01*
X3176Y536575D01*
X3176Y473075D01*
X3184Y473017D01*
X3182Y472959D01*
X3204Y472877D01*
X3216Y472793D01*
X3239Y472740D01*
X3254Y472684D01*
X3297Y472611D01*
X3332Y472534D01*
X3370Y472489D01*
X3399Y472439D01*
X3461Y472381D01*
X3515Y472317D01*
X3564Y472285D01*
X3607Y472245D01*
X3682Y472206D01*
X3752Y472159D01*
X3808Y472142D01*
X3860Y472115D01*
X3928Y472104D01*
X4023Y472074D01*
X4123Y472071D01*
X4191Y472060D01*
X38377Y472060D01*
X38434Y472068D01*
X38493Y472066D01*
X38574Y472088D01*
X38658Y472100D01*
X38711Y472123D01*
X38768Y472138D01*
X38840Y472181D01*
X38917Y472216D01*
X38962Y472254D01*
X39012Y472283D01*
X39070Y472345D01*
X39134Y472399D01*
X39167Y472448D01*
X39207Y472491D01*
X39245Y472566D01*
X39292Y472636D01*
X39310Y472692D01*
X39336Y472744D01*
X39348Y472812D01*
X39378Y472907D01*
X39380Y473007D01*
X39392Y473075D01*
X39392Y493626D01*
X40136Y494371D01*
X56189Y494371D01*
X56933Y493626D01*
X56933Y488696D01*
X56941Y488638D01*
X56940Y488580D01*
X56961Y488498D01*
X56973Y488414D01*
X56997Y488361D01*
X57012Y488305D01*
X57055Y488232D01*
X57089Y488155D01*
X57127Y488110D01*
X57157Y488060D01*
X57219Y488002D01*
X57273Y487938D01*
X57322Y487906D01*
X57364Y487866D01*
X57439Y487827D01*
X57510Y487780D01*
X57565Y487763D01*
X57617Y487736D01*
X57685Y487725D01*
X57781Y487695D01*
X57880Y487692D01*
X57948Y487681D01*
X70500Y487681D01*
X70587Y487693D01*
X70674Y487696D01*
X70727Y487713D01*
X70781Y487721D01*
X70861Y487756D01*
X70944Y487783D01*
X70984Y487811D01*
X71041Y487837D01*
X71154Y487933D01*
X71218Y487978D01*
X90784Y507545D01*
X92652Y508318D01*
X117698Y508318D01*
X119566Y507545D01*
X121137Y505973D01*
X121138Y505973D01*
X131166Y495944D01*
X131167Y495943D01*
X131168Y495942D01*
X131238Y495890D01*
X131297Y495834D01*
X131344Y495810D01*
X131393Y495773D01*
X131395Y495773D01*
X131396Y495772D01*
X131486Y495738D01*
X131550Y495705D01*
X131591Y495698D01*
X131659Y495672D01*
X131661Y495672D01*
X131662Y495671D01*
X131801Y495660D01*
X131832Y495658D01*
X131882Y495649D01*
X131890Y495649D01*
X131906Y495651D01*
X131942Y495648D01*
X131944Y495649D01*
X131945Y495649D01*
X131960Y495652D01*
X132082Y495676D01*
X132172Y495689D01*
X132193Y495699D01*
X132221Y495704D01*
X132248Y495718D01*
X132273Y495724D01*
X132808Y495946D01*
X137192Y495946D01*
X141243Y494268D01*
X144343Y491168D01*
X146021Y487117D01*
X146021Y482733D01*
X144343Y478682D01*
X141243Y475582D01*
X137455Y474013D01*
X137381Y473969D01*
X137302Y473934D01*
X137259Y473897D01*
X137210Y473868D01*
X137151Y473806D01*
X137085Y473751D01*
X137054Y473703D01*
X137015Y473662D01*
X136975Y473585D01*
X136928Y473514D01*
X136910Y473460D01*
X136884Y473409D01*
X136868Y473325D01*
X136842Y473243D01*
X136840Y473186D01*
X136829Y473130D01*
X136837Y473045D01*
X136835Y472959D01*
X136849Y472904D01*
X136854Y472847D01*
X136885Y472767D01*
X136906Y472684D01*
X136935Y472635D01*
X136956Y472582D01*
X137008Y472513D01*
X137052Y472439D01*
X137093Y472400D01*
X137127Y472355D01*
X137196Y472304D01*
X137259Y472245D01*
X137310Y472219D01*
X137355Y472185D01*
X137436Y472154D01*
X137512Y472115D01*
X137561Y472107D01*
X137621Y472084D01*
X137766Y472073D01*
X137843Y472060D01*
X148804Y472060D01*
X149621Y471243D01*
X149691Y471191D01*
X149755Y471131D01*
X149804Y471105D01*
X149848Y471072D01*
X149930Y471041D01*
X150008Y471001D01*
X150055Y470993D01*
X150114Y470971D01*
X150262Y470959D01*
X150339Y470946D01*
X152192Y470946D01*
X156243Y469268D01*
X159343Y466168D01*
X161021Y462117D01*
X161021Y457733D01*
X160987Y457651D01*
X160979Y457622D01*
X160965Y457594D01*
X160952Y457517D01*
X160916Y457376D01*
X160918Y457312D01*
X160910Y457263D01*
X160910Y427587D01*
X160914Y427556D01*
X160912Y427526D01*
X160929Y427449D01*
X160950Y427306D01*
X160976Y427247D01*
X160987Y427199D01*
X161021Y427117D01*
X161021Y422733D01*
X160987Y422651D01*
X160979Y422622D01*
X160965Y422594D01*
X160952Y422517D01*
X160916Y422376D01*
X160918Y422312D01*
X160910Y422263D01*
X160910Y411679D01*
X160926Y411565D01*
X160936Y411451D01*
X160946Y411425D01*
X160950Y411397D01*
X160997Y411293D01*
X161038Y411185D01*
X161055Y411163D01*
X161066Y411138D01*
X161140Y411050D01*
X161209Y410959D01*
X161232Y410942D01*
X161250Y410921D01*
X161345Y410857D01*
X161437Y410789D01*
X161463Y410779D01*
X161486Y410763D01*
X161596Y410729D01*
X161703Y410688D01*
X161731Y410686D01*
X161757Y410678D01*
X161872Y410675D01*
X161986Y410666D01*
X162011Y410671D01*
X162041Y410670D01*
X162298Y410737D01*
X162314Y410741D01*
X162808Y410946D01*
X167192Y410946D01*
X171243Y409268D01*
X174343Y406168D01*
X176021Y402117D01*
X176021Y397733D01*
X174343Y393682D01*
X171243Y390582D01*
X168929Y389624D01*
X168928Y389623D01*
X168927Y389623D01*
X168806Y389551D01*
X168685Y389479D01*
X168684Y389478D01*
X168682Y389477D01*
X168585Y389373D01*
X168489Y389273D01*
X168489Y389271D01*
X168488Y389270D01*
X168423Y389144D01*
X168359Y389020D01*
X168359Y389018D01*
X168358Y389017D01*
X168356Y389002D01*
X168304Y388741D01*
X168307Y388711D01*
X168303Y388686D01*
X168303Y369857D01*
X167557Y369111D01*
X167505Y369042D01*
X167445Y368978D01*
X167419Y368928D01*
X167386Y368884D01*
X167355Y368802D01*
X167315Y368725D01*
X167307Y368677D01*
X167285Y368618D01*
X167273Y368471D01*
X167260Y368393D01*
X167260Y366713D01*
X167268Y366655D01*
X167266Y366596D01*
X167288Y366515D01*
X167300Y366431D01*
X167324Y366378D01*
X167338Y366321D01*
X167381Y366249D01*
X167416Y366172D01*
X167454Y366127D01*
X167484Y366077D01*
X167545Y366019D01*
X167600Y365955D01*
X167648Y365922D01*
X167691Y365882D01*
X167766Y365844D01*
X167836Y365797D01*
X167892Y365779D01*
X167944Y365753D01*
X168012Y365741D01*
X168107Y365711D01*
X168207Y365709D01*
X168275Y365697D01*
X187325Y365697D01*
X187383Y365705D01*
G37*
G36*
X154759Y272043D02*
X154759Y272043D01*
X154818Y272041D01*
X154899Y272063D01*
X154983Y272075D01*
X155036Y272099D01*
X155093Y272113D01*
X155165Y272156D01*
X155242Y272191D01*
X155287Y272229D01*
X155337Y272259D01*
X155395Y272320D01*
X155459Y272375D01*
X155492Y272423D01*
X155532Y272466D01*
X155570Y272541D01*
X155617Y272611D01*
X155635Y272667D01*
X155661Y272719D01*
X155673Y272787D01*
X155703Y272882D01*
X155705Y272982D01*
X155717Y273050D01*
X155717Y279664D01*
X156461Y280408D01*
X164514Y280408D01*
X165258Y279664D01*
X165258Y273050D01*
X165266Y272992D01*
X165265Y272934D01*
X165286Y272852D01*
X165298Y272769D01*
X165322Y272715D01*
X165337Y272659D01*
X165380Y272586D01*
X165414Y272509D01*
X165452Y272464D01*
X165482Y272414D01*
X165544Y272356D01*
X165598Y272292D01*
X165647Y272260D01*
X165689Y272220D01*
X165764Y272181D01*
X165835Y272135D01*
X165890Y272117D01*
X165942Y272090D01*
X166010Y272079D01*
X166106Y272049D01*
X166205Y272046D01*
X166273Y272035D01*
X171864Y272035D01*
X171922Y272043D01*
X171980Y272041D01*
X172062Y272063D01*
X172146Y272075D01*
X172199Y272099D01*
X172255Y272113D01*
X172328Y272156D01*
X172405Y272191D01*
X172450Y272229D01*
X172500Y272259D01*
X172558Y272320D01*
X172622Y272375D01*
X172654Y272423D01*
X172694Y272466D01*
X172733Y272541D01*
X172780Y272611D01*
X172797Y272667D01*
X172824Y272719D01*
X172835Y272787D01*
X172865Y272882D01*
X172868Y272982D01*
X172879Y273050D01*
X172879Y279752D01*
X172871Y279809D01*
X172873Y279868D01*
X172851Y279949D01*
X172839Y280033D01*
X172816Y280086D01*
X172801Y280143D01*
X172758Y280215D01*
X172723Y280292D01*
X172685Y280337D01*
X172656Y280387D01*
X172594Y280445D01*
X172540Y280509D01*
X172491Y280542D01*
X172448Y280582D01*
X172373Y280620D01*
X172303Y280667D01*
X172247Y280685D01*
X172195Y280711D01*
X172127Y280723D01*
X172032Y280753D01*
X171932Y280755D01*
X171864Y280767D01*
X169124Y280767D01*
X168379Y281511D01*
X168379Y296564D01*
X169124Y297308D01*
X180176Y297308D01*
X180921Y296564D01*
X180921Y281423D01*
X180929Y281366D01*
X180927Y281307D01*
X180949Y281226D01*
X180961Y281142D01*
X180984Y281089D01*
X180999Y281032D01*
X181042Y280960D01*
X181077Y280883D01*
X181115Y280838D01*
X181144Y280788D01*
X181206Y280730D01*
X181260Y280666D01*
X181309Y280633D01*
X181352Y280593D01*
X181427Y280555D01*
X181497Y280508D01*
X181553Y280490D01*
X181605Y280464D01*
X181624Y280461D01*
X182421Y279664D01*
X182421Y273050D01*
X182429Y272992D01*
X182427Y272934D01*
X182449Y272852D01*
X182461Y272769D01*
X182484Y272715D01*
X182499Y272659D01*
X182542Y272586D01*
X182577Y272509D01*
X182615Y272464D01*
X182644Y272414D01*
X182706Y272356D01*
X182760Y272292D01*
X182809Y272260D01*
X182852Y272220D01*
X182927Y272181D01*
X182997Y272135D01*
X183053Y272117D01*
X183105Y272090D01*
X183173Y272079D01*
X183268Y272049D01*
X183368Y272046D01*
X183436Y272035D01*
X203614Y272035D01*
X203672Y272043D01*
X203730Y272041D01*
X203812Y272063D01*
X203896Y272075D01*
X203949Y272099D01*
X204005Y272113D01*
X204078Y272156D01*
X204155Y272191D01*
X204200Y272229D01*
X204250Y272259D01*
X204308Y272320D01*
X204372Y272375D01*
X204404Y272423D01*
X204444Y272466D01*
X204483Y272541D01*
X204530Y272611D01*
X204547Y272667D01*
X204574Y272719D01*
X204585Y272787D01*
X204615Y272882D01*
X204618Y272982D01*
X204629Y273050D01*
X204629Y279752D01*
X204621Y279809D01*
X204623Y279868D01*
X204601Y279949D01*
X204589Y280033D01*
X204566Y280086D01*
X204551Y280143D01*
X204508Y280215D01*
X204473Y280292D01*
X204435Y280337D01*
X204406Y280387D01*
X204344Y280445D01*
X204290Y280509D01*
X204241Y280542D01*
X204198Y280582D01*
X204123Y280620D01*
X204053Y280667D01*
X203997Y280685D01*
X203945Y280711D01*
X203877Y280723D01*
X203782Y280753D01*
X203682Y280755D01*
X203614Y280767D01*
X200874Y280767D01*
X200129Y281511D01*
X200129Y296564D01*
X200874Y297308D01*
X211926Y297308D01*
X212671Y296564D01*
X212671Y281423D01*
X212679Y281366D01*
X212677Y281307D01*
X212699Y281226D01*
X212711Y281142D01*
X212734Y281089D01*
X212749Y281032D01*
X212792Y280960D01*
X212827Y280883D01*
X212865Y280838D01*
X212894Y280788D01*
X212956Y280730D01*
X213010Y280666D01*
X213059Y280633D01*
X213102Y280593D01*
X213177Y280555D01*
X213247Y280508D01*
X213303Y280490D01*
X213355Y280464D01*
X213374Y280461D01*
X214171Y279664D01*
X214171Y273050D01*
X214179Y272992D01*
X214177Y272934D01*
X214199Y272852D01*
X214211Y272769D01*
X214234Y272715D01*
X214249Y272659D01*
X214292Y272586D01*
X214327Y272509D01*
X214365Y272464D01*
X214394Y272414D01*
X214456Y272356D01*
X214510Y272292D01*
X214559Y272260D01*
X214602Y272220D01*
X214677Y272181D01*
X214747Y272135D01*
X214803Y272117D01*
X214855Y272090D01*
X214923Y272079D01*
X215018Y272049D01*
X215118Y272046D01*
X215186Y272035D01*
X231775Y272035D01*
X231833Y272043D01*
X231891Y272041D01*
X231973Y272063D01*
X232057Y272075D01*
X232110Y272099D01*
X232166Y272113D01*
X232239Y272156D01*
X232316Y272191D01*
X232361Y272229D01*
X232411Y272259D01*
X232469Y272320D01*
X232533Y272375D01*
X232565Y272423D01*
X232605Y272466D01*
X232644Y272541D01*
X232691Y272611D01*
X232708Y272667D01*
X232735Y272719D01*
X232746Y272787D01*
X232776Y272882D01*
X232779Y272982D01*
X232790Y273050D01*
X232790Y322771D01*
X232782Y322828D01*
X232784Y322887D01*
X232762Y322968D01*
X232750Y323052D01*
X232727Y323105D01*
X232712Y323162D01*
X232669Y323234D01*
X232634Y323311D01*
X232596Y323356D01*
X232567Y323406D01*
X232505Y323464D01*
X232451Y323528D01*
X232402Y323561D01*
X232359Y323601D01*
X232284Y323639D01*
X232214Y323686D01*
X232158Y323704D01*
X232106Y323730D01*
X232038Y323742D01*
X231943Y323772D01*
X231843Y323774D01*
X231775Y323786D01*
X229776Y323786D01*
X226948Y326613D01*
X226948Y330645D01*
X226940Y330702D01*
X226942Y330761D01*
X226920Y330842D01*
X226908Y330926D01*
X226885Y330979D01*
X226870Y331036D01*
X226827Y331108D01*
X226792Y331185D01*
X226754Y331230D01*
X226725Y331280D01*
X226663Y331338D01*
X226609Y331402D01*
X226560Y331435D01*
X226517Y331475D01*
X226442Y331513D01*
X226372Y331560D01*
X226316Y331578D01*
X226264Y331604D01*
X226196Y331616D01*
X226101Y331646D01*
X226001Y331648D01*
X225933Y331660D01*
X224636Y331660D01*
X224578Y331652D01*
X224520Y331653D01*
X224438Y331632D01*
X224354Y331620D01*
X224301Y331596D01*
X224245Y331581D01*
X224172Y331538D01*
X224095Y331504D01*
X224050Y331466D01*
X224000Y331436D01*
X223942Y331374D01*
X223878Y331320D01*
X223846Y331271D01*
X223806Y331229D01*
X223767Y331154D01*
X223720Y331083D01*
X223703Y331028D01*
X223676Y330976D01*
X223665Y330908D01*
X223635Y330812D01*
X223632Y330713D01*
X223621Y330645D01*
X223621Y323936D01*
X222876Y323192D01*
X220218Y323192D01*
X220160Y323184D01*
X220102Y323185D01*
X220020Y323164D01*
X219936Y323152D01*
X219883Y323128D01*
X219827Y323113D01*
X219754Y323070D01*
X219677Y323036D01*
X219632Y322998D01*
X219582Y322968D01*
X219524Y322906D01*
X219460Y322852D01*
X219428Y322803D01*
X219388Y322761D01*
X219349Y322686D01*
X219302Y322615D01*
X219285Y322560D01*
X219258Y322508D01*
X219247Y322440D01*
X219217Y322344D01*
X219214Y322245D01*
X219203Y322177D01*
X219203Y320323D01*
X219211Y320266D01*
X219209Y320207D01*
X219231Y320126D01*
X219243Y320042D01*
X219266Y319989D01*
X219281Y319932D01*
X219324Y319860D01*
X219359Y319783D01*
X219397Y319738D01*
X219426Y319688D01*
X219488Y319630D01*
X219542Y319566D01*
X219591Y319533D01*
X219634Y319493D01*
X219709Y319455D01*
X219779Y319408D01*
X219835Y319390D01*
X219887Y319364D01*
X219955Y319352D01*
X220050Y319322D01*
X220150Y319320D01*
X220218Y319308D01*
X221426Y319308D01*
X222171Y318564D01*
X222171Y303511D01*
X221426Y302767D01*
X210374Y302767D01*
X209629Y303511D01*
X209629Y318564D01*
X210374Y319308D01*
X211582Y319308D01*
X211640Y319316D01*
X211698Y319315D01*
X211780Y319336D01*
X211864Y319348D01*
X211917Y319372D01*
X211973Y319387D01*
X212046Y319430D01*
X212123Y319464D01*
X212168Y319502D01*
X212218Y319532D01*
X212276Y319594D01*
X212340Y319648D01*
X212372Y319697D01*
X212412Y319739D01*
X212451Y319814D01*
X212498Y319885D01*
X212515Y319940D01*
X212542Y319992D01*
X212553Y320060D01*
X212583Y320156D01*
X212586Y320255D01*
X212597Y320323D01*
X212597Y322177D01*
X212589Y322234D01*
X212591Y322293D01*
X212569Y322374D01*
X212557Y322458D01*
X212534Y322511D01*
X212519Y322568D01*
X212476Y322640D01*
X212441Y322717D01*
X212403Y322762D01*
X212374Y322812D01*
X212312Y322870D01*
X212258Y322934D01*
X212209Y322967D01*
X212166Y323007D01*
X212091Y323045D01*
X212021Y323092D01*
X211965Y323110D01*
X211913Y323136D01*
X211845Y323148D01*
X211750Y323178D01*
X211650Y323180D01*
X211582Y323192D01*
X206824Y323192D01*
X206079Y323936D01*
X206079Y345989D01*
X207035Y346945D01*
X207070Y346991D01*
X207113Y347032D01*
X207155Y347104D01*
X207206Y347172D01*
X207227Y347226D01*
X207256Y347277D01*
X207277Y347359D01*
X207307Y347437D01*
X207312Y347496D01*
X207326Y347552D01*
X207324Y347637D01*
X207331Y347721D01*
X207319Y347778D01*
X207317Y347837D01*
X207291Y347917D01*
X207275Y348000D01*
X207248Y348051D01*
X207230Y348107D01*
X207190Y348163D01*
X207144Y348252D01*
X207075Y348324D01*
X207035Y348380D01*
X206079Y349336D01*
X206079Y356045D01*
X206071Y356102D01*
X206073Y356161D01*
X206051Y356242D01*
X206039Y356326D01*
X206016Y356379D01*
X206001Y356436D01*
X205958Y356508D01*
X205923Y356585D01*
X205885Y356630D01*
X205856Y356680D01*
X205794Y356738D01*
X205740Y356802D01*
X205691Y356835D01*
X205648Y356875D01*
X205573Y356913D01*
X205503Y356960D01*
X205447Y356978D01*
X205395Y357004D01*
X205327Y357016D01*
X205232Y357046D01*
X205132Y357048D01*
X205064Y357060D01*
X204989Y357060D01*
X204902Y357048D01*
X204815Y357045D01*
X204762Y357028D01*
X204707Y357020D01*
X204627Y356984D01*
X204544Y356957D01*
X204505Y356929D01*
X204448Y356904D01*
X204334Y356808D01*
X204271Y356762D01*
X200450Y352942D01*
X200437Y352925D01*
X200426Y352915D01*
X200396Y352870D01*
X200338Y352808D01*
X200312Y352759D01*
X200279Y352715D01*
X200248Y352633D01*
X200208Y352555D01*
X200200Y352507D01*
X200178Y352449D01*
X200166Y352301D01*
X200153Y352224D01*
X200153Y324069D01*
X190718Y314635D01*
X190666Y314565D01*
X190606Y314501D01*
X190580Y314452D01*
X190547Y314408D01*
X190516Y314326D01*
X190476Y314248D01*
X190468Y314200D01*
X190446Y314142D01*
X190434Y313994D01*
X190421Y313917D01*
X190421Y303511D01*
X189676Y302767D01*
X178624Y302767D01*
X177879Y303511D01*
X177879Y318564D01*
X178624Y319308D01*
X185629Y319308D01*
X185716Y319320D01*
X185803Y319323D01*
X185856Y319340D01*
X185911Y319348D01*
X185991Y319384D01*
X186074Y319411D01*
X186113Y319439D01*
X186170Y319464D01*
X186284Y319560D01*
X186347Y319606D01*
X193250Y326508D01*
X193302Y326578D01*
X193362Y326642D01*
X193388Y326691D01*
X193421Y326735D01*
X193452Y326817D01*
X193492Y326895D01*
X193500Y326943D01*
X193522Y327001D01*
X193534Y327149D01*
X193547Y327226D01*
X193547Y355381D01*
X199399Y361232D01*
X199416Y361256D01*
X199439Y361275D01*
X199502Y361369D01*
X199570Y361459D01*
X199580Y361487D01*
X199596Y361511D01*
X199631Y361619D01*
X199671Y361725D01*
X199673Y361754D01*
X199682Y361782D01*
X199685Y361896D01*
X199695Y362008D01*
X199689Y362037D01*
X199690Y362066D01*
X199661Y362176D01*
X199639Y362287D01*
X199625Y362313D01*
X199618Y362341D01*
X199560Y362439D01*
X199508Y362539D01*
X199487Y362561D01*
X199472Y362586D01*
X199390Y362663D01*
X199312Y362745D01*
X199287Y362760D01*
X199265Y362780D01*
X199164Y362832D01*
X199067Y362889D01*
X199038Y362896D01*
X199012Y362910D01*
X198935Y362923D01*
X198791Y362959D01*
X198729Y362957D01*
X198681Y362965D01*
X188636Y362965D01*
X188578Y362957D01*
X188520Y362959D01*
X188438Y362937D01*
X188354Y362925D01*
X188301Y362902D01*
X188245Y362887D01*
X188172Y362844D01*
X188095Y362809D01*
X188050Y362771D01*
X188000Y362742D01*
X187942Y362680D01*
X187878Y362626D01*
X187846Y362577D01*
X187806Y362534D01*
X187767Y362459D01*
X187720Y362389D01*
X187703Y362333D01*
X187676Y362281D01*
X187665Y362213D01*
X187635Y362118D01*
X187632Y362018D01*
X187621Y361950D01*
X187621Y349336D01*
X186768Y348483D01*
X186716Y348414D01*
X186656Y348350D01*
X186630Y348300D01*
X186597Y348256D01*
X186566Y348175D01*
X186526Y348097D01*
X186518Y348049D01*
X186496Y347991D01*
X186484Y347843D01*
X186471Y347766D01*
X186471Y347559D01*
X186483Y347473D01*
X186486Y347385D01*
X186503Y347333D01*
X186511Y347278D01*
X186546Y347198D01*
X186573Y347115D01*
X186601Y347076D01*
X186627Y347018D01*
X186723Y346905D01*
X186768Y346842D01*
X187621Y345989D01*
X187621Y323936D01*
X186876Y323192D01*
X170824Y323192D01*
X170079Y323936D01*
X170079Y345989D01*
X170932Y346842D01*
X170984Y346911D01*
X171044Y346975D01*
X171070Y347025D01*
X171103Y347069D01*
X171134Y347150D01*
X171174Y347228D01*
X171182Y347276D01*
X171204Y347334D01*
X171216Y347482D01*
X171229Y347559D01*
X171229Y347766D01*
X171217Y347852D01*
X171214Y347940D01*
X171197Y347992D01*
X171189Y348047D01*
X171154Y348127D01*
X171127Y348210D01*
X171099Y348249D01*
X171073Y348307D01*
X170977Y348420D01*
X170932Y348483D01*
X170079Y349336D01*
X170079Y361950D01*
X170071Y362008D01*
X170073Y362066D01*
X170051Y362148D01*
X170039Y362232D01*
X170016Y362285D01*
X170001Y362341D01*
X169958Y362414D01*
X169923Y362491D01*
X169885Y362536D01*
X169856Y362586D01*
X169794Y362644D01*
X169740Y362708D01*
X169691Y362740D01*
X169648Y362780D01*
X169573Y362819D01*
X169503Y362866D01*
X169447Y362883D01*
X169395Y362910D01*
X169327Y362921D01*
X169232Y362951D01*
X169132Y362954D01*
X169064Y362965D01*
X164686Y362965D01*
X164628Y362957D01*
X164570Y362959D01*
X164488Y362937D01*
X164404Y362925D01*
X164351Y362902D01*
X164295Y362887D01*
X164222Y362844D01*
X164145Y362809D01*
X164100Y362771D01*
X164050Y362742D01*
X163992Y362680D01*
X163928Y362626D01*
X163896Y362577D01*
X163856Y362534D01*
X163817Y362459D01*
X163770Y362389D01*
X163753Y362333D01*
X163726Y362281D01*
X163715Y362213D01*
X163685Y362118D01*
X163682Y362018D01*
X163671Y361950D01*
X163671Y360099D01*
X162855Y359283D01*
X162827Y359276D01*
X162754Y359233D01*
X162677Y359198D01*
X162632Y359160D01*
X162582Y359131D01*
X162524Y359069D01*
X162460Y359015D01*
X162428Y358966D01*
X162388Y358923D01*
X162349Y358848D01*
X162302Y358778D01*
X162285Y358722D01*
X162258Y358670D01*
X162247Y358602D01*
X162217Y358507D01*
X162214Y358407D01*
X162203Y358339D01*
X162203Y354382D01*
X158968Y351147D01*
X158916Y351078D01*
X158856Y351014D01*
X158830Y350964D01*
X158797Y350920D01*
X158766Y350838D01*
X158726Y350760D01*
X158718Y350713D01*
X158696Y350654D01*
X158684Y350507D01*
X158671Y350429D01*
X158671Y340024D01*
X157926Y339279D01*
X146874Y339279D01*
X146129Y340024D01*
X146129Y355076D01*
X146874Y355821D01*
X153879Y355821D01*
X153966Y355833D01*
X154053Y355836D01*
X154106Y355853D01*
X154161Y355861D01*
X154241Y355896D01*
X154324Y355923D01*
X154363Y355951D01*
X154420Y355977D01*
X154534Y356073D01*
X154597Y356118D01*
X155300Y356821D01*
X155352Y356890D01*
X155412Y356954D01*
X155438Y357004D01*
X155471Y357048D01*
X155502Y357130D01*
X155542Y357208D01*
X155550Y357255D01*
X155572Y357314D01*
X155584Y357461D01*
X155597Y357539D01*
X155597Y358339D01*
X155589Y358396D01*
X155591Y358447D01*
X155590Y358448D01*
X155591Y358455D01*
X155569Y358537D01*
X155557Y358621D01*
X155534Y358674D01*
X155519Y358730D01*
X155476Y358803D01*
X155441Y358880D01*
X155403Y358925D01*
X155374Y358975D01*
X155312Y359033D01*
X155258Y359097D01*
X155209Y359129D01*
X155166Y359169D01*
X155091Y359208D01*
X155021Y359255D01*
X154965Y359272D01*
X154946Y359282D01*
X154129Y360099D01*
X154129Y370396D01*
X154121Y370453D01*
X154123Y370512D01*
X154101Y370593D01*
X154089Y370677D01*
X154066Y370730D01*
X154051Y370787D01*
X154008Y370859D01*
X153973Y370936D01*
X153935Y370981D01*
X153906Y371031D01*
X153844Y371089D01*
X153790Y371153D01*
X153741Y371186D01*
X153698Y371226D01*
X153623Y371264D01*
X153553Y371311D01*
X153497Y371329D01*
X153445Y371355D01*
X153377Y371367D01*
X153282Y371397D01*
X153182Y371399D01*
X153114Y371411D01*
X151686Y371411D01*
X151628Y371403D01*
X151570Y371404D01*
X151488Y371383D01*
X151404Y371371D01*
X151351Y371347D01*
X151295Y371332D01*
X151222Y371289D01*
X151145Y371255D01*
X151100Y371217D01*
X151050Y371187D01*
X150992Y371125D01*
X150928Y371071D01*
X150896Y371022D01*
X150856Y370980D01*
X150817Y370905D01*
X150770Y370834D01*
X150753Y370779D01*
X150726Y370727D01*
X150715Y370659D01*
X150685Y370563D01*
X150682Y370464D01*
X150671Y370396D01*
X150671Y360099D01*
X149926Y359354D01*
X141874Y359354D01*
X141129Y360099D01*
X141129Y370151D01*
X141965Y370987D01*
X141979Y371006D01*
X141997Y371021D01*
X142064Y371119D01*
X142136Y371214D01*
X142144Y371236D01*
X142157Y371256D01*
X142195Y371369D01*
X142237Y371480D01*
X142239Y371503D01*
X142246Y371526D01*
X142251Y371645D01*
X142260Y371763D01*
X142256Y371786D01*
X142257Y371810D01*
X142228Y371925D01*
X142205Y372042D01*
X142194Y372063D01*
X142188Y372086D01*
X142128Y372189D01*
X142074Y372294D01*
X142057Y372311D01*
X142045Y372332D01*
X141960Y372414D01*
X141878Y372500D01*
X141857Y372512D01*
X141840Y372529D01*
X141735Y372584D01*
X141633Y372644D01*
X141610Y372650D01*
X141589Y372661D01*
X141513Y372674D01*
X141357Y372714D01*
X141301Y372712D01*
X141258Y372720D01*
X127947Y372868D01*
X127884Y372860D01*
X127820Y372861D01*
X127743Y372841D01*
X127665Y372831D01*
X127607Y372806D01*
X127545Y372789D01*
X127477Y372749D01*
X127405Y372718D01*
X127355Y372677D01*
X127300Y372644D01*
X127246Y372587D01*
X127186Y372537D01*
X127150Y372484D01*
X127106Y372437D01*
X127070Y372367D01*
X127025Y372302D01*
X127005Y372241D01*
X126976Y372184D01*
X126965Y372119D01*
X126937Y372032D01*
X126933Y371924D01*
X126921Y371853D01*
X126921Y359074D01*
X126176Y358329D01*
X115124Y358329D01*
X114379Y359074D01*
X114379Y372015D01*
X114372Y372067D01*
X114374Y372120D01*
X114352Y372207D01*
X114339Y372296D01*
X114318Y372344D01*
X114305Y372396D01*
X114260Y372474D01*
X114223Y372555D01*
X114189Y372596D01*
X114163Y372642D01*
X114098Y372704D01*
X114040Y372772D01*
X113996Y372802D01*
X113957Y372838D01*
X113878Y372880D01*
X113803Y372930D01*
X113752Y372946D01*
X113706Y372971D01*
X113635Y372983D01*
X113532Y373016D01*
X113440Y373018D01*
X113375Y373030D01*
X96197Y373221D01*
X96134Y373212D01*
X96070Y373214D01*
X95993Y373194D01*
X95915Y373184D01*
X95857Y373158D01*
X95795Y373142D01*
X95727Y373102D01*
X95655Y373071D01*
X95605Y373030D01*
X95550Y372997D01*
X95496Y372939D01*
X95436Y372889D01*
X95400Y372836D01*
X95356Y372790D01*
X95320Y372719D01*
X95275Y372654D01*
X95255Y372594D01*
X95226Y372536D01*
X95215Y372472D01*
X95187Y372384D01*
X95183Y372277D01*
X95171Y372205D01*
X95171Y359074D01*
X94426Y358329D01*
X83374Y358329D01*
X82629Y359074D01*
X82629Y372367D01*
X82622Y372420D01*
X82624Y372472D01*
X82602Y372560D01*
X82589Y372649D01*
X82568Y372697D01*
X82555Y372748D01*
X82510Y372826D01*
X82473Y372908D01*
X82439Y372949D01*
X82413Y372994D01*
X82348Y373057D01*
X82290Y373125D01*
X82246Y373155D01*
X82207Y373191D01*
X82128Y373233D01*
X82053Y373283D01*
X82002Y373299D01*
X81956Y373323D01*
X81885Y373336D01*
X81782Y373369D01*
X81690Y373371D01*
X81625Y373383D01*
X64447Y373573D01*
X64384Y373565D01*
X64320Y373567D01*
X64243Y373547D01*
X64165Y373537D01*
X64107Y373511D01*
X64045Y373495D01*
X63977Y373455D01*
X63905Y373423D01*
X63855Y373382D01*
X63800Y373350D01*
X63746Y373292D01*
X63686Y373242D01*
X63650Y373189D01*
X63606Y373142D01*
X63570Y373072D01*
X63525Y373007D01*
X63505Y372946D01*
X63476Y372889D01*
X63465Y372825D01*
X63437Y372737D01*
X63436Y372716D01*
X63435Y372712D01*
X63433Y372629D01*
X63421Y372558D01*
X63421Y359074D01*
X62676Y358329D01*
X51624Y358329D01*
X50879Y359074D01*
X50879Y372720D01*
X50872Y372772D01*
X50874Y372825D01*
X50852Y372913D01*
X50839Y373002D01*
X50818Y373050D01*
X50805Y373101D01*
X50760Y373179D01*
X50723Y373261D01*
X50689Y373301D01*
X50663Y373347D01*
X50598Y373409D01*
X50540Y373478D01*
X50496Y373507D01*
X50457Y373544D01*
X50378Y373586D01*
X50303Y373636D01*
X50252Y373652D01*
X50206Y373676D01*
X50135Y373689D01*
X50032Y373721D01*
X49940Y373724D01*
X49875Y373735D01*
X28663Y373971D01*
X28629Y373966D01*
X28594Y373969D01*
X28488Y373948D01*
X28381Y373934D01*
X28349Y373920D01*
X28315Y373913D01*
X28219Y373864D01*
X28121Y373821D01*
X28094Y373799D01*
X28063Y373782D01*
X27984Y373708D01*
X27902Y373640D01*
X27882Y373611D01*
X27857Y373587D01*
X27802Y373494D01*
X27741Y373405D01*
X27731Y373372D01*
X27713Y373341D01*
X27686Y373237D01*
X27653Y373135D01*
X27651Y373100D01*
X27643Y373066D01*
X27646Y372958D01*
X27642Y372851D01*
X27651Y372817D01*
X27652Y372782D01*
X27685Y372679D01*
X27711Y372575D01*
X27729Y372544D01*
X27739Y372511D01*
X27785Y372448D01*
X27854Y372329D01*
X27904Y372281D01*
X27934Y372238D01*
X27996Y372176D01*
X27996Y364124D01*
X27776Y363904D01*
X27758Y363880D01*
X27736Y363861D01*
X27673Y363767D01*
X27605Y363677D01*
X27595Y363649D01*
X27578Y363625D01*
X27544Y363517D01*
X27504Y363411D01*
X27501Y363382D01*
X27493Y363354D01*
X27490Y363241D01*
X27480Y363128D01*
X27486Y363099D01*
X27485Y363070D01*
X27514Y362960D01*
X27536Y362849D01*
X27550Y362823D01*
X27557Y362795D01*
X27615Y362697D01*
X27667Y362597D01*
X27687Y362575D01*
X27702Y362550D01*
X27785Y362473D01*
X27863Y362391D01*
X27888Y362376D01*
X27910Y362356D01*
X28010Y362304D01*
X28108Y362247D01*
X28137Y362240D01*
X28163Y362226D01*
X28240Y362213D01*
X28384Y362177D01*
X28446Y362179D01*
X28494Y362171D01*
X30926Y362171D01*
X31671Y361426D01*
X31671Y346374D01*
X30926Y345629D01*
X19874Y345629D01*
X19768Y345735D01*
X19744Y345753D01*
X19726Y345775D01*
X19631Y345838D01*
X19541Y345906D01*
X19513Y345916D01*
X19489Y345933D01*
X19381Y345967D01*
X19275Y346007D01*
X19246Y346010D01*
X19218Y346018D01*
X19105Y346021D01*
X18992Y346031D01*
X18963Y346025D01*
X18934Y346026D01*
X18824Y345997D01*
X18713Y345975D01*
X18687Y345961D01*
X18659Y345954D01*
X18561Y345896D01*
X18461Y345844D01*
X18439Y345824D01*
X18414Y345809D01*
X18337Y345726D01*
X18255Y345648D01*
X18240Y345623D01*
X18220Y345601D01*
X18168Y345500D01*
X18111Y345403D01*
X18104Y345374D01*
X18090Y345348D01*
X18077Y345271D01*
X18041Y345127D01*
X18043Y345065D01*
X18035Y345017D01*
X18035Y341186D01*
X18043Y341128D01*
X18041Y341070D01*
X18063Y340988D01*
X18075Y340904D01*
X18099Y340851D01*
X18113Y340795D01*
X18156Y340722D01*
X18191Y340645D01*
X18229Y340600D01*
X18259Y340550D01*
X18320Y340492D01*
X18375Y340428D01*
X18423Y340396D01*
X18466Y340356D01*
X18541Y340317D01*
X18611Y340270D01*
X18667Y340253D01*
X18719Y340226D01*
X18787Y340215D01*
X18882Y340185D01*
X18982Y340182D01*
X19050Y340171D01*
X21426Y340171D01*
X22171Y339426D01*
X22171Y327409D01*
X22183Y327322D01*
X22186Y327235D01*
X22203Y327182D01*
X22211Y327127D01*
X22246Y327047D01*
X22273Y326964D01*
X22301Y326925D01*
X22327Y326868D01*
X22423Y326755D01*
X22468Y326691D01*
X24003Y325156D01*
X24073Y325103D01*
X24137Y325043D01*
X24186Y325018D01*
X24231Y324985D01*
X24312Y324954D01*
X24390Y324914D01*
X24438Y324906D01*
X24496Y324883D01*
X24644Y324871D01*
X24721Y324858D01*
X30864Y324858D01*
X31608Y324114D01*
X31608Y314325D01*
X31616Y314267D01*
X31615Y314209D01*
X31636Y314127D01*
X31648Y314044D01*
X31672Y313990D01*
X31687Y313934D01*
X31730Y313861D01*
X31764Y313784D01*
X31802Y313739D01*
X31832Y313689D01*
X31894Y313631D01*
X31948Y313567D01*
X31997Y313535D01*
X32039Y313495D01*
X32114Y313456D01*
X32185Y313410D01*
X32240Y313392D01*
X32292Y313365D01*
X32360Y313354D01*
X32456Y313324D01*
X32555Y313321D01*
X32623Y313310D01*
X44864Y313310D01*
X44922Y313318D01*
X44980Y313316D01*
X45062Y313338D01*
X45146Y313350D01*
X45199Y313374D01*
X45255Y313388D01*
X45328Y313431D01*
X45405Y313466D01*
X45450Y313504D01*
X45500Y313534D01*
X45558Y313595D01*
X45622Y313650D01*
X45654Y313698D01*
X45694Y313741D01*
X45733Y313816D01*
X45780Y313886D01*
X45797Y313942D01*
X45824Y313994D01*
X45835Y314062D01*
X45865Y314157D01*
X45868Y314257D01*
X45879Y314325D01*
X45879Y324198D01*
X45883Y324208D01*
X45913Y324258D01*
X45933Y324340D01*
X45963Y324419D01*
X45968Y324477D01*
X45983Y324534D01*
X45980Y324618D01*
X45987Y324702D01*
X45975Y324759D01*
X45974Y324818D01*
X45948Y324898D01*
X45931Y324981D01*
X45904Y325033D01*
X45886Y325088D01*
X45879Y325098D01*
X45879Y335314D01*
X45871Y335372D01*
X45873Y335430D01*
X45851Y335512D01*
X45839Y335596D01*
X45816Y335649D01*
X45801Y335705D01*
X45758Y335778D01*
X45723Y335855D01*
X45685Y335900D01*
X45656Y335950D01*
X45594Y336008D01*
X45540Y336072D01*
X45491Y336104D01*
X45448Y336144D01*
X45373Y336183D01*
X45303Y336230D01*
X45247Y336247D01*
X45195Y336274D01*
X45127Y336285D01*
X45032Y336315D01*
X44932Y336318D01*
X44864Y336329D01*
X42124Y336329D01*
X41379Y337074D01*
X41379Y352126D01*
X42124Y352871D01*
X53176Y352871D01*
X53921Y352126D01*
X53921Y336986D01*
X53928Y336932D01*
X53927Y336894D01*
X53928Y336892D01*
X53927Y336870D01*
X53949Y336788D01*
X53961Y336704D01*
X53984Y336651D01*
X53999Y336595D01*
X54042Y336522D01*
X54077Y336445D01*
X54115Y336400D01*
X54144Y336350D01*
X54206Y336292D01*
X54260Y336228D01*
X54309Y336196D01*
X54352Y336156D01*
X54427Y336117D01*
X54497Y336070D01*
X54553Y336053D01*
X54605Y336026D01*
X54624Y336023D01*
X55421Y335226D01*
X55421Y325438D01*
X55429Y325380D01*
X55427Y325321D01*
X55449Y325240D01*
X55461Y325156D01*
X55484Y325103D01*
X55499Y325046D01*
X55542Y324974D01*
X55577Y324897D01*
X55615Y324852D01*
X55644Y324802D01*
X55706Y324744D01*
X55760Y324680D01*
X55809Y324647D01*
X55852Y324607D01*
X55927Y324569D01*
X55997Y324522D01*
X56053Y324504D01*
X56105Y324478D01*
X56173Y324466D01*
X56268Y324436D01*
X56368Y324434D01*
X56436Y324422D01*
X58767Y324422D01*
X58854Y324435D01*
X58941Y324437D01*
X58994Y324454D01*
X59049Y324462D01*
X59128Y324498D01*
X59212Y324525D01*
X59251Y324553D01*
X59308Y324578D01*
X59421Y324674D01*
X59485Y324720D01*
X59624Y324858D01*
X67676Y324858D01*
X67815Y324720D01*
X67885Y324667D01*
X67949Y324607D01*
X67998Y324582D01*
X68042Y324549D01*
X68124Y324518D01*
X68202Y324478D01*
X68249Y324470D01*
X68308Y324448D01*
X68456Y324435D01*
X68533Y324422D01*
X76614Y324422D01*
X76672Y324430D01*
X76730Y324429D01*
X76812Y324450D01*
X76896Y324462D01*
X76949Y324486D01*
X77005Y324501D01*
X77078Y324544D01*
X77155Y324578D01*
X77200Y324616D01*
X77250Y324646D01*
X77308Y324708D01*
X77372Y324762D01*
X77404Y324811D01*
X77444Y324853D01*
X77483Y324928D01*
X77530Y324999D01*
X77547Y325054D01*
X77574Y325106D01*
X77585Y325174D01*
X77615Y325270D01*
X77618Y325369D01*
X77629Y325438D01*
X77629Y335314D01*
X77621Y335372D01*
X77623Y335430D01*
X77601Y335512D01*
X77589Y335596D01*
X77566Y335649D01*
X77551Y335705D01*
X77508Y335778D01*
X77473Y335855D01*
X77435Y335900D01*
X77406Y335950D01*
X77344Y336008D01*
X77290Y336072D01*
X77241Y336104D01*
X77198Y336144D01*
X77123Y336183D01*
X77053Y336230D01*
X76997Y336247D01*
X76945Y336274D01*
X76877Y336285D01*
X76782Y336315D01*
X76682Y336318D01*
X76614Y336329D01*
X73874Y336329D01*
X73129Y337074D01*
X73129Y352126D01*
X73874Y352871D01*
X84926Y352871D01*
X85671Y352126D01*
X85671Y336986D01*
X85678Y336932D01*
X85677Y336894D01*
X85678Y336892D01*
X85677Y336870D01*
X85699Y336788D01*
X85711Y336704D01*
X85734Y336651D01*
X85749Y336595D01*
X85792Y336522D01*
X85827Y336445D01*
X85865Y336400D01*
X85894Y336350D01*
X85956Y336292D01*
X86010Y336228D01*
X86059Y336196D01*
X86102Y336156D01*
X86177Y336117D01*
X86247Y336070D01*
X86303Y336053D01*
X86355Y336026D01*
X86374Y336023D01*
X87171Y335226D01*
X87171Y325438D01*
X87179Y325380D01*
X87177Y325321D01*
X87199Y325240D01*
X87211Y325156D01*
X87234Y325103D01*
X87249Y325046D01*
X87292Y324974D01*
X87327Y324897D01*
X87365Y324852D01*
X87394Y324802D01*
X87456Y324744D01*
X87510Y324680D01*
X87559Y324647D01*
X87602Y324607D01*
X87677Y324569D01*
X87747Y324522D01*
X87803Y324504D01*
X87855Y324478D01*
X87923Y324466D01*
X88018Y324436D01*
X88118Y324434D01*
X88186Y324422D01*
X90517Y324422D01*
X90604Y324435D01*
X90691Y324437D01*
X90744Y324454D01*
X90799Y324462D01*
X90878Y324498D01*
X90962Y324525D01*
X91001Y324553D01*
X91058Y324578D01*
X91171Y324674D01*
X91235Y324720D01*
X91374Y324858D01*
X99426Y324858D01*
X99565Y324720D01*
X99635Y324667D01*
X99699Y324607D01*
X99748Y324582D01*
X99792Y324549D01*
X99874Y324518D01*
X99952Y324478D01*
X99999Y324470D01*
X100058Y324448D01*
X100206Y324435D01*
X100283Y324422D01*
X108364Y324422D01*
X108422Y324430D01*
X108480Y324429D01*
X108562Y324450D01*
X108646Y324462D01*
X108699Y324486D01*
X108755Y324501D01*
X108828Y324544D01*
X108905Y324578D01*
X108950Y324616D01*
X109000Y324646D01*
X109058Y324708D01*
X109122Y324762D01*
X109154Y324811D01*
X109194Y324853D01*
X109233Y324928D01*
X109280Y324999D01*
X109297Y325054D01*
X109324Y325106D01*
X109335Y325174D01*
X109365Y325270D01*
X109368Y325369D01*
X109379Y325438D01*
X109379Y335314D01*
X109371Y335372D01*
X109373Y335430D01*
X109351Y335512D01*
X109339Y335596D01*
X109316Y335649D01*
X109301Y335705D01*
X109258Y335778D01*
X109223Y335855D01*
X109185Y335900D01*
X109156Y335950D01*
X109094Y336008D01*
X109040Y336072D01*
X108991Y336104D01*
X108948Y336144D01*
X108873Y336183D01*
X108803Y336230D01*
X108747Y336247D01*
X108695Y336274D01*
X108627Y336285D01*
X108532Y336315D01*
X108432Y336318D01*
X108364Y336329D01*
X105624Y336329D01*
X104879Y337074D01*
X104879Y352126D01*
X105624Y352871D01*
X116676Y352871D01*
X117421Y352126D01*
X117421Y336986D01*
X117428Y336932D01*
X117427Y336894D01*
X117428Y336892D01*
X117427Y336870D01*
X117449Y336788D01*
X117461Y336704D01*
X117484Y336651D01*
X117499Y336595D01*
X117542Y336522D01*
X117577Y336445D01*
X117615Y336400D01*
X117644Y336350D01*
X117706Y336292D01*
X117760Y336228D01*
X117809Y336196D01*
X117852Y336156D01*
X117927Y336117D01*
X117997Y336070D01*
X118053Y336053D01*
X118105Y336026D01*
X118124Y336023D01*
X118921Y335226D01*
X118921Y325438D01*
X118929Y325380D01*
X118927Y325321D01*
X118949Y325240D01*
X118961Y325156D01*
X118984Y325103D01*
X118999Y325046D01*
X119042Y324974D01*
X119077Y324897D01*
X119115Y324852D01*
X119144Y324802D01*
X119206Y324744D01*
X119260Y324680D01*
X119309Y324647D01*
X119352Y324607D01*
X119427Y324569D01*
X119497Y324522D01*
X119553Y324504D01*
X119605Y324478D01*
X119673Y324466D01*
X119768Y324436D01*
X119868Y324434D01*
X119936Y324422D01*
X122267Y324422D01*
X122354Y324435D01*
X122441Y324437D01*
X122494Y324454D01*
X122549Y324462D01*
X122628Y324498D01*
X122712Y324525D01*
X122751Y324553D01*
X122808Y324578D01*
X122921Y324674D01*
X122985Y324720D01*
X123124Y324858D01*
X131176Y324858D01*
X131315Y324720D01*
X131385Y324667D01*
X131449Y324607D01*
X131498Y324582D01*
X131542Y324549D01*
X131624Y324518D01*
X131702Y324478D01*
X131749Y324470D01*
X131808Y324448D01*
X131956Y324435D01*
X132033Y324422D01*
X135614Y324422D01*
X135672Y324430D01*
X135730Y324429D01*
X135812Y324450D01*
X135896Y324462D01*
X135949Y324486D01*
X136005Y324501D01*
X136078Y324544D01*
X136155Y324578D01*
X136200Y324616D01*
X136250Y324646D01*
X136308Y324708D01*
X136372Y324762D01*
X136404Y324811D01*
X136444Y324853D01*
X136483Y324928D01*
X136530Y324999D01*
X136547Y325054D01*
X136574Y325106D01*
X136585Y325174D01*
X136615Y325270D01*
X136618Y325369D01*
X136629Y325438D01*
X136629Y333076D01*
X137374Y333821D01*
X148426Y333821D01*
X149171Y333076D01*
X149171Y317936D01*
X149179Y317878D01*
X149177Y317820D01*
X149199Y317738D01*
X149211Y317654D01*
X149234Y317601D01*
X149249Y317545D01*
X149292Y317472D01*
X149327Y317395D01*
X149365Y317350D01*
X149394Y317300D01*
X149456Y317242D01*
X149510Y317178D01*
X149559Y317146D01*
X149602Y317106D01*
X149677Y317067D01*
X149747Y317020D01*
X149803Y317003D01*
X149855Y316976D01*
X149874Y316973D01*
X150671Y316176D01*
X150671Y306040D01*
X150667Y306030D01*
X150637Y305979D01*
X150617Y305898D01*
X150587Y305819D01*
X150582Y305760D01*
X150567Y305704D01*
X150570Y305619D01*
X150563Y305535D01*
X150575Y305478D01*
X150576Y305420D01*
X150602Y305339D01*
X150619Y305257D01*
X150646Y305205D01*
X150664Y305149D01*
X150671Y305140D01*
X150671Y295011D01*
X149926Y294267D01*
X142875Y294267D01*
X142817Y294259D01*
X142759Y294260D01*
X142677Y294239D01*
X142594Y294227D01*
X142540Y294203D01*
X142484Y294188D01*
X142411Y294145D01*
X142334Y294111D01*
X142289Y294073D01*
X142239Y294043D01*
X142181Y293981D01*
X142117Y293927D01*
X142085Y293878D01*
X142045Y293836D01*
X142006Y293761D01*
X141960Y293690D01*
X141942Y293635D01*
X141915Y293583D01*
X141904Y293515D01*
X141874Y293419D01*
X141871Y293320D01*
X141860Y293252D01*
X141860Y287662D01*
X141864Y287633D01*
X141861Y287604D01*
X141884Y287492D01*
X141900Y287380D01*
X141912Y287354D01*
X141917Y287325D01*
X141970Y287224D01*
X142016Y287121D01*
X142035Y287099D01*
X142048Y287072D01*
X142126Y286990D01*
X142200Y286904D01*
X142224Y286888D01*
X142244Y286866D01*
X142342Y286809D01*
X142436Y286746D01*
X142464Y286737D01*
X142489Y286723D01*
X142599Y286695D01*
X142707Y286661D01*
X142737Y286660D01*
X142765Y286653D01*
X142878Y286656D01*
X142991Y286653D01*
X143020Y286661D01*
X143049Y286662D01*
X143157Y286696D01*
X143266Y286725D01*
X143292Y286740D01*
X143320Y286749D01*
X143383Y286795D01*
X143511Y286870D01*
X143554Y286916D01*
X143593Y286944D01*
X145638Y288989D01*
X149637Y288989D01*
X152464Y286162D01*
X152464Y282163D01*
X151829Y281528D01*
X151794Y281482D01*
X151752Y281441D01*
X151709Y281369D01*
X151659Y281301D01*
X151638Y281247D01*
X151608Y281196D01*
X151587Y281115D01*
X151557Y281036D01*
X151552Y280977D01*
X151538Y280921D01*
X151541Y280836D01*
X151534Y280752D01*
X151545Y280695D01*
X151547Y280637D01*
X151573Y280556D01*
X151590Y280474D01*
X151617Y280422D01*
X151635Y280366D01*
X151675Y280310D01*
X151721Y280221D01*
X151789Y280149D01*
X151829Y280093D01*
X152258Y279664D01*
X152258Y273050D01*
X152266Y272992D01*
X152265Y272934D01*
X152286Y272852D01*
X152298Y272769D01*
X152322Y272715D01*
X152337Y272659D01*
X152380Y272586D01*
X152414Y272509D01*
X152452Y272464D01*
X152482Y272414D01*
X152544Y272356D01*
X152598Y272292D01*
X152647Y272260D01*
X152689Y272220D01*
X152764Y272181D01*
X152835Y272135D01*
X152890Y272117D01*
X152942Y272090D01*
X153010Y272079D01*
X153106Y272049D01*
X153205Y272046D01*
X153273Y272035D01*
X154702Y272035D01*
X154759Y272043D01*
G37*
G36*
X103245Y3184D02*
X103245Y3184D01*
X103304Y3182D01*
X103385Y3204D01*
X103469Y3216D01*
X103522Y3239D01*
X103579Y3254D01*
X103651Y3297D01*
X103728Y3332D01*
X103773Y3370D01*
X103823Y3399D01*
X103881Y3461D01*
X103945Y3515D01*
X103978Y3564D01*
X104018Y3607D01*
X104056Y3682D01*
X104103Y3752D01*
X104121Y3808D01*
X104147Y3860D01*
X104159Y3928D01*
X104189Y4023D01*
X104191Y4123D01*
X104203Y4191D01*
X104203Y52960D01*
X107689Y52960D01*
X107747Y52968D01*
X107805Y52966D01*
X107887Y52988D01*
X107971Y53000D01*
X108024Y53024D01*
X108080Y53038D01*
X108153Y53081D01*
X108230Y53116D01*
X108275Y53154D01*
X108325Y53184D01*
X108383Y53245D01*
X108447Y53300D01*
X108479Y53348D01*
X108519Y53391D01*
X108558Y53466D01*
X108605Y53536D01*
X108622Y53592D01*
X108649Y53644D01*
X108660Y53712D01*
X108690Y53807D01*
X108693Y53907D01*
X108704Y53975D01*
X108704Y54676D01*
X109449Y55421D01*
X125501Y55421D01*
X126246Y54676D01*
X126246Y53975D01*
X126254Y53917D01*
X126252Y53859D01*
X126274Y53777D01*
X126286Y53694D01*
X126309Y53640D01*
X126324Y53584D01*
X126367Y53511D01*
X126402Y53434D01*
X126440Y53389D01*
X126469Y53339D01*
X126531Y53281D01*
X126585Y53217D01*
X126634Y53185D01*
X126677Y53145D01*
X126752Y53106D01*
X126822Y53060D01*
X126878Y53042D01*
X126930Y53015D01*
X126998Y53004D01*
X127093Y52974D01*
X127193Y52971D01*
X127261Y52960D01*
X157163Y52960D01*
X157220Y52968D01*
X157279Y52966D01*
X157360Y52988D01*
X157444Y53000D01*
X157497Y53024D01*
X157554Y53038D01*
X157626Y53081D01*
X157703Y53116D01*
X157748Y53154D01*
X157798Y53184D01*
X157856Y53245D01*
X157920Y53300D01*
X157953Y53348D01*
X157993Y53391D01*
X158031Y53466D01*
X158078Y53536D01*
X158096Y53592D01*
X158122Y53644D01*
X158134Y53712D01*
X158164Y53807D01*
X158166Y53907D01*
X158178Y53975D01*
X158178Y74613D01*
X158170Y74670D01*
X158171Y74729D01*
X158150Y74810D01*
X158138Y74894D01*
X158114Y74947D01*
X158099Y75004D01*
X158056Y75076D01*
X158022Y75153D01*
X157984Y75198D01*
X157954Y75248D01*
X157892Y75306D01*
X157838Y75370D01*
X157789Y75403D01*
X157747Y75443D01*
X157672Y75481D01*
X157601Y75528D01*
X157546Y75546D01*
X157494Y75572D01*
X157426Y75584D01*
X157330Y75614D01*
X157231Y75616D01*
X157163Y75628D01*
X126548Y75628D01*
X126461Y75616D01*
X126374Y75613D01*
X126321Y75596D01*
X126266Y75588D01*
X126187Y75552D01*
X126103Y75525D01*
X126064Y75497D01*
X126007Y75472D01*
X125894Y75376D01*
X125830Y75330D01*
X124667Y74167D01*
X56825Y74167D01*
X56738Y74155D01*
X56651Y74152D01*
X56598Y74135D01*
X56544Y74127D01*
X56464Y74092D01*
X56380Y74065D01*
X56341Y74037D01*
X56284Y74011D01*
X56171Y73915D01*
X56107Y73870D01*
X53080Y70842D01*
X51236Y70842D01*
X51178Y70834D01*
X51120Y70836D01*
X51038Y70814D01*
X50954Y70802D01*
X50901Y70779D01*
X50845Y70764D01*
X50772Y70721D01*
X50695Y70686D01*
X50650Y70648D01*
X50600Y70619D01*
X50542Y70557D01*
X50478Y70503D01*
X50446Y70454D01*
X50406Y70411D01*
X50367Y70336D01*
X50320Y70266D01*
X50303Y70210D01*
X50276Y70158D01*
X50265Y70090D01*
X50235Y69995D01*
X50232Y69895D01*
X50221Y69827D01*
X50221Y68849D01*
X49476Y68104D01*
X39424Y68104D01*
X38679Y68849D01*
X38679Y74613D01*
X38671Y74670D01*
X38673Y74729D01*
X38651Y74810D01*
X38639Y74894D01*
X38616Y74947D01*
X38601Y75004D01*
X38558Y75076D01*
X38523Y75153D01*
X38485Y75198D01*
X38456Y75248D01*
X38394Y75306D01*
X38340Y75370D01*
X38291Y75403D01*
X38248Y75443D01*
X38173Y75481D01*
X38103Y75528D01*
X38047Y75546D01*
X37995Y75572D01*
X37927Y75584D01*
X37832Y75614D01*
X37732Y75616D01*
X37664Y75628D01*
X34925Y75628D01*
X34867Y75620D01*
X34809Y75621D01*
X34727Y75600D01*
X34644Y75588D01*
X34590Y75564D01*
X34534Y75549D01*
X34461Y75506D01*
X34384Y75472D01*
X34339Y75434D01*
X34289Y75404D01*
X34231Y75342D01*
X34167Y75288D01*
X34135Y75239D01*
X34095Y75197D01*
X34056Y75122D01*
X34010Y75051D01*
X33992Y74996D01*
X33965Y74944D01*
X33954Y74876D01*
X33924Y74780D01*
X33921Y74681D01*
X33910Y74613D01*
X33910Y26988D01*
X33918Y26930D01*
X33916Y26871D01*
X33938Y26790D01*
X33950Y26706D01*
X33974Y26653D01*
X33988Y26596D01*
X34031Y26524D01*
X34066Y26447D01*
X34104Y26402D01*
X34134Y26352D01*
X34195Y26294D01*
X34250Y26230D01*
X34298Y26197D01*
X34341Y26157D01*
X34416Y26119D01*
X34486Y26072D01*
X34542Y26054D01*
X34594Y26028D01*
X34662Y26016D01*
X34757Y25986D01*
X34857Y25984D01*
X34925Y25972D01*
X68835Y25972D01*
X68835Y4191D01*
X68843Y4133D01*
X68841Y4075D01*
X68863Y3993D01*
X68875Y3909D01*
X68899Y3856D01*
X68913Y3800D01*
X68956Y3727D01*
X68991Y3650D01*
X69029Y3605D01*
X69059Y3555D01*
X69120Y3497D01*
X69175Y3433D01*
X69223Y3401D01*
X69266Y3361D01*
X69341Y3322D01*
X69411Y3275D01*
X69467Y3258D01*
X69519Y3231D01*
X69587Y3220D01*
X69682Y3190D01*
X69782Y3187D01*
X69850Y3176D01*
X103188Y3176D01*
X103245Y3184D01*
G37*
G36*
X187383Y3184D02*
X187383Y3184D01*
X187441Y3182D01*
X187523Y3204D01*
X187607Y3216D01*
X187660Y3239D01*
X187716Y3254D01*
X187789Y3297D01*
X187866Y3332D01*
X187911Y3370D01*
X187961Y3399D01*
X188019Y3461D01*
X188083Y3515D01*
X188115Y3564D01*
X188155Y3607D01*
X188194Y3682D01*
X188241Y3752D01*
X188258Y3808D01*
X188285Y3860D01*
X188296Y3928D01*
X188326Y4023D01*
X188329Y4123D01*
X188340Y4191D01*
X188340Y78994D01*
X188332Y79052D01*
X188334Y79110D01*
X188312Y79192D01*
X188300Y79276D01*
X188277Y79329D01*
X188262Y79385D01*
X188219Y79458D01*
X188184Y79535D01*
X188146Y79580D01*
X188117Y79630D01*
X188055Y79688D01*
X188001Y79752D01*
X187952Y79784D01*
X187909Y79824D01*
X187834Y79863D01*
X187764Y79910D01*
X187708Y79927D01*
X187656Y79954D01*
X187588Y79965D01*
X187493Y79995D01*
X187393Y79998D01*
X187325Y80009D01*
X186817Y80009D01*
X181609Y85217D01*
X181609Y85725D01*
X181601Y85783D01*
X181603Y85841D01*
X181581Y85923D01*
X181569Y86007D01*
X181546Y86060D01*
X181531Y86116D01*
X181488Y86189D01*
X181453Y86266D01*
X181415Y86311D01*
X181386Y86361D01*
X181324Y86419D01*
X181270Y86483D01*
X181221Y86515D01*
X181178Y86555D01*
X181103Y86594D01*
X181033Y86641D01*
X180977Y86658D01*
X180925Y86685D01*
X180857Y86696D01*
X180762Y86726D01*
X180662Y86729D01*
X180594Y86740D01*
X172623Y86740D01*
X172566Y86732D01*
X172507Y86734D01*
X172426Y86712D01*
X172342Y86700D01*
X172289Y86677D01*
X172232Y86662D01*
X172160Y86619D01*
X172083Y86584D01*
X172038Y86546D01*
X171988Y86517D01*
X171930Y86455D01*
X171866Y86401D01*
X171833Y86352D01*
X171793Y86309D01*
X171755Y86234D01*
X171708Y86164D01*
X171690Y86108D01*
X171664Y86056D01*
X171652Y85988D01*
X171622Y85893D01*
X171620Y85793D01*
X171608Y85725D01*
X171608Y85461D01*
X170864Y84717D01*
X162811Y84717D01*
X162067Y85461D01*
X162067Y85725D01*
X162059Y85783D01*
X162060Y85841D01*
X162039Y85923D01*
X162027Y86007D01*
X162003Y86060D01*
X161988Y86116D01*
X161945Y86189D01*
X161911Y86266D01*
X161873Y86311D01*
X161843Y86361D01*
X161781Y86419D01*
X161727Y86483D01*
X161678Y86515D01*
X161636Y86555D01*
X161561Y86594D01*
X161490Y86641D01*
X161435Y86658D01*
X161383Y86685D01*
X161315Y86696D01*
X161219Y86726D01*
X161120Y86729D01*
X161052Y86740D01*
X159623Y86740D01*
X159566Y86732D01*
X159507Y86734D01*
X159426Y86712D01*
X159342Y86700D01*
X159289Y86677D01*
X159232Y86662D01*
X159160Y86619D01*
X159083Y86584D01*
X159038Y86546D01*
X158988Y86517D01*
X158930Y86455D01*
X158866Y86401D01*
X158833Y86352D01*
X158793Y86309D01*
X158755Y86234D01*
X158708Y86164D01*
X158690Y86108D01*
X158664Y86056D01*
X158652Y85988D01*
X158622Y85893D01*
X158620Y85793D01*
X158608Y85725D01*
X158608Y85461D01*
X157864Y84717D01*
X149811Y84717D01*
X149067Y85461D01*
X149067Y86574D01*
X149055Y86661D01*
X149052Y86748D01*
X149035Y86801D01*
X149027Y86856D01*
X148991Y86935D01*
X148964Y87019D01*
X148936Y87058D01*
X148911Y87115D01*
X148815Y87228D01*
X148769Y87292D01*
X147573Y88488D01*
X147573Y92487D01*
X148769Y93683D01*
X148822Y93753D01*
X148882Y93817D01*
X148907Y93866D01*
X148940Y93910D01*
X148971Y93992D01*
X149011Y94070D01*
X149019Y94117D01*
X149042Y94176D01*
X149054Y94323D01*
X149067Y94401D01*
X149067Y95598D01*
X149071Y95608D01*
X149100Y95658D01*
X149121Y95740D01*
X149151Y95819D01*
X149156Y95877D01*
X149170Y95934D01*
X149167Y96018D01*
X149174Y96102D01*
X149163Y96159D01*
X149161Y96218D01*
X149135Y96298D01*
X149119Y96381D01*
X149092Y96433D01*
X149074Y96488D01*
X149067Y96498D01*
X149067Y97540D01*
X149059Y97597D01*
X149060Y97656D01*
X149039Y97737D01*
X149027Y97821D01*
X149003Y97874D01*
X148988Y97931D01*
X148945Y98003D01*
X148911Y98080D01*
X148873Y98125D01*
X148843Y98175D01*
X148781Y98233D01*
X148727Y98297D01*
X148678Y98330D01*
X148636Y98370D01*
X148561Y98408D01*
X148490Y98455D01*
X148435Y98473D01*
X148383Y98499D01*
X148315Y98511D01*
X148219Y98541D01*
X148120Y98543D01*
X148052Y98555D01*
X143637Y98555D01*
X143579Y98547D01*
X143521Y98548D01*
X143439Y98527D01*
X143355Y98515D01*
X143302Y98491D01*
X143246Y98476D01*
X143173Y98433D01*
X143096Y98399D01*
X143051Y98361D01*
X143001Y98331D01*
X142943Y98269D01*
X142879Y98215D01*
X142847Y98166D01*
X142807Y98124D01*
X142768Y98049D01*
X142721Y97978D01*
X142704Y97923D01*
X142677Y97871D01*
X142666Y97803D01*
X142636Y97707D01*
X142633Y97608D01*
X142622Y97540D01*
X142622Y97267D01*
X141877Y96523D01*
X128125Y96523D01*
X127380Y97267D01*
X127380Y103919D01*
X127420Y103957D01*
X127462Y104029D01*
X127513Y104097D01*
X127534Y104151D01*
X127563Y104202D01*
X127584Y104284D01*
X127614Y104362D01*
X127619Y104421D01*
X127633Y104477D01*
X127631Y104562D01*
X127638Y104646D01*
X127626Y104703D01*
X127624Y104762D01*
X127598Y104842D01*
X127582Y104924D01*
X127555Y104976D01*
X127537Y105032D01*
X127497Y105088D01*
X127451Y105177D01*
X127382Y105249D01*
X127380Y105252D01*
X127380Y111919D01*
X127420Y111957D01*
X127462Y112029D01*
X127513Y112097D01*
X127534Y112151D01*
X127563Y112202D01*
X127584Y112284D01*
X127614Y112362D01*
X127619Y112421D01*
X127633Y112477D01*
X127631Y112562D01*
X127638Y112646D01*
X127626Y112703D01*
X127624Y112762D01*
X127598Y112842D01*
X127582Y112924D01*
X127555Y112976D01*
X127537Y113032D01*
X127497Y113088D01*
X127451Y113177D01*
X127382Y113249D01*
X127380Y113252D01*
X127380Y113286D01*
X127372Y113343D01*
X127374Y113402D01*
X127352Y113483D01*
X127340Y113567D01*
X127317Y113620D01*
X127302Y113677D01*
X127259Y113749D01*
X127224Y113826D01*
X127186Y113871D01*
X127157Y113921D01*
X127095Y113979D01*
X127041Y114043D01*
X126992Y114076D01*
X126949Y114116D01*
X126874Y114154D01*
X126804Y114201D01*
X126748Y114219D01*
X126696Y114245D01*
X126628Y114257D01*
X126533Y114287D01*
X126442Y114289D01*
X126420Y114295D01*
X126404Y114294D01*
X126365Y114301D01*
X126310Y114301D01*
X126260Y114294D01*
X126249Y114294D01*
X126232Y114290D01*
X126223Y114289D01*
X126136Y114286D01*
X126083Y114269D01*
X126028Y114261D01*
X125949Y114225D01*
X125865Y114198D01*
X125826Y114170D01*
X125769Y114145D01*
X125656Y114049D01*
X125592Y114003D01*
X124237Y112648D01*
X120238Y112648D01*
X117411Y115476D01*
X117411Y119474D01*
X120238Y122302D01*
X124237Y122302D01*
X126288Y120251D01*
X126334Y120216D01*
X126375Y120173D01*
X126448Y120131D01*
X126515Y120080D01*
X126569Y120059D01*
X126620Y120030D01*
X126702Y120009D01*
X126780Y119979D01*
X126839Y119974D01*
X126895Y119960D01*
X126980Y119962D01*
X127064Y119955D01*
X127121Y119967D01*
X127180Y119969D01*
X127260Y119995D01*
X127342Y120011D01*
X127394Y120038D01*
X127450Y120056D01*
X127506Y120096D01*
X127595Y120142D01*
X127667Y120211D01*
X127723Y120251D01*
X128125Y120652D01*
X141877Y120652D01*
X142622Y119908D01*
X142622Y113256D01*
X142582Y113218D01*
X142540Y113145D01*
X142489Y113078D01*
X142468Y113024D01*
X142439Y112973D01*
X142418Y112891D01*
X142388Y112813D01*
X142383Y112754D01*
X142369Y112698D01*
X142371Y112613D01*
X142364Y112529D01*
X142376Y112472D01*
X142378Y112413D01*
X142404Y112333D01*
X142420Y112250D01*
X142447Y112199D01*
X142465Y112143D01*
X142505Y112087D01*
X142551Y111998D01*
X142620Y111926D01*
X142622Y111923D01*
X142622Y105256D01*
X142582Y105218D01*
X142540Y105145D01*
X142489Y105078D01*
X142468Y105024D01*
X142439Y104973D01*
X142418Y104891D01*
X142388Y104813D01*
X142383Y104754D01*
X142369Y104698D01*
X142371Y104613D01*
X142364Y104529D01*
X142376Y104472D01*
X142378Y104413D01*
X142404Y104333D01*
X142420Y104250D01*
X142447Y104199D01*
X142465Y104143D01*
X142505Y104087D01*
X142551Y103998D01*
X142620Y103926D01*
X142622Y103923D01*
X142622Y103635D01*
X142629Y103585D01*
X142628Y103569D01*
X142630Y103565D01*
X142628Y103519D01*
X142650Y103438D01*
X142662Y103354D01*
X142685Y103301D01*
X142700Y103244D01*
X142743Y103172D01*
X142778Y103095D01*
X142816Y103050D01*
X142845Y103000D01*
X142907Y102942D01*
X142961Y102878D01*
X143010Y102845D01*
X143053Y102805D01*
X143128Y102767D01*
X143198Y102720D01*
X143254Y102702D01*
X143306Y102676D01*
X143374Y102664D01*
X143469Y102634D01*
X143569Y102632D01*
X143637Y102620D01*
X148052Y102620D01*
X148109Y102628D01*
X148168Y102627D01*
X148249Y102648D01*
X148333Y102660D01*
X148386Y102684D01*
X148443Y102699D01*
X148515Y102742D01*
X148592Y102776D01*
X148637Y102814D01*
X148687Y102844D01*
X148745Y102906D01*
X148809Y102960D01*
X148842Y103009D01*
X148882Y103051D01*
X148920Y103126D01*
X148967Y103197D01*
X148985Y103252D01*
X149011Y103304D01*
X149023Y103372D01*
X149053Y103468D01*
X149055Y103567D01*
X149067Y103635D01*
X149067Y106626D01*
X149811Y107371D01*
X157163Y107371D01*
X157220Y107379D01*
X157279Y107377D01*
X157360Y107399D01*
X157444Y107411D01*
X157497Y107434D01*
X157554Y107449D01*
X157626Y107492D01*
X157703Y107527D01*
X157748Y107565D01*
X157798Y107594D01*
X157856Y107656D01*
X157920Y107710D01*
X157953Y107759D01*
X157993Y107802D01*
X158031Y107877D01*
X158078Y107947D01*
X158096Y108003D01*
X158122Y108055D01*
X158134Y108123D01*
X158164Y108218D01*
X158166Y108318D01*
X158178Y108386D01*
X158178Y117039D01*
X158170Y117097D01*
X158171Y117155D01*
X158150Y117237D01*
X158138Y117321D01*
X158114Y117374D01*
X158099Y117430D01*
X158056Y117503D01*
X158022Y117580D01*
X157984Y117625D01*
X157954Y117675D01*
X157892Y117733D01*
X157838Y117797D01*
X157789Y117829D01*
X157747Y117869D01*
X157672Y117908D01*
X157601Y117955D01*
X157546Y117972D01*
X157494Y117999D01*
X157426Y118010D01*
X157330Y118040D01*
X157231Y118043D01*
X157163Y118054D01*
X149811Y118054D01*
X149067Y118799D01*
X149067Y119912D01*
X149055Y119998D01*
X149052Y120086D01*
X149035Y120138D01*
X149027Y120193D01*
X148991Y120273D01*
X148964Y120356D01*
X148936Y120395D01*
X148911Y120453D01*
X148849Y120526D01*
X148825Y120565D01*
X148795Y120594D01*
X148769Y120630D01*
X147573Y121826D01*
X147573Y125824D01*
X148769Y127020D01*
X148822Y127090D01*
X148882Y127154D01*
X148907Y127204D01*
X148940Y127248D01*
X148971Y127329D01*
X149011Y127407D01*
X149019Y127455D01*
X149042Y127513D01*
X149054Y127661D01*
X149067Y127738D01*
X149067Y128939D01*
X149059Y128997D01*
X149060Y129055D01*
X149039Y129137D01*
X149027Y129221D01*
X149003Y129274D01*
X148988Y129330D01*
X148945Y129403D01*
X148911Y129480D01*
X148873Y129525D01*
X148843Y129575D01*
X148781Y129633D01*
X148727Y129697D01*
X148678Y129729D01*
X148636Y129769D01*
X148561Y129808D01*
X148490Y129855D01*
X148435Y129872D01*
X148383Y129899D01*
X148315Y129910D01*
X148219Y129940D01*
X148120Y129943D01*
X148052Y129954D01*
X145311Y129954D01*
X144355Y130911D01*
X144331Y130928D01*
X144312Y130951D01*
X144218Y131013D01*
X144128Y131081D01*
X144100Y131092D01*
X144076Y131108D01*
X143968Y131142D01*
X143862Y131183D01*
X143833Y131185D01*
X143805Y131194D01*
X143691Y131197D01*
X143579Y131206D01*
X143550Y131200D01*
X143521Y131201D01*
X143411Y131173D01*
X143300Y131150D01*
X143274Y131137D01*
X143246Y131129D01*
X143148Y131072D01*
X143048Y131019D01*
X143026Y130999D01*
X143001Y130984D01*
X142924Y130902D01*
X142842Y130824D01*
X142827Y130798D01*
X142807Y130777D01*
X142755Y130676D01*
X142698Y130578D01*
X142691Y130550D01*
X142677Y130524D01*
X142664Y130446D01*
X142628Y130303D01*
X142630Y130240D01*
X142622Y130193D01*
X142622Y129267D01*
X141877Y128523D01*
X128125Y128523D01*
X127692Y128955D01*
X127645Y128990D01*
X127605Y129033D01*
X127532Y129076D01*
X127465Y129126D01*
X127410Y129147D01*
X127360Y129177D01*
X127278Y129197D01*
X127199Y129227D01*
X127141Y129232D01*
X127084Y129247D01*
X127000Y129244D01*
X126916Y129251D01*
X126859Y129239D01*
X126800Y129238D01*
X126720Y129212D01*
X126637Y129195D01*
X126585Y129168D01*
X126530Y129150D01*
X126474Y129110D01*
X126385Y129064D01*
X126312Y128995D01*
X126256Y128955D01*
X124237Y126936D01*
X120238Y126936D01*
X117411Y129763D01*
X117411Y133762D01*
X120238Y136589D01*
X124237Y136589D01*
X125647Y135179D01*
X125671Y135161D01*
X125690Y135139D01*
X125784Y135076D01*
X125874Y135008D01*
X125902Y134998D01*
X125926Y134981D01*
X126034Y134947D01*
X126140Y134907D01*
X126169Y134904D01*
X126197Y134895D01*
X126311Y134893D01*
X126423Y134883D01*
X126452Y134889D01*
X126481Y134888D01*
X126591Y134917D01*
X126702Y134939D01*
X126728Y134953D01*
X126756Y134960D01*
X126854Y135018D01*
X126954Y135070D01*
X126976Y135090D01*
X127001Y135105D01*
X127078Y135188D01*
X127160Y135266D01*
X127175Y135291D01*
X127195Y135313D01*
X127247Y135413D01*
X127304Y135511D01*
X127311Y135540D01*
X127325Y135566D01*
X127338Y135643D01*
X127374Y135787D01*
X127372Y135849D01*
X127380Y135897D01*
X127380Y135908D01*
X128125Y136652D01*
X141877Y136652D01*
X142834Y135696D01*
X142857Y135678D01*
X142876Y135656D01*
X142970Y135593D01*
X143061Y135525D01*
X143088Y135515D01*
X143113Y135498D01*
X143221Y135464D01*
X143326Y135424D01*
X143356Y135421D01*
X143384Y135413D01*
X143497Y135410D01*
X143610Y135400D01*
X143638Y135406D01*
X143668Y135405D01*
X143777Y135434D01*
X143889Y135456D01*
X143915Y135470D01*
X143943Y135477D01*
X144040Y135535D01*
X144141Y135587D01*
X144162Y135607D01*
X144187Y135622D01*
X144265Y135705D01*
X144347Y135783D01*
X144362Y135808D01*
X144382Y135830D01*
X144433Y135930D01*
X144491Y136028D01*
X144498Y136057D01*
X144511Y136083D01*
X144524Y136160D01*
X144561Y136304D01*
X144559Y136366D01*
X144567Y136414D01*
X144567Y144463D01*
X144559Y144520D01*
X144560Y144579D01*
X144539Y144660D01*
X144527Y144744D01*
X144503Y144797D01*
X144488Y144854D01*
X144445Y144926D01*
X144411Y145003D01*
X144373Y145048D01*
X144343Y145098D01*
X144281Y145156D01*
X144227Y145220D01*
X144178Y145253D01*
X144136Y145293D01*
X144061Y145331D01*
X143990Y145378D01*
X143935Y145396D01*
X143883Y145422D01*
X143815Y145434D01*
X143719Y145464D01*
X143620Y145466D01*
X143552Y145478D01*
X143253Y145478D01*
X143166Y145466D01*
X143079Y145463D01*
X143026Y145446D01*
X142971Y145438D01*
X142892Y145402D01*
X142808Y145375D01*
X142769Y145347D01*
X142712Y145322D01*
X142599Y145226D01*
X142535Y145180D01*
X141877Y144523D01*
X128125Y144523D01*
X127467Y145180D01*
X127397Y145233D01*
X127333Y145293D01*
X127284Y145318D01*
X127240Y145351D01*
X127158Y145382D01*
X127080Y145422D01*
X127033Y145430D01*
X126974Y145453D01*
X126826Y145465D01*
X126749Y145478D01*
X107950Y145478D01*
X107892Y145470D01*
X107834Y145471D01*
X107752Y145450D01*
X107669Y145438D01*
X107615Y145414D01*
X107559Y145399D01*
X107486Y145356D01*
X107409Y145322D01*
X107364Y145284D01*
X107314Y145254D01*
X107256Y145192D01*
X107192Y145138D01*
X107160Y145089D01*
X107120Y145047D01*
X107081Y144972D01*
X107035Y144901D01*
X107017Y144846D01*
X106990Y144794D01*
X106979Y144726D01*
X106949Y144630D01*
X106946Y144531D01*
X106935Y144463D01*
X106935Y105099D01*
X106939Y105070D01*
X106936Y105041D01*
X106959Y104930D01*
X106975Y104818D01*
X106987Y104791D01*
X106992Y104762D01*
X107045Y104662D01*
X107091Y104558D01*
X107110Y104536D01*
X107123Y104510D01*
X107201Y104428D01*
X107275Y104341D01*
X107299Y104325D01*
X107319Y104304D01*
X107417Y104247D01*
X107511Y104184D01*
X107539Y104175D01*
X107564Y104160D01*
X107674Y104132D01*
X107782Y104098D01*
X107812Y104097D01*
X107840Y104090D01*
X107953Y104094D01*
X108066Y104091D01*
X108095Y104098D01*
X108124Y104099D01*
X108232Y104134D01*
X108341Y104163D01*
X108367Y104178D01*
X108395Y104187D01*
X108458Y104232D01*
X108586Y104308D01*
X108629Y104353D01*
X108668Y104381D01*
X110713Y106427D01*
X114712Y106427D01*
X117539Y103599D01*
X117539Y99601D01*
X114489Y96551D01*
X114487Y96550D01*
X114473Y96535D01*
X114414Y96476D01*
X114413Y96474D01*
X114365Y96434D01*
X114333Y96385D01*
X114293Y96342D01*
X114254Y96267D01*
X114207Y96197D01*
X114190Y96141D01*
X114163Y96089D01*
X114152Y96021D01*
X114122Y95926D01*
X114119Y95826D01*
X114108Y95758D01*
X114108Y94297D01*
X114116Y94240D01*
X114114Y94181D01*
X114136Y94100D01*
X114148Y94016D01*
X114171Y93963D01*
X114186Y93906D01*
X114229Y93834D01*
X114264Y93757D01*
X114302Y93712D01*
X114331Y93662D01*
X114393Y93604D01*
X114447Y93540D01*
X114496Y93507D01*
X114539Y93467D01*
X114614Y93429D01*
X114684Y93382D01*
X114740Y93364D01*
X114792Y93338D01*
X114860Y93326D01*
X114955Y93296D01*
X115055Y93294D01*
X115123Y93282D01*
X115407Y93282D01*
X115444Y93243D01*
X115517Y93200D01*
X115584Y93150D01*
X115639Y93129D01*
X115689Y93099D01*
X115771Y93078D01*
X115850Y93048D01*
X115908Y93044D01*
X115965Y93029D01*
X116049Y93032D01*
X116133Y93025D01*
X116191Y93036D01*
X116249Y93038D01*
X116329Y93064D01*
X116412Y93081D01*
X116464Y93108D01*
X116520Y93126D01*
X116576Y93166D01*
X116664Y93212D01*
X116737Y93280D01*
X116739Y93282D01*
X123395Y93282D01*
X124140Y92538D01*
X124140Y79375D01*
X124148Y79317D01*
X124146Y79259D01*
X124168Y79177D01*
X124180Y79094D01*
X124203Y79040D01*
X124218Y78984D01*
X124261Y78911D01*
X124296Y78834D01*
X124334Y78789D01*
X124363Y78739D01*
X124425Y78681D01*
X124479Y78617D01*
X124528Y78585D01*
X124571Y78545D01*
X124646Y78506D01*
X124716Y78460D01*
X124772Y78442D01*
X124824Y78415D01*
X124892Y78404D01*
X124987Y78374D01*
X125087Y78371D01*
X125155Y78360D01*
X160910Y78360D01*
X160910Y23240D01*
X126795Y23240D01*
X126709Y23228D01*
X126621Y23225D01*
X126569Y23208D01*
X126514Y23200D01*
X126434Y23165D01*
X126351Y23138D01*
X126311Y23110D01*
X126254Y23084D01*
X126141Y22988D01*
X126077Y22943D01*
X125501Y22367D01*
X109449Y22367D01*
X108873Y22943D01*
X108803Y22995D01*
X108739Y23055D01*
X108690Y23081D01*
X108645Y23114D01*
X108564Y23145D01*
X108486Y23185D01*
X108438Y23193D01*
X108380Y23215D01*
X108232Y23227D01*
X108155Y23240D01*
X107950Y23240D01*
X107892Y23232D01*
X107834Y23234D01*
X107752Y23212D01*
X107669Y23200D01*
X107615Y23177D01*
X107559Y23162D01*
X107486Y23119D01*
X107409Y23084D01*
X107364Y23046D01*
X107314Y23017D01*
X107256Y22955D01*
X107192Y22901D01*
X107160Y22852D01*
X107120Y22809D01*
X107081Y22734D01*
X107035Y22664D01*
X107017Y22608D01*
X106990Y22556D01*
X106979Y22488D01*
X106949Y22393D01*
X106946Y22293D01*
X106935Y22225D01*
X106935Y4191D01*
X106943Y4133D01*
X106941Y4075D01*
X106963Y3993D01*
X106975Y3909D01*
X106999Y3856D01*
X107013Y3800D01*
X107056Y3727D01*
X107091Y3650D01*
X107129Y3605D01*
X107159Y3555D01*
X107220Y3497D01*
X107275Y3433D01*
X107323Y3401D01*
X107366Y3361D01*
X107441Y3322D01*
X107511Y3275D01*
X107567Y3258D01*
X107619Y3231D01*
X107687Y3220D01*
X107782Y3190D01*
X107882Y3187D01*
X107950Y3176D01*
X187325Y3176D01*
X187383Y3184D01*
G37*
G36*
X415056Y294517D02*
X415056Y294517D01*
X415075Y294515D01*
X415177Y294537D01*
X415279Y294554D01*
X415296Y294563D01*
X415316Y294567D01*
X415405Y294620D01*
X415496Y294669D01*
X415510Y294683D01*
X415527Y294693D01*
X415594Y294772D01*
X415666Y294847D01*
X415674Y294865D01*
X415687Y294880D01*
X415726Y294976D01*
X415769Y295070D01*
X415771Y295090D01*
X415779Y295108D01*
X415797Y295275D01*
X415797Y296767D01*
X415783Y296857D01*
X415775Y296948D01*
X415763Y296977D01*
X415758Y297009D01*
X415715Y297090D01*
X415679Y297174D01*
X415653Y297206D01*
X415642Y297227D01*
X415619Y297249D01*
X415574Y297305D01*
X411605Y301274D01*
X409447Y303432D01*
X409447Y308465D01*
X409433Y308555D01*
X409425Y308646D01*
X409413Y308676D01*
X409408Y308708D01*
X409365Y308789D01*
X409329Y308873D01*
X409303Y308905D01*
X409292Y308925D01*
X409269Y308948D01*
X409224Y309004D01*
X408479Y309749D01*
X408479Y332801D01*
X409224Y333546D01*
X416276Y333546D01*
X417021Y332801D01*
X417021Y309749D01*
X416276Y309004D01*
X416223Y308930D01*
X416163Y308860D01*
X416151Y308830D01*
X416132Y308804D01*
X416105Y308717D01*
X416071Y308632D01*
X416067Y308591D01*
X416060Y308569D01*
X416061Y308537D01*
X416053Y308465D01*
X416053Y306483D01*
X416067Y306393D01*
X416075Y306302D01*
X416087Y306273D01*
X416092Y306241D01*
X416135Y306160D01*
X416171Y306076D01*
X416197Y306044D01*
X416208Y306023D01*
X416231Y306001D01*
X416276Y305945D01*
X420245Y301976D01*
X422403Y299818D01*
X422403Y295275D01*
X422406Y295255D01*
X422404Y295236D01*
X422426Y295134D01*
X422442Y295032D01*
X422452Y295015D01*
X422456Y294995D01*
X422509Y294906D01*
X422558Y294815D01*
X422572Y294801D01*
X422582Y294784D01*
X422661Y294717D01*
X422736Y294646D01*
X422754Y294637D01*
X422769Y294624D01*
X422865Y294585D01*
X422959Y294542D01*
X422979Y294540D01*
X422997Y294532D01*
X423164Y294514D01*
X428625Y294514D01*
X428645Y294517D01*
X428664Y294515D01*
X428766Y294537D01*
X428868Y294554D01*
X428885Y294563D01*
X428905Y294567D01*
X428994Y294620D01*
X429085Y294669D01*
X429099Y294683D01*
X429116Y294693D01*
X429183Y294772D01*
X429255Y294847D01*
X429263Y294865D01*
X429276Y294880D01*
X429315Y294976D01*
X429358Y295070D01*
X429360Y295090D01*
X429368Y295108D01*
X429386Y295275D01*
X429386Y337568D01*
X429383Y337588D01*
X429385Y337607D01*
X429363Y337709D01*
X429347Y337811D01*
X429337Y337828D01*
X429333Y337848D01*
X429280Y337937D01*
X429231Y338028D01*
X429217Y338042D01*
X429207Y338059D01*
X429128Y338126D01*
X429053Y338198D01*
X429035Y338206D01*
X429020Y338219D01*
X428924Y338258D01*
X428830Y338301D01*
X428810Y338303D01*
X428792Y338311D01*
X428625Y338329D01*
X425361Y338329D01*
X424617Y339074D01*
X424617Y352425D01*
X424614Y352445D01*
X424616Y352464D01*
X424594Y352566D01*
X424577Y352668D01*
X424568Y352685D01*
X424563Y352705D01*
X424510Y352794D01*
X424462Y352885D01*
X424448Y352899D01*
X424437Y352916D01*
X424359Y352983D01*
X424284Y353055D01*
X424266Y353063D01*
X424250Y353076D01*
X424154Y353115D01*
X424061Y353158D01*
X424041Y353160D01*
X424022Y353168D01*
X423856Y353186D01*
X401644Y353186D01*
X401625Y353183D01*
X401605Y353185D01*
X401504Y353163D01*
X401402Y353147D01*
X401384Y353137D01*
X401365Y353133D01*
X401276Y353080D01*
X401184Y353031D01*
X401171Y353017D01*
X401154Y353007D01*
X401086Y352928D01*
X401015Y352853D01*
X401007Y352835D01*
X400994Y352820D01*
X400955Y352724D01*
X400911Y352630D01*
X400909Y352610D01*
X400902Y352592D01*
X400883Y352425D01*
X400883Y339074D01*
X400139Y338329D01*
X391414Y338329D01*
X391394Y338326D01*
X391375Y338328D01*
X391273Y338306D01*
X391171Y338290D01*
X391154Y338280D01*
X391134Y338276D01*
X391045Y338223D01*
X390954Y338174D01*
X390940Y338160D01*
X390923Y338150D01*
X390856Y338071D01*
X390784Y337996D01*
X390776Y337978D01*
X390763Y337963D01*
X390724Y337867D01*
X390681Y337773D01*
X390679Y337753D01*
X390671Y337735D01*
X390653Y337568D01*
X390653Y334085D01*
X390655Y334071D01*
X390654Y334059D01*
X390666Y334001D01*
X390667Y333995D01*
X390675Y333904D01*
X390687Y333874D01*
X390692Y333842D01*
X390735Y333761D01*
X390771Y333677D01*
X390797Y333645D01*
X390808Y333625D01*
X390831Y333602D01*
X390876Y333546D01*
X391621Y332801D01*
X391621Y309749D01*
X390876Y309004D01*
X383824Y309004D01*
X383079Y309749D01*
X383079Y332801D01*
X383824Y333546D01*
X383877Y333620D01*
X383937Y333690D01*
X383949Y333720D01*
X383968Y333746D01*
X383995Y333833D01*
X384018Y333892D01*
X384019Y333894D01*
X384029Y333918D01*
X384033Y333959D01*
X384040Y333981D01*
X384039Y334013D01*
X384047Y334085D01*
X384047Y338053D01*
X384033Y338143D01*
X384025Y338234D01*
X384013Y338264D01*
X384008Y338296D01*
X383965Y338376D01*
X383929Y338460D01*
X383903Y338492D01*
X383892Y338513D01*
X383869Y338535D01*
X383824Y338591D01*
X383342Y339074D01*
X383342Y353385D01*
X383349Y353449D01*
X383349Y357751D01*
X383342Y357794D01*
X383342Y372385D01*
X383349Y372449D01*
X383349Y389639D01*
X383346Y389658D01*
X383348Y389678D01*
X383326Y389779D01*
X383309Y389881D01*
X383300Y389899D01*
X383295Y389918D01*
X383242Y390007D01*
X383194Y390099D01*
X383180Y390112D01*
X383169Y390130D01*
X383091Y390197D01*
X383016Y390268D01*
X382998Y390276D01*
X382982Y390289D01*
X382886Y390328D01*
X382793Y390372D01*
X382773Y390374D01*
X382754Y390381D01*
X382588Y390400D01*
X382190Y390400D01*
X381445Y391144D01*
X381445Y403881D01*
X382190Y404625D01*
X382588Y404625D01*
X382607Y404629D01*
X382627Y404626D01*
X382728Y404648D01*
X382830Y404665D01*
X382848Y404674D01*
X382867Y404679D01*
X382956Y404732D01*
X383048Y404780D01*
X383061Y404795D01*
X383078Y404805D01*
X383146Y404884D01*
X383217Y404959D01*
X383225Y404977D01*
X383238Y404992D01*
X383277Y405088D01*
X383321Y405182D01*
X383323Y405201D01*
X383330Y405220D01*
X383349Y405387D01*
X383349Y405639D01*
X400050Y405639D01*
X400070Y405642D01*
X400089Y405640D01*
X400191Y405662D01*
X400293Y405679D01*
X400310Y405688D01*
X400330Y405692D01*
X400419Y405745D01*
X400510Y405794D01*
X400524Y405808D01*
X400541Y405818D01*
X400608Y405897D01*
X400680Y405972D01*
X400688Y405990D01*
X400701Y406005D01*
X400740Y406101D01*
X400783Y406195D01*
X400785Y406215D01*
X400793Y406233D01*
X400811Y406400D01*
X400811Y419100D01*
X400808Y419120D01*
X400810Y419139D01*
X400788Y419241D01*
X400772Y419343D01*
X400762Y419360D01*
X400758Y419380D01*
X400705Y419469D01*
X400656Y419560D01*
X400642Y419574D01*
X400632Y419591D01*
X400553Y419658D01*
X400478Y419730D01*
X400460Y419738D01*
X400445Y419751D01*
X400349Y419790D01*
X400255Y419833D01*
X400235Y419835D01*
X400217Y419843D01*
X400050Y419861D01*
X369888Y419861D01*
X369813Y419849D01*
X369738Y419846D01*
X369676Y419827D01*
X369645Y419822D01*
X369622Y419810D01*
X369578Y419796D01*
X361405Y416163D01*
X361332Y416115D01*
X361254Y416074D01*
X361230Y416048D01*
X361200Y416028D01*
X361146Y415959D01*
X361085Y415896D01*
X361070Y415863D01*
X361048Y415835D01*
X361018Y415752D01*
X360981Y415673D01*
X360978Y415637D01*
X360965Y415603D01*
X360964Y415515D01*
X360954Y415428D01*
X360962Y415393D01*
X360961Y415357D01*
X360988Y415274D01*
X361007Y415188D01*
X361028Y415147D01*
X361036Y415123D01*
X361054Y415098D01*
X361085Y415040D01*
X367640Y405399D01*
X367660Y405379D01*
X367732Y405289D01*
X368428Y404593D01*
X368428Y404476D01*
X368431Y404456D01*
X368429Y404436D01*
X368451Y404335D01*
X368467Y404233D01*
X368477Y404215D01*
X368481Y404196D01*
X368560Y404048D01*
X368625Y403951D01*
X368441Y402984D01*
X368440Y402956D01*
X368428Y402841D01*
X368428Y373632D01*
X368431Y373612D01*
X368429Y373593D01*
X368451Y373491D01*
X368467Y373389D01*
X368477Y373372D01*
X368481Y373352D01*
X368534Y373263D01*
X368583Y373172D01*
X368597Y373158D01*
X368607Y373141D01*
X368686Y373074D01*
X368761Y373002D01*
X368779Y372994D01*
X368794Y372981D01*
X368890Y372942D01*
X368984Y372899D01*
X369004Y372897D01*
X369022Y372889D01*
X369189Y372871D01*
X373151Y372871D01*
X373896Y372126D01*
X373896Y358074D01*
X373151Y357329D01*
X357004Y357329D01*
X356914Y357315D01*
X356823Y357307D01*
X356793Y357295D01*
X356761Y357290D01*
X356681Y357247D01*
X356597Y357211D01*
X356565Y357185D01*
X356544Y357174D01*
X356522Y357151D01*
X356466Y357106D01*
X355498Y356138D01*
X355486Y356122D01*
X355471Y356110D01*
X355415Y356022D01*
X355354Y355939D01*
X355348Y355920D01*
X355338Y355903D01*
X355312Y355802D01*
X355282Y355703D01*
X355282Y355684D01*
X355278Y355664D01*
X355286Y355561D01*
X355288Y355458D01*
X355295Y355439D01*
X355297Y355419D01*
X355337Y355324D01*
X355373Y355227D01*
X355385Y355211D01*
X355393Y355193D01*
X355498Y355062D01*
X356466Y354094D01*
X356540Y354041D01*
X356609Y353981D01*
X356639Y353969D01*
X356666Y353950D01*
X356753Y353923D01*
X356837Y353889D01*
X356878Y353885D01*
X356901Y353878D01*
X356933Y353879D01*
X357004Y353871D01*
X373151Y353871D01*
X373896Y353126D01*
X373896Y339074D01*
X373151Y338329D01*
X366014Y338329D01*
X365994Y338326D01*
X365975Y338328D01*
X365873Y338306D01*
X365771Y338290D01*
X365754Y338280D01*
X365734Y338276D01*
X365645Y338223D01*
X365554Y338174D01*
X365540Y338160D01*
X365523Y338150D01*
X365456Y338071D01*
X365384Y337996D01*
X365376Y337978D01*
X365363Y337963D01*
X365324Y337867D01*
X365281Y337773D01*
X365279Y337753D01*
X365271Y337735D01*
X365253Y337568D01*
X365253Y334085D01*
X365255Y334071D01*
X365254Y334059D01*
X365266Y334001D01*
X365267Y333995D01*
X365275Y333904D01*
X365287Y333874D01*
X365292Y333842D01*
X365335Y333761D01*
X365371Y333677D01*
X365397Y333645D01*
X365408Y333625D01*
X365431Y333602D01*
X365476Y333546D01*
X366221Y332801D01*
X366221Y309749D01*
X365476Y309004D01*
X358394Y309004D01*
X358374Y309001D01*
X358355Y309003D01*
X358253Y308981D01*
X358151Y308965D01*
X358134Y308955D01*
X358114Y308951D01*
X358025Y308898D01*
X357934Y308849D01*
X357920Y308835D01*
X357903Y308825D01*
X357836Y308746D01*
X357764Y308671D01*
X357756Y308653D01*
X357743Y308638D01*
X357704Y308542D01*
X357661Y308448D01*
X357659Y308428D01*
X357651Y308410D01*
X357633Y308243D01*
X357633Y295275D01*
X357636Y295255D01*
X357634Y295236D01*
X357656Y295134D01*
X357672Y295032D01*
X357682Y295015D01*
X357686Y294995D01*
X357739Y294906D01*
X357788Y294815D01*
X357802Y294801D01*
X357812Y294784D01*
X357891Y294717D01*
X357966Y294646D01*
X357984Y294637D01*
X357999Y294624D01*
X358095Y294585D01*
X358189Y294542D01*
X358209Y294540D01*
X358227Y294532D01*
X358394Y294514D01*
X415036Y294514D01*
X415056Y294517D01*
G37*
G36*
X382097Y214893D02*
X382097Y214893D01*
X382155Y214891D01*
X382237Y214913D01*
X382321Y214925D01*
X382374Y214949D01*
X382430Y214963D01*
X382503Y215006D01*
X382580Y215041D01*
X382625Y215079D01*
X382675Y215109D01*
X382733Y215170D01*
X382797Y215225D01*
X382829Y215273D01*
X382869Y215316D01*
X382908Y215391D01*
X382955Y215461D01*
X382972Y215517D01*
X382999Y215569D01*
X383010Y215637D01*
X383040Y215732D01*
X383043Y215832D01*
X383054Y215900D01*
X383054Y227726D01*
X383491Y228163D01*
X383543Y228233D01*
X383603Y228297D01*
X383629Y228346D01*
X383662Y228390D01*
X383693Y228472D01*
X383733Y228550D01*
X383741Y228597D01*
X383763Y228656D01*
X383775Y228804D01*
X383788Y228881D01*
X383788Y230108D01*
X383779Y230172D01*
X383781Y230230D01*
X383777Y230244D01*
X383777Y230256D01*
X383670Y230988D01*
X383724Y231087D01*
X383727Y231100D01*
X383733Y231112D01*
X383744Y231176D01*
X383765Y231274D01*
X384287Y231796D01*
X384339Y231865D01*
X384384Y231908D01*
X385704Y233683D01*
X385710Y233695D01*
X385719Y233705D01*
X385778Y233820D01*
X385840Y233933D01*
X385843Y233946D01*
X385849Y233958D01*
X385860Y234022D01*
X385901Y234211D01*
X385898Y234255D01*
X385904Y234289D01*
X385904Y240864D01*
X385896Y240922D01*
X385898Y240980D01*
X385876Y241062D01*
X385864Y241146D01*
X385841Y241199D01*
X385826Y241255D01*
X385783Y241328D01*
X385748Y241405D01*
X385710Y241450D01*
X385681Y241500D01*
X385619Y241558D01*
X385565Y241622D01*
X385516Y241654D01*
X385473Y241694D01*
X385398Y241733D01*
X385328Y241780D01*
X385272Y241797D01*
X385220Y241824D01*
X385152Y241835D01*
X385057Y241865D01*
X384957Y241868D01*
X384889Y241879D01*
X383474Y241879D01*
X382729Y242624D01*
X382729Y252676D01*
X383474Y253421D01*
X384048Y253421D01*
X384106Y253429D01*
X384164Y253427D01*
X384246Y253449D01*
X384330Y253461D01*
X384383Y253484D01*
X384439Y253499D01*
X384512Y253542D01*
X384589Y253577D01*
X384634Y253615D01*
X384684Y253644D01*
X384742Y253706D01*
X384806Y253760D01*
X384838Y253809D01*
X384878Y253852D01*
X384917Y253927D01*
X384964Y253997D01*
X384981Y254053D01*
X385008Y254105D01*
X385019Y254173D01*
X385049Y254268D01*
X385052Y254368D01*
X385063Y254436D01*
X385063Y255989D01*
X385055Y256047D01*
X385057Y256105D01*
X385035Y256187D01*
X385023Y256271D01*
X385000Y256324D01*
X384985Y256380D01*
X384942Y256453D01*
X384907Y256530D01*
X384869Y256575D01*
X384840Y256625D01*
X384778Y256683D01*
X384724Y256747D01*
X384675Y256779D01*
X384632Y256819D01*
X384557Y256858D01*
X384487Y256905D01*
X384431Y256922D01*
X384379Y256949D01*
X384311Y256960D01*
X384216Y256990D01*
X384116Y256993D01*
X384048Y257004D01*
X383824Y257004D01*
X383079Y257749D01*
X383079Y280801D01*
X383824Y281546D01*
X390876Y281546D01*
X391621Y280801D01*
X391621Y257749D01*
X390876Y257004D01*
X390652Y257004D01*
X390594Y256996D01*
X390536Y256998D01*
X390454Y256976D01*
X390370Y256964D01*
X390317Y256941D01*
X390261Y256926D01*
X390188Y256883D01*
X390111Y256848D01*
X390066Y256810D01*
X390016Y256781D01*
X389958Y256719D01*
X389894Y256665D01*
X389862Y256616D01*
X389822Y256573D01*
X389783Y256498D01*
X389736Y256428D01*
X389719Y256372D01*
X389692Y256320D01*
X389681Y256252D01*
X389651Y256157D01*
X389648Y256057D01*
X389637Y255989D01*
X389637Y254436D01*
X389644Y254385D01*
X389643Y254363D01*
X389644Y254359D01*
X389643Y254320D01*
X389665Y254238D01*
X389677Y254154D01*
X389700Y254101D01*
X389715Y254045D01*
X389758Y253972D01*
X389793Y253895D01*
X389831Y253850D01*
X389860Y253800D01*
X389922Y253742D01*
X389976Y253678D01*
X390025Y253646D01*
X390068Y253606D01*
X390143Y253567D01*
X390213Y253520D01*
X390269Y253503D01*
X390321Y253476D01*
X390389Y253465D01*
X390484Y253435D01*
X390584Y253432D01*
X390652Y253421D01*
X391033Y253421D01*
X391091Y253429D01*
X391149Y253427D01*
X391231Y253449D01*
X391315Y253461D01*
X391368Y253484D01*
X391424Y253499D01*
X391497Y253542D01*
X391574Y253577D01*
X391619Y253615D01*
X391669Y253644D01*
X391727Y253706D01*
X391791Y253760D01*
X391823Y253809D01*
X391863Y253852D01*
X391902Y253927D01*
X391949Y253997D01*
X391966Y254053D01*
X391993Y254105D01*
X392004Y254173D01*
X392034Y254268D01*
X392037Y254368D01*
X392043Y254407D01*
X394883Y257247D01*
X394962Y257267D01*
X395046Y257279D01*
X395099Y257303D01*
X395155Y257318D01*
X395228Y257361D01*
X395305Y257395D01*
X395350Y257433D01*
X395400Y257463D01*
X395458Y257525D01*
X395522Y257579D01*
X395554Y257628D01*
X395594Y257670D01*
X395633Y257745D01*
X395680Y257816D01*
X395697Y257871D01*
X395724Y257923D01*
X395735Y257991D01*
X395765Y258087D01*
X395768Y258186D01*
X395779Y258254D01*
X395779Y280801D01*
X396524Y281546D01*
X403576Y281546D01*
X404321Y280801D01*
X404321Y257606D01*
X404325Y257577D01*
X404322Y257547D01*
X404345Y257436D01*
X404361Y257324D01*
X404373Y257297D01*
X404378Y257269D01*
X404431Y257168D01*
X404477Y257065D01*
X404496Y257042D01*
X404509Y257016D01*
X404587Y256934D01*
X404660Y256848D01*
X404685Y256832D01*
X404705Y256810D01*
X404803Y256753D01*
X404897Y256690D01*
X404925Y256681D01*
X404950Y256667D01*
X405060Y256639D01*
X405168Y256604D01*
X405198Y256604D01*
X405226Y256596D01*
X405339Y256600D01*
X405452Y256597D01*
X405481Y256605D01*
X405510Y256605D01*
X405618Y256640D01*
X405727Y256669D01*
X405753Y256684D01*
X405781Y256693D01*
X405844Y256738D01*
X405972Y256814D01*
X406015Y256860D01*
X406054Y256888D01*
X408182Y259016D01*
X408234Y259086D01*
X408294Y259150D01*
X408320Y259199D01*
X408353Y259243D01*
X408384Y259325D01*
X408424Y259403D01*
X408432Y259450D01*
X408454Y259509D01*
X408466Y259656D01*
X408479Y259734D01*
X408479Y280801D01*
X409224Y281546D01*
X414782Y281546D01*
X414840Y281554D01*
X414898Y281552D01*
X414980Y281574D01*
X415064Y281586D01*
X415117Y281609D01*
X415173Y281624D01*
X415246Y281667D01*
X415323Y281702D01*
X415368Y281740D01*
X415418Y281769D01*
X415476Y281831D01*
X415540Y281885D01*
X415572Y281934D01*
X415612Y281977D01*
X415651Y282052D01*
X415698Y282122D01*
X415715Y282178D01*
X415742Y282230D01*
X415753Y282298D01*
X415783Y282393D01*
X415786Y282493D01*
X415797Y282561D01*
X415797Y288925D01*
X415789Y288983D01*
X415791Y289041D01*
X415769Y289123D01*
X415757Y289207D01*
X415734Y289260D01*
X415719Y289316D01*
X415676Y289389D01*
X415641Y289466D01*
X415603Y289511D01*
X415574Y289561D01*
X415512Y289619D01*
X415458Y289683D01*
X415409Y289715D01*
X415366Y289755D01*
X415291Y289794D01*
X415221Y289841D01*
X415165Y289858D01*
X415113Y289885D01*
X415045Y289896D01*
X414950Y289926D01*
X414850Y289929D01*
X414782Y289940D01*
X358648Y289940D01*
X358590Y289932D01*
X358532Y289934D01*
X358450Y289912D01*
X358366Y289900D01*
X358313Y289877D01*
X358257Y289862D01*
X358184Y289819D01*
X358107Y289784D01*
X358062Y289746D01*
X358012Y289717D01*
X357954Y289655D01*
X357890Y289601D01*
X357858Y289552D01*
X357818Y289509D01*
X357779Y289434D01*
X357732Y289364D01*
X357715Y289308D01*
X357688Y289256D01*
X357677Y289188D01*
X357647Y289093D01*
X357644Y288993D01*
X357633Y288925D01*
X357633Y282561D01*
X357641Y282503D01*
X357639Y282445D01*
X357661Y282363D01*
X357673Y282279D01*
X357696Y282226D01*
X357711Y282170D01*
X357754Y282097D01*
X357789Y282020D01*
X357827Y281975D01*
X357856Y281925D01*
X357918Y281867D01*
X357972Y281803D01*
X358021Y281771D01*
X358064Y281731D01*
X358139Y281692D01*
X358209Y281645D01*
X358265Y281628D01*
X358317Y281601D01*
X358385Y281590D01*
X358480Y281560D01*
X358580Y281557D01*
X358648Y281546D01*
X365476Y281546D01*
X366221Y280801D01*
X366221Y264913D01*
X366233Y264827D01*
X366236Y264739D01*
X366253Y264687D01*
X366261Y264632D01*
X366296Y264552D01*
X366323Y264469D01*
X366351Y264430D01*
X366377Y264372D01*
X366473Y264259D01*
X366518Y264195D01*
X366777Y263937D01*
X366777Y259938D01*
X366518Y259680D01*
X366466Y259610D01*
X366406Y259546D01*
X366380Y259496D01*
X366347Y259452D01*
X366316Y259371D01*
X366276Y259293D01*
X366268Y259245D01*
X366246Y259187D01*
X366234Y259039D01*
X366221Y258962D01*
X366221Y257749D01*
X365476Y257004D01*
X365252Y257004D01*
X365194Y256996D01*
X365136Y256998D01*
X365054Y256976D01*
X364970Y256964D01*
X364917Y256941D01*
X364861Y256926D01*
X364788Y256883D01*
X364711Y256848D01*
X364666Y256810D01*
X364616Y256781D01*
X364558Y256719D01*
X364494Y256665D01*
X364462Y256616D01*
X364422Y256573D01*
X364383Y256498D01*
X364336Y256428D01*
X364319Y256372D01*
X364292Y256320D01*
X364281Y256252D01*
X364251Y256157D01*
X364248Y256057D01*
X364237Y255989D01*
X364237Y253586D01*
X364245Y253528D01*
X364243Y253470D01*
X364265Y253388D01*
X364277Y253304D01*
X364300Y253251D01*
X364315Y253195D01*
X364358Y253122D01*
X364393Y253045D01*
X364431Y253000D01*
X364460Y252950D01*
X364522Y252892D01*
X364576Y252828D01*
X364625Y252796D01*
X364668Y252756D01*
X364743Y252717D01*
X364813Y252670D01*
X364869Y252653D01*
X364921Y252626D01*
X364989Y252615D01*
X365084Y252585D01*
X365184Y252582D01*
X365252Y252571D01*
X366976Y252571D01*
X367721Y251826D01*
X367721Y243774D01*
X366976Y243029D01*
X356840Y243029D01*
X356830Y243033D01*
X356779Y243063D01*
X356698Y243083D01*
X356619Y243113D01*
X356560Y243118D01*
X356504Y243133D01*
X356420Y243130D01*
X356336Y243137D01*
X356278Y243125D01*
X356220Y243124D01*
X356140Y243098D01*
X356057Y243081D01*
X356005Y243054D01*
X355949Y243036D01*
X355940Y243029D01*
X355600Y243029D01*
X355542Y243021D01*
X355484Y243023D01*
X355402Y243001D01*
X355319Y242989D01*
X355265Y242966D01*
X355209Y242951D01*
X355136Y242908D01*
X355059Y242873D01*
X355014Y242835D01*
X354964Y242806D01*
X354906Y242744D01*
X354842Y242690D01*
X354810Y242641D01*
X354770Y242598D01*
X354731Y242523D01*
X354685Y242453D01*
X354667Y242397D01*
X354640Y242345D01*
X354629Y242277D01*
X354599Y242182D01*
X354596Y242082D01*
X354585Y242014D01*
X354585Y240586D01*
X354593Y240528D01*
X354591Y240470D01*
X354613Y240388D01*
X354625Y240304D01*
X354649Y240251D01*
X354663Y240195D01*
X354706Y240122D01*
X354741Y240045D01*
X354779Y240000D01*
X354809Y239950D01*
X354870Y239892D01*
X354925Y239828D01*
X354973Y239796D01*
X355016Y239756D01*
X355091Y239717D01*
X355161Y239670D01*
X355217Y239653D01*
X355269Y239626D01*
X355337Y239615D01*
X355432Y239585D01*
X355532Y239582D01*
X355600Y239571D01*
X355864Y239571D01*
X356608Y238826D01*
X356608Y230774D01*
X356038Y230204D01*
X356021Y230180D01*
X355998Y230161D01*
X355936Y230067D01*
X355868Y229977D01*
X355857Y229949D01*
X355841Y229925D01*
X355807Y229817D01*
X355766Y229711D01*
X355764Y229682D01*
X355755Y229654D01*
X355752Y229540D01*
X355743Y229428D01*
X355749Y229399D01*
X355748Y229370D01*
X355776Y229260D01*
X355799Y229149D01*
X355812Y229123D01*
X355820Y229095D01*
X355877Y228997D01*
X355930Y228897D01*
X355950Y228875D01*
X355965Y228850D01*
X356047Y228773D01*
X356125Y228691D01*
X356151Y228676D01*
X356172Y228656D01*
X356273Y228604D01*
X356371Y228547D01*
X356399Y228540D01*
X356425Y228526D01*
X356503Y228513D01*
X356646Y228477D01*
X356709Y228479D01*
X356756Y228471D01*
X378351Y228471D01*
X379096Y227726D01*
X379096Y215900D01*
X379104Y215842D01*
X379102Y215784D01*
X379124Y215702D01*
X379136Y215619D01*
X379159Y215565D01*
X379174Y215509D01*
X379217Y215436D01*
X379252Y215359D01*
X379290Y215314D01*
X379319Y215264D01*
X379381Y215206D01*
X379435Y215142D01*
X379484Y215110D01*
X379527Y215070D01*
X379602Y215031D01*
X379672Y214985D01*
X379728Y214967D01*
X379780Y214940D01*
X379848Y214929D01*
X379943Y214899D01*
X380043Y214896D01*
X380111Y214885D01*
X382039Y214885D01*
X382097Y214893D01*
G37*
G36*
X352445Y358017D02*
X352445Y358017D01*
X352464Y358015D01*
X352566Y358037D01*
X352668Y358054D01*
X352685Y358063D01*
X352705Y358067D01*
X352794Y358120D01*
X352885Y358169D01*
X352899Y358183D01*
X352916Y358193D01*
X352983Y358272D01*
X353055Y358347D01*
X353063Y358365D01*
X353076Y358380D01*
X353115Y358476D01*
X353158Y358570D01*
X353160Y358590D01*
X353168Y358608D01*
X353186Y358775D01*
X353186Y390688D01*
X353175Y390758D01*
X353173Y390830D01*
X353155Y390879D01*
X353147Y390931D01*
X353113Y390994D01*
X353088Y391061D01*
X353056Y391102D01*
X353031Y391148D01*
X352980Y391197D01*
X352935Y391253D01*
X352891Y391281D01*
X352853Y391317D01*
X352788Y391347D01*
X352728Y391386D01*
X352677Y391399D01*
X352630Y391421D01*
X352559Y391429D01*
X352489Y391446D01*
X352437Y391442D01*
X352386Y391448D01*
X352315Y391433D01*
X352244Y391427D01*
X352196Y391407D01*
X352145Y391396D01*
X352084Y391359D01*
X352018Y391331D01*
X351962Y391286D01*
X351934Y391270D01*
X351919Y391252D01*
X351887Y391226D01*
X351243Y390582D01*
X347192Y388904D01*
X342808Y388904D01*
X338757Y390582D01*
X335657Y393682D01*
X333979Y397733D01*
X333979Y402117D01*
X335657Y406168D01*
X336725Y407235D01*
X336752Y407273D01*
X336787Y407305D01*
X336823Y407373D01*
X336868Y407435D01*
X336882Y407480D01*
X336905Y407521D01*
X336918Y407597D01*
X336940Y407670D01*
X336939Y407717D01*
X336947Y407764D01*
X336936Y407839D01*
X336934Y407916D01*
X336918Y407960D01*
X336911Y408007D01*
X336876Y408075D01*
X336850Y408147D01*
X336820Y408184D01*
X336799Y408226D01*
X336709Y408323D01*
X336696Y408339D01*
X336691Y408342D01*
X336685Y408349D01*
X330489Y413718D01*
X330435Y413752D01*
X330386Y413794D01*
X330330Y413816D01*
X330280Y413847D01*
X330217Y413862D01*
X330157Y413886D01*
X330072Y413895D01*
X330040Y413903D01*
X330022Y413901D01*
X329991Y413904D01*
X327808Y413904D01*
X323757Y415582D01*
X320657Y418682D01*
X318979Y422733D01*
X318979Y423346D01*
X318960Y423462D01*
X318943Y423579D01*
X318940Y423584D01*
X318940Y423589D01*
X318885Y423692D01*
X318830Y423798D01*
X318826Y423803D01*
X318824Y423806D01*
X318813Y423817D01*
X318717Y423921D01*
X305299Y435550D01*
X305244Y435584D01*
X305195Y435626D01*
X305140Y435648D01*
X305089Y435679D01*
X305026Y435694D01*
X304967Y435718D01*
X304882Y435727D01*
X304849Y435735D01*
X304831Y435733D01*
X304800Y435736D01*
X295275Y435736D01*
X295185Y435722D01*
X295094Y435714D01*
X295064Y435702D01*
X295032Y435697D01*
X294952Y435654D01*
X294868Y435618D01*
X294836Y435592D01*
X294815Y435581D01*
X294793Y435558D01*
X294737Y435513D01*
X288387Y429163D01*
X288334Y429089D01*
X288274Y429020D01*
X288262Y428990D01*
X288243Y428964D01*
X288216Y428877D01*
X288182Y428792D01*
X288178Y428751D01*
X288171Y428728D01*
X288172Y428696D01*
X288164Y428625D01*
X288164Y422275D01*
X288179Y422185D01*
X288186Y422094D01*
X288198Y422064D01*
X288204Y422032D01*
X288246Y421952D01*
X288282Y421868D01*
X288308Y421836D01*
X288319Y421815D01*
X288342Y421793D01*
X288387Y421737D01*
X304353Y405770D01*
X304390Y405744D01*
X304421Y405710D01*
X304490Y405672D01*
X304553Y405627D01*
X304597Y405613D01*
X304637Y405591D01*
X304714Y405577D01*
X304788Y405554D01*
X304834Y405556D01*
X304879Y405547D01*
X304956Y405559D01*
X305034Y405561D01*
X305077Y405577D01*
X305122Y405583D01*
X305192Y405618D01*
X305265Y405645D01*
X305301Y405674D01*
X305342Y405695D01*
X305396Y405750D01*
X305457Y405799D01*
X305482Y405838D01*
X305514Y405870D01*
X305580Y405990D01*
X305590Y406006D01*
X305591Y406011D01*
X305595Y406017D01*
X305657Y406168D01*
X308757Y409268D01*
X312808Y410946D01*
X317192Y410946D01*
X321243Y409268D01*
X324343Y406168D01*
X326021Y402117D01*
X326021Y397733D01*
X324343Y393682D01*
X321243Y390582D01*
X321092Y390520D01*
X321053Y390496D01*
X321010Y390480D01*
X320949Y390431D01*
X320883Y390390D01*
X320854Y390355D01*
X320818Y390326D01*
X320776Y390261D01*
X320726Y390201D01*
X320710Y390158D01*
X320685Y390119D01*
X320666Y390044D01*
X320638Y389971D01*
X320636Y389925D01*
X320625Y389881D01*
X320631Y389803D01*
X320628Y389725D01*
X320641Y389681D01*
X320644Y389635D01*
X320675Y389564D01*
X320696Y389489D01*
X320723Y389451D01*
X320740Y389409D01*
X320826Y389302D01*
X320837Y389287D01*
X320841Y389284D01*
X320845Y389278D01*
X340551Y369572D01*
X340551Y358775D01*
X340554Y358755D01*
X340552Y358736D01*
X340574Y358634D01*
X340591Y358532D01*
X340600Y358515D01*
X340605Y358495D01*
X340658Y358406D01*
X340706Y358315D01*
X340721Y358301D01*
X340731Y358284D01*
X340809Y358217D01*
X340884Y358146D01*
X340902Y358137D01*
X340918Y358124D01*
X341014Y358085D01*
X341108Y358042D01*
X341127Y358040D01*
X341146Y358032D01*
X341313Y358014D01*
X352425Y358014D01*
X352445Y358017D01*
G37*
G36*
X65145Y3184D02*
X65145Y3184D01*
X65204Y3182D01*
X65285Y3204D01*
X65369Y3216D01*
X65422Y3239D01*
X65479Y3254D01*
X65551Y3297D01*
X65628Y3332D01*
X65673Y3370D01*
X65723Y3399D01*
X65781Y3461D01*
X65845Y3515D01*
X65878Y3564D01*
X65918Y3607D01*
X65956Y3682D01*
X66003Y3752D01*
X66021Y3808D01*
X66047Y3860D01*
X66059Y3928D01*
X66089Y4023D01*
X66091Y4123D01*
X66103Y4191D01*
X66103Y22225D01*
X66095Y22283D01*
X66096Y22341D01*
X66075Y22423D01*
X66063Y22507D01*
X66039Y22560D01*
X66024Y22616D01*
X65981Y22689D01*
X65947Y22766D01*
X65909Y22811D01*
X65879Y22861D01*
X65817Y22919D01*
X65763Y22983D01*
X65714Y23015D01*
X65672Y23055D01*
X65597Y23094D01*
X65526Y23141D01*
X65471Y23158D01*
X65419Y23185D01*
X65351Y23196D01*
X65255Y23226D01*
X65156Y23229D01*
X65088Y23240D01*
X4191Y23240D01*
X4133Y23232D01*
X4075Y23234D01*
X3993Y23212D01*
X3909Y23200D01*
X3856Y23177D01*
X3800Y23162D01*
X3727Y23119D01*
X3650Y23084D01*
X3605Y23046D01*
X3555Y23017D01*
X3497Y22955D01*
X3433Y22901D01*
X3401Y22852D01*
X3361Y22809D01*
X3322Y22734D01*
X3275Y22664D01*
X3258Y22608D01*
X3231Y22556D01*
X3220Y22488D01*
X3190Y22393D01*
X3187Y22293D01*
X3176Y22225D01*
X3176Y4191D01*
X3184Y4133D01*
X3182Y4075D01*
X3204Y3993D01*
X3216Y3909D01*
X3239Y3856D01*
X3254Y3800D01*
X3297Y3727D01*
X3332Y3650D01*
X3370Y3605D01*
X3399Y3555D01*
X3461Y3497D01*
X3515Y3433D01*
X3564Y3401D01*
X3607Y3361D01*
X3682Y3322D01*
X3752Y3275D01*
X3808Y3258D01*
X3860Y3231D01*
X3928Y3220D01*
X4023Y3190D01*
X4123Y3187D01*
X4191Y3176D01*
X65088Y3176D01*
X65145Y3184D01*
G37*
G36*
X424401Y214897D02*
X424401Y214897D01*
X424489Y214900D01*
X424541Y214917D01*
X424596Y214925D01*
X424676Y214960D01*
X424759Y214987D01*
X424798Y215015D01*
X424855Y215041D01*
X424969Y215137D01*
X425032Y215182D01*
X429470Y219620D01*
X429522Y219689D01*
X429582Y219753D01*
X429608Y219803D01*
X429641Y219847D01*
X429672Y219929D01*
X429712Y220006D01*
X429720Y220054D01*
X429742Y220112D01*
X429754Y220260D01*
X429767Y220338D01*
X429767Y288925D01*
X429759Y288983D01*
X429761Y289041D01*
X429739Y289123D01*
X429727Y289207D01*
X429704Y289260D01*
X429689Y289316D01*
X429646Y289389D01*
X429611Y289466D01*
X429573Y289511D01*
X429544Y289561D01*
X429482Y289619D01*
X429428Y289683D01*
X429379Y289715D01*
X429336Y289755D01*
X429261Y289794D01*
X429191Y289841D01*
X429135Y289858D01*
X429083Y289885D01*
X429015Y289896D01*
X428920Y289926D01*
X428820Y289929D01*
X428752Y289940D01*
X423418Y289940D01*
X423360Y289932D01*
X423302Y289934D01*
X423220Y289912D01*
X423136Y289900D01*
X423083Y289877D01*
X423027Y289862D01*
X422954Y289819D01*
X422877Y289784D01*
X422832Y289746D01*
X422782Y289717D01*
X422724Y289655D01*
X422660Y289601D01*
X422628Y289552D01*
X422588Y289509D01*
X422549Y289434D01*
X422502Y289364D01*
X422485Y289308D01*
X422458Y289256D01*
X422447Y289188D01*
X422417Y289093D01*
X422414Y288993D01*
X422403Y288925D01*
X422403Y254219D01*
X416287Y248103D01*
X416234Y248034D01*
X416174Y247970D01*
X416149Y247920D01*
X416116Y247876D01*
X416094Y247819D01*
X416089Y247812D01*
X416082Y247789D01*
X416045Y247716D01*
X416037Y247669D01*
X416014Y247610D01*
X416011Y247564D01*
X416003Y247541D01*
X416001Y247456D01*
X415989Y247385D01*
X415989Y245651D01*
X414380Y244041D01*
X414362Y244018D01*
X414340Y243999D01*
X414277Y243905D01*
X414209Y243814D01*
X414199Y243787D01*
X414182Y243762D01*
X414148Y243654D01*
X414108Y243549D01*
X414105Y243519D01*
X414096Y243491D01*
X414094Y243378D01*
X414084Y243265D01*
X414090Y243237D01*
X414089Y243207D01*
X414118Y243098D01*
X414140Y242986D01*
X414154Y242960D01*
X414161Y242932D01*
X414219Y242835D01*
X414271Y242734D01*
X414291Y242713D01*
X414306Y242688D01*
X414389Y242610D01*
X414467Y242528D01*
X414492Y242513D01*
X414514Y242493D01*
X414614Y242442D01*
X414712Y242384D01*
X414741Y242377D01*
X414767Y242364D01*
X414844Y242351D01*
X414988Y242314D01*
X415050Y242316D01*
X415098Y242308D01*
X416626Y242308D01*
X417371Y241564D01*
X417371Y231511D01*
X416626Y230767D01*
X410484Y230767D01*
X410397Y230755D01*
X410310Y230752D01*
X410257Y230735D01*
X410202Y230727D01*
X410122Y230691D01*
X410039Y230664D01*
X410000Y230636D01*
X409943Y230611D01*
X409830Y230515D01*
X409766Y230469D01*
X408777Y229481D01*
X408742Y229434D01*
X408700Y229394D01*
X408657Y229321D01*
X408606Y229254D01*
X408585Y229199D01*
X408556Y229148D01*
X408535Y229067D01*
X408505Y228988D01*
X408500Y228930D01*
X408486Y228873D01*
X408488Y228789D01*
X408481Y228705D01*
X408493Y228647D01*
X408495Y228589D01*
X408521Y228508D01*
X408537Y228426D01*
X408564Y228374D01*
X408582Y228318D01*
X408622Y228262D01*
X408668Y228174D01*
X408737Y228101D01*
X408777Y228045D01*
X409096Y227726D01*
X409096Y215900D01*
X409104Y215842D01*
X409102Y215784D01*
X409124Y215702D01*
X409136Y215619D01*
X409159Y215565D01*
X409174Y215509D01*
X409217Y215436D01*
X409252Y215359D01*
X409290Y215314D01*
X409319Y215264D01*
X409381Y215206D01*
X409435Y215142D01*
X409484Y215110D01*
X409527Y215070D01*
X409602Y215031D01*
X409672Y214985D01*
X409728Y214967D01*
X409780Y214940D01*
X409848Y214929D01*
X409943Y214899D01*
X410043Y214896D01*
X410111Y214885D01*
X424315Y214885D01*
X424401Y214897D01*
G37*
G36*
X422333Y357768D02*
X422333Y357768D01*
X422391Y357766D01*
X422473Y357788D01*
X422557Y357800D01*
X422610Y357824D01*
X422666Y357838D01*
X422739Y357881D01*
X422816Y357916D01*
X422861Y357954D01*
X422911Y357984D01*
X422969Y358045D01*
X423033Y358100D01*
X423065Y358148D01*
X423105Y358191D01*
X423144Y358266D01*
X423191Y358336D01*
X423208Y358392D01*
X423235Y358444D01*
X423246Y358512D01*
X423276Y358607D01*
X423279Y358707D01*
X423290Y358775D01*
X423290Y384175D01*
X423282Y384230D01*
X423284Y384273D01*
X423283Y384274D01*
X423284Y384291D01*
X423262Y384373D01*
X423250Y384457D01*
X423227Y384510D01*
X423212Y384566D01*
X423169Y384639D01*
X423134Y384716D01*
X423096Y384761D01*
X423067Y384811D01*
X423005Y384869D01*
X422951Y384933D01*
X422902Y384965D01*
X422859Y385005D01*
X422784Y385044D01*
X422714Y385091D01*
X422658Y385108D01*
X422606Y385135D01*
X422538Y385146D01*
X422443Y385176D01*
X422343Y385179D01*
X422275Y385190D01*
X406400Y385190D01*
X406342Y385182D01*
X406284Y385184D01*
X406202Y385162D01*
X406119Y385150D01*
X406065Y385127D01*
X406009Y385112D01*
X405936Y385069D01*
X405859Y385034D01*
X405814Y384996D01*
X405764Y384967D01*
X405706Y384905D01*
X405642Y384851D01*
X405610Y384802D01*
X405570Y384759D01*
X405531Y384684D01*
X405485Y384614D01*
X405467Y384558D01*
X405440Y384506D01*
X405429Y384438D01*
X405399Y384343D01*
X405396Y384243D01*
X405385Y384175D01*
X405385Y358775D01*
X405393Y358717D01*
X405391Y358659D01*
X405413Y358577D01*
X405425Y358494D01*
X405449Y358440D01*
X405463Y358384D01*
X405506Y358311D01*
X405541Y358234D01*
X405579Y358189D01*
X405609Y358139D01*
X405670Y358081D01*
X405725Y358017D01*
X405773Y357985D01*
X405816Y357945D01*
X405891Y357906D01*
X405961Y357860D01*
X406017Y357842D01*
X406069Y357815D01*
X406137Y357804D01*
X406232Y357774D01*
X406332Y357771D01*
X406400Y357760D01*
X422275Y357760D01*
X422333Y357768D01*
G37*
%LPC*%
G36*
X74399Y43567D02*
X74399Y43567D01*
X73654Y44311D01*
X73654Y63164D01*
X74399Y63908D01*
X97051Y63908D01*
X97796Y63164D01*
X97796Y44311D01*
X97051Y43567D01*
X74399Y43567D01*
G37*
%LPD*%
%LPC*%
G36*
X177808Y413904D02*
X177808Y413904D01*
X173757Y415582D01*
X170657Y418682D01*
X168979Y422733D01*
X168979Y427117D01*
X170657Y431168D01*
X173757Y434268D01*
X177808Y435946D01*
X182192Y435946D01*
X186243Y434268D01*
X189343Y431168D01*
X191021Y427117D01*
X191021Y422733D01*
X189343Y418682D01*
X186243Y415582D01*
X182192Y413904D01*
X177808Y413904D01*
G37*
%LPD*%
%LPC*%
G36*
X207808Y448904D02*
X207808Y448904D01*
X203757Y450582D01*
X200657Y453682D01*
X198979Y457733D01*
X198979Y462117D01*
X200657Y466168D01*
X203757Y469268D01*
X207808Y470946D01*
X212192Y470946D01*
X216243Y469268D01*
X219343Y466168D01*
X221021Y462117D01*
X221021Y457733D01*
X219343Y453682D01*
X216243Y450582D01*
X212192Y448904D01*
X207808Y448904D01*
G37*
%LPD*%
%LPC*%
G36*
X177808Y448904D02*
X177808Y448904D01*
X173757Y450582D01*
X170657Y453682D01*
X168979Y457733D01*
X168979Y462117D01*
X170657Y466168D01*
X173757Y469268D01*
X177808Y470946D01*
X182192Y470946D01*
X186243Y469268D01*
X189343Y466168D01*
X191021Y462117D01*
X191021Y457733D01*
X189343Y453682D01*
X186243Y450582D01*
X182192Y448904D01*
X177808Y448904D01*
G37*
%LPD*%
%LPC*%
G36*
X192808Y473904D02*
X192808Y473904D01*
X188757Y475582D01*
X185657Y478682D01*
X183979Y482733D01*
X183979Y487117D01*
X185657Y491168D01*
X188757Y494268D01*
X192808Y495946D01*
X197192Y495946D01*
X201243Y494268D01*
X204343Y491168D01*
X206021Y487117D01*
X206021Y482733D01*
X204343Y478682D01*
X201243Y475582D01*
X197192Y473904D01*
X192808Y473904D01*
G37*
%LPD*%
%LPC*%
G36*
X252808Y473904D02*
X252808Y473904D01*
X248757Y475582D01*
X245657Y478682D01*
X243979Y482733D01*
X243979Y487117D01*
X245657Y491168D01*
X248757Y494268D01*
X252808Y495946D01*
X257192Y495946D01*
X261243Y494268D01*
X264343Y491168D01*
X266021Y487117D01*
X266021Y482733D01*
X264343Y478682D01*
X261243Y475582D01*
X257192Y473904D01*
X252808Y473904D01*
G37*
%LPD*%
%LPC*%
G36*
X282808Y473904D02*
X282808Y473904D01*
X278757Y475582D01*
X275657Y478682D01*
X273979Y482733D01*
X273979Y487117D01*
X275657Y491168D01*
X278757Y494268D01*
X282808Y495946D01*
X287192Y495946D01*
X291243Y494268D01*
X294343Y491168D01*
X296021Y487117D01*
X296021Y482733D01*
X294343Y478682D01*
X291243Y475582D01*
X287192Y473904D01*
X282808Y473904D01*
G37*
%LPD*%
%LPC*%
G36*
X162808Y473904D02*
X162808Y473904D01*
X158757Y475582D01*
X155657Y478682D01*
X153979Y482733D01*
X153979Y487117D01*
X155657Y491168D01*
X158757Y494268D01*
X162808Y495946D01*
X167192Y495946D01*
X171243Y494268D01*
X174343Y491168D01*
X176021Y487117D01*
X176021Y482733D01*
X174343Y478682D01*
X171243Y475582D01*
X167192Y473904D01*
X162808Y473904D01*
G37*
%LPD*%
%LPC*%
G36*
X396524Y309004D02*
X396524Y309004D01*
X395779Y309749D01*
X395779Y332801D01*
X396524Y333546D01*
X403576Y333546D01*
X404321Y332801D01*
X404321Y309749D01*
X403576Y309004D01*
X396524Y309004D01*
G37*
%LPD*%
%LPC*%
G36*
X158338Y284098D02*
X158338Y284098D01*
X155511Y286926D01*
X155511Y290924D01*
X157120Y292534D01*
X157138Y292557D01*
X157160Y292576D01*
X157223Y292670D01*
X157291Y292761D01*
X157301Y292788D01*
X157318Y292813D01*
X157352Y292921D01*
X157392Y293026D01*
X157395Y293056D01*
X157404Y293084D01*
X157406Y293197D01*
X157416Y293310D01*
X157410Y293338D01*
X157411Y293368D01*
X157382Y293477D01*
X157360Y293589D01*
X157346Y293615D01*
X157339Y293643D01*
X157281Y293740D01*
X157229Y293841D01*
X157209Y293862D01*
X157194Y293887D01*
X157111Y293965D01*
X157033Y294047D01*
X157008Y294062D01*
X156986Y294082D01*
X156886Y294133D01*
X156788Y294191D01*
X156759Y294198D01*
X156733Y294211D01*
X156656Y294224D01*
X156512Y294261D01*
X156450Y294259D01*
X156402Y294267D01*
X154874Y294267D01*
X154129Y295011D01*
X154129Y305064D01*
X154874Y305808D01*
X162926Y305808D01*
X163671Y305064D01*
X163671Y295011D01*
X163092Y294432D01*
X163057Y294386D01*
X163014Y294345D01*
X162972Y294272D01*
X162921Y294205D01*
X162900Y294151D01*
X162871Y294100D01*
X162850Y294018D01*
X162820Y293939D01*
X162815Y293881D01*
X162801Y293825D01*
X162803Y293740D01*
X162796Y293656D01*
X162808Y293599D01*
X162810Y293540D01*
X162836Y293460D01*
X162852Y293377D01*
X162879Y293326D01*
X162897Y293270D01*
X162937Y293214D01*
X162983Y293125D01*
X163052Y293053D01*
X163092Y292997D01*
X165164Y290924D01*
X165164Y286926D01*
X162337Y284098D01*
X158338Y284098D01*
G37*
%LPD*%
D10*
X69132Y546608D02*
X73030Y546608D01*
X74979Y548557D01*
X74979Y552455D01*
X73030Y554404D01*
X69132Y554404D01*
X67183Y552455D01*
X67183Y548557D01*
X69132Y546608D01*
X80826Y546608D02*
X84724Y546608D01*
X80826Y546608D02*
X78877Y548557D01*
X78877Y552455D01*
X80826Y554404D01*
X84724Y554404D01*
X86673Y552455D01*
X86673Y550506D01*
X78877Y550506D01*
X90571Y558302D02*
X92520Y558302D01*
X92520Y546608D01*
X90571Y546608D02*
X94469Y546608D01*
X98367Y542710D02*
X98367Y554404D01*
X104214Y554404D01*
X106163Y552455D01*
X106163Y548557D01*
X104214Y546608D01*
X98367Y546608D01*
X110061Y546608D02*
X110061Y554404D01*
X110061Y550506D02*
X113959Y554404D01*
X115908Y554404D01*
X119806Y554404D02*
X121755Y554404D01*
X121755Y546608D01*
X119806Y546608D02*
X123704Y546608D01*
X121755Y558302D02*
X121755Y560251D01*
X127602Y554404D02*
X127602Y546608D01*
X127602Y554404D02*
X133449Y554404D01*
X135398Y552455D01*
X135398Y546608D01*
X139296Y554404D02*
X147092Y554404D01*
X139296Y546608D01*
X147092Y546608D01*
X150990Y546608D02*
X150990Y548557D01*
X152939Y548557D01*
X152939Y546608D01*
X150990Y546608D01*
X158786Y546608D02*
X162684Y546608D01*
X164633Y548557D01*
X164633Y552455D01*
X162684Y554404D01*
X158786Y554404D01*
X156837Y552455D01*
X156837Y548557D01*
X158786Y546608D01*
X168531Y546608D02*
X168531Y554404D01*
X168531Y550506D02*
X172429Y554404D01*
X174378Y554404D01*
X182174Y542710D02*
X184123Y542710D01*
X186072Y544659D01*
X186072Y554404D01*
X180225Y554404D01*
X178276Y552455D01*
X178276Y548557D01*
X180225Y546608D01*
X186072Y546608D01*
X203708Y546608D02*
X203708Y558302D01*
X209555Y558302D01*
X211504Y556353D01*
X211504Y552455D01*
X209555Y550506D01*
X203708Y550506D01*
X207606Y550506D02*
X211504Y546608D01*
X215402Y548557D02*
X215402Y556353D01*
X217351Y558302D01*
X221249Y558302D01*
X223198Y556353D01*
X223198Y548557D01*
X221249Y546608D01*
X217351Y546608D01*
X215402Y548557D01*
X223198Y556353D01*
X227096Y548557D02*
X227096Y546608D01*
X227096Y548557D02*
X229045Y548557D01*
X229045Y546608D01*
X227096Y546608D01*
X232943Y554404D02*
X236841Y558302D01*
X236841Y546608D01*
X232943Y546608D02*
X240739Y546608D01*
X244637Y546608D02*
X244637Y548557D01*
X246586Y548557D01*
X246586Y546608D01*
X244637Y546608D01*
X250484Y554404D02*
X254382Y558302D01*
X254382Y546608D01*
X250484Y546608D02*
X258280Y546608D01*
D11*
X23963Y238125D03*
X10963Y238125D03*
D12*
X136525Y220813D03*
X136525Y207813D03*
D11*
X84288Y306388D03*
X71288Y306388D03*
X27138Y165100D03*
X14138Y165100D03*
X127150Y295275D03*
X114150Y295275D03*
D13*
X22225Y62025D03*
X12725Y84025D03*
X31725Y84025D03*
D14*
X29138Y195263D03*
X12138Y195263D03*
X37075Y282575D03*
X20075Y282575D03*
D11*
X10963Y249238D03*
X23963Y249238D03*
D14*
X29138Y179388D03*
X12138Y179388D03*
D11*
X100163Y295275D03*
X87163Y295275D03*
D12*
X136525Y279550D03*
X136525Y266550D03*
X136525Y252563D03*
X136525Y239563D03*
D11*
X23963Y260350D03*
X10963Y260350D03*
D12*
X44450Y72875D03*
X44450Y85875D03*
X22225Y381150D03*
X22225Y368150D03*
X7938Y400200D03*
X7938Y387200D03*
X34925Y368150D03*
X34925Y381150D03*
D15*
X36449Y266125D03*
X36449Y258125D03*
X36449Y250125D03*
X36449Y242125D03*
X36449Y234125D03*
X36449Y226125D03*
X36449Y218125D03*
X36449Y210125D03*
D16*
X51375Y195199D03*
X59375Y195199D03*
X67375Y195199D03*
X75375Y195199D03*
X83375Y195199D03*
X91375Y195199D03*
X99375Y195199D03*
X107375Y195199D03*
D15*
X122301Y210125D03*
X122301Y218125D03*
X122301Y226125D03*
X122301Y234125D03*
X122301Y242125D03*
X122301Y250125D03*
X122301Y258125D03*
X122301Y266125D03*
D16*
X107375Y281051D03*
X99375Y281051D03*
X91375Y281051D03*
X83375Y281051D03*
X75375Y281051D03*
X67375Y281051D03*
X59375Y281051D03*
X51375Y281051D03*
D11*
X166838Y174625D03*
X153838Y174625D03*
X153838Y123825D03*
X166838Y123825D03*
X153838Y112713D03*
X166838Y112713D03*
X10963Y215900D03*
X23963Y215900D03*
X20488Y142875D03*
X33488Y142875D03*
X20488Y120650D03*
X33488Y120650D03*
X33488Y131763D03*
X20488Y131763D03*
X319238Y44450D03*
X306238Y44450D03*
D17*
X85725Y13038D03*
X85725Y53738D03*
D11*
X295425Y11113D03*
X282425Y11113D03*
D18*
X305238Y11113D03*
X320238Y11113D03*
D19*
X17463Y45075D03*
X17463Y12075D03*
D11*
X45888Y295275D03*
X58888Y295275D03*
X20488Y153988D03*
X33488Y153988D03*
X153838Y101600D03*
X166838Y101600D03*
X153838Y90488D03*
X166838Y90488D03*
D20*
X151838Y160225D03*
X151838Y138225D03*
X168838Y138225D03*
X168838Y160225D03*
D21*
X117475Y30138D03*
X117475Y11138D03*
X117475Y47650D03*
X117475Y66650D03*
D22*
X49213Y53588D03*
X49213Y13088D03*
D23*
X31750Y417400D03*
X41250Y395400D03*
X22250Y395400D03*
D11*
X162075Y207963D03*
X149075Y207963D03*
X249388Y217488D03*
X236388Y217488D03*
X170013Y252413D03*
X157013Y252413D03*
X236388Y184150D03*
X249388Y184150D03*
X236388Y195263D03*
X249388Y195263D03*
X249388Y244475D03*
X236388Y244475D03*
X162075Y219075D03*
X149075Y219075D03*
D12*
X238125Y160188D03*
X238125Y173188D03*
D11*
X155425Y241300D03*
X168425Y241300D03*
X236388Y206375D03*
X249388Y206375D03*
X152250Y196850D03*
X165250Y196850D03*
X162075Y230188D03*
X149075Y230188D03*
X249388Y233363D03*
X236388Y233363D03*
X20488Y98425D03*
X33488Y98425D03*
X33488Y109538D03*
X20488Y109538D03*
D12*
X322263Y261788D03*
X322263Y274788D03*
X311150Y261788D03*
X311150Y274788D03*
X333375Y274788D03*
X333375Y261788D03*
D11*
X377675Y236538D03*
X390675Y236538D03*
D12*
X441325Y138263D03*
X441325Y125263D03*
D11*
X274788Y46038D03*
X261788Y46038D03*
X249388Y84138D03*
X236388Y84138D03*
X145900Y365125D03*
X158900Y365125D03*
D21*
X433388Y346100D03*
X433388Y365100D03*
D11*
X425600Y236538D03*
X412600Y236538D03*
X425300Y247650D03*
X438300Y247650D03*
D24*
X412750Y269275D03*
X412750Y321275D03*
X400050Y269275D03*
X425450Y269275D03*
X438150Y269275D03*
X400050Y321275D03*
X425450Y321275D03*
X438150Y321275D03*
D11*
X253850Y331788D03*
X266850Y331788D03*
D21*
X263525Y346100D03*
X263525Y365100D03*
X242888Y346100D03*
X242888Y365100D03*
D12*
X330200Y352275D03*
X330200Y365275D03*
D21*
X347663Y347100D03*
X347663Y364100D03*
X365125Y346100D03*
X365125Y365100D03*
D11*
X147488Y263525D03*
X160488Y263525D03*
D12*
X361950Y234800D03*
X361950Y247800D03*
D11*
X374500Y247650D03*
X387500Y247650D03*
D24*
X361950Y269275D03*
X361950Y321275D03*
X349250Y269275D03*
X374650Y269275D03*
X387350Y269275D03*
X349250Y321275D03*
X374650Y321275D03*
X387350Y321275D03*
D21*
X392113Y346100D03*
X392113Y365100D03*
D11*
X147488Y274638D03*
X160488Y274638D03*
D12*
X277813Y335113D03*
X277813Y322113D03*
D14*
X280988Y365688D03*
X280988Y348688D03*
D12*
X293688Y363688D03*
X293688Y350688D03*
D25*
X266075Y199700D03*
X266075Y194700D03*
X266075Y189700D03*
X266075Y184700D03*
X266075Y179700D03*
X266075Y174700D03*
X266075Y169700D03*
X266075Y164700D03*
X266075Y159700D03*
X266075Y154700D03*
X266075Y149700D03*
X266075Y144700D03*
X266075Y139700D03*
X266075Y134700D03*
X266075Y129700D03*
X266075Y124700D03*
X266075Y119700D03*
X266075Y114700D03*
X266075Y109700D03*
X266075Y104700D03*
X266075Y99700D03*
X266075Y94700D03*
X266075Y89700D03*
X266075Y84700D03*
X266075Y79700D03*
D26*
X286075Y59700D03*
X291075Y59700D03*
X296075Y59700D03*
X301075Y59700D03*
X306075Y59700D03*
X311075Y59700D03*
X316075Y59700D03*
X321075Y59700D03*
X326075Y59700D03*
X331075Y59700D03*
X336075Y59700D03*
X341075Y59700D03*
X346075Y59700D03*
X351075Y59700D03*
X356075Y59700D03*
X361075Y59700D03*
X366075Y59700D03*
X371075Y59700D03*
X376075Y59700D03*
X381075Y59700D03*
X386075Y59700D03*
X391075Y59700D03*
X396075Y59700D03*
X401075Y59700D03*
X406075Y59700D03*
D25*
X426075Y79700D03*
X426075Y84700D03*
X426075Y89700D03*
X426075Y94700D03*
X426075Y99700D03*
X426075Y104700D03*
X426075Y109700D03*
X426075Y114700D03*
X426075Y119700D03*
X426075Y124700D03*
X426075Y129700D03*
X426075Y134700D03*
X426075Y139700D03*
X426075Y144700D03*
X426075Y149700D03*
X426075Y154700D03*
X426075Y159700D03*
X426075Y164700D03*
X426075Y169700D03*
X426075Y174700D03*
X426075Y179700D03*
X426075Y184700D03*
X426075Y189700D03*
X426075Y194700D03*
X426075Y199700D03*
D26*
X406075Y219700D03*
X401075Y219700D03*
X396075Y219700D03*
X391075Y219700D03*
X386075Y219700D03*
X381075Y219700D03*
X376075Y219700D03*
X371075Y219700D03*
X366075Y219700D03*
X361075Y219700D03*
X356075Y219700D03*
X351075Y219700D03*
X346075Y219700D03*
X341075Y219700D03*
X336075Y219700D03*
X331075Y219700D03*
X326075Y219700D03*
X321075Y219700D03*
X316075Y219700D03*
X311075Y219700D03*
X306075Y219700D03*
X301075Y219700D03*
X296075Y219700D03*
X291075Y219700D03*
X286075Y219700D03*
D12*
X274638Y241450D03*
X274638Y228450D03*
X249238Y150663D03*
X249238Y163663D03*
X350838Y247800D03*
X350838Y234800D03*
D20*
X232800Y69738D03*
X232800Y47738D03*
X249800Y47738D03*
X249800Y69738D03*
D12*
X250825Y131913D03*
X250825Y118913D03*
D11*
X22075Y306388D03*
X35075Y306388D03*
X39838Y319088D03*
X26838Y319088D03*
D23*
X25400Y353900D03*
X34900Y331900D03*
X15900Y331900D03*
D11*
X50650Y319088D03*
X63650Y319088D03*
X63650Y330200D03*
X50650Y330200D03*
D23*
X57150Y366600D03*
X66650Y344600D03*
X47650Y344600D03*
D11*
X177650Y263525D03*
X190650Y263525D03*
X190650Y274638D03*
X177650Y274638D03*
D23*
X184150Y311038D03*
X193650Y289038D03*
X174650Y289038D03*
D11*
X209400Y263525D03*
X222400Y263525D03*
X222400Y274638D03*
X209400Y274638D03*
D23*
X215900Y311038D03*
X225400Y289038D03*
X206400Y289038D03*
D11*
X145900Y300038D03*
X158900Y300038D03*
X158900Y311150D03*
X145900Y311150D03*
D23*
X152400Y347550D03*
X161900Y325550D03*
X142900Y325550D03*
D11*
X82400Y319088D03*
X95400Y319088D03*
X95400Y330200D03*
X82400Y330200D03*
D23*
X88900Y366600D03*
X98400Y344600D03*
X79400Y344600D03*
D11*
X114150Y319088D03*
X127150Y319088D03*
X127150Y330200D03*
X114150Y330200D03*
D23*
X120650Y366600D03*
X130150Y344600D03*
X111150Y344600D03*
D27*
X345000Y484925D03*
X315000Y484925D03*
X285000Y484925D03*
X255000Y484925D03*
X225000Y484925D03*
X195000Y484925D03*
X165000Y484925D03*
X135000Y484925D03*
X105000Y484925D03*
X330000Y459925D03*
X300000Y459925D03*
X270000Y459925D03*
X240000Y459925D03*
X210000Y459925D03*
X180000Y459925D03*
X150000Y459925D03*
X120000Y459925D03*
X330000Y424925D03*
X300000Y424925D03*
X270000Y424925D03*
X240000Y424925D03*
X210000Y424925D03*
X180000Y424925D03*
X150000Y424925D03*
X120000Y424925D03*
X345000Y399925D03*
X315000Y399925D03*
X285000Y399925D03*
X255000Y399925D03*
X225000Y399925D03*
X195000Y399925D03*
X165000Y399925D03*
X135000Y399925D03*
X105000Y399925D03*
D28*
X214850Y360363D03*
X178850Y360363D03*
X214850Y334963D03*
X178850Y334963D03*
D12*
X300038Y274788D03*
X300038Y261788D03*
X288925Y274788D03*
X288925Y261788D03*
D11*
X336400Y44450D03*
X349400Y44450D03*
D12*
X7938Y435125D03*
X7938Y422125D03*
X7938Y445938D03*
X7938Y458938D03*
D29*
X44338Y454025D03*
X22338Y444525D03*
X22338Y463525D03*
D28*
X48163Y482600D03*
X12163Y482600D03*
D12*
X441325Y435125D03*
X441325Y422125D03*
X441325Y458938D03*
X441325Y445938D03*
D29*
X404925Y454025D03*
X426925Y463525D03*
X426925Y444525D03*
D28*
X402688Y482600D03*
X438688Y482600D03*
D11*
X330050Y33338D03*
X343050Y33338D03*
D18*
X320238Y33338D03*
X305238Y33338D03*
D11*
X330050Y22225D03*
X343050Y22225D03*
D18*
X320238Y22225D03*
X305238Y22225D03*
D12*
X441325Y79525D03*
X441325Y66525D03*
X441325Y42713D03*
X441325Y55713D03*
X441325Y103338D03*
X441325Y90338D03*
D11*
X250975Y312738D03*
X237975Y312738D03*
D21*
X412750Y365100D03*
X412750Y346100D03*
D30*
X390717Y397513D03*
X390717Y412753D03*
X390717Y427993D03*
D31*
X326944Y334150D03*
X321944Y334150D03*
X316944Y334150D03*
X311944Y334150D03*
X306944Y334150D03*
X301944Y334150D03*
X296944Y334150D03*
D32*
X288944Y326150D03*
X288944Y321150D03*
X288944Y316150D03*
X288944Y311150D03*
X288944Y306150D03*
X288944Y301150D03*
X288944Y296150D03*
D31*
X296944Y288150D03*
X301944Y288150D03*
X306944Y288150D03*
X311944Y288150D03*
X316944Y288150D03*
X321944Y288150D03*
X326944Y288150D03*
D32*
X334944Y296150D03*
X334944Y301150D03*
X334944Y306150D03*
X334944Y311150D03*
X334944Y316150D03*
X334944Y321150D03*
X334944Y326150D03*
D33*
X311944Y311150D03*
D15*
X135001Y100588D03*
X135001Y108588D03*
X135001Y116588D03*
X135001Y124588D03*
X135001Y132588D03*
X135001Y140588D03*
X135001Y148588D03*
X135001Y156588D03*
D16*
X120075Y171514D03*
X112075Y171514D03*
X104075Y171514D03*
X96075Y171514D03*
X88075Y171514D03*
X80075Y171514D03*
X72075Y171514D03*
X64075Y171514D03*
D15*
X49149Y156588D03*
X49149Y148588D03*
X49149Y140588D03*
X49149Y132588D03*
X49149Y124588D03*
X49149Y116588D03*
X49149Y108588D03*
X49149Y100588D03*
D16*
X64075Y85662D03*
X72075Y85662D03*
X80075Y85662D03*
X88075Y85662D03*
X96075Y85662D03*
X104075Y85662D03*
X112075Y85662D03*
X120075Y85662D03*
D34*
X190500Y241300D03*
X215900Y241300D03*
X190500Y215900D03*
X215900Y215900D03*
X190500Y190500D03*
X215900Y190500D03*
X190500Y165100D03*
X215900Y165100D03*
X190500Y139700D03*
X215900Y139700D03*
X190500Y114300D03*
X215900Y114300D03*
X190500Y88900D03*
X215900Y88900D03*
D35*
X371475Y12700D03*
X371475Y38100D03*
X396875Y12700D03*
X396875Y38100D03*
X422275Y12700D03*
X422275Y38100D03*
D11*
X10963Y227013D03*
X23963Y227013D03*
D36*
X260325Y298450D03*
X241325Y298450D03*
D37*
X304650Y350775D03*
X311150Y350775D03*
X317650Y350775D03*
X317650Y366775D03*
X311150Y366775D03*
X304650Y366775D03*
D12*
X277813Y295125D03*
X277813Y308125D03*
X277813Y274788D03*
X277813Y261788D03*
D11*
X334813Y11113D03*
X347813Y11113D03*
D12*
X441325Y12550D03*
X441325Y25550D03*
D30*
X415925Y427990D03*
X415925Y412750D03*
X415925Y397510D03*
D36*
X238150Y15875D03*
X257150Y15875D03*
D38*
X331850Y234800D03*
X331850Y241300D03*
X331850Y247800D03*
X315850Y247800D03*
X315850Y241300D03*
X315850Y234800D03*
X288863Y247800D03*
X288863Y241300D03*
X288863Y234800D03*
X304863Y234800D03*
X304863Y241300D03*
X304863Y247800D03*
D39*
X143637Y61214D03*
X143637Y38100D03*
X143637Y14986D03*
D40*
X205615Y38100D03*
D11*
X216050Y9525D03*
X203050Y9525D03*
D41*
X77788Y268288D03*
D42*
X83375Y273875D02*
X83375Y281051D01*
X83375Y273875D02*
X77788Y268288D01*
X75375Y270700D02*
X75375Y281051D01*
X75375Y270700D02*
X77788Y268288D01*
D43*
X84288Y306388D02*
X93663Y306388D01*
D41*
X93663Y306388D03*
D44*
X136525Y207813D02*
X142875Y198438D01*
D41*
X142875Y198438D03*
X169863Y174625D03*
X120650Y31750D03*
X114300Y31750D03*
D43*
X166838Y174625D02*
X169863Y174625D01*
D41*
X90488Y57150D03*
X90488Y49213D03*
X80963Y49213D03*
X36513Y295275D03*
D44*
X45888Y295275D01*
D41*
X41275Y392113D03*
X136525Y295275D03*
D42*
X127150Y295275D01*
D41*
X9525Y249238D03*
D45*
X11113Y249088D01*
X10963Y249238D01*
D41*
X19050Y131763D03*
X19050Y120650D03*
X19050Y142875D03*
D42*
X20488Y142875D01*
X20488Y131763D02*
X19050Y131763D01*
D41*
X19050Y153988D03*
D42*
X20488Y153988D01*
X20488Y120650D02*
X19050Y120650D01*
D41*
X17463Y46038D03*
X7938Y46038D03*
X26988Y46038D03*
X19050Y109538D03*
D42*
X20488Y109538D01*
D41*
X152400Y123825D03*
D42*
X153838Y123825D01*
X168838Y160225D02*
X170538Y161925D01*
X166838Y112713D02*
X165100Y112713D01*
D41*
X152400Y90488D03*
X327025Y44450D03*
D42*
X316075Y59700D02*
X315913Y59863D01*
X319238Y44450D02*
X327025Y44450D01*
D41*
X212725Y31750D03*
X206375Y38100D03*
X305594Y317500D03*
X318294Y304800D03*
D43*
X295425Y361950D02*
X293688Y363688D01*
X281400Y363688D01*
X280988Y365688D01*
D41*
X280988Y376238D03*
D42*
X280988Y365688D01*
X381075Y231550D02*
X381075Y219700D01*
X381075Y231550D02*
X377675Y236538D01*
D41*
X200025Y301625D03*
X173038Y301625D03*
X104775Y357188D03*
X73025Y357188D03*
X44450Y363538D03*
X341313Y242888D03*
D42*
X339725Y241300D02*
X331850Y241300D01*
X339725Y241300D02*
X341313Y242888D01*
D41*
X290513Y204788D03*
D42*
X291075Y205350D02*
X291075Y219700D01*
X291075Y205350D02*
X290513Y204788D01*
D41*
X274638Y249238D03*
D43*
X274638Y241450D01*
D41*
X374650Y268288D03*
X374650Y261938D03*
X44450Y357188D03*
X73025Y363538D03*
X104775Y363538D03*
X141288Y349250D03*
X173038Y307975D03*
X311150Y261938D03*
D42*
X288863Y241300D02*
X276375Y241300D01*
X274638Y241450D01*
D41*
X280988Y11113D03*
D42*
X311150Y261788D02*
X311150Y261938D01*
D41*
X233363Y46038D03*
D42*
X233363Y47175D01*
X232800Y47738D01*
D41*
X249238Y71438D03*
X200025Y38100D03*
X200025Y31750D03*
X80963Y57150D03*
X238125Y152400D03*
D45*
X238125Y160188D01*
X251450Y149700D02*
X266075Y149700D01*
X251450Y149700D02*
X249238Y150663D01*
D41*
X330200Y373063D03*
D43*
X330200Y365275D01*
D41*
X165100Y346075D03*
D45*
X249388Y244475D02*
X265113Y244475D01*
X268138Y241450D01*
X274638Y241450D01*
D41*
X228600Y206375D03*
D43*
X426075Y134700D02*
X436175Y134700D01*
X441325Y138263D01*
X282425Y11113D02*
X280988Y11113D01*
D41*
X411163Y134938D03*
D43*
X411400Y134700D02*
X426075Y134700D01*
X411400Y134700D02*
X411163Y134938D01*
D41*
X12700Y79375D03*
D46*
X228600Y206375D02*
X236388Y206375D01*
D42*
X152250Y198288D02*
X152250Y196850D01*
X152250Y198288D02*
X152400Y198438D01*
X142875Y198438D01*
D41*
X169863Y217488D03*
D42*
X162075Y218925D02*
X162075Y219075D01*
X162075Y218925D02*
X163513Y217488D01*
X169863Y217488D01*
D41*
X147638Y241300D03*
D42*
X155425Y241300D01*
D41*
X147638Y252413D03*
D45*
X147638Y263375D01*
X147488Y263525D01*
D41*
X41275Y398463D03*
D42*
X316075Y59700D02*
X316075Y47613D01*
X319238Y44450D01*
D41*
X141288Y355600D03*
X165100Y352425D03*
X73025Y369888D03*
X104775Y369888D03*
X200025Y307975D03*
X200025Y314325D03*
X441325Y34925D03*
X387350Y82550D03*
X350838Y22225D03*
D42*
X343050Y22225D01*
D41*
X350838Y33338D03*
D42*
X343050Y33338D01*
D45*
X441325Y34925D02*
X441325Y42713D01*
D41*
X423863Y463550D03*
X430213Y463550D03*
X19050Y444500D03*
X25400Y444500D03*
D45*
X19050Y444500D02*
X9375Y444500D01*
X7938Y445938D01*
D42*
X430213Y463550D02*
X436713Y463550D01*
X441325Y458938D01*
D41*
X44450Y369888D03*
X412750Y381000D03*
X419100Y381000D03*
D46*
X236388Y206375D02*
X236388Y195263D01*
D41*
X280988Y146050D03*
D45*
X275750Y149700D02*
X266075Y149700D01*
X275750Y149700D02*
X280988Y146050D01*
D42*
X333375Y269875D02*
X333375Y274788D01*
X333375Y269875D02*
X331788Y268288D01*
X312738Y268288D01*
X311150Y266700D01*
X311150Y261788D01*
D41*
X318294Y317500D03*
X305594Y304800D03*
D42*
X316944Y318850D02*
X316944Y334150D01*
X316944Y318850D02*
X318294Y317500D01*
X311944Y311150D02*
X305594Y304800D01*
D41*
X422275Y227013D03*
X422275Y220663D03*
D43*
X322113Y358775D02*
X330200Y365275D01*
D41*
X441325Y111125D03*
D42*
X441325Y103338D01*
D41*
X168275Y112713D03*
D45*
X249388Y84138D02*
X249388Y71588D01*
X249238Y71438D01*
X249238Y70300D01*
X249800Y69738D01*
D41*
X276225Y46038D03*
D45*
X274788Y46038D01*
D41*
X9525Y238125D03*
X9525Y227013D03*
D45*
X10963Y227013D01*
X10963Y238125D02*
X9525Y238125D01*
D41*
X238125Y322263D03*
D43*
X237975Y322113D02*
X237975Y312738D01*
X237975Y322113D02*
X238125Y322263D01*
X237975Y312738D02*
X237975Y301800D01*
X241325Y298450D01*
D41*
X257175Y273050D03*
D45*
X153838Y133350D02*
X153838Y123825D01*
X153838Y133350D02*
X153838Y136225D01*
X151838Y138225D01*
X153838Y133350D02*
X153075Y132588D01*
X169863Y161250D02*
X169863Y174625D01*
X169863Y161250D02*
X168838Y160225D01*
D41*
X122238Y131763D03*
D42*
X123063Y132588D02*
X135001Y132588D01*
X123063Y132588D02*
X122238Y131763D01*
D41*
X122238Y117475D03*
D42*
X123125Y116588D02*
X135001Y116588D01*
X123125Y116588D02*
X122238Y117475D01*
D41*
X61913Y133350D03*
D42*
X61913Y128588D01*
X57913Y124588D01*
X49149Y124588D01*
D43*
X312738Y358775D02*
X322113Y358775D01*
X312738Y358775D02*
X311150Y357188D01*
X311150Y350775D01*
D41*
X206375Y44450D03*
X212725Y44450D03*
X120650Y47625D03*
X114300Y47625D03*
D43*
X216050Y18900D02*
X216050Y9525D01*
X216050Y18900D02*
X212725Y31750D01*
D41*
X200025Y44450D03*
X212725Y38100D03*
X206375Y31750D03*
X109538Y225425D03*
D44*
X49975Y234125D02*
X36449Y234125D01*
X49975Y234125D02*
X52388Y231775D01*
D41*
X52388Y231775D03*
D44*
X122301Y218125D02*
X138038Y218125D01*
X136525Y220813D01*
D41*
X109538Y217488D03*
D44*
X110175Y218125D02*
X122301Y218125D01*
X110175Y218125D02*
X109538Y217488D01*
X109538Y225425D02*
X121601Y225425D01*
X122301Y226125D01*
X121601Y225425D02*
X132788Y225425D01*
X136525Y220813D01*
D42*
X36449Y234125D02*
X27900Y234125D01*
X23963Y238125D01*
D45*
X11113Y218925D02*
X10963Y215900D01*
D42*
X386075Y219700D02*
X386075Y230350D01*
X390675Y236538D01*
D41*
X296863Y252413D03*
D42*
X304863Y241300D02*
X315850Y241300D01*
X304863Y241300D02*
X298450Y241300D01*
X296863Y242888D01*
X296863Y252413D01*
D41*
X274638Y220663D03*
X174625Y31750D03*
X180975Y31750D03*
X168275Y38100D03*
X168275Y31750D03*
X174625Y38100D03*
X180975Y38100D03*
D45*
X258200Y154700D02*
X266075Y154700D01*
X258200Y154700D02*
X249238Y163663D01*
D41*
X147638Y284163D03*
D42*
X147638Y274788D01*
X147488Y274638D01*
D41*
X257175Y233363D03*
D43*
X249388Y233363D01*
X426075Y129700D02*
X435300Y129700D01*
X441325Y125263D01*
D41*
X411163Y125413D03*
D43*
X415450Y129700D02*
X426075Y129700D01*
X415450Y129700D02*
X411163Y125413D01*
D41*
X322263Y11113D03*
D43*
X320238Y11113D01*
D42*
X311075Y49288D02*
X311075Y59700D01*
X311075Y49288D02*
X306238Y44450D01*
D41*
X385763Y206375D03*
D42*
X386075Y206688D02*
X386075Y219700D01*
X386075Y206688D02*
X385763Y206375D01*
D41*
X396875Y82550D03*
X250825Y141288D03*
D45*
X250825Y131913D01*
D41*
X312738Y74613D03*
D42*
X311075Y72950D02*
X311075Y59700D01*
X311075Y72950D02*
X312738Y74613D01*
D43*
X296075Y219700D02*
X296075Y227800D01*
X293688Y230188D01*
X285750Y230188D01*
X276375Y230188D01*
X274638Y228450D01*
X274638Y220663D01*
X286075Y219700D02*
X286075Y229863D01*
X285750Y230188D01*
D41*
X176213Y233363D03*
D45*
X173038Y230188D02*
X162075Y230188D01*
X173038Y230188D02*
X176213Y233363D01*
D41*
X136525Y312738D03*
X280988Y155575D03*
D45*
X280113Y154700D02*
X266075Y154700D01*
X280113Y154700D02*
X280988Y155575D01*
X15725Y218925D02*
X11113Y218925D01*
X15725Y218925D02*
X17463Y220663D01*
X17463Y236538D01*
X19050Y238125D02*
X23963Y238125D01*
X19050Y238125D02*
X17463Y236538D01*
D41*
X61913Y147638D03*
X350838Y44450D03*
D45*
X349400Y44450D01*
D41*
X247650Y322263D03*
D43*
X250975Y318938D02*
X250975Y312738D01*
X250975Y318938D02*
X247650Y322263D01*
X260325Y309588D02*
X260325Y298450D01*
X260325Y309588D02*
X257175Y312738D01*
X250975Y312738D01*
D45*
X52238Y72875D02*
X44450Y72875D01*
X52238Y72875D02*
X55563Y76200D01*
X123825Y76200D01*
D42*
X61913Y147638D02*
X50099Y147638D01*
X49149Y148588D01*
X42063Y148588D01*
X33488Y153988D01*
D41*
X231775Y328613D03*
D45*
X300038Y261788D02*
X300038Y255588D01*
X296863Y252413D01*
D41*
X277813Y274638D03*
D45*
X277813Y274788D01*
D41*
X333375Y11113D03*
D45*
X334813Y11113D01*
D41*
X441325Y11113D03*
D45*
X441325Y12550D01*
D41*
X387350Y396875D03*
X393700Y396875D03*
D45*
X127000Y79375D02*
X123825Y76200D01*
D43*
X180975Y9525D02*
X203050Y9525D01*
X180975Y9525D02*
X180975Y31750D01*
D41*
X168275Y44450D03*
X174625Y44450D03*
X180975Y44450D03*
X69850Y293688D03*
D43*
X69850Y306538D01*
X71288Y306388D01*
X67375Y291213D02*
X67375Y281051D01*
X67375Y291213D02*
X69850Y293688D01*
D41*
X88900Y69850D03*
D45*
X36513Y74613D02*
X26988Y74613D01*
X20488Y81113D02*
X20488Y98425D01*
X20488Y81113D02*
X26988Y74613D01*
D42*
X29138Y195263D02*
X36513Y195263D01*
X47625Y206375D01*
X74613Y206375D01*
X77788Y209550D01*
X77788Y228600D01*
X71438Y234950D01*
X71438Y244475D01*
D41*
X66675Y249238D03*
D42*
X92900Y234125D02*
X122301Y234125D01*
X92900Y234125D02*
X82550Y244475D01*
X71438Y244475D01*
X66675Y249238D01*
X51375Y282575D02*
X37075Y282575D01*
X51375Y282575D02*
X51375Y281051D01*
X51375Y282575D02*
X52388Y282575D01*
X52388Y306388D01*
D41*
X52388Y306388D03*
D42*
X107950Y266700D02*
X120800Y279550D01*
X107950Y266700D02*
X87313Y266700D01*
X80963Y260350D01*
X71438Y260350D01*
X59375Y272413D01*
X59375Y281051D01*
X59375Y293200D01*
X58888Y295275D01*
X120800Y279550D02*
X136525Y279550D01*
D41*
X61913Y306388D03*
D42*
X58888Y303363D02*
X58888Y295275D01*
X58888Y303363D02*
X61913Y306388D01*
X34925Y381150D02*
X22225Y381150D01*
X22250Y381175D02*
X22250Y395400D01*
X22250Y381175D02*
X22225Y381150D01*
X49149Y100588D02*
X49149Y90574D01*
X44450Y85875D01*
X33575Y85875D01*
X31725Y84025D01*
X36449Y258125D02*
X26188Y258125D01*
X23963Y260350D01*
X23963Y268138D01*
X20075Y272025D01*
X20075Y282575D01*
D41*
X49213Y258763D03*
D42*
X37087Y258763D01*
X36449Y258125D01*
D41*
X22225Y292100D03*
D42*
X22225Y283138D01*
X20075Y282575D01*
X24850Y250125D02*
X36449Y250125D01*
X24850Y250125D02*
X23963Y249238D01*
X29138Y179388D02*
X42863Y179388D01*
X59375Y187963D01*
X59375Y195199D01*
X27138Y165100D02*
X25400Y165100D01*
X27138Y165100D02*
X36513Y165100D01*
X50800Y179388D01*
X66675Y187325D01*
X67375Y188025D01*
X67375Y195199D01*
X13263Y176213D02*
X14138Y165100D01*
X13263Y176213D02*
X12138Y179388D01*
X32325Y210125D02*
X36449Y210125D01*
X32325Y210125D02*
X26988Y204788D01*
X21663Y204788D01*
X12138Y195263D01*
X91375Y281051D02*
X91375Y290650D01*
X87163Y295275D01*
X49213Y268288D02*
X45013Y272488D01*
X136525Y266550D02*
X136525Y252563D01*
X57150Y268288D02*
X49213Y268288D01*
X57150Y268288D02*
X75313Y250125D01*
X122301Y250125D01*
X45013Y272488D02*
X30725Y272488D01*
X28575Y274638D01*
X28575Y295275D01*
X25400Y298450D01*
X19050Y298450D01*
X11113Y290513D01*
X11113Y261788D01*
X10963Y260350D01*
X122301Y250125D02*
X134088Y250125D01*
X136525Y252563D01*
X133963Y242125D02*
X122301Y242125D01*
X133963Y242125D02*
X136525Y239563D01*
X99375Y281051D02*
X99375Y294075D01*
X100163Y295275D01*
X114150Y295275D01*
D41*
X79375Y111125D03*
X71438Y212725D03*
D42*
X37150Y218125D02*
X36449Y218125D01*
X24913Y218125D01*
X23963Y215900D01*
D45*
X37150Y218125D02*
X66038Y218125D01*
X71438Y212725D01*
X306075Y74925D02*
X306075Y59700D01*
X306075Y74925D02*
X303213Y77788D01*
D41*
X303213Y77788D03*
X341313Y233363D03*
D45*
X349400Y233363D01*
X350838Y234800D01*
X23963Y227013D02*
X23963Y215900D01*
X96075Y94488D02*
X96075Y85662D01*
X96075Y94488D02*
X79375Y111125D01*
D42*
X58738Y225425D02*
X65088Y231775D01*
X58738Y225425D02*
X37149Y225425D01*
X36449Y226125D01*
D41*
X11113Y377825D03*
D42*
X11113Y387200D01*
X7938Y387200D01*
D41*
X65088Y231775D03*
D42*
X31750Y407988D02*
X31750Y417400D01*
X31750Y407988D02*
X30163Y406400D01*
D47*
X31750Y417400D02*
X77475Y417400D01*
X120000Y459925D01*
D42*
X30163Y406400D02*
X14138Y406400D01*
X7938Y400200D01*
X153838Y174625D02*
X153838Y162225D01*
X151838Y160225D01*
D45*
X148200Y156588D02*
X135001Y156588D01*
X148200Y156588D02*
X151838Y160225D01*
D42*
X170163Y139550D02*
X168838Y138225D01*
X168838Y139138D01*
D45*
X166838Y136225D02*
X166838Y123825D01*
X166838Y136225D02*
X168838Y138225D01*
X168838Y139138D02*
X158750Y149225D01*
X135639Y149225D01*
X135001Y148588D01*
D41*
X55563Y250825D03*
D42*
X46800Y242125D02*
X36449Y242125D01*
X46800Y242125D02*
X55563Y250825D01*
D41*
X77788Y238125D03*
D42*
X79375Y238125D01*
X114300Y203200D01*
D41*
X17463Y319088D03*
D42*
X9525Y319088D01*
X6350Y322263D01*
X6350Y352275D01*
X22225Y368150D01*
X112075Y185100D02*
X112075Y171514D01*
X112075Y185100D02*
X114300Y187325D01*
X114300Y203200D01*
D41*
X98425Y209550D03*
D45*
X99375Y208600D02*
X99375Y195199D01*
X99375Y208600D02*
X98425Y209550D01*
X99375Y195199D02*
X99375Y186688D01*
X93663Y180975D01*
X76200Y180975D01*
X72075Y178438D01*
X72075Y171514D01*
D41*
X92075Y215900D03*
D45*
X91375Y215200D02*
X91375Y195199D01*
X91375Y215200D02*
X92075Y215900D01*
X64075Y178375D02*
X64075Y171514D01*
X64075Y178375D02*
X76200Y184150D01*
X88900Y184150D01*
X91375Y186625D01*
X91375Y195199D01*
X179388Y204788D02*
X190500Y215900D01*
X179388Y204788D02*
X179388Y193675D01*
X174625Y188913D01*
X138113Y188913D01*
X130175Y196850D01*
D41*
X130175Y196850D03*
D42*
X123125Y210125D02*
X122301Y210125D01*
D45*
X123825Y208601D02*
X123825Y182563D01*
X123825Y208601D02*
X122301Y210125D01*
X123825Y182563D02*
X127000Y179388D01*
X127000Y163513D01*
X115888Y152400D01*
X88900Y152400D01*
X80075Y161225D01*
X80075Y171514D01*
D41*
X84138Y220663D03*
D45*
X83375Y219900D02*
X83375Y195199D01*
X83375Y219900D02*
X84138Y220663D01*
D41*
X49213Y166688D03*
D45*
X49213Y156651D01*
X49149Y156588D01*
D41*
X88900Y257175D03*
X69850Y117475D03*
D42*
X88900Y257175D02*
X121351Y257175D01*
X122301Y258125D01*
X49149Y116588D02*
X40725Y116588D01*
X33488Y120650D01*
X50037Y117475D02*
X69850Y117475D01*
X50037Y117475D02*
X49149Y116588D01*
X58738Y179388D02*
X74613Y187325D01*
X58738Y179388D02*
X58738Y163513D01*
X68263Y153988D01*
X68263Y144463D01*
X64388Y140588D01*
X49149Y140588D01*
X32600Y140588D01*
X33488Y142875D01*
X75375Y188088D02*
X75375Y195199D01*
X75375Y188088D02*
X74613Y187325D01*
D41*
X69850Y98425D03*
X328613Y76200D03*
D45*
X331075Y73900D01*
X331075Y59700D01*
X331075Y49775D01*
X336400Y44450D01*
X64075Y85662D02*
X64075Y92650D01*
X69850Y98425D01*
D41*
X336550Y285750D03*
X336550Y188913D03*
D45*
X340519Y309563D02*
X338931Y311150D01*
X340519Y309563D02*
X340519Y289719D01*
X275438Y189700D02*
X266075Y189700D01*
X275438Y189700D02*
X276225Y188913D01*
X300038Y188913D01*
X303213Y192088D01*
X333375Y192088D01*
X336550Y188913D01*
X336550Y285750D02*
X340519Y289719D01*
X338931Y311150D02*
X334944Y311150D01*
D41*
X341313Y254000D03*
X342900Y195263D03*
D45*
X343694Y283369D02*
X343694Y311944D01*
X343694Y283369D02*
X341313Y280988D01*
X341313Y254000D01*
X342900Y195263D02*
X301625Y195263D01*
X298450Y192088D01*
X277813Y192088D01*
X275200Y194700D01*
X266075Y194700D01*
X343694Y311944D02*
X339488Y316150D01*
X334944Y316150D01*
D43*
X305238Y11113D02*
X295425Y11113D01*
D42*
X49149Y132588D02*
X34313Y132588D01*
X33488Y131763D01*
D41*
X233363Y98425D03*
X311150Y204788D03*
D42*
X311150Y219625D02*
X311075Y219700D01*
D45*
X311150Y219625D02*
X311150Y204788D01*
X230188Y101600D02*
X166838Y101600D01*
X230188Y101600D02*
X233363Y98425D01*
X166838Y101600D02*
X165100Y101600D01*
X166838Y101600D02*
X166838Y90488D01*
X149075Y207963D02*
X149075Y219075D01*
X149075Y230188D01*
D41*
X141288Y230188D03*
D45*
X149075Y230188D01*
X236388Y233363D02*
X236388Y244475D01*
X236388Y233363D02*
X236388Y217488D01*
D41*
X242888Y254000D03*
D45*
X236388Y252263D02*
X236388Y244475D01*
X236388Y252263D02*
X238125Y254000D01*
X242888Y254000D01*
D42*
X33488Y109538D02*
X33488Y98425D01*
D41*
X69850Y107950D03*
X336550Y201613D03*
D45*
X331075Y207088D02*
X331075Y219700D01*
X331075Y207088D02*
X336550Y201613D01*
X331850Y234800D02*
X331075Y234800D01*
X331075Y219700D01*
D42*
X69850Y107950D02*
X49787Y107950D01*
X49149Y108588D01*
X48199Y109538D02*
X33488Y109538D01*
X48199Y109538D02*
X49149Y108588D01*
D45*
X301075Y219700D02*
X301075Y229150D01*
X295425Y234800D01*
X288863Y234800D01*
X269725Y234800D01*
X260350Y225425D01*
X244475Y225425D01*
X242888Y223838D01*
X242888Y185738D01*
X241300Y184150D02*
X236388Y184150D01*
X241300Y184150D02*
X242888Y185738D01*
X238125Y182413D02*
X238125Y173188D01*
X238125Y182413D02*
X236388Y184150D01*
D41*
X173038Y196850D03*
D45*
X165250Y196850D01*
X162075Y207963D01*
D41*
X323850Y204788D03*
D45*
X321075Y207563D01*
X320525Y247800D02*
X315850Y247800D01*
X320525Y247800D02*
X322263Y246063D01*
X322263Y231775D01*
X321075Y230588D02*
X321075Y219700D01*
X321075Y230588D02*
X322263Y231775D01*
X321075Y219700D02*
X321075Y207563D01*
X285750Y195263D02*
X276225Y204788D01*
X285750Y195263D02*
X296863Y195263D01*
X300038Y198438D01*
X314325Y198438D01*
X317500Y201613D01*
X317500Y207963D01*
X316075Y209388D02*
X316075Y219700D01*
X316075Y209388D02*
X317500Y207963D01*
X316075Y234800D02*
X315850Y234800D01*
X316075Y234800D02*
X316075Y219700D01*
X276225Y204788D02*
X250975Y204788D01*
X249388Y206375D01*
X249388Y217488D01*
X331850Y247800D02*
X333375Y247800D01*
X333375Y261788D01*
X322263Y261788D01*
X326075Y246700D02*
X326075Y219700D01*
X326075Y246700D02*
X327175Y247800D01*
X331850Y247800D01*
D41*
X304800Y96838D03*
D45*
X354013Y96838D01*
D41*
X250825Y111125D03*
D45*
X250825Y118913D01*
X381075Y69775D02*
X381075Y59700D01*
X381075Y69775D02*
X354013Y96838D01*
X249388Y184150D02*
X249388Y195263D01*
D41*
X249238Y174625D03*
D45*
X249238Y184000D01*
X249388Y184150D01*
D41*
X252413Y254000D03*
D42*
X160488Y263525D02*
X160488Y274638D01*
D41*
X168275Y263525D03*
D45*
X160488Y263525D01*
X157163Y252413D02*
X157013Y252413D01*
X157163Y252413D02*
X158750Y254000D01*
X158750Y261788D01*
X160488Y263525D01*
X311150Y274788D02*
X322263Y274788D01*
D41*
X282575Y284163D03*
D45*
X285750Y280988D01*
X309563Y280988D01*
X311150Y279400D01*
X311150Y274788D02*
X311150Y273050D01*
X311150Y274788D02*
X311150Y279400D01*
X326075Y69213D02*
X326075Y59700D01*
X326075Y69213D02*
X322263Y73025D01*
X322263Y79375D01*
X314325Y87313D01*
X298450Y87313D01*
X288925Y77788D01*
X279400Y77788D01*
X260350Y58738D01*
X242888Y58738D01*
X232800Y68825D02*
X232800Y69738D01*
X232800Y68825D02*
X242888Y58738D01*
X236388Y73325D02*
X236388Y84138D01*
X236388Y73325D02*
X232800Y69738D01*
X321075Y69450D02*
X321075Y59700D01*
X319088Y71438D02*
X319088Y77788D01*
X312738Y84138D01*
X300038Y84138D01*
X290513Y74613D01*
X280988Y74613D01*
X319088Y71438D02*
X321075Y69450D01*
X261788Y46038D02*
X251500Y46038D01*
X249800Y47738D01*
X261938Y55563D02*
X280988Y74613D01*
X261938Y55563D02*
X257625Y55563D01*
X249800Y47738D01*
X304863Y234800D02*
X306075Y234800D01*
X306075Y219700D01*
X238125Y260350D02*
X233363Y255588D01*
X238125Y260350D02*
X255588Y260350D01*
X265113Y250825D01*
D41*
X265113Y250825D03*
X277813Y211138D03*
D45*
X277813Y207963D01*
X287338Y198438D01*
X295275Y198438D01*
X306075Y209238D01*
X306075Y219700D01*
X171600Y250825D02*
X170013Y252413D01*
X168425Y241450D02*
X168425Y241300D01*
X168425Y241450D02*
X169863Y242888D01*
X169863Y250675D01*
X170013Y252413D01*
X173188Y255588D02*
X233363Y255588D01*
X173188Y255588D02*
X170013Y252413D01*
D42*
X406075Y230013D02*
X406075Y219700D01*
X406075Y230013D02*
X412600Y236538D01*
X412750Y236688D01*
X412750Y260350D02*
X412750Y269275D01*
X412750Y260350D02*
X404813Y252413D01*
X404813Y244325D01*
X412600Y236538D01*
D45*
X236538Y114300D02*
X222250Y128588D01*
X236538Y114300D02*
X236538Y106363D01*
X248200Y94700D01*
X266075Y94700D01*
X222250Y128588D02*
X209550Y128588D01*
X203200Y134938D01*
X203200Y177800D01*
X215900Y190500D01*
X215900Y139700D02*
X239713Y115888D01*
X239713Y107950D01*
X247963Y99700D01*
X266075Y99700D01*
X228600Y152400D02*
X215900Y165100D01*
X228600Y152400D02*
X228600Y131763D01*
X242888Y117475D01*
X247725Y104700D02*
X266075Y104700D01*
X247725Y104700D02*
X242888Y109538D01*
X242888Y117475D01*
D41*
X42863Y306388D03*
D45*
X35075Y306388D01*
D41*
X288925Y127000D03*
D45*
X275113Y129700D02*
X266075Y129700D01*
X275113Y129700D02*
X288925Y127000D01*
D41*
X71438Y319088D03*
D45*
X63650Y319088D01*
D41*
X282575Y120650D03*
D45*
X275350Y124700D02*
X266075Y124700D01*
X275350Y124700D02*
X282575Y120650D01*
D41*
X25400Y357188D03*
X25400Y350838D03*
D48*
X365125Y365100D02*
X365125Y403225D01*
X338138Y442913D01*
X322263Y442913D01*
X315000Y450175D01*
X315000Y484925D01*
D47*
X57150Y377825D02*
X57150Y366600D01*
X57150Y377825D02*
X104250Y424925D01*
X120000Y424925D01*
D48*
X184150Y312738D02*
X184150Y311038D01*
X184150Y312738D02*
X196850Y325438D01*
X196850Y354013D01*
X203200Y360363D01*
X214850Y360363D01*
X214850Y380075D01*
X195000Y399925D01*
X158900Y365125D02*
X158900Y355750D01*
X152400Y349250D01*
X152400Y347550D01*
X165000Y371225D02*
X165000Y399925D01*
X165000Y371225D02*
X158900Y365125D01*
X215900Y333913D02*
X215900Y311038D01*
X215900Y333913D02*
X214850Y334963D01*
X225425Y334963D01*
X228600Y338138D01*
X228600Y396325D01*
X225000Y399925D01*
X433388Y365100D02*
X436563Y368300D01*
X438150Y369888D01*
X438150Y403225D01*
X438150Y409575D01*
D41*
X438150Y403225D03*
X438150Y409575D03*
D48*
X263525Y381000D02*
X263525Y365100D01*
X270000Y387475D02*
X270000Y424925D01*
X270000Y387475D02*
X263525Y381000D01*
D42*
X244450Y346100D02*
X242888Y346100D01*
D41*
X257175Y322263D03*
D45*
X253850Y325588D02*
X253850Y331788D01*
X253850Y325588D02*
X257175Y322263D01*
X252413Y338138D02*
X244450Y346100D01*
X252413Y338138D02*
X252413Y333225D01*
X253850Y331788D01*
D42*
X263675Y344363D02*
X263525Y346100D01*
D41*
X266700Y322263D03*
D45*
X266850Y322413D02*
X266850Y331788D01*
X266850Y322413D02*
X266700Y322263D01*
X266850Y331788D02*
X266850Y342775D01*
X263525Y346100D01*
D48*
X242888Y365100D02*
X242888Y387813D01*
X255000Y399925D01*
D45*
X303213Y388938D02*
X317650Y374500D01*
X303213Y388938D02*
X303213Y396875D01*
X306263Y399925D02*
X315000Y399925D01*
X306263Y399925D02*
X303213Y396875D01*
X317650Y374500D02*
X317650Y366775D01*
X304650Y380275D02*
X285000Y399925D01*
X304650Y380275D02*
X304650Y366775D01*
D41*
X288925Y334963D03*
X330200Y344488D03*
D43*
X296944Y334963D02*
X288925Y334963D01*
D44*
X330200Y344488D02*
X330200Y352275D01*
X330200Y344488D02*
X345050Y344488D01*
X347663Y347100D01*
D43*
X288944Y326150D02*
X288925Y326150D01*
X288925Y334963D01*
D42*
X438150Y269275D02*
X438150Y247800D01*
X438300Y247650D01*
X426075Y203825D02*
X426075Y199700D01*
X426075Y203825D02*
X438300Y216050D01*
X438300Y247650D01*
D48*
X361950Y321275D02*
X361950Y342900D01*
X365125Y346075D01*
X365125Y346100D01*
X387350Y342925D02*
X387350Y321275D01*
X387350Y342925D02*
X392113Y346100D01*
D42*
X401075Y248213D02*
X401075Y219700D01*
X361950Y247800D02*
X361950Y261938D01*
X361950Y269275D01*
D41*
X361950Y261938D03*
X396875Y252413D03*
D42*
X401075Y248213D01*
X396075Y229388D02*
X396075Y219700D01*
X396075Y229388D02*
X396875Y230188D01*
X396875Y242888D01*
X392113Y247650D01*
X387500Y247650D01*
X387350Y247800D02*
X387350Y269275D01*
X387350Y247800D02*
X387500Y247650D01*
D48*
X438150Y321275D02*
X438150Y344513D01*
X433388Y346100D01*
D45*
X317650Y344638D02*
X317650Y350775D01*
X317650Y344638D02*
X311944Y338931D01*
X311944Y334150D01*
X306944Y334150D02*
X306944Y340756D01*
X304650Y343050D02*
X304650Y350775D01*
X304650Y343050D02*
X306944Y340756D01*
D43*
X280988Y348688D02*
X277813Y335113D01*
X295425Y350688D02*
X301944Y339406D01*
X295425Y350688D02*
X293688Y350688D01*
X281400Y350688D01*
X280988Y348688D01*
X301944Y339406D02*
X301944Y334150D01*
D42*
X281463Y321150D02*
X280838Y322113D01*
X277813Y322113D01*
X281463Y321150D02*
X288944Y321150D01*
D41*
X160338Y288925D03*
D42*
X160338Y298600D01*
X158900Y300038D01*
D41*
X285750Y96838D03*
D45*
X278613Y89700D02*
X266075Y89700D01*
X278613Y89700D02*
X285750Y96838D01*
D41*
X230188Y263525D03*
D45*
X222400Y263525D01*
D41*
X295275Y96838D03*
D45*
X282575Y84138D01*
X266638Y84138D01*
X266075Y84700D01*
D41*
X198438Y265113D03*
D45*
X190650Y263525D01*
X266075Y169700D02*
X293850Y169700D01*
X307975Y155575D01*
D41*
X307975Y155575D03*
D42*
X22075Y306388D02*
X22225Y308125D01*
X15900Y330025D02*
X15900Y331900D01*
X22225Y314475D02*
X22225Y308125D01*
X22225Y314475D02*
X26838Y319088D01*
X15900Y330025D01*
X50650Y330200D02*
X50650Y319088D01*
X50650Y330200D02*
X50650Y341600D01*
X47650Y344600D01*
X177650Y284450D02*
X177650Y274638D01*
X177650Y284450D02*
X174650Y289038D01*
X177650Y274638D02*
X177650Y263525D01*
X209400Y274638D02*
X209400Y284450D01*
X206400Y289038D01*
X209400Y274638D02*
X209400Y263525D01*
X145900Y311150D02*
X145900Y322550D01*
X142900Y325550D01*
X145900Y311150D02*
X145900Y300038D01*
D45*
X152825Y100588D02*
X135001Y100588D01*
X152825Y100588D02*
X153838Y101600D01*
D42*
X82400Y319088D02*
X82400Y330200D01*
X82400Y341600D01*
X79400Y344600D01*
X114150Y341600D02*
X114150Y330200D01*
X114150Y341600D02*
X111150Y344600D01*
X114150Y330200D02*
X114150Y319088D01*
D41*
X103188Y319088D03*
D45*
X95400Y319088D01*
D41*
X288925Y114300D03*
D45*
X275588Y119700D02*
X266075Y119700D01*
X275588Y119700D02*
X280988Y114300D01*
X288925Y114300D01*
D41*
X127000Y309563D03*
D45*
X127000Y315913D01*
X127150Y319088D01*
D41*
X284163Y106363D03*
D45*
X275825Y114700D02*
X266075Y114700D01*
X275825Y114700D02*
X284163Y106363D01*
D47*
X88900Y366600D02*
X88900Y383825D01*
X105000Y399925D01*
X120650Y385575D02*
X120650Y366600D01*
X120650Y385575D02*
X135000Y399925D01*
D41*
X277813Y293688D03*
D45*
X277813Y295125D01*
D41*
X288925Y274638D03*
D42*
X288925Y274788D01*
D41*
X300038Y274638D03*
X314325Y174625D03*
D45*
X327025Y128588D02*
X386075Y69538D01*
X327025Y161925D02*
X314325Y174625D01*
X327025Y161925D02*
X327025Y128588D01*
X386075Y69538D02*
X386075Y59700D01*
D41*
X244475Y273050D03*
D45*
X250825Y266700D02*
X263525Y266700D01*
X250825Y266700D02*
X244475Y273050D01*
X300038Y274638D02*
X300038Y274788D01*
X265113Y268288D02*
X263525Y266700D01*
X265113Y268288D02*
X293688Y268288D01*
X300038Y274638D01*
D41*
X288925Y260350D03*
D45*
X288925Y261788D01*
D41*
X307975Y180975D03*
D45*
X301700Y174700D02*
X266075Y174700D01*
X301700Y174700D02*
X307975Y180975D01*
X288863Y247800D02*
X288863Y260288D01*
X288925Y260350D01*
X288925Y261788D02*
X277813Y261788D01*
D41*
X150813Y376238D03*
D43*
X145900Y371325D02*
X145900Y365125D01*
X145900Y371325D02*
X150813Y376238D01*
D45*
X30313Y435125D02*
X7938Y435125D01*
X30313Y435125D02*
X33338Y438150D01*
X33338Y455613D01*
X25425Y463525D01*
X22338Y463525D01*
X23925Y462075D01*
X22225Y460375D01*
X10963Y460375D01*
X7938Y458938D01*
X266075Y79700D02*
X276550Y79700D01*
X277813Y80963D01*
X287338Y80963D01*
X296863Y90488D01*
X323850Y90488D01*
X338138Y76200D01*
D41*
X338138Y76200D03*
X7938Y412750D03*
D45*
X7938Y422125D01*
D47*
X116688Y503238D02*
X135000Y484925D01*
X48163Y482600D02*
X46038Y482600D01*
X46038Y455725D01*
X44338Y454025D01*
X48163Y482600D02*
X73025Y482600D01*
X93663Y503238D01*
X116688Y503238D01*
D42*
X426925Y444525D02*
X439913Y444525D01*
X441325Y445938D01*
X441325Y435125D01*
D45*
X444500Y422125D02*
X444500Y301625D01*
X444500Y422125D02*
X441325Y422125D01*
X444500Y301625D02*
X431800Y288925D01*
X431800Y219075D01*
X419100Y206375D01*
X396875Y206375D01*
X369888Y179388D01*
D41*
X369888Y179388D03*
D45*
X295588Y179700D02*
X266075Y179700D01*
X295588Y179700D02*
X304800Y188913D01*
X327025Y188913D01*
X336550Y179388D01*
D41*
X336550Y179388D03*
D47*
X404925Y454025D02*
X404925Y481950D01*
X402688Y482600D01*
D48*
X404925Y454025D02*
X404925Y438990D01*
X415925Y427990D01*
D42*
X330050Y33338D02*
X320238Y33338D01*
X320238Y22225D02*
X330050Y22225D01*
D41*
X112713Y158750D03*
D45*
X115888Y158750D01*
X120075Y162938D01*
X120075Y171514D01*
X227013Y36513D02*
X302063Y36513D01*
X227013Y36513D02*
X223838Y39688D01*
X223838Y66675D01*
X220663Y69850D01*
X302063Y36513D02*
X305238Y33338D01*
D41*
X220663Y69850D03*
X103188Y158750D03*
D45*
X300038Y22225D02*
X305238Y22225D01*
X104075Y159638D02*
X104075Y171514D01*
X104075Y159638D02*
X103188Y158750D01*
X288925Y33338D02*
X300038Y22225D01*
X288925Y33338D02*
X225425Y33338D01*
X220663Y38100D01*
X220663Y60325D01*
X215900Y65088D01*
X211138Y65088D01*
D41*
X211138Y65088D03*
D45*
X336075Y211613D02*
X336075Y219700D01*
X336075Y211613D02*
X349250Y198438D01*
X349250Y182563D01*
X330200Y160338D01*
X330200Y130175D01*
X385763Y74613D01*
X441325Y79525D02*
X441325Y90338D01*
X436413Y74613D02*
X385763Y74613D01*
X436413Y74613D02*
X441325Y79525D01*
X441325Y66525D02*
X441325Y55713D01*
X430363Y55713D01*
X422275Y47625D01*
X422275Y38100D01*
D41*
X42863Y17463D03*
X49213Y17463D03*
X55563Y17463D03*
X55563Y9525D03*
X49213Y9525D03*
X42863Y9525D03*
X179388Y334963D03*
D49*
X178850Y335500D02*
X178850Y360363D01*
X178850Y335500D02*
X179388Y334963D01*
D41*
X277813Y309563D03*
D45*
X277813Y308125D01*
D41*
X387350Y428625D03*
X393700Y428625D03*
D48*
X392113Y376238D02*
X392113Y365100D01*
X392113Y376238D02*
X413385Y397510D01*
X415925Y397510D01*
X412750Y321275D02*
X412750Y304800D01*
X419100Y298450D01*
D41*
X411163Y247650D03*
D48*
X419100Y255588D01*
X419100Y298450D01*
D41*
X336550Y136525D03*
D45*
X415925Y139700D02*
X426075Y139700D01*
X415925Y139700D02*
X414338Y141288D01*
X341313Y141288D01*
X336550Y136525D01*
D41*
X336550Y146050D03*
D45*
X337900Y144700D02*
X426075Y144700D01*
X337900Y144700D02*
X336550Y146050D01*
D41*
X103188Y98425D03*
D45*
X104075Y97538D02*
X104075Y85662D01*
X104075Y97538D02*
X103188Y98425D01*
D41*
X112713Y101600D03*
D45*
X112075Y100963D02*
X112075Y85662D01*
X112075Y100963D02*
X112713Y101600D01*
X350838Y247800D02*
X350838Y252413D01*
X355600Y257175D01*
X355600Y333375D01*
X352425Y336550D01*
X346075Y336550D01*
X342900Y333375D01*
X342900Y328613D01*
X340438Y326150D01*
X334944Y326150D01*
X376075Y59700D02*
X376075Y49375D01*
X384175Y41275D01*
X384175Y25400D01*
X371475Y12700D01*
X384175Y25400D02*
X441175Y25400D01*
X441325Y25550D01*
X371075Y38500D02*
X371075Y59700D01*
X371075Y38500D02*
X371475Y38100D01*
X355600Y11113D02*
X347813Y11113D01*
X355600Y11113D02*
X358775Y14288D01*
X358775Y25400D01*
X371475Y38100D01*
D41*
X412750Y412750D03*
X419100Y412750D03*
M02*
