G04 EAGLE Gerber RS-274X export*
G75*
%MOMM*%
%FSLAX34Y34*%
%LPD*%
%INInner Copper Layer 2*%
%IPPOS*%
%AMOC8*
5,1,8,0,0,1.08239X$1,22.5*%
G01*
%ADD10C,1.950000*%
%ADD11C,1.524000*%
%ADD12C,0.711200*%
%ADD13C,0.152400*%

G36*
X366217Y3188D02*
X366217Y3188D01*
X366303Y3190D01*
X366357Y3208D01*
X366414Y3216D01*
X366492Y3251D01*
X366574Y3277D01*
X366621Y3309D01*
X366673Y3332D01*
X366739Y3387D01*
X366810Y3435D01*
X366847Y3479D01*
X366890Y3515D01*
X366938Y3587D01*
X366993Y3653D01*
X367016Y3705D01*
X367048Y3752D01*
X367074Y3834D01*
X367108Y3913D01*
X367116Y3969D01*
X367133Y4023D01*
X367136Y4109D01*
X367147Y4194D01*
X367139Y4251D01*
X367141Y4307D01*
X367119Y4390D01*
X367107Y4476D01*
X367083Y4528D01*
X367069Y4582D01*
X367025Y4656D01*
X366989Y4735D01*
X366953Y4778D01*
X366924Y4827D01*
X366861Y4886D01*
X366805Y4951D01*
X366763Y4977D01*
X366716Y5021D01*
X366587Y5087D01*
X366520Y5129D01*
X366439Y5163D01*
X363938Y7664D01*
X362584Y10932D01*
X362584Y14468D01*
X363938Y17736D01*
X366439Y20237D01*
X369707Y21591D01*
X373243Y21591D01*
X376511Y20237D01*
X379012Y17736D01*
X380366Y14468D01*
X380366Y10932D01*
X379012Y7664D01*
X376511Y5163D01*
X376430Y5129D01*
X376355Y5085D01*
X376277Y5050D01*
X376234Y5013D01*
X376185Y4985D01*
X376126Y4922D01*
X376060Y4866D01*
X376029Y4819D01*
X375989Y4778D01*
X375950Y4701D01*
X375902Y4630D01*
X375885Y4576D01*
X375859Y4525D01*
X375843Y4441D01*
X375817Y4359D01*
X375815Y4302D01*
X375804Y4246D01*
X375812Y4161D01*
X375809Y4075D01*
X375824Y4020D01*
X375829Y3963D01*
X375860Y3883D01*
X375881Y3800D01*
X375910Y3751D01*
X375931Y3698D01*
X375983Y3629D01*
X376026Y3555D01*
X376068Y3516D01*
X376102Y3471D01*
X376171Y3419D01*
X376234Y3361D01*
X376284Y3335D01*
X376330Y3301D01*
X376410Y3270D01*
X376487Y3231D01*
X376536Y3223D01*
X376596Y3200D01*
X376741Y3189D01*
X376818Y3176D01*
X416932Y3176D01*
X417017Y3188D01*
X417103Y3190D01*
X417157Y3208D01*
X417214Y3216D01*
X417292Y3251D01*
X417374Y3277D01*
X417421Y3309D01*
X417473Y3332D01*
X417539Y3387D01*
X417610Y3435D01*
X417647Y3479D01*
X417690Y3515D01*
X417738Y3587D01*
X417793Y3653D01*
X417816Y3705D01*
X417848Y3752D01*
X417874Y3834D01*
X417908Y3913D01*
X417916Y3969D01*
X417933Y4023D01*
X417936Y4109D01*
X417947Y4194D01*
X417939Y4251D01*
X417941Y4307D01*
X417919Y4390D01*
X417907Y4476D01*
X417883Y4528D01*
X417869Y4582D01*
X417825Y4656D01*
X417789Y4735D01*
X417753Y4778D01*
X417724Y4827D01*
X417661Y4886D01*
X417605Y4951D01*
X417563Y4977D01*
X417516Y5021D01*
X417387Y5087D01*
X417320Y5129D01*
X417239Y5163D01*
X414738Y7664D01*
X413384Y10932D01*
X413384Y14468D01*
X414738Y17736D01*
X417239Y20237D01*
X420507Y21591D01*
X424043Y21591D01*
X427311Y20237D01*
X429812Y17736D01*
X431166Y14468D01*
X431166Y10932D01*
X429812Y7664D01*
X427311Y5163D01*
X427230Y5129D01*
X427155Y5085D01*
X427077Y5050D01*
X427034Y5013D01*
X426985Y4985D01*
X426926Y4922D01*
X426860Y4866D01*
X426829Y4819D01*
X426789Y4778D01*
X426750Y4701D01*
X426702Y4630D01*
X426685Y4576D01*
X426659Y4525D01*
X426643Y4441D01*
X426617Y4359D01*
X426615Y4302D01*
X426604Y4246D01*
X426612Y4161D01*
X426609Y4075D01*
X426624Y4020D01*
X426629Y3963D01*
X426660Y3883D01*
X426681Y3800D01*
X426710Y3751D01*
X426731Y3698D01*
X426783Y3629D01*
X426826Y3555D01*
X426868Y3516D01*
X426902Y3471D01*
X426971Y3419D01*
X427034Y3361D01*
X427084Y3335D01*
X427130Y3301D01*
X427210Y3270D01*
X427287Y3231D01*
X427336Y3223D01*
X427396Y3200D01*
X427541Y3189D01*
X427618Y3176D01*
X445809Y3176D01*
X445867Y3184D01*
X445925Y3182D01*
X446007Y3204D01*
X446091Y3216D01*
X446144Y3239D01*
X446200Y3254D01*
X446273Y3297D01*
X446350Y3332D01*
X446395Y3370D01*
X446445Y3399D01*
X446503Y3461D01*
X446567Y3515D01*
X446599Y3564D01*
X446639Y3607D01*
X446678Y3682D01*
X446725Y3752D01*
X446742Y3808D01*
X446769Y3860D01*
X446780Y3928D01*
X446810Y4023D01*
X446813Y4123D01*
X446824Y4191D01*
X446824Y31147D01*
X446820Y31176D01*
X446823Y31206D01*
X446800Y31317D01*
X446784Y31429D01*
X446772Y31455D01*
X446767Y31484D01*
X446714Y31585D01*
X446668Y31688D01*
X446649Y31711D01*
X446636Y31737D01*
X446558Y31819D01*
X446485Y31905D01*
X446460Y31921D01*
X446440Y31943D01*
X446342Y32000D01*
X446248Y32063D01*
X446220Y32072D01*
X446195Y32086D01*
X446085Y32114D01*
X445977Y32149D01*
X445947Y32149D01*
X445919Y32156D01*
X445806Y32153D01*
X445693Y32156D01*
X445664Y32148D01*
X445635Y32147D01*
X445527Y32113D01*
X445418Y32084D01*
X445392Y32069D01*
X445364Y32060D01*
X445301Y32014D01*
X445173Y31939D01*
X445130Y31893D01*
X445091Y31865D01*
X443324Y30098D01*
X439326Y30098D01*
X436498Y32926D01*
X436498Y36924D01*
X439326Y39752D01*
X443324Y39752D01*
X445091Y37985D01*
X445115Y37967D01*
X445134Y37945D01*
X445184Y37911D01*
X445218Y37879D01*
X445260Y37858D01*
X445318Y37814D01*
X445346Y37804D01*
X445370Y37787D01*
X445443Y37764D01*
X445471Y37750D01*
X445499Y37745D01*
X445584Y37713D01*
X445613Y37710D01*
X445641Y37701D01*
X445755Y37699D01*
X445798Y37695D01*
X445802Y37694D01*
X445807Y37694D01*
X445867Y37689D01*
X445896Y37695D01*
X445925Y37694D01*
X446035Y37723D01*
X446146Y37745D01*
X446172Y37759D01*
X446200Y37766D01*
X446298Y37824D01*
X446341Y37846D01*
X446350Y37850D01*
X446352Y37852D01*
X446398Y37876D01*
X446420Y37896D01*
X446445Y37911D01*
X446522Y37994D01*
X446545Y38016D01*
X446567Y38034D01*
X446571Y38040D01*
X446604Y38072D01*
X446619Y38097D01*
X446639Y38119D01*
X446691Y38219D01*
X446695Y38226D01*
X446725Y38271D01*
X446729Y38284D01*
X446748Y38317D01*
X446755Y38346D01*
X446769Y38372D01*
X446782Y38449D01*
X446785Y38461D01*
X446810Y38542D01*
X446811Y38564D01*
X446818Y38593D01*
X446816Y38655D01*
X446824Y38703D01*
X446824Y107347D01*
X446820Y107376D01*
X446823Y107406D01*
X446800Y107517D01*
X446784Y107629D01*
X446772Y107655D01*
X446767Y107684D01*
X446714Y107785D01*
X446668Y107888D01*
X446649Y107911D01*
X446636Y107937D01*
X446558Y108019D01*
X446485Y108105D01*
X446460Y108121D01*
X446440Y108143D01*
X446342Y108200D01*
X446248Y108263D01*
X446220Y108272D01*
X446195Y108286D01*
X446085Y108314D01*
X445977Y108349D01*
X445947Y108349D01*
X445919Y108356D01*
X445806Y108353D01*
X445693Y108356D01*
X445664Y108348D01*
X445635Y108347D01*
X445527Y108313D01*
X445418Y108284D01*
X445392Y108269D01*
X445364Y108260D01*
X445301Y108214D01*
X445173Y108139D01*
X445130Y108093D01*
X445091Y108065D01*
X443324Y106298D01*
X439326Y106298D01*
X436498Y109126D01*
X436498Y113124D01*
X439326Y115952D01*
X443324Y115952D01*
X445091Y114185D01*
X445115Y114167D01*
X445134Y114145D01*
X445228Y114082D01*
X445318Y114014D01*
X445346Y114004D01*
X445370Y113987D01*
X445478Y113953D01*
X445584Y113913D01*
X445613Y113910D01*
X445641Y113901D01*
X445755Y113899D01*
X445867Y113889D01*
X445896Y113895D01*
X445925Y113894D01*
X446035Y113923D01*
X446146Y113945D01*
X446172Y113959D01*
X446200Y113966D01*
X446298Y114024D01*
X446398Y114076D01*
X446420Y114096D01*
X446445Y114111D01*
X446522Y114194D01*
X446604Y114272D01*
X446619Y114297D01*
X446639Y114319D01*
X446691Y114419D01*
X446748Y114517D01*
X446755Y114546D01*
X446769Y114572D01*
X446782Y114649D01*
X446818Y114793D01*
X446816Y114855D01*
X446824Y114903D01*
X446824Y322263D01*
X446816Y322320D01*
X446818Y322379D01*
X446796Y322460D01*
X446784Y322544D01*
X446761Y322597D01*
X446746Y322654D01*
X446703Y322726D01*
X446668Y322803D01*
X446630Y322848D01*
X446601Y322898D01*
X446539Y322956D01*
X446485Y323020D01*
X446436Y323053D01*
X446393Y323093D01*
X446318Y323131D01*
X446248Y323178D01*
X446192Y323196D01*
X446140Y323222D01*
X446072Y323234D01*
X445977Y323264D01*
X445877Y323266D01*
X445809Y323278D01*
X399478Y323278D01*
X399478Y323977D01*
X399470Y324035D01*
X399471Y324093D01*
X399450Y324175D01*
X399438Y324259D01*
X399414Y324312D01*
X399399Y324368D01*
X399356Y324441D01*
X399322Y324518D01*
X399284Y324563D01*
X399254Y324613D01*
X399192Y324671D01*
X399138Y324735D01*
X399089Y324767D01*
X399047Y324807D01*
X398972Y324846D01*
X398901Y324893D01*
X398846Y324910D01*
X398794Y324937D01*
X398726Y324948D01*
X398630Y324978D01*
X398531Y324981D01*
X398463Y324992D01*
X296538Y324992D01*
X296451Y324980D01*
X296363Y324977D01*
X296311Y324960D01*
X296256Y324952D01*
X296176Y324917D01*
X296093Y324890D01*
X296054Y324862D01*
X295997Y324836D01*
X295883Y324740D01*
X295820Y324695D01*
X282937Y311812D01*
X282884Y311742D01*
X282824Y311678D01*
X282799Y311629D01*
X282766Y311585D01*
X282735Y311503D01*
X282695Y311425D01*
X282687Y311377D01*
X282664Y311319D01*
X282652Y311171D01*
X282639Y311094D01*
X282639Y307563D01*
X279812Y304736D01*
X275813Y304736D01*
X272986Y307563D01*
X272986Y311562D01*
X275813Y314389D01*
X279344Y314389D01*
X279431Y314401D01*
X279518Y314404D01*
X279571Y314421D01*
X279625Y314429D01*
X279705Y314465D01*
X279789Y314492D01*
X279828Y314520D01*
X279885Y314545D01*
X279998Y314641D01*
X280062Y314687D01*
X294433Y329058D01*
X398463Y329058D01*
X398520Y329066D01*
X398579Y329064D01*
X398660Y329086D01*
X398744Y329098D01*
X398797Y329121D01*
X398854Y329136D01*
X398926Y329179D01*
X399003Y329214D01*
X399048Y329252D01*
X399098Y329281D01*
X399156Y329343D01*
X399220Y329397D01*
X399253Y329446D01*
X399293Y329489D01*
X399331Y329564D01*
X399378Y329634D01*
X399396Y329690D01*
X399422Y329742D01*
X399434Y329810D01*
X399464Y329905D01*
X399466Y330005D01*
X399478Y330073D01*
X399478Y400050D01*
X399470Y400108D01*
X399471Y400166D01*
X399450Y400248D01*
X399438Y400332D01*
X399414Y400385D01*
X399399Y400441D01*
X399356Y400514D01*
X399322Y400591D01*
X399284Y400636D01*
X399254Y400686D01*
X399192Y400744D01*
X399138Y400808D01*
X399089Y400840D01*
X399047Y400880D01*
X398972Y400919D01*
X398901Y400966D01*
X398846Y400983D01*
X398794Y401010D01*
X398726Y401021D01*
X398630Y401051D01*
X398531Y401054D01*
X398463Y401065D01*
X366140Y401065D01*
X366140Y469900D01*
X366132Y469958D01*
X366134Y470016D01*
X366112Y470098D01*
X366100Y470182D01*
X366077Y470235D01*
X366062Y470291D01*
X366019Y470364D01*
X365984Y470441D01*
X365946Y470486D01*
X365917Y470536D01*
X365855Y470594D01*
X365801Y470658D01*
X365752Y470690D01*
X365709Y470730D01*
X365634Y470769D01*
X365564Y470816D01*
X365508Y470833D01*
X365456Y470860D01*
X365388Y470871D01*
X365293Y470901D01*
X365193Y470904D01*
X365125Y470915D01*
X337046Y470915D01*
X337017Y470911D01*
X336988Y470914D01*
X336877Y470891D01*
X336765Y470875D01*
X336738Y470863D01*
X336709Y470858D01*
X336609Y470806D01*
X336506Y470759D01*
X336483Y470740D01*
X336457Y470727D01*
X336375Y470649D01*
X336289Y470576D01*
X336272Y470551D01*
X336251Y470531D01*
X336194Y470433D01*
X336131Y470339D01*
X336122Y470311D01*
X336107Y470286D01*
X336079Y470176D01*
X336045Y470068D01*
X336044Y470038D01*
X336037Y470010D01*
X336041Y469897D01*
X336038Y469784D01*
X336045Y469755D01*
X336046Y469726D01*
X336081Y469618D01*
X336110Y469509D01*
X336125Y469483D01*
X336134Y469455D01*
X336179Y469392D01*
X336255Y469264D01*
X336301Y469221D01*
X336329Y469182D01*
X339343Y466168D01*
X341021Y462117D01*
X341021Y457733D01*
X339343Y453682D01*
X336243Y450582D01*
X332192Y448904D01*
X327808Y448904D01*
X323757Y450582D01*
X320657Y453682D01*
X318979Y457733D01*
X318979Y462117D01*
X320657Y466168D01*
X323671Y469182D01*
X323689Y469206D01*
X323711Y469225D01*
X323774Y469319D01*
X323842Y469409D01*
X323853Y469437D01*
X323869Y469461D01*
X323903Y469569D01*
X323944Y469675D01*
X323946Y469704D01*
X323955Y469732D01*
X323958Y469846D01*
X323967Y469958D01*
X323961Y469987D01*
X323962Y470016D01*
X323934Y470126D01*
X323911Y470237D01*
X323898Y470263D01*
X323890Y470291D01*
X323832Y470389D01*
X323780Y470489D01*
X323760Y470511D01*
X323745Y470536D01*
X323662Y470613D01*
X323584Y470695D01*
X323559Y470710D01*
X323538Y470730D01*
X323437Y470782D01*
X323339Y470839D01*
X323311Y470846D01*
X323285Y470860D01*
X323207Y470873D01*
X323064Y470909D01*
X323001Y470907D01*
X322954Y470915D01*
X307046Y470915D01*
X307017Y470911D01*
X306988Y470914D01*
X306877Y470891D01*
X306765Y470875D01*
X306738Y470863D01*
X306709Y470858D01*
X306609Y470806D01*
X306506Y470759D01*
X306483Y470740D01*
X306457Y470727D01*
X306375Y470649D01*
X306289Y470576D01*
X306272Y470551D01*
X306251Y470531D01*
X306194Y470433D01*
X306131Y470339D01*
X306122Y470311D01*
X306107Y470286D01*
X306079Y470176D01*
X306045Y470068D01*
X306044Y470038D01*
X306037Y470010D01*
X306041Y469897D01*
X306038Y469784D01*
X306045Y469755D01*
X306046Y469726D01*
X306081Y469618D01*
X306110Y469509D01*
X306125Y469483D01*
X306134Y469455D01*
X306179Y469392D01*
X306255Y469264D01*
X306301Y469221D01*
X306329Y469182D01*
X309343Y466168D01*
X311021Y462117D01*
X311021Y457733D01*
X309343Y453682D01*
X306243Y450582D01*
X302192Y448904D01*
X297808Y448904D01*
X293757Y450582D01*
X290657Y453682D01*
X288979Y457733D01*
X288979Y462117D01*
X290657Y466168D01*
X293671Y469182D01*
X293689Y469206D01*
X293711Y469225D01*
X293774Y469319D01*
X293842Y469409D01*
X293853Y469437D01*
X293869Y469461D01*
X293903Y469569D01*
X293944Y469675D01*
X293946Y469704D01*
X293955Y469732D01*
X293958Y469846D01*
X293967Y469958D01*
X293961Y469987D01*
X293962Y470016D01*
X293934Y470126D01*
X293911Y470237D01*
X293898Y470263D01*
X293890Y470291D01*
X293832Y470389D01*
X293780Y470489D01*
X293760Y470511D01*
X293745Y470536D01*
X293662Y470613D01*
X293584Y470695D01*
X293559Y470710D01*
X293538Y470730D01*
X293437Y470782D01*
X293339Y470839D01*
X293311Y470846D01*
X293285Y470860D01*
X293207Y470873D01*
X293064Y470909D01*
X293001Y470907D01*
X292954Y470915D01*
X277046Y470915D01*
X277017Y470911D01*
X276988Y470914D01*
X276877Y470891D01*
X276765Y470875D01*
X276738Y470863D01*
X276709Y470858D01*
X276609Y470806D01*
X276506Y470759D01*
X276483Y470740D01*
X276457Y470727D01*
X276375Y470649D01*
X276289Y470576D01*
X276272Y470551D01*
X276251Y470531D01*
X276194Y470433D01*
X276131Y470339D01*
X276122Y470311D01*
X276107Y470286D01*
X276079Y470176D01*
X276045Y470068D01*
X276044Y470038D01*
X276037Y470010D01*
X276041Y469897D01*
X276038Y469784D01*
X276045Y469755D01*
X276046Y469726D01*
X276081Y469618D01*
X276110Y469509D01*
X276125Y469483D01*
X276134Y469455D01*
X276179Y469392D01*
X276255Y469264D01*
X276301Y469221D01*
X276329Y469182D01*
X279343Y466168D01*
X281021Y462117D01*
X281021Y457733D01*
X279343Y453682D01*
X276243Y450582D01*
X272192Y448904D01*
X267808Y448904D01*
X263757Y450582D01*
X260657Y453682D01*
X258979Y457733D01*
X258979Y462117D01*
X260657Y466168D01*
X263671Y469182D01*
X263689Y469206D01*
X263711Y469225D01*
X263774Y469319D01*
X263842Y469409D01*
X263853Y469437D01*
X263869Y469461D01*
X263903Y469569D01*
X263944Y469675D01*
X263946Y469704D01*
X263955Y469732D01*
X263958Y469846D01*
X263967Y469958D01*
X263961Y469987D01*
X263962Y470016D01*
X263934Y470126D01*
X263911Y470237D01*
X263898Y470263D01*
X263890Y470291D01*
X263832Y470389D01*
X263780Y470489D01*
X263760Y470511D01*
X263745Y470536D01*
X263662Y470613D01*
X263584Y470695D01*
X263559Y470710D01*
X263538Y470730D01*
X263437Y470782D01*
X263339Y470839D01*
X263311Y470846D01*
X263285Y470860D01*
X263207Y470873D01*
X263064Y470909D01*
X263001Y470907D01*
X262954Y470915D01*
X217046Y470915D01*
X217017Y470911D01*
X216988Y470914D01*
X216877Y470891D01*
X216765Y470875D01*
X216738Y470863D01*
X216709Y470858D01*
X216609Y470806D01*
X216506Y470759D01*
X216483Y470740D01*
X216457Y470727D01*
X216375Y470649D01*
X216289Y470576D01*
X216272Y470551D01*
X216251Y470531D01*
X216194Y470433D01*
X216131Y470339D01*
X216122Y470311D01*
X216107Y470286D01*
X216079Y470176D01*
X216045Y470068D01*
X216044Y470038D01*
X216037Y470010D01*
X216041Y469897D01*
X216038Y469784D01*
X216045Y469755D01*
X216046Y469726D01*
X216081Y469618D01*
X216110Y469509D01*
X216125Y469483D01*
X216134Y469455D01*
X216179Y469392D01*
X216255Y469264D01*
X216301Y469221D01*
X216329Y469182D01*
X219343Y466168D01*
X221021Y462117D01*
X221021Y457733D01*
X219343Y453682D01*
X216243Y450582D01*
X212192Y448904D01*
X207808Y448904D01*
X203757Y450582D01*
X200657Y453682D01*
X198979Y457733D01*
X198979Y462117D01*
X200657Y466168D01*
X203671Y469182D01*
X203689Y469206D01*
X203711Y469225D01*
X203774Y469319D01*
X203842Y469409D01*
X203853Y469437D01*
X203869Y469461D01*
X203903Y469569D01*
X203944Y469675D01*
X203946Y469704D01*
X203955Y469732D01*
X203958Y469846D01*
X203967Y469958D01*
X203961Y469987D01*
X203962Y470016D01*
X203934Y470126D01*
X203911Y470237D01*
X203898Y470263D01*
X203890Y470291D01*
X203832Y470389D01*
X203780Y470489D01*
X203760Y470511D01*
X203745Y470536D01*
X203662Y470613D01*
X203584Y470695D01*
X203559Y470710D01*
X203538Y470730D01*
X203437Y470782D01*
X203339Y470839D01*
X203311Y470846D01*
X203285Y470860D01*
X203207Y470873D01*
X203064Y470909D01*
X203001Y470907D01*
X202954Y470915D01*
X187046Y470915D01*
X187017Y470911D01*
X186988Y470914D01*
X186877Y470891D01*
X186765Y470875D01*
X186738Y470863D01*
X186709Y470858D01*
X186609Y470806D01*
X186506Y470759D01*
X186483Y470740D01*
X186457Y470727D01*
X186375Y470649D01*
X186289Y470576D01*
X186272Y470551D01*
X186251Y470531D01*
X186194Y470433D01*
X186131Y470339D01*
X186122Y470311D01*
X186107Y470286D01*
X186079Y470176D01*
X186045Y470068D01*
X186044Y470038D01*
X186037Y470010D01*
X186041Y469897D01*
X186038Y469784D01*
X186045Y469755D01*
X186046Y469726D01*
X186081Y469618D01*
X186110Y469509D01*
X186125Y469483D01*
X186134Y469455D01*
X186179Y469392D01*
X186255Y469264D01*
X186301Y469221D01*
X186329Y469182D01*
X189343Y466168D01*
X191021Y462117D01*
X191021Y457733D01*
X189343Y453682D01*
X186243Y450582D01*
X182192Y448904D01*
X177808Y448904D01*
X173757Y450582D01*
X170657Y453682D01*
X168979Y457733D01*
X168979Y462117D01*
X170657Y466168D01*
X173671Y469182D01*
X173689Y469206D01*
X173711Y469225D01*
X173774Y469319D01*
X173842Y469409D01*
X173853Y469437D01*
X173869Y469461D01*
X173903Y469569D01*
X173944Y469675D01*
X173946Y469704D01*
X173955Y469732D01*
X173958Y469846D01*
X173967Y469958D01*
X173961Y469987D01*
X173962Y470016D01*
X173934Y470126D01*
X173911Y470237D01*
X173898Y470263D01*
X173890Y470291D01*
X173832Y470389D01*
X173780Y470489D01*
X173760Y470511D01*
X173745Y470536D01*
X173662Y470613D01*
X173584Y470695D01*
X173559Y470710D01*
X173538Y470730D01*
X173437Y470782D01*
X173339Y470839D01*
X173311Y470846D01*
X173285Y470860D01*
X173207Y470873D01*
X173064Y470909D01*
X173001Y470907D01*
X172954Y470915D01*
X157046Y470915D01*
X157017Y470911D01*
X156988Y470914D01*
X156877Y470891D01*
X156765Y470875D01*
X156738Y470863D01*
X156709Y470858D01*
X156609Y470806D01*
X156506Y470759D01*
X156483Y470740D01*
X156457Y470727D01*
X156375Y470649D01*
X156289Y470576D01*
X156272Y470551D01*
X156251Y470531D01*
X156194Y470433D01*
X156131Y470339D01*
X156122Y470311D01*
X156107Y470286D01*
X156079Y470176D01*
X156045Y470068D01*
X156044Y470038D01*
X156037Y470010D01*
X156041Y469897D01*
X156038Y469784D01*
X156045Y469755D01*
X156046Y469726D01*
X156081Y469618D01*
X156110Y469509D01*
X156125Y469483D01*
X156134Y469455D01*
X156179Y469392D01*
X156255Y469264D01*
X156301Y469221D01*
X156329Y469182D01*
X159343Y466168D01*
X161021Y462117D01*
X161021Y457733D01*
X159343Y453682D01*
X156243Y450582D01*
X152192Y448904D01*
X147808Y448904D01*
X143757Y450582D01*
X140657Y453682D01*
X138979Y457733D01*
X138979Y462117D01*
X140657Y466168D01*
X143671Y469182D01*
X143689Y469206D01*
X143711Y469225D01*
X143774Y469319D01*
X143842Y469409D01*
X143853Y469437D01*
X143869Y469461D01*
X143903Y469569D01*
X143944Y469675D01*
X143946Y469704D01*
X143955Y469732D01*
X143958Y469846D01*
X143967Y469958D01*
X143961Y469987D01*
X143962Y470016D01*
X143934Y470126D01*
X143911Y470237D01*
X143898Y470263D01*
X143890Y470291D01*
X143832Y470389D01*
X143780Y470489D01*
X143760Y470511D01*
X143745Y470536D01*
X143662Y470613D01*
X143584Y470695D01*
X143559Y470710D01*
X143538Y470730D01*
X143437Y470782D01*
X143339Y470839D01*
X143311Y470846D01*
X143285Y470860D01*
X143207Y470873D01*
X143064Y470909D01*
X143001Y470907D01*
X142954Y470915D01*
X127046Y470915D01*
X127017Y470911D01*
X126988Y470914D01*
X126877Y470891D01*
X126765Y470875D01*
X126738Y470863D01*
X126709Y470858D01*
X126609Y470806D01*
X126506Y470759D01*
X126483Y470740D01*
X126457Y470727D01*
X126375Y470649D01*
X126289Y470576D01*
X126272Y470551D01*
X126251Y470531D01*
X126194Y470433D01*
X126131Y470339D01*
X126122Y470311D01*
X126107Y470286D01*
X126079Y470176D01*
X126045Y470068D01*
X126044Y470038D01*
X126037Y470010D01*
X126041Y469897D01*
X126038Y469784D01*
X126045Y469755D01*
X126046Y469726D01*
X126081Y469618D01*
X126110Y469509D01*
X126125Y469483D01*
X126134Y469455D01*
X126179Y469392D01*
X126255Y469264D01*
X126301Y469221D01*
X126329Y469182D01*
X129343Y466168D01*
X131021Y462117D01*
X131021Y457733D01*
X129343Y453682D01*
X126243Y450582D01*
X122192Y448904D01*
X117808Y448904D01*
X113757Y450582D01*
X110657Y453682D01*
X108995Y457695D01*
X108936Y457794D01*
X108884Y457896D01*
X108864Y457916D01*
X108850Y457940D01*
X108767Y458019D01*
X108688Y458102D01*
X108664Y458116D01*
X108644Y458135D01*
X108542Y458188D01*
X108442Y458246D01*
X108416Y458253D01*
X108391Y458266D01*
X108278Y458288D01*
X108167Y458316D01*
X108139Y458315D01*
X108112Y458321D01*
X107998Y458311D01*
X107883Y458307D01*
X107856Y458298D01*
X107829Y458296D01*
X107722Y458255D01*
X107612Y458220D01*
X107592Y458205D01*
X107563Y458194D01*
X107351Y458033D01*
X107339Y458025D01*
X48495Y399180D01*
X48442Y399111D01*
X48382Y399047D01*
X48357Y398997D01*
X48324Y398953D01*
X48293Y398872D01*
X48253Y398794D01*
X48245Y398746D01*
X48223Y398688D01*
X48210Y398540D01*
X48197Y398463D01*
X48197Y373387D01*
X48210Y373300D01*
X48212Y373213D01*
X48229Y373160D01*
X48237Y373105D01*
X48273Y373025D01*
X48300Y372942D01*
X48328Y372903D01*
X48353Y372846D01*
X48449Y372733D01*
X48495Y372669D01*
X49277Y371887D01*
X49277Y367888D01*
X48819Y367430D01*
X48784Y367384D01*
X48741Y367343D01*
X48699Y367270D01*
X48648Y367203D01*
X48627Y367149D01*
X48598Y367098D01*
X48577Y367016D01*
X48547Y366938D01*
X48542Y366879D01*
X48528Y366823D01*
X48530Y366738D01*
X48523Y366654D01*
X48535Y366597D01*
X48537Y366538D01*
X48563Y366458D01*
X48579Y366375D01*
X48606Y366324D01*
X48624Y366268D01*
X48664Y366212D01*
X48710Y366123D01*
X48779Y366051D01*
X48819Y365995D01*
X49277Y365537D01*
X49277Y361538D01*
X48819Y361080D01*
X48784Y361034D01*
X48741Y360993D01*
X48699Y360921D01*
X48648Y360853D01*
X48627Y360799D01*
X48598Y360748D01*
X48577Y360667D01*
X48547Y360588D01*
X48542Y360529D01*
X48528Y360473D01*
X48530Y360388D01*
X48523Y360304D01*
X48535Y360247D01*
X48537Y360188D01*
X48563Y360108D01*
X48579Y360026D01*
X48606Y359974D01*
X48624Y359918D01*
X48664Y359862D01*
X48710Y359773D01*
X48779Y359701D01*
X48819Y359645D01*
X49277Y359187D01*
X49277Y355188D01*
X48495Y354406D01*
X48442Y354336D01*
X48382Y354272D01*
X48357Y354223D01*
X48324Y354179D01*
X48293Y354097D01*
X48253Y354019D01*
X48245Y353972D01*
X48223Y353913D01*
X48210Y353766D01*
X48197Y353688D01*
X48197Y311474D01*
X48201Y311445D01*
X48199Y311416D01*
X48221Y311305D01*
X48237Y311193D01*
X48249Y311166D01*
X48255Y311137D01*
X48307Y311037D01*
X48353Y310933D01*
X48372Y310911D01*
X48386Y310885D01*
X48464Y310803D01*
X48537Y310716D01*
X48561Y310700D01*
X48582Y310679D01*
X48679Y310622D01*
X48774Y310559D01*
X48802Y310550D01*
X48827Y310535D01*
X48937Y310507D01*
X49045Y310473D01*
X49074Y310472D01*
X49102Y310465D01*
X49215Y310469D01*
X49329Y310466D01*
X49357Y310473D01*
X49387Y310474D01*
X49495Y310509D01*
X49604Y310538D01*
X49629Y310552D01*
X49657Y310562D01*
X49721Y310607D01*
X49848Y310683D01*
X49891Y310728D01*
X49930Y310756D01*
X50388Y311214D01*
X54387Y311214D01*
X56432Y309169D01*
X56479Y309134D01*
X56519Y309091D01*
X56592Y309049D01*
X56659Y308998D01*
X56714Y308977D01*
X56764Y308948D01*
X56846Y308927D01*
X56925Y308897D01*
X56983Y308892D01*
X57040Y308878D01*
X57124Y308880D01*
X57208Y308873D01*
X57266Y308885D01*
X57324Y308887D01*
X57404Y308913D01*
X57487Y308929D01*
X57539Y308956D01*
X57595Y308974D01*
X57651Y309014D01*
X57739Y309060D01*
X57812Y309129D01*
X57868Y309169D01*
X59913Y311214D01*
X63912Y311214D01*
X66739Y308387D01*
X66739Y304388D01*
X63912Y301561D01*
X59913Y301561D01*
X57868Y303606D01*
X57821Y303641D01*
X57781Y303684D01*
X57708Y303726D01*
X57641Y303777D01*
X57586Y303798D01*
X57536Y303827D01*
X57454Y303848D01*
X57375Y303878D01*
X57317Y303883D01*
X57260Y303897D01*
X57176Y303895D01*
X57092Y303902D01*
X57034Y303890D01*
X56976Y303888D01*
X56896Y303862D01*
X56813Y303846D01*
X56761Y303819D01*
X56705Y303801D01*
X56649Y303761D01*
X56561Y303715D01*
X56488Y303646D01*
X56432Y303606D01*
X54387Y301561D01*
X50388Y301561D01*
X49930Y302019D01*
X49907Y302036D01*
X49888Y302059D01*
X49794Y302121D01*
X49703Y302189D01*
X49676Y302200D01*
X49651Y302216D01*
X49543Y302250D01*
X49438Y302291D01*
X49408Y302293D01*
X49380Y302302D01*
X49267Y302305D01*
X49154Y302314D01*
X49126Y302309D01*
X49096Y302309D01*
X48987Y302281D01*
X48876Y302258D01*
X48849Y302245D01*
X48821Y302237D01*
X48724Y302180D01*
X48623Y302127D01*
X48602Y302107D01*
X48577Y302092D01*
X48499Y302010D01*
X48417Y301932D01*
X48402Y301906D01*
X48382Y301885D01*
X48331Y301784D01*
X48273Y301686D01*
X48266Y301658D01*
X48253Y301632D01*
X48240Y301554D01*
X48203Y301411D01*
X48205Y301348D01*
X48197Y301301D01*
X48197Y264604D01*
X48205Y264547D01*
X48204Y264488D01*
X48225Y264407D01*
X48237Y264323D01*
X48261Y264270D01*
X48276Y264213D01*
X48319Y264141D01*
X48353Y264064D01*
X48391Y264019D01*
X48421Y263969D01*
X48483Y263911D01*
X48537Y263847D01*
X48586Y263814D01*
X48628Y263774D01*
X48703Y263736D01*
X48774Y263689D01*
X48829Y263671D01*
X48881Y263645D01*
X48949Y263633D01*
X49045Y263603D01*
X49144Y263601D01*
X49213Y263589D01*
X51212Y263589D01*
X54039Y260762D01*
X54039Y256667D01*
X54047Y256609D01*
X54046Y256551D01*
X54067Y256469D01*
X54079Y256385D01*
X54103Y256332D01*
X54118Y256276D01*
X54161Y256203D01*
X54195Y256126D01*
X54233Y256081D01*
X54263Y256031D01*
X54325Y255973D01*
X54379Y255909D01*
X54428Y255877D01*
X54470Y255837D01*
X54545Y255798D01*
X54616Y255751D01*
X54671Y255734D01*
X54723Y255707D01*
X54791Y255696D01*
X54887Y255666D01*
X54986Y255663D01*
X55054Y255652D01*
X57562Y255652D01*
X60389Y252824D01*
X60389Y252229D01*
X60393Y252200D01*
X60391Y252170D01*
X60413Y252059D01*
X60429Y251947D01*
X60441Y251921D01*
X60447Y251892D01*
X60499Y251791D01*
X60545Y251688D01*
X60564Y251665D01*
X60578Y251639D01*
X60656Y251557D01*
X60729Y251471D01*
X60753Y251455D01*
X60774Y251433D01*
X60871Y251376D01*
X60966Y251313D01*
X60994Y251304D01*
X61019Y251290D01*
X61128Y251262D01*
X61237Y251227D01*
X61266Y251227D01*
X61294Y251220D01*
X61407Y251223D01*
X61521Y251220D01*
X61549Y251228D01*
X61579Y251229D01*
X61686Y251263D01*
X61796Y251292D01*
X61821Y251307D01*
X61849Y251316D01*
X61913Y251362D01*
X62040Y251437D01*
X62083Y251483D01*
X62122Y251511D01*
X64676Y254064D01*
X68674Y254064D01*
X71502Y251237D01*
X71502Y247238D01*
X68674Y244411D01*
X64676Y244411D01*
X61848Y247238D01*
X61848Y247834D01*
X61844Y247863D01*
X61847Y247892D01*
X61824Y248003D01*
X61808Y248115D01*
X61796Y248142D01*
X61791Y248171D01*
X61738Y248271D01*
X61692Y248375D01*
X61673Y248397D01*
X61660Y248423D01*
X61582Y248505D01*
X61509Y248592D01*
X61484Y248608D01*
X61464Y248629D01*
X61366Y248686D01*
X61272Y248749D01*
X61244Y248758D01*
X61219Y248773D01*
X61109Y248801D01*
X61001Y248835D01*
X60971Y248836D01*
X60943Y248843D01*
X60830Y248839D01*
X60717Y248842D01*
X60688Y248835D01*
X60659Y248834D01*
X60551Y248799D01*
X60442Y248770D01*
X60416Y248756D01*
X60388Y248746D01*
X60325Y248701D01*
X60197Y248625D01*
X60154Y248580D01*
X60115Y248552D01*
X57562Y245998D01*
X53563Y245998D01*
X50736Y248826D01*
X50736Y252921D01*
X50728Y252978D01*
X50729Y253037D01*
X50708Y253118D01*
X50696Y253202D01*
X50672Y253255D01*
X50657Y253312D01*
X50614Y253384D01*
X50580Y253461D01*
X50542Y253506D01*
X50512Y253556D01*
X50450Y253614D01*
X50396Y253678D01*
X50347Y253711D01*
X50305Y253751D01*
X50230Y253789D01*
X50159Y253836D01*
X50104Y253854D01*
X50052Y253880D01*
X49984Y253892D01*
X49888Y253922D01*
X49789Y253924D01*
X49721Y253936D01*
X49213Y253936D01*
X49155Y253928D01*
X49096Y253929D01*
X49015Y253908D01*
X48931Y253896D01*
X48878Y253872D01*
X48821Y253857D01*
X48749Y253814D01*
X48672Y253780D01*
X48627Y253742D01*
X48577Y253712D01*
X48519Y253650D01*
X48455Y253596D01*
X48422Y253547D01*
X48382Y253505D01*
X48344Y253430D01*
X48297Y253359D01*
X48279Y253304D01*
X48253Y253252D01*
X48241Y253184D01*
X48211Y253088D01*
X48209Y252989D01*
X48197Y252921D01*
X48197Y205923D01*
X48201Y205894D01*
X48199Y205865D01*
X48221Y205754D01*
X48237Y205641D01*
X48249Y205615D01*
X48255Y205586D01*
X48307Y205485D01*
X48353Y205382D01*
X48372Y205360D01*
X48386Y205334D01*
X48464Y205252D01*
X48537Y205165D01*
X48561Y205149D01*
X48582Y205128D01*
X48679Y205070D01*
X48774Y205007D01*
X48802Y204999D01*
X48827Y204984D01*
X48936Y204956D01*
X49045Y204922D01*
X49074Y204921D01*
X49102Y204914D01*
X49215Y204917D01*
X49329Y204914D01*
X49357Y204922D01*
X49387Y204923D01*
X49494Y204958D01*
X49604Y204986D01*
X49629Y205001D01*
X49657Y205010D01*
X49721Y205056D01*
X49848Y205131D01*
X49891Y205177D01*
X49930Y205205D01*
X65932Y221207D01*
X65933Y221207D01*
X67420Y222695D01*
X78924Y222695D01*
X79010Y222707D01*
X79098Y222710D01*
X79150Y222727D01*
X79205Y222735D01*
X79285Y222771D01*
X79368Y222798D01*
X79407Y222826D01*
X79465Y222851D01*
X79578Y222947D01*
X79642Y222993D01*
X82138Y225489D01*
X86137Y225489D01*
X88964Y222662D01*
X88964Y221742D01*
X88972Y221684D01*
X88971Y221626D01*
X88992Y221544D01*
X89004Y221460D01*
X89028Y221407D01*
X89043Y221351D01*
X89086Y221278D01*
X89120Y221201D01*
X89158Y221156D01*
X89188Y221106D01*
X89250Y221048D01*
X89304Y220984D01*
X89353Y220952D01*
X89395Y220912D01*
X89470Y220873D01*
X89541Y220826D01*
X89596Y220809D01*
X89648Y220782D01*
X89716Y220771D01*
X89812Y220741D01*
X89911Y220738D01*
X89979Y220727D01*
X94074Y220727D01*
X96902Y217899D01*
X96902Y215392D01*
X96910Y215334D01*
X96908Y215276D01*
X96930Y215194D01*
X96942Y215110D01*
X96965Y215057D01*
X96980Y215001D01*
X97023Y214928D01*
X97058Y214851D01*
X97096Y214806D01*
X97125Y214756D01*
X97187Y214698D01*
X97241Y214634D01*
X97290Y214602D01*
X97333Y214562D01*
X97408Y214523D01*
X97478Y214476D01*
X97534Y214459D01*
X97586Y214432D01*
X97654Y214421D01*
X97749Y214391D01*
X97849Y214388D01*
X97917Y214377D01*
X100424Y214377D01*
X103252Y211549D01*
X103252Y207551D01*
X100424Y204723D01*
X96426Y204723D01*
X93598Y207551D01*
X93598Y210058D01*
X93590Y210116D01*
X93592Y210174D01*
X93570Y210256D01*
X93558Y210340D01*
X93535Y210393D01*
X93520Y210449D01*
X93477Y210522D01*
X93442Y210599D01*
X93404Y210644D01*
X93375Y210694D01*
X93313Y210752D01*
X93259Y210816D01*
X93210Y210848D01*
X93167Y210888D01*
X93092Y210927D01*
X93022Y210974D01*
X92966Y210991D01*
X92914Y211018D01*
X92846Y211029D01*
X92751Y211059D01*
X92651Y211062D01*
X92583Y211073D01*
X90076Y211073D01*
X87248Y213901D01*
X87248Y214821D01*
X87240Y214878D01*
X87242Y214937D01*
X87220Y215018D01*
X87208Y215102D01*
X87185Y215155D01*
X87170Y215212D01*
X87127Y215284D01*
X87092Y215361D01*
X87054Y215406D01*
X87025Y215456D01*
X86963Y215514D01*
X86909Y215578D01*
X86860Y215611D01*
X86817Y215651D01*
X86742Y215689D01*
X86672Y215736D01*
X86616Y215754D01*
X86564Y215780D01*
X86496Y215792D01*
X86401Y215822D01*
X86301Y215824D01*
X86233Y215836D01*
X82138Y215836D01*
X79642Y218332D01*
X79572Y218385D01*
X79508Y218445D01*
X79458Y218470D01*
X79414Y218503D01*
X79333Y218534D01*
X79255Y218574D01*
X79207Y218582D01*
X79149Y218605D01*
X79001Y218617D01*
X78924Y218630D01*
X74810Y218630D01*
X74781Y218626D01*
X74751Y218628D01*
X74640Y218606D01*
X74528Y218590D01*
X74502Y218578D01*
X74473Y218572D01*
X74372Y218520D01*
X74269Y218474D01*
X74246Y218455D01*
X74220Y218441D01*
X74138Y218363D01*
X74052Y218290D01*
X74036Y218266D01*
X74014Y218245D01*
X73957Y218148D01*
X73894Y218053D01*
X73885Y218025D01*
X73871Y218000D01*
X73843Y217891D01*
X73808Y217782D01*
X73808Y217753D01*
X73801Y217725D01*
X73804Y217612D01*
X73801Y217498D01*
X73809Y217470D01*
X73810Y217440D01*
X73844Y217333D01*
X73873Y217223D01*
X73888Y217198D01*
X73897Y217170D01*
X73943Y217106D01*
X74018Y216979D01*
X74064Y216936D01*
X74092Y216897D01*
X76264Y214724D01*
X76264Y210726D01*
X73437Y207898D01*
X69438Y207898D01*
X66611Y210726D01*
X66611Y213685D01*
X66607Y213714D01*
X66609Y213743D01*
X66587Y213854D01*
X66571Y213967D01*
X66559Y213993D01*
X66553Y214022D01*
X66501Y214123D01*
X66455Y214226D01*
X66436Y214248D01*
X66422Y214274D01*
X66344Y214356D01*
X66271Y214443D01*
X66247Y214459D01*
X66226Y214480D01*
X66129Y214538D01*
X66034Y214601D01*
X66006Y214609D01*
X65981Y214624D01*
X65872Y214652D01*
X65763Y214686D01*
X65734Y214687D01*
X65706Y214694D01*
X65593Y214691D01*
X65479Y214694D01*
X65451Y214686D01*
X65421Y214685D01*
X65314Y214650D01*
X65204Y214622D01*
X65179Y214607D01*
X65151Y214598D01*
X65087Y214552D01*
X64960Y214477D01*
X64917Y214431D01*
X64878Y214403D01*
X51543Y201068D01*
X51490Y200998D01*
X51430Y200934D01*
X51405Y200885D01*
X51372Y200841D01*
X51341Y200759D01*
X51301Y200681D01*
X51293Y200633D01*
X51270Y200575D01*
X51258Y200427D01*
X51245Y200350D01*
X51245Y171901D01*
X51257Y171815D01*
X51260Y171727D01*
X51277Y171675D01*
X51285Y171620D01*
X51321Y171540D01*
X51348Y171457D01*
X51376Y171418D01*
X51401Y171360D01*
X51497Y171247D01*
X51543Y171183D01*
X54039Y168687D01*
X54039Y164688D01*
X51212Y161861D01*
X49213Y161861D01*
X49155Y161853D01*
X49096Y161854D01*
X49015Y161833D01*
X48931Y161821D01*
X48878Y161797D01*
X48821Y161782D01*
X48749Y161739D01*
X48672Y161705D01*
X48627Y161667D01*
X48577Y161637D01*
X48519Y161575D01*
X48455Y161521D01*
X48422Y161472D01*
X48382Y161430D01*
X48344Y161355D01*
X48297Y161284D01*
X48279Y161229D01*
X48253Y161177D01*
X48241Y161109D01*
X48211Y161013D01*
X48209Y160914D01*
X48197Y160846D01*
X48197Y98425D01*
X48205Y98367D01*
X48204Y98309D01*
X48225Y98227D01*
X48237Y98144D01*
X48261Y98090D01*
X48276Y98034D01*
X48319Y97961D01*
X48353Y97884D01*
X48391Y97839D01*
X48421Y97789D01*
X48483Y97731D01*
X48537Y97667D01*
X48586Y97635D01*
X48628Y97595D01*
X48703Y97556D01*
X48774Y97510D01*
X48829Y97492D01*
X48881Y97465D01*
X48949Y97454D01*
X49045Y97424D01*
X49144Y97421D01*
X49213Y97410D01*
X64008Y97410D01*
X64066Y97418D01*
X64124Y97416D01*
X64206Y97438D01*
X64290Y97450D01*
X64343Y97474D01*
X64399Y97488D01*
X64472Y97531D01*
X64549Y97566D01*
X64594Y97604D01*
X64644Y97634D01*
X64702Y97695D01*
X64766Y97750D01*
X64798Y97798D01*
X64838Y97841D01*
X64877Y97916D01*
X64924Y97986D01*
X64941Y98042D01*
X64968Y98094D01*
X64979Y98162D01*
X65009Y98257D01*
X65012Y98357D01*
X65023Y98425D01*
X65023Y100424D01*
X67069Y102470D01*
X67104Y102516D01*
X67146Y102557D01*
X67189Y102629D01*
X67239Y102697D01*
X67260Y102751D01*
X67290Y102802D01*
X67311Y102884D01*
X67341Y102962D01*
X67346Y103021D01*
X67360Y103077D01*
X67357Y103162D01*
X67364Y103246D01*
X67353Y103303D01*
X67351Y103362D01*
X67325Y103442D01*
X67308Y103524D01*
X67281Y103576D01*
X67263Y103632D01*
X67223Y103688D01*
X67177Y103777D01*
X67109Y103849D01*
X67069Y103905D01*
X65023Y105951D01*
X65023Y109949D01*
X67069Y111995D01*
X67104Y112041D01*
X67146Y112082D01*
X67189Y112154D01*
X67239Y112222D01*
X67260Y112276D01*
X67290Y112327D01*
X67311Y112409D01*
X67341Y112487D01*
X67346Y112546D01*
X67360Y112602D01*
X67357Y112687D01*
X67364Y112771D01*
X67353Y112828D01*
X67351Y112887D01*
X67325Y112967D01*
X67308Y113050D01*
X67281Y113101D01*
X67263Y113157D01*
X67223Y113213D01*
X67177Y113302D01*
X67109Y113374D01*
X67069Y113430D01*
X65023Y115476D01*
X65023Y119474D01*
X67851Y122302D01*
X71849Y122302D01*
X74677Y119474D01*
X74677Y115704D01*
X74681Y115675D01*
X74678Y115645D01*
X74701Y115534D01*
X74717Y115422D01*
X74729Y115396D01*
X74734Y115367D01*
X74787Y115266D01*
X74833Y115163D01*
X74852Y115140D01*
X74865Y115114D01*
X74943Y115032D01*
X75016Y114946D01*
X75041Y114930D01*
X75061Y114908D01*
X75159Y114851D01*
X75253Y114788D01*
X75281Y114779D01*
X75306Y114765D01*
X75416Y114737D01*
X75524Y114702D01*
X75554Y114702D01*
X75582Y114695D01*
X75695Y114698D01*
X75808Y114695D01*
X75837Y114703D01*
X75866Y114704D01*
X75974Y114738D01*
X76083Y114767D01*
X76109Y114782D01*
X76137Y114791D01*
X76201Y114837D01*
X76328Y114912D01*
X76371Y114958D01*
X76410Y114986D01*
X77376Y115952D01*
X81374Y115952D01*
X84202Y113124D01*
X84202Y109126D01*
X81374Y106298D01*
X77376Y106298D01*
X76410Y107264D01*
X76386Y107282D01*
X76367Y107304D01*
X76273Y107367D01*
X76183Y107435D01*
X76155Y107445D01*
X76131Y107462D01*
X76023Y107496D01*
X75917Y107536D01*
X75888Y107539D01*
X75860Y107548D01*
X75746Y107550D01*
X75634Y107560D01*
X75605Y107554D01*
X75576Y107555D01*
X75466Y107526D01*
X75355Y107504D01*
X75329Y107490D01*
X75301Y107483D01*
X75203Y107425D01*
X75103Y107373D01*
X75081Y107353D01*
X75056Y107338D01*
X74979Y107255D01*
X74897Y107177D01*
X74882Y107152D01*
X74862Y107130D01*
X74810Y107030D01*
X74753Y106932D01*
X74746Y106903D01*
X74732Y106877D01*
X74719Y106800D01*
X74683Y106656D01*
X74685Y106594D01*
X74677Y106546D01*
X74677Y105951D01*
X72631Y103905D01*
X72596Y103859D01*
X72554Y103818D01*
X72511Y103746D01*
X72461Y103678D01*
X72440Y103624D01*
X72410Y103573D01*
X72389Y103491D01*
X72359Y103413D01*
X72354Y103354D01*
X72340Y103298D01*
X72343Y103213D01*
X72336Y103129D01*
X72347Y103072D01*
X72349Y103013D01*
X72375Y102933D01*
X72392Y102850D01*
X72419Y102799D01*
X72437Y102743D01*
X72477Y102687D01*
X72523Y102598D01*
X72591Y102526D01*
X72631Y102470D01*
X74677Y100424D01*
X74677Y96426D01*
X71849Y93598D01*
X67851Y93598D01*
X65805Y95644D01*
X65782Y95661D01*
X65763Y95684D01*
X65669Y95746D01*
X65578Y95814D01*
X65551Y95825D01*
X65526Y95841D01*
X65418Y95875D01*
X65313Y95916D01*
X65283Y95918D01*
X65255Y95927D01*
X65142Y95930D01*
X65029Y95939D01*
X65001Y95934D01*
X64971Y95934D01*
X64862Y95906D01*
X64751Y95883D01*
X64724Y95870D01*
X64696Y95862D01*
X64599Y95805D01*
X64498Y95752D01*
X64477Y95732D01*
X64452Y95717D01*
X64374Y95635D01*
X64292Y95557D01*
X64277Y95531D01*
X64257Y95510D01*
X64206Y95409D01*
X64148Y95311D01*
X64141Y95283D01*
X64128Y95257D01*
X64115Y95179D01*
X64078Y95036D01*
X64080Y94973D01*
X64072Y94926D01*
X64072Y4191D01*
X64080Y4133D01*
X64079Y4075D01*
X64100Y3993D01*
X64112Y3909D01*
X64136Y3856D01*
X64151Y3800D01*
X64194Y3727D01*
X64228Y3650D01*
X64266Y3605D01*
X64296Y3555D01*
X64358Y3497D01*
X64412Y3433D01*
X64461Y3401D01*
X64503Y3361D01*
X64578Y3322D01*
X64649Y3275D01*
X64704Y3258D01*
X64756Y3231D01*
X64824Y3220D01*
X64920Y3190D01*
X65019Y3187D01*
X65088Y3176D01*
X366132Y3176D01*
X366217Y3188D01*
G37*
G36*
X60383Y3184D02*
X60383Y3184D01*
X60441Y3182D01*
X60523Y3204D01*
X60606Y3216D01*
X60660Y3239D01*
X60716Y3254D01*
X60789Y3297D01*
X60866Y3332D01*
X60911Y3370D01*
X60961Y3399D01*
X61019Y3461D01*
X61083Y3515D01*
X61115Y3564D01*
X61155Y3607D01*
X61194Y3682D01*
X61240Y3752D01*
X61258Y3808D01*
X61285Y3860D01*
X61296Y3928D01*
X61326Y4023D01*
X61329Y4123D01*
X61340Y4191D01*
X61340Y92075D01*
X61332Y92133D01*
X61334Y92191D01*
X61312Y92273D01*
X61300Y92357D01*
X61277Y92410D01*
X61262Y92466D01*
X61219Y92539D01*
X61184Y92616D01*
X61146Y92661D01*
X61117Y92711D01*
X61055Y92769D01*
X61001Y92833D01*
X60952Y92865D01*
X60909Y92905D01*
X60834Y92944D01*
X60764Y92991D01*
X60708Y93008D01*
X60656Y93035D01*
X60588Y93046D01*
X60493Y93076D01*
X60393Y93079D01*
X60325Y93090D01*
X45465Y93090D01*
X45465Y163188D01*
X45453Y163275D01*
X45450Y163362D01*
X45433Y163415D01*
X45425Y163470D01*
X45390Y163549D01*
X45363Y163633D01*
X45335Y163672D01*
X45309Y163729D01*
X45213Y163842D01*
X45168Y163906D01*
X44386Y164688D01*
X44386Y168687D01*
X45168Y169469D01*
X45220Y169539D01*
X45280Y169603D01*
X45306Y169652D01*
X45339Y169696D01*
X45370Y169778D01*
X45410Y169856D01*
X45418Y169903D01*
X45440Y169962D01*
X45452Y170109D01*
X45465Y170187D01*
X45465Y255263D01*
X45453Y255350D01*
X45450Y255437D01*
X45433Y255490D01*
X45425Y255545D01*
X45390Y255624D01*
X45363Y255708D01*
X45335Y255747D01*
X45309Y255804D01*
X45213Y255917D01*
X45168Y255981D01*
X44386Y256763D01*
X44386Y260762D01*
X45168Y261544D01*
X45220Y261614D01*
X45280Y261678D01*
X45306Y261727D01*
X45339Y261771D01*
X45370Y261853D01*
X45410Y261931D01*
X45418Y261978D01*
X45440Y262037D01*
X45452Y262184D01*
X45465Y262262D01*
X45465Y300546D01*
X45457Y300603D01*
X45459Y300662D01*
X45437Y300743D01*
X45425Y300827D01*
X45402Y300880D01*
X45387Y300937D01*
X45344Y301009D01*
X45309Y301086D01*
X45271Y301131D01*
X45242Y301181D01*
X45180Y301239D01*
X45126Y301303D01*
X45077Y301336D01*
X45034Y301376D01*
X44959Y301414D01*
X44889Y301461D01*
X44833Y301479D01*
X44781Y301505D01*
X44713Y301517D01*
X44618Y301547D01*
X44518Y301549D01*
X44450Y301561D01*
X40863Y301561D01*
X38036Y304388D01*
X38036Y308387D01*
X40863Y311214D01*
X44450Y311214D01*
X44508Y311222D01*
X44566Y311221D01*
X44648Y311242D01*
X44732Y311254D01*
X44785Y311278D01*
X44841Y311293D01*
X44914Y311336D01*
X44991Y311370D01*
X45036Y311408D01*
X45086Y311438D01*
X45144Y311500D01*
X45208Y311554D01*
X45240Y311603D01*
X45280Y311645D01*
X45319Y311720D01*
X45366Y311791D01*
X45383Y311846D01*
X45410Y311898D01*
X45421Y311966D01*
X45451Y312062D01*
X45454Y312161D01*
X45465Y312229D01*
X45465Y351346D01*
X45457Y351403D01*
X45459Y351462D01*
X45437Y351543D01*
X45425Y351627D01*
X45402Y351680D01*
X45387Y351737D01*
X45344Y351809D01*
X45309Y351886D01*
X45271Y351931D01*
X45242Y351981D01*
X45180Y352039D01*
X45126Y352103D01*
X45077Y352136D01*
X45034Y352176D01*
X44959Y352214D01*
X44889Y352261D01*
X44833Y352279D01*
X44781Y352305D01*
X44713Y352317D01*
X44618Y352347D01*
X44518Y352349D01*
X44450Y352361D01*
X42451Y352361D01*
X39623Y355188D01*
X39623Y359187D01*
X40081Y359645D01*
X40116Y359691D01*
X40159Y359732D01*
X40201Y359805D01*
X40252Y359872D01*
X40273Y359926D01*
X40302Y359977D01*
X40323Y360059D01*
X40353Y360137D01*
X40358Y360196D01*
X40372Y360252D01*
X40370Y360337D01*
X40377Y360421D01*
X40365Y360478D01*
X40363Y360537D01*
X40337Y360617D01*
X40321Y360700D01*
X40294Y360751D01*
X40276Y360807D01*
X40236Y360863D01*
X40190Y360952D01*
X40121Y361024D01*
X40081Y361080D01*
X39623Y361538D01*
X39623Y365537D01*
X40081Y365995D01*
X40116Y366041D01*
X40159Y366082D01*
X40201Y366154D01*
X40252Y366222D01*
X40273Y366276D01*
X40302Y366327D01*
X40323Y366408D01*
X40353Y366487D01*
X40358Y366546D01*
X40372Y366602D01*
X40370Y366687D01*
X40377Y366771D01*
X40365Y366828D01*
X40363Y366887D01*
X40337Y366967D01*
X40321Y367049D01*
X40294Y367101D01*
X40276Y367157D01*
X40236Y367213D01*
X40190Y367302D01*
X40121Y367374D01*
X40081Y367430D01*
X39623Y367888D01*
X39623Y371887D01*
X42451Y374714D01*
X44450Y374714D01*
X44508Y374722D01*
X44566Y374721D01*
X44648Y374742D01*
X44732Y374754D01*
X44785Y374778D01*
X44841Y374793D01*
X44914Y374836D01*
X44991Y374870D01*
X45036Y374908D01*
X45086Y374938D01*
X45144Y375000D01*
X45208Y375054D01*
X45240Y375103D01*
X45280Y375145D01*
X45319Y375220D01*
X45366Y375291D01*
X45383Y375346D01*
X45410Y375398D01*
X45421Y375466D01*
X45451Y375562D01*
X45454Y375661D01*
X45465Y375729D01*
X45465Y387026D01*
X45461Y387055D01*
X45464Y387084D01*
X45441Y387195D01*
X45425Y387307D01*
X45413Y387334D01*
X45408Y387363D01*
X45356Y387463D01*
X45309Y387567D01*
X45290Y387589D01*
X45277Y387615D01*
X45199Y387697D01*
X45126Y387784D01*
X45101Y387800D01*
X45081Y387821D01*
X44983Y387878D01*
X44889Y387941D01*
X44861Y387950D01*
X44836Y387965D01*
X44726Y387993D01*
X44618Y388027D01*
X44588Y388028D01*
X44560Y388035D01*
X44447Y388031D01*
X44334Y388034D01*
X44305Y388027D01*
X44276Y388026D01*
X44168Y387991D01*
X44059Y387962D01*
X44033Y387947D01*
X44005Y387938D01*
X43942Y387893D01*
X43814Y387817D01*
X43771Y387772D01*
X43732Y387744D01*
X43274Y387286D01*
X39276Y387286D01*
X36448Y390113D01*
X36448Y394112D01*
X36906Y394570D01*
X36941Y394616D01*
X36984Y394657D01*
X37026Y394730D01*
X37077Y394797D01*
X37098Y394851D01*
X37127Y394902D01*
X37148Y394984D01*
X37178Y395062D01*
X37183Y395121D01*
X37197Y395177D01*
X37195Y395262D01*
X37202Y395346D01*
X37190Y395403D01*
X37188Y395462D01*
X37162Y395542D01*
X37146Y395625D01*
X37119Y395676D01*
X37101Y395732D01*
X37061Y395788D01*
X37015Y395877D01*
X36946Y395949D01*
X36906Y396005D01*
X36448Y396463D01*
X36448Y400462D01*
X39276Y403289D01*
X43274Y403289D01*
X44688Y401876D01*
X44735Y401840D01*
X44775Y401798D01*
X44848Y401755D01*
X44915Y401705D01*
X44970Y401684D01*
X45020Y401654D01*
X45102Y401633D01*
X45181Y401603D01*
X45239Y401599D01*
X45296Y401584D01*
X45380Y401587D01*
X45464Y401580D01*
X45521Y401591D01*
X45580Y401593D01*
X45660Y401619D01*
X45743Y401636D01*
X45795Y401663D01*
X45850Y401681D01*
X45907Y401721D01*
X45995Y401767D01*
X46068Y401836D01*
X46124Y401876D01*
X117896Y473647D01*
X128324Y473647D01*
X128410Y473659D01*
X128496Y473662D01*
X128550Y473679D01*
X128606Y473687D01*
X128684Y473722D01*
X128766Y473748D01*
X128813Y473780D01*
X128865Y473803D01*
X128931Y473859D01*
X129002Y473907D01*
X129039Y473950D01*
X129082Y473987D01*
X129130Y474059D01*
X129185Y474124D01*
X129208Y474176D01*
X129240Y474224D01*
X129266Y474306D01*
X129301Y474384D01*
X129309Y474441D01*
X129326Y474495D01*
X129328Y474581D01*
X129340Y474666D01*
X129331Y474722D01*
X129333Y474779D01*
X129311Y474862D01*
X129299Y474947D01*
X129275Y474999D01*
X129261Y475054D01*
X129217Y475128D01*
X129182Y475206D01*
X129145Y475250D01*
X129116Y475298D01*
X129053Y475357D01*
X128997Y475423D01*
X128955Y475449D01*
X128909Y475493D01*
X128781Y475558D01*
X125657Y478682D01*
X123979Y482733D01*
X123979Y487117D01*
X125657Y491168D01*
X128757Y494268D01*
X132808Y495946D01*
X137192Y495946D01*
X141243Y494268D01*
X144343Y491168D01*
X146021Y487117D01*
X146021Y482733D01*
X144343Y478682D01*
X141224Y475563D01*
X141213Y475557D01*
X141135Y475522D01*
X141091Y475485D01*
X141042Y475456D01*
X140983Y475394D01*
X140918Y475338D01*
X140886Y475291D01*
X140847Y475249D01*
X140808Y475173D01*
X140760Y475101D01*
X140743Y475047D01*
X140717Y474997D01*
X140700Y474912D01*
X140674Y474830D01*
X140673Y474774D01*
X140662Y474718D01*
X140669Y474632D01*
X140667Y474546D01*
X140681Y474491D01*
X140686Y474435D01*
X140717Y474354D01*
X140739Y474271D01*
X140768Y474222D01*
X140788Y474169D01*
X140840Y474101D01*
X140884Y474027D01*
X140926Y473988D01*
X140960Y473943D01*
X141029Y473891D01*
X141091Y473832D01*
X141142Y473806D01*
X141188Y473772D01*
X141268Y473742D01*
X141345Y473703D01*
X141393Y473695D01*
X141453Y473672D01*
X141598Y473660D01*
X141676Y473647D01*
X158324Y473647D01*
X158410Y473659D01*
X158496Y473662D01*
X158550Y473679D01*
X158606Y473687D01*
X158684Y473722D01*
X158766Y473748D01*
X158813Y473780D01*
X158865Y473803D01*
X158931Y473859D01*
X159002Y473907D01*
X159039Y473950D01*
X159082Y473987D01*
X159130Y474059D01*
X159185Y474124D01*
X159208Y474176D01*
X159240Y474224D01*
X159266Y474306D01*
X159301Y474384D01*
X159309Y474441D01*
X159326Y474495D01*
X159328Y474581D01*
X159340Y474666D01*
X159331Y474722D01*
X159333Y474779D01*
X159311Y474862D01*
X159299Y474947D01*
X159275Y474999D01*
X159261Y475054D01*
X159217Y475128D01*
X159182Y475206D01*
X159145Y475250D01*
X159116Y475298D01*
X159053Y475357D01*
X158997Y475423D01*
X158955Y475449D01*
X158909Y475493D01*
X158781Y475558D01*
X155657Y478682D01*
X153979Y482733D01*
X153979Y487117D01*
X155657Y491168D01*
X158757Y494268D01*
X162808Y495946D01*
X167192Y495946D01*
X171243Y494268D01*
X174343Y491168D01*
X176021Y487117D01*
X176021Y482733D01*
X174343Y478682D01*
X171224Y475563D01*
X171213Y475557D01*
X171135Y475522D01*
X171091Y475485D01*
X171042Y475456D01*
X170983Y475394D01*
X170918Y475338D01*
X170886Y475291D01*
X170847Y475249D01*
X170808Y475173D01*
X170760Y475101D01*
X170743Y475047D01*
X170717Y474997D01*
X170700Y474912D01*
X170674Y474830D01*
X170673Y474774D01*
X170662Y474718D01*
X170669Y474632D01*
X170667Y474546D01*
X170681Y474491D01*
X170686Y474435D01*
X170717Y474354D01*
X170739Y474271D01*
X170768Y474222D01*
X170788Y474169D01*
X170840Y474101D01*
X170884Y474027D01*
X170926Y473988D01*
X170960Y473943D01*
X171029Y473891D01*
X171091Y473832D01*
X171142Y473806D01*
X171188Y473772D01*
X171268Y473742D01*
X171345Y473703D01*
X171393Y473695D01*
X171453Y473672D01*
X171598Y473660D01*
X171676Y473647D01*
X188324Y473647D01*
X188410Y473659D01*
X188496Y473662D01*
X188550Y473679D01*
X188606Y473687D01*
X188684Y473722D01*
X188766Y473748D01*
X188813Y473780D01*
X188865Y473803D01*
X188931Y473859D01*
X189002Y473907D01*
X189039Y473950D01*
X189082Y473987D01*
X189130Y474059D01*
X189185Y474124D01*
X189208Y474176D01*
X189240Y474224D01*
X189266Y474306D01*
X189301Y474384D01*
X189309Y474441D01*
X189326Y474495D01*
X189328Y474581D01*
X189340Y474666D01*
X189331Y474722D01*
X189333Y474779D01*
X189311Y474862D01*
X189299Y474947D01*
X189275Y474999D01*
X189261Y475054D01*
X189217Y475128D01*
X189182Y475206D01*
X189145Y475250D01*
X189116Y475298D01*
X189053Y475357D01*
X188997Y475423D01*
X188955Y475449D01*
X188909Y475493D01*
X188781Y475558D01*
X185657Y478682D01*
X183979Y482733D01*
X183979Y487117D01*
X185657Y491168D01*
X188757Y494268D01*
X192808Y495946D01*
X197192Y495946D01*
X201243Y494268D01*
X204343Y491168D01*
X206021Y487117D01*
X206021Y482733D01*
X204343Y478682D01*
X201224Y475563D01*
X201213Y475557D01*
X201135Y475522D01*
X201091Y475485D01*
X201042Y475456D01*
X200983Y475394D01*
X200918Y475338D01*
X200886Y475291D01*
X200847Y475249D01*
X200808Y475173D01*
X200760Y475101D01*
X200743Y475047D01*
X200717Y474997D01*
X200700Y474912D01*
X200674Y474830D01*
X200673Y474774D01*
X200662Y474718D01*
X200669Y474632D01*
X200667Y474546D01*
X200681Y474491D01*
X200686Y474435D01*
X200717Y474354D01*
X200739Y474271D01*
X200768Y474222D01*
X200788Y474169D01*
X200840Y474101D01*
X200884Y474027D01*
X200926Y473988D01*
X200960Y473943D01*
X201029Y473891D01*
X201091Y473832D01*
X201142Y473806D01*
X201188Y473772D01*
X201268Y473742D01*
X201345Y473703D01*
X201393Y473695D01*
X201453Y473672D01*
X201598Y473660D01*
X201676Y473647D01*
X248324Y473647D01*
X248410Y473659D01*
X248496Y473662D01*
X248550Y473679D01*
X248606Y473687D01*
X248684Y473722D01*
X248766Y473748D01*
X248813Y473780D01*
X248865Y473803D01*
X248931Y473859D01*
X249002Y473907D01*
X249039Y473950D01*
X249082Y473987D01*
X249130Y474059D01*
X249185Y474124D01*
X249208Y474176D01*
X249240Y474224D01*
X249266Y474306D01*
X249301Y474384D01*
X249309Y474441D01*
X249326Y474495D01*
X249328Y474581D01*
X249340Y474666D01*
X249331Y474722D01*
X249333Y474779D01*
X249311Y474862D01*
X249299Y474947D01*
X249275Y474999D01*
X249261Y475054D01*
X249217Y475128D01*
X249182Y475206D01*
X249145Y475250D01*
X249116Y475298D01*
X249053Y475357D01*
X248997Y475423D01*
X248955Y475449D01*
X248909Y475493D01*
X248781Y475558D01*
X245657Y478682D01*
X243979Y482733D01*
X243979Y487117D01*
X245657Y491168D01*
X248757Y494268D01*
X252808Y495946D01*
X257192Y495946D01*
X261243Y494268D01*
X264343Y491168D01*
X266021Y487117D01*
X266021Y482733D01*
X264343Y478682D01*
X261224Y475563D01*
X261213Y475557D01*
X261135Y475522D01*
X261091Y475485D01*
X261042Y475456D01*
X260983Y475394D01*
X260918Y475338D01*
X260886Y475291D01*
X260847Y475249D01*
X260808Y475173D01*
X260760Y475101D01*
X260743Y475047D01*
X260717Y474997D01*
X260700Y474912D01*
X260674Y474830D01*
X260673Y474774D01*
X260662Y474718D01*
X260669Y474632D01*
X260667Y474546D01*
X260681Y474491D01*
X260686Y474435D01*
X260717Y474354D01*
X260739Y474271D01*
X260768Y474222D01*
X260788Y474169D01*
X260840Y474101D01*
X260884Y474027D01*
X260926Y473988D01*
X260960Y473943D01*
X261029Y473891D01*
X261091Y473832D01*
X261142Y473806D01*
X261188Y473772D01*
X261268Y473742D01*
X261345Y473703D01*
X261393Y473695D01*
X261453Y473672D01*
X261598Y473660D01*
X261676Y473647D01*
X278324Y473647D01*
X278410Y473659D01*
X278496Y473662D01*
X278550Y473679D01*
X278606Y473687D01*
X278684Y473722D01*
X278766Y473748D01*
X278813Y473780D01*
X278865Y473803D01*
X278931Y473859D01*
X279002Y473907D01*
X279039Y473950D01*
X279082Y473987D01*
X279130Y474059D01*
X279185Y474124D01*
X279208Y474176D01*
X279240Y474224D01*
X279266Y474306D01*
X279301Y474384D01*
X279309Y474441D01*
X279326Y474495D01*
X279328Y474581D01*
X279340Y474666D01*
X279331Y474722D01*
X279333Y474779D01*
X279311Y474862D01*
X279299Y474947D01*
X279275Y474999D01*
X279261Y475054D01*
X279217Y475128D01*
X279182Y475206D01*
X279145Y475250D01*
X279116Y475298D01*
X279053Y475357D01*
X278997Y475423D01*
X278955Y475449D01*
X278909Y475493D01*
X278781Y475558D01*
X275657Y478682D01*
X273979Y482733D01*
X273979Y487117D01*
X275657Y491168D01*
X278757Y494268D01*
X282808Y495946D01*
X287192Y495946D01*
X291243Y494268D01*
X294343Y491168D01*
X296021Y487117D01*
X296021Y482733D01*
X294343Y478682D01*
X291224Y475563D01*
X291213Y475557D01*
X291135Y475522D01*
X291091Y475485D01*
X291042Y475456D01*
X290983Y475394D01*
X290918Y475338D01*
X290886Y475291D01*
X290847Y475249D01*
X290808Y475173D01*
X290760Y475101D01*
X290743Y475047D01*
X290717Y474997D01*
X290700Y474912D01*
X290674Y474830D01*
X290673Y474774D01*
X290662Y474718D01*
X290669Y474632D01*
X290667Y474546D01*
X290681Y474491D01*
X290686Y474435D01*
X290717Y474354D01*
X290739Y474271D01*
X290768Y474222D01*
X290788Y474169D01*
X290840Y474101D01*
X290884Y474027D01*
X290926Y473988D01*
X290960Y473943D01*
X291029Y473891D01*
X291091Y473832D01*
X291142Y473806D01*
X291188Y473772D01*
X291268Y473742D01*
X291345Y473703D01*
X291393Y473695D01*
X291453Y473672D01*
X291598Y473660D01*
X291676Y473647D01*
X308324Y473647D01*
X308410Y473659D01*
X308496Y473662D01*
X308550Y473679D01*
X308606Y473687D01*
X308684Y473722D01*
X308766Y473748D01*
X308813Y473780D01*
X308865Y473803D01*
X308931Y473859D01*
X309002Y473907D01*
X309039Y473950D01*
X309082Y473987D01*
X309130Y474059D01*
X309185Y474124D01*
X309208Y474176D01*
X309240Y474224D01*
X309266Y474306D01*
X309301Y474384D01*
X309309Y474441D01*
X309326Y474495D01*
X309328Y474581D01*
X309340Y474666D01*
X309331Y474722D01*
X309333Y474779D01*
X309311Y474862D01*
X309299Y474947D01*
X309275Y474999D01*
X309261Y475054D01*
X309217Y475128D01*
X309182Y475206D01*
X309145Y475250D01*
X309116Y475298D01*
X309053Y475357D01*
X308997Y475423D01*
X308955Y475449D01*
X308909Y475493D01*
X308781Y475558D01*
X305657Y478682D01*
X303979Y482733D01*
X303979Y487117D01*
X305657Y491168D01*
X308757Y494268D01*
X312808Y495946D01*
X317192Y495946D01*
X321243Y494268D01*
X324343Y491168D01*
X326021Y487117D01*
X326021Y482733D01*
X324343Y478682D01*
X321224Y475563D01*
X321213Y475557D01*
X321135Y475522D01*
X321091Y475485D01*
X321042Y475456D01*
X320983Y475394D01*
X320918Y475338D01*
X320886Y475291D01*
X320847Y475249D01*
X320808Y475173D01*
X320760Y475101D01*
X320743Y475047D01*
X320717Y474997D01*
X320700Y474912D01*
X320674Y474830D01*
X320673Y474774D01*
X320662Y474718D01*
X320669Y474632D01*
X320667Y474546D01*
X320681Y474491D01*
X320686Y474435D01*
X320717Y474354D01*
X320739Y474271D01*
X320768Y474222D01*
X320788Y474169D01*
X320840Y474101D01*
X320884Y474027D01*
X320926Y473988D01*
X320960Y473943D01*
X321029Y473891D01*
X321091Y473832D01*
X321142Y473806D01*
X321188Y473772D01*
X321268Y473742D01*
X321345Y473703D01*
X321393Y473695D01*
X321453Y473672D01*
X321598Y473660D01*
X321676Y473647D01*
X338324Y473647D01*
X338410Y473659D01*
X338496Y473662D01*
X338550Y473679D01*
X338606Y473687D01*
X338684Y473722D01*
X338766Y473748D01*
X338813Y473780D01*
X338865Y473803D01*
X338931Y473859D01*
X339002Y473907D01*
X339039Y473950D01*
X339082Y473987D01*
X339130Y474059D01*
X339185Y474124D01*
X339208Y474176D01*
X339240Y474224D01*
X339266Y474306D01*
X339301Y474384D01*
X339309Y474441D01*
X339326Y474495D01*
X339328Y474581D01*
X339340Y474666D01*
X339331Y474722D01*
X339333Y474779D01*
X339311Y474862D01*
X339299Y474947D01*
X339275Y474999D01*
X339261Y475054D01*
X339217Y475128D01*
X339182Y475206D01*
X339145Y475250D01*
X339116Y475298D01*
X339053Y475357D01*
X338997Y475423D01*
X338955Y475449D01*
X338909Y475493D01*
X338781Y475558D01*
X335657Y478682D01*
X333979Y482733D01*
X333979Y487117D01*
X335657Y491168D01*
X338757Y494268D01*
X342808Y495946D01*
X347192Y495946D01*
X351243Y494268D01*
X354343Y491168D01*
X356021Y487117D01*
X356021Y482733D01*
X354343Y478682D01*
X351224Y475563D01*
X351213Y475557D01*
X351135Y475522D01*
X351091Y475485D01*
X351042Y475456D01*
X350983Y475394D01*
X350918Y475338D01*
X350886Y475291D01*
X350847Y475249D01*
X350808Y475173D01*
X350760Y475101D01*
X350743Y475047D01*
X350717Y474997D01*
X350700Y474912D01*
X350674Y474830D01*
X350673Y474774D01*
X350662Y474718D01*
X350669Y474632D01*
X350667Y474546D01*
X350681Y474491D01*
X350686Y474435D01*
X350717Y474354D01*
X350739Y474271D01*
X350768Y474222D01*
X350788Y474169D01*
X350840Y474101D01*
X350884Y474027D01*
X350926Y473988D01*
X350960Y473943D01*
X351029Y473891D01*
X351091Y473832D01*
X351142Y473806D01*
X351188Y473772D01*
X351268Y473742D01*
X351345Y473703D01*
X351393Y473695D01*
X351453Y473672D01*
X351598Y473660D01*
X351676Y473647D01*
X368872Y473647D01*
X368872Y404813D01*
X368880Y404755D01*
X368879Y404696D01*
X368900Y404615D01*
X368912Y404531D01*
X368936Y404478D01*
X368951Y404421D01*
X368994Y404349D01*
X369028Y404272D01*
X369066Y404227D01*
X369096Y404177D01*
X369158Y404119D01*
X369212Y404055D01*
X369261Y404022D01*
X369303Y403982D01*
X369378Y403944D01*
X369449Y403897D01*
X369504Y403879D01*
X369556Y403853D01*
X369624Y403841D01*
X369720Y403811D01*
X369819Y403809D01*
X369888Y403797D01*
X402210Y403797D01*
X402210Y327025D01*
X402218Y326970D01*
X402216Y326924D01*
X402217Y326923D01*
X402216Y326909D01*
X402238Y326827D01*
X402250Y326744D01*
X402274Y326690D01*
X402288Y326634D01*
X402331Y326561D01*
X402366Y326484D01*
X402404Y326439D01*
X402434Y326389D01*
X402495Y326331D01*
X402550Y326267D01*
X402598Y326235D01*
X402641Y326195D01*
X402716Y326156D01*
X402786Y326110D01*
X402842Y326092D01*
X402894Y326065D01*
X402962Y326054D01*
X403057Y326024D01*
X403157Y326021D01*
X403225Y326010D01*
X445809Y326010D01*
X445867Y326018D01*
X445925Y326016D01*
X446007Y326038D01*
X446091Y326050D01*
X446144Y326074D01*
X446200Y326088D01*
X446273Y326131D01*
X446350Y326166D01*
X446395Y326204D01*
X446445Y326234D01*
X446503Y326295D01*
X446567Y326350D01*
X446599Y326398D01*
X446639Y326441D01*
X446678Y326516D01*
X446725Y326586D01*
X446742Y326642D01*
X446769Y326694D01*
X446780Y326762D01*
X446810Y326857D01*
X446813Y326957D01*
X446824Y327025D01*
X446824Y575809D01*
X446817Y575862D01*
X446818Y575893D01*
X446817Y575896D01*
X446818Y575925D01*
X446796Y576007D01*
X446784Y576091D01*
X446761Y576144D01*
X446746Y576200D01*
X446703Y576273D01*
X446668Y576350D01*
X446630Y576395D01*
X446601Y576445D01*
X446539Y576503D01*
X446485Y576567D01*
X446436Y576599D01*
X446393Y576639D01*
X446318Y576678D01*
X446248Y576725D01*
X446192Y576742D01*
X446140Y576769D01*
X446072Y576780D01*
X445977Y576810D01*
X445877Y576813D01*
X445809Y576824D01*
X4191Y576824D01*
X4133Y576816D01*
X4075Y576818D01*
X3993Y576796D01*
X3909Y576784D01*
X3856Y576761D01*
X3800Y576746D01*
X3727Y576703D01*
X3650Y576668D01*
X3605Y576630D01*
X3555Y576601D01*
X3497Y576539D01*
X3433Y576485D01*
X3401Y576436D01*
X3361Y576393D01*
X3322Y576318D01*
X3275Y576248D01*
X3258Y576192D01*
X3231Y576140D01*
X3220Y576072D01*
X3190Y575977D01*
X3187Y575877D01*
X3176Y575809D01*
X3176Y417265D01*
X3180Y417236D01*
X3177Y417207D01*
X3200Y417096D01*
X3216Y416984D01*
X3228Y416957D01*
X3233Y416928D01*
X3286Y416828D01*
X3332Y416724D01*
X3351Y416702D01*
X3364Y416676D01*
X3442Y416594D01*
X3515Y416507D01*
X3540Y416491D01*
X3560Y416470D01*
X3658Y416413D01*
X3752Y416350D01*
X3780Y416341D01*
X3805Y416326D01*
X3915Y416298D01*
X4023Y416264D01*
X4053Y416263D01*
X4081Y416256D01*
X4194Y416260D01*
X4307Y416257D01*
X4336Y416264D01*
X4365Y416265D01*
X4473Y416300D01*
X4582Y416329D01*
X4608Y416343D01*
X4636Y416353D01*
X4700Y416398D01*
X4827Y416474D01*
X4870Y416519D01*
X4909Y416547D01*
X5938Y417577D01*
X9937Y417577D01*
X12764Y414749D01*
X12764Y410751D01*
X9937Y407923D01*
X5938Y407923D01*
X4909Y408953D01*
X4885Y408970D01*
X4866Y408993D01*
X4772Y409055D01*
X4682Y409124D01*
X4654Y409134D01*
X4630Y409150D01*
X4522Y409184D01*
X4416Y409225D01*
X4387Y409227D01*
X4359Y409236D01*
X4245Y409239D01*
X4133Y409248D01*
X4104Y409243D01*
X4075Y409243D01*
X3965Y409215D01*
X3854Y409192D01*
X3828Y409179D01*
X3800Y409171D01*
X3702Y409114D01*
X3602Y409061D01*
X3580Y409041D01*
X3555Y409026D01*
X3478Y408944D01*
X3396Y408866D01*
X3381Y408840D01*
X3361Y408819D01*
X3309Y408718D01*
X3252Y408620D01*
X3245Y408592D01*
X3231Y408566D01*
X3218Y408488D01*
X3182Y408345D01*
X3184Y408282D01*
X3176Y408235D01*
X3176Y252165D01*
X3180Y252136D01*
X3177Y252107D01*
X3200Y251996D01*
X3216Y251884D01*
X3228Y251857D01*
X3233Y251828D01*
X3286Y251728D01*
X3332Y251624D01*
X3351Y251602D01*
X3364Y251576D01*
X3442Y251494D01*
X3515Y251407D01*
X3540Y251391D01*
X3560Y251370D01*
X3658Y251313D01*
X3752Y251250D01*
X3780Y251241D01*
X3805Y251226D01*
X3915Y251198D01*
X4023Y251164D01*
X4053Y251163D01*
X4081Y251156D01*
X4194Y251160D01*
X4307Y251157D01*
X4336Y251164D01*
X4365Y251165D01*
X4473Y251200D01*
X4582Y251229D01*
X4608Y251243D01*
X4636Y251253D01*
X4699Y251298D01*
X4827Y251374D01*
X4870Y251419D01*
X4909Y251447D01*
X7526Y254064D01*
X11524Y254064D01*
X14352Y251237D01*
X14352Y247238D01*
X11513Y244399D01*
X11478Y244352D01*
X11435Y244312D01*
X11392Y244239D01*
X11342Y244172D01*
X11321Y244117D01*
X11291Y244067D01*
X11271Y243985D01*
X11241Y243906D01*
X11236Y243848D01*
X11221Y243791D01*
X11224Y243707D01*
X11217Y243623D01*
X11228Y243566D01*
X11230Y243507D01*
X11256Y243427D01*
X11273Y243344D01*
X11300Y243292D01*
X11318Y243237D01*
X11358Y243180D01*
X11404Y243092D01*
X11473Y243020D01*
X11513Y242963D01*
X14352Y240124D01*
X14352Y236126D01*
X11513Y233287D01*
X11478Y233240D01*
X11435Y233200D01*
X11392Y233127D01*
X11342Y233059D01*
X11321Y233005D01*
X11291Y232954D01*
X11271Y232873D01*
X11241Y232794D01*
X11236Y232735D01*
X11221Y232679D01*
X11224Y232595D01*
X11217Y232511D01*
X11228Y232453D01*
X11230Y232395D01*
X11256Y232314D01*
X11273Y232232D01*
X11300Y232180D01*
X11318Y232124D01*
X11358Y232068D01*
X11404Y231979D01*
X11473Y231907D01*
X11513Y231851D01*
X14352Y229012D01*
X14352Y225013D01*
X11524Y222186D01*
X7526Y222186D01*
X4909Y224803D01*
X4885Y224820D01*
X4866Y224843D01*
X4772Y224905D01*
X4682Y224974D01*
X4654Y224984D01*
X4630Y225000D01*
X4522Y225034D01*
X4416Y225075D01*
X4387Y225077D01*
X4359Y225086D01*
X4245Y225089D01*
X4133Y225098D01*
X4104Y225093D01*
X4075Y225093D01*
X3965Y225065D01*
X3854Y225042D01*
X3828Y225029D01*
X3800Y225021D01*
X3702Y224964D01*
X3602Y224911D01*
X3580Y224891D01*
X3555Y224876D01*
X3478Y224794D01*
X3396Y224716D01*
X3381Y224690D01*
X3361Y224669D01*
X3309Y224568D01*
X3252Y224470D01*
X3245Y224442D01*
X3231Y224416D01*
X3218Y224338D01*
X3182Y224195D01*
X3184Y224132D01*
X3176Y224085D01*
X3176Y50553D01*
X3180Y50524D01*
X3177Y50494D01*
X3200Y50383D01*
X3216Y50271D01*
X3228Y50245D01*
X3233Y50216D01*
X3286Y50115D01*
X3332Y50012D01*
X3351Y49989D01*
X3364Y49963D01*
X3442Y49881D01*
X3515Y49795D01*
X3540Y49779D01*
X3560Y49757D01*
X3658Y49700D01*
X3752Y49637D01*
X3780Y49628D01*
X3805Y49614D01*
X3915Y49586D01*
X4023Y49551D01*
X4053Y49551D01*
X4081Y49544D01*
X4194Y49547D01*
X4307Y49544D01*
X4336Y49552D01*
X4365Y49553D01*
X4473Y49587D01*
X4582Y49616D01*
X4608Y49631D01*
X4636Y49640D01*
X4700Y49686D01*
X4827Y49761D01*
X4870Y49807D01*
X4909Y49835D01*
X5938Y50864D01*
X9937Y50864D01*
X11982Y48819D01*
X12029Y48784D01*
X12069Y48741D01*
X12142Y48699D01*
X12209Y48648D01*
X12264Y48627D01*
X12314Y48598D01*
X12396Y48577D01*
X12475Y48547D01*
X12533Y48542D01*
X12590Y48528D01*
X12674Y48530D01*
X12758Y48523D01*
X12816Y48535D01*
X12874Y48537D01*
X12954Y48563D01*
X13037Y48579D01*
X13089Y48606D01*
X13145Y48624D01*
X13201Y48664D01*
X13289Y48710D01*
X13362Y48779D01*
X13418Y48819D01*
X15463Y50864D01*
X19462Y50864D01*
X21507Y48819D01*
X21554Y48784D01*
X21594Y48741D01*
X21667Y48699D01*
X21734Y48648D01*
X21789Y48627D01*
X21839Y48598D01*
X21921Y48577D01*
X22000Y48547D01*
X22058Y48542D01*
X22115Y48528D01*
X22199Y48530D01*
X22283Y48523D01*
X22341Y48535D01*
X22399Y48537D01*
X22479Y48563D01*
X22562Y48579D01*
X22614Y48606D01*
X22670Y48624D01*
X22726Y48664D01*
X22814Y48710D01*
X22887Y48779D01*
X22943Y48819D01*
X24988Y50864D01*
X28987Y50864D01*
X31814Y48037D01*
X31814Y44038D01*
X28987Y41211D01*
X24988Y41211D01*
X22943Y43256D01*
X22896Y43291D01*
X22856Y43334D01*
X22783Y43376D01*
X22716Y43427D01*
X22661Y43448D01*
X22611Y43477D01*
X22529Y43498D01*
X22450Y43528D01*
X22392Y43533D01*
X22335Y43547D01*
X22251Y43545D01*
X22167Y43552D01*
X22109Y43540D01*
X22051Y43538D01*
X21971Y43512D01*
X21888Y43496D01*
X21836Y43469D01*
X21780Y43451D01*
X21724Y43411D01*
X21636Y43365D01*
X21563Y43296D01*
X21507Y43256D01*
X19462Y41211D01*
X15463Y41211D01*
X13418Y43256D01*
X13371Y43291D01*
X13331Y43334D01*
X13258Y43376D01*
X13191Y43427D01*
X13136Y43448D01*
X13086Y43477D01*
X13004Y43498D01*
X12925Y43528D01*
X12867Y43533D01*
X12810Y43547D01*
X12726Y43545D01*
X12642Y43552D01*
X12584Y43540D01*
X12526Y43538D01*
X12446Y43512D01*
X12363Y43496D01*
X12311Y43469D01*
X12255Y43451D01*
X12199Y43411D01*
X12111Y43365D01*
X12038Y43296D01*
X11982Y43256D01*
X9937Y41211D01*
X5938Y41211D01*
X4909Y42240D01*
X4885Y42258D01*
X4866Y42280D01*
X4772Y42343D01*
X4682Y42411D01*
X4654Y42421D01*
X4630Y42438D01*
X4522Y42472D01*
X4416Y42512D01*
X4387Y42515D01*
X4359Y42524D01*
X4245Y42526D01*
X4133Y42536D01*
X4104Y42530D01*
X4075Y42531D01*
X3965Y42502D01*
X3854Y42480D01*
X3828Y42466D01*
X3800Y42459D01*
X3702Y42401D01*
X3602Y42349D01*
X3580Y42329D01*
X3555Y42314D01*
X3478Y42231D01*
X3396Y42153D01*
X3381Y42128D01*
X3361Y42106D01*
X3309Y42006D01*
X3252Y41908D01*
X3245Y41879D01*
X3231Y41853D01*
X3218Y41776D01*
X3182Y41632D01*
X3184Y41570D01*
X3176Y41522D01*
X3176Y4191D01*
X3184Y4133D01*
X3182Y4075D01*
X3204Y3993D01*
X3216Y3909D01*
X3239Y3856D01*
X3254Y3800D01*
X3297Y3727D01*
X3332Y3650D01*
X3370Y3605D01*
X3399Y3555D01*
X3461Y3497D01*
X3515Y3433D01*
X3564Y3401D01*
X3607Y3361D01*
X3682Y3322D01*
X3752Y3275D01*
X3808Y3258D01*
X3860Y3231D01*
X3928Y3220D01*
X4023Y3190D01*
X4123Y3187D01*
X4191Y3176D01*
X60325Y3176D01*
X60383Y3184D01*
G37*
%LPC*%
G36*
X283751Y92011D02*
X283751Y92011D01*
X280923Y94838D01*
X280923Y98837D01*
X282175Y100088D01*
X282210Y100135D01*
X282252Y100175D01*
X282295Y100248D01*
X282346Y100316D01*
X282367Y100370D01*
X282396Y100421D01*
X282417Y100502D01*
X282447Y100581D01*
X282452Y100640D01*
X282466Y100696D01*
X282464Y100780D01*
X282471Y100864D01*
X282459Y100922D01*
X282457Y100980D01*
X282431Y101061D01*
X282415Y101143D01*
X282388Y101195D01*
X282370Y101251D01*
X282330Y101307D01*
X282284Y101396D01*
X282215Y101468D01*
X282175Y101524D01*
X279336Y104363D01*
X279336Y108362D01*
X282163Y111189D01*
X283083Y111189D01*
X283141Y111197D01*
X283199Y111196D01*
X283281Y111217D01*
X283365Y111229D01*
X283418Y111253D01*
X283474Y111268D01*
X283547Y111311D01*
X283624Y111345D01*
X283669Y111383D01*
X283719Y111413D01*
X283777Y111475D01*
X283841Y111529D01*
X283873Y111578D01*
X283913Y111620D01*
X283952Y111695D01*
X283999Y111766D01*
X284016Y111821D01*
X284043Y111873D01*
X284054Y111941D01*
X284084Y112037D01*
X284087Y112136D01*
X284098Y112204D01*
X284098Y114808D01*
X284090Y114866D01*
X284092Y114924D01*
X284070Y115006D01*
X284058Y115090D01*
X284035Y115143D01*
X284020Y115199D01*
X283977Y115272D01*
X283942Y115349D01*
X283904Y115394D01*
X283875Y115444D01*
X283813Y115502D01*
X283759Y115566D01*
X283710Y115598D01*
X283667Y115638D01*
X283592Y115677D01*
X283522Y115724D01*
X283466Y115741D01*
X283414Y115768D01*
X283346Y115779D01*
X283251Y115809D01*
X283151Y115812D01*
X283083Y115823D01*
X280576Y115823D01*
X277748Y118651D01*
X277748Y122649D01*
X280576Y125477D01*
X283083Y125477D01*
X283141Y125485D01*
X283199Y125483D01*
X283281Y125505D01*
X283365Y125517D01*
X283418Y125540D01*
X283474Y125555D01*
X283547Y125598D01*
X283624Y125633D01*
X283669Y125671D01*
X283719Y125700D01*
X283777Y125762D01*
X283841Y125816D01*
X283873Y125865D01*
X283913Y125908D01*
X283952Y125983D01*
X283999Y126053D01*
X284016Y126109D01*
X284043Y126161D01*
X284054Y126229D01*
X284084Y126324D01*
X284087Y126424D01*
X284098Y126492D01*
X284098Y128999D01*
X286271Y131172D01*
X286288Y131195D01*
X286311Y131214D01*
X286373Y131308D01*
X286442Y131399D01*
X286452Y131426D01*
X286468Y131451D01*
X286502Y131559D01*
X286543Y131664D01*
X286545Y131694D01*
X286554Y131722D01*
X286557Y131835D01*
X286566Y131948D01*
X286561Y131976D01*
X286561Y132006D01*
X286533Y132115D01*
X286510Y132227D01*
X286497Y132253D01*
X286489Y132281D01*
X286432Y132378D01*
X286379Y132479D01*
X286359Y132500D01*
X286344Y132525D01*
X286262Y132603D01*
X286184Y132685D01*
X286158Y132700D01*
X286137Y132720D01*
X286036Y132771D01*
X285938Y132829D01*
X285910Y132836D01*
X285884Y132849D01*
X285806Y132862D01*
X285663Y132899D01*
X285600Y132897D01*
X285553Y132905D01*
X283838Y132905D01*
X283751Y132893D01*
X283663Y132890D01*
X283611Y132873D01*
X283556Y132865D01*
X283476Y132829D01*
X283393Y132802D01*
X283354Y132774D01*
X283297Y132749D01*
X283183Y132653D01*
X283120Y132607D01*
X272305Y121792D01*
X226688Y121792D01*
X226601Y121780D01*
X226513Y121777D01*
X226461Y121760D01*
X226406Y121752D01*
X226326Y121717D01*
X226243Y121690D01*
X226204Y121662D01*
X226147Y121636D01*
X226033Y121540D01*
X225970Y121495D01*
X224026Y119552D01*
X224025Y119550D01*
X224024Y119549D01*
X223939Y119436D01*
X223855Y119324D01*
X223855Y119323D01*
X223854Y119322D01*
X223803Y119188D01*
X223754Y119059D01*
X223754Y119057D01*
X223754Y119056D01*
X223742Y118911D01*
X223731Y118775D01*
X223731Y118774D01*
X223731Y118772D01*
X223734Y118757D01*
X223787Y118497D01*
X223801Y118470D01*
X223806Y118445D01*
X224791Y116068D01*
X224791Y112532D01*
X223437Y109264D01*
X220936Y106763D01*
X217668Y105409D01*
X214132Y105409D01*
X210864Y106763D01*
X208363Y109264D01*
X207009Y112532D01*
X207009Y116068D01*
X208363Y119336D01*
X210864Y121837D01*
X213705Y123014D01*
X213779Y123058D01*
X213857Y123093D01*
X213901Y123130D01*
X213950Y123159D01*
X214009Y123221D01*
X214074Y123277D01*
X214106Y123324D01*
X214145Y123365D01*
X214184Y123442D01*
X214232Y123513D01*
X214249Y123567D01*
X214275Y123618D01*
X214292Y123702D01*
X214318Y123784D01*
X214319Y123841D01*
X214330Y123897D01*
X214323Y123982D01*
X214325Y124068D01*
X214311Y124123D01*
X214306Y124180D01*
X214275Y124260D01*
X214253Y124343D01*
X214224Y124392D01*
X214204Y124445D01*
X214152Y124514D01*
X214108Y124588D01*
X214066Y124627D01*
X214032Y124672D01*
X213963Y124724D01*
X213901Y124782D01*
X213850Y124808D01*
X213804Y124842D01*
X213724Y124873D01*
X213648Y124912D01*
X213599Y124920D01*
X213538Y124943D01*
X213394Y124954D01*
X213316Y124967D01*
X204463Y124967D01*
X204376Y124955D01*
X204288Y124952D01*
X204236Y124935D01*
X204181Y124927D01*
X204101Y124892D01*
X204018Y124865D01*
X203979Y124837D01*
X203922Y124811D01*
X203808Y124715D01*
X203745Y124670D01*
X198626Y119552D01*
X198625Y119550D01*
X198624Y119549D01*
X198539Y119436D01*
X198455Y119324D01*
X198455Y119323D01*
X198454Y119322D01*
X198402Y119185D01*
X198354Y119059D01*
X198354Y119057D01*
X198354Y119056D01*
X198342Y118911D01*
X198331Y118775D01*
X198331Y118774D01*
X198331Y118772D01*
X198334Y118757D01*
X198387Y118497D01*
X198401Y118470D01*
X198406Y118445D01*
X199391Y116068D01*
X199391Y112532D01*
X198037Y109264D01*
X195536Y106763D01*
X192268Y105409D01*
X188732Y105409D01*
X185464Y106763D01*
X182963Y109264D01*
X181609Y112532D01*
X181609Y116068D01*
X182963Y119336D01*
X185464Y121837D01*
X188732Y123191D01*
X192268Y123191D01*
X194645Y122206D01*
X194647Y122206D01*
X194648Y122205D01*
X194782Y122171D01*
X194921Y122135D01*
X194922Y122135D01*
X194924Y122135D01*
X195064Y122139D01*
X195205Y122143D01*
X195206Y122144D01*
X195208Y122144D01*
X195341Y122187D01*
X195475Y122230D01*
X195477Y122231D01*
X195478Y122231D01*
X195490Y122240D01*
X195712Y122388D01*
X195731Y122412D01*
X195752Y122426D01*
X202358Y129033D01*
X213316Y129033D01*
X213402Y129045D01*
X213487Y129047D01*
X213542Y129065D01*
X213598Y129073D01*
X213676Y129108D01*
X213758Y129134D01*
X213805Y129166D01*
X213857Y129189D01*
X213923Y129244D01*
X213994Y129292D01*
X214031Y129336D01*
X214074Y129372D01*
X214122Y129444D01*
X214177Y129510D01*
X214200Y129562D01*
X214232Y129609D01*
X214258Y129691D01*
X214293Y129770D01*
X214301Y129826D01*
X214318Y129880D01*
X214320Y129966D01*
X214332Y130051D01*
X214324Y130107D01*
X214325Y130164D01*
X214303Y130247D01*
X214291Y130332D01*
X214268Y130384D01*
X214253Y130439D01*
X214209Y130513D01*
X214174Y130592D01*
X214137Y130635D01*
X214108Y130684D01*
X214045Y130743D01*
X213990Y130808D01*
X213948Y130834D01*
X213901Y130878D01*
X213772Y130944D01*
X213705Y130986D01*
X210864Y132163D01*
X208363Y134664D01*
X207009Y137932D01*
X207009Y141468D01*
X208363Y144736D01*
X210864Y147237D01*
X214132Y148591D01*
X217668Y148591D01*
X220936Y147237D01*
X223437Y144736D01*
X224791Y141468D01*
X224791Y137932D01*
X223437Y134664D01*
X220936Y132163D01*
X218095Y130986D01*
X218021Y130942D01*
X217943Y130907D01*
X217899Y130870D01*
X217850Y130841D01*
X217791Y130779D01*
X217726Y130723D01*
X217694Y130676D01*
X217655Y130635D01*
X217616Y130558D01*
X217568Y130487D01*
X217551Y130433D01*
X217525Y130382D01*
X217508Y130298D01*
X217482Y130216D01*
X217481Y130159D01*
X217470Y130103D01*
X217477Y130018D01*
X217475Y129932D01*
X217489Y129877D01*
X217494Y129820D01*
X217525Y129740D01*
X217547Y129657D01*
X217576Y129608D01*
X217596Y129555D01*
X217648Y129486D01*
X217692Y129412D01*
X217734Y129373D01*
X217768Y129328D01*
X217837Y129276D01*
X217899Y129218D01*
X217950Y129192D01*
X217996Y129158D01*
X218076Y129127D01*
X218152Y129088D01*
X218201Y129080D01*
X218262Y129057D01*
X218406Y129046D01*
X218484Y129033D01*
X268612Y129033D01*
X268699Y129045D01*
X268787Y129048D01*
X268839Y129065D01*
X268894Y129073D01*
X268974Y129108D01*
X269057Y129135D01*
X269096Y129163D01*
X269153Y129189D01*
X269267Y129285D01*
X269330Y129330D01*
X279490Y139490D01*
X279508Y139514D01*
X279530Y139533D01*
X279593Y139627D01*
X279661Y139717D01*
X279672Y139745D01*
X279688Y139769D01*
X279722Y139877D01*
X279763Y139983D01*
X279765Y140012D01*
X279774Y140040D01*
X279777Y140154D01*
X279786Y140266D01*
X279780Y140295D01*
X279781Y140324D01*
X279753Y140434D01*
X279730Y140545D01*
X279717Y140571D01*
X279709Y140599D01*
X279651Y140697D01*
X279599Y140797D01*
X279579Y140819D01*
X279564Y140844D01*
X279481Y140921D01*
X279403Y141003D01*
X279378Y141018D01*
X279357Y141038D01*
X279256Y141090D01*
X279158Y141147D01*
X279130Y141154D01*
X279104Y141168D01*
X279032Y141180D01*
X276161Y144051D01*
X276161Y148049D01*
X278988Y150877D01*
X282987Y150877D01*
X285814Y148049D01*
X285814Y144051D01*
X283642Y141878D01*
X283624Y141855D01*
X283602Y141836D01*
X283539Y141742D01*
X283471Y141651D01*
X283461Y141624D01*
X283444Y141599D01*
X283410Y141491D01*
X283370Y141386D01*
X283367Y141356D01*
X283358Y141328D01*
X283356Y141215D01*
X283346Y141102D01*
X283352Y141074D01*
X283351Y141044D01*
X283380Y140935D01*
X283402Y140823D01*
X283416Y140797D01*
X283423Y140769D01*
X283481Y140672D01*
X283533Y140571D01*
X283553Y140550D01*
X283568Y140525D01*
X283651Y140447D01*
X283729Y140365D01*
X283754Y140350D01*
X283776Y140330D01*
X283876Y140279D01*
X283974Y140221D01*
X284003Y140214D01*
X284029Y140201D01*
X284106Y140188D01*
X284250Y140151D01*
X284312Y140153D01*
X284360Y140145D01*
X327350Y140145D01*
X327437Y140157D01*
X327524Y140160D01*
X327577Y140177D01*
X327631Y140185D01*
X327711Y140221D01*
X327795Y140248D01*
X327834Y140276D01*
X327891Y140301D01*
X328004Y140397D01*
X328068Y140443D01*
X331426Y143801D01*
X331478Y143870D01*
X331538Y143934D01*
X331564Y143984D01*
X331597Y144028D01*
X331628Y144110D01*
X331668Y144187D01*
X331676Y144235D01*
X331698Y144293D01*
X331710Y144441D01*
X331723Y144519D01*
X331723Y148049D01*
X334551Y150877D01*
X338549Y150877D01*
X341377Y148049D01*
X341377Y144051D01*
X339331Y142005D01*
X339296Y141959D01*
X339254Y141918D01*
X339211Y141846D01*
X339161Y141778D01*
X339140Y141724D01*
X339110Y141673D01*
X339089Y141591D01*
X339059Y141513D01*
X339054Y141454D01*
X339040Y141398D01*
X339043Y141313D01*
X339036Y141229D01*
X339047Y141172D01*
X339049Y141113D01*
X339075Y141033D01*
X339092Y140950D01*
X339119Y140899D01*
X339137Y140843D01*
X339177Y140787D01*
X339223Y140698D01*
X339284Y140634D01*
X339296Y140614D01*
X339308Y140602D01*
X339331Y140570D01*
X341377Y138524D01*
X341377Y134526D01*
X338549Y131698D01*
X334551Y131698D01*
X333642Y132607D01*
X333572Y132660D01*
X333508Y132720D01*
X333458Y132745D01*
X333414Y132778D01*
X333333Y132809D01*
X333255Y132849D01*
X333207Y132857D01*
X333149Y132880D01*
X333001Y132892D01*
X332924Y132905D01*
X292297Y132905D01*
X292268Y132901D01*
X292239Y132903D01*
X292128Y132881D01*
X292016Y132865D01*
X291989Y132853D01*
X291960Y132847D01*
X291860Y132795D01*
X291756Y132749D01*
X291734Y132730D01*
X291708Y132716D01*
X291626Y132638D01*
X291539Y132565D01*
X291523Y132541D01*
X291502Y132520D01*
X291445Y132423D01*
X291382Y132328D01*
X291373Y132300D01*
X291358Y132275D01*
X291330Y132166D01*
X291296Y132057D01*
X291295Y132028D01*
X291288Y132000D01*
X291292Y131887D01*
X291289Y131773D01*
X291296Y131745D01*
X291297Y131715D01*
X291332Y131608D01*
X291361Y131498D01*
X291375Y131473D01*
X291385Y131445D01*
X291430Y131381D01*
X291506Y131254D01*
X291551Y131211D01*
X291579Y131172D01*
X293752Y128999D01*
X293752Y125001D01*
X290924Y122173D01*
X288417Y122173D01*
X288359Y122165D01*
X288301Y122167D01*
X288219Y122145D01*
X288135Y122133D01*
X288082Y122110D01*
X288026Y122095D01*
X287953Y122052D01*
X287876Y122017D01*
X287831Y121979D01*
X287781Y121950D01*
X287723Y121888D01*
X287659Y121834D01*
X287627Y121785D01*
X287587Y121742D01*
X287548Y121667D01*
X287501Y121597D01*
X287484Y121541D01*
X287457Y121489D01*
X287446Y121421D01*
X287416Y121326D01*
X287413Y121226D01*
X287402Y121158D01*
X287402Y120142D01*
X287410Y120084D01*
X287408Y120026D01*
X287430Y119944D01*
X287442Y119860D01*
X287465Y119807D01*
X287480Y119751D01*
X287523Y119678D01*
X287558Y119601D01*
X287596Y119556D01*
X287625Y119506D01*
X287687Y119448D01*
X287741Y119384D01*
X287790Y119352D01*
X287833Y119312D01*
X287908Y119273D01*
X287978Y119226D01*
X288034Y119209D01*
X288086Y119182D01*
X288154Y119171D01*
X288249Y119141D01*
X288349Y119138D01*
X288417Y119127D01*
X290924Y119127D01*
X293752Y116299D01*
X293752Y112301D01*
X290924Y109473D01*
X290004Y109473D01*
X289947Y109465D01*
X289888Y109467D01*
X289807Y109445D01*
X289723Y109433D01*
X289670Y109410D01*
X289613Y109395D01*
X289541Y109352D01*
X289464Y109317D01*
X289419Y109279D01*
X289369Y109250D01*
X289311Y109188D01*
X289247Y109134D01*
X289214Y109085D01*
X289174Y109042D01*
X289136Y108967D01*
X289089Y108897D01*
X289071Y108841D01*
X289045Y108789D01*
X289033Y108721D01*
X289003Y108626D01*
X289001Y108526D01*
X288989Y108458D01*
X288989Y104363D01*
X287738Y103112D01*
X287703Y103065D01*
X287660Y103025D01*
X287617Y102952D01*
X287567Y102884D01*
X287546Y102830D01*
X287516Y102779D01*
X287496Y102698D01*
X287466Y102619D01*
X287461Y102560D01*
X287446Y102504D01*
X287449Y102420D01*
X287442Y102335D01*
X287453Y102278D01*
X287455Y102220D01*
X287481Y102139D01*
X287498Y102057D01*
X287525Y102005D01*
X287543Y101949D01*
X287583Y101893D01*
X287629Y101804D01*
X287698Y101732D01*
X287738Y101676D01*
X289795Y99619D01*
X289841Y99584D01*
X289882Y99541D01*
X289955Y99499D01*
X290022Y99448D01*
X290076Y99427D01*
X290127Y99398D01*
X290209Y99377D01*
X290287Y99347D01*
X290346Y99342D01*
X290402Y99328D01*
X290487Y99330D01*
X290571Y99323D01*
X290628Y99335D01*
X290687Y99337D01*
X290767Y99363D01*
X290849Y99379D01*
X290901Y99406D01*
X290957Y99424D01*
X291013Y99464D01*
X291102Y99510D01*
X291174Y99579D01*
X291230Y99619D01*
X293276Y101664D01*
X297274Y101664D01*
X299320Y99619D01*
X299366Y99584D01*
X299407Y99541D01*
X299479Y99499D01*
X299547Y99448D01*
X299601Y99427D01*
X299652Y99398D01*
X299734Y99377D01*
X299812Y99347D01*
X299871Y99342D01*
X299927Y99328D01*
X300012Y99330D01*
X300096Y99323D01*
X300153Y99335D01*
X300212Y99337D01*
X300292Y99363D01*
X300374Y99379D01*
X300426Y99406D01*
X300482Y99424D01*
X300538Y99464D01*
X300627Y99510D01*
X300699Y99579D01*
X300755Y99619D01*
X302801Y101664D01*
X306799Y101664D01*
X309627Y98837D01*
X309627Y94838D01*
X306799Y92011D01*
X302801Y92011D01*
X300755Y94056D01*
X300709Y94091D01*
X300668Y94134D01*
X300596Y94176D01*
X300528Y94227D01*
X300474Y94248D01*
X300423Y94277D01*
X300341Y94298D01*
X300263Y94328D01*
X300204Y94333D01*
X300148Y94347D01*
X300063Y94345D01*
X299979Y94352D01*
X299922Y94340D01*
X299863Y94338D01*
X299783Y94312D01*
X299700Y94296D01*
X299649Y94269D01*
X299593Y94251D01*
X299537Y94211D01*
X299448Y94165D01*
X299376Y94096D01*
X299320Y94056D01*
X297274Y92011D01*
X293276Y92011D01*
X291230Y94056D01*
X291184Y94091D01*
X291143Y94134D01*
X291071Y94176D01*
X291003Y94227D01*
X290949Y94248D01*
X290898Y94277D01*
X290816Y94298D01*
X290738Y94328D01*
X290679Y94333D01*
X290623Y94347D01*
X290538Y94345D01*
X290454Y94352D01*
X290397Y94340D01*
X290338Y94338D01*
X290258Y94312D01*
X290175Y94296D01*
X290124Y94269D01*
X290068Y94251D01*
X290012Y94211D01*
X289923Y94165D01*
X289851Y94096D01*
X289795Y94056D01*
X287749Y92011D01*
X283751Y92011D01*
G37*
%LPD*%
%LPC*%
G36*
X247238Y169798D02*
X247238Y169798D01*
X244411Y172626D01*
X244411Y176624D01*
X246907Y179121D01*
X246922Y179140D01*
X246938Y179154D01*
X246969Y179200D01*
X247020Y179255D01*
X247045Y179304D01*
X247078Y179348D01*
X247093Y179387D01*
X247095Y179390D01*
X247101Y179406D01*
X247109Y179430D01*
X247149Y179508D01*
X247157Y179555D01*
X247180Y179614D01*
X247192Y179761D01*
X247205Y179839D01*
X247205Y249040D01*
X247201Y249069D01*
X247203Y249099D01*
X247181Y249210D01*
X247165Y249322D01*
X247153Y249348D01*
X247147Y249377D01*
X247095Y249478D01*
X247049Y249581D01*
X247030Y249604D01*
X247016Y249630D01*
X246938Y249712D01*
X246865Y249798D01*
X246841Y249814D01*
X246820Y249836D01*
X246723Y249893D01*
X246628Y249956D01*
X246600Y249965D01*
X246575Y249979D01*
X246465Y250007D01*
X246357Y250042D01*
X246328Y250042D01*
X246300Y250049D01*
X246187Y250046D01*
X246073Y250049D01*
X246045Y250041D01*
X246015Y250040D01*
X245907Y250006D01*
X245798Y249977D01*
X245773Y249962D01*
X245745Y249953D01*
X245681Y249907D01*
X245554Y249832D01*
X245511Y249786D01*
X245472Y249758D01*
X244887Y249173D01*
X240888Y249173D01*
X238061Y252001D01*
X238061Y254960D01*
X238057Y254989D01*
X238059Y255018D01*
X238053Y255047D01*
X238054Y255074D01*
X238033Y255153D01*
X238021Y255242D01*
X238009Y255268D01*
X238003Y255297D01*
X237988Y255326D01*
X237982Y255349D01*
X237943Y255414D01*
X237905Y255501D01*
X237886Y255523D01*
X237872Y255549D01*
X237848Y255575D01*
X237837Y255594D01*
X237785Y255642D01*
X237721Y255718D01*
X237697Y255734D01*
X237676Y255755D01*
X237645Y255774D01*
X237630Y255788D01*
X237570Y255819D01*
X237484Y255876D01*
X237456Y255884D01*
X237431Y255899D01*
X237394Y255909D01*
X237377Y255917D01*
X237326Y255926D01*
X237321Y255927D01*
X237213Y255961D01*
X237184Y255962D01*
X237156Y255969D01*
X237082Y255967D01*
X237046Y255973D01*
X237043Y255973D01*
X237000Y255967D01*
X236929Y255969D01*
X236901Y255961D01*
X236871Y255960D01*
X236808Y255940D01*
X236762Y255933D01*
X236717Y255913D01*
X236654Y255897D01*
X236629Y255882D01*
X236601Y255873D01*
X236557Y255841D01*
X236502Y255817D01*
X236461Y255782D01*
X236410Y255752D01*
X236367Y255706D01*
X236328Y255678D01*
X235693Y255043D01*
X235640Y254973D01*
X235580Y254909D01*
X235555Y254860D01*
X235522Y254816D01*
X235491Y254734D01*
X235451Y254656D01*
X235443Y254608D01*
X235420Y254550D01*
X235408Y254402D01*
X235395Y254325D01*
X235395Y232520D01*
X233907Y231032D01*
X224026Y221152D01*
X224025Y221150D01*
X224024Y221149D01*
X224009Y221129D01*
X223992Y221115D01*
X223940Y221036D01*
X223939Y221036D01*
X223855Y220924D01*
X223855Y220923D01*
X223854Y220922D01*
X223842Y220889D01*
X223834Y220878D01*
X223817Y220825D01*
X223804Y220790D01*
X223754Y220659D01*
X223754Y220657D01*
X223754Y220656D01*
X223750Y220612D01*
X223748Y220607D01*
X223748Y220585D01*
X223742Y220511D01*
X223731Y220375D01*
X223731Y220374D01*
X223731Y220372D01*
X223734Y220357D01*
X223741Y220323D01*
X223741Y220322D01*
X223787Y220097D01*
X223801Y220070D01*
X223806Y220045D01*
X224791Y217668D01*
X224791Y214132D01*
X223392Y210756D01*
X223371Y210672D01*
X223340Y210592D01*
X223336Y210535D01*
X223321Y210480D01*
X223324Y210394D01*
X223317Y210309D01*
X223328Y210253D01*
X223330Y210196D01*
X223356Y210114D01*
X223373Y210030D01*
X223399Y209980D01*
X223416Y209925D01*
X223464Y209854D01*
X223504Y209778D01*
X223543Y209737D01*
X223575Y209689D01*
X223640Y209634D01*
X223699Y209572D01*
X223749Y209543D01*
X223792Y209506D01*
X223871Y209471D01*
X223945Y209428D01*
X224000Y209414D01*
X224052Y209391D01*
X224137Y209379D01*
X224220Y209358D01*
X224277Y209360D01*
X224333Y209352D01*
X224419Y209364D01*
X224504Y209367D01*
X224559Y209384D01*
X224615Y209393D01*
X224693Y209428D01*
X224775Y209454D01*
X224815Y209483D01*
X224874Y209510D01*
X224984Y209604D01*
X225048Y209649D01*
X226601Y211202D01*
X230599Y211202D01*
X233427Y208374D01*
X233427Y204376D01*
X230599Y201548D01*
X226601Y201548D01*
X223773Y204376D01*
X223773Y208749D01*
X223769Y208778D01*
X223772Y208807D01*
X223749Y208918D01*
X223733Y209030D01*
X223721Y209057D01*
X223716Y209086D01*
X223663Y209187D01*
X223617Y209290D01*
X223598Y209312D01*
X223585Y209338D01*
X223507Y209420D01*
X223434Y209507D01*
X223409Y209523D01*
X223389Y209544D01*
X223291Y209601D01*
X223197Y209664D01*
X223169Y209673D01*
X223144Y209688D01*
X223034Y209716D01*
X222926Y209750D01*
X222896Y209751D01*
X222868Y209758D01*
X222755Y209755D01*
X222642Y209757D01*
X222613Y209750D01*
X222584Y209749D01*
X222476Y209714D01*
X222367Y209686D01*
X222341Y209671D01*
X222313Y209662D01*
X222249Y209616D01*
X222122Y209540D01*
X222079Y209495D01*
X222040Y209467D01*
X220936Y208363D01*
X217668Y207009D01*
X214132Y207009D01*
X210864Y208363D01*
X208363Y210864D01*
X207009Y214132D01*
X207009Y217668D01*
X208363Y220936D01*
X210864Y223437D01*
X214132Y224791D01*
X217668Y224791D01*
X220045Y223806D01*
X220047Y223806D01*
X220048Y223805D01*
X220182Y223771D01*
X220321Y223735D01*
X220322Y223735D01*
X220324Y223735D01*
X220464Y223739D01*
X220605Y223743D01*
X220606Y223744D01*
X220608Y223744D01*
X220741Y223787D01*
X220875Y223830D01*
X220877Y223831D01*
X220878Y223831D01*
X220890Y223840D01*
X221112Y223988D01*
X221131Y224012D01*
X221152Y224026D01*
X231032Y233907D01*
X231085Y233977D01*
X231145Y234041D01*
X231170Y234090D01*
X231203Y234134D01*
X231234Y234216D01*
X231274Y234294D01*
X231282Y234342D01*
X231305Y234400D01*
X231310Y234467D01*
X231316Y234485D01*
X231318Y234552D01*
X231330Y234625D01*
X231330Y256429D01*
X231865Y256965D01*
X231883Y256989D01*
X231905Y257008D01*
X231968Y257102D01*
X232036Y257192D01*
X232047Y257220D01*
X232063Y257244D01*
X232097Y257352D01*
X232138Y257458D01*
X232140Y257487D01*
X232149Y257515D01*
X232152Y257629D01*
X232161Y257741D01*
X232155Y257770D01*
X232156Y257799D01*
X232127Y257909D01*
X232105Y258020D01*
X232092Y258046D01*
X232084Y258074D01*
X232027Y258171D01*
X231974Y258272D01*
X231954Y258294D01*
X231939Y258319D01*
X231856Y258396D01*
X231778Y258478D01*
X231753Y258493D01*
X231732Y258513D01*
X231631Y258565D01*
X231533Y258622D01*
X231505Y258629D01*
X231479Y258643D01*
X231401Y258656D01*
X231258Y258692D01*
X231195Y258690D01*
X231148Y258698D01*
X228188Y258698D01*
X225361Y261526D01*
X225361Y265524D01*
X228188Y268352D01*
X232187Y268352D01*
X232772Y267767D01*
X232795Y267749D01*
X232814Y267727D01*
X232908Y267664D01*
X232999Y267596D01*
X233026Y267586D01*
X233051Y267569D01*
X233159Y267535D01*
X233264Y267495D01*
X233294Y267492D01*
X233322Y267483D01*
X233435Y267481D01*
X233548Y267471D01*
X233576Y267477D01*
X233606Y267476D01*
X233715Y267505D01*
X233827Y267527D01*
X233853Y267541D01*
X233881Y267548D01*
X233978Y267606D01*
X234079Y267658D01*
X234100Y267678D01*
X234125Y267693D01*
X234203Y267776D01*
X234285Y267854D01*
X234300Y267879D01*
X234320Y267901D01*
X234371Y268002D01*
X234429Y268099D01*
X234436Y268128D01*
X234449Y268154D01*
X234462Y268231D01*
X234499Y268375D01*
X234497Y268437D01*
X234505Y268485D01*
X234505Y275480D01*
X245220Y286195D01*
X277361Y286195D01*
X277448Y286207D01*
X277535Y286210D01*
X277588Y286227D01*
X277643Y286235D01*
X277722Y286271D01*
X277806Y286298D01*
X277845Y286326D01*
X277902Y286351D01*
X278015Y286447D01*
X278079Y286493D01*
X278714Y287128D01*
X278732Y287151D01*
X278754Y287170D01*
X278817Y287264D01*
X278885Y287355D01*
X278895Y287382D01*
X278912Y287407D01*
X278946Y287515D01*
X278986Y287620D01*
X278989Y287650D01*
X278998Y287678D01*
X279000Y287791D01*
X279010Y287904D01*
X279004Y287932D01*
X279005Y287962D01*
X278976Y288071D01*
X278954Y288183D01*
X278940Y288209D01*
X278933Y288237D01*
X278875Y288334D01*
X278823Y288435D01*
X278803Y288456D01*
X278788Y288481D01*
X278705Y288559D01*
X278627Y288641D01*
X278602Y288656D01*
X278580Y288676D01*
X278479Y288727D01*
X278382Y288785D01*
X278353Y288792D01*
X278327Y288805D01*
X278250Y288818D01*
X278106Y288855D01*
X278044Y288853D01*
X277996Y288861D01*
X275813Y288861D01*
X272986Y291688D01*
X272986Y295687D01*
X275813Y298514D01*
X279812Y298514D01*
X282639Y295687D01*
X282639Y291688D01*
X281673Y290722D01*
X281656Y290699D01*
X281633Y290680D01*
X281571Y290586D01*
X281502Y290495D01*
X281492Y290468D01*
X281476Y290443D01*
X281442Y290335D01*
X281401Y290230D01*
X281399Y290200D01*
X281390Y290172D01*
X281387Y290059D01*
X281378Y289946D01*
X281383Y289918D01*
X281383Y289888D01*
X281411Y289779D01*
X281434Y289667D01*
X281447Y289641D01*
X281455Y289613D01*
X281512Y289516D01*
X281565Y289415D01*
X281585Y289394D01*
X281600Y289369D01*
X281682Y289291D01*
X281760Y289209D01*
X281786Y289194D01*
X281807Y289174D01*
X281908Y289123D01*
X282006Y289065D01*
X282034Y289058D01*
X282060Y289045D01*
X282138Y289032D01*
X282281Y288995D01*
X282344Y288997D01*
X282391Y288989D01*
X284574Y288989D01*
X287402Y286162D01*
X287402Y282163D01*
X286436Y281197D01*
X286418Y281174D01*
X286396Y281155D01*
X286333Y281061D01*
X286265Y280970D01*
X286255Y280943D01*
X286238Y280918D01*
X286204Y280810D01*
X286164Y280705D01*
X286161Y280675D01*
X286152Y280647D01*
X286150Y280534D01*
X286140Y280421D01*
X286146Y280393D01*
X286145Y280363D01*
X286174Y280254D01*
X286196Y280142D01*
X286210Y280116D01*
X286217Y280088D01*
X286275Y279991D01*
X286327Y279890D01*
X286347Y279869D01*
X286362Y279844D01*
X286445Y279766D01*
X286523Y279684D01*
X286548Y279669D01*
X286570Y279649D01*
X286670Y279598D01*
X286768Y279540D01*
X286797Y279533D01*
X286823Y279520D01*
X286900Y279507D01*
X287044Y279470D01*
X287106Y279472D01*
X287154Y279464D01*
X290924Y279464D01*
X293763Y276625D01*
X293810Y276590D01*
X293850Y276548D01*
X293923Y276505D01*
X293991Y276454D01*
X294045Y276433D01*
X294096Y276404D01*
X294177Y276383D01*
X294256Y276353D01*
X294315Y276348D01*
X294371Y276334D01*
X294455Y276336D01*
X294539Y276329D01*
X294597Y276341D01*
X294655Y276343D01*
X294736Y276369D01*
X294818Y276385D01*
X294870Y276412D01*
X294926Y276430D01*
X294982Y276470D01*
X295071Y276516D01*
X295143Y276585D01*
X295199Y276625D01*
X298038Y279464D01*
X302037Y279464D01*
X304864Y276637D01*
X304864Y272638D01*
X302037Y269811D01*
X298038Y269811D01*
X295199Y272650D01*
X295152Y272685D01*
X295112Y272727D01*
X295039Y272770D01*
X294972Y272821D01*
X294917Y272842D01*
X294867Y272871D01*
X294785Y272892D01*
X294706Y272922D01*
X294648Y272927D01*
X294591Y272941D01*
X294507Y272939D01*
X294423Y272946D01*
X294366Y272934D01*
X294307Y272932D01*
X294227Y272906D01*
X294144Y272890D01*
X294092Y272863D01*
X294037Y272845D01*
X293980Y272805D01*
X293892Y272759D01*
X293820Y272690D01*
X293763Y272650D01*
X290924Y269811D01*
X286926Y269811D01*
X284098Y272638D01*
X284098Y276637D01*
X285064Y277603D01*
X285078Y277621D01*
X285092Y277633D01*
X285095Y277637D01*
X285104Y277645D01*
X285167Y277739D01*
X285235Y277830D01*
X285245Y277857D01*
X285262Y277882D01*
X285296Y277990D01*
X285336Y278095D01*
X285339Y278125D01*
X285348Y278153D01*
X285350Y278266D01*
X285360Y278379D01*
X285354Y278407D01*
X285355Y278437D01*
X285326Y278546D01*
X285304Y278658D01*
X285290Y278684D01*
X285283Y278712D01*
X285225Y278809D01*
X285173Y278910D01*
X285153Y278931D01*
X285138Y278956D01*
X285055Y279034D01*
X284977Y279116D01*
X284952Y279131D01*
X284930Y279151D01*
X284830Y279202D01*
X284732Y279260D01*
X284703Y279267D01*
X284677Y279280D01*
X284600Y279293D01*
X284456Y279330D01*
X284394Y279328D01*
X284346Y279336D01*
X280576Y279336D01*
X278079Y281832D01*
X278009Y281885D01*
X277945Y281945D01*
X277896Y281970D01*
X277852Y282003D01*
X277770Y282034D01*
X277692Y282074D01*
X277645Y282082D01*
X277586Y282105D01*
X277439Y282117D01*
X277361Y282130D01*
X247325Y282130D01*
X247238Y282118D01*
X247151Y282115D01*
X247098Y282098D01*
X247044Y282090D01*
X246964Y282054D01*
X246880Y282027D01*
X246841Y281999D01*
X246784Y281974D01*
X246671Y281878D01*
X246607Y281832D01*
X244385Y279610D01*
X244367Y279586D01*
X244345Y279567D01*
X244282Y279473D01*
X244214Y279383D01*
X244203Y279355D01*
X244187Y279331D01*
X244153Y279223D01*
X244112Y279117D01*
X244110Y279088D01*
X244101Y279060D01*
X244098Y278946D01*
X244089Y278834D01*
X244095Y278805D01*
X244094Y278776D01*
X244123Y278666D01*
X244145Y278555D01*
X244158Y278529D01*
X244166Y278501D01*
X244224Y278403D01*
X244276Y278303D01*
X244296Y278281D01*
X244311Y278256D01*
X244394Y278179D01*
X244472Y278097D01*
X244497Y278082D01*
X244518Y278062D01*
X244619Y278010D01*
X244717Y277953D01*
X244745Y277946D01*
X244771Y277932D01*
X244849Y277919D01*
X244992Y277883D01*
X245055Y277885D01*
X245102Y277877D01*
X246474Y277877D01*
X249302Y275049D01*
X249302Y271051D01*
X246474Y268223D01*
X242476Y268223D01*
X240303Y270396D01*
X240280Y270413D01*
X240261Y270436D01*
X240167Y270498D01*
X240076Y270567D01*
X240049Y270577D01*
X240024Y270593D01*
X239916Y270627D01*
X239811Y270668D01*
X239781Y270670D01*
X239753Y270679D01*
X239640Y270682D01*
X239527Y270691D01*
X239499Y270686D01*
X239469Y270686D01*
X239360Y270658D01*
X239248Y270635D01*
X239222Y270622D01*
X239194Y270614D01*
X239097Y270557D01*
X238996Y270504D01*
X238975Y270484D01*
X238950Y270469D01*
X238872Y270387D01*
X238790Y270309D01*
X238775Y270283D01*
X238755Y270262D01*
X238704Y270161D01*
X238646Y270063D01*
X238639Y270035D01*
X238626Y270009D01*
X238613Y269931D01*
X238576Y269788D01*
X238578Y269725D01*
X238570Y269678D01*
X238570Y258960D01*
X238574Y258931D01*
X238572Y258901D01*
X238594Y258790D01*
X238610Y258678D01*
X238622Y258652D01*
X238628Y258623D01*
X238680Y258522D01*
X238726Y258419D01*
X238745Y258396D01*
X238759Y258370D01*
X238837Y258288D01*
X238910Y258202D01*
X238934Y258186D01*
X238955Y258164D01*
X239052Y258107D01*
X239147Y258044D01*
X239175Y258035D01*
X239200Y258021D01*
X239310Y257993D01*
X239418Y257958D01*
X239447Y257958D01*
X239475Y257951D01*
X239588Y257954D01*
X239702Y257951D01*
X239730Y257959D01*
X239760Y257960D01*
X239868Y257994D01*
X239977Y258023D01*
X240002Y258038D01*
X240030Y258047D01*
X240094Y258093D01*
X240221Y258168D01*
X240264Y258214D01*
X240303Y258242D01*
X240888Y258827D01*
X244887Y258827D01*
X246932Y256781D01*
X246979Y256746D01*
X247019Y256704D01*
X247092Y256661D01*
X247159Y256611D01*
X247214Y256590D01*
X247264Y256560D01*
X247346Y256539D01*
X247425Y256509D01*
X247483Y256504D01*
X247540Y256490D01*
X247624Y256493D01*
X247708Y256486D01*
X247766Y256497D01*
X247824Y256499D01*
X247904Y256525D01*
X247987Y256542D01*
X248039Y256569D01*
X248095Y256587D01*
X248151Y256627D01*
X248239Y256673D01*
X248312Y256741D01*
X248368Y256781D01*
X250413Y258827D01*
X254412Y258827D01*
X257239Y255999D01*
X257239Y252001D01*
X254412Y249173D01*
X252285Y249173D01*
X252228Y249165D01*
X252169Y249167D01*
X252088Y249145D01*
X252004Y249133D01*
X251951Y249110D01*
X251894Y249095D01*
X251822Y249052D01*
X251745Y249017D01*
X251700Y248979D01*
X251650Y248950D01*
X251592Y248888D01*
X251528Y248834D01*
X251495Y248785D01*
X251455Y248742D01*
X251417Y248667D01*
X251370Y248597D01*
X251352Y248541D01*
X251326Y248489D01*
X251314Y248421D01*
X251284Y248326D01*
X251282Y248226D01*
X251270Y248158D01*
X251270Y179839D01*
X251282Y179752D01*
X251285Y179665D01*
X251302Y179612D01*
X251310Y179557D01*
X251346Y179478D01*
X251357Y179443D01*
X251358Y179438D01*
X251359Y179437D01*
X251373Y179394D01*
X251401Y179355D01*
X251426Y179298D01*
X251477Y179238D01*
X251504Y179193D01*
X251541Y179158D01*
X251568Y179121D01*
X254064Y176624D01*
X254064Y172626D01*
X251237Y169798D01*
X247238Y169798D01*
G37*
%LPD*%
%LPC*%
G36*
X334551Y174561D02*
X334551Y174561D01*
X331723Y177388D01*
X331723Y181387D01*
X333769Y183432D01*
X333804Y183479D01*
X333846Y183519D01*
X333889Y183592D01*
X333939Y183659D01*
X333960Y183714D01*
X333990Y183764D01*
X334011Y183846D01*
X334041Y183925D01*
X334046Y183983D01*
X334060Y184040D01*
X334057Y184124D01*
X334064Y184208D01*
X334053Y184266D01*
X334051Y184324D01*
X334025Y184404D01*
X334008Y184487D01*
X333981Y184539D01*
X333963Y184595D01*
X333923Y184651D01*
X333877Y184739D01*
X333809Y184812D01*
X333769Y184868D01*
X331723Y186913D01*
X331723Y190444D01*
X331711Y190531D01*
X331708Y190618D01*
X331691Y190671D01*
X331683Y190725D01*
X331648Y190805D01*
X331621Y190889D01*
X331593Y190928D01*
X331567Y190985D01*
X331471Y191098D01*
X331426Y191162D01*
X328167Y194420D01*
X328167Y199828D01*
X328163Y199857D01*
X328166Y199886D01*
X328143Y199997D01*
X328127Y200109D01*
X328115Y200136D01*
X328110Y200165D01*
X328057Y200265D01*
X328011Y200369D01*
X327992Y200391D01*
X327979Y200417D01*
X327901Y200499D01*
X327828Y200586D01*
X327803Y200602D01*
X327783Y200623D01*
X327685Y200680D01*
X327591Y200743D01*
X327563Y200752D01*
X327538Y200767D01*
X327428Y200795D01*
X327320Y200829D01*
X327290Y200830D01*
X327262Y200837D01*
X327149Y200833D01*
X327036Y200836D01*
X327007Y200829D01*
X326978Y200828D01*
X326870Y200793D01*
X326761Y200764D01*
X326735Y200750D01*
X326707Y200740D01*
X326643Y200695D01*
X326516Y200619D01*
X326473Y200574D01*
X326434Y200546D01*
X325849Y199961D01*
X321851Y199961D01*
X319023Y202788D01*
X319023Y206787D01*
X321851Y209614D01*
X325849Y209614D01*
X326434Y209029D01*
X326458Y209012D01*
X326477Y208989D01*
X326571Y208927D01*
X326661Y208858D01*
X326689Y208848D01*
X326713Y208832D01*
X326821Y208798D01*
X326927Y208757D01*
X326956Y208755D01*
X326984Y208746D01*
X327098Y208743D01*
X327210Y208734D01*
X327239Y208739D01*
X327268Y208739D01*
X327378Y208767D01*
X327489Y208790D01*
X327515Y208803D01*
X327543Y208811D01*
X327641Y208868D01*
X327741Y208921D01*
X327763Y208941D01*
X327788Y208956D01*
X327865Y209038D01*
X327947Y209116D01*
X327962Y209142D01*
X327982Y209163D01*
X328034Y209264D01*
X328091Y209362D01*
X328098Y209390D01*
X328112Y209416D01*
X328125Y209494D01*
X328161Y209637D01*
X328159Y209700D01*
X328167Y209747D01*
X328167Y280242D01*
X331426Y283501D01*
X331478Y283570D01*
X331538Y283634D01*
X331564Y283684D01*
X331597Y283728D01*
X331628Y283810D01*
X331668Y283887D01*
X331676Y283935D01*
X331698Y283993D01*
X331710Y284141D01*
X331723Y284219D01*
X331723Y287749D01*
X334551Y290577D01*
X338549Y290577D01*
X341377Y287749D01*
X341377Y283751D01*
X338549Y280923D01*
X335019Y280923D01*
X334932Y280911D01*
X334844Y280908D01*
X334792Y280891D01*
X334737Y280883D01*
X334657Y280848D01*
X334574Y280821D01*
X334535Y280793D01*
X334478Y280767D01*
X334364Y280671D01*
X334301Y280626D01*
X332530Y278855D01*
X332478Y278786D01*
X332418Y278722D01*
X332392Y278672D01*
X332359Y278628D01*
X332328Y278546D01*
X332288Y278469D01*
X332280Y278421D01*
X332258Y278363D01*
X332246Y278215D01*
X332233Y278137D01*
X332233Y250246D01*
X332237Y250217D01*
X332234Y250188D01*
X332257Y250077D01*
X332273Y249964D01*
X332285Y249938D01*
X332290Y249909D01*
X332343Y249808D01*
X332389Y249705D01*
X332408Y249683D01*
X332421Y249657D01*
X332499Y249574D01*
X332572Y249488D01*
X332597Y249472D01*
X332617Y249451D01*
X332715Y249393D01*
X332809Y249330D01*
X332837Y249322D01*
X332862Y249307D01*
X332972Y249279D01*
X333080Y249245D01*
X333110Y249244D01*
X333138Y249237D01*
X333251Y249240D01*
X333364Y249237D01*
X333393Y249245D01*
X333422Y249246D01*
X333530Y249281D01*
X333639Y249309D01*
X333665Y249324D01*
X333693Y249333D01*
X333756Y249379D01*
X333884Y249454D01*
X333927Y249500D01*
X333966Y249528D01*
X336188Y251751D01*
X336241Y251820D01*
X336301Y251884D01*
X336326Y251934D01*
X336359Y251978D01*
X336390Y252060D01*
X336430Y252137D01*
X336438Y252185D01*
X336461Y252243D01*
X336473Y252391D01*
X336486Y252469D01*
X336486Y255999D01*
X339313Y258827D01*
X343312Y258827D01*
X346139Y255999D01*
X346139Y252001D01*
X343300Y249162D01*
X343265Y249115D01*
X343223Y249075D01*
X343180Y249002D01*
X343129Y248934D01*
X343108Y248880D01*
X343079Y248829D01*
X343058Y248748D01*
X343028Y248669D01*
X343023Y248610D01*
X343009Y248554D01*
X343011Y248470D01*
X343004Y248386D01*
X343016Y248328D01*
X343018Y248270D01*
X343044Y248189D01*
X343060Y248107D01*
X343087Y248055D01*
X343105Y247999D01*
X343145Y247943D01*
X343191Y247854D01*
X343260Y247782D01*
X343300Y247726D01*
X346139Y244887D01*
X346139Y240888D01*
X344094Y238843D01*
X344059Y238796D01*
X344016Y238756D01*
X343974Y238683D01*
X343923Y238616D01*
X343902Y238561D01*
X343873Y238511D01*
X343852Y238429D01*
X343822Y238350D01*
X343817Y238292D01*
X343803Y238235D01*
X343805Y238151D01*
X343798Y238067D01*
X343810Y238009D01*
X343812Y237951D01*
X343838Y237871D01*
X343854Y237788D01*
X343881Y237736D01*
X343899Y237680D01*
X343939Y237624D01*
X343985Y237536D01*
X344054Y237463D01*
X344094Y237407D01*
X346139Y235362D01*
X346139Y231363D01*
X343312Y228536D01*
X339313Y228536D01*
X337141Y230708D01*
X337117Y230726D01*
X337098Y230748D01*
X337004Y230811D01*
X336914Y230879D01*
X336886Y230889D01*
X336862Y230906D01*
X336754Y230940D01*
X336648Y230980D01*
X336619Y230983D01*
X336591Y230992D01*
X336477Y230994D01*
X336365Y231004D01*
X336336Y230998D01*
X336307Y230999D01*
X336197Y230970D01*
X336086Y230948D01*
X336060Y230934D01*
X336032Y230927D01*
X335934Y230869D01*
X335834Y230817D01*
X335812Y230797D01*
X335787Y230782D01*
X335710Y230699D01*
X335628Y230621D01*
X335613Y230596D01*
X335593Y230574D01*
X335541Y230474D01*
X335484Y230376D01*
X335477Y230347D01*
X335463Y230321D01*
X335450Y230244D01*
X335414Y230100D01*
X335416Y230038D01*
X335408Y229990D01*
X335408Y215575D01*
X335420Y215488D01*
X335423Y215401D01*
X335440Y215348D01*
X335448Y215294D01*
X335483Y215214D01*
X335510Y215130D01*
X335538Y215091D01*
X335564Y215034D01*
X335660Y214921D01*
X335705Y214857D01*
X344933Y205630D01*
X344933Y200476D01*
X344945Y200390D01*
X344948Y200302D01*
X344965Y200250D01*
X344973Y200195D01*
X345008Y200115D01*
X345035Y200032D01*
X345063Y199993D01*
X345089Y199935D01*
X345185Y199822D01*
X345230Y199758D01*
X347727Y197262D01*
X347727Y193263D01*
X344899Y190436D01*
X342392Y190436D01*
X342334Y190428D01*
X342276Y190429D01*
X342194Y190408D01*
X342110Y190396D01*
X342057Y190372D01*
X342001Y190357D01*
X341928Y190314D01*
X341851Y190280D01*
X341806Y190242D01*
X341756Y190212D01*
X341698Y190150D01*
X341634Y190096D01*
X341602Y190047D01*
X341562Y190005D01*
X341523Y189930D01*
X341476Y189859D01*
X341459Y189804D01*
X341432Y189752D01*
X341421Y189684D01*
X341391Y189588D01*
X341388Y189489D01*
X341377Y189421D01*
X341377Y186913D01*
X339331Y184868D01*
X339296Y184821D01*
X339254Y184781D01*
X339211Y184708D01*
X339161Y184641D01*
X339140Y184586D01*
X339110Y184536D01*
X339089Y184454D01*
X339059Y184375D01*
X339054Y184317D01*
X339040Y184260D01*
X339043Y184176D01*
X339036Y184092D01*
X339047Y184034D01*
X339049Y183976D01*
X339075Y183896D01*
X339092Y183813D01*
X339119Y183761D01*
X339137Y183705D01*
X339177Y183649D01*
X339223Y183561D01*
X339291Y183488D01*
X339331Y183432D01*
X341377Y181387D01*
X341377Y177388D01*
X338549Y174561D01*
X334551Y174561D01*
G37*
%LPD*%
%LPC*%
G36*
X413713Y530884D02*
X413713Y530884D01*
X406714Y533783D01*
X401358Y539139D01*
X398459Y546138D01*
X398459Y553712D01*
X401358Y560711D01*
X406714Y566067D01*
X413713Y568966D01*
X421287Y568966D01*
X428286Y566067D01*
X433642Y560711D01*
X436541Y553712D01*
X436541Y546138D01*
X433642Y539139D01*
X428286Y533783D01*
X421287Y530884D01*
X413713Y530884D01*
G37*
%LPD*%
%LPC*%
G36*
X28713Y530884D02*
X28713Y530884D01*
X21714Y533783D01*
X16358Y539139D01*
X13459Y546138D01*
X13459Y553712D01*
X16358Y560711D01*
X21714Y566067D01*
X28713Y568966D01*
X36287Y568966D01*
X43286Y566067D01*
X48642Y560711D01*
X51541Y553712D01*
X51541Y546138D01*
X48642Y539139D01*
X43286Y533783D01*
X36287Y530884D01*
X28713Y530884D01*
G37*
%LPD*%
%LPC*%
G36*
X198026Y26923D02*
X198026Y26923D01*
X195198Y29751D01*
X195198Y33749D01*
X195656Y34207D01*
X195691Y34254D01*
X195734Y34294D01*
X195776Y34367D01*
X195827Y34434D01*
X195848Y34489D01*
X195877Y34539D01*
X195898Y34621D01*
X195928Y34700D01*
X195933Y34758D01*
X195947Y34815D01*
X195945Y34899D01*
X195952Y34983D01*
X195940Y35041D01*
X195938Y35099D01*
X195912Y35179D01*
X195896Y35262D01*
X195869Y35314D01*
X195851Y35370D01*
X195811Y35426D01*
X195765Y35514D01*
X195696Y35587D01*
X195656Y35643D01*
X195198Y36101D01*
X195198Y40099D01*
X195656Y40557D01*
X195691Y40604D01*
X195734Y40644D01*
X195776Y40717D01*
X195827Y40784D01*
X195848Y40839D01*
X195877Y40889D01*
X195898Y40971D01*
X195928Y41050D01*
X195933Y41108D01*
X195947Y41165D01*
X195945Y41249D01*
X195952Y41333D01*
X195940Y41391D01*
X195938Y41449D01*
X195912Y41529D01*
X195896Y41612D01*
X195869Y41664D01*
X195851Y41720D01*
X195811Y41776D01*
X195765Y41864D01*
X195696Y41937D01*
X195656Y41993D01*
X195198Y42451D01*
X195198Y46449D01*
X198026Y49277D01*
X202024Y49277D01*
X202482Y48819D01*
X202529Y48784D01*
X202569Y48741D01*
X202642Y48699D01*
X202709Y48648D01*
X202764Y48627D01*
X202814Y48598D01*
X202896Y48577D01*
X202975Y48547D01*
X203033Y48542D01*
X203090Y48528D01*
X203174Y48530D01*
X203258Y48523D01*
X203316Y48535D01*
X203374Y48537D01*
X203454Y48563D01*
X203537Y48579D01*
X203589Y48606D01*
X203645Y48624D01*
X203701Y48664D01*
X203789Y48710D01*
X203862Y48779D01*
X203918Y48819D01*
X204376Y49277D01*
X208374Y49277D01*
X208832Y48819D01*
X208879Y48784D01*
X208919Y48741D01*
X208992Y48699D01*
X209059Y48648D01*
X209114Y48627D01*
X209164Y48598D01*
X209246Y48577D01*
X209325Y48547D01*
X209383Y48542D01*
X209440Y48528D01*
X209524Y48530D01*
X209608Y48523D01*
X209666Y48535D01*
X209724Y48537D01*
X209804Y48563D01*
X209887Y48579D01*
X209939Y48606D01*
X209995Y48624D01*
X210051Y48664D01*
X210139Y48710D01*
X210212Y48779D01*
X210268Y48819D01*
X210726Y49277D01*
X214724Y49277D01*
X217552Y46449D01*
X217552Y42451D01*
X217094Y41993D01*
X217059Y41946D01*
X217016Y41906D01*
X216974Y41833D01*
X216923Y41766D01*
X216902Y41711D01*
X216873Y41661D01*
X216852Y41579D01*
X216822Y41500D01*
X216817Y41442D01*
X216803Y41385D01*
X216805Y41301D01*
X216798Y41217D01*
X216810Y41159D01*
X216812Y41101D01*
X216838Y41021D01*
X216854Y40938D01*
X216881Y40886D01*
X216899Y40830D01*
X216939Y40774D01*
X216985Y40686D01*
X217054Y40613D01*
X217094Y40557D01*
X217552Y40099D01*
X217552Y36101D01*
X217094Y35643D01*
X217059Y35596D01*
X217016Y35556D01*
X216974Y35483D01*
X216923Y35416D01*
X216902Y35361D01*
X216873Y35311D01*
X216852Y35229D01*
X216822Y35150D01*
X216817Y35092D01*
X216803Y35035D01*
X216805Y34951D01*
X216798Y34867D01*
X216810Y34809D01*
X216812Y34751D01*
X216838Y34671D01*
X216854Y34588D01*
X216881Y34536D01*
X216899Y34480D01*
X216939Y34424D01*
X216985Y34336D01*
X217054Y34263D01*
X217094Y34207D01*
X217552Y33749D01*
X217552Y29751D01*
X214724Y26923D01*
X210726Y26923D01*
X210268Y27381D01*
X210221Y27416D01*
X210181Y27459D01*
X210108Y27501D01*
X210041Y27552D01*
X209986Y27573D01*
X209936Y27602D01*
X209854Y27623D01*
X209775Y27653D01*
X209717Y27658D01*
X209660Y27672D01*
X209576Y27670D01*
X209492Y27677D01*
X209434Y27665D01*
X209376Y27663D01*
X209296Y27637D01*
X209213Y27621D01*
X209161Y27594D01*
X209105Y27576D01*
X209049Y27536D01*
X208961Y27490D01*
X208888Y27421D01*
X208832Y27381D01*
X208374Y26923D01*
X204376Y26923D01*
X203918Y27381D01*
X203871Y27416D01*
X203831Y27459D01*
X203758Y27501D01*
X203691Y27552D01*
X203636Y27573D01*
X203586Y27602D01*
X203504Y27623D01*
X203425Y27653D01*
X203367Y27658D01*
X203310Y27672D01*
X203226Y27670D01*
X203142Y27677D01*
X203084Y27665D01*
X203026Y27663D01*
X202946Y27637D01*
X202863Y27621D01*
X202811Y27594D01*
X202755Y27576D01*
X202699Y27536D01*
X202611Y27490D01*
X202538Y27421D01*
X202482Y27381D01*
X202024Y26923D01*
X198026Y26923D01*
G37*
%LPD*%
%LPC*%
G36*
X17051Y104711D02*
X17051Y104711D01*
X14223Y107538D01*
X14223Y111537D01*
X17062Y114376D01*
X17097Y114423D01*
X17140Y114463D01*
X17183Y114536D01*
X17233Y114603D01*
X17254Y114658D01*
X17284Y114708D01*
X17304Y114790D01*
X17334Y114869D01*
X17339Y114927D01*
X17354Y114984D01*
X17351Y115068D01*
X17358Y115152D01*
X17347Y115209D01*
X17345Y115268D01*
X17319Y115348D01*
X17302Y115431D01*
X17275Y115483D01*
X17257Y115538D01*
X17217Y115595D01*
X17171Y115683D01*
X17102Y115755D01*
X17062Y115812D01*
X14223Y118651D01*
X14223Y122649D01*
X17062Y125488D01*
X17097Y125535D01*
X17140Y125575D01*
X17183Y125648D01*
X17233Y125716D01*
X17254Y125770D01*
X17284Y125821D01*
X17304Y125902D01*
X17334Y125981D01*
X17339Y126040D01*
X17354Y126096D01*
X17351Y126180D01*
X17358Y126264D01*
X17347Y126322D01*
X17345Y126380D01*
X17319Y126461D01*
X17302Y126543D01*
X17275Y126595D01*
X17257Y126651D01*
X17217Y126707D01*
X17171Y126796D01*
X17102Y126868D01*
X17062Y126924D01*
X14223Y129763D01*
X14223Y133762D01*
X17062Y136601D01*
X17097Y136648D01*
X17140Y136688D01*
X17183Y136761D01*
X17233Y136828D01*
X17254Y136883D01*
X17284Y136933D01*
X17304Y137015D01*
X17334Y137094D01*
X17339Y137152D01*
X17354Y137209D01*
X17351Y137293D01*
X17358Y137377D01*
X17347Y137434D01*
X17345Y137493D01*
X17319Y137573D01*
X17302Y137656D01*
X17275Y137708D01*
X17257Y137763D01*
X17217Y137820D01*
X17171Y137908D01*
X17102Y137980D01*
X17062Y138037D01*
X14223Y140876D01*
X14223Y144874D01*
X17062Y147713D01*
X17097Y147760D01*
X17140Y147800D01*
X17183Y147873D01*
X17233Y147941D01*
X17254Y147995D01*
X17284Y148046D01*
X17304Y148127D01*
X17334Y148206D01*
X17339Y148265D01*
X17354Y148321D01*
X17351Y148405D01*
X17358Y148489D01*
X17347Y148547D01*
X17345Y148605D01*
X17319Y148686D01*
X17302Y148768D01*
X17275Y148820D01*
X17257Y148876D01*
X17217Y148932D01*
X17171Y149021D01*
X17102Y149093D01*
X17062Y149149D01*
X14223Y151988D01*
X14223Y155987D01*
X17051Y158814D01*
X21049Y158814D01*
X23877Y155987D01*
X23877Y151988D01*
X21038Y149149D01*
X21003Y149102D01*
X20960Y149062D01*
X20917Y148989D01*
X20867Y148922D01*
X20846Y148867D01*
X20816Y148817D01*
X20796Y148735D01*
X20766Y148656D01*
X20761Y148598D01*
X20746Y148541D01*
X20749Y148457D01*
X20742Y148373D01*
X20753Y148316D01*
X20755Y148257D01*
X20781Y148177D01*
X20798Y148094D01*
X20825Y148042D01*
X20843Y147987D01*
X20883Y147930D01*
X20929Y147842D01*
X20998Y147770D01*
X21038Y147713D01*
X23877Y144874D01*
X23877Y140876D01*
X21038Y138037D01*
X21003Y137990D01*
X20960Y137950D01*
X20917Y137877D01*
X20867Y137809D01*
X20846Y137755D01*
X20816Y137704D01*
X20796Y137623D01*
X20766Y137544D01*
X20761Y137485D01*
X20746Y137429D01*
X20749Y137345D01*
X20742Y137261D01*
X20753Y137203D01*
X20755Y137145D01*
X20781Y137064D01*
X20798Y136982D01*
X20825Y136930D01*
X20843Y136874D01*
X20883Y136818D01*
X20929Y136729D01*
X20998Y136657D01*
X21038Y136601D01*
X23877Y133762D01*
X23877Y129763D01*
X21038Y126924D01*
X21003Y126877D01*
X20960Y126837D01*
X20917Y126764D01*
X20867Y126697D01*
X20846Y126642D01*
X20816Y126592D01*
X20796Y126510D01*
X20766Y126431D01*
X20761Y126373D01*
X20746Y126316D01*
X20749Y126232D01*
X20742Y126148D01*
X20753Y126091D01*
X20755Y126032D01*
X20781Y125952D01*
X20798Y125869D01*
X20825Y125817D01*
X20843Y125762D01*
X20883Y125705D01*
X20929Y125617D01*
X20998Y125545D01*
X21038Y125488D01*
X23877Y122649D01*
X23877Y118651D01*
X21038Y115812D01*
X21003Y115765D01*
X20960Y115725D01*
X20917Y115652D01*
X20867Y115584D01*
X20846Y115530D01*
X20816Y115479D01*
X20796Y115398D01*
X20766Y115319D01*
X20761Y115260D01*
X20746Y115204D01*
X20749Y115120D01*
X20742Y115036D01*
X20753Y114978D01*
X20755Y114920D01*
X20781Y114839D01*
X20798Y114757D01*
X20825Y114705D01*
X20843Y114649D01*
X20883Y114593D01*
X20929Y114504D01*
X20998Y114432D01*
X21038Y114376D01*
X23877Y111537D01*
X23877Y107538D01*
X21049Y104711D01*
X17051Y104711D01*
G37*
%LPD*%
%LPC*%
G36*
X297808Y413904D02*
X297808Y413904D01*
X293757Y415582D01*
X290657Y418682D01*
X288979Y422733D01*
X288979Y427117D01*
X290657Y431168D01*
X293757Y434268D01*
X297808Y435946D01*
X302192Y435946D01*
X306243Y434268D01*
X309343Y431168D01*
X311021Y427117D01*
X311021Y422733D01*
X309343Y418682D01*
X306243Y415582D01*
X302192Y413904D01*
X297808Y413904D01*
G37*
%LPD*%
%LPC*%
G36*
X102808Y473904D02*
X102808Y473904D01*
X98757Y475582D01*
X95657Y478682D01*
X93979Y482733D01*
X93979Y487117D01*
X95657Y491168D01*
X98757Y494268D01*
X102808Y495946D01*
X107192Y495946D01*
X111243Y494268D01*
X114343Y491168D01*
X116021Y487117D01*
X116021Y482733D01*
X114343Y478682D01*
X111243Y475582D01*
X107192Y473904D01*
X102808Y473904D01*
G37*
%LPD*%
%LPC*%
G36*
X237808Y413904D02*
X237808Y413904D01*
X233757Y415582D01*
X230657Y418682D01*
X228979Y422733D01*
X228979Y427117D01*
X230657Y431168D01*
X233757Y434268D01*
X237808Y435946D01*
X242192Y435946D01*
X246243Y434268D01*
X249343Y431168D01*
X251021Y427117D01*
X251021Y422733D01*
X249343Y418682D01*
X246243Y415582D01*
X242192Y413904D01*
X237808Y413904D01*
G37*
%LPD*%
%LPC*%
G36*
X312808Y388904D02*
X312808Y388904D01*
X308757Y390582D01*
X305657Y393682D01*
X303979Y397733D01*
X303979Y402117D01*
X305657Y406168D01*
X308757Y409268D01*
X312808Y410946D01*
X317192Y410946D01*
X321243Y409268D01*
X324343Y406168D01*
X326021Y402117D01*
X326021Y397733D01*
X324343Y393682D01*
X321243Y390582D01*
X317192Y388904D01*
X312808Y388904D01*
G37*
%LPD*%
%LPC*%
G36*
X222808Y388904D02*
X222808Y388904D01*
X218757Y390582D01*
X215657Y393682D01*
X213979Y397733D01*
X213979Y402117D01*
X215657Y406168D01*
X218757Y409268D01*
X222808Y410946D01*
X227192Y410946D01*
X231243Y409268D01*
X234343Y406168D01*
X236021Y402117D01*
X236021Y397733D01*
X234343Y393682D01*
X231243Y390582D01*
X227192Y388904D01*
X222808Y388904D01*
G37*
%LPD*%
%LPC*%
G36*
X102808Y388904D02*
X102808Y388904D01*
X98757Y390582D01*
X95657Y393682D01*
X93979Y397733D01*
X93979Y402117D01*
X95657Y406168D01*
X98757Y409268D01*
X102808Y410946D01*
X107192Y410946D01*
X111243Y409268D01*
X114343Y406168D01*
X116021Y402117D01*
X116021Y397733D01*
X114343Y393682D01*
X111243Y390582D01*
X107192Y388904D01*
X102808Y388904D01*
G37*
%LPD*%
%LPC*%
G36*
X192808Y388904D02*
X192808Y388904D01*
X188757Y390582D01*
X185657Y393682D01*
X183979Y397733D01*
X183979Y402117D01*
X185657Y406168D01*
X188757Y409268D01*
X192808Y410946D01*
X197192Y410946D01*
X201243Y409268D01*
X204343Y406168D01*
X206021Y402117D01*
X206021Y397733D01*
X204343Y393682D01*
X201243Y390582D01*
X197192Y388904D01*
X192808Y388904D01*
G37*
%LPD*%
%LPC*%
G36*
X252808Y388904D02*
X252808Y388904D01*
X248757Y390582D01*
X245657Y393682D01*
X243979Y397733D01*
X243979Y402117D01*
X245657Y406168D01*
X248757Y409268D01*
X252808Y410946D01*
X257192Y410946D01*
X261243Y409268D01*
X264343Y406168D01*
X266021Y402117D01*
X266021Y397733D01*
X264343Y393682D01*
X261243Y390582D01*
X257192Y388904D01*
X252808Y388904D01*
G37*
%LPD*%
%LPC*%
G36*
X132808Y388904D02*
X132808Y388904D01*
X128757Y390582D01*
X125657Y393682D01*
X123979Y397733D01*
X123979Y402117D01*
X125657Y406168D01*
X128757Y409268D01*
X132808Y410946D01*
X137192Y410946D01*
X141243Y409268D01*
X144343Y406168D01*
X146021Y402117D01*
X146021Y397733D01*
X144343Y393682D01*
X141243Y390582D01*
X137192Y388904D01*
X132808Y388904D01*
G37*
%LPD*%
%LPC*%
G36*
X162808Y388904D02*
X162808Y388904D01*
X158757Y390582D01*
X155657Y393682D01*
X153979Y397733D01*
X153979Y402117D01*
X155657Y406168D01*
X158757Y409268D01*
X162808Y410946D01*
X167192Y410946D01*
X171243Y409268D01*
X174343Y406168D01*
X176021Y402117D01*
X176021Y397733D01*
X174343Y393682D01*
X171243Y390582D01*
X167192Y388904D01*
X162808Y388904D01*
G37*
%LPD*%
%LPC*%
G36*
X342808Y388904D02*
X342808Y388904D01*
X338757Y390582D01*
X335657Y393682D01*
X333979Y397733D01*
X333979Y402117D01*
X335657Y406168D01*
X338757Y409268D01*
X342808Y410946D01*
X347192Y410946D01*
X351243Y409268D01*
X354343Y406168D01*
X356021Y402117D01*
X356021Y397733D01*
X354343Y393682D01*
X351243Y390582D01*
X347192Y388904D01*
X342808Y388904D01*
G37*
%LPD*%
%LPC*%
G36*
X282808Y388904D02*
X282808Y388904D01*
X278757Y390582D01*
X275657Y393682D01*
X273979Y397733D01*
X273979Y402117D01*
X275657Y406168D01*
X278757Y409268D01*
X282808Y410946D01*
X287192Y410946D01*
X291243Y409268D01*
X294343Y406168D01*
X296021Y402117D01*
X296021Y397733D01*
X294343Y393682D01*
X291243Y390582D01*
X287192Y388904D01*
X282808Y388904D01*
G37*
%LPD*%
%LPC*%
G36*
X207808Y413904D02*
X207808Y413904D01*
X203757Y415582D01*
X200657Y418682D01*
X198979Y422733D01*
X198979Y427117D01*
X200657Y431168D01*
X203757Y434268D01*
X207808Y435946D01*
X212192Y435946D01*
X216243Y434268D01*
X219343Y431168D01*
X221021Y427117D01*
X221021Y422733D01*
X219343Y418682D01*
X216243Y415582D01*
X212192Y413904D01*
X207808Y413904D01*
G37*
%LPD*%
%LPC*%
G36*
X177808Y413904D02*
X177808Y413904D01*
X173757Y415582D01*
X170657Y418682D01*
X168979Y422733D01*
X168979Y427117D01*
X170657Y431168D01*
X173757Y434268D01*
X177808Y435946D01*
X182192Y435946D01*
X186243Y434268D01*
X189343Y431168D01*
X191021Y427117D01*
X191021Y422733D01*
X189343Y418682D01*
X186243Y415582D01*
X182192Y413904D01*
X177808Y413904D01*
G37*
%LPD*%
%LPC*%
G36*
X147808Y413904D02*
X147808Y413904D01*
X143757Y415582D01*
X140657Y418682D01*
X138979Y422733D01*
X138979Y427117D01*
X140657Y431168D01*
X143757Y434268D01*
X147808Y435946D01*
X152192Y435946D01*
X156243Y434268D01*
X159343Y431168D01*
X161021Y427117D01*
X161021Y422733D01*
X159343Y418682D01*
X156243Y415582D01*
X152192Y413904D01*
X147808Y413904D01*
G37*
%LPD*%
%LPC*%
G36*
X117808Y413904D02*
X117808Y413904D01*
X113757Y415582D01*
X110657Y418682D01*
X108979Y422733D01*
X108979Y427117D01*
X110657Y431168D01*
X113757Y434268D01*
X117808Y435946D01*
X122192Y435946D01*
X126243Y434268D01*
X129343Y431168D01*
X131021Y427117D01*
X131021Y422733D01*
X129343Y418682D01*
X126243Y415582D01*
X122192Y413904D01*
X117808Y413904D01*
G37*
%LPD*%
%LPC*%
G36*
X327808Y413904D02*
X327808Y413904D01*
X323757Y415582D01*
X320657Y418682D01*
X318979Y422733D01*
X318979Y427117D01*
X320657Y431168D01*
X323757Y434268D01*
X327808Y435946D01*
X332192Y435946D01*
X336243Y434268D01*
X339343Y431168D01*
X341021Y427117D01*
X341021Y422733D01*
X339343Y418682D01*
X336243Y415582D01*
X332192Y413904D01*
X327808Y413904D01*
G37*
%LPD*%
%LPC*%
G36*
X267808Y413904D02*
X267808Y413904D01*
X263757Y415582D01*
X260657Y418682D01*
X258979Y422733D01*
X258979Y427117D01*
X260657Y431168D01*
X263757Y434268D01*
X267808Y435946D01*
X272192Y435946D01*
X276243Y434268D01*
X279343Y431168D01*
X281021Y427117D01*
X281021Y422733D01*
X279343Y418682D01*
X276243Y415582D01*
X272192Y413904D01*
X267808Y413904D01*
G37*
%LPD*%
%LPC*%
G36*
X78963Y44386D02*
X78963Y44386D01*
X76136Y47213D01*
X76136Y51212D01*
X77387Y52463D01*
X77422Y52510D01*
X77465Y52550D01*
X77508Y52623D01*
X77558Y52691D01*
X77579Y52745D01*
X77609Y52796D01*
X77629Y52877D01*
X77659Y52956D01*
X77664Y53015D01*
X77679Y53071D01*
X77676Y53155D01*
X77683Y53239D01*
X77672Y53297D01*
X77670Y53355D01*
X77644Y53436D01*
X77627Y53518D01*
X77600Y53570D01*
X77582Y53626D01*
X77542Y53682D01*
X77496Y53771D01*
X77427Y53843D01*
X77387Y53899D01*
X76136Y55151D01*
X76136Y59149D01*
X78963Y61977D01*
X82962Y61977D01*
X85007Y59931D01*
X85054Y59896D01*
X85094Y59854D01*
X85167Y59811D01*
X85234Y59761D01*
X85289Y59740D01*
X85339Y59710D01*
X85421Y59689D01*
X85500Y59659D01*
X85558Y59654D01*
X85615Y59640D01*
X85699Y59643D01*
X85783Y59636D01*
X85841Y59647D01*
X85899Y59649D01*
X85979Y59675D01*
X86062Y59692D01*
X86114Y59719D01*
X86170Y59737D01*
X86226Y59777D01*
X86314Y59823D01*
X86387Y59891D01*
X86443Y59931D01*
X88488Y61977D01*
X92487Y61977D01*
X95314Y59149D01*
X95314Y55151D01*
X94063Y53899D01*
X94028Y53852D01*
X93985Y53812D01*
X93942Y53739D01*
X93892Y53672D01*
X93871Y53617D01*
X93841Y53567D01*
X93821Y53485D01*
X93791Y53406D01*
X93786Y53348D01*
X93771Y53291D01*
X93774Y53207D01*
X93767Y53123D01*
X93778Y53066D01*
X93780Y53007D01*
X93806Y52927D01*
X93823Y52844D01*
X93850Y52792D01*
X93868Y52737D01*
X93908Y52681D01*
X93954Y52592D01*
X94023Y52519D01*
X94063Y52463D01*
X95314Y51212D01*
X95314Y47213D01*
X92487Y44386D01*
X88488Y44386D01*
X86443Y46431D01*
X86396Y46466D01*
X86356Y46509D01*
X86283Y46551D01*
X86216Y46602D01*
X86161Y46623D01*
X86111Y46652D01*
X86029Y46673D01*
X85950Y46703D01*
X85892Y46708D01*
X85835Y46722D01*
X85751Y46720D01*
X85667Y46727D01*
X85609Y46715D01*
X85551Y46713D01*
X85471Y46687D01*
X85388Y46671D01*
X85336Y46644D01*
X85280Y46626D01*
X85224Y46586D01*
X85136Y46540D01*
X85063Y46471D01*
X85007Y46431D01*
X82962Y44386D01*
X78963Y44386D01*
G37*
%LPD*%
%LPC*%
G36*
X188732Y181609D02*
X188732Y181609D01*
X185464Y182963D01*
X182963Y185464D01*
X181609Y188732D01*
X181609Y192268D01*
X182963Y195536D01*
X185464Y198037D01*
X188732Y199391D01*
X192268Y199391D01*
X195536Y198037D01*
X198037Y195536D01*
X199391Y192268D01*
X199391Y188732D01*
X198037Y185464D01*
X195536Y182963D01*
X192268Y181609D01*
X188732Y181609D01*
G37*
%LPD*%
%LPC*%
G36*
X214132Y80009D02*
X214132Y80009D01*
X210864Y81363D01*
X208363Y83864D01*
X207009Y87132D01*
X207009Y90668D01*
X208363Y93936D01*
X210864Y96437D01*
X214132Y97791D01*
X217668Y97791D01*
X220936Y96437D01*
X223437Y93936D01*
X224791Y90668D01*
X224791Y87132D01*
X223437Y83864D01*
X220936Y81363D01*
X217668Y80009D01*
X214132Y80009D01*
G37*
%LPD*%
%LPC*%
G36*
X188732Y80009D02*
X188732Y80009D01*
X185464Y81363D01*
X182963Y83864D01*
X181609Y87132D01*
X181609Y90668D01*
X182963Y93936D01*
X185464Y96437D01*
X188732Y97791D01*
X192268Y97791D01*
X195536Y96437D01*
X198037Y93936D01*
X199391Y90668D01*
X199391Y87132D01*
X198037Y83864D01*
X195536Y81363D01*
X192268Y80009D01*
X188732Y80009D01*
G37*
%LPD*%
%LPC*%
G36*
X214132Y181609D02*
X214132Y181609D01*
X210864Y182963D01*
X208363Y185464D01*
X207009Y188732D01*
X207009Y192268D01*
X208363Y195536D01*
X210864Y198037D01*
X214132Y199391D01*
X217668Y199391D01*
X220936Y198037D01*
X223437Y195536D01*
X224791Y192268D01*
X224791Y188732D01*
X223437Y185464D01*
X220936Y182963D01*
X217668Y181609D01*
X214132Y181609D01*
G37*
%LPD*%
%LPC*%
G36*
X188732Y130809D02*
X188732Y130809D01*
X185464Y132163D01*
X182963Y134664D01*
X181609Y137932D01*
X181609Y141468D01*
X182963Y144736D01*
X185464Y147237D01*
X188732Y148591D01*
X192268Y148591D01*
X195536Y147237D01*
X198037Y144736D01*
X199391Y141468D01*
X199391Y137932D01*
X198037Y134664D01*
X195536Y132163D01*
X192268Y130809D01*
X188732Y130809D01*
G37*
%LPD*%
%LPC*%
G36*
X214132Y232409D02*
X214132Y232409D01*
X210864Y233763D01*
X208363Y236264D01*
X207009Y239532D01*
X207009Y243068D01*
X208363Y246336D01*
X210864Y248837D01*
X214132Y250191D01*
X217668Y250191D01*
X220936Y248837D01*
X223437Y246336D01*
X224791Y243068D01*
X224791Y239532D01*
X223437Y236264D01*
X220936Y233763D01*
X217668Y232409D01*
X214132Y232409D01*
G37*
%LPD*%
%LPC*%
G36*
X188732Y156209D02*
X188732Y156209D01*
X185464Y157563D01*
X182963Y160064D01*
X181609Y163332D01*
X181609Y166868D01*
X182963Y170136D01*
X185464Y172637D01*
X188732Y173991D01*
X192268Y173991D01*
X195536Y172637D01*
X198037Y170136D01*
X199391Y166868D01*
X199391Y163332D01*
X198037Y160064D01*
X195536Y157563D01*
X192268Y156209D01*
X188732Y156209D01*
G37*
%LPD*%
%LPC*%
G36*
X214132Y156209D02*
X214132Y156209D01*
X210864Y157563D01*
X208363Y160064D01*
X207009Y163332D01*
X207009Y166868D01*
X208363Y170136D01*
X210864Y172637D01*
X214132Y173991D01*
X217668Y173991D01*
X220936Y172637D01*
X223437Y170136D01*
X224791Y166868D01*
X224791Y163332D01*
X223437Y160064D01*
X220936Y157563D01*
X217668Y156209D01*
X214132Y156209D01*
G37*
%LPD*%
%LPC*%
G36*
X188732Y207009D02*
X188732Y207009D01*
X185464Y208363D01*
X182963Y210864D01*
X181609Y214132D01*
X181609Y217668D01*
X182963Y220936D01*
X185464Y223437D01*
X188732Y224791D01*
X192268Y224791D01*
X195536Y223437D01*
X198037Y220936D01*
X199391Y217668D01*
X199391Y214132D01*
X198037Y210864D01*
X195536Y208363D01*
X192268Y207009D01*
X188732Y207009D01*
G37*
%LPD*%
%LPC*%
G36*
X395107Y29209D02*
X395107Y29209D01*
X391839Y30563D01*
X389338Y33064D01*
X387984Y36332D01*
X387984Y39868D01*
X389338Y43136D01*
X391839Y45637D01*
X395107Y46991D01*
X398643Y46991D01*
X401911Y45637D01*
X404412Y43136D01*
X405766Y39868D01*
X405766Y36332D01*
X404412Y33064D01*
X401911Y30563D01*
X398643Y29209D01*
X395107Y29209D01*
G37*
%LPD*%
%LPC*%
G36*
X369707Y29209D02*
X369707Y29209D01*
X366439Y30563D01*
X363938Y33064D01*
X362584Y36332D01*
X362584Y39868D01*
X363938Y43136D01*
X366439Y45637D01*
X369707Y46991D01*
X373243Y46991D01*
X376511Y45637D01*
X379012Y43136D01*
X380366Y39868D01*
X380366Y36332D01*
X379012Y33064D01*
X376511Y30563D01*
X373243Y29209D01*
X369707Y29209D01*
G37*
%LPD*%
%LPC*%
G36*
X420507Y29209D02*
X420507Y29209D01*
X417239Y30563D01*
X414738Y33064D01*
X413384Y36332D01*
X413384Y39868D01*
X414738Y43136D01*
X417239Y45637D01*
X420507Y46991D01*
X424043Y46991D01*
X427311Y45637D01*
X429812Y43136D01*
X431166Y39868D01*
X431166Y36332D01*
X429812Y33064D01*
X427311Y30563D01*
X424043Y29209D01*
X420507Y29209D01*
G37*
%LPD*%
%LPC*%
G36*
X102776Y352361D02*
X102776Y352361D01*
X99948Y355188D01*
X99948Y359187D01*
X100406Y359645D01*
X100441Y359691D01*
X100484Y359732D01*
X100526Y359804D01*
X100577Y359872D01*
X100598Y359926D01*
X100627Y359977D01*
X100648Y360058D01*
X100678Y360137D01*
X100683Y360196D01*
X100697Y360252D01*
X100695Y360337D01*
X100702Y360421D01*
X100690Y360478D01*
X100688Y360537D01*
X100662Y360617D01*
X100646Y360699D01*
X100619Y360751D01*
X100601Y360807D01*
X100561Y360863D01*
X100515Y360952D01*
X100446Y361024D01*
X100406Y361080D01*
X99948Y361538D01*
X99948Y365537D01*
X100406Y365995D01*
X100441Y366041D01*
X100484Y366082D01*
X100526Y366155D01*
X100577Y366222D01*
X100598Y366276D01*
X100627Y366327D01*
X100648Y366409D01*
X100678Y366487D01*
X100683Y366546D01*
X100697Y366602D01*
X100695Y366687D01*
X100702Y366771D01*
X100690Y366828D01*
X100688Y366887D01*
X100662Y366967D01*
X100646Y367050D01*
X100619Y367101D01*
X100601Y367157D01*
X100561Y367213D01*
X100515Y367302D01*
X100446Y367374D01*
X100406Y367430D01*
X99948Y367888D01*
X99948Y371887D01*
X102776Y374714D01*
X106774Y374714D01*
X109602Y371887D01*
X109602Y367888D01*
X109144Y367430D01*
X109109Y367384D01*
X109066Y367343D01*
X109024Y367271D01*
X108973Y367203D01*
X108952Y367149D01*
X108923Y367098D01*
X108902Y367017D01*
X108872Y366938D01*
X108867Y366879D01*
X108853Y366823D01*
X108855Y366738D01*
X108848Y366654D01*
X108860Y366597D01*
X108862Y366538D01*
X108888Y366458D01*
X108904Y366376D01*
X108931Y366324D01*
X108949Y366268D01*
X108989Y366212D01*
X109035Y366123D01*
X109104Y366051D01*
X109144Y365995D01*
X109602Y365537D01*
X109602Y361538D01*
X109144Y361080D01*
X109109Y361034D01*
X109066Y360993D01*
X109024Y360920D01*
X108973Y360853D01*
X108952Y360799D01*
X108923Y360748D01*
X108902Y360666D01*
X108872Y360588D01*
X108867Y360529D01*
X108853Y360473D01*
X108855Y360388D01*
X108848Y360304D01*
X108860Y360247D01*
X108862Y360188D01*
X108888Y360108D01*
X108904Y360025D01*
X108931Y359974D01*
X108949Y359918D01*
X108989Y359862D01*
X109035Y359773D01*
X109104Y359701D01*
X109144Y359645D01*
X109602Y359187D01*
X109602Y355188D01*
X106774Y352361D01*
X102776Y352361D01*
G37*
%LPD*%
%LPC*%
G36*
X198026Y296798D02*
X198026Y296798D01*
X195198Y299626D01*
X195198Y303624D01*
X195656Y304082D01*
X195691Y304129D01*
X195734Y304169D01*
X195776Y304242D01*
X195827Y304309D01*
X195848Y304364D01*
X195877Y304414D01*
X195898Y304496D01*
X195928Y304575D01*
X195933Y304633D01*
X195947Y304690D01*
X195945Y304774D01*
X195952Y304858D01*
X195940Y304916D01*
X195938Y304974D01*
X195912Y305054D01*
X195896Y305137D01*
X195869Y305189D01*
X195851Y305245D01*
X195811Y305301D01*
X195765Y305389D01*
X195696Y305462D01*
X195656Y305518D01*
X195198Y305976D01*
X195198Y309974D01*
X195656Y310432D01*
X195691Y310479D01*
X195734Y310519D01*
X195776Y310592D01*
X195827Y310659D01*
X195848Y310714D01*
X195877Y310764D01*
X195898Y310846D01*
X195928Y310925D01*
X195933Y310983D01*
X195947Y311040D01*
X195945Y311124D01*
X195952Y311208D01*
X195940Y311266D01*
X195938Y311324D01*
X195912Y311404D01*
X195896Y311487D01*
X195869Y311539D01*
X195851Y311595D01*
X195811Y311651D01*
X195765Y311739D01*
X195696Y311812D01*
X195656Y311868D01*
X195198Y312326D01*
X195198Y316324D01*
X198026Y319152D01*
X202024Y319152D01*
X204852Y316324D01*
X204852Y312326D01*
X204394Y311868D01*
X204359Y311821D01*
X204316Y311781D01*
X204274Y311708D01*
X204223Y311641D01*
X204202Y311586D01*
X204173Y311536D01*
X204152Y311454D01*
X204122Y311375D01*
X204117Y311317D01*
X204103Y311260D01*
X204105Y311176D01*
X204098Y311092D01*
X204110Y311034D01*
X204112Y310976D01*
X204138Y310896D01*
X204154Y310813D01*
X204181Y310761D01*
X204199Y310705D01*
X204239Y310649D01*
X204285Y310561D01*
X204354Y310488D01*
X204394Y310432D01*
X204852Y309974D01*
X204852Y305976D01*
X204394Y305518D01*
X204359Y305471D01*
X204316Y305431D01*
X204274Y305358D01*
X204223Y305291D01*
X204202Y305236D01*
X204173Y305186D01*
X204152Y305104D01*
X204122Y305025D01*
X204117Y304967D01*
X204103Y304910D01*
X204105Y304826D01*
X204098Y304742D01*
X204110Y304684D01*
X204112Y304626D01*
X204138Y304546D01*
X204154Y304463D01*
X204181Y304411D01*
X204199Y304355D01*
X204239Y304299D01*
X204285Y304211D01*
X204354Y304138D01*
X204394Y304082D01*
X204852Y303624D01*
X204852Y299626D01*
X202024Y296798D01*
X198026Y296798D01*
G37*
%LPD*%
%LPC*%
G36*
X71026Y352361D02*
X71026Y352361D01*
X68198Y355188D01*
X68198Y359187D01*
X68656Y359645D01*
X68691Y359691D01*
X68734Y359732D01*
X68776Y359804D01*
X68827Y359872D01*
X68848Y359926D01*
X68877Y359977D01*
X68898Y360058D01*
X68928Y360137D01*
X68933Y360196D01*
X68947Y360252D01*
X68945Y360337D01*
X68952Y360421D01*
X68940Y360478D01*
X68938Y360537D01*
X68912Y360617D01*
X68896Y360699D01*
X68869Y360751D01*
X68851Y360807D01*
X68811Y360863D01*
X68765Y360952D01*
X68696Y361024D01*
X68656Y361080D01*
X68198Y361538D01*
X68198Y365537D01*
X68656Y365995D01*
X68691Y366041D01*
X68734Y366082D01*
X68776Y366155D01*
X68827Y366222D01*
X68848Y366276D01*
X68877Y366327D01*
X68898Y366409D01*
X68928Y366487D01*
X68933Y366546D01*
X68947Y366602D01*
X68945Y366687D01*
X68952Y366771D01*
X68940Y366828D01*
X68938Y366887D01*
X68912Y366967D01*
X68896Y367050D01*
X68869Y367101D01*
X68851Y367157D01*
X68811Y367213D01*
X68765Y367302D01*
X68696Y367374D01*
X68656Y367430D01*
X68198Y367888D01*
X68198Y371887D01*
X71026Y374714D01*
X75024Y374714D01*
X77852Y371887D01*
X77852Y367888D01*
X77394Y367430D01*
X77359Y367384D01*
X77316Y367343D01*
X77274Y367271D01*
X77223Y367203D01*
X77202Y367149D01*
X77173Y367098D01*
X77152Y367017D01*
X77122Y366938D01*
X77117Y366879D01*
X77103Y366823D01*
X77105Y366738D01*
X77098Y366654D01*
X77110Y366597D01*
X77112Y366538D01*
X77138Y366458D01*
X77154Y366376D01*
X77181Y366324D01*
X77199Y366268D01*
X77239Y366212D01*
X77285Y366123D01*
X77354Y366051D01*
X77394Y365995D01*
X77852Y365537D01*
X77852Y361538D01*
X77394Y361080D01*
X77359Y361034D01*
X77316Y360993D01*
X77274Y360920D01*
X77223Y360853D01*
X77202Y360799D01*
X77173Y360748D01*
X77152Y360666D01*
X77122Y360588D01*
X77117Y360529D01*
X77103Y360473D01*
X77105Y360388D01*
X77098Y360304D01*
X77110Y360247D01*
X77112Y360188D01*
X77138Y360108D01*
X77154Y360025D01*
X77181Y359974D01*
X77199Y359918D01*
X77239Y359862D01*
X77285Y359773D01*
X77354Y359701D01*
X77394Y359645D01*
X77852Y359187D01*
X77852Y355188D01*
X75024Y352361D01*
X71026Y352361D01*
G37*
%LPD*%
%LPC*%
G36*
X348838Y17398D02*
X348838Y17398D01*
X346011Y20226D01*
X346011Y24224D01*
X348850Y27063D01*
X348885Y27110D01*
X348927Y27150D01*
X348970Y27223D01*
X349021Y27291D01*
X349042Y27345D01*
X349071Y27396D01*
X349092Y27477D01*
X349122Y27556D01*
X349127Y27615D01*
X349141Y27671D01*
X349139Y27755D01*
X349146Y27839D01*
X349134Y27897D01*
X349132Y27955D01*
X349106Y28036D01*
X349090Y28118D01*
X349063Y28170D01*
X349045Y28226D01*
X349005Y28282D01*
X348959Y28371D01*
X348890Y28443D01*
X348850Y28499D01*
X346011Y31338D01*
X346011Y35337D01*
X348838Y38164D01*
X352837Y38164D01*
X355664Y35337D01*
X355664Y31338D01*
X352825Y28499D01*
X352790Y28452D01*
X352748Y28412D01*
X352705Y28339D01*
X352654Y28272D01*
X352633Y28217D01*
X352604Y28167D01*
X352583Y28085D01*
X352553Y28006D01*
X352548Y27948D01*
X352534Y27891D01*
X352536Y27807D01*
X352529Y27723D01*
X352541Y27666D01*
X352543Y27607D01*
X352569Y27527D01*
X352585Y27444D01*
X352612Y27392D01*
X352630Y27337D01*
X352670Y27280D01*
X352716Y27192D01*
X352785Y27120D01*
X352825Y27063D01*
X355664Y24224D01*
X355664Y20226D01*
X352837Y17398D01*
X348838Y17398D01*
G37*
%LPD*%
%LPC*%
G36*
X145638Y236473D02*
X145638Y236473D01*
X142811Y239301D01*
X142811Y243299D01*
X145650Y246138D01*
X145661Y246153D01*
X145669Y246160D01*
X145687Y246187D01*
X145727Y246225D01*
X145770Y246298D01*
X145821Y246366D01*
X145842Y246420D01*
X145871Y246471D01*
X145892Y246552D01*
X145922Y246631D01*
X145927Y246690D01*
X145941Y246746D01*
X145939Y246830D01*
X145946Y246914D01*
X145934Y246972D01*
X145932Y247030D01*
X145906Y247111D01*
X145890Y247193D01*
X145863Y247245D01*
X145845Y247301D01*
X145805Y247357D01*
X145759Y247446D01*
X145690Y247518D01*
X145650Y247574D01*
X142811Y250413D01*
X142811Y254412D01*
X145638Y257239D01*
X149637Y257239D01*
X152464Y254412D01*
X152464Y250413D01*
X149625Y247574D01*
X149590Y247527D01*
X149548Y247487D01*
X149505Y247414D01*
X149454Y247347D01*
X149433Y247292D01*
X149404Y247242D01*
X149383Y247160D01*
X149353Y247081D01*
X149348Y247023D01*
X149334Y246966D01*
X149336Y246882D01*
X149329Y246798D01*
X149341Y246741D01*
X149343Y246682D01*
X149369Y246602D01*
X149385Y246519D01*
X149412Y246467D01*
X149430Y246412D01*
X149470Y246355D01*
X149516Y246267D01*
X149559Y246222D01*
X149572Y246200D01*
X149600Y246174D01*
X149625Y246138D01*
X152464Y243299D01*
X152464Y239301D01*
X149637Y236473D01*
X145638Y236473D01*
G37*
%LPD*%
%LPC*%
G36*
X209138Y60261D02*
X209138Y60261D01*
X206311Y63088D01*
X206311Y67087D01*
X209138Y69914D01*
X213137Y69914D01*
X214103Y68948D01*
X214126Y68931D01*
X214145Y68908D01*
X214239Y68846D01*
X214330Y68777D01*
X214357Y68767D01*
X214382Y68751D01*
X214490Y68717D01*
X214595Y68676D01*
X214625Y68674D01*
X214653Y68665D01*
X214766Y68662D01*
X214879Y68653D01*
X214907Y68658D01*
X214937Y68658D01*
X215046Y68686D01*
X215158Y68709D01*
X215184Y68722D01*
X215212Y68730D01*
X215309Y68787D01*
X215410Y68840D01*
X215431Y68860D01*
X215456Y68875D01*
X215534Y68957D01*
X215616Y69035D01*
X215631Y69061D01*
X215651Y69082D01*
X215702Y69183D01*
X215760Y69281D01*
X215767Y69309D01*
X215780Y69335D01*
X215793Y69413D01*
X215830Y69556D01*
X215828Y69619D01*
X215836Y69666D01*
X215836Y71849D01*
X218663Y74677D01*
X222662Y74677D01*
X225489Y71849D01*
X225489Y67851D01*
X222662Y65023D01*
X218663Y65023D01*
X217697Y65989D01*
X217674Y66007D01*
X217655Y66029D01*
X217561Y66092D01*
X217470Y66160D01*
X217443Y66170D01*
X217418Y66187D01*
X217310Y66221D01*
X217205Y66261D01*
X217175Y66264D01*
X217147Y66273D01*
X217034Y66275D01*
X216921Y66285D01*
X216893Y66279D01*
X216863Y66280D01*
X216754Y66251D01*
X216642Y66229D01*
X216616Y66215D01*
X216588Y66208D01*
X216491Y66150D01*
X216390Y66098D01*
X216369Y66078D01*
X216344Y66063D01*
X216266Y65980D01*
X216184Y65902D01*
X216169Y65877D01*
X216149Y65855D01*
X216098Y65755D01*
X216040Y65657D01*
X216033Y65628D01*
X216020Y65602D01*
X216007Y65525D01*
X215970Y65381D01*
X215972Y65319D01*
X215964Y65271D01*
X215964Y63088D01*
X213137Y60261D01*
X209138Y60261D01*
G37*
%LPD*%
%LPC*%
G36*
X101188Y93598D02*
X101188Y93598D01*
X98361Y96426D01*
X98361Y100424D01*
X101188Y103252D01*
X105187Y103252D01*
X106153Y102286D01*
X106176Y102268D01*
X106195Y102246D01*
X106289Y102183D01*
X106380Y102115D01*
X106407Y102105D01*
X106432Y102088D01*
X106540Y102054D01*
X106645Y102014D01*
X106675Y102011D01*
X106703Y102002D01*
X106816Y102000D01*
X106929Y101990D01*
X106957Y101996D01*
X106987Y101995D01*
X107096Y102024D01*
X107208Y102046D01*
X107234Y102060D01*
X107262Y102067D01*
X107359Y102125D01*
X107460Y102177D01*
X107481Y102197D01*
X107506Y102212D01*
X107584Y102295D01*
X107666Y102373D01*
X107681Y102398D01*
X107701Y102420D01*
X107752Y102520D01*
X107810Y102618D01*
X107817Y102647D01*
X107830Y102673D01*
X107843Y102750D01*
X107880Y102894D01*
X107878Y102956D01*
X107886Y103004D01*
X107886Y103599D01*
X110713Y106427D01*
X114712Y106427D01*
X117539Y103599D01*
X117539Y99601D01*
X114712Y96773D01*
X110713Y96773D01*
X109747Y97739D01*
X109724Y97757D01*
X109705Y97779D01*
X109611Y97842D01*
X109520Y97910D01*
X109493Y97920D01*
X109468Y97937D01*
X109360Y97971D01*
X109255Y98011D01*
X109225Y98014D01*
X109197Y98023D01*
X109084Y98025D01*
X108971Y98035D01*
X108943Y98029D01*
X108913Y98030D01*
X108804Y98001D01*
X108692Y97979D01*
X108666Y97965D01*
X108638Y97958D01*
X108541Y97900D01*
X108440Y97848D01*
X108419Y97828D01*
X108394Y97813D01*
X108316Y97730D01*
X108234Y97652D01*
X108219Y97627D01*
X108199Y97605D01*
X108148Y97505D01*
X108090Y97407D01*
X108083Y97378D01*
X108070Y97352D01*
X108057Y97275D01*
X108020Y97131D01*
X108022Y97069D01*
X108014Y97021D01*
X108014Y96426D01*
X105187Y93598D01*
X101188Y93598D01*
G37*
%LPD*%
%LPC*%
G36*
X272638Y244411D02*
X272638Y244411D01*
X269799Y247250D01*
X269752Y247285D01*
X269712Y247327D01*
X269639Y247370D01*
X269572Y247421D01*
X269517Y247442D01*
X269467Y247471D01*
X269385Y247492D01*
X269306Y247522D01*
X269248Y247527D01*
X269191Y247541D01*
X269107Y247539D01*
X269023Y247546D01*
X268966Y247534D01*
X268907Y247532D01*
X268827Y247506D01*
X268744Y247490D01*
X268692Y247463D01*
X268637Y247445D01*
X268580Y247405D01*
X268492Y247359D01*
X268420Y247290D01*
X268363Y247250D01*
X267112Y245998D01*
X263113Y245998D01*
X260286Y248826D01*
X260286Y252824D01*
X263113Y255652D01*
X267112Y255652D01*
X269951Y252813D01*
X269998Y252778D01*
X270038Y252735D01*
X270111Y252692D01*
X270178Y252642D01*
X270233Y252621D01*
X270283Y252591D01*
X270365Y252571D01*
X270444Y252541D01*
X270502Y252536D01*
X270559Y252521D01*
X270643Y252524D01*
X270727Y252517D01*
X270784Y252528D01*
X270843Y252530D01*
X270923Y252556D01*
X271006Y252573D01*
X271058Y252600D01*
X271113Y252618D01*
X271169Y252658D01*
X271258Y252704D01*
X271330Y252773D01*
X271387Y252813D01*
X272638Y254064D01*
X276637Y254064D01*
X279464Y251237D01*
X279464Y247238D01*
X276637Y244411D01*
X272638Y244411D01*
G37*
%LPD*%
%LPC*%
G36*
X326613Y71373D02*
X326613Y71373D01*
X323786Y74201D01*
X323786Y78199D01*
X326613Y81027D01*
X330612Y81027D01*
X332657Y78981D01*
X332704Y78946D01*
X332744Y78904D01*
X332817Y78861D01*
X332884Y78811D01*
X332939Y78790D01*
X332989Y78760D01*
X333071Y78739D01*
X333150Y78709D01*
X333208Y78704D01*
X333265Y78690D01*
X333349Y78693D01*
X333433Y78686D01*
X333491Y78697D01*
X333549Y78699D01*
X333629Y78725D01*
X333712Y78742D01*
X333764Y78769D01*
X333820Y78787D01*
X333876Y78827D01*
X333964Y78873D01*
X334037Y78941D01*
X334093Y78981D01*
X336138Y81027D01*
X340137Y81027D01*
X342964Y78199D01*
X342964Y74201D01*
X340137Y71373D01*
X336138Y71373D01*
X334093Y73419D01*
X334046Y73454D01*
X334006Y73496D01*
X333933Y73539D01*
X333866Y73589D01*
X333811Y73610D01*
X333761Y73640D01*
X333679Y73661D01*
X333600Y73691D01*
X333542Y73696D01*
X333485Y73710D01*
X333401Y73707D01*
X333317Y73714D01*
X333259Y73703D01*
X333201Y73701D01*
X333121Y73675D01*
X333038Y73658D01*
X332986Y73631D01*
X332930Y73613D01*
X332874Y73573D01*
X332786Y73527D01*
X332713Y73459D01*
X332657Y73419D01*
X330612Y71373D01*
X326613Y71373D01*
G37*
%LPD*%
%LPC*%
G36*
X101188Y153923D02*
X101188Y153923D01*
X98361Y156751D01*
X98361Y160749D01*
X101188Y163577D01*
X105187Y163577D01*
X107232Y161531D01*
X107279Y161496D01*
X107319Y161454D01*
X107392Y161411D01*
X107459Y161361D01*
X107514Y161340D01*
X107564Y161310D01*
X107646Y161289D01*
X107725Y161259D01*
X107783Y161254D01*
X107840Y161240D01*
X107924Y161243D01*
X108008Y161236D01*
X108066Y161247D01*
X108124Y161249D01*
X108204Y161275D01*
X108287Y161292D01*
X108339Y161319D01*
X108395Y161337D01*
X108451Y161377D01*
X108539Y161423D01*
X108612Y161491D01*
X108668Y161531D01*
X110713Y163577D01*
X114712Y163577D01*
X117539Y160749D01*
X117539Y156751D01*
X114712Y153923D01*
X110713Y153923D01*
X108668Y155969D01*
X108621Y156004D01*
X108581Y156046D01*
X108508Y156089D01*
X108441Y156139D01*
X108386Y156160D01*
X108336Y156190D01*
X108254Y156211D01*
X108175Y156241D01*
X108117Y156246D01*
X108060Y156260D01*
X107976Y156257D01*
X107892Y156264D01*
X107834Y156253D01*
X107776Y156251D01*
X107696Y156225D01*
X107613Y156208D01*
X107561Y156181D01*
X107505Y156163D01*
X107449Y156123D01*
X107361Y156077D01*
X107288Y156009D01*
X107232Y155969D01*
X105187Y153923D01*
X101188Y153923D01*
G37*
%LPD*%
%LPC*%
G36*
X255176Y317436D02*
X255176Y317436D01*
X252348Y320263D01*
X252348Y324262D01*
X255176Y327089D01*
X259174Y327089D01*
X261220Y325044D01*
X261266Y325009D01*
X261307Y324966D01*
X261379Y324924D01*
X261447Y324873D01*
X261501Y324852D01*
X261552Y324823D01*
X261634Y324802D01*
X261712Y324772D01*
X261771Y324767D01*
X261827Y324753D01*
X261912Y324755D01*
X261996Y324748D01*
X262053Y324760D01*
X262112Y324762D01*
X262192Y324788D01*
X262274Y324804D01*
X262326Y324831D01*
X262382Y324849D01*
X262438Y324889D01*
X262527Y324935D01*
X262599Y325004D01*
X262655Y325044D01*
X264701Y327089D01*
X268699Y327089D01*
X271527Y324262D01*
X271527Y320263D01*
X268699Y317436D01*
X264701Y317436D01*
X262655Y319481D01*
X262609Y319516D01*
X262568Y319559D01*
X262496Y319601D01*
X262428Y319652D01*
X262374Y319673D01*
X262323Y319702D01*
X262241Y319723D01*
X262163Y319753D01*
X262104Y319758D01*
X262048Y319772D01*
X261963Y319770D01*
X261879Y319777D01*
X261822Y319765D01*
X261763Y319763D01*
X261683Y319737D01*
X261600Y319721D01*
X261549Y319694D01*
X261493Y319676D01*
X261437Y319636D01*
X261348Y319590D01*
X261276Y319521D01*
X261220Y319481D01*
X259174Y317436D01*
X255176Y317436D01*
G37*
%LPD*%
%LPC*%
G36*
X312326Y169798D02*
X312326Y169798D01*
X309498Y172626D01*
X309498Y175133D01*
X309490Y175191D01*
X309492Y175249D01*
X309470Y175331D01*
X309458Y175415D01*
X309435Y175468D01*
X309420Y175524D01*
X309377Y175597D01*
X309342Y175674D01*
X309304Y175719D01*
X309275Y175769D01*
X309213Y175827D01*
X309159Y175891D01*
X309110Y175923D01*
X309067Y175963D01*
X308992Y176002D01*
X308922Y176049D01*
X308866Y176066D01*
X308814Y176093D01*
X308746Y176104D01*
X308651Y176134D01*
X308551Y176137D01*
X308483Y176148D01*
X305976Y176148D01*
X303148Y178976D01*
X303148Y182974D01*
X305976Y185802D01*
X309974Y185802D01*
X312802Y182974D01*
X312802Y180467D01*
X312810Y180409D01*
X312808Y180351D01*
X312830Y180269D01*
X312842Y180185D01*
X312865Y180132D01*
X312880Y180076D01*
X312923Y180003D01*
X312958Y179926D01*
X312996Y179881D01*
X313025Y179831D01*
X313087Y179773D01*
X313141Y179709D01*
X313190Y179677D01*
X313233Y179637D01*
X313308Y179598D01*
X313378Y179551D01*
X313434Y179534D01*
X313486Y179507D01*
X313554Y179496D01*
X313649Y179466D01*
X313749Y179463D01*
X313817Y179452D01*
X316324Y179452D01*
X319152Y176624D01*
X319152Y172626D01*
X316324Y169798D01*
X312326Y169798D01*
G37*
%LPD*%
%LPC*%
G36*
X421863Y458723D02*
X421863Y458723D01*
X419036Y461551D01*
X419036Y465549D01*
X421863Y468377D01*
X425862Y468377D01*
X426320Y467919D01*
X426366Y467884D01*
X426407Y467841D01*
X426479Y467799D01*
X426547Y467748D01*
X426601Y467727D01*
X426652Y467698D01*
X426733Y467677D01*
X426812Y467647D01*
X426871Y467642D01*
X426927Y467628D01*
X427012Y467630D01*
X427096Y467623D01*
X427153Y467635D01*
X427212Y467637D01*
X427292Y467663D01*
X427374Y467679D01*
X427426Y467706D01*
X427482Y467724D01*
X427538Y467764D01*
X427627Y467810D01*
X427699Y467879D01*
X427755Y467919D01*
X428213Y468377D01*
X432212Y468377D01*
X435039Y465549D01*
X435039Y461551D01*
X432212Y458723D01*
X428213Y458723D01*
X427755Y459181D01*
X427709Y459216D01*
X427668Y459259D01*
X427595Y459301D01*
X427528Y459352D01*
X427474Y459373D01*
X427423Y459402D01*
X427341Y459423D01*
X427263Y459453D01*
X427204Y459458D01*
X427148Y459472D01*
X427063Y459470D01*
X426979Y459477D01*
X426922Y459465D01*
X426863Y459463D01*
X426783Y459437D01*
X426700Y459421D01*
X426649Y459394D01*
X426593Y459376D01*
X426537Y459336D01*
X426448Y459290D01*
X426376Y459221D01*
X426320Y459181D01*
X425862Y458723D01*
X421863Y458723D01*
G37*
%LPD*%
%LPC*%
G36*
X112301Y26923D02*
X112301Y26923D01*
X109473Y29751D01*
X109473Y33749D01*
X112301Y36577D01*
X116299Y36577D01*
X116757Y36119D01*
X116804Y36084D01*
X116844Y36041D01*
X116917Y35999D01*
X116984Y35948D01*
X117039Y35927D01*
X117089Y35898D01*
X117171Y35877D01*
X117250Y35847D01*
X117308Y35842D01*
X117365Y35828D01*
X117449Y35830D01*
X117533Y35823D01*
X117591Y35835D01*
X117649Y35837D01*
X117729Y35863D01*
X117812Y35879D01*
X117864Y35906D01*
X117920Y35924D01*
X117976Y35964D01*
X118064Y36010D01*
X118137Y36079D01*
X118193Y36119D01*
X118651Y36577D01*
X122649Y36577D01*
X125477Y33749D01*
X125477Y29751D01*
X122649Y26923D01*
X118651Y26923D01*
X118193Y27381D01*
X118146Y27416D01*
X118106Y27459D01*
X118033Y27501D01*
X117966Y27552D01*
X117911Y27573D01*
X117861Y27602D01*
X117779Y27623D01*
X117700Y27653D01*
X117642Y27658D01*
X117585Y27672D01*
X117501Y27670D01*
X117417Y27677D01*
X117359Y27665D01*
X117301Y27663D01*
X117221Y27637D01*
X117138Y27621D01*
X117086Y27594D01*
X117030Y27576D01*
X116974Y27536D01*
X116886Y27490D01*
X116813Y27421D01*
X116757Y27381D01*
X116299Y26923D01*
X112301Y26923D01*
G37*
%LPD*%
%LPC*%
G36*
X410751Y376173D02*
X410751Y376173D01*
X407923Y379001D01*
X407923Y382999D01*
X410751Y385827D01*
X414749Y385827D01*
X415207Y385369D01*
X415254Y385334D01*
X415294Y385291D01*
X415367Y385249D01*
X415434Y385198D01*
X415489Y385177D01*
X415539Y385148D01*
X415621Y385127D01*
X415700Y385097D01*
X415758Y385092D01*
X415815Y385078D01*
X415899Y385080D01*
X415983Y385073D01*
X416041Y385085D01*
X416099Y385087D01*
X416179Y385113D01*
X416262Y385129D01*
X416314Y385156D01*
X416370Y385174D01*
X416426Y385214D01*
X416514Y385260D01*
X416587Y385329D01*
X416643Y385369D01*
X417101Y385827D01*
X421099Y385827D01*
X423927Y382999D01*
X423927Y379001D01*
X421099Y376173D01*
X417101Y376173D01*
X416643Y376631D01*
X416596Y376666D01*
X416556Y376709D01*
X416483Y376751D01*
X416416Y376802D01*
X416361Y376823D01*
X416311Y376852D01*
X416229Y376873D01*
X416150Y376903D01*
X416092Y376908D01*
X416035Y376922D01*
X415951Y376920D01*
X415867Y376927D01*
X415809Y376915D01*
X415751Y376913D01*
X415671Y376887D01*
X415588Y376871D01*
X415536Y376844D01*
X415480Y376826D01*
X415424Y376786D01*
X415336Y376740D01*
X415263Y376671D01*
X415207Y376631D01*
X414749Y376173D01*
X410751Y376173D01*
G37*
%LPD*%
%LPC*%
G36*
X420276Y215836D02*
X420276Y215836D01*
X417448Y218663D01*
X417448Y222662D01*
X417906Y223120D01*
X417941Y223166D01*
X417984Y223207D01*
X418026Y223280D01*
X418077Y223347D01*
X418098Y223401D01*
X418127Y223452D01*
X418148Y223534D01*
X418178Y223612D01*
X418183Y223671D01*
X418197Y223727D01*
X418195Y223812D01*
X418202Y223896D01*
X418190Y223953D01*
X418188Y224012D01*
X418162Y224092D01*
X418146Y224175D01*
X418119Y224226D01*
X418101Y224282D01*
X418061Y224338D01*
X418015Y224427D01*
X417946Y224499D01*
X417906Y224555D01*
X417448Y225013D01*
X417448Y229012D01*
X420276Y231839D01*
X424274Y231839D01*
X427102Y229012D01*
X427102Y225013D01*
X426644Y224555D01*
X426609Y224509D01*
X426566Y224468D01*
X426524Y224396D01*
X426473Y224328D01*
X426452Y224274D01*
X426423Y224223D01*
X426402Y224142D01*
X426372Y224063D01*
X426367Y224004D01*
X426353Y223948D01*
X426355Y223863D01*
X426348Y223779D01*
X426360Y223722D01*
X426362Y223663D01*
X426388Y223583D01*
X426404Y223501D01*
X426431Y223449D01*
X426449Y223393D01*
X426489Y223337D01*
X426535Y223248D01*
X426604Y223176D01*
X426644Y223120D01*
X427102Y222662D01*
X427102Y218663D01*
X424274Y215836D01*
X420276Y215836D01*
G37*
%LPD*%
%LPC*%
G36*
X112301Y42798D02*
X112301Y42798D01*
X109473Y45626D01*
X109473Y49624D01*
X112301Y52452D01*
X116299Y52452D01*
X116757Y51994D01*
X116804Y51959D01*
X116844Y51916D01*
X116917Y51874D01*
X116984Y51823D01*
X117039Y51802D01*
X117089Y51773D01*
X117171Y51752D01*
X117250Y51722D01*
X117308Y51717D01*
X117365Y51703D01*
X117449Y51705D01*
X117533Y51698D01*
X117591Y51710D01*
X117649Y51712D01*
X117729Y51738D01*
X117812Y51754D01*
X117864Y51781D01*
X117920Y51799D01*
X117976Y51839D01*
X118064Y51885D01*
X118137Y51954D01*
X118193Y51994D01*
X118651Y52452D01*
X122649Y52452D01*
X125477Y49624D01*
X125477Y45626D01*
X122649Y42798D01*
X118651Y42798D01*
X118193Y43256D01*
X118146Y43291D01*
X118106Y43334D01*
X118033Y43376D01*
X117966Y43427D01*
X117911Y43448D01*
X117861Y43477D01*
X117779Y43498D01*
X117700Y43528D01*
X117642Y43533D01*
X117585Y43547D01*
X117501Y43545D01*
X117417Y43552D01*
X117359Y43540D01*
X117301Y43538D01*
X117221Y43512D01*
X117138Y43496D01*
X117086Y43469D01*
X117030Y43451D01*
X116974Y43411D01*
X116886Y43365D01*
X116813Y43296D01*
X116757Y43256D01*
X116299Y42798D01*
X112301Y42798D01*
G37*
%LPD*%
%LPC*%
G36*
X436151Y398398D02*
X436151Y398398D01*
X433323Y401226D01*
X433323Y405224D01*
X433781Y405682D01*
X433816Y405729D01*
X433859Y405769D01*
X433901Y405842D01*
X433952Y405909D01*
X433973Y405964D01*
X434002Y406014D01*
X434023Y406096D01*
X434053Y406175D01*
X434058Y406233D01*
X434072Y406290D01*
X434070Y406374D01*
X434077Y406458D01*
X434065Y406516D01*
X434063Y406574D01*
X434037Y406654D01*
X434021Y406737D01*
X433994Y406789D01*
X433976Y406845D01*
X433936Y406901D01*
X433890Y406989D01*
X433821Y407062D01*
X433781Y407118D01*
X433323Y407576D01*
X433323Y411574D01*
X436151Y414402D01*
X440149Y414402D01*
X442977Y411574D01*
X442977Y407576D01*
X442519Y407118D01*
X442484Y407071D01*
X442441Y407031D01*
X442399Y406958D01*
X442348Y406891D01*
X442327Y406836D01*
X442298Y406786D01*
X442277Y406704D01*
X442247Y406625D01*
X442242Y406567D01*
X442228Y406510D01*
X442230Y406426D01*
X442223Y406342D01*
X442235Y406284D01*
X442237Y406226D01*
X442263Y406146D01*
X442279Y406063D01*
X442306Y406011D01*
X442324Y405955D01*
X442364Y405899D01*
X442410Y405811D01*
X442479Y405738D01*
X442519Y405682D01*
X442977Y405224D01*
X442977Y401226D01*
X440149Y398398D01*
X436151Y398398D01*
G37*
%LPD*%
%LPC*%
G36*
X163101Y341248D02*
X163101Y341248D01*
X160273Y344076D01*
X160273Y348074D01*
X160731Y348532D01*
X160766Y348579D01*
X160809Y348619D01*
X160851Y348692D01*
X160902Y348759D01*
X160923Y348814D01*
X160952Y348864D01*
X160973Y348946D01*
X161003Y349025D01*
X161008Y349083D01*
X161022Y349140D01*
X161020Y349224D01*
X161027Y349308D01*
X161015Y349366D01*
X161013Y349424D01*
X160987Y349504D01*
X160971Y349587D01*
X160944Y349639D01*
X160926Y349695D01*
X160886Y349751D01*
X160840Y349839D01*
X160771Y349912D01*
X160731Y349968D01*
X160273Y350426D01*
X160273Y354424D01*
X163101Y357252D01*
X167099Y357252D01*
X169927Y354424D01*
X169927Y350426D01*
X169469Y349968D01*
X169434Y349921D01*
X169391Y349881D01*
X169349Y349808D01*
X169298Y349741D01*
X169277Y349686D01*
X169248Y349636D01*
X169227Y349554D01*
X169197Y349475D01*
X169192Y349417D01*
X169178Y349360D01*
X169180Y349276D01*
X169173Y349192D01*
X169185Y349134D01*
X169187Y349076D01*
X169213Y348996D01*
X169229Y348913D01*
X169256Y348861D01*
X169274Y348805D01*
X169314Y348749D01*
X169360Y348661D01*
X169429Y348588D01*
X169469Y348532D01*
X169927Y348074D01*
X169927Y344076D01*
X167099Y341248D01*
X163101Y341248D01*
G37*
%LPD*%
%LPC*%
G36*
X23401Y346011D02*
X23401Y346011D01*
X20573Y348838D01*
X20573Y352837D01*
X21031Y353295D01*
X21066Y353341D01*
X21109Y353382D01*
X21151Y353455D01*
X21202Y353522D01*
X21223Y353576D01*
X21252Y353627D01*
X21273Y353709D01*
X21303Y353787D01*
X21308Y353846D01*
X21322Y353902D01*
X21320Y353987D01*
X21327Y354071D01*
X21315Y354128D01*
X21313Y354187D01*
X21287Y354267D01*
X21271Y354350D01*
X21244Y354401D01*
X21226Y354457D01*
X21186Y354513D01*
X21140Y354602D01*
X21071Y354674D01*
X21031Y354730D01*
X20573Y355188D01*
X20573Y359187D01*
X23401Y362014D01*
X27399Y362014D01*
X30227Y359187D01*
X30227Y355188D01*
X29769Y354730D01*
X29734Y354684D01*
X29691Y354643D01*
X29649Y354571D01*
X29598Y354503D01*
X29577Y354449D01*
X29548Y354398D01*
X29527Y354317D01*
X29497Y354238D01*
X29492Y354179D01*
X29478Y354123D01*
X29480Y354038D01*
X29473Y353954D01*
X29485Y353897D01*
X29487Y353838D01*
X29513Y353758D01*
X29529Y353676D01*
X29556Y353624D01*
X29574Y353568D01*
X29614Y353512D01*
X29660Y353423D01*
X29729Y353351D01*
X29769Y353295D01*
X30227Y352837D01*
X30227Y348838D01*
X27399Y346011D01*
X23401Y346011D01*
G37*
%LPD*%
%LPC*%
G36*
X410751Y407923D02*
X410751Y407923D01*
X407923Y410751D01*
X407923Y414749D01*
X410751Y417577D01*
X414749Y417577D01*
X415207Y417119D01*
X415254Y417084D01*
X415294Y417041D01*
X415367Y416999D01*
X415434Y416948D01*
X415489Y416927D01*
X415539Y416898D01*
X415621Y416877D01*
X415700Y416847D01*
X415758Y416842D01*
X415815Y416828D01*
X415899Y416830D01*
X415983Y416823D01*
X416041Y416835D01*
X416099Y416837D01*
X416179Y416863D01*
X416262Y416879D01*
X416314Y416906D01*
X416370Y416924D01*
X416426Y416964D01*
X416514Y417010D01*
X416587Y417079D01*
X416643Y417119D01*
X417101Y417577D01*
X421099Y417577D01*
X423927Y414749D01*
X423927Y410751D01*
X421099Y407923D01*
X417101Y407923D01*
X416643Y408381D01*
X416596Y408416D01*
X416556Y408459D01*
X416483Y408501D01*
X416416Y408552D01*
X416361Y408573D01*
X416311Y408602D01*
X416229Y408623D01*
X416150Y408653D01*
X416092Y408658D01*
X416035Y408672D01*
X415951Y408670D01*
X415867Y408677D01*
X415809Y408665D01*
X415751Y408663D01*
X415671Y408637D01*
X415588Y408621D01*
X415536Y408594D01*
X415480Y408576D01*
X415424Y408536D01*
X415336Y408490D01*
X415263Y408421D01*
X415207Y408381D01*
X414749Y407923D01*
X410751Y407923D01*
G37*
%LPD*%
%LPC*%
G36*
X17051Y439673D02*
X17051Y439673D01*
X14223Y442501D01*
X14223Y446499D01*
X17051Y449327D01*
X21049Y449327D01*
X21507Y448869D01*
X21554Y448834D01*
X21594Y448791D01*
X21667Y448749D01*
X21734Y448698D01*
X21789Y448677D01*
X21839Y448648D01*
X21921Y448627D01*
X22000Y448597D01*
X22058Y448592D01*
X22115Y448578D01*
X22199Y448580D01*
X22283Y448573D01*
X22341Y448585D01*
X22399Y448587D01*
X22479Y448613D01*
X22562Y448629D01*
X22614Y448656D01*
X22670Y448674D01*
X22726Y448714D01*
X22814Y448760D01*
X22887Y448829D01*
X22943Y448869D01*
X23401Y449327D01*
X27399Y449327D01*
X30227Y446499D01*
X30227Y442501D01*
X27399Y439673D01*
X23401Y439673D01*
X22943Y440131D01*
X22896Y440166D01*
X22856Y440209D01*
X22783Y440251D01*
X22716Y440302D01*
X22661Y440323D01*
X22611Y440352D01*
X22529Y440373D01*
X22450Y440403D01*
X22392Y440408D01*
X22335Y440422D01*
X22251Y440420D01*
X22167Y440427D01*
X22109Y440415D01*
X22051Y440413D01*
X21971Y440387D01*
X21888Y440371D01*
X21836Y440344D01*
X21780Y440326D01*
X21724Y440286D01*
X21636Y440240D01*
X21563Y440171D01*
X21507Y440131D01*
X21049Y439673D01*
X17051Y439673D01*
G37*
%LPD*%
%LPC*%
G36*
X171038Y296798D02*
X171038Y296798D01*
X168211Y299626D01*
X168211Y303624D01*
X168669Y304082D01*
X168704Y304129D01*
X168746Y304169D01*
X168789Y304242D01*
X168839Y304309D01*
X168860Y304364D01*
X168890Y304414D01*
X168911Y304496D01*
X168941Y304575D01*
X168946Y304633D01*
X168960Y304690D01*
X168957Y304774D01*
X168964Y304858D01*
X168953Y304916D01*
X168951Y304974D01*
X168925Y305054D01*
X168908Y305137D01*
X168881Y305189D01*
X168863Y305245D01*
X168823Y305301D01*
X168777Y305389D01*
X168709Y305462D01*
X168669Y305518D01*
X168211Y305976D01*
X168211Y309974D01*
X171038Y312802D01*
X175037Y312802D01*
X177864Y309974D01*
X177864Y305976D01*
X177406Y305518D01*
X177371Y305471D01*
X177329Y305431D01*
X177286Y305358D01*
X177236Y305291D01*
X177215Y305236D01*
X177185Y305186D01*
X177164Y305104D01*
X177134Y305025D01*
X177129Y304967D01*
X177115Y304910D01*
X177118Y304826D01*
X177111Y304742D01*
X177122Y304684D01*
X177124Y304626D01*
X177150Y304546D01*
X177167Y304463D01*
X177194Y304411D01*
X177212Y304355D01*
X177252Y304299D01*
X177298Y304211D01*
X177366Y304138D01*
X177406Y304082D01*
X177864Y303624D01*
X177864Y299626D01*
X175037Y296798D01*
X171038Y296798D01*
G37*
%LPD*%
%LPC*%
G36*
X139288Y344423D02*
X139288Y344423D01*
X136461Y347251D01*
X136461Y351249D01*
X136919Y351707D01*
X136935Y351729D01*
X136955Y351746D01*
X136972Y351771D01*
X136996Y351794D01*
X137039Y351867D01*
X137089Y351934D01*
X137101Y351966D01*
X137113Y351983D01*
X137120Y352006D01*
X137140Y352039D01*
X137161Y352121D01*
X137191Y352200D01*
X137194Y352239D01*
X137199Y352254D01*
X137199Y352273D01*
X137210Y352315D01*
X137207Y352399D01*
X137214Y352483D01*
X137206Y352526D01*
X137206Y352538D01*
X137202Y352552D01*
X137201Y352599D01*
X137175Y352679D01*
X137158Y352762D01*
X137137Y352804D01*
X137134Y352813D01*
X137129Y352822D01*
X137113Y352870D01*
X137073Y352926D01*
X137027Y353014D01*
X136993Y353050D01*
X136989Y353058D01*
X136965Y353080D01*
X136959Y353087D01*
X136919Y353143D01*
X136461Y353601D01*
X136461Y357599D01*
X139288Y360427D01*
X143287Y360427D01*
X146114Y357599D01*
X146114Y353601D01*
X145656Y353143D01*
X145626Y353103D01*
X145620Y353097D01*
X145615Y353090D01*
X145579Y353056D01*
X145536Y352983D01*
X145486Y352916D01*
X145468Y352869D01*
X145462Y352861D01*
X145459Y352852D01*
X145435Y352811D01*
X145414Y352729D01*
X145384Y352650D01*
X145380Y352602D01*
X145376Y352590D01*
X145376Y352578D01*
X145365Y352535D01*
X145368Y352451D01*
X145361Y352367D01*
X145369Y352323D01*
X145369Y352305D01*
X145373Y352291D01*
X145374Y352251D01*
X145400Y352171D01*
X145417Y352088D01*
X145435Y352053D01*
X145441Y352030D01*
X145451Y352013D01*
X145462Y351980D01*
X145502Y351924D01*
X145548Y351836D01*
X145571Y351811D01*
X145586Y351786D01*
X145629Y351746D01*
X145656Y351707D01*
X146114Y351249D01*
X146114Y347251D01*
X143287Y344423D01*
X139288Y344423D01*
G37*
%LPD*%
%LPC*%
G36*
X372651Y257111D02*
X372651Y257111D01*
X369823Y259938D01*
X369823Y263937D01*
X370281Y264395D01*
X370298Y264417D01*
X370319Y264435D01*
X370335Y264459D01*
X370359Y264482D01*
X370401Y264555D01*
X370452Y264622D01*
X370463Y264652D01*
X370476Y264671D01*
X370484Y264696D01*
X370502Y264727D01*
X370523Y264809D01*
X370553Y264887D01*
X370556Y264923D01*
X370562Y264942D01*
X370563Y264964D01*
X370572Y265002D01*
X370570Y265087D01*
X370577Y265171D01*
X370569Y265209D01*
X370569Y265227D01*
X370565Y265245D01*
X370563Y265287D01*
X370537Y265367D01*
X370521Y265450D01*
X370502Y265487D01*
X370498Y265502D01*
X370489Y265516D01*
X370476Y265557D01*
X370436Y265613D01*
X370390Y265702D01*
X370360Y265733D01*
X370352Y265746D01*
X370319Y265778D01*
X370281Y265830D01*
X369823Y266288D01*
X369823Y270287D01*
X372651Y273114D01*
X376649Y273114D01*
X379477Y270287D01*
X379477Y266288D01*
X379019Y265830D01*
X378993Y265795D01*
X378981Y265786D01*
X378973Y265773D01*
X378941Y265743D01*
X378899Y265671D01*
X378848Y265603D01*
X378832Y265562D01*
X378824Y265549D01*
X378819Y265535D01*
X378798Y265498D01*
X378777Y265417D01*
X378747Y265338D01*
X378743Y265295D01*
X378738Y265278D01*
X378737Y265261D01*
X378728Y265223D01*
X378730Y265138D01*
X378723Y265054D01*
X378731Y265015D01*
X378731Y264994D01*
X378735Y264975D01*
X378737Y264938D01*
X378763Y264858D01*
X378779Y264776D01*
X378796Y264743D01*
X378802Y264719D01*
X378814Y264699D01*
X378824Y264668D01*
X378864Y264612D01*
X378910Y264523D01*
X378933Y264499D01*
X378948Y264474D01*
X378991Y264433D01*
X379019Y264395D01*
X379477Y263937D01*
X379477Y259938D01*
X376649Y257111D01*
X372651Y257111D01*
G37*
%LPD*%
%LPC*%
G36*
X278988Y6286D02*
X278988Y6286D01*
X276161Y9113D01*
X276161Y13112D01*
X278988Y15939D01*
X282987Y15939D01*
X285814Y13112D01*
X285814Y9113D01*
X282987Y6286D01*
X278988Y6286D01*
G37*
%LPD*%
%LPC*%
G36*
X236126Y147573D02*
X236126Y147573D01*
X233298Y150401D01*
X233298Y154399D01*
X236126Y157227D01*
X240124Y157227D01*
X242952Y154399D01*
X242952Y150401D01*
X240124Y147573D01*
X236126Y147573D01*
G37*
%LPD*%
%LPC*%
G36*
X367888Y174561D02*
X367888Y174561D01*
X365061Y177388D01*
X365061Y181387D01*
X367888Y184214D01*
X371887Y184214D01*
X374714Y181387D01*
X374714Y177388D01*
X371887Y174561D01*
X367888Y174561D01*
G37*
%LPD*%
%LPC*%
G36*
X305976Y150748D02*
X305976Y150748D01*
X303148Y153576D01*
X303148Y157574D01*
X305976Y160402D01*
X309974Y160402D01*
X312802Y157574D01*
X312802Y153576D01*
X309974Y150748D01*
X305976Y150748D01*
G37*
%LPD*%
%LPC*%
G36*
X167863Y169798D02*
X167863Y169798D01*
X165036Y172626D01*
X165036Y176624D01*
X167863Y179452D01*
X171862Y179452D01*
X174689Y176624D01*
X174689Y172626D01*
X171862Y169798D01*
X167863Y169798D01*
G37*
%LPD*%
%LPC*%
G36*
X150401Y85661D02*
X150401Y85661D01*
X147573Y88488D01*
X147573Y92487D01*
X150401Y95314D01*
X154399Y95314D01*
X157227Y92487D01*
X157227Y88488D01*
X154399Y85661D01*
X150401Y85661D01*
G37*
%LPD*%
%LPC*%
G36*
X325026Y39623D02*
X325026Y39623D01*
X322198Y42451D01*
X322198Y46449D01*
X325026Y49277D01*
X329024Y49277D01*
X331852Y46449D01*
X331852Y42451D01*
X329024Y39623D01*
X325026Y39623D01*
G37*
%LPD*%
%LPC*%
G36*
X274226Y41211D02*
X274226Y41211D01*
X271398Y44038D01*
X271398Y48037D01*
X274226Y50864D01*
X278224Y50864D01*
X281052Y48037D01*
X281052Y44038D01*
X278224Y41211D01*
X274226Y41211D01*
G37*
%LPD*%
%LPC*%
G36*
X231363Y41211D02*
X231363Y41211D01*
X228536Y44038D01*
X228536Y48037D01*
X231363Y50864D01*
X235362Y50864D01*
X238189Y48037D01*
X238189Y44038D01*
X235362Y41211D01*
X231363Y41211D01*
G37*
%LPD*%
%LPC*%
G36*
X86901Y65023D02*
X86901Y65023D01*
X84073Y67851D01*
X84073Y71849D01*
X86901Y74677D01*
X90899Y74677D01*
X93727Y71849D01*
X93727Y67851D01*
X90899Y65023D01*
X86901Y65023D01*
G37*
%LPD*%
%LPC*%
G36*
X247238Y66611D02*
X247238Y66611D01*
X244411Y69438D01*
X244411Y73437D01*
X247238Y76264D01*
X251237Y76264D01*
X254064Y73437D01*
X254064Y69438D01*
X251237Y66611D01*
X247238Y66611D01*
G37*
%LPD*%
%LPC*%
G36*
X301213Y72961D02*
X301213Y72961D01*
X298386Y75788D01*
X298386Y79787D01*
X301213Y82614D01*
X305212Y82614D01*
X308039Y79787D01*
X308039Y75788D01*
X305212Y72961D01*
X301213Y72961D01*
G37*
%LPD*%
%LPC*%
G36*
X10701Y74548D02*
X10701Y74548D01*
X7873Y77376D01*
X7873Y81374D01*
X10701Y84202D01*
X14699Y84202D01*
X17527Y81374D01*
X17527Y77376D01*
X14699Y74548D01*
X10701Y74548D01*
G37*
%LPD*%
%LPC*%
G36*
X385351Y77723D02*
X385351Y77723D01*
X382523Y80551D01*
X382523Y84549D01*
X385351Y87377D01*
X389349Y87377D01*
X392177Y84549D01*
X392177Y80551D01*
X389349Y77723D01*
X385351Y77723D01*
G37*
%LPD*%
%LPC*%
G36*
X409163Y130111D02*
X409163Y130111D01*
X406336Y132938D01*
X406336Y136937D01*
X409163Y139764D01*
X413162Y139764D01*
X415989Y136937D01*
X415989Y132938D01*
X413162Y130111D01*
X409163Y130111D01*
G37*
%LPD*%
%LPC*%
G36*
X231363Y93598D02*
X231363Y93598D01*
X228536Y96426D01*
X228536Y100424D01*
X231363Y103252D01*
X235362Y103252D01*
X238189Y100424D01*
X238189Y96426D01*
X235362Y93598D01*
X231363Y93598D01*
G37*
%LPD*%
%LPC*%
G36*
X248826Y106298D02*
X248826Y106298D01*
X245998Y109126D01*
X245998Y113124D01*
X248826Y115952D01*
X252824Y115952D01*
X255652Y113124D01*
X255652Y109126D01*
X252824Y106298D01*
X248826Y106298D01*
G37*
%LPD*%
%LPC*%
G36*
X166276Y107886D02*
X166276Y107886D01*
X163448Y110713D01*
X163448Y114712D01*
X166276Y117539D01*
X170274Y117539D01*
X173102Y114712D01*
X173102Y110713D01*
X170274Y107886D01*
X166276Y107886D01*
G37*
%LPD*%
%LPC*%
G36*
X120238Y112648D02*
X120238Y112648D01*
X117411Y115476D01*
X117411Y119474D01*
X120238Y122302D01*
X124237Y122302D01*
X127064Y119474D01*
X127064Y115476D01*
X124237Y112648D01*
X120238Y112648D01*
G37*
%LPD*%
%LPC*%
G36*
X150401Y118998D02*
X150401Y118998D01*
X147573Y121826D01*
X147573Y125824D01*
X150401Y128652D01*
X154399Y128652D01*
X157227Y125824D01*
X157227Y121826D01*
X154399Y118998D01*
X150401Y118998D01*
G37*
%LPD*%
%LPC*%
G36*
X120238Y126936D02*
X120238Y126936D01*
X117411Y129763D01*
X117411Y133762D01*
X120238Y136589D01*
X124237Y136589D01*
X127064Y133762D01*
X127064Y129763D01*
X124237Y126936D01*
X120238Y126936D01*
G37*
%LPD*%
%LPC*%
G36*
X59913Y128523D02*
X59913Y128523D01*
X57086Y131351D01*
X57086Y135349D01*
X59913Y138177D01*
X63912Y138177D01*
X66739Y135349D01*
X66739Y131351D01*
X63912Y128523D01*
X59913Y128523D01*
G37*
%LPD*%
%LPC*%
G36*
X69438Y314261D02*
X69438Y314261D01*
X66611Y317088D01*
X66611Y321087D01*
X69438Y323914D01*
X73437Y323914D01*
X76264Y321087D01*
X76264Y317088D01*
X73437Y314261D01*
X69438Y314261D01*
G37*
%LPD*%
%LPC*%
G36*
X67851Y288861D02*
X67851Y288861D01*
X65023Y291688D01*
X65023Y295687D01*
X67851Y298514D01*
X71849Y298514D01*
X74677Y295687D01*
X74677Y291688D01*
X71849Y288861D01*
X67851Y288861D01*
G37*
%LPD*%
%LPC*%
G36*
X34513Y290448D02*
X34513Y290448D01*
X31686Y293276D01*
X31686Y297274D01*
X34513Y300102D01*
X38512Y300102D01*
X41339Y297274D01*
X41339Y293276D01*
X38512Y290448D01*
X34513Y290448D01*
G37*
%LPD*%
%LPC*%
G36*
X134526Y290448D02*
X134526Y290448D01*
X131698Y293276D01*
X131698Y297274D01*
X134526Y300102D01*
X138524Y300102D01*
X141352Y297274D01*
X141352Y293276D01*
X138524Y290448D01*
X134526Y290448D01*
G37*
%LPD*%
%LPC*%
G36*
X303594Y299973D02*
X303594Y299973D01*
X300767Y302801D01*
X300767Y306799D01*
X303594Y309627D01*
X307593Y309627D01*
X310420Y306799D01*
X310420Y302801D01*
X307593Y299973D01*
X303594Y299973D01*
G37*
%LPD*%
%LPC*%
G36*
X316294Y299973D02*
X316294Y299973D01*
X313467Y302801D01*
X313467Y306799D01*
X316294Y309627D01*
X320293Y309627D01*
X323120Y306799D01*
X323120Y302801D01*
X320293Y299973D01*
X316294Y299973D01*
G37*
%LPD*%
%LPC*%
G36*
X91663Y301561D02*
X91663Y301561D01*
X88836Y304388D01*
X88836Y308387D01*
X91663Y311214D01*
X95662Y311214D01*
X98489Y308387D01*
X98489Y304388D01*
X95662Y301561D01*
X91663Y301561D01*
G37*
%LPD*%
%LPC*%
G36*
X125001Y304736D02*
X125001Y304736D01*
X122173Y307563D01*
X122173Y311562D01*
X125001Y314389D01*
X128999Y314389D01*
X131827Y311562D01*
X131827Y307563D01*
X128999Y304736D01*
X125001Y304736D01*
G37*
%LPD*%
%LPC*%
G36*
X316294Y312673D02*
X316294Y312673D01*
X313467Y315501D01*
X313467Y319499D01*
X316294Y322327D01*
X320293Y322327D01*
X323120Y319499D01*
X323120Y315501D01*
X320293Y312673D01*
X316294Y312673D01*
G37*
%LPD*%
%LPC*%
G36*
X303594Y312673D02*
X303594Y312673D01*
X300767Y315501D01*
X300767Y319499D01*
X303594Y322327D01*
X307593Y322327D01*
X310420Y319499D01*
X310420Y315501D01*
X307593Y312673D01*
X303594Y312673D01*
G37*
%LPD*%
%LPC*%
G36*
X101188Y314261D02*
X101188Y314261D01*
X98361Y317088D01*
X98361Y321087D01*
X101188Y323914D01*
X105187Y323914D01*
X108014Y321087D01*
X108014Y317088D01*
X105187Y314261D01*
X101188Y314261D01*
G37*
%LPD*%
%LPC*%
G36*
X20226Y287273D02*
X20226Y287273D01*
X17398Y290101D01*
X17398Y294099D01*
X20226Y296927D01*
X24224Y296927D01*
X27052Y294099D01*
X27052Y290101D01*
X24224Y287273D01*
X20226Y287273D01*
G37*
%LPD*%
%LPC*%
G36*
X15463Y314261D02*
X15463Y314261D01*
X12636Y317088D01*
X12636Y321087D01*
X15463Y323914D01*
X19462Y323914D01*
X22289Y321087D01*
X22289Y317088D01*
X19462Y314261D01*
X15463Y314261D01*
G37*
%LPD*%
%LPC*%
G36*
X236126Y317436D02*
X236126Y317436D01*
X233298Y320263D01*
X233298Y324262D01*
X236126Y327089D01*
X240124Y327089D01*
X242952Y324262D01*
X242952Y320263D01*
X240124Y317436D01*
X236126Y317436D01*
G37*
%LPD*%
%LPC*%
G36*
X286926Y330136D02*
X286926Y330136D01*
X284098Y332963D01*
X284098Y336962D01*
X286926Y339789D01*
X290924Y339789D01*
X293752Y336962D01*
X293752Y332963D01*
X290924Y330136D01*
X286926Y330136D01*
G37*
%LPD*%
%LPC*%
G36*
X177388Y330136D02*
X177388Y330136D01*
X174561Y332963D01*
X174561Y336962D01*
X177388Y339789D01*
X181387Y339789D01*
X184214Y336962D01*
X184214Y332963D01*
X181387Y330136D01*
X177388Y330136D01*
G37*
%LPD*%
%LPC*%
G36*
X328201Y339661D02*
X328201Y339661D01*
X325373Y342488D01*
X325373Y346487D01*
X328201Y349314D01*
X332199Y349314D01*
X335027Y346487D01*
X335027Y342488D01*
X332199Y339661D01*
X328201Y339661D01*
G37*
%LPD*%
%LPC*%
G36*
X328201Y368236D02*
X328201Y368236D01*
X325373Y371063D01*
X325373Y375062D01*
X328201Y377889D01*
X332199Y377889D01*
X335027Y375062D01*
X335027Y371063D01*
X332199Y368236D01*
X328201Y368236D01*
G37*
%LPD*%
%LPC*%
G36*
X148813Y371411D02*
X148813Y371411D01*
X145986Y374238D01*
X145986Y378237D01*
X148813Y381064D01*
X152812Y381064D01*
X155639Y378237D01*
X155639Y374238D01*
X152812Y371411D01*
X148813Y371411D01*
G37*
%LPD*%
%LPC*%
G36*
X278988Y371411D02*
X278988Y371411D01*
X276161Y374238D01*
X276161Y378237D01*
X278988Y381064D01*
X282987Y381064D01*
X285814Y378237D01*
X285814Y374238D01*
X282987Y371411D01*
X278988Y371411D01*
G37*
%LPD*%
%LPC*%
G36*
X9113Y372998D02*
X9113Y372998D01*
X6286Y375826D01*
X6286Y379824D01*
X9113Y382652D01*
X13112Y382652D01*
X15939Y379824D01*
X15939Y375826D01*
X13112Y372998D01*
X9113Y372998D01*
G37*
%LPD*%
%LPC*%
G36*
X394876Y247586D02*
X394876Y247586D01*
X392048Y250413D01*
X392048Y254412D01*
X394876Y257239D01*
X398874Y257239D01*
X401702Y254412D01*
X401702Y250413D01*
X398874Y247586D01*
X394876Y247586D01*
G37*
%LPD*%
%LPC*%
G36*
X128176Y192023D02*
X128176Y192023D01*
X125348Y194851D01*
X125348Y198849D01*
X128176Y201677D01*
X132174Y201677D01*
X135002Y198849D01*
X135002Y194851D01*
X132174Y192023D01*
X128176Y192023D01*
G37*
%LPD*%
%LPC*%
G36*
X140876Y193611D02*
X140876Y193611D01*
X138048Y196438D01*
X138048Y200437D01*
X140876Y203264D01*
X144874Y203264D01*
X147702Y200437D01*
X147702Y196438D01*
X144874Y193611D01*
X140876Y193611D01*
G37*
%LPD*%
%LPC*%
G36*
X288513Y199961D02*
X288513Y199961D01*
X285686Y202788D01*
X285686Y206787D01*
X288513Y209614D01*
X292512Y209614D01*
X295339Y206787D01*
X295339Y202788D01*
X292512Y199961D01*
X288513Y199961D01*
G37*
%LPD*%
%LPC*%
G36*
X309151Y199961D02*
X309151Y199961D01*
X306323Y202788D01*
X306323Y206787D01*
X309151Y209614D01*
X313149Y209614D01*
X315977Y206787D01*
X315977Y202788D01*
X313149Y199961D01*
X309151Y199961D01*
G37*
%LPD*%
%LPC*%
G36*
X275813Y206311D02*
X275813Y206311D01*
X272986Y209138D01*
X272986Y213137D01*
X275813Y215964D01*
X279812Y215964D01*
X282639Y213137D01*
X282639Y209138D01*
X279812Y206311D01*
X275813Y206311D01*
G37*
%LPD*%
%LPC*%
G36*
X167863Y212661D02*
X167863Y212661D01*
X165036Y215488D01*
X165036Y219487D01*
X167863Y222314D01*
X171862Y222314D01*
X174689Y219487D01*
X174689Y215488D01*
X171862Y212661D01*
X167863Y212661D01*
G37*
%LPD*%
%LPC*%
G36*
X139288Y225361D02*
X139288Y225361D01*
X136461Y228188D01*
X136461Y232187D01*
X139288Y235014D01*
X143287Y235014D01*
X146114Y232187D01*
X146114Y228188D01*
X143287Y225361D01*
X139288Y225361D01*
G37*
%LPD*%
%LPC*%
G36*
X63088Y226948D02*
X63088Y226948D01*
X60261Y229776D01*
X60261Y233774D01*
X63088Y236602D01*
X67087Y236602D01*
X69914Y233774D01*
X69914Y229776D01*
X67087Y226948D01*
X63088Y226948D01*
G37*
%LPD*%
%LPC*%
G36*
X75788Y233298D02*
X75788Y233298D01*
X72961Y236126D01*
X72961Y240124D01*
X75788Y242952D01*
X79787Y242952D01*
X82614Y240124D01*
X82614Y236126D01*
X79787Y233298D01*
X75788Y233298D01*
G37*
%LPD*%
%LPC*%
G36*
X409163Y242823D02*
X409163Y242823D01*
X406336Y245651D01*
X406336Y249649D01*
X409163Y252477D01*
X413162Y252477D01*
X415989Y249649D01*
X415989Y245651D01*
X413162Y242823D01*
X409163Y242823D01*
G37*
%LPD*%
%LPC*%
G36*
X171038Y192023D02*
X171038Y192023D01*
X168211Y194851D01*
X168211Y198849D01*
X171038Y201677D01*
X175037Y201677D01*
X177864Y198849D01*
X177864Y194851D01*
X175037Y192023D01*
X171038Y192023D01*
G37*
%LPD*%
%LPC*%
G36*
X86901Y252348D02*
X86901Y252348D01*
X84073Y255176D01*
X84073Y259174D01*
X86901Y262002D01*
X90899Y262002D01*
X93727Y259174D01*
X93727Y255176D01*
X90899Y252348D01*
X86901Y252348D01*
G37*
%LPD*%
%LPC*%
G36*
X286926Y255523D02*
X286926Y255523D01*
X284098Y258351D01*
X284098Y262349D01*
X286926Y265177D01*
X290924Y265177D01*
X293752Y262349D01*
X293752Y258351D01*
X290924Y255523D01*
X286926Y255523D01*
G37*
%LPD*%
%LPC*%
G36*
X359951Y257111D02*
X359951Y257111D01*
X357123Y259938D01*
X357123Y263937D01*
X359951Y266764D01*
X363949Y266764D01*
X366777Y263937D01*
X366777Y259938D01*
X363949Y257111D01*
X359951Y257111D01*
G37*
%LPD*%
%LPC*%
G36*
X309151Y257111D02*
X309151Y257111D01*
X306323Y259938D01*
X306323Y263937D01*
X309151Y266764D01*
X313149Y266764D01*
X315977Y263937D01*
X315977Y259938D01*
X313149Y257111D01*
X309151Y257111D01*
G37*
%LPD*%
%LPC*%
G36*
X166276Y258698D02*
X166276Y258698D01*
X163448Y261526D01*
X163448Y265524D01*
X166276Y268352D01*
X170274Y268352D01*
X173102Y265524D01*
X173102Y261526D01*
X170274Y258698D01*
X166276Y258698D01*
G37*
%LPD*%
%LPC*%
G36*
X196438Y260286D02*
X196438Y260286D01*
X193611Y263113D01*
X193611Y267112D01*
X196438Y269939D01*
X200437Y269939D01*
X203264Y267112D01*
X203264Y263113D01*
X200437Y260286D01*
X196438Y260286D01*
G37*
%LPD*%
%LPC*%
G36*
X75788Y263461D02*
X75788Y263461D01*
X72961Y266288D01*
X72961Y270287D01*
X75788Y273114D01*
X79787Y273114D01*
X82614Y270287D01*
X82614Y266288D01*
X79787Y263461D01*
X75788Y263461D01*
G37*
%LPD*%
%LPC*%
G36*
X255176Y268223D02*
X255176Y268223D01*
X252348Y271051D01*
X252348Y275049D01*
X255176Y277877D01*
X259174Y277877D01*
X262002Y275049D01*
X262002Y271051D01*
X259174Y268223D01*
X255176Y268223D01*
G37*
%LPD*%
%LPC*%
G36*
X158338Y284098D02*
X158338Y284098D01*
X155511Y286926D01*
X155511Y290924D01*
X158338Y293752D01*
X162337Y293752D01*
X165164Y290924D01*
X165164Y286926D01*
X162337Y284098D01*
X158338Y284098D01*
G37*
%LPD*%
D10*
X345000Y484925D03*
X315000Y484925D03*
X285000Y484925D03*
X255000Y484925D03*
X225000Y484925D03*
X195000Y484925D03*
X165000Y484925D03*
X135000Y484925D03*
X105000Y484925D03*
X330000Y459925D03*
X300000Y459925D03*
X270000Y459925D03*
X240000Y459925D03*
X210000Y459925D03*
X180000Y459925D03*
X150000Y459925D03*
X120000Y459925D03*
X330000Y424925D03*
X300000Y424925D03*
X270000Y424925D03*
X240000Y424925D03*
X210000Y424925D03*
X180000Y424925D03*
X150000Y424925D03*
X120000Y424925D03*
X345000Y399925D03*
X315000Y399925D03*
X285000Y399925D03*
X255000Y399925D03*
X225000Y399925D03*
X195000Y399925D03*
X165000Y399925D03*
X135000Y399925D03*
X105000Y399925D03*
D11*
X190500Y241300D03*
X215900Y241300D03*
X190500Y215900D03*
X215900Y215900D03*
X190500Y190500D03*
X215900Y190500D03*
X190500Y165100D03*
X215900Y165100D03*
X190500Y139700D03*
X215900Y139700D03*
X190500Y114300D03*
X215900Y114300D03*
X190500Y88900D03*
X215900Y88900D03*
X371475Y12700D03*
X371475Y38100D03*
X396875Y12700D03*
X396875Y38100D03*
X422275Y12700D03*
X422275Y38100D03*
D12*
X77788Y268288D03*
X93663Y306388D03*
X142875Y198438D03*
X169863Y174625D03*
X120650Y31750D03*
X114300Y31750D03*
X90488Y57150D03*
X90488Y49213D03*
X80963Y49213D03*
X36513Y295275D03*
X41275Y392113D03*
X136525Y295275D03*
X9525Y249238D03*
X19050Y131763D03*
X19050Y120650D03*
X19050Y142875D03*
X19050Y153988D03*
X17463Y46038D03*
X7938Y46038D03*
X26988Y46038D03*
X19050Y109538D03*
X152400Y123825D03*
X152400Y90488D03*
X327025Y44450D03*
X212725Y31750D03*
X206375Y38100D03*
X305594Y317500D03*
X318294Y304800D03*
X280988Y376238D03*
X200025Y301625D03*
X173038Y301625D03*
X104775Y357188D03*
X73025Y357188D03*
X44450Y363538D03*
X341313Y242888D03*
X290513Y204788D03*
X274638Y249238D03*
X374650Y268288D03*
X374650Y261938D03*
X44450Y357188D03*
X73025Y363538D03*
X104775Y363538D03*
X141288Y349250D03*
X173038Y307975D03*
X311150Y261938D03*
X280988Y11113D03*
X233363Y46038D03*
X249238Y71438D03*
X200025Y38100D03*
X200025Y31750D03*
X80963Y57150D03*
X238125Y152400D03*
X330200Y373063D03*
X165100Y346075D03*
X228600Y206375D03*
X411163Y134938D03*
X12700Y79375D03*
X169863Y217488D03*
X147638Y241300D03*
X147638Y252413D03*
X41275Y398463D03*
X141288Y355600D03*
X165100Y352425D03*
X73025Y369888D03*
X104775Y369888D03*
X200025Y307975D03*
X200025Y314325D03*
X441325Y34925D03*
X387350Y82550D03*
X350838Y22225D03*
X350838Y33338D03*
X423863Y463550D03*
X430213Y463550D03*
X19050Y444500D03*
X25400Y444500D03*
X44450Y369888D03*
X412750Y381000D03*
X419100Y381000D03*
X280988Y146050D03*
X318294Y317500D03*
X305594Y304800D03*
X422275Y227013D03*
X422275Y220663D03*
X441325Y111125D03*
X168275Y112713D03*
X276225Y46038D03*
X9525Y238125D03*
X9525Y227013D03*
X238125Y322263D03*
X257175Y273050D03*
X122238Y131763D03*
X122238Y117475D03*
X61913Y133350D03*
X206375Y44450D03*
X212725Y44450D03*
X120650Y47625D03*
X114300Y47625D03*
X200025Y44450D03*
X212725Y38100D03*
X206375Y31750D03*
X109538Y225425D03*
X52388Y231775D03*
X109538Y217488D03*
X296863Y252413D03*
X274638Y220663D03*
X174625Y31750D03*
X180975Y31750D03*
X168275Y38100D03*
X168275Y31750D03*
X174625Y38100D03*
X180975Y38100D03*
X147638Y284163D03*
X257175Y233363D03*
X411163Y125413D03*
X322263Y11113D03*
X385763Y206375D03*
X396875Y82550D03*
X250825Y141288D03*
X312738Y74613D03*
X176213Y233363D03*
X136525Y312738D03*
X280988Y155575D03*
X61913Y147638D03*
X350838Y44450D03*
X247650Y322263D03*
X231775Y328613D03*
X277813Y274638D03*
X333375Y11113D03*
X441325Y11113D03*
X387350Y396875D03*
X393700Y396875D03*
X168275Y44450D03*
X174625Y44450D03*
X180975Y44450D03*
X69850Y293688D03*
X88900Y69850D03*
X66675Y249238D03*
X52388Y306388D03*
X61913Y306388D03*
X49213Y258763D03*
X22225Y292100D03*
X79375Y111125D03*
X71438Y212725D03*
X303213Y77788D03*
X341313Y233363D03*
X11113Y377825D03*
X65088Y231775D03*
X55563Y250825D03*
X77788Y238125D03*
X17463Y319088D03*
X98425Y209550D03*
X92075Y215900D03*
X130175Y196850D03*
X84138Y220663D03*
X49213Y166688D03*
D13*
X49213Y201613D01*
X68263Y220663D01*
X84138Y220663D01*
D12*
X88900Y257175D03*
X69850Y117475D03*
X69850Y98425D03*
X328613Y76200D03*
X336550Y285750D03*
X336550Y188913D03*
D13*
X330200Y195263D01*
X330200Y279400D01*
X336550Y285750D01*
D12*
X341313Y254000D03*
X342900Y195263D03*
D13*
X342900Y204788D01*
X333375Y214313D01*
X333375Y246063D01*
X341313Y254000D01*
D12*
X233363Y98425D03*
X311150Y204788D03*
X141288Y230188D03*
X242888Y254000D03*
X69850Y107950D03*
X336550Y201613D03*
X173038Y196850D03*
X323850Y204788D03*
X304800Y96838D03*
X250825Y111125D03*
X249238Y174625D03*
X252413Y254000D03*
D13*
X249238Y250825D02*
X249238Y174625D01*
X249238Y250825D02*
X252413Y254000D01*
D12*
X168275Y263525D03*
X282575Y284163D03*
D13*
X233363Y233363D02*
X215900Y215900D01*
X233363Y233363D02*
X233363Y255588D01*
X236538Y258763D01*
X236538Y274638D01*
X246063Y284163D01*
X282575Y284163D01*
D12*
X265113Y250825D03*
X277813Y211138D03*
X42863Y306388D03*
X288925Y127000D03*
X71438Y319088D03*
X282575Y120650D03*
X25400Y357188D03*
X25400Y350838D03*
X438150Y403225D03*
X438150Y409575D03*
X257175Y322263D03*
X266700Y322263D03*
X288925Y334963D03*
X330200Y344488D03*
X361950Y261938D03*
X396875Y252413D03*
X160338Y288925D03*
X285750Y96838D03*
X230188Y263525D03*
X295275Y96838D03*
X198438Y265113D03*
X307975Y155575D03*
X103188Y319088D03*
X288925Y114300D03*
X127000Y309563D03*
X284163Y106363D03*
X277813Y293688D03*
X288925Y274638D03*
X300038Y274638D03*
X314325Y174625D03*
X244475Y273050D03*
X288925Y260350D03*
X307975Y180975D03*
X150813Y376238D03*
X338138Y76200D03*
X7938Y412750D03*
X369888Y179388D03*
X336550Y179388D03*
X112713Y158750D03*
X220663Y69850D03*
X103188Y158750D03*
X211138Y65088D03*
X42863Y17463D03*
X49213Y17463D03*
X55563Y17463D03*
X55563Y9525D03*
X49213Y9525D03*
X42863Y9525D03*
X179388Y334963D03*
X277813Y309563D03*
D13*
X295275Y327025D01*
X403225Y327025D01*
D12*
X387350Y428625D03*
X393700Y428625D03*
X411163Y247650D03*
X336550Y136525D03*
D13*
X334963Y134938D01*
X282575Y134938D01*
X271463Y123825D01*
X225425Y123825D01*
X215900Y114300D01*
X328613Y138113D02*
X336550Y146050D01*
X328613Y138113D02*
X280988Y138113D01*
X269875Y127000D01*
X203200Y127000D01*
X190500Y114300D01*
D12*
X336550Y146050D03*
X103188Y98425D03*
X112713Y101600D03*
X412750Y412750D03*
X419100Y412750D03*
M02*
