G04 EAGLE Gerber RS-274X export*
G75*
%MOMM*%
%FSLAX34Y34*%
%LPD*%
%INBottom Copper*%
%IPPOS*%
%AMOC8*
5,1,8,0,0,1.08239X$1,22.5*%
G01*
%ADD10C,0.101600*%
%ADD11R,1.000000X3.400000*%
%ADD12R,6.800000X9.600000*%
%ADD13R,1.500000X1.300000*%
%ADD14C,1.950000*%
%ADD15R,0.685800X1.346200*%
%ADD16R,1.168400X1.600200*%
%ADD17P,1.649562X8X292.500000*%
%ADD18P,1.649562X8X22.500000*%
%ADD19R,0.400000X1.000000*%
%ADD20C,0.711200*%
%ADD21C,0.152400*%
%ADD22C,0.254000*%
%ADD23C,0.203200*%
%ADD24C,0.762000*%
%ADD25C,0.406400*%
%ADD26C,0.304800*%
%ADD27C,1.524000*%
%ADD28C,2.540000*%

G36*
X445867Y186318D02*
X445867Y186318D01*
X445925Y186316D01*
X446007Y186338D01*
X446091Y186350D01*
X446144Y186374D01*
X446200Y186388D01*
X446273Y186431D01*
X446350Y186466D01*
X446395Y186504D01*
X446445Y186534D01*
X446503Y186595D01*
X446567Y186650D01*
X446599Y186698D01*
X446639Y186741D01*
X446678Y186816D01*
X446725Y186886D01*
X446742Y186942D01*
X446769Y186994D01*
X446780Y187062D01*
X446810Y187157D01*
X446813Y187257D01*
X446824Y187325D01*
X446824Y408266D01*
X446812Y408353D01*
X446809Y408440D01*
X446792Y408493D01*
X446784Y408547D01*
X446749Y408627D01*
X446722Y408711D01*
X446694Y408750D01*
X446668Y408807D01*
X446572Y408920D01*
X446527Y408984D01*
X444710Y410801D01*
X444686Y410818D01*
X444667Y410841D01*
X444573Y410904D01*
X444483Y410972D01*
X444455Y410982D01*
X444431Y410999D01*
X444323Y411033D01*
X444217Y411073D01*
X444188Y411075D01*
X444160Y411084D01*
X444046Y411087D01*
X443934Y411097D01*
X443905Y411091D01*
X443876Y411092D01*
X443766Y411063D01*
X443655Y411041D01*
X443629Y411027D01*
X443601Y411020D01*
X443503Y410962D01*
X443403Y410910D01*
X443381Y410890D01*
X443356Y410875D01*
X443279Y410792D01*
X443197Y410714D01*
X443182Y410689D01*
X443162Y410667D01*
X443110Y410566D01*
X443053Y410469D01*
X443046Y410440D01*
X443032Y410414D01*
X443019Y410337D01*
X442983Y410193D01*
X442985Y410131D01*
X442977Y410083D01*
X442977Y407576D01*
X442519Y407118D01*
X442484Y407071D01*
X442441Y407031D01*
X442399Y406958D01*
X442348Y406891D01*
X442327Y406836D01*
X442298Y406786D01*
X442277Y406704D01*
X442247Y406625D01*
X442242Y406567D01*
X442228Y406510D01*
X442230Y406426D01*
X442223Y406342D01*
X442235Y406284D01*
X442237Y406226D01*
X442263Y406146D01*
X442279Y406063D01*
X442306Y406011D01*
X442324Y405955D01*
X442364Y405899D01*
X442410Y405811D01*
X442479Y405738D01*
X442519Y405682D01*
X442977Y405224D01*
X442977Y401226D01*
X440149Y398398D01*
X436151Y398398D01*
X433323Y401226D01*
X433323Y405224D01*
X433781Y405682D01*
X433816Y405729D01*
X433859Y405769D01*
X433901Y405842D01*
X433952Y405909D01*
X433973Y405964D01*
X434002Y406014D01*
X434023Y406096D01*
X434053Y406175D01*
X434058Y406233D01*
X434072Y406290D01*
X434070Y406374D01*
X434077Y406458D01*
X434065Y406516D01*
X434063Y406574D01*
X434037Y406654D01*
X434021Y406737D01*
X433994Y406789D01*
X433976Y406845D01*
X433936Y406901D01*
X433890Y406989D01*
X433821Y407062D01*
X433781Y407118D01*
X433323Y407576D01*
X433323Y411574D01*
X434550Y412801D01*
X434602Y412871D01*
X434662Y412935D01*
X434688Y412984D01*
X434721Y413028D01*
X434752Y413110D01*
X434792Y413188D01*
X434800Y413235D01*
X434822Y413294D01*
X434834Y413441D01*
X434847Y413519D01*
X434847Y414136D01*
X434835Y414223D01*
X434832Y414310D01*
X434815Y414363D01*
X434807Y414418D01*
X434772Y414498D01*
X434745Y414581D01*
X434717Y414620D01*
X434691Y414677D01*
X434595Y414791D01*
X434550Y414854D01*
X378786Y470618D01*
X378717Y470670D01*
X378653Y470730D01*
X378603Y470756D01*
X378559Y470789D01*
X378477Y470820D01*
X378400Y470860D01*
X378352Y470868D01*
X378293Y470890D01*
X378146Y470902D01*
X378068Y470915D01*
X327025Y470915D01*
X326938Y470903D01*
X326851Y470900D01*
X326798Y470883D01*
X326744Y470875D01*
X326664Y470840D01*
X326580Y470813D01*
X326541Y470785D01*
X326484Y470759D01*
X326371Y470663D01*
X326307Y470618D01*
X319957Y464268D01*
X319905Y464198D01*
X319845Y464134D01*
X319819Y464085D01*
X319786Y464041D01*
X319755Y463959D01*
X319715Y463881D01*
X319707Y463834D01*
X319685Y463775D01*
X319674Y463641D01*
X319674Y463639D01*
X319673Y463627D01*
X319660Y463550D01*
X319660Y455613D01*
X319673Y455519D01*
X319677Y455424D01*
X319692Y455384D01*
X319700Y455331D01*
X319767Y455180D01*
X319794Y455109D01*
X330452Y436457D01*
X330501Y436394D01*
X330542Y436325D01*
X330587Y436282D01*
X330626Y436233D01*
X330690Y436185D01*
X330749Y436131D01*
X330805Y436102D01*
X330855Y436065D01*
X330931Y436038D01*
X331002Y436001D01*
X331055Y435992D01*
X331123Y435968D01*
X331256Y435959D01*
X331333Y435946D01*
X332192Y435946D01*
X336243Y434268D01*
X339343Y431168D01*
X341021Y427117D01*
X341021Y422733D01*
X340065Y420426D01*
X340063Y420418D01*
X340059Y420410D01*
X340028Y420280D01*
X339994Y420151D01*
X339995Y420142D01*
X339993Y420133D01*
X339999Y419999D01*
X340003Y419867D01*
X340005Y419858D01*
X340006Y419849D01*
X340025Y419798D01*
X340089Y419596D01*
X340111Y419564D01*
X340122Y419534D01*
X343067Y414380D01*
X343149Y414274D01*
X343229Y414168D01*
X343236Y414162D01*
X343241Y414155D01*
X343350Y414076D01*
X343455Y413996D01*
X343464Y413993D01*
X343471Y413988D01*
X343596Y413942D01*
X343721Y413894D01*
X343729Y413894D01*
X343738Y413890D01*
X344022Y413871D01*
X344040Y413875D01*
X344056Y413874D01*
X346291Y414111D01*
X351621Y412537D01*
X355944Y409043D01*
X375160Y373726D01*
X375214Y373653D01*
X375261Y373575D01*
X375299Y373539D01*
X375330Y373498D01*
X375402Y373443D01*
X375468Y373381D01*
X375514Y373357D01*
X375556Y373325D01*
X375640Y373292D01*
X375721Y373251D01*
X375766Y373244D01*
X375821Y373222D01*
X375975Y373209D01*
X376052Y373196D01*
X420289Y373196D01*
X421033Y372451D01*
X421033Y275399D01*
X420289Y274654D01*
X384175Y274654D01*
X384117Y274646D01*
X384059Y274648D01*
X383977Y274626D01*
X383894Y274614D01*
X383840Y274591D01*
X383784Y274576D01*
X383711Y274533D01*
X383634Y274498D01*
X383589Y274460D01*
X383539Y274431D01*
X383481Y274369D01*
X383417Y274315D01*
X383385Y274266D01*
X383345Y274223D01*
X383306Y274148D01*
X383260Y274078D01*
X383242Y274022D01*
X383215Y273970D01*
X383204Y273902D01*
X383174Y273807D01*
X383171Y273707D01*
X383160Y273639D01*
X383160Y255714D01*
X383168Y255657D01*
X383166Y255598D01*
X383188Y255517D01*
X383200Y255433D01*
X383224Y255380D01*
X383238Y255323D01*
X383281Y255251D01*
X383316Y255174D01*
X383354Y255129D01*
X383384Y255079D01*
X383445Y255021D01*
X383500Y254957D01*
X383548Y254924D01*
X383591Y254884D01*
X383666Y254846D01*
X383736Y254799D01*
X383792Y254781D01*
X383844Y254755D01*
X383912Y254743D01*
X384007Y254713D01*
X384107Y254711D01*
X384175Y254699D01*
X391915Y254699D01*
X392002Y254711D01*
X392089Y254714D01*
X392142Y254731D01*
X392197Y254739D01*
X392276Y254775D01*
X392360Y254802D01*
X392399Y254830D01*
X392456Y254855D01*
X392569Y254951D01*
X392633Y254997D01*
X394876Y257239D01*
X398874Y257239D01*
X400659Y255455D01*
X400682Y255437D01*
X400701Y255415D01*
X400795Y255352D01*
X400886Y255284D01*
X400913Y255274D01*
X400938Y255257D01*
X401046Y255223D01*
X401151Y255183D01*
X401181Y255180D01*
X401209Y255171D01*
X401322Y255169D01*
X401435Y255159D01*
X401463Y255165D01*
X401493Y255164D01*
X401602Y255193D01*
X401714Y255215D01*
X401740Y255229D01*
X401768Y255236D01*
X401856Y255288D01*
X401848Y255273D01*
X401801Y255203D01*
X401784Y255147D01*
X401757Y255095D01*
X401746Y255027D01*
X401716Y254932D01*
X401713Y254832D01*
X401702Y254764D01*
X401702Y250413D01*
X398874Y247586D01*
X394876Y247586D01*
X392633Y249828D01*
X392563Y249881D01*
X392499Y249941D01*
X392450Y249966D01*
X392406Y249999D01*
X392324Y250030D01*
X392246Y250070D01*
X392199Y250078D01*
X392140Y250101D01*
X391993Y250113D01*
X391915Y250126D01*
X384175Y250126D01*
X384117Y250118D01*
X384059Y250119D01*
X383977Y250098D01*
X383894Y250086D01*
X383840Y250062D01*
X383784Y250047D01*
X383711Y250004D01*
X383634Y249970D01*
X383589Y249932D01*
X383539Y249902D01*
X383481Y249840D01*
X383417Y249786D01*
X383385Y249737D01*
X383345Y249695D01*
X383306Y249620D01*
X383260Y249549D01*
X383242Y249494D01*
X383215Y249442D01*
X383204Y249374D01*
X383174Y249278D01*
X383171Y249179D01*
X383160Y249111D01*
X383160Y242315D01*
X355600Y242315D01*
X355542Y242307D01*
X355484Y242309D01*
X355402Y242287D01*
X355319Y242275D01*
X355265Y242252D01*
X355209Y242237D01*
X355136Y242194D01*
X355059Y242159D01*
X355014Y242121D01*
X354964Y242092D01*
X354906Y242030D01*
X354842Y241976D01*
X354810Y241927D01*
X354770Y241884D01*
X354731Y241809D01*
X354685Y241739D01*
X354667Y241683D01*
X354640Y241631D01*
X354629Y241563D01*
X354599Y241468D01*
X354596Y241368D01*
X354585Y241300D01*
X354585Y187325D01*
X354593Y187267D01*
X354591Y187209D01*
X354613Y187127D01*
X354625Y187044D01*
X354649Y186990D01*
X354663Y186934D01*
X354706Y186861D01*
X354741Y186784D01*
X354779Y186739D01*
X354809Y186689D01*
X354870Y186631D01*
X354925Y186567D01*
X354973Y186535D01*
X355016Y186495D01*
X355091Y186456D01*
X355161Y186410D01*
X355217Y186392D01*
X355269Y186365D01*
X355337Y186354D01*
X355432Y186324D01*
X355532Y186321D01*
X355600Y186310D01*
X445809Y186310D01*
X445867Y186318D01*
G37*
%LPC*%
G36*
X405636Y204654D02*
X405636Y204654D01*
X404892Y205399D01*
X404892Y240451D01*
X405636Y241196D01*
X406845Y241196D01*
X406902Y241204D01*
X406961Y241202D01*
X407042Y241224D01*
X407126Y241236D01*
X407179Y241259D01*
X407236Y241274D01*
X407308Y241317D01*
X407385Y241352D01*
X407430Y241390D01*
X407480Y241419D01*
X407538Y241481D01*
X407602Y241535D01*
X407635Y241584D01*
X407675Y241627D01*
X407713Y241702D01*
X407760Y241772D01*
X407778Y241828D01*
X407804Y241880D01*
X407816Y241948D01*
X407846Y242043D01*
X407848Y242143D01*
X407860Y242211D01*
X407860Y243706D01*
X407848Y243793D01*
X407845Y243880D01*
X407828Y243933D01*
X407820Y243988D01*
X407784Y244067D01*
X407757Y244151D01*
X407729Y244190D01*
X407704Y244247D01*
X407608Y244360D01*
X407562Y244424D01*
X406336Y245651D01*
X406336Y249649D01*
X407562Y250876D01*
X407615Y250946D01*
X407675Y251010D01*
X407700Y251059D01*
X407733Y251103D01*
X407764Y251185D01*
X407804Y251263D01*
X407812Y251310D01*
X407835Y251369D01*
X407847Y251516D01*
X407860Y251594D01*
X407860Y254764D01*
X407852Y254822D01*
X407853Y254880D01*
X407832Y254962D01*
X407820Y255046D01*
X407796Y255099D01*
X407781Y255155D01*
X407738Y255228D01*
X407704Y255305D01*
X407666Y255350D01*
X407636Y255400D01*
X407574Y255458D01*
X407520Y255522D01*
X407471Y255554D01*
X407429Y255594D01*
X407354Y255633D01*
X407283Y255680D01*
X407228Y255697D01*
X407176Y255724D01*
X407108Y255735D01*
X407012Y255765D01*
X406913Y255768D01*
X406845Y255779D01*
X402717Y255779D01*
X402659Y255771D01*
X402601Y255773D01*
X402519Y255751D01*
X402435Y255739D01*
X402382Y255716D01*
X402326Y255701D01*
X402253Y255658D01*
X402239Y255651D01*
X402258Y255689D01*
X402316Y255787D01*
X402323Y255816D01*
X402336Y255842D01*
X402349Y255919D01*
X402386Y256063D01*
X402384Y256125D01*
X402392Y256173D01*
X402392Y270576D01*
X403136Y271321D01*
X419189Y271321D01*
X419933Y270576D01*
X419933Y256524D01*
X419189Y255779D01*
X415480Y255779D01*
X415423Y255771D01*
X415364Y255773D01*
X415283Y255751D01*
X415199Y255739D01*
X415146Y255716D01*
X415089Y255701D01*
X415017Y255658D01*
X414940Y255623D01*
X414895Y255585D01*
X414845Y255556D01*
X414787Y255494D01*
X414723Y255440D01*
X414690Y255391D01*
X414650Y255348D01*
X414612Y255273D01*
X414565Y255203D01*
X414547Y255147D01*
X414521Y255095D01*
X414509Y255027D01*
X414479Y254932D01*
X414477Y254832D01*
X414465Y254764D01*
X414465Y251594D01*
X414477Y251507D01*
X414480Y251420D01*
X414497Y251367D01*
X414505Y251312D01*
X414541Y251233D01*
X414568Y251149D01*
X414596Y251110D01*
X414621Y251053D01*
X414717Y250940D01*
X414763Y250876D01*
X415989Y249649D01*
X415989Y245651D01*
X414763Y244424D01*
X414710Y244354D01*
X414650Y244290D01*
X414625Y244241D01*
X414592Y244197D01*
X414561Y244115D01*
X414521Y244037D01*
X414513Y243990D01*
X414490Y243931D01*
X414478Y243784D01*
X414465Y243706D01*
X414465Y242211D01*
X414473Y242153D01*
X414472Y242095D01*
X414493Y242013D01*
X414505Y241929D01*
X414529Y241876D01*
X414544Y241820D01*
X414587Y241747D01*
X414621Y241670D01*
X414659Y241625D01*
X414689Y241575D01*
X414751Y241517D01*
X414805Y241453D01*
X414854Y241421D01*
X414896Y241381D01*
X414971Y241342D01*
X415042Y241295D01*
X415097Y241278D01*
X415149Y241251D01*
X415217Y241240D01*
X415313Y241210D01*
X415412Y241207D01*
X415480Y241196D01*
X416689Y241196D01*
X417433Y240451D01*
X417433Y231448D01*
X417437Y231419D01*
X417435Y231389D01*
X417457Y231278D01*
X417473Y231166D01*
X417485Y231140D01*
X417491Y231111D01*
X417543Y231010D01*
X417589Y230907D01*
X417608Y230884D01*
X417622Y230858D01*
X417700Y230776D01*
X417773Y230690D01*
X417797Y230674D01*
X417818Y230652D01*
X417915Y230595D01*
X418010Y230532D01*
X418038Y230523D01*
X418063Y230509D01*
X418172Y230481D01*
X418281Y230446D01*
X418310Y230446D01*
X418338Y230439D01*
X418451Y230442D01*
X418565Y230439D01*
X418593Y230447D01*
X418623Y230448D01*
X418731Y230482D01*
X418840Y230511D01*
X418865Y230526D01*
X418893Y230535D01*
X418957Y230581D01*
X419084Y230656D01*
X419127Y230702D01*
X419166Y230730D01*
X420276Y231839D01*
X424274Y231839D01*
X427102Y229012D01*
X427102Y225013D01*
X426644Y224555D01*
X426609Y224509D01*
X426566Y224468D01*
X426524Y224396D01*
X426473Y224328D01*
X426452Y224274D01*
X426423Y224223D01*
X426402Y224142D01*
X426372Y224063D01*
X426367Y224004D01*
X426353Y223948D01*
X426355Y223863D01*
X426348Y223779D01*
X426360Y223722D01*
X426362Y223663D01*
X426388Y223583D01*
X426404Y223501D01*
X426431Y223449D01*
X426449Y223393D01*
X426489Y223337D01*
X426535Y223248D01*
X426604Y223176D01*
X426644Y223120D01*
X427102Y222662D01*
X427102Y218663D01*
X424274Y215836D01*
X420276Y215836D01*
X419166Y216945D01*
X419143Y216963D01*
X419124Y216985D01*
X419030Y217048D01*
X418939Y217116D01*
X418912Y217126D01*
X418887Y217143D01*
X418779Y217177D01*
X418674Y217217D01*
X418644Y217220D01*
X418616Y217229D01*
X418503Y217231D01*
X418390Y217241D01*
X418362Y217235D01*
X418332Y217236D01*
X418223Y217207D01*
X418111Y217185D01*
X418085Y217171D01*
X418057Y217164D01*
X417960Y217106D01*
X417859Y217054D01*
X417838Y217034D01*
X417813Y217019D01*
X417735Y216936D01*
X417653Y216858D01*
X417638Y216833D01*
X417618Y216811D01*
X417567Y216711D01*
X417509Y216613D01*
X417502Y216584D01*
X417489Y216558D01*
X417476Y216481D01*
X417439Y216337D01*
X417441Y216275D01*
X417433Y216227D01*
X417433Y205399D01*
X416689Y204654D01*
X405636Y204654D01*
G37*
%LPD*%
%LPC*%
G36*
X385351Y423798D02*
X385351Y423798D01*
X382523Y426626D01*
X382523Y430624D01*
X385351Y433452D01*
X389349Y433452D01*
X389807Y432994D01*
X389854Y432959D01*
X389894Y432916D01*
X389967Y432874D01*
X390034Y432823D01*
X390089Y432802D01*
X390139Y432773D01*
X390221Y432752D01*
X390300Y432722D01*
X390358Y432717D01*
X390415Y432703D01*
X390499Y432705D01*
X390583Y432698D01*
X390641Y432710D01*
X390699Y432712D01*
X390779Y432738D01*
X390862Y432754D01*
X390914Y432781D01*
X390970Y432799D01*
X391026Y432839D01*
X391114Y432885D01*
X391187Y432954D01*
X391243Y432994D01*
X391701Y433452D01*
X395699Y433452D01*
X398527Y430624D01*
X398527Y426626D01*
X395699Y423798D01*
X391701Y423798D01*
X391243Y424256D01*
X391196Y424291D01*
X391156Y424334D01*
X391083Y424376D01*
X391016Y424427D01*
X390961Y424448D01*
X390911Y424477D01*
X390829Y424498D01*
X390750Y424528D01*
X390692Y424533D01*
X390635Y424547D01*
X390551Y424545D01*
X390467Y424552D01*
X390409Y424540D01*
X390351Y424538D01*
X390271Y424512D01*
X390188Y424496D01*
X390136Y424469D01*
X390080Y424451D01*
X390024Y424411D01*
X389936Y424365D01*
X389863Y424296D01*
X389807Y424256D01*
X389349Y423798D01*
X385351Y423798D01*
G37*
%LPD*%
%LPC*%
G36*
X385351Y392048D02*
X385351Y392048D01*
X382523Y394876D01*
X382523Y398874D01*
X385351Y401702D01*
X389349Y401702D01*
X389807Y401244D01*
X389854Y401209D01*
X389894Y401166D01*
X389967Y401124D01*
X390034Y401073D01*
X390089Y401052D01*
X390139Y401023D01*
X390221Y401002D01*
X390300Y400972D01*
X390358Y400967D01*
X390415Y400953D01*
X390499Y400955D01*
X390583Y400948D01*
X390641Y400960D01*
X390699Y400962D01*
X390779Y400988D01*
X390862Y401004D01*
X390914Y401031D01*
X390970Y401049D01*
X391026Y401089D01*
X391114Y401135D01*
X391187Y401204D01*
X391243Y401244D01*
X391701Y401702D01*
X395699Y401702D01*
X398527Y398874D01*
X398527Y394876D01*
X395699Y392048D01*
X391701Y392048D01*
X391243Y392506D01*
X391196Y392541D01*
X391156Y392584D01*
X391083Y392626D01*
X391016Y392677D01*
X390961Y392698D01*
X390911Y392727D01*
X390829Y392748D01*
X390750Y392778D01*
X390692Y392783D01*
X390635Y392797D01*
X390551Y392795D01*
X390467Y392802D01*
X390409Y392790D01*
X390351Y392788D01*
X390271Y392762D01*
X390188Y392746D01*
X390136Y392719D01*
X390080Y392701D01*
X390024Y392661D01*
X389936Y392615D01*
X389863Y392546D01*
X389807Y392506D01*
X389349Y392048D01*
X385351Y392048D01*
G37*
%LPD*%
%LPC*%
G36*
X410751Y376173D02*
X410751Y376173D01*
X407923Y379001D01*
X407923Y382999D01*
X410751Y385827D01*
X414749Y385827D01*
X415207Y385369D01*
X415254Y385334D01*
X415294Y385291D01*
X415367Y385249D01*
X415434Y385198D01*
X415489Y385177D01*
X415539Y385148D01*
X415621Y385127D01*
X415700Y385097D01*
X415758Y385092D01*
X415815Y385078D01*
X415899Y385080D01*
X415983Y385073D01*
X416041Y385085D01*
X416099Y385087D01*
X416179Y385113D01*
X416262Y385129D01*
X416314Y385156D01*
X416370Y385174D01*
X416426Y385214D01*
X416514Y385260D01*
X416587Y385329D01*
X416643Y385369D01*
X417101Y385827D01*
X421099Y385827D01*
X423927Y382999D01*
X423927Y379001D01*
X421099Y376173D01*
X417101Y376173D01*
X416643Y376631D01*
X416596Y376666D01*
X416556Y376709D01*
X416483Y376751D01*
X416416Y376802D01*
X416361Y376823D01*
X416311Y376852D01*
X416229Y376873D01*
X416150Y376903D01*
X416092Y376908D01*
X416035Y376922D01*
X415951Y376920D01*
X415867Y376927D01*
X415809Y376915D01*
X415751Y376913D01*
X415671Y376887D01*
X415588Y376871D01*
X415536Y376844D01*
X415480Y376826D01*
X415424Y376786D01*
X415336Y376740D01*
X415263Y376671D01*
X415207Y376631D01*
X414749Y376173D01*
X410751Y376173D01*
G37*
%LPD*%
%LPC*%
G36*
X383763Y201548D02*
X383763Y201548D01*
X380936Y204376D01*
X380936Y208374D01*
X383763Y211202D01*
X387762Y211202D01*
X390589Y208374D01*
X390589Y204376D01*
X387762Y201548D01*
X383763Y201548D01*
G37*
%LPD*%
D10*
X340443Y29083D02*
X336545Y29083D01*
X334596Y31032D01*
X334596Y34930D01*
X336545Y36879D01*
X340443Y36879D01*
X342392Y34930D01*
X342392Y31032D01*
X340443Y29083D01*
X328749Y29083D02*
X324851Y29083D01*
X328749Y29083D02*
X330698Y31032D01*
X330698Y34930D01*
X328749Y36879D01*
X324851Y36879D01*
X322902Y34930D01*
X322902Y32981D01*
X330698Y32981D01*
X319004Y40777D02*
X317055Y40777D01*
X317055Y29083D01*
X319004Y29083D02*
X315106Y29083D01*
X311208Y25185D02*
X311208Y36879D01*
X305361Y36879D01*
X303412Y34930D01*
X303412Y31032D01*
X305361Y29083D01*
X311208Y29083D01*
X299514Y29083D02*
X299514Y36879D01*
X299514Y32981D02*
X295616Y36879D01*
X293667Y36879D01*
X289769Y36879D02*
X287820Y36879D01*
X287820Y29083D01*
X289769Y29083D02*
X285871Y29083D01*
X287820Y40777D02*
X287820Y42726D01*
X281973Y36879D02*
X281973Y29083D01*
X281973Y36879D02*
X276126Y36879D01*
X274177Y34930D01*
X274177Y29083D01*
X270279Y36879D02*
X262483Y36879D01*
X270279Y29083D01*
X262483Y29083D01*
X258585Y29083D02*
X258585Y31032D01*
X256636Y31032D01*
X256636Y29083D01*
X258585Y29083D01*
X250789Y29083D02*
X246891Y29083D01*
X244942Y31032D01*
X244942Y34930D01*
X246891Y36879D01*
X250789Y36879D01*
X252738Y34930D01*
X252738Y31032D01*
X250789Y29083D01*
X241044Y29083D02*
X241044Y36879D01*
X241044Y32981D02*
X237146Y36879D01*
X235197Y36879D01*
X227401Y25185D02*
X225452Y25185D01*
X223503Y27134D01*
X223503Y36879D01*
X229350Y36879D01*
X231299Y34930D01*
X231299Y31032D01*
X229350Y29083D01*
X223503Y29083D01*
D11*
X411163Y222925D03*
X360363Y222925D03*
D12*
X385763Y323925D03*
D13*
X411163Y263550D03*
X411163Y282550D03*
D14*
X345000Y484925D03*
X315000Y484925D03*
X285000Y484925D03*
X255000Y484925D03*
X225000Y484925D03*
X195000Y484925D03*
X165000Y484925D03*
X135000Y484925D03*
X105000Y484925D03*
X330000Y459925D03*
X300000Y459925D03*
X270000Y459925D03*
X240000Y459925D03*
X210000Y459925D03*
X180000Y459925D03*
X150000Y459925D03*
X120000Y459925D03*
X330000Y424925D03*
X300000Y424925D03*
X270000Y424925D03*
X240000Y424925D03*
X210000Y424925D03*
X180000Y424925D03*
X150000Y424925D03*
X120000Y424925D03*
X345000Y399925D03*
X315000Y399925D03*
X285000Y399925D03*
X255000Y399925D03*
X225000Y399925D03*
X195000Y399925D03*
X165000Y399925D03*
X135000Y399925D03*
X105000Y399925D03*
D15*
X409050Y164138D03*
X370950Y164138D03*
X396350Y164138D03*
X383650Y164138D03*
X409050Y65713D03*
X370950Y65713D03*
X396350Y65713D03*
X383650Y65713D03*
D16*
X132398Y327025D03*
X147638Y327025D03*
X162878Y327025D03*
D17*
X190500Y241300D03*
X215900Y241300D03*
X190500Y215900D03*
X215900Y215900D03*
X190500Y190500D03*
X215900Y190500D03*
X190500Y165100D03*
X215900Y165100D03*
X190500Y139700D03*
X215900Y139700D03*
X190500Y114300D03*
X215900Y114300D03*
X190500Y88900D03*
X215900Y88900D03*
D18*
X371475Y12700D03*
X371475Y38100D03*
X396875Y12700D03*
X396875Y38100D03*
X422275Y12700D03*
X422275Y38100D03*
D19*
X269880Y283650D03*
X263530Y283650D03*
X257180Y283650D03*
X250830Y283650D03*
X244470Y283650D03*
X238120Y283650D03*
X231770Y283650D03*
X225420Y283650D03*
X225420Y338650D03*
X231770Y338650D03*
X238120Y338650D03*
X244470Y338650D03*
X250830Y338650D03*
X257180Y338650D03*
X263530Y338650D03*
X269880Y338650D03*
D20*
X77788Y268288D03*
X93663Y306388D03*
X142875Y198438D03*
X169863Y174625D03*
X120650Y31750D03*
X114300Y31750D03*
X90488Y57150D03*
X90488Y49213D03*
X80963Y49213D03*
X36513Y295275D03*
X41275Y392113D03*
X136525Y295275D03*
X9525Y249238D03*
X19050Y131763D03*
X19050Y120650D03*
X19050Y142875D03*
X19050Y153988D03*
X17463Y46038D03*
X7938Y46038D03*
X26988Y46038D03*
X19050Y109538D03*
X152400Y123825D03*
X152400Y90488D03*
X327025Y44450D03*
X212725Y31750D03*
X206375Y38100D03*
X305594Y317500D03*
X318294Y304800D03*
X280988Y376238D03*
X200025Y301625D03*
X173038Y301625D03*
X104775Y357188D03*
X73025Y357188D03*
X44450Y363538D03*
X341313Y242888D03*
X290513Y204788D03*
X274638Y249238D03*
X374650Y268288D03*
X374650Y261938D03*
X44450Y357188D03*
X73025Y363538D03*
X104775Y363538D03*
X141288Y349250D03*
X173038Y307975D03*
X311150Y261938D03*
X280988Y11113D03*
X233363Y46038D03*
X249238Y71438D03*
X200025Y38100D03*
X200025Y31750D03*
X80963Y57150D03*
X238125Y152400D03*
X330200Y373063D03*
X165100Y346075D03*
X228600Y206375D03*
X411163Y134938D03*
X12700Y79375D03*
X169863Y217488D03*
X147638Y241300D03*
X147638Y252413D03*
X41275Y398463D03*
X141288Y355600D03*
X165100Y352425D03*
X73025Y369888D03*
X104775Y369888D03*
X200025Y307975D03*
X200025Y314325D03*
X441325Y34925D03*
X387350Y82550D03*
X350838Y22225D03*
X350838Y33338D03*
X423863Y463550D03*
X430213Y463550D03*
X19050Y444500D03*
X25400Y444500D03*
X44450Y369888D03*
X412750Y381000D03*
X419100Y381000D03*
D21*
X383650Y78313D02*
X383650Y65713D01*
X383650Y78313D02*
X387350Y82550D01*
D20*
X280988Y146050D03*
X318294Y317500D03*
X305594Y304800D03*
X422275Y227013D03*
X422275Y220663D03*
X441325Y111125D03*
X168275Y112713D03*
X276225Y46038D03*
X9525Y238125D03*
X9525Y227013D03*
X238125Y322263D03*
D22*
X238120Y322268D02*
X238120Y338650D01*
X238120Y322268D02*
X238125Y322263D01*
X257175Y283655D02*
X257180Y283650D01*
D20*
X257175Y273050D03*
D22*
X257175Y283655D01*
D20*
X122238Y131763D03*
X122238Y117475D03*
X61913Y133350D03*
D22*
X269880Y283650D02*
X269880Y290508D01*
X268288Y292100D01*
X258763Y292100D01*
X257180Y290518D02*
X257180Y283650D01*
X257180Y290518D02*
X258763Y292100D01*
X250830Y338650D02*
X250830Y346070D01*
X247650Y349250D01*
X241300Y349250D01*
X238120Y346070D02*
X238120Y338650D01*
X238120Y346070D02*
X241300Y349250D01*
D20*
X206375Y44450D03*
X212725Y44450D03*
X120650Y47625D03*
X114300Y47625D03*
X200025Y44450D03*
X212725Y38100D03*
X206375Y31750D03*
X109538Y225425D03*
X52388Y231775D03*
X109538Y217488D03*
X296863Y252413D03*
X274638Y220663D03*
X174625Y31750D03*
X180975Y31750D03*
X168275Y38100D03*
X168275Y31750D03*
X174625Y38100D03*
X180975Y38100D03*
X147638Y284163D03*
X257175Y233363D03*
X411163Y125413D03*
X322263Y11113D03*
X385763Y206375D03*
X396875Y82550D03*
X250825Y141288D03*
X312738Y74613D03*
X176213Y233363D03*
D21*
X396350Y81488D02*
X396350Y65713D01*
X396350Y81488D02*
X396875Y82550D01*
D20*
X136525Y312738D03*
D22*
X136525Y322898D01*
X132398Y327025D01*
D20*
X280988Y155575D03*
X61913Y147638D03*
X350838Y44450D03*
X247650Y322263D03*
D22*
X257180Y331793D02*
X257180Y338650D01*
X257180Y331793D02*
X247650Y322263D01*
D20*
X231775Y328613D03*
X277813Y274638D03*
X333375Y11113D03*
X441325Y11113D03*
D21*
X231775Y338645D02*
X231770Y338650D01*
D20*
X387350Y396875D03*
X393700Y396875D03*
X168275Y44450D03*
X174625Y44450D03*
X180975Y44450D03*
D21*
X231775Y328613D02*
X231775Y338645D01*
D20*
X69850Y293688D03*
X88900Y69850D03*
D23*
X69850Y260350D02*
X69850Y293688D01*
X69850Y260350D02*
X84138Y246063D01*
X84138Y234950D01*
X80963Y231775D01*
X74613Y231775D01*
X60325Y217488D01*
X60325Y207963D01*
X71438Y196850D01*
X71438Y128588D01*
X63500Y120650D01*
X63500Y95250D01*
X88900Y69850D01*
D20*
X66675Y249238D03*
D23*
X66675Y257175D01*
X52388Y271463D01*
X39688Y271463D01*
X30163Y280988D01*
X30163Y303213D01*
X57150Y330200D01*
X57150Y411163D01*
X90488Y444500D01*
X134575Y444500D01*
X150000Y459925D01*
D20*
X52388Y306388D03*
D23*
X52388Y319088D01*
X61913Y328613D01*
X61913Y409575D01*
X92075Y439738D01*
X150813Y439738D01*
X165100Y454025D01*
X165100Y465138D01*
X174625Y474663D01*
X184738Y474663D01*
X195000Y484925D01*
D20*
X61913Y306388D03*
D23*
X61913Y322263D01*
X66675Y327025D01*
X66675Y407988D01*
X73025Y414338D01*
X111125Y414338D01*
X115888Y409575D01*
X125413Y409575D01*
X140763Y424925D02*
X150000Y424925D01*
X140763Y424925D02*
X125413Y409575D01*
D20*
X49213Y258763D03*
X22225Y292100D03*
D23*
X22225Y301625D01*
X52388Y331788D01*
X52388Y412750D01*
X114300Y474663D01*
X125413Y474663D01*
X130175Y469900D01*
X139700Y469900D01*
X146050Y476250D01*
X156325Y476250D01*
X165000Y484925D01*
D20*
X79375Y111125D03*
X71438Y212725D03*
X303213Y77788D03*
D21*
X320675Y95250D01*
X320675Y139700D01*
X327025Y146050D01*
X327025Y196850D01*
X330200Y200025D01*
X330200Y222250D01*
X341313Y233363D01*
D20*
X341313Y233363D03*
D21*
X300038Y80963D02*
X303213Y77788D01*
X300038Y80963D02*
X266700Y80963D01*
X255588Y92075D01*
X230188Y92075D01*
X220663Y101600D01*
X209550Y101600D01*
X203200Y107950D01*
X203200Y127000D01*
X190500Y139700D01*
X161925Y168275D01*
X85725Y168275D01*
X79375Y161925D02*
X79375Y111125D01*
X79375Y161925D02*
X85725Y168275D01*
X85725Y198438D01*
X71438Y212725D01*
D20*
X11113Y377825D03*
D23*
X65088Y234950D02*
X65088Y231775D01*
X65088Y234950D02*
X55563Y244475D01*
X52388Y244475D01*
X11113Y285750D01*
X11113Y377825D01*
D20*
X65088Y231775D03*
X55563Y250825D03*
X77788Y238125D03*
D23*
X68263Y238125D02*
X55563Y250825D01*
X68263Y238125D02*
X77788Y238125D01*
D20*
X17463Y319088D03*
D23*
X55563Y261938D02*
X55563Y250825D01*
X55563Y261938D02*
X50800Y266700D01*
X38100Y266700D01*
X15875Y288925D01*
X15875Y317500D01*
X17463Y319088D01*
D20*
X98425Y209550D03*
D21*
X100013Y207963D02*
X147638Y207963D01*
X100013Y207963D02*
X98425Y209550D01*
X147638Y207963D02*
X190500Y165100D01*
D20*
X92075Y215900D03*
X130175Y196850D03*
D21*
X101600Y196850D01*
X92075Y206375D01*
X92075Y215900D01*
D20*
X84138Y220663D03*
D21*
X85725Y222250D01*
X95250Y222250D01*
X106363Y211138D01*
X149225Y211138D01*
X157163Y203200D01*
X177800Y203200D01*
X190500Y190500D01*
D20*
X49213Y166688D03*
D23*
X65088Y215900D02*
X76200Y227013D01*
X82550Y227013D01*
X88900Y233363D01*
X88900Y257175D01*
D20*
X88900Y257175D03*
D23*
X65088Y215900D02*
X65088Y209550D01*
X76200Y198438D01*
X76200Y123825D01*
X69850Y117475D01*
D20*
X69850Y117475D03*
X69850Y98425D03*
X328613Y76200D03*
D21*
X317500Y65088D01*
X300038Y65088D01*
X290513Y55563D01*
X206375Y55563D01*
X200025Y61913D01*
X106363Y61913D01*
X69850Y98425D01*
D20*
X336550Y285750D03*
X336550Y188913D03*
X341313Y254000D03*
X342900Y195263D03*
X233363Y98425D03*
X311150Y204788D03*
D21*
X317500Y141288D02*
X317500Y96838D01*
X317500Y141288D02*
X323850Y147638D01*
X323850Y192088D01*
X311150Y204788D01*
X304800Y84138D02*
X268288Y84138D01*
X254000Y98425D01*
X233363Y98425D01*
X304800Y84138D02*
X317500Y96838D01*
D20*
X141288Y230188D03*
D21*
X141288Y258763D01*
X117475Y282575D01*
X117475Y361950D01*
X150813Y395288D01*
X150813Y406400D01*
X165100Y420688D01*
X165100Y445025D01*
X180000Y459925D01*
D20*
X242888Y254000D03*
D21*
X242888Y260350D01*
X233363Y269875D01*
X219075Y269875D01*
X207963Y280988D01*
X207963Y406400D01*
X195263Y419100D01*
X195263Y445188D01*
X210000Y459925D01*
D20*
X69850Y107950D03*
X336550Y201613D03*
D21*
X201613Y65088D02*
X112713Y65088D01*
X201613Y65088D02*
X207963Y58738D01*
X288925Y58738D01*
X298450Y68263D01*
X315913Y68263D01*
X320675Y73025D01*
X320675Y90488D01*
X323850Y93663D01*
X323850Y138113D01*
X330200Y144463D01*
X330200Y195263D01*
X336550Y201613D01*
X112713Y65088D02*
X69850Y107950D01*
D20*
X173038Y196850D03*
X323850Y204788D03*
D21*
X314325Y142875D02*
X314325Y98425D01*
X314325Y142875D02*
X320675Y149225D01*
X320675Y182563D01*
X304800Y198438D01*
X304800Y207963D01*
X307975Y211138D01*
X317500Y211138D01*
X323850Y204788D01*
X314325Y98425D02*
X303213Y87313D01*
X269875Y87313D01*
X255588Y101600D01*
X247650Y101600D01*
X220663Y128588D01*
X209550Y128588D01*
X203200Y134938D01*
X203200Y173038D01*
X173038Y188913D02*
X173038Y196850D01*
X173038Y188913D02*
X184150Y177800D01*
X198438Y177800D01*
X203200Y173038D01*
X258763Y246063D02*
X258763Y257175D01*
X258763Y246063D02*
X266700Y238125D01*
X266700Y212725D01*
X317500Y161925D01*
X317500Y150813D01*
X311150Y144463D01*
X311150Y103188D01*
X304800Y96838D01*
D20*
X304800Y96838D03*
X250825Y111125D03*
D21*
X298450Y90488D02*
X304800Y96838D01*
X298450Y90488D02*
X271463Y90488D01*
X250825Y111125D01*
X250830Y265108D02*
X250830Y283650D01*
X250830Y265108D02*
X258763Y257175D01*
D20*
X249238Y174625D03*
X252413Y254000D03*
D21*
X252413Y255588D01*
X234950Y273050D01*
X220663Y273050D01*
X211138Y282575D01*
X211138Y423788D01*
X210000Y424925D01*
D20*
X168275Y263525D03*
D21*
X141288Y263525D01*
X120650Y284163D01*
X120650Y360363D01*
X146050Y385763D01*
X171450Y385763D01*
X180000Y394313D01*
X180000Y424925D01*
D20*
X282575Y284163D03*
D21*
X285750Y287338D01*
X285750Y322263D01*
X279400Y328613D01*
X279400Y365125D01*
X269875Y404813D02*
X260350Y414338D01*
X250588Y414338D01*
X240000Y424925D01*
X269875Y374650D02*
X279400Y365125D01*
X269875Y374650D02*
X269875Y404813D01*
D20*
X265113Y250825D03*
X277813Y211138D03*
D21*
X265113Y244475D02*
X265113Y250825D01*
X265113Y244475D02*
X280988Y228600D01*
X280988Y214313D01*
X277813Y211138D01*
D20*
X42863Y306388D03*
D21*
X49213Y300038D01*
X85725Y300038D01*
X117475Y268288D01*
X117475Y230188D01*
X133350Y214313D01*
X150813Y214313D01*
X158750Y206375D01*
X184150Y206375D01*
X187325Y203200D01*
X222250Y203200D01*
X225425Y200025D01*
X246063Y200025D01*
X288925Y157163D01*
X288925Y127000D01*
D20*
X288925Y127000D03*
X71438Y319088D03*
D21*
X120650Y269875D01*
X120650Y231775D01*
X131763Y220663D01*
X158750Y220663D01*
X161925Y223838D01*
X182563Y223838D01*
X185738Y227013D01*
X234950Y227013D01*
X246063Y215900D01*
X246063Y204788D01*
X292100Y158750D01*
X292100Y133350D01*
X295275Y130175D01*
X295275Y125413D01*
X290513Y120650D01*
X282575Y120650D01*
D20*
X282575Y120650D03*
X25400Y357188D03*
X25400Y350838D03*
D24*
X25400Y357188D01*
X25400Y405325D01*
X105000Y484925D01*
D25*
X438150Y415925D02*
X438150Y409575D01*
X438150Y415925D02*
X369150Y484925D01*
D20*
X438150Y403225D03*
X438150Y409575D03*
D25*
X369150Y484925D02*
X345000Y484925D01*
D20*
X257175Y322263D03*
D21*
X263530Y328618D02*
X263530Y338650D01*
X263530Y328618D02*
X257175Y322263D01*
D20*
X266700Y322263D03*
D21*
X269880Y325443D02*
X269880Y338650D01*
X269880Y325443D02*
X266700Y322263D01*
D20*
X288925Y334963D03*
X330200Y344488D03*
D26*
X298450Y344488D02*
X288925Y334963D01*
X298450Y344488D02*
X330200Y344488D01*
D20*
X361950Y261938D03*
X396875Y252413D03*
D23*
X371475Y252413D01*
X361950Y261938D01*
D27*
X385763Y323925D02*
X381000Y333763D01*
D28*
X345000Y399925D01*
D25*
X411163Y296938D02*
X411163Y282550D01*
X411163Y296938D02*
X385763Y323925D01*
D20*
X160338Y288925D03*
D21*
X190500Y258763D01*
X220663Y258763D01*
X247650Y231775D01*
X247650Y228600D01*
X255588Y220663D01*
X255588Y209550D01*
X301625Y163513D01*
X301625Y138113D01*
X304800Y134938D01*
X304800Y115888D01*
X285750Y96838D01*
D20*
X285750Y96838D03*
X230188Y263525D03*
D21*
X230188Y258763D01*
X249238Y239713D01*
X260350Y239713D01*
X263525Y236538D01*
X263525Y211138D01*
X314325Y160338D01*
X314325Y152400D01*
X307975Y146050D01*
X307975Y109538D01*
X295275Y96838D01*
D20*
X295275Y96838D03*
X198438Y265113D03*
D21*
X219075Y265113D01*
X250825Y233363D01*
X250825Y230188D01*
X258763Y222250D01*
X258763Y211138D01*
X307975Y161925D01*
X307975Y155575D01*
D20*
X307975Y155575D03*
X103188Y319088D03*
D21*
X103188Y292100D01*
X123825Y271463D01*
X123825Y233363D01*
X133350Y223838D01*
X157163Y223838D01*
X160338Y227013D01*
X180975Y227013D01*
X184150Y230188D01*
X236538Y230188D01*
X249238Y217488D01*
X249238Y206375D01*
X295275Y160338D01*
X295275Y134938D01*
X298450Y131763D01*
X298450Y123825D01*
X288925Y114300D01*
D20*
X288925Y114300D03*
X127000Y309563D03*
D21*
X127000Y282575D01*
X139700Y269875D01*
X174625Y269875D01*
X188913Y255588D01*
X219075Y255588D01*
X244475Y230188D01*
X244475Y227013D01*
X252413Y219075D01*
X252413Y207963D01*
X298450Y161925D01*
X298450Y136525D01*
X301625Y133350D01*
X301625Y117475D01*
X290513Y106363D01*
X284163Y106363D01*
D20*
X284163Y106363D03*
D21*
X239713Y363538D02*
X239713Y404813D01*
X239713Y363538D02*
X225420Y349245D01*
X239713Y404813D02*
X225425Y419100D01*
X225425Y431800D01*
X234950Y441325D01*
X251400Y441325D01*
X270000Y459925D01*
D20*
X277813Y293688D03*
D21*
X252413Y298450D02*
X225420Y325443D01*
X252413Y298450D02*
X273050Y298450D01*
X277813Y293688D01*
X225420Y338650D02*
X225420Y349245D01*
X225420Y338650D02*
X225420Y325443D01*
D20*
X288925Y274638D03*
D21*
X288925Y282575D01*
X288925Y323850D01*
X282575Y330200D01*
X282575Y339725D01*
X298450Y355600D01*
X298450Y406400D01*
X285750Y419100D01*
X285750Y445600D01*
X300000Y459925D01*
D20*
X300038Y274638D03*
X314325Y174625D03*
D21*
X304800Y269875D02*
X300038Y274638D01*
X304800Y269875D02*
X304800Y249238D01*
X301625Y246063D01*
X301625Y196850D01*
X314325Y184150D01*
X314325Y174625D01*
D20*
X244475Y273050D03*
D21*
X244470Y273055D02*
X244470Y283650D01*
X244470Y273055D02*
X244475Y273050D01*
D20*
X288925Y260350D03*
X307975Y180975D03*
D21*
X288925Y250825D02*
X288925Y260350D01*
X288925Y250825D02*
X298450Y241300D01*
X298450Y190500D01*
X307975Y180975D01*
D20*
X150813Y376238D03*
D22*
X150813Y330200D02*
X147638Y327025D01*
X150813Y330200D02*
X150813Y376238D01*
D20*
X338138Y76200D03*
D21*
X323850Y61913D01*
X301625Y61913D01*
X292100Y52388D01*
X204788Y52388D01*
X198438Y58738D01*
X104775Y58738D01*
X100013Y63500D01*
X85725Y63500D01*
X60325Y88900D01*
X60325Y122238D01*
X68263Y130175D01*
X68263Y195263D01*
X57150Y206375D01*
X57150Y220663D01*
X58738Y222250D01*
X58738Y234950D01*
X53975Y239713D01*
X49213Y239713D01*
X4763Y284163D01*
X4763Y409575D01*
D20*
X7938Y412750D03*
D21*
X4763Y409575D01*
X336550Y179388D02*
X369888Y179388D01*
D20*
X369888Y179388D03*
X336550Y179388D03*
X112713Y158750D03*
D21*
X95250Y141288D01*
X95250Y92075D01*
X115888Y71438D01*
X219075Y71438D01*
D20*
X220663Y69850D03*
D21*
X219075Y71438D01*
D20*
X103188Y158750D03*
D21*
X92075Y147638D01*
X92075Y90488D01*
X114300Y68263D01*
X207963Y68263D01*
X211138Y65088D01*
D20*
X211138Y65088D03*
D21*
X370950Y65713D02*
X371475Y68363D01*
X370950Y65713D02*
X370950Y54500D01*
X374650Y50800D01*
X409575Y50800D01*
X422275Y38100D01*
D20*
X42863Y17463D03*
X49213Y17463D03*
X55563Y17463D03*
X55563Y9525D03*
X49213Y9525D03*
X42863Y9525D03*
X179388Y334963D03*
D22*
X169863Y334963D01*
X162878Y327978D02*
X162878Y327025D01*
X162878Y327978D02*
X169863Y334963D01*
D20*
X277813Y309563D03*
X387350Y428625D03*
X393700Y428625D03*
D25*
X411163Y247650D02*
X411163Y222925D01*
X411163Y247650D02*
X411163Y263550D01*
D20*
X411163Y247650D03*
X336550Y136525D03*
X336550Y146050D03*
X103188Y98425D03*
D21*
X180975Y98425D02*
X190500Y88900D01*
X180975Y98425D02*
X119063Y98425D01*
X115888Y95250D01*
X106363Y95250D01*
X103188Y98425D01*
D20*
X112713Y101600D03*
D21*
X203200Y101600D01*
X215900Y88900D01*
D20*
X412750Y412750D03*
X419100Y412750D03*
M02*
