G04 EAGLE Gerber RS-274X export*
G75*
%MOMM*%
%FSLAX34Y34*%
%LPD*%
%INBoard Outline*%
%IPPOS*%
%AMOC8*
5,1,8,0,0,1.08239X$1,22.5*%
G01*
%ADD10C,0.127000*%
%ADD11C,0.000000*%
%ADD12C,0.254000*%


D10*
X0Y0D02*
X450000Y0D01*
X450000Y580000D01*
X0Y580000D01*
X0Y0D01*
D11*
X401000Y549925D02*
X401005Y550330D01*
X401020Y550735D01*
X401045Y551139D01*
X401079Y551542D01*
X401124Y551945D01*
X401179Y552346D01*
X401243Y552746D01*
X401317Y553144D01*
X401401Y553540D01*
X401494Y553934D01*
X401598Y554326D01*
X401710Y554715D01*
X401833Y555101D01*
X401965Y555484D01*
X402106Y555863D01*
X402256Y556239D01*
X402416Y556611D01*
X402584Y556980D01*
X402762Y557344D01*
X402948Y557703D01*
X403144Y558058D01*
X403347Y558408D01*
X403560Y558752D01*
X403781Y559092D01*
X404010Y559426D01*
X404247Y559754D01*
X404492Y560076D01*
X404745Y560392D01*
X405006Y560702D01*
X405274Y561006D01*
X405550Y561302D01*
X405833Y561592D01*
X406123Y561875D01*
X406419Y562151D01*
X406723Y562419D01*
X407033Y562680D01*
X407349Y562933D01*
X407671Y563178D01*
X407999Y563415D01*
X408333Y563644D01*
X408673Y563865D01*
X409017Y564078D01*
X409367Y564281D01*
X409722Y564477D01*
X410081Y564663D01*
X410445Y564841D01*
X410814Y565009D01*
X411186Y565169D01*
X411562Y565319D01*
X411941Y565460D01*
X412324Y565592D01*
X412710Y565715D01*
X413099Y565827D01*
X413491Y565931D01*
X413885Y566024D01*
X414281Y566108D01*
X414679Y566182D01*
X415079Y566246D01*
X415480Y566301D01*
X415883Y566346D01*
X416286Y566380D01*
X416690Y566405D01*
X417095Y566420D01*
X417500Y566425D01*
X417905Y566420D01*
X418310Y566405D01*
X418714Y566380D01*
X419117Y566346D01*
X419520Y566301D01*
X419921Y566246D01*
X420321Y566182D01*
X420719Y566108D01*
X421115Y566024D01*
X421509Y565931D01*
X421901Y565827D01*
X422290Y565715D01*
X422676Y565592D01*
X423059Y565460D01*
X423438Y565319D01*
X423814Y565169D01*
X424186Y565009D01*
X424555Y564841D01*
X424919Y564663D01*
X425278Y564477D01*
X425633Y564281D01*
X425983Y564078D01*
X426327Y563865D01*
X426667Y563644D01*
X427001Y563415D01*
X427329Y563178D01*
X427651Y562933D01*
X427967Y562680D01*
X428277Y562419D01*
X428581Y562151D01*
X428877Y561875D01*
X429167Y561592D01*
X429450Y561302D01*
X429726Y561006D01*
X429994Y560702D01*
X430255Y560392D01*
X430508Y560076D01*
X430753Y559754D01*
X430990Y559426D01*
X431219Y559092D01*
X431440Y558752D01*
X431653Y558408D01*
X431856Y558058D01*
X432052Y557703D01*
X432238Y557344D01*
X432416Y556980D01*
X432584Y556611D01*
X432744Y556239D01*
X432894Y555863D01*
X433035Y555484D01*
X433167Y555101D01*
X433290Y554715D01*
X433402Y554326D01*
X433506Y553934D01*
X433599Y553540D01*
X433683Y553144D01*
X433757Y552746D01*
X433821Y552346D01*
X433876Y551945D01*
X433921Y551542D01*
X433955Y551139D01*
X433980Y550735D01*
X433995Y550330D01*
X434000Y549925D01*
X433995Y549520D01*
X433980Y549115D01*
X433955Y548711D01*
X433921Y548308D01*
X433876Y547905D01*
X433821Y547504D01*
X433757Y547104D01*
X433683Y546706D01*
X433599Y546310D01*
X433506Y545916D01*
X433402Y545524D01*
X433290Y545135D01*
X433167Y544749D01*
X433035Y544366D01*
X432894Y543987D01*
X432744Y543611D01*
X432584Y543239D01*
X432416Y542870D01*
X432238Y542506D01*
X432052Y542147D01*
X431856Y541792D01*
X431653Y541442D01*
X431440Y541098D01*
X431219Y540758D01*
X430990Y540424D01*
X430753Y540096D01*
X430508Y539774D01*
X430255Y539458D01*
X429994Y539148D01*
X429726Y538844D01*
X429450Y538548D01*
X429167Y538258D01*
X428877Y537975D01*
X428581Y537699D01*
X428277Y537431D01*
X427967Y537170D01*
X427651Y536917D01*
X427329Y536672D01*
X427001Y536435D01*
X426667Y536206D01*
X426327Y535985D01*
X425983Y535772D01*
X425633Y535569D01*
X425278Y535373D01*
X424919Y535187D01*
X424555Y535009D01*
X424186Y534841D01*
X423814Y534681D01*
X423438Y534531D01*
X423059Y534390D01*
X422676Y534258D01*
X422290Y534135D01*
X421901Y534023D01*
X421509Y533919D01*
X421115Y533826D01*
X420719Y533742D01*
X420321Y533668D01*
X419921Y533604D01*
X419520Y533549D01*
X419117Y533504D01*
X418714Y533470D01*
X418310Y533445D01*
X417905Y533430D01*
X417500Y533425D01*
X417095Y533430D01*
X416690Y533445D01*
X416286Y533470D01*
X415883Y533504D01*
X415480Y533549D01*
X415079Y533604D01*
X414679Y533668D01*
X414281Y533742D01*
X413885Y533826D01*
X413491Y533919D01*
X413099Y534023D01*
X412710Y534135D01*
X412324Y534258D01*
X411941Y534390D01*
X411562Y534531D01*
X411186Y534681D01*
X410814Y534841D01*
X410445Y535009D01*
X410081Y535187D01*
X409722Y535373D01*
X409367Y535569D01*
X409017Y535772D01*
X408673Y535985D01*
X408333Y536206D01*
X407999Y536435D01*
X407671Y536672D01*
X407349Y536917D01*
X407033Y537170D01*
X406723Y537431D01*
X406419Y537699D01*
X406123Y537975D01*
X405833Y538258D01*
X405550Y538548D01*
X405274Y538844D01*
X405006Y539148D01*
X404745Y539458D01*
X404492Y539774D01*
X404247Y540096D01*
X404010Y540424D01*
X403781Y540758D01*
X403560Y541098D01*
X403347Y541442D01*
X403144Y541792D01*
X402948Y542147D01*
X402762Y542506D01*
X402584Y542870D01*
X402416Y543239D01*
X402256Y543611D01*
X402106Y543987D01*
X401965Y544366D01*
X401833Y544749D01*
X401710Y545135D01*
X401598Y545524D01*
X401494Y545916D01*
X401401Y546310D01*
X401317Y546706D01*
X401243Y547104D01*
X401179Y547504D01*
X401124Y547905D01*
X401079Y548308D01*
X401045Y548711D01*
X401020Y549115D01*
X401005Y549520D01*
X401000Y549925D01*
X16000Y549925D02*
X16005Y550330D01*
X16020Y550735D01*
X16045Y551139D01*
X16079Y551542D01*
X16124Y551945D01*
X16179Y552346D01*
X16243Y552746D01*
X16317Y553144D01*
X16401Y553540D01*
X16494Y553934D01*
X16598Y554326D01*
X16710Y554715D01*
X16833Y555101D01*
X16965Y555484D01*
X17106Y555863D01*
X17256Y556239D01*
X17416Y556611D01*
X17584Y556980D01*
X17762Y557344D01*
X17948Y557703D01*
X18144Y558058D01*
X18347Y558408D01*
X18560Y558752D01*
X18781Y559092D01*
X19010Y559426D01*
X19247Y559754D01*
X19492Y560076D01*
X19745Y560392D01*
X20006Y560702D01*
X20274Y561006D01*
X20550Y561302D01*
X20833Y561592D01*
X21123Y561875D01*
X21419Y562151D01*
X21723Y562419D01*
X22033Y562680D01*
X22349Y562933D01*
X22671Y563178D01*
X22999Y563415D01*
X23333Y563644D01*
X23673Y563865D01*
X24017Y564078D01*
X24367Y564281D01*
X24722Y564477D01*
X25081Y564663D01*
X25445Y564841D01*
X25814Y565009D01*
X26186Y565169D01*
X26562Y565319D01*
X26941Y565460D01*
X27324Y565592D01*
X27710Y565715D01*
X28099Y565827D01*
X28491Y565931D01*
X28885Y566024D01*
X29281Y566108D01*
X29679Y566182D01*
X30079Y566246D01*
X30480Y566301D01*
X30883Y566346D01*
X31286Y566380D01*
X31690Y566405D01*
X32095Y566420D01*
X32500Y566425D01*
X32905Y566420D01*
X33310Y566405D01*
X33714Y566380D01*
X34117Y566346D01*
X34520Y566301D01*
X34921Y566246D01*
X35321Y566182D01*
X35719Y566108D01*
X36115Y566024D01*
X36509Y565931D01*
X36901Y565827D01*
X37290Y565715D01*
X37676Y565592D01*
X38059Y565460D01*
X38438Y565319D01*
X38814Y565169D01*
X39186Y565009D01*
X39555Y564841D01*
X39919Y564663D01*
X40278Y564477D01*
X40633Y564281D01*
X40983Y564078D01*
X41327Y563865D01*
X41667Y563644D01*
X42001Y563415D01*
X42329Y563178D01*
X42651Y562933D01*
X42967Y562680D01*
X43277Y562419D01*
X43581Y562151D01*
X43877Y561875D01*
X44167Y561592D01*
X44450Y561302D01*
X44726Y561006D01*
X44994Y560702D01*
X45255Y560392D01*
X45508Y560076D01*
X45753Y559754D01*
X45990Y559426D01*
X46219Y559092D01*
X46440Y558752D01*
X46653Y558408D01*
X46856Y558058D01*
X47052Y557703D01*
X47238Y557344D01*
X47416Y556980D01*
X47584Y556611D01*
X47744Y556239D01*
X47894Y555863D01*
X48035Y555484D01*
X48167Y555101D01*
X48290Y554715D01*
X48402Y554326D01*
X48506Y553934D01*
X48599Y553540D01*
X48683Y553144D01*
X48757Y552746D01*
X48821Y552346D01*
X48876Y551945D01*
X48921Y551542D01*
X48955Y551139D01*
X48980Y550735D01*
X48995Y550330D01*
X49000Y549925D01*
X48995Y549520D01*
X48980Y549115D01*
X48955Y548711D01*
X48921Y548308D01*
X48876Y547905D01*
X48821Y547504D01*
X48757Y547104D01*
X48683Y546706D01*
X48599Y546310D01*
X48506Y545916D01*
X48402Y545524D01*
X48290Y545135D01*
X48167Y544749D01*
X48035Y544366D01*
X47894Y543987D01*
X47744Y543611D01*
X47584Y543239D01*
X47416Y542870D01*
X47238Y542506D01*
X47052Y542147D01*
X46856Y541792D01*
X46653Y541442D01*
X46440Y541098D01*
X46219Y540758D01*
X45990Y540424D01*
X45753Y540096D01*
X45508Y539774D01*
X45255Y539458D01*
X44994Y539148D01*
X44726Y538844D01*
X44450Y538548D01*
X44167Y538258D01*
X43877Y537975D01*
X43581Y537699D01*
X43277Y537431D01*
X42967Y537170D01*
X42651Y536917D01*
X42329Y536672D01*
X42001Y536435D01*
X41667Y536206D01*
X41327Y535985D01*
X40983Y535772D01*
X40633Y535569D01*
X40278Y535373D01*
X39919Y535187D01*
X39555Y535009D01*
X39186Y534841D01*
X38814Y534681D01*
X38438Y534531D01*
X38059Y534390D01*
X37676Y534258D01*
X37290Y534135D01*
X36901Y534023D01*
X36509Y533919D01*
X36115Y533826D01*
X35719Y533742D01*
X35321Y533668D01*
X34921Y533604D01*
X34520Y533549D01*
X34117Y533504D01*
X33714Y533470D01*
X33310Y533445D01*
X32905Y533430D01*
X32500Y533425D01*
X32095Y533430D01*
X31690Y533445D01*
X31286Y533470D01*
X30883Y533504D01*
X30480Y533549D01*
X30079Y533604D01*
X29679Y533668D01*
X29281Y533742D01*
X28885Y533826D01*
X28491Y533919D01*
X28099Y534023D01*
X27710Y534135D01*
X27324Y534258D01*
X26941Y534390D01*
X26562Y534531D01*
X26186Y534681D01*
X25814Y534841D01*
X25445Y535009D01*
X25081Y535187D01*
X24722Y535373D01*
X24367Y535569D01*
X24017Y535772D01*
X23673Y535985D01*
X23333Y536206D01*
X22999Y536435D01*
X22671Y536672D01*
X22349Y536917D01*
X22033Y537170D01*
X21723Y537431D01*
X21419Y537699D01*
X21123Y537975D01*
X20833Y538258D01*
X20550Y538548D01*
X20274Y538844D01*
X20006Y539148D01*
X19745Y539458D01*
X19492Y539774D01*
X19247Y540096D01*
X19010Y540424D01*
X18781Y540758D01*
X18560Y541098D01*
X18347Y541442D01*
X18144Y541792D01*
X17948Y542147D01*
X17762Y542506D01*
X17584Y542870D01*
X17416Y543239D01*
X17256Y543611D01*
X17106Y543987D01*
X16965Y544366D01*
X16833Y544749D01*
X16710Y545135D01*
X16598Y545524D01*
X16494Y545916D01*
X16401Y546310D01*
X16317Y546706D01*
X16243Y547104D01*
X16179Y547504D01*
X16124Y547905D01*
X16079Y548308D01*
X16045Y548711D01*
X16020Y549115D01*
X16005Y549520D01*
X16000Y549925D01*
D12*
X0Y0D02*
X450000Y0D01*
X450000Y580000D01*
X0Y580000D01*
X0Y0D01*
X401000Y550465D02*
X401071Y551543D01*
X401212Y552614D01*
X401422Y553674D01*
X401702Y554717D01*
X402049Y555740D01*
X402463Y556738D01*
X402941Y557707D01*
X403481Y558643D01*
X404081Y559541D01*
X404739Y560398D01*
X405451Y561210D01*
X406215Y561974D01*
X407027Y562687D01*
X407884Y563344D01*
X408782Y563944D01*
X409718Y564485D01*
X410687Y564962D01*
X411685Y565376D01*
X412708Y565723D01*
X413751Y566003D01*
X414811Y566213D01*
X415882Y566354D01*
X416960Y566425D01*
X418040Y566425D01*
X419118Y566354D01*
X420189Y566213D01*
X421249Y566003D01*
X422292Y565723D01*
X423315Y565376D01*
X424313Y564962D01*
X425282Y564485D01*
X426218Y563944D01*
X427116Y563344D01*
X427973Y562687D01*
X428785Y561974D01*
X429549Y561210D01*
X430262Y560398D01*
X430919Y559541D01*
X431519Y558643D01*
X432060Y557707D01*
X432537Y556738D01*
X432951Y555740D01*
X433298Y554717D01*
X433578Y553674D01*
X433788Y552614D01*
X433929Y551543D01*
X434000Y550465D01*
X434000Y549385D01*
X433929Y548307D01*
X433788Y547236D01*
X433578Y546176D01*
X433298Y545133D01*
X432951Y544110D01*
X432537Y543112D01*
X432060Y542143D01*
X431519Y541207D01*
X430919Y540309D01*
X430262Y539452D01*
X429549Y538640D01*
X428785Y537876D01*
X427973Y537164D01*
X427116Y536506D01*
X426218Y535906D01*
X425282Y535366D01*
X424313Y534888D01*
X423315Y534474D01*
X422292Y534127D01*
X421249Y533847D01*
X420189Y533637D01*
X419118Y533496D01*
X418040Y533425D01*
X416960Y533425D01*
X415882Y533496D01*
X414811Y533637D01*
X413751Y533847D01*
X412708Y534127D01*
X411685Y534474D01*
X410687Y534888D01*
X409718Y535366D01*
X408782Y535906D01*
X407884Y536506D01*
X407027Y537164D01*
X406215Y537876D01*
X405451Y538640D01*
X404739Y539452D01*
X404081Y540309D01*
X403481Y541207D01*
X402941Y542143D01*
X402463Y543112D01*
X402049Y544110D01*
X401702Y545133D01*
X401422Y546176D01*
X401212Y547236D01*
X401071Y548307D01*
X401000Y549385D01*
X401000Y550465D01*
X16000Y550465D02*
X16071Y551543D01*
X16212Y552614D01*
X16422Y553674D01*
X16702Y554717D01*
X17049Y555740D01*
X17463Y556738D01*
X17941Y557707D01*
X18481Y558643D01*
X19081Y559541D01*
X19739Y560398D01*
X20451Y561210D01*
X21215Y561974D01*
X22027Y562687D01*
X22884Y563344D01*
X23782Y563944D01*
X24718Y564485D01*
X25687Y564962D01*
X26685Y565376D01*
X27708Y565723D01*
X28751Y566003D01*
X29811Y566213D01*
X30882Y566354D01*
X31960Y566425D01*
X33040Y566425D01*
X34118Y566354D01*
X35189Y566213D01*
X36249Y566003D01*
X37292Y565723D01*
X38315Y565376D01*
X39313Y564962D01*
X40282Y564485D01*
X41218Y563944D01*
X42116Y563344D01*
X42973Y562687D01*
X43785Y561974D01*
X44549Y561210D01*
X45262Y560398D01*
X45919Y559541D01*
X46519Y558643D01*
X47060Y557707D01*
X47537Y556738D01*
X47951Y555740D01*
X48298Y554717D01*
X48578Y553674D01*
X48788Y552614D01*
X48929Y551543D01*
X49000Y550465D01*
X49000Y549385D01*
X48929Y548307D01*
X48788Y547236D01*
X48578Y546176D01*
X48298Y545133D01*
X47951Y544110D01*
X47537Y543112D01*
X47060Y542143D01*
X46519Y541207D01*
X45919Y540309D01*
X45262Y539452D01*
X44549Y538640D01*
X43785Y537876D01*
X42973Y537164D01*
X42116Y536506D01*
X41218Y535906D01*
X40282Y535366D01*
X39313Y534888D01*
X38315Y534474D01*
X37292Y534127D01*
X36249Y533847D01*
X35189Y533637D01*
X34118Y533496D01*
X33040Y533425D01*
X31960Y533425D01*
X30882Y533496D01*
X29811Y533637D01*
X28751Y533847D01*
X27708Y534127D01*
X26685Y534474D01*
X25687Y534888D01*
X24718Y535366D01*
X23782Y535906D01*
X22884Y536506D01*
X22027Y537164D01*
X21215Y537876D01*
X20451Y538640D01*
X19739Y539452D01*
X19081Y540309D01*
X18481Y541207D01*
X17941Y542143D01*
X17463Y543112D01*
X17049Y544110D01*
X16702Y545133D01*
X16422Y546176D01*
X16212Y547236D01*
X16071Y548307D01*
X16000Y549385D01*
X16000Y550465D01*
M02*
