G04 EAGLE Gerber RS-274X export*
G75*
%MOMM*%
%FSLAX34Y34*%
%LPD*%
%INSilkscreen Bottom*%
%IPPOS*%
%AMOC8*
5,1,8,0,0,1.08239X$1,22.5*%
G01*
%ADD10C,0.203200*%
%ADD11C,0.101600*%
%ADD12R,0.863600X0.762000*%
%ADD13R,0.900200X2.799800*%
%ADD14C,0.152400*%
%ADD15C,0.127000*%
%ADD16C,0.400000*%


D10*
X373256Y540766D02*
X373256Y564154D01*
X361562Y564154D01*
X357664Y560256D01*
X357664Y556358D01*
X361562Y552460D01*
X357664Y548562D01*
X357664Y544664D01*
X361562Y540766D01*
X373256Y540766D01*
X373256Y552460D02*
X361562Y552460D01*
X349868Y564154D02*
X345970Y564154D01*
X345970Y540766D01*
X349868Y540766D02*
X342072Y540766D01*
X334276Y556358D02*
X330378Y556358D01*
X330378Y540766D01*
X334276Y540766D02*
X326480Y540766D01*
X330378Y564154D02*
X330378Y568052D01*
X314786Y560256D02*
X314786Y544664D01*
X310888Y540766D01*
X310888Y556358D02*
X318684Y556358D01*
X303092Y556358D02*
X287500Y556358D01*
X303092Y540766D01*
X287500Y540766D01*
X279704Y540766D02*
X279704Y564154D01*
X279704Y540766D02*
X268010Y540766D01*
X264112Y544664D01*
X264112Y552460D01*
X268010Y556358D01*
X279704Y556358D01*
X252418Y540766D02*
X244622Y540766D01*
X240724Y544664D01*
X240724Y552460D01*
X244622Y556358D01*
X252418Y556358D01*
X256316Y552460D01*
X256316Y544664D01*
X252418Y540766D01*
X232928Y556358D02*
X217336Y540766D01*
X232928Y540766D02*
X217336Y556358D01*
X209540Y564154D02*
X209540Y540766D01*
X209540Y564154D02*
X197846Y564154D01*
X193948Y560256D01*
X193948Y556358D01*
X197846Y552460D01*
X193948Y548562D01*
X193948Y544664D01*
X197846Y540766D01*
X209540Y540766D01*
X209540Y552460D02*
X197846Y552460D01*
X186152Y564154D02*
X186152Y540766D01*
X170560Y540766D01*
X151070Y540766D02*
X151070Y564154D01*
X162764Y552460D01*
X147172Y552460D01*
X139376Y544664D02*
X135478Y540766D01*
X127682Y540766D01*
X123784Y544664D01*
X123784Y560256D01*
X127682Y564154D01*
X135478Y564154D01*
X139376Y560256D01*
X139376Y556358D01*
X135478Y552460D01*
X123784Y552460D01*
X115988Y540766D02*
X104294Y540766D01*
X100396Y544664D01*
X104294Y548562D01*
X112090Y548562D01*
X115988Y552460D01*
X112090Y556358D01*
X100396Y556358D01*
X92600Y556358D02*
X92600Y532970D01*
X92600Y556358D02*
X80906Y556358D01*
X77008Y552460D01*
X77008Y544664D01*
X80906Y540766D01*
X92600Y540766D01*
D11*
X282792Y527558D02*
X287114Y527558D01*
X282792Y527558D02*
X280631Y529719D01*
X280631Y534041D01*
X282792Y536201D01*
X287114Y536201D01*
X289275Y534041D01*
X289275Y529719D01*
X287114Y527558D01*
X274251Y527558D02*
X269929Y527558D01*
X274251Y527558D02*
X276411Y529719D01*
X276411Y534041D01*
X274251Y536201D01*
X269929Y536201D01*
X267768Y534041D01*
X267768Y531880D01*
X276411Y531880D01*
X263548Y540523D02*
X261387Y540523D01*
X261387Y527558D01*
X263548Y527558D02*
X259226Y527558D01*
X254972Y523236D02*
X254972Y536201D01*
X248490Y536201D01*
X246329Y534041D01*
X246329Y529719D01*
X248490Y527558D01*
X254972Y527558D01*
X242109Y527558D02*
X242109Y536201D01*
X242109Y531880D02*
X237787Y536201D01*
X235627Y536201D01*
X231390Y536201D02*
X229229Y536201D01*
X229229Y527558D01*
X231390Y527558D02*
X227068Y527558D01*
X229229Y540523D02*
X229229Y542684D01*
X222814Y536201D02*
X222814Y527558D01*
X222814Y536201D02*
X216332Y536201D01*
X214171Y534041D01*
X214171Y527558D01*
X209951Y536201D02*
X201307Y536201D01*
X209951Y527558D01*
X201307Y527558D01*
X197087Y527558D02*
X197087Y529719D01*
X194926Y529719D01*
X194926Y527558D01*
X197087Y527558D01*
X188495Y527558D02*
X184173Y527558D01*
X182012Y529719D01*
X182012Y534041D01*
X184173Y536201D01*
X188495Y536201D01*
X190656Y534041D01*
X190656Y529719D01*
X188495Y527558D01*
X177792Y527558D02*
X177792Y536201D01*
X177792Y531880D02*
X173471Y536201D01*
X171310Y536201D01*
X162751Y523236D02*
X160590Y523236D01*
X158429Y525397D01*
X158429Y536201D01*
X164912Y536201D01*
X167073Y534041D01*
X167073Y529719D01*
X164912Y527558D01*
X158429Y527558D01*
X166321Y241305D02*
X174117Y241305D01*
X170219Y245203D02*
X170219Y237407D01*
X162423Y247152D02*
X154627Y247152D01*
X162423Y247152D02*
X162423Y241305D01*
X158525Y243254D01*
X156576Y243254D01*
X154627Y241305D01*
X154627Y237407D01*
X156576Y235458D01*
X160474Y235458D01*
X162423Y237407D01*
X150729Y239356D02*
X150729Y247152D01*
X150729Y239356D02*
X146831Y235458D01*
X142933Y239356D01*
X142933Y247152D01*
X168270Y221752D02*
X166321Y219803D01*
X168270Y221752D02*
X172168Y221752D01*
X174117Y219803D01*
X174117Y217854D01*
X172168Y215905D01*
X168270Y215905D01*
X166321Y213956D01*
X166321Y212007D01*
X168270Y210058D01*
X172168Y210058D01*
X174117Y212007D01*
X156576Y221752D02*
X154627Y219803D01*
X156576Y221752D02*
X160474Y221752D01*
X162423Y219803D01*
X162423Y212007D01*
X160474Y210058D01*
X156576Y210058D01*
X154627Y212007D01*
X150729Y210058D02*
X150729Y221752D01*
X150729Y213956D02*
X142933Y221752D01*
X148780Y215905D02*
X142933Y210058D01*
X139035Y208109D02*
X131239Y208109D01*
X127341Y210058D02*
X127341Y221752D01*
X121494Y221752D01*
X119545Y219803D01*
X119545Y217854D01*
X121494Y215905D01*
X119545Y213956D01*
X119545Y212007D01*
X121494Y210058D01*
X127341Y210058D01*
X127341Y215905D02*
X121494Y215905D01*
X115647Y221752D02*
X115647Y210058D01*
X107851Y210058D01*
X174117Y196352D02*
X174117Y184658D01*
X170219Y192454D02*
X174117Y196352D01*
X170219Y192454D02*
X166321Y196352D01*
X166321Y184658D01*
X162423Y184658D02*
X158525Y184658D01*
X160474Y184658D02*
X160474Y196352D01*
X162423Y196352D02*
X158525Y196352D01*
X148780Y196352D02*
X146831Y194403D01*
X148780Y196352D02*
X152678Y196352D01*
X154627Y194403D01*
X154627Y192454D01*
X152678Y190505D01*
X148780Y190505D01*
X146831Y188556D01*
X146831Y186607D01*
X148780Y184658D01*
X152678Y184658D01*
X154627Y186607D01*
X140984Y196352D02*
X137086Y196352D01*
X140984Y196352D02*
X142933Y194403D01*
X142933Y186607D01*
X140984Y184658D01*
X137086Y184658D01*
X135137Y186607D01*
X135137Y194403D01*
X137086Y196352D01*
X131239Y182709D02*
X123443Y182709D01*
X119545Y184658D02*
X119545Y196352D01*
X113698Y196352D01*
X111749Y194403D01*
X111749Y192454D01*
X113698Y190505D01*
X111749Y188556D01*
X111749Y186607D01*
X113698Y184658D01*
X119545Y184658D01*
X119545Y190505D02*
X113698Y190505D01*
X107851Y196352D02*
X107851Y184658D01*
X100055Y184658D01*
X174117Y170952D02*
X174117Y159258D01*
X170219Y167054D02*
X174117Y170952D01*
X170219Y167054D02*
X166321Y170952D01*
X166321Y159258D01*
X162423Y159258D02*
X158525Y159258D01*
X160474Y159258D02*
X160474Y170952D01*
X162423Y170952D02*
X158525Y170952D01*
X148780Y170952D02*
X146831Y169003D01*
X148780Y170952D02*
X152678Y170952D01*
X154627Y169003D01*
X154627Y167054D01*
X152678Y165105D01*
X148780Y165105D01*
X146831Y163156D01*
X146831Y161207D01*
X148780Y159258D01*
X152678Y159258D01*
X154627Y161207D01*
X140984Y170952D02*
X137086Y170952D01*
X140984Y170952D02*
X142933Y169003D01*
X142933Y161207D01*
X140984Y159258D01*
X137086Y159258D01*
X135137Y161207D01*
X135137Y169003D01*
X137086Y170952D01*
X131239Y157309D02*
X123443Y157309D01*
X119545Y159258D02*
X119545Y170952D01*
X113698Y170952D01*
X111749Y169003D01*
X111749Y167054D01*
X113698Y165105D01*
X111749Y163156D01*
X111749Y161207D01*
X113698Y159258D01*
X119545Y159258D01*
X119545Y165105D02*
X113698Y165105D01*
X107851Y170952D02*
X107851Y159258D01*
X100055Y159258D01*
X139543Y147574D02*
X174625Y147574D01*
X174117Y145552D02*
X174117Y133858D01*
X174117Y145552D02*
X168270Y145552D01*
X166321Y143603D01*
X166321Y139705D01*
X168270Y137756D01*
X174117Y137756D01*
X170219Y137756D02*
X166321Y133858D01*
X154627Y143603D02*
X156576Y145552D01*
X160474Y145552D01*
X162423Y143603D01*
X162423Y141654D01*
X160474Y139705D01*
X156576Y139705D01*
X154627Y137756D01*
X154627Y135807D01*
X156576Y133858D01*
X160474Y133858D01*
X162423Y135807D01*
X146831Y133858D02*
X146831Y145552D01*
X150729Y145552D02*
X142933Y145552D01*
X266349Y210058D02*
X266349Y221752D01*
X262451Y217854D01*
X258553Y221752D01*
X258553Y210058D01*
X254655Y210058D02*
X254655Y217854D01*
X250757Y221752D01*
X246859Y217854D01*
X246859Y210058D01*
X246859Y215905D02*
X254655Y215905D01*
X242961Y210058D02*
X242961Y221752D01*
X237114Y221752D01*
X235165Y219803D01*
X235165Y215905D01*
X237114Y213956D01*
X242961Y213956D01*
X309227Y196352D02*
X309227Y184658D01*
X305329Y192454D02*
X309227Y196352D01*
X305329Y192454D02*
X301431Y196352D01*
X301431Y184658D01*
X295584Y196352D02*
X291686Y196352D01*
X295584Y196352D02*
X297533Y194403D01*
X297533Y186607D01*
X295584Y184658D01*
X291686Y184658D01*
X289737Y186607D01*
X289737Y194403D01*
X291686Y196352D01*
X279992Y196352D02*
X278043Y194403D01*
X279992Y196352D02*
X283890Y196352D01*
X285839Y194403D01*
X285839Y192454D01*
X283890Y190505D01*
X279992Y190505D01*
X278043Y188556D01*
X278043Y186607D01*
X279992Y184658D01*
X283890Y184658D01*
X285839Y186607D01*
X274145Y184658D02*
X270247Y184658D01*
X272196Y184658D02*
X272196Y196352D01*
X274145Y196352D02*
X270247Y196352D01*
X266349Y182709D02*
X258553Y182709D01*
X254655Y184658D02*
X254655Y196352D01*
X248808Y196352D01*
X246859Y194403D01*
X246859Y190505D01*
X248808Y188556D01*
X254655Y188556D01*
X242961Y184658D02*
X242961Y196352D01*
X237114Y196352D01*
X235165Y194403D01*
X235165Y190505D01*
X237114Y188556D01*
X242961Y188556D01*
X239063Y188556D02*
X235165Y184658D01*
X293635Y169003D02*
X295584Y170952D01*
X299482Y170952D01*
X301431Y169003D01*
X301431Y167054D01*
X299482Y165105D01*
X295584Y165105D01*
X293635Y163156D01*
X293635Y161207D01*
X295584Y159258D01*
X299482Y159258D01*
X301431Y161207D01*
X283890Y170952D02*
X281941Y169003D01*
X283890Y170952D02*
X287788Y170952D01*
X289737Y169003D01*
X289737Y161207D01*
X287788Y159258D01*
X283890Y159258D01*
X281941Y161207D01*
X278043Y159258D02*
X278043Y170952D01*
X278043Y163156D02*
X270247Y170952D01*
X276094Y165105D02*
X270247Y159258D01*
X266349Y157309D02*
X258553Y157309D01*
X254655Y159258D02*
X254655Y170952D01*
X248808Y170952D01*
X246859Y169003D01*
X246859Y165105D01*
X248808Y163156D01*
X254655Y163156D01*
X242961Y159258D02*
X242961Y170952D01*
X237114Y170952D01*
X235165Y169003D01*
X235165Y165105D01*
X237114Y163156D01*
X242961Y163156D01*
X239063Y163156D02*
X235165Y159258D01*
X309227Y145552D02*
X309227Y133858D01*
X305329Y141654D02*
X309227Y145552D01*
X305329Y141654D02*
X301431Y145552D01*
X301431Y133858D01*
X295584Y145552D02*
X291686Y145552D01*
X295584Y145552D02*
X297533Y143603D01*
X297533Y135807D01*
X295584Y133858D01*
X291686Y133858D01*
X289737Y135807D01*
X289737Y143603D01*
X291686Y145552D01*
X279992Y145552D02*
X278043Y143603D01*
X279992Y145552D02*
X283890Y145552D01*
X285839Y143603D01*
X285839Y141654D01*
X283890Y139705D01*
X279992Y139705D01*
X278043Y137756D01*
X278043Y135807D01*
X279992Y133858D01*
X283890Y133858D01*
X285839Y135807D01*
X274145Y133858D02*
X270247Y133858D01*
X272196Y133858D02*
X272196Y145552D01*
X274145Y145552D02*
X270247Y145552D01*
X266349Y131909D02*
X258553Y131909D01*
X254655Y133858D02*
X254655Y145552D01*
X248808Y145552D01*
X246859Y143603D01*
X246859Y139705D01*
X248808Y137756D01*
X254655Y137756D01*
X242961Y133858D02*
X242961Y145552D01*
X237114Y145552D01*
X235165Y143603D01*
X235165Y139705D01*
X237114Y137756D01*
X242961Y137756D01*
X239063Y137756D02*
X235165Y133858D01*
X258553Y245203D02*
X260502Y247152D01*
X264400Y247152D01*
X266349Y245203D01*
X266349Y237407D01*
X264400Y235458D01*
X260502Y235458D01*
X258553Y237407D01*
X258553Y241305D01*
X262451Y241305D01*
X254655Y235458D02*
X254655Y247152D01*
X246859Y235458D01*
X246859Y247152D01*
X242961Y247152D02*
X242961Y235458D01*
X237114Y235458D01*
X235165Y237407D01*
X235165Y245203D01*
X237114Y247152D01*
X242961Y247152D01*
X153489Y271955D02*
X141796Y271955D01*
X153489Y268057D02*
X153489Y275853D01*
X149591Y279751D02*
X141796Y279751D01*
X149591Y279751D02*
X153489Y283649D01*
X149591Y287547D01*
X141796Y287547D01*
X147642Y287547D02*
X147642Y279751D01*
X153489Y297292D02*
X151540Y299241D01*
X153489Y297292D02*
X153489Y293394D01*
X151540Y291445D01*
X143744Y291445D01*
X141796Y293394D01*
X141796Y297292D01*
X143744Y299241D01*
X141796Y303139D02*
X153489Y303139D01*
X147642Y303139D02*
X147642Y310935D01*
X141796Y310935D02*
X153489Y310935D01*
X165105Y275853D02*
X165105Y268057D01*
X169003Y271955D02*
X161207Y271955D01*
X167054Y279751D02*
X170952Y283649D01*
X159258Y283649D01*
X159258Y279751D02*
X159258Y287547D01*
X159258Y291445D02*
X159258Y299241D01*
X159258Y291445D02*
X167054Y299241D01*
X169003Y299241D01*
X170952Y297292D01*
X170952Y293394D01*
X169003Y291445D01*
X170952Y303139D02*
X163156Y303139D01*
X159258Y307037D01*
X163156Y310935D01*
X170952Y310935D01*
X130180Y287547D02*
X130180Y279751D01*
X134078Y283649D02*
X126282Y283649D01*
X136027Y291445D02*
X136027Y299241D01*
X136027Y291445D02*
X130180Y291445D01*
X132129Y295343D01*
X132129Y297292D01*
X130180Y299241D01*
X126282Y299241D01*
X124333Y297292D01*
X124333Y293394D01*
X126282Y291445D01*
X128231Y303139D02*
X136027Y303139D01*
X128231Y303139D02*
X124333Y307037D01*
X128231Y310935D01*
X136027Y310935D01*
X335318Y513588D02*
X341800Y513588D01*
X335318Y513588D02*
X333157Y515749D01*
X335318Y517910D01*
X339640Y517910D01*
X341800Y520071D01*
X339640Y522231D01*
X333157Y522231D01*
X328937Y522231D02*
X328937Y509266D01*
X328937Y522231D02*
X322454Y522231D01*
X320294Y520071D01*
X320294Y515749D01*
X322454Y513588D01*
X328937Y513588D01*
X313913Y513588D02*
X309591Y513588D01*
X313913Y513588D02*
X316074Y515749D01*
X316074Y520071D01*
X313913Y522231D01*
X309591Y522231D01*
X307430Y520071D01*
X307430Y517910D01*
X316074Y517910D01*
X301049Y513588D02*
X296728Y513588D01*
X301049Y513588D02*
X303210Y515749D01*
X303210Y520071D01*
X301049Y522231D01*
X296728Y522231D01*
X294567Y520071D01*
X294567Y517910D01*
X303210Y517910D01*
X281703Y513588D02*
X281703Y526553D01*
X281703Y513588D02*
X288186Y513588D01*
X290347Y515749D01*
X290347Y520071D01*
X288186Y522231D01*
X281703Y522231D01*
X277483Y522231D02*
X277483Y515749D01*
X275323Y513588D01*
X268840Y513588D01*
X268840Y522231D01*
X264620Y522231D02*
X262459Y522231D01*
X262459Y513588D01*
X264620Y513588D02*
X260298Y513588D01*
X262459Y526553D02*
X262459Y528714D01*
X256045Y522231D02*
X256045Y513588D01*
X256045Y522231D02*
X249562Y522231D01*
X247401Y520071D01*
X247401Y513588D01*
X241020Y513588D02*
X236699Y513588D01*
X234538Y515749D01*
X234538Y520071D01*
X236699Y522231D01*
X241020Y522231D01*
X243181Y520071D01*
X243181Y515749D01*
X241020Y513588D01*
X215294Y522231D02*
X208811Y522231D01*
X215294Y522231D02*
X217454Y520071D01*
X217454Y515749D01*
X215294Y513588D01*
X208811Y513588D01*
X202430Y513588D02*
X198108Y513588D01*
X195948Y515749D01*
X195948Y520071D01*
X198108Y522231D01*
X202430Y522231D01*
X204591Y520071D01*
X204591Y515749D01*
X202430Y513588D01*
X191728Y513588D02*
X191728Y522231D01*
X189567Y522231D01*
X187406Y520071D01*
X187406Y513588D01*
X187406Y520071D02*
X185245Y522231D01*
X183084Y520071D01*
X183084Y513588D01*
X178864Y509266D02*
X178864Y522231D01*
X172382Y522231D01*
X170221Y520071D01*
X170221Y515749D01*
X172382Y513588D01*
X178864Y513588D01*
X163840Y522231D02*
X159518Y522231D01*
X157358Y520071D01*
X157358Y513588D01*
X163840Y513588D01*
X166001Y515749D01*
X163840Y517910D01*
X157358Y517910D01*
X150977Y515749D02*
X150977Y524392D01*
X150977Y515749D02*
X148816Y513588D01*
X148816Y522231D02*
X153138Y522231D01*
X144562Y522231D02*
X142401Y522231D01*
X142401Y513588D01*
X144562Y513588D02*
X140240Y513588D01*
X142401Y526553D02*
X142401Y528714D01*
X135986Y526553D02*
X135986Y513588D01*
X129504Y513588D01*
X127343Y515749D01*
X127343Y520071D01*
X129504Y522231D01*
X135986Y522231D01*
X123123Y526553D02*
X120962Y526553D01*
X120962Y513588D01*
X123123Y513588D02*
X118801Y513588D01*
X112387Y513588D02*
X108065Y513588D01*
X112387Y513588D02*
X114547Y515749D01*
X114547Y520071D01*
X112387Y522231D01*
X108065Y522231D01*
X105904Y520071D01*
X105904Y517910D01*
X114547Y517910D01*
X170219Y120152D02*
X170219Y108458D01*
X174117Y120152D02*
X166321Y120152D01*
X162423Y120152D02*
X154627Y108458D01*
X162423Y108458D02*
X154627Y120152D01*
X150729Y120152D02*
X150729Y108458D01*
X144882Y108458D01*
X142933Y110407D01*
X142933Y118203D01*
X144882Y120152D01*
X150729Y120152D01*
X139035Y118203D02*
X137086Y120152D01*
X133188Y120152D01*
X131239Y118203D01*
X131239Y116254D01*
X133188Y114305D01*
X135137Y114305D01*
X133188Y114305D02*
X131239Y112356D01*
X131239Y110407D01*
X133188Y108458D01*
X137086Y108458D01*
X139035Y110407D01*
X278043Y108458D02*
X278043Y120152D01*
X272196Y120152D01*
X270247Y118203D01*
X270247Y114305D01*
X272196Y112356D01*
X278043Y112356D01*
X274145Y112356D02*
X270247Y108458D01*
X258553Y108458D02*
X266349Y120152D01*
X258553Y120152D02*
X266349Y108458D01*
X254655Y108458D02*
X254655Y120152D01*
X254655Y108458D02*
X248808Y108458D01*
X246859Y110407D01*
X246859Y118203D01*
X248808Y120152D01*
X254655Y120152D01*
X242961Y118203D02*
X241012Y120152D01*
X237114Y120152D01*
X235165Y118203D01*
X235165Y116254D01*
X237114Y114305D01*
X239063Y114305D01*
X237114Y114305D02*
X235165Y112356D01*
X235165Y110407D01*
X237114Y108458D01*
X241012Y108458D01*
X242961Y110407D01*
X174117Y94752D02*
X174117Y83058D01*
X174117Y94752D02*
X168270Y94752D01*
X166321Y92803D01*
X166321Y88905D01*
X168270Y86956D01*
X174117Y86956D01*
X170219Y86956D02*
X166321Y83058D01*
X154627Y83058D02*
X162423Y94752D01*
X154627Y94752D02*
X162423Y83058D01*
X150729Y83058D02*
X150729Y94752D01*
X150729Y83058D02*
X144882Y83058D01*
X142933Y85007D01*
X142933Y92803D01*
X144882Y94752D01*
X150729Y94752D01*
X139035Y81109D02*
X131239Y81109D01*
X127341Y83058D02*
X127341Y94752D01*
X121494Y94752D01*
X119545Y92803D01*
X119545Y90854D01*
X121494Y88905D01*
X119545Y86956D01*
X119545Y85007D01*
X121494Y83058D01*
X127341Y83058D01*
X127341Y88905D02*
X121494Y88905D01*
X115647Y94752D02*
X115647Y83058D01*
X107851Y83058D01*
X297533Y83058D02*
X297533Y94752D01*
X301431Y94752D02*
X293635Y94752D01*
X289737Y94752D02*
X281941Y83058D01*
X289737Y83058D02*
X281941Y94752D01*
X278043Y94752D02*
X278043Y83058D01*
X272196Y83058D01*
X270247Y85007D01*
X270247Y92803D01*
X272196Y94752D01*
X278043Y94752D01*
X266349Y81109D02*
X258553Y81109D01*
X254655Y83058D02*
X254655Y94752D01*
X248808Y94752D01*
X246859Y92803D01*
X246859Y90854D01*
X248808Y88905D01*
X246859Y86956D01*
X246859Y85007D01*
X248808Y83058D01*
X254655Y83058D01*
X254655Y88905D02*
X248808Y88905D01*
X242961Y94752D02*
X242961Y83058D01*
X235165Y83058D01*
D10*
X336593Y270535D02*
X336593Y360575D01*
X336593Y270535D02*
X434933Y270535D01*
X434933Y360575D01*
D12*
X385763Y266309D03*
D13*
X411163Y255525D03*
X360363Y255525D03*
D11*
X424371Y217131D02*
X424371Y213233D01*
X424371Y215182D02*
X436064Y215182D01*
X436064Y213233D02*
X436064Y217131D01*
X436064Y226876D02*
X434115Y228825D01*
X436064Y226876D02*
X436064Y222978D01*
X434115Y221029D01*
X426319Y221029D01*
X424371Y222978D01*
X424371Y226876D01*
X426319Y228825D01*
X424371Y238570D02*
X436064Y238570D01*
X430217Y232723D01*
X430217Y240519D01*
X424371Y267208D02*
X436064Y267208D01*
X436064Y273055D01*
X434115Y275004D01*
X430217Y275004D01*
X428268Y273055D01*
X428268Y267208D01*
X428268Y271106D02*
X424371Y275004D01*
X432166Y278902D02*
X436064Y282800D01*
X424371Y282800D01*
X424371Y278902D02*
X424371Y286698D01*
X426319Y290596D02*
X434115Y290596D01*
X436064Y292545D01*
X436064Y296443D01*
X434115Y298392D01*
X426319Y298392D01*
X424371Y296443D01*
X424371Y292545D01*
X426319Y290596D01*
X434115Y298392D01*
D14*
X169228Y337185D02*
X126048Y337185D01*
X169228Y316865D02*
X169328Y316867D01*
X169427Y316873D01*
X169527Y316883D01*
X169625Y316896D01*
X169724Y316914D01*
X169821Y316935D01*
X169917Y316960D01*
X170013Y316989D01*
X170107Y317022D01*
X170200Y317058D01*
X170291Y317098D01*
X170381Y317142D01*
X170469Y317189D01*
X170555Y317239D01*
X170639Y317293D01*
X170721Y317350D01*
X170800Y317410D01*
X170878Y317474D01*
X170952Y317540D01*
X171024Y317609D01*
X171093Y317681D01*
X171159Y317755D01*
X171223Y317833D01*
X171283Y317912D01*
X171340Y317994D01*
X171394Y318078D01*
X171444Y318164D01*
X171491Y318252D01*
X171535Y318342D01*
X171575Y318433D01*
X171611Y318526D01*
X171644Y318620D01*
X171673Y318716D01*
X171698Y318812D01*
X171719Y318909D01*
X171737Y319008D01*
X171750Y319106D01*
X171760Y319206D01*
X171766Y319305D01*
X171768Y319405D01*
X126048Y316865D02*
X125948Y316867D01*
X125849Y316873D01*
X125749Y316883D01*
X125651Y316896D01*
X125552Y316914D01*
X125455Y316935D01*
X125359Y316960D01*
X125263Y316989D01*
X125169Y317022D01*
X125076Y317058D01*
X124985Y317098D01*
X124895Y317142D01*
X124807Y317189D01*
X124721Y317239D01*
X124637Y317293D01*
X124555Y317350D01*
X124476Y317410D01*
X124398Y317474D01*
X124324Y317540D01*
X124252Y317609D01*
X124183Y317681D01*
X124117Y317755D01*
X124053Y317833D01*
X123993Y317912D01*
X123936Y317994D01*
X123882Y318078D01*
X123832Y318164D01*
X123785Y318252D01*
X123741Y318342D01*
X123701Y318433D01*
X123665Y318526D01*
X123632Y318620D01*
X123603Y318716D01*
X123578Y318812D01*
X123557Y318909D01*
X123539Y319008D01*
X123526Y319106D01*
X123516Y319206D01*
X123510Y319305D01*
X123508Y319405D01*
X123508Y334645D02*
X123510Y334745D01*
X123516Y334844D01*
X123526Y334944D01*
X123539Y335042D01*
X123557Y335141D01*
X123578Y335238D01*
X123603Y335334D01*
X123632Y335430D01*
X123665Y335524D01*
X123701Y335617D01*
X123741Y335708D01*
X123785Y335798D01*
X123832Y335886D01*
X123882Y335972D01*
X123936Y336056D01*
X123993Y336138D01*
X124053Y336217D01*
X124117Y336295D01*
X124183Y336369D01*
X124252Y336441D01*
X124324Y336510D01*
X124398Y336576D01*
X124476Y336640D01*
X124555Y336700D01*
X124637Y336757D01*
X124721Y336811D01*
X124807Y336861D01*
X124895Y336908D01*
X124985Y336952D01*
X125076Y336992D01*
X125169Y337028D01*
X125263Y337061D01*
X125359Y337090D01*
X125455Y337115D01*
X125552Y337136D01*
X125651Y337154D01*
X125749Y337167D01*
X125849Y337177D01*
X125948Y337183D01*
X126048Y337185D01*
X169228Y337185D02*
X169328Y337183D01*
X169427Y337177D01*
X169527Y337167D01*
X169625Y337154D01*
X169724Y337136D01*
X169821Y337115D01*
X169917Y337090D01*
X170013Y337061D01*
X170107Y337028D01*
X170200Y336992D01*
X170291Y336952D01*
X170381Y336908D01*
X170469Y336861D01*
X170555Y336811D01*
X170639Y336757D01*
X170721Y336700D01*
X170800Y336640D01*
X170878Y336576D01*
X170952Y336510D01*
X171024Y336441D01*
X171093Y336369D01*
X171159Y336295D01*
X171223Y336217D01*
X171283Y336138D01*
X171340Y336056D01*
X171394Y335972D01*
X171444Y335886D01*
X171491Y335798D01*
X171535Y335708D01*
X171575Y335617D01*
X171611Y335524D01*
X171644Y335430D01*
X171673Y335334D01*
X171698Y335238D01*
X171719Y335141D01*
X171737Y335042D01*
X171750Y334944D01*
X171760Y334844D01*
X171766Y334745D01*
X171768Y334645D01*
X171768Y319405D01*
X123508Y319405D02*
X123508Y334645D01*
X126048Y316865D02*
X169228Y316865D01*
D15*
X152235Y313700D02*
X150328Y311793D01*
X152235Y313700D02*
X156048Y313700D01*
X157954Y311793D01*
X157954Y309887D01*
X156048Y307980D01*
X152235Y307980D01*
X150328Y306073D01*
X150328Y304167D01*
X152235Y302260D01*
X156048Y302260D01*
X157954Y304167D01*
X146261Y304167D02*
X144354Y302260D01*
X142447Y302260D01*
X140541Y304167D01*
X140541Y313700D01*
X142447Y313700D02*
X138634Y313700D01*
X128847Y313700D02*
X128847Y302260D01*
X134567Y307980D02*
X128847Y313700D01*
X126940Y307980D02*
X134567Y307980D01*
D10*
X223650Y292250D02*
X223650Y330050D01*
X223650Y292250D02*
X271450Y292250D01*
X271450Y330050D02*
X223650Y330050D01*
X271650Y330050D02*
X271650Y292250D01*
D16*
X267650Y296150D03*
D11*
X266842Y315806D02*
X266842Y325551D01*
X266842Y315806D02*
X264893Y313857D01*
X260995Y313857D01*
X259046Y315806D01*
X259046Y325551D01*
X255148Y315806D02*
X253199Y313857D01*
X249301Y313857D01*
X247352Y315806D01*
X247352Y317755D01*
X249301Y319704D01*
X253199Y319704D01*
X255148Y321653D01*
X255148Y323602D01*
X253199Y325551D01*
X249301Y325551D01*
X247352Y323602D01*
X251250Y327500D02*
X251250Y311908D01*
X243454Y321653D02*
X239556Y325551D01*
X239556Y313857D01*
X243454Y313857D02*
X235658Y313857D01*
M02*
