%
M48
M72
T01C0.01200
T02C0.04000
T03C0.05118
T04C0.12992
%
T01
X65160Y56352
X67660Y56352
X70160Y56352
X70160Y59477
X67660Y59477
X65160Y59477
X58910Y70727
X55160Y70727
X51410Y70727
X52035Y88852
X50785Y93852
X53910Y101977
X63910Y95727
X63910Y90727
X66410Y101977
X72660Y101977
X75785Y95102
X75785Y89477
X81410Y85102
X77035Y81352
X75160Y76977
X80160Y75102
X80160Y71977
X83910Y71977
X83910Y75102
X89535Y85102
X88285Y94477
X88285Y98227
X88285Y101977
X92035Y98227
X84535Y98227
X98285Y109477
X99535Y113227
X100785Y116977
X104535Y116977
X94535Y115102
X87035Y121352
X84535Y123852
X81410Y125727
X76410Y122602
X78910Y132602
X76410Y135102
X71410Y132602
X68910Y130102
X68285Y136977
X67660Y140727
X78910Y144477
X75785Y154477
X72660Y159477
X68910Y159477
X65160Y159477
X62660Y155102
X57035Y153852
X55160Y164477
X58285Y176977
X58285Y179477
X65785Y179477
X65785Y181977
X65785Y184477
X64535Y193227
X64535Y195727
X51410Y201352
X55785Y213852
X58285Y213852
X52660Y187602
X77035Y184477
X77035Y181977
X77035Y179477
X89535Y179477
X89535Y181977
X89535Y184477
X103910Y178852
X103910Y176352
X113285Y177602
X113285Y175102
X118910Y170727
X116410Y160102
X116410Y157602
X111410Y152602
X106410Y150727
X102035Y155102
X102035Y158852
X98285Y160727
X88910Y164477
X85160Y159477
X76410Y164477
X91410Y140102
X91410Y127602
X91410Y124477
X103910Y129477
X106410Y133852
X106410Y138227
X114535Y142602
X126410Y142602
X139535Y144477
X142660Y150102
X145160Y152602
X148285Y150102
X152035Y153852
X156410Y150102
X160785Y151977
X157035Y145727
X153910Y141352
X152660Y137602
X156410Y136977
X162035Y141352
X165160Y138227
X170785Y141352
X165785Y145727
X178285Y150727
X180785Y155102
X183285Y151977
X190785Y141977
X195785Y141977
X195785Y144477
X204535Y138227
X200160Y120102
X183285Y115727
X180785Y118227
X180785Y113227
X175785Y119477
X170785Y119477
X162660Y119477
X156410Y121977
X156410Y125727
X149535Y130727
X147660Y138852
X143910Y138852
X143910Y158227
X138285Y157602
X138285Y160102
X138285Y162602
X127035Y162602
X127035Y160102
X127035Y157602
X107660Y186977
X156410Y161977
X163285Y173227
X168910Y167602
X173910Y167602
X173910Y162602
X168910Y162602
X183285Y175727
X177660Y186352
X191410Y200727
X193285Y201977
X196410Y196352
X194535Y195102
X200785Y192602
X203285Y192602
X203285Y190102
X200785Y190102
X208910Y190102
X211410Y190102
X215160Y221352
X217660Y221352
X215785Y156352
X222035Y121352
X222035Y98227
X210160Y92602
X210160Y88852
X210160Y84477
X204535Y97602
X222035Y83227
X207660Y72602
X203285Y69477
X198285Y70102
X187035Y69477
X181410Y68852
X177660Y68852
X171410Y68227
X171410Y78227
X167660Y78227
X169535Y83852
X163285Y85102
X161410Y88227
X163285Y91352
X158910Y96977
X158910Y100727
X169535Y110727
X172035Y108227
X182660Y130727
X182660Y134477
X146410Y107602
X142035Y98852
X147035Y94477
X147035Y82602
X142660Y75727
X138285Y86352
X131410Y80727
X131410Y78227
X117035Y85102
X113285Y81352
X110785Y81352
X110785Y78852
X113285Y78852
X113285Y76352
X110785Y76352
X107035Y78227
X101410Y83852
X117035Y91977
X115785Y106977
X117660Y110102
X113910Y111977
X115160Y124477
X138285Y117602
X161410Y81977
X161410Y77602
X154535Y59477
X162035Y56352
X177035Y56352
X182660Y56352
X205160Y56352
X208910Y56352
X217660Y63852
X139535Y56977
X130160Y57602
X130160Y60102
X94535Y57602
X92035Y57602
X55160Y121352
X52660Y133227
X158910Y186977
T02
X133285Y132602
X133285Y122602
X123285Y122602
X123285Y132602
X123285Y112602
X133285Y112602
X133285Y102602
X133285Y92602
X123285Y92602
X123285Y102602
T03
X125057Y196302
X130962Y206145
X136868Y196302
X142773Y206145
X148679Y196302
X154584Y206145
X160490Y196302
X166395Y206145
X172301Y196302
X178206Y206145
X184112Y196302
X178206Y219924
X172301Y229767
X166395Y219924
X160490Y229767
X154584Y219924
X148679Y229767
X142773Y219924
X136868Y229767
X130962Y219924
X125057Y229767
X119151Y219924
X113246Y229767
X107340Y219924
X101435Y229767
X95529Y219924
X89624Y229767
X95529Y206145
X89624Y196302
X101435Y196302
X107340Y206145
X113246Y196302
X119151Y206145
X184112Y229767
T04
X212655Y255358
X61080Y255358
M30
