G75*
%MOIN*%
%OFA0B0*%
%FSLAX25Y25*%
%IPPOS*%
%LPD*%
%AMOC8*
5,1,8,0,0,1.08239X$1,22.5*
%
%ADD10C,0.00500*%
%ADD11C,0.00000*%
D10*
X0048285Y0052602D02*
X0048285Y0269137D01*
X0225450Y0269137D01*
X0225450Y0052602D01*
X0048285Y0052602D01*
D11*
X0054584Y0255358D02*
X0054586Y0255519D01*
X0054592Y0255679D01*
X0054602Y0255840D01*
X0054616Y0256000D01*
X0054634Y0256159D01*
X0054655Y0256319D01*
X0054681Y0256477D01*
X0054711Y0256635D01*
X0054744Y0256792D01*
X0054782Y0256949D01*
X0054823Y0257104D01*
X0054868Y0257258D01*
X0054917Y0257411D01*
X0054970Y0257563D01*
X0055026Y0257713D01*
X0055086Y0257862D01*
X0055150Y0258010D01*
X0055217Y0258156D01*
X0055288Y0258300D01*
X0055363Y0258442D01*
X0055441Y0258583D01*
X0055522Y0258721D01*
X0055607Y0258858D01*
X0055696Y0258992D01*
X0055787Y0259124D01*
X0055882Y0259254D01*
X0055980Y0259381D01*
X0056081Y0259506D01*
X0056185Y0259629D01*
X0056292Y0259748D01*
X0056402Y0259865D01*
X0056515Y0259980D01*
X0056631Y0260091D01*
X0056749Y0260200D01*
X0056870Y0260305D01*
X0056994Y0260408D01*
X0057120Y0260508D01*
X0057249Y0260604D01*
X0057380Y0260697D01*
X0057513Y0260787D01*
X0057648Y0260874D01*
X0057786Y0260957D01*
X0057925Y0261036D01*
X0058067Y0261113D01*
X0058210Y0261186D01*
X0058355Y0261255D01*
X0058502Y0261320D01*
X0058650Y0261382D01*
X0058800Y0261441D01*
X0058951Y0261495D01*
X0059103Y0261546D01*
X0059257Y0261593D01*
X0059412Y0261636D01*
X0059567Y0261675D01*
X0059724Y0261711D01*
X0059882Y0261743D01*
X0060040Y0261770D01*
X0060199Y0261794D01*
X0060358Y0261814D01*
X0060518Y0261830D01*
X0060679Y0261842D01*
X0060839Y0261850D01*
X0061000Y0261854D01*
X0061160Y0261854D01*
X0061321Y0261850D01*
X0061481Y0261842D01*
X0061642Y0261830D01*
X0061802Y0261814D01*
X0061961Y0261794D01*
X0062120Y0261770D01*
X0062278Y0261743D01*
X0062436Y0261711D01*
X0062593Y0261675D01*
X0062748Y0261636D01*
X0062903Y0261593D01*
X0063057Y0261546D01*
X0063209Y0261495D01*
X0063360Y0261441D01*
X0063510Y0261382D01*
X0063658Y0261320D01*
X0063805Y0261255D01*
X0063950Y0261186D01*
X0064093Y0261113D01*
X0064235Y0261036D01*
X0064374Y0260957D01*
X0064512Y0260874D01*
X0064647Y0260787D01*
X0064780Y0260697D01*
X0064911Y0260604D01*
X0065040Y0260508D01*
X0065166Y0260408D01*
X0065290Y0260305D01*
X0065411Y0260200D01*
X0065529Y0260091D01*
X0065645Y0259980D01*
X0065758Y0259865D01*
X0065868Y0259748D01*
X0065975Y0259629D01*
X0066079Y0259506D01*
X0066180Y0259381D01*
X0066278Y0259254D01*
X0066373Y0259124D01*
X0066464Y0258992D01*
X0066553Y0258858D01*
X0066638Y0258721D01*
X0066719Y0258583D01*
X0066797Y0258442D01*
X0066872Y0258300D01*
X0066943Y0258156D01*
X0067010Y0258010D01*
X0067074Y0257862D01*
X0067134Y0257713D01*
X0067190Y0257563D01*
X0067243Y0257411D01*
X0067292Y0257258D01*
X0067337Y0257104D01*
X0067378Y0256949D01*
X0067416Y0256792D01*
X0067449Y0256635D01*
X0067479Y0256477D01*
X0067505Y0256319D01*
X0067526Y0256159D01*
X0067544Y0256000D01*
X0067558Y0255840D01*
X0067568Y0255679D01*
X0067574Y0255519D01*
X0067576Y0255358D01*
X0067574Y0255197D01*
X0067568Y0255037D01*
X0067558Y0254876D01*
X0067544Y0254716D01*
X0067526Y0254557D01*
X0067505Y0254397D01*
X0067479Y0254239D01*
X0067449Y0254081D01*
X0067416Y0253924D01*
X0067378Y0253767D01*
X0067337Y0253612D01*
X0067292Y0253458D01*
X0067243Y0253305D01*
X0067190Y0253153D01*
X0067134Y0253003D01*
X0067074Y0252854D01*
X0067010Y0252706D01*
X0066943Y0252560D01*
X0066872Y0252416D01*
X0066797Y0252274D01*
X0066719Y0252133D01*
X0066638Y0251995D01*
X0066553Y0251858D01*
X0066464Y0251724D01*
X0066373Y0251592D01*
X0066278Y0251462D01*
X0066180Y0251335D01*
X0066079Y0251210D01*
X0065975Y0251087D01*
X0065868Y0250968D01*
X0065758Y0250851D01*
X0065645Y0250736D01*
X0065529Y0250625D01*
X0065411Y0250516D01*
X0065290Y0250411D01*
X0065166Y0250308D01*
X0065040Y0250208D01*
X0064911Y0250112D01*
X0064780Y0250019D01*
X0064647Y0249929D01*
X0064512Y0249842D01*
X0064374Y0249759D01*
X0064235Y0249680D01*
X0064093Y0249603D01*
X0063950Y0249530D01*
X0063805Y0249461D01*
X0063658Y0249396D01*
X0063510Y0249334D01*
X0063360Y0249275D01*
X0063209Y0249221D01*
X0063057Y0249170D01*
X0062903Y0249123D01*
X0062748Y0249080D01*
X0062593Y0249041D01*
X0062436Y0249005D01*
X0062278Y0248973D01*
X0062120Y0248946D01*
X0061961Y0248922D01*
X0061802Y0248902D01*
X0061642Y0248886D01*
X0061481Y0248874D01*
X0061321Y0248866D01*
X0061160Y0248862D01*
X0061000Y0248862D01*
X0060839Y0248866D01*
X0060679Y0248874D01*
X0060518Y0248886D01*
X0060358Y0248902D01*
X0060199Y0248922D01*
X0060040Y0248946D01*
X0059882Y0248973D01*
X0059724Y0249005D01*
X0059567Y0249041D01*
X0059412Y0249080D01*
X0059257Y0249123D01*
X0059103Y0249170D01*
X0058951Y0249221D01*
X0058800Y0249275D01*
X0058650Y0249334D01*
X0058502Y0249396D01*
X0058355Y0249461D01*
X0058210Y0249530D01*
X0058067Y0249603D01*
X0057925Y0249680D01*
X0057786Y0249759D01*
X0057648Y0249842D01*
X0057513Y0249929D01*
X0057380Y0250019D01*
X0057249Y0250112D01*
X0057120Y0250208D01*
X0056994Y0250308D01*
X0056870Y0250411D01*
X0056749Y0250516D01*
X0056631Y0250625D01*
X0056515Y0250736D01*
X0056402Y0250851D01*
X0056292Y0250968D01*
X0056185Y0251087D01*
X0056081Y0251210D01*
X0055980Y0251335D01*
X0055882Y0251462D01*
X0055787Y0251592D01*
X0055696Y0251724D01*
X0055607Y0251858D01*
X0055522Y0251995D01*
X0055441Y0252133D01*
X0055363Y0252274D01*
X0055288Y0252416D01*
X0055217Y0252560D01*
X0055150Y0252706D01*
X0055086Y0252854D01*
X0055026Y0253003D01*
X0054970Y0253153D01*
X0054917Y0253305D01*
X0054868Y0253458D01*
X0054823Y0253612D01*
X0054782Y0253767D01*
X0054744Y0253924D01*
X0054711Y0254081D01*
X0054681Y0254239D01*
X0054655Y0254397D01*
X0054634Y0254557D01*
X0054616Y0254716D01*
X0054602Y0254876D01*
X0054592Y0255037D01*
X0054586Y0255197D01*
X0054584Y0255358D01*
X0206159Y0255358D02*
X0206161Y0255519D01*
X0206167Y0255679D01*
X0206177Y0255840D01*
X0206191Y0256000D01*
X0206209Y0256159D01*
X0206230Y0256319D01*
X0206256Y0256477D01*
X0206286Y0256635D01*
X0206319Y0256792D01*
X0206357Y0256949D01*
X0206398Y0257104D01*
X0206443Y0257258D01*
X0206492Y0257411D01*
X0206545Y0257563D01*
X0206601Y0257713D01*
X0206661Y0257862D01*
X0206725Y0258010D01*
X0206792Y0258156D01*
X0206863Y0258300D01*
X0206938Y0258442D01*
X0207016Y0258583D01*
X0207097Y0258721D01*
X0207182Y0258858D01*
X0207271Y0258992D01*
X0207362Y0259124D01*
X0207457Y0259254D01*
X0207555Y0259381D01*
X0207656Y0259506D01*
X0207760Y0259629D01*
X0207867Y0259748D01*
X0207977Y0259865D01*
X0208090Y0259980D01*
X0208206Y0260091D01*
X0208324Y0260200D01*
X0208445Y0260305D01*
X0208569Y0260408D01*
X0208695Y0260508D01*
X0208824Y0260604D01*
X0208955Y0260697D01*
X0209088Y0260787D01*
X0209223Y0260874D01*
X0209361Y0260957D01*
X0209500Y0261036D01*
X0209642Y0261113D01*
X0209785Y0261186D01*
X0209930Y0261255D01*
X0210077Y0261320D01*
X0210225Y0261382D01*
X0210375Y0261441D01*
X0210526Y0261495D01*
X0210678Y0261546D01*
X0210832Y0261593D01*
X0210987Y0261636D01*
X0211142Y0261675D01*
X0211299Y0261711D01*
X0211457Y0261743D01*
X0211615Y0261770D01*
X0211774Y0261794D01*
X0211933Y0261814D01*
X0212093Y0261830D01*
X0212254Y0261842D01*
X0212414Y0261850D01*
X0212575Y0261854D01*
X0212735Y0261854D01*
X0212896Y0261850D01*
X0213056Y0261842D01*
X0213217Y0261830D01*
X0213377Y0261814D01*
X0213536Y0261794D01*
X0213695Y0261770D01*
X0213853Y0261743D01*
X0214011Y0261711D01*
X0214168Y0261675D01*
X0214323Y0261636D01*
X0214478Y0261593D01*
X0214632Y0261546D01*
X0214784Y0261495D01*
X0214935Y0261441D01*
X0215085Y0261382D01*
X0215233Y0261320D01*
X0215380Y0261255D01*
X0215525Y0261186D01*
X0215668Y0261113D01*
X0215810Y0261036D01*
X0215949Y0260957D01*
X0216087Y0260874D01*
X0216222Y0260787D01*
X0216355Y0260697D01*
X0216486Y0260604D01*
X0216615Y0260508D01*
X0216741Y0260408D01*
X0216865Y0260305D01*
X0216986Y0260200D01*
X0217104Y0260091D01*
X0217220Y0259980D01*
X0217333Y0259865D01*
X0217443Y0259748D01*
X0217550Y0259629D01*
X0217654Y0259506D01*
X0217755Y0259381D01*
X0217853Y0259254D01*
X0217948Y0259124D01*
X0218039Y0258992D01*
X0218128Y0258858D01*
X0218213Y0258721D01*
X0218294Y0258583D01*
X0218372Y0258442D01*
X0218447Y0258300D01*
X0218518Y0258156D01*
X0218585Y0258010D01*
X0218649Y0257862D01*
X0218709Y0257713D01*
X0218765Y0257563D01*
X0218818Y0257411D01*
X0218867Y0257258D01*
X0218912Y0257104D01*
X0218953Y0256949D01*
X0218991Y0256792D01*
X0219024Y0256635D01*
X0219054Y0256477D01*
X0219080Y0256319D01*
X0219101Y0256159D01*
X0219119Y0256000D01*
X0219133Y0255840D01*
X0219143Y0255679D01*
X0219149Y0255519D01*
X0219151Y0255358D01*
X0219149Y0255197D01*
X0219143Y0255037D01*
X0219133Y0254876D01*
X0219119Y0254716D01*
X0219101Y0254557D01*
X0219080Y0254397D01*
X0219054Y0254239D01*
X0219024Y0254081D01*
X0218991Y0253924D01*
X0218953Y0253767D01*
X0218912Y0253612D01*
X0218867Y0253458D01*
X0218818Y0253305D01*
X0218765Y0253153D01*
X0218709Y0253003D01*
X0218649Y0252854D01*
X0218585Y0252706D01*
X0218518Y0252560D01*
X0218447Y0252416D01*
X0218372Y0252274D01*
X0218294Y0252133D01*
X0218213Y0251995D01*
X0218128Y0251858D01*
X0218039Y0251724D01*
X0217948Y0251592D01*
X0217853Y0251462D01*
X0217755Y0251335D01*
X0217654Y0251210D01*
X0217550Y0251087D01*
X0217443Y0250968D01*
X0217333Y0250851D01*
X0217220Y0250736D01*
X0217104Y0250625D01*
X0216986Y0250516D01*
X0216865Y0250411D01*
X0216741Y0250308D01*
X0216615Y0250208D01*
X0216486Y0250112D01*
X0216355Y0250019D01*
X0216222Y0249929D01*
X0216087Y0249842D01*
X0215949Y0249759D01*
X0215810Y0249680D01*
X0215668Y0249603D01*
X0215525Y0249530D01*
X0215380Y0249461D01*
X0215233Y0249396D01*
X0215085Y0249334D01*
X0214935Y0249275D01*
X0214784Y0249221D01*
X0214632Y0249170D01*
X0214478Y0249123D01*
X0214323Y0249080D01*
X0214168Y0249041D01*
X0214011Y0249005D01*
X0213853Y0248973D01*
X0213695Y0248946D01*
X0213536Y0248922D01*
X0213377Y0248902D01*
X0213217Y0248886D01*
X0213056Y0248874D01*
X0212896Y0248866D01*
X0212735Y0248862D01*
X0212575Y0248862D01*
X0212414Y0248866D01*
X0212254Y0248874D01*
X0212093Y0248886D01*
X0211933Y0248902D01*
X0211774Y0248922D01*
X0211615Y0248946D01*
X0211457Y0248973D01*
X0211299Y0249005D01*
X0211142Y0249041D01*
X0210987Y0249080D01*
X0210832Y0249123D01*
X0210678Y0249170D01*
X0210526Y0249221D01*
X0210375Y0249275D01*
X0210225Y0249334D01*
X0210077Y0249396D01*
X0209930Y0249461D01*
X0209785Y0249530D01*
X0209642Y0249603D01*
X0209500Y0249680D01*
X0209361Y0249759D01*
X0209223Y0249842D01*
X0209088Y0249929D01*
X0208955Y0250019D01*
X0208824Y0250112D01*
X0208695Y0250208D01*
X0208569Y0250308D01*
X0208445Y0250411D01*
X0208324Y0250516D01*
X0208206Y0250625D01*
X0208090Y0250736D01*
X0207977Y0250851D01*
X0207867Y0250968D01*
X0207760Y0251087D01*
X0207656Y0251210D01*
X0207555Y0251335D01*
X0207457Y0251462D01*
X0207362Y0251592D01*
X0207271Y0251724D01*
X0207182Y0251858D01*
X0207097Y0251995D01*
X0207016Y0252133D01*
X0206938Y0252274D01*
X0206863Y0252416D01*
X0206792Y0252560D01*
X0206725Y0252706D01*
X0206661Y0252854D01*
X0206601Y0253003D01*
X0206545Y0253153D01*
X0206492Y0253305D01*
X0206443Y0253458D01*
X0206398Y0253612D01*
X0206357Y0253767D01*
X0206319Y0253924D01*
X0206286Y0254081D01*
X0206256Y0254239D01*
X0206230Y0254397D01*
X0206209Y0254557D01*
X0206191Y0254716D01*
X0206177Y0254876D01*
X0206167Y0255037D01*
X0206161Y0255197D01*
X0206159Y0255358D01*
M02*
