G75*
%MOIN*%
%OFA0B0*%
%FSLAX25Y25*%
%IPPOS*%
%LPD*%
%AMOC8*
5,1,8,0,0,1.08239X$1,22.5*
%
%ADD10C,0.00500*%
%ADD11C,0.00000*%
D10*
X0048285Y0052602D02*
X0048285Y0269137D01*
X0233324Y0269137D01*
X0233324Y0052602D01*
X0048285Y0052602D01*
D11*
X0058521Y0255358D02*
X0058523Y0255519D01*
X0058529Y0255679D01*
X0058539Y0255840D01*
X0058553Y0256000D01*
X0058571Y0256159D01*
X0058592Y0256319D01*
X0058618Y0256477D01*
X0058648Y0256635D01*
X0058681Y0256792D01*
X0058719Y0256949D01*
X0058760Y0257104D01*
X0058805Y0257258D01*
X0058854Y0257411D01*
X0058907Y0257563D01*
X0058963Y0257713D01*
X0059023Y0257862D01*
X0059087Y0258010D01*
X0059154Y0258156D01*
X0059225Y0258300D01*
X0059300Y0258442D01*
X0059378Y0258583D01*
X0059459Y0258721D01*
X0059544Y0258858D01*
X0059633Y0258992D01*
X0059724Y0259124D01*
X0059819Y0259254D01*
X0059917Y0259381D01*
X0060018Y0259506D01*
X0060122Y0259629D01*
X0060229Y0259748D01*
X0060339Y0259865D01*
X0060452Y0259980D01*
X0060568Y0260091D01*
X0060686Y0260200D01*
X0060807Y0260305D01*
X0060931Y0260408D01*
X0061057Y0260508D01*
X0061186Y0260604D01*
X0061317Y0260697D01*
X0061450Y0260787D01*
X0061585Y0260874D01*
X0061723Y0260957D01*
X0061862Y0261036D01*
X0062004Y0261113D01*
X0062147Y0261186D01*
X0062292Y0261255D01*
X0062439Y0261320D01*
X0062587Y0261382D01*
X0062737Y0261441D01*
X0062888Y0261495D01*
X0063040Y0261546D01*
X0063194Y0261593D01*
X0063349Y0261636D01*
X0063504Y0261675D01*
X0063661Y0261711D01*
X0063819Y0261743D01*
X0063977Y0261770D01*
X0064136Y0261794D01*
X0064295Y0261814D01*
X0064455Y0261830D01*
X0064616Y0261842D01*
X0064776Y0261850D01*
X0064937Y0261854D01*
X0065097Y0261854D01*
X0065258Y0261850D01*
X0065418Y0261842D01*
X0065579Y0261830D01*
X0065739Y0261814D01*
X0065898Y0261794D01*
X0066057Y0261770D01*
X0066215Y0261743D01*
X0066373Y0261711D01*
X0066530Y0261675D01*
X0066685Y0261636D01*
X0066840Y0261593D01*
X0066994Y0261546D01*
X0067146Y0261495D01*
X0067297Y0261441D01*
X0067447Y0261382D01*
X0067595Y0261320D01*
X0067742Y0261255D01*
X0067887Y0261186D01*
X0068030Y0261113D01*
X0068172Y0261036D01*
X0068311Y0260957D01*
X0068449Y0260874D01*
X0068584Y0260787D01*
X0068717Y0260697D01*
X0068848Y0260604D01*
X0068977Y0260508D01*
X0069103Y0260408D01*
X0069227Y0260305D01*
X0069348Y0260200D01*
X0069466Y0260091D01*
X0069582Y0259980D01*
X0069695Y0259865D01*
X0069805Y0259748D01*
X0069912Y0259629D01*
X0070016Y0259506D01*
X0070117Y0259381D01*
X0070215Y0259254D01*
X0070310Y0259124D01*
X0070401Y0258992D01*
X0070490Y0258858D01*
X0070575Y0258721D01*
X0070656Y0258583D01*
X0070734Y0258442D01*
X0070809Y0258300D01*
X0070880Y0258156D01*
X0070947Y0258010D01*
X0071011Y0257862D01*
X0071071Y0257713D01*
X0071127Y0257563D01*
X0071180Y0257411D01*
X0071229Y0257258D01*
X0071274Y0257104D01*
X0071315Y0256949D01*
X0071353Y0256792D01*
X0071386Y0256635D01*
X0071416Y0256477D01*
X0071442Y0256319D01*
X0071463Y0256159D01*
X0071481Y0256000D01*
X0071495Y0255840D01*
X0071505Y0255679D01*
X0071511Y0255519D01*
X0071513Y0255358D01*
X0071511Y0255197D01*
X0071505Y0255037D01*
X0071495Y0254876D01*
X0071481Y0254716D01*
X0071463Y0254557D01*
X0071442Y0254397D01*
X0071416Y0254239D01*
X0071386Y0254081D01*
X0071353Y0253924D01*
X0071315Y0253767D01*
X0071274Y0253612D01*
X0071229Y0253458D01*
X0071180Y0253305D01*
X0071127Y0253153D01*
X0071071Y0253003D01*
X0071011Y0252854D01*
X0070947Y0252706D01*
X0070880Y0252560D01*
X0070809Y0252416D01*
X0070734Y0252274D01*
X0070656Y0252133D01*
X0070575Y0251995D01*
X0070490Y0251858D01*
X0070401Y0251724D01*
X0070310Y0251592D01*
X0070215Y0251462D01*
X0070117Y0251335D01*
X0070016Y0251210D01*
X0069912Y0251087D01*
X0069805Y0250968D01*
X0069695Y0250851D01*
X0069582Y0250736D01*
X0069466Y0250625D01*
X0069348Y0250516D01*
X0069227Y0250411D01*
X0069103Y0250308D01*
X0068977Y0250208D01*
X0068848Y0250112D01*
X0068717Y0250019D01*
X0068584Y0249929D01*
X0068449Y0249842D01*
X0068311Y0249759D01*
X0068172Y0249680D01*
X0068030Y0249603D01*
X0067887Y0249530D01*
X0067742Y0249461D01*
X0067595Y0249396D01*
X0067447Y0249334D01*
X0067297Y0249275D01*
X0067146Y0249221D01*
X0066994Y0249170D01*
X0066840Y0249123D01*
X0066685Y0249080D01*
X0066530Y0249041D01*
X0066373Y0249005D01*
X0066215Y0248973D01*
X0066057Y0248946D01*
X0065898Y0248922D01*
X0065739Y0248902D01*
X0065579Y0248886D01*
X0065418Y0248874D01*
X0065258Y0248866D01*
X0065097Y0248862D01*
X0064937Y0248862D01*
X0064776Y0248866D01*
X0064616Y0248874D01*
X0064455Y0248886D01*
X0064295Y0248902D01*
X0064136Y0248922D01*
X0063977Y0248946D01*
X0063819Y0248973D01*
X0063661Y0249005D01*
X0063504Y0249041D01*
X0063349Y0249080D01*
X0063194Y0249123D01*
X0063040Y0249170D01*
X0062888Y0249221D01*
X0062737Y0249275D01*
X0062587Y0249334D01*
X0062439Y0249396D01*
X0062292Y0249461D01*
X0062147Y0249530D01*
X0062004Y0249603D01*
X0061862Y0249680D01*
X0061723Y0249759D01*
X0061585Y0249842D01*
X0061450Y0249929D01*
X0061317Y0250019D01*
X0061186Y0250112D01*
X0061057Y0250208D01*
X0060931Y0250308D01*
X0060807Y0250411D01*
X0060686Y0250516D01*
X0060568Y0250625D01*
X0060452Y0250736D01*
X0060339Y0250851D01*
X0060229Y0250968D01*
X0060122Y0251087D01*
X0060018Y0251210D01*
X0059917Y0251335D01*
X0059819Y0251462D01*
X0059724Y0251592D01*
X0059633Y0251724D01*
X0059544Y0251858D01*
X0059459Y0251995D01*
X0059378Y0252133D01*
X0059300Y0252274D01*
X0059225Y0252416D01*
X0059154Y0252560D01*
X0059087Y0252706D01*
X0059023Y0252854D01*
X0058963Y0253003D01*
X0058907Y0253153D01*
X0058854Y0253305D01*
X0058805Y0253458D01*
X0058760Y0253612D01*
X0058719Y0253767D01*
X0058681Y0253924D01*
X0058648Y0254081D01*
X0058618Y0254239D01*
X0058592Y0254397D01*
X0058571Y0254557D01*
X0058553Y0254716D01*
X0058539Y0254876D01*
X0058529Y0255037D01*
X0058523Y0255197D01*
X0058521Y0255358D01*
X0210096Y0255358D02*
X0210098Y0255519D01*
X0210104Y0255679D01*
X0210114Y0255840D01*
X0210128Y0256000D01*
X0210146Y0256159D01*
X0210167Y0256319D01*
X0210193Y0256477D01*
X0210223Y0256635D01*
X0210256Y0256792D01*
X0210294Y0256949D01*
X0210335Y0257104D01*
X0210380Y0257258D01*
X0210429Y0257411D01*
X0210482Y0257563D01*
X0210538Y0257713D01*
X0210598Y0257862D01*
X0210662Y0258010D01*
X0210729Y0258156D01*
X0210800Y0258300D01*
X0210875Y0258442D01*
X0210953Y0258583D01*
X0211034Y0258721D01*
X0211119Y0258858D01*
X0211208Y0258992D01*
X0211299Y0259124D01*
X0211394Y0259254D01*
X0211492Y0259381D01*
X0211593Y0259506D01*
X0211697Y0259629D01*
X0211804Y0259748D01*
X0211914Y0259865D01*
X0212027Y0259980D01*
X0212143Y0260091D01*
X0212261Y0260200D01*
X0212382Y0260305D01*
X0212506Y0260408D01*
X0212632Y0260508D01*
X0212761Y0260604D01*
X0212892Y0260697D01*
X0213025Y0260787D01*
X0213160Y0260874D01*
X0213298Y0260957D01*
X0213437Y0261036D01*
X0213579Y0261113D01*
X0213722Y0261186D01*
X0213867Y0261255D01*
X0214014Y0261320D01*
X0214162Y0261382D01*
X0214312Y0261441D01*
X0214463Y0261495D01*
X0214615Y0261546D01*
X0214769Y0261593D01*
X0214924Y0261636D01*
X0215079Y0261675D01*
X0215236Y0261711D01*
X0215394Y0261743D01*
X0215552Y0261770D01*
X0215711Y0261794D01*
X0215870Y0261814D01*
X0216030Y0261830D01*
X0216191Y0261842D01*
X0216351Y0261850D01*
X0216512Y0261854D01*
X0216672Y0261854D01*
X0216833Y0261850D01*
X0216993Y0261842D01*
X0217154Y0261830D01*
X0217314Y0261814D01*
X0217473Y0261794D01*
X0217632Y0261770D01*
X0217790Y0261743D01*
X0217948Y0261711D01*
X0218105Y0261675D01*
X0218260Y0261636D01*
X0218415Y0261593D01*
X0218569Y0261546D01*
X0218721Y0261495D01*
X0218872Y0261441D01*
X0219022Y0261382D01*
X0219170Y0261320D01*
X0219317Y0261255D01*
X0219462Y0261186D01*
X0219605Y0261113D01*
X0219747Y0261036D01*
X0219886Y0260957D01*
X0220024Y0260874D01*
X0220159Y0260787D01*
X0220292Y0260697D01*
X0220423Y0260604D01*
X0220552Y0260508D01*
X0220678Y0260408D01*
X0220802Y0260305D01*
X0220923Y0260200D01*
X0221041Y0260091D01*
X0221157Y0259980D01*
X0221270Y0259865D01*
X0221380Y0259748D01*
X0221487Y0259629D01*
X0221591Y0259506D01*
X0221692Y0259381D01*
X0221790Y0259254D01*
X0221885Y0259124D01*
X0221976Y0258992D01*
X0222065Y0258858D01*
X0222150Y0258721D01*
X0222231Y0258583D01*
X0222309Y0258442D01*
X0222384Y0258300D01*
X0222455Y0258156D01*
X0222522Y0258010D01*
X0222586Y0257862D01*
X0222646Y0257713D01*
X0222702Y0257563D01*
X0222755Y0257411D01*
X0222804Y0257258D01*
X0222849Y0257104D01*
X0222890Y0256949D01*
X0222928Y0256792D01*
X0222961Y0256635D01*
X0222991Y0256477D01*
X0223017Y0256319D01*
X0223038Y0256159D01*
X0223056Y0256000D01*
X0223070Y0255840D01*
X0223080Y0255679D01*
X0223086Y0255519D01*
X0223088Y0255358D01*
X0223086Y0255197D01*
X0223080Y0255037D01*
X0223070Y0254876D01*
X0223056Y0254716D01*
X0223038Y0254557D01*
X0223017Y0254397D01*
X0222991Y0254239D01*
X0222961Y0254081D01*
X0222928Y0253924D01*
X0222890Y0253767D01*
X0222849Y0253612D01*
X0222804Y0253458D01*
X0222755Y0253305D01*
X0222702Y0253153D01*
X0222646Y0253003D01*
X0222586Y0252854D01*
X0222522Y0252706D01*
X0222455Y0252560D01*
X0222384Y0252416D01*
X0222309Y0252274D01*
X0222231Y0252133D01*
X0222150Y0251995D01*
X0222065Y0251858D01*
X0221976Y0251724D01*
X0221885Y0251592D01*
X0221790Y0251462D01*
X0221692Y0251335D01*
X0221591Y0251210D01*
X0221487Y0251087D01*
X0221380Y0250968D01*
X0221270Y0250851D01*
X0221157Y0250736D01*
X0221041Y0250625D01*
X0220923Y0250516D01*
X0220802Y0250411D01*
X0220678Y0250308D01*
X0220552Y0250208D01*
X0220423Y0250112D01*
X0220292Y0250019D01*
X0220159Y0249929D01*
X0220024Y0249842D01*
X0219886Y0249759D01*
X0219747Y0249680D01*
X0219605Y0249603D01*
X0219462Y0249530D01*
X0219317Y0249461D01*
X0219170Y0249396D01*
X0219022Y0249334D01*
X0218872Y0249275D01*
X0218721Y0249221D01*
X0218569Y0249170D01*
X0218415Y0249123D01*
X0218260Y0249080D01*
X0218105Y0249041D01*
X0217948Y0249005D01*
X0217790Y0248973D01*
X0217632Y0248946D01*
X0217473Y0248922D01*
X0217314Y0248902D01*
X0217154Y0248886D01*
X0216993Y0248874D01*
X0216833Y0248866D01*
X0216672Y0248862D01*
X0216512Y0248862D01*
X0216351Y0248866D01*
X0216191Y0248874D01*
X0216030Y0248886D01*
X0215870Y0248902D01*
X0215711Y0248922D01*
X0215552Y0248946D01*
X0215394Y0248973D01*
X0215236Y0249005D01*
X0215079Y0249041D01*
X0214924Y0249080D01*
X0214769Y0249123D01*
X0214615Y0249170D01*
X0214463Y0249221D01*
X0214312Y0249275D01*
X0214162Y0249334D01*
X0214014Y0249396D01*
X0213867Y0249461D01*
X0213722Y0249530D01*
X0213579Y0249603D01*
X0213437Y0249680D01*
X0213298Y0249759D01*
X0213160Y0249842D01*
X0213025Y0249929D01*
X0212892Y0250019D01*
X0212761Y0250112D01*
X0212632Y0250208D01*
X0212506Y0250308D01*
X0212382Y0250411D01*
X0212261Y0250516D01*
X0212143Y0250625D01*
X0212027Y0250736D01*
X0211914Y0250851D01*
X0211804Y0250968D01*
X0211697Y0251087D01*
X0211593Y0251210D01*
X0211492Y0251335D01*
X0211394Y0251462D01*
X0211299Y0251592D01*
X0211208Y0251724D01*
X0211119Y0251858D01*
X0211034Y0251995D01*
X0210953Y0252133D01*
X0210875Y0252274D01*
X0210800Y0252416D01*
X0210729Y0252560D01*
X0210662Y0252706D01*
X0210598Y0252854D01*
X0210538Y0253003D01*
X0210482Y0253153D01*
X0210429Y0253305D01*
X0210380Y0253458D01*
X0210335Y0253612D01*
X0210294Y0253767D01*
X0210256Y0253924D01*
X0210223Y0254081D01*
X0210193Y0254239D01*
X0210167Y0254397D01*
X0210146Y0254557D01*
X0210128Y0254716D01*
X0210114Y0254876D01*
X0210104Y0255037D01*
X0210098Y0255197D01*
X0210096Y0255358D01*
M02*
