G75*
%MOIN*%
%OFA0B0*%
%FSLAX25Y25*%
%IPPOS*%
%LPD*%
%AMOC8*
5,1,8,0,0,1.08239X$1,22.5*
%
%ADD10C,0.00500*%
%ADD11C,0.00400*%
%ADD12C,0.00600*%
%ADD13C,0.00300*%
%ADD14R,0.15000X0.02500*%
%ADD15R,0.00886X0.00984*%
%ADD16C,0.00787*%
%ADD17C,0.00394*%
%ADD18C,0.00800*%
%ADD19R,0.09646X0.02657*%
%ADD20C,0.01000*%
%ADD21R,0.00886X0.00886*%
%ADD22C,0.00000*%
%ADD23C,0.01181*%
%ADD24R,0.00984X0.00886*%
D10*
X0048285Y0052602D02*
X0048285Y0269137D01*
X0225450Y0269137D01*
X0225450Y0052602D01*
X0048285Y0052602D01*
X0077035Y0068227D02*
X0082035Y0063227D01*
X0087035Y0068227D01*
X0077035Y0068227D01*
X0085316Y0081666D02*
X0084566Y0082416D01*
X0084566Y0086169D01*
X0087568Y0086169D02*
X0087568Y0082416D01*
X0086818Y0081666D01*
X0085316Y0081666D01*
X0089170Y0082416D02*
X0089920Y0081666D01*
X0091422Y0081666D01*
X0092172Y0082416D01*
X0092172Y0083167D01*
X0091422Y0083918D01*
X0089920Y0083918D01*
X0089170Y0084668D01*
X0089170Y0085419D01*
X0089920Y0086169D01*
X0091422Y0086169D01*
X0092172Y0085419D01*
X0090671Y0086920D02*
X0090671Y0080915D01*
X0093774Y0082416D02*
X0094524Y0081666D01*
X0096026Y0081666D01*
X0096776Y0082416D01*
X0096776Y0083167D01*
X0096026Y0083918D01*
X0093774Y0083918D01*
X0093774Y0082416D01*
X0093774Y0083918D02*
X0095275Y0085419D01*
X0096776Y0086169D01*
X0096159Y0088581D02*
X0097931Y0088581D01*
X0097931Y0090353D01*
X0097931Y0106101D02*
X0097931Y0107872D01*
X0096159Y0107872D01*
X0080411Y0107872D02*
X0078639Y0107872D01*
X0078639Y0106101D01*
X0078639Y0090353D02*
X0078639Y0088581D01*
X0080411Y0088581D01*
X0121410Y0060727D02*
X0121410Y0058852D01*
X0120450Y0058852D01*
X0121410Y0058852D02*
X0121410Y0056976D01*
X0121410Y0058852D02*
X0123910Y0060727D01*
X0123910Y0058852D01*
X0124870Y0058852D01*
X0123910Y0058852D02*
X0123910Y0056976D01*
X0121410Y0058852D01*
X0144784Y0124040D02*
X0145535Y0124791D01*
X0145535Y0125541D01*
X0144784Y0126292D01*
X0141031Y0126292D01*
X0141031Y0127042D02*
X0141031Y0125541D01*
X0141031Y0128644D02*
X0141031Y0130896D01*
X0141782Y0131646D01*
X0143283Y0131646D01*
X0144034Y0130896D01*
X0144034Y0128644D01*
X0145535Y0128644D02*
X0141031Y0128644D01*
X0142533Y0133248D02*
X0141031Y0134749D01*
X0145535Y0134749D01*
X0145535Y0133248D02*
X0145535Y0136250D01*
X0127035Y0168851D02*
X0124535Y0170727D01*
X0123575Y0170727D01*
X0124535Y0170727D02*
X0124535Y0172602D01*
X0124535Y0170727D02*
X0124535Y0168851D01*
X0124535Y0170727D02*
X0127035Y0172602D01*
X0127035Y0170727D01*
X0127995Y0170727D01*
X0127035Y0170727D02*
X0127035Y0168851D01*
X0127035Y0178851D02*
X0127035Y0180727D01*
X0127995Y0180727D01*
X0127035Y0180727D02*
X0127035Y0182602D01*
X0124535Y0180727D01*
X0123575Y0180727D01*
X0124535Y0180727D02*
X0124535Y0178851D01*
X0124535Y0180727D02*
X0124535Y0182602D01*
X0124535Y0180727D02*
X0127035Y0178851D01*
X0061410Y0226976D02*
X0061410Y0228852D01*
X0062370Y0228852D01*
X0061410Y0228852D02*
X0061410Y0230727D01*
X0058910Y0228852D01*
X0057950Y0228852D01*
X0058910Y0228852D02*
X0058910Y0226976D01*
X0058910Y0228852D02*
X0058910Y0230727D01*
X0058910Y0228852D02*
X0061410Y0226976D01*
X0211700Y0228852D02*
X0212660Y0228852D01*
X0212660Y0226976D01*
X0215160Y0228852D01*
X0216120Y0228852D01*
X0215160Y0228852D02*
X0215160Y0226976D01*
X0215160Y0228852D02*
X0212660Y0230727D01*
X0212660Y0228852D01*
X0215160Y0228852D02*
X0215160Y0230727D01*
D11*
X0216902Y0224156D02*
X0219204Y0224156D01*
X0219972Y0223388D01*
X0219972Y0220319D01*
X0219204Y0219552D01*
X0216902Y0219552D01*
X0216902Y0224156D01*
X0221506Y0223388D02*
X0221506Y0222621D01*
X0222273Y0221854D01*
X0223808Y0221854D01*
X0224575Y0221086D01*
X0224575Y0220319D01*
X0223808Y0219552D01*
X0222273Y0219552D01*
X0221506Y0220319D01*
X0221506Y0221086D01*
X0222273Y0221854D01*
X0223808Y0221854D02*
X0224575Y0222621D01*
X0224575Y0223388D01*
X0223808Y0224156D01*
X0222273Y0224156D01*
X0221506Y0223388D01*
X0224731Y0218142D02*
X0225499Y0216607D01*
X0227033Y0215073D01*
X0227033Y0217375D01*
X0227800Y0218142D01*
X0228568Y0218142D01*
X0229335Y0217375D01*
X0229335Y0215840D01*
X0228568Y0215073D01*
X0227033Y0215073D01*
X0226266Y0213538D02*
X0225499Y0213538D01*
X0224731Y0212771D01*
X0224731Y0211236D01*
X0225499Y0210469D01*
X0225499Y0208934D02*
X0227033Y0208934D01*
X0227800Y0208167D01*
X0227800Y0205865D01*
X0227033Y0205698D02*
X0226266Y0207232D01*
X0226266Y0208000D01*
X0227033Y0208767D01*
X0228568Y0208767D01*
X0229335Y0208000D01*
X0229335Y0206465D01*
X0228568Y0205698D01*
X0229335Y0205865D02*
X0224731Y0205865D01*
X0224731Y0208167D01*
X0225499Y0208934D01*
X0224731Y0208767D02*
X0224731Y0205698D01*
X0227033Y0205698D01*
X0226266Y0204163D02*
X0229335Y0201094D01*
X0229335Y0204163D01*
X0227800Y0207399D02*
X0229335Y0208934D01*
X0229335Y0210469D02*
X0226266Y0213538D01*
X0229335Y0213538D02*
X0229335Y0210469D01*
X0226266Y0204163D02*
X0225499Y0204163D01*
X0224731Y0203396D01*
X0224731Y0201861D01*
X0225499Y0201094D01*
X0225499Y0199559D02*
X0227033Y0199559D01*
X0227800Y0198792D01*
X0227800Y0196490D01*
X0227800Y0198024D02*
X0229335Y0199559D01*
X0229335Y0196490D02*
X0224731Y0196490D01*
X0224731Y0198792D01*
X0225499Y0199559D01*
X0212460Y0188061D02*
X0207856Y0188061D01*
X0210158Y0185760D01*
X0210158Y0188829D01*
X0209391Y0184225D02*
X0208624Y0184225D01*
X0207856Y0183458D01*
X0207856Y0181923D01*
X0208624Y0181156D01*
X0208624Y0179621D02*
X0210158Y0179621D01*
X0210925Y0178854D01*
X0210925Y0176552D01*
X0210925Y0178086D02*
X0212460Y0179621D01*
X0212460Y0181156D02*
X0209391Y0184225D01*
X0208624Y0179621D02*
X0207856Y0178854D01*
X0207856Y0176552D01*
X0212460Y0176552D01*
X0212460Y0181156D02*
X0212460Y0184225D01*
X0204335Y0183458D02*
X0204335Y0181923D01*
X0203568Y0181156D01*
X0204335Y0179621D02*
X0202800Y0178086D01*
X0202800Y0178854D02*
X0202800Y0176552D01*
X0204335Y0176552D02*
X0199731Y0176552D01*
X0199731Y0178854D01*
X0200499Y0179621D01*
X0202033Y0179621D01*
X0202800Y0178854D01*
X0200499Y0181156D02*
X0199731Y0181923D01*
X0199731Y0183458D01*
X0200499Y0184225D01*
X0201266Y0184225D01*
X0202033Y0183458D01*
X0202800Y0184225D01*
X0203568Y0184225D01*
X0204335Y0183458D01*
X0202033Y0183458D02*
X0202033Y0182690D01*
X0200499Y0185760D02*
X0199731Y0186527D01*
X0199731Y0188061D01*
X0200499Y0188829D01*
X0201266Y0188829D01*
X0202033Y0188061D01*
X0202800Y0188829D01*
X0203568Y0188829D01*
X0204335Y0188061D01*
X0204335Y0186527D01*
X0203568Y0185760D01*
X0202033Y0187294D02*
X0202033Y0188061D01*
X0196210Y0188061D02*
X0196210Y0186527D01*
X0195443Y0185760D01*
X0195443Y0184225D02*
X0194675Y0184225D01*
X0193908Y0183458D01*
X0193908Y0182690D01*
X0193908Y0183458D02*
X0193141Y0184225D01*
X0192374Y0184225D01*
X0191606Y0183458D01*
X0191606Y0181923D01*
X0192374Y0181156D01*
X0192374Y0179621D02*
X0193908Y0179621D01*
X0194675Y0178854D01*
X0194675Y0176552D01*
X0194675Y0178086D02*
X0196210Y0179621D01*
X0195443Y0181156D02*
X0196210Y0181923D01*
X0196210Y0183458D01*
X0195443Y0184225D01*
X0193908Y0186527D02*
X0193908Y0188829D01*
X0192374Y0188829D02*
X0191606Y0188061D01*
X0191606Y0186527D01*
X0192374Y0185760D01*
X0193141Y0185760D01*
X0193908Y0186527D01*
X0195443Y0188829D02*
X0192374Y0188829D01*
X0195443Y0188829D02*
X0196210Y0188061D01*
X0192374Y0179621D02*
X0191606Y0178854D01*
X0191606Y0176552D01*
X0196210Y0176552D01*
X0185585Y0176552D02*
X0180981Y0176552D01*
X0180981Y0178854D01*
X0181749Y0179621D01*
X0183283Y0179621D01*
X0184050Y0178854D01*
X0184050Y0176552D01*
X0184050Y0178086D02*
X0185585Y0179621D01*
X0185585Y0181156D02*
X0185585Y0184225D01*
X0185585Y0182690D02*
X0180981Y0182690D01*
X0182516Y0181156D01*
X0179085Y0180656D02*
X0179085Y0183725D01*
X0179085Y0182190D02*
X0174481Y0182190D01*
X0176016Y0180656D01*
X0174960Y0179479D02*
X0174960Y0177944D01*
X0174193Y0177177D01*
X0171124Y0177177D01*
X0170356Y0177944D01*
X0170356Y0179479D01*
X0171124Y0180246D01*
X0171210Y0179875D02*
X0171210Y0178340D01*
X0170443Y0177573D01*
X0169675Y0177573D01*
X0168908Y0178340D01*
X0168908Y0179875D01*
X0169675Y0180642D01*
X0170443Y0180642D01*
X0171210Y0179875D01*
X0168908Y0179875D02*
X0168141Y0180642D01*
X0167374Y0180642D01*
X0166606Y0179875D01*
X0166606Y0178340D01*
X0167374Y0177573D01*
X0168141Y0177573D01*
X0168908Y0178340D01*
X0169675Y0176038D02*
X0168908Y0175271D01*
X0168908Y0172969D01*
X0170443Y0172969D01*
X0171210Y0173736D01*
X0171210Y0175271D01*
X0170443Y0176038D01*
X0169675Y0176038D01*
X0167374Y0174503D02*
X0168908Y0172969D01*
X0167374Y0174503D02*
X0166606Y0176038D01*
X0166210Y0175271D02*
X0165443Y0176038D01*
X0164675Y0176038D01*
X0163908Y0175271D01*
X0163908Y0172969D01*
X0165443Y0172969D01*
X0166210Y0173736D01*
X0166210Y0175271D01*
X0166210Y0177573D02*
X0165443Y0177573D01*
X0162374Y0180642D01*
X0161606Y0180642D01*
X0161606Y0177573D01*
X0161606Y0176038D02*
X0162374Y0174503D01*
X0163908Y0172969D01*
X0162374Y0171434D02*
X0161606Y0170667D01*
X0161606Y0169132D01*
X0162374Y0168365D01*
X0165443Y0168365D01*
X0166210Y0169132D01*
X0166210Y0170667D01*
X0165443Y0171434D01*
X0166606Y0170667D02*
X0166606Y0169132D01*
X0167374Y0168365D01*
X0170443Y0168365D01*
X0171210Y0169132D01*
X0171210Y0170667D01*
X0170443Y0171434D01*
X0167374Y0171434D02*
X0166606Y0170667D01*
X0165443Y0169392D02*
X0166210Y0168625D01*
X0166210Y0167090D01*
X0165443Y0166323D01*
X0165443Y0164788D02*
X0164675Y0164788D01*
X0163908Y0164021D01*
X0163908Y0161719D01*
X0165443Y0161719D01*
X0166210Y0162486D01*
X0166210Y0164021D01*
X0165443Y0164788D01*
X0163141Y0166323D02*
X0163908Y0167090D01*
X0163908Y0169392D01*
X0162374Y0169392D02*
X0165443Y0169392D01*
X0162374Y0169392D02*
X0161606Y0168625D01*
X0161606Y0167090D01*
X0162374Y0166323D01*
X0163141Y0166323D01*
X0161606Y0164788D02*
X0162374Y0163253D01*
X0163908Y0161719D01*
X0163908Y0160184D02*
X0162374Y0160184D01*
X0161606Y0159417D01*
X0161606Y0157115D01*
X0166210Y0157115D01*
X0164675Y0157115D02*
X0164675Y0159417D01*
X0163908Y0160184D01*
X0164675Y0158649D02*
X0166210Y0160184D01*
X0168624Y0154454D02*
X0167856Y0153686D01*
X0167856Y0152152D01*
X0168624Y0151385D01*
X0168624Y0149850D02*
X0169391Y0149850D01*
X0170158Y0149083D01*
X0170925Y0149850D01*
X0171693Y0149850D01*
X0172460Y0149083D01*
X0172460Y0147548D01*
X0171693Y0146781D01*
X0172460Y0145246D02*
X0170925Y0143711D01*
X0170925Y0144479D02*
X0170925Y0142177D01*
X0172460Y0142177D02*
X0167856Y0142177D01*
X0167856Y0144479D01*
X0168624Y0145246D01*
X0170158Y0145246D01*
X0170925Y0144479D01*
X0169512Y0144819D02*
X0169512Y0147888D01*
X0166443Y0144819D01*
X0167210Y0144052D01*
X0168745Y0144052D01*
X0169512Y0144819D01*
X0168683Y0144677D02*
X0168683Y0149281D01*
X0166381Y0146979D01*
X0169450Y0146979D01*
X0168624Y0146781D02*
X0167856Y0147548D01*
X0167856Y0149083D01*
X0168624Y0149850D01*
X0168745Y0148656D02*
X0167210Y0148656D01*
X0166443Y0147888D01*
X0166443Y0144819D01*
X0167318Y0145246D02*
X0168085Y0144479D01*
X0168085Y0142944D01*
X0167318Y0142177D01*
X0164249Y0142177D01*
X0163481Y0142944D01*
X0163481Y0144479D01*
X0164249Y0145246D01*
X0164079Y0144677D02*
X0164847Y0145444D01*
X0164847Y0146211D01*
X0164079Y0146979D01*
X0161777Y0146979D01*
X0161777Y0145444D01*
X0162545Y0144677D01*
X0164079Y0144677D01*
X0164908Y0144052D02*
X0161839Y0144052D01*
X0164908Y0147121D01*
X0164908Y0147888D01*
X0164141Y0148656D01*
X0162606Y0148656D01*
X0161839Y0147888D01*
X0161777Y0146979D02*
X0163312Y0148513D01*
X0164847Y0149281D01*
X0164249Y0149850D02*
X0167318Y0146781D01*
X0168085Y0146781D01*
X0169512Y0147888D02*
X0168745Y0148656D01*
X0170158Y0148315D02*
X0170158Y0149083D01*
X0172460Y0151385D02*
X0169391Y0154454D01*
X0168624Y0154454D01*
X0172460Y0154454D02*
X0172460Y0151385D01*
X0177981Y0151638D02*
X0178749Y0150871D01*
X0181818Y0150871D01*
X0182585Y0151638D01*
X0182585Y0153173D01*
X0181818Y0153940D01*
X0181818Y0155475D02*
X0182585Y0156242D01*
X0182585Y0157777D01*
X0181818Y0158544D01*
X0178749Y0158544D01*
X0177981Y0157777D01*
X0177981Y0156242D01*
X0178749Y0155475D01*
X0179516Y0155475D01*
X0180283Y0156242D01*
X0180283Y0158544D01*
X0178749Y0153940D02*
X0177981Y0153173D01*
X0177981Y0151638D01*
X0177981Y0149336D02*
X0177981Y0147802D01*
X0177981Y0148569D02*
X0182585Y0148569D01*
X0182585Y0147802D02*
X0182585Y0149336D01*
X0182231Y0144107D02*
X0186835Y0144107D01*
X0186550Y0143829D02*
X0185783Y0143061D01*
X0185783Y0140760D01*
X0187318Y0140760D01*
X0188085Y0141527D01*
X0188085Y0143061D01*
X0187318Y0143829D01*
X0186550Y0143829D01*
X0186835Y0142573D02*
X0186835Y0145642D01*
X0183481Y0143829D02*
X0184249Y0142294D01*
X0185783Y0140760D01*
X0186835Y0141038D02*
X0186835Y0137969D01*
X0185783Y0137690D02*
X0185783Y0138458D01*
X0186550Y0139225D01*
X0187318Y0139225D01*
X0188085Y0138458D01*
X0188085Y0136923D01*
X0187318Y0136156D01*
X0186835Y0135667D02*
X0186068Y0136434D01*
X0186294Y0136080D02*
X0186294Y0134546D01*
X0185526Y0133778D01*
X0186068Y0133365D02*
X0186835Y0134132D01*
X0186835Y0135667D01*
X0186294Y0136080D02*
X0185526Y0136848D01*
X0183992Y0136848D01*
X0183225Y0136080D01*
X0183225Y0135313D01*
X0183992Y0133778D01*
X0181690Y0133778D01*
X0181690Y0136848D01*
X0182231Y0135667D02*
X0182231Y0134132D01*
X0182999Y0133365D01*
X0186068Y0133365D01*
X0186550Y0133086D02*
X0188085Y0134621D01*
X0186550Y0133854D02*
X0186550Y0131552D01*
X0186294Y0131476D02*
X0185526Y0132244D01*
X0184759Y0132244D01*
X0183992Y0131476D01*
X0183992Y0129942D01*
X0183225Y0129174D01*
X0182457Y0129174D01*
X0181690Y0129942D01*
X0181690Y0131476D01*
X0182457Y0132244D01*
X0183481Y0131552D02*
X0183481Y0133854D01*
X0184249Y0134621D01*
X0185783Y0134621D01*
X0186550Y0133854D01*
X0186294Y0131476D02*
X0186294Y0129942D01*
X0185526Y0129174D01*
X0185526Y0127640D02*
X0181690Y0127640D01*
X0180923Y0130709D02*
X0187061Y0130709D01*
X0188085Y0131552D02*
X0183481Y0131552D01*
X0182231Y0135667D02*
X0182999Y0136434D01*
X0183481Y0136923D02*
X0183481Y0138458D01*
X0184249Y0139225D01*
X0185016Y0139225D01*
X0185783Y0138458D01*
X0186835Y0139503D02*
X0182231Y0139503D01*
X0183766Y0137969D01*
X0183481Y0136923D02*
X0184249Y0136156D01*
X0183766Y0142573D02*
X0182231Y0144107D01*
X0174137Y0135054D02*
X0172602Y0135054D01*
X0171835Y0134286D01*
X0174137Y0135054D02*
X0174904Y0134286D01*
X0174904Y0133519D01*
X0171835Y0130450D01*
X0174904Y0130450D01*
X0170300Y0130450D02*
X0167231Y0130450D01*
X0168766Y0130450D02*
X0168766Y0135054D01*
X0167231Y0133519D01*
X0165697Y0134286D02*
X0164929Y0135054D01*
X0163395Y0135054D01*
X0162627Y0134286D01*
X0162627Y0131217D01*
X0163395Y0130450D01*
X0164929Y0130450D01*
X0165697Y0131217D01*
X0163710Y0131750D02*
X0162943Y0132517D01*
X0159874Y0132517D01*
X0159106Y0131750D01*
X0159106Y0130215D01*
X0159874Y0129448D01*
X0160641Y0129448D01*
X0161408Y0130215D01*
X0161408Y0132517D01*
X0161093Y0130450D02*
X0159558Y0130450D01*
X0159251Y0130488D02*
X0159251Y0132023D01*
X0158484Y0132790D01*
X0154648Y0132790D01*
X0155415Y0134325D02*
X0154648Y0135092D01*
X0154648Y0136627D01*
X0155415Y0137394D01*
X0156152Y0138427D02*
X0159222Y0138427D01*
X0159251Y0138929D02*
X0159251Y0141998D01*
X0160756Y0142263D02*
X0160756Y0141496D01*
X0161523Y0140729D01*
X0163825Y0140729D01*
X0163825Y0142263D02*
X0163825Y0139194D01*
X0163058Y0138427D01*
X0161523Y0138427D01*
X0160756Y0139194D01*
X0159251Y0140463D02*
X0154648Y0140463D01*
X0156182Y0138929D01*
X0157687Y0138427D02*
X0157687Y0143031D01*
X0156152Y0141496D01*
X0154618Y0142263D02*
X0154618Y0140729D01*
X0153850Y0139961D01*
X0151548Y0139961D01*
X0150898Y0138854D02*
X0153200Y0138854D01*
X0153083Y0139961D02*
X0154618Y0138427D01*
X0153200Y0137319D02*
X0153200Y0140388D01*
X0152433Y0141156D01*
X0150898Y0141156D01*
X0150131Y0140388D01*
X0150131Y0139621D01*
X0150898Y0138854D01*
X0151548Y0138427D02*
X0151548Y0143031D01*
X0153850Y0143031D01*
X0154618Y0142263D01*
X0155415Y0143533D02*
X0154648Y0144300D01*
X0154648Y0145835D01*
X0155415Y0146602D01*
X0158484Y0143533D01*
X0159251Y0144300D01*
X0159251Y0145835D01*
X0158484Y0146602D01*
X0155415Y0146602D01*
X0157235Y0145586D02*
X0159537Y0145586D01*
X0160304Y0146354D01*
X0160304Y0147888D01*
X0159537Y0148656D01*
X0157235Y0148656D01*
X0157235Y0144052D01*
X0157941Y0144677D02*
X0159475Y0144677D01*
X0160243Y0145444D01*
X0160304Y0144052D02*
X0158770Y0145586D01*
X0157941Y0144677D02*
X0157173Y0145444D01*
X0157173Y0148513D01*
X0157941Y0149281D01*
X0159475Y0149281D01*
X0160243Y0148513D01*
X0163481Y0149850D02*
X0163481Y0146781D01*
X0163481Y0149850D02*
X0164249Y0149850D01*
X0163058Y0143031D02*
X0161523Y0143031D01*
X0160756Y0142263D01*
X0163058Y0143031D02*
X0163825Y0142263D01*
X0158484Y0143533D02*
X0155415Y0143533D01*
X0157717Y0137394D02*
X0156950Y0136627D01*
X0156950Y0135092D01*
X0156182Y0134325D01*
X0155415Y0134325D01*
X0153880Y0135860D02*
X0160019Y0135860D01*
X0160325Y0135054D02*
X0160325Y0130450D01*
X0159251Y0130488D02*
X0158484Y0129721D01*
X0154648Y0129721D01*
X0152353Y0127406D02*
X0152353Y0122802D01*
X0153120Y0123031D02*
X0153887Y0122263D01*
X0153887Y0121496D01*
X0153120Y0120729D01*
X0151585Y0120729D01*
X0150818Y0121496D01*
X0150818Y0122263D01*
X0151585Y0123031D01*
X0153120Y0123031D01*
X0153887Y0122802D02*
X0150818Y0122802D01*
X0149283Y0122263D02*
X0148516Y0123031D01*
X0146981Y0123031D01*
X0146214Y0122263D01*
X0144679Y0122263D02*
X0143912Y0123031D01*
X0142377Y0123031D01*
X0141610Y0122263D01*
X0141610Y0119194D01*
X0142377Y0118427D01*
X0143912Y0118427D01*
X0144679Y0119194D01*
X0144308Y0119479D02*
X0145075Y0118711D01*
X0145075Y0117944D01*
X0144308Y0117177D01*
X0142773Y0117177D01*
X0142006Y0117944D01*
X0141610Y0118656D02*
X0143912Y0118656D01*
X0144679Y0117888D01*
X0144679Y0116354D01*
X0143912Y0115586D01*
X0141610Y0115586D01*
X0141610Y0114052D02*
X0141610Y0118656D01*
X0140472Y0117177D02*
X0137402Y0117177D01*
X0135868Y0117177D02*
X0134333Y0118711D01*
X0135100Y0118711D02*
X0132798Y0118711D01*
X0132798Y0117177D02*
X0132798Y0121781D01*
X0135100Y0121781D01*
X0135868Y0121013D01*
X0135868Y0119479D01*
X0135100Y0118711D01*
X0137402Y0120246D02*
X0138937Y0121781D01*
X0138937Y0117177D01*
X0138568Y0114454D02*
X0135499Y0114454D01*
X0134731Y0113686D01*
X0134731Y0112152D01*
X0135499Y0111385D01*
X0136266Y0111385D01*
X0137033Y0112152D01*
X0137033Y0114454D01*
X0138568Y0114454D02*
X0139335Y0113686D01*
X0139335Y0112152D01*
X0138568Y0111385D01*
X0138568Y0109850D02*
X0139335Y0109083D01*
X0139335Y0107548D01*
X0138568Y0106781D01*
X0139106Y0106100D02*
X0139106Y0103031D01*
X0141408Y0103031D01*
X0140641Y0104565D01*
X0140641Y0105333D01*
X0141408Y0106100D01*
X0142943Y0106100D01*
X0143710Y0105333D01*
X0143710Y0103798D01*
X0142943Y0103031D01*
X0142943Y0101496D02*
X0143710Y0100729D01*
X0143710Y0099194D01*
X0142943Y0098427D01*
X0139874Y0098427D01*
X0139106Y0099194D01*
X0139106Y0100729D01*
X0139874Y0101496D01*
X0138568Y0102177D02*
X0139335Y0102944D01*
X0139335Y0104479D01*
X0138568Y0105246D01*
X0138568Y0102177D02*
X0135499Y0102177D01*
X0134731Y0102944D01*
X0134731Y0104479D01*
X0135499Y0105246D01*
X0135499Y0106781D02*
X0134731Y0107548D01*
X0134731Y0109083D01*
X0135499Y0109850D01*
X0136266Y0109850D01*
X0137033Y0109083D01*
X0137800Y0109850D01*
X0138568Y0109850D01*
X0139106Y0109169D02*
X0140641Y0107635D01*
X0139106Y0109169D02*
X0143710Y0109169D01*
X0143710Y0107635D02*
X0143710Y0110704D01*
X0144679Y0114052D02*
X0143145Y0115586D01*
X0146214Y0114819D02*
X0146981Y0114052D01*
X0148516Y0114052D01*
X0149283Y0114819D01*
X0149283Y0115586D01*
X0148516Y0116354D01*
X0147749Y0116354D01*
X0148516Y0116354D02*
X0149283Y0117121D01*
X0149283Y0117888D01*
X0148516Y0118656D01*
X0146981Y0118656D01*
X0146214Y0117888D01*
X0146214Y0118427D02*
X0149283Y0121496D01*
X0149283Y0122263D01*
X0148516Y0122802D02*
X0148516Y0127406D01*
X0146214Y0125104D01*
X0149283Y0125104D01*
X0150818Y0125871D02*
X0152353Y0127406D01*
X0153120Y0120729D02*
X0153887Y0119961D01*
X0153887Y0119194D01*
X0153120Y0118427D01*
X0151585Y0118427D01*
X0150818Y0119194D01*
X0150818Y0119961D01*
X0151585Y0120729D01*
X0151585Y0118656D02*
X0150818Y0117888D01*
X0150818Y0114819D01*
X0153887Y0117888D01*
X0153887Y0114819D01*
X0153120Y0114052D01*
X0151585Y0114052D01*
X0150818Y0114819D01*
X0151585Y0118656D02*
X0153120Y0118656D01*
X0153887Y0117888D01*
X0149283Y0118427D02*
X0146214Y0118427D01*
X0145075Y0120246D02*
X0144308Y0119479D01*
X0143541Y0119479D01*
X0145075Y0120246D02*
X0145075Y0121013D01*
X0144308Y0121781D01*
X0142773Y0121781D01*
X0142006Y0121013D01*
X0142377Y0122802D02*
X0143912Y0122802D01*
X0144679Y0123569D01*
X0144308Y0123427D02*
X0142773Y0123427D01*
X0142006Y0124194D01*
X0141610Y0123569D02*
X0142377Y0122802D01*
X0141610Y0123569D02*
X0141610Y0126638D01*
X0142377Y0127406D01*
X0143912Y0127406D01*
X0144679Y0126638D01*
X0144308Y0126496D02*
X0145075Y0125729D01*
X0145075Y0124194D01*
X0144308Y0123427D01*
X0144308Y0126496D02*
X0143541Y0126496D01*
X0142006Y0125729D01*
X0142006Y0128031D01*
X0145075Y0128031D01*
X0145075Y0128569D02*
X0144308Y0127802D01*
X0142773Y0127802D01*
X0142006Y0128569D01*
X0145075Y0131638D01*
X0145075Y0128569D01*
X0142006Y0128569D02*
X0142006Y0131638D01*
X0142773Y0132406D01*
X0144308Y0132406D01*
X0145075Y0131638D01*
X0147062Y0135784D02*
X0147062Y0141923D01*
X0147829Y0141156D02*
X0148597Y0140388D01*
X0147829Y0141156D02*
X0146295Y0141156D01*
X0145527Y0140388D01*
X0145527Y0139621D01*
X0146295Y0138854D01*
X0147829Y0138854D01*
X0148597Y0138086D01*
X0148597Y0137319D01*
X0147829Y0136552D01*
X0146295Y0136552D01*
X0145527Y0137319D01*
X0143993Y0137319D02*
X0143993Y0141156D01*
X0143993Y0137319D02*
X0143225Y0136552D01*
X0141691Y0136552D01*
X0140923Y0137319D01*
X0140923Y0141156D01*
X0140960Y0145302D02*
X0140193Y0146069D01*
X0143262Y0149138D01*
X0143262Y0146069D01*
X0142495Y0145302D01*
X0140960Y0145302D01*
X0140193Y0146069D02*
X0140193Y0149138D01*
X0140960Y0149906D01*
X0142495Y0149906D01*
X0143262Y0149138D01*
X0138658Y0149906D02*
X0137124Y0149138D01*
X0135589Y0147604D01*
X0137891Y0147604D01*
X0138658Y0146836D01*
X0138658Y0146069D01*
X0137891Y0145302D01*
X0136356Y0145302D01*
X0135589Y0146069D01*
X0135589Y0147604D01*
X0134054Y0147604D02*
X0133287Y0146836D01*
X0130985Y0146836D01*
X0130762Y0146836D02*
X0129995Y0147604D01*
X0127693Y0147604D01*
X0127693Y0146069D01*
X0128460Y0145302D01*
X0129995Y0145302D01*
X0130762Y0146069D01*
X0130762Y0146836D01*
X0130985Y0145302D02*
X0130985Y0149906D01*
X0133287Y0149906D01*
X0134054Y0149138D01*
X0134054Y0147604D01*
X0132520Y0146836D02*
X0134054Y0145302D01*
X0132916Y0144281D02*
X0132916Y0139677D01*
X0134450Y0139677D02*
X0131381Y0139677D01*
X0129847Y0140444D02*
X0129847Y0141211D01*
X0129079Y0141979D01*
X0126777Y0141979D01*
X0126777Y0140444D01*
X0127545Y0139677D01*
X0129079Y0139677D01*
X0129847Y0140444D01*
X0131381Y0142746D02*
X0132916Y0144281D01*
X0129847Y0144281D02*
X0128312Y0143513D01*
X0126777Y0141979D01*
X0125243Y0141979D02*
X0124475Y0141211D01*
X0122173Y0141211D01*
X0121950Y0140444D02*
X0121950Y0143513D01*
X0121183Y0144281D01*
X0119648Y0144281D01*
X0118881Y0143513D01*
X0118881Y0142746D01*
X0119648Y0141979D01*
X0121950Y0141979D01*
X0121245Y0141156D02*
X0122012Y0140388D01*
X0118943Y0137319D01*
X0119710Y0136552D01*
X0121245Y0136552D01*
X0122012Y0137319D01*
X0122012Y0140388D01*
X0121950Y0140444D02*
X0121183Y0139677D01*
X0119648Y0139677D01*
X0118881Y0140444D01*
X0118943Y0140388D02*
X0119710Y0141156D01*
X0121245Y0141156D01*
X0122173Y0139677D02*
X0122173Y0144281D01*
X0124475Y0144281D01*
X0125243Y0143513D01*
X0125243Y0141979D01*
X0123708Y0141211D02*
X0125243Y0139677D01*
X0125391Y0145302D02*
X0123856Y0145302D01*
X0123089Y0146069D01*
X0123089Y0147604D02*
X0124624Y0148371D01*
X0125391Y0148371D01*
X0126158Y0147604D01*
X0126158Y0146069D01*
X0125391Y0145302D01*
X0123089Y0147604D02*
X0123089Y0149906D01*
X0126158Y0149906D01*
X0127693Y0147604D02*
X0129228Y0149138D01*
X0130762Y0149906D01*
X0121554Y0149138D02*
X0121554Y0147604D01*
X0120787Y0146836D01*
X0118485Y0146836D01*
X0118887Y0146069D02*
X0118887Y0147604D01*
X0118120Y0148371D01*
X0117353Y0148371D01*
X0115818Y0147604D01*
X0115818Y0149906D01*
X0118887Y0149906D01*
X0118485Y0149906D02*
X0120787Y0149906D01*
X0121554Y0149138D01*
X0120020Y0146836D02*
X0121554Y0145302D01*
X0118887Y0146069D02*
X0118120Y0145302D01*
X0116585Y0145302D01*
X0115818Y0146069D01*
X0114283Y0145302D02*
X0111214Y0145302D01*
X0111975Y0144281D02*
X0112743Y0143513D01*
X0112743Y0141979D01*
X0111975Y0141211D01*
X0109673Y0141211D01*
X0109335Y0140611D02*
X0109335Y0142146D01*
X0108568Y0142913D01*
X0105499Y0142913D01*
X0108568Y0139844D01*
X0109335Y0140611D01*
X0109735Y0140388D02*
X0109735Y0137319D01*
X0110502Y0136552D01*
X0112037Y0136552D01*
X0112804Y0137319D01*
X0112148Y0135531D02*
X0111381Y0134763D01*
X0111381Y0133996D01*
X0112148Y0133229D01*
X0113683Y0133229D01*
X0114450Y0132461D01*
X0114450Y0131694D01*
X0113683Y0130927D01*
X0112148Y0130927D01*
X0111381Y0131694D01*
X0111381Y0132461D01*
X0112148Y0133229D01*
X0113683Y0133229D02*
X0114450Y0133996D01*
X0114450Y0134763D01*
X0113683Y0135531D01*
X0112148Y0135531D01*
X0116641Y0136552D02*
X0116641Y0141156D01*
X0114339Y0138854D01*
X0117408Y0138854D01*
X0116579Y0139677D02*
X0117347Y0140444D01*
X0117347Y0141979D01*
X0116579Y0142746D01*
X0115812Y0142746D01*
X0114277Y0141979D01*
X0114277Y0144281D01*
X0117347Y0144281D01*
X0118485Y0145302D02*
X0118485Y0149906D01*
X0118120Y0149677D02*
X0116585Y0149677D01*
X0115818Y0150444D01*
X0118887Y0153513D01*
X0118887Y0150444D01*
X0118120Y0149677D01*
X0115818Y0150444D02*
X0115818Y0153513D01*
X0116585Y0154281D01*
X0118120Y0154281D01*
X0118887Y0153513D01*
X0114283Y0151979D02*
X0111214Y0151979D01*
X0113516Y0154281D01*
X0113516Y0149677D01*
X0112749Y0149906D02*
X0112749Y0145302D01*
X0111975Y0144281D02*
X0109673Y0144281D01*
X0109673Y0139677D01*
X0109735Y0140388D02*
X0110502Y0141156D01*
X0112037Y0141156D01*
X0112804Y0140388D01*
X0112743Y0139677D02*
X0111208Y0141211D01*
X0108568Y0139844D02*
X0105499Y0139844D01*
X0104731Y0140611D01*
X0104731Y0142146D01*
X0105499Y0142913D01*
X0105499Y0144448D02*
X0104731Y0145215D01*
X0104731Y0146750D01*
X0105499Y0147517D01*
X0106266Y0147517D01*
X0107033Y0146750D01*
X0107033Y0145215D01*
X0106266Y0144448D01*
X0105499Y0144448D01*
X0107033Y0145215D02*
X0107800Y0144448D01*
X0108568Y0144448D01*
X0109335Y0145215D01*
X0109335Y0146750D01*
X0108568Y0147517D01*
X0107800Y0147517D01*
X0107033Y0146750D01*
X0106610Y0146069D02*
X0106610Y0149138D01*
X0107377Y0149906D01*
X0108912Y0149906D01*
X0109679Y0149138D01*
X0109679Y0149677D02*
X0108145Y0151211D01*
X0108912Y0151211D02*
X0106610Y0151211D01*
X0106610Y0149677D02*
X0106610Y0154281D01*
X0108912Y0154281D01*
X0109679Y0153513D01*
X0109679Y0151979D01*
X0108912Y0151211D01*
X0108683Y0154052D02*
X0107148Y0154052D01*
X0106381Y0154819D01*
X0104847Y0154819D02*
X0104847Y0155586D01*
X0104079Y0156354D01*
X0101777Y0156354D01*
X0101777Y0154819D01*
X0102545Y0154052D01*
X0104079Y0154052D01*
X0104847Y0154819D01*
X0107916Y0156354D02*
X0108683Y0156354D01*
X0109450Y0155586D01*
X0109450Y0154819D01*
X0108683Y0154052D01*
X0108683Y0156354D02*
X0109450Y0157121D01*
X0109450Y0157888D01*
X0108683Y0158656D01*
X0107148Y0158656D01*
X0106381Y0157888D01*
X0104847Y0158656D02*
X0103312Y0157888D01*
X0101777Y0156354D01*
X0100243Y0156354D02*
X0099475Y0155586D01*
X0097173Y0155586D01*
X0097173Y0154052D02*
X0097173Y0158656D01*
X0099475Y0158656D01*
X0100243Y0157888D01*
X0100243Y0156354D01*
X0098708Y0155586D02*
X0100243Y0154052D01*
X0096950Y0152406D02*
X0095416Y0151638D01*
X0093881Y0150104D01*
X0096183Y0150104D01*
X0096950Y0149336D01*
X0096950Y0148569D01*
X0096183Y0147802D01*
X0094648Y0147802D01*
X0093881Y0148569D01*
X0093881Y0150104D01*
X0092347Y0149336D02*
X0092347Y0148569D01*
X0091579Y0147802D01*
X0090045Y0147802D01*
X0089277Y0148569D01*
X0089277Y0150104D01*
X0091579Y0150104D01*
X0092347Y0149336D01*
X0090812Y0151638D02*
X0089277Y0150104D01*
X0087743Y0151638D02*
X0086975Y0152406D01*
X0085441Y0152406D01*
X0084673Y0151638D01*
X0084673Y0148569D01*
X0085441Y0147802D01*
X0086975Y0147802D01*
X0087743Y0148569D01*
X0086325Y0151638D02*
X0083256Y0148569D01*
X0083256Y0147802D01*
X0081722Y0148569D02*
X0081722Y0151638D01*
X0078652Y0148569D01*
X0079420Y0147802D01*
X0080954Y0147802D01*
X0081722Y0148569D01*
X0081722Y0151638D02*
X0080954Y0152406D01*
X0079420Y0152406D01*
X0078652Y0151638D01*
X0078652Y0148569D01*
X0077118Y0147802D02*
X0074048Y0147802D01*
X0072514Y0147802D02*
X0070979Y0149336D01*
X0071746Y0149336D02*
X0069444Y0149336D01*
X0069444Y0147802D02*
X0069444Y0152406D01*
X0071746Y0152406D01*
X0072514Y0151638D01*
X0072514Y0150104D01*
X0071746Y0149336D01*
X0074048Y0150871D02*
X0075583Y0152406D01*
X0075583Y0147802D01*
X0075472Y0152177D02*
X0072402Y0152177D01*
X0075472Y0155246D01*
X0075472Y0156013D01*
X0074704Y0156781D01*
X0073170Y0156781D01*
X0072402Y0156013D01*
X0070868Y0156013D02*
X0070100Y0156781D01*
X0068566Y0156781D01*
X0067798Y0156013D01*
X0067798Y0152944D01*
X0068566Y0152177D01*
X0070100Y0152177D01*
X0070868Y0152944D01*
X0071981Y0157802D02*
X0071214Y0158569D01*
X0071214Y0159336D01*
X0071981Y0160104D01*
X0073516Y0160104D01*
X0074283Y0159336D01*
X0074283Y0158569D01*
X0073516Y0157802D01*
X0071981Y0157802D01*
X0071981Y0160104D02*
X0071214Y0160871D01*
X0071214Y0161638D01*
X0071981Y0162406D01*
X0073516Y0162406D01*
X0074283Y0161638D01*
X0074283Y0160871D01*
X0073516Y0160104D01*
X0071950Y0162319D02*
X0071183Y0161552D01*
X0069648Y0161552D01*
X0068881Y0162319D01*
X0068912Y0162406D02*
X0067377Y0162406D01*
X0066610Y0161638D01*
X0066610Y0158569D01*
X0067377Y0157802D01*
X0068912Y0157802D01*
X0069679Y0158569D01*
X0069679Y0161638D02*
X0068912Y0162406D01*
X0068745Y0162177D02*
X0069512Y0162944D01*
X0069512Y0166013D01*
X0068745Y0166781D01*
X0067210Y0166781D01*
X0066443Y0166013D01*
X0066443Y0165246D01*
X0067210Y0164479D01*
X0069512Y0164479D01*
X0068881Y0163854D02*
X0070416Y0164621D01*
X0071183Y0164621D01*
X0071950Y0163854D01*
X0071950Y0162319D01*
X0068745Y0162177D02*
X0067210Y0162177D01*
X0066443Y0162944D01*
X0067347Y0162319D02*
X0067347Y0163854D01*
X0066579Y0164621D01*
X0065812Y0164621D01*
X0064277Y0163854D01*
X0064277Y0166156D01*
X0067347Y0166156D01*
X0068485Y0167177D02*
X0068485Y0171781D01*
X0070787Y0171781D01*
X0071554Y0171013D01*
X0071554Y0169479D01*
X0070787Y0168711D01*
X0068485Y0168711D01*
X0070020Y0168711D02*
X0071554Y0167177D01*
X0071950Y0166156D02*
X0068881Y0166156D01*
X0068881Y0163854D01*
X0067347Y0162319D02*
X0066579Y0161552D01*
X0065045Y0161552D01*
X0064277Y0162319D01*
X0064141Y0162177D02*
X0064141Y0166781D01*
X0061839Y0164479D01*
X0064908Y0164479D01*
X0062743Y0163854D02*
X0061975Y0163086D01*
X0059673Y0163086D01*
X0059537Y0163711D02*
X0057235Y0163711D01*
X0057235Y0162177D02*
X0057235Y0166781D01*
X0059537Y0166781D01*
X0060304Y0166013D01*
X0060304Y0164479D01*
X0059537Y0163711D01*
X0058770Y0163711D02*
X0060304Y0162177D01*
X0060273Y0161781D02*
X0061808Y0161781D01*
X0062575Y0161013D01*
X0059506Y0157944D01*
X0060273Y0157177D01*
X0061808Y0157177D01*
X0062575Y0157944D01*
X0062575Y0161013D01*
X0062743Y0161552D02*
X0061208Y0163086D01*
X0060273Y0161781D02*
X0059506Y0161013D01*
X0059506Y0157944D01*
X0057972Y0157944D02*
X0057204Y0157177D01*
X0055670Y0157177D01*
X0054902Y0157944D01*
X0054902Y0159479D02*
X0056437Y0160246D01*
X0057204Y0160246D01*
X0057972Y0159479D01*
X0057972Y0157944D01*
X0054902Y0159479D02*
X0054902Y0161781D01*
X0057972Y0161781D01*
X0059673Y0161552D02*
X0059673Y0166156D01*
X0061975Y0166156D01*
X0062743Y0165388D01*
X0062743Y0163854D01*
X0053368Y0161013D02*
X0053368Y0159479D01*
X0052600Y0158711D01*
X0050298Y0158711D01*
X0050298Y0157177D02*
X0050298Y0161781D01*
X0052600Y0161781D01*
X0053368Y0161013D01*
X0051833Y0158711D02*
X0053368Y0157177D01*
X0053795Y0147406D02*
X0053027Y0146638D01*
X0053027Y0143569D01*
X0056097Y0146638D01*
X0056097Y0143569D01*
X0055329Y0142802D01*
X0053795Y0142802D01*
X0053027Y0143569D01*
X0052860Y0144281D02*
X0052860Y0139677D01*
X0052860Y0141211D02*
X0055162Y0141211D01*
X0055929Y0141979D01*
X0055929Y0143513D01*
X0055162Y0144281D01*
X0052860Y0144281D01*
X0051493Y0142802D02*
X0048423Y0142802D01*
X0046889Y0142802D02*
X0045354Y0144336D01*
X0046121Y0144336D02*
X0043819Y0144336D01*
X0043819Y0142802D02*
X0043819Y0147406D01*
X0046121Y0147406D01*
X0046889Y0146638D01*
X0046889Y0145104D01*
X0046121Y0144336D01*
X0048423Y0145871D02*
X0049958Y0147406D01*
X0049958Y0142802D01*
X0050187Y0138656D02*
X0050187Y0134052D01*
X0048652Y0134052D02*
X0051722Y0134052D01*
X0053256Y0134819D02*
X0056325Y0137888D01*
X0056325Y0134819D01*
X0055558Y0134052D01*
X0054023Y0134052D01*
X0053256Y0134819D01*
X0053256Y0137888D01*
X0054023Y0138656D01*
X0055558Y0138656D01*
X0056325Y0137888D01*
X0055929Y0139677D02*
X0054395Y0141211D01*
X0057464Y0139677D02*
X0060533Y0139677D01*
X0058999Y0139677D02*
X0058999Y0144281D01*
X0057464Y0142746D01*
X0057631Y0143569D02*
X0058398Y0142802D01*
X0059933Y0142802D01*
X0060700Y0143569D01*
X0060700Y0144336D01*
X0059933Y0145104D01*
X0059166Y0145104D01*
X0059933Y0145104D02*
X0060700Y0145871D01*
X0060700Y0146638D01*
X0059933Y0147406D01*
X0058398Y0147406D01*
X0057631Y0146638D01*
X0056097Y0146638D02*
X0055329Y0147406D01*
X0053795Y0147406D01*
X0062068Y0143513D02*
X0062068Y0140444D01*
X0065137Y0143513D01*
X0065137Y0140444D01*
X0064370Y0139677D01*
X0062835Y0139677D01*
X0062068Y0140444D01*
X0062068Y0143513D02*
X0062835Y0144281D01*
X0064370Y0144281D01*
X0065137Y0143513D01*
X0066672Y0141979D02*
X0069741Y0141979D01*
X0068974Y0139677D02*
X0068974Y0144281D01*
X0066672Y0141979D01*
X0063603Y0132406D02*
X0062068Y0130871D01*
X0063603Y0132406D02*
X0063603Y0127802D01*
X0065137Y0127802D02*
X0062068Y0127802D01*
X0060533Y0127802D02*
X0057464Y0127802D01*
X0056325Y0126781D02*
X0056325Y0126013D01*
X0053256Y0122944D01*
X0053256Y0122177D01*
X0051722Y0122944D02*
X0050954Y0122177D01*
X0049420Y0122177D01*
X0048652Y0122944D01*
X0051722Y0126013D01*
X0051722Y0122944D01*
X0051722Y0126013D02*
X0050954Y0126781D01*
X0049420Y0126781D01*
X0048652Y0126013D01*
X0048652Y0122944D01*
X0047118Y0122177D02*
X0044048Y0122177D01*
X0045583Y0122177D02*
X0045583Y0126781D01*
X0044048Y0125246D01*
X0042514Y0126013D02*
X0041746Y0126781D01*
X0040212Y0126781D01*
X0039444Y0126013D01*
X0039444Y0122944D01*
X0040212Y0122177D01*
X0041746Y0122177D01*
X0042514Y0122944D01*
X0042996Y0113031D02*
X0040694Y0113031D01*
X0040694Y0108427D01*
X0040694Y0109961D02*
X0042996Y0109961D01*
X0043764Y0110729D01*
X0043764Y0112263D01*
X0042996Y0113031D01*
X0045298Y0111496D02*
X0046833Y0113031D01*
X0046833Y0108427D01*
X0045298Y0108427D02*
X0048368Y0108427D01*
X0049902Y0109194D02*
X0052972Y0112263D01*
X0052972Y0109194D01*
X0052204Y0108427D01*
X0050670Y0108427D01*
X0049902Y0109194D01*
X0049902Y0112263D01*
X0050670Y0113031D01*
X0052204Y0113031D01*
X0052972Y0112263D01*
X0054110Y0111836D02*
X0056412Y0111836D01*
X0057179Y0112604D01*
X0057179Y0114138D01*
X0056412Y0114906D01*
X0054110Y0114906D01*
X0054110Y0110302D01*
X0054506Y0108427D02*
X0057575Y0111496D01*
X0057575Y0112263D01*
X0056808Y0113031D01*
X0055273Y0113031D01*
X0054506Y0112263D01*
X0055645Y0111836D02*
X0057179Y0110302D01*
X0058002Y0109281D02*
X0057235Y0108513D01*
X0057235Y0105444D01*
X0058002Y0104677D01*
X0059537Y0104677D01*
X0060304Y0105444D01*
X0060243Y0104763D02*
X0059475Y0105531D01*
X0057941Y0105531D01*
X0057173Y0104763D01*
X0057173Y0101694D01*
X0057941Y0100927D01*
X0059475Y0100927D01*
X0060243Y0101694D01*
X0059339Y0101156D02*
X0062408Y0101156D01*
X0062408Y0100388D01*
X0059339Y0097319D01*
X0059339Y0096552D01*
X0057804Y0096552D02*
X0056270Y0098086D01*
X0057037Y0098086D02*
X0054735Y0098086D01*
X0054735Y0096552D02*
X0054735Y0101156D01*
X0057037Y0101156D01*
X0057804Y0100388D01*
X0057804Y0098854D01*
X0057037Y0098086D01*
X0059191Y0093031D02*
X0058423Y0092263D01*
X0058423Y0089194D01*
X0059191Y0088427D01*
X0060725Y0088427D01*
X0061493Y0089194D01*
X0061606Y0088458D02*
X0062374Y0089225D01*
X0063141Y0089225D01*
X0063908Y0088458D01*
X0064675Y0089225D01*
X0065443Y0089225D01*
X0066210Y0088458D01*
X0066210Y0086923D01*
X0065443Y0086156D01*
X0066210Y0084621D02*
X0064675Y0083086D01*
X0064675Y0083854D02*
X0064675Y0081552D01*
X0066210Y0081552D02*
X0061606Y0081552D01*
X0061606Y0083854D01*
X0062374Y0084621D01*
X0063908Y0084621D01*
X0064675Y0083854D01*
X0062374Y0086156D02*
X0061606Y0086923D01*
X0061606Y0088458D01*
X0063027Y0088427D02*
X0066097Y0088427D01*
X0064562Y0088427D02*
X0064562Y0093031D01*
X0063027Y0091496D01*
X0061606Y0090760D02*
X0061606Y0093829D01*
X0062374Y0093829D01*
X0065443Y0090760D01*
X0066210Y0090760D01*
X0067631Y0091496D02*
X0067631Y0092263D01*
X0068398Y0093031D01*
X0069933Y0093031D01*
X0070700Y0092263D01*
X0070700Y0091496D01*
X0069933Y0090729D01*
X0068398Y0090729D01*
X0067631Y0091496D01*
X0068398Y0090729D02*
X0067631Y0089961D01*
X0067631Y0089194D01*
X0068398Y0088427D01*
X0069933Y0088427D01*
X0070700Y0089194D01*
X0070700Y0089961D01*
X0069933Y0090729D01*
X0069537Y0093427D02*
X0068002Y0093427D01*
X0067235Y0094194D01*
X0067235Y0097263D01*
X0068002Y0098031D01*
X0069537Y0098031D01*
X0070304Y0097263D01*
X0071839Y0095729D02*
X0074908Y0095729D01*
X0076443Y0095729D02*
X0076443Y0098031D01*
X0079512Y0098031D01*
X0078745Y0096496D02*
X0077978Y0096496D01*
X0076443Y0095729D01*
X0076443Y0094194D02*
X0077210Y0093427D01*
X0078745Y0093427D01*
X0079512Y0094194D01*
X0079512Y0095729D01*
X0078745Y0096496D01*
X0074141Y0098031D02*
X0074141Y0093427D01*
X0071839Y0095729D02*
X0074141Y0098031D01*
X0070304Y0094194D02*
X0069537Y0093427D01*
X0066245Y0096552D02*
X0064710Y0096552D01*
X0063943Y0097319D01*
X0065478Y0098854D02*
X0066245Y0098854D01*
X0067012Y0098086D01*
X0067012Y0097319D01*
X0066245Y0096552D01*
X0066245Y0098854D02*
X0067012Y0099621D01*
X0067012Y0100388D01*
X0066245Y0101156D01*
X0064710Y0101156D01*
X0063943Y0100388D01*
X0064079Y0100927D02*
X0062545Y0100927D01*
X0061777Y0101694D01*
X0061777Y0103229D01*
X0064079Y0103229D01*
X0064847Y0102461D01*
X0064847Y0101694D01*
X0064079Y0100927D01*
X0066381Y0101694D02*
X0067148Y0100927D01*
X0068683Y0100927D01*
X0069450Y0101694D01*
X0069450Y0103229D01*
X0068683Y0103996D01*
X0067916Y0103996D01*
X0066381Y0103229D01*
X0066381Y0105531D01*
X0069450Y0105531D01*
X0069512Y0104677D02*
X0066443Y0104677D01*
X0069512Y0107746D01*
X0069512Y0108513D01*
X0068745Y0109281D01*
X0067210Y0109281D01*
X0066443Y0108513D01*
X0067235Y0108513D02*
X0067235Y0105444D01*
X0068002Y0104677D01*
X0069537Y0104677D01*
X0070304Y0105444D01*
X0071839Y0105444D02*
X0072606Y0104677D01*
X0074141Y0104677D01*
X0074908Y0105444D01*
X0074908Y0108513D01*
X0074141Y0109281D01*
X0072606Y0109281D01*
X0071839Y0108513D01*
X0071839Y0107746D01*
X0072606Y0106979D01*
X0074908Y0106979D01*
X0070991Y0111069D02*
X0070224Y0110302D01*
X0068689Y0110302D01*
X0067922Y0111069D01*
X0067922Y0112604D02*
X0069457Y0113371D01*
X0070224Y0113371D01*
X0070991Y0112604D01*
X0070991Y0111069D01*
X0069537Y0109281D02*
X0070304Y0108513D01*
X0069537Y0109281D02*
X0068002Y0109281D01*
X0067235Y0108513D01*
X0064908Y0108513D02*
X0064141Y0109281D01*
X0062606Y0109281D01*
X0061839Y0108513D01*
X0061839Y0107746D01*
X0062606Y0106979D01*
X0064141Y0106979D01*
X0064908Y0106211D01*
X0064908Y0105444D01*
X0064141Y0104677D01*
X0062606Y0104677D01*
X0061839Y0105444D01*
X0061839Y0106211D01*
X0062606Y0106979D01*
X0064141Y0106979D02*
X0064908Y0107746D01*
X0064908Y0108513D01*
X0065620Y0110302D02*
X0064085Y0110302D01*
X0063318Y0111069D01*
X0066387Y0114138D01*
X0066387Y0111069D01*
X0065620Y0110302D01*
X0063318Y0111069D02*
X0063318Y0114138D01*
X0064085Y0114906D01*
X0065620Y0114906D01*
X0066387Y0114138D01*
X0067922Y0114906D02*
X0067922Y0112604D01*
X0067922Y0114906D02*
X0070991Y0114906D01*
X0061783Y0110302D02*
X0058714Y0110302D01*
X0058002Y0109281D02*
X0059537Y0109281D01*
X0060304Y0108513D01*
X0060249Y0110302D02*
X0060249Y0114906D01*
X0058714Y0113371D01*
X0057575Y0108427D02*
X0054506Y0108427D01*
X0061777Y0103229D02*
X0063312Y0104763D01*
X0064847Y0105531D01*
X0060725Y0093031D02*
X0059191Y0093031D01*
X0060725Y0093031D02*
X0061493Y0092263D01*
X0063908Y0088458D02*
X0063908Y0087690D01*
X0075981Y0085017D02*
X0075981Y0081948D01*
X0075981Y0079646D02*
X0078283Y0077344D01*
X0078283Y0080413D01*
X0079818Y0081948D02*
X0080585Y0081948D01*
X0079818Y0081948D02*
X0076749Y0085017D01*
X0075981Y0085017D01*
X0075981Y0079646D02*
X0080585Y0079646D01*
X0084048Y0081013D02*
X0084048Y0077944D01*
X0084816Y0077177D01*
X0086350Y0077177D01*
X0087118Y0077944D01*
X0085981Y0078031D02*
X0088283Y0078031D01*
X0087516Y0079565D01*
X0087516Y0080333D01*
X0088283Y0081100D01*
X0089818Y0081100D01*
X0090585Y0080333D01*
X0090585Y0078798D01*
X0089818Y0078031D01*
X0089420Y0077177D02*
X0088652Y0077944D01*
X0089420Y0077177D02*
X0090954Y0077177D01*
X0091722Y0077944D01*
X0091722Y0079479D01*
X0090954Y0080246D01*
X0090187Y0080246D01*
X0088652Y0079479D01*
X0088652Y0081781D01*
X0091722Y0081781D01*
X0093256Y0081013D02*
X0094023Y0081781D01*
X0095558Y0081781D01*
X0096325Y0081013D01*
X0096325Y0080246D01*
X0093256Y0077177D01*
X0096325Y0077177D01*
X0090585Y0076496D02*
X0089050Y0074961D01*
X0089594Y0074546D02*
X0089594Y0056908D01*
X0088085Y0057319D02*
X0088085Y0058854D01*
X0087318Y0059621D01*
X0087318Y0061156D02*
X0088085Y0061923D01*
X0088085Y0063458D01*
X0087318Y0064225D01*
X0086550Y0064225D01*
X0085783Y0063458D01*
X0085783Y0061156D01*
X0087318Y0061156D01*
X0085783Y0061156D02*
X0084249Y0062690D01*
X0083481Y0064225D01*
X0079960Y0066719D02*
X0079960Y0069021D01*
X0079193Y0069788D01*
X0076124Y0069788D01*
X0075356Y0069021D01*
X0075356Y0066719D01*
X0079960Y0066719D01*
X0079960Y0071323D02*
X0076891Y0074392D01*
X0076124Y0074392D01*
X0075356Y0073625D01*
X0075356Y0072090D01*
X0076124Y0071323D01*
X0075981Y0072740D02*
X0075981Y0075042D01*
X0076749Y0075809D01*
X0078283Y0075809D01*
X0079050Y0075042D01*
X0079050Y0072740D01*
X0079050Y0074274D02*
X0080585Y0075809D01*
X0079960Y0074392D02*
X0079960Y0071323D01*
X0080585Y0072740D02*
X0075981Y0072740D01*
X0074476Y0074546D02*
X0074476Y0056908D01*
X0071835Y0058427D02*
X0071835Y0060729D01*
X0071068Y0061496D01*
X0067999Y0061496D01*
X0067231Y0060729D01*
X0067231Y0058427D01*
X0071835Y0058427D01*
X0069533Y0063031D02*
X0069533Y0066100D01*
X0067231Y0065333D02*
X0069533Y0063031D01*
X0071835Y0065333D02*
X0067231Y0065333D01*
X0065866Y0065787D02*
X0065866Y0062718D01*
X0062796Y0065787D01*
X0062029Y0065787D01*
X0061262Y0065020D01*
X0061262Y0063485D01*
X0062029Y0062718D01*
X0062029Y0061183D02*
X0063564Y0061183D01*
X0064331Y0060416D01*
X0064331Y0058114D01*
X0064331Y0059649D02*
X0065866Y0061183D01*
X0065866Y0058114D02*
X0061262Y0058114D01*
X0061262Y0060416D01*
X0062029Y0061183D01*
X0062029Y0067322D02*
X0061262Y0068089D01*
X0061262Y0069624D01*
X0062029Y0070391D01*
X0062796Y0070391D01*
X0063564Y0069624D01*
X0064331Y0070391D01*
X0065098Y0070391D01*
X0065866Y0069624D01*
X0065866Y0068089D01*
X0065098Y0067322D01*
X0063564Y0068856D02*
X0063564Y0069624D01*
X0061950Y0067802D02*
X0058881Y0067802D01*
X0060416Y0067802D02*
X0060416Y0072406D01*
X0058881Y0070871D01*
X0057347Y0071638D02*
X0057347Y0068569D01*
X0056579Y0067802D01*
X0054277Y0067802D01*
X0054277Y0072406D01*
X0056579Y0072406D01*
X0057347Y0071638D01*
X0082235Y0084052D02*
X0082235Y0088656D01*
X0084537Y0088656D01*
X0085304Y0087888D01*
X0085304Y0086354D01*
X0084537Y0085586D01*
X0082235Y0085586D01*
X0083770Y0085586D02*
X0085304Y0084052D01*
X0085981Y0083402D02*
X0085981Y0084936D01*
X0086749Y0085704D01*
X0087516Y0085704D01*
X0088283Y0084936D01*
X0088283Y0083402D01*
X0087516Y0082635D01*
X0086749Y0082635D01*
X0085981Y0083402D01*
X0086839Y0084052D02*
X0089908Y0087121D01*
X0089908Y0087888D01*
X0089141Y0088656D01*
X0087606Y0088656D01*
X0086839Y0087888D01*
X0089050Y0085704D02*
X0089818Y0085704D01*
X0090585Y0084936D01*
X0090585Y0083402D01*
X0089818Y0082635D01*
X0089050Y0082635D01*
X0088283Y0083402D01*
X0088283Y0084936D02*
X0089050Y0085704D01*
X0089908Y0084052D02*
X0086839Y0084052D01*
X0086350Y0081781D02*
X0084816Y0081781D01*
X0084048Y0081013D01*
X0085981Y0081100D02*
X0085981Y0078031D01*
X0086749Y0076496D02*
X0088283Y0076496D01*
X0089050Y0075729D01*
X0089050Y0073427D01*
X0090585Y0073427D02*
X0085981Y0073427D01*
X0085981Y0075729D01*
X0086749Y0076496D01*
X0087118Y0081013D02*
X0086350Y0081781D01*
X0091443Y0084052D02*
X0094512Y0084052D01*
X0092978Y0084052D02*
X0092978Y0088656D01*
X0091443Y0087121D01*
X0100985Y0085531D02*
X0100985Y0080927D01*
X0100985Y0082461D02*
X0103287Y0082461D01*
X0104054Y0083229D01*
X0104054Y0084763D01*
X0103287Y0085531D01*
X0100985Y0085531D01*
X0102520Y0082461D02*
X0104054Y0080927D01*
X0105589Y0081694D02*
X0106356Y0080927D01*
X0107891Y0080927D01*
X0108658Y0081694D01*
X0108658Y0083229D01*
X0107891Y0083996D01*
X0107124Y0083996D01*
X0105589Y0083229D01*
X0105589Y0085531D01*
X0108658Y0085531D01*
X0110193Y0085531D02*
X0113262Y0085531D01*
X0113262Y0084763D01*
X0110193Y0081694D01*
X0110193Y0080927D01*
X0109818Y0079454D02*
X0109050Y0079454D01*
X0108283Y0078686D01*
X0108283Y0076385D01*
X0109818Y0076385D01*
X0110585Y0077152D01*
X0110585Y0078686D01*
X0109818Y0079454D01*
X0106749Y0077919D02*
X0108283Y0076385D01*
X0108283Y0074850D02*
X0108283Y0071781D01*
X0105981Y0074083D01*
X0110585Y0074083D01*
X0109818Y0070246D02*
X0110585Y0069479D01*
X0110585Y0067944D01*
X0109818Y0067177D01*
X0106749Y0067177D01*
X0105981Y0067944D01*
X0105981Y0069479D01*
X0106749Y0070246D01*
X0110860Y0068156D02*
X0110860Y0063552D01*
X0113162Y0063552D01*
X0113929Y0064319D01*
X0113929Y0067388D01*
X0113162Y0068156D01*
X0110860Y0068156D01*
X0115464Y0065854D02*
X0115464Y0064319D01*
X0116231Y0063552D01*
X0117766Y0063552D01*
X0118533Y0064319D01*
X0118533Y0065086D01*
X0117766Y0065854D01*
X0115464Y0065854D01*
X0116999Y0067388D01*
X0118533Y0068156D01*
X0123027Y0070444D02*
X0123027Y0073513D01*
X0123795Y0074281D01*
X0125329Y0074281D01*
X0126097Y0073513D01*
X0127631Y0071979D02*
X0130700Y0071979D01*
X0129933Y0069677D02*
X0129933Y0074281D01*
X0127631Y0071979D01*
X0126097Y0070444D02*
X0125329Y0069677D01*
X0123795Y0069677D01*
X0123027Y0070444D01*
X0122266Y0077177D02*
X0122266Y0081781D01*
X0119964Y0079479D01*
X0123033Y0079479D01*
X0120585Y0079417D02*
X0120585Y0077882D01*
X0119818Y0077115D01*
X0116749Y0077115D01*
X0115981Y0077882D01*
X0115981Y0079417D01*
X0116749Y0080184D01*
X0117516Y0081719D02*
X0115981Y0083253D01*
X0120585Y0083253D01*
X0120585Y0081719D02*
X0120585Y0084788D01*
X0119818Y0086323D02*
X0116749Y0089392D01*
X0119818Y0089392D01*
X0120585Y0088625D01*
X0120585Y0087090D01*
X0119818Y0086323D01*
X0116749Y0086323D01*
X0115981Y0087090D01*
X0115981Y0088625D01*
X0116749Y0089392D01*
X0119249Y0094219D02*
X0122318Y0094219D01*
X0123085Y0094986D01*
X0123085Y0096521D01*
X0122318Y0097288D01*
X0122318Y0098823D02*
X0123085Y0099590D01*
X0123085Y0101125D01*
X0122318Y0101892D01*
X0121550Y0101892D01*
X0120783Y0101125D01*
X0120783Y0100357D01*
X0120783Y0101125D02*
X0120016Y0101892D01*
X0119249Y0101892D01*
X0118481Y0101125D01*
X0118481Y0099590D01*
X0119249Y0098823D01*
X0119249Y0097288D02*
X0118481Y0096521D01*
X0118481Y0094986D01*
X0119249Y0094219D01*
X0115137Y0095444D02*
X0115137Y0096211D01*
X0114370Y0096979D01*
X0112068Y0096979D01*
X0112068Y0095444D01*
X0112835Y0094677D01*
X0114370Y0094677D01*
X0115137Y0095444D01*
X0113603Y0098513D02*
X0112068Y0096979D01*
X0110533Y0097746D02*
X0107464Y0094677D01*
X0110533Y0094677D01*
X0109766Y0094906D02*
X0107464Y0092604D01*
X0110533Y0092604D01*
X0109766Y0090302D02*
X0109766Y0094906D01*
X0110533Y0097746D02*
X0110533Y0098513D01*
X0109766Y0099281D01*
X0108231Y0099281D01*
X0107464Y0098513D01*
X0105929Y0098513D02*
X0105162Y0099281D01*
X0103627Y0099281D01*
X0102860Y0098513D01*
X0102860Y0095444D01*
X0103627Y0094677D01*
X0105162Y0094677D01*
X0105929Y0095444D01*
X0105162Y0094906D02*
X0102860Y0094906D01*
X0102860Y0090302D01*
X0102860Y0091836D02*
X0105162Y0091836D01*
X0105929Y0092604D01*
X0105929Y0094138D01*
X0105162Y0094906D01*
X0104395Y0091836D02*
X0105929Y0090302D01*
X0113603Y0098513D02*
X0115137Y0099281D01*
X0108825Y0104677D02*
X0105756Y0104677D01*
X0108825Y0107746D01*
X0108825Y0108513D01*
X0108058Y0109281D01*
X0106523Y0109281D01*
X0105756Y0108513D01*
X0104222Y0108513D02*
X0103454Y0109281D01*
X0101920Y0109281D01*
X0101152Y0108513D01*
X0101152Y0105444D01*
X0101920Y0104677D01*
X0103454Y0104677D01*
X0104222Y0105444D01*
X0105499Y0112115D02*
X0104731Y0112882D01*
X0104731Y0114417D01*
X0105499Y0115184D01*
X0105329Y0114961D02*
X0103027Y0114961D01*
X0103027Y0113427D02*
X0103027Y0118031D01*
X0105329Y0118031D01*
X0106097Y0117263D01*
X0106097Y0115729D01*
X0105329Y0114961D01*
X0104562Y0114961D02*
X0106097Y0113427D01*
X0105499Y0112115D02*
X0108568Y0112115D01*
X0109335Y0112882D01*
X0109335Y0114417D01*
X0108568Y0115184D01*
X0107631Y0115729D02*
X0109933Y0115729D01*
X0110700Y0114961D01*
X0110700Y0114194D01*
X0109933Y0113427D01*
X0108398Y0113427D01*
X0107631Y0114194D01*
X0107631Y0115729D01*
X0109166Y0117263D01*
X0110700Y0118031D01*
X0110700Y0118569D02*
X0110700Y0119336D01*
X0109933Y0120104D01*
X0107631Y0120104D01*
X0107631Y0118569D01*
X0108398Y0117802D01*
X0109933Y0117802D01*
X0110700Y0118569D01*
X0110787Y0119052D02*
X0111554Y0119819D01*
X0110787Y0119052D02*
X0109252Y0119052D01*
X0108485Y0119819D01*
X0108485Y0122888D01*
X0109252Y0123656D01*
X0110787Y0123656D01*
X0111554Y0122888D01*
X0110700Y0122406D02*
X0109166Y0121638D01*
X0107631Y0120104D01*
X0107800Y0120011D02*
X0107800Y0122313D01*
X0107033Y0123080D01*
X0105499Y0123080D01*
X0104731Y0122313D01*
X0104731Y0120011D01*
X0109335Y0120011D01*
X0109335Y0119788D02*
X0109335Y0116719D01*
X0109335Y0118253D02*
X0104731Y0118253D01*
X0106266Y0116719D01*
X0105329Y0117802D02*
X0103795Y0117802D01*
X0103027Y0118569D01*
X0101493Y0118569D02*
X0100725Y0117802D01*
X0099191Y0117802D01*
X0098423Y0118569D01*
X0098423Y0121638D01*
X0099191Y0122406D01*
X0100725Y0122406D01*
X0101493Y0121638D01*
X0101493Y0122177D02*
X0099958Y0123711D01*
X0100725Y0123711D02*
X0098423Y0123711D01*
X0098423Y0122177D02*
X0098423Y0126781D01*
X0100725Y0126781D01*
X0101493Y0126013D01*
X0101493Y0124479D01*
X0100725Y0123711D01*
X0103027Y0122944D02*
X0103795Y0122177D01*
X0105329Y0122177D01*
X0106097Y0122944D01*
X0106097Y0123711D01*
X0105329Y0124479D01*
X0104562Y0124479D01*
X0104731Y0124392D02*
X0105499Y0122857D01*
X0107033Y0121323D01*
X0107033Y0123625D01*
X0107800Y0124392D01*
X0108568Y0124392D01*
X0109335Y0123625D01*
X0109335Y0122090D01*
X0108568Y0121323D01*
X0107033Y0121323D01*
X0107800Y0121546D02*
X0109335Y0123080D01*
X0109933Y0122177D02*
X0109933Y0126781D01*
X0107631Y0124479D01*
X0110700Y0124479D01*
X0109335Y0124615D02*
X0109335Y0127684D01*
X0109335Y0126149D02*
X0104731Y0126149D01*
X0106266Y0124615D01*
X0106097Y0125246D02*
X0105329Y0124479D01*
X0106097Y0125246D02*
X0106097Y0126013D01*
X0105329Y0126781D01*
X0103795Y0126781D01*
X0103027Y0126013D01*
X0103795Y0122406D02*
X0105329Y0122406D01*
X0106097Y0121638D01*
X0106097Y0120871D01*
X0105329Y0120104D01*
X0106097Y0119336D01*
X0106097Y0118569D01*
X0105329Y0117802D01*
X0105329Y0120104D02*
X0104562Y0120104D01*
X0103027Y0121638D02*
X0103795Y0122406D01*
X0105499Y0129219D02*
X0104731Y0129986D01*
X0104731Y0131521D01*
X0105499Y0132288D01*
X0108568Y0129219D01*
X0109335Y0129986D01*
X0109335Y0131521D01*
X0108568Y0132288D01*
X0105499Y0132288D01*
X0105243Y0133229D02*
X0104475Y0132461D01*
X0102173Y0132461D01*
X0102173Y0130927D02*
X0102173Y0135531D01*
X0104475Y0135531D01*
X0105243Y0134763D01*
X0105243Y0133229D01*
X0105499Y0133705D02*
X0107033Y0133705D01*
X0107800Y0132938D01*
X0107800Y0130636D01*
X0108312Y0130927D02*
X0108312Y0135531D01*
X0106777Y0133996D01*
X0106266Y0133823D02*
X0107033Y0134590D01*
X0107033Y0136892D01*
X0105499Y0136892D02*
X0104731Y0136125D01*
X0104731Y0134590D01*
X0105499Y0133823D01*
X0106266Y0133823D01*
X0105499Y0133705D02*
X0104731Y0132938D01*
X0104731Y0130636D01*
X0109335Y0130636D01*
X0109847Y0130927D02*
X0106777Y0130927D01*
X0105243Y0130927D02*
X0103708Y0132461D01*
X0105499Y0129219D02*
X0108568Y0129219D01*
X0107800Y0132171D02*
X0109335Y0133705D01*
X0108568Y0133823D02*
X0109335Y0134590D01*
X0109335Y0136125D01*
X0108568Y0136892D01*
X0105499Y0136892D01*
X0104731Y0136774D02*
X0106266Y0135240D01*
X0104731Y0136774D02*
X0109335Y0136774D01*
X0109335Y0135240D02*
X0109335Y0138309D01*
X0114277Y0140444D02*
X0115045Y0139677D01*
X0116579Y0139677D01*
X0118943Y0140388D02*
X0118943Y0137319D01*
X0109679Y0146069D02*
X0108912Y0145302D01*
X0107377Y0145302D01*
X0106610Y0146069D01*
X0111214Y0148371D02*
X0112749Y0149906D01*
X0112891Y0159677D02*
X0111356Y0159677D01*
X0110589Y0160444D01*
X0110589Y0161979D01*
X0112891Y0161979D01*
X0113658Y0161211D01*
X0113658Y0160444D01*
X0112891Y0159677D01*
X0115193Y0159677D02*
X0118262Y0162746D01*
X0118262Y0163513D01*
X0117495Y0164281D01*
X0115960Y0164281D01*
X0115193Y0163513D01*
X0115787Y0164677D02*
X0114252Y0164677D01*
X0113485Y0165444D01*
X0113485Y0168513D01*
X0114252Y0169281D01*
X0115787Y0169281D01*
X0116554Y0168513D01*
X0116554Y0165444D01*
X0115787Y0164677D01*
X0116554Y0164677D02*
X0115020Y0166211D01*
X0113658Y0164281D02*
X0112124Y0163513D01*
X0110589Y0161979D01*
X0109054Y0161979D02*
X0109054Y0163513D01*
X0108287Y0164281D01*
X0105985Y0164281D01*
X0105985Y0159677D01*
X0105985Y0161211D02*
X0108287Y0161211D01*
X0109054Y0161979D01*
X0107520Y0161211D02*
X0109054Y0159677D01*
X0115193Y0159677D02*
X0118262Y0159677D01*
X0118856Y0164677D02*
X0118089Y0165444D01*
X0118856Y0164677D02*
X0120391Y0164677D01*
X0121158Y0165444D01*
X0121158Y0166979D01*
X0120391Y0167746D01*
X0119624Y0167746D01*
X0118089Y0166979D01*
X0118089Y0169281D01*
X0121158Y0169281D01*
X0125985Y0168513D02*
X0125985Y0165444D01*
X0126752Y0164677D01*
X0128287Y0164677D01*
X0129054Y0165444D01*
X0129054Y0168513D01*
X0128287Y0169281D01*
X0126752Y0169281D01*
X0125985Y0168513D01*
X0127520Y0166211D02*
X0129054Y0164677D01*
X0130589Y0165444D02*
X0130589Y0166979D01*
X0132891Y0166979D01*
X0133658Y0166211D01*
X0133658Y0165444D01*
X0132891Y0164677D01*
X0131356Y0164677D01*
X0130589Y0165444D01*
X0130589Y0166979D02*
X0132124Y0168513D01*
X0133658Y0169281D01*
X0134106Y0176552D02*
X0134106Y0178854D01*
X0134874Y0179621D01*
X0136408Y0179621D01*
X0137175Y0178854D01*
X0137175Y0176552D01*
X0137175Y0178086D02*
X0138710Y0179621D01*
X0138710Y0181156D02*
X0138710Y0184225D01*
X0138710Y0182690D02*
X0134106Y0182690D01*
X0135641Y0181156D01*
X0134106Y0176552D02*
X0138710Y0176552D01*
X0142231Y0176552D02*
X0142231Y0178854D01*
X0142999Y0179621D01*
X0144533Y0179621D01*
X0145300Y0178854D01*
X0145300Y0176552D01*
X0145300Y0178086D02*
X0146835Y0179621D01*
X0146835Y0181156D02*
X0146835Y0184225D01*
X0146835Y0185760D02*
X0143766Y0188829D01*
X0142999Y0188829D01*
X0142231Y0188061D01*
X0142231Y0186527D01*
X0142999Y0185760D01*
X0142231Y0182690D02*
X0146835Y0182690D01*
X0146835Y0185760D02*
X0146835Y0188829D01*
X0142231Y0182690D02*
X0143766Y0181156D01*
X0142231Y0176552D02*
X0146835Y0176552D01*
X0147235Y0176013D02*
X0148002Y0176781D01*
X0149537Y0176781D01*
X0150304Y0176013D01*
X0151839Y0175246D02*
X0153374Y0176781D01*
X0153374Y0172177D01*
X0154908Y0172177D02*
X0151839Y0172177D01*
X0150304Y0172944D02*
X0149537Y0172177D01*
X0148002Y0172177D01*
X0147235Y0172944D01*
X0147235Y0176013D01*
X0149874Y0166329D02*
X0149106Y0165561D01*
X0149106Y0164027D01*
X0149874Y0163260D01*
X0149874Y0166329D02*
X0150641Y0166329D01*
X0153710Y0163260D01*
X0153710Y0166329D01*
X0153710Y0161725D02*
X0153710Y0158656D01*
X0153710Y0160190D02*
X0149106Y0160190D01*
X0150641Y0158656D01*
X0149874Y0157121D02*
X0149106Y0156354D01*
X0149106Y0154819D01*
X0149874Y0154052D01*
X0152943Y0154052D01*
X0153710Y0154819D01*
X0153710Y0156354D01*
X0152943Y0157121D01*
X0158745Y0172177D02*
X0158745Y0176781D01*
X0156443Y0174479D01*
X0159512Y0174479D01*
X0170356Y0184083D02*
X0172658Y0181781D01*
X0172658Y0184850D01*
X0174193Y0186385D02*
X0171124Y0189454D01*
X0170356Y0189454D01*
X0170356Y0186385D01*
X0170356Y0184083D02*
X0174960Y0184083D01*
X0174960Y0186385D02*
X0174193Y0186385D01*
X0174193Y0180246D02*
X0174960Y0179479D01*
X0174481Y0176052D02*
X0179085Y0176052D01*
X0179085Y0179121D01*
X0180981Y0185760D02*
X0183283Y0185760D01*
X0182516Y0187294D01*
X0182516Y0188061D01*
X0183283Y0188829D01*
X0184818Y0188829D01*
X0185585Y0188061D01*
X0185585Y0186527D01*
X0184818Y0185760D01*
X0180981Y0185760D02*
X0180981Y0188829D01*
X0200499Y0210302D02*
X0199731Y0211069D01*
X0199731Y0212604D01*
X0200499Y0213371D01*
X0203568Y0213371D01*
X0204335Y0212604D01*
X0204335Y0211069D01*
X0203568Y0210302D01*
X0200499Y0210302D01*
X0202800Y0211836D02*
X0204335Y0213371D01*
X0204335Y0214906D02*
X0204335Y0217975D01*
X0204335Y0216440D02*
X0199731Y0216440D01*
X0201266Y0214906D01*
X0200499Y0219510D02*
X0199731Y0220277D01*
X0199731Y0221811D01*
X0200499Y0222579D01*
X0203568Y0219510D01*
X0204335Y0220277D01*
X0204335Y0221811D01*
X0203568Y0222579D01*
X0200499Y0222579D01*
X0200499Y0219510D02*
X0203568Y0219510D01*
X0202585Y0158544D02*
X0202585Y0155475D01*
X0199516Y0158544D01*
X0198749Y0158544D01*
X0197981Y0157777D01*
X0197981Y0156242D01*
X0198749Y0155475D01*
X0198749Y0153940D02*
X0197981Y0153173D01*
X0197981Y0151638D01*
X0198749Y0150871D01*
X0201818Y0150871D01*
X0202585Y0151638D01*
X0202585Y0153173D01*
X0201818Y0153940D01*
X0202585Y0149336D02*
X0202585Y0147802D01*
X0202585Y0148569D02*
X0197981Y0148569D01*
X0197981Y0147802D02*
X0197981Y0149336D01*
X0198287Y0143656D02*
X0195985Y0143656D01*
X0195985Y0139052D01*
X0197235Y0138513D02*
X0197235Y0135444D01*
X0198002Y0134677D01*
X0199537Y0134677D01*
X0200304Y0135444D01*
X0201839Y0134677D02*
X0204908Y0134677D01*
X0203374Y0134677D02*
X0203374Y0139281D01*
X0201839Y0137746D01*
X0201356Y0139052D02*
X0200589Y0139819D01*
X0201356Y0139052D02*
X0202891Y0139052D01*
X0203658Y0139819D01*
X0203658Y0140586D01*
X0202891Y0141354D01*
X0202124Y0141354D01*
X0202891Y0141354D02*
X0203658Y0142121D01*
X0203658Y0142888D01*
X0202891Y0143656D01*
X0201356Y0143656D01*
X0200589Y0142888D01*
X0199054Y0142888D02*
X0199054Y0141354D01*
X0198287Y0140586D01*
X0195985Y0140586D01*
X0197520Y0140586D02*
X0199054Y0139052D01*
X0199537Y0139281D02*
X0198002Y0139281D01*
X0197235Y0138513D01*
X0199537Y0139281D02*
X0200304Y0138513D01*
X0199054Y0142888D02*
X0198287Y0143656D01*
X0205193Y0142888D02*
X0205193Y0142121D01*
X0205960Y0141354D01*
X0207495Y0141354D01*
X0208262Y0140586D01*
X0208262Y0139819D01*
X0207495Y0139052D01*
X0205960Y0139052D01*
X0205193Y0139819D01*
X0205193Y0140586D01*
X0205960Y0141354D01*
X0207495Y0141354D02*
X0208262Y0142121D01*
X0208262Y0142888D01*
X0207495Y0143656D01*
X0205960Y0143656D01*
X0205193Y0142888D01*
X0207210Y0139281D02*
X0206443Y0138513D01*
X0207210Y0139281D02*
X0208745Y0139281D01*
X0209512Y0138513D01*
X0209512Y0137746D01*
X0208745Y0136979D01*
X0209512Y0136211D01*
X0209512Y0135444D01*
X0208745Y0134677D01*
X0207210Y0134677D01*
X0206443Y0135444D01*
X0207978Y0136979D02*
X0208745Y0136979D01*
X0215985Y0139052D02*
X0215985Y0143656D01*
X0218287Y0143656D01*
X0219054Y0142888D01*
X0219054Y0141354D01*
X0218287Y0140586D01*
X0215985Y0140586D01*
X0217520Y0140586D02*
X0219054Y0139052D01*
X0220589Y0139819D02*
X0221356Y0139052D01*
X0222891Y0139052D01*
X0223658Y0139819D01*
X0223658Y0142888D01*
X0222891Y0143656D01*
X0221356Y0143656D01*
X0220589Y0142888D01*
X0220589Y0142121D01*
X0221356Y0141354D01*
X0223658Y0141354D01*
X0217898Y0127621D02*
X0217898Y0124551D01*
X0217898Y0126086D02*
X0213294Y0126086D01*
X0214829Y0124551D01*
X0214450Y0124677D02*
X0211381Y0124677D01*
X0214450Y0127746D01*
X0214450Y0128513D01*
X0213683Y0129281D01*
X0212148Y0129281D01*
X0211381Y0128513D01*
X0209847Y0129281D02*
X0206777Y0129281D01*
X0206777Y0126979D01*
X0208312Y0127746D01*
X0209079Y0127746D01*
X0209847Y0126979D01*
X0209847Y0125444D01*
X0209079Y0124677D01*
X0207545Y0124677D01*
X0206777Y0125444D01*
X0205243Y0124677D02*
X0203708Y0126211D01*
X0204475Y0126211D02*
X0202173Y0126211D01*
X0202173Y0124677D02*
X0202173Y0129281D01*
X0204475Y0129281D01*
X0205243Y0128513D01*
X0205243Y0126979D01*
X0204475Y0126211D01*
X0213294Y0122249D02*
X0213294Y0119948D01*
X0217898Y0119948D01*
X0217898Y0122249D01*
X0217131Y0123017D01*
X0214062Y0123017D01*
X0213294Y0122249D01*
X0213294Y0118413D02*
X0213294Y0115344D01*
X0217898Y0115344D01*
X0217898Y0118413D01*
X0215596Y0116878D02*
X0215596Y0115344D01*
X0217898Y0113809D02*
X0217898Y0110740D01*
X0213294Y0110740D01*
X0220657Y0113689D02*
X0220657Y0115264D01*
X0223413Y0115264D02*
X0223413Y0113689D01*
X0224731Y0104107D02*
X0229335Y0104107D01*
X0229335Y0102573D02*
X0229335Y0105642D01*
X0229335Y0101038D02*
X0227800Y0099503D01*
X0227800Y0100271D02*
X0227800Y0097969D01*
X0229335Y0097969D02*
X0224731Y0097969D01*
X0224731Y0100271D01*
X0225499Y0101038D01*
X0227033Y0101038D01*
X0227800Y0100271D01*
X0226266Y0102573D02*
X0224731Y0104107D01*
X0227033Y0091892D02*
X0227033Y0088823D01*
X0224731Y0091125D01*
X0229335Y0091125D01*
X0228568Y0087288D02*
X0229335Y0086521D01*
X0229335Y0084986D01*
X0228568Y0084219D01*
X0228568Y0082684D02*
X0229335Y0081917D01*
X0229335Y0080382D01*
X0228568Y0079615D01*
X0225499Y0079615D01*
X0224731Y0080382D01*
X0224731Y0081917D01*
X0225499Y0082684D01*
X0225499Y0084219D02*
X0224731Y0084986D01*
X0224731Y0086521D01*
X0225499Y0087288D01*
X0226266Y0087288D01*
X0227033Y0086521D01*
X0227800Y0087288D01*
X0228568Y0087288D01*
X0227033Y0086521D02*
X0227033Y0085753D01*
X0229335Y0078142D02*
X0229335Y0075073D01*
X0229335Y0076607D02*
X0224731Y0076607D01*
X0226266Y0075073D01*
X0225499Y0073538D02*
X0224731Y0072771D01*
X0224731Y0071236D01*
X0225499Y0070469D01*
X0228568Y0070469D01*
X0229335Y0071236D01*
X0229335Y0072771D01*
X0228568Y0073538D01*
X0219335Y0072975D02*
X0219335Y0069906D01*
X0216266Y0072975D01*
X0215499Y0072975D01*
X0214731Y0072208D01*
X0214731Y0070673D01*
X0215499Y0069906D01*
X0215499Y0068371D02*
X0217033Y0068371D01*
X0217800Y0067604D01*
X0217800Y0065302D01*
X0217800Y0066836D02*
X0219335Y0068371D01*
X0219335Y0065302D02*
X0214731Y0065302D01*
X0214731Y0067604D01*
X0215499Y0068371D01*
X0214960Y0067436D02*
X0214960Y0065902D01*
X0214193Y0065135D01*
X0214193Y0063600D02*
X0214960Y0062833D01*
X0214960Y0061298D01*
X0214193Y0060531D01*
X0214731Y0060531D02*
X0214731Y0063600D01*
X0214193Y0063600D02*
X0212658Y0063600D01*
X0211891Y0062833D01*
X0211891Y0062065D01*
X0212658Y0060531D01*
X0210356Y0060531D01*
X0210356Y0063600D01*
X0210662Y0062791D02*
X0211429Y0062023D01*
X0211429Y0061256D01*
X0210662Y0060489D01*
X0209127Y0060489D01*
X0208360Y0061256D01*
X0206846Y0061253D02*
X0206846Y0059719D01*
X0206058Y0060489D02*
X0203756Y0060489D01*
X0203756Y0065093D01*
X0206058Y0065093D01*
X0206825Y0064325D01*
X0206825Y0061256D01*
X0206058Y0060489D01*
X0204544Y0059719D02*
X0209148Y0059719D01*
X0209148Y0062788D01*
X0209895Y0062791D02*
X0210662Y0062791D01*
X0211429Y0063558D01*
X0211429Y0064325D01*
X0210662Y0065093D01*
X0209127Y0065093D01*
X0208360Y0064325D01*
X0209148Y0064323D02*
X0209148Y0066624D01*
X0208381Y0067392D01*
X0205312Y0067392D01*
X0204544Y0066624D01*
X0204544Y0064323D01*
X0209148Y0064323D01*
X0210356Y0065902D02*
X0210356Y0067436D01*
X0211124Y0068204D01*
X0211891Y0068204D01*
X0212658Y0067436D01*
X0213425Y0068204D01*
X0214193Y0068204D01*
X0214960Y0067436D01*
X0212658Y0067436D02*
X0212658Y0066669D01*
X0211124Y0065135D02*
X0210356Y0065902D01*
X0209148Y0068926D02*
X0206079Y0071996D01*
X0205312Y0071996D01*
X0204544Y0071228D01*
X0204544Y0069694D01*
X0205312Y0068926D01*
X0209148Y0068926D02*
X0209148Y0071996D01*
X0214731Y0074510D02*
X0214731Y0077579D01*
X0215499Y0077579D01*
X0218568Y0074510D01*
X0219335Y0074510D01*
X0218568Y0063600D02*
X0219335Y0062833D01*
X0219335Y0061298D01*
X0218568Y0060531D01*
X0217033Y0060531D02*
X0216266Y0062065D01*
X0216266Y0062833D01*
X0217033Y0063600D01*
X0218568Y0063600D01*
X0217033Y0060531D02*
X0214731Y0060531D01*
X0214663Y0059639D02*
X0214663Y0058064D01*
X0214731Y0058229D02*
X0214731Y0056694D01*
X0215499Y0055927D01*
X0218568Y0055927D01*
X0219335Y0056694D01*
X0219335Y0058229D01*
X0218568Y0058996D01*
X0215499Y0058996D02*
X0214731Y0058229D01*
X0214960Y0058996D02*
X0213425Y0057461D01*
X0213425Y0058229D02*
X0213425Y0055927D01*
X0214960Y0055927D02*
X0210356Y0055927D01*
X0210356Y0058229D01*
X0211124Y0058996D01*
X0212658Y0058996D01*
X0213425Y0058229D01*
X0211907Y0058064D02*
X0211907Y0059639D01*
X0209148Y0058184D02*
X0209148Y0055115D01*
X0204544Y0055115D01*
X0204544Y0059719D02*
X0204544Y0062788D01*
X0202221Y0060489D02*
X0199152Y0060489D01*
X0199152Y0065093D01*
X0202221Y0065093D01*
X0200687Y0062791D02*
X0199152Y0062791D01*
X0197617Y0060489D02*
X0194548Y0060489D01*
X0194548Y0065093D01*
X0197498Y0057730D02*
X0199073Y0057730D01*
X0199073Y0054974D02*
X0197498Y0054974D01*
X0190075Y0051354D02*
X0187006Y0051354D01*
X0189308Y0053656D01*
X0189308Y0049052D01*
X0185472Y0049819D02*
X0184704Y0049052D01*
X0183170Y0049052D01*
X0182402Y0049819D01*
X0182402Y0051354D02*
X0183937Y0052121D01*
X0184704Y0052121D01*
X0185472Y0051354D01*
X0185472Y0049819D01*
X0185472Y0053656D02*
X0182402Y0053656D01*
X0182402Y0051354D01*
X0180868Y0051354D02*
X0180100Y0050586D01*
X0177798Y0050586D01*
X0177798Y0049052D02*
X0177798Y0053656D01*
X0180100Y0053656D01*
X0180868Y0052888D01*
X0180868Y0051354D01*
X0179333Y0050586D02*
X0180868Y0049052D01*
X0172575Y0049052D02*
X0169506Y0049052D01*
X0172575Y0052121D01*
X0172575Y0052888D01*
X0171808Y0053656D01*
X0170273Y0053656D01*
X0169506Y0052888D01*
X0167972Y0052888D02*
X0167204Y0053656D01*
X0165670Y0053656D01*
X0164902Y0052888D01*
X0163368Y0052888D02*
X0162600Y0053656D01*
X0161066Y0053656D01*
X0160298Y0052888D01*
X0160298Y0049819D01*
X0161066Y0049052D01*
X0162600Y0049052D01*
X0163368Y0049819D01*
X0164902Y0049052D02*
X0167972Y0052121D01*
X0167972Y0052888D01*
X0167972Y0049052D02*
X0164902Y0049052D01*
X0148085Y0059194D02*
X0148085Y0060729D01*
X0147318Y0061496D01*
X0148085Y0063031D02*
X0145016Y0066100D01*
X0144249Y0066100D01*
X0143481Y0065333D01*
X0143481Y0063798D01*
X0144249Y0063031D01*
X0144249Y0061496D02*
X0143481Y0060729D01*
X0143481Y0059194D01*
X0144249Y0058427D01*
X0147318Y0058427D01*
X0148085Y0059194D01*
X0148085Y0063031D02*
X0148085Y0066100D01*
X0147318Y0067635D02*
X0144249Y0070704D01*
X0147318Y0070704D01*
X0148085Y0069936D01*
X0148085Y0068402D01*
X0147318Y0067635D01*
X0144249Y0067635D01*
X0143481Y0068402D01*
X0143481Y0069936D01*
X0144249Y0070704D01*
X0145585Y0071292D02*
X0144818Y0072059D01*
X0145585Y0071292D02*
X0145585Y0069757D01*
X0144818Y0068990D01*
X0141749Y0068990D01*
X0140981Y0069757D01*
X0140981Y0071292D01*
X0141749Y0072059D01*
X0141749Y0073594D02*
X0140981Y0074361D01*
X0140981Y0075896D01*
X0141749Y0076663D01*
X0142516Y0076663D01*
X0145585Y0073594D01*
X0145585Y0076663D01*
X0144818Y0078198D02*
X0145585Y0078965D01*
X0145585Y0080500D01*
X0144818Y0081267D01*
X0144050Y0081267D01*
X0143283Y0080500D01*
X0143283Y0079732D01*
X0143283Y0080500D02*
X0142516Y0081267D01*
X0141749Y0081267D01*
X0140981Y0080500D01*
X0140981Y0078965D01*
X0141749Y0078198D01*
X0149731Y0077115D02*
X0149731Y0079417D01*
X0150499Y0080184D01*
X0152033Y0080184D01*
X0152800Y0079417D01*
X0152800Y0077115D01*
X0152800Y0078649D02*
X0154335Y0080184D01*
X0152033Y0081719D02*
X0152033Y0084788D01*
X0151266Y0086323D02*
X0150499Y0086323D01*
X0149731Y0087090D01*
X0149731Y0088625D01*
X0150499Y0089392D01*
X0151266Y0089392D01*
X0152033Y0088625D01*
X0152033Y0087090D01*
X0151266Y0086323D01*
X0152033Y0087090D02*
X0152800Y0086323D01*
X0153568Y0086323D01*
X0154335Y0087090D01*
X0154335Y0088625D01*
X0153568Y0089392D01*
X0152800Y0089392D01*
X0152033Y0088625D01*
X0149731Y0084021D02*
X0152033Y0081719D01*
X0154335Y0084021D02*
X0149731Y0084021D01*
X0149731Y0077115D02*
X0154335Y0077115D01*
X0137033Y0108315D02*
X0137033Y0109083D01*
X0138170Y0123427D02*
X0137402Y0124194D01*
X0138170Y0123427D02*
X0139704Y0123427D01*
X0140472Y0124194D01*
X0140472Y0124961D01*
X0139704Y0125729D01*
X0138937Y0125729D01*
X0139704Y0125729D02*
X0140472Y0126496D01*
X0140472Y0127263D01*
X0139704Y0128031D01*
X0138170Y0128031D01*
X0137402Y0127263D01*
X0138170Y0127802D02*
X0137402Y0128569D01*
X0138170Y0127802D02*
X0139704Y0127802D01*
X0140472Y0128569D01*
X0140472Y0129336D01*
X0139704Y0130104D01*
X0138937Y0130104D01*
X0139704Y0130104D02*
X0140472Y0130871D01*
X0140472Y0131638D01*
X0139704Y0132406D01*
X0138170Y0132406D01*
X0137402Y0131638D01*
X0135868Y0131638D02*
X0135100Y0132406D01*
X0133566Y0132406D01*
X0132798Y0131638D01*
X0132798Y0128569D01*
X0133566Y0127802D01*
X0135100Y0127802D01*
X0135868Y0128569D01*
X0135100Y0128031D02*
X0135868Y0127263D01*
X0135868Y0125729D01*
X0135100Y0124961D01*
X0132798Y0124961D01*
X0132798Y0123427D02*
X0132798Y0128031D01*
X0135100Y0128031D01*
X0134333Y0124961D02*
X0135868Y0123427D01*
X0120762Y0122888D02*
X0120762Y0122121D01*
X0117693Y0119052D01*
X0120762Y0119052D01*
X0120762Y0122888D02*
X0119995Y0123656D01*
X0118460Y0123656D01*
X0117693Y0122888D01*
X0116158Y0121354D02*
X0113089Y0121354D01*
X0115391Y0123656D01*
X0115391Y0119052D01*
X0092347Y0152406D02*
X0090812Y0151638D01*
X0086325Y0151638D02*
X0086325Y0152406D01*
X0083256Y0152406D01*
X0080075Y0152944D02*
X0079308Y0152177D01*
X0077773Y0152177D01*
X0077006Y0152944D01*
X0077006Y0154479D02*
X0078541Y0155246D01*
X0079308Y0155246D01*
X0080075Y0154479D01*
X0080075Y0152944D01*
X0077006Y0154479D02*
X0077006Y0156781D01*
X0080075Y0156781D01*
X0079847Y0161552D02*
X0078312Y0163086D01*
X0079079Y0163086D02*
X0076777Y0163086D01*
X0076777Y0161552D02*
X0076777Y0166156D01*
X0079079Y0166156D01*
X0079847Y0165388D01*
X0079847Y0163854D01*
X0079079Y0163086D01*
X0081381Y0162319D02*
X0082148Y0161552D01*
X0083683Y0161552D01*
X0084450Y0162319D01*
X0084450Y0163086D01*
X0083683Y0163854D01*
X0082916Y0163854D01*
X0083683Y0163854D02*
X0084450Y0164621D01*
X0084450Y0165388D01*
X0083683Y0166156D01*
X0082148Y0166156D01*
X0081381Y0165388D01*
X0080985Y0167177D02*
X0080985Y0171781D01*
X0083287Y0171781D01*
X0084054Y0171013D01*
X0084054Y0169479D01*
X0083287Y0168711D01*
X0080985Y0168711D01*
X0082520Y0168711D02*
X0084054Y0167177D01*
X0084673Y0166156D02*
X0086975Y0166156D01*
X0087743Y0165388D01*
X0087743Y0163854D01*
X0086975Y0163086D01*
X0084673Y0163086D01*
X0084673Y0161552D02*
X0084673Y0166156D01*
X0085589Y0167177D02*
X0088658Y0170246D01*
X0088658Y0171013D01*
X0087891Y0171781D01*
X0086356Y0171781D01*
X0085589Y0171013D01*
X0085589Y0167177D02*
X0088658Y0167177D01*
X0090812Y0166156D02*
X0089277Y0164621D01*
X0090812Y0166156D02*
X0090812Y0161552D01*
X0089277Y0161552D02*
X0092347Y0161552D01*
X0093881Y0161552D02*
X0093881Y0162319D01*
X0096950Y0165388D01*
X0096950Y0166156D01*
X0093881Y0166156D01*
X0093485Y0167177D02*
X0093485Y0171781D01*
X0095787Y0171781D01*
X0096554Y0171013D01*
X0096554Y0169479D01*
X0095787Y0168711D01*
X0093485Y0168711D01*
X0095020Y0168711D02*
X0096554Y0167177D01*
X0098089Y0167177D02*
X0101158Y0167177D01*
X0099624Y0167177D02*
X0099624Y0171781D01*
X0098089Y0170246D01*
X0102693Y0169479D02*
X0102693Y0167944D01*
X0103460Y0167177D01*
X0104995Y0167177D01*
X0105762Y0167944D01*
X0105762Y0168711D01*
X0104995Y0169479D01*
X0102693Y0169479D01*
X0104228Y0171013D01*
X0105762Y0171781D01*
X0105589Y0179052D02*
X0105589Y0179819D01*
X0108658Y0182888D01*
X0108658Y0183656D01*
X0105589Y0183656D01*
X0105985Y0185302D02*
X0105985Y0189906D01*
X0108287Y0189906D01*
X0109054Y0189138D01*
X0109054Y0187604D01*
X0108287Y0186836D01*
X0105985Y0186836D01*
X0107520Y0186836D02*
X0109054Y0185302D01*
X0110589Y0186069D02*
X0110589Y0186836D01*
X0111356Y0187604D01*
X0112891Y0187604D01*
X0113658Y0186836D01*
X0113658Y0186069D01*
X0112891Y0185302D01*
X0111356Y0185302D01*
X0110589Y0186069D01*
X0111356Y0187604D02*
X0110589Y0188371D01*
X0110589Y0189138D01*
X0111356Y0189906D01*
X0112891Y0189906D01*
X0113658Y0189138D01*
X0113658Y0188371D01*
X0112891Y0187604D01*
X0113985Y0185427D02*
X0113985Y0190031D01*
X0116287Y0190031D01*
X0117054Y0189263D01*
X0117054Y0186194D01*
X0116287Y0185427D01*
X0113985Y0185427D01*
X0118589Y0186194D02*
X0119356Y0185427D01*
X0120891Y0185427D01*
X0121658Y0186194D01*
X0121658Y0186961D01*
X0120891Y0187729D01*
X0120124Y0187729D01*
X0120891Y0187729D02*
X0121658Y0188496D01*
X0121658Y0189263D01*
X0120891Y0190031D01*
X0119356Y0190031D01*
X0118589Y0189263D01*
X0118589Y0180031D02*
X0118589Y0177729D01*
X0120124Y0178496D01*
X0120891Y0178496D01*
X0121658Y0177729D01*
X0121658Y0176194D01*
X0120891Y0175427D01*
X0119356Y0175427D01*
X0118589Y0176194D01*
X0117054Y0176194D02*
X0117054Y0179263D01*
X0116287Y0180031D01*
X0113985Y0180031D01*
X0113985Y0175427D01*
X0116287Y0175427D01*
X0117054Y0176194D01*
X0118589Y0180031D02*
X0121658Y0180031D01*
X0134106Y0188061D02*
X0136408Y0185760D01*
X0136408Y0188829D01*
X0138710Y0188061D02*
X0134106Y0188061D01*
X0104054Y0182888D02*
X0104054Y0179819D01*
X0103287Y0179052D01*
X0101752Y0179052D01*
X0100985Y0179819D01*
X0100985Y0182888D01*
X0101752Y0183656D01*
X0103287Y0183656D01*
X0104054Y0182888D01*
X0102520Y0180586D02*
X0104054Y0179052D01*
X0096158Y0187319D02*
X0095391Y0186552D01*
X0093856Y0186552D01*
X0093089Y0187319D01*
X0093089Y0188086D01*
X0093856Y0188854D01*
X0095391Y0188854D01*
X0096158Y0188086D01*
X0096158Y0187319D01*
X0095391Y0188854D02*
X0096158Y0189621D01*
X0096158Y0190388D01*
X0095391Y0191156D01*
X0093856Y0191156D01*
X0093089Y0190388D01*
X0093089Y0189621D01*
X0093856Y0188854D01*
X0091554Y0190388D02*
X0091554Y0187319D01*
X0090787Y0186552D01*
X0089252Y0186552D01*
X0088485Y0187319D01*
X0088485Y0190388D01*
X0089252Y0191156D01*
X0090787Y0191156D01*
X0091554Y0190388D01*
X0090020Y0188086D02*
X0091554Y0186552D01*
X0083658Y0186552D02*
X0080589Y0186552D01*
X0079054Y0186552D02*
X0077520Y0188086D01*
X0078287Y0186552D02*
X0076752Y0186552D01*
X0075985Y0187319D01*
X0075985Y0190388D01*
X0076752Y0191156D01*
X0078287Y0191156D01*
X0079054Y0190388D01*
X0079054Y0187319D01*
X0078287Y0186552D01*
X0080589Y0189621D02*
X0082124Y0191156D01*
X0082124Y0186552D01*
X0071158Y0188854D02*
X0068089Y0188854D01*
X0070391Y0191156D01*
X0070391Y0186552D01*
X0066554Y0186552D02*
X0065020Y0188086D01*
X0064335Y0186750D02*
X0063568Y0187517D01*
X0062800Y0187517D01*
X0062033Y0186750D01*
X0062033Y0185215D01*
X0061266Y0184448D01*
X0060499Y0184448D01*
X0059731Y0185215D01*
X0059731Y0186750D01*
X0060499Y0187517D01*
X0061266Y0187517D01*
X0062033Y0186750D01*
X0062033Y0185215D02*
X0062800Y0184448D01*
X0063568Y0184448D01*
X0064335Y0185215D01*
X0064335Y0186750D01*
X0064252Y0186552D02*
X0063485Y0187319D01*
X0063485Y0190388D01*
X0064252Y0191156D01*
X0065787Y0191156D01*
X0066554Y0190388D01*
X0066554Y0187319D01*
X0065787Y0186552D01*
X0064252Y0186552D01*
X0059335Y0187121D02*
X0057800Y0185586D01*
X0057891Y0186156D02*
X0056356Y0186156D01*
X0055589Y0185388D01*
X0054874Y0185809D02*
X0056408Y0185809D01*
X0057175Y0185042D01*
X0057175Y0182740D01*
X0057800Y0184052D02*
X0057800Y0186354D01*
X0057033Y0187121D01*
X0055499Y0187121D01*
X0054731Y0186354D01*
X0054731Y0184052D01*
X0059335Y0184052D01*
X0058658Y0184621D02*
X0058658Y0185388D01*
X0057891Y0186156D01*
X0058710Y0185809D02*
X0057175Y0184274D01*
X0058658Y0184621D02*
X0055589Y0181552D01*
X0058658Y0181552D01*
X0058710Y0182740D02*
X0054106Y0182740D01*
X0054106Y0185042D01*
X0054874Y0185809D01*
X0054054Y0185388D02*
X0054054Y0182319D01*
X0053287Y0181552D01*
X0051752Y0181552D01*
X0050985Y0182319D01*
X0050985Y0185388D01*
X0051752Y0186156D01*
X0053287Y0186156D01*
X0054054Y0185388D01*
X0054106Y0187344D02*
X0054106Y0190413D01*
X0054874Y0190413D01*
X0057943Y0187344D01*
X0058710Y0187344D01*
X0058568Y0188656D02*
X0057800Y0188656D01*
X0057033Y0189423D01*
X0057033Y0190958D01*
X0057800Y0191725D01*
X0058568Y0191725D01*
X0059335Y0190958D01*
X0059335Y0189423D01*
X0058568Y0188656D01*
X0057033Y0189423D02*
X0056266Y0188656D01*
X0055499Y0188656D01*
X0054731Y0189423D01*
X0054731Y0190958D01*
X0055499Y0191725D01*
X0056266Y0191725D01*
X0057033Y0190958D01*
X0057943Y0191948D02*
X0058710Y0192715D01*
X0058710Y0194250D01*
X0057943Y0195017D01*
X0054874Y0195017D01*
X0054106Y0194250D01*
X0054106Y0192715D01*
X0054874Y0191948D01*
X0055641Y0191948D01*
X0056408Y0192715D01*
X0056408Y0195017D01*
X0055499Y0196329D02*
X0058568Y0193260D01*
X0059335Y0194027D01*
X0059335Y0195561D01*
X0058568Y0196329D01*
X0055499Y0196329D01*
X0054731Y0195561D01*
X0054731Y0194027D01*
X0055499Y0193260D01*
X0058568Y0193260D01*
X0058710Y0201094D02*
X0054106Y0201094D01*
X0054106Y0203396D01*
X0054874Y0204163D01*
X0056408Y0204163D01*
X0057175Y0203396D01*
X0057175Y0201094D01*
X0057175Y0202628D02*
X0058710Y0204163D01*
X0058710Y0205698D02*
X0057943Y0205698D01*
X0054874Y0208767D01*
X0054106Y0208767D01*
X0054106Y0205698D01*
X0054252Y0206552D02*
X0053485Y0207319D01*
X0053485Y0210388D01*
X0054252Y0211156D01*
X0055787Y0211156D01*
X0056554Y0210388D01*
X0056554Y0207319D01*
X0055787Y0206552D01*
X0054252Y0206552D01*
X0055020Y0208086D02*
X0056554Y0206552D01*
X0058089Y0207319D02*
X0058856Y0206552D01*
X0060391Y0206552D01*
X0061158Y0207319D01*
X0061158Y0208086D01*
X0060391Y0208854D01*
X0059624Y0208854D01*
X0060391Y0208854D02*
X0061158Y0209621D01*
X0061158Y0210388D01*
X0060391Y0211156D01*
X0058856Y0211156D01*
X0058089Y0210388D01*
X0048710Y0214677D02*
X0044106Y0214677D01*
X0044106Y0216979D01*
X0044874Y0217746D01*
X0046408Y0217746D01*
X0047175Y0216979D01*
X0047175Y0214677D01*
X0047175Y0216211D02*
X0048710Y0217746D01*
X0048710Y0219281D02*
X0045641Y0222350D01*
X0044874Y0222350D01*
X0044106Y0221583D01*
X0044106Y0220048D01*
X0044874Y0219281D01*
X0048710Y0219281D02*
X0048710Y0222350D01*
X0048710Y0223885D02*
X0045641Y0226954D01*
X0044874Y0226954D01*
X0044106Y0226186D01*
X0044106Y0224652D01*
X0044874Y0223885D01*
X0048710Y0223885D02*
X0048710Y0226954D01*
X0048360Y0233552D02*
X0050662Y0233552D01*
X0051429Y0234319D01*
X0051429Y0237388D01*
X0050662Y0238156D01*
X0048360Y0238156D01*
X0048360Y0233552D01*
X0052964Y0233552D02*
X0052964Y0234319D01*
X0056033Y0237388D01*
X0056033Y0238156D01*
X0052964Y0238156D01*
X0069106Y0223000D02*
X0069106Y0221465D01*
X0069874Y0220698D01*
X0070641Y0220698D01*
X0071408Y0221465D01*
X0071408Y0223767D01*
X0069874Y0223767D02*
X0072943Y0223767D01*
X0073710Y0223000D01*
X0073710Y0221465D01*
X0072943Y0220698D01*
X0072943Y0219163D02*
X0069874Y0219163D01*
X0069106Y0218396D01*
X0069106Y0216861D01*
X0069874Y0216094D01*
X0072943Y0216094D01*
X0073710Y0216861D01*
X0073710Y0218396D01*
X0072943Y0219163D01*
X0073710Y0219163D02*
X0072175Y0217628D01*
X0069106Y0223000D02*
X0069874Y0223767D01*
X0060499Y0182913D02*
X0063568Y0179844D01*
X0064335Y0179844D01*
X0064335Y0178309D02*
X0062800Y0176774D01*
X0062800Y0177542D02*
X0062800Y0175240D01*
X0064335Y0175240D02*
X0059731Y0175240D01*
X0059731Y0177542D01*
X0060499Y0178309D01*
X0062033Y0178309D01*
X0062800Y0177542D01*
X0059731Y0179844D02*
X0059731Y0182913D01*
X0060499Y0182913D01*
X0054054Y0181552D02*
X0052520Y0183086D01*
X0073089Y0171781D02*
X0073089Y0169479D01*
X0074624Y0170246D01*
X0075391Y0170246D01*
X0076158Y0169479D01*
X0076158Y0167944D01*
X0075391Y0167177D01*
X0073856Y0167177D01*
X0073089Y0167944D01*
X0073089Y0171781D02*
X0076158Y0171781D01*
X0077693Y0170246D02*
X0079228Y0171781D01*
X0079228Y0167177D01*
X0080762Y0167177D02*
X0077693Y0167177D01*
X0086208Y0163086D02*
X0087743Y0161552D01*
X0058999Y0132406D02*
X0058999Y0127802D01*
X0056325Y0126781D02*
X0053256Y0126781D01*
X0052860Y0127802D02*
X0052860Y0132406D01*
X0055162Y0132406D01*
X0055929Y0131638D01*
X0055929Y0130104D01*
X0055162Y0129336D01*
X0052860Y0129336D01*
X0054395Y0129336D02*
X0055929Y0127802D01*
X0057464Y0130871D02*
X0058999Y0132406D01*
X0050187Y0138656D02*
X0048652Y0137121D01*
X0045583Y0138656D02*
X0045583Y0134052D01*
X0044048Y0134052D02*
X0047118Y0134052D01*
X0044048Y0137121D02*
X0045583Y0138656D01*
X0042514Y0137888D02*
X0042514Y0136354D01*
X0041746Y0135586D01*
X0039444Y0135586D01*
X0039444Y0134052D02*
X0039444Y0138656D01*
X0041746Y0138656D01*
X0042514Y0137888D01*
X0040979Y0135586D02*
X0042514Y0134052D01*
X0042229Y0109961D02*
X0043764Y0108427D01*
X0084249Y0059621D02*
X0083481Y0058854D01*
X0083481Y0057319D01*
X0084249Y0056552D01*
X0087318Y0056552D01*
X0088085Y0057319D01*
X0097402Y0054281D02*
X0097402Y0049677D01*
X0097402Y0051211D02*
X0099704Y0051211D01*
X0100472Y0051979D01*
X0100472Y0053513D01*
X0099704Y0054281D01*
X0097402Y0054281D01*
X0099786Y0056476D02*
X0100987Y0056476D01*
X0101588Y0057076D01*
X0101588Y0060079D01*
X0102869Y0059478D02*
X0103469Y0060079D01*
X0104670Y0060079D01*
X0105271Y0059478D01*
X0104670Y0058277D02*
X0105271Y0057677D01*
X0105271Y0057076D01*
X0104670Y0056476D01*
X0103469Y0056476D01*
X0102869Y0057076D01*
X0103469Y0058277D02*
X0102869Y0058878D01*
X0102869Y0059478D01*
X0103469Y0058277D02*
X0104670Y0058277D01*
X0106552Y0058878D02*
X0107753Y0060079D01*
X0107753Y0056476D01*
X0106552Y0056476D02*
X0108954Y0056476D01*
X0105075Y0054281D02*
X0102006Y0054281D01*
X0102006Y0051979D01*
X0103541Y0052746D01*
X0104308Y0052746D01*
X0105075Y0051979D01*
X0105075Y0050444D01*
X0104308Y0049677D01*
X0102773Y0049677D01*
X0102006Y0050444D01*
X0100472Y0049677D02*
X0098937Y0051211D01*
X0099786Y0056476D02*
X0099186Y0057076D01*
X0099186Y0060079D01*
X0104070Y0060679D02*
X0104070Y0055875D01*
X0106749Y0077919D02*
X0105981Y0079454D01*
X0115360Y0077177D02*
X0118429Y0077177D01*
X0115360Y0077177D02*
X0115360Y0081781D01*
X0119818Y0080184D02*
X0120585Y0079417D01*
X0159874Y0120240D02*
X0162943Y0120240D01*
X0163710Y0121007D01*
X0163710Y0122542D01*
X0162943Y0123309D01*
X0161408Y0124844D02*
X0161408Y0127913D01*
X0162943Y0129448D02*
X0163710Y0130215D01*
X0163710Y0131750D01*
X0161093Y0135054D02*
X0159558Y0135054D01*
X0159251Y0135092D02*
X0159251Y0136627D01*
X0158484Y0137394D01*
X0157717Y0137394D01*
X0159251Y0135092D02*
X0158484Y0134325D01*
X0153200Y0137319D02*
X0152433Y0136552D01*
X0150898Y0136552D01*
X0150131Y0137319D01*
X0159106Y0127146D02*
X0161408Y0124844D01*
X0159874Y0123309D02*
X0159106Y0122542D01*
X0159106Y0121007D01*
X0159874Y0120240D01*
X0159106Y0127146D02*
X0163710Y0127146D01*
X0181690Y0124571D02*
X0185526Y0124571D01*
X0186294Y0125338D01*
X0186294Y0126873D01*
X0185526Y0127640D01*
D12*
X0152941Y0147946D02*
X0152941Y0159757D01*
X0141130Y0159757D01*
X0141130Y0147946D01*
X0152941Y0147946D01*
X0150137Y0157789D02*
X0150139Y0157847D01*
X0150145Y0157904D01*
X0150155Y0157961D01*
X0150169Y0158017D01*
X0150186Y0158072D01*
X0150208Y0158125D01*
X0150233Y0158177D01*
X0150261Y0158227D01*
X0150293Y0158275D01*
X0150328Y0158321D01*
X0150366Y0158364D01*
X0150408Y0158404D01*
X0150451Y0158442D01*
X0150498Y0158476D01*
X0150546Y0158507D01*
X0150597Y0158535D01*
X0150649Y0158559D01*
X0150703Y0158579D01*
X0150758Y0158596D01*
X0150814Y0158609D01*
X0150871Y0158618D01*
X0150929Y0158623D01*
X0150986Y0158624D01*
X0151044Y0158621D01*
X0151101Y0158614D01*
X0151158Y0158603D01*
X0151214Y0158588D01*
X0151268Y0158570D01*
X0151321Y0158547D01*
X0151373Y0158522D01*
X0151422Y0158492D01*
X0151470Y0158459D01*
X0151515Y0158423D01*
X0151557Y0158385D01*
X0151597Y0158343D01*
X0151634Y0158298D01*
X0151667Y0158251D01*
X0151698Y0158202D01*
X0151724Y0158151D01*
X0151748Y0158099D01*
X0151767Y0158044D01*
X0151783Y0157989D01*
X0151795Y0157932D01*
X0151803Y0157875D01*
X0151807Y0157818D01*
X0151807Y0157760D01*
X0151803Y0157703D01*
X0151795Y0157646D01*
X0151783Y0157589D01*
X0151767Y0157534D01*
X0151748Y0157479D01*
X0151724Y0157427D01*
X0151698Y0157376D01*
X0151667Y0157327D01*
X0151634Y0157280D01*
X0151597Y0157235D01*
X0151557Y0157193D01*
X0151515Y0157155D01*
X0151470Y0157119D01*
X0151422Y0157086D01*
X0151373Y0157056D01*
X0151321Y0157031D01*
X0151268Y0157008D01*
X0151214Y0156990D01*
X0151158Y0156975D01*
X0151101Y0156964D01*
X0151044Y0156957D01*
X0150986Y0156954D01*
X0150929Y0156955D01*
X0150871Y0156960D01*
X0150814Y0156969D01*
X0150758Y0156982D01*
X0150703Y0156999D01*
X0150649Y0157019D01*
X0150597Y0157043D01*
X0150546Y0157071D01*
X0150498Y0157102D01*
X0150451Y0157136D01*
X0150408Y0157174D01*
X0150366Y0157214D01*
X0150328Y0157257D01*
X0150293Y0157303D01*
X0150261Y0157351D01*
X0150233Y0157401D01*
X0150208Y0157453D01*
X0150186Y0157506D01*
X0150169Y0157561D01*
X0150155Y0157617D01*
X0150145Y0157674D01*
X0150139Y0157731D01*
X0150137Y0157789D01*
X0135785Y0137602D02*
X0138285Y0135102D01*
X0138285Y0130102D01*
X0135785Y0127602D01*
X0120785Y0127602D01*
X0118285Y0125102D01*
X0118285Y0120102D01*
X0120785Y0117602D01*
X0135785Y0117602D01*
X0138285Y0115102D01*
X0138285Y0110102D01*
X0135785Y0107602D01*
X0120785Y0107602D01*
X0118285Y0105102D01*
X0118285Y0100102D01*
X0120785Y0097602D01*
X0118285Y0095102D01*
X0118285Y0090102D01*
X0120785Y0087602D01*
X0135785Y0087602D01*
X0138285Y0090102D01*
X0138285Y0095102D01*
X0135785Y0097602D01*
X0120785Y0097602D01*
X0120785Y0107602D02*
X0118285Y0110102D01*
X0118285Y0115102D01*
X0120785Y0117602D01*
X0120785Y0127602D02*
X0118285Y0130102D01*
X0118285Y0135102D01*
X0120785Y0137602D01*
X0135785Y0137602D01*
X0135785Y0127602D02*
X0138285Y0125102D01*
X0138285Y0120102D01*
X0135785Y0117602D01*
X0135785Y0107602D02*
X0138285Y0105102D01*
X0138285Y0100102D01*
X0135785Y0097602D01*
X0110137Y0070051D02*
X0110137Y0063902D01*
X0098937Y0063902D02*
X0098937Y0070051D01*
X0093334Y0118802D02*
X0065736Y0118802D01*
X0065736Y0145003D01*
X0067134Y0146401D01*
X0093334Y0146401D01*
X0093334Y0118802D01*
X0067321Y0143402D02*
X0067323Y0143477D01*
X0067329Y0143551D01*
X0067339Y0143625D01*
X0067352Y0143698D01*
X0067370Y0143771D01*
X0067391Y0143842D01*
X0067416Y0143913D01*
X0067445Y0143982D01*
X0067478Y0144049D01*
X0067514Y0144114D01*
X0067553Y0144178D01*
X0067595Y0144239D01*
X0067641Y0144298D01*
X0067690Y0144355D01*
X0067742Y0144408D01*
X0067796Y0144459D01*
X0067853Y0144508D01*
X0067913Y0144552D01*
X0067975Y0144594D01*
X0068039Y0144633D01*
X0068105Y0144668D01*
X0068172Y0144699D01*
X0068242Y0144727D01*
X0068312Y0144751D01*
X0068384Y0144772D01*
X0068457Y0144788D01*
X0068530Y0144801D01*
X0068605Y0144810D01*
X0068679Y0144815D01*
X0068754Y0144816D01*
X0068828Y0144813D01*
X0068903Y0144806D01*
X0068976Y0144795D01*
X0069050Y0144781D01*
X0069122Y0144762D01*
X0069193Y0144740D01*
X0069263Y0144714D01*
X0069332Y0144684D01*
X0069398Y0144651D01*
X0069463Y0144614D01*
X0069526Y0144574D01*
X0069587Y0144530D01*
X0069645Y0144484D01*
X0069701Y0144434D01*
X0069754Y0144382D01*
X0069805Y0144327D01*
X0069852Y0144269D01*
X0069896Y0144209D01*
X0069937Y0144146D01*
X0069975Y0144082D01*
X0070009Y0144016D01*
X0070040Y0143947D01*
X0070067Y0143878D01*
X0070090Y0143807D01*
X0070109Y0143735D01*
X0070125Y0143662D01*
X0070137Y0143588D01*
X0070145Y0143514D01*
X0070149Y0143439D01*
X0070149Y0143365D01*
X0070145Y0143290D01*
X0070137Y0143216D01*
X0070125Y0143142D01*
X0070109Y0143069D01*
X0070090Y0142997D01*
X0070067Y0142926D01*
X0070040Y0142857D01*
X0070009Y0142788D01*
X0069975Y0142722D01*
X0069937Y0142658D01*
X0069896Y0142595D01*
X0069852Y0142535D01*
X0069805Y0142477D01*
X0069754Y0142422D01*
X0069701Y0142370D01*
X0069645Y0142320D01*
X0069587Y0142274D01*
X0069526Y0142230D01*
X0069463Y0142190D01*
X0069398Y0142153D01*
X0069332Y0142120D01*
X0069263Y0142090D01*
X0069193Y0142064D01*
X0069122Y0142042D01*
X0069050Y0142023D01*
X0068976Y0142009D01*
X0068903Y0141998D01*
X0068828Y0141991D01*
X0068754Y0141988D01*
X0068679Y0141989D01*
X0068605Y0141994D01*
X0068530Y0142003D01*
X0068457Y0142016D01*
X0068384Y0142032D01*
X0068312Y0142053D01*
X0068242Y0142077D01*
X0068172Y0142105D01*
X0068105Y0142136D01*
X0068039Y0142171D01*
X0067975Y0142210D01*
X0067913Y0142252D01*
X0067853Y0142296D01*
X0067796Y0142345D01*
X0067742Y0142396D01*
X0067690Y0142449D01*
X0067641Y0142506D01*
X0067595Y0142565D01*
X0067553Y0142626D01*
X0067514Y0142690D01*
X0067478Y0142755D01*
X0067445Y0142822D01*
X0067416Y0142891D01*
X0067391Y0142962D01*
X0067370Y0143033D01*
X0067352Y0143106D01*
X0067339Y0143179D01*
X0067329Y0143253D01*
X0067323Y0143327D01*
X0067321Y0143402D01*
D13*
X0068785Y0152752D02*
X0069753Y0152752D01*
X0069269Y0152752D02*
X0069269Y0155654D01*
X0068785Y0155654D02*
X0069753Y0155654D01*
X0070749Y0155170D02*
X0070749Y0153235D01*
X0071233Y0152752D01*
X0072201Y0152752D01*
X0072684Y0153235D01*
X0073696Y0153235D02*
X0074180Y0152752D01*
X0075147Y0152752D01*
X0075631Y0153235D01*
X0075631Y0153719D01*
X0075147Y0154203D01*
X0074663Y0154203D01*
X0075147Y0154203D02*
X0075631Y0154687D01*
X0075631Y0155170D01*
X0075147Y0155654D01*
X0074180Y0155654D01*
X0073696Y0155170D01*
X0072684Y0155170D02*
X0072201Y0155654D01*
X0071233Y0155654D01*
X0070749Y0155170D01*
D14*
X0082035Y0061977D03*
D15*
X0212153Y0058360D03*
X0220903Y0113985D03*
D16*
X0109063Y0068945D03*
D17*
X0112581Y0095677D02*
X0102739Y0095677D01*
X0102739Y0108276D01*
X0112581Y0108276D01*
X0112581Y0095677D01*
X0137114Y0072651D02*
X0146956Y0072651D01*
X0146956Y0060052D01*
X0137114Y0060052D01*
X0137114Y0072651D01*
X0168261Y0178989D02*
X0168261Y0183714D01*
X0174560Y0183714D01*
X0174560Y0178989D01*
X0168261Y0178989D01*
X0168654Y0179777D02*
X0168656Y0179816D01*
X0168662Y0179855D01*
X0168672Y0179893D01*
X0168685Y0179930D01*
X0168702Y0179965D01*
X0168722Y0179999D01*
X0168746Y0180030D01*
X0168773Y0180059D01*
X0168802Y0180085D01*
X0168834Y0180108D01*
X0168868Y0180128D01*
X0168904Y0180144D01*
X0168941Y0180156D01*
X0168980Y0180165D01*
X0169019Y0180170D01*
X0169058Y0180171D01*
X0169097Y0180168D01*
X0169136Y0180161D01*
X0169173Y0180150D01*
X0169210Y0180136D01*
X0169245Y0180118D01*
X0169278Y0180097D01*
X0169309Y0180072D01*
X0169337Y0180045D01*
X0169362Y0180015D01*
X0169384Y0179982D01*
X0169403Y0179948D01*
X0169418Y0179912D01*
X0169430Y0179874D01*
X0169438Y0179836D01*
X0169442Y0179797D01*
X0169442Y0179757D01*
X0169438Y0179718D01*
X0169430Y0179680D01*
X0169418Y0179642D01*
X0169403Y0179606D01*
X0169384Y0179572D01*
X0169362Y0179539D01*
X0169337Y0179509D01*
X0169309Y0179482D01*
X0169278Y0179457D01*
X0169245Y0179436D01*
X0169210Y0179418D01*
X0169173Y0179404D01*
X0169136Y0179393D01*
X0169097Y0179386D01*
X0169058Y0179383D01*
X0169019Y0179384D01*
X0168980Y0179389D01*
X0168941Y0179398D01*
X0168904Y0179410D01*
X0168868Y0179426D01*
X0168834Y0179446D01*
X0168802Y0179469D01*
X0168773Y0179495D01*
X0168746Y0179524D01*
X0168722Y0179555D01*
X0168702Y0179589D01*
X0168685Y0179624D01*
X0168672Y0179661D01*
X0168662Y0179699D01*
X0168656Y0179738D01*
X0168654Y0179777D01*
D18*
X0167325Y0137789D02*
X0162995Y0137789D01*
X0162995Y0129915D02*
X0167325Y0129915D01*
X0173620Y0129915D02*
X0177950Y0129915D01*
X0177950Y0137789D02*
X0173620Y0137789D01*
X0072778Y0069801D02*
X0072778Y0061691D01*
X0062542Y0061691D02*
X0062542Y0069801D01*
D19*
X0067660Y0068591D03*
D20*
X0156976Y0067277D02*
X0156976Y0118458D01*
X0159929Y0121411D01*
X0211110Y0121411D01*
X0212094Y0120426D01*
X0212094Y0067277D01*
X0211110Y0066293D01*
X0157960Y0066293D01*
X0156976Y0067277D01*
X0159929Y0117474D02*
X0159931Y0117536D01*
X0159937Y0117599D01*
X0159947Y0117660D01*
X0159961Y0117721D01*
X0159978Y0117781D01*
X0159999Y0117840D01*
X0160025Y0117897D01*
X0160053Y0117952D01*
X0160085Y0118006D01*
X0160121Y0118057D01*
X0160159Y0118107D01*
X0160201Y0118153D01*
X0160245Y0118197D01*
X0160293Y0118238D01*
X0160342Y0118276D01*
X0160394Y0118310D01*
X0160448Y0118341D01*
X0160504Y0118369D01*
X0160562Y0118393D01*
X0160621Y0118414D01*
X0160681Y0118430D01*
X0160742Y0118443D01*
X0160804Y0118452D01*
X0160866Y0118457D01*
X0160929Y0118458D01*
X0160991Y0118455D01*
X0161053Y0118448D01*
X0161115Y0118437D01*
X0161175Y0118422D01*
X0161235Y0118404D01*
X0161293Y0118382D01*
X0161350Y0118356D01*
X0161405Y0118326D01*
X0161458Y0118293D01*
X0161509Y0118257D01*
X0161557Y0118218D01*
X0161603Y0118175D01*
X0161646Y0118130D01*
X0161686Y0118082D01*
X0161723Y0118032D01*
X0161757Y0117979D01*
X0161788Y0117925D01*
X0161814Y0117869D01*
X0161838Y0117811D01*
X0161857Y0117751D01*
X0161873Y0117691D01*
X0161885Y0117629D01*
X0161893Y0117568D01*
X0161897Y0117505D01*
X0161897Y0117443D01*
X0161893Y0117380D01*
X0161885Y0117319D01*
X0161873Y0117257D01*
X0161857Y0117197D01*
X0161838Y0117137D01*
X0161814Y0117079D01*
X0161788Y0117023D01*
X0161757Y0116969D01*
X0161723Y0116916D01*
X0161686Y0116866D01*
X0161646Y0116818D01*
X0161603Y0116773D01*
X0161557Y0116730D01*
X0161509Y0116691D01*
X0161458Y0116655D01*
X0161405Y0116622D01*
X0161350Y0116592D01*
X0161293Y0116566D01*
X0161235Y0116544D01*
X0161175Y0116526D01*
X0161115Y0116511D01*
X0161053Y0116500D01*
X0160991Y0116493D01*
X0160929Y0116490D01*
X0160866Y0116491D01*
X0160804Y0116496D01*
X0160742Y0116505D01*
X0160681Y0116518D01*
X0160621Y0116534D01*
X0160562Y0116555D01*
X0160504Y0116579D01*
X0160448Y0116607D01*
X0160394Y0116638D01*
X0160342Y0116672D01*
X0160293Y0116710D01*
X0160245Y0116751D01*
X0160201Y0116795D01*
X0160159Y0116841D01*
X0160121Y0116891D01*
X0160085Y0116942D01*
X0160053Y0116996D01*
X0160025Y0117051D01*
X0159999Y0117108D01*
X0159978Y0117167D01*
X0159961Y0117227D01*
X0159947Y0117288D01*
X0159937Y0117349D01*
X0159931Y0117412D01*
X0159929Y0117474D01*
D21*
X0095618Y0090894D03*
D22*
X0054584Y0255358D02*
X0054586Y0255519D01*
X0054592Y0255679D01*
X0054602Y0255840D01*
X0054616Y0256000D01*
X0054634Y0256159D01*
X0054655Y0256319D01*
X0054681Y0256477D01*
X0054711Y0256635D01*
X0054744Y0256792D01*
X0054782Y0256949D01*
X0054823Y0257104D01*
X0054868Y0257258D01*
X0054917Y0257411D01*
X0054970Y0257563D01*
X0055026Y0257713D01*
X0055086Y0257862D01*
X0055150Y0258010D01*
X0055217Y0258156D01*
X0055288Y0258300D01*
X0055363Y0258442D01*
X0055441Y0258583D01*
X0055522Y0258721D01*
X0055607Y0258858D01*
X0055696Y0258992D01*
X0055787Y0259124D01*
X0055882Y0259254D01*
X0055980Y0259381D01*
X0056081Y0259506D01*
X0056185Y0259629D01*
X0056292Y0259748D01*
X0056402Y0259865D01*
X0056515Y0259980D01*
X0056631Y0260091D01*
X0056749Y0260200D01*
X0056870Y0260305D01*
X0056994Y0260408D01*
X0057120Y0260508D01*
X0057249Y0260604D01*
X0057380Y0260697D01*
X0057513Y0260787D01*
X0057648Y0260874D01*
X0057786Y0260957D01*
X0057925Y0261036D01*
X0058067Y0261113D01*
X0058210Y0261186D01*
X0058355Y0261255D01*
X0058502Y0261320D01*
X0058650Y0261382D01*
X0058800Y0261441D01*
X0058951Y0261495D01*
X0059103Y0261546D01*
X0059257Y0261593D01*
X0059412Y0261636D01*
X0059567Y0261675D01*
X0059724Y0261711D01*
X0059882Y0261743D01*
X0060040Y0261770D01*
X0060199Y0261794D01*
X0060358Y0261814D01*
X0060518Y0261830D01*
X0060679Y0261842D01*
X0060839Y0261850D01*
X0061000Y0261854D01*
X0061160Y0261854D01*
X0061321Y0261850D01*
X0061481Y0261842D01*
X0061642Y0261830D01*
X0061802Y0261814D01*
X0061961Y0261794D01*
X0062120Y0261770D01*
X0062278Y0261743D01*
X0062436Y0261711D01*
X0062593Y0261675D01*
X0062748Y0261636D01*
X0062903Y0261593D01*
X0063057Y0261546D01*
X0063209Y0261495D01*
X0063360Y0261441D01*
X0063510Y0261382D01*
X0063658Y0261320D01*
X0063805Y0261255D01*
X0063950Y0261186D01*
X0064093Y0261113D01*
X0064235Y0261036D01*
X0064374Y0260957D01*
X0064512Y0260874D01*
X0064647Y0260787D01*
X0064780Y0260697D01*
X0064911Y0260604D01*
X0065040Y0260508D01*
X0065166Y0260408D01*
X0065290Y0260305D01*
X0065411Y0260200D01*
X0065529Y0260091D01*
X0065645Y0259980D01*
X0065758Y0259865D01*
X0065868Y0259748D01*
X0065975Y0259629D01*
X0066079Y0259506D01*
X0066180Y0259381D01*
X0066278Y0259254D01*
X0066373Y0259124D01*
X0066464Y0258992D01*
X0066553Y0258858D01*
X0066638Y0258721D01*
X0066719Y0258583D01*
X0066797Y0258442D01*
X0066872Y0258300D01*
X0066943Y0258156D01*
X0067010Y0258010D01*
X0067074Y0257862D01*
X0067134Y0257713D01*
X0067190Y0257563D01*
X0067243Y0257411D01*
X0067292Y0257258D01*
X0067337Y0257104D01*
X0067378Y0256949D01*
X0067416Y0256792D01*
X0067449Y0256635D01*
X0067479Y0256477D01*
X0067505Y0256319D01*
X0067526Y0256159D01*
X0067544Y0256000D01*
X0067558Y0255840D01*
X0067568Y0255679D01*
X0067574Y0255519D01*
X0067576Y0255358D01*
X0067574Y0255197D01*
X0067568Y0255037D01*
X0067558Y0254876D01*
X0067544Y0254716D01*
X0067526Y0254557D01*
X0067505Y0254397D01*
X0067479Y0254239D01*
X0067449Y0254081D01*
X0067416Y0253924D01*
X0067378Y0253767D01*
X0067337Y0253612D01*
X0067292Y0253458D01*
X0067243Y0253305D01*
X0067190Y0253153D01*
X0067134Y0253003D01*
X0067074Y0252854D01*
X0067010Y0252706D01*
X0066943Y0252560D01*
X0066872Y0252416D01*
X0066797Y0252274D01*
X0066719Y0252133D01*
X0066638Y0251995D01*
X0066553Y0251858D01*
X0066464Y0251724D01*
X0066373Y0251592D01*
X0066278Y0251462D01*
X0066180Y0251335D01*
X0066079Y0251210D01*
X0065975Y0251087D01*
X0065868Y0250968D01*
X0065758Y0250851D01*
X0065645Y0250736D01*
X0065529Y0250625D01*
X0065411Y0250516D01*
X0065290Y0250411D01*
X0065166Y0250308D01*
X0065040Y0250208D01*
X0064911Y0250112D01*
X0064780Y0250019D01*
X0064647Y0249929D01*
X0064512Y0249842D01*
X0064374Y0249759D01*
X0064235Y0249680D01*
X0064093Y0249603D01*
X0063950Y0249530D01*
X0063805Y0249461D01*
X0063658Y0249396D01*
X0063510Y0249334D01*
X0063360Y0249275D01*
X0063209Y0249221D01*
X0063057Y0249170D01*
X0062903Y0249123D01*
X0062748Y0249080D01*
X0062593Y0249041D01*
X0062436Y0249005D01*
X0062278Y0248973D01*
X0062120Y0248946D01*
X0061961Y0248922D01*
X0061802Y0248902D01*
X0061642Y0248886D01*
X0061481Y0248874D01*
X0061321Y0248866D01*
X0061160Y0248862D01*
X0061000Y0248862D01*
X0060839Y0248866D01*
X0060679Y0248874D01*
X0060518Y0248886D01*
X0060358Y0248902D01*
X0060199Y0248922D01*
X0060040Y0248946D01*
X0059882Y0248973D01*
X0059724Y0249005D01*
X0059567Y0249041D01*
X0059412Y0249080D01*
X0059257Y0249123D01*
X0059103Y0249170D01*
X0058951Y0249221D01*
X0058800Y0249275D01*
X0058650Y0249334D01*
X0058502Y0249396D01*
X0058355Y0249461D01*
X0058210Y0249530D01*
X0058067Y0249603D01*
X0057925Y0249680D01*
X0057786Y0249759D01*
X0057648Y0249842D01*
X0057513Y0249929D01*
X0057380Y0250019D01*
X0057249Y0250112D01*
X0057120Y0250208D01*
X0056994Y0250308D01*
X0056870Y0250411D01*
X0056749Y0250516D01*
X0056631Y0250625D01*
X0056515Y0250736D01*
X0056402Y0250851D01*
X0056292Y0250968D01*
X0056185Y0251087D01*
X0056081Y0251210D01*
X0055980Y0251335D01*
X0055882Y0251462D01*
X0055787Y0251592D01*
X0055696Y0251724D01*
X0055607Y0251858D01*
X0055522Y0251995D01*
X0055441Y0252133D01*
X0055363Y0252274D01*
X0055288Y0252416D01*
X0055217Y0252560D01*
X0055150Y0252706D01*
X0055086Y0252854D01*
X0055026Y0253003D01*
X0054970Y0253153D01*
X0054917Y0253305D01*
X0054868Y0253458D01*
X0054823Y0253612D01*
X0054782Y0253767D01*
X0054744Y0253924D01*
X0054711Y0254081D01*
X0054681Y0254239D01*
X0054655Y0254397D01*
X0054634Y0254557D01*
X0054616Y0254716D01*
X0054602Y0254876D01*
X0054592Y0255037D01*
X0054586Y0255197D01*
X0054584Y0255358D01*
X0206159Y0255358D02*
X0206161Y0255519D01*
X0206167Y0255679D01*
X0206177Y0255840D01*
X0206191Y0256000D01*
X0206209Y0256159D01*
X0206230Y0256319D01*
X0206256Y0256477D01*
X0206286Y0256635D01*
X0206319Y0256792D01*
X0206357Y0256949D01*
X0206398Y0257104D01*
X0206443Y0257258D01*
X0206492Y0257411D01*
X0206545Y0257563D01*
X0206601Y0257713D01*
X0206661Y0257862D01*
X0206725Y0258010D01*
X0206792Y0258156D01*
X0206863Y0258300D01*
X0206938Y0258442D01*
X0207016Y0258583D01*
X0207097Y0258721D01*
X0207182Y0258858D01*
X0207271Y0258992D01*
X0207362Y0259124D01*
X0207457Y0259254D01*
X0207555Y0259381D01*
X0207656Y0259506D01*
X0207760Y0259629D01*
X0207867Y0259748D01*
X0207977Y0259865D01*
X0208090Y0259980D01*
X0208206Y0260091D01*
X0208324Y0260200D01*
X0208445Y0260305D01*
X0208569Y0260408D01*
X0208695Y0260508D01*
X0208824Y0260604D01*
X0208955Y0260697D01*
X0209088Y0260787D01*
X0209223Y0260874D01*
X0209361Y0260957D01*
X0209500Y0261036D01*
X0209642Y0261113D01*
X0209785Y0261186D01*
X0209930Y0261255D01*
X0210077Y0261320D01*
X0210225Y0261382D01*
X0210375Y0261441D01*
X0210526Y0261495D01*
X0210678Y0261546D01*
X0210832Y0261593D01*
X0210987Y0261636D01*
X0211142Y0261675D01*
X0211299Y0261711D01*
X0211457Y0261743D01*
X0211615Y0261770D01*
X0211774Y0261794D01*
X0211933Y0261814D01*
X0212093Y0261830D01*
X0212254Y0261842D01*
X0212414Y0261850D01*
X0212575Y0261854D01*
X0212735Y0261854D01*
X0212896Y0261850D01*
X0213056Y0261842D01*
X0213217Y0261830D01*
X0213377Y0261814D01*
X0213536Y0261794D01*
X0213695Y0261770D01*
X0213853Y0261743D01*
X0214011Y0261711D01*
X0214168Y0261675D01*
X0214323Y0261636D01*
X0214478Y0261593D01*
X0214632Y0261546D01*
X0214784Y0261495D01*
X0214935Y0261441D01*
X0215085Y0261382D01*
X0215233Y0261320D01*
X0215380Y0261255D01*
X0215525Y0261186D01*
X0215668Y0261113D01*
X0215810Y0261036D01*
X0215949Y0260957D01*
X0216087Y0260874D01*
X0216222Y0260787D01*
X0216355Y0260697D01*
X0216486Y0260604D01*
X0216615Y0260508D01*
X0216741Y0260408D01*
X0216865Y0260305D01*
X0216986Y0260200D01*
X0217104Y0260091D01*
X0217220Y0259980D01*
X0217333Y0259865D01*
X0217443Y0259748D01*
X0217550Y0259629D01*
X0217654Y0259506D01*
X0217755Y0259381D01*
X0217853Y0259254D01*
X0217948Y0259124D01*
X0218039Y0258992D01*
X0218128Y0258858D01*
X0218213Y0258721D01*
X0218294Y0258583D01*
X0218372Y0258442D01*
X0218447Y0258300D01*
X0218518Y0258156D01*
X0218585Y0258010D01*
X0218649Y0257862D01*
X0218709Y0257713D01*
X0218765Y0257563D01*
X0218818Y0257411D01*
X0218867Y0257258D01*
X0218912Y0257104D01*
X0218953Y0256949D01*
X0218991Y0256792D01*
X0219024Y0256635D01*
X0219054Y0256477D01*
X0219080Y0256319D01*
X0219101Y0256159D01*
X0219119Y0256000D01*
X0219133Y0255840D01*
X0219143Y0255679D01*
X0219149Y0255519D01*
X0219151Y0255358D01*
X0219149Y0255197D01*
X0219143Y0255037D01*
X0219133Y0254876D01*
X0219119Y0254716D01*
X0219101Y0254557D01*
X0219080Y0254397D01*
X0219054Y0254239D01*
X0219024Y0254081D01*
X0218991Y0253924D01*
X0218953Y0253767D01*
X0218912Y0253612D01*
X0218867Y0253458D01*
X0218818Y0253305D01*
X0218765Y0253153D01*
X0218709Y0253003D01*
X0218649Y0252854D01*
X0218585Y0252706D01*
X0218518Y0252560D01*
X0218447Y0252416D01*
X0218372Y0252274D01*
X0218294Y0252133D01*
X0218213Y0251995D01*
X0218128Y0251858D01*
X0218039Y0251724D01*
X0217948Y0251592D01*
X0217853Y0251462D01*
X0217755Y0251335D01*
X0217654Y0251210D01*
X0217550Y0251087D01*
X0217443Y0250968D01*
X0217333Y0250851D01*
X0217220Y0250736D01*
X0217104Y0250625D01*
X0216986Y0250516D01*
X0216865Y0250411D01*
X0216741Y0250308D01*
X0216615Y0250208D01*
X0216486Y0250112D01*
X0216355Y0250019D01*
X0216222Y0249929D01*
X0216087Y0249842D01*
X0215949Y0249759D01*
X0215810Y0249680D01*
X0215668Y0249603D01*
X0215525Y0249530D01*
X0215380Y0249461D01*
X0215233Y0249396D01*
X0215085Y0249334D01*
X0214935Y0249275D01*
X0214784Y0249221D01*
X0214632Y0249170D01*
X0214478Y0249123D01*
X0214323Y0249080D01*
X0214168Y0249041D01*
X0214011Y0249005D01*
X0213853Y0248973D01*
X0213695Y0248946D01*
X0213536Y0248922D01*
X0213377Y0248902D01*
X0213217Y0248886D01*
X0213056Y0248874D01*
X0212896Y0248866D01*
X0212735Y0248862D01*
X0212575Y0248862D01*
X0212414Y0248866D01*
X0212254Y0248874D01*
X0212093Y0248886D01*
X0211933Y0248902D01*
X0211774Y0248922D01*
X0211615Y0248946D01*
X0211457Y0248973D01*
X0211299Y0249005D01*
X0211142Y0249041D01*
X0210987Y0249080D01*
X0210832Y0249123D01*
X0210678Y0249170D01*
X0210526Y0249221D01*
X0210375Y0249275D01*
X0210225Y0249334D01*
X0210077Y0249396D01*
X0209930Y0249461D01*
X0209785Y0249530D01*
X0209642Y0249603D01*
X0209500Y0249680D01*
X0209361Y0249759D01*
X0209223Y0249842D01*
X0209088Y0249929D01*
X0208955Y0250019D01*
X0208824Y0250112D01*
X0208695Y0250208D01*
X0208569Y0250308D01*
X0208445Y0250411D01*
X0208324Y0250516D01*
X0208206Y0250625D01*
X0208090Y0250736D01*
X0207977Y0250851D01*
X0207867Y0250968D01*
X0207760Y0251087D01*
X0207656Y0251210D01*
X0207555Y0251335D01*
X0207457Y0251462D01*
X0207362Y0251592D01*
X0207271Y0251724D01*
X0207182Y0251858D01*
X0207097Y0251995D01*
X0207016Y0252133D01*
X0206938Y0252274D01*
X0206863Y0252416D01*
X0206792Y0252560D01*
X0206725Y0252706D01*
X0206661Y0252854D01*
X0206601Y0253003D01*
X0206545Y0253153D01*
X0206492Y0253305D01*
X0206443Y0253458D01*
X0206398Y0253612D01*
X0206357Y0253767D01*
X0206319Y0253924D01*
X0206286Y0254081D01*
X0206256Y0254239D01*
X0206230Y0254397D01*
X0206209Y0254557D01*
X0206191Y0254716D01*
X0206177Y0254876D01*
X0206167Y0255037D01*
X0206161Y0255197D01*
X0206159Y0255358D01*
D23*
X0174801Y0136608D03*
X0166144Y0131096D03*
D24*
X0197793Y0057484D03*
M02*
