G75*
%MOIN*%
%OFA0B0*%
%FSLAX25Y25*%
%IPPOS*%
%LPD*%
%AMOC8*
5,1,8,0,0,1.08239X$1,22.5*
%
%ADD10C,0.07677*%
%ADD11C,0.06000*%
%ADD12C,0.02800*%
%ADD13C,0.00800*%
%ADD14C,0.00600*%
D10*
X0089624Y0196302D03*
X0095529Y0206145D03*
X0101435Y0196302D03*
X0107340Y0206145D03*
X0113246Y0196302D03*
X0119151Y0206145D03*
X0125057Y0196302D03*
X0130962Y0206145D03*
X0136868Y0196302D03*
X0142773Y0206145D03*
X0148679Y0196302D03*
X0154584Y0206145D03*
X0160490Y0196302D03*
X0166395Y0206145D03*
X0172301Y0196302D03*
X0178206Y0206145D03*
X0184112Y0196302D03*
X0178206Y0219924D03*
X0172301Y0229767D03*
X0166395Y0219924D03*
X0160490Y0229767D03*
X0154584Y0219924D03*
X0148679Y0229767D03*
X0142773Y0219924D03*
X0136868Y0229767D03*
X0130962Y0219924D03*
X0125057Y0229767D03*
X0119151Y0219924D03*
X0113246Y0229767D03*
X0107340Y0219924D03*
X0101435Y0229767D03*
X0095529Y0219924D03*
X0089624Y0229767D03*
X0184112Y0229767D03*
D11*
X0133285Y0132602D03*
X0133285Y0122602D03*
X0123285Y0122602D03*
X0123285Y0132602D03*
X0123285Y0112602D03*
X0133285Y0112602D03*
X0133285Y0102602D03*
X0133285Y0092602D03*
X0123285Y0092602D03*
X0123285Y0102602D03*
D12*
X0115785Y0106977D03*
X0117660Y0110102D03*
X0113910Y0111977D03*
X0104535Y0116977D03*
X0100785Y0116977D03*
X0099535Y0113227D03*
X0098285Y0109477D03*
X0094535Y0115102D03*
X0087035Y0121352D03*
X0084535Y0123852D03*
X0081410Y0125727D03*
X0076410Y0122602D03*
X0078910Y0132602D03*
X0076410Y0135102D03*
X0071410Y0132602D03*
X0068910Y0130102D03*
X0068285Y0136977D03*
X0067660Y0140727D03*
X0078910Y0144477D03*
X0075785Y0154477D03*
X0072660Y0159477D03*
X0068910Y0159477D03*
X0065160Y0159477D03*
X0062660Y0155102D03*
X0057035Y0153852D03*
X0055160Y0164477D03*
X0058285Y0176977D03*
X0058285Y0179477D03*
X0065785Y0179477D03*
X0065785Y0181977D03*
X0065785Y0184477D03*
X0064535Y0193227D03*
X0064535Y0195727D03*
X0051410Y0201352D03*
X0055785Y0213852D03*
X0058285Y0213852D03*
X0052660Y0187602D03*
X0077035Y0184477D03*
X0077035Y0181977D03*
X0077035Y0179477D03*
X0089535Y0179477D03*
X0089535Y0181977D03*
X0089535Y0184477D03*
X0103910Y0178852D03*
X0103910Y0176352D03*
X0113285Y0177602D03*
X0113285Y0175102D03*
X0118910Y0170727D03*
X0116410Y0160102D03*
X0116410Y0157602D03*
X0111410Y0152602D03*
X0106410Y0150727D03*
X0102035Y0155102D03*
X0102035Y0158852D03*
X0098285Y0160727D03*
X0088910Y0164477D03*
X0085160Y0159477D03*
X0076410Y0164477D03*
X0091410Y0140102D03*
X0091410Y0127602D03*
X0091410Y0124477D03*
X0103910Y0129477D03*
X0106410Y0133852D03*
X0106410Y0138227D03*
X0114535Y0142602D03*
X0126410Y0142602D03*
X0139535Y0144477D03*
X0142660Y0150102D03*
X0145160Y0152602D03*
X0148285Y0150102D03*
X0152035Y0153852D03*
X0156410Y0150102D03*
X0160785Y0151977D03*
X0157035Y0145727D03*
X0153910Y0141352D03*
X0152660Y0137602D03*
X0156410Y0136977D03*
X0162035Y0141352D03*
X0165160Y0138227D03*
X0170785Y0141352D03*
X0165785Y0145727D03*
X0178285Y0150727D03*
X0180785Y0155102D03*
X0183285Y0151977D03*
X0190785Y0141977D03*
X0195785Y0141977D03*
X0195785Y0144477D03*
X0204535Y0138227D03*
X0200160Y0120102D03*
X0183285Y0115727D03*
X0180785Y0118227D03*
X0180785Y0113227D03*
X0175785Y0119477D03*
X0170785Y0119477D03*
X0162660Y0119477D03*
X0156410Y0121977D03*
X0156410Y0125727D03*
X0149535Y0130727D03*
X0147660Y0138852D03*
X0143910Y0138852D03*
X0143910Y0158227D03*
X0138285Y0157602D03*
X0138285Y0160102D03*
X0138285Y0162602D03*
X0127035Y0162602D03*
X0127035Y0160102D03*
X0127035Y0157602D03*
X0107660Y0186977D03*
X0156410Y0161977D03*
X0163285Y0173227D03*
X0168910Y0167602D03*
X0173910Y0167602D03*
X0173910Y0162602D03*
X0168910Y0162602D03*
X0183285Y0175727D03*
X0177660Y0185727D03*
X0191410Y0200727D03*
X0193285Y0201977D03*
X0196410Y0196352D03*
X0194535Y0195102D03*
X0200785Y0190102D03*
X0203285Y0190102D03*
X0203285Y0187602D03*
X0200785Y0187602D03*
X0208910Y0187602D03*
X0208910Y0190102D03*
X0211410Y0190102D03*
X0211410Y0187602D03*
X0215160Y0221352D03*
X0217660Y0221352D03*
X0158910Y0186977D03*
X0182660Y0134477D03*
X0182660Y0130727D03*
X0169535Y0110727D03*
X0172035Y0108227D03*
X0158910Y0100727D03*
X0158910Y0096977D03*
X0163285Y0091352D03*
X0161410Y0088227D03*
X0163285Y0085102D03*
X0161410Y0081977D03*
X0161410Y0077602D03*
X0167660Y0078227D03*
X0171410Y0078227D03*
X0169535Y0083852D03*
X0171410Y0068227D03*
X0177660Y0068852D03*
X0181410Y0068852D03*
X0187035Y0069477D03*
X0198285Y0070102D03*
X0203285Y0069477D03*
X0207660Y0072602D03*
X0217660Y0063852D03*
X0208910Y0056352D03*
X0205160Y0056352D03*
X0182660Y0056352D03*
X0177035Y0056352D03*
X0162035Y0056352D03*
X0154535Y0059477D03*
X0139535Y0056977D03*
X0130160Y0057602D03*
X0130160Y0060102D03*
X0142660Y0075727D03*
X0147035Y0082602D03*
X0138285Y0086352D03*
X0131410Y0080727D03*
X0131410Y0078227D03*
X0117035Y0085102D03*
X0113285Y0081352D03*
X0110785Y0081352D03*
X0110785Y0078852D03*
X0113285Y0078852D03*
X0113285Y0076352D03*
X0110785Y0076352D03*
X0107035Y0078227D03*
X0101410Y0083852D03*
X0089535Y0085102D03*
X0081410Y0085102D03*
X0077035Y0081352D03*
X0075160Y0076977D03*
X0080160Y0075102D03*
X0080160Y0071977D03*
X0083910Y0071977D03*
X0083910Y0075102D03*
X0075785Y0089477D03*
X0075785Y0095102D03*
X0072660Y0101977D03*
X0066410Y0101977D03*
X0063910Y0095727D03*
X0063910Y0090727D03*
X0053910Y0101977D03*
X0050785Y0093852D03*
X0052035Y0088852D03*
X0051410Y0070727D03*
X0055160Y0070727D03*
X0058910Y0070727D03*
X0065160Y0059477D03*
X0067660Y0059477D03*
X0070160Y0059477D03*
X0070160Y0056352D03*
X0067660Y0056352D03*
X0065160Y0056352D03*
X0092035Y0057602D03*
X0094535Y0057602D03*
X0117035Y0091977D03*
X0142035Y0098852D03*
X0147035Y0094477D03*
X0146410Y0107602D03*
X0138285Y0117602D03*
X0115160Y0124477D03*
X0092035Y0098227D03*
X0088285Y0098227D03*
X0088285Y0101977D03*
X0084535Y0098227D03*
X0088285Y0094477D03*
X0055160Y0121352D03*
X0052660Y0133227D03*
X0195160Y0090102D03*
X0204535Y0097602D03*
X0210160Y0092602D03*
X0210160Y0088852D03*
X0210160Y0084477D03*
X0222035Y0083227D03*
X0222035Y0098227D03*
X0222035Y0121352D03*
D13*
X0049935Y0091552D02*
X0049935Y0054252D01*
X0064007Y0054252D01*
X0062860Y0055399D01*
X0062860Y0057304D01*
X0063470Y0057914D01*
X0062860Y0058524D01*
X0062860Y0060429D01*
X0064207Y0061777D01*
X0066113Y0061777D01*
X0066410Y0061479D01*
X0066707Y0061777D01*
X0068613Y0061777D01*
X0068910Y0061479D01*
X0069207Y0061777D01*
X0071113Y0061777D01*
X0072460Y0060429D01*
X0072460Y0058524D01*
X0071850Y0057914D01*
X0072460Y0057304D01*
X0072460Y0055399D01*
X0071313Y0054252D01*
X0160882Y0054252D01*
X0159735Y0055399D01*
X0159735Y0057304D01*
X0161082Y0058652D01*
X0162988Y0058652D01*
X0164335Y0057304D01*
X0164335Y0055399D01*
X0163188Y0054252D01*
X0204007Y0054252D01*
X0202860Y0055399D01*
X0202860Y0057304D01*
X0204207Y0058652D01*
X0206113Y0058652D01*
X0207035Y0057729D01*
X0207957Y0058652D01*
X0209863Y0058652D01*
X0211210Y0057304D01*
X0211210Y0055399D01*
X0210063Y0054252D01*
X0223800Y0054252D01*
X0223800Y0119864D01*
X0222988Y0119052D01*
X0221082Y0119052D01*
X0219735Y0120399D01*
X0219735Y0122304D01*
X0221082Y0123652D01*
X0222988Y0123652D01*
X0223800Y0122839D01*
X0223800Y0267487D01*
X0049935Y0267487D01*
X0049935Y0203129D01*
X0050457Y0203652D01*
X0052363Y0203652D01*
X0053710Y0202304D01*
X0053710Y0200399D01*
X0052363Y0199052D01*
X0050457Y0199052D01*
X0049935Y0199574D01*
X0049935Y0096152D01*
X0051738Y0096152D01*
X0053085Y0094804D01*
X0053085Y0092899D01*
X0051738Y0091552D01*
X0049935Y0091552D01*
X0049935Y0090930D02*
X0073986Y0090930D01*
X0073485Y0090429D02*
X0073485Y0088524D01*
X0074832Y0087177D01*
X0076738Y0087177D01*
X0078085Y0088524D01*
X0078085Y0090429D01*
X0076738Y0091777D01*
X0074832Y0091777D01*
X0073485Y0090429D01*
X0073485Y0090132D02*
X0049935Y0090132D01*
X0049935Y0089333D02*
X0073485Y0089333D01*
X0073485Y0088535D02*
X0049935Y0088535D01*
X0049935Y0087736D02*
X0074273Y0087736D01*
X0077297Y0087736D02*
X0159110Y0087736D01*
X0159110Y0087274D02*
X0160457Y0085927D01*
X0160985Y0085927D01*
X0160985Y0084277D01*
X0160457Y0084277D01*
X0159110Y0082929D01*
X0159110Y0081024D01*
X0160345Y0079789D01*
X0159110Y0078554D01*
X0159110Y0076649D01*
X0160457Y0075302D01*
X0162363Y0075302D01*
X0163710Y0076649D01*
X0163710Y0078554D01*
X0162475Y0079789D01*
X0163710Y0081024D01*
X0163710Y0082802D01*
X0164238Y0082802D01*
X0165585Y0084149D01*
X0165585Y0086054D01*
X0164238Y0087402D01*
X0163710Y0087402D01*
X0163710Y0089052D01*
X0164238Y0089052D01*
X0165585Y0090399D01*
X0165585Y0092304D01*
X0164238Y0093652D01*
X0162332Y0093652D01*
X0160985Y0092304D01*
X0160985Y0090527D01*
X0160457Y0090527D01*
X0159110Y0089179D01*
X0159110Y0087274D01*
X0159446Y0086938D02*
X0118452Y0086938D01*
X0117988Y0087402D02*
X0116082Y0087402D01*
X0114735Y0086054D01*
X0114735Y0084149D01*
X0116082Y0082802D01*
X0117988Y0082802D01*
X0119335Y0084149D01*
X0119335Y0086054D01*
X0117988Y0087402D01*
X0119250Y0086139D02*
X0160245Y0086139D01*
X0160985Y0085341D02*
X0119335Y0085341D01*
X0119335Y0084542D02*
X0145723Y0084542D01*
X0146082Y0084902D02*
X0144735Y0083554D01*
X0144735Y0081649D01*
X0146082Y0080302D01*
X0147988Y0080302D01*
X0149335Y0081649D01*
X0149335Y0083554D01*
X0147988Y0084902D01*
X0146082Y0084902D01*
X0144924Y0083744D02*
X0118930Y0083744D01*
X0118131Y0082945D02*
X0144735Y0082945D01*
X0144735Y0082147D02*
X0115585Y0082147D01*
X0115585Y0082304D02*
X0114238Y0083652D01*
X0112332Y0083652D01*
X0112035Y0083354D01*
X0111738Y0083652D01*
X0109832Y0083652D01*
X0108485Y0082304D01*
X0108485Y0080399D01*
X0108782Y0080102D01*
X0108485Y0079804D01*
X0108485Y0077899D01*
X0108782Y0077602D01*
X0108485Y0077304D01*
X0108485Y0075399D01*
X0109832Y0074052D01*
X0111738Y0074052D01*
X0112035Y0074349D01*
X0112332Y0074052D01*
X0114238Y0074052D01*
X0115585Y0075399D01*
X0115585Y0077304D01*
X0115288Y0077602D01*
X0115585Y0077899D01*
X0115585Y0079804D01*
X0115288Y0080102D01*
X0115585Y0080399D01*
X0115585Y0082304D01*
X0115939Y0082945D02*
X0114944Y0082945D01*
X0115140Y0083744D02*
X0103710Y0083744D01*
X0103710Y0084542D02*
X0114735Y0084542D01*
X0114735Y0085341D02*
X0103174Y0085341D01*
X0103710Y0084804D02*
X0102363Y0086152D01*
X0100457Y0086152D01*
X0099110Y0084804D01*
X0099110Y0082899D01*
X0100457Y0081552D01*
X0102363Y0081552D01*
X0103710Y0082899D01*
X0103710Y0084804D01*
X0103710Y0082945D02*
X0109126Y0082945D01*
X0108485Y0082147D02*
X0102958Y0082147D01*
X0102375Y0086139D02*
X0114820Y0086139D01*
X0115618Y0086938D02*
X0090952Y0086938D01*
X0090488Y0087402D02*
X0088582Y0087402D01*
X0087235Y0086054D01*
X0087235Y0084149D01*
X0088582Y0082802D01*
X0090488Y0082802D01*
X0091835Y0084149D01*
X0091835Y0086054D01*
X0090488Y0087402D01*
X0091750Y0086139D02*
X0100445Y0086139D01*
X0099646Y0085341D02*
X0091835Y0085341D01*
X0091835Y0084542D02*
X0099110Y0084542D01*
X0099110Y0083744D02*
X0091430Y0083744D01*
X0090631Y0082945D02*
X0099110Y0082945D01*
X0099863Y0082147D02*
X0049935Y0082147D01*
X0049935Y0082945D02*
X0080314Y0082945D01*
X0080457Y0082802D02*
X0079110Y0084149D01*
X0079110Y0086054D01*
X0080457Y0087402D01*
X0082363Y0087402D01*
X0083710Y0086054D01*
X0083710Y0084149D01*
X0082363Y0082802D01*
X0080457Y0082802D01*
X0079515Y0083744D02*
X0049935Y0083744D01*
X0049935Y0084542D02*
X0079110Y0084542D01*
X0079110Y0085341D02*
X0049935Y0085341D01*
X0049935Y0086139D02*
X0079195Y0086139D01*
X0079993Y0086938D02*
X0049935Y0086938D01*
X0051915Y0091729D02*
X0074784Y0091729D01*
X0074832Y0092802D02*
X0076738Y0092802D01*
X0078085Y0094149D01*
X0078085Y0096054D01*
X0076738Y0097402D01*
X0074832Y0097402D01*
X0073485Y0096054D01*
X0073485Y0094149D01*
X0074832Y0092802D01*
X0074308Y0093326D02*
X0053085Y0093326D01*
X0053085Y0094124D02*
X0073510Y0094124D01*
X0073485Y0094923D02*
X0052967Y0094923D01*
X0052168Y0095721D02*
X0073485Y0095721D01*
X0073951Y0096520D02*
X0049935Y0096520D01*
X0049935Y0097318D02*
X0074749Y0097318D01*
X0076821Y0097318D02*
X0202235Y0097318D01*
X0202235Y0096649D02*
X0203582Y0095302D01*
X0205488Y0095302D01*
X0206835Y0096649D01*
X0206835Y0098554D01*
X0205488Y0099902D01*
X0203582Y0099902D01*
X0202235Y0098554D01*
X0202235Y0096649D01*
X0202364Y0096520D02*
X0148245Y0096520D01*
X0147988Y0096777D02*
X0146082Y0096777D01*
X0144735Y0095429D01*
X0144735Y0093524D01*
X0146082Y0092177D01*
X0147988Y0092177D01*
X0149335Y0093524D01*
X0149335Y0095429D01*
X0147988Y0096777D01*
X0149043Y0095721D02*
X0203163Y0095721D01*
X0202235Y0098117D02*
X0049935Y0098117D01*
X0049935Y0098915D02*
X0121994Y0098915D01*
X0122509Y0098702D02*
X0124061Y0098702D01*
X0125494Y0099295D01*
X0126591Y0100392D01*
X0127185Y0101826D01*
X0127185Y0103377D01*
X0126591Y0104811D01*
X0125494Y0105908D01*
X0124061Y0106502D01*
X0122509Y0106502D01*
X0121076Y0105908D01*
X0119979Y0104811D01*
X0119385Y0103377D01*
X0119385Y0101826D01*
X0119979Y0100392D01*
X0121076Y0099295D01*
X0122509Y0098702D01*
X0124577Y0098915D02*
X0131994Y0098915D01*
X0132509Y0098702D02*
X0134061Y0098702D01*
X0135494Y0099295D01*
X0136591Y0100392D01*
X0137185Y0101826D01*
X0137185Y0103377D01*
X0136591Y0104811D01*
X0135494Y0105908D01*
X0134061Y0106502D01*
X0132509Y0106502D01*
X0131076Y0105908D01*
X0129979Y0104811D01*
X0129385Y0103377D01*
X0129385Y0101826D01*
X0129979Y0100392D01*
X0131076Y0099295D01*
X0132509Y0098702D01*
X0134577Y0098915D02*
X0157469Y0098915D01*
X0157957Y0098427D02*
X0159863Y0098427D01*
X0161210Y0099774D01*
X0161210Y0101679D01*
X0159863Y0103027D01*
X0157957Y0103027D01*
X0156610Y0101679D01*
X0156610Y0099774D01*
X0157957Y0098427D01*
X0156670Y0099714D02*
X0135913Y0099714D01*
X0136641Y0100512D02*
X0156610Y0100512D01*
X0156610Y0101311D02*
X0136972Y0101311D01*
X0137185Y0102109D02*
X0157040Y0102109D01*
X0157839Y0102908D02*
X0137185Y0102908D01*
X0137049Y0103706D02*
X0223800Y0103706D01*
X0223800Y0102908D02*
X0159982Y0102908D01*
X0160780Y0102109D02*
X0223800Y0102109D01*
X0223800Y0101311D02*
X0161210Y0101311D01*
X0161210Y0100512D02*
X0223800Y0100512D01*
X0223800Y0099714D02*
X0205676Y0099714D01*
X0206474Y0098915D02*
X0223800Y0098915D01*
X0223800Y0098117D02*
X0206835Y0098117D01*
X0206835Y0097318D02*
X0223800Y0097318D01*
X0223800Y0096520D02*
X0206706Y0096520D01*
X0205907Y0095721D02*
X0223800Y0095721D01*
X0223800Y0094923D02*
X0149335Y0094923D01*
X0149335Y0094124D02*
X0223800Y0094124D01*
X0223800Y0093326D02*
X0164564Y0093326D01*
X0165362Y0092527D02*
X0223800Y0092527D01*
X0223800Y0091729D02*
X0196786Y0091729D01*
X0196113Y0092402D02*
X0194207Y0092402D01*
X0192860Y0091054D01*
X0192860Y0089149D01*
X0194207Y0087802D01*
X0196113Y0087802D01*
X0197460Y0089149D01*
X0197460Y0091054D01*
X0196113Y0092402D01*
X0197460Y0090930D02*
X0208986Y0090930D01*
X0209207Y0091152D02*
X0207860Y0089804D01*
X0207860Y0087899D01*
X0209095Y0086664D01*
X0207860Y0085429D01*
X0207860Y0083524D01*
X0209207Y0082177D01*
X0211113Y0082177D01*
X0212460Y0083524D01*
X0212460Y0085429D01*
X0211225Y0086664D01*
X0212460Y0087899D01*
X0212460Y0089804D01*
X0211113Y0091152D01*
X0209207Y0091152D01*
X0208187Y0090132D02*
X0197460Y0090132D01*
X0197460Y0089333D02*
X0207860Y0089333D01*
X0207860Y0088535D02*
X0196846Y0088535D01*
X0193474Y0088535D02*
X0163710Y0088535D01*
X0163710Y0087736D02*
X0208023Y0087736D01*
X0208821Y0086938D02*
X0164702Y0086938D01*
X0165500Y0086139D02*
X0168570Y0086139D01*
X0168582Y0086152D02*
X0167235Y0084804D01*
X0167235Y0082899D01*
X0168582Y0081552D01*
X0170488Y0081552D01*
X0171835Y0082899D01*
X0171835Y0084804D01*
X0170488Y0086152D01*
X0168582Y0086152D01*
X0167771Y0085341D02*
X0165585Y0085341D01*
X0165585Y0084542D02*
X0167235Y0084542D01*
X0167235Y0083744D02*
X0165180Y0083744D01*
X0164381Y0082945D02*
X0167235Y0082945D01*
X0167988Y0082147D02*
X0163710Y0082147D01*
X0163710Y0081348D02*
X0223800Y0081348D01*
X0223800Y0080550D02*
X0163236Y0080550D01*
X0162513Y0079751D02*
X0165932Y0079751D01*
X0165360Y0079179D02*
X0166707Y0080527D01*
X0168613Y0080527D01*
X0169535Y0079604D01*
X0170457Y0080527D01*
X0172363Y0080527D01*
X0173710Y0079179D01*
X0173710Y0077274D01*
X0172363Y0075927D01*
X0170457Y0075927D01*
X0169535Y0076849D01*
X0168613Y0075927D01*
X0166707Y0075927D01*
X0165360Y0077274D01*
X0165360Y0079179D01*
X0165360Y0078953D02*
X0163312Y0078953D01*
X0163710Y0078154D02*
X0165360Y0078154D01*
X0165360Y0077356D02*
X0163710Y0077356D01*
X0163618Y0076557D02*
X0166077Y0076557D01*
X0169243Y0076557D02*
X0169827Y0076557D01*
X0172993Y0076557D02*
X0223800Y0076557D01*
X0223800Y0077356D02*
X0173710Y0077356D01*
X0173710Y0078154D02*
X0223800Y0078154D01*
X0223800Y0078953D02*
X0173710Y0078953D01*
X0173138Y0079751D02*
X0223800Y0079751D01*
X0223800Y0082147D02*
X0171083Y0082147D01*
X0171835Y0082945D02*
X0208439Y0082945D01*
X0207860Y0083744D02*
X0171835Y0083744D01*
X0171835Y0084542D02*
X0207860Y0084542D01*
X0207860Y0085341D02*
X0171299Y0085341D01*
X0170500Y0086139D02*
X0208570Y0086139D01*
X0211499Y0086938D02*
X0223800Y0086938D01*
X0223800Y0087736D02*
X0212297Y0087736D01*
X0212460Y0088535D02*
X0223800Y0088535D01*
X0223800Y0089333D02*
X0212460Y0089333D01*
X0212133Y0090132D02*
X0223800Y0090132D01*
X0223800Y0090930D02*
X0211334Y0090930D01*
X0211750Y0086139D02*
X0223800Y0086139D01*
X0223800Y0085341D02*
X0212460Y0085341D01*
X0212460Y0084542D02*
X0223800Y0084542D01*
X0223800Y0083744D02*
X0212460Y0083744D01*
X0211881Y0082945D02*
X0223800Y0082945D01*
X0223800Y0075758D02*
X0162820Y0075758D01*
X0160001Y0075758D02*
X0115585Y0075758D01*
X0115585Y0076557D02*
X0159202Y0076557D01*
X0159110Y0077356D02*
X0115534Y0077356D01*
X0115585Y0078154D02*
X0159110Y0078154D01*
X0159508Y0078953D02*
X0115585Y0078953D01*
X0115585Y0079751D02*
X0160307Y0079751D01*
X0159585Y0080550D02*
X0148236Y0080550D01*
X0149034Y0081348D02*
X0159110Y0081348D01*
X0159110Y0082147D02*
X0149335Y0082147D01*
X0149335Y0082945D02*
X0159126Y0082945D01*
X0159924Y0083744D02*
X0149146Y0083744D01*
X0148347Y0084542D02*
X0160985Y0084542D01*
X0159110Y0088535D02*
X0078085Y0088535D01*
X0078085Y0089333D02*
X0121038Y0089333D01*
X0121076Y0089295D02*
X0122509Y0088702D01*
X0124061Y0088702D01*
X0125494Y0089295D01*
X0126591Y0090392D01*
X0127185Y0091826D01*
X0127185Y0093377D01*
X0126591Y0094811D01*
X0125494Y0095908D01*
X0124061Y0096502D01*
X0122509Y0096502D01*
X0121076Y0095908D01*
X0119979Y0094811D01*
X0119385Y0093377D01*
X0119385Y0091826D01*
X0119979Y0090392D01*
X0121076Y0089295D01*
X0120240Y0090132D02*
X0078085Y0090132D01*
X0077584Y0090930D02*
X0119756Y0090930D01*
X0119425Y0091729D02*
X0076786Y0091729D01*
X0077262Y0093326D02*
X0119385Y0093326D01*
X0119385Y0092527D02*
X0052713Y0092527D01*
X0049935Y0099714D02*
X0071670Y0099714D01*
X0071707Y0099677D02*
X0073613Y0099677D01*
X0074960Y0101024D01*
X0074960Y0102929D01*
X0073613Y0104277D01*
X0071707Y0104277D01*
X0070360Y0102929D01*
X0070360Y0101024D01*
X0071707Y0099677D01*
X0070872Y0100512D02*
X0049935Y0100512D01*
X0049935Y0101311D02*
X0070360Y0101311D01*
X0070360Y0102109D02*
X0049935Y0102109D01*
X0049935Y0102908D02*
X0070360Y0102908D01*
X0071137Y0103706D02*
X0049935Y0103706D01*
X0049935Y0104505D02*
X0119852Y0104505D01*
X0119521Y0103706D02*
X0074183Y0103706D01*
X0074960Y0102908D02*
X0119385Y0102908D01*
X0119385Y0102109D02*
X0074960Y0102109D01*
X0074960Y0101311D02*
X0119598Y0101311D01*
X0119929Y0100512D02*
X0074448Y0100512D01*
X0073650Y0099714D02*
X0120658Y0099714D01*
X0120889Y0095721D02*
X0078085Y0095721D01*
X0078085Y0094923D02*
X0120091Y0094923D01*
X0119694Y0094124D02*
X0078060Y0094124D01*
X0077620Y0096520D02*
X0145826Y0096520D01*
X0145027Y0095721D02*
X0125681Y0095721D01*
X0126479Y0094923D02*
X0144735Y0094923D01*
X0144735Y0094124D02*
X0126876Y0094124D01*
X0127185Y0093326D02*
X0144933Y0093326D01*
X0145732Y0092527D02*
X0127185Y0092527D01*
X0127145Y0091729D02*
X0160985Y0091729D01*
X0160985Y0090930D02*
X0126814Y0090930D01*
X0126331Y0090132D02*
X0160062Y0090132D01*
X0159264Y0089333D02*
X0125532Y0089333D01*
X0125913Y0099714D02*
X0130658Y0099714D01*
X0129929Y0100512D02*
X0126641Y0100512D01*
X0126972Y0101311D02*
X0129598Y0101311D01*
X0129385Y0102109D02*
X0127185Y0102109D01*
X0127185Y0102908D02*
X0129385Y0102908D01*
X0129521Y0103706D02*
X0127049Y0103706D01*
X0126718Y0104505D02*
X0129852Y0104505D01*
X0130471Y0105303D02*
X0126099Y0105303D01*
X0125026Y0106102D02*
X0131544Y0106102D01*
X0132509Y0108702D02*
X0131076Y0109295D01*
X0129979Y0110392D01*
X0129385Y0111826D01*
X0129385Y0113377D01*
X0129979Y0114811D01*
X0131076Y0115908D01*
X0132509Y0116502D01*
X0134061Y0116502D01*
X0135494Y0115908D01*
X0136591Y0114811D01*
X0137185Y0113377D01*
X0137185Y0111826D01*
X0136591Y0110392D01*
X0135494Y0109295D01*
X0134061Y0108702D01*
X0132509Y0108702D01*
X0131075Y0109296D02*
X0125495Y0109296D01*
X0125494Y0109295D02*
X0126591Y0110392D01*
X0127185Y0111826D01*
X0127185Y0113377D01*
X0126591Y0114811D01*
X0125494Y0115908D01*
X0124061Y0116502D01*
X0122509Y0116502D01*
X0121076Y0115908D01*
X0119979Y0114811D01*
X0119385Y0113377D01*
X0119385Y0111826D01*
X0119524Y0111490D01*
X0118613Y0112402D01*
X0116707Y0112402D01*
X0115360Y0111054D01*
X0115360Y0109149D01*
X0116707Y0107802D01*
X0118613Y0107802D01*
X0119960Y0109149D01*
X0119960Y0110438D01*
X0119979Y0110392D01*
X0121076Y0109295D01*
X0122509Y0108702D01*
X0124061Y0108702D01*
X0125494Y0109295D01*
X0126293Y0110094D02*
X0130277Y0110094D01*
X0129772Y0110893D02*
X0126799Y0110893D01*
X0127129Y0111691D02*
X0129441Y0111691D01*
X0129385Y0112490D02*
X0127185Y0112490D01*
X0127185Y0113289D02*
X0129385Y0113289D01*
X0129679Y0114087D02*
X0126891Y0114087D01*
X0126517Y0114886D02*
X0130054Y0114886D01*
X0130852Y0115684D02*
X0125718Y0115684D01*
X0124107Y0116483D02*
X0132463Y0116483D01*
X0134107Y0116483D02*
X0145210Y0116483D01*
X0145210Y0117281D02*
X0103085Y0117281D01*
X0103085Y0117929D02*
X0101738Y0119277D01*
X0099832Y0119277D01*
X0098485Y0117929D01*
X0098485Y0116024D01*
X0098982Y0115527D01*
X0098582Y0115527D01*
X0097235Y0114179D01*
X0097235Y0112274D01*
X0097732Y0111777D01*
X0097332Y0111777D01*
X0095985Y0110429D01*
X0095985Y0108524D01*
X0097332Y0107177D01*
X0099238Y0107177D01*
X0100585Y0108524D01*
X0100585Y0110429D01*
X0100088Y0110927D01*
X0100488Y0110927D01*
X0101835Y0112274D01*
X0101835Y0114179D01*
X0101338Y0114677D01*
X0101738Y0114677D01*
X0103085Y0116024D01*
X0103085Y0117929D01*
X0102935Y0118080D02*
X0145210Y0118080D01*
X0145210Y0118878D02*
X0134487Y0118878D01*
X0134061Y0118702D02*
X0135494Y0119295D01*
X0136591Y0120392D01*
X0137185Y0121826D01*
X0137185Y0123377D01*
X0136591Y0124811D01*
X0135494Y0125908D01*
X0134061Y0126502D01*
X0132509Y0126502D01*
X0131076Y0125908D01*
X0129979Y0124811D01*
X0129385Y0123377D01*
X0129385Y0121826D01*
X0129979Y0120392D01*
X0131076Y0119295D01*
X0132509Y0118702D01*
X0134061Y0118702D01*
X0132083Y0118878D02*
X0124487Y0118878D01*
X0124061Y0118702D02*
X0125494Y0119295D01*
X0126591Y0120392D01*
X0127185Y0121826D01*
X0127185Y0123377D01*
X0126591Y0124811D01*
X0125494Y0125908D01*
X0124061Y0126502D01*
X0122509Y0126502D01*
X0121076Y0125908D01*
X0119979Y0124811D01*
X0119385Y0123377D01*
X0119385Y0121826D01*
X0119979Y0120392D01*
X0121076Y0119295D01*
X0122509Y0118702D01*
X0124061Y0118702D01*
X0122083Y0118878D02*
X0102136Y0118878D01*
X0103085Y0116483D02*
X0122463Y0116483D01*
X0120852Y0115684D02*
X0102745Y0115684D01*
X0101947Y0114886D02*
X0120054Y0114886D01*
X0119679Y0114087D02*
X0101835Y0114087D01*
X0101835Y0113289D02*
X0119385Y0113289D01*
X0119385Y0112490D02*
X0101835Y0112490D01*
X0101253Y0111691D02*
X0115997Y0111691D01*
X0115360Y0110893D02*
X0100121Y0110893D01*
X0100585Y0110094D02*
X0115360Y0110094D01*
X0115360Y0109296D02*
X0100585Y0109296D01*
X0100559Y0108497D02*
X0116012Y0108497D01*
X0119309Y0108497D02*
X0144110Y0108497D01*
X0144110Y0108554D02*
X0144110Y0106649D01*
X0145457Y0105302D01*
X0147363Y0105302D01*
X0148710Y0106649D01*
X0148710Y0108554D01*
X0147610Y0109654D01*
X0147610Y0129399D01*
X0148582Y0128427D01*
X0150488Y0128427D01*
X0151835Y0129774D01*
X0151835Y0131679D01*
X0150488Y0133027D01*
X0148582Y0133027D01*
X0147610Y0132054D01*
X0147610Y0136552D01*
X0148613Y0136552D01*
X0149960Y0137899D01*
X0149960Y0139804D01*
X0148613Y0141152D01*
X0146707Y0141152D01*
X0145785Y0140229D01*
X0144863Y0141152D01*
X0142957Y0141152D01*
X0141610Y0139804D01*
X0141610Y0137899D01*
X0142957Y0136552D01*
X0144863Y0136552D01*
X0145210Y0136899D01*
X0145210Y0109654D01*
X0144110Y0108554D01*
X0144110Y0107699D02*
X0099760Y0107699D01*
X0096810Y0107699D02*
X0049935Y0107699D01*
X0049935Y0108497D02*
X0096012Y0108497D01*
X0095985Y0109296D02*
X0049935Y0109296D01*
X0049935Y0110094D02*
X0095985Y0110094D01*
X0096449Y0110893D02*
X0049935Y0110893D01*
X0049935Y0111691D02*
X0097247Y0111691D01*
X0097235Y0112490D02*
X0049935Y0112490D01*
X0049935Y0113289D02*
X0093096Y0113289D01*
X0093582Y0112802D02*
X0095488Y0112802D01*
X0096835Y0114149D01*
X0096835Y0116054D01*
X0095488Y0117402D01*
X0093582Y0117402D01*
X0092235Y0116054D01*
X0092235Y0114149D01*
X0093582Y0112802D01*
X0092297Y0114087D02*
X0049935Y0114087D01*
X0049935Y0114886D02*
X0092235Y0114886D01*
X0092235Y0115684D02*
X0049935Y0115684D01*
X0049935Y0116483D02*
X0092663Y0116483D01*
X0093462Y0117281D02*
X0049935Y0117281D01*
X0049935Y0118080D02*
X0098635Y0118080D01*
X0098485Y0117281D02*
X0095608Y0117281D01*
X0096407Y0116483D02*
X0098485Y0116483D01*
X0098825Y0115684D02*
X0096835Y0115684D01*
X0096835Y0114886D02*
X0097941Y0114886D01*
X0097235Y0114087D02*
X0096773Y0114087D01*
X0097235Y0113289D02*
X0095975Y0113289D01*
X0099434Y0118878D02*
X0049935Y0118878D01*
X0049935Y0119677D02*
X0053582Y0119677D01*
X0054207Y0119052D02*
X0052860Y0120399D01*
X0052860Y0122304D01*
X0054207Y0123652D01*
X0056113Y0123652D01*
X0057460Y0122304D01*
X0057460Y0120399D01*
X0056113Y0119052D01*
X0054207Y0119052D01*
X0052860Y0120475D02*
X0049935Y0120475D01*
X0049935Y0121274D02*
X0052860Y0121274D01*
X0052860Y0122072D02*
X0049935Y0122072D01*
X0049935Y0122871D02*
X0053426Y0122871D01*
X0049935Y0123669D02*
X0074225Y0123669D01*
X0074110Y0123554D02*
X0074110Y0121649D01*
X0075457Y0120302D01*
X0077363Y0120302D01*
X0078710Y0121649D01*
X0078710Y0123554D01*
X0077363Y0124902D01*
X0075457Y0124902D01*
X0074110Y0123554D01*
X0074110Y0122871D02*
X0056894Y0122871D01*
X0057460Y0122072D02*
X0074110Y0122072D01*
X0074485Y0121274D02*
X0057460Y0121274D01*
X0057460Y0120475D02*
X0075284Y0120475D01*
X0077536Y0120475D02*
X0084735Y0120475D01*
X0084735Y0120399D02*
X0086082Y0119052D01*
X0087988Y0119052D01*
X0089335Y0120399D01*
X0089335Y0122304D01*
X0087988Y0123652D01*
X0086835Y0123652D01*
X0086835Y0124804D01*
X0085488Y0126152D01*
X0083710Y0126152D01*
X0083710Y0126679D01*
X0082363Y0128027D01*
X0080457Y0128027D01*
X0079110Y0126679D01*
X0079110Y0124774D01*
X0080457Y0123427D01*
X0082235Y0123427D01*
X0082235Y0122899D01*
X0083582Y0121552D01*
X0084735Y0121552D01*
X0084735Y0120399D01*
X0084735Y0121274D02*
X0078335Y0121274D01*
X0078710Y0122072D02*
X0083062Y0122072D01*
X0082263Y0122871D02*
X0078710Y0122871D01*
X0078595Y0123669D02*
X0080215Y0123669D01*
X0079416Y0124468D02*
X0077797Y0124468D01*
X0079110Y0125266D02*
X0049935Y0125266D01*
X0049935Y0124468D02*
X0075023Y0124468D01*
X0079110Y0126065D02*
X0049935Y0126065D01*
X0049935Y0126863D02*
X0079294Y0126863D01*
X0080093Y0127662D02*
X0049935Y0127662D01*
X0049935Y0128460D02*
X0067299Y0128460D01*
X0067957Y0127802D02*
X0069863Y0127802D01*
X0071210Y0129149D01*
X0071210Y0130302D01*
X0072363Y0130302D01*
X0073710Y0131649D01*
X0073710Y0133554D01*
X0072363Y0134902D01*
X0070457Y0134902D01*
X0069110Y0133554D01*
X0069110Y0132402D01*
X0067957Y0132402D01*
X0066610Y0131054D01*
X0066610Y0129149D01*
X0067957Y0127802D01*
X0066610Y0129259D02*
X0049935Y0129259D01*
X0049935Y0130057D02*
X0066610Y0130057D01*
X0066610Y0130856D02*
X0049935Y0130856D01*
X0049935Y0131654D02*
X0067210Y0131654D01*
X0069110Y0132453D02*
X0049935Y0132453D01*
X0049935Y0133251D02*
X0069110Y0133251D01*
X0069606Y0134050D02*
X0049935Y0134050D01*
X0049935Y0134848D02*
X0067161Y0134848D01*
X0067332Y0134677D02*
X0069238Y0134677D01*
X0070585Y0136024D01*
X0070585Y0137929D01*
X0069350Y0139164D01*
X0069960Y0139774D01*
X0069960Y0141679D01*
X0068613Y0143027D01*
X0066707Y0143027D01*
X0065360Y0141679D01*
X0065360Y0139774D01*
X0066595Y0138539D01*
X0065985Y0137929D01*
X0065985Y0136024D01*
X0067332Y0134677D01*
X0066362Y0135647D02*
X0049935Y0135647D01*
X0049935Y0136445D02*
X0065985Y0136445D01*
X0065985Y0137244D02*
X0049935Y0137244D01*
X0049935Y0138042D02*
X0066098Y0138042D01*
X0066293Y0138841D02*
X0049935Y0138841D01*
X0049935Y0139639D02*
X0065495Y0139639D01*
X0065360Y0140438D02*
X0049935Y0140438D01*
X0049935Y0141236D02*
X0065360Y0141236D01*
X0065716Y0142035D02*
X0049935Y0142035D01*
X0049935Y0142833D02*
X0066514Y0142833D01*
X0068806Y0142833D02*
X0112235Y0142833D01*
X0112235Y0143554D02*
X0112235Y0141649D01*
X0113582Y0140302D01*
X0115488Y0140302D01*
X0116835Y0141649D01*
X0116835Y0143554D01*
X0115488Y0144902D01*
X0113582Y0144902D01*
X0112235Y0143554D01*
X0112313Y0143632D02*
X0049935Y0143632D01*
X0049935Y0144430D02*
X0113111Y0144430D01*
X0112235Y0142035D02*
X0092730Y0142035D01*
X0092363Y0142402D02*
X0093710Y0141054D01*
X0093710Y0139149D01*
X0092363Y0137802D01*
X0090457Y0137802D01*
X0089110Y0139149D01*
X0089110Y0141054D01*
X0090457Y0142402D01*
X0092363Y0142402D01*
X0093528Y0141236D02*
X0112648Y0141236D01*
X0113446Y0140438D02*
X0093710Y0140438D01*
X0093710Y0139639D02*
X0141610Y0139639D01*
X0141610Y0138841D02*
X0093402Y0138841D01*
X0092604Y0138042D02*
X0141610Y0138042D01*
X0142265Y0137244D02*
X0077521Y0137244D01*
X0077363Y0137402D02*
X0075457Y0137402D01*
X0074110Y0136054D01*
X0074110Y0134149D01*
X0075457Y0132802D01*
X0076610Y0132802D01*
X0076610Y0131649D01*
X0077957Y0130302D01*
X0079863Y0130302D01*
X0081210Y0131649D01*
X0081210Y0133554D01*
X0079863Y0134902D01*
X0078710Y0134902D01*
X0078710Y0136054D01*
X0077363Y0137402D01*
X0078319Y0136445D02*
X0122373Y0136445D01*
X0122509Y0136502D02*
X0121076Y0135908D01*
X0119979Y0134811D01*
X0119385Y0133377D01*
X0119385Y0131826D01*
X0119979Y0130392D01*
X0121076Y0129295D01*
X0122509Y0128702D01*
X0124061Y0128702D01*
X0125494Y0129295D01*
X0126591Y0130392D01*
X0127185Y0131826D01*
X0127185Y0133377D01*
X0126591Y0134811D01*
X0125494Y0135908D01*
X0124061Y0136502D01*
X0122509Y0136502D01*
X0124197Y0136445D02*
X0132373Y0136445D01*
X0132509Y0136502D02*
X0131076Y0135908D01*
X0129979Y0134811D01*
X0129385Y0133377D01*
X0129385Y0131826D01*
X0129979Y0130392D01*
X0131076Y0129295D01*
X0132509Y0128702D01*
X0134061Y0128702D01*
X0135494Y0129295D01*
X0136591Y0130392D01*
X0137185Y0131826D01*
X0137185Y0133377D01*
X0136591Y0134811D01*
X0135494Y0135908D01*
X0134061Y0136502D01*
X0132509Y0136502D01*
X0134197Y0136445D02*
X0145210Y0136445D01*
X0145210Y0135647D02*
X0135755Y0135647D01*
X0136554Y0134848D02*
X0145210Y0134848D01*
X0145210Y0134050D02*
X0136907Y0134050D01*
X0137185Y0133251D02*
X0145210Y0133251D01*
X0145210Y0132453D02*
X0137185Y0132453D01*
X0137114Y0131654D02*
X0145210Y0131654D01*
X0145210Y0130856D02*
X0136783Y0130856D01*
X0136256Y0130057D02*
X0145210Y0130057D01*
X0145210Y0129259D02*
X0135406Y0129259D01*
X0135116Y0126065D02*
X0145210Y0126065D01*
X0145210Y0126863D02*
X0093710Y0126863D01*
X0093710Y0126649D02*
X0093100Y0126039D01*
X0093710Y0125429D01*
X0093710Y0123524D01*
X0092363Y0122177D01*
X0090457Y0122177D01*
X0089110Y0123524D01*
X0089110Y0125429D01*
X0089720Y0126039D01*
X0089110Y0126649D01*
X0089110Y0128554D01*
X0090457Y0129902D01*
X0092363Y0129902D01*
X0093710Y0128554D01*
X0093710Y0126649D01*
X0093126Y0126065D02*
X0121454Y0126065D01*
X0120434Y0125266D02*
X0093710Y0125266D01*
X0093710Y0124468D02*
X0119837Y0124468D01*
X0119506Y0123669D02*
X0093710Y0123669D01*
X0093057Y0122871D02*
X0119385Y0122871D01*
X0119385Y0122072D02*
X0089335Y0122072D01*
X0089335Y0121274D02*
X0119614Y0121274D01*
X0119945Y0120475D02*
X0089335Y0120475D01*
X0088613Y0119677D02*
X0120695Y0119677D01*
X0125876Y0119677D02*
X0130695Y0119677D01*
X0129945Y0120475D02*
X0126626Y0120475D01*
X0126956Y0121274D02*
X0129614Y0121274D01*
X0129385Y0122072D02*
X0127185Y0122072D01*
X0127185Y0122871D02*
X0129385Y0122871D01*
X0129506Y0123669D02*
X0127064Y0123669D01*
X0126734Y0124468D02*
X0129837Y0124468D01*
X0130434Y0125266D02*
X0126136Y0125266D01*
X0125116Y0126065D02*
X0131454Y0126065D01*
X0131164Y0129259D02*
X0125406Y0129259D01*
X0126256Y0130057D02*
X0130314Y0130057D01*
X0129787Y0130856D02*
X0126783Y0130856D01*
X0127114Y0131654D02*
X0129456Y0131654D01*
X0129385Y0132453D02*
X0127185Y0132453D01*
X0127185Y0133251D02*
X0129385Y0133251D01*
X0129664Y0134050D02*
X0126907Y0134050D01*
X0126554Y0134848D02*
X0130016Y0134848D01*
X0130815Y0135647D02*
X0125755Y0135647D01*
X0125457Y0140302D02*
X0127363Y0140302D01*
X0128710Y0141649D01*
X0128710Y0143554D01*
X0127363Y0144902D01*
X0125457Y0144902D01*
X0124110Y0143554D01*
X0124110Y0141649D01*
X0125457Y0140302D01*
X0125321Y0140438D02*
X0115624Y0140438D01*
X0116423Y0141236D02*
X0124523Y0141236D01*
X0124110Y0142035D02*
X0116835Y0142035D01*
X0116835Y0142833D02*
X0124110Y0142833D01*
X0124188Y0143632D02*
X0116758Y0143632D01*
X0115959Y0144430D02*
X0124986Y0144430D01*
X0127834Y0144430D02*
X0137235Y0144430D01*
X0137235Y0143632D02*
X0128633Y0143632D01*
X0128710Y0142833D02*
X0137926Y0142833D01*
X0138582Y0142177D02*
X0140488Y0142177D01*
X0141835Y0143524D01*
X0141835Y0145429D01*
X0140488Y0146777D01*
X0138582Y0146777D01*
X0137235Y0145429D01*
X0137235Y0143524D01*
X0138582Y0142177D01*
X0141145Y0142833D02*
X0152139Y0142833D01*
X0151610Y0142304D02*
X0151610Y0140399D01*
X0152107Y0139902D01*
X0151707Y0139902D01*
X0150360Y0138554D01*
X0150360Y0136649D01*
X0151707Y0135302D01*
X0153613Y0135302D01*
X0154960Y0136649D01*
X0154960Y0138554D01*
X0154463Y0139052D01*
X0154863Y0139052D01*
X0156210Y0140399D01*
X0156210Y0142304D01*
X0154863Y0143652D01*
X0152957Y0143652D01*
X0151610Y0142304D01*
X0151610Y0142035D02*
X0128710Y0142035D01*
X0128298Y0141236D02*
X0151610Y0141236D01*
X0151610Y0140438D02*
X0149327Y0140438D01*
X0149960Y0139639D02*
X0151445Y0139639D01*
X0150647Y0138841D02*
X0149960Y0138841D01*
X0149960Y0138042D02*
X0150360Y0138042D01*
X0150360Y0137244D02*
X0149305Y0137244D01*
X0150564Y0136445D02*
X0147610Y0136445D01*
X0147610Y0135647D02*
X0151362Y0135647D01*
X0153958Y0135647D02*
X0177085Y0135647D01*
X0177085Y0136445D02*
X0166631Y0136445D01*
X0166113Y0135927D02*
X0167460Y0137274D01*
X0167460Y0139179D01*
X0166113Y0140527D01*
X0164335Y0140527D01*
X0164335Y0142304D01*
X0162988Y0143652D01*
X0161082Y0143652D01*
X0159735Y0142304D01*
X0159735Y0140399D01*
X0161082Y0139052D01*
X0162860Y0139052D01*
X0162860Y0137274D01*
X0164207Y0135927D01*
X0166113Y0135927D01*
X0167430Y0137244D02*
X0177085Y0137244D01*
X0177085Y0138042D02*
X0167460Y0138042D01*
X0167460Y0138841D02*
X0177085Y0138841D01*
X0177085Y0139639D02*
X0167000Y0139639D01*
X0166202Y0140438D02*
X0177085Y0140438D01*
X0177085Y0141236D02*
X0164335Y0141236D01*
X0164335Y0142035D02*
X0177085Y0142035D01*
X0177085Y0142833D02*
X0163806Y0142833D01*
X0163008Y0143632D02*
X0164627Y0143632D01*
X0164832Y0143427D02*
X0166738Y0143427D01*
X0168085Y0144774D01*
X0168085Y0146679D01*
X0166738Y0148027D01*
X0164832Y0148027D01*
X0163485Y0146679D01*
X0163485Y0144774D01*
X0164832Y0143427D01*
X0163829Y0144430D02*
X0158992Y0144430D01*
X0159335Y0144774D02*
X0159335Y0146679D01*
X0157988Y0148027D01*
X0157588Y0148027D01*
X0158710Y0149149D01*
X0158710Y0151054D01*
X0157363Y0152402D01*
X0155457Y0152402D01*
X0154110Y0151054D01*
X0154110Y0149149D01*
X0155457Y0147802D01*
X0155857Y0147802D01*
X0154735Y0146679D01*
X0154735Y0144774D01*
X0156082Y0143427D01*
X0157988Y0143427D01*
X0159335Y0144774D01*
X0159335Y0145229D02*
X0163485Y0145229D01*
X0163485Y0146027D02*
X0159335Y0146027D01*
X0159188Y0146826D02*
X0163632Y0146826D01*
X0164430Y0147625D02*
X0158390Y0147625D01*
X0157984Y0148423D02*
X0178034Y0148423D01*
X0177236Y0147625D02*
X0167140Y0147625D01*
X0167938Y0146826D02*
X0177085Y0146826D01*
X0177085Y0147474D02*
X0177085Y0121429D01*
X0176738Y0121777D01*
X0174832Y0121777D01*
X0173485Y0120429D01*
X0173485Y0118524D01*
X0174832Y0117177D01*
X0176738Y0117177D01*
X0177085Y0117524D01*
X0177085Y0115502D01*
X0177027Y0115424D01*
X0177085Y0115016D01*
X0177085Y0114605D01*
X0177154Y0114536D01*
X0177167Y0114440D01*
X0177497Y0114193D01*
X0177788Y0113902D01*
X0177885Y0113902D01*
X0178485Y0113452D01*
X0178485Y0112274D01*
X0179832Y0110927D01*
X0181738Y0110927D01*
X0183085Y0112274D01*
X0183085Y0113427D01*
X0184238Y0113427D01*
X0185585Y0114774D01*
X0185585Y0116679D01*
X0184485Y0117779D01*
X0184485Y0119974D01*
X0180735Y0123724D01*
X0180735Y0129399D01*
X0181707Y0128427D01*
X0183613Y0128427D01*
X0184960Y0129774D01*
X0184960Y0131679D01*
X0183613Y0133027D01*
X0181707Y0133027D01*
X0180735Y0132054D01*
X0180735Y0145855D01*
X0183782Y0148902D01*
X0184485Y0149605D01*
X0184485Y0149924D01*
X0185585Y0151024D01*
X0185585Y0152929D01*
X0184238Y0154277D01*
X0183085Y0154277D01*
X0183085Y0156054D01*
X0181738Y0157402D01*
X0179832Y0157402D01*
X0178485Y0156054D01*
X0178485Y0154149D01*
X0179585Y0153049D01*
X0179585Y0149974D01*
X0177085Y0147474D01*
X0177085Y0146027D02*
X0168085Y0146027D01*
X0168085Y0145229D02*
X0177085Y0145229D01*
X0177085Y0144430D02*
X0167742Y0144430D01*
X0166943Y0143632D02*
X0177085Y0143632D01*
X0180735Y0143632D02*
X0189188Y0143632D01*
X0189832Y0144277D02*
X0188485Y0142929D01*
X0188485Y0141024D01*
X0189832Y0139677D01*
X0191738Y0139677D01*
X0193085Y0141024D01*
X0193085Y0142929D01*
X0191738Y0144277D01*
X0189832Y0144277D01*
X0188485Y0142833D02*
X0180735Y0142833D01*
X0180735Y0142035D02*
X0188485Y0142035D01*
X0188485Y0141236D02*
X0180735Y0141236D01*
X0180735Y0140438D02*
X0189071Y0140438D01*
X0192499Y0140438D02*
X0203494Y0140438D01*
X0203582Y0140527D02*
X0202235Y0139179D01*
X0202235Y0137274D01*
X0203582Y0135927D01*
X0205488Y0135927D01*
X0206835Y0137274D01*
X0206835Y0139179D01*
X0205488Y0140527D01*
X0203582Y0140527D01*
X0202695Y0139639D02*
X0180735Y0139639D01*
X0180735Y0138841D02*
X0202235Y0138841D01*
X0202235Y0138042D02*
X0180735Y0138042D01*
X0180735Y0137244D02*
X0202265Y0137244D01*
X0203064Y0136445D02*
X0180735Y0136445D01*
X0180735Y0135647D02*
X0223800Y0135647D01*
X0223800Y0136445D02*
X0206006Y0136445D01*
X0206805Y0137244D02*
X0223800Y0137244D01*
X0223800Y0138042D02*
X0206835Y0138042D01*
X0206835Y0138841D02*
X0223800Y0138841D01*
X0223800Y0139639D02*
X0206375Y0139639D01*
X0205577Y0140438D02*
X0223800Y0140438D01*
X0223800Y0141236D02*
X0193085Y0141236D01*
X0193085Y0142035D02*
X0223800Y0142035D01*
X0223800Y0142833D02*
X0193085Y0142833D01*
X0192383Y0143632D02*
X0223800Y0143632D01*
X0223800Y0144430D02*
X0180735Y0144430D01*
X0180735Y0145229D02*
X0223800Y0145229D01*
X0223800Y0146027D02*
X0180908Y0146027D01*
X0181707Y0146826D02*
X0223800Y0146826D01*
X0223800Y0147625D02*
X0182505Y0147625D01*
X0183304Y0148423D02*
X0223800Y0148423D01*
X0223800Y0149222D02*
X0184102Y0149222D01*
X0184581Y0150020D02*
X0223800Y0150020D01*
X0223800Y0150819D02*
X0185380Y0150819D01*
X0185585Y0151617D02*
X0223800Y0151617D01*
X0223800Y0152416D02*
X0185585Y0152416D01*
X0185300Y0153214D02*
X0223800Y0153214D01*
X0223800Y0154013D02*
X0184502Y0154013D01*
X0183085Y0154811D02*
X0223800Y0154811D01*
X0223800Y0155610D02*
X0183085Y0155610D01*
X0182731Y0156408D02*
X0223800Y0156408D01*
X0223800Y0157207D02*
X0181933Y0157207D01*
X0179637Y0157207D02*
X0103643Y0157207D01*
X0102988Y0156552D02*
X0104335Y0157899D01*
X0104335Y0159804D01*
X0102988Y0161152D01*
X0101082Y0161152D01*
X0100585Y0160654D01*
X0100585Y0161679D01*
X0099238Y0163027D01*
X0097332Y0163027D01*
X0095985Y0161679D01*
X0095985Y0159774D01*
X0097332Y0158427D01*
X0099238Y0158427D01*
X0099735Y0158924D01*
X0099735Y0157899D01*
X0101082Y0156552D01*
X0102988Y0156552D01*
X0104335Y0158005D02*
X0223800Y0158005D01*
X0223800Y0158804D02*
X0104335Y0158804D01*
X0104335Y0159602D02*
X0223800Y0159602D01*
X0223800Y0160401D02*
X0103739Y0160401D01*
X0100585Y0161199D02*
X0223800Y0161199D01*
X0223800Y0161998D02*
X0100267Y0161998D01*
X0099468Y0162796D02*
X0223800Y0162796D01*
X0223800Y0163595D02*
X0091210Y0163595D01*
X0091210Y0163524D02*
X0089863Y0162177D01*
X0087957Y0162177D01*
X0086610Y0163524D01*
X0086610Y0165429D01*
X0087957Y0166777D01*
X0089863Y0166777D01*
X0091210Y0165429D01*
X0091210Y0163524D01*
X0091210Y0164393D02*
X0223800Y0164393D01*
X0223800Y0165192D02*
X0091210Y0165192D01*
X0090649Y0165990D02*
X0223800Y0165990D01*
X0223800Y0166789D02*
X0049935Y0166789D01*
X0049935Y0167587D02*
X0223800Y0167587D01*
X0223800Y0168386D02*
X0049935Y0168386D01*
X0049935Y0169184D02*
X0117200Y0169184D01*
X0116610Y0169774D02*
X0117957Y0168427D01*
X0119863Y0168427D01*
X0121210Y0169774D01*
X0121210Y0171679D01*
X0119863Y0173027D01*
X0117957Y0173027D01*
X0116610Y0171679D01*
X0116610Y0169774D01*
X0116610Y0169983D02*
X0049935Y0169983D01*
X0049935Y0170781D02*
X0116610Y0170781D01*
X0116610Y0171580D02*
X0049935Y0171580D01*
X0049935Y0172378D02*
X0117309Y0172378D01*
X0120511Y0172378D02*
X0160985Y0172378D01*
X0160985Y0172274D02*
X0162332Y0170927D01*
X0164238Y0170927D01*
X0165585Y0172274D01*
X0165585Y0174179D01*
X0164238Y0175527D01*
X0162332Y0175527D01*
X0160985Y0174179D01*
X0160985Y0172274D01*
X0160985Y0173177D02*
X0049935Y0173177D01*
X0049935Y0173975D02*
X0160985Y0173975D01*
X0161580Y0174774D02*
X0059335Y0174774D01*
X0059238Y0174677D02*
X0060585Y0176024D01*
X0060585Y0177929D01*
X0060288Y0178227D01*
X0060585Y0178524D01*
X0060585Y0180429D01*
X0059238Y0181777D01*
X0057332Y0181777D01*
X0055985Y0180429D01*
X0055985Y0178524D01*
X0056282Y0178227D01*
X0055985Y0177929D01*
X0055985Y0176024D01*
X0057332Y0174677D01*
X0059238Y0174677D01*
X0060134Y0175572D02*
X0180985Y0175572D01*
X0180985Y0174774D02*
X0182332Y0173427D01*
X0184238Y0173427D01*
X0185585Y0174774D01*
X0223800Y0174774D01*
X0223800Y0175572D02*
X0185585Y0175572D01*
X0185585Y0174774D02*
X0185585Y0176679D01*
X0184238Y0178027D01*
X0182332Y0178027D01*
X0180985Y0176679D01*
X0180985Y0174774D01*
X0164991Y0174774D01*
X0165585Y0173975D02*
X0181784Y0173975D01*
X0180985Y0176371D02*
X0060585Y0176371D01*
X0060585Y0177169D02*
X0181475Y0177169D01*
X0182274Y0177968D02*
X0060547Y0177968D01*
X0060585Y0178766D02*
X0223800Y0178766D01*
X0223800Y0177968D02*
X0184297Y0177968D01*
X0185095Y0177169D02*
X0223800Y0177169D01*
X0223800Y0176371D02*
X0185585Y0176371D01*
X0184787Y0173975D02*
X0223800Y0173975D01*
X0223800Y0173177D02*
X0165585Y0173177D01*
X0165585Y0172378D02*
X0223800Y0172378D01*
X0223800Y0171580D02*
X0164891Y0171580D01*
X0161679Y0171580D02*
X0121210Y0171580D01*
X0121210Y0170781D02*
X0223800Y0170781D01*
X0223800Y0169983D02*
X0121210Y0169983D01*
X0120620Y0169184D02*
X0223800Y0169184D01*
X0223800Y0179565D02*
X0060585Y0179565D01*
X0060585Y0180363D02*
X0223800Y0180363D01*
X0223800Y0181162D02*
X0059852Y0181162D01*
X0056718Y0181162D02*
X0049935Y0181162D01*
X0049935Y0181960D02*
X0223800Y0181960D01*
X0223800Y0182759D02*
X0049935Y0182759D01*
X0049935Y0183558D02*
X0223800Y0183558D01*
X0223800Y0184356D02*
X0049935Y0184356D01*
X0049935Y0185155D02*
X0106230Y0185155D01*
X0106707Y0184677D02*
X0108613Y0184677D01*
X0109960Y0186024D01*
X0109960Y0187929D01*
X0108613Y0189277D01*
X0106707Y0189277D01*
X0105360Y0187929D01*
X0105360Y0186024D01*
X0106707Y0184677D01*
X0105431Y0185953D02*
X0054264Y0185953D01*
X0053613Y0185302D02*
X0054960Y0186649D01*
X0054960Y0188554D01*
X0053613Y0189902D01*
X0051707Y0189902D01*
X0050360Y0188554D01*
X0050360Y0186649D01*
X0051707Y0185302D01*
X0053613Y0185302D01*
X0054960Y0186752D02*
X0105360Y0186752D01*
X0105360Y0187550D02*
X0054960Y0187550D01*
X0054960Y0188349D02*
X0105779Y0188349D01*
X0106578Y0189147D02*
X0054367Y0189147D01*
X0050953Y0189147D02*
X0049935Y0189147D01*
X0049935Y0188349D02*
X0050360Y0188349D01*
X0050360Y0187550D02*
X0049935Y0187550D01*
X0049935Y0186752D02*
X0050360Y0186752D01*
X0049935Y0185953D02*
X0051056Y0185953D01*
X0049935Y0189946D02*
X0198485Y0189946D01*
X0198485Y0189149D02*
X0198782Y0188852D01*
X0198485Y0188554D01*
X0198485Y0186649D01*
X0199832Y0185302D01*
X0201738Y0185302D01*
X0202035Y0185599D01*
X0202332Y0185302D01*
X0204238Y0185302D01*
X0205585Y0186649D01*
X0205585Y0188554D01*
X0205288Y0188852D01*
X0205585Y0189149D01*
X0205585Y0191054D01*
X0204238Y0192402D01*
X0202332Y0192402D01*
X0202035Y0192104D01*
X0201738Y0192402D01*
X0199832Y0192402D01*
X0198485Y0191054D01*
X0198485Y0189149D01*
X0198487Y0189147D02*
X0108742Y0189147D01*
X0109541Y0188349D02*
X0198485Y0188349D01*
X0198485Y0187550D02*
X0109960Y0187550D01*
X0109960Y0186752D02*
X0198485Y0186752D01*
X0199181Y0185953D02*
X0109889Y0185953D01*
X0109091Y0185155D02*
X0223800Y0185155D01*
X0223800Y0185953D02*
X0213014Y0185953D01*
X0212363Y0185302D02*
X0213710Y0186649D01*
X0213710Y0188554D01*
X0213413Y0188852D01*
X0213710Y0189149D01*
X0213710Y0191054D01*
X0212363Y0192402D01*
X0210457Y0192402D01*
X0210160Y0192104D01*
X0209863Y0192402D01*
X0207957Y0192402D01*
X0206610Y0191054D01*
X0206610Y0189149D01*
X0206907Y0188852D01*
X0206610Y0188554D01*
X0206610Y0186649D01*
X0207957Y0185302D01*
X0209863Y0185302D01*
X0210160Y0185599D01*
X0210457Y0185302D01*
X0212363Y0185302D01*
X0213710Y0186752D02*
X0223800Y0186752D01*
X0223800Y0187550D02*
X0213710Y0187550D01*
X0213710Y0188349D02*
X0223800Y0188349D01*
X0223800Y0189147D02*
X0213708Y0189147D01*
X0213710Y0189946D02*
X0223800Y0189946D01*
X0223800Y0190744D02*
X0213710Y0190744D01*
X0213222Y0191543D02*
X0223800Y0191543D01*
X0223800Y0192341D02*
X0212423Y0192341D01*
X0210397Y0192341D02*
X0209923Y0192341D01*
X0207897Y0192341D02*
X0204298Y0192341D01*
X0205097Y0191543D02*
X0207098Y0191543D01*
X0206610Y0190744D02*
X0205585Y0190744D01*
X0205585Y0189946D02*
X0206610Y0189946D01*
X0206612Y0189147D02*
X0205583Y0189147D01*
X0205585Y0188349D02*
X0206610Y0188349D01*
X0206610Y0187550D02*
X0205585Y0187550D01*
X0205585Y0186752D02*
X0206610Y0186752D01*
X0207306Y0185953D02*
X0204889Y0185953D01*
X0202272Y0192341D02*
X0201798Y0192341D01*
X0199772Y0192341D02*
X0186852Y0192341D01*
X0186796Y0192285D02*
X0188129Y0193618D01*
X0188850Y0195360D01*
X0188850Y0197245D01*
X0188129Y0198987D01*
X0186796Y0200320D01*
X0185054Y0201041D01*
X0183169Y0201041D01*
X0181428Y0200320D01*
X0180095Y0198987D01*
X0179373Y0197245D01*
X0179373Y0195360D01*
X0180095Y0193618D01*
X0181428Y0192285D01*
X0183169Y0191564D01*
X0185054Y0191564D01*
X0186796Y0192285D01*
X0187650Y0193140D02*
X0193244Y0193140D01*
X0193582Y0192802D02*
X0195488Y0192802D01*
X0196738Y0194052D01*
X0197363Y0194052D01*
X0198710Y0195399D01*
X0198710Y0197304D01*
X0197363Y0198652D01*
X0195457Y0198652D01*
X0194207Y0197402D01*
X0193582Y0197402D01*
X0192235Y0196054D01*
X0192235Y0194149D01*
X0193582Y0192802D01*
X0192446Y0193938D02*
X0188262Y0193938D01*
X0188592Y0194737D02*
X0192235Y0194737D01*
X0192235Y0195535D02*
X0188850Y0195535D01*
X0188850Y0196334D02*
X0192514Y0196334D01*
X0193313Y0197132D02*
X0188850Y0197132D01*
X0188566Y0197931D02*
X0194737Y0197931D01*
X0194238Y0199677D02*
X0195585Y0201024D01*
X0195585Y0202929D01*
X0194238Y0204277D01*
X0192332Y0204277D01*
X0191082Y0203027D01*
X0190457Y0203027D01*
X0189110Y0201679D01*
X0189110Y0199774D01*
X0190457Y0198427D01*
X0192363Y0198427D01*
X0193613Y0199677D01*
X0194238Y0199677D01*
X0193464Y0199528D02*
X0223800Y0199528D01*
X0223800Y0200326D02*
X0194887Y0200326D01*
X0195585Y0201125D02*
X0223800Y0201125D01*
X0223800Y0201923D02*
X0195585Y0201923D01*
X0195585Y0202722D02*
X0223800Y0202722D01*
X0223800Y0203520D02*
X0194994Y0203520D01*
X0192665Y0198729D02*
X0223800Y0198729D01*
X0223800Y0197931D02*
X0198084Y0197931D01*
X0198710Y0197132D02*
X0223800Y0197132D01*
X0223800Y0196334D02*
X0198710Y0196334D01*
X0198710Y0195535D02*
X0223800Y0195535D01*
X0223800Y0194737D02*
X0198048Y0194737D01*
X0196624Y0193938D02*
X0223800Y0193938D01*
X0223800Y0193140D02*
X0195826Y0193140D01*
X0198973Y0191543D02*
X0049935Y0191543D01*
X0049935Y0192341D02*
X0086884Y0192341D01*
X0086940Y0192285D02*
X0088681Y0191564D01*
X0090566Y0191564D01*
X0092308Y0192285D01*
X0093641Y0193618D01*
X0094362Y0195360D01*
X0094362Y0197245D01*
X0093641Y0198987D01*
X0092308Y0200320D01*
X0090566Y0201041D01*
X0088681Y0201041D01*
X0086940Y0200320D01*
X0085607Y0198987D01*
X0084885Y0197245D01*
X0084885Y0195360D01*
X0085607Y0193618D01*
X0086940Y0192285D01*
X0086085Y0193140D02*
X0049935Y0193140D01*
X0049935Y0193938D02*
X0085474Y0193938D01*
X0085143Y0194737D02*
X0049935Y0194737D01*
X0049935Y0195535D02*
X0084885Y0195535D01*
X0084885Y0196334D02*
X0049935Y0196334D01*
X0049935Y0197132D02*
X0084885Y0197132D01*
X0085169Y0197931D02*
X0049935Y0197931D01*
X0049935Y0198729D02*
X0085500Y0198729D01*
X0086148Y0199528D02*
X0052839Y0199528D01*
X0053637Y0200326D02*
X0086956Y0200326D01*
X0092292Y0200326D02*
X0098767Y0200326D01*
X0098751Y0200320D02*
X0097418Y0198987D01*
X0096696Y0197245D01*
X0096696Y0195360D01*
X0097418Y0193618D01*
X0098751Y0192285D01*
X0100492Y0191564D01*
X0102377Y0191564D01*
X0104119Y0192285D01*
X0105452Y0193618D01*
X0106173Y0195360D01*
X0106173Y0197245D01*
X0105452Y0198987D01*
X0104119Y0200320D01*
X0102377Y0201041D01*
X0100492Y0201041D01*
X0098751Y0200320D01*
X0097959Y0199528D02*
X0093100Y0199528D01*
X0093748Y0198729D02*
X0097311Y0198729D01*
X0096980Y0197931D02*
X0094078Y0197931D01*
X0094362Y0197132D02*
X0096696Y0197132D01*
X0096696Y0196334D02*
X0094362Y0196334D01*
X0094362Y0195535D02*
X0096696Y0195535D01*
X0096954Y0194737D02*
X0094104Y0194737D01*
X0093773Y0193938D02*
X0097285Y0193938D01*
X0097896Y0193140D02*
X0093162Y0193140D01*
X0092364Y0192341D02*
X0098695Y0192341D01*
X0104175Y0192341D02*
X0110506Y0192341D01*
X0110562Y0192285D02*
X0112303Y0191564D01*
X0114188Y0191564D01*
X0115930Y0192285D01*
X0117263Y0193618D01*
X0117984Y0195360D01*
X0117984Y0197245D01*
X0117263Y0198987D01*
X0115930Y0200320D01*
X0114188Y0201041D01*
X0112303Y0201041D01*
X0110562Y0200320D01*
X0109229Y0198987D01*
X0108507Y0197245D01*
X0108507Y0195360D01*
X0109229Y0193618D01*
X0110562Y0192285D01*
X0109707Y0193140D02*
X0104973Y0193140D01*
X0105584Y0193938D02*
X0109096Y0193938D01*
X0108765Y0194737D02*
X0105915Y0194737D01*
X0106173Y0195535D02*
X0108507Y0195535D01*
X0108507Y0196334D02*
X0106173Y0196334D01*
X0106173Y0197132D02*
X0108507Y0197132D01*
X0108791Y0197931D02*
X0105889Y0197931D01*
X0105559Y0198729D02*
X0109122Y0198729D01*
X0109770Y0199528D02*
X0104911Y0199528D01*
X0104103Y0200326D02*
X0110578Y0200326D01*
X0110024Y0202128D02*
X0108283Y0201406D01*
X0106398Y0201406D01*
X0104656Y0202128D01*
X0103323Y0203461D01*
X0102602Y0205202D01*
X0102602Y0207088D01*
X0103323Y0208829D01*
X0104656Y0210162D01*
X0106398Y0210884D01*
X0108283Y0210884D01*
X0110024Y0210162D01*
X0111357Y0208829D01*
X0112079Y0207088D01*
X0112079Y0205202D01*
X0111357Y0203461D01*
X0110024Y0202128D01*
X0109531Y0201923D02*
X0116961Y0201923D01*
X0116467Y0202128D02*
X0118209Y0201406D01*
X0120094Y0201406D01*
X0121835Y0202128D01*
X0123168Y0203461D01*
X0123890Y0205202D01*
X0123890Y0207088D01*
X0123168Y0208829D01*
X0121835Y0210162D01*
X0120094Y0210884D01*
X0118209Y0210884D01*
X0116467Y0210162D01*
X0115134Y0208829D01*
X0114413Y0207088D01*
X0114413Y0205202D01*
X0115134Y0203461D01*
X0116467Y0202128D01*
X0115873Y0202722D02*
X0110618Y0202722D01*
X0111382Y0203520D02*
X0115109Y0203520D01*
X0114779Y0204319D02*
X0111713Y0204319D01*
X0112044Y0205117D02*
X0114448Y0205117D01*
X0114413Y0205916D02*
X0112079Y0205916D01*
X0112079Y0206714D02*
X0114413Y0206714D01*
X0114589Y0207513D02*
X0111903Y0207513D01*
X0111572Y0208311D02*
X0114920Y0208311D01*
X0115415Y0209110D02*
X0111077Y0209110D01*
X0110278Y0209908D02*
X0116213Y0209908D01*
X0117782Y0210707D02*
X0108709Y0210707D01*
X0105971Y0210707D02*
X0096898Y0210707D01*
X0096472Y0210884D02*
X0094587Y0210884D01*
X0092845Y0210162D01*
X0091512Y0208829D01*
X0090791Y0207088D01*
X0090791Y0205202D01*
X0091512Y0203461D01*
X0092845Y0202128D01*
X0094587Y0201406D01*
X0096472Y0201406D01*
X0098213Y0202128D01*
X0099546Y0203461D01*
X0100268Y0205202D01*
X0100268Y0207088D01*
X0099546Y0208829D01*
X0098213Y0210162D01*
X0096472Y0210884D01*
X0098467Y0209908D02*
X0104402Y0209908D01*
X0103604Y0209110D02*
X0099266Y0209110D01*
X0099761Y0208311D02*
X0103109Y0208311D01*
X0102778Y0207513D02*
X0100092Y0207513D01*
X0100268Y0206714D02*
X0102602Y0206714D01*
X0102602Y0205916D02*
X0100268Y0205916D01*
X0100233Y0205117D02*
X0102637Y0205117D01*
X0102968Y0204319D02*
X0099902Y0204319D01*
X0099571Y0203520D02*
X0103298Y0203520D01*
X0104062Y0202722D02*
X0098807Y0202722D01*
X0097720Y0201923D02*
X0105150Y0201923D01*
X0115914Y0200326D02*
X0122389Y0200326D01*
X0122373Y0200320D02*
X0121040Y0198987D01*
X0120318Y0197245D01*
X0120318Y0195360D01*
X0121040Y0193618D01*
X0122373Y0192285D01*
X0124114Y0191564D01*
X0125999Y0191564D01*
X0127741Y0192285D01*
X0129074Y0193618D01*
X0129795Y0195360D01*
X0129795Y0197245D01*
X0129074Y0198987D01*
X0127741Y0200320D01*
X0125999Y0201041D01*
X0124114Y0201041D01*
X0122373Y0200320D01*
X0121581Y0199528D02*
X0116722Y0199528D01*
X0117370Y0198729D02*
X0120933Y0198729D01*
X0120602Y0197931D02*
X0117700Y0197931D01*
X0117984Y0197132D02*
X0120318Y0197132D01*
X0120318Y0196334D02*
X0117984Y0196334D01*
X0117984Y0195535D02*
X0120318Y0195535D01*
X0120576Y0194737D02*
X0117726Y0194737D01*
X0117395Y0193938D02*
X0120907Y0193938D01*
X0121518Y0193140D02*
X0116784Y0193140D01*
X0115986Y0192341D02*
X0122317Y0192341D01*
X0127797Y0192341D02*
X0134128Y0192341D01*
X0134184Y0192285D02*
X0135925Y0191564D01*
X0137810Y0191564D01*
X0139552Y0192285D01*
X0140885Y0193618D01*
X0141606Y0195360D01*
X0141606Y0197245D01*
X0140885Y0198987D01*
X0139552Y0200320D01*
X0137810Y0201041D01*
X0135925Y0201041D01*
X0134184Y0200320D01*
X0132851Y0198987D01*
X0132129Y0197245D01*
X0132129Y0195360D01*
X0132851Y0193618D01*
X0134184Y0192285D01*
X0133329Y0193140D02*
X0128595Y0193140D01*
X0129206Y0193938D02*
X0132718Y0193938D01*
X0132387Y0194737D02*
X0129537Y0194737D01*
X0129795Y0195535D02*
X0132129Y0195535D01*
X0132129Y0196334D02*
X0129795Y0196334D01*
X0129795Y0197132D02*
X0132129Y0197132D01*
X0132413Y0197931D02*
X0129511Y0197931D01*
X0129181Y0198729D02*
X0132744Y0198729D01*
X0133392Y0199528D02*
X0128533Y0199528D01*
X0127725Y0200326D02*
X0134200Y0200326D01*
X0133646Y0202128D02*
X0134979Y0203461D01*
X0135701Y0205202D01*
X0135701Y0207088D01*
X0134979Y0208829D01*
X0133646Y0210162D01*
X0131905Y0210884D01*
X0130020Y0210884D01*
X0128278Y0210162D01*
X0126945Y0208829D01*
X0126224Y0207088D01*
X0126224Y0205202D01*
X0126945Y0203461D01*
X0128278Y0202128D01*
X0130020Y0201406D01*
X0131905Y0201406D01*
X0133646Y0202128D01*
X0133153Y0201923D02*
X0140583Y0201923D01*
X0140089Y0202128D02*
X0141831Y0201406D01*
X0143716Y0201406D01*
X0145458Y0202128D01*
X0146790Y0203461D01*
X0147512Y0205202D01*
X0147512Y0207088D01*
X0146790Y0208829D01*
X0145458Y0210162D01*
X0143716Y0210884D01*
X0141831Y0210884D01*
X0140089Y0210162D01*
X0138756Y0208829D01*
X0138035Y0207088D01*
X0138035Y0205202D01*
X0138756Y0203461D01*
X0140089Y0202128D01*
X0139495Y0202722D02*
X0134240Y0202722D01*
X0135004Y0203520D02*
X0138731Y0203520D01*
X0138401Y0204319D02*
X0135335Y0204319D01*
X0135666Y0205117D02*
X0138070Y0205117D01*
X0138035Y0205916D02*
X0135701Y0205916D01*
X0135701Y0206714D02*
X0138035Y0206714D01*
X0138211Y0207513D02*
X0135525Y0207513D01*
X0135194Y0208311D02*
X0138542Y0208311D01*
X0139037Y0209110D02*
X0134699Y0209110D01*
X0133900Y0209908D02*
X0139835Y0209908D01*
X0141404Y0210707D02*
X0132331Y0210707D01*
X0129593Y0210707D02*
X0120520Y0210707D01*
X0122089Y0209908D02*
X0128024Y0209908D01*
X0127226Y0209110D02*
X0122888Y0209110D01*
X0123383Y0208311D02*
X0126731Y0208311D01*
X0126400Y0207513D02*
X0123714Y0207513D01*
X0123890Y0206714D02*
X0126224Y0206714D01*
X0126224Y0205916D02*
X0123890Y0205916D01*
X0123855Y0205117D02*
X0126259Y0205117D01*
X0126590Y0204319D02*
X0123524Y0204319D01*
X0123193Y0203520D02*
X0126920Y0203520D01*
X0127684Y0202722D02*
X0122429Y0202722D01*
X0121342Y0201923D02*
X0128772Y0201923D01*
X0139536Y0200326D02*
X0146011Y0200326D01*
X0145995Y0200320D02*
X0144662Y0198987D01*
X0143940Y0197245D01*
X0143940Y0195360D01*
X0144662Y0193618D01*
X0145995Y0192285D01*
X0147736Y0191564D01*
X0149621Y0191564D01*
X0151363Y0192285D01*
X0152696Y0193618D01*
X0153417Y0195360D01*
X0153417Y0197245D01*
X0152696Y0198987D01*
X0151363Y0200320D01*
X0149621Y0201041D01*
X0147736Y0201041D01*
X0145995Y0200320D01*
X0145203Y0199528D02*
X0140344Y0199528D01*
X0140992Y0198729D02*
X0144555Y0198729D01*
X0144224Y0197931D02*
X0141322Y0197931D01*
X0141606Y0197132D02*
X0143940Y0197132D01*
X0143940Y0196334D02*
X0141606Y0196334D01*
X0141606Y0195535D02*
X0143940Y0195535D01*
X0144198Y0194737D02*
X0141348Y0194737D01*
X0141017Y0193938D02*
X0144529Y0193938D01*
X0145140Y0193140D02*
X0140406Y0193140D01*
X0139608Y0192341D02*
X0145939Y0192341D01*
X0151419Y0192341D02*
X0157750Y0192341D01*
X0157806Y0192285D02*
X0159547Y0191564D01*
X0161432Y0191564D01*
X0163174Y0192285D01*
X0164507Y0193618D01*
X0165228Y0195360D01*
X0165228Y0197245D01*
X0164507Y0198987D01*
X0163174Y0200320D01*
X0161432Y0201041D01*
X0159547Y0201041D01*
X0157806Y0200320D01*
X0156473Y0198987D01*
X0155751Y0197245D01*
X0155751Y0195360D01*
X0156473Y0193618D01*
X0157806Y0192285D01*
X0156951Y0193140D02*
X0152217Y0193140D01*
X0152828Y0193938D02*
X0156340Y0193938D01*
X0156009Y0194737D02*
X0153159Y0194737D01*
X0153417Y0195535D02*
X0155751Y0195535D01*
X0155751Y0196334D02*
X0153417Y0196334D01*
X0153417Y0197132D02*
X0155751Y0197132D01*
X0156035Y0197931D02*
X0153133Y0197931D01*
X0152803Y0198729D02*
X0156366Y0198729D01*
X0157014Y0199528D02*
X0152155Y0199528D01*
X0151347Y0200326D02*
X0157822Y0200326D01*
X0157269Y0202128D02*
X0155527Y0201406D01*
X0153642Y0201406D01*
X0151900Y0202128D01*
X0150567Y0203461D01*
X0149846Y0205202D01*
X0149846Y0207088D01*
X0150567Y0208829D01*
X0151900Y0210162D01*
X0153642Y0210884D01*
X0155527Y0210884D01*
X0157269Y0210162D01*
X0158602Y0208829D01*
X0159323Y0207088D01*
X0159323Y0205202D01*
X0158602Y0203461D01*
X0157269Y0202128D01*
X0156775Y0201923D02*
X0164205Y0201923D01*
X0163711Y0202128D02*
X0165453Y0201406D01*
X0167338Y0201406D01*
X0169080Y0202128D01*
X0170413Y0203461D01*
X0171134Y0205202D01*
X0171134Y0207088D01*
X0170413Y0208829D01*
X0169080Y0210162D01*
X0167338Y0210884D01*
X0165453Y0210884D01*
X0163711Y0210162D01*
X0162378Y0208829D01*
X0161657Y0207088D01*
X0161657Y0205202D01*
X0162378Y0203461D01*
X0163711Y0202128D01*
X0163117Y0202722D02*
X0157863Y0202722D01*
X0158626Y0203520D02*
X0162354Y0203520D01*
X0162023Y0204319D02*
X0158957Y0204319D01*
X0159288Y0205117D02*
X0161692Y0205117D01*
X0161657Y0205916D02*
X0159323Y0205916D01*
X0159323Y0206714D02*
X0161657Y0206714D01*
X0161833Y0207513D02*
X0159147Y0207513D01*
X0158816Y0208311D02*
X0162164Y0208311D01*
X0162659Y0209110D02*
X0158321Y0209110D01*
X0157522Y0209908D02*
X0163457Y0209908D01*
X0165026Y0210707D02*
X0155953Y0210707D01*
X0153215Y0210707D02*
X0144142Y0210707D01*
X0145711Y0209908D02*
X0151646Y0209908D01*
X0150848Y0209110D02*
X0146510Y0209110D01*
X0147005Y0208311D02*
X0150353Y0208311D01*
X0150022Y0207513D02*
X0147336Y0207513D01*
X0147512Y0206714D02*
X0149846Y0206714D01*
X0149846Y0205916D02*
X0147512Y0205916D01*
X0147477Y0205117D02*
X0149881Y0205117D01*
X0150212Y0204319D02*
X0147146Y0204319D01*
X0146815Y0203520D02*
X0150542Y0203520D01*
X0151306Y0202722D02*
X0146052Y0202722D01*
X0144964Y0201923D02*
X0152394Y0201923D01*
X0163158Y0200326D02*
X0169633Y0200326D01*
X0169617Y0200320D02*
X0168284Y0198987D01*
X0167562Y0197245D01*
X0167562Y0195360D01*
X0168284Y0193618D01*
X0169617Y0192285D01*
X0171358Y0191564D01*
X0173243Y0191564D01*
X0174985Y0192285D01*
X0176318Y0193618D01*
X0177039Y0195360D01*
X0177039Y0197245D01*
X0176318Y0198987D01*
X0174985Y0200320D01*
X0173243Y0201041D01*
X0171358Y0201041D01*
X0169617Y0200320D01*
X0168825Y0199528D02*
X0163966Y0199528D01*
X0164614Y0198729D02*
X0168177Y0198729D01*
X0167846Y0197931D02*
X0164944Y0197931D01*
X0165228Y0197132D02*
X0167562Y0197132D01*
X0167562Y0196334D02*
X0165228Y0196334D01*
X0165228Y0195535D02*
X0167562Y0195535D01*
X0167820Y0194737D02*
X0164970Y0194737D01*
X0164640Y0193938D02*
X0168151Y0193938D01*
X0168762Y0193140D02*
X0164028Y0193140D01*
X0163230Y0192341D02*
X0169561Y0192341D01*
X0175041Y0192341D02*
X0181372Y0192341D01*
X0180573Y0193140D02*
X0175839Y0193140D01*
X0176451Y0193938D02*
X0179962Y0193938D01*
X0179631Y0194737D02*
X0176781Y0194737D01*
X0177039Y0195535D02*
X0179373Y0195535D01*
X0179373Y0196334D02*
X0177039Y0196334D01*
X0177039Y0197132D02*
X0179373Y0197132D01*
X0179657Y0197931D02*
X0176755Y0197931D01*
X0176425Y0198729D02*
X0179988Y0198729D01*
X0180636Y0199528D02*
X0175777Y0199528D01*
X0174969Y0200326D02*
X0181444Y0200326D01*
X0180891Y0202128D02*
X0179149Y0201406D01*
X0177264Y0201406D01*
X0175522Y0202128D01*
X0174189Y0203461D01*
X0173468Y0205202D01*
X0173468Y0207088D01*
X0174189Y0208829D01*
X0175522Y0210162D01*
X0177264Y0210884D01*
X0179149Y0210884D01*
X0180891Y0210162D01*
X0182224Y0208829D01*
X0182945Y0207088D01*
X0182945Y0205202D01*
X0182224Y0203461D01*
X0180891Y0202128D01*
X0180397Y0201923D02*
X0189354Y0201923D01*
X0189110Y0201125D02*
X0053710Y0201125D01*
X0053710Y0201923D02*
X0093339Y0201923D01*
X0092251Y0202722D02*
X0053293Y0202722D01*
X0052494Y0203520D02*
X0091487Y0203520D01*
X0091157Y0204319D02*
X0049935Y0204319D01*
X0049935Y0205117D02*
X0090826Y0205117D01*
X0090791Y0205916D02*
X0049935Y0205916D01*
X0049935Y0206714D02*
X0090791Y0206714D01*
X0090967Y0207513D02*
X0049935Y0207513D01*
X0049935Y0208311D02*
X0091298Y0208311D01*
X0091793Y0209110D02*
X0049935Y0209110D01*
X0049935Y0209908D02*
X0092591Y0209908D01*
X0094160Y0210707D02*
X0049935Y0210707D01*
X0049935Y0211505D02*
X0223800Y0211505D01*
X0223800Y0210707D02*
X0179575Y0210707D01*
X0181144Y0209908D02*
X0223800Y0209908D01*
X0223800Y0209110D02*
X0181943Y0209110D01*
X0182438Y0208311D02*
X0223800Y0208311D01*
X0223800Y0207513D02*
X0182769Y0207513D01*
X0182945Y0206714D02*
X0223800Y0206714D01*
X0223800Y0205916D02*
X0182945Y0205916D01*
X0182910Y0205117D02*
X0223800Y0205117D01*
X0223800Y0204319D02*
X0182579Y0204319D01*
X0182248Y0203520D02*
X0191576Y0203520D01*
X0190153Y0202722D02*
X0181485Y0202722D01*
X0176016Y0201923D02*
X0168586Y0201923D01*
X0169674Y0202722D02*
X0174928Y0202722D01*
X0174165Y0203520D02*
X0170437Y0203520D01*
X0170768Y0204319D02*
X0173834Y0204319D01*
X0173503Y0205117D02*
X0171099Y0205117D01*
X0171134Y0205916D02*
X0173468Y0205916D01*
X0173468Y0206714D02*
X0171134Y0206714D01*
X0170958Y0207513D02*
X0173644Y0207513D01*
X0173975Y0208311D02*
X0170627Y0208311D01*
X0170132Y0209110D02*
X0174470Y0209110D01*
X0175268Y0209908D02*
X0169333Y0209908D01*
X0167764Y0210707D02*
X0176837Y0210707D01*
X0177264Y0215186D02*
X0179149Y0215186D01*
X0180891Y0215907D01*
X0182224Y0217240D01*
X0182945Y0218982D01*
X0182945Y0220867D01*
X0182224Y0222609D01*
X0180891Y0223942D01*
X0179149Y0224663D01*
X0177264Y0224663D01*
X0175522Y0223942D01*
X0174189Y0222609D01*
X0173468Y0220867D01*
X0173468Y0218982D01*
X0174189Y0217240D01*
X0175522Y0215907D01*
X0177264Y0215186D01*
X0176510Y0215498D02*
X0168091Y0215498D01*
X0167338Y0215186D02*
X0169080Y0215907D01*
X0170413Y0217240D01*
X0171134Y0218982D01*
X0171134Y0220867D01*
X0170413Y0222609D01*
X0169080Y0223942D01*
X0167338Y0224663D01*
X0165453Y0224663D01*
X0163711Y0223942D01*
X0162378Y0222609D01*
X0161657Y0220867D01*
X0161657Y0218982D01*
X0162378Y0217240D01*
X0163711Y0215907D01*
X0165453Y0215186D01*
X0167338Y0215186D01*
X0169469Y0216296D02*
X0175133Y0216296D01*
X0174335Y0217095D02*
X0170267Y0217095D01*
X0170683Y0217894D02*
X0173919Y0217894D01*
X0173588Y0218692D02*
X0171014Y0218692D01*
X0171134Y0219491D02*
X0173468Y0219491D01*
X0173468Y0220289D02*
X0171134Y0220289D01*
X0171043Y0221088D02*
X0173559Y0221088D01*
X0173890Y0221886D02*
X0170712Y0221886D01*
X0170337Y0222685D02*
X0174265Y0222685D01*
X0175064Y0223483D02*
X0169538Y0223483D01*
X0168259Y0224282D02*
X0176343Y0224282D01*
X0174985Y0225750D02*
X0176318Y0227083D01*
X0177039Y0228824D01*
X0177039Y0230710D01*
X0176318Y0232451D01*
X0174985Y0233784D01*
X0173243Y0234506D01*
X0171358Y0234506D01*
X0169617Y0233784D01*
X0168284Y0232451D01*
X0167562Y0230710D01*
X0167562Y0228824D01*
X0168284Y0227083D01*
X0169617Y0225750D01*
X0171358Y0225028D01*
X0173243Y0225028D01*
X0174985Y0225750D01*
X0175114Y0225879D02*
X0181299Y0225879D01*
X0181428Y0225750D02*
X0183169Y0225028D01*
X0185054Y0225028D01*
X0186796Y0225750D01*
X0188129Y0227083D01*
X0188850Y0228824D01*
X0188850Y0230710D01*
X0188129Y0232451D01*
X0186796Y0233784D01*
X0185054Y0234506D01*
X0183169Y0234506D01*
X0181428Y0233784D01*
X0180095Y0232451D01*
X0179373Y0230710D01*
X0179373Y0228824D01*
X0180095Y0227083D01*
X0181428Y0225750D01*
X0180500Y0226677D02*
X0175912Y0226677D01*
X0176481Y0227476D02*
X0179932Y0227476D01*
X0179601Y0228274D02*
X0176812Y0228274D01*
X0177039Y0229073D02*
X0179373Y0229073D01*
X0179373Y0229871D02*
X0177039Y0229871D01*
X0177039Y0230670D02*
X0179373Y0230670D01*
X0179688Y0231468D02*
X0176725Y0231468D01*
X0176394Y0232267D02*
X0180018Y0232267D01*
X0180709Y0233065D02*
X0175704Y0233065D01*
X0174793Y0233864D02*
X0181620Y0233864D01*
X0186604Y0233864D02*
X0223800Y0233864D01*
X0223800Y0234662D02*
X0049935Y0234662D01*
X0049935Y0233864D02*
X0087132Y0233864D01*
X0086940Y0233784D02*
X0085607Y0232451D01*
X0084885Y0230710D01*
X0084885Y0228824D01*
X0085607Y0227083D01*
X0086940Y0225750D01*
X0088681Y0225028D01*
X0090566Y0225028D01*
X0092308Y0225750D01*
X0093641Y0227083D01*
X0094362Y0228824D01*
X0094362Y0230710D01*
X0093641Y0232451D01*
X0092308Y0233784D01*
X0090566Y0234506D01*
X0088681Y0234506D01*
X0086940Y0233784D01*
X0086221Y0233065D02*
X0049935Y0233065D01*
X0049935Y0232267D02*
X0085530Y0232267D01*
X0085199Y0231468D02*
X0049935Y0231468D01*
X0049935Y0230670D02*
X0084885Y0230670D01*
X0084885Y0229871D02*
X0049935Y0229871D01*
X0049935Y0229073D02*
X0084885Y0229073D01*
X0085113Y0228274D02*
X0049935Y0228274D01*
X0049935Y0227476D02*
X0085444Y0227476D01*
X0086012Y0226677D02*
X0049935Y0226677D01*
X0049935Y0225879D02*
X0086811Y0225879D01*
X0088556Y0225080D02*
X0049935Y0225080D01*
X0049935Y0224282D02*
X0093666Y0224282D01*
X0092845Y0223942D02*
X0091512Y0222609D01*
X0090791Y0220867D01*
X0090791Y0218982D01*
X0091512Y0217240D01*
X0092845Y0215907D01*
X0094587Y0215186D01*
X0096472Y0215186D01*
X0098213Y0215907D01*
X0099546Y0217240D01*
X0100268Y0218982D01*
X0100268Y0220867D01*
X0099546Y0222609D01*
X0098213Y0223942D01*
X0096472Y0224663D01*
X0094587Y0224663D01*
X0092845Y0223942D01*
X0092386Y0223483D02*
X0049935Y0223483D01*
X0049935Y0222685D02*
X0091588Y0222685D01*
X0091213Y0221886D02*
X0049935Y0221886D01*
X0049935Y0221088D02*
X0090882Y0221088D01*
X0090791Y0220289D02*
X0049935Y0220289D01*
X0049935Y0219491D02*
X0090791Y0219491D01*
X0090911Y0218692D02*
X0049935Y0218692D01*
X0049935Y0217894D02*
X0091241Y0217894D01*
X0091657Y0217095D02*
X0049935Y0217095D01*
X0049935Y0216296D02*
X0092456Y0216296D01*
X0093833Y0215498D02*
X0049935Y0215498D01*
X0049935Y0214699D02*
X0223800Y0214699D01*
X0223800Y0213901D02*
X0049935Y0213901D01*
X0049935Y0213102D02*
X0223800Y0213102D01*
X0223800Y0212304D02*
X0049935Y0212304D01*
X0049935Y0203520D02*
X0050326Y0203520D01*
X0049981Y0199528D02*
X0049935Y0199528D01*
X0049935Y0190744D02*
X0198485Y0190744D01*
X0190155Y0198729D02*
X0188236Y0198729D01*
X0187588Y0199528D02*
X0189356Y0199528D01*
X0189110Y0200326D02*
X0186780Y0200326D01*
X0179902Y0215498D02*
X0223800Y0215498D01*
X0223800Y0216296D02*
X0181280Y0216296D01*
X0182078Y0217095D02*
X0223800Y0217095D01*
X0223800Y0217894D02*
X0182494Y0217894D01*
X0182825Y0218692D02*
X0223800Y0218692D01*
X0223800Y0219491D02*
X0182945Y0219491D01*
X0182945Y0220289D02*
X0223800Y0220289D01*
X0223800Y0221088D02*
X0182854Y0221088D01*
X0182523Y0221886D02*
X0223800Y0221886D01*
X0223800Y0222685D02*
X0182148Y0222685D01*
X0181349Y0223483D02*
X0223800Y0223483D01*
X0223800Y0224282D02*
X0180070Y0224282D01*
X0183045Y0225080D02*
X0173368Y0225080D01*
X0171234Y0225080D02*
X0137935Y0225080D01*
X0137810Y0225028D02*
X0139552Y0225750D01*
X0140885Y0227083D01*
X0141606Y0228824D01*
X0141606Y0230710D01*
X0140885Y0232451D01*
X0139552Y0233784D01*
X0137810Y0234506D01*
X0135925Y0234506D01*
X0134184Y0233784D01*
X0132851Y0232451D01*
X0132129Y0230710D01*
X0132129Y0228824D01*
X0132851Y0227083D01*
X0134184Y0225750D01*
X0135925Y0225028D01*
X0137810Y0225028D01*
X0135800Y0225080D02*
X0126124Y0225080D01*
X0125999Y0225028D02*
X0127741Y0225750D01*
X0129074Y0227083D01*
X0129795Y0228824D01*
X0129795Y0230710D01*
X0129074Y0232451D01*
X0127741Y0233784D01*
X0125999Y0234506D01*
X0124114Y0234506D01*
X0122373Y0233784D01*
X0121040Y0232451D01*
X0120318Y0230710D01*
X0120318Y0228824D01*
X0121040Y0227083D01*
X0122373Y0225750D01*
X0124114Y0225028D01*
X0125999Y0225028D01*
X0123989Y0225080D02*
X0114313Y0225080D01*
X0114188Y0225028D02*
X0115930Y0225750D01*
X0117263Y0227083D01*
X0117984Y0228824D01*
X0117984Y0230710D01*
X0117263Y0232451D01*
X0115930Y0233784D01*
X0114188Y0234506D01*
X0112303Y0234506D01*
X0110562Y0233784D01*
X0109229Y0232451D01*
X0108507Y0230710D01*
X0108507Y0228824D01*
X0109229Y0227083D01*
X0110562Y0225750D01*
X0112303Y0225028D01*
X0114188Y0225028D01*
X0112178Y0225080D02*
X0102502Y0225080D01*
X0102377Y0225028D02*
X0104119Y0225750D01*
X0105452Y0227083D01*
X0106173Y0228824D01*
X0106173Y0230710D01*
X0105452Y0232451D01*
X0104119Y0233784D01*
X0102377Y0234506D01*
X0100492Y0234506D01*
X0098751Y0233784D01*
X0097418Y0232451D01*
X0096696Y0230710D01*
X0096696Y0228824D01*
X0097418Y0227083D01*
X0098751Y0225750D01*
X0100492Y0225028D01*
X0102377Y0225028D01*
X0100367Y0225080D02*
X0090691Y0225080D01*
X0092437Y0225879D02*
X0098622Y0225879D01*
X0097823Y0226677D02*
X0093235Y0226677D01*
X0093804Y0227476D02*
X0097255Y0227476D01*
X0096924Y0228274D02*
X0094134Y0228274D01*
X0094362Y0229073D02*
X0096696Y0229073D01*
X0096696Y0229871D02*
X0094362Y0229871D01*
X0094362Y0230670D02*
X0096696Y0230670D01*
X0097010Y0231468D02*
X0094048Y0231468D01*
X0093717Y0232267D02*
X0097341Y0232267D01*
X0098032Y0233065D02*
X0093027Y0233065D01*
X0092116Y0233864D02*
X0098943Y0233864D01*
X0103927Y0233864D02*
X0110754Y0233864D01*
X0109843Y0233065D02*
X0104838Y0233065D01*
X0105528Y0232267D02*
X0109152Y0232267D01*
X0108821Y0231468D02*
X0105859Y0231468D01*
X0106173Y0230670D02*
X0108507Y0230670D01*
X0108507Y0229871D02*
X0106173Y0229871D01*
X0106173Y0229073D02*
X0108507Y0229073D01*
X0108735Y0228274D02*
X0105945Y0228274D01*
X0105615Y0227476D02*
X0109066Y0227476D01*
X0109634Y0226677D02*
X0105046Y0226677D01*
X0104248Y0225879D02*
X0110433Y0225879D01*
X0110024Y0223942D02*
X0108283Y0224663D01*
X0106398Y0224663D01*
X0104656Y0223942D01*
X0103323Y0222609D01*
X0102602Y0220867D01*
X0102602Y0218982D01*
X0103323Y0217240D01*
X0104656Y0215907D01*
X0106398Y0215186D01*
X0108283Y0215186D01*
X0110024Y0215907D01*
X0111357Y0217240D01*
X0112079Y0218982D01*
X0112079Y0220867D01*
X0111357Y0222609D01*
X0110024Y0223942D01*
X0110483Y0223483D02*
X0116008Y0223483D01*
X0116467Y0223942D02*
X0115134Y0222609D01*
X0114413Y0220867D01*
X0114413Y0218982D01*
X0115134Y0217240D01*
X0116467Y0215907D01*
X0118209Y0215186D01*
X0120094Y0215186D01*
X0121835Y0215907D01*
X0123168Y0217240D01*
X0123890Y0218982D01*
X0123890Y0220867D01*
X0123168Y0222609D01*
X0121835Y0223942D01*
X0120094Y0224663D01*
X0118209Y0224663D01*
X0116467Y0223942D01*
X0117288Y0224282D02*
X0109204Y0224282D01*
X0111282Y0222685D02*
X0115210Y0222685D01*
X0114835Y0221886D02*
X0111657Y0221886D01*
X0111987Y0221088D02*
X0114504Y0221088D01*
X0114413Y0220289D02*
X0112079Y0220289D01*
X0112079Y0219491D02*
X0114413Y0219491D01*
X0114533Y0218692D02*
X0111959Y0218692D01*
X0111628Y0217894D02*
X0114864Y0217894D01*
X0115279Y0217095D02*
X0111212Y0217095D01*
X0110414Y0216296D02*
X0116078Y0216296D01*
X0117455Y0215498D02*
X0109036Y0215498D01*
X0105644Y0215498D02*
X0097225Y0215498D01*
X0098603Y0216296D02*
X0104267Y0216296D01*
X0103468Y0217095D02*
X0099401Y0217095D01*
X0099817Y0217894D02*
X0103052Y0217894D01*
X0102722Y0218692D02*
X0100148Y0218692D01*
X0100268Y0219491D02*
X0102602Y0219491D01*
X0102602Y0220289D02*
X0100268Y0220289D01*
X0100176Y0221088D02*
X0102693Y0221088D01*
X0103024Y0221886D02*
X0099846Y0221886D01*
X0099470Y0222685D02*
X0103399Y0222685D01*
X0104197Y0223483D02*
X0098672Y0223483D01*
X0097393Y0224282D02*
X0105477Y0224282D01*
X0116059Y0225879D02*
X0122244Y0225879D01*
X0121445Y0226677D02*
X0116857Y0226677D01*
X0117426Y0227476D02*
X0120877Y0227476D01*
X0120546Y0228274D02*
X0117756Y0228274D01*
X0117984Y0229073D02*
X0120318Y0229073D01*
X0120318Y0229871D02*
X0117984Y0229871D01*
X0117984Y0230670D02*
X0120318Y0230670D01*
X0120632Y0231468D02*
X0117670Y0231468D01*
X0117339Y0232267D02*
X0120963Y0232267D01*
X0121654Y0233065D02*
X0116649Y0233065D01*
X0115738Y0233864D02*
X0122565Y0233864D01*
X0127549Y0233864D02*
X0134376Y0233864D01*
X0133465Y0233065D02*
X0128460Y0233065D01*
X0129150Y0232267D02*
X0132774Y0232267D01*
X0132443Y0231468D02*
X0129481Y0231468D01*
X0129795Y0230670D02*
X0132129Y0230670D01*
X0132129Y0229871D02*
X0129795Y0229871D01*
X0129795Y0229073D02*
X0132129Y0229073D01*
X0132357Y0228274D02*
X0129567Y0228274D01*
X0129237Y0227476D02*
X0132688Y0227476D01*
X0133256Y0226677D02*
X0128668Y0226677D01*
X0127870Y0225879D02*
X0134055Y0225879D01*
X0133646Y0223942D02*
X0131905Y0224663D01*
X0130020Y0224663D01*
X0128278Y0223942D01*
X0126945Y0222609D01*
X0126224Y0220867D01*
X0126224Y0218982D01*
X0126945Y0217240D01*
X0128278Y0215907D01*
X0130020Y0215186D01*
X0131905Y0215186D01*
X0133646Y0215907D01*
X0134979Y0217240D01*
X0135701Y0218982D01*
X0135701Y0220867D01*
X0134979Y0222609D01*
X0133646Y0223942D01*
X0134105Y0223483D02*
X0139631Y0223483D01*
X0140089Y0223942D02*
X0138756Y0222609D01*
X0138035Y0220867D01*
X0138035Y0218982D01*
X0138756Y0217240D01*
X0140089Y0215907D01*
X0141831Y0215186D01*
X0143716Y0215186D01*
X0145458Y0215907D01*
X0146790Y0217240D01*
X0147512Y0218982D01*
X0147512Y0220867D01*
X0146790Y0222609D01*
X0145458Y0223942D01*
X0143716Y0224663D01*
X0141831Y0224663D01*
X0140089Y0223942D01*
X0140910Y0224282D02*
X0132826Y0224282D01*
X0134904Y0222685D02*
X0138832Y0222685D01*
X0138457Y0221886D02*
X0135279Y0221886D01*
X0135610Y0221088D02*
X0138126Y0221088D01*
X0138035Y0220289D02*
X0135701Y0220289D01*
X0135701Y0219491D02*
X0138035Y0219491D01*
X0138155Y0218692D02*
X0135581Y0218692D01*
X0135250Y0217894D02*
X0138486Y0217894D01*
X0138901Y0217095D02*
X0134834Y0217095D01*
X0134036Y0216296D02*
X0139700Y0216296D01*
X0141077Y0215498D02*
X0132658Y0215498D01*
X0129266Y0215498D02*
X0120847Y0215498D01*
X0122225Y0216296D02*
X0127889Y0216296D01*
X0127090Y0217095D02*
X0123023Y0217095D01*
X0123439Y0217894D02*
X0126675Y0217894D01*
X0126344Y0218692D02*
X0123770Y0218692D01*
X0123890Y0219491D02*
X0126224Y0219491D01*
X0126224Y0220289D02*
X0123890Y0220289D01*
X0123799Y0221088D02*
X0126315Y0221088D01*
X0126646Y0221886D02*
X0123468Y0221886D01*
X0123093Y0222685D02*
X0127021Y0222685D01*
X0127820Y0223483D02*
X0122294Y0223483D01*
X0121015Y0224282D02*
X0129099Y0224282D01*
X0139681Y0225879D02*
X0169488Y0225879D01*
X0168689Y0226677D02*
X0140479Y0226677D01*
X0141048Y0227476D02*
X0168121Y0227476D01*
X0167790Y0228274D02*
X0141378Y0228274D01*
X0141606Y0229073D02*
X0167562Y0229073D01*
X0167562Y0229871D02*
X0141606Y0229871D01*
X0141606Y0230670D02*
X0167562Y0230670D01*
X0167877Y0231468D02*
X0141292Y0231468D01*
X0140961Y0232267D02*
X0168207Y0232267D01*
X0168898Y0233065D02*
X0140271Y0233065D01*
X0139360Y0233864D02*
X0169809Y0233864D01*
X0164532Y0224282D02*
X0156448Y0224282D01*
X0157269Y0223942D02*
X0155527Y0224663D01*
X0153642Y0224663D01*
X0151900Y0223942D01*
X0150567Y0222609D01*
X0149846Y0220867D01*
X0149846Y0218982D01*
X0150567Y0217240D01*
X0151900Y0215907D01*
X0153642Y0215186D01*
X0155527Y0215186D01*
X0157269Y0215907D01*
X0158602Y0217240D01*
X0159323Y0218982D01*
X0159323Y0220867D01*
X0158602Y0222609D01*
X0157269Y0223942D01*
X0157727Y0223483D02*
X0163253Y0223483D01*
X0162454Y0222685D02*
X0158526Y0222685D01*
X0158901Y0221886D02*
X0162079Y0221886D01*
X0161748Y0221088D02*
X0159232Y0221088D01*
X0159323Y0220289D02*
X0161657Y0220289D01*
X0161657Y0219491D02*
X0159323Y0219491D01*
X0159203Y0218692D02*
X0161777Y0218692D01*
X0162108Y0217894D02*
X0158872Y0217894D01*
X0158456Y0217095D02*
X0162523Y0217095D01*
X0163322Y0216296D02*
X0157658Y0216296D01*
X0156280Y0215498D02*
X0164699Y0215498D01*
X0152888Y0215498D02*
X0144469Y0215498D01*
X0145847Y0216296D02*
X0151511Y0216296D01*
X0150712Y0217095D02*
X0146645Y0217095D01*
X0147061Y0217894D02*
X0150297Y0217894D01*
X0149966Y0218692D02*
X0147392Y0218692D01*
X0147512Y0219491D02*
X0149846Y0219491D01*
X0149846Y0220289D02*
X0147512Y0220289D01*
X0147421Y0221088D02*
X0149937Y0221088D01*
X0150268Y0221886D02*
X0147090Y0221886D01*
X0146715Y0222685D02*
X0150643Y0222685D01*
X0151442Y0223483D02*
X0145916Y0223483D01*
X0144637Y0224282D02*
X0152721Y0224282D01*
X0185179Y0225080D02*
X0223800Y0225080D01*
X0223800Y0225879D02*
X0186925Y0225879D01*
X0187723Y0226677D02*
X0223800Y0226677D01*
X0223800Y0227476D02*
X0188292Y0227476D01*
X0188623Y0228274D02*
X0223800Y0228274D01*
X0223800Y0229073D02*
X0188850Y0229073D01*
X0188850Y0229871D02*
X0223800Y0229871D01*
X0223800Y0230670D02*
X0188850Y0230670D01*
X0188536Y0231468D02*
X0223800Y0231468D01*
X0223800Y0232267D02*
X0188205Y0232267D01*
X0187515Y0233065D02*
X0223800Y0233065D01*
X0223800Y0235461D02*
X0049935Y0235461D01*
X0049935Y0236259D02*
X0223800Y0236259D01*
X0223800Y0237058D02*
X0049935Y0237058D01*
X0049935Y0237856D02*
X0223800Y0237856D01*
X0223800Y0238655D02*
X0049935Y0238655D01*
X0049935Y0239453D02*
X0223800Y0239453D01*
X0223800Y0240252D02*
X0049935Y0240252D01*
X0049935Y0241050D02*
X0223800Y0241050D01*
X0223800Y0241849D02*
X0049935Y0241849D01*
X0049935Y0242647D02*
X0223800Y0242647D01*
X0223800Y0243446D02*
X0049935Y0243446D01*
X0049935Y0244244D02*
X0223800Y0244244D01*
X0223800Y0245043D02*
X0049935Y0245043D01*
X0049935Y0245841D02*
X0223800Y0245841D01*
X0223800Y0246640D02*
X0049935Y0246640D01*
X0049935Y0247438D02*
X0223800Y0247438D01*
X0223800Y0248237D02*
X0216098Y0248237D01*
X0217128Y0248664D02*
X0219349Y0250885D01*
X0220551Y0253787D01*
X0220551Y0256928D01*
X0219349Y0259830D01*
X0217128Y0262052D01*
X0214226Y0263254D01*
X0211085Y0263254D01*
X0208182Y0262052D01*
X0205961Y0259830D01*
X0204759Y0256928D01*
X0204759Y0253787D01*
X0205961Y0250885D01*
X0208182Y0248664D01*
X0211085Y0247462D01*
X0214226Y0247462D01*
X0217128Y0248664D01*
X0217500Y0249035D02*
X0223800Y0249035D01*
X0223800Y0249834D02*
X0218298Y0249834D01*
X0219097Y0250632D02*
X0223800Y0250632D01*
X0223800Y0251431D02*
X0219575Y0251431D01*
X0219906Y0252229D02*
X0223800Y0252229D01*
X0223800Y0253028D02*
X0220237Y0253028D01*
X0220551Y0253827D02*
X0223800Y0253827D01*
X0223800Y0254625D02*
X0220551Y0254625D01*
X0220551Y0255424D02*
X0223800Y0255424D01*
X0223800Y0256222D02*
X0220551Y0256222D01*
X0220513Y0257021D02*
X0223800Y0257021D01*
X0223800Y0257819D02*
X0220182Y0257819D01*
X0219851Y0258618D02*
X0223800Y0258618D01*
X0223800Y0259416D02*
X0219521Y0259416D01*
X0218965Y0260215D02*
X0223800Y0260215D01*
X0223800Y0261013D02*
X0218166Y0261013D01*
X0217368Y0261812D02*
X0223800Y0261812D01*
X0223800Y0262610D02*
X0215779Y0262610D01*
X0209531Y0262610D02*
X0064205Y0262610D01*
X0065553Y0262052D02*
X0062651Y0263254D01*
X0059510Y0263254D01*
X0056608Y0262052D01*
X0054386Y0259830D01*
X0053184Y0256928D01*
X0053184Y0253787D01*
X0054386Y0250885D01*
X0056608Y0248664D01*
X0059510Y0247462D01*
X0062651Y0247462D01*
X0065553Y0248664D01*
X0067774Y0250885D01*
X0068976Y0253787D01*
X0068976Y0256928D01*
X0067774Y0259830D01*
X0065553Y0262052D01*
X0065793Y0261812D02*
X0207943Y0261812D01*
X0207144Y0261013D02*
X0066592Y0261013D01*
X0067390Y0260215D02*
X0206346Y0260215D01*
X0205790Y0259416D02*
X0067946Y0259416D01*
X0068277Y0258618D02*
X0205459Y0258618D01*
X0205128Y0257819D02*
X0068607Y0257819D01*
X0068938Y0257021D02*
X0204797Y0257021D01*
X0204759Y0256222D02*
X0068976Y0256222D01*
X0068976Y0255424D02*
X0204759Y0255424D01*
X0204759Y0254625D02*
X0068976Y0254625D01*
X0068976Y0253827D02*
X0204759Y0253827D01*
X0205073Y0253028D02*
X0068662Y0253028D01*
X0068331Y0252229D02*
X0205404Y0252229D01*
X0205735Y0251431D02*
X0068001Y0251431D01*
X0067522Y0250632D02*
X0206214Y0250632D01*
X0207012Y0249834D02*
X0066723Y0249834D01*
X0065925Y0249035D02*
X0207811Y0249035D01*
X0209213Y0248237D02*
X0064523Y0248237D01*
X0057638Y0248237D02*
X0049935Y0248237D01*
X0049935Y0249035D02*
X0056236Y0249035D01*
X0055437Y0249834D02*
X0049935Y0249834D01*
X0049935Y0250632D02*
X0054639Y0250632D01*
X0054160Y0251431D02*
X0049935Y0251431D01*
X0049935Y0252229D02*
X0053829Y0252229D01*
X0053499Y0253028D02*
X0049935Y0253028D01*
X0049935Y0253827D02*
X0053184Y0253827D01*
X0053184Y0254625D02*
X0049935Y0254625D01*
X0049935Y0255424D02*
X0053184Y0255424D01*
X0053184Y0256222D02*
X0049935Y0256222D01*
X0049935Y0257021D02*
X0053223Y0257021D01*
X0053553Y0257819D02*
X0049935Y0257819D01*
X0049935Y0258618D02*
X0053884Y0258618D01*
X0054215Y0259416D02*
X0049935Y0259416D01*
X0049935Y0260215D02*
X0054771Y0260215D01*
X0055569Y0261013D02*
X0049935Y0261013D01*
X0049935Y0261812D02*
X0056368Y0261812D01*
X0057956Y0262610D02*
X0049935Y0262610D01*
X0049935Y0263409D02*
X0223800Y0263409D01*
X0223800Y0264207D02*
X0049935Y0264207D01*
X0049935Y0265006D02*
X0223800Y0265006D01*
X0223800Y0265804D02*
X0049935Y0265804D01*
X0049935Y0266603D02*
X0223800Y0266603D01*
X0223800Y0267401D02*
X0049935Y0267401D01*
X0049935Y0180363D02*
X0055985Y0180363D01*
X0055985Y0179565D02*
X0049935Y0179565D01*
X0049935Y0178766D02*
X0055985Y0178766D01*
X0056024Y0177968D02*
X0049935Y0177968D01*
X0049935Y0177169D02*
X0055985Y0177169D01*
X0055985Y0176371D02*
X0049935Y0176371D01*
X0049935Y0175572D02*
X0056437Y0175572D01*
X0057235Y0174774D02*
X0049935Y0174774D01*
X0049935Y0165990D02*
X0053421Y0165990D01*
X0052860Y0165429D02*
X0052860Y0163524D01*
X0054207Y0162177D01*
X0056113Y0162177D01*
X0057460Y0163524D01*
X0057460Y0165429D01*
X0056113Y0166777D01*
X0054207Y0166777D01*
X0052860Y0165429D01*
X0052860Y0165192D02*
X0049935Y0165192D01*
X0049935Y0164393D02*
X0052860Y0164393D01*
X0052860Y0163595D02*
X0049935Y0163595D01*
X0049935Y0162796D02*
X0053588Y0162796D01*
X0049935Y0161998D02*
X0096303Y0161998D01*
X0095985Y0161199D02*
X0074190Y0161199D01*
X0073613Y0161777D02*
X0071707Y0161777D01*
X0070785Y0160854D01*
X0069863Y0161777D01*
X0067957Y0161777D01*
X0067035Y0160854D01*
X0066113Y0161777D01*
X0064207Y0161777D01*
X0062860Y0160429D01*
X0062860Y0158524D01*
X0064207Y0157177D01*
X0066113Y0157177D01*
X0067035Y0158099D01*
X0067957Y0157177D01*
X0069863Y0157177D01*
X0070785Y0158099D01*
X0071707Y0157177D01*
X0073613Y0157177D01*
X0074960Y0158524D01*
X0074960Y0160429D01*
X0073613Y0161777D01*
X0074838Y0162796D02*
X0056732Y0162796D01*
X0057460Y0163595D02*
X0074110Y0163595D01*
X0074110Y0163524D02*
X0075457Y0162177D01*
X0077363Y0162177D01*
X0078710Y0163524D01*
X0078710Y0165429D01*
X0077363Y0166777D01*
X0075457Y0166777D01*
X0074110Y0165429D01*
X0074110Y0163524D01*
X0074110Y0164393D02*
X0057460Y0164393D01*
X0057460Y0165192D02*
X0074110Y0165192D01*
X0074671Y0165990D02*
X0056899Y0165990D01*
X0062860Y0160401D02*
X0049935Y0160401D01*
X0049935Y0161199D02*
X0063630Y0161199D01*
X0062860Y0159602D02*
X0049935Y0159602D01*
X0049935Y0158804D02*
X0062860Y0158804D01*
X0063379Y0158005D02*
X0049935Y0158005D01*
X0049935Y0157207D02*
X0064177Y0157207D01*
X0066143Y0157207D02*
X0067927Y0157207D01*
X0067129Y0158005D02*
X0066941Y0158005D01*
X0069893Y0157207D02*
X0071677Y0157207D01*
X0070879Y0158005D02*
X0070691Y0158005D01*
X0073643Y0157207D02*
X0100427Y0157207D01*
X0099735Y0158005D02*
X0074441Y0158005D01*
X0074960Y0158804D02*
X0096955Y0158804D01*
X0096157Y0159602D02*
X0074960Y0159602D01*
X0074960Y0160401D02*
X0095985Y0160401D01*
X0097102Y0162796D02*
X0090482Y0162796D01*
X0087338Y0162796D02*
X0077982Y0162796D01*
X0078710Y0163595D02*
X0086610Y0163595D01*
X0086610Y0164393D02*
X0078710Y0164393D01*
X0078710Y0165192D02*
X0086610Y0165192D01*
X0087171Y0165990D02*
X0078149Y0165990D01*
X0071130Y0161199D02*
X0070440Y0161199D01*
X0067380Y0161199D02*
X0066690Y0161199D01*
X0073485Y0155429D02*
X0073485Y0153524D01*
X0074832Y0152177D01*
X0076738Y0152177D01*
X0078085Y0153524D01*
X0078085Y0155429D01*
X0076738Y0156777D01*
X0074832Y0156777D01*
X0073485Y0155429D01*
X0073665Y0155610D02*
X0058530Y0155610D01*
X0057988Y0156152D02*
X0059335Y0154804D01*
X0059335Y0152899D01*
X0057988Y0151552D01*
X0056082Y0151552D01*
X0054735Y0152899D01*
X0054735Y0154804D01*
X0056082Y0156152D01*
X0057988Y0156152D01*
X0059328Y0154811D02*
X0073485Y0154811D01*
X0073485Y0154013D02*
X0059335Y0154013D01*
X0059335Y0153214D02*
X0073795Y0153214D01*
X0074594Y0152416D02*
X0058852Y0152416D01*
X0058053Y0151617D02*
X0104110Y0151617D01*
X0104110Y0151679D02*
X0104110Y0149774D01*
X0105457Y0148427D01*
X0107363Y0148427D01*
X0108710Y0149774D01*
X0108710Y0151679D01*
X0107363Y0153027D01*
X0105457Y0153027D01*
X0104110Y0151679D01*
X0104110Y0150819D02*
X0049935Y0150819D01*
X0049935Y0151617D02*
X0056017Y0151617D01*
X0055219Y0152416D02*
X0049935Y0152416D01*
X0049935Y0153214D02*
X0054735Y0153214D01*
X0054735Y0154013D02*
X0049935Y0154013D01*
X0049935Y0154811D02*
X0054742Y0154811D01*
X0055540Y0155610D02*
X0049935Y0155610D01*
X0049935Y0156408D02*
X0074464Y0156408D01*
X0077106Y0156408D02*
X0178839Y0156408D01*
X0178485Y0155610D02*
X0153530Y0155610D01*
X0152988Y0156152D02*
X0151082Y0156152D01*
X0149735Y0154804D01*
X0149735Y0152899D01*
X0151082Y0151552D01*
X0152988Y0151552D01*
X0154335Y0152899D01*
X0154335Y0154804D01*
X0152988Y0156152D01*
X0154328Y0154811D02*
X0178485Y0154811D01*
X0178621Y0154013D02*
X0154335Y0154013D01*
X0154335Y0153214D02*
X0179420Y0153214D01*
X0179585Y0152416D02*
X0153852Y0152416D01*
X0153053Y0151617D02*
X0154673Y0151617D01*
X0154110Y0150819D02*
X0146630Y0150819D01*
X0146113Y0150302D02*
X0147460Y0151649D01*
X0147460Y0153554D01*
X0146113Y0154902D01*
X0144207Y0154902D01*
X0142860Y0153554D01*
X0142860Y0151649D01*
X0144207Y0150302D01*
X0146113Y0150302D01*
X0147428Y0151617D02*
X0151017Y0151617D01*
X0150219Y0152416D02*
X0147460Y0152416D01*
X0147460Y0153214D02*
X0149735Y0153214D01*
X0149735Y0154013D02*
X0147002Y0154013D01*
X0146203Y0154811D02*
X0149742Y0154811D01*
X0150540Y0155610D02*
X0077905Y0155610D01*
X0078085Y0154811D02*
X0110367Y0154811D01*
X0110457Y0154902D02*
X0109110Y0153554D01*
X0109110Y0151649D01*
X0110457Y0150302D01*
X0112363Y0150302D01*
X0113710Y0151649D01*
X0113710Y0153554D01*
X0112363Y0154902D01*
X0110457Y0154902D01*
X0109568Y0154013D02*
X0078085Y0154013D01*
X0077775Y0153214D02*
X0109110Y0153214D01*
X0109110Y0152416D02*
X0107974Y0152416D01*
X0108710Y0151617D02*
X0109142Y0151617D01*
X0108710Y0150819D02*
X0109941Y0150819D01*
X0108710Y0150020D02*
X0154110Y0150020D01*
X0154110Y0149222D02*
X0108158Y0149222D01*
X0104663Y0149222D02*
X0049935Y0149222D01*
X0049935Y0150020D02*
X0104110Y0150020D01*
X0104846Y0152416D02*
X0076977Y0152416D01*
X0069605Y0142035D02*
X0090091Y0142035D01*
X0089292Y0141236D02*
X0069960Y0141236D01*
X0069960Y0140438D02*
X0089110Y0140438D01*
X0089110Y0139639D02*
X0069826Y0139639D01*
X0069674Y0138841D02*
X0089418Y0138841D01*
X0090217Y0138042D02*
X0070472Y0138042D01*
X0070585Y0137244D02*
X0075300Y0137244D01*
X0074501Y0136445D02*
X0070585Y0136445D01*
X0070208Y0135647D02*
X0074110Y0135647D01*
X0074110Y0134848D02*
X0072416Y0134848D01*
X0073215Y0134050D02*
X0074209Y0134050D01*
X0073710Y0133251D02*
X0075008Y0133251D01*
X0073710Y0132453D02*
X0076610Y0132453D01*
X0076610Y0131654D02*
X0073710Y0131654D01*
X0072917Y0130856D02*
X0077403Y0130856D01*
X0080417Y0130856D02*
X0102037Y0130856D01*
X0101610Y0130429D02*
X0101610Y0128524D01*
X0102957Y0127177D01*
X0104863Y0127177D01*
X0106210Y0128524D01*
X0106210Y0130429D01*
X0104863Y0131777D01*
X0102957Y0131777D01*
X0101610Y0130429D01*
X0101610Y0130057D02*
X0071210Y0130057D01*
X0071210Y0129259D02*
X0089815Y0129259D01*
X0089110Y0128460D02*
X0070521Y0128460D01*
X0070404Y0134848D02*
X0069409Y0134848D01*
X0078710Y0135647D02*
X0120815Y0135647D01*
X0120016Y0134848D02*
X0079916Y0134848D01*
X0080715Y0134050D02*
X0119664Y0134050D01*
X0119385Y0133251D02*
X0081210Y0133251D01*
X0081210Y0132453D02*
X0119385Y0132453D01*
X0119456Y0131654D02*
X0104985Y0131654D01*
X0105784Y0130856D02*
X0119787Y0130856D01*
X0120314Y0130057D02*
X0106210Y0130057D01*
X0106210Y0129259D02*
X0121164Y0129259D01*
X0127499Y0140438D02*
X0142244Y0140438D01*
X0141835Y0143632D02*
X0152938Y0143632D01*
X0154883Y0143632D02*
X0155877Y0143632D01*
X0155681Y0142833D02*
X0160264Y0142833D01*
X0159735Y0142035D02*
X0156210Y0142035D01*
X0156210Y0141236D02*
X0159735Y0141236D01*
X0159735Y0140438D02*
X0156210Y0140438D01*
X0155451Y0139639D02*
X0160495Y0139639D01*
X0162860Y0138841D02*
X0154674Y0138841D01*
X0154960Y0138042D02*
X0162860Y0138042D01*
X0162890Y0137244D02*
X0154960Y0137244D01*
X0154756Y0136445D02*
X0163689Y0136445D01*
X0161063Y0143632D02*
X0158193Y0143632D01*
X0155079Y0144430D02*
X0141835Y0144430D01*
X0141835Y0145229D02*
X0154735Y0145229D01*
X0154735Y0146027D02*
X0141237Y0146027D01*
X0137833Y0146027D02*
X0049935Y0146027D01*
X0049935Y0145229D02*
X0137235Y0145229D01*
X0142892Y0151617D02*
X0113678Y0151617D01*
X0113710Y0152416D02*
X0142860Y0152416D01*
X0142860Y0153214D02*
X0113710Y0153214D01*
X0113252Y0154013D02*
X0143318Y0154013D01*
X0144117Y0154811D02*
X0112453Y0154811D01*
X0112880Y0150819D02*
X0143691Y0150819D01*
X0145577Y0140438D02*
X0145994Y0140438D01*
X0147610Y0134848D02*
X0177085Y0134848D01*
X0177085Y0134050D02*
X0147610Y0134050D01*
X0147610Y0133251D02*
X0177085Y0133251D01*
X0177085Y0132453D02*
X0151062Y0132453D01*
X0151835Y0131654D02*
X0177085Y0131654D01*
X0177085Y0130856D02*
X0151835Y0130856D01*
X0151835Y0130057D02*
X0177085Y0130057D01*
X0177085Y0129259D02*
X0151320Y0129259D01*
X0150521Y0128460D02*
X0177085Y0128460D01*
X0177085Y0127662D02*
X0157728Y0127662D01*
X0157363Y0128027D02*
X0155457Y0128027D01*
X0154110Y0126679D01*
X0154110Y0124774D01*
X0155032Y0123852D01*
X0154110Y0122929D01*
X0154110Y0121024D01*
X0155457Y0119677D01*
X0157363Y0119677D01*
X0158710Y0121024D01*
X0158710Y0122929D01*
X0157788Y0123852D01*
X0158710Y0124774D01*
X0158710Y0126679D01*
X0157363Y0128027D01*
X0158526Y0126863D02*
X0177085Y0126863D01*
X0177085Y0126065D02*
X0158710Y0126065D01*
X0158710Y0125266D02*
X0177085Y0125266D01*
X0177085Y0124468D02*
X0158404Y0124468D01*
X0157970Y0123669D02*
X0177085Y0123669D01*
X0177085Y0122871D02*
X0158710Y0122871D01*
X0158710Y0122072D02*
X0177085Y0122072D01*
X0174329Y0121274D02*
X0172241Y0121274D01*
X0171738Y0121777D02*
X0169832Y0121777D01*
X0168485Y0120429D01*
X0168485Y0118524D01*
X0169832Y0117177D01*
X0171738Y0117177D01*
X0173085Y0118524D01*
X0173085Y0120429D01*
X0171738Y0121777D01*
X0173039Y0120475D02*
X0173531Y0120475D01*
X0173485Y0119677D02*
X0173085Y0119677D01*
X0173085Y0118878D02*
X0173485Y0118878D01*
X0173930Y0118080D02*
X0172641Y0118080D01*
X0171842Y0117281D02*
X0174728Y0117281D01*
X0176842Y0117281D02*
X0177085Y0117281D01*
X0177085Y0116483D02*
X0147610Y0116483D01*
X0147610Y0117281D02*
X0169728Y0117281D01*
X0168930Y0118080D02*
X0147610Y0118080D01*
X0147610Y0118878D02*
X0168485Y0118878D01*
X0168485Y0119677D02*
X0147610Y0119677D01*
X0147610Y0120475D02*
X0154659Y0120475D01*
X0154110Y0121274D02*
X0147610Y0121274D01*
X0147610Y0122072D02*
X0154110Y0122072D01*
X0154110Y0122871D02*
X0147610Y0122871D01*
X0147610Y0123669D02*
X0154850Y0123669D01*
X0154416Y0124468D02*
X0147610Y0124468D01*
X0147610Y0125266D02*
X0154110Y0125266D01*
X0154110Y0126065D02*
X0147610Y0126065D01*
X0147610Y0126863D02*
X0154294Y0126863D01*
X0155093Y0127662D02*
X0147610Y0127662D01*
X0147610Y0128460D02*
X0148549Y0128460D01*
X0147750Y0129259D02*
X0147610Y0129259D01*
X0145210Y0128460D02*
X0106146Y0128460D01*
X0105348Y0127662D02*
X0145210Y0127662D01*
X0145210Y0125266D02*
X0136136Y0125266D01*
X0136734Y0124468D02*
X0145210Y0124468D01*
X0145210Y0123669D02*
X0137064Y0123669D01*
X0137185Y0122871D02*
X0145210Y0122871D01*
X0145210Y0122072D02*
X0137185Y0122072D01*
X0136956Y0121274D02*
X0145210Y0121274D01*
X0145210Y0120475D02*
X0136626Y0120475D01*
X0135876Y0119677D02*
X0145210Y0119677D01*
X0145210Y0115684D02*
X0135718Y0115684D01*
X0136517Y0114886D02*
X0145210Y0114886D01*
X0145210Y0114087D02*
X0136891Y0114087D01*
X0137185Y0113289D02*
X0145210Y0113289D01*
X0145210Y0112490D02*
X0137185Y0112490D01*
X0137129Y0111691D02*
X0145210Y0111691D01*
X0145210Y0110893D02*
X0136799Y0110893D01*
X0136293Y0110094D02*
X0145210Y0110094D01*
X0144852Y0109296D02*
X0135495Y0109296D01*
X0135026Y0106102D02*
X0144657Y0106102D01*
X0144110Y0106900D02*
X0049935Y0106900D01*
X0049935Y0106102D02*
X0121544Y0106102D01*
X0120471Y0105303D02*
X0049935Y0105303D01*
X0056738Y0119677D02*
X0085457Y0119677D01*
X0086835Y0123669D02*
X0089110Y0123669D01*
X0089110Y0124468D02*
X0086835Y0124468D01*
X0086373Y0125266D02*
X0089110Y0125266D01*
X0089694Y0126065D02*
X0085575Y0126065D01*
X0083526Y0126863D02*
X0089110Y0126863D01*
X0089110Y0127662D02*
X0082728Y0127662D01*
X0081210Y0131654D02*
X0102835Y0131654D01*
X0101610Y0129259D02*
X0093006Y0129259D01*
X0093710Y0128460D02*
X0101674Y0128460D01*
X0102472Y0127662D02*
X0093710Y0127662D01*
X0089763Y0122871D02*
X0088769Y0122871D01*
X0119323Y0111691D02*
X0119441Y0111691D01*
X0119960Y0110094D02*
X0120277Y0110094D01*
X0119960Y0109296D02*
X0121075Y0109296D01*
X0136099Y0105303D02*
X0145456Y0105303D01*
X0147365Y0105303D02*
X0223800Y0105303D01*
X0223800Y0104505D02*
X0136718Y0104505D01*
X0148163Y0106102D02*
X0170907Y0106102D01*
X0171082Y0105927D02*
X0172988Y0105927D01*
X0174335Y0107274D01*
X0174335Y0109179D01*
X0172988Y0110527D01*
X0171835Y0110527D01*
X0171835Y0111679D01*
X0170488Y0113027D01*
X0168582Y0113027D01*
X0167235Y0111679D01*
X0167235Y0109774D01*
X0168582Y0108427D01*
X0169735Y0108427D01*
X0169735Y0107274D01*
X0171082Y0105927D01*
X0170109Y0106900D02*
X0148710Y0106900D01*
X0148710Y0107699D02*
X0169735Y0107699D01*
X0168512Y0108497D02*
X0148710Y0108497D01*
X0147968Y0109296D02*
X0167713Y0109296D01*
X0167235Y0110094D02*
X0147610Y0110094D01*
X0147610Y0110893D02*
X0167235Y0110893D01*
X0167247Y0111691D02*
X0147610Y0111691D01*
X0147610Y0112490D02*
X0168046Y0112490D01*
X0171024Y0112490D02*
X0178485Y0112490D01*
X0178485Y0113289D02*
X0147610Y0113289D01*
X0147610Y0114087D02*
X0177603Y0114087D01*
X0177085Y0114886D02*
X0147610Y0114886D01*
X0147610Y0115684D02*
X0177085Y0115684D01*
X0179068Y0111691D02*
X0171823Y0111691D01*
X0171835Y0110893D02*
X0223800Y0110893D01*
X0223800Y0111691D02*
X0182503Y0111691D01*
X0183085Y0112490D02*
X0223800Y0112490D01*
X0223800Y0113289D02*
X0183085Y0113289D01*
X0184898Y0114087D02*
X0223800Y0114087D01*
X0223800Y0114886D02*
X0185585Y0114886D01*
X0185585Y0115684D02*
X0223800Y0115684D01*
X0223800Y0116483D02*
X0185585Y0116483D01*
X0184983Y0117281D02*
X0223800Y0117281D01*
X0223800Y0118080D02*
X0201391Y0118080D01*
X0201113Y0117802D02*
X0202460Y0119149D01*
X0202460Y0121054D01*
X0201113Y0122402D01*
X0199207Y0122402D01*
X0197860Y0121054D01*
X0197860Y0119149D01*
X0199207Y0117802D01*
X0201113Y0117802D01*
X0202189Y0118878D02*
X0223800Y0118878D01*
X0223800Y0119677D02*
X0223613Y0119677D01*
X0220457Y0119677D02*
X0202460Y0119677D01*
X0202460Y0120475D02*
X0219735Y0120475D01*
X0219735Y0121274D02*
X0202241Y0121274D01*
X0201442Y0122072D02*
X0219735Y0122072D01*
X0220301Y0122871D02*
X0181588Y0122871D01*
X0180790Y0123669D02*
X0223800Y0123669D01*
X0223769Y0122871D02*
X0223800Y0122871D01*
X0223800Y0124468D02*
X0180735Y0124468D01*
X0180735Y0125266D02*
X0223800Y0125266D01*
X0223800Y0126065D02*
X0180735Y0126065D01*
X0180735Y0126863D02*
X0223800Y0126863D01*
X0223800Y0127662D02*
X0180735Y0127662D01*
X0180735Y0128460D02*
X0181674Y0128460D01*
X0180875Y0129259D02*
X0180735Y0129259D01*
X0183646Y0128460D02*
X0223800Y0128460D01*
X0223800Y0129259D02*
X0184445Y0129259D01*
X0184960Y0130057D02*
X0223800Y0130057D01*
X0223800Y0130856D02*
X0184960Y0130856D01*
X0184960Y0131654D02*
X0223800Y0131654D01*
X0223800Y0132453D02*
X0184187Y0132453D01*
X0181134Y0132453D02*
X0180735Y0132453D01*
X0180735Y0133251D02*
X0223800Y0133251D01*
X0223800Y0134050D02*
X0180735Y0134050D01*
X0180735Y0134848D02*
X0223800Y0134848D01*
X0223800Y0110094D02*
X0173420Y0110094D01*
X0174218Y0109296D02*
X0223800Y0109296D01*
X0223800Y0108497D02*
X0174335Y0108497D01*
X0174335Y0107699D02*
X0223800Y0107699D01*
X0223800Y0106900D02*
X0173962Y0106900D01*
X0173163Y0106102D02*
X0223800Y0106102D01*
X0203395Y0099714D02*
X0161150Y0099714D01*
X0160351Y0098915D02*
X0202596Y0098915D01*
X0193534Y0091729D02*
X0165585Y0091729D01*
X0165585Y0090930D02*
X0192860Y0090930D01*
X0192860Y0090132D02*
X0165318Y0090132D01*
X0164519Y0089333D02*
X0192860Y0089333D01*
X0206707Y0074902D02*
X0205360Y0073554D01*
X0205360Y0071649D01*
X0206707Y0070302D01*
X0208613Y0070302D01*
X0209960Y0071649D01*
X0209960Y0073554D01*
X0208613Y0074902D01*
X0206707Y0074902D01*
X0205967Y0074161D02*
X0114348Y0074161D01*
X0115146Y0074960D02*
X0223800Y0074960D01*
X0223800Y0074161D02*
X0209353Y0074161D01*
X0209960Y0073363D02*
X0223800Y0073363D01*
X0223800Y0072564D02*
X0209960Y0072564D01*
X0209960Y0071766D02*
X0223800Y0071766D01*
X0223800Y0070967D02*
X0209279Y0070967D01*
X0206042Y0070967D02*
X0205047Y0070967D01*
X0205585Y0070429D02*
X0204238Y0071777D01*
X0202332Y0071777D01*
X0200985Y0070429D01*
X0200985Y0068524D01*
X0202332Y0067177D01*
X0204238Y0067177D01*
X0205585Y0068524D01*
X0205585Y0070429D01*
X0205585Y0070169D02*
X0223800Y0070169D01*
X0223800Y0069370D02*
X0205585Y0069370D01*
X0205585Y0068572D02*
X0223800Y0068572D01*
X0223800Y0067773D02*
X0204835Y0067773D01*
X0201736Y0067773D02*
X0183585Y0067773D01*
X0183710Y0067899D02*
X0183710Y0069804D01*
X0182363Y0071152D01*
X0180457Y0071152D01*
X0179535Y0070229D01*
X0178613Y0071152D01*
X0176707Y0071152D01*
X0175360Y0069804D01*
X0175360Y0067899D01*
X0176707Y0066552D01*
X0178613Y0066552D01*
X0179535Y0067474D01*
X0180457Y0066552D01*
X0182363Y0066552D01*
X0183710Y0067899D01*
X0183710Y0068572D02*
X0200985Y0068572D01*
X0200985Y0069370D02*
X0183710Y0069370D01*
X0183346Y0070169D02*
X0200985Y0070169D01*
X0201523Y0070967D02*
X0182547Y0070967D01*
X0180273Y0070967D02*
X0178797Y0070967D01*
X0176523Y0070967D02*
X0049935Y0070967D01*
X0049935Y0070169D02*
X0170100Y0070169D01*
X0170457Y0070527D02*
X0169110Y0069179D01*
X0169110Y0067274D01*
X0170457Y0065927D01*
X0172363Y0065927D01*
X0173710Y0067274D01*
X0173710Y0069179D01*
X0172363Y0070527D01*
X0170457Y0070527D01*
X0169301Y0069370D02*
X0049935Y0069370D01*
X0049935Y0068572D02*
X0169110Y0068572D01*
X0169110Y0067773D02*
X0049935Y0067773D01*
X0049935Y0066975D02*
X0169409Y0066975D01*
X0170208Y0066176D02*
X0049935Y0066176D01*
X0049935Y0065378D02*
X0223800Y0065378D01*
X0223800Y0066176D02*
X0172612Y0066176D01*
X0173411Y0066975D02*
X0176284Y0066975D01*
X0175486Y0067773D02*
X0173710Y0067773D01*
X0173710Y0068572D02*
X0175360Y0068572D01*
X0175360Y0069370D02*
X0173519Y0069370D01*
X0172721Y0070169D02*
X0175725Y0070169D01*
X0179036Y0066975D02*
X0180034Y0066975D01*
X0182786Y0066975D02*
X0223800Y0066975D01*
X0223800Y0064579D02*
X0049935Y0064579D01*
X0049935Y0063781D02*
X0223800Y0063781D01*
X0223800Y0062982D02*
X0049935Y0062982D01*
X0049935Y0062184D02*
X0223800Y0062184D01*
X0223800Y0061385D02*
X0071504Y0061385D01*
X0072303Y0060587D02*
X0223800Y0060587D01*
X0223800Y0059788D02*
X0072460Y0059788D01*
X0072460Y0058990D02*
X0223800Y0058990D01*
X0223800Y0058191D02*
X0210323Y0058191D01*
X0211122Y0057393D02*
X0223800Y0057393D01*
X0223800Y0056594D02*
X0211210Y0056594D01*
X0211210Y0055796D02*
X0223800Y0055796D01*
X0223800Y0054997D02*
X0210808Y0054997D01*
X0207497Y0058191D02*
X0206573Y0058191D01*
X0203747Y0058191D02*
X0163448Y0058191D01*
X0164247Y0057393D02*
X0202949Y0057393D01*
X0202860Y0056594D02*
X0164335Y0056594D01*
X0164335Y0055796D02*
X0202860Y0055796D01*
X0203262Y0054997D02*
X0163933Y0054997D01*
X0160137Y0054997D02*
X0072058Y0054997D01*
X0072460Y0055796D02*
X0159735Y0055796D01*
X0159735Y0056594D02*
X0072460Y0056594D01*
X0072372Y0057393D02*
X0159824Y0057393D01*
X0160622Y0058191D02*
X0072127Y0058191D01*
X0063816Y0061385D02*
X0049935Y0061385D01*
X0049935Y0060587D02*
X0063018Y0060587D01*
X0062860Y0059788D02*
X0049935Y0059788D01*
X0049935Y0058990D02*
X0062860Y0058990D01*
X0063193Y0058191D02*
X0049935Y0058191D01*
X0049935Y0057393D02*
X0062949Y0057393D01*
X0062860Y0056594D02*
X0049935Y0056594D01*
X0049935Y0055796D02*
X0062860Y0055796D01*
X0063262Y0054997D02*
X0049935Y0054997D01*
X0049935Y0071766D02*
X0202322Y0071766D01*
X0204249Y0071766D02*
X0205360Y0071766D01*
X0205360Y0072564D02*
X0049935Y0072564D01*
X0049935Y0073363D02*
X0205360Y0073363D01*
X0169682Y0079751D02*
X0169388Y0079751D01*
X0161208Y0092527D02*
X0148338Y0092527D01*
X0149137Y0093326D02*
X0162007Y0093326D01*
X0145835Y0080550D02*
X0115585Y0080550D01*
X0115585Y0081348D02*
X0145036Y0081348D01*
X0112223Y0074161D02*
X0111848Y0074161D01*
X0109723Y0074161D02*
X0049935Y0074161D01*
X0049935Y0074960D02*
X0073924Y0074960D01*
X0074207Y0074677D02*
X0076113Y0074677D01*
X0077460Y0076024D01*
X0077460Y0077929D01*
X0076113Y0079277D01*
X0074207Y0079277D01*
X0072860Y0077929D01*
X0072860Y0076024D01*
X0074207Y0074677D01*
X0073126Y0075758D02*
X0049935Y0075758D01*
X0049935Y0076557D02*
X0072860Y0076557D01*
X0072860Y0077356D02*
X0049935Y0077356D01*
X0049935Y0078154D02*
X0073085Y0078154D01*
X0073883Y0078953D02*
X0049935Y0078953D01*
X0049935Y0079751D02*
X0108485Y0079751D01*
X0108485Y0078953D02*
X0076437Y0078953D01*
X0077235Y0078154D02*
X0108485Y0078154D01*
X0108536Y0077356D02*
X0077460Y0077356D01*
X0077460Y0076557D02*
X0108485Y0076557D01*
X0108485Y0075758D02*
X0077195Y0075758D01*
X0076396Y0074960D02*
X0108924Y0074960D01*
X0108485Y0080550D02*
X0049935Y0080550D01*
X0049935Y0081348D02*
X0108485Y0081348D01*
X0088439Y0082945D02*
X0082506Y0082945D01*
X0083305Y0083744D02*
X0087640Y0083744D01*
X0087235Y0084542D02*
X0083710Y0084542D01*
X0083710Y0085341D02*
X0087235Y0085341D01*
X0087320Y0086139D02*
X0083625Y0086139D01*
X0082827Y0086938D02*
X0088118Y0086938D01*
X0049935Y0146826D02*
X0154882Y0146826D01*
X0155680Y0147625D02*
X0049935Y0147625D01*
X0049935Y0148423D02*
X0154836Y0148423D01*
X0158147Y0151617D02*
X0179585Y0151617D01*
X0179585Y0150819D02*
X0158710Y0150819D01*
X0158710Y0150020D02*
X0179585Y0150020D01*
X0178833Y0149222D02*
X0158710Y0149222D01*
X0148009Y0132453D02*
X0147610Y0132453D01*
X0158161Y0120475D02*
X0168531Y0120475D01*
X0169329Y0121274D02*
X0158710Y0121274D01*
X0182387Y0122072D02*
X0198878Y0122072D01*
X0198079Y0121274D02*
X0183185Y0121274D01*
X0183984Y0120475D02*
X0197860Y0120475D01*
X0197860Y0119677D02*
X0184485Y0119677D01*
X0184485Y0118878D02*
X0198131Y0118878D01*
X0198930Y0118080D02*
X0184485Y0118080D01*
X0099735Y0158804D02*
X0099615Y0158804D01*
D14*
X0146410Y0138227D02*
X0146410Y0107602D01*
X0146410Y0138227D02*
X0147660Y0138852D01*
X0178285Y0146977D02*
X0178285Y0115102D01*
X0180785Y0113227D01*
X0183285Y0115727D02*
X0183285Y0119477D01*
X0179535Y0123227D01*
X0179535Y0146352D01*
X0183285Y0150102D01*
X0183285Y0151977D01*
X0180785Y0149477D02*
X0180785Y0155102D01*
X0180785Y0149477D02*
X0178285Y0146977D01*
M02*
