G75*
%MOIN*%
%OFA0B0*%
%FSLAX25Y25*%
%IPPOS*%
%LPD*%
%AMOC8*
5,1,8,0,0,1.08239X$1,22.5*
%
%ADD10C,0.01000*%
%ADD11C,0.00700*%
%ADD12C,0.00500*%
%ADD13C,0.00800*%
%ADD14C,0.00400*%
%ADD15R,0.03400X0.03000*%
%ADD16R,0.03544X0.11023*%
%ADD17C,0.00000*%
D10*
X0069449Y0233598D02*
X0069449Y0245609D01*
X0063444Y0245609D01*
X0061442Y0243607D01*
X0061442Y0239603D01*
X0063444Y0237602D01*
X0069449Y0237602D01*
X0073412Y0239603D02*
X0075414Y0237602D01*
X0081419Y0237602D01*
X0079417Y0241605D02*
X0081419Y0243607D01*
X0079417Y0245609D01*
X0073412Y0245609D01*
X0075414Y0241605D02*
X0079417Y0241605D01*
X0075414Y0241605D02*
X0073412Y0239603D01*
X0085383Y0239603D02*
X0087384Y0237602D01*
X0091388Y0237602D01*
X0093389Y0239603D01*
X0091388Y0243607D02*
X0085383Y0243607D01*
X0085383Y0247610D02*
X0085383Y0239603D01*
X0091388Y0243607D02*
X0093389Y0245609D01*
X0093389Y0247610D01*
X0091388Y0249612D01*
X0087384Y0249612D01*
X0085383Y0247610D01*
X0097353Y0243607D02*
X0105360Y0243607D01*
X0099354Y0249612D01*
X0099354Y0237602D01*
X0109323Y0237602D02*
X0117330Y0237602D01*
X0117330Y0249612D01*
X0121293Y0247610D02*
X0121293Y0245609D01*
X0123295Y0243607D01*
X0129300Y0243607D01*
X0133263Y0245609D02*
X0141270Y0237602D01*
X0145234Y0239603D02*
X0145234Y0243607D01*
X0147235Y0245609D01*
X0151239Y0245609D01*
X0153241Y0243607D01*
X0153241Y0239603D01*
X0151239Y0237602D01*
X0147235Y0237602D01*
X0145234Y0239603D01*
X0141270Y0245609D02*
X0133263Y0237602D01*
X0129300Y0237602D02*
X0123295Y0237602D01*
X0121293Y0239603D01*
X0121293Y0241605D01*
X0123295Y0243607D01*
X0121293Y0247610D02*
X0123295Y0249612D01*
X0129300Y0249612D01*
X0129300Y0237602D01*
X0157204Y0239603D02*
X0157204Y0243607D01*
X0159206Y0245609D01*
X0165211Y0245609D01*
X0165211Y0249612D02*
X0165211Y0237602D01*
X0159206Y0237602D01*
X0157204Y0239603D01*
X0169174Y0237602D02*
X0177181Y0237602D01*
X0169174Y0245609D01*
X0177181Y0245609D01*
X0181158Y0245609D02*
X0185161Y0245609D01*
X0183159Y0247610D02*
X0183159Y0239603D01*
X0181158Y0237602D01*
X0189138Y0237602D02*
X0193141Y0237602D01*
X0191140Y0237602D02*
X0191140Y0245609D01*
X0193141Y0245609D01*
X0191140Y0249612D02*
X0191140Y0251614D01*
X0199120Y0249612D02*
X0199120Y0237602D01*
X0201121Y0237602D02*
X0197118Y0237602D01*
X0205085Y0239603D02*
X0207086Y0237602D01*
X0213092Y0237602D01*
X0213092Y0249612D01*
X0207086Y0249612D01*
X0205085Y0247610D01*
X0205085Y0245609D01*
X0207086Y0243607D01*
X0213092Y0243607D01*
X0207086Y0243607D02*
X0205085Y0241605D01*
X0205085Y0239603D01*
X0201121Y0249612D02*
X0199120Y0249612D01*
D11*
X0178942Y0251836D02*
X0177558Y0250452D01*
X0174789Y0250452D01*
X0173404Y0251836D01*
X0173404Y0254605D01*
X0174789Y0255990D01*
X0177558Y0255990D01*
X0178942Y0254605D01*
X0178942Y0251836D01*
X0170655Y0251836D02*
X0170655Y0254605D01*
X0169271Y0255990D01*
X0166502Y0255990D01*
X0165117Y0254605D01*
X0165117Y0253221D01*
X0170655Y0253221D01*
X0170655Y0251836D02*
X0169271Y0250452D01*
X0166502Y0250452D01*
X0162368Y0250452D02*
X0159599Y0250452D01*
X0160984Y0250452D02*
X0160984Y0258759D01*
X0162368Y0258759D01*
X0156843Y0255990D02*
X0152690Y0255990D01*
X0151305Y0254605D01*
X0151305Y0251836D01*
X0152690Y0250452D01*
X0156843Y0250452D01*
X0156843Y0247683D02*
X0156843Y0255990D01*
X0148556Y0255990D02*
X0148556Y0250452D01*
X0148556Y0253221D02*
X0145787Y0255990D01*
X0144403Y0255990D01*
X0141650Y0255990D02*
X0140266Y0255990D01*
X0140266Y0250452D01*
X0141650Y0250452D02*
X0138881Y0250452D01*
X0136126Y0250452D02*
X0136126Y0255990D01*
X0131972Y0255990D01*
X0130588Y0254605D01*
X0130588Y0250452D01*
X0127839Y0250452D02*
X0122301Y0250452D01*
X0119552Y0250452D02*
X0118167Y0250452D01*
X0118167Y0251836D01*
X0119552Y0251836D01*
X0119552Y0250452D01*
X0115408Y0251836D02*
X0114024Y0250452D01*
X0111254Y0250452D01*
X0109870Y0251836D01*
X0109870Y0254605D01*
X0111254Y0255990D01*
X0114024Y0255990D01*
X0115408Y0254605D01*
X0115408Y0251836D01*
X0122301Y0255990D02*
X0127839Y0250452D01*
X0127839Y0255990D02*
X0122301Y0255990D01*
X0107121Y0255990D02*
X0107121Y0250452D01*
X0107121Y0253221D02*
X0104352Y0255990D01*
X0102967Y0255990D01*
X0100215Y0254605D02*
X0100215Y0251836D01*
X0098831Y0250452D01*
X0094677Y0250452D01*
X0094677Y0249067D02*
X0094677Y0255990D01*
X0098831Y0255990D01*
X0100215Y0254605D01*
X0097446Y0247683D02*
X0096062Y0247683D01*
X0094677Y0249067D01*
X0140266Y0258759D02*
X0140266Y0260143D01*
D12*
X0048285Y0269137D02*
X0048285Y0052602D01*
X0225450Y0052602D01*
X0225450Y0269137D01*
X0048285Y0269137D01*
D13*
X0180802Y0180810D02*
X0180802Y0145362D01*
X0219518Y0145362D01*
X0219518Y0180810D01*
D14*
X0211630Y0194775D02*
X0210582Y0195056D01*
X0208663Y0198378D01*
X0207999Y0197995D02*
X0209328Y0198762D01*
X0206670Y0197227D02*
X0206108Y0195131D01*
X0204012Y0195693D01*
X0206314Y0191706D01*
X0204985Y0190938D02*
X0202683Y0194925D01*
X0200689Y0193774D01*
X0200408Y0192726D01*
X0201176Y0191397D01*
X0202224Y0191116D01*
X0204217Y0192267D01*
X0200997Y0188636D02*
X0196805Y0189760D01*
X0196421Y0190424D01*
X0196702Y0191472D01*
X0198031Y0192240D01*
X0199079Y0191959D01*
X0200997Y0188636D02*
X0198339Y0187102D01*
X0208972Y0193240D02*
X0206670Y0197227D01*
X0211630Y0194775D02*
X0212294Y0195159D01*
X0212575Y0196207D01*
X0216752Y0144454D02*
X0215985Y0143686D01*
X0215985Y0142152D01*
X0216752Y0141385D01*
X0219822Y0144454D01*
X0216752Y0144454D01*
X0216752Y0141385D02*
X0219822Y0141385D01*
X0220589Y0142152D01*
X0220589Y0143686D01*
X0219822Y0144454D01*
X0215985Y0139850D02*
X0215985Y0136781D01*
X0215985Y0138315D02*
X0220589Y0138315D01*
X0219054Y0136781D01*
X0218287Y0135246D02*
X0217520Y0134479D01*
X0217520Y0132177D01*
X0217662Y0133544D02*
X0217662Y0130475D01*
X0219964Y0132777D01*
X0215360Y0132777D01*
X0215985Y0132177D02*
X0220589Y0132177D01*
X0220589Y0134479D01*
X0219822Y0135246D01*
X0218287Y0135246D01*
X0217520Y0133711D02*
X0215985Y0135246D01*
X0216127Y0128940D02*
X0215360Y0128173D01*
X0215360Y0126638D01*
X0216127Y0125871D01*
X0219197Y0125871D01*
X0219964Y0126638D01*
X0219964Y0128173D01*
X0219197Y0128940D01*
X0219964Y0124336D02*
X0219964Y0122802D01*
X0219964Y0123569D02*
X0215360Y0123569D01*
X0215360Y0122802D02*
X0215360Y0124336D01*
X0208897Y0089039D02*
X0205828Y0089039D01*
X0207362Y0089039D02*
X0207362Y0084436D01*
X0204293Y0084436D02*
X0204293Y0089039D01*
X0201991Y0089039D01*
X0201224Y0088272D01*
X0201224Y0086737D01*
X0201991Y0085970D01*
X0204293Y0085970D01*
X0199689Y0084436D02*
X0196620Y0087505D01*
X0196620Y0088272D01*
X0197387Y0089039D01*
X0198922Y0089039D01*
X0199689Y0088272D01*
X0198897Y0089039D02*
X0195828Y0089039D01*
X0197362Y0089039D02*
X0197362Y0084436D01*
X0196620Y0084436D02*
X0199689Y0084436D01*
X0194293Y0084436D02*
X0194293Y0089039D01*
X0191991Y0089039D01*
X0191224Y0088272D01*
X0191224Y0086737D01*
X0191991Y0085970D01*
X0194293Y0085970D01*
X0189689Y0085203D02*
X0188922Y0084436D01*
X0187387Y0084436D01*
X0186620Y0085203D01*
X0186620Y0088272D01*
X0187387Y0089039D01*
X0188922Y0089039D01*
X0189689Y0088272D01*
X0189689Y0087505D01*
X0188922Y0086737D01*
X0186620Y0086737D01*
X0187362Y0084436D02*
X0187362Y0089039D01*
X0185828Y0089039D02*
X0188897Y0089039D01*
X0184293Y0089039D02*
X0184293Y0084436D01*
X0184293Y0085970D02*
X0181991Y0085970D01*
X0181224Y0086737D01*
X0181224Y0088272D01*
X0181991Y0089039D01*
X0184293Y0089039D01*
X0179689Y0087505D02*
X0178155Y0089039D01*
X0178155Y0084436D01*
X0179689Y0084436D02*
X0176620Y0084436D01*
X0118070Y0164802D02*
X0117303Y0165569D01*
X0117303Y0166336D01*
X0118070Y0167104D01*
X0121907Y0167104D01*
X0121907Y0167871D02*
X0121907Y0166336D01*
X0121907Y0169406D02*
X0120372Y0170940D01*
X0121907Y0172475D01*
X0117303Y0172475D01*
X0117303Y0174010D02*
X0121907Y0174010D01*
X0121907Y0176311D01*
X0121140Y0177079D01*
X0119605Y0177079D01*
X0118838Y0176311D01*
X0118838Y0174010D01*
X0120372Y0178613D02*
X0121907Y0180148D01*
X0117303Y0180148D01*
X0117303Y0178613D02*
X0117303Y0181683D01*
X0117303Y0169406D02*
X0121907Y0169406D01*
D15*
X0200160Y0143698D03*
D16*
X0190160Y0139452D03*
X0210160Y0139452D03*
D17*
X0206159Y0255358D02*
X0206161Y0255519D01*
X0206167Y0255679D01*
X0206177Y0255840D01*
X0206191Y0256000D01*
X0206209Y0256159D01*
X0206230Y0256319D01*
X0206256Y0256477D01*
X0206286Y0256635D01*
X0206319Y0256792D01*
X0206357Y0256949D01*
X0206398Y0257104D01*
X0206443Y0257258D01*
X0206492Y0257411D01*
X0206545Y0257563D01*
X0206601Y0257713D01*
X0206661Y0257862D01*
X0206725Y0258010D01*
X0206792Y0258156D01*
X0206863Y0258300D01*
X0206938Y0258442D01*
X0207016Y0258583D01*
X0207097Y0258721D01*
X0207182Y0258858D01*
X0207271Y0258992D01*
X0207362Y0259124D01*
X0207457Y0259254D01*
X0207555Y0259381D01*
X0207656Y0259506D01*
X0207760Y0259629D01*
X0207867Y0259748D01*
X0207977Y0259865D01*
X0208090Y0259980D01*
X0208206Y0260091D01*
X0208324Y0260200D01*
X0208445Y0260305D01*
X0208569Y0260408D01*
X0208695Y0260508D01*
X0208824Y0260604D01*
X0208955Y0260697D01*
X0209088Y0260787D01*
X0209223Y0260874D01*
X0209361Y0260957D01*
X0209500Y0261036D01*
X0209642Y0261113D01*
X0209785Y0261186D01*
X0209930Y0261255D01*
X0210077Y0261320D01*
X0210225Y0261382D01*
X0210375Y0261441D01*
X0210526Y0261495D01*
X0210678Y0261546D01*
X0210832Y0261593D01*
X0210987Y0261636D01*
X0211142Y0261675D01*
X0211299Y0261711D01*
X0211457Y0261743D01*
X0211615Y0261770D01*
X0211774Y0261794D01*
X0211933Y0261814D01*
X0212093Y0261830D01*
X0212254Y0261842D01*
X0212414Y0261850D01*
X0212575Y0261854D01*
X0212735Y0261854D01*
X0212896Y0261850D01*
X0213056Y0261842D01*
X0213217Y0261830D01*
X0213377Y0261814D01*
X0213536Y0261794D01*
X0213695Y0261770D01*
X0213853Y0261743D01*
X0214011Y0261711D01*
X0214168Y0261675D01*
X0214323Y0261636D01*
X0214478Y0261593D01*
X0214632Y0261546D01*
X0214784Y0261495D01*
X0214935Y0261441D01*
X0215085Y0261382D01*
X0215233Y0261320D01*
X0215380Y0261255D01*
X0215525Y0261186D01*
X0215668Y0261113D01*
X0215810Y0261036D01*
X0215949Y0260957D01*
X0216087Y0260874D01*
X0216222Y0260787D01*
X0216355Y0260697D01*
X0216486Y0260604D01*
X0216615Y0260508D01*
X0216741Y0260408D01*
X0216865Y0260305D01*
X0216986Y0260200D01*
X0217104Y0260091D01*
X0217220Y0259980D01*
X0217333Y0259865D01*
X0217443Y0259748D01*
X0217550Y0259629D01*
X0217654Y0259506D01*
X0217755Y0259381D01*
X0217853Y0259254D01*
X0217948Y0259124D01*
X0218039Y0258992D01*
X0218128Y0258858D01*
X0218213Y0258721D01*
X0218294Y0258583D01*
X0218372Y0258442D01*
X0218447Y0258300D01*
X0218518Y0258156D01*
X0218585Y0258010D01*
X0218649Y0257862D01*
X0218709Y0257713D01*
X0218765Y0257563D01*
X0218818Y0257411D01*
X0218867Y0257258D01*
X0218912Y0257104D01*
X0218953Y0256949D01*
X0218991Y0256792D01*
X0219024Y0256635D01*
X0219054Y0256477D01*
X0219080Y0256319D01*
X0219101Y0256159D01*
X0219119Y0256000D01*
X0219133Y0255840D01*
X0219143Y0255679D01*
X0219149Y0255519D01*
X0219151Y0255358D01*
X0219149Y0255197D01*
X0219143Y0255037D01*
X0219133Y0254876D01*
X0219119Y0254716D01*
X0219101Y0254557D01*
X0219080Y0254397D01*
X0219054Y0254239D01*
X0219024Y0254081D01*
X0218991Y0253924D01*
X0218953Y0253767D01*
X0218912Y0253612D01*
X0218867Y0253458D01*
X0218818Y0253305D01*
X0218765Y0253153D01*
X0218709Y0253003D01*
X0218649Y0252854D01*
X0218585Y0252706D01*
X0218518Y0252560D01*
X0218447Y0252416D01*
X0218372Y0252274D01*
X0218294Y0252133D01*
X0218213Y0251995D01*
X0218128Y0251858D01*
X0218039Y0251724D01*
X0217948Y0251592D01*
X0217853Y0251462D01*
X0217755Y0251335D01*
X0217654Y0251210D01*
X0217550Y0251087D01*
X0217443Y0250968D01*
X0217333Y0250851D01*
X0217220Y0250736D01*
X0217104Y0250625D01*
X0216986Y0250516D01*
X0216865Y0250411D01*
X0216741Y0250308D01*
X0216615Y0250208D01*
X0216486Y0250112D01*
X0216355Y0250019D01*
X0216222Y0249929D01*
X0216087Y0249842D01*
X0215949Y0249759D01*
X0215810Y0249680D01*
X0215668Y0249603D01*
X0215525Y0249530D01*
X0215380Y0249461D01*
X0215233Y0249396D01*
X0215085Y0249334D01*
X0214935Y0249275D01*
X0214784Y0249221D01*
X0214632Y0249170D01*
X0214478Y0249123D01*
X0214323Y0249080D01*
X0214168Y0249041D01*
X0214011Y0249005D01*
X0213853Y0248973D01*
X0213695Y0248946D01*
X0213536Y0248922D01*
X0213377Y0248902D01*
X0213217Y0248886D01*
X0213056Y0248874D01*
X0212896Y0248866D01*
X0212735Y0248862D01*
X0212575Y0248862D01*
X0212414Y0248866D01*
X0212254Y0248874D01*
X0212093Y0248886D01*
X0211933Y0248902D01*
X0211774Y0248922D01*
X0211615Y0248946D01*
X0211457Y0248973D01*
X0211299Y0249005D01*
X0211142Y0249041D01*
X0210987Y0249080D01*
X0210832Y0249123D01*
X0210678Y0249170D01*
X0210526Y0249221D01*
X0210375Y0249275D01*
X0210225Y0249334D01*
X0210077Y0249396D01*
X0209930Y0249461D01*
X0209785Y0249530D01*
X0209642Y0249603D01*
X0209500Y0249680D01*
X0209361Y0249759D01*
X0209223Y0249842D01*
X0209088Y0249929D01*
X0208955Y0250019D01*
X0208824Y0250112D01*
X0208695Y0250208D01*
X0208569Y0250308D01*
X0208445Y0250411D01*
X0208324Y0250516D01*
X0208206Y0250625D01*
X0208090Y0250736D01*
X0207977Y0250851D01*
X0207867Y0250968D01*
X0207760Y0251087D01*
X0207656Y0251210D01*
X0207555Y0251335D01*
X0207457Y0251462D01*
X0207362Y0251592D01*
X0207271Y0251724D01*
X0207182Y0251858D01*
X0207097Y0251995D01*
X0207016Y0252133D01*
X0206938Y0252274D01*
X0206863Y0252416D01*
X0206792Y0252560D01*
X0206725Y0252706D01*
X0206661Y0252854D01*
X0206601Y0253003D01*
X0206545Y0253153D01*
X0206492Y0253305D01*
X0206443Y0253458D01*
X0206398Y0253612D01*
X0206357Y0253767D01*
X0206319Y0253924D01*
X0206286Y0254081D01*
X0206256Y0254239D01*
X0206230Y0254397D01*
X0206209Y0254557D01*
X0206191Y0254716D01*
X0206177Y0254876D01*
X0206167Y0255037D01*
X0206161Y0255197D01*
X0206159Y0255358D01*
X0054584Y0255358D02*
X0054586Y0255519D01*
X0054592Y0255679D01*
X0054602Y0255840D01*
X0054616Y0256000D01*
X0054634Y0256159D01*
X0054655Y0256319D01*
X0054681Y0256477D01*
X0054711Y0256635D01*
X0054744Y0256792D01*
X0054782Y0256949D01*
X0054823Y0257104D01*
X0054868Y0257258D01*
X0054917Y0257411D01*
X0054970Y0257563D01*
X0055026Y0257713D01*
X0055086Y0257862D01*
X0055150Y0258010D01*
X0055217Y0258156D01*
X0055288Y0258300D01*
X0055363Y0258442D01*
X0055441Y0258583D01*
X0055522Y0258721D01*
X0055607Y0258858D01*
X0055696Y0258992D01*
X0055787Y0259124D01*
X0055882Y0259254D01*
X0055980Y0259381D01*
X0056081Y0259506D01*
X0056185Y0259629D01*
X0056292Y0259748D01*
X0056402Y0259865D01*
X0056515Y0259980D01*
X0056631Y0260091D01*
X0056749Y0260200D01*
X0056870Y0260305D01*
X0056994Y0260408D01*
X0057120Y0260508D01*
X0057249Y0260604D01*
X0057380Y0260697D01*
X0057513Y0260787D01*
X0057648Y0260874D01*
X0057786Y0260957D01*
X0057925Y0261036D01*
X0058067Y0261113D01*
X0058210Y0261186D01*
X0058355Y0261255D01*
X0058502Y0261320D01*
X0058650Y0261382D01*
X0058800Y0261441D01*
X0058951Y0261495D01*
X0059103Y0261546D01*
X0059257Y0261593D01*
X0059412Y0261636D01*
X0059567Y0261675D01*
X0059724Y0261711D01*
X0059882Y0261743D01*
X0060040Y0261770D01*
X0060199Y0261794D01*
X0060358Y0261814D01*
X0060518Y0261830D01*
X0060679Y0261842D01*
X0060839Y0261850D01*
X0061000Y0261854D01*
X0061160Y0261854D01*
X0061321Y0261850D01*
X0061481Y0261842D01*
X0061642Y0261830D01*
X0061802Y0261814D01*
X0061961Y0261794D01*
X0062120Y0261770D01*
X0062278Y0261743D01*
X0062436Y0261711D01*
X0062593Y0261675D01*
X0062748Y0261636D01*
X0062903Y0261593D01*
X0063057Y0261546D01*
X0063209Y0261495D01*
X0063360Y0261441D01*
X0063510Y0261382D01*
X0063658Y0261320D01*
X0063805Y0261255D01*
X0063950Y0261186D01*
X0064093Y0261113D01*
X0064235Y0261036D01*
X0064374Y0260957D01*
X0064512Y0260874D01*
X0064647Y0260787D01*
X0064780Y0260697D01*
X0064911Y0260604D01*
X0065040Y0260508D01*
X0065166Y0260408D01*
X0065290Y0260305D01*
X0065411Y0260200D01*
X0065529Y0260091D01*
X0065645Y0259980D01*
X0065758Y0259865D01*
X0065868Y0259748D01*
X0065975Y0259629D01*
X0066079Y0259506D01*
X0066180Y0259381D01*
X0066278Y0259254D01*
X0066373Y0259124D01*
X0066464Y0258992D01*
X0066553Y0258858D01*
X0066638Y0258721D01*
X0066719Y0258583D01*
X0066797Y0258442D01*
X0066872Y0258300D01*
X0066943Y0258156D01*
X0067010Y0258010D01*
X0067074Y0257862D01*
X0067134Y0257713D01*
X0067190Y0257563D01*
X0067243Y0257411D01*
X0067292Y0257258D01*
X0067337Y0257104D01*
X0067378Y0256949D01*
X0067416Y0256792D01*
X0067449Y0256635D01*
X0067479Y0256477D01*
X0067505Y0256319D01*
X0067526Y0256159D01*
X0067544Y0256000D01*
X0067558Y0255840D01*
X0067568Y0255679D01*
X0067574Y0255519D01*
X0067576Y0255358D01*
X0067574Y0255197D01*
X0067568Y0255037D01*
X0067558Y0254876D01*
X0067544Y0254716D01*
X0067526Y0254557D01*
X0067505Y0254397D01*
X0067479Y0254239D01*
X0067449Y0254081D01*
X0067416Y0253924D01*
X0067378Y0253767D01*
X0067337Y0253612D01*
X0067292Y0253458D01*
X0067243Y0253305D01*
X0067190Y0253153D01*
X0067134Y0253003D01*
X0067074Y0252854D01*
X0067010Y0252706D01*
X0066943Y0252560D01*
X0066872Y0252416D01*
X0066797Y0252274D01*
X0066719Y0252133D01*
X0066638Y0251995D01*
X0066553Y0251858D01*
X0066464Y0251724D01*
X0066373Y0251592D01*
X0066278Y0251462D01*
X0066180Y0251335D01*
X0066079Y0251210D01*
X0065975Y0251087D01*
X0065868Y0250968D01*
X0065758Y0250851D01*
X0065645Y0250736D01*
X0065529Y0250625D01*
X0065411Y0250516D01*
X0065290Y0250411D01*
X0065166Y0250308D01*
X0065040Y0250208D01*
X0064911Y0250112D01*
X0064780Y0250019D01*
X0064647Y0249929D01*
X0064512Y0249842D01*
X0064374Y0249759D01*
X0064235Y0249680D01*
X0064093Y0249603D01*
X0063950Y0249530D01*
X0063805Y0249461D01*
X0063658Y0249396D01*
X0063510Y0249334D01*
X0063360Y0249275D01*
X0063209Y0249221D01*
X0063057Y0249170D01*
X0062903Y0249123D01*
X0062748Y0249080D01*
X0062593Y0249041D01*
X0062436Y0249005D01*
X0062278Y0248973D01*
X0062120Y0248946D01*
X0061961Y0248922D01*
X0061802Y0248902D01*
X0061642Y0248886D01*
X0061481Y0248874D01*
X0061321Y0248866D01*
X0061160Y0248862D01*
X0061000Y0248862D01*
X0060839Y0248866D01*
X0060679Y0248874D01*
X0060518Y0248886D01*
X0060358Y0248902D01*
X0060199Y0248922D01*
X0060040Y0248946D01*
X0059882Y0248973D01*
X0059724Y0249005D01*
X0059567Y0249041D01*
X0059412Y0249080D01*
X0059257Y0249123D01*
X0059103Y0249170D01*
X0058951Y0249221D01*
X0058800Y0249275D01*
X0058650Y0249334D01*
X0058502Y0249396D01*
X0058355Y0249461D01*
X0058210Y0249530D01*
X0058067Y0249603D01*
X0057925Y0249680D01*
X0057786Y0249759D01*
X0057648Y0249842D01*
X0057513Y0249929D01*
X0057380Y0250019D01*
X0057249Y0250112D01*
X0057120Y0250208D01*
X0056994Y0250308D01*
X0056870Y0250411D01*
X0056749Y0250516D01*
X0056631Y0250625D01*
X0056515Y0250736D01*
X0056402Y0250851D01*
X0056292Y0250968D01*
X0056185Y0251087D01*
X0056081Y0251210D01*
X0055980Y0251335D01*
X0055882Y0251462D01*
X0055787Y0251592D01*
X0055696Y0251724D01*
X0055607Y0251858D01*
X0055522Y0251995D01*
X0055441Y0252133D01*
X0055363Y0252274D01*
X0055288Y0252416D01*
X0055217Y0252560D01*
X0055150Y0252706D01*
X0055086Y0252854D01*
X0055026Y0253003D01*
X0054970Y0253153D01*
X0054917Y0253305D01*
X0054868Y0253458D01*
X0054823Y0253612D01*
X0054782Y0253767D01*
X0054744Y0253924D01*
X0054711Y0254081D01*
X0054681Y0254239D01*
X0054655Y0254397D01*
X0054634Y0254557D01*
X0054616Y0254716D01*
X0054602Y0254876D01*
X0054592Y0255037D01*
X0054586Y0255197D01*
X0054584Y0255358D01*
M02*
