G75*
%MOIN*%
%OFA0B0*%
%FSLAX25Y25*%
%IPPOS*%
%LPD*%
%AMOC8*
5,1,8,0,0,1.08239X$1,22.5*
%
%ADD10C,0.07677*%
%ADD11C,0.06000*%
%ADD12C,0.02800*%
%ADD13C,0.00800*%
%ADD14C,0.02000*%
D10*
X0089624Y0196302D03*
X0095529Y0206145D03*
X0101435Y0196302D03*
X0107340Y0206145D03*
X0113246Y0196302D03*
X0119151Y0206145D03*
X0125057Y0196302D03*
X0130962Y0206145D03*
X0136868Y0196302D03*
X0142773Y0206145D03*
X0148679Y0196302D03*
X0154584Y0206145D03*
X0160490Y0196302D03*
X0166395Y0206145D03*
X0172301Y0196302D03*
X0178206Y0206145D03*
X0184112Y0196302D03*
X0178206Y0219924D03*
X0172301Y0229767D03*
X0166395Y0219924D03*
X0160490Y0229767D03*
X0154584Y0219924D03*
X0148679Y0229767D03*
X0142773Y0219924D03*
X0136868Y0229767D03*
X0130962Y0219924D03*
X0125057Y0229767D03*
X0119151Y0219924D03*
X0113246Y0229767D03*
X0107340Y0219924D03*
X0101435Y0229767D03*
X0095529Y0219924D03*
X0089624Y0229767D03*
X0184112Y0229767D03*
D11*
X0133285Y0132602D03*
X0133285Y0122602D03*
X0123285Y0122602D03*
X0123285Y0132602D03*
X0123285Y0112602D03*
X0133285Y0112602D03*
X0133285Y0102602D03*
X0133285Y0092602D03*
X0123285Y0092602D03*
X0123285Y0102602D03*
D12*
X0115785Y0106977D03*
X0117660Y0110102D03*
X0113910Y0111977D03*
X0104535Y0116977D03*
X0100785Y0116977D03*
X0099535Y0113227D03*
X0098285Y0109477D03*
X0094535Y0115102D03*
X0087035Y0121352D03*
X0084535Y0123852D03*
X0081410Y0125727D03*
X0076410Y0122602D03*
X0078910Y0132602D03*
X0076410Y0135102D03*
X0071410Y0132602D03*
X0068910Y0130102D03*
X0068285Y0136977D03*
X0067660Y0140727D03*
X0078910Y0144477D03*
X0075785Y0154477D03*
X0072660Y0159477D03*
X0068910Y0159477D03*
X0065160Y0159477D03*
X0062660Y0155102D03*
X0057035Y0153852D03*
X0055160Y0164477D03*
X0058285Y0176977D03*
X0058285Y0179477D03*
X0065785Y0179477D03*
X0065785Y0181977D03*
X0065785Y0184477D03*
X0064535Y0193227D03*
X0064535Y0195727D03*
X0051410Y0201352D03*
X0055785Y0213852D03*
X0058285Y0213852D03*
X0052660Y0187602D03*
X0077035Y0184477D03*
X0077035Y0181977D03*
X0077035Y0179477D03*
X0089535Y0179477D03*
X0089535Y0181977D03*
X0089535Y0184477D03*
X0103910Y0178852D03*
X0103910Y0176352D03*
X0113285Y0177602D03*
X0113285Y0175102D03*
X0118910Y0170727D03*
X0116410Y0160102D03*
X0116410Y0157602D03*
X0111410Y0152602D03*
X0106410Y0150727D03*
X0102035Y0155102D03*
X0102035Y0158852D03*
X0098285Y0160727D03*
X0088910Y0164477D03*
X0085160Y0159477D03*
X0076410Y0164477D03*
X0091410Y0140102D03*
X0091410Y0127602D03*
X0091410Y0124477D03*
X0103910Y0129477D03*
X0106410Y0133852D03*
X0106410Y0138227D03*
X0114535Y0142602D03*
X0126410Y0142602D03*
X0139535Y0144477D03*
X0142660Y0150102D03*
X0145160Y0152602D03*
X0148285Y0150102D03*
X0152035Y0153852D03*
X0156410Y0150102D03*
X0160785Y0151977D03*
X0157035Y0145727D03*
X0153910Y0141352D03*
X0152660Y0137602D03*
X0156410Y0136977D03*
X0162035Y0141352D03*
X0165160Y0138227D03*
X0170785Y0141352D03*
X0165785Y0145727D03*
X0178285Y0150727D03*
X0180785Y0155102D03*
X0183285Y0151977D03*
X0190785Y0141977D03*
X0195785Y0141977D03*
X0195785Y0144477D03*
X0204535Y0138227D03*
X0200160Y0120102D03*
X0183285Y0115727D03*
X0180785Y0118227D03*
X0180785Y0113227D03*
X0175785Y0119477D03*
X0170785Y0119477D03*
X0162660Y0119477D03*
X0156410Y0121977D03*
X0156410Y0125727D03*
X0149535Y0130727D03*
X0147660Y0138852D03*
X0143910Y0138852D03*
X0143910Y0158227D03*
X0138285Y0157602D03*
X0138285Y0160102D03*
X0138285Y0162602D03*
X0127035Y0162602D03*
X0127035Y0160102D03*
X0127035Y0157602D03*
X0107660Y0186977D03*
X0156410Y0161977D03*
X0163285Y0173227D03*
X0168910Y0167602D03*
X0173910Y0167602D03*
X0173910Y0162602D03*
X0168910Y0162602D03*
X0183285Y0175727D03*
X0177660Y0185727D03*
X0191410Y0200727D03*
X0193285Y0201977D03*
X0196410Y0196352D03*
X0194535Y0195102D03*
X0200785Y0190102D03*
X0203285Y0190102D03*
X0203285Y0187602D03*
X0200785Y0187602D03*
X0208910Y0187602D03*
X0208910Y0190102D03*
X0211410Y0190102D03*
X0211410Y0187602D03*
X0215160Y0221352D03*
X0217660Y0221352D03*
X0158910Y0186977D03*
X0182660Y0134477D03*
X0182660Y0130727D03*
X0169535Y0110727D03*
X0172035Y0108227D03*
X0158910Y0100727D03*
X0158910Y0096977D03*
X0163285Y0091352D03*
X0161410Y0088227D03*
X0163285Y0085102D03*
X0161410Y0081977D03*
X0161410Y0077602D03*
X0167660Y0078227D03*
X0171410Y0078227D03*
X0169535Y0083852D03*
X0171410Y0068227D03*
X0177660Y0068852D03*
X0181410Y0068852D03*
X0187035Y0069477D03*
X0198285Y0070102D03*
X0203285Y0069477D03*
X0207660Y0072602D03*
X0217660Y0063852D03*
X0208910Y0056352D03*
X0205160Y0056352D03*
X0182660Y0056352D03*
X0177035Y0056352D03*
X0162035Y0056352D03*
X0154535Y0059477D03*
X0139535Y0056977D03*
X0130160Y0057602D03*
X0130160Y0060102D03*
X0142660Y0075727D03*
X0147035Y0082602D03*
X0138285Y0086352D03*
X0131410Y0080727D03*
X0131410Y0078227D03*
X0117035Y0085102D03*
X0113285Y0081352D03*
X0110785Y0081352D03*
X0110785Y0078852D03*
X0113285Y0078852D03*
X0113285Y0076352D03*
X0110785Y0076352D03*
X0107035Y0078227D03*
X0101410Y0083852D03*
X0089535Y0085102D03*
X0081410Y0085102D03*
X0077035Y0081352D03*
X0075160Y0076977D03*
X0080160Y0075102D03*
X0080160Y0071977D03*
X0083910Y0071977D03*
X0083910Y0075102D03*
X0075785Y0089477D03*
X0075785Y0095102D03*
X0072660Y0101977D03*
X0066410Y0101977D03*
X0063910Y0095727D03*
X0063910Y0090727D03*
X0053910Y0101977D03*
X0050785Y0093852D03*
X0052035Y0088852D03*
X0051410Y0070727D03*
X0055160Y0070727D03*
X0058910Y0070727D03*
X0065160Y0059477D03*
X0067660Y0059477D03*
X0070160Y0059477D03*
X0070160Y0056352D03*
X0067660Y0056352D03*
X0065160Y0056352D03*
X0092035Y0057602D03*
X0094535Y0057602D03*
X0117035Y0091977D03*
X0142035Y0098852D03*
X0147035Y0094477D03*
X0146410Y0107602D03*
X0138285Y0117602D03*
X0115160Y0124477D03*
X0092035Y0098227D03*
X0088285Y0098227D03*
X0088285Y0101977D03*
X0084535Y0098227D03*
X0088285Y0094477D03*
X0055160Y0121352D03*
X0052660Y0133227D03*
X0195160Y0090102D03*
X0204535Y0097602D03*
X0210160Y0092602D03*
X0210160Y0088852D03*
X0210160Y0084477D03*
X0222035Y0083227D03*
X0222035Y0098227D03*
X0222035Y0121352D03*
D13*
X0049935Y0068949D02*
X0049935Y0054252D01*
X0072035Y0054252D01*
X0072035Y0088852D01*
X0065785Y0088852D01*
X0065785Y0089349D01*
X0064863Y0088427D01*
X0062957Y0088427D01*
X0061610Y0089774D01*
X0061610Y0091679D01*
X0062957Y0093027D01*
X0064863Y0093027D01*
X0065785Y0092104D01*
X0065785Y0094349D01*
X0064863Y0093427D01*
X0062957Y0093427D01*
X0061610Y0094774D01*
X0061610Y0096679D01*
X0062957Y0098027D01*
X0064863Y0098027D01*
X0065785Y0097104D01*
X0065785Y0099677D01*
X0065457Y0099677D01*
X0064110Y0101024D01*
X0064110Y0102929D01*
X0065457Y0104277D01*
X0065785Y0104277D01*
X0065785Y0139349D01*
X0065360Y0139774D01*
X0065360Y0141679D01*
X0065785Y0142104D01*
X0065785Y0157177D01*
X0064207Y0157177D01*
X0062860Y0158524D01*
X0062860Y0160429D01*
X0064207Y0161777D01*
X0065785Y0161777D01*
X0065785Y0177177D01*
X0064832Y0177177D01*
X0063485Y0178524D01*
X0063485Y0180429D01*
X0063782Y0180727D01*
X0063485Y0181024D01*
X0063485Y0182929D01*
X0063782Y0183227D01*
X0063485Y0183524D01*
X0063485Y0185429D01*
X0064832Y0186777D01*
X0065785Y0186777D01*
X0065785Y0191224D01*
X0065488Y0190927D01*
X0063582Y0190927D01*
X0062235Y0192274D01*
X0062235Y0194179D01*
X0062532Y0194477D01*
X0062235Y0194774D01*
X0062235Y0196679D01*
X0063582Y0198027D01*
X0065488Y0198027D01*
X0065785Y0197729D01*
X0065785Y0225727D01*
X0086995Y0225727D01*
X0086940Y0225750D01*
X0085607Y0227083D01*
X0084885Y0228824D01*
X0084885Y0230710D01*
X0085607Y0232451D01*
X0086940Y0233784D01*
X0088681Y0234506D01*
X0090566Y0234506D01*
X0092308Y0233784D01*
X0093641Y0232451D01*
X0094362Y0230710D01*
X0094362Y0228824D01*
X0093641Y0227083D01*
X0092308Y0225750D01*
X0092252Y0225727D01*
X0098807Y0225727D01*
X0098751Y0225750D01*
X0097418Y0227083D01*
X0096696Y0228824D01*
X0096696Y0230710D01*
X0097418Y0232451D01*
X0098751Y0233784D01*
X0100492Y0234506D01*
X0102377Y0234506D01*
X0104119Y0233784D01*
X0105452Y0232451D01*
X0106173Y0230710D01*
X0106173Y0228824D01*
X0105452Y0227083D01*
X0104119Y0225750D01*
X0104063Y0225727D01*
X0110618Y0225727D01*
X0110562Y0225750D01*
X0109229Y0227083D01*
X0108507Y0228824D01*
X0108507Y0230710D01*
X0109229Y0232451D01*
X0110562Y0233784D01*
X0112303Y0234506D01*
X0114188Y0234506D01*
X0115930Y0233784D01*
X0117263Y0232451D01*
X0117984Y0230710D01*
X0117984Y0228824D01*
X0117263Y0227083D01*
X0115930Y0225750D01*
X0115874Y0225727D01*
X0122429Y0225727D01*
X0122373Y0225750D01*
X0121040Y0227083D01*
X0120318Y0228824D01*
X0120318Y0230710D01*
X0121040Y0232451D01*
X0122373Y0233784D01*
X0124114Y0234506D01*
X0125999Y0234506D01*
X0127741Y0233784D01*
X0129074Y0232451D01*
X0129795Y0230710D01*
X0129795Y0228824D01*
X0129074Y0227083D01*
X0127741Y0225750D01*
X0127685Y0225727D01*
X0140785Y0225727D01*
X0140785Y0267487D01*
X0049935Y0267487D01*
X0049935Y0203129D01*
X0050457Y0203652D01*
X0052363Y0203652D01*
X0053710Y0202304D01*
X0053710Y0200399D01*
X0052363Y0199052D01*
X0050457Y0199052D01*
X0049935Y0199574D01*
X0049935Y0096152D01*
X0051738Y0096152D01*
X0053085Y0094804D01*
X0053085Y0092899D01*
X0051738Y0091552D01*
X0049935Y0091552D01*
X0049935Y0090004D01*
X0051082Y0091152D01*
X0052988Y0091152D01*
X0054335Y0089804D01*
X0054335Y0087899D01*
X0052988Y0086552D01*
X0051082Y0086552D01*
X0049935Y0087699D01*
X0049935Y0072504D01*
X0050457Y0073027D01*
X0052363Y0073027D01*
X0053285Y0072104D01*
X0054207Y0073027D01*
X0056113Y0073027D01*
X0057035Y0072104D01*
X0057957Y0073027D01*
X0059863Y0073027D01*
X0061210Y0071679D01*
X0061210Y0069774D01*
X0059863Y0068427D01*
X0057957Y0068427D01*
X0057035Y0069349D01*
X0056113Y0068427D01*
X0054207Y0068427D01*
X0053285Y0069349D01*
X0052363Y0068427D01*
X0050457Y0068427D01*
X0049935Y0068949D01*
X0049935Y0068572D02*
X0050312Y0068572D01*
X0049935Y0067773D02*
X0072035Y0067773D01*
X0072035Y0066975D02*
X0049935Y0066975D01*
X0049935Y0066176D02*
X0072035Y0066176D01*
X0072035Y0065378D02*
X0049935Y0065378D01*
X0049935Y0064579D02*
X0072035Y0064579D01*
X0072035Y0063781D02*
X0049935Y0063781D01*
X0049935Y0062982D02*
X0072035Y0062982D01*
X0072035Y0062184D02*
X0049935Y0062184D01*
X0049935Y0061385D02*
X0072035Y0061385D01*
X0072035Y0060587D02*
X0049935Y0060587D01*
X0049935Y0059788D02*
X0072035Y0059788D01*
X0072035Y0058990D02*
X0049935Y0058990D01*
X0049935Y0058191D02*
X0072035Y0058191D01*
X0072035Y0057393D02*
X0049935Y0057393D01*
X0049935Y0056594D02*
X0072035Y0056594D01*
X0072035Y0055796D02*
X0049935Y0055796D01*
X0049935Y0054997D02*
X0072035Y0054997D01*
X0073910Y0054997D02*
X0138262Y0054997D01*
X0138582Y0054677D02*
X0140488Y0054677D01*
X0141835Y0056024D01*
X0141835Y0057929D01*
X0140488Y0059277D01*
X0138582Y0059277D01*
X0137235Y0057929D01*
X0137235Y0056024D01*
X0138582Y0054677D01*
X0137463Y0055796D02*
X0131607Y0055796D01*
X0131113Y0055302D02*
X0132460Y0056649D01*
X0132460Y0058554D01*
X0132163Y0058852D01*
X0132460Y0059149D01*
X0132460Y0061054D01*
X0131588Y0061927D01*
X0197747Y0061927D01*
X0202860Y0056813D01*
X0202860Y0055399D01*
X0204007Y0054252D01*
X0183813Y0054252D01*
X0184960Y0055399D01*
X0184960Y0057304D01*
X0183613Y0058652D01*
X0181707Y0058652D01*
X0180360Y0057304D01*
X0180360Y0055399D01*
X0181507Y0054252D01*
X0178188Y0054252D01*
X0179335Y0055399D01*
X0179335Y0057304D01*
X0177988Y0058652D01*
X0176082Y0058652D01*
X0174735Y0057304D01*
X0174735Y0055399D01*
X0175882Y0054252D01*
X0163188Y0054252D01*
X0164335Y0055399D01*
X0164335Y0057304D01*
X0162988Y0058652D01*
X0161082Y0058652D01*
X0159735Y0057304D01*
X0159735Y0055399D01*
X0160882Y0054252D01*
X0073910Y0054252D01*
X0073910Y0074974D01*
X0074207Y0074677D01*
X0076113Y0074677D01*
X0077460Y0076024D01*
X0077460Y0077929D01*
X0076338Y0079052D01*
X0077988Y0079052D01*
X0079335Y0080399D01*
X0079335Y0082304D01*
X0077988Y0083652D01*
X0076082Y0083652D01*
X0074735Y0082304D01*
X0074735Y0080399D01*
X0075857Y0079277D01*
X0074207Y0079277D01*
X0073910Y0078979D01*
X0073910Y0088099D01*
X0074832Y0087177D01*
X0076738Y0087177D01*
X0078085Y0088524D01*
X0078085Y0090429D01*
X0076738Y0091777D01*
X0074832Y0091777D01*
X0073910Y0090854D01*
X0073910Y0091352D01*
X0067660Y0091352D01*
X0067660Y0099974D01*
X0068710Y0101024D01*
X0068710Y0102929D01*
X0067660Y0103979D01*
X0067660Y0134677D01*
X0069238Y0134677D01*
X0070585Y0136024D01*
X0070585Y0137929D01*
X0069350Y0139164D01*
X0069960Y0139774D01*
X0069960Y0141679D01*
X0068613Y0143027D01*
X0067660Y0143027D01*
X0067660Y0157474D01*
X0067957Y0157177D01*
X0069863Y0157177D01*
X0070785Y0158099D01*
X0071707Y0157177D01*
X0073613Y0157177D01*
X0074960Y0158524D01*
X0074960Y0160429D01*
X0073613Y0161777D01*
X0071707Y0161777D01*
X0070785Y0160854D01*
X0069863Y0161777D01*
X0067957Y0161777D01*
X0067660Y0161479D01*
X0067660Y0178099D01*
X0068085Y0178524D01*
X0068085Y0180429D01*
X0067788Y0180727D01*
X0068085Y0181024D01*
X0068085Y0182929D01*
X0067788Y0183227D01*
X0068085Y0183524D01*
X0068085Y0185429D01*
X0067660Y0185854D01*
X0067660Y0223852D01*
X0092755Y0223852D01*
X0091512Y0222609D01*
X0090791Y0220867D01*
X0090791Y0218982D01*
X0091512Y0217240D01*
X0092845Y0215907D01*
X0094587Y0215186D01*
X0096472Y0215186D01*
X0098213Y0215907D01*
X0099546Y0217240D01*
X0100268Y0218982D01*
X0100268Y0220867D01*
X0099546Y0222609D01*
X0098303Y0223852D01*
X0104566Y0223852D01*
X0103323Y0222609D01*
X0102602Y0220867D01*
X0102602Y0218982D01*
X0103323Y0217240D01*
X0104656Y0215907D01*
X0106398Y0215186D01*
X0108283Y0215186D01*
X0110024Y0215907D01*
X0111357Y0217240D01*
X0112079Y0218982D01*
X0112079Y0220867D01*
X0111357Y0222609D01*
X0110114Y0223852D01*
X0116377Y0223852D01*
X0115134Y0222609D01*
X0114413Y0220867D01*
X0114413Y0218982D01*
X0115134Y0217240D01*
X0116467Y0215907D01*
X0118209Y0215186D01*
X0120094Y0215186D01*
X0121835Y0215907D01*
X0123168Y0217240D01*
X0123890Y0218982D01*
X0123890Y0220867D01*
X0123168Y0222609D01*
X0121925Y0223852D01*
X0128188Y0223852D01*
X0126945Y0222609D01*
X0126224Y0220867D01*
X0126224Y0218982D01*
X0126945Y0217240D01*
X0128278Y0215907D01*
X0130020Y0215186D01*
X0131905Y0215186D01*
X0133646Y0215907D01*
X0134979Y0217240D01*
X0135701Y0218982D01*
X0135701Y0220867D01*
X0134979Y0222609D01*
X0133736Y0223852D01*
X0142660Y0223852D01*
X0142660Y0241952D01*
X0187498Y0241952D01*
X0197635Y0231815D01*
X0197635Y0200264D01*
X0196023Y0198652D01*
X0195457Y0198652D01*
X0194207Y0197402D01*
X0193582Y0197402D01*
X0192235Y0196054D01*
X0192235Y0194149D01*
X0193582Y0192802D01*
X0195488Y0192802D01*
X0196738Y0194052D01*
X0197363Y0194052D01*
X0198710Y0195399D01*
X0198710Y0195965D01*
X0200322Y0197577D01*
X0201435Y0198690D01*
X0201435Y0233389D01*
X0190185Y0244639D01*
X0189072Y0245752D01*
X0142660Y0245752D01*
X0142660Y0267487D01*
X0223800Y0267487D01*
X0223800Y0099714D01*
X0222988Y0100527D01*
X0221082Y0100527D01*
X0219735Y0099179D01*
X0219735Y0097274D01*
X0221082Y0095927D01*
X0222988Y0095927D01*
X0223800Y0096739D01*
X0223800Y0084714D01*
X0222988Y0085527D01*
X0221082Y0085527D01*
X0219735Y0084179D01*
X0219735Y0082274D01*
X0221082Y0080927D01*
X0222988Y0080927D01*
X0223800Y0081739D01*
X0223800Y0054252D01*
X0210063Y0054252D01*
X0211210Y0055399D01*
X0211210Y0057304D01*
X0209863Y0058652D01*
X0208449Y0058652D01*
X0201460Y0065640D01*
X0200699Y0066402D01*
X0106949Y0066402D01*
X0098960Y0074390D01*
X0098960Y0097688D01*
X0104585Y0103313D01*
X0104585Y0114677D01*
X0105488Y0114677D01*
X0106835Y0116024D01*
X0106835Y0117929D01*
X0105488Y0119277D01*
X0103582Y0119277D01*
X0102660Y0118354D01*
X0101738Y0119277D01*
X0099832Y0119277D01*
X0098485Y0117929D01*
X0098485Y0116024D01*
X0098982Y0115527D01*
X0098582Y0115527D01*
X0097235Y0114179D01*
X0097235Y0112274D01*
X0097732Y0111777D01*
X0097332Y0111777D01*
X0095985Y0110429D01*
X0095985Y0108524D01*
X0097332Y0107177D01*
X0099238Y0107177D01*
X0100110Y0108049D01*
X0100110Y0105015D01*
X0094485Y0099390D01*
X0094485Y0072688D01*
X0095247Y0071927D01*
X0105247Y0061927D01*
X0128732Y0061927D01*
X0127860Y0061054D01*
X0127860Y0059149D01*
X0128157Y0058852D01*
X0127860Y0058554D01*
X0127860Y0056649D01*
X0129207Y0055302D01*
X0131113Y0055302D01*
X0132405Y0056594D02*
X0137235Y0056594D01*
X0137235Y0057393D02*
X0132460Y0057393D01*
X0132460Y0058191D02*
X0137497Y0058191D01*
X0138296Y0058990D02*
X0132301Y0058990D01*
X0132460Y0059788D02*
X0152235Y0059788D01*
X0152235Y0060429D02*
X0152235Y0058524D01*
X0153582Y0057177D01*
X0155488Y0057177D01*
X0156835Y0058524D01*
X0156835Y0060429D01*
X0155488Y0061777D01*
X0153582Y0061777D01*
X0152235Y0060429D01*
X0152393Y0060587D02*
X0132460Y0060587D01*
X0132129Y0061385D02*
X0153191Y0061385D01*
X0152235Y0058990D02*
X0140775Y0058990D01*
X0141573Y0058191D02*
X0152568Y0058191D01*
X0153366Y0057393D02*
X0141835Y0057393D01*
X0141835Y0056594D02*
X0159735Y0056594D01*
X0159735Y0055796D02*
X0141607Y0055796D01*
X0140808Y0054997D02*
X0160137Y0054997D01*
X0159824Y0057393D02*
X0155704Y0057393D01*
X0156502Y0058191D02*
X0160622Y0058191D01*
X0156835Y0058990D02*
X0200684Y0058990D01*
X0201482Y0058191D02*
X0184073Y0058191D01*
X0184872Y0057393D02*
X0202281Y0057393D01*
X0202860Y0056594D02*
X0184960Y0056594D01*
X0184960Y0055796D02*
X0202860Y0055796D01*
X0203262Y0054997D02*
X0184558Y0054997D01*
X0180762Y0054997D02*
X0178933Y0054997D01*
X0179335Y0055796D02*
X0180360Y0055796D01*
X0180360Y0056594D02*
X0179335Y0056594D01*
X0179247Y0057393D02*
X0180449Y0057393D01*
X0181247Y0058191D02*
X0178448Y0058191D01*
X0175622Y0058191D02*
X0163448Y0058191D01*
X0164247Y0057393D02*
X0174824Y0057393D01*
X0174735Y0056594D02*
X0164335Y0056594D01*
X0164335Y0055796D02*
X0174735Y0055796D01*
X0175137Y0054997D02*
X0163933Y0054997D01*
X0156835Y0059788D02*
X0199885Y0059788D01*
X0199087Y0060587D02*
X0156678Y0060587D01*
X0155879Y0061385D02*
X0198288Y0061385D01*
X0198285Y0063227D02*
X0105785Y0063227D01*
X0095785Y0073227D01*
X0095785Y0098852D01*
X0101410Y0104477D01*
X0101410Y0111352D01*
X0099535Y0113227D01*
X0097941Y0114886D02*
X0096835Y0114886D01*
X0096835Y0114149D02*
X0095488Y0112802D01*
X0093582Y0112802D01*
X0092235Y0114149D01*
X0092235Y0116054D01*
X0093582Y0117402D01*
X0095488Y0117402D01*
X0096835Y0116054D01*
X0096835Y0114149D01*
X0096773Y0114087D02*
X0097235Y0114087D01*
X0097235Y0113289D02*
X0095975Y0113289D01*
X0097235Y0112490D02*
X0067660Y0112490D01*
X0067660Y0111691D02*
X0097247Y0111691D01*
X0096449Y0110893D02*
X0067660Y0110893D01*
X0067660Y0110094D02*
X0095985Y0110094D01*
X0095985Y0109296D02*
X0067660Y0109296D01*
X0067660Y0108497D02*
X0096012Y0108497D01*
X0096810Y0107699D02*
X0067660Y0107699D01*
X0067660Y0106900D02*
X0100110Y0106900D01*
X0100110Y0106102D02*
X0067660Y0106102D01*
X0067660Y0105303D02*
X0100110Y0105303D01*
X0099600Y0104505D02*
X0067660Y0104505D01*
X0067933Y0103706D02*
X0086762Y0103706D01*
X0087332Y0104277D02*
X0085985Y0102929D01*
X0085985Y0101024D01*
X0086907Y0100102D01*
X0086410Y0099604D01*
X0085488Y0100527D01*
X0083582Y0100527D01*
X0082235Y0099179D01*
X0082235Y0097274D01*
X0083582Y0095927D01*
X0085488Y0095927D01*
X0086410Y0096849D01*
X0086907Y0096352D01*
X0085985Y0095429D01*
X0085985Y0093524D01*
X0087332Y0092177D01*
X0089238Y0092177D01*
X0090585Y0093524D01*
X0090585Y0095429D01*
X0089663Y0096352D01*
X0090160Y0096849D01*
X0091082Y0095927D01*
X0092988Y0095927D01*
X0094335Y0097274D01*
X0094335Y0099179D01*
X0092988Y0100527D01*
X0091082Y0100527D01*
X0090160Y0099604D01*
X0089663Y0100102D01*
X0090585Y0101024D01*
X0090585Y0102929D01*
X0089238Y0104277D01*
X0087332Y0104277D01*
X0085985Y0102908D02*
X0068710Y0102908D01*
X0068710Y0102109D02*
X0085985Y0102109D01*
X0085985Y0101311D02*
X0068710Y0101311D01*
X0068198Y0100512D02*
X0083568Y0100512D01*
X0082770Y0099714D02*
X0067660Y0099714D01*
X0067660Y0098915D02*
X0082235Y0098915D01*
X0082235Y0098117D02*
X0067660Y0098117D01*
X0067660Y0097318D02*
X0074749Y0097318D01*
X0074832Y0097402D02*
X0073485Y0096054D01*
X0073485Y0094149D01*
X0074832Y0092802D01*
X0076738Y0092802D01*
X0078085Y0094149D01*
X0078085Y0096054D01*
X0076738Y0097402D01*
X0074832Y0097402D01*
X0073951Y0096520D02*
X0067660Y0096520D01*
X0067660Y0095721D02*
X0073485Y0095721D01*
X0073485Y0094923D02*
X0067660Y0094923D01*
X0067660Y0094124D02*
X0073510Y0094124D01*
X0074308Y0093326D02*
X0067660Y0093326D01*
X0067660Y0092527D02*
X0086982Y0092527D01*
X0086183Y0093326D02*
X0077262Y0093326D01*
X0078060Y0094124D02*
X0085985Y0094124D01*
X0085985Y0094923D02*
X0078085Y0094923D01*
X0078085Y0095721D02*
X0086277Y0095721D01*
X0086081Y0096520D02*
X0086739Y0096520D01*
X0089831Y0096520D02*
X0090489Y0096520D01*
X0090293Y0095721D02*
X0094485Y0095721D01*
X0094485Y0094923D02*
X0090585Y0094923D01*
X0090585Y0094124D02*
X0094485Y0094124D01*
X0094485Y0093326D02*
X0090387Y0093326D01*
X0089588Y0092527D02*
X0094485Y0092527D01*
X0094485Y0091729D02*
X0076786Y0091729D01*
X0077584Y0090930D02*
X0094485Y0090930D01*
X0094485Y0090132D02*
X0078085Y0090132D01*
X0078085Y0089333D02*
X0094485Y0089333D01*
X0094485Y0088535D02*
X0078085Y0088535D01*
X0077297Y0087736D02*
X0094485Y0087736D01*
X0094485Y0086938D02*
X0090952Y0086938D01*
X0090488Y0087402D02*
X0088582Y0087402D01*
X0087235Y0086054D01*
X0087235Y0084149D01*
X0088582Y0082802D01*
X0090488Y0082802D01*
X0091835Y0084149D01*
X0091835Y0086054D01*
X0090488Y0087402D01*
X0091750Y0086139D02*
X0094485Y0086139D01*
X0094485Y0085341D02*
X0091835Y0085341D01*
X0091835Y0084542D02*
X0094485Y0084542D01*
X0094485Y0083744D02*
X0091430Y0083744D01*
X0090631Y0082945D02*
X0094485Y0082945D01*
X0094485Y0082147D02*
X0079335Y0082147D01*
X0079335Y0081348D02*
X0094485Y0081348D01*
X0094485Y0080550D02*
X0079335Y0080550D01*
X0078687Y0079751D02*
X0094485Y0079751D01*
X0094485Y0078953D02*
X0076437Y0078953D01*
X0077235Y0078154D02*
X0094485Y0078154D01*
X0094485Y0077356D02*
X0084909Y0077356D01*
X0084863Y0077402D02*
X0082957Y0077402D01*
X0082035Y0076479D01*
X0081113Y0077402D01*
X0079207Y0077402D01*
X0077860Y0076054D01*
X0077860Y0074149D01*
X0078470Y0073539D01*
X0077860Y0072929D01*
X0077860Y0071024D01*
X0079207Y0069677D01*
X0081113Y0069677D01*
X0082035Y0070599D01*
X0082957Y0069677D01*
X0084863Y0069677D01*
X0086210Y0071024D01*
X0086210Y0072929D01*
X0085600Y0073539D01*
X0086210Y0074149D01*
X0086210Y0076054D01*
X0084863Y0077402D01*
X0085707Y0076557D02*
X0094485Y0076557D01*
X0094485Y0075758D02*
X0086210Y0075758D01*
X0086210Y0074960D02*
X0094485Y0074960D01*
X0094485Y0074161D02*
X0086210Y0074161D01*
X0085777Y0073363D02*
X0094485Y0073363D01*
X0094609Y0072564D02*
X0086210Y0072564D01*
X0086210Y0071766D02*
X0095407Y0071766D01*
X0096206Y0070967D02*
X0086154Y0070967D01*
X0085355Y0070169D02*
X0097004Y0070169D01*
X0097803Y0069370D02*
X0073910Y0069370D01*
X0073910Y0068572D02*
X0098601Y0068572D01*
X0099400Y0067773D02*
X0073910Y0067773D01*
X0073910Y0066975D02*
X0100198Y0066975D01*
X0100997Y0066176D02*
X0073910Y0066176D01*
X0073910Y0065378D02*
X0101795Y0065378D01*
X0102594Y0064579D02*
X0073910Y0064579D01*
X0073910Y0063781D02*
X0103392Y0063781D01*
X0104191Y0062982D02*
X0073910Y0062982D01*
X0073910Y0062184D02*
X0104990Y0062184D01*
X0106410Y0065102D02*
X0097660Y0073852D01*
X0097660Y0098227D01*
X0103285Y0103852D01*
X0103285Y0114477D01*
X0100785Y0116977D01*
X0098485Y0117281D02*
X0095608Y0117281D01*
X0096407Y0116483D02*
X0098485Y0116483D01*
X0098825Y0115684D02*
X0096835Y0115684D01*
X0098635Y0118080D02*
X0067660Y0118080D01*
X0067660Y0118878D02*
X0099434Y0118878D01*
X0102136Y0118878D02*
X0103184Y0118878D01*
X0105886Y0118878D02*
X0122083Y0118878D01*
X0122509Y0118702D02*
X0124061Y0118702D01*
X0125494Y0119295D01*
X0126591Y0120392D01*
X0127185Y0121826D01*
X0127185Y0123377D01*
X0126591Y0124811D01*
X0125494Y0125908D01*
X0124061Y0126502D01*
X0122509Y0126502D01*
X0121076Y0125908D01*
X0119979Y0124811D01*
X0119385Y0123377D01*
X0119385Y0121826D01*
X0119979Y0120392D01*
X0121076Y0119295D01*
X0122509Y0118702D01*
X0124487Y0118878D02*
X0132083Y0118878D01*
X0132509Y0118702D02*
X0134061Y0118702D01*
X0135494Y0119295D01*
X0136591Y0120392D01*
X0137185Y0121826D01*
X0137185Y0123377D01*
X0136591Y0124811D01*
X0135494Y0125908D01*
X0134061Y0126502D01*
X0132509Y0126502D01*
X0131076Y0125908D01*
X0129979Y0124811D01*
X0129385Y0123377D01*
X0129385Y0121826D01*
X0129979Y0120392D01*
X0131076Y0119295D01*
X0132509Y0118702D01*
X0134487Y0118878D02*
X0136309Y0118878D01*
X0135985Y0118554D02*
X0135985Y0116649D01*
X0137332Y0115302D01*
X0139238Y0115302D01*
X0140585Y0116649D01*
X0140585Y0118554D01*
X0139238Y0119902D01*
X0137332Y0119902D01*
X0135985Y0118554D01*
X0135985Y0118080D02*
X0106685Y0118080D01*
X0106835Y0117281D02*
X0135985Y0117281D01*
X0136152Y0116483D02*
X0134107Y0116483D01*
X0134061Y0116502D02*
X0132509Y0116502D01*
X0131076Y0115908D01*
X0129979Y0114811D01*
X0129385Y0113377D01*
X0129385Y0111826D01*
X0129979Y0110392D01*
X0131076Y0109295D01*
X0132509Y0108702D01*
X0134061Y0108702D01*
X0135494Y0109295D01*
X0136591Y0110392D01*
X0137185Y0111826D01*
X0137185Y0113377D01*
X0136591Y0114811D01*
X0135494Y0115908D01*
X0134061Y0116502D01*
X0132463Y0116483D02*
X0124107Y0116483D01*
X0124061Y0116502D02*
X0122509Y0116502D01*
X0121076Y0115908D01*
X0119979Y0114811D01*
X0119385Y0113377D01*
X0119385Y0111826D01*
X0119524Y0111490D01*
X0118613Y0112402D01*
X0116707Y0112402D01*
X0116210Y0111904D01*
X0116210Y0112929D01*
X0114863Y0114277D01*
X0112957Y0114277D01*
X0111610Y0112929D01*
X0111610Y0111024D01*
X0112957Y0109677D01*
X0114863Y0109677D01*
X0115360Y0110174D01*
X0115360Y0109277D01*
X0114832Y0109277D01*
X0113485Y0107929D01*
X0113485Y0106024D01*
X0114832Y0104677D01*
X0116738Y0104677D01*
X0118085Y0106024D01*
X0118085Y0107802D01*
X0118613Y0107802D01*
X0119960Y0109149D01*
X0119960Y0110438D01*
X0119979Y0110392D01*
X0121076Y0109295D01*
X0122509Y0108702D01*
X0124061Y0108702D01*
X0125494Y0109295D01*
X0126591Y0110392D01*
X0127185Y0111826D01*
X0127185Y0113377D01*
X0126591Y0114811D01*
X0125494Y0115908D01*
X0124061Y0116502D01*
X0122463Y0116483D02*
X0106835Y0116483D01*
X0106495Y0115684D02*
X0120852Y0115684D01*
X0120054Y0114886D02*
X0105697Y0114886D01*
X0104585Y0114087D02*
X0112768Y0114087D01*
X0111969Y0113289D02*
X0104585Y0113289D01*
X0104585Y0112490D02*
X0111610Y0112490D01*
X0111610Y0111691D02*
X0104585Y0111691D01*
X0104585Y0110893D02*
X0111741Y0110893D01*
X0112540Y0110094D02*
X0104585Y0110094D01*
X0104585Y0109296D02*
X0115360Y0109296D01*
X0115360Y0110094D02*
X0115281Y0110094D01*
X0114053Y0108497D02*
X0104585Y0108497D01*
X0104585Y0107699D02*
X0113485Y0107699D01*
X0113485Y0106900D02*
X0104585Y0106900D01*
X0104585Y0106102D02*
X0113485Y0106102D01*
X0114206Y0105303D02*
X0104585Y0105303D01*
X0104585Y0104505D02*
X0119852Y0104505D01*
X0119979Y0104811D02*
X0119385Y0103377D01*
X0119385Y0101826D01*
X0119979Y0100392D01*
X0121076Y0099295D01*
X0122509Y0098702D01*
X0124061Y0098702D01*
X0125494Y0099295D01*
X0126591Y0100392D01*
X0127185Y0101826D01*
X0127185Y0103377D01*
X0126591Y0104811D01*
X0125494Y0105908D01*
X0124061Y0106502D01*
X0122509Y0106502D01*
X0121076Y0105908D01*
X0119979Y0104811D01*
X0120471Y0105303D02*
X0117365Y0105303D01*
X0118085Y0106102D02*
X0121544Y0106102D01*
X0119521Y0103706D02*
X0104585Y0103706D01*
X0104180Y0102908D02*
X0119385Y0102908D01*
X0119385Y0102109D02*
X0103381Y0102109D01*
X0102583Y0101311D02*
X0119598Y0101311D01*
X0119929Y0100512D02*
X0101784Y0100512D01*
X0100986Y0099714D02*
X0120658Y0099714D01*
X0121994Y0098915D02*
X0100187Y0098915D01*
X0099389Y0098117D02*
X0139735Y0098117D01*
X0139735Y0097899D02*
X0141082Y0096552D01*
X0142988Y0096552D01*
X0144335Y0097899D01*
X0144335Y0099804D01*
X0142988Y0101152D01*
X0141082Y0101152D01*
X0139735Y0099804D01*
X0139735Y0097899D01*
X0140316Y0097318D02*
X0098960Y0097318D01*
X0098960Y0096520D02*
X0156610Y0096520D01*
X0156610Y0096024D02*
X0157957Y0094677D01*
X0159863Y0094677D01*
X0161210Y0096024D01*
X0161210Y0097929D01*
X0159863Y0099277D01*
X0157957Y0099277D01*
X0156610Y0097929D01*
X0156610Y0096024D01*
X0156913Y0095721D02*
X0135681Y0095721D01*
X0135494Y0095908D02*
X0134061Y0096502D01*
X0132509Y0096502D01*
X0131076Y0095908D01*
X0129979Y0094811D01*
X0129385Y0093377D01*
X0129385Y0091826D01*
X0129979Y0090392D01*
X0131076Y0089295D01*
X0132509Y0088702D01*
X0134061Y0088702D01*
X0135494Y0089295D01*
X0136591Y0090392D01*
X0137185Y0091826D01*
X0137185Y0093377D01*
X0136591Y0094811D01*
X0135494Y0095908D01*
X0136479Y0094923D02*
X0157711Y0094923D01*
X0160109Y0094923D02*
X0223800Y0094923D01*
X0223800Y0095721D02*
X0205907Y0095721D01*
X0205488Y0095302D02*
X0206835Y0096649D01*
X0206835Y0098554D01*
X0205488Y0099902D01*
X0203582Y0099902D01*
X0202235Y0098554D01*
X0202235Y0096649D01*
X0203582Y0095302D01*
X0205488Y0095302D01*
X0206706Y0096520D02*
X0220489Y0096520D01*
X0219735Y0097318D02*
X0206835Y0097318D01*
X0206835Y0098117D02*
X0219735Y0098117D01*
X0219735Y0098915D02*
X0206474Y0098915D01*
X0205676Y0099714D02*
X0220270Y0099714D01*
X0221068Y0100512D02*
X0143627Y0100512D01*
X0144335Y0099714D02*
X0203395Y0099714D01*
X0202596Y0098915D02*
X0160224Y0098915D01*
X0161023Y0098117D02*
X0202235Y0098117D01*
X0202235Y0097318D02*
X0161210Y0097318D01*
X0161210Y0096520D02*
X0202364Y0096520D01*
X0203163Y0095721D02*
X0160907Y0095721D01*
X0162332Y0093652D02*
X0160985Y0092304D01*
X0160985Y0090527D01*
X0160457Y0090527D01*
X0159110Y0089179D01*
X0159110Y0087274D01*
X0160457Y0085927D01*
X0160985Y0085927D01*
X0160985Y0084277D01*
X0160457Y0084277D01*
X0159110Y0082929D01*
X0159110Y0081024D01*
X0160345Y0079789D01*
X0159110Y0078554D01*
X0159110Y0076649D01*
X0160457Y0075302D01*
X0162363Y0075302D01*
X0163710Y0076649D01*
X0163710Y0078554D01*
X0162475Y0079789D01*
X0163710Y0081024D01*
X0163710Y0082802D01*
X0164238Y0082802D01*
X0165585Y0084149D01*
X0165585Y0086054D01*
X0164238Y0087402D01*
X0163710Y0087402D01*
X0163710Y0089052D01*
X0164238Y0089052D01*
X0165585Y0090399D01*
X0165585Y0092304D01*
X0164238Y0093652D01*
X0162332Y0093652D01*
X0162007Y0093326D02*
X0137185Y0093326D01*
X0137185Y0092527D02*
X0161208Y0092527D01*
X0160985Y0091729D02*
X0137145Y0091729D01*
X0136814Y0090930D02*
X0160985Y0090930D01*
X0160062Y0090132D02*
X0136331Y0090132D01*
X0135532Y0089333D02*
X0159264Y0089333D01*
X0159110Y0088535D02*
X0139355Y0088535D01*
X0139238Y0088652D02*
X0137332Y0088652D01*
X0135985Y0087304D01*
X0135985Y0085399D01*
X0137332Y0084052D01*
X0139238Y0084052D01*
X0140585Y0085399D01*
X0140585Y0087304D01*
X0139238Y0088652D01*
X0140153Y0087736D02*
X0159110Y0087736D01*
X0159446Y0086938D02*
X0140585Y0086938D01*
X0140585Y0086139D02*
X0160245Y0086139D01*
X0160985Y0085341D02*
X0140527Y0085341D01*
X0139728Y0084542D02*
X0145723Y0084542D01*
X0146082Y0084902D02*
X0144735Y0083554D01*
X0144735Y0081649D01*
X0146082Y0080302D01*
X0147988Y0080302D01*
X0149335Y0081649D01*
X0149335Y0083554D01*
X0147988Y0084902D01*
X0146082Y0084902D01*
X0144924Y0083744D02*
X0118930Y0083744D01*
X0119335Y0084149D02*
X0117988Y0082802D01*
X0116082Y0082802D01*
X0114735Y0084149D01*
X0114735Y0086054D01*
X0116082Y0087402D01*
X0117988Y0087402D01*
X0119335Y0086054D01*
X0119335Y0084149D01*
X0119335Y0084542D02*
X0136842Y0084542D01*
X0136043Y0085341D02*
X0119335Y0085341D01*
X0119250Y0086139D02*
X0135985Y0086139D01*
X0135985Y0086938D02*
X0118452Y0086938D01*
X0117988Y0089677D02*
X0116082Y0089677D01*
X0114735Y0091024D01*
X0114735Y0092929D01*
X0116082Y0094277D01*
X0117988Y0094277D01*
X0119335Y0092929D01*
X0119335Y0091024D01*
X0117988Y0089677D01*
X0118443Y0090132D02*
X0120240Y0090132D01*
X0119979Y0090392D02*
X0121076Y0089295D01*
X0122509Y0088702D01*
X0124061Y0088702D01*
X0125494Y0089295D01*
X0126591Y0090392D01*
X0127185Y0091826D01*
X0127185Y0093377D01*
X0126591Y0094811D01*
X0125494Y0095908D01*
X0124061Y0096502D01*
X0122509Y0096502D01*
X0121076Y0095908D01*
X0119979Y0094811D01*
X0119385Y0093377D01*
X0119385Y0091826D01*
X0119979Y0090392D01*
X0119756Y0090930D02*
X0119241Y0090930D01*
X0119335Y0091729D02*
X0119425Y0091729D01*
X0119385Y0092527D02*
X0119335Y0092527D01*
X0119385Y0093326D02*
X0118939Y0093326D01*
X0119694Y0094124D02*
X0118140Y0094124D01*
X0120091Y0094923D02*
X0098960Y0094923D01*
X0098960Y0095721D02*
X0120889Y0095721D01*
X0125681Y0095721D02*
X0130889Y0095721D01*
X0130091Y0094923D02*
X0126479Y0094923D01*
X0126876Y0094124D02*
X0129694Y0094124D01*
X0129385Y0093326D02*
X0127185Y0093326D01*
X0127185Y0092527D02*
X0129385Y0092527D01*
X0129425Y0091729D02*
X0127145Y0091729D01*
X0126814Y0090930D02*
X0129756Y0090930D01*
X0130240Y0090132D02*
X0126331Y0090132D01*
X0125532Y0089333D02*
X0131038Y0089333D01*
X0136417Y0087736D02*
X0098960Y0087736D01*
X0098960Y0086938D02*
X0115618Y0086938D01*
X0114820Y0086139D02*
X0102375Y0086139D01*
X0102363Y0086152D02*
X0103710Y0084804D01*
X0103710Y0082899D01*
X0102363Y0081552D01*
X0100457Y0081552D01*
X0099110Y0082899D01*
X0099110Y0084804D01*
X0100457Y0086152D01*
X0102363Y0086152D01*
X0103174Y0085341D02*
X0114735Y0085341D01*
X0114735Y0084542D02*
X0103710Y0084542D01*
X0103710Y0083744D02*
X0115140Y0083744D01*
X0115939Y0082945D02*
X0103710Y0082945D01*
X0102958Y0082147D02*
X0129577Y0082147D01*
X0129110Y0081679D02*
X0130457Y0083027D01*
X0132363Y0083027D01*
X0133710Y0081679D01*
X0133710Y0079774D01*
X0133413Y0079477D01*
X0133710Y0079179D01*
X0133710Y0077274D01*
X0132363Y0075927D01*
X0130457Y0075927D01*
X0129110Y0077274D01*
X0129110Y0079179D01*
X0129407Y0079477D01*
X0129110Y0079774D01*
X0129110Y0081679D01*
X0129110Y0081348D02*
X0098960Y0081348D01*
X0098960Y0080550D02*
X0129110Y0080550D01*
X0129133Y0079751D02*
X0108763Y0079751D01*
X0109335Y0079179D02*
X0107988Y0080527D01*
X0106082Y0080527D01*
X0104735Y0079179D01*
X0104735Y0077274D01*
X0106082Y0075927D01*
X0107988Y0075927D01*
X0109335Y0077274D01*
X0109335Y0079179D01*
X0109335Y0078953D02*
X0129110Y0078953D01*
X0129110Y0078154D02*
X0109335Y0078154D01*
X0109335Y0077356D02*
X0129110Y0077356D01*
X0129827Y0076557D02*
X0108618Y0076557D01*
X0105452Y0076557D02*
X0098960Y0076557D01*
X0098960Y0077356D02*
X0104735Y0077356D01*
X0104735Y0078154D02*
X0098960Y0078154D01*
X0098960Y0078953D02*
X0104735Y0078953D01*
X0105307Y0079751D02*
X0098960Y0079751D01*
X0098960Y0082147D02*
X0099863Y0082147D01*
X0099110Y0082945D02*
X0098960Y0082945D01*
X0098960Y0083744D02*
X0099110Y0083744D01*
X0099110Y0084542D02*
X0098960Y0084542D01*
X0098960Y0085341D02*
X0099646Y0085341D01*
X0098960Y0086139D02*
X0100445Y0086139D01*
X0098960Y0088535D02*
X0137215Y0088535D01*
X0136876Y0094124D02*
X0208430Y0094124D01*
X0207860Y0093554D02*
X0207860Y0091649D01*
X0209207Y0090302D01*
X0211113Y0090302D01*
X0212460Y0091649D01*
X0212460Y0093554D01*
X0211113Y0094902D01*
X0209207Y0094902D01*
X0207860Y0093554D01*
X0207860Y0093326D02*
X0164564Y0093326D01*
X0165362Y0092527D02*
X0207860Y0092527D01*
X0207860Y0091729D02*
X0196786Y0091729D01*
X0196113Y0092402D02*
X0194207Y0092402D01*
X0192860Y0091054D01*
X0192860Y0089149D01*
X0194207Y0087802D01*
X0196113Y0087802D01*
X0197460Y0089149D01*
X0197460Y0091054D01*
X0196113Y0092402D01*
X0197460Y0090930D02*
X0208579Y0090930D01*
X0211741Y0090930D02*
X0223800Y0090930D01*
X0223800Y0090132D02*
X0197460Y0090132D01*
X0197460Y0089333D02*
X0223800Y0089333D01*
X0223800Y0088535D02*
X0196846Y0088535D01*
X0193474Y0088535D02*
X0163710Y0088535D01*
X0163710Y0087736D02*
X0223800Y0087736D01*
X0223800Y0086938D02*
X0164702Y0086938D01*
X0165500Y0086139D02*
X0168570Y0086139D01*
X0168582Y0086152D02*
X0167235Y0084804D01*
X0167235Y0082899D01*
X0168582Y0081552D01*
X0170488Y0081552D01*
X0171835Y0082899D01*
X0171835Y0084804D01*
X0170488Y0086152D01*
X0168582Y0086152D01*
X0167771Y0085341D02*
X0165585Y0085341D01*
X0165585Y0084542D02*
X0167235Y0084542D01*
X0167235Y0083744D02*
X0165180Y0083744D01*
X0164381Y0082945D02*
X0167235Y0082945D01*
X0167988Y0082147D02*
X0163710Y0082147D01*
X0163710Y0081348D02*
X0220661Y0081348D01*
X0219863Y0082147D02*
X0171083Y0082147D01*
X0171835Y0082945D02*
X0219735Y0082945D01*
X0219735Y0083744D02*
X0171835Y0083744D01*
X0171835Y0084542D02*
X0220098Y0084542D01*
X0220896Y0085341D02*
X0171299Y0085341D01*
X0170500Y0086139D02*
X0223800Y0086139D01*
X0223800Y0085341D02*
X0223174Y0085341D01*
X0223409Y0081348D02*
X0223800Y0081348D01*
X0223800Y0080550D02*
X0163236Y0080550D01*
X0162513Y0079751D02*
X0165932Y0079751D01*
X0165360Y0079179D02*
X0166707Y0080527D01*
X0168613Y0080527D01*
X0169535Y0079604D01*
X0170457Y0080527D01*
X0172363Y0080527D01*
X0173710Y0079179D01*
X0173710Y0077274D01*
X0172363Y0075927D01*
X0170457Y0075927D01*
X0169535Y0076849D01*
X0168613Y0075927D01*
X0166707Y0075927D01*
X0165360Y0077274D01*
X0165360Y0079179D01*
X0165360Y0078953D02*
X0163312Y0078953D01*
X0163710Y0078154D02*
X0165360Y0078154D01*
X0165360Y0077356D02*
X0163710Y0077356D01*
X0163618Y0076557D02*
X0166077Y0076557D01*
X0169243Y0076557D02*
X0169827Y0076557D01*
X0172993Y0076557D02*
X0223800Y0076557D01*
X0223800Y0077356D02*
X0173710Y0077356D01*
X0173710Y0078154D02*
X0223800Y0078154D01*
X0223800Y0078953D02*
X0173710Y0078953D01*
X0173138Y0079751D02*
X0223800Y0079751D01*
X0223800Y0075758D02*
X0162820Y0075758D01*
X0160001Y0075758D02*
X0144960Y0075758D01*
X0144960Y0074960D02*
X0223800Y0074960D01*
X0223800Y0074161D02*
X0209353Y0074161D01*
X0209960Y0073554D02*
X0208613Y0074902D01*
X0206707Y0074902D01*
X0205360Y0073554D01*
X0205360Y0071649D01*
X0206707Y0070302D01*
X0208613Y0070302D01*
X0209960Y0071649D01*
X0209960Y0073554D01*
X0209960Y0073363D02*
X0223800Y0073363D01*
X0223800Y0072564D02*
X0209960Y0072564D01*
X0209960Y0071766D02*
X0223800Y0071766D01*
X0223800Y0070967D02*
X0209279Y0070967D01*
X0206042Y0070967D02*
X0200585Y0070967D01*
X0200585Y0071054D02*
X0199238Y0072402D01*
X0197332Y0072402D01*
X0195985Y0071054D01*
X0195985Y0069149D01*
X0197332Y0067802D01*
X0199238Y0067802D01*
X0200585Y0069149D01*
X0200585Y0071054D01*
X0200585Y0070169D02*
X0223800Y0070169D01*
X0223800Y0069370D02*
X0200585Y0069370D01*
X0200008Y0068572D02*
X0223800Y0068572D01*
X0223800Y0067773D02*
X0188585Y0067773D01*
X0187988Y0067177D02*
X0189335Y0068524D01*
X0189335Y0070429D01*
X0187988Y0071777D01*
X0186082Y0071777D01*
X0184735Y0070429D01*
X0184735Y0068524D01*
X0186082Y0067177D01*
X0187988Y0067177D01*
X0189335Y0068572D02*
X0196562Y0068572D01*
X0195985Y0069370D02*
X0189335Y0069370D01*
X0189335Y0070169D02*
X0195985Y0070169D01*
X0195985Y0070967D02*
X0188797Y0070967D01*
X0187999Y0071766D02*
X0196697Y0071766D01*
X0199874Y0071766D02*
X0205360Y0071766D01*
X0205360Y0072564D02*
X0100786Y0072564D01*
X0101584Y0071766D02*
X0186072Y0071766D01*
X0185273Y0070967D02*
X0182547Y0070967D01*
X0182363Y0071152D02*
X0180457Y0071152D01*
X0179535Y0070229D01*
X0178613Y0071152D01*
X0176707Y0071152D01*
X0175360Y0069804D01*
X0175360Y0067899D01*
X0176707Y0066552D01*
X0178613Y0066552D01*
X0179535Y0067474D01*
X0180457Y0066552D01*
X0182363Y0066552D01*
X0183710Y0067899D01*
X0183710Y0069804D01*
X0182363Y0071152D01*
X0183346Y0070169D02*
X0184735Y0070169D01*
X0184735Y0069370D02*
X0183710Y0069370D01*
X0183710Y0068572D02*
X0184735Y0068572D01*
X0185486Y0067773D02*
X0183585Y0067773D01*
X0182786Y0066975D02*
X0223800Y0066975D01*
X0223800Y0066176D02*
X0200924Y0066176D01*
X0201722Y0065378D02*
X0215934Y0065378D01*
X0215360Y0064804D02*
X0216707Y0066152D01*
X0218613Y0066152D01*
X0219960Y0064804D01*
X0219960Y0062899D01*
X0218613Y0061552D01*
X0216707Y0061552D01*
X0215360Y0062899D01*
X0215360Y0064804D01*
X0215360Y0064579D02*
X0202521Y0064579D01*
X0203319Y0063781D02*
X0215360Y0063781D01*
X0215360Y0062982D02*
X0204118Y0062982D01*
X0204916Y0062184D02*
X0216075Y0062184D01*
X0219245Y0062184D02*
X0223800Y0062184D01*
X0223800Y0062982D02*
X0219960Y0062982D01*
X0219960Y0063781D02*
X0223800Y0063781D01*
X0223800Y0064579D02*
X0219960Y0064579D01*
X0219387Y0065378D02*
X0223800Y0065378D01*
X0223800Y0061385D02*
X0205715Y0061385D01*
X0206513Y0060587D02*
X0223800Y0060587D01*
X0223800Y0059788D02*
X0207312Y0059788D01*
X0208110Y0058990D02*
X0223800Y0058990D01*
X0223800Y0058191D02*
X0210323Y0058191D01*
X0211122Y0057393D02*
X0223800Y0057393D01*
X0223800Y0056594D02*
X0211210Y0056594D01*
X0211210Y0055796D02*
X0223800Y0055796D01*
X0223800Y0054997D02*
X0210808Y0054997D01*
X0208910Y0056352D02*
X0200160Y0065102D01*
X0106410Y0065102D01*
X0106375Y0066975D02*
X0176284Y0066975D01*
X0175486Y0067773D02*
X0105577Y0067773D01*
X0104778Y0068572D02*
X0175360Y0068572D01*
X0175360Y0069370D02*
X0103980Y0069370D01*
X0103181Y0070169D02*
X0175725Y0070169D01*
X0176523Y0070967D02*
X0102383Y0070967D01*
X0099987Y0073363D02*
X0205360Y0073363D01*
X0205967Y0074161D02*
X0144348Y0074161D01*
X0144960Y0074774D02*
X0143613Y0073427D01*
X0141707Y0073427D01*
X0140360Y0074774D01*
X0140360Y0076679D01*
X0141707Y0078027D01*
X0143613Y0078027D01*
X0144960Y0076679D01*
X0144960Y0074774D01*
X0144960Y0076557D02*
X0159202Y0076557D01*
X0159110Y0077356D02*
X0144284Y0077356D01*
X0145835Y0080550D02*
X0133710Y0080550D01*
X0133710Y0081348D02*
X0145036Y0081348D01*
X0144735Y0082147D02*
X0133243Y0082147D01*
X0132444Y0082945D02*
X0144735Y0082945D01*
X0148347Y0084542D02*
X0160985Y0084542D01*
X0159924Y0083744D02*
X0149146Y0083744D01*
X0149335Y0082945D02*
X0159126Y0082945D01*
X0159110Y0082147D02*
X0149335Y0082147D01*
X0149034Y0081348D02*
X0159110Y0081348D01*
X0159585Y0080550D02*
X0148236Y0080550D01*
X0141036Y0077356D02*
X0133710Y0077356D01*
X0133710Y0078154D02*
X0159110Y0078154D01*
X0159508Y0078953D02*
X0133710Y0078953D01*
X0133687Y0079751D02*
X0160307Y0079751D01*
X0164519Y0089333D02*
X0192860Y0089333D01*
X0192860Y0090132D02*
X0165318Y0090132D01*
X0165585Y0090930D02*
X0192860Y0090930D01*
X0193534Y0091729D02*
X0165585Y0091729D01*
X0156610Y0097318D02*
X0143754Y0097318D01*
X0144335Y0098117D02*
X0156798Y0098117D01*
X0157596Y0098915D02*
X0144335Y0098915D01*
X0140443Y0100512D02*
X0136641Y0100512D01*
X0136591Y0100392D02*
X0137185Y0101826D01*
X0137185Y0103377D01*
X0136591Y0104811D01*
X0135494Y0105908D01*
X0134061Y0106502D01*
X0132509Y0106502D01*
X0131076Y0105908D01*
X0129979Y0104811D01*
X0129385Y0103377D01*
X0129385Y0101826D01*
X0129979Y0100392D01*
X0131076Y0099295D01*
X0132509Y0098702D01*
X0134061Y0098702D01*
X0135494Y0099295D01*
X0136591Y0100392D01*
X0135913Y0099714D02*
X0139735Y0099714D01*
X0139735Y0098915D02*
X0134577Y0098915D01*
X0131994Y0098915D02*
X0124577Y0098915D01*
X0125913Y0099714D02*
X0130658Y0099714D01*
X0129929Y0100512D02*
X0126641Y0100512D01*
X0126972Y0101311D02*
X0129598Y0101311D01*
X0129385Y0102109D02*
X0127185Y0102109D01*
X0127185Y0102908D02*
X0129385Y0102908D01*
X0129521Y0103706D02*
X0127049Y0103706D01*
X0126718Y0104505D02*
X0129852Y0104505D01*
X0130471Y0105303D02*
X0126099Y0105303D01*
X0125026Y0106102D02*
X0131544Y0106102D01*
X0131075Y0109296D02*
X0125495Y0109296D01*
X0126293Y0110094D02*
X0130277Y0110094D01*
X0129772Y0110893D02*
X0126799Y0110893D01*
X0127129Y0111691D02*
X0129441Y0111691D01*
X0129385Y0112490D02*
X0127185Y0112490D01*
X0127185Y0113289D02*
X0129385Y0113289D01*
X0129679Y0114087D02*
X0126891Y0114087D01*
X0126517Y0114886D02*
X0130054Y0114886D01*
X0130852Y0115684D02*
X0125718Y0115684D01*
X0125876Y0119677D02*
X0130695Y0119677D01*
X0129945Y0120475D02*
X0126626Y0120475D01*
X0126956Y0121274D02*
X0129614Y0121274D01*
X0129385Y0122072D02*
X0127185Y0122072D01*
X0127185Y0122871D02*
X0129385Y0122871D01*
X0129506Y0123669D02*
X0127064Y0123669D01*
X0126734Y0124468D02*
X0129837Y0124468D01*
X0130434Y0125266D02*
X0126136Y0125266D01*
X0125116Y0126065D02*
X0131454Y0126065D01*
X0132509Y0128702D02*
X0131076Y0129295D01*
X0129979Y0130392D01*
X0129385Y0131826D01*
X0129385Y0133377D01*
X0129979Y0134811D01*
X0131076Y0135908D01*
X0132509Y0136502D01*
X0134061Y0136502D01*
X0135494Y0135908D01*
X0136591Y0134811D01*
X0137185Y0133377D01*
X0137185Y0131826D01*
X0136591Y0130392D01*
X0135494Y0129295D01*
X0134061Y0128702D01*
X0132509Y0128702D01*
X0131164Y0129259D02*
X0106210Y0129259D01*
X0106210Y0128524D02*
X0104863Y0127177D01*
X0102957Y0127177D01*
X0101610Y0128524D01*
X0101610Y0130429D01*
X0102957Y0131777D01*
X0104863Y0131777D01*
X0106210Y0130429D01*
X0106210Y0128524D01*
X0106146Y0128460D02*
X0181674Y0128460D01*
X0181707Y0128427D02*
X0183613Y0128427D01*
X0184960Y0129774D01*
X0184960Y0131679D01*
X0184038Y0132602D01*
X0184960Y0133524D01*
X0184960Y0135429D01*
X0183613Y0136777D01*
X0181707Y0136777D01*
X0180360Y0135429D01*
X0180360Y0133524D01*
X0181282Y0132602D01*
X0180360Y0131679D01*
X0180360Y0129774D01*
X0181707Y0128427D01*
X0180875Y0129259D02*
X0135406Y0129259D01*
X0136256Y0130057D02*
X0180360Y0130057D01*
X0180360Y0130856D02*
X0136783Y0130856D01*
X0137114Y0131654D02*
X0180360Y0131654D01*
X0181134Y0132453D02*
X0137185Y0132453D01*
X0137185Y0133251D02*
X0180633Y0133251D01*
X0180360Y0134050D02*
X0136907Y0134050D01*
X0136554Y0134848D02*
X0155286Y0134848D01*
X0155457Y0134677D02*
X0157363Y0134677D01*
X0158710Y0136024D01*
X0158710Y0137929D01*
X0157363Y0139277D01*
X0155457Y0139277D01*
X0154848Y0138667D01*
X0154463Y0139052D01*
X0154863Y0139052D01*
X0156210Y0140399D01*
X0156210Y0142304D01*
X0154863Y0143652D01*
X0152957Y0143652D01*
X0151610Y0142304D01*
X0151610Y0140399D01*
X0152107Y0139902D01*
X0151707Y0139902D01*
X0150360Y0138554D01*
X0150360Y0136649D01*
X0151707Y0135302D01*
X0153613Y0135302D01*
X0154223Y0135911D01*
X0155457Y0134677D01*
X0154487Y0135647D02*
X0153958Y0135647D01*
X0151362Y0135647D02*
X0135755Y0135647D01*
X0134197Y0136445D02*
X0150564Y0136445D01*
X0150360Y0137244D02*
X0149305Y0137244D01*
X0149960Y0137899D02*
X0149960Y0139804D01*
X0148613Y0141152D01*
X0146707Y0141152D01*
X0145785Y0140229D01*
X0144863Y0141152D01*
X0142957Y0141152D01*
X0141610Y0139804D01*
X0141610Y0137899D01*
X0142957Y0136552D01*
X0144863Y0136552D01*
X0145785Y0137474D01*
X0146707Y0136552D01*
X0148613Y0136552D01*
X0149960Y0137899D01*
X0149960Y0138042D02*
X0150360Y0138042D01*
X0150647Y0138841D02*
X0149960Y0138841D01*
X0149960Y0139639D02*
X0151445Y0139639D01*
X0151610Y0140438D02*
X0149327Y0140438D01*
X0151610Y0141236D02*
X0128298Y0141236D01*
X0128710Y0141649D02*
X0127363Y0140302D01*
X0125457Y0140302D01*
X0124110Y0141649D01*
X0124110Y0143554D01*
X0125457Y0144902D01*
X0127363Y0144902D01*
X0128710Y0143554D01*
X0128710Y0141649D01*
X0128710Y0142035D02*
X0151610Y0142035D01*
X0152139Y0142833D02*
X0141145Y0142833D01*
X0140488Y0142177D02*
X0141835Y0143524D01*
X0141835Y0145429D01*
X0140488Y0146777D01*
X0138582Y0146777D01*
X0137235Y0145429D01*
X0137235Y0143524D01*
X0138582Y0142177D01*
X0140488Y0142177D01*
X0141835Y0143632D02*
X0152938Y0143632D01*
X0154883Y0143632D02*
X0155877Y0143632D01*
X0156082Y0143427D02*
X0154735Y0144774D01*
X0154735Y0146679D01*
X0155857Y0147802D01*
X0155457Y0147802D01*
X0154110Y0149149D01*
X0154110Y0151054D01*
X0155457Y0152402D01*
X0157363Y0152402D01*
X0158485Y0151279D01*
X0158485Y0152929D01*
X0159832Y0154277D01*
X0161738Y0154277D01*
X0163085Y0152929D01*
X0163085Y0151024D01*
X0161738Y0149677D01*
X0159832Y0149677D01*
X0158710Y0150799D01*
X0158710Y0149149D01*
X0157588Y0148027D01*
X0157988Y0148027D01*
X0159335Y0146679D01*
X0159335Y0144774D01*
X0157988Y0143427D01*
X0156082Y0143427D01*
X0155681Y0142833D02*
X0160264Y0142833D01*
X0159735Y0142304D02*
X0159735Y0140399D01*
X0161082Y0139052D01*
X0162988Y0139052D01*
X0164335Y0140399D01*
X0164335Y0142304D01*
X0162988Y0143652D01*
X0161082Y0143652D01*
X0159735Y0142304D01*
X0159735Y0142035D02*
X0156210Y0142035D01*
X0156210Y0141236D02*
X0159735Y0141236D01*
X0159735Y0140438D02*
X0156210Y0140438D01*
X0155451Y0139639D02*
X0160495Y0139639D01*
X0158597Y0138042D02*
X0202235Y0138042D01*
X0202235Y0137274D02*
X0203582Y0135927D01*
X0205488Y0135927D01*
X0206835Y0137274D01*
X0206835Y0139179D01*
X0205488Y0140527D01*
X0203582Y0140527D01*
X0202235Y0139179D01*
X0202235Y0137274D01*
X0202265Y0137244D02*
X0158710Y0137244D01*
X0158710Y0136445D02*
X0181376Y0136445D01*
X0180578Y0135647D02*
X0158333Y0135647D01*
X0157534Y0134848D02*
X0180360Y0134848D01*
X0183944Y0136445D02*
X0203064Y0136445D01*
X0202235Y0138841D02*
X0157799Y0138841D01*
X0155022Y0138841D02*
X0154674Y0138841D01*
X0158193Y0143632D02*
X0161063Y0143632D01*
X0163008Y0143632D02*
X0164627Y0143632D01*
X0164832Y0143427D02*
X0166738Y0143427D01*
X0168085Y0144774D01*
X0168085Y0146679D01*
X0166738Y0148027D01*
X0164832Y0148027D01*
X0163485Y0146679D01*
X0163485Y0144774D01*
X0164832Y0143427D01*
X0163806Y0142833D02*
X0169014Y0142833D01*
X0168485Y0142304D02*
X0168485Y0140399D01*
X0169832Y0139052D01*
X0171738Y0139052D01*
X0173085Y0140399D01*
X0173085Y0142304D01*
X0171738Y0143652D01*
X0169832Y0143652D01*
X0168485Y0142304D01*
X0168485Y0142035D02*
X0164335Y0142035D01*
X0164335Y0141236D02*
X0168485Y0141236D01*
X0168485Y0140438D02*
X0164335Y0140438D01*
X0163576Y0139639D02*
X0169245Y0139639D01*
X0172326Y0139639D02*
X0202695Y0139639D01*
X0203494Y0140438D02*
X0197499Y0140438D01*
X0198085Y0141024D02*
X0198085Y0142929D01*
X0197788Y0143227D01*
X0198085Y0143524D01*
X0198085Y0145429D01*
X0196738Y0146777D01*
X0194832Y0146777D01*
X0193485Y0145429D01*
X0193485Y0143524D01*
X0193782Y0143227D01*
X0193485Y0142929D01*
X0193485Y0141024D01*
X0194832Y0139677D01*
X0196738Y0139677D01*
X0198085Y0141024D01*
X0198085Y0141236D02*
X0223800Y0141236D01*
X0223800Y0140438D02*
X0205577Y0140438D01*
X0206375Y0139639D02*
X0223800Y0139639D01*
X0223800Y0138841D02*
X0206835Y0138841D01*
X0206835Y0138042D02*
X0223800Y0138042D01*
X0223800Y0137244D02*
X0206805Y0137244D01*
X0206006Y0136445D02*
X0223800Y0136445D01*
X0223800Y0135647D02*
X0184743Y0135647D01*
X0184960Y0134848D02*
X0223800Y0134848D01*
X0223800Y0134050D02*
X0184960Y0134050D01*
X0184687Y0133251D02*
X0223800Y0133251D01*
X0223800Y0132453D02*
X0184187Y0132453D01*
X0184960Y0131654D02*
X0223800Y0131654D01*
X0223800Y0130856D02*
X0184960Y0130856D01*
X0184960Y0130057D02*
X0223800Y0130057D01*
X0223800Y0129259D02*
X0184445Y0129259D01*
X0183646Y0128460D02*
X0223800Y0128460D01*
X0223800Y0127662D02*
X0105348Y0127662D01*
X0106210Y0130057D02*
X0130314Y0130057D01*
X0129787Y0130856D02*
X0105784Y0130856D01*
X0105457Y0131552D02*
X0107363Y0131552D01*
X0108710Y0132899D01*
X0108710Y0134804D01*
X0107475Y0136039D01*
X0108710Y0137274D01*
X0108710Y0139179D01*
X0107363Y0140527D01*
X0105457Y0140527D01*
X0104110Y0139179D01*
X0104110Y0137274D01*
X0105345Y0136039D01*
X0104110Y0134804D01*
X0104110Y0132899D01*
X0105457Y0131552D01*
X0105355Y0131654D02*
X0104985Y0131654D01*
X0104556Y0132453D02*
X0081210Y0132453D01*
X0081210Y0133251D02*
X0104110Y0133251D01*
X0104110Y0134050D02*
X0080715Y0134050D01*
X0081210Y0133554D02*
X0079863Y0134902D01*
X0078710Y0134902D01*
X0078710Y0136054D01*
X0077363Y0137402D01*
X0075457Y0137402D01*
X0074110Y0136054D01*
X0074110Y0134149D01*
X0075457Y0132802D01*
X0076610Y0132802D01*
X0076610Y0131649D01*
X0077957Y0130302D01*
X0079863Y0130302D01*
X0081210Y0131649D01*
X0081210Y0133554D01*
X0079916Y0134848D02*
X0104154Y0134848D01*
X0104953Y0135647D02*
X0078710Y0135647D01*
X0078319Y0136445D02*
X0104939Y0136445D01*
X0104140Y0137244D02*
X0077521Y0137244D01*
X0075300Y0137244D02*
X0070585Y0137244D01*
X0070585Y0136445D02*
X0074501Y0136445D01*
X0074110Y0135647D02*
X0070208Y0135647D01*
X0070457Y0134902D02*
X0069110Y0133554D01*
X0069110Y0131649D01*
X0070457Y0130302D01*
X0072363Y0130302D01*
X0073710Y0131649D01*
X0073710Y0133554D01*
X0072363Y0134902D01*
X0070457Y0134902D01*
X0070404Y0134848D02*
X0069409Y0134848D01*
X0069606Y0134050D02*
X0067660Y0134050D01*
X0067660Y0133251D02*
X0069110Y0133251D01*
X0069110Y0132453D02*
X0067660Y0132453D01*
X0067660Y0131654D02*
X0069110Y0131654D01*
X0069903Y0130856D02*
X0067660Y0130856D01*
X0067660Y0130057D02*
X0101610Y0130057D01*
X0101610Y0129259D02*
X0067660Y0129259D01*
X0067660Y0128460D02*
X0101674Y0128460D01*
X0102472Y0127662D02*
X0082728Y0127662D01*
X0082363Y0128027D02*
X0080457Y0128027D01*
X0079110Y0126679D01*
X0079110Y0124774D01*
X0080457Y0123427D01*
X0082235Y0123427D01*
X0082235Y0122899D01*
X0083582Y0121552D01*
X0084735Y0121552D01*
X0084735Y0120399D01*
X0086082Y0119052D01*
X0087988Y0119052D01*
X0089335Y0120399D01*
X0089335Y0122304D01*
X0087988Y0123652D01*
X0086835Y0123652D01*
X0086835Y0124804D01*
X0085488Y0126152D01*
X0083710Y0126152D01*
X0083710Y0126679D01*
X0082363Y0128027D01*
X0083526Y0126863D02*
X0223800Y0126863D01*
X0223800Y0126065D02*
X0135116Y0126065D01*
X0136136Y0125266D02*
X0223800Y0125266D01*
X0223800Y0124468D02*
X0136734Y0124468D01*
X0137064Y0123669D02*
X0154850Y0123669D01*
X0155457Y0124277D02*
X0154110Y0122929D01*
X0154110Y0121024D01*
X0155457Y0119677D01*
X0157363Y0119677D01*
X0158710Y0121024D01*
X0158710Y0122929D01*
X0157363Y0124277D01*
X0155457Y0124277D01*
X0154110Y0122871D02*
X0137185Y0122871D01*
X0137185Y0122072D02*
X0154110Y0122072D01*
X0154110Y0121274D02*
X0136956Y0121274D01*
X0136626Y0120475D02*
X0154659Y0120475D01*
X0158161Y0120475D02*
X0160406Y0120475D01*
X0160360Y0120429D02*
X0160360Y0118524D01*
X0161707Y0117177D01*
X0163613Y0117177D01*
X0164960Y0118524D01*
X0164960Y0120429D01*
X0163613Y0121777D01*
X0161707Y0121777D01*
X0160360Y0120429D01*
X0160360Y0119677D02*
X0139463Y0119677D01*
X0140261Y0118878D02*
X0160360Y0118878D01*
X0160805Y0118080D02*
X0140585Y0118080D01*
X0140585Y0117281D02*
X0161603Y0117281D01*
X0163717Y0117281D02*
X0169728Y0117281D01*
X0169832Y0117177D02*
X0171738Y0117177D01*
X0173085Y0118524D01*
X0173085Y0120429D01*
X0171738Y0121777D01*
X0169832Y0121777D01*
X0168485Y0120429D01*
X0168485Y0118524D01*
X0169832Y0117177D01*
X0168930Y0118080D02*
X0164516Y0118080D01*
X0164960Y0118878D02*
X0168485Y0118878D01*
X0168485Y0119677D02*
X0164960Y0119677D01*
X0164914Y0120475D02*
X0168531Y0120475D01*
X0169329Y0121274D02*
X0164116Y0121274D01*
X0161204Y0121274D02*
X0158710Y0121274D01*
X0158710Y0122072D02*
X0223800Y0122072D01*
X0223800Y0121274D02*
X0177241Y0121274D01*
X0176738Y0121777D02*
X0174832Y0121777D01*
X0173485Y0120429D01*
X0173485Y0118524D01*
X0174832Y0117177D01*
X0176738Y0117177D01*
X0178085Y0118524D01*
X0178085Y0120429D01*
X0176738Y0121777D01*
X0178039Y0120475D02*
X0179781Y0120475D01*
X0179832Y0120527D02*
X0178485Y0119179D01*
X0178485Y0117274D01*
X0179832Y0115927D01*
X0180985Y0115927D01*
X0180985Y0115527D01*
X0179832Y0115527D01*
X0178485Y0114179D01*
X0178485Y0112274D01*
X0179832Y0110927D01*
X0181738Y0110927D01*
X0183085Y0112274D01*
X0183085Y0113427D01*
X0184238Y0113427D01*
X0185585Y0114774D01*
X0185585Y0116679D01*
X0184238Y0118027D01*
X0183085Y0118027D01*
X0183085Y0119179D01*
X0181738Y0120527D01*
X0179832Y0120527D01*
X0178982Y0119677D02*
X0178085Y0119677D01*
X0178085Y0118878D02*
X0178485Y0118878D01*
X0178485Y0118080D02*
X0177641Y0118080D01*
X0176842Y0117281D02*
X0178485Y0117281D01*
X0179277Y0116483D02*
X0140419Y0116483D01*
X0139620Y0115684D02*
X0180985Y0115684D01*
X0179191Y0114886D02*
X0136517Y0114886D01*
X0136891Y0114087D02*
X0178485Y0114087D01*
X0178485Y0113289D02*
X0137185Y0113289D01*
X0137185Y0112490D02*
X0168046Y0112490D01*
X0168582Y0113027D02*
X0167235Y0111679D01*
X0167235Y0109774D01*
X0168582Y0108427D01*
X0169735Y0108427D01*
X0169735Y0107274D01*
X0171082Y0105927D01*
X0172988Y0105927D01*
X0174335Y0107274D01*
X0174335Y0109179D01*
X0172988Y0110527D01*
X0171835Y0110527D01*
X0171835Y0111679D01*
X0170488Y0113027D01*
X0168582Y0113027D01*
X0167247Y0111691D02*
X0137129Y0111691D01*
X0136799Y0110893D02*
X0167235Y0110893D01*
X0167235Y0110094D02*
X0136293Y0110094D01*
X0135495Y0109296D02*
X0144852Y0109296D01*
X0145457Y0109902D02*
X0144110Y0108554D01*
X0144110Y0106649D01*
X0145457Y0105302D01*
X0147363Y0105302D01*
X0148710Y0106649D01*
X0148710Y0108554D01*
X0147363Y0109902D01*
X0145457Y0109902D01*
X0144110Y0108497D02*
X0119309Y0108497D01*
X0119960Y0109296D02*
X0121075Y0109296D01*
X0120277Y0110094D02*
X0119960Y0110094D01*
X0119441Y0111691D02*
X0119323Y0111691D01*
X0119385Y0112490D02*
X0116210Y0112490D01*
X0115851Y0113289D02*
X0119385Y0113289D01*
X0119679Y0114087D02*
X0115052Y0114087D01*
X0120695Y0119677D02*
X0088613Y0119677D01*
X0089335Y0120475D02*
X0119945Y0120475D01*
X0119614Y0121274D02*
X0089335Y0121274D01*
X0089335Y0122072D02*
X0119385Y0122072D01*
X0119385Y0122871D02*
X0116807Y0122871D01*
X0117460Y0123524D02*
X0116113Y0122177D01*
X0114207Y0122177D01*
X0112860Y0123524D01*
X0112860Y0125429D01*
X0114207Y0126777D01*
X0116113Y0126777D01*
X0117460Y0125429D01*
X0117460Y0123524D01*
X0117460Y0123669D02*
X0119506Y0123669D01*
X0119837Y0124468D02*
X0117460Y0124468D01*
X0117460Y0125266D02*
X0120434Y0125266D01*
X0121454Y0126065D02*
X0116825Y0126065D01*
X0113495Y0126065D02*
X0085575Y0126065D01*
X0086373Y0125266D02*
X0112860Y0125266D01*
X0112860Y0124468D02*
X0086835Y0124468D01*
X0086835Y0123669D02*
X0112860Y0123669D01*
X0113513Y0122871D02*
X0088769Y0122871D01*
X0085457Y0119677D02*
X0067660Y0119677D01*
X0067660Y0120475D02*
X0075284Y0120475D01*
X0075457Y0120302D02*
X0077363Y0120302D01*
X0078710Y0121649D01*
X0078710Y0123554D01*
X0077363Y0124902D01*
X0075457Y0124902D01*
X0074110Y0123554D01*
X0074110Y0121649D01*
X0075457Y0120302D01*
X0074485Y0121274D02*
X0067660Y0121274D01*
X0067660Y0122072D02*
X0074110Y0122072D01*
X0074110Y0122871D02*
X0067660Y0122871D01*
X0067660Y0123669D02*
X0074225Y0123669D01*
X0075023Y0124468D02*
X0067660Y0124468D01*
X0067660Y0125266D02*
X0079110Y0125266D01*
X0079110Y0126065D02*
X0067660Y0126065D01*
X0067660Y0126863D02*
X0079294Y0126863D01*
X0080093Y0127662D02*
X0067660Y0127662D01*
X0065785Y0127662D02*
X0049935Y0127662D01*
X0049935Y0128460D02*
X0065785Y0128460D01*
X0065785Y0129259D02*
X0049935Y0129259D01*
X0049935Y0130057D02*
X0065785Y0130057D01*
X0065785Y0130856D02*
X0049935Y0130856D01*
X0049935Y0131654D02*
X0050980Y0131654D01*
X0050360Y0132274D02*
X0051707Y0130927D01*
X0053613Y0130927D01*
X0054960Y0132274D01*
X0054960Y0134179D01*
X0053613Y0135527D01*
X0051707Y0135527D01*
X0050360Y0134179D01*
X0050360Y0132274D01*
X0050360Y0132453D02*
X0049935Y0132453D01*
X0049935Y0133251D02*
X0050360Y0133251D01*
X0050360Y0134050D02*
X0049935Y0134050D01*
X0049935Y0134848D02*
X0051029Y0134848D01*
X0049935Y0135647D02*
X0065785Y0135647D01*
X0065785Y0136445D02*
X0049935Y0136445D01*
X0049935Y0137244D02*
X0065785Y0137244D01*
X0065785Y0138042D02*
X0049935Y0138042D01*
X0049935Y0138841D02*
X0065785Y0138841D01*
X0065495Y0139639D02*
X0049935Y0139639D01*
X0049935Y0140438D02*
X0065360Y0140438D01*
X0065360Y0141236D02*
X0049935Y0141236D01*
X0049935Y0142035D02*
X0065716Y0142035D01*
X0065785Y0142833D02*
X0049935Y0142833D01*
X0049935Y0143632D02*
X0065785Y0143632D01*
X0065785Y0144430D02*
X0049935Y0144430D01*
X0049935Y0145229D02*
X0065785Y0145229D01*
X0065785Y0146027D02*
X0049935Y0146027D01*
X0049935Y0146826D02*
X0065785Y0146826D01*
X0065785Y0147625D02*
X0049935Y0147625D01*
X0049935Y0148423D02*
X0065785Y0148423D01*
X0065785Y0149222D02*
X0049935Y0149222D01*
X0049935Y0150020D02*
X0065785Y0150020D01*
X0065785Y0150819D02*
X0049935Y0150819D01*
X0049935Y0151617D02*
X0056017Y0151617D01*
X0056082Y0151552D02*
X0054735Y0152899D01*
X0054735Y0154804D01*
X0056082Y0156152D01*
X0057988Y0156152D01*
X0059335Y0154804D01*
X0059335Y0152899D01*
X0057988Y0151552D01*
X0056082Y0151552D01*
X0055219Y0152416D02*
X0049935Y0152416D01*
X0049935Y0153214D02*
X0054735Y0153214D01*
X0054735Y0154013D02*
X0049935Y0154013D01*
X0049935Y0154811D02*
X0054742Y0154811D01*
X0055540Y0155610D02*
X0049935Y0155610D01*
X0049935Y0156408D02*
X0060714Y0156408D01*
X0060360Y0156054D02*
X0060360Y0154149D01*
X0061707Y0152802D01*
X0063613Y0152802D01*
X0064960Y0154149D01*
X0064960Y0156054D01*
X0063613Y0157402D01*
X0061707Y0157402D01*
X0060360Y0156054D01*
X0060360Y0155610D02*
X0058530Y0155610D01*
X0059328Y0154811D02*
X0060360Y0154811D01*
X0060496Y0154013D02*
X0059335Y0154013D01*
X0059335Y0153214D02*
X0061295Y0153214D01*
X0058852Y0152416D02*
X0065785Y0152416D01*
X0065785Y0153214D02*
X0064025Y0153214D01*
X0064824Y0154013D02*
X0065785Y0154013D01*
X0065785Y0154811D02*
X0064960Y0154811D01*
X0064960Y0155610D02*
X0065785Y0155610D01*
X0065785Y0156408D02*
X0064606Y0156408D01*
X0064177Y0157207D02*
X0063808Y0157207D01*
X0063379Y0158005D02*
X0049935Y0158005D01*
X0049935Y0157207D02*
X0061512Y0157207D01*
X0062860Y0158804D02*
X0049935Y0158804D01*
X0049935Y0159602D02*
X0062860Y0159602D01*
X0062860Y0160401D02*
X0049935Y0160401D01*
X0049935Y0161199D02*
X0063630Y0161199D01*
X0065785Y0161998D02*
X0049935Y0161998D01*
X0049935Y0162796D02*
X0053588Y0162796D01*
X0054207Y0162177D02*
X0052860Y0163524D01*
X0052860Y0165429D01*
X0054207Y0166777D01*
X0056113Y0166777D01*
X0057460Y0165429D01*
X0057460Y0163524D01*
X0056113Y0162177D01*
X0054207Y0162177D01*
X0052860Y0163595D02*
X0049935Y0163595D01*
X0049935Y0164393D02*
X0052860Y0164393D01*
X0052860Y0165192D02*
X0049935Y0165192D01*
X0049935Y0165990D02*
X0053421Y0165990D01*
X0049935Y0166789D02*
X0065785Y0166789D01*
X0065785Y0167587D02*
X0049935Y0167587D01*
X0049935Y0168386D02*
X0065785Y0168386D01*
X0065785Y0169184D02*
X0049935Y0169184D01*
X0049935Y0169983D02*
X0065785Y0169983D01*
X0065785Y0170781D02*
X0049935Y0170781D01*
X0049935Y0171580D02*
X0065785Y0171580D01*
X0065785Y0172378D02*
X0049935Y0172378D01*
X0049935Y0173177D02*
X0065785Y0173177D01*
X0065785Y0173975D02*
X0049935Y0173975D01*
X0049935Y0174774D02*
X0057235Y0174774D01*
X0057332Y0174677D02*
X0059238Y0174677D01*
X0060585Y0176024D01*
X0060585Y0177929D01*
X0060288Y0178227D01*
X0060585Y0178524D01*
X0060585Y0180429D01*
X0059238Y0181777D01*
X0057332Y0181777D01*
X0055985Y0180429D01*
X0055985Y0178524D01*
X0056282Y0178227D01*
X0055985Y0177929D01*
X0055985Y0176024D01*
X0057332Y0174677D01*
X0056437Y0175572D02*
X0049935Y0175572D01*
X0049935Y0176371D02*
X0055985Y0176371D01*
X0055985Y0177169D02*
X0049935Y0177169D01*
X0049935Y0177968D02*
X0056024Y0177968D01*
X0055985Y0178766D02*
X0049935Y0178766D01*
X0049935Y0179565D02*
X0055985Y0179565D01*
X0055985Y0180363D02*
X0049935Y0180363D01*
X0049935Y0181162D02*
X0056718Y0181162D01*
X0059852Y0181162D02*
X0063485Y0181162D01*
X0063485Y0181960D02*
X0049935Y0181960D01*
X0049935Y0182759D02*
X0063485Y0182759D01*
X0063485Y0183558D02*
X0049935Y0183558D01*
X0049935Y0184356D02*
X0063485Y0184356D01*
X0063485Y0185155D02*
X0049935Y0185155D01*
X0049935Y0185953D02*
X0051056Y0185953D01*
X0051707Y0185302D02*
X0050360Y0186649D01*
X0050360Y0188554D01*
X0051707Y0189902D01*
X0053613Y0189902D01*
X0054960Y0188554D01*
X0054960Y0186649D01*
X0053613Y0185302D01*
X0051707Y0185302D01*
X0050360Y0186752D02*
X0049935Y0186752D01*
X0049935Y0187550D02*
X0050360Y0187550D01*
X0050360Y0188349D02*
X0049935Y0188349D01*
X0049935Y0189147D02*
X0050953Y0189147D01*
X0049935Y0189946D02*
X0065785Y0189946D01*
X0065785Y0190744D02*
X0049935Y0190744D01*
X0049935Y0191543D02*
X0062966Y0191543D01*
X0062235Y0192341D02*
X0049935Y0192341D01*
X0049935Y0193140D02*
X0062235Y0193140D01*
X0062235Y0193938D02*
X0049935Y0193938D01*
X0049935Y0194737D02*
X0062272Y0194737D01*
X0062235Y0195535D02*
X0049935Y0195535D01*
X0049935Y0196334D02*
X0062235Y0196334D01*
X0062688Y0197132D02*
X0049935Y0197132D01*
X0049935Y0197931D02*
X0063487Y0197931D01*
X0065584Y0197931D02*
X0065785Y0197931D01*
X0065785Y0198729D02*
X0049935Y0198729D01*
X0049935Y0199528D02*
X0049981Y0199528D01*
X0052839Y0199528D02*
X0065785Y0199528D01*
X0065785Y0200326D02*
X0053637Y0200326D01*
X0053710Y0201125D02*
X0065785Y0201125D01*
X0065785Y0201923D02*
X0053710Y0201923D01*
X0053293Y0202722D02*
X0065785Y0202722D01*
X0065785Y0203520D02*
X0052494Y0203520D01*
X0050326Y0203520D02*
X0049935Y0203520D01*
X0049935Y0204319D02*
X0065785Y0204319D01*
X0065785Y0205117D02*
X0049935Y0205117D01*
X0049935Y0205916D02*
X0065785Y0205916D01*
X0065785Y0206714D02*
X0049935Y0206714D01*
X0049935Y0207513D02*
X0065785Y0207513D01*
X0065785Y0208311D02*
X0049935Y0208311D01*
X0049935Y0209110D02*
X0065785Y0209110D01*
X0065785Y0209908D02*
X0049935Y0209908D01*
X0049935Y0210707D02*
X0065785Y0210707D01*
X0065785Y0211505D02*
X0049935Y0211505D01*
X0049935Y0212304D02*
X0054080Y0212304D01*
X0053485Y0212899D02*
X0053485Y0214804D01*
X0054832Y0216152D01*
X0056738Y0216152D01*
X0057035Y0215854D01*
X0057332Y0216152D01*
X0059238Y0216152D01*
X0060585Y0214804D01*
X0060585Y0212899D01*
X0059238Y0211552D01*
X0057332Y0211552D01*
X0057035Y0211849D01*
X0056738Y0211552D01*
X0054832Y0211552D01*
X0053485Y0212899D01*
X0053485Y0213102D02*
X0049935Y0213102D01*
X0049935Y0213901D02*
X0053485Y0213901D01*
X0053485Y0214699D02*
X0049935Y0214699D01*
X0049935Y0215498D02*
X0054179Y0215498D01*
X0049935Y0216296D02*
X0065785Y0216296D01*
X0065785Y0215498D02*
X0059891Y0215498D01*
X0060585Y0214699D02*
X0065785Y0214699D01*
X0065785Y0213901D02*
X0060585Y0213901D01*
X0060585Y0213102D02*
X0065785Y0213102D01*
X0065785Y0212304D02*
X0059990Y0212304D01*
X0065785Y0217095D02*
X0049935Y0217095D01*
X0049935Y0217894D02*
X0065785Y0217894D01*
X0065785Y0218692D02*
X0049935Y0218692D01*
X0049935Y0219491D02*
X0065785Y0219491D01*
X0065785Y0220289D02*
X0049935Y0220289D01*
X0049935Y0221088D02*
X0065785Y0221088D01*
X0065785Y0221886D02*
X0049935Y0221886D01*
X0049935Y0222685D02*
X0065785Y0222685D01*
X0065785Y0223483D02*
X0049935Y0223483D01*
X0049935Y0224282D02*
X0065785Y0224282D01*
X0065785Y0225080D02*
X0049935Y0225080D01*
X0049935Y0225879D02*
X0086811Y0225879D01*
X0086012Y0226677D02*
X0049935Y0226677D01*
X0049935Y0227476D02*
X0085444Y0227476D01*
X0085113Y0228274D02*
X0049935Y0228274D01*
X0049935Y0229073D02*
X0084885Y0229073D01*
X0084885Y0229871D02*
X0049935Y0229871D01*
X0049935Y0230670D02*
X0084885Y0230670D01*
X0085199Y0231468D02*
X0049935Y0231468D01*
X0049935Y0232267D02*
X0085530Y0232267D01*
X0086221Y0233065D02*
X0049935Y0233065D01*
X0049935Y0233864D02*
X0087132Y0233864D01*
X0092116Y0233864D02*
X0098943Y0233864D01*
X0098032Y0233065D02*
X0093027Y0233065D01*
X0093717Y0232267D02*
X0097341Y0232267D01*
X0097010Y0231468D02*
X0094048Y0231468D01*
X0094362Y0230670D02*
X0096696Y0230670D01*
X0096696Y0229871D02*
X0094362Y0229871D01*
X0094362Y0229073D02*
X0096696Y0229073D01*
X0096924Y0228274D02*
X0094134Y0228274D01*
X0093804Y0227476D02*
X0097255Y0227476D01*
X0097823Y0226677D02*
X0093235Y0226677D01*
X0092437Y0225879D02*
X0098622Y0225879D01*
X0098672Y0223483D02*
X0104197Y0223483D01*
X0103399Y0222685D02*
X0099470Y0222685D01*
X0099846Y0221886D02*
X0103024Y0221886D01*
X0102693Y0221088D02*
X0100176Y0221088D01*
X0100268Y0220289D02*
X0102602Y0220289D01*
X0102602Y0219491D02*
X0100268Y0219491D01*
X0100148Y0218692D02*
X0102722Y0218692D01*
X0103052Y0217894D02*
X0099817Y0217894D01*
X0099401Y0217095D02*
X0103468Y0217095D01*
X0104267Y0216296D02*
X0098603Y0216296D01*
X0097225Y0215498D02*
X0105644Y0215498D01*
X0109036Y0215498D02*
X0117455Y0215498D01*
X0116078Y0216296D02*
X0110414Y0216296D01*
X0111212Y0217095D02*
X0115279Y0217095D01*
X0114864Y0217894D02*
X0111628Y0217894D01*
X0111959Y0218692D02*
X0114533Y0218692D01*
X0114413Y0219491D02*
X0112079Y0219491D01*
X0112079Y0220289D02*
X0114413Y0220289D01*
X0114504Y0221088D02*
X0111987Y0221088D01*
X0111657Y0221886D02*
X0114835Y0221886D01*
X0115210Y0222685D02*
X0111282Y0222685D01*
X0110483Y0223483D02*
X0116008Y0223483D01*
X0116059Y0225879D02*
X0122244Y0225879D01*
X0121445Y0226677D02*
X0116857Y0226677D01*
X0117426Y0227476D02*
X0120877Y0227476D01*
X0120546Y0228274D02*
X0117756Y0228274D01*
X0117984Y0229073D02*
X0120318Y0229073D01*
X0120318Y0229871D02*
X0117984Y0229871D01*
X0117984Y0230670D02*
X0120318Y0230670D01*
X0120632Y0231468D02*
X0117670Y0231468D01*
X0117339Y0232267D02*
X0120963Y0232267D01*
X0121654Y0233065D02*
X0116649Y0233065D01*
X0115738Y0233864D02*
X0122565Y0233864D01*
X0127549Y0233864D02*
X0140785Y0233864D01*
X0140785Y0234662D02*
X0049935Y0234662D01*
X0049935Y0235461D02*
X0140785Y0235461D01*
X0140785Y0236259D02*
X0049935Y0236259D01*
X0049935Y0237058D02*
X0140785Y0237058D01*
X0140785Y0237856D02*
X0049935Y0237856D01*
X0049935Y0238655D02*
X0140785Y0238655D01*
X0140785Y0239453D02*
X0049935Y0239453D01*
X0049935Y0240252D02*
X0140785Y0240252D01*
X0140785Y0241050D02*
X0049935Y0241050D01*
X0049935Y0241849D02*
X0140785Y0241849D01*
X0140785Y0242647D02*
X0049935Y0242647D01*
X0049935Y0243446D02*
X0140785Y0243446D01*
X0140785Y0244244D02*
X0049935Y0244244D01*
X0049935Y0245043D02*
X0140785Y0245043D01*
X0140785Y0245841D02*
X0049935Y0245841D01*
X0049935Y0246640D02*
X0140785Y0246640D01*
X0140785Y0247438D02*
X0049935Y0247438D01*
X0049935Y0248237D02*
X0057638Y0248237D01*
X0056608Y0248664D02*
X0059510Y0247462D01*
X0062651Y0247462D01*
X0065553Y0248664D01*
X0067774Y0250885D01*
X0068976Y0253787D01*
X0068976Y0256928D01*
X0067774Y0259830D01*
X0065553Y0262052D01*
X0062651Y0263254D01*
X0059510Y0263254D01*
X0056608Y0262052D01*
X0054386Y0259830D01*
X0053184Y0256928D01*
X0053184Y0253787D01*
X0054386Y0250885D01*
X0056608Y0248664D01*
X0056236Y0249035D02*
X0049935Y0249035D01*
X0049935Y0249834D02*
X0055437Y0249834D01*
X0054639Y0250632D02*
X0049935Y0250632D01*
X0049935Y0251431D02*
X0054160Y0251431D01*
X0053829Y0252229D02*
X0049935Y0252229D01*
X0049935Y0253028D02*
X0053499Y0253028D01*
X0053184Y0253827D02*
X0049935Y0253827D01*
X0049935Y0254625D02*
X0053184Y0254625D01*
X0053184Y0255424D02*
X0049935Y0255424D01*
X0049935Y0256222D02*
X0053184Y0256222D01*
X0053223Y0257021D02*
X0049935Y0257021D01*
X0049935Y0257819D02*
X0053553Y0257819D01*
X0053884Y0258618D02*
X0049935Y0258618D01*
X0049935Y0259416D02*
X0054215Y0259416D01*
X0054771Y0260215D02*
X0049935Y0260215D01*
X0049935Y0261013D02*
X0055569Y0261013D01*
X0056368Y0261812D02*
X0049935Y0261812D01*
X0049935Y0262610D02*
X0057956Y0262610D01*
X0064205Y0262610D02*
X0140785Y0262610D01*
X0140785Y0261812D02*
X0065793Y0261812D01*
X0066592Y0261013D02*
X0140785Y0261013D01*
X0140785Y0260215D02*
X0067390Y0260215D01*
X0067946Y0259416D02*
X0140785Y0259416D01*
X0140785Y0258618D02*
X0068277Y0258618D01*
X0068607Y0257819D02*
X0140785Y0257819D01*
X0140785Y0257021D02*
X0068938Y0257021D01*
X0068976Y0256222D02*
X0140785Y0256222D01*
X0140785Y0255424D02*
X0068976Y0255424D01*
X0068976Y0254625D02*
X0140785Y0254625D01*
X0140785Y0253827D02*
X0068976Y0253827D01*
X0068662Y0253028D02*
X0140785Y0253028D01*
X0140785Y0252229D02*
X0068331Y0252229D01*
X0068001Y0251431D02*
X0140785Y0251431D01*
X0140785Y0250632D02*
X0067522Y0250632D01*
X0066723Y0249834D02*
X0140785Y0249834D01*
X0140785Y0249035D02*
X0065925Y0249035D01*
X0064523Y0248237D02*
X0140785Y0248237D01*
X0142660Y0248237D02*
X0209213Y0248237D01*
X0208182Y0248664D02*
X0211085Y0247462D01*
X0214226Y0247462D01*
X0217128Y0248664D01*
X0219349Y0250885D01*
X0220551Y0253787D01*
X0220551Y0256928D01*
X0219349Y0259830D01*
X0217128Y0262052D01*
X0214226Y0263254D01*
X0211085Y0263254D01*
X0208182Y0262052D01*
X0205961Y0259830D01*
X0204759Y0256928D01*
X0204759Y0253787D01*
X0205961Y0250885D01*
X0208182Y0248664D01*
X0207811Y0249035D02*
X0142660Y0249035D01*
X0142660Y0249834D02*
X0207012Y0249834D01*
X0206214Y0250632D02*
X0142660Y0250632D01*
X0142660Y0251431D02*
X0205735Y0251431D01*
X0205404Y0252229D02*
X0142660Y0252229D01*
X0142660Y0253028D02*
X0205073Y0253028D01*
X0204759Y0253827D02*
X0142660Y0253827D01*
X0142660Y0254625D02*
X0204759Y0254625D01*
X0204759Y0255424D02*
X0142660Y0255424D01*
X0142660Y0256222D02*
X0204759Y0256222D01*
X0204797Y0257021D02*
X0142660Y0257021D01*
X0142660Y0257819D02*
X0205128Y0257819D01*
X0205459Y0258618D02*
X0142660Y0258618D01*
X0142660Y0259416D02*
X0205790Y0259416D01*
X0206346Y0260215D02*
X0142660Y0260215D01*
X0142660Y0261013D02*
X0207144Y0261013D01*
X0207943Y0261812D02*
X0142660Y0261812D01*
X0142660Y0262610D02*
X0209531Y0262610D01*
X0215779Y0262610D02*
X0223800Y0262610D01*
X0223800Y0261812D02*
X0217368Y0261812D01*
X0218166Y0261013D02*
X0223800Y0261013D01*
X0223800Y0260215D02*
X0218965Y0260215D01*
X0219521Y0259416D02*
X0223800Y0259416D01*
X0223800Y0258618D02*
X0219851Y0258618D01*
X0220182Y0257819D02*
X0223800Y0257819D01*
X0223800Y0257021D02*
X0220513Y0257021D01*
X0220551Y0256222D02*
X0223800Y0256222D01*
X0223800Y0255424D02*
X0220551Y0255424D01*
X0220551Y0254625D02*
X0223800Y0254625D01*
X0223800Y0253827D02*
X0220551Y0253827D01*
X0220237Y0253028D02*
X0223800Y0253028D01*
X0223800Y0252229D02*
X0219906Y0252229D01*
X0219575Y0251431D02*
X0223800Y0251431D01*
X0223800Y0250632D02*
X0219097Y0250632D01*
X0218298Y0249834D02*
X0223800Y0249834D01*
X0223800Y0249035D02*
X0217500Y0249035D01*
X0216098Y0248237D02*
X0223800Y0248237D01*
X0223800Y0247438D02*
X0142660Y0247438D01*
X0142660Y0246640D02*
X0223800Y0246640D01*
X0223800Y0245841D02*
X0142660Y0245841D01*
X0142660Y0241849D02*
X0187601Y0241849D01*
X0188399Y0241050D02*
X0142660Y0241050D01*
X0142660Y0240252D02*
X0189198Y0240252D01*
X0189996Y0239453D02*
X0142660Y0239453D01*
X0142660Y0238655D02*
X0190795Y0238655D01*
X0191593Y0237856D02*
X0142660Y0237856D01*
X0142660Y0237058D02*
X0192392Y0237058D01*
X0193191Y0236259D02*
X0142660Y0236259D01*
X0142660Y0235461D02*
X0193989Y0235461D01*
X0194788Y0234662D02*
X0142660Y0234662D01*
X0142660Y0233864D02*
X0146187Y0233864D01*
X0145995Y0233784D02*
X0144662Y0232451D01*
X0143940Y0230710D01*
X0143940Y0228824D01*
X0144662Y0227083D01*
X0145995Y0225750D01*
X0147736Y0225028D01*
X0149621Y0225028D01*
X0151363Y0225750D01*
X0152696Y0227083D01*
X0153417Y0228824D01*
X0153417Y0230710D01*
X0152696Y0232451D01*
X0151363Y0233784D01*
X0149621Y0234506D01*
X0147736Y0234506D01*
X0145995Y0233784D01*
X0145276Y0233065D02*
X0142660Y0233065D01*
X0142660Y0232267D02*
X0144585Y0232267D01*
X0144254Y0231468D02*
X0142660Y0231468D01*
X0142660Y0230670D02*
X0143940Y0230670D01*
X0143940Y0229871D02*
X0142660Y0229871D01*
X0142660Y0229073D02*
X0143940Y0229073D01*
X0144168Y0228274D02*
X0142660Y0228274D01*
X0142660Y0227476D02*
X0144499Y0227476D01*
X0145067Y0226677D02*
X0142660Y0226677D01*
X0142660Y0225879D02*
X0145866Y0225879D01*
X0147612Y0225080D02*
X0142660Y0225080D01*
X0142660Y0224282D02*
X0152721Y0224282D01*
X0151900Y0223942D02*
X0150567Y0222609D01*
X0149846Y0220867D01*
X0149846Y0218982D01*
X0150567Y0217240D01*
X0151900Y0215907D01*
X0153642Y0215186D01*
X0155527Y0215186D01*
X0157269Y0215907D01*
X0158602Y0217240D01*
X0159323Y0218982D01*
X0159323Y0220867D01*
X0158602Y0222609D01*
X0157269Y0223942D01*
X0155527Y0224663D01*
X0153642Y0224663D01*
X0151900Y0223942D01*
X0151442Y0223483D02*
X0134105Y0223483D01*
X0134904Y0222685D02*
X0150643Y0222685D01*
X0150268Y0221886D02*
X0135279Y0221886D01*
X0135610Y0221088D02*
X0149937Y0221088D01*
X0149846Y0220289D02*
X0135701Y0220289D01*
X0135701Y0219491D02*
X0149846Y0219491D01*
X0149966Y0218692D02*
X0135581Y0218692D01*
X0135250Y0217894D02*
X0150297Y0217894D01*
X0150712Y0217095D02*
X0134834Y0217095D01*
X0134036Y0216296D02*
X0151511Y0216296D01*
X0152888Y0215498D02*
X0132658Y0215498D01*
X0129266Y0215498D02*
X0120847Y0215498D01*
X0122225Y0216296D02*
X0127889Y0216296D01*
X0127090Y0217095D02*
X0123023Y0217095D01*
X0123439Y0217894D02*
X0126675Y0217894D01*
X0126344Y0218692D02*
X0123770Y0218692D01*
X0123890Y0219491D02*
X0126224Y0219491D01*
X0126224Y0220289D02*
X0123890Y0220289D01*
X0123799Y0221088D02*
X0126315Y0221088D01*
X0126646Y0221886D02*
X0123468Y0221886D01*
X0123093Y0222685D02*
X0127021Y0222685D01*
X0127820Y0223483D02*
X0122294Y0223483D01*
X0127870Y0225879D02*
X0140785Y0225879D01*
X0140785Y0226677D02*
X0128668Y0226677D01*
X0129237Y0227476D02*
X0140785Y0227476D01*
X0140785Y0228274D02*
X0129567Y0228274D01*
X0129795Y0229073D02*
X0140785Y0229073D01*
X0140785Y0229871D02*
X0129795Y0229871D01*
X0129795Y0230670D02*
X0140785Y0230670D01*
X0140785Y0231468D02*
X0129481Y0231468D01*
X0129150Y0232267D02*
X0140785Y0232267D01*
X0140785Y0233065D02*
X0128460Y0233065D01*
X0110754Y0233864D02*
X0103927Y0233864D01*
X0104838Y0233065D02*
X0109843Y0233065D01*
X0109152Y0232267D02*
X0105528Y0232267D01*
X0105859Y0231468D02*
X0108821Y0231468D01*
X0108507Y0230670D02*
X0106173Y0230670D01*
X0106173Y0229871D02*
X0108507Y0229871D01*
X0108507Y0229073D02*
X0106173Y0229073D01*
X0105945Y0228274D02*
X0108735Y0228274D01*
X0109066Y0227476D02*
X0105615Y0227476D01*
X0105046Y0226677D02*
X0109634Y0226677D01*
X0110433Y0225879D02*
X0104248Y0225879D01*
X0093833Y0215498D02*
X0067660Y0215498D01*
X0067660Y0216296D02*
X0092456Y0216296D01*
X0091657Y0217095D02*
X0067660Y0217095D01*
X0067660Y0217894D02*
X0091241Y0217894D01*
X0090911Y0218692D02*
X0067660Y0218692D01*
X0067660Y0219491D02*
X0090791Y0219491D01*
X0090791Y0220289D02*
X0067660Y0220289D01*
X0067660Y0221088D02*
X0090882Y0221088D01*
X0091213Y0221886D02*
X0067660Y0221886D01*
X0067660Y0222685D02*
X0091588Y0222685D01*
X0092386Y0223483D02*
X0067660Y0223483D01*
X0067660Y0214699D02*
X0197635Y0214699D01*
X0197635Y0213901D02*
X0067660Y0213901D01*
X0067660Y0213102D02*
X0197635Y0213102D01*
X0197635Y0212304D02*
X0067660Y0212304D01*
X0067660Y0211505D02*
X0197635Y0211505D01*
X0197635Y0210707D02*
X0179575Y0210707D01*
X0179149Y0210884D02*
X0177264Y0210884D01*
X0175522Y0210162D01*
X0174189Y0208829D01*
X0173468Y0207088D01*
X0173468Y0205202D01*
X0174189Y0203461D01*
X0175522Y0202128D01*
X0177264Y0201406D01*
X0179149Y0201406D01*
X0180891Y0202128D01*
X0182224Y0203461D01*
X0182945Y0205202D01*
X0182945Y0207088D01*
X0182224Y0208829D01*
X0180891Y0210162D01*
X0179149Y0210884D01*
X0181144Y0209908D02*
X0197635Y0209908D01*
X0197635Y0209110D02*
X0181943Y0209110D01*
X0182438Y0208311D02*
X0197635Y0208311D01*
X0197635Y0207513D02*
X0182769Y0207513D01*
X0182945Y0206714D02*
X0197635Y0206714D01*
X0197635Y0205916D02*
X0182945Y0205916D01*
X0182910Y0205117D02*
X0197635Y0205117D01*
X0197635Y0204319D02*
X0182579Y0204319D01*
X0182248Y0203520D02*
X0191576Y0203520D01*
X0191082Y0203027D02*
X0190457Y0203027D01*
X0189110Y0201679D01*
X0189110Y0199774D01*
X0190457Y0198427D01*
X0192363Y0198427D01*
X0193613Y0199677D01*
X0194238Y0199677D01*
X0195585Y0201024D01*
X0195585Y0202929D01*
X0194238Y0204277D01*
X0192332Y0204277D01*
X0191082Y0203027D01*
X0190153Y0202722D02*
X0181485Y0202722D01*
X0180397Y0201923D02*
X0189354Y0201923D01*
X0189110Y0201125D02*
X0067660Y0201125D01*
X0067660Y0201923D02*
X0093339Y0201923D01*
X0092845Y0202128D02*
X0094587Y0201406D01*
X0096472Y0201406D01*
X0098213Y0202128D01*
X0099546Y0203461D01*
X0100268Y0205202D01*
X0100268Y0207088D01*
X0099546Y0208829D01*
X0098213Y0210162D01*
X0096472Y0210884D01*
X0094587Y0210884D01*
X0092845Y0210162D01*
X0091512Y0208829D01*
X0090791Y0207088D01*
X0090791Y0205202D01*
X0091512Y0203461D01*
X0092845Y0202128D01*
X0092251Y0202722D02*
X0067660Y0202722D01*
X0067660Y0203520D02*
X0091487Y0203520D01*
X0091157Y0204319D02*
X0067660Y0204319D01*
X0067660Y0205117D02*
X0090826Y0205117D01*
X0090791Y0205916D02*
X0067660Y0205916D01*
X0067660Y0206714D02*
X0090791Y0206714D01*
X0090967Y0207513D02*
X0067660Y0207513D01*
X0067660Y0208311D02*
X0091298Y0208311D01*
X0091793Y0209110D02*
X0067660Y0209110D01*
X0067660Y0209908D02*
X0092591Y0209908D01*
X0094160Y0210707D02*
X0067660Y0210707D01*
X0067660Y0200326D02*
X0086956Y0200326D01*
X0086940Y0200320D02*
X0085607Y0198987D01*
X0084885Y0197245D01*
X0084885Y0195360D01*
X0085607Y0193618D01*
X0086940Y0192285D01*
X0088681Y0191564D01*
X0090566Y0191564D01*
X0092308Y0192285D01*
X0093641Y0193618D01*
X0094362Y0195360D01*
X0094362Y0197245D01*
X0093641Y0198987D01*
X0092308Y0200320D01*
X0090566Y0201041D01*
X0088681Y0201041D01*
X0086940Y0200320D01*
X0086148Y0199528D02*
X0067660Y0199528D01*
X0067660Y0198729D02*
X0085500Y0198729D01*
X0085169Y0197931D02*
X0067660Y0197931D01*
X0067660Y0197132D02*
X0084885Y0197132D01*
X0084885Y0196334D02*
X0067660Y0196334D01*
X0067660Y0195535D02*
X0084885Y0195535D01*
X0085143Y0194737D02*
X0067660Y0194737D01*
X0067660Y0193938D02*
X0085474Y0193938D01*
X0086085Y0193140D02*
X0067660Y0193140D01*
X0067660Y0192341D02*
X0086884Y0192341D01*
X0092364Y0192341D02*
X0098695Y0192341D01*
X0098751Y0192285D02*
X0100492Y0191564D01*
X0102377Y0191564D01*
X0104119Y0192285D01*
X0105452Y0193618D01*
X0106173Y0195360D01*
X0106173Y0197245D01*
X0105452Y0198987D01*
X0104119Y0200320D01*
X0102377Y0201041D01*
X0100492Y0201041D01*
X0098751Y0200320D01*
X0097418Y0198987D01*
X0096696Y0197245D01*
X0096696Y0195360D01*
X0097418Y0193618D01*
X0098751Y0192285D01*
X0097896Y0193140D02*
X0093162Y0193140D01*
X0093773Y0193938D02*
X0097285Y0193938D01*
X0096954Y0194737D02*
X0094104Y0194737D01*
X0094362Y0195535D02*
X0096696Y0195535D01*
X0096696Y0196334D02*
X0094362Y0196334D01*
X0094362Y0197132D02*
X0096696Y0197132D01*
X0096980Y0197931D02*
X0094078Y0197931D01*
X0093748Y0198729D02*
X0097311Y0198729D01*
X0097959Y0199528D02*
X0093100Y0199528D01*
X0092292Y0200326D02*
X0098767Y0200326D01*
X0097720Y0201923D02*
X0105150Y0201923D01*
X0104656Y0202128D02*
X0106398Y0201406D01*
X0108283Y0201406D01*
X0110024Y0202128D01*
X0111357Y0203461D01*
X0112079Y0205202D01*
X0112079Y0207088D01*
X0111357Y0208829D01*
X0110024Y0210162D01*
X0108283Y0210884D01*
X0106398Y0210884D01*
X0104656Y0210162D01*
X0103323Y0208829D01*
X0102602Y0207088D01*
X0102602Y0205202D01*
X0103323Y0203461D01*
X0104656Y0202128D01*
X0104062Y0202722D02*
X0098807Y0202722D01*
X0099571Y0203520D02*
X0103298Y0203520D01*
X0102968Y0204319D02*
X0099902Y0204319D01*
X0100233Y0205117D02*
X0102637Y0205117D01*
X0102602Y0205916D02*
X0100268Y0205916D01*
X0100268Y0206714D02*
X0102602Y0206714D01*
X0102778Y0207513D02*
X0100092Y0207513D01*
X0099761Y0208311D02*
X0103109Y0208311D01*
X0103604Y0209110D02*
X0099266Y0209110D01*
X0098467Y0209908D02*
X0104402Y0209908D01*
X0105971Y0210707D02*
X0096898Y0210707D01*
X0104103Y0200326D02*
X0110578Y0200326D01*
X0110562Y0200320D02*
X0109229Y0198987D01*
X0108507Y0197245D01*
X0108507Y0195360D01*
X0109229Y0193618D01*
X0110562Y0192285D01*
X0112303Y0191564D01*
X0114188Y0191564D01*
X0115930Y0192285D01*
X0117263Y0193618D01*
X0117984Y0195360D01*
X0117984Y0197245D01*
X0117263Y0198987D01*
X0115930Y0200320D01*
X0114188Y0201041D01*
X0112303Y0201041D01*
X0110562Y0200320D01*
X0109770Y0199528D02*
X0104911Y0199528D01*
X0105559Y0198729D02*
X0109122Y0198729D01*
X0108791Y0197931D02*
X0105889Y0197931D01*
X0106173Y0197132D02*
X0108507Y0197132D01*
X0108507Y0196334D02*
X0106173Y0196334D01*
X0106173Y0195535D02*
X0108507Y0195535D01*
X0108765Y0194737D02*
X0105915Y0194737D01*
X0105584Y0193938D02*
X0109096Y0193938D01*
X0109707Y0193140D02*
X0104973Y0193140D01*
X0104175Y0192341D02*
X0110506Y0192341D01*
X0108613Y0189277D02*
X0106707Y0189277D01*
X0105360Y0187929D01*
X0105360Y0186024D01*
X0106707Y0184677D01*
X0108613Y0184677D01*
X0109960Y0186024D01*
X0109960Y0187929D01*
X0108613Y0189277D01*
X0108742Y0189147D02*
X0157828Y0189147D01*
X0157957Y0189277D02*
X0156610Y0187929D01*
X0156610Y0186024D01*
X0157957Y0184677D01*
X0159863Y0184677D01*
X0161210Y0186024D01*
X0161210Y0187929D01*
X0159863Y0189277D01*
X0157957Y0189277D01*
X0157029Y0188349D02*
X0109541Y0188349D01*
X0109960Y0187550D02*
X0156610Y0187550D01*
X0156610Y0186752D02*
X0109960Y0186752D01*
X0109889Y0185953D02*
X0156681Y0185953D01*
X0157480Y0185155D02*
X0109091Y0185155D01*
X0106230Y0185155D02*
X0091835Y0185155D01*
X0091835Y0185429D02*
X0090488Y0186777D01*
X0088582Y0186777D01*
X0087235Y0185429D01*
X0087235Y0183524D01*
X0087532Y0183227D01*
X0087235Y0182929D01*
X0087235Y0181024D01*
X0087532Y0180727D01*
X0087235Y0180429D01*
X0087235Y0178524D01*
X0088582Y0177177D01*
X0090488Y0177177D01*
X0091835Y0178524D01*
X0091835Y0180429D01*
X0091538Y0180727D01*
X0091835Y0181024D01*
X0091835Y0182929D01*
X0091538Y0183227D01*
X0091835Y0183524D01*
X0091835Y0185429D01*
X0091311Y0185953D02*
X0105431Y0185953D01*
X0105360Y0186752D02*
X0090513Y0186752D01*
X0088557Y0186752D02*
X0078013Y0186752D01*
X0077988Y0186777D02*
X0079335Y0185429D01*
X0079335Y0183524D01*
X0079038Y0183227D01*
X0079335Y0182929D01*
X0079335Y0181024D01*
X0079038Y0180727D01*
X0079335Y0180429D01*
X0079335Y0178524D01*
X0077988Y0177177D01*
X0076082Y0177177D01*
X0074735Y0178524D01*
X0074735Y0180429D01*
X0075032Y0180727D01*
X0074735Y0181024D01*
X0074735Y0182929D01*
X0075032Y0183227D01*
X0074735Y0183524D01*
X0074735Y0185429D01*
X0076082Y0186777D01*
X0077988Y0186777D01*
X0078811Y0185953D02*
X0087759Y0185953D01*
X0087235Y0185155D02*
X0079335Y0185155D01*
X0079335Y0184356D02*
X0087235Y0184356D01*
X0087235Y0183558D02*
X0079335Y0183558D01*
X0079335Y0182759D02*
X0087235Y0182759D01*
X0087235Y0181960D02*
X0079335Y0181960D01*
X0079335Y0181162D02*
X0087235Y0181162D01*
X0087235Y0180363D02*
X0079335Y0180363D01*
X0079335Y0179565D02*
X0087235Y0179565D01*
X0087235Y0178766D02*
X0079335Y0178766D01*
X0078779Y0177968D02*
X0087791Y0177968D01*
X0091279Y0177968D02*
X0101610Y0177968D01*
X0101610Y0177899D02*
X0101907Y0177602D01*
X0101610Y0177304D01*
X0101610Y0175399D01*
X0102957Y0174052D01*
X0104863Y0174052D01*
X0106210Y0175399D01*
X0106210Y0177304D01*
X0105913Y0177602D01*
X0106210Y0177899D01*
X0106210Y0179804D01*
X0104863Y0181152D01*
X0102957Y0181152D01*
X0101610Y0179804D01*
X0101610Y0177899D01*
X0101610Y0177169D02*
X0067660Y0177169D01*
X0067660Y0176371D02*
X0101610Y0176371D01*
X0101610Y0175572D02*
X0067660Y0175572D01*
X0067660Y0174774D02*
X0102235Y0174774D01*
X0101610Y0178766D02*
X0091835Y0178766D01*
X0091835Y0179565D02*
X0101610Y0179565D01*
X0102169Y0180363D02*
X0091835Y0180363D01*
X0091835Y0181162D02*
X0223800Y0181162D01*
X0223800Y0181960D02*
X0091835Y0181960D01*
X0091835Y0182759D02*
X0223800Y0182759D01*
X0223800Y0183558D02*
X0178744Y0183558D01*
X0178613Y0183427D02*
X0179960Y0184774D01*
X0179960Y0186679D01*
X0178613Y0188027D01*
X0176707Y0188027D01*
X0175360Y0186679D01*
X0175360Y0184774D01*
X0176707Y0183427D01*
X0178613Y0183427D01*
X0179542Y0184356D02*
X0223800Y0184356D01*
X0223800Y0185155D02*
X0179960Y0185155D01*
X0179960Y0185953D02*
X0199181Y0185953D01*
X0199832Y0185302D02*
X0201738Y0185302D01*
X0202035Y0185599D01*
X0202332Y0185302D01*
X0204238Y0185302D01*
X0205585Y0186649D01*
X0205585Y0188554D01*
X0205288Y0188852D01*
X0205585Y0189149D01*
X0205585Y0191054D01*
X0204238Y0192402D01*
X0202332Y0192402D01*
X0202035Y0192104D01*
X0201738Y0192402D01*
X0199832Y0192402D01*
X0198485Y0191054D01*
X0198485Y0189149D01*
X0198782Y0188852D01*
X0198485Y0188554D01*
X0198485Y0186649D01*
X0199832Y0185302D01*
X0198485Y0186752D02*
X0179888Y0186752D01*
X0179089Y0187550D02*
X0198485Y0187550D01*
X0198485Y0188349D02*
X0160791Y0188349D01*
X0161210Y0187550D02*
X0176231Y0187550D01*
X0175432Y0186752D02*
X0161210Y0186752D01*
X0161139Y0185953D02*
X0175360Y0185953D01*
X0175360Y0185155D02*
X0160341Y0185155D01*
X0159992Y0189147D02*
X0198487Y0189147D01*
X0198485Y0189946D02*
X0067660Y0189946D01*
X0067660Y0190744D02*
X0198485Y0190744D01*
X0198973Y0191543D02*
X0067660Y0191543D01*
X0067660Y0189147D02*
X0106578Y0189147D01*
X0105779Y0188349D02*
X0067660Y0188349D01*
X0067660Y0187550D02*
X0105360Y0187550D01*
X0105651Y0180363D02*
X0223800Y0180363D01*
X0223800Y0179565D02*
X0114574Y0179565D01*
X0114238Y0179902D02*
X0115585Y0178554D01*
X0115585Y0176649D01*
X0115288Y0176352D01*
X0115585Y0176054D01*
X0115585Y0174149D01*
X0114238Y0172802D01*
X0112332Y0172802D01*
X0110985Y0174149D01*
X0110985Y0176054D01*
X0111282Y0176352D01*
X0110985Y0176649D01*
X0110985Y0178554D01*
X0112332Y0179902D01*
X0114238Y0179902D01*
X0115373Y0178766D02*
X0223800Y0178766D01*
X0223800Y0177968D02*
X0184297Y0177968D01*
X0184238Y0178027D02*
X0182332Y0178027D01*
X0180985Y0176679D01*
X0180985Y0174774D01*
X0182332Y0173427D01*
X0184238Y0173427D01*
X0185585Y0174774D01*
X0223800Y0174774D01*
X0223800Y0175572D02*
X0185585Y0175572D01*
X0185585Y0174774D02*
X0185585Y0176679D01*
X0184238Y0178027D01*
X0185095Y0177169D02*
X0223800Y0177169D01*
X0223800Y0176371D02*
X0185585Y0176371D01*
X0184787Y0173975D02*
X0223800Y0173975D01*
X0223800Y0173177D02*
X0165585Y0173177D01*
X0165585Y0173975D02*
X0181784Y0173975D01*
X0180985Y0174774D02*
X0164991Y0174774D01*
X0165585Y0174179D02*
X0164238Y0175527D01*
X0162332Y0175527D01*
X0160985Y0174179D01*
X0160985Y0172274D01*
X0162332Y0170927D01*
X0164238Y0170927D01*
X0165585Y0172274D01*
X0165585Y0174179D01*
X0165585Y0172378D02*
X0223800Y0172378D01*
X0223800Y0171580D02*
X0164891Y0171580D01*
X0161679Y0171580D02*
X0121210Y0171580D01*
X0121210Y0171679D02*
X0119863Y0173027D01*
X0117957Y0173027D01*
X0116610Y0171679D01*
X0116610Y0169774D01*
X0117957Y0168427D01*
X0119863Y0168427D01*
X0121210Y0169774D01*
X0121210Y0171679D01*
X0121210Y0170781D02*
X0223800Y0170781D01*
X0223800Y0169983D02*
X0121210Y0169983D01*
X0120620Y0169184D02*
X0167240Y0169184D01*
X0166610Y0168554D02*
X0166610Y0166649D01*
X0167957Y0165302D01*
X0169863Y0165302D01*
X0171210Y0166649D01*
X0171210Y0168554D01*
X0169863Y0169902D01*
X0167957Y0169902D01*
X0166610Y0168554D01*
X0166610Y0168386D02*
X0067660Y0168386D01*
X0067660Y0169184D02*
X0117200Y0169184D01*
X0116610Y0169983D02*
X0067660Y0169983D01*
X0067660Y0170781D02*
X0116610Y0170781D01*
X0116610Y0171580D02*
X0067660Y0171580D01*
X0067660Y0172378D02*
X0117309Y0172378D01*
X0115412Y0173975D02*
X0160985Y0173975D01*
X0160985Y0173177D02*
X0114613Y0173177D01*
X0115585Y0174774D02*
X0161580Y0174774D01*
X0160985Y0172378D02*
X0120511Y0172378D01*
X0115585Y0175572D02*
X0180985Y0175572D01*
X0180985Y0176371D02*
X0115307Y0176371D01*
X0115585Y0177169D02*
X0181475Y0177169D01*
X0182274Y0177968D02*
X0115585Y0177968D01*
X0111996Y0179565D02*
X0106210Y0179565D01*
X0106210Y0178766D02*
X0111197Y0178766D01*
X0110985Y0177968D02*
X0106210Y0177968D01*
X0106210Y0177169D02*
X0110985Y0177169D01*
X0111263Y0176371D02*
X0106210Y0176371D01*
X0106210Y0175572D02*
X0110985Y0175572D01*
X0110985Y0174774D02*
X0105585Y0174774D01*
X0111159Y0173975D02*
X0067660Y0173975D01*
X0067660Y0173177D02*
X0111957Y0173177D01*
X0115457Y0162402D02*
X0114110Y0161054D01*
X0114110Y0159149D01*
X0114407Y0158852D01*
X0114110Y0158554D01*
X0114110Y0156649D01*
X0115457Y0155302D01*
X0117363Y0155302D01*
X0118710Y0156649D01*
X0118710Y0158554D01*
X0118413Y0158852D01*
X0118710Y0159149D01*
X0118710Y0161054D01*
X0117363Y0162402D01*
X0115457Y0162402D01*
X0115053Y0161998D02*
X0100267Y0161998D01*
X0100585Y0161679D02*
X0099238Y0163027D01*
X0097332Y0163027D01*
X0095985Y0161679D01*
X0095985Y0159774D01*
X0097332Y0158427D01*
X0099238Y0158427D01*
X0100585Y0159774D01*
X0100585Y0161679D01*
X0100585Y0161199D02*
X0114255Y0161199D01*
X0114110Y0160401D02*
X0100585Y0160401D01*
X0100413Y0159602D02*
X0114110Y0159602D01*
X0114359Y0158804D02*
X0099615Y0158804D01*
X0101082Y0157402D02*
X0099735Y0156054D01*
X0099735Y0154149D01*
X0101082Y0152802D01*
X0102988Y0152802D01*
X0104335Y0154149D01*
X0104335Y0156054D01*
X0102988Y0157402D01*
X0101082Y0157402D01*
X0100887Y0157207D02*
X0086143Y0157207D01*
X0086113Y0157177D02*
X0087460Y0158524D01*
X0087460Y0160429D01*
X0086113Y0161777D01*
X0084207Y0161777D01*
X0082860Y0160429D01*
X0082860Y0158524D01*
X0084207Y0157177D01*
X0086113Y0157177D01*
X0086941Y0158005D02*
X0114110Y0158005D01*
X0114110Y0157207D02*
X0103183Y0157207D01*
X0103981Y0156408D02*
X0114351Y0156408D01*
X0115149Y0155610D02*
X0104335Y0155610D01*
X0104335Y0154811D02*
X0110367Y0154811D01*
X0110457Y0154902D02*
X0109110Y0153554D01*
X0109110Y0151649D01*
X0110457Y0150302D01*
X0112363Y0150302D01*
X0113710Y0151649D01*
X0113710Y0153554D01*
X0112363Y0154902D01*
X0110457Y0154902D01*
X0109568Y0154013D02*
X0104199Y0154013D01*
X0103400Y0153214D02*
X0109110Y0153214D01*
X0109110Y0152416D02*
X0076977Y0152416D01*
X0076738Y0152177D02*
X0078085Y0153524D01*
X0078085Y0155429D01*
X0076738Y0156777D01*
X0074832Y0156777D01*
X0073485Y0155429D01*
X0073485Y0153524D01*
X0074832Y0152177D01*
X0076738Y0152177D01*
X0077775Y0153214D02*
X0100670Y0153214D01*
X0099871Y0154013D02*
X0078085Y0154013D01*
X0078085Y0154811D02*
X0099735Y0154811D01*
X0099735Y0155610D02*
X0077905Y0155610D01*
X0077106Y0156408D02*
X0100089Y0156408D01*
X0096955Y0158804D02*
X0087460Y0158804D01*
X0087460Y0159602D02*
X0096157Y0159602D01*
X0095985Y0160401D02*
X0087460Y0160401D01*
X0086690Y0161199D02*
X0095985Y0161199D01*
X0096303Y0161998D02*
X0067660Y0161998D01*
X0067660Y0162796D02*
X0074838Y0162796D01*
X0075457Y0162177D02*
X0077363Y0162177D01*
X0078710Y0163524D01*
X0078710Y0165429D01*
X0077363Y0166777D01*
X0075457Y0166777D01*
X0074110Y0165429D01*
X0074110Y0163524D01*
X0075457Y0162177D01*
X0074190Y0161199D02*
X0083630Y0161199D01*
X0082860Y0160401D02*
X0074960Y0160401D01*
X0074960Y0159602D02*
X0082860Y0159602D01*
X0082860Y0158804D02*
X0074960Y0158804D01*
X0074441Y0158005D02*
X0083379Y0158005D01*
X0084177Y0157207D02*
X0073643Y0157207D01*
X0074464Y0156408D02*
X0067660Y0156408D01*
X0067660Y0155610D02*
X0073665Y0155610D01*
X0073485Y0154811D02*
X0067660Y0154811D01*
X0067660Y0154013D02*
X0073485Y0154013D01*
X0073795Y0153214D02*
X0067660Y0153214D01*
X0067660Y0152416D02*
X0074594Y0152416D01*
X0071677Y0157207D02*
X0069893Y0157207D01*
X0070691Y0158005D02*
X0070879Y0158005D01*
X0071130Y0161199D02*
X0070440Y0161199D01*
X0067660Y0163595D02*
X0074110Y0163595D01*
X0074110Y0164393D02*
X0067660Y0164393D01*
X0067660Y0165192D02*
X0074110Y0165192D01*
X0074671Y0165990D02*
X0067660Y0165990D01*
X0067660Y0166789D02*
X0166610Y0166789D01*
X0166610Y0167587D02*
X0067660Y0167587D01*
X0065785Y0165990D02*
X0056899Y0165990D01*
X0057460Y0165192D02*
X0065785Y0165192D01*
X0065785Y0164393D02*
X0057460Y0164393D01*
X0057460Y0163595D02*
X0065785Y0163595D01*
X0065785Y0162796D02*
X0056732Y0162796D01*
X0058053Y0151617D02*
X0065785Y0151617D01*
X0067660Y0151617D02*
X0109142Y0151617D01*
X0109941Y0150819D02*
X0067660Y0150819D01*
X0067660Y0150020D02*
X0140360Y0150020D01*
X0140360Y0149222D02*
X0067660Y0149222D01*
X0067660Y0148423D02*
X0141086Y0148423D01*
X0141707Y0147802D02*
X0140360Y0149149D01*
X0140360Y0151054D01*
X0141707Y0152402D01*
X0142860Y0152402D01*
X0142860Y0153554D01*
X0144207Y0154902D01*
X0146113Y0154902D01*
X0147460Y0153554D01*
X0147460Y0152402D01*
X0149238Y0152402D01*
X0150585Y0151054D01*
X0150585Y0149149D01*
X0149238Y0147802D01*
X0147332Y0147802D01*
X0145985Y0149149D01*
X0145985Y0150302D01*
X0144960Y0150302D01*
X0144960Y0149149D01*
X0143613Y0147802D01*
X0141707Y0147802D01*
X0141237Y0146027D02*
X0154735Y0146027D01*
X0154735Y0145229D02*
X0141835Y0145229D01*
X0141835Y0144430D02*
X0155079Y0144430D01*
X0154882Y0146826D02*
X0067660Y0146826D01*
X0067660Y0147625D02*
X0155680Y0147625D01*
X0154836Y0148423D02*
X0149859Y0148423D01*
X0150585Y0149222D02*
X0154110Y0149222D01*
X0154110Y0150020D02*
X0150585Y0150020D01*
X0150585Y0150819D02*
X0154110Y0150819D01*
X0154673Y0151617D02*
X0150022Y0151617D01*
X0147460Y0152416D02*
X0158485Y0152416D01*
X0158485Y0151617D02*
X0158147Y0151617D01*
X0158710Y0150020D02*
X0159489Y0150020D01*
X0158710Y0149222D02*
X0176538Y0149222D01*
X0175985Y0149774D02*
X0177332Y0148427D01*
X0179238Y0148427D01*
X0180585Y0149774D01*
X0180585Y0151679D01*
X0179238Y0153027D01*
X0177332Y0153027D01*
X0175985Y0151679D01*
X0175985Y0149774D01*
X0175985Y0150020D02*
X0162081Y0150020D01*
X0162880Y0150819D02*
X0175985Y0150819D01*
X0175985Y0151617D02*
X0163085Y0151617D01*
X0163085Y0152416D02*
X0176721Y0152416D01*
X0178485Y0154149D02*
X0178485Y0156054D01*
X0179832Y0157402D01*
X0181738Y0157402D01*
X0183085Y0156054D01*
X0183085Y0154277D01*
X0184238Y0154277D01*
X0185585Y0152929D01*
X0185585Y0151024D01*
X0184238Y0149677D01*
X0182332Y0149677D01*
X0180985Y0151024D01*
X0180985Y0152802D01*
X0179832Y0152802D01*
X0178485Y0154149D01*
X0178621Y0154013D02*
X0162002Y0154013D01*
X0162800Y0153214D02*
X0179420Y0153214D01*
X0179849Y0152416D02*
X0180985Y0152416D01*
X0180985Y0151617D02*
X0180585Y0151617D01*
X0180585Y0150819D02*
X0181191Y0150819D01*
X0180585Y0150020D02*
X0181989Y0150020D01*
X0180033Y0149222D02*
X0223800Y0149222D01*
X0223800Y0150020D02*
X0184581Y0150020D01*
X0185380Y0150819D02*
X0223800Y0150819D01*
X0223800Y0151617D02*
X0185585Y0151617D01*
X0185585Y0152416D02*
X0223800Y0152416D01*
X0223800Y0153214D02*
X0185300Y0153214D01*
X0184502Y0154013D02*
X0223800Y0154013D01*
X0223800Y0154811D02*
X0183085Y0154811D01*
X0183085Y0155610D02*
X0223800Y0155610D01*
X0223800Y0156408D02*
X0182731Y0156408D01*
X0181933Y0157207D02*
X0223800Y0157207D01*
X0223800Y0158005D02*
X0146210Y0158005D01*
X0146210Y0157274D02*
X0146210Y0159179D01*
X0144863Y0160527D01*
X0142957Y0160527D01*
X0141610Y0159179D01*
X0141610Y0157274D01*
X0142957Y0155927D01*
X0144863Y0155927D01*
X0146210Y0157274D01*
X0146143Y0157207D02*
X0179637Y0157207D01*
X0178839Y0156408D02*
X0145344Y0156408D01*
X0146203Y0154811D02*
X0178485Y0154811D01*
X0178485Y0155610D02*
X0139546Y0155610D01*
X0139238Y0155302D02*
X0140585Y0156649D01*
X0140585Y0158554D01*
X0140288Y0158852D01*
X0140585Y0159149D01*
X0140585Y0161054D01*
X0140288Y0161352D01*
X0140585Y0161649D01*
X0140585Y0163554D01*
X0139238Y0164902D01*
X0137332Y0164902D01*
X0135985Y0163554D01*
X0135985Y0161649D01*
X0136282Y0161352D01*
X0135985Y0161054D01*
X0135985Y0159149D01*
X0136282Y0158852D01*
X0135985Y0158554D01*
X0135985Y0156649D01*
X0137332Y0155302D01*
X0139238Y0155302D01*
X0140344Y0156408D02*
X0142476Y0156408D01*
X0141677Y0157207D02*
X0140585Y0157207D01*
X0140585Y0158005D02*
X0141610Y0158005D01*
X0141610Y0158804D02*
X0140336Y0158804D01*
X0140585Y0159602D02*
X0142033Y0159602D01*
X0142831Y0160401D02*
X0140585Y0160401D01*
X0140440Y0161199D02*
X0154110Y0161199D01*
X0154110Y0161024D02*
X0155457Y0159677D01*
X0157363Y0159677D01*
X0158710Y0161024D01*
X0158710Y0162929D01*
X0157363Y0164277D01*
X0155457Y0164277D01*
X0154110Y0162929D01*
X0154110Y0161024D01*
X0154733Y0160401D02*
X0144989Y0160401D01*
X0145787Y0159602D02*
X0223800Y0159602D01*
X0223800Y0158804D02*
X0146210Y0158804D01*
X0144117Y0154811D02*
X0112453Y0154811D01*
X0113252Y0154013D02*
X0143318Y0154013D01*
X0142860Y0153214D02*
X0113710Y0153214D01*
X0113710Y0152416D02*
X0142860Y0152416D01*
X0140923Y0151617D02*
X0113678Y0151617D01*
X0112880Y0150819D02*
X0140360Y0150819D01*
X0144234Y0148423D02*
X0146711Y0148423D01*
X0145985Y0149222D02*
X0144960Y0149222D01*
X0144960Y0150020D02*
X0145985Y0150020D01*
X0147460Y0153214D02*
X0158770Y0153214D01*
X0159568Y0154013D02*
X0147002Y0154013D01*
X0140585Y0161998D02*
X0154110Y0161998D01*
X0154110Y0162796D02*
X0140585Y0162796D01*
X0140545Y0163595D02*
X0154776Y0163595D01*
X0158045Y0163595D02*
X0166651Y0163595D01*
X0166610Y0163554D02*
X0166610Y0161649D01*
X0167957Y0160302D01*
X0169863Y0160302D01*
X0171210Y0161649D01*
X0171210Y0163554D01*
X0169863Y0164902D01*
X0167957Y0164902D01*
X0166610Y0163554D01*
X0166610Y0162796D02*
X0158710Y0162796D01*
X0158710Y0161998D02*
X0166610Y0161998D01*
X0167060Y0161199D02*
X0158710Y0161199D01*
X0158087Y0160401D02*
X0167858Y0160401D01*
X0169962Y0160401D02*
X0172858Y0160401D01*
X0172957Y0160302D02*
X0174863Y0160302D01*
X0176210Y0161649D01*
X0176210Y0163554D01*
X0174863Y0164902D01*
X0172957Y0164902D01*
X0171610Y0163554D01*
X0171610Y0161649D01*
X0172957Y0160302D01*
X0172060Y0161199D02*
X0170760Y0161199D01*
X0171210Y0161998D02*
X0171610Y0161998D01*
X0171610Y0162796D02*
X0171210Y0162796D01*
X0171170Y0163595D02*
X0171651Y0163595D01*
X0172449Y0164393D02*
X0170371Y0164393D01*
X0170551Y0165990D02*
X0172269Y0165990D01*
X0171610Y0166649D02*
X0172957Y0165302D01*
X0174863Y0165302D01*
X0176210Y0166649D01*
X0176210Y0168554D01*
X0174863Y0169902D01*
X0172957Y0169902D01*
X0171610Y0168554D01*
X0171610Y0166649D01*
X0171610Y0166789D02*
X0171210Y0166789D01*
X0171210Y0167587D02*
X0171610Y0167587D01*
X0171610Y0168386D02*
X0171210Y0168386D01*
X0170580Y0169184D02*
X0172240Y0169184D01*
X0175580Y0169184D02*
X0223800Y0169184D01*
X0223800Y0168386D02*
X0176210Y0168386D01*
X0176210Y0167587D02*
X0223800Y0167587D01*
X0223800Y0166789D02*
X0176210Y0166789D01*
X0175551Y0165990D02*
X0223800Y0165990D01*
X0223800Y0165192D02*
X0091210Y0165192D01*
X0091210Y0165429D02*
X0089863Y0166777D01*
X0087957Y0166777D01*
X0086610Y0165429D01*
X0086610Y0163524D01*
X0087957Y0162177D01*
X0089863Y0162177D01*
X0091210Y0163524D01*
X0091210Y0165429D01*
X0090649Y0165990D02*
X0167269Y0165990D01*
X0167449Y0164393D02*
X0139746Y0164393D01*
X0136824Y0164393D02*
X0128496Y0164393D01*
X0127988Y0164902D02*
X0126082Y0164902D01*
X0124735Y0163554D01*
X0124735Y0161649D01*
X0125032Y0161352D01*
X0124735Y0161054D01*
X0124735Y0159149D01*
X0125032Y0158852D01*
X0124735Y0158554D01*
X0124735Y0156649D01*
X0126082Y0155302D01*
X0127988Y0155302D01*
X0129335Y0156649D01*
X0129335Y0158554D01*
X0129038Y0158852D01*
X0129335Y0159149D01*
X0129335Y0161054D01*
X0129038Y0161352D01*
X0129335Y0161649D01*
X0129335Y0163554D01*
X0127988Y0164902D01*
X0129295Y0163595D02*
X0136026Y0163595D01*
X0135985Y0162796D02*
X0129335Y0162796D01*
X0129335Y0161998D02*
X0135985Y0161998D01*
X0136130Y0161199D02*
X0129190Y0161199D01*
X0129335Y0160401D02*
X0135985Y0160401D01*
X0135985Y0159602D02*
X0129335Y0159602D01*
X0129086Y0158804D02*
X0136234Y0158804D01*
X0135985Y0158005D02*
X0129335Y0158005D01*
X0129335Y0157207D02*
X0135985Y0157207D01*
X0136226Y0156408D02*
X0129094Y0156408D01*
X0128296Y0155610D02*
X0137024Y0155610D01*
X0137833Y0146027D02*
X0080612Y0146027D01*
X0081210Y0145429D02*
X0079863Y0146777D01*
X0077957Y0146777D01*
X0076610Y0145429D01*
X0076610Y0143524D01*
X0077957Y0142177D01*
X0079863Y0142177D01*
X0081210Y0143524D01*
X0081210Y0145429D01*
X0081210Y0145229D02*
X0137235Y0145229D01*
X0137235Y0144430D02*
X0127834Y0144430D01*
X0128633Y0143632D02*
X0137235Y0143632D01*
X0137926Y0142833D02*
X0128710Y0142833D01*
X0127499Y0140438D02*
X0142244Y0140438D01*
X0141610Y0139639D02*
X0108250Y0139639D01*
X0108710Y0138841D02*
X0141610Y0138841D01*
X0141610Y0138042D02*
X0108710Y0138042D01*
X0108680Y0137244D02*
X0142265Y0137244D01*
X0145555Y0137244D02*
X0146015Y0137244D01*
X0145994Y0140438D02*
X0145577Y0140438D01*
X0132373Y0136445D02*
X0107881Y0136445D01*
X0107868Y0135647D02*
X0130815Y0135647D01*
X0130016Y0134848D02*
X0108666Y0134848D01*
X0108710Y0134050D02*
X0129664Y0134050D01*
X0129385Y0133251D02*
X0108710Y0133251D01*
X0108264Y0132453D02*
X0129385Y0132453D01*
X0129456Y0131654D02*
X0107465Y0131654D01*
X0102835Y0131654D02*
X0081210Y0131654D01*
X0080417Y0130856D02*
X0102037Y0130856D01*
X0104110Y0138042D02*
X0092604Y0138042D01*
X0092363Y0137802D02*
X0093710Y0139149D01*
X0093710Y0141054D01*
X0092363Y0142402D01*
X0090457Y0142402D01*
X0089110Y0141054D01*
X0089110Y0139149D01*
X0090457Y0137802D01*
X0092363Y0137802D01*
X0093402Y0138841D02*
X0104110Y0138841D01*
X0104570Y0139639D02*
X0093710Y0139639D01*
X0093710Y0140438D02*
X0105369Y0140438D01*
X0107452Y0140438D02*
X0113446Y0140438D01*
X0113582Y0140302D02*
X0115488Y0140302D01*
X0116835Y0141649D01*
X0116835Y0143554D01*
X0115488Y0144902D01*
X0113582Y0144902D01*
X0112235Y0143554D01*
X0112235Y0141649D01*
X0113582Y0140302D01*
X0112648Y0141236D02*
X0093528Y0141236D01*
X0092730Y0142035D02*
X0112235Y0142035D01*
X0112235Y0142833D02*
X0080520Y0142833D01*
X0081210Y0143632D02*
X0112313Y0143632D01*
X0113111Y0144430D02*
X0081210Y0144430D01*
X0077301Y0142833D02*
X0068806Y0142833D01*
X0069605Y0142035D02*
X0090091Y0142035D01*
X0089292Y0141236D02*
X0069960Y0141236D01*
X0069960Y0140438D02*
X0089110Y0140438D01*
X0089110Y0139639D02*
X0069826Y0139639D01*
X0069674Y0138841D02*
X0089418Y0138841D01*
X0090217Y0138042D02*
X0070472Y0138042D01*
X0072416Y0134848D02*
X0074110Y0134848D01*
X0074209Y0134050D02*
X0073215Y0134050D01*
X0073710Y0133251D02*
X0075008Y0133251D01*
X0073710Y0132453D02*
X0076610Y0132453D01*
X0076610Y0131654D02*
X0073710Y0131654D01*
X0072917Y0130856D02*
X0077403Y0130856D01*
X0077797Y0124468D02*
X0079416Y0124468D01*
X0080215Y0123669D02*
X0078595Y0123669D01*
X0078710Y0122871D02*
X0082263Y0122871D01*
X0083062Y0122072D02*
X0078710Y0122072D01*
X0078335Y0121274D02*
X0084735Y0121274D01*
X0084735Y0120475D02*
X0077536Y0120475D01*
X0067660Y0117281D02*
X0093462Y0117281D01*
X0092663Y0116483D02*
X0067660Y0116483D01*
X0067660Y0115684D02*
X0092235Y0115684D01*
X0092235Y0114886D02*
X0067660Y0114886D01*
X0067660Y0114087D02*
X0092297Y0114087D01*
X0093096Y0113289D02*
X0067660Y0113289D01*
X0065785Y0113289D02*
X0049935Y0113289D01*
X0049935Y0114087D02*
X0065785Y0114087D01*
X0065785Y0114886D02*
X0049935Y0114886D01*
X0049935Y0115684D02*
X0065785Y0115684D01*
X0065785Y0116483D02*
X0049935Y0116483D01*
X0049935Y0117281D02*
X0065785Y0117281D01*
X0065785Y0118080D02*
X0049935Y0118080D01*
X0049935Y0118878D02*
X0065785Y0118878D01*
X0065785Y0119677D02*
X0056738Y0119677D01*
X0056113Y0119052D02*
X0057460Y0120399D01*
X0057460Y0122304D01*
X0056113Y0123652D01*
X0054207Y0123652D01*
X0052860Y0122304D01*
X0052860Y0120399D01*
X0054207Y0119052D01*
X0056113Y0119052D01*
X0057460Y0120475D02*
X0065785Y0120475D01*
X0065785Y0121274D02*
X0057460Y0121274D01*
X0057460Y0122072D02*
X0065785Y0122072D01*
X0065785Y0122871D02*
X0056894Y0122871D01*
X0053426Y0122871D02*
X0049935Y0122871D01*
X0049935Y0123669D02*
X0065785Y0123669D01*
X0065785Y0124468D02*
X0049935Y0124468D01*
X0049935Y0125266D02*
X0065785Y0125266D01*
X0065785Y0126065D02*
X0049935Y0126065D01*
X0049935Y0126863D02*
X0065785Y0126863D01*
X0065785Y0131654D02*
X0054340Y0131654D01*
X0054960Y0132453D02*
X0065785Y0132453D01*
X0065785Y0133251D02*
X0054960Y0133251D01*
X0054960Y0134050D02*
X0065785Y0134050D01*
X0065785Y0134848D02*
X0054291Y0134848D01*
X0052860Y0122072D02*
X0049935Y0122072D01*
X0049935Y0121274D02*
X0052860Y0121274D01*
X0052860Y0120475D02*
X0049935Y0120475D01*
X0049935Y0119677D02*
X0053582Y0119677D01*
X0049935Y0112490D02*
X0065785Y0112490D01*
X0065785Y0111691D02*
X0049935Y0111691D01*
X0049935Y0110893D02*
X0065785Y0110893D01*
X0065785Y0110094D02*
X0049935Y0110094D01*
X0049935Y0109296D02*
X0065785Y0109296D01*
X0065785Y0108497D02*
X0049935Y0108497D01*
X0049935Y0107699D02*
X0065785Y0107699D01*
X0065785Y0106900D02*
X0049935Y0106900D01*
X0049935Y0106102D02*
X0065785Y0106102D01*
X0065785Y0105303D02*
X0049935Y0105303D01*
X0049935Y0104505D02*
X0065785Y0104505D01*
X0064887Y0103706D02*
X0055433Y0103706D01*
X0054863Y0104277D02*
X0052957Y0104277D01*
X0051610Y0102929D01*
X0051610Y0101024D01*
X0052957Y0099677D01*
X0054863Y0099677D01*
X0056210Y0101024D01*
X0056210Y0102929D01*
X0054863Y0104277D01*
X0056210Y0102908D02*
X0064110Y0102908D01*
X0064110Y0102109D02*
X0056210Y0102109D01*
X0056210Y0101311D02*
X0064110Y0101311D01*
X0064622Y0100512D02*
X0055698Y0100512D01*
X0054900Y0099714D02*
X0065420Y0099714D01*
X0065785Y0098915D02*
X0049935Y0098915D01*
X0049935Y0098117D02*
X0065785Y0098117D01*
X0065785Y0097318D02*
X0065571Y0097318D01*
X0065560Y0094124D02*
X0065785Y0094124D01*
X0065785Y0093326D02*
X0053085Y0093326D01*
X0053085Y0094124D02*
X0062260Y0094124D01*
X0061610Y0094923D02*
X0052967Y0094923D01*
X0052168Y0095721D02*
X0061610Y0095721D01*
X0061610Y0096520D02*
X0049935Y0096520D01*
X0049935Y0097318D02*
X0062249Y0097318D01*
X0062458Y0092527D02*
X0052713Y0092527D01*
X0051915Y0091729D02*
X0061659Y0091729D01*
X0061610Y0090930D02*
X0053209Y0090930D01*
X0054008Y0090132D02*
X0061610Y0090132D01*
X0062051Y0089333D02*
X0054335Y0089333D01*
X0054335Y0088535D02*
X0062849Y0088535D01*
X0064971Y0088535D02*
X0072035Y0088535D01*
X0072035Y0087736D02*
X0054172Y0087736D01*
X0053374Y0086938D02*
X0072035Y0086938D01*
X0072035Y0086139D02*
X0049935Y0086139D01*
X0049935Y0085341D02*
X0072035Y0085341D01*
X0072035Y0084542D02*
X0049935Y0084542D01*
X0049935Y0083744D02*
X0072035Y0083744D01*
X0072035Y0082945D02*
X0049935Y0082945D01*
X0049935Y0082147D02*
X0072035Y0082147D01*
X0072035Y0081348D02*
X0049935Y0081348D01*
X0049935Y0080550D02*
X0072035Y0080550D01*
X0072035Y0079751D02*
X0049935Y0079751D01*
X0049935Y0078953D02*
X0072035Y0078953D01*
X0072035Y0078154D02*
X0049935Y0078154D01*
X0049935Y0077356D02*
X0072035Y0077356D01*
X0072035Y0076557D02*
X0049935Y0076557D01*
X0049935Y0075758D02*
X0072035Y0075758D01*
X0072035Y0074960D02*
X0049935Y0074960D01*
X0049935Y0074161D02*
X0072035Y0074161D01*
X0072035Y0073363D02*
X0049935Y0073363D01*
X0049935Y0072564D02*
X0049995Y0072564D01*
X0052825Y0072564D02*
X0053745Y0072564D01*
X0056575Y0072564D02*
X0057495Y0072564D01*
X0060325Y0072564D02*
X0072035Y0072564D01*
X0072035Y0071766D02*
X0061124Y0071766D01*
X0061210Y0070967D02*
X0072035Y0070967D01*
X0072035Y0070169D02*
X0061210Y0070169D01*
X0060807Y0069370D02*
X0072035Y0069370D01*
X0072035Y0068572D02*
X0060008Y0068572D01*
X0057812Y0068572D02*
X0056258Y0068572D01*
X0054062Y0068572D02*
X0052508Y0068572D01*
X0050696Y0086938D02*
X0049935Y0086938D01*
X0049935Y0090132D02*
X0050062Y0090132D01*
X0049935Y0090930D02*
X0050861Y0090930D01*
X0049935Y0099714D02*
X0052920Y0099714D01*
X0052122Y0100512D02*
X0049935Y0100512D01*
X0049935Y0101311D02*
X0051610Y0101311D01*
X0051610Y0102109D02*
X0049935Y0102109D01*
X0049935Y0102908D02*
X0051610Y0102908D01*
X0052387Y0103706D02*
X0049935Y0103706D01*
X0065362Y0092527D02*
X0065785Y0092527D01*
X0067660Y0091729D02*
X0074785Y0091729D01*
X0073986Y0090930D02*
X0073910Y0090930D01*
X0073910Y0087736D02*
X0074273Y0087736D01*
X0073910Y0086938D02*
X0079993Y0086938D01*
X0080457Y0087402D02*
X0079110Y0086054D01*
X0079110Y0084149D01*
X0080457Y0082802D01*
X0082363Y0082802D01*
X0083710Y0084149D01*
X0083710Y0086054D01*
X0082363Y0087402D01*
X0080457Y0087402D01*
X0079195Y0086139D02*
X0073910Y0086139D01*
X0073910Y0085341D02*
X0079110Y0085341D01*
X0079110Y0084542D02*
X0073910Y0084542D01*
X0073910Y0083744D02*
X0079515Y0083744D01*
X0080314Y0082945D02*
X0078694Y0082945D01*
X0082506Y0082945D02*
X0088439Y0082945D01*
X0087640Y0083744D02*
X0083305Y0083744D01*
X0083710Y0084542D02*
X0087235Y0084542D01*
X0087235Y0085341D02*
X0083710Y0085341D01*
X0083625Y0086139D02*
X0087320Y0086139D01*
X0088118Y0086938D02*
X0082827Y0086938D01*
X0075376Y0082945D02*
X0073910Y0082945D01*
X0073910Y0082147D02*
X0074735Y0082147D01*
X0074735Y0081348D02*
X0073910Y0081348D01*
X0073910Y0080550D02*
X0074735Y0080550D01*
X0075383Y0079751D02*
X0073910Y0079751D01*
X0077460Y0077356D02*
X0079161Y0077356D01*
X0078363Y0076557D02*
X0077460Y0076557D01*
X0077195Y0075758D02*
X0077860Y0075758D01*
X0077860Y0074960D02*
X0076396Y0074960D01*
X0077860Y0074161D02*
X0073910Y0074161D01*
X0073910Y0073363D02*
X0078294Y0073363D01*
X0077860Y0072564D02*
X0073910Y0072564D01*
X0073910Y0071766D02*
X0077860Y0071766D01*
X0077917Y0070967D02*
X0073910Y0070967D01*
X0073910Y0070169D02*
X0078715Y0070169D01*
X0081605Y0070169D02*
X0082465Y0070169D01*
X0082113Y0076557D02*
X0081957Y0076557D01*
X0081159Y0077356D02*
X0082911Y0077356D01*
X0073924Y0074960D02*
X0073910Y0074960D01*
X0073910Y0061385D02*
X0128191Y0061385D01*
X0127860Y0060587D02*
X0073910Y0060587D01*
X0073910Y0059788D02*
X0090969Y0059788D01*
X0091082Y0059902D02*
X0089735Y0058554D01*
X0089735Y0056649D01*
X0091082Y0055302D01*
X0092988Y0055302D01*
X0093285Y0055599D01*
X0093582Y0055302D01*
X0095488Y0055302D01*
X0096835Y0056649D01*
X0096835Y0058554D01*
X0095488Y0059902D01*
X0093582Y0059902D01*
X0093285Y0059604D01*
X0092988Y0059902D01*
X0091082Y0059902D01*
X0090171Y0058990D02*
X0073910Y0058990D01*
X0073910Y0058191D02*
X0089735Y0058191D01*
X0089735Y0057393D02*
X0073910Y0057393D01*
X0073910Y0056594D02*
X0089790Y0056594D01*
X0090588Y0055796D02*
X0073910Y0055796D01*
X0093101Y0059788D02*
X0093469Y0059788D01*
X0095601Y0059788D02*
X0127860Y0059788D01*
X0128019Y0058990D02*
X0096400Y0058990D01*
X0096835Y0058191D02*
X0127860Y0058191D01*
X0127860Y0057393D02*
X0096835Y0057393D01*
X0096780Y0056594D02*
X0127915Y0056594D01*
X0128713Y0055796D02*
X0095982Y0055796D01*
X0099189Y0074161D02*
X0140973Y0074161D01*
X0140360Y0074960D02*
X0098960Y0074960D01*
X0098960Y0075758D02*
X0140360Y0075758D01*
X0140360Y0076557D02*
X0132993Y0076557D01*
X0130376Y0082945D02*
X0118131Y0082945D01*
X0121038Y0089333D02*
X0098960Y0089333D01*
X0098960Y0090132D02*
X0115627Y0090132D01*
X0114829Y0090930D02*
X0098960Y0090930D01*
X0098960Y0091729D02*
X0114735Y0091729D01*
X0114735Y0092527D02*
X0098960Y0092527D01*
X0098960Y0093326D02*
X0115132Y0093326D01*
X0115930Y0094124D02*
X0098960Y0094124D01*
X0094485Y0096520D02*
X0093581Y0096520D01*
X0094335Y0097318D02*
X0094485Y0097318D01*
X0094485Y0098117D02*
X0094335Y0098117D01*
X0094335Y0098915D02*
X0094485Y0098915D01*
X0094809Y0099714D02*
X0093801Y0099714D01*
X0093002Y0100512D02*
X0095607Y0100512D01*
X0096406Y0101311D02*
X0090585Y0101311D01*
X0090585Y0102109D02*
X0097204Y0102109D01*
X0098003Y0102908D02*
X0090585Y0102908D01*
X0089808Y0103706D02*
X0098801Y0103706D01*
X0099760Y0107699D02*
X0100110Y0107699D01*
X0091068Y0100512D02*
X0090073Y0100512D01*
X0090051Y0099714D02*
X0090270Y0099714D01*
X0086520Y0099714D02*
X0086301Y0099714D01*
X0086497Y0100512D02*
X0085502Y0100512D01*
X0082235Y0097318D02*
X0076821Y0097318D01*
X0077620Y0096520D02*
X0082989Y0096520D01*
X0065785Y0089333D02*
X0065769Y0089333D01*
X0067660Y0143632D02*
X0076610Y0143632D01*
X0076610Y0144430D02*
X0067660Y0144430D01*
X0067660Y0145229D02*
X0076610Y0145229D01*
X0077208Y0146027D02*
X0067660Y0146027D01*
X0067660Y0157207D02*
X0067927Y0157207D01*
X0077982Y0162796D02*
X0087338Y0162796D01*
X0086610Y0163595D02*
X0078710Y0163595D01*
X0078710Y0164393D02*
X0086610Y0164393D01*
X0086610Y0165192D02*
X0078710Y0165192D01*
X0078149Y0165990D02*
X0087171Y0165990D01*
X0091210Y0164393D02*
X0125574Y0164393D01*
X0124776Y0163595D02*
X0091210Y0163595D01*
X0090482Y0162796D02*
X0097102Y0162796D01*
X0099468Y0162796D02*
X0124735Y0162796D01*
X0124735Y0161998D02*
X0117767Y0161998D01*
X0118565Y0161199D02*
X0124880Y0161199D01*
X0124735Y0160401D02*
X0118710Y0160401D01*
X0118710Y0159602D02*
X0124735Y0159602D01*
X0124984Y0158804D02*
X0118461Y0158804D01*
X0118710Y0158005D02*
X0124735Y0158005D01*
X0124735Y0157207D02*
X0118710Y0157207D01*
X0118469Y0156408D02*
X0124976Y0156408D01*
X0125774Y0155610D02*
X0117671Y0155610D01*
X0115959Y0144430D02*
X0124986Y0144430D01*
X0124188Y0143632D02*
X0116758Y0143632D01*
X0116835Y0142833D02*
X0124110Y0142833D01*
X0124110Y0142035D02*
X0116835Y0142035D01*
X0116423Y0141236D02*
X0124523Y0141236D01*
X0125321Y0140438D02*
X0115624Y0140438D01*
X0135876Y0119677D02*
X0137107Y0119677D01*
X0136950Y0115684D02*
X0135718Y0115684D01*
X0135026Y0106102D02*
X0144657Y0106102D01*
X0144110Y0106900D02*
X0118085Y0106900D01*
X0118085Y0107699D02*
X0144110Y0107699D01*
X0145456Y0105303D02*
X0136099Y0105303D01*
X0136718Y0104505D02*
X0223800Y0104505D01*
X0223800Y0105303D02*
X0147365Y0105303D01*
X0148163Y0106102D02*
X0170907Y0106102D01*
X0170109Y0106900D02*
X0148710Y0106900D01*
X0148710Y0107699D02*
X0169735Y0107699D01*
X0168512Y0108497D02*
X0148710Y0108497D01*
X0147968Y0109296D02*
X0167713Y0109296D01*
X0171835Y0110893D02*
X0223800Y0110893D01*
X0223800Y0111691D02*
X0182503Y0111691D01*
X0183085Y0112490D02*
X0223800Y0112490D01*
X0223800Y0113289D02*
X0183085Y0113289D01*
X0184898Y0114087D02*
X0223800Y0114087D01*
X0223800Y0114886D02*
X0185585Y0114886D01*
X0185585Y0115684D02*
X0223800Y0115684D01*
X0223800Y0116483D02*
X0185585Y0116483D01*
X0184983Y0117281D02*
X0223800Y0117281D01*
X0223800Y0118080D02*
X0183085Y0118080D01*
X0183085Y0118878D02*
X0223800Y0118878D01*
X0223800Y0119677D02*
X0182588Y0119677D01*
X0181789Y0120475D02*
X0223800Y0120475D01*
X0223800Y0122871D02*
X0158710Y0122871D01*
X0157970Y0123669D02*
X0223800Y0123669D01*
X0223800Y0110094D02*
X0173420Y0110094D01*
X0174218Y0109296D02*
X0223800Y0109296D01*
X0223800Y0108497D02*
X0174335Y0108497D01*
X0174335Y0107699D02*
X0223800Y0107699D01*
X0223800Y0106900D02*
X0173962Y0106900D01*
X0173163Y0106102D02*
X0223800Y0106102D01*
X0223800Y0103706D02*
X0137049Y0103706D01*
X0137185Y0102908D02*
X0223800Y0102908D01*
X0223800Y0102109D02*
X0137185Y0102109D01*
X0136972Y0101311D02*
X0223800Y0101311D01*
X0223800Y0100512D02*
X0223002Y0100512D01*
X0223581Y0096520D02*
X0223800Y0096520D01*
X0223800Y0094124D02*
X0211890Y0094124D01*
X0212460Y0093326D02*
X0223800Y0093326D01*
X0223800Y0092527D02*
X0212460Y0092527D01*
X0212460Y0091729D02*
X0223800Y0091729D01*
X0198285Y0063227D02*
X0205160Y0056352D01*
X0180034Y0066975D02*
X0179036Y0066975D01*
X0178797Y0070967D02*
X0180273Y0070967D01*
X0169682Y0079751D02*
X0169388Y0079751D01*
X0171823Y0111691D02*
X0179068Y0111691D01*
X0178485Y0112490D02*
X0171024Y0112490D01*
X0171842Y0117281D02*
X0174728Y0117281D01*
X0173930Y0118080D02*
X0172641Y0118080D01*
X0173085Y0118878D02*
X0173485Y0118878D01*
X0173485Y0119677D02*
X0173085Y0119677D01*
X0173039Y0120475D02*
X0173531Y0120475D01*
X0174329Y0121274D02*
X0172241Y0121274D01*
X0173085Y0140438D02*
X0189071Y0140438D01*
X0188485Y0141024D02*
X0189832Y0139677D01*
X0191738Y0139677D01*
X0193085Y0141024D01*
X0193085Y0142929D01*
X0191738Y0144277D01*
X0189832Y0144277D01*
X0188485Y0142929D01*
X0188485Y0141024D01*
X0188485Y0141236D02*
X0173085Y0141236D01*
X0173085Y0142035D02*
X0188485Y0142035D01*
X0188485Y0142833D02*
X0172556Y0142833D01*
X0171758Y0143632D02*
X0189188Y0143632D01*
X0192383Y0143632D02*
X0193485Y0143632D01*
X0193485Y0144430D02*
X0167742Y0144430D01*
X0168085Y0145229D02*
X0193485Y0145229D01*
X0194083Y0146027D02*
X0168085Y0146027D01*
X0167938Y0146826D02*
X0223800Y0146826D01*
X0223800Y0147625D02*
X0167140Y0147625D01*
X0164430Y0147625D02*
X0158390Y0147625D01*
X0157984Y0148423D02*
X0223800Y0148423D01*
X0223800Y0146027D02*
X0197487Y0146027D01*
X0198085Y0145229D02*
X0223800Y0145229D01*
X0223800Y0144430D02*
X0198085Y0144430D01*
X0198085Y0143632D02*
X0223800Y0143632D01*
X0223800Y0142833D02*
X0198085Y0142833D01*
X0198085Y0142035D02*
X0223800Y0142035D01*
X0223800Y0160401D02*
X0174962Y0160401D01*
X0175760Y0161199D02*
X0223800Y0161199D01*
X0223800Y0161998D02*
X0176210Y0161998D01*
X0176210Y0162796D02*
X0223800Y0162796D01*
X0223800Y0163595D02*
X0176170Y0163595D01*
X0175371Y0164393D02*
X0223800Y0164393D01*
X0223800Y0185953D02*
X0213014Y0185953D01*
X0212363Y0185302D02*
X0213710Y0186649D01*
X0213710Y0188554D01*
X0213413Y0188852D01*
X0213710Y0189149D01*
X0213710Y0191054D01*
X0212363Y0192402D01*
X0210457Y0192402D01*
X0210160Y0192104D01*
X0209863Y0192402D01*
X0207957Y0192402D01*
X0206610Y0191054D01*
X0206610Y0189149D01*
X0206907Y0188852D01*
X0206610Y0188554D01*
X0206610Y0186649D01*
X0207957Y0185302D01*
X0209863Y0185302D01*
X0210160Y0185599D01*
X0210457Y0185302D01*
X0212363Y0185302D01*
X0213710Y0186752D02*
X0223800Y0186752D01*
X0223800Y0187550D02*
X0213710Y0187550D01*
X0213710Y0188349D02*
X0223800Y0188349D01*
X0223800Y0189147D02*
X0213708Y0189147D01*
X0213710Y0189946D02*
X0223800Y0189946D01*
X0223800Y0190744D02*
X0213710Y0190744D01*
X0213222Y0191543D02*
X0223800Y0191543D01*
X0223800Y0192341D02*
X0212423Y0192341D01*
X0210397Y0192341D02*
X0209923Y0192341D01*
X0207897Y0192341D02*
X0204298Y0192341D01*
X0205097Y0191543D02*
X0207098Y0191543D01*
X0206610Y0190744D02*
X0205585Y0190744D01*
X0205585Y0189946D02*
X0206610Y0189946D01*
X0206612Y0189147D02*
X0205583Y0189147D01*
X0205585Y0188349D02*
X0206610Y0188349D01*
X0206610Y0187550D02*
X0205585Y0187550D01*
X0205585Y0186752D02*
X0206610Y0186752D01*
X0207306Y0185953D02*
X0204889Y0185953D01*
X0202272Y0192341D02*
X0201798Y0192341D01*
X0199772Y0192341D02*
X0186852Y0192341D01*
X0186796Y0192285D02*
X0188129Y0193618D01*
X0188850Y0195360D01*
X0188850Y0197245D01*
X0188129Y0198987D01*
X0186796Y0200320D01*
X0185054Y0201041D01*
X0183169Y0201041D01*
X0181428Y0200320D01*
X0180095Y0198987D01*
X0179373Y0197245D01*
X0179373Y0195360D01*
X0180095Y0193618D01*
X0181428Y0192285D01*
X0183169Y0191564D01*
X0185054Y0191564D01*
X0186796Y0192285D01*
X0187650Y0193140D02*
X0193244Y0193140D01*
X0192446Y0193938D02*
X0188262Y0193938D01*
X0188592Y0194737D02*
X0192235Y0194737D01*
X0192235Y0195535D02*
X0188850Y0195535D01*
X0188850Y0196334D02*
X0192514Y0196334D01*
X0193313Y0197132D02*
X0188850Y0197132D01*
X0188566Y0197931D02*
X0194737Y0197931D01*
X0196101Y0198729D02*
X0192665Y0198729D01*
X0193464Y0199528D02*
X0196899Y0199528D01*
X0197635Y0200326D02*
X0194887Y0200326D01*
X0195585Y0201125D02*
X0197635Y0201125D01*
X0197635Y0201923D02*
X0195585Y0201923D01*
X0195585Y0202722D02*
X0197635Y0202722D01*
X0197635Y0203520D02*
X0194994Y0203520D01*
X0201435Y0203520D02*
X0223800Y0203520D01*
X0223800Y0202722D02*
X0201435Y0202722D01*
X0201435Y0201923D02*
X0223800Y0201923D01*
X0223800Y0201125D02*
X0201435Y0201125D01*
X0201435Y0200326D02*
X0223800Y0200326D01*
X0223800Y0199528D02*
X0201435Y0199528D01*
X0201435Y0198729D02*
X0223800Y0198729D01*
X0223800Y0197931D02*
X0200676Y0197931D01*
X0199878Y0197132D02*
X0223800Y0197132D01*
X0223800Y0196334D02*
X0199079Y0196334D01*
X0198710Y0195535D02*
X0223800Y0195535D01*
X0223800Y0194737D02*
X0198048Y0194737D01*
X0196624Y0193938D02*
X0223800Y0193938D01*
X0223800Y0193140D02*
X0195826Y0193140D01*
X0190155Y0198729D02*
X0188236Y0198729D01*
X0187588Y0199528D02*
X0189356Y0199528D01*
X0189110Y0200326D02*
X0186780Y0200326D01*
X0181444Y0200326D02*
X0174969Y0200326D01*
X0174985Y0200320D02*
X0173243Y0201041D01*
X0171358Y0201041D01*
X0169617Y0200320D01*
X0168284Y0198987D01*
X0167562Y0197245D01*
X0167562Y0195360D01*
X0168284Y0193618D01*
X0169617Y0192285D01*
X0171358Y0191564D01*
X0173243Y0191564D01*
X0174985Y0192285D01*
X0176318Y0193618D01*
X0177039Y0195360D01*
X0177039Y0197245D01*
X0176318Y0198987D01*
X0174985Y0200320D01*
X0175777Y0199528D02*
X0180636Y0199528D01*
X0179988Y0198729D02*
X0176425Y0198729D01*
X0176755Y0197931D02*
X0179657Y0197931D01*
X0179373Y0197132D02*
X0177039Y0197132D01*
X0177039Y0196334D02*
X0179373Y0196334D01*
X0179373Y0195535D02*
X0177039Y0195535D01*
X0176781Y0194737D02*
X0179631Y0194737D01*
X0179962Y0193938D02*
X0176451Y0193938D01*
X0175839Y0193140D02*
X0180573Y0193140D01*
X0181372Y0192341D02*
X0175041Y0192341D01*
X0169561Y0192341D02*
X0163230Y0192341D01*
X0163174Y0192285D02*
X0164507Y0193618D01*
X0165228Y0195360D01*
X0165228Y0197245D01*
X0164507Y0198987D01*
X0163174Y0200320D01*
X0161432Y0201041D01*
X0159547Y0201041D01*
X0157806Y0200320D01*
X0156473Y0198987D01*
X0155751Y0197245D01*
X0155751Y0195360D01*
X0156473Y0193618D01*
X0157806Y0192285D01*
X0159547Y0191564D01*
X0161432Y0191564D01*
X0163174Y0192285D01*
X0164028Y0193140D02*
X0168762Y0193140D01*
X0168151Y0193938D02*
X0164640Y0193938D01*
X0164970Y0194737D02*
X0167820Y0194737D01*
X0167562Y0195535D02*
X0165228Y0195535D01*
X0165228Y0196334D02*
X0167562Y0196334D01*
X0167562Y0197132D02*
X0165228Y0197132D01*
X0164944Y0197931D02*
X0167846Y0197931D01*
X0168177Y0198729D02*
X0164614Y0198729D01*
X0163966Y0199528D02*
X0168825Y0199528D01*
X0169633Y0200326D02*
X0163158Y0200326D01*
X0163711Y0202128D02*
X0162378Y0203461D01*
X0161657Y0205202D01*
X0161657Y0207088D01*
X0162378Y0208829D01*
X0163711Y0210162D01*
X0165453Y0210884D01*
X0167338Y0210884D01*
X0169080Y0210162D01*
X0170413Y0208829D01*
X0171134Y0207088D01*
X0171134Y0205202D01*
X0170413Y0203461D01*
X0169080Y0202128D01*
X0167338Y0201406D01*
X0165453Y0201406D01*
X0163711Y0202128D01*
X0164205Y0201923D02*
X0156775Y0201923D01*
X0157269Y0202128D02*
X0158602Y0203461D01*
X0159323Y0205202D01*
X0159323Y0207088D01*
X0158602Y0208829D01*
X0157269Y0210162D01*
X0155527Y0210884D01*
X0153642Y0210884D01*
X0151900Y0210162D01*
X0150567Y0208829D01*
X0149846Y0207088D01*
X0149846Y0205202D01*
X0150567Y0203461D01*
X0151900Y0202128D01*
X0153642Y0201406D01*
X0155527Y0201406D01*
X0157269Y0202128D01*
X0157863Y0202722D02*
X0163117Y0202722D01*
X0162354Y0203520D02*
X0158626Y0203520D01*
X0158957Y0204319D02*
X0162023Y0204319D01*
X0161692Y0205117D02*
X0159288Y0205117D01*
X0159323Y0205916D02*
X0161657Y0205916D01*
X0161657Y0206714D02*
X0159323Y0206714D01*
X0159147Y0207513D02*
X0161833Y0207513D01*
X0162164Y0208311D02*
X0158816Y0208311D01*
X0158321Y0209110D02*
X0162659Y0209110D01*
X0163457Y0209908D02*
X0157522Y0209908D01*
X0155953Y0210707D02*
X0165026Y0210707D01*
X0167764Y0210707D02*
X0176837Y0210707D01*
X0175268Y0209908D02*
X0169333Y0209908D01*
X0170132Y0209110D02*
X0174470Y0209110D01*
X0173975Y0208311D02*
X0170627Y0208311D01*
X0170958Y0207513D02*
X0173644Y0207513D01*
X0173468Y0206714D02*
X0171134Y0206714D01*
X0171134Y0205916D02*
X0173468Y0205916D01*
X0173503Y0205117D02*
X0171099Y0205117D01*
X0170768Y0204319D02*
X0173834Y0204319D01*
X0174165Y0203520D02*
X0170437Y0203520D01*
X0169674Y0202722D02*
X0174928Y0202722D01*
X0176016Y0201923D02*
X0168586Y0201923D01*
X0157822Y0200326D02*
X0151347Y0200326D01*
X0151363Y0200320D02*
X0149621Y0201041D01*
X0147736Y0201041D01*
X0145995Y0200320D01*
X0144662Y0198987D01*
X0143940Y0197245D01*
X0143940Y0195360D01*
X0144662Y0193618D01*
X0145995Y0192285D01*
X0147736Y0191564D01*
X0149621Y0191564D01*
X0151363Y0192285D01*
X0152696Y0193618D01*
X0153417Y0195360D01*
X0153417Y0197245D01*
X0152696Y0198987D01*
X0151363Y0200320D01*
X0152155Y0199528D02*
X0157014Y0199528D01*
X0156366Y0198729D02*
X0152803Y0198729D01*
X0153133Y0197931D02*
X0156035Y0197931D01*
X0155751Y0197132D02*
X0153417Y0197132D01*
X0153417Y0196334D02*
X0155751Y0196334D01*
X0155751Y0195535D02*
X0153417Y0195535D01*
X0153159Y0194737D02*
X0156009Y0194737D01*
X0156340Y0193938D02*
X0152828Y0193938D01*
X0152217Y0193140D02*
X0156951Y0193140D01*
X0157750Y0192341D02*
X0151419Y0192341D01*
X0145939Y0192341D02*
X0139608Y0192341D01*
X0139552Y0192285D02*
X0140885Y0193618D01*
X0141606Y0195360D01*
X0141606Y0197245D01*
X0140885Y0198987D01*
X0139552Y0200320D01*
X0137810Y0201041D01*
X0135925Y0201041D01*
X0134184Y0200320D01*
X0132851Y0198987D01*
X0132129Y0197245D01*
X0132129Y0195360D01*
X0132851Y0193618D01*
X0134184Y0192285D01*
X0135925Y0191564D01*
X0137810Y0191564D01*
X0139552Y0192285D01*
X0140406Y0193140D02*
X0145140Y0193140D01*
X0144529Y0193938D02*
X0141017Y0193938D01*
X0141348Y0194737D02*
X0144198Y0194737D01*
X0143940Y0195535D02*
X0141606Y0195535D01*
X0141606Y0196334D02*
X0143940Y0196334D01*
X0143940Y0197132D02*
X0141606Y0197132D01*
X0141322Y0197931D02*
X0144224Y0197931D01*
X0144555Y0198729D02*
X0140992Y0198729D01*
X0140344Y0199528D02*
X0145203Y0199528D01*
X0146011Y0200326D02*
X0139536Y0200326D01*
X0140089Y0202128D02*
X0138756Y0203461D01*
X0138035Y0205202D01*
X0138035Y0207088D01*
X0138756Y0208829D01*
X0140089Y0210162D01*
X0141831Y0210884D01*
X0143716Y0210884D01*
X0145458Y0210162D01*
X0146790Y0208829D01*
X0147512Y0207088D01*
X0147512Y0205202D01*
X0146790Y0203461D01*
X0145458Y0202128D01*
X0143716Y0201406D01*
X0141831Y0201406D01*
X0140089Y0202128D01*
X0140583Y0201923D02*
X0133153Y0201923D01*
X0133646Y0202128D02*
X0134979Y0203461D01*
X0135701Y0205202D01*
X0135701Y0207088D01*
X0134979Y0208829D01*
X0133646Y0210162D01*
X0131905Y0210884D01*
X0130020Y0210884D01*
X0128278Y0210162D01*
X0126945Y0208829D01*
X0126224Y0207088D01*
X0126224Y0205202D01*
X0126945Y0203461D01*
X0128278Y0202128D01*
X0130020Y0201406D01*
X0131905Y0201406D01*
X0133646Y0202128D01*
X0134240Y0202722D02*
X0139495Y0202722D01*
X0138731Y0203520D02*
X0135004Y0203520D01*
X0135335Y0204319D02*
X0138401Y0204319D01*
X0138070Y0205117D02*
X0135666Y0205117D01*
X0135701Y0205916D02*
X0138035Y0205916D01*
X0138035Y0206714D02*
X0135701Y0206714D01*
X0135525Y0207513D02*
X0138211Y0207513D01*
X0138542Y0208311D02*
X0135194Y0208311D01*
X0134699Y0209110D02*
X0139037Y0209110D01*
X0139835Y0209908D02*
X0133900Y0209908D01*
X0132331Y0210707D02*
X0141404Y0210707D01*
X0144142Y0210707D02*
X0153215Y0210707D01*
X0151646Y0209908D02*
X0145711Y0209908D01*
X0146510Y0209110D02*
X0150848Y0209110D01*
X0150353Y0208311D02*
X0147005Y0208311D01*
X0147336Y0207513D02*
X0150022Y0207513D01*
X0149846Y0206714D02*
X0147512Y0206714D01*
X0147512Y0205916D02*
X0149846Y0205916D01*
X0149881Y0205117D02*
X0147477Y0205117D01*
X0147146Y0204319D02*
X0150212Y0204319D01*
X0150542Y0203520D02*
X0146815Y0203520D01*
X0146052Y0202722D02*
X0151306Y0202722D01*
X0152394Y0201923D02*
X0144964Y0201923D01*
X0134200Y0200326D02*
X0127725Y0200326D01*
X0127741Y0200320D02*
X0125999Y0201041D01*
X0124114Y0201041D01*
X0122373Y0200320D01*
X0121040Y0198987D01*
X0120318Y0197245D01*
X0120318Y0195360D01*
X0121040Y0193618D01*
X0122373Y0192285D01*
X0124114Y0191564D01*
X0125999Y0191564D01*
X0127741Y0192285D01*
X0129074Y0193618D01*
X0129795Y0195360D01*
X0129795Y0197245D01*
X0129074Y0198987D01*
X0127741Y0200320D01*
X0128533Y0199528D02*
X0133392Y0199528D01*
X0132744Y0198729D02*
X0129181Y0198729D01*
X0129511Y0197931D02*
X0132413Y0197931D01*
X0132129Y0197132D02*
X0129795Y0197132D01*
X0129795Y0196334D02*
X0132129Y0196334D01*
X0132129Y0195535D02*
X0129795Y0195535D01*
X0129537Y0194737D02*
X0132387Y0194737D01*
X0132718Y0193938D02*
X0129206Y0193938D01*
X0128595Y0193140D02*
X0133329Y0193140D01*
X0134128Y0192341D02*
X0127797Y0192341D01*
X0122317Y0192341D02*
X0115986Y0192341D01*
X0116784Y0193140D02*
X0121518Y0193140D01*
X0120907Y0193938D02*
X0117395Y0193938D01*
X0117726Y0194737D02*
X0120576Y0194737D01*
X0120318Y0195535D02*
X0117984Y0195535D01*
X0117984Y0196334D02*
X0120318Y0196334D01*
X0120318Y0197132D02*
X0117984Y0197132D01*
X0117700Y0197931D02*
X0120602Y0197931D01*
X0120933Y0198729D02*
X0117370Y0198729D01*
X0116722Y0199528D02*
X0121581Y0199528D01*
X0122389Y0200326D02*
X0115914Y0200326D01*
X0116467Y0202128D02*
X0118209Y0201406D01*
X0120094Y0201406D01*
X0121835Y0202128D01*
X0123168Y0203461D01*
X0123890Y0205202D01*
X0123890Y0207088D01*
X0123168Y0208829D01*
X0121835Y0210162D01*
X0120094Y0210884D01*
X0118209Y0210884D01*
X0116467Y0210162D01*
X0115134Y0208829D01*
X0114413Y0207088D01*
X0114413Y0205202D01*
X0115134Y0203461D01*
X0116467Y0202128D01*
X0116961Y0201923D02*
X0109531Y0201923D01*
X0110618Y0202722D02*
X0115873Y0202722D01*
X0115109Y0203520D02*
X0111382Y0203520D01*
X0111713Y0204319D02*
X0114779Y0204319D01*
X0114448Y0205117D02*
X0112044Y0205117D01*
X0112079Y0205916D02*
X0114413Y0205916D01*
X0114413Y0206714D02*
X0112079Y0206714D01*
X0111903Y0207513D02*
X0114589Y0207513D01*
X0114920Y0208311D02*
X0111572Y0208311D01*
X0111077Y0209110D02*
X0115415Y0209110D01*
X0116213Y0209908D02*
X0110278Y0209908D01*
X0108709Y0210707D02*
X0117782Y0210707D01*
X0120520Y0210707D02*
X0129593Y0210707D01*
X0128024Y0209908D02*
X0122089Y0209908D01*
X0122888Y0209110D02*
X0127226Y0209110D01*
X0126731Y0208311D02*
X0123383Y0208311D01*
X0123714Y0207513D02*
X0126400Y0207513D01*
X0126224Y0206714D02*
X0123890Y0206714D01*
X0123890Y0205916D02*
X0126224Y0205916D01*
X0126259Y0205117D02*
X0123855Y0205117D01*
X0123524Y0204319D02*
X0126590Y0204319D01*
X0126920Y0203520D02*
X0123193Y0203520D01*
X0122429Y0202722D02*
X0127684Y0202722D01*
X0128772Y0201923D02*
X0121342Y0201923D01*
X0091835Y0184356D02*
X0175778Y0184356D01*
X0176577Y0183558D02*
X0091835Y0183558D01*
X0076057Y0186752D02*
X0067660Y0186752D01*
X0067660Y0185953D02*
X0075259Y0185953D01*
X0074735Y0185155D02*
X0068085Y0185155D01*
X0068085Y0184356D02*
X0074735Y0184356D01*
X0074735Y0183558D02*
X0068085Y0183558D01*
X0068085Y0182759D02*
X0074735Y0182759D01*
X0074735Y0181960D02*
X0068085Y0181960D01*
X0068085Y0181162D02*
X0074735Y0181162D01*
X0074735Y0180363D02*
X0068085Y0180363D01*
X0068085Y0179565D02*
X0074735Y0179565D01*
X0074735Y0178766D02*
X0068085Y0178766D01*
X0067660Y0177968D02*
X0075291Y0177968D01*
X0065785Y0177169D02*
X0060585Y0177169D01*
X0060585Y0176371D02*
X0065785Y0176371D01*
X0065785Y0175572D02*
X0060134Y0175572D01*
X0059335Y0174774D02*
X0065785Y0174774D01*
X0064041Y0177968D02*
X0060547Y0177968D01*
X0060585Y0178766D02*
X0063485Y0178766D01*
X0063485Y0179565D02*
X0060585Y0179565D01*
X0060585Y0180363D02*
X0063485Y0180363D01*
X0064009Y0185953D02*
X0054264Y0185953D01*
X0054960Y0186752D02*
X0064807Y0186752D01*
X0065785Y0187550D02*
X0054960Y0187550D01*
X0054960Y0188349D02*
X0065785Y0188349D01*
X0065785Y0189147D02*
X0054367Y0189147D01*
X0049935Y0263409D02*
X0140785Y0263409D01*
X0140785Y0264207D02*
X0049935Y0264207D01*
X0049935Y0265006D02*
X0140785Y0265006D01*
X0140785Y0265804D02*
X0049935Y0265804D01*
X0049935Y0266603D02*
X0140785Y0266603D01*
X0140785Y0267401D02*
X0049935Y0267401D01*
X0142660Y0267401D02*
X0223800Y0267401D01*
X0223800Y0266603D02*
X0142660Y0266603D01*
X0142660Y0265804D02*
X0223800Y0265804D01*
X0223800Y0265006D02*
X0142660Y0265006D01*
X0142660Y0264207D02*
X0223800Y0264207D01*
X0223800Y0263409D02*
X0142660Y0263409D01*
X0151171Y0233864D02*
X0157998Y0233864D01*
X0157806Y0233784D02*
X0156473Y0232451D01*
X0155751Y0230710D01*
X0155751Y0228824D01*
X0156473Y0227083D01*
X0157806Y0225750D01*
X0159547Y0225028D01*
X0161432Y0225028D01*
X0163174Y0225750D01*
X0164507Y0227083D01*
X0165228Y0228824D01*
X0165228Y0230710D01*
X0164507Y0232451D01*
X0163174Y0233784D01*
X0161432Y0234506D01*
X0159547Y0234506D01*
X0157806Y0233784D01*
X0157087Y0233065D02*
X0152082Y0233065D01*
X0152772Y0232267D02*
X0156396Y0232267D01*
X0156066Y0231468D02*
X0153103Y0231468D01*
X0153417Y0230670D02*
X0155751Y0230670D01*
X0155751Y0229871D02*
X0153417Y0229871D01*
X0153417Y0229073D02*
X0155751Y0229073D01*
X0155979Y0228274D02*
X0153189Y0228274D01*
X0152859Y0227476D02*
X0156310Y0227476D01*
X0156878Y0226677D02*
X0152290Y0226677D01*
X0151492Y0225879D02*
X0157677Y0225879D01*
X0159423Y0225080D02*
X0149746Y0225080D01*
X0156448Y0224282D02*
X0164532Y0224282D01*
X0163711Y0223942D02*
X0162378Y0222609D01*
X0161657Y0220867D01*
X0161657Y0218982D01*
X0162378Y0217240D01*
X0163711Y0215907D01*
X0165453Y0215186D01*
X0167338Y0215186D01*
X0169080Y0215907D01*
X0170413Y0217240D01*
X0171134Y0218982D01*
X0171134Y0220867D01*
X0170413Y0222609D01*
X0169080Y0223942D01*
X0167338Y0224663D01*
X0165453Y0224663D01*
X0163711Y0223942D01*
X0163253Y0223483D02*
X0157727Y0223483D01*
X0158526Y0222685D02*
X0162454Y0222685D01*
X0162079Y0221886D02*
X0158901Y0221886D01*
X0159232Y0221088D02*
X0161748Y0221088D01*
X0161657Y0220289D02*
X0159323Y0220289D01*
X0159323Y0219491D02*
X0161657Y0219491D01*
X0161777Y0218692D02*
X0159203Y0218692D01*
X0158872Y0217894D02*
X0162108Y0217894D01*
X0162523Y0217095D02*
X0158456Y0217095D01*
X0157658Y0216296D02*
X0163322Y0216296D01*
X0164699Y0215498D02*
X0156280Y0215498D01*
X0161557Y0225080D02*
X0171234Y0225080D01*
X0171358Y0225028D02*
X0173243Y0225028D01*
X0174985Y0225750D01*
X0176318Y0227083D01*
X0177039Y0228824D01*
X0177039Y0230710D01*
X0176318Y0232451D01*
X0174985Y0233784D01*
X0173243Y0234506D01*
X0171358Y0234506D01*
X0169617Y0233784D01*
X0168284Y0232451D01*
X0167562Y0230710D01*
X0167562Y0228824D01*
X0168284Y0227083D01*
X0169617Y0225750D01*
X0171358Y0225028D01*
X0173368Y0225080D02*
X0183045Y0225080D01*
X0183169Y0225028D02*
X0185054Y0225028D01*
X0186796Y0225750D01*
X0188129Y0227083D01*
X0188850Y0228824D01*
X0188850Y0230710D01*
X0188129Y0232451D01*
X0186796Y0233784D01*
X0185054Y0234506D01*
X0183169Y0234506D01*
X0181428Y0233784D01*
X0180095Y0232451D01*
X0179373Y0230710D01*
X0179373Y0228824D01*
X0180095Y0227083D01*
X0181428Y0225750D01*
X0183169Y0225028D01*
X0185179Y0225080D02*
X0197635Y0225080D01*
X0197635Y0224282D02*
X0180070Y0224282D01*
X0180891Y0223942D02*
X0179149Y0224663D01*
X0177264Y0224663D01*
X0175522Y0223942D01*
X0174189Y0222609D01*
X0173468Y0220867D01*
X0173468Y0218982D01*
X0174189Y0217240D01*
X0175522Y0215907D01*
X0177264Y0215186D01*
X0179149Y0215186D01*
X0180891Y0215907D01*
X0182224Y0217240D01*
X0182945Y0218982D01*
X0182945Y0220867D01*
X0182224Y0222609D01*
X0180891Y0223942D01*
X0181349Y0223483D02*
X0197635Y0223483D01*
X0197635Y0222685D02*
X0182148Y0222685D01*
X0182523Y0221886D02*
X0197635Y0221886D01*
X0197635Y0221088D02*
X0182854Y0221088D01*
X0182945Y0220289D02*
X0197635Y0220289D01*
X0197635Y0219491D02*
X0182945Y0219491D01*
X0182825Y0218692D02*
X0197635Y0218692D01*
X0197635Y0217894D02*
X0182494Y0217894D01*
X0182078Y0217095D02*
X0197635Y0217095D01*
X0197635Y0216296D02*
X0181280Y0216296D01*
X0179902Y0215498D02*
X0197635Y0215498D01*
X0201435Y0215498D02*
X0223800Y0215498D01*
X0223800Y0216296D02*
X0201435Y0216296D01*
X0201435Y0217095D02*
X0223800Y0217095D01*
X0223800Y0217894D02*
X0201435Y0217894D01*
X0201435Y0218692D02*
X0223800Y0218692D01*
X0223800Y0219491D02*
X0219052Y0219491D01*
X0218613Y0219052D02*
X0219960Y0220399D01*
X0219960Y0222304D01*
X0218613Y0223652D01*
X0216707Y0223652D01*
X0216410Y0223354D01*
X0216113Y0223652D01*
X0214207Y0223652D01*
X0212860Y0222304D01*
X0212860Y0220399D01*
X0214207Y0219052D01*
X0216113Y0219052D01*
X0216410Y0219349D01*
X0216707Y0219052D01*
X0218613Y0219052D01*
X0219850Y0220289D02*
X0223800Y0220289D01*
X0223800Y0221088D02*
X0219960Y0221088D01*
X0219960Y0221886D02*
X0223800Y0221886D01*
X0223800Y0222685D02*
X0219580Y0222685D01*
X0218781Y0223483D02*
X0223800Y0223483D01*
X0223800Y0224282D02*
X0201435Y0224282D01*
X0201435Y0225080D02*
X0223800Y0225080D01*
X0223800Y0225879D02*
X0201435Y0225879D01*
X0201435Y0226677D02*
X0223800Y0226677D01*
X0223800Y0227476D02*
X0201435Y0227476D01*
X0201435Y0228274D02*
X0223800Y0228274D01*
X0223800Y0229073D02*
X0201435Y0229073D01*
X0201435Y0229871D02*
X0223800Y0229871D01*
X0223800Y0230670D02*
X0201435Y0230670D01*
X0201435Y0231468D02*
X0223800Y0231468D01*
X0223800Y0232267D02*
X0201435Y0232267D01*
X0201435Y0233065D02*
X0223800Y0233065D01*
X0223800Y0233864D02*
X0200960Y0233864D01*
X0200162Y0234662D02*
X0223800Y0234662D01*
X0223800Y0235461D02*
X0199363Y0235461D01*
X0198565Y0236259D02*
X0223800Y0236259D01*
X0223800Y0237058D02*
X0197766Y0237058D01*
X0196967Y0237856D02*
X0223800Y0237856D01*
X0223800Y0238655D02*
X0196169Y0238655D01*
X0195370Y0239453D02*
X0223800Y0239453D01*
X0223800Y0240252D02*
X0194572Y0240252D01*
X0193773Y0241050D02*
X0223800Y0241050D01*
X0223800Y0241849D02*
X0192975Y0241849D01*
X0192176Y0242647D02*
X0223800Y0242647D01*
X0223800Y0243446D02*
X0191378Y0243446D01*
X0190579Y0244244D02*
X0223800Y0244244D01*
X0223800Y0245043D02*
X0189781Y0245043D01*
X0186604Y0233864D02*
X0195586Y0233864D01*
X0196385Y0233065D02*
X0187515Y0233065D01*
X0188205Y0232267D02*
X0197183Y0232267D01*
X0197635Y0231468D02*
X0188536Y0231468D01*
X0188850Y0230670D02*
X0197635Y0230670D01*
X0197635Y0229871D02*
X0188850Y0229871D01*
X0188850Y0229073D02*
X0197635Y0229073D01*
X0197635Y0228274D02*
X0188623Y0228274D01*
X0188292Y0227476D02*
X0197635Y0227476D01*
X0197635Y0226677D02*
X0187723Y0226677D01*
X0186925Y0225879D02*
X0197635Y0225879D01*
X0201435Y0223483D02*
X0214039Y0223483D01*
X0213240Y0222685D02*
X0201435Y0222685D01*
X0201435Y0221886D02*
X0212860Y0221886D01*
X0212860Y0221088D02*
X0201435Y0221088D01*
X0201435Y0220289D02*
X0212970Y0220289D01*
X0213769Y0219491D02*
X0201435Y0219491D01*
X0201435Y0214699D02*
X0223800Y0214699D01*
X0223800Y0213901D02*
X0201435Y0213901D01*
X0201435Y0213102D02*
X0223800Y0213102D01*
X0223800Y0212304D02*
X0201435Y0212304D01*
X0201435Y0211505D02*
X0223800Y0211505D01*
X0223800Y0210707D02*
X0201435Y0210707D01*
X0201435Y0209908D02*
X0223800Y0209908D01*
X0223800Y0209110D02*
X0201435Y0209110D01*
X0201435Y0208311D02*
X0223800Y0208311D01*
X0223800Y0207513D02*
X0201435Y0207513D01*
X0201435Y0206714D02*
X0223800Y0206714D01*
X0223800Y0205916D02*
X0201435Y0205916D01*
X0201435Y0205117D02*
X0223800Y0205117D01*
X0223800Y0204319D02*
X0201435Y0204319D01*
X0216281Y0223483D02*
X0216539Y0223483D01*
X0181299Y0225879D02*
X0175114Y0225879D01*
X0175912Y0226677D02*
X0180500Y0226677D01*
X0179932Y0227476D02*
X0176481Y0227476D01*
X0176812Y0228274D02*
X0179601Y0228274D01*
X0179373Y0229073D02*
X0177039Y0229073D01*
X0177039Y0229871D02*
X0179373Y0229871D01*
X0179373Y0230670D02*
X0177039Y0230670D01*
X0176725Y0231468D02*
X0179688Y0231468D01*
X0180018Y0232267D02*
X0176394Y0232267D01*
X0175704Y0233065D02*
X0180709Y0233065D01*
X0181620Y0233864D02*
X0174793Y0233864D01*
X0169809Y0233864D02*
X0162982Y0233864D01*
X0163893Y0233065D02*
X0168898Y0233065D01*
X0168207Y0232267D02*
X0164583Y0232267D01*
X0164914Y0231468D02*
X0167877Y0231468D01*
X0167562Y0230670D02*
X0165228Y0230670D01*
X0165228Y0229871D02*
X0167562Y0229871D01*
X0167562Y0229073D02*
X0165228Y0229073D01*
X0165000Y0228274D02*
X0167790Y0228274D01*
X0168121Y0227476D02*
X0164670Y0227476D01*
X0164101Y0226677D02*
X0168689Y0226677D01*
X0169488Y0225879D02*
X0163303Y0225879D01*
X0168259Y0224282D02*
X0176343Y0224282D01*
X0175064Y0223483D02*
X0169538Y0223483D01*
X0170337Y0222685D02*
X0174265Y0222685D01*
X0173890Y0221886D02*
X0170712Y0221886D01*
X0171043Y0221088D02*
X0173559Y0221088D01*
X0173468Y0220289D02*
X0171134Y0220289D01*
X0171134Y0219491D02*
X0173468Y0219491D01*
X0173588Y0218692D02*
X0171014Y0218692D01*
X0170683Y0217894D02*
X0173919Y0217894D01*
X0174335Y0217095D02*
X0170267Y0217095D01*
X0169469Y0216296D02*
X0175133Y0216296D01*
X0176510Y0215498D02*
X0168091Y0215498D01*
X0163632Y0146826D02*
X0159188Y0146826D01*
X0159335Y0146027D02*
X0163485Y0146027D01*
X0163485Y0145229D02*
X0159335Y0145229D01*
X0158992Y0144430D02*
X0163829Y0144430D01*
X0166943Y0143632D02*
X0169813Y0143632D01*
X0192499Y0140438D02*
X0194071Y0140438D01*
X0193485Y0141236D02*
X0193085Y0141236D01*
X0193085Y0142035D02*
X0193485Y0142035D01*
X0193485Y0142833D02*
X0193085Y0142833D01*
D14*
X0194535Y0195102D02*
X0196410Y0196352D01*
X0199535Y0199477D01*
X0199535Y0232602D01*
X0188285Y0243852D01*
X0137202Y0243852D01*
M02*
