G75*
%MOIN*%
%OFA0B0*%
%FSLAX25Y25*%
%IPPOS*%
%LPD*%
%AMOC8*
5,1,8,0,0,1.08239X$1,22.5*
%
%ADD10C,0.07677*%
%ADD11C,0.06000*%
%ADD12C,0.02800*%
%ADD13C,0.00800*%
%ADD14C,0.00600*%
D10*
X0093561Y0196302D03*
X0099466Y0206145D03*
X0105372Y0196302D03*
X0111277Y0206145D03*
X0117183Y0196302D03*
X0123088Y0206145D03*
X0128994Y0196302D03*
X0134899Y0206145D03*
X0140805Y0196302D03*
X0146710Y0206145D03*
X0152616Y0196302D03*
X0158521Y0206145D03*
X0164427Y0196302D03*
X0170332Y0206145D03*
X0176238Y0196302D03*
X0182143Y0206145D03*
X0188049Y0196302D03*
X0182143Y0219924D03*
X0176238Y0229767D03*
X0170332Y0219924D03*
X0164427Y0229767D03*
X0158521Y0219924D03*
X0152616Y0229767D03*
X0146710Y0219924D03*
X0140805Y0229767D03*
X0134899Y0219924D03*
X0128994Y0229767D03*
X0123088Y0219924D03*
X0117183Y0229767D03*
X0111277Y0219924D03*
X0105372Y0229767D03*
X0099466Y0219924D03*
X0093561Y0229767D03*
X0188049Y0229767D03*
D11*
X0133285Y0135102D03*
X0133285Y0125102D03*
X0123285Y0125102D03*
X0123285Y0135102D03*
X0123285Y0115102D03*
X0133285Y0115102D03*
X0133285Y0105102D03*
X0133285Y0095102D03*
X0123285Y0095102D03*
X0123285Y0105102D03*
X0123285Y0085102D03*
X0133285Y0085102D03*
D12*
X0140160Y0077602D03*
X0147035Y0073227D03*
X0147035Y0082602D03*
X0160785Y0076977D03*
X0161410Y0081977D03*
X0163285Y0085102D03*
X0161410Y0088227D03*
X0163285Y0091352D03*
X0158910Y0096977D03*
X0158910Y0100727D03*
X0169535Y0110727D03*
X0172035Y0108227D03*
X0180785Y0113227D03*
X0183285Y0115727D03*
X0180785Y0118227D03*
X0175785Y0119477D03*
X0170785Y0119477D03*
X0162660Y0119477D03*
X0156410Y0121977D03*
X0156410Y0125727D03*
X0149535Y0130727D03*
X0152660Y0137602D03*
X0153910Y0140727D03*
X0156410Y0136977D03*
X0158910Y0144477D03*
X0158910Y0146977D03*
X0163910Y0150102D03*
X0168285Y0151977D03*
X0169535Y0146977D03*
X0168910Y0139477D03*
X0165160Y0138227D03*
X0178285Y0138852D03*
X0182660Y0134477D03*
X0188910Y0130727D03*
X0198285Y0141977D03*
X0203285Y0141977D03*
X0203285Y0144477D03*
X0207660Y0132602D03*
X0198910Y0115102D03*
X0182035Y0100102D03*
X0182035Y0096352D03*
X0182035Y0092602D03*
X0169535Y0083852D03*
X0167660Y0080727D03*
X0170785Y0078227D03*
X0167660Y0069477D03*
X0171410Y0068227D03*
X0177660Y0068852D03*
X0181410Y0068852D03*
X0187035Y0069477D03*
X0198285Y0070102D03*
X0203285Y0069477D03*
X0207660Y0072602D03*
X0217660Y0063852D03*
X0226410Y0065727D03*
X0230785Y0064477D03*
X0222035Y0083227D03*
X0210160Y0084477D03*
X0210160Y0088227D03*
X0210160Y0091977D03*
X0208910Y0056352D03*
X0205160Y0056352D03*
X0182660Y0056352D03*
X0177035Y0056352D03*
X0162035Y0056352D03*
X0155785Y0057602D03*
X0139535Y0058852D03*
X0130785Y0059477D03*
X0128285Y0059477D03*
X0128285Y0056977D03*
X0130785Y0056977D03*
X0113285Y0076352D03*
X0113285Y0078852D03*
X0113285Y0081352D03*
X0110785Y0081352D03*
X0110785Y0078852D03*
X0110785Y0076352D03*
X0107035Y0078227D03*
X0096410Y0085102D03*
X0092660Y0084477D03*
X0088910Y0085102D03*
X0081410Y0085102D03*
X0077035Y0081352D03*
X0075160Y0076977D03*
X0080160Y0075102D03*
X0080160Y0071977D03*
X0083910Y0071977D03*
X0083910Y0075102D03*
X0075785Y0089477D03*
X0075785Y0095102D03*
X0072660Y0101977D03*
X0066410Y0101977D03*
X0063910Y0095727D03*
X0063910Y0090727D03*
X0053910Y0101977D03*
X0051410Y0093852D03*
X0052035Y0088852D03*
X0051410Y0070727D03*
X0055160Y0070727D03*
X0058910Y0070727D03*
X0065160Y0059477D03*
X0067660Y0059477D03*
X0070160Y0059477D03*
X0070160Y0056352D03*
X0067660Y0056352D03*
X0065160Y0056352D03*
X0092035Y0057602D03*
X0094535Y0057602D03*
X0117035Y0091977D03*
X0115785Y0106977D03*
X0117660Y0110102D03*
X0113910Y0111977D03*
X0104535Y0116977D03*
X0100785Y0116977D03*
X0099535Y0113227D03*
X0098285Y0109477D03*
X0094535Y0115102D03*
X0087035Y0121352D03*
X0084535Y0123852D03*
X0081410Y0125727D03*
X0076410Y0122602D03*
X0078910Y0132602D03*
X0076410Y0135102D03*
X0071410Y0132602D03*
X0068910Y0130102D03*
X0068285Y0136977D03*
X0067660Y0140727D03*
X0078910Y0144477D03*
X0075785Y0154477D03*
X0072660Y0159477D03*
X0068910Y0159477D03*
X0065160Y0159477D03*
X0062660Y0155102D03*
X0057035Y0153852D03*
X0055160Y0164477D03*
X0058285Y0176977D03*
X0058285Y0179477D03*
X0065785Y0179477D03*
X0065785Y0181977D03*
X0065785Y0184477D03*
X0064535Y0193227D03*
X0064535Y0195727D03*
X0051410Y0201352D03*
X0055785Y0213852D03*
X0058285Y0213852D03*
X0052660Y0187602D03*
X0077035Y0184477D03*
X0077035Y0181977D03*
X0077035Y0179477D03*
X0089535Y0179477D03*
X0089535Y0181977D03*
X0089535Y0184477D03*
X0103910Y0178852D03*
X0103910Y0176352D03*
X0107660Y0186977D03*
X0118285Y0170727D03*
X0116410Y0160102D03*
X0116410Y0157602D03*
X0111410Y0152602D03*
X0106410Y0150727D03*
X0102035Y0155102D03*
X0098285Y0160727D03*
X0102035Y0161977D03*
X0088910Y0164477D03*
X0085160Y0159477D03*
X0076410Y0164477D03*
X0091410Y0140102D03*
X0091410Y0127602D03*
X0091410Y0124477D03*
X0103910Y0129477D03*
X0106410Y0133852D03*
X0106410Y0138227D03*
X0114535Y0142602D03*
X0117660Y0130727D03*
X0115160Y0124477D03*
X0126410Y0143227D03*
X0138285Y0154477D03*
X0138285Y0156977D03*
X0143910Y0158852D03*
X0143910Y0161352D03*
X0143910Y0153852D03*
X0148910Y0144477D03*
X0147660Y0138852D03*
X0143910Y0138852D03*
X0139535Y0142602D03*
X0127035Y0157602D03*
X0127035Y0160102D03*
X0127035Y0162602D03*
X0133285Y0169477D03*
X0133285Y0171977D03*
X0137660Y0171352D03*
X0140785Y0173227D03*
X0148910Y0170727D03*
X0154223Y0175102D03*
X0166410Y0186977D03*
X0170785Y0173227D03*
X0176410Y0167602D03*
X0181410Y0167602D03*
X0181410Y0162602D03*
X0176410Y0162602D03*
X0185785Y0150727D03*
X0188285Y0155102D03*
X0190785Y0151977D03*
X0190785Y0175727D03*
X0185160Y0186352D03*
X0199535Y0201352D03*
X0201410Y0202602D03*
X0198285Y0207602D03*
X0196410Y0206352D03*
X0202660Y0195727D03*
X0204535Y0196977D03*
X0210785Y0197602D03*
X0210785Y0195102D03*
X0210785Y0192602D03*
X0210785Y0190102D03*
X0216410Y0190102D03*
X0218910Y0190102D03*
X0222660Y0221352D03*
X0225160Y0221352D03*
X0223285Y0156352D03*
X0159535Y0158852D03*
X0138285Y0120102D03*
X0146410Y0107602D03*
X0142035Y0098852D03*
X0092035Y0098227D03*
X0088285Y0098227D03*
X0088285Y0101977D03*
X0084535Y0098227D03*
X0088285Y0094477D03*
X0055160Y0121352D03*
X0052660Y0133227D03*
D13*
X0049935Y0092074D02*
X0049935Y0054252D01*
X0064007Y0054252D01*
X0062860Y0055399D01*
X0062860Y0057304D01*
X0063470Y0057914D01*
X0062860Y0058524D01*
X0062860Y0060429D01*
X0064207Y0061777D01*
X0066113Y0061777D01*
X0066410Y0061479D01*
X0066707Y0061777D01*
X0068613Y0061777D01*
X0068910Y0061479D01*
X0069207Y0061777D01*
X0071113Y0061777D01*
X0072460Y0060429D01*
X0072460Y0058524D01*
X0071850Y0057914D01*
X0072460Y0057304D01*
X0072460Y0055399D01*
X0071313Y0054252D01*
X0160882Y0054252D01*
X0159735Y0055399D01*
X0159735Y0057304D01*
X0161082Y0058652D01*
X0162988Y0058652D01*
X0164335Y0057304D01*
X0164335Y0055399D01*
X0163188Y0054252D01*
X0204007Y0054252D01*
X0202860Y0055399D01*
X0202860Y0057304D01*
X0204207Y0058652D01*
X0206113Y0058652D01*
X0207035Y0057729D01*
X0207957Y0058652D01*
X0209863Y0058652D01*
X0211210Y0057304D01*
X0211210Y0055399D01*
X0210063Y0054252D01*
X0231674Y0054252D01*
X0231674Y0267487D01*
X0049935Y0267487D01*
X0049935Y0203129D01*
X0050457Y0203652D01*
X0052363Y0203652D01*
X0053710Y0202304D01*
X0053710Y0200399D01*
X0052363Y0199052D01*
X0050457Y0199052D01*
X0049935Y0199574D01*
X0049935Y0095629D01*
X0050457Y0096152D01*
X0052363Y0096152D01*
X0053710Y0094804D01*
X0053710Y0092899D01*
X0052363Y0091552D01*
X0050457Y0091552D01*
X0049935Y0092074D01*
X0049935Y0091729D02*
X0050280Y0091729D01*
X0049935Y0090930D02*
X0073986Y0090930D01*
X0073485Y0090429D02*
X0073485Y0088524D01*
X0074832Y0087177D01*
X0076738Y0087177D01*
X0078085Y0088524D01*
X0078085Y0090429D01*
X0076738Y0091777D01*
X0074832Y0091777D01*
X0073485Y0090429D01*
X0073485Y0090132D02*
X0049935Y0090132D01*
X0049935Y0089333D02*
X0073485Y0089333D01*
X0073485Y0088535D02*
X0049935Y0088535D01*
X0049935Y0087736D02*
X0074273Y0087736D01*
X0077297Y0087736D02*
X0120404Y0087736D01*
X0119979Y0087311D02*
X0119385Y0085877D01*
X0119385Y0084326D01*
X0119979Y0082892D01*
X0121076Y0081795D01*
X0122509Y0081202D01*
X0124061Y0081202D01*
X0125494Y0081795D01*
X0126591Y0082892D01*
X0127185Y0084326D01*
X0127185Y0085877D01*
X0126591Y0087311D01*
X0125494Y0088408D01*
X0124061Y0089002D01*
X0122509Y0089002D01*
X0121076Y0088408D01*
X0119979Y0087311D01*
X0119824Y0086938D02*
X0097827Y0086938D01*
X0097363Y0087402D02*
X0098710Y0086054D01*
X0098710Y0084149D01*
X0097363Y0082802D01*
X0095457Y0082802D01*
X0094848Y0083411D01*
X0093613Y0082177D01*
X0091707Y0082177D01*
X0090473Y0083411D01*
X0089863Y0082802D01*
X0087957Y0082802D01*
X0086610Y0084149D01*
X0086610Y0086054D01*
X0087957Y0087402D01*
X0089863Y0087402D01*
X0091098Y0086167D01*
X0091707Y0086777D01*
X0093613Y0086777D01*
X0094223Y0086167D01*
X0095457Y0087402D01*
X0097363Y0087402D01*
X0098625Y0086139D02*
X0119494Y0086139D01*
X0119385Y0085341D02*
X0098710Y0085341D01*
X0098710Y0084542D02*
X0119385Y0084542D01*
X0119626Y0083744D02*
X0098305Y0083744D01*
X0097506Y0082945D02*
X0109126Y0082945D01*
X0108485Y0082304D02*
X0108485Y0080399D01*
X0108782Y0080102D01*
X0108485Y0079804D01*
X0108485Y0077899D01*
X0108782Y0077602D01*
X0108485Y0077304D01*
X0108485Y0075399D01*
X0109832Y0074052D01*
X0111738Y0074052D01*
X0112035Y0074349D01*
X0112332Y0074052D01*
X0114238Y0074052D01*
X0115585Y0075399D01*
X0115585Y0077304D01*
X0115288Y0077602D01*
X0115585Y0077899D01*
X0115585Y0079804D01*
X0115288Y0080102D01*
X0115585Y0080399D01*
X0115585Y0082304D01*
X0114238Y0083652D01*
X0112332Y0083652D01*
X0112035Y0083354D01*
X0111738Y0083652D01*
X0109832Y0083652D01*
X0108485Y0082304D01*
X0108485Y0082147D02*
X0049935Y0082147D01*
X0049935Y0082945D02*
X0080314Y0082945D01*
X0080457Y0082802D02*
X0079110Y0084149D01*
X0079110Y0086054D01*
X0080457Y0087402D01*
X0082363Y0087402D01*
X0083710Y0086054D01*
X0083710Y0084149D01*
X0082363Y0082802D01*
X0080457Y0082802D01*
X0079515Y0083744D02*
X0049935Y0083744D01*
X0049935Y0084542D02*
X0079110Y0084542D01*
X0079110Y0085341D02*
X0049935Y0085341D01*
X0049935Y0086139D02*
X0079195Y0086139D01*
X0079993Y0086938D02*
X0049935Y0086938D01*
X0052540Y0091729D02*
X0074784Y0091729D01*
X0074832Y0092802D02*
X0076738Y0092802D01*
X0078085Y0094149D01*
X0078085Y0096054D01*
X0076738Y0097402D01*
X0074832Y0097402D01*
X0073485Y0096054D01*
X0073485Y0094149D01*
X0074832Y0092802D01*
X0074308Y0093326D02*
X0053710Y0093326D01*
X0053710Y0094124D02*
X0073510Y0094124D01*
X0073485Y0094923D02*
X0053592Y0094923D01*
X0052793Y0095721D02*
X0073485Y0095721D01*
X0073951Y0096520D02*
X0049935Y0096520D01*
X0049935Y0097318D02*
X0074749Y0097318D01*
X0076821Y0097318D02*
X0119986Y0097318D01*
X0119979Y0097311D02*
X0119385Y0095877D01*
X0119385Y0094326D01*
X0119979Y0092892D01*
X0121076Y0091795D01*
X0122509Y0091202D01*
X0124061Y0091202D01*
X0125494Y0091795D01*
X0126591Y0092892D01*
X0127185Y0094326D01*
X0127185Y0095877D01*
X0126591Y0097311D01*
X0125494Y0098408D01*
X0124061Y0099002D01*
X0122509Y0099002D01*
X0121076Y0098408D01*
X0119979Y0097311D01*
X0119651Y0096520D02*
X0077620Y0096520D01*
X0078085Y0095721D02*
X0119385Y0095721D01*
X0119385Y0094923D02*
X0078085Y0094923D01*
X0078060Y0094124D02*
X0119469Y0094124D01*
X0119799Y0093326D02*
X0077262Y0093326D01*
X0076786Y0091729D02*
X0121237Y0091729D01*
X0120344Y0092527D02*
X0053338Y0092527D01*
X0050027Y0095721D02*
X0049935Y0095721D01*
X0049935Y0098117D02*
X0120785Y0098117D01*
X0122301Y0098915D02*
X0049935Y0098915D01*
X0049935Y0099714D02*
X0071670Y0099714D01*
X0071707Y0099677D02*
X0073613Y0099677D01*
X0074960Y0101024D01*
X0074960Y0102929D01*
X0073613Y0104277D01*
X0071707Y0104277D01*
X0070360Y0102929D01*
X0070360Y0101024D01*
X0071707Y0099677D01*
X0070872Y0100512D02*
X0049935Y0100512D01*
X0049935Y0101311D02*
X0070360Y0101311D01*
X0070360Y0102109D02*
X0049935Y0102109D01*
X0049935Y0102908D02*
X0070360Y0102908D01*
X0071137Y0103706D02*
X0049935Y0103706D01*
X0049935Y0104505D02*
X0119385Y0104505D01*
X0119385Y0104326D02*
X0119979Y0102892D01*
X0121076Y0101795D01*
X0122509Y0101202D01*
X0124061Y0101202D01*
X0125494Y0101795D01*
X0126591Y0102892D01*
X0127185Y0104326D01*
X0127185Y0105877D01*
X0126591Y0107311D01*
X0125494Y0108408D01*
X0124061Y0109002D01*
X0122509Y0109002D01*
X0121076Y0108408D01*
X0119979Y0107311D01*
X0119385Y0105877D01*
X0119385Y0104326D01*
X0119642Y0103706D02*
X0074183Y0103706D01*
X0074960Y0102908D02*
X0119972Y0102908D01*
X0120762Y0102109D02*
X0074960Y0102109D01*
X0074960Y0101311D02*
X0122246Y0101311D01*
X0124324Y0101311D02*
X0132246Y0101311D01*
X0132509Y0101202D02*
X0134061Y0101202D01*
X0135494Y0101795D01*
X0136591Y0102892D01*
X0137185Y0104326D01*
X0137185Y0105877D01*
X0136591Y0107311D01*
X0135494Y0108408D01*
X0134061Y0109002D01*
X0132509Y0109002D01*
X0131076Y0108408D01*
X0129979Y0107311D01*
X0129385Y0105877D01*
X0129385Y0104326D01*
X0129979Y0102892D01*
X0131076Y0101795D01*
X0132509Y0101202D01*
X0134324Y0101311D02*
X0156610Y0101311D01*
X0156610Y0101679D02*
X0156610Y0099774D01*
X0157957Y0098427D01*
X0159863Y0098427D01*
X0161210Y0099774D01*
X0161210Y0101679D01*
X0159863Y0103027D01*
X0157957Y0103027D01*
X0156610Y0101679D01*
X0157040Y0102109D02*
X0135808Y0102109D01*
X0136598Y0102908D02*
X0157839Y0102908D01*
X0159982Y0102908D02*
X0231674Y0102908D01*
X0231674Y0103706D02*
X0136928Y0103706D01*
X0137185Y0104505D02*
X0231674Y0104505D01*
X0231674Y0105303D02*
X0147365Y0105303D01*
X0147363Y0105302D02*
X0148710Y0106649D01*
X0148710Y0108554D01*
X0147610Y0109654D01*
X0147610Y0129399D01*
X0148582Y0128427D01*
X0150488Y0128427D01*
X0151835Y0129774D01*
X0151835Y0131679D01*
X0150488Y0133027D01*
X0148582Y0133027D01*
X0147610Y0132054D01*
X0147610Y0136552D01*
X0148613Y0136552D01*
X0149960Y0137899D01*
X0149960Y0139804D01*
X0148613Y0141152D01*
X0146707Y0141152D01*
X0145785Y0140229D01*
X0144863Y0141152D01*
X0142957Y0141152D01*
X0141610Y0139804D01*
X0141610Y0137899D01*
X0142957Y0136552D01*
X0144863Y0136552D01*
X0145210Y0136899D01*
X0145210Y0109654D01*
X0144110Y0108554D01*
X0144110Y0106649D01*
X0145457Y0105302D01*
X0147363Y0105302D01*
X0148163Y0106102D02*
X0170907Y0106102D01*
X0171082Y0105927D02*
X0172988Y0105927D01*
X0174335Y0107274D01*
X0174335Y0109179D01*
X0172988Y0110527D01*
X0171835Y0110527D01*
X0171835Y0111679D01*
X0170488Y0113027D01*
X0168582Y0113027D01*
X0167235Y0111679D01*
X0167235Y0109774D01*
X0168582Y0108427D01*
X0169735Y0108427D01*
X0169735Y0107274D01*
X0171082Y0105927D01*
X0170109Y0106900D02*
X0148710Y0106900D01*
X0148710Y0107699D02*
X0169735Y0107699D01*
X0168512Y0108497D02*
X0148710Y0108497D01*
X0147968Y0109296D02*
X0167713Y0109296D01*
X0167235Y0110094D02*
X0147610Y0110094D01*
X0147610Y0110893D02*
X0167235Y0110893D01*
X0167247Y0111691D02*
X0147610Y0111691D01*
X0147610Y0112490D02*
X0168046Y0112490D01*
X0171024Y0112490D02*
X0178485Y0112490D01*
X0178485Y0112274D02*
X0179832Y0110927D01*
X0181738Y0110927D01*
X0183085Y0112274D01*
X0183085Y0113427D01*
X0184238Y0113427D01*
X0185585Y0114774D01*
X0185585Y0116679D01*
X0184485Y0117779D01*
X0184485Y0119974D01*
X0180735Y0123724D01*
X0180735Y0145855D01*
X0183899Y0149018D01*
X0189173Y0150337D01*
X0189832Y0149677D01*
X0191738Y0149677D01*
X0193085Y0151024D01*
X0193085Y0152929D01*
X0191738Y0154277D01*
X0190585Y0154277D01*
X0190585Y0156054D01*
X0189238Y0157402D01*
X0187332Y0157402D01*
X0185985Y0156054D01*
X0185985Y0154877D01*
X0180385Y0150677D01*
X0180288Y0150677D01*
X0179997Y0150385D01*
X0179667Y0150138D01*
X0179654Y0150042D01*
X0177085Y0147474D01*
X0177085Y0121429D01*
X0176738Y0121777D01*
X0174832Y0121777D01*
X0173485Y0120429D01*
X0173485Y0118524D01*
X0174832Y0117177D01*
X0176738Y0117177D01*
X0177085Y0117524D01*
X0177085Y0115502D01*
X0177027Y0115424D01*
X0177085Y0115016D01*
X0177085Y0114605D01*
X0177154Y0114536D01*
X0177167Y0114440D01*
X0177497Y0114193D01*
X0177788Y0113902D01*
X0177885Y0113902D01*
X0178485Y0113452D01*
X0178485Y0112274D01*
X0179068Y0111691D02*
X0171823Y0111691D01*
X0171835Y0110893D02*
X0231674Y0110893D01*
X0231674Y0111691D02*
X0182503Y0111691D01*
X0183085Y0112490D02*
X0231674Y0112490D01*
X0231674Y0113289D02*
X0200350Y0113289D01*
X0199863Y0112802D02*
X0201210Y0114149D01*
X0201210Y0116054D01*
X0199863Y0117402D01*
X0197957Y0117402D01*
X0196610Y0116054D01*
X0196610Y0114149D01*
X0197957Y0112802D01*
X0199863Y0112802D01*
X0201148Y0114087D02*
X0231674Y0114087D01*
X0231674Y0114886D02*
X0201210Y0114886D01*
X0201210Y0115684D02*
X0231674Y0115684D01*
X0231674Y0116483D02*
X0200782Y0116483D01*
X0199983Y0117281D02*
X0231674Y0117281D01*
X0231674Y0118080D02*
X0184485Y0118080D01*
X0184485Y0118878D02*
X0231674Y0118878D01*
X0231674Y0119677D02*
X0184485Y0119677D01*
X0183984Y0120475D02*
X0231674Y0120475D01*
X0231674Y0121274D02*
X0183185Y0121274D01*
X0182387Y0122072D02*
X0231674Y0122072D01*
X0231674Y0122871D02*
X0181588Y0122871D01*
X0180790Y0123669D02*
X0231674Y0123669D01*
X0231674Y0124468D02*
X0180735Y0124468D01*
X0180735Y0125266D02*
X0231674Y0125266D01*
X0231674Y0126065D02*
X0180735Y0126065D01*
X0180735Y0126863D02*
X0231674Y0126863D01*
X0231674Y0127662D02*
X0180735Y0127662D01*
X0180735Y0128460D02*
X0187924Y0128460D01*
X0187957Y0128427D02*
X0189863Y0128427D01*
X0191210Y0129774D01*
X0191210Y0131679D01*
X0189863Y0133027D01*
X0187957Y0133027D01*
X0186610Y0131679D01*
X0186610Y0129774D01*
X0187957Y0128427D01*
X0187125Y0129259D02*
X0180735Y0129259D01*
X0180735Y0130057D02*
X0186610Y0130057D01*
X0186610Y0130856D02*
X0180735Y0130856D01*
X0180735Y0131654D02*
X0186610Y0131654D01*
X0187384Y0132453D02*
X0180735Y0132453D01*
X0180735Y0133251D02*
X0205360Y0133251D01*
X0205360Y0133554D02*
X0205360Y0131649D01*
X0206707Y0130302D01*
X0208613Y0130302D01*
X0209960Y0131649D01*
X0209960Y0133554D01*
X0208613Y0134902D01*
X0206707Y0134902D01*
X0205360Y0133554D01*
X0205856Y0134050D02*
X0180735Y0134050D01*
X0180735Y0134848D02*
X0206654Y0134848D01*
X0208666Y0134848D02*
X0231674Y0134848D01*
X0231674Y0134050D02*
X0209465Y0134050D01*
X0209960Y0133251D02*
X0231674Y0133251D01*
X0231674Y0132453D02*
X0209960Y0132453D01*
X0209960Y0131654D02*
X0231674Y0131654D01*
X0231674Y0130856D02*
X0209167Y0130856D01*
X0206153Y0130856D02*
X0191210Y0130856D01*
X0191210Y0131654D02*
X0205360Y0131654D01*
X0205360Y0132453D02*
X0190437Y0132453D01*
X0191210Y0130057D02*
X0231674Y0130057D01*
X0231674Y0129259D02*
X0190695Y0129259D01*
X0189896Y0128460D02*
X0231674Y0128460D01*
X0231674Y0135647D02*
X0180735Y0135647D01*
X0180735Y0136445D02*
X0231674Y0136445D01*
X0231674Y0137244D02*
X0180735Y0137244D01*
X0180735Y0138042D02*
X0231674Y0138042D01*
X0231674Y0138841D02*
X0180735Y0138841D01*
X0180735Y0139639D02*
X0231674Y0139639D01*
X0231674Y0140438D02*
X0199999Y0140438D01*
X0200585Y0141024D02*
X0199238Y0139677D01*
X0197332Y0139677D01*
X0195985Y0141024D01*
X0195985Y0142929D01*
X0197332Y0144277D01*
X0199238Y0144277D01*
X0200585Y0142929D01*
X0200585Y0141024D01*
X0200585Y0141236D02*
X0231674Y0141236D01*
X0231674Y0142035D02*
X0200585Y0142035D01*
X0200585Y0142833D02*
X0231674Y0142833D01*
X0231674Y0143632D02*
X0199883Y0143632D01*
X0196688Y0143632D02*
X0180735Y0143632D01*
X0180735Y0144430D02*
X0231674Y0144430D01*
X0231674Y0145229D02*
X0180735Y0145229D01*
X0180908Y0146027D02*
X0231674Y0146027D01*
X0231674Y0146826D02*
X0181706Y0146826D01*
X0182505Y0147625D02*
X0231674Y0147625D01*
X0231674Y0148423D02*
X0183304Y0148423D01*
X0184712Y0149222D02*
X0231674Y0149222D01*
X0231674Y0150020D02*
X0192081Y0150020D01*
X0192880Y0150819D02*
X0231674Y0150819D01*
X0231674Y0151617D02*
X0193085Y0151617D01*
X0193085Y0152416D02*
X0231674Y0152416D01*
X0231674Y0153214D02*
X0192800Y0153214D01*
X0192002Y0154013D02*
X0231674Y0154013D01*
X0231674Y0154811D02*
X0224997Y0154811D01*
X0225585Y0155399D02*
X0224238Y0154052D01*
X0222332Y0154052D01*
X0220985Y0155399D01*
X0220985Y0157304D01*
X0222332Y0158652D01*
X0224238Y0158652D01*
X0225585Y0157304D01*
X0225585Y0155399D01*
X0225585Y0155610D02*
X0231674Y0155610D01*
X0231674Y0156408D02*
X0225585Y0156408D01*
X0225585Y0157207D02*
X0231674Y0157207D01*
X0231674Y0158005D02*
X0224884Y0158005D01*
X0221686Y0158005D02*
X0074441Y0158005D01*
X0074960Y0158524D02*
X0074960Y0160429D01*
X0073613Y0161777D01*
X0071707Y0161777D01*
X0070785Y0160854D01*
X0069863Y0161777D01*
X0067957Y0161777D01*
X0067035Y0160854D01*
X0066113Y0161777D01*
X0064207Y0161777D01*
X0062860Y0160429D01*
X0062860Y0158524D01*
X0064207Y0157177D01*
X0066113Y0157177D01*
X0067035Y0158099D01*
X0067957Y0157177D01*
X0069863Y0157177D01*
X0070785Y0158099D01*
X0071707Y0157177D01*
X0073613Y0157177D01*
X0074960Y0158524D01*
X0074960Y0158804D02*
X0096955Y0158804D01*
X0097332Y0158427D02*
X0099238Y0158427D01*
X0100585Y0159774D01*
X0100585Y0160174D01*
X0101082Y0159677D01*
X0102988Y0159677D01*
X0104335Y0161024D01*
X0104335Y0162929D01*
X0102988Y0164277D01*
X0101082Y0164277D01*
X0099735Y0162929D01*
X0099735Y0162529D01*
X0099238Y0163027D01*
X0097332Y0163027D01*
X0095985Y0161679D01*
X0095985Y0159774D01*
X0097332Y0158427D01*
X0096157Y0159602D02*
X0074960Y0159602D01*
X0074960Y0160401D02*
X0095985Y0160401D01*
X0095985Y0161199D02*
X0074190Y0161199D01*
X0075457Y0162177D02*
X0077363Y0162177D01*
X0078710Y0163524D01*
X0078710Y0165429D01*
X0077363Y0166777D01*
X0075457Y0166777D01*
X0074110Y0165429D01*
X0074110Y0163524D01*
X0075457Y0162177D01*
X0074838Y0162796D02*
X0056732Y0162796D01*
X0056113Y0162177D02*
X0057460Y0163524D01*
X0057460Y0165429D01*
X0056113Y0166777D01*
X0054207Y0166777D01*
X0052860Y0165429D01*
X0052860Y0163524D01*
X0054207Y0162177D01*
X0056113Y0162177D01*
X0057460Y0163595D02*
X0074110Y0163595D01*
X0074110Y0164393D02*
X0057460Y0164393D01*
X0057460Y0165192D02*
X0074110Y0165192D01*
X0074671Y0165990D02*
X0056899Y0165990D01*
X0053421Y0165990D02*
X0049935Y0165990D01*
X0049935Y0165192D02*
X0052860Y0165192D01*
X0052860Y0164393D02*
X0049935Y0164393D01*
X0049935Y0163595D02*
X0052860Y0163595D01*
X0053588Y0162796D02*
X0049935Y0162796D01*
X0049935Y0161998D02*
X0096303Y0161998D01*
X0097102Y0162796D02*
X0090482Y0162796D01*
X0089863Y0162177D02*
X0091210Y0163524D01*
X0091210Y0165429D01*
X0089863Y0166777D01*
X0087957Y0166777D01*
X0086610Y0165429D01*
X0086610Y0163524D01*
X0087957Y0162177D01*
X0089863Y0162177D01*
X0091210Y0163595D02*
X0100401Y0163595D01*
X0099735Y0162796D02*
X0099468Y0162796D01*
X0100413Y0159602D02*
X0231674Y0159602D01*
X0231674Y0158804D02*
X0099615Y0158804D01*
X0103712Y0160401D02*
X0231674Y0160401D01*
X0231674Y0161199D02*
X0104335Y0161199D01*
X0104335Y0161998D02*
X0231674Y0161998D01*
X0231674Y0162796D02*
X0104335Y0162796D01*
X0103670Y0163595D02*
X0231674Y0163595D01*
X0231674Y0164393D02*
X0091210Y0164393D01*
X0091210Y0165192D02*
X0231674Y0165192D01*
X0231674Y0165990D02*
X0090649Y0165990D01*
X0087171Y0165990D02*
X0078149Y0165990D01*
X0078710Y0165192D02*
X0086610Y0165192D01*
X0086610Y0164393D02*
X0078710Y0164393D01*
X0078710Y0163595D02*
X0086610Y0163595D01*
X0087338Y0162796D02*
X0077982Y0162796D01*
X0076738Y0156777D02*
X0074832Y0156777D01*
X0073485Y0155429D01*
X0073485Y0153524D01*
X0074832Y0152177D01*
X0076738Y0152177D01*
X0078085Y0153524D01*
X0078085Y0155429D01*
X0076738Y0156777D01*
X0077106Y0156408D02*
X0186339Y0156408D01*
X0185985Y0155610D02*
X0077905Y0155610D01*
X0078085Y0154811D02*
X0110367Y0154811D01*
X0110457Y0154902D02*
X0109110Y0153554D01*
X0109110Y0151649D01*
X0110457Y0150302D01*
X0112363Y0150302D01*
X0113710Y0151649D01*
X0113710Y0153554D01*
X0112363Y0154902D01*
X0110457Y0154902D01*
X0109568Y0154013D02*
X0078085Y0154013D01*
X0077775Y0153214D02*
X0109110Y0153214D01*
X0109110Y0152416D02*
X0107974Y0152416D01*
X0107363Y0153027D02*
X0105457Y0153027D01*
X0104110Y0151679D01*
X0104110Y0149774D01*
X0105457Y0148427D01*
X0107363Y0148427D01*
X0108710Y0149774D01*
X0108710Y0151679D01*
X0107363Y0153027D01*
X0108710Y0151617D02*
X0109142Y0151617D01*
X0108710Y0150819D02*
X0109941Y0150819D01*
X0108710Y0150020D02*
X0161610Y0150020D01*
X0161610Y0149222D02*
X0159918Y0149222D01*
X0159863Y0149277D02*
X0157957Y0149277D01*
X0156610Y0147929D01*
X0156610Y0146024D01*
X0156907Y0145727D01*
X0156610Y0145429D01*
X0156610Y0143524D01*
X0157957Y0142177D01*
X0159863Y0142177D01*
X0161210Y0143524D01*
X0161210Y0145429D01*
X0160913Y0145727D01*
X0161210Y0146024D01*
X0161210Y0147929D01*
X0159863Y0149277D01*
X0160716Y0148423D02*
X0162336Y0148423D01*
X0162957Y0147802D02*
X0164863Y0147802D01*
X0166210Y0149149D01*
X0166210Y0151054D01*
X0164863Y0152402D01*
X0162957Y0152402D01*
X0161610Y0151054D01*
X0161610Y0149149D01*
X0162957Y0147802D01*
X0161210Y0147625D02*
X0167235Y0147625D01*
X0167235Y0147929D02*
X0167235Y0146024D01*
X0168582Y0144677D01*
X0170488Y0144677D01*
X0171835Y0146024D01*
X0171835Y0147929D01*
X0170488Y0149277D01*
X0168582Y0149277D01*
X0167235Y0147929D01*
X0167729Y0148423D02*
X0165484Y0148423D01*
X0166210Y0149222D02*
X0168527Y0149222D01*
X0170543Y0149222D02*
X0178833Y0149222D01*
X0179631Y0150020D02*
X0166210Y0150020D01*
X0166210Y0150819D02*
X0180574Y0150819D01*
X0181639Y0151617D02*
X0165647Y0151617D01*
X0162173Y0151617D02*
X0113678Y0151617D01*
X0113710Y0152416D02*
X0182704Y0152416D01*
X0183768Y0153214D02*
X0113710Y0153214D01*
X0113252Y0154013D02*
X0184833Y0154013D01*
X0185898Y0154811D02*
X0112453Y0154811D01*
X0112880Y0150819D02*
X0161610Y0150819D01*
X0161210Y0146826D02*
X0167235Y0146826D01*
X0167235Y0146027D02*
X0161210Y0146027D01*
X0161210Y0145229D02*
X0168030Y0145229D01*
X0167957Y0141777D02*
X0166610Y0140429D01*
X0166610Y0140029D01*
X0166113Y0140527D01*
X0164207Y0140527D01*
X0162860Y0139179D01*
X0162860Y0137274D01*
X0164207Y0135927D01*
X0166113Y0135927D01*
X0167460Y0137274D01*
X0167460Y0137674D01*
X0167957Y0137177D01*
X0169863Y0137177D01*
X0171210Y0138524D01*
X0171210Y0140429D01*
X0169863Y0141777D01*
X0167957Y0141777D01*
X0167417Y0141236D02*
X0156210Y0141236D01*
X0156210Y0141679D02*
X0154863Y0143027D01*
X0152957Y0143027D01*
X0151610Y0141679D01*
X0151610Y0139804D01*
X0150360Y0138554D01*
X0150360Y0136649D01*
X0151707Y0135302D01*
X0153613Y0135302D01*
X0154960Y0136649D01*
X0154960Y0138524D01*
X0156210Y0139774D01*
X0156210Y0141679D01*
X0155855Y0142035D02*
X0177085Y0142035D01*
X0177085Y0142833D02*
X0160520Y0142833D01*
X0161210Y0143632D02*
X0177085Y0143632D01*
X0177085Y0144430D02*
X0161210Y0144430D01*
X0157301Y0142833D02*
X0155056Y0142833D01*
X0156610Y0143632D02*
X0151210Y0143632D01*
X0151210Y0143524D02*
X0149863Y0142177D01*
X0147957Y0142177D01*
X0146610Y0143524D01*
X0146610Y0145429D01*
X0147957Y0146777D01*
X0149863Y0146777D01*
X0151210Y0145429D01*
X0151210Y0143524D01*
X0151210Y0144430D02*
X0156610Y0144430D01*
X0156610Y0145229D02*
X0151210Y0145229D01*
X0150612Y0146027D02*
X0156610Y0146027D01*
X0156610Y0146826D02*
X0049935Y0146826D01*
X0049935Y0147625D02*
X0156610Y0147625D01*
X0157104Y0148423D02*
X0049935Y0148423D01*
X0049935Y0149222D02*
X0104663Y0149222D01*
X0104110Y0150020D02*
X0049935Y0150020D01*
X0049935Y0150819D02*
X0104110Y0150819D01*
X0104110Y0151617D02*
X0058053Y0151617D01*
X0057988Y0151552D02*
X0059335Y0152899D01*
X0059335Y0154804D01*
X0057988Y0156152D01*
X0056082Y0156152D01*
X0054735Y0154804D01*
X0054735Y0152899D01*
X0056082Y0151552D01*
X0057988Y0151552D01*
X0058852Y0152416D02*
X0074594Y0152416D01*
X0073795Y0153214D02*
X0059335Y0153214D01*
X0059335Y0154013D02*
X0073485Y0154013D01*
X0073485Y0154811D02*
X0059328Y0154811D01*
X0058530Y0155610D02*
X0073665Y0155610D01*
X0074464Y0156408D02*
X0049935Y0156408D01*
X0049935Y0155610D02*
X0055540Y0155610D01*
X0054742Y0154811D02*
X0049935Y0154811D01*
X0049935Y0154013D02*
X0054735Y0154013D01*
X0054735Y0153214D02*
X0049935Y0153214D01*
X0049935Y0152416D02*
X0055219Y0152416D01*
X0056017Y0151617D02*
X0049935Y0151617D01*
X0049935Y0146027D02*
X0147208Y0146027D01*
X0146610Y0145229D02*
X0127660Y0145229D01*
X0127363Y0145527D02*
X0125457Y0145527D01*
X0124110Y0144179D01*
X0124110Y0142274D01*
X0125457Y0140927D01*
X0127363Y0140927D01*
X0128710Y0142274D01*
X0128710Y0144179D01*
X0127363Y0145527D01*
X0128459Y0144430D02*
X0138111Y0144430D01*
X0138582Y0144902D02*
X0137235Y0143554D01*
X0137235Y0141649D01*
X0138582Y0140302D01*
X0140488Y0140302D01*
X0141835Y0141649D01*
X0141835Y0143554D01*
X0140488Y0144902D01*
X0138582Y0144902D01*
X0137313Y0143632D02*
X0128710Y0143632D01*
X0128710Y0142833D02*
X0137235Y0142833D01*
X0137235Y0142035D02*
X0128471Y0142035D01*
X0127673Y0141236D02*
X0137648Y0141236D01*
X0138446Y0140438D02*
X0115624Y0140438D01*
X0115488Y0140302D02*
X0116835Y0141649D01*
X0116835Y0143554D01*
X0115488Y0144902D01*
X0113582Y0144902D01*
X0112235Y0143554D01*
X0112235Y0141649D01*
X0113582Y0140302D01*
X0115488Y0140302D01*
X0116423Y0141236D02*
X0125148Y0141236D01*
X0124349Y0142035D02*
X0116835Y0142035D01*
X0116835Y0142833D02*
X0124110Y0142833D01*
X0124110Y0143632D02*
X0116758Y0143632D01*
X0115959Y0144430D02*
X0124361Y0144430D01*
X0125160Y0145229D02*
X0049935Y0145229D01*
X0049935Y0144430D02*
X0113111Y0144430D01*
X0112313Y0143632D02*
X0049935Y0143632D01*
X0049935Y0142833D02*
X0066514Y0142833D01*
X0066707Y0143027D02*
X0065360Y0141679D01*
X0065360Y0139774D01*
X0066595Y0138539D01*
X0065985Y0137929D01*
X0065985Y0136024D01*
X0067332Y0134677D01*
X0069238Y0134677D01*
X0070585Y0136024D01*
X0070585Y0137929D01*
X0069350Y0139164D01*
X0069960Y0139774D01*
X0069960Y0141679D01*
X0068613Y0143027D01*
X0066707Y0143027D01*
X0065716Y0142035D02*
X0049935Y0142035D01*
X0049935Y0141236D02*
X0065360Y0141236D01*
X0065360Y0140438D02*
X0049935Y0140438D01*
X0049935Y0139639D02*
X0065495Y0139639D01*
X0066293Y0138841D02*
X0049935Y0138841D01*
X0049935Y0138042D02*
X0066098Y0138042D01*
X0065985Y0137244D02*
X0049935Y0137244D01*
X0049935Y0136445D02*
X0065985Y0136445D01*
X0066362Y0135647D02*
X0049935Y0135647D01*
X0049935Y0134848D02*
X0067161Y0134848D01*
X0069409Y0134848D02*
X0070404Y0134848D01*
X0070457Y0134902D02*
X0069110Y0133554D01*
X0069110Y0132402D01*
X0067957Y0132402D01*
X0066610Y0131054D01*
X0066610Y0129149D01*
X0067957Y0127802D01*
X0069863Y0127802D01*
X0071210Y0129149D01*
X0071210Y0130302D01*
X0072363Y0130302D01*
X0073710Y0131649D01*
X0073710Y0133554D01*
X0072363Y0134902D01*
X0070457Y0134902D01*
X0070208Y0135647D02*
X0074110Y0135647D01*
X0074110Y0136054D02*
X0074110Y0134149D01*
X0075457Y0132802D01*
X0076610Y0132802D01*
X0076610Y0131649D01*
X0077957Y0130302D01*
X0079863Y0130302D01*
X0081210Y0131649D01*
X0081210Y0133554D01*
X0079863Y0134902D01*
X0078710Y0134902D01*
X0078710Y0136054D01*
X0077363Y0137402D01*
X0075457Y0137402D01*
X0074110Y0136054D01*
X0074501Y0136445D02*
X0070585Y0136445D01*
X0070585Y0137244D02*
X0075300Y0137244D01*
X0077521Y0137244D02*
X0119951Y0137244D01*
X0119979Y0137311D02*
X0119385Y0135877D01*
X0119385Y0134326D01*
X0119979Y0132892D01*
X0121076Y0131795D01*
X0122509Y0131202D01*
X0124061Y0131202D01*
X0125494Y0131795D01*
X0126591Y0132892D01*
X0127185Y0134326D01*
X0127185Y0135877D01*
X0126591Y0137311D01*
X0125494Y0138408D01*
X0124061Y0139002D01*
X0122509Y0139002D01*
X0121076Y0138408D01*
X0119979Y0137311D01*
X0119620Y0136445D02*
X0078319Y0136445D01*
X0078710Y0135647D02*
X0119385Y0135647D01*
X0119385Y0134848D02*
X0079916Y0134848D01*
X0080715Y0134050D02*
X0119499Y0134050D01*
X0119830Y0133251D02*
X0081210Y0133251D01*
X0081210Y0132453D02*
X0116134Y0132453D01*
X0116707Y0133027D02*
X0115360Y0131679D01*
X0115360Y0129774D01*
X0116707Y0128427D01*
X0118613Y0128427D01*
X0119960Y0129774D01*
X0119960Y0131679D01*
X0118613Y0133027D01*
X0116707Y0133027D01*
X0115360Y0131654D02*
X0104985Y0131654D01*
X0104863Y0131777D02*
X0102957Y0131777D01*
X0101610Y0130429D01*
X0101610Y0128524D01*
X0102957Y0127177D01*
X0104863Y0127177D01*
X0106210Y0128524D01*
X0106210Y0130429D01*
X0104863Y0131777D01*
X0105784Y0130856D02*
X0115360Y0130856D01*
X0115360Y0130057D02*
X0106210Y0130057D01*
X0106210Y0129259D02*
X0115875Y0129259D01*
X0116674Y0128460D02*
X0106146Y0128460D01*
X0105348Y0127662D02*
X0120330Y0127662D01*
X0119979Y0127311D02*
X0121076Y0128408D01*
X0122509Y0129002D01*
X0124061Y0129002D01*
X0125494Y0128408D01*
X0126591Y0127311D01*
X0127185Y0125877D01*
X0127185Y0124326D01*
X0126591Y0122892D01*
X0125494Y0121795D01*
X0124061Y0121202D01*
X0122509Y0121202D01*
X0121076Y0121795D01*
X0119979Y0122892D01*
X0119385Y0124326D01*
X0119385Y0125877D01*
X0119979Y0127311D01*
X0119793Y0126863D02*
X0093710Y0126863D01*
X0093710Y0126649D02*
X0093100Y0126039D01*
X0093710Y0125429D01*
X0093710Y0123524D01*
X0092363Y0122177D01*
X0090457Y0122177D01*
X0089110Y0123524D01*
X0089110Y0125429D01*
X0089720Y0126039D01*
X0089110Y0126649D01*
X0089110Y0128554D01*
X0090457Y0129902D01*
X0092363Y0129902D01*
X0093710Y0128554D01*
X0093710Y0126649D01*
X0093126Y0126065D02*
X0119463Y0126065D01*
X0119385Y0125266D02*
X0093710Y0125266D01*
X0093710Y0124468D02*
X0119385Y0124468D01*
X0119657Y0123669D02*
X0093710Y0123669D01*
X0093057Y0122871D02*
X0120001Y0122871D01*
X0120799Y0122072D02*
X0089335Y0122072D01*
X0089335Y0122304D02*
X0089335Y0120399D01*
X0087988Y0119052D01*
X0086082Y0119052D01*
X0084735Y0120399D01*
X0084735Y0121552D01*
X0083582Y0121552D01*
X0082235Y0122899D01*
X0082235Y0123427D01*
X0080457Y0123427D01*
X0079110Y0124774D01*
X0079110Y0126679D01*
X0080457Y0128027D01*
X0082363Y0128027D01*
X0083710Y0126679D01*
X0083710Y0126152D01*
X0085488Y0126152D01*
X0086835Y0124804D01*
X0086835Y0123652D01*
X0087988Y0123652D01*
X0089335Y0122304D01*
X0089763Y0122871D02*
X0088769Y0122871D01*
X0089110Y0123669D02*
X0086835Y0123669D01*
X0086835Y0124468D02*
X0089110Y0124468D01*
X0089110Y0125266D02*
X0086373Y0125266D01*
X0085575Y0126065D02*
X0089694Y0126065D01*
X0089110Y0126863D02*
X0083526Y0126863D01*
X0082728Y0127662D02*
X0089110Y0127662D01*
X0089110Y0128460D02*
X0070521Y0128460D01*
X0071210Y0129259D02*
X0089815Y0129259D01*
X0093006Y0129259D02*
X0101610Y0129259D01*
X0101610Y0130057D02*
X0071210Y0130057D01*
X0072917Y0130856D02*
X0077403Y0130856D01*
X0076610Y0131654D02*
X0073710Y0131654D01*
X0073710Y0132453D02*
X0076610Y0132453D01*
X0075008Y0133251D02*
X0073710Y0133251D01*
X0073215Y0134050D02*
X0074209Y0134050D01*
X0074110Y0134848D02*
X0072416Y0134848D01*
X0069606Y0134050D02*
X0049935Y0134050D01*
X0049935Y0133251D02*
X0069110Y0133251D01*
X0069110Y0132453D02*
X0049935Y0132453D01*
X0049935Y0131654D02*
X0067210Y0131654D01*
X0066610Y0130856D02*
X0049935Y0130856D01*
X0049935Y0130057D02*
X0066610Y0130057D01*
X0066610Y0129259D02*
X0049935Y0129259D01*
X0049935Y0128460D02*
X0067299Y0128460D01*
X0074110Y0123554D02*
X0074110Y0121649D01*
X0075457Y0120302D01*
X0077363Y0120302D01*
X0078710Y0121649D01*
X0078710Y0123554D01*
X0077363Y0124902D01*
X0075457Y0124902D01*
X0074110Y0123554D01*
X0074225Y0123669D02*
X0049935Y0123669D01*
X0049935Y0122871D02*
X0053426Y0122871D01*
X0052860Y0122304D02*
X0052860Y0120399D01*
X0054207Y0119052D01*
X0056113Y0119052D01*
X0057460Y0120399D01*
X0057460Y0122304D01*
X0056113Y0123652D01*
X0054207Y0123652D01*
X0052860Y0122304D01*
X0052860Y0122072D02*
X0049935Y0122072D01*
X0049935Y0121274D02*
X0052860Y0121274D01*
X0052860Y0120475D02*
X0049935Y0120475D01*
X0049935Y0119677D02*
X0053582Y0119677D01*
X0049935Y0118878D02*
X0099434Y0118878D01*
X0099832Y0119277D02*
X0098485Y0117929D01*
X0098485Y0116024D01*
X0098982Y0115527D01*
X0098582Y0115527D01*
X0097235Y0114179D01*
X0097235Y0112274D01*
X0097732Y0111777D01*
X0097332Y0111777D01*
X0095985Y0110429D01*
X0095985Y0108524D01*
X0097332Y0107177D01*
X0099238Y0107177D01*
X0100585Y0108524D01*
X0100585Y0110429D01*
X0100088Y0110927D01*
X0100488Y0110927D01*
X0101835Y0112274D01*
X0101835Y0114179D01*
X0101338Y0114677D01*
X0101738Y0114677D01*
X0103085Y0116024D01*
X0103085Y0117929D01*
X0101738Y0119277D01*
X0099832Y0119277D01*
X0098635Y0118080D02*
X0049935Y0118080D01*
X0049935Y0117281D02*
X0093462Y0117281D01*
X0093582Y0117402D02*
X0092235Y0116054D01*
X0092235Y0114149D01*
X0093582Y0112802D01*
X0095488Y0112802D01*
X0096835Y0114149D01*
X0096835Y0116054D01*
X0095488Y0117402D01*
X0093582Y0117402D01*
X0092663Y0116483D02*
X0049935Y0116483D01*
X0049935Y0115684D02*
X0092235Y0115684D01*
X0092235Y0114886D02*
X0049935Y0114886D01*
X0049935Y0114087D02*
X0092297Y0114087D01*
X0093096Y0113289D02*
X0049935Y0113289D01*
X0049935Y0112490D02*
X0097235Y0112490D01*
X0097235Y0113289D02*
X0095975Y0113289D01*
X0096773Y0114087D02*
X0097235Y0114087D01*
X0096835Y0114886D02*
X0097941Y0114886D01*
X0098825Y0115684D02*
X0096835Y0115684D01*
X0096407Y0116483D02*
X0098485Y0116483D01*
X0098485Y0117281D02*
X0095608Y0117281D01*
X0097247Y0111691D02*
X0049935Y0111691D01*
X0049935Y0110893D02*
X0096449Y0110893D01*
X0095985Y0110094D02*
X0049935Y0110094D01*
X0049935Y0109296D02*
X0095985Y0109296D01*
X0096012Y0108497D02*
X0049935Y0108497D01*
X0049935Y0107699D02*
X0096810Y0107699D01*
X0099760Y0107699D02*
X0120367Y0107699D01*
X0119809Y0106900D02*
X0049935Y0106900D01*
X0049935Y0106102D02*
X0119478Y0106102D01*
X0119385Y0105303D02*
X0049935Y0105303D01*
X0056738Y0119677D02*
X0085457Y0119677D01*
X0084735Y0120475D02*
X0077536Y0120475D01*
X0078335Y0121274D02*
X0084735Y0121274D01*
X0083062Y0122072D02*
X0078710Y0122072D01*
X0078710Y0122871D02*
X0082263Y0122871D01*
X0080215Y0123669D02*
X0078595Y0123669D01*
X0077797Y0124468D02*
X0079416Y0124468D01*
X0079110Y0125266D02*
X0049935Y0125266D01*
X0049935Y0124468D02*
X0075023Y0124468D01*
X0074110Y0122871D02*
X0056894Y0122871D01*
X0057460Y0122072D02*
X0074110Y0122072D01*
X0074485Y0121274D02*
X0057460Y0121274D01*
X0057460Y0120475D02*
X0075284Y0120475D01*
X0079110Y0126065D02*
X0049935Y0126065D01*
X0049935Y0126863D02*
X0079294Y0126863D01*
X0080093Y0127662D02*
X0049935Y0127662D01*
X0069674Y0138841D02*
X0089418Y0138841D01*
X0089110Y0139149D02*
X0090457Y0137802D01*
X0092363Y0137802D01*
X0093710Y0139149D01*
X0093710Y0141054D01*
X0092363Y0142402D01*
X0090457Y0142402D01*
X0089110Y0141054D01*
X0089110Y0139149D01*
X0089110Y0139639D02*
X0069826Y0139639D01*
X0069960Y0140438D02*
X0089110Y0140438D01*
X0089292Y0141236D02*
X0069960Y0141236D01*
X0069605Y0142035D02*
X0090091Y0142035D01*
X0092730Y0142035D02*
X0112235Y0142035D01*
X0112235Y0142833D02*
X0068806Y0142833D01*
X0070472Y0138042D02*
X0090217Y0138042D01*
X0092604Y0138042D02*
X0120710Y0138042D01*
X0122121Y0138841D02*
X0093402Y0138841D01*
X0093710Y0139639D02*
X0141610Y0139639D01*
X0141610Y0138841D02*
X0124449Y0138841D01*
X0125860Y0138042D02*
X0141610Y0138042D01*
X0142265Y0137244D02*
X0126619Y0137244D01*
X0126950Y0136445D02*
X0145210Y0136445D01*
X0145210Y0135647D02*
X0127185Y0135647D01*
X0127185Y0134848D02*
X0145210Y0134848D01*
X0145210Y0134050D02*
X0127071Y0134050D01*
X0126740Y0133251D02*
X0145210Y0133251D01*
X0145210Y0132453D02*
X0126152Y0132453D01*
X0125154Y0131654D02*
X0145210Y0131654D01*
X0145210Y0130856D02*
X0119960Y0130856D01*
X0119960Y0131654D02*
X0121417Y0131654D01*
X0120419Y0132453D02*
X0119187Y0132453D01*
X0119960Y0130057D02*
X0145210Y0130057D01*
X0145210Y0129259D02*
X0119445Y0129259D01*
X0118646Y0128460D02*
X0121202Y0128460D01*
X0125368Y0128460D02*
X0131202Y0128460D01*
X0131076Y0128408D02*
X0129979Y0127311D01*
X0129385Y0125877D01*
X0129385Y0124326D01*
X0129979Y0122892D01*
X0131076Y0121795D01*
X0132509Y0121202D01*
X0134061Y0121202D01*
X0135494Y0121795D01*
X0136591Y0122892D01*
X0137185Y0124326D01*
X0137185Y0125877D01*
X0136591Y0127311D01*
X0135494Y0128408D01*
X0134061Y0129002D01*
X0132509Y0129002D01*
X0131076Y0128408D01*
X0130330Y0127662D02*
X0126240Y0127662D01*
X0126777Y0126863D02*
X0129793Y0126863D01*
X0129463Y0126065D02*
X0127108Y0126065D01*
X0127185Y0125266D02*
X0129385Y0125266D01*
X0129385Y0124468D02*
X0127185Y0124468D01*
X0126913Y0123669D02*
X0129657Y0123669D01*
X0130001Y0122871D02*
X0126570Y0122871D01*
X0125771Y0122072D02*
X0130799Y0122072D01*
X0132336Y0121274D02*
X0124235Y0121274D01*
X0122336Y0121274D02*
X0089335Y0121274D01*
X0089335Y0120475D02*
X0145210Y0120475D01*
X0145210Y0119677D02*
X0088613Y0119677D01*
X0093710Y0127662D02*
X0102472Y0127662D01*
X0101674Y0128460D02*
X0093710Y0128460D01*
X0102037Y0130856D02*
X0080417Y0130856D01*
X0081210Y0131654D02*
X0102835Y0131654D01*
X0093710Y0140438D02*
X0113446Y0140438D01*
X0112648Y0141236D02*
X0093528Y0141236D01*
X0104846Y0152416D02*
X0076977Y0152416D01*
X0073643Y0157207D02*
X0187137Y0157207D01*
X0189433Y0157207D02*
X0220985Y0157207D01*
X0220985Y0156408D02*
X0190231Y0156408D01*
X0190585Y0155610D02*
X0220985Y0155610D01*
X0221573Y0154811D02*
X0190585Y0154811D01*
X0189489Y0150020D02*
X0187906Y0150020D01*
X0180735Y0142833D02*
X0195985Y0142833D01*
X0195985Y0142035D02*
X0180735Y0142035D01*
X0180735Y0141236D02*
X0195985Y0141236D01*
X0196571Y0140438D02*
X0180735Y0140438D01*
X0177085Y0140438D02*
X0171202Y0140438D01*
X0171210Y0139639D02*
X0177085Y0139639D01*
X0177085Y0138841D02*
X0171210Y0138841D01*
X0170729Y0138042D02*
X0177085Y0138042D01*
X0177085Y0137244D02*
X0169930Y0137244D01*
X0167890Y0137244D02*
X0167430Y0137244D01*
X0166631Y0136445D02*
X0177085Y0136445D01*
X0177085Y0135647D02*
X0153958Y0135647D01*
X0154756Y0136445D02*
X0163689Y0136445D01*
X0162890Y0137244D02*
X0154960Y0137244D01*
X0154960Y0138042D02*
X0162860Y0138042D01*
X0162860Y0138841D02*
X0155277Y0138841D01*
X0156076Y0139639D02*
X0163320Y0139639D01*
X0164119Y0140438D02*
X0156210Y0140438D01*
X0152764Y0142833D02*
X0150520Y0142833D01*
X0151966Y0142035D02*
X0141835Y0142035D01*
X0141835Y0142833D02*
X0147301Y0142833D01*
X0146610Y0143632D02*
X0141758Y0143632D01*
X0140959Y0144430D02*
X0146610Y0144430D01*
X0145994Y0140438D02*
X0145577Y0140438D01*
X0142244Y0140438D02*
X0140624Y0140438D01*
X0141423Y0141236D02*
X0151610Y0141236D01*
X0151610Y0140438D02*
X0149327Y0140438D01*
X0149960Y0139639D02*
X0151445Y0139639D01*
X0150647Y0138841D02*
X0149960Y0138841D01*
X0149960Y0138042D02*
X0150360Y0138042D01*
X0150360Y0137244D02*
X0149305Y0137244D01*
X0150564Y0136445D02*
X0147610Y0136445D01*
X0147610Y0135647D02*
X0151362Y0135647D01*
X0151062Y0132453D02*
X0177085Y0132453D01*
X0177085Y0133251D02*
X0147610Y0133251D01*
X0147610Y0132453D02*
X0148009Y0132453D01*
X0147610Y0134050D02*
X0177085Y0134050D01*
X0177085Y0134848D02*
X0147610Y0134848D01*
X0151835Y0131654D02*
X0177085Y0131654D01*
X0177085Y0130856D02*
X0151835Y0130856D01*
X0151835Y0130057D02*
X0177085Y0130057D01*
X0177085Y0129259D02*
X0151320Y0129259D01*
X0150521Y0128460D02*
X0177085Y0128460D01*
X0177085Y0127662D02*
X0157728Y0127662D01*
X0157363Y0128027D02*
X0155457Y0128027D01*
X0154110Y0126679D01*
X0154110Y0124774D01*
X0155032Y0123852D01*
X0154110Y0122929D01*
X0154110Y0121024D01*
X0155457Y0119677D01*
X0157363Y0119677D01*
X0158710Y0121024D01*
X0158710Y0122929D01*
X0157788Y0123852D01*
X0158710Y0124774D01*
X0158710Y0126679D01*
X0157363Y0128027D01*
X0158526Y0126863D02*
X0177085Y0126863D01*
X0177085Y0126065D02*
X0158710Y0126065D01*
X0158710Y0125266D02*
X0177085Y0125266D01*
X0177085Y0124468D02*
X0158404Y0124468D01*
X0157970Y0123669D02*
X0177085Y0123669D01*
X0177085Y0122871D02*
X0158710Y0122871D01*
X0158710Y0122072D02*
X0177085Y0122072D01*
X0174329Y0121274D02*
X0172241Y0121274D01*
X0171738Y0121777D02*
X0169832Y0121777D01*
X0168485Y0120429D01*
X0168485Y0118524D01*
X0169832Y0117177D01*
X0171738Y0117177D01*
X0173085Y0118524D01*
X0173085Y0120429D01*
X0171738Y0121777D01*
X0173039Y0120475D02*
X0173531Y0120475D01*
X0173485Y0119677D02*
X0173085Y0119677D01*
X0173085Y0118878D02*
X0173485Y0118878D01*
X0173930Y0118080D02*
X0172641Y0118080D01*
X0171842Y0117281D02*
X0174728Y0117281D01*
X0176842Y0117281D02*
X0177085Y0117281D01*
X0177085Y0116483D02*
X0147610Y0116483D01*
X0147610Y0117281D02*
X0169728Y0117281D01*
X0168930Y0118080D02*
X0147610Y0118080D01*
X0147610Y0118878D02*
X0168485Y0118878D01*
X0168485Y0119677D02*
X0147610Y0119677D01*
X0147610Y0120475D02*
X0154659Y0120475D01*
X0154110Y0121274D02*
X0147610Y0121274D01*
X0147610Y0122072D02*
X0154110Y0122072D01*
X0154110Y0122871D02*
X0147610Y0122871D01*
X0147610Y0123669D02*
X0154850Y0123669D01*
X0154416Y0124468D02*
X0147610Y0124468D01*
X0147610Y0125266D02*
X0154110Y0125266D01*
X0154110Y0126065D02*
X0147610Y0126065D01*
X0147610Y0126863D02*
X0154294Y0126863D01*
X0155093Y0127662D02*
X0147610Y0127662D01*
X0147610Y0128460D02*
X0148549Y0128460D01*
X0147750Y0129259D02*
X0147610Y0129259D01*
X0145210Y0128460D02*
X0135368Y0128460D01*
X0136240Y0127662D02*
X0145210Y0127662D01*
X0145210Y0126863D02*
X0136777Y0126863D01*
X0137108Y0126065D02*
X0145210Y0126065D01*
X0145210Y0125266D02*
X0137185Y0125266D01*
X0137185Y0124468D02*
X0145210Y0124468D01*
X0145210Y0123669D02*
X0136913Y0123669D01*
X0136570Y0122871D02*
X0145210Y0122871D01*
X0145210Y0122072D02*
X0135771Y0122072D01*
X0134235Y0121274D02*
X0145210Y0121274D01*
X0145210Y0118878D02*
X0134359Y0118878D01*
X0134061Y0119002D02*
X0132509Y0119002D01*
X0131076Y0118408D01*
X0129979Y0117311D01*
X0129385Y0115877D01*
X0129385Y0114326D01*
X0129979Y0112892D01*
X0131076Y0111795D01*
X0132509Y0111202D01*
X0134061Y0111202D01*
X0135494Y0111795D01*
X0136591Y0112892D01*
X0137185Y0114326D01*
X0137185Y0115877D01*
X0136591Y0117311D01*
X0135494Y0118408D01*
X0134061Y0119002D01*
X0132211Y0118878D02*
X0124359Y0118878D01*
X0124061Y0119002D02*
X0125494Y0118408D01*
X0126591Y0117311D01*
X0127185Y0115877D01*
X0127185Y0114326D01*
X0126591Y0112892D01*
X0125494Y0111795D01*
X0124061Y0111202D01*
X0122509Y0111202D01*
X0121076Y0111795D01*
X0119979Y0112892D01*
X0119385Y0114326D01*
X0119385Y0115877D01*
X0119979Y0117311D01*
X0121076Y0118408D01*
X0122509Y0119002D01*
X0124061Y0119002D01*
X0122211Y0118878D02*
X0102136Y0118878D01*
X0102935Y0118080D02*
X0120748Y0118080D01*
X0119967Y0117281D02*
X0103085Y0117281D01*
X0103085Y0116483D02*
X0119636Y0116483D01*
X0119385Y0115684D02*
X0102745Y0115684D01*
X0101947Y0114886D02*
X0119385Y0114886D01*
X0119484Y0114087D02*
X0101835Y0114087D01*
X0101835Y0113289D02*
X0119815Y0113289D01*
X0120381Y0112490D02*
X0101835Y0112490D01*
X0101253Y0111691D02*
X0115997Y0111691D01*
X0115360Y0111054D02*
X0116707Y0112402D01*
X0118613Y0112402D01*
X0119960Y0111054D01*
X0119960Y0109149D01*
X0118613Y0107802D01*
X0116707Y0107802D01*
X0115360Y0109149D01*
X0115360Y0111054D01*
X0115360Y0110893D02*
X0100121Y0110893D01*
X0100585Y0110094D02*
X0115360Y0110094D01*
X0115360Y0109296D02*
X0100585Y0109296D01*
X0100559Y0108497D02*
X0116012Y0108497D01*
X0119309Y0108497D02*
X0121292Y0108497D01*
X0119960Y0109296D02*
X0144852Y0109296D01*
X0145210Y0110094D02*
X0119960Y0110094D01*
X0119960Y0110893D02*
X0145210Y0110893D01*
X0145210Y0111691D02*
X0135243Y0111691D01*
X0136189Y0112490D02*
X0145210Y0112490D01*
X0145210Y0113289D02*
X0136755Y0113289D01*
X0137086Y0114087D02*
X0145210Y0114087D01*
X0145210Y0114886D02*
X0137185Y0114886D01*
X0137185Y0115684D02*
X0145210Y0115684D01*
X0145210Y0116483D02*
X0136934Y0116483D01*
X0136604Y0117281D02*
X0145210Y0117281D01*
X0145210Y0118080D02*
X0135823Y0118080D01*
X0130748Y0118080D02*
X0125823Y0118080D01*
X0126604Y0117281D02*
X0129967Y0117281D01*
X0129636Y0116483D02*
X0126934Y0116483D01*
X0127185Y0115684D02*
X0129385Y0115684D01*
X0129385Y0114886D02*
X0127185Y0114886D01*
X0127086Y0114087D02*
X0129484Y0114087D01*
X0129815Y0113289D02*
X0126755Y0113289D01*
X0126189Y0112490D02*
X0130381Y0112490D01*
X0131327Y0111691D02*
X0125243Y0111691D01*
X0125278Y0108497D02*
X0131292Y0108497D01*
X0130367Y0107699D02*
X0126203Y0107699D01*
X0126761Y0106900D02*
X0129809Y0106900D01*
X0129478Y0106102D02*
X0127092Y0106102D01*
X0127185Y0105303D02*
X0129385Y0105303D01*
X0129385Y0104505D02*
X0127185Y0104505D01*
X0126928Y0103706D02*
X0129642Y0103706D01*
X0129972Y0102908D02*
X0126598Y0102908D01*
X0125808Y0102109D02*
X0130762Y0102109D01*
X0132301Y0098915D02*
X0124269Y0098915D01*
X0125785Y0098117D02*
X0130785Y0098117D01*
X0131076Y0098408D02*
X0129979Y0097311D01*
X0129385Y0095877D01*
X0129385Y0094326D01*
X0129979Y0092892D01*
X0131076Y0091795D01*
X0132509Y0091202D01*
X0134061Y0091202D01*
X0135494Y0091795D01*
X0136591Y0092892D01*
X0137185Y0094326D01*
X0137185Y0095877D01*
X0136591Y0097311D01*
X0135494Y0098408D01*
X0134061Y0099002D01*
X0132509Y0099002D01*
X0131076Y0098408D01*
X0129986Y0097318D02*
X0126584Y0097318D01*
X0126919Y0096520D02*
X0129651Y0096520D01*
X0129385Y0095721D02*
X0127185Y0095721D01*
X0127185Y0094923D02*
X0129385Y0094923D01*
X0129469Y0094124D02*
X0127102Y0094124D01*
X0126771Y0093326D02*
X0129799Y0093326D01*
X0130344Y0092527D02*
X0126226Y0092527D01*
X0125333Y0091729D02*
X0131237Y0091729D01*
X0132509Y0089002D02*
X0131076Y0088408D01*
X0129979Y0087311D01*
X0129385Y0085877D01*
X0129385Y0084326D01*
X0129979Y0082892D01*
X0131076Y0081795D01*
X0132509Y0081202D01*
X0134061Y0081202D01*
X0135494Y0081795D01*
X0136591Y0082892D01*
X0137185Y0084326D01*
X0137185Y0085877D01*
X0136591Y0087311D01*
X0135494Y0088408D01*
X0134061Y0089002D01*
X0132509Y0089002D01*
X0131382Y0088535D02*
X0125188Y0088535D01*
X0126166Y0087736D02*
X0130404Y0087736D01*
X0129824Y0086938D02*
X0126746Y0086938D01*
X0127077Y0086139D02*
X0129494Y0086139D01*
X0129385Y0085341D02*
X0127185Y0085341D01*
X0127185Y0084542D02*
X0129385Y0084542D01*
X0129626Y0083744D02*
X0126944Y0083744D01*
X0126613Y0082945D02*
X0129957Y0082945D01*
X0130725Y0082147D02*
X0125845Y0082147D01*
X0124414Y0081348D02*
X0132156Y0081348D01*
X0134414Y0081348D02*
X0145036Y0081348D01*
X0144735Y0081649D02*
X0146082Y0080302D01*
X0147988Y0080302D01*
X0149335Y0081649D01*
X0149335Y0083554D01*
X0147988Y0084902D01*
X0146082Y0084902D01*
X0144735Y0083554D01*
X0144735Y0081649D01*
X0144735Y0082147D02*
X0135845Y0082147D01*
X0136613Y0082945D02*
X0144735Y0082945D01*
X0144924Y0083744D02*
X0136944Y0083744D01*
X0137185Y0084542D02*
X0145723Y0084542D01*
X0148347Y0084542D02*
X0160985Y0084542D01*
X0160985Y0084277D02*
X0160457Y0084277D01*
X0159110Y0082929D01*
X0159110Y0081024D01*
X0160457Y0079677D01*
X0162363Y0079677D01*
X0163710Y0081024D01*
X0163710Y0082802D01*
X0164238Y0082802D01*
X0165585Y0084149D01*
X0165585Y0086054D01*
X0164238Y0087402D01*
X0163710Y0087402D01*
X0163710Y0089052D01*
X0164238Y0089052D01*
X0165585Y0090399D01*
X0165585Y0092304D01*
X0164238Y0093652D01*
X0162332Y0093652D01*
X0160985Y0092304D01*
X0160985Y0090527D01*
X0160457Y0090527D01*
X0159110Y0089179D01*
X0159110Y0087274D01*
X0160457Y0085927D01*
X0160985Y0085927D01*
X0160985Y0084277D01*
X0160985Y0085341D02*
X0137185Y0085341D01*
X0137077Y0086139D02*
X0160245Y0086139D01*
X0159446Y0086938D02*
X0136746Y0086938D01*
X0136166Y0087736D02*
X0159110Y0087736D01*
X0159110Y0088535D02*
X0135188Y0088535D01*
X0135333Y0091729D02*
X0160985Y0091729D01*
X0160985Y0090930D02*
X0077584Y0090930D01*
X0078085Y0090132D02*
X0160062Y0090132D01*
X0159264Y0089333D02*
X0078085Y0089333D01*
X0078085Y0088535D02*
X0121382Y0088535D01*
X0119957Y0082945D02*
X0114944Y0082945D01*
X0115585Y0082147D02*
X0120725Y0082147D01*
X0122156Y0081348D02*
X0115585Y0081348D01*
X0115585Y0080550D02*
X0145835Y0080550D01*
X0148236Y0080550D02*
X0159585Y0080550D01*
X0159110Y0081348D02*
X0149034Y0081348D01*
X0149335Y0082147D02*
X0159110Y0082147D01*
X0159126Y0082945D02*
X0149335Y0082945D01*
X0149146Y0083744D02*
X0159924Y0083744D01*
X0160383Y0079751D02*
X0141263Y0079751D01*
X0141113Y0079902D02*
X0139207Y0079902D01*
X0137860Y0078554D01*
X0137860Y0076649D01*
X0139207Y0075302D01*
X0141113Y0075302D01*
X0142460Y0076649D01*
X0142460Y0078554D01*
X0141113Y0079902D01*
X0142062Y0078953D02*
X0159508Y0078953D01*
X0159832Y0079277D02*
X0158485Y0077929D01*
X0158485Y0076024D01*
X0159832Y0074677D01*
X0161738Y0074677D01*
X0163085Y0076024D01*
X0163085Y0077929D01*
X0161738Y0079277D01*
X0159832Y0079277D01*
X0158710Y0078154D02*
X0142460Y0078154D01*
X0142460Y0077356D02*
X0158485Y0077356D01*
X0158485Y0076557D02*
X0142368Y0076557D01*
X0141570Y0075758D02*
X0158751Y0075758D01*
X0159549Y0074960D02*
X0115146Y0074960D01*
X0115585Y0075758D02*
X0138751Y0075758D01*
X0137952Y0076557D02*
X0115585Y0076557D01*
X0115534Y0077356D02*
X0137860Y0077356D01*
X0137860Y0078154D02*
X0115585Y0078154D01*
X0115585Y0078953D02*
X0138258Y0078953D01*
X0139057Y0079751D02*
X0115585Y0079751D01*
X0114348Y0074161D02*
X0205967Y0074161D01*
X0205360Y0073554D02*
X0205360Y0071649D01*
X0206707Y0070302D01*
X0208613Y0070302D01*
X0209960Y0071649D01*
X0209960Y0073554D01*
X0208613Y0074902D01*
X0206707Y0074902D01*
X0205360Y0073554D01*
X0205360Y0073363D02*
X0049935Y0073363D01*
X0049935Y0074161D02*
X0109723Y0074161D01*
X0108924Y0074960D02*
X0076396Y0074960D01*
X0076113Y0074677D02*
X0077460Y0076024D01*
X0077460Y0077929D01*
X0076113Y0079277D01*
X0074207Y0079277D01*
X0072860Y0077929D01*
X0072860Y0076024D01*
X0074207Y0074677D01*
X0076113Y0074677D01*
X0077195Y0075758D02*
X0108485Y0075758D01*
X0108485Y0076557D02*
X0077460Y0076557D01*
X0077460Y0077356D02*
X0108536Y0077356D01*
X0108485Y0078154D02*
X0077235Y0078154D01*
X0076437Y0078953D02*
X0108485Y0078953D01*
X0108485Y0079751D02*
X0049935Y0079751D01*
X0049935Y0078953D02*
X0073883Y0078953D01*
X0073085Y0078154D02*
X0049935Y0078154D01*
X0049935Y0077356D02*
X0072860Y0077356D01*
X0072860Y0076557D02*
X0049935Y0076557D01*
X0049935Y0075758D02*
X0073126Y0075758D01*
X0073924Y0074960D02*
X0049935Y0074960D01*
X0049935Y0072564D02*
X0205360Y0072564D01*
X0205360Y0071766D02*
X0204249Y0071766D01*
X0204238Y0071777D02*
X0202332Y0071777D01*
X0200985Y0070429D01*
X0200985Y0068524D01*
X0202332Y0067177D01*
X0204238Y0067177D01*
X0205585Y0068524D01*
X0205585Y0070429D01*
X0204238Y0071777D01*
X0205047Y0070967D02*
X0206042Y0070967D01*
X0205585Y0070169D02*
X0231674Y0070169D01*
X0231674Y0070967D02*
X0209279Y0070967D01*
X0209960Y0071766D02*
X0231674Y0071766D01*
X0231674Y0072564D02*
X0209960Y0072564D01*
X0209960Y0073363D02*
X0231674Y0073363D01*
X0231674Y0074161D02*
X0209353Y0074161D01*
X0205585Y0069370D02*
X0231674Y0069370D01*
X0231674Y0068572D02*
X0205585Y0068572D01*
X0204835Y0067773D02*
X0225204Y0067773D01*
X0225457Y0068027D02*
X0224110Y0066679D01*
X0224110Y0064774D01*
X0225457Y0063427D01*
X0227363Y0063427D01*
X0228710Y0064774D01*
X0228710Y0066679D01*
X0227363Y0068027D01*
X0225457Y0068027D01*
X0224406Y0066975D02*
X0182786Y0066975D01*
X0182363Y0066552D02*
X0183710Y0067899D01*
X0183710Y0069804D01*
X0182363Y0071152D01*
X0180457Y0071152D01*
X0179535Y0070229D01*
X0178613Y0071152D01*
X0176707Y0071152D01*
X0175360Y0069804D01*
X0175360Y0067899D01*
X0176707Y0066552D01*
X0178613Y0066552D01*
X0179535Y0067474D01*
X0180457Y0066552D01*
X0182363Y0066552D01*
X0183585Y0067773D02*
X0201736Y0067773D01*
X0200985Y0068572D02*
X0183710Y0068572D01*
X0183710Y0069370D02*
X0200985Y0069370D01*
X0200985Y0070169D02*
X0183346Y0070169D01*
X0182547Y0070967D02*
X0201523Y0070967D01*
X0202322Y0071766D02*
X0168624Y0071766D01*
X0168613Y0071777D02*
X0166707Y0071777D01*
X0165360Y0070429D01*
X0165360Y0068524D01*
X0166707Y0067177D01*
X0168613Y0067177D01*
X0169110Y0067674D01*
X0169110Y0067274D01*
X0170457Y0065927D01*
X0172363Y0065927D01*
X0173710Y0067274D01*
X0173710Y0069179D01*
X0172363Y0070527D01*
X0170457Y0070527D01*
X0169960Y0070029D01*
X0169960Y0070429D01*
X0168613Y0071777D01*
X0169422Y0070967D02*
X0176523Y0070967D01*
X0175725Y0070169D02*
X0172721Y0070169D01*
X0173519Y0069370D02*
X0175360Y0069370D01*
X0175360Y0068572D02*
X0173710Y0068572D01*
X0173710Y0067773D02*
X0175486Y0067773D01*
X0176284Y0066975D02*
X0173411Y0066975D01*
X0172612Y0066176D02*
X0224110Y0066176D01*
X0224110Y0065378D02*
X0049935Y0065378D01*
X0049935Y0066176D02*
X0170208Y0066176D01*
X0169409Y0066975D02*
X0049935Y0066975D01*
X0049935Y0067773D02*
X0166111Y0067773D01*
X0165360Y0068572D02*
X0049935Y0068572D01*
X0049935Y0069370D02*
X0165360Y0069370D01*
X0165360Y0070169D02*
X0049935Y0070169D01*
X0049935Y0070967D02*
X0165898Y0070967D01*
X0166697Y0071766D02*
X0049935Y0071766D01*
X0049935Y0064579D02*
X0224305Y0064579D01*
X0225103Y0063781D02*
X0049935Y0063781D01*
X0049935Y0062982D02*
X0231674Y0062982D01*
X0231674Y0062184D02*
X0049935Y0062184D01*
X0049935Y0061385D02*
X0063816Y0061385D01*
X0063018Y0060587D02*
X0049935Y0060587D01*
X0049935Y0059788D02*
X0062860Y0059788D01*
X0062860Y0058990D02*
X0049935Y0058990D01*
X0049935Y0058191D02*
X0063193Y0058191D01*
X0062949Y0057393D02*
X0049935Y0057393D01*
X0049935Y0056594D02*
X0062860Y0056594D01*
X0062860Y0055796D02*
X0049935Y0055796D01*
X0049935Y0054997D02*
X0063262Y0054997D01*
X0072058Y0054997D02*
X0160137Y0054997D01*
X0159735Y0055796D02*
X0072460Y0055796D01*
X0072460Y0056594D02*
X0159735Y0056594D01*
X0159824Y0057393D02*
X0072372Y0057393D01*
X0072127Y0058191D02*
X0160622Y0058191D01*
X0163448Y0058191D02*
X0203747Y0058191D01*
X0202949Y0057393D02*
X0164247Y0057393D01*
X0164335Y0056594D02*
X0202860Y0056594D01*
X0202860Y0055796D02*
X0164335Y0055796D01*
X0163933Y0054997D02*
X0203262Y0054997D01*
X0206573Y0058191D02*
X0207497Y0058191D01*
X0210323Y0058191D02*
X0231674Y0058191D01*
X0231674Y0057393D02*
X0211122Y0057393D01*
X0211210Y0056594D02*
X0231674Y0056594D01*
X0231674Y0055796D02*
X0211210Y0055796D01*
X0210808Y0054997D02*
X0231674Y0054997D01*
X0231674Y0058990D02*
X0072460Y0058990D01*
X0072460Y0059788D02*
X0231674Y0059788D01*
X0231674Y0060587D02*
X0072303Y0060587D01*
X0071504Y0061385D02*
X0231674Y0061385D01*
X0231674Y0063781D02*
X0227717Y0063781D01*
X0228515Y0064579D02*
X0231674Y0064579D01*
X0231674Y0065378D02*
X0228710Y0065378D01*
X0228710Y0066176D02*
X0231674Y0066176D01*
X0231674Y0066975D02*
X0228415Y0066975D01*
X0227616Y0067773D02*
X0231674Y0067773D01*
X0231674Y0074960D02*
X0162021Y0074960D01*
X0162820Y0075758D02*
X0231674Y0075758D01*
X0231674Y0076557D02*
X0172368Y0076557D01*
X0171738Y0075927D02*
X0169832Y0075927D01*
X0168485Y0077274D01*
X0168485Y0078427D01*
X0166707Y0078427D01*
X0165360Y0079774D01*
X0165360Y0081679D01*
X0166707Y0083027D01*
X0167235Y0083027D01*
X0167235Y0084804D01*
X0168582Y0086152D01*
X0170488Y0086152D01*
X0171835Y0084804D01*
X0171835Y0082899D01*
X0170488Y0081552D01*
X0169960Y0081552D01*
X0169960Y0080527D01*
X0171738Y0080527D01*
X0173085Y0079179D01*
X0173085Y0077274D01*
X0171738Y0075927D01*
X0173085Y0077356D02*
X0231674Y0077356D01*
X0231674Y0078154D02*
X0173085Y0078154D01*
X0173085Y0078953D02*
X0231674Y0078953D01*
X0231674Y0079751D02*
X0172513Y0079751D01*
X0169960Y0080550D02*
X0231674Y0080550D01*
X0231674Y0081348D02*
X0169960Y0081348D01*
X0171083Y0082147D02*
X0231674Y0082147D01*
X0231674Y0082945D02*
X0211881Y0082945D01*
X0212460Y0083524D02*
X0211113Y0082177D01*
X0209207Y0082177D01*
X0207860Y0083524D01*
X0207860Y0085429D01*
X0208782Y0086352D01*
X0207860Y0087274D01*
X0207860Y0089179D01*
X0209207Y0090527D01*
X0211113Y0090527D01*
X0212460Y0089179D01*
X0212460Y0087274D01*
X0211538Y0086352D01*
X0212460Y0085429D01*
X0212460Y0083524D01*
X0212460Y0083744D02*
X0231674Y0083744D01*
X0231674Y0084542D02*
X0212460Y0084542D01*
X0212460Y0085341D02*
X0231674Y0085341D01*
X0231674Y0086139D02*
X0211750Y0086139D01*
X0212124Y0086938D02*
X0231674Y0086938D01*
X0231674Y0087736D02*
X0212460Y0087736D01*
X0212460Y0088535D02*
X0231674Y0088535D01*
X0231674Y0089333D02*
X0212306Y0089333D01*
X0211508Y0090132D02*
X0231674Y0090132D01*
X0231674Y0090930D02*
X0183616Y0090930D01*
X0182988Y0090302D02*
X0184335Y0091649D01*
X0184335Y0093554D01*
X0183413Y0094477D01*
X0184335Y0095399D01*
X0184335Y0097304D01*
X0183413Y0098227D01*
X0184335Y0099149D01*
X0184335Y0101054D01*
X0182988Y0102402D01*
X0181082Y0102402D01*
X0179735Y0101054D01*
X0179735Y0099149D01*
X0180657Y0098227D01*
X0179735Y0097304D01*
X0179735Y0095399D01*
X0180657Y0094477D01*
X0179735Y0093554D01*
X0179735Y0091649D01*
X0181082Y0090302D01*
X0182988Y0090302D01*
X0184335Y0091729D02*
X0231674Y0091729D01*
X0231674Y0092527D02*
X0184335Y0092527D01*
X0184335Y0093326D02*
X0231674Y0093326D01*
X0231674Y0094124D02*
X0183765Y0094124D01*
X0183859Y0094923D02*
X0231674Y0094923D01*
X0231674Y0095721D02*
X0184335Y0095721D01*
X0184335Y0096520D02*
X0231674Y0096520D01*
X0231674Y0097318D02*
X0184321Y0097318D01*
X0183523Y0098117D02*
X0231674Y0098117D01*
X0231674Y0098915D02*
X0184101Y0098915D01*
X0184335Y0099714D02*
X0231674Y0099714D01*
X0231674Y0100512D02*
X0184335Y0100512D01*
X0184079Y0101311D02*
X0231674Y0101311D01*
X0231674Y0102109D02*
X0183280Y0102109D01*
X0180790Y0102109D02*
X0160780Y0102109D01*
X0161210Y0101311D02*
X0179992Y0101311D01*
X0179735Y0100512D02*
X0161210Y0100512D01*
X0161150Y0099714D02*
X0179735Y0099714D01*
X0179969Y0098915D02*
X0160351Y0098915D01*
X0157469Y0098915D02*
X0134269Y0098915D01*
X0135785Y0098117D02*
X0180548Y0098117D01*
X0179749Y0097318D02*
X0136584Y0097318D01*
X0136919Y0096520D02*
X0179735Y0096520D01*
X0179735Y0095721D02*
X0137185Y0095721D01*
X0137185Y0094923D02*
X0180211Y0094923D01*
X0180305Y0094124D02*
X0137102Y0094124D01*
X0136771Y0093326D02*
X0162007Y0093326D01*
X0161208Y0092527D02*
X0136226Y0092527D01*
X0137185Y0105303D02*
X0145456Y0105303D01*
X0144657Y0106102D02*
X0137092Y0106102D01*
X0136761Y0106900D02*
X0144110Y0106900D01*
X0144110Y0107699D02*
X0136203Y0107699D01*
X0135278Y0108497D02*
X0144110Y0108497D01*
X0147610Y0113289D02*
X0178485Y0113289D01*
X0177603Y0114087D02*
X0147610Y0114087D01*
X0147610Y0114886D02*
X0177085Y0114886D01*
X0177085Y0115684D02*
X0147610Y0115684D01*
X0158161Y0120475D02*
X0168531Y0120475D01*
X0169329Y0121274D02*
X0158710Y0121274D01*
X0173420Y0110094D02*
X0231674Y0110094D01*
X0231674Y0109296D02*
X0174218Y0109296D01*
X0174335Y0108497D02*
X0231674Y0108497D01*
X0231674Y0107699D02*
X0174335Y0107699D01*
X0173962Y0106900D02*
X0231674Y0106900D01*
X0231674Y0106102D02*
X0173163Y0106102D01*
X0183085Y0113289D02*
X0197471Y0113289D01*
X0196672Y0114087D02*
X0184898Y0114087D01*
X0185585Y0114886D02*
X0196610Y0114886D01*
X0196610Y0115684D02*
X0185585Y0115684D01*
X0185585Y0116483D02*
X0197038Y0116483D01*
X0197837Y0117281D02*
X0184983Y0117281D01*
X0166619Y0140438D02*
X0166202Y0140438D01*
X0170403Y0141236D02*
X0177085Y0141236D01*
X0177085Y0145229D02*
X0171040Y0145229D01*
X0171835Y0146027D02*
X0177085Y0146027D01*
X0177085Y0146826D02*
X0171835Y0146826D01*
X0171835Y0147625D02*
X0177236Y0147625D01*
X0178034Y0148423D02*
X0171341Y0148423D01*
X0157902Y0149222D02*
X0108158Y0149222D01*
X0117332Y0168427D02*
X0115985Y0169774D01*
X0115985Y0171679D01*
X0117332Y0173027D01*
X0119238Y0173027D01*
X0120585Y0171679D01*
X0120585Y0169774D01*
X0119238Y0168427D01*
X0117332Y0168427D01*
X0116575Y0169184D02*
X0049935Y0169184D01*
X0049935Y0168386D02*
X0131123Y0168386D01*
X0130985Y0168524D02*
X0132332Y0167177D01*
X0134238Y0167177D01*
X0135585Y0168524D01*
X0135585Y0170174D01*
X0136707Y0169052D01*
X0138613Y0169052D01*
X0139960Y0170399D01*
X0139960Y0170927D01*
X0141738Y0170927D01*
X0143085Y0172274D01*
X0143085Y0174179D01*
X0141738Y0175527D01*
X0139832Y0175527D01*
X0138485Y0174179D01*
X0138485Y0173652D01*
X0136707Y0173652D01*
X0135585Y0172529D01*
X0135585Y0172929D01*
X0134238Y0174277D01*
X0132332Y0174277D01*
X0130985Y0172929D01*
X0130985Y0171024D01*
X0131282Y0170727D01*
X0130985Y0170429D01*
X0130985Y0168524D01*
X0130985Y0169184D02*
X0119995Y0169184D01*
X0120585Y0169983D02*
X0130985Y0169983D01*
X0131228Y0170781D02*
X0120585Y0170781D01*
X0120585Y0171580D02*
X0130985Y0171580D01*
X0130985Y0172378D02*
X0119886Y0172378D01*
X0116684Y0172378D02*
X0049935Y0172378D01*
X0049935Y0171580D02*
X0115985Y0171580D01*
X0115985Y0170781D02*
X0049935Y0170781D01*
X0049935Y0169983D02*
X0115985Y0169983D01*
X0131233Y0173177D02*
X0049935Y0173177D01*
X0049935Y0173975D02*
X0132031Y0173975D01*
X0134539Y0173975D02*
X0138485Y0173975D01*
X0139080Y0174774D02*
X0059335Y0174774D01*
X0059238Y0174677D02*
X0060585Y0176024D01*
X0060585Y0177929D01*
X0060288Y0178227D01*
X0060585Y0178524D01*
X0060585Y0180429D01*
X0059238Y0181777D01*
X0057332Y0181777D01*
X0055985Y0180429D01*
X0055985Y0178524D01*
X0056282Y0178227D01*
X0055985Y0177929D01*
X0055985Y0176024D01*
X0057332Y0174677D01*
X0059238Y0174677D01*
X0060134Y0175572D02*
X0188485Y0175572D01*
X0188485Y0174774D02*
X0189832Y0173427D01*
X0191738Y0173427D01*
X0193085Y0174774D01*
X0231674Y0174774D01*
X0231674Y0175572D02*
X0193085Y0175572D01*
X0193085Y0174774D02*
X0193085Y0176679D01*
X0191738Y0178027D01*
X0189832Y0178027D01*
X0188485Y0176679D01*
X0188485Y0174774D01*
X0172491Y0174774D01*
X0173085Y0174179D02*
X0171738Y0175527D01*
X0169832Y0175527D01*
X0168485Y0174179D01*
X0168485Y0172274D01*
X0169832Y0170927D01*
X0171738Y0170927D01*
X0173085Y0172274D01*
X0173085Y0174179D01*
X0173085Y0173975D02*
X0189284Y0173975D01*
X0188485Y0176371D02*
X0060585Y0176371D01*
X0060585Y0177169D02*
X0188975Y0177169D01*
X0189774Y0177968D02*
X0060547Y0177968D01*
X0060585Y0178766D02*
X0231674Y0178766D01*
X0231674Y0177968D02*
X0191797Y0177968D01*
X0192595Y0177169D02*
X0231674Y0177169D01*
X0231674Y0176371D02*
X0193085Y0176371D01*
X0192287Y0173975D02*
X0231674Y0173975D01*
X0231674Y0173177D02*
X0173085Y0173177D01*
X0173085Y0172378D02*
X0231674Y0172378D01*
X0231674Y0171580D02*
X0172391Y0171580D01*
X0169179Y0171580D02*
X0151210Y0171580D01*
X0151210Y0171679D02*
X0149863Y0173027D01*
X0147957Y0173027D01*
X0146610Y0171679D01*
X0146610Y0169774D01*
X0147957Y0168427D01*
X0149863Y0168427D01*
X0151210Y0169774D01*
X0151210Y0171679D01*
X0151210Y0170781D02*
X0231674Y0170781D01*
X0231674Y0169983D02*
X0151210Y0169983D01*
X0150620Y0169184D02*
X0231674Y0169184D01*
X0231674Y0168386D02*
X0135447Y0168386D01*
X0135585Y0169184D02*
X0136575Y0169184D01*
X0135776Y0169983D02*
X0135585Y0169983D01*
X0134648Y0167587D02*
X0231674Y0167587D01*
X0231674Y0166789D02*
X0049935Y0166789D01*
X0049935Y0167587D02*
X0131922Y0167587D01*
X0135338Y0173177D02*
X0136233Y0173177D01*
X0138745Y0169184D02*
X0147200Y0169184D01*
X0146610Y0169983D02*
X0139544Y0169983D01*
X0139960Y0170781D02*
X0146610Y0170781D01*
X0146610Y0171580D02*
X0142391Y0171580D01*
X0143085Y0172378D02*
X0147309Y0172378D01*
X0150511Y0172378D02*
X0168485Y0172378D01*
X0168485Y0173177D02*
X0143085Y0173177D01*
X0143085Y0173975D02*
X0168485Y0173975D01*
X0169080Y0174774D02*
X0142491Y0174774D01*
X0141747Y0191564D02*
X0139862Y0191564D01*
X0138121Y0192285D01*
X0136788Y0193618D01*
X0136066Y0195360D01*
X0136066Y0197245D01*
X0136788Y0198987D01*
X0138121Y0200320D01*
X0139862Y0201041D01*
X0141747Y0201041D01*
X0143489Y0200320D01*
X0144822Y0198987D01*
X0145543Y0197245D01*
X0145543Y0195360D01*
X0144822Y0193618D01*
X0143489Y0192285D01*
X0141747Y0191564D01*
X0143545Y0192341D02*
X0149876Y0192341D01*
X0149932Y0192285D02*
X0151673Y0191564D01*
X0153558Y0191564D01*
X0155300Y0192285D01*
X0156633Y0193618D01*
X0157354Y0195360D01*
X0157354Y0197245D01*
X0156633Y0198987D01*
X0155300Y0200320D01*
X0153558Y0201041D01*
X0151673Y0201041D01*
X0149932Y0200320D01*
X0148599Y0198987D01*
X0147877Y0197245D01*
X0147877Y0195360D01*
X0148599Y0193618D01*
X0149932Y0192285D01*
X0149077Y0193140D02*
X0144343Y0193140D01*
X0144954Y0193938D02*
X0148466Y0193938D01*
X0148135Y0194737D02*
X0145285Y0194737D01*
X0145543Y0195535D02*
X0147877Y0195535D01*
X0147877Y0196334D02*
X0145543Y0196334D01*
X0145543Y0197132D02*
X0147877Y0197132D01*
X0148161Y0197931D02*
X0145259Y0197931D01*
X0144929Y0198729D02*
X0148492Y0198729D01*
X0149140Y0199528D02*
X0144281Y0199528D01*
X0143473Y0200326D02*
X0149948Y0200326D01*
X0149395Y0202128D02*
X0147653Y0201406D01*
X0145768Y0201406D01*
X0144026Y0202128D01*
X0142693Y0203461D01*
X0141972Y0205202D01*
X0141972Y0207088D01*
X0142693Y0208829D01*
X0144026Y0210162D01*
X0145768Y0210884D01*
X0147653Y0210884D01*
X0149395Y0210162D01*
X0150727Y0208829D01*
X0151449Y0207088D01*
X0151449Y0205202D01*
X0150727Y0203461D01*
X0149395Y0202128D01*
X0148901Y0201923D02*
X0156331Y0201923D01*
X0155837Y0202128D02*
X0157579Y0201406D01*
X0159464Y0201406D01*
X0161206Y0202128D01*
X0162539Y0203461D01*
X0163260Y0205202D01*
X0163260Y0207088D01*
X0162539Y0208829D01*
X0161206Y0210162D01*
X0159464Y0210884D01*
X0157579Y0210884D01*
X0155837Y0210162D01*
X0154504Y0208829D01*
X0153783Y0207088D01*
X0153783Y0205202D01*
X0154504Y0203461D01*
X0155837Y0202128D01*
X0155243Y0202722D02*
X0149989Y0202722D01*
X0150752Y0203520D02*
X0154480Y0203520D01*
X0154149Y0204319D02*
X0151083Y0204319D01*
X0151414Y0205117D02*
X0153818Y0205117D01*
X0153783Y0205916D02*
X0151449Y0205916D01*
X0151449Y0206714D02*
X0153783Y0206714D01*
X0153959Y0207513D02*
X0151273Y0207513D01*
X0150942Y0208311D02*
X0154290Y0208311D01*
X0154785Y0209110D02*
X0150447Y0209110D01*
X0149648Y0209908D02*
X0155583Y0209908D01*
X0157152Y0210707D02*
X0148079Y0210707D01*
X0145341Y0210707D02*
X0136268Y0210707D01*
X0135842Y0210884D02*
X0133957Y0210884D01*
X0132215Y0210162D01*
X0130882Y0208829D01*
X0130161Y0207088D01*
X0130161Y0205202D01*
X0130882Y0203461D01*
X0132215Y0202128D01*
X0133957Y0201406D01*
X0135842Y0201406D01*
X0137583Y0202128D01*
X0138916Y0203461D01*
X0139638Y0205202D01*
X0139638Y0207088D01*
X0138916Y0208829D01*
X0137583Y0210162D01*
X0135842Y0210884D01*
X0137837Y0209908D02*
X0143772Y0209908D01*
X0142974Y0209110D02*
X0138636Y0209110D01*
X0139131Y0208311D02*
X0142479Y0208311D01*
X0142148Y0207513D02*
X0139462Y0207513D01*
X0139638Y0206714D02*
X0141972Y0206714D01*
X0141972Y0205916D02*
X0139638Y0205916D01*
X0139603Y0205117D02*
X0142007Y0205117D01*
X0142338Y0204319D02*
X0139272Y0204319D01*
X0138941Y0203520D02*
X0142668Y0203520D01*
X0143432Y0202722D02*
X0138177Y0202722D01*
X0137090Y0201923D02*
X0144520Y0201923D01*
X0138137Y0200326D02*
X0131662Y0200326D01*
X0131678Y0200320D02*
X0129936Y0201041D01*
X0128051Y0201041D01*
X0126310Y0200320D01*
X0124977Y0198987D01*
X0124255Y0197245D01*
X0124255Y0195360D01*
X0124977Y0193618D01*
X0126310Y0192285D01*
X0128051Y0191564D01*
X0129936Y0191564D01*
X0131678Y0192285D01*
X0133011Y0193618D01*
X0133732Y0195360D01*
X0133732Y0197245D01*
X0133011Y0198987D01*
X0131678Y0200320D01*
X0132470Y0199528D02*
X0137329Y0199528D01*
X0136681Y0198729D02*
X0133118Y0198729D01*
X0133448Y0197931D02*
X0136350Y0197931D01*
X0136066Y0197132D02*
X0133732Y0197132D01*
X0133732Y0196334D02*
X0136066Y0196334D01*
X0136066Y0195535D02*
X0133732Y0195535D01*
X0133474Y0194737D02*
X0136324Y0194737D01*
X0136655Y0193938D02*
X0133143Y0193938D01*
X0132532Y0193140D02*
X0137266Y0193140D01*
X0138065Y0192341D02*
X0131734Y0192341D01*
X0126254Y0192341D02*
X0119923Y0192341D01*
X0119867Y0192285D02*
X0121200Y0193618D01*
X0121921Y0195360D01*
X0121921Y0197245D01*
X0121200Y0198987D01*
X0119867Y0200320D01*
X0118125Y0201041D01*
X0116240Y0201041D01*
X0114499Y0200320D01*
X0113166Y0198987D01*
X0112444Y0197245D01*
X0112444Y0195360D01*
X0113166Y0193618D01*
X0114499Y0192285D01*
X0116240Y0191564D01*
X0118125Y0191564D01*
X0119867Y0192285D01*
X0120721Y0193140D02*
X0125455Y0193140D01*
X0124844Y0193938D02*
X0121332Y0193938D01*
X0121663Y0194737D02*
X0124513Y0194737D01*
X0124255Y0195535D02*
X0121921Y0195535D01*
X0121921Y0196334D02*
X0124255Y0196334D01*
X0124255Y0197132D02*
X0121921Y0197132D01*
X0121637Y0197931D02*
X0124539Y0197931D01*
X0124870Y0198729D02*
X0121307Y0198729D01*
X0120659Y0199528D02*
X0125518Y0199528D01*
X0126326Y0200326D02*
X0119851Y0200326D01*
X0120404Y0202128D02*
X0119071Y0203461D01*
X0118350Y0205202D01*
X0118350Y0207088D01*
X0119071Y0208829D01*
X0120404Y0210162D01*
X0122146Y0210884D01*
X0124031Y0210884D01*
X0125772Y0210162D01*
X0127105Y0208829D01*
X0127827Y0207088D01*
X0127827Y0205202D01*
X0127105Y0203461D01*
X0125772Y0202128D01*
X0124031Y0201406D01*
X0122146Y0201406D01*
X0120404Y0202128D01*
X0120898Y0201923D02*
X0113468Y0201923D01*
X0113961Y0202128D02*
X0115294Y0203461D01*
X0116016Y0205202D01*
X0116016Y0207088D01*
X0115294Y0208829D01*
X0113961Y0210162D01*
X0112220Y0210884D01*
X0110335Y0210884D01*
X0108593Y0210162D01*
X0107260Y0208829D01*
X0106539Y0207088D01*
X0106539Y0205202D01*
X0107260Y0203461D01*
X0108593Y0202128D01*
X0110335Y0201406D01*
X0112220Y0201406D01*
X0113961Y0202128D01*
X0114555Y0202722D02*
X0119810Y0202722D01*
X0119046Y0203520D02*
X0115319Y0203520D01*
X0115650Y0204319D02*
X0118716Y0204319D01*
X0118385Y0205117D02*
X0115981Y0205117D01*
X0116016Y0205916D02*
X0118350Y0205916D01*
X0118350Y0206714D02*
X0116016Y0206714D01*
X0115840Y0207513D02*
X0118526Y0207513D01*
X0118857Y0208311D02*
X0115509Y0208311D01*
X0115014Y0209110D02*
X0119352Y0209110D01*
X0120150Y0209908D02*
X0114215Y0209908D01*
X0112646Y0210707D02*
X0121719Y0210707D01*
X0124457Y0210707D02*
X0133530Y0210707D01*
X0131961Y0209908D02*
X0126026Y0209908D01*
X0126825Y0209110D02*
X0131163Y0209110D01*
X0130668Y0208311D02*
X0127320Y0208311D01*
X0127651Y0207513D02*
X0130337Y0207513D01*
X0130161Y0206714D02*
X0127827Y0206714D01*
X0127827Y0205916D02*
X0130161Y0205916D01*
X0130196Y0205117D02*
X0127792Y0205117D01*
X0127461Y0204319D02*
X0130527Y0204319D01*
X0130857Y0203520D02*
X0127130Y0203520D01*
X0126366Y0202722D02*
X0131621Y0202722D01*
X0132709Y0201923D02*
X0125279Y0201923D01*
X0114515Y0200326D02*
X0108040Y0200326D01*
X0108056Y0200320D02*
X0106314Y0201041D01*
X0104429Y0201041D01*
X0102688Y0200320D01*
X0101355Y0198987D01*
X0100633Y0197245D01*
X0100633Y0195360D01*
X0101355Y0193618D01*
X0102688Y0192285D01*
X0104429Y0191564D01*
X0106314Y0191564D01*
X0108056Y0192285D01*
X0109389Y0193618D01*
X0110110Y0195360D01*
X0110110Y0197245D01*
X0109389Y0198987D01*
X0108056Y0200320D01*
X0108848Y0199528D02*
X0113707Y0199528D01*
X0113059Y0198729D02*
X0109496Y0198729D01*
X0109826Y0197931D02*
X0112728Y0197931D01*
X0112444Y0197132D02*
X0110110Y0197132D01*
X0110110Y0196334D02*
X0112444Y0196334D01*
X0112444Y0195535D02*
X0110110Y0195535D01*
X0109852Y0194737D02*
X0112702Y0194737D01*
X0113033Y0193938D02*
X0109521Y0193938D01*
X0108910Y0193140D02*
X0113644Y0193140D01*
X0114443Y0192341D02*
X0108112Y0192341D01*
X0108613Y0189277D02*
X0106707Y0189277D01*
X0105360Y0187929D01*
X0105360Y0186024D01*
X0106707Y0184677D01*
X0108613Y0184677D01*
X0109960Y0186024D01*
X0109960Y0187929D01*
X0108613Y0189277D01*
X0108742Y0189147D02*
X0208487Y0189147D01*
X0208485Y0189149D02*
X0209832Y0187802D01*
X0211738Y0187802D01*
X0213085Y0189149D01*
X0213085Y0191054D01*
X0212788Y0191352D01*
X0213085Y0191649D01*
X0213085Y0193554D01*
X0212788Y0193852D01*
X0213085Y0194149D01*
X0213085Y0196054D01*
X0212788Y0196352D01*
X0213085Y0196649D01*
X0213085Y0198554D01*
X0211738Y0199902D01*
X0209832Y0199902D01*
X0208485Y0198554D01*
X0208485Y0196649D01*
X0208782Y0196352D01*
X0208485Y0196054D01*
X0208485Y0194149D01*
X0208782Y0193852D01*
X0208485Y0193554D01*
X0208485Y0191649D01*
X0208782Y0191352D01*
X0208485Y0191054D01*
X0208485Y0189149D01*
X0208485Y0189946D02*
X0049935Y0189946D01*
X0049935Y0190744D02*
X0208485Y0190744D01*
X0208591Y0191543D02*
X0049935Y0191543D01*
X0049935Y0192341D02*
X0090821Y0192341D01*
X0090877Y0192285D02*
X0092618Y0191564D01*
X0094503Y0191564D01*
X0096245Y0192285D01*
X0097578Y0193618D01*
X0098299Y0195360D01*
X0098299Y0197245D01*
X0097578Y0198987D01*
X0096245Y0200320D01*
X0094503Y0201041D01*
X0092618Y0201041D01*
X0090877Y0200320D01*
X0089544Y0198987D01*
X0088822Y0197245D01*
X0088822Y0195360D01*
X0089544Y0193618D01*
X0090877Y0192285D01*
X0090022Y0193140D02*
X0049935Y0193140D01*
X0049935Y0193938D02*
X0089411Y0193938D01*
X0089080Y0194737D02*
X0049935Y0194737D01*
X0049935Y0195535D02*
X0088822Y0195535D01*
X0088822Y0196334D02*
X0049935Y0196334D01*
X0049935Y0197132D02*
X0088822Y0197132D01*
X0089106Y0197931D02*
X0049935Y0197931D01*
X0049935Y0198729D02*
X0089437Y0198729D01*
X0090085Y0199528D02*
X0052839Y0199528D01*
X0053637Y0200326D02*
X0090893Y0200326D01*
X0096229Y0200326D02*
X0102704Y0200326D01*
X0101896Y0199528D02*
X0097037Y0199528D01*
X0097685Y0198729D02*
X0101248Y0198729D01*
X0100917Y0197931D02*
X0098015Y0197931D01*
X0098299Y0197132D02*
X0100633Y0197132D01*
X0100633Y0196334D02*
X0098299Y0196334D01*
X0098299Y0195535D02*
X0100633Y0195535D01*
X0100891Y0194737D02*
X0098041Y0194737D01*
X0097710Y0193938D02*
X0101222Y0193938D01*
X0101833Y0193140D02*
X0097099Y0193140D01*
X0096301Y0192341D02*
X0102632Y0192341D01*
X0106578Y0189147D02*
X0054367Y0189147D01*
X0054960Y0188554D02*
X0053613Y0189902D01*
X0051707Y0189902D01*
X0050360Y0188554D01*
X0050360Y0186649D01*
X0051707Y0185302D01*
X0053613Y0185302D01*
X0054960Y0186649D01*
X0054960Y0188554D01*
X0054960Y0188349D02*
X0105779Y0188349D01*
X0105360Y0187550D02*
X0054960Y0187550D01*
X0054960Y0186752D02*
X0105360Y0186752D01*
X0105431Y0185953D02*
X0054264Y0185953D01*
X0051056Y0185953D02*
X0049935Y0185953D01*
X0049935Y0185155D02*
X0106230Y0185155D01*
X0109091Y0185155D02*
X0231674Y0185155D01*
X0231674Y0185953D02*
X0109889Y0185953D01*
X0109960Y0186752D02*
X0231674Y0186752D01*
X0231674Y0187550D02*
X0109960Y0187550D01*
X0109541Y0188349D02*
X0209286Y0188349D01*
X0208485Y0192341D02*
X0190789Y0192341D01*
X0190733Y0192285D02*
X0192066Y0193618D01*
X0192787Y0195360D01*
X0192787Y0197245D01*
X0192066Y0198987D01*
X0190733Y0200320D01*
X0188991Y0201041D01*
X0187106Y0201041D01*
X0185365Y0200320D01*
X0184032Y0198987D01*
X0183310Y0197245D01*
X0183310Y0195360D01*
X0184032Y0193618D01*
X0185365Y0192285D01*
X0187106Y0191564D01*
X0188991Y0191564D01*
X0190733Y0192285D01*
X0191587Y0193140D02*
X0208485Y0193140D01*
X0208696Y0193938D02*
X0204124Y0193938D01*
X0203613Y0193427D02*
X0204863Y0194677D01*
X0205488Y0194677D01*
X0206835Y0196024D01*
X0206835Y0197929D01*
X0205488Y0199277D01*
X0203582Y0199277D01*
X0202332Y0198027D01*
X0201707Y0198027D01*
X0200360Y0196679D01*
X0200360Y0194774D01*
X0201707Y0193427D01*
X0203613Y0193427D01*
X0205548Y0194737D02*
X0208485Y0194737D01*
X0208485Y0195535D02*
X0206346Y0195535D01*
X0206835Y0196334D02*
X0208764Y0196334D01*
X0208485Y0197132D02*
X0206835Y0197132D01*
X0206834Y0197931D02*
X0208485Y0197931D01*
X0208660Y0198729D02*
X0206035Y0198729D01*
X0203035Y0198729D02*
X0192173Y0198729D01*
X0192503Y0197931D02*
X0201612Y0197931D01*
X0200813Y0197132D02*
X0192787Y0197132D01*
X0192787Y0196334D02*
X0200360Y0196334D01*
X0200360Y0195535D02*
X0192787Y0195535D01*
X0192529Y0194737D02*
X0200397Y0194737D01*
X0201196Y0193938D02*
X0192199Y0193938D01*
X0191525Y0199528D02*
X0198106Y0199528D01*
X0198582Y0199052D02*
X0200488Y0199052D01*
X0201738Y0200302D01*
X0202363Y0200302D01*
X0203710Y0201649D01*
X0203710Y0203554D01*
X0202363Y0204902D01*
X0200457Y0204902D01*
X0199207Y0203652D01*
X0198582Y0203652D01*
X0197235Y0202304D01*
X0197235Y0200399D01*
X0198582Y0199052D01*
X0197308Y0200326D02*
X0190717Y0200326D01*
X0185381Y0200326D02*
X0178906Y0200326D01*
X0178922Y0200320D02*
X0177180Y0201041D01*
X0175295Y0201041D01*
X0173554Y0200320D01*
X0172221Y0198987D01*
X0171499Y0197245D01*
X0171499Y0195360D01*
X0172221Y0193618D01*
X0173554Y0192285D01*
X0175295Y0191564D01*
X0177180Y0191564D01*
X0178922Y0192285D01*
X0180255Y0193618D01*
X0180976Y0195360D01*
X0180976Y0197245D01*
X0180255Y0198987D01*
X0178922Y0200320D01*
X0179714Y0199528D02*
X0184573Y0199528D01*
X0183925Y0198729D02*
X0180362Y0198729D01*
X0180692Y0197931D02*
X0183594Y0197931D01*
X0183310Y0197132D02*
X0180976Y0197132D01*
X0180976Y0196334D02*
X0183310Y0196334D01*
X0183310Y0195535D02*
X0180976Y0195535D01*
X0180718Y0194737D02*
X0183568Y0194737D01*
X0183899Y0193938D02*
X0180388Y0193938D01*
X0179776Y0193140D02*
X0184510Y0193140D01*
X0185309Y0192341D02*
X0178978Y0192341D01*
X0173498Y0192341D02*
X0167167Y0192341D01*
X0167111Y0192285D02*
X0168444Y0193618D01*
X0169165Y0195360D01*
X0169165Y0197245D01*
X0168444Y0198987D01*
X0167111Y0200320D01*
X0165369Y0201041D01*
X0163484Y0201041D01*
X0161743Y0200320D01*
X0160410Y0198987D01*
X0159688Y0197245D01*
X0159688Y0195360D01*
X0160410Y0193618D01*
X0161743Y0192285D01*
X0163484Y0191564D01*
X0165369Y0191564D01*
X0167111Y0192285D01*
X0167965Y0193140D02*
X0172699Y0193140D01*
X0172088Y0193938D02*
X0168577Y0193938D01*
X0168907Y0194737D02*
X0171757Y0194737D01*
X0171499Y0195535D02*
X0169165Y0195535D01*
X0169165Y0196334D02*
X0171499Y0196334D01*
X0171499Y0197132D02*
X0169165Y0197132D01*
X0168881Y0197931D02*
X0171783Y0197931D01*
X0172114Y0198729D02*
X0168551Y0198729D01*
X0167903Y0199528D02*
X0172762Y0199528D01*
X0173570Y0200326D02*
X0167095Y0200326D01*
X0167648Y0202128D02*
X0169390Y0201406D01*
X0171275Y0201406D01*
X0173017Y0202128D01*
X0174350Y0203461D01*
X0175071Y0205202D01*
X0175071Y0207088D01*
X0174350Y0208829D01*
X0173017Y0210162D01*
X0171275Y0210884D01*
X0169390Y0210884D01*
X0167648Y0210162D01*
X0166315Y0208829D01*
X0165594Y0207088D01*
X0165594Y0205202D01*
X0166315Y0203461D01*
X0167648Y0202128D01*
X0168142Y0201923D02*
X0160712Y0201923D01*
X0161800Y0202722D02*
X0167054Y0202722D01*
X0166291Y0203520D02*
X0162563Y0203520D01*
X0162894Y0204319D02*
X0165960Y0204319D01*
X0165629Y0205117D02*
X0163225Y0205117D01*
X0163260Y0205916D02*
X0165594Y0205916D01*
X0165594Y0206714D02*
X0163260Y0206714D01*
X0163084Y0207513D02*
X0165770Y0207513D01*
X0166101Y0208311D02*
X0162753Y0208311D01*
X0162258Y0209110D02*
X0166596Y0209110D01*
X0167394Y0209908D02*
X0161459Y0209908D01*
X0159890Y0210707D02*
X0168963Y0210707D01*
X0171701Y0210707D02*
X0231674Y0210707D01*
X0231674Y0211505D02*
X0049935Y0211505D01*
X0049935Y0210707D02*
X0098097Y0210707D01*
X0098524Y0210884D02*
X0096782Y0210162D01*
X0095449Y0208829D01*
X0094728Y0207088D01*
X0094728Y0205202D01*
X0095449Y0203461D01*
X0096782Y0202128D01*
X0098524Y0201406D01*
X0100409Y0201406D01*
X0102150Y0202128D01*
X0103483Y0203461D01*
X0104205Y0205202D01*
X0104205Y0207088D01*
X0103483Y0208829D01*
X0102150Y0210162D01*
X0100409Y0210884D01*
X0098524Y0210884D01*
X0096528Y0209908D02*
X0049935Y0209908D01*
X0049935Y0209110D02*
X0095730Y0209110D01*
X0095235Y0208311D02*
X0049935Y0208311D01*
X0049935Y0207513D02*
X0094904Y0207513D01*
X0094728Y0206714D02*
X0049935Y0206714D01*
X0049935Y0205916D02*
X0094728Y0205916D01*
X0094763Y0205117D02*
X0049935Y0205117D01*
X0049935Y0204319D02*
X0095094Y0204319D01*
X0095424Y0203520D02*
X0052494Y0203520D01*
X0053293Y0202722D02*
X0096188Y0202722D01*
X0097276Y0201923D02*
X0053710Y0201923D01*
X0053710Y0201125D02*
X0197235Y0201125D01*
X0197235Y0201923D02*
X0172523Y0201923D01*
X0173611Y0202722D02*
X0197653Y0202722D01*
X0198451Y0203520D02*
X0174374Y0203520D01*
X0174705Y0204319D02*
X0195190Y0204319D01*
X0195457Y0204052D02*
X0197363Y0204052D01*
X0198613Y0205302D01*
X0199238Y0205302D01*
X0200585Y0206649D01*
X0200585Y0208554D01*
X0199238Y0209902D01*
X0197332Y0209902D01*
X0196082Y0208652D01*
X0195457Y0208652D01*
X0194110Y0207304D01*
X0194110Y0205399D01*
X0195457Y0204052D01*
X0194392Y0205117D02*
X0175036Y0205117D01*
X0175071Y0205916D02*
X0194110Y0205916D01*
X0194110Y0206714D02*
X0175071Y0206714D01*
X0174895Y0207513D02*
X0194319Y0207513D01*
X0195117Y0208311D02*
X0174564Y0208311D01*
X0174069Y0209110D02*
X0196541Y0209110D01*
X0200030Y0209110D02*
X0231674Y0209110D01*
X0231674Y0209908D02*
X0173270Y0209908D01*
X0171275Y0215186D02*
X0169390Y0215186D01*
X0167648Y0215907D01*
X0166315Y0217240D01*
X0165594Y0218982D01*
X0165594Y0220867D01*
X0166315Y0222609D01*
X0167648Y0223942D01*
X0169390Y0224663D01*
X0171275Y0224663D01*
X0173017Y0223942D01*
X0174350Y0222609D01*
X0175071Y0220867D01*
X0175071Y0218982D01*
X0174350Y0217240D01*
X0173017Y0215907D01*
X0171275Y0215186D01*
X0172028Y0215498D02*
X0180447Y0215498D01*
X0181201Y0215186D02*
X0183086Y0215186D01*
X0184828Y0215907D01*
X0186161Y0217240D01*
X0186882Y0218982D01*
X0186882Y0220867D01*
X0186161Y0222609D01*
X0184828Y0223942D01*
X0183086Y0224663D01*
X0181201Y0224663D01*
X0179459Y0223942D01*
X0178126Y0222609D01*
X0177405Y0220867D01*
X0177405Y0218982D01*
X0178126Y0217240D01*
X0179459Y0215907D01*
X0181201Y0215186D01*
X0179070Y0216296D02*
X0173406Y0216296D01*
X0174204Y0217095D02*
X0178272Y0217095D01*
X0177856Y0217894D02*
X0174620Y0217894D01*
X0174951Y0218692D02*
X0177525Y0218692D01*
X0177405Y0219491D02*
X0175071Y0219491D01*
X0175071Y0220289D02*
X0177405Y0220289D01*
X0177496Y0221088D02*
X0174980Y0221088D01*
X0174649Y0221886D02*
X0177827Y0221886D01*
X0178202Y0222685D02*
X0174274Y0222685D01*
X0173475Y0223483D02*
X0179001Y0223483D01*
X0180280Y0224282D02*
X0172196Y0224282D01*
X0173554Y0225750D02*
X0172221Y0227083D01*
X0171499Y0228824D01*
X0171499Y0230710D01*
X0172221Y0232451D01*
X0173554Y0233784D01*
X0175295Y0234506D01*
X0177180Y0234506D01*
X0178922Y0233784D01*
X0180255Y0232451D01*
X0180976Y0230710D01*
X0180976Y0228824D01*
X0180255Y0227083D01*
X0178922Y0225750D01*
X0177180Y0225028D01*
X0175295Y0225028D01*
X0173554Y0225750D01*
X0173425Y0225879D02*
X0143618Y0225879D01*
X0143489Y0225750D02*
X0144822Y0227083D01*
X0145543Y0228824D01*
X0145543Y0230710D01*
X0144822Y0232451D01*
X0143489Y0233784D01*
X0141747Y0234506D01*
X0139862Y0234506D01*
X0138121Y0233784D01*
X0136788Y0232451D01*
X0136066Y0230710D01*
X0136066Y0228824D01*
X0136788Y0227083D01*
X0138121Y0225750D01*
X0139862Y0225028D01*
X0141747Y0225028D01*
X0143489Y0225750D01*
X0144416Y0226677D02*
X0172626Y0226677D01*
X0172058Y0227476D02*
X0144985Y0227476D01*
X0145315Y0228274D02*
X0171727Y0228274D01*
X0171499Y0229073D02*
X0145543Y0229073D01*
X0145543Y0229871D02*
X0171499Y0229871D01*
X0171499Y0230670D02*
X0145543Y0230670D01*
X0145229Y0231468D02*
X0171814Y0231468D01*
X0172144Y0232267D02*
X0144898Y0232267D01*
X0144208Y0233065D02*
X0172835Y0233065D01*
X0173746Y0233864D02*
X0143297Y0233864D01*
X0138313Y0233864D02*
X0131486Y0233864D01*
X0131678Y0233784D02*
X0129936Y0234506D01*
X0128051Y0234506D01*
X0126310Y0233784D01*
X0124977Y0232451D01*
X0124255Y0230710D01*
X0124255Y0228824D01*
X0124977Y0227083D01*
X0126310Y0225750D01*
X0128051Y0225028D01*
X0129936Y0225028D01*
X0131678Y0225750D01*
X0133011Y0227083D01*
X0133732Y0228824D01*
X0133732Y0230710D01*
X0133011Y0232451D01*
X0131678Y0233784D01*
X0132397Y0233065D02*
X0137402Y0233065D01*
X0136711Y0232267D02*
X0133087Y0232267D01*
X0133418Y0231468D02*
X0136380Y0231468D01*
X0136066Y0230670D02*
X0133732Y0230670D01*
X0133732Y0229871D02*
X0136066Y0229871D01*
X0136066Y0229073D02*
X0133732Y0229073D01*
X0133504Y0228274D02*
X0136294Y0228274D01*
X0136625Y0227476D02*
X0133174Y0227476D01*
X0132605Y0226677D02*
X0137193Y0226677D01*
X0137992Y0225879D02*
X0131807Y0225879D01*
X0130061Y0225080D02*
X0139737Y0225080D01*
X0141872Y0225080D02*
X0175171Y0225080D01*
X0177305Y0225080D02*
X0186982Y0225080D01*
X0187106Y0225028D02*
X0188991Y0225028D01*
X0190733Y0225750D01*
X0192066Y0227083D01*
X0192787Y0228824D01*
X0192787Y0230710D01*
X0192066Y0232451D01*
X0190733Y0233784D01*
X0188991Y0234506D01*
X0187106Y0234506D01*
X0185365Y0233784D01*
X0184032Y0232451D01*
X0183310Y0230710D01*
X0183310Y0228824D01*
X0184032Y0227083D01*
X0185365Y0225750D01*
X0187106Y0225028D01*
X0189116Y0225080D02*
X0231674Y0225080D01*
X0231674Y0224282D02*
X0184007Y0224282D01*
X0185286Y0223483D02*
X0231674Y0223483D01*
X0231674Y0222685D02*
X0186085Y0222685D01*
X0186460Y0221886D02*
X0231674Y0221886D01*
X0231674Y0221088D02*
X0186791Y0221088D01*
X0186882Y0220289D02*
X0231674Y0220289D01*
X0231674Y0219491D02*
X0186882Y0219491D01*
X0186762Y0218692D02*
X0231674Y0218692D01*
X0231674Y0217894D02*
X0186431Y0217894D01*
X0186015Y0217095D02*
X0231674Y0217095D01*
X0231674Y0216296D02*
X0185217Y0216296D01*
X0183839Y0215498D02*
X0231674Y0215498D01*
X0231674Y0214699D02*
X0049935Y0214699D01*
X0049935Y0213901D02*
X0231674Y0213901D01*
X0231674Y0213102D02*
X0049935Y0213102D01*
X0049935Y0212304D02*
X0231674Y0212304D01*
X0231674Y0208311D02*
X0200585Y0208311D01*
X0200585Y0207513D02*
X0231674Y0207513D01*
X0231674Y0206714D02*
X0200585Y0206714D01*
X0199852Y0205916D02*
X0231674Y0205916D01*
X0231674Y0205117D02*
X0198428Y0205117D01*
X0197630Y0204319D02*
X0199875Y0204319D01*
X0202946Y0204319D02*
X0231674Y0204319D01*
X0231674Y0203520D02*
X0203710Y0203520D01*
X0203710Y0202722D02*
X0231674Y0202722D01*
X0231674Y0201923D02*
X0203710Y0201923D01*
X0203186Y0201125D02*
X0231674Y0201125D01*
X0231674Y0200326D02*
X0202387Y0200326D01*
X0200964Y0199528D02*
X0209459Y0199528D01*
X0212112Y0199528D02*
X0231674Y0199528D01*
X0231674Y0198729D02*
X0212910Y0198729D01*
X0213085Y0197931D02*
X0231674Y0197931D01*
X0231674Y0197132D02*
X0213085Y0197132D01*
X0212806Y0196334D02*
X0231674Y0196334D01*
X0231674Y0195535D02*
X0213085Y0195535D01*
X0213085Y0194737D02*
X0231674Y0194737D01*
X0231674Y0193938D02*
X0212874Y0193938D01*
X0213085Y0193140D02*
X0231674Y0193140D01*
X0231674Y0192341D02*
X0213085Y0192341D01*
X0212979Y0191543D02*
X0231674Y0191543D01*
X0231674Y0190744D02*
X0213085Y0190744D01*
X0213085Y0189946D02*
X0231674Y0189946D01*
X0231674Y0189147D02*
X0213083Y0189147D01*
X0212285Y0188349D02*
X0231674Y0188349D01*
X0231674Y0184356D02*
X0049935Y0184356D01*
X0049935Y0183558D02*
X0231674Y0183558D01*
X0231674Y0182759D02*
X0049935Y0182759D01*
X0049935Y0181960D02*
X0231674Y0181960D01*
X0231674Y0181162D02*
X0059852Y0181162D01*
X0060585Y0180363D02*
X0231674Y0180363D01*
X0231674Y0179565D02*
X0060585Y0179565D01*
X0056718Y0181162D02*
X0049935Y0181162D01*
X0049935Y0180363D02*
X0055985Y0180363D01*
X0055985Y0179565D02*
X0049935Y0179565D01*
X0049935Y0178766D02*
X0055985Y0178766D01*
X0056024Y0177968D02*
X0049935Y0177968D01*
X0049935Y0177169D02*
X0055985Y0177169D01*
X0055985Y0176371D02*
X0049935Y0176371D01*
X0049935Y0175572D02*
X0056437Y0175572D01*
X0057235Y0174774D02*
X0049935Y0174774D01*
X0049935Y0186752D02*
X0050360Y0186752D01*
X0050360Y0187550D02*
X0049935Y0187550D01*
X0049935Y0188349D02*
X0050360Y0188349D01*
X0049935Y0189147D02*
X0050953Y0189147D01*
X0049981Y0199528D02*
X0049935Y0199528D01*
X0049935Y0203520D02*
X0050326Y0203520D01*
X0049935Y0215498D02*
X0097770Y0215498D01*
X0098524Y0215186D02*
X0100409Y0215186D01*
X0102150Y0215907D01*
X0103483Y0217240D01*
X0104205Y0218982D01*
X0104205Y0220867D01*
X0103483Y0222609D01*
X0102150Y0223942D01*
X0100409Y0224663D01*
X0098524Y0224663D01*
X0096782Y0223942D01*
X0095449Y0222609D01*
X0094728Y0220867D01*
X0094728Y0218982D01*
X0095449Y0217240D01*
X0096782Y0215907D01*
X0098524Y0215186D01*
X0096393Y0216296D02*
X0049935Y0216296D01*
X0049935Y0217095D02*
X0095594Y0217095D01*
X0095178Y0217894D02*
X0049935Y0217894D01*
X0049935Y0218692D02*
X0094848Y0218692D01*
X0094728Y0219491D02*
X0049935Y0219491D01*
X0049935Y0220289D02*
X0094728Y0220289D01*
X0094819Y0221088D02*
X0049935Y0221088D01*
X0049935Y0221886D02*
X0095150Y0221886D01*
X0095525Y0222685D02*
X0049935Y0222685D01*
X0049935Y0223483D02*
X0096323Y0223483D01*
X0097603Y0224282D02*
X0049935Y0224282D01*
X0049935Y0225080D02*
X0092493Y0225080D01*
X0092618Y0225028D02*
X0094503Y0225028D01*
X0096245Y0225750D01*
X0097578Y0227083D01*
X0098299Y0228824D01*
X0098299Y0230710D01*
X0097578Y0232451D01*
X0096245Y0233784D01*
X0094503Y0234506D01*
X0092618Y0234506D01*
X0090877Y0233784D01*
X0089544Y0232451D01*
X0088822Y0230710D01*
X0088822Y0228824D01*
X0089544Y0227083D01*
X0090877Y0225750D01*
X0092618Y0225028D01*
X0094628Y0225080D02*
X0104304Y0225080D01*
X0104429Y0225028D02*
X0106314Y0225028D01*
X0108056Y0225750D01*
X0109389Y0227083D01*
X0110110Y0228824D01*
X0110110Y0230710D01*
X0109389Y0232451D01*
X0108056Y0233784D01*
X0106314Y0234506D01*
X0104429Y0234506D01*
X0102688Y0233784D01*
X0101355Y0232451D01*
X0100633Y0230710D01*
X0100633Y0228824D01*
X0101355Y0227083D01*
X0102688Y0225750D01*
X0104429Y0225028D01*
X0106439Y0225080D02*
X0116115Y0225080D01*
X0116240Y0225028D02*
X0118125Y0225028D01*
X0119867Y0225750D01*
X0121200Y0227083D01*
X0121921Y0228824D01*
X0121921Y0230710D01*
X0121200Y0232451D01*
X0119867Y0233784D01*
X0118125Y0234506D01*
X0116240Y0234506D01*
X0114499Y0233784D01*
X0113166Y0232451D01*
X0112444Y0230710D01*
X0112444Y0228824D01*
X0113166Y0227083D01*
X0114499Y0225750D01*
X0116240Y0225028D01*
X0118250Y0225080D02*
X0127926Y0225080D01*
X0126181Y0225879D02*
X0119996Y0225879D01*
X0120794Y0226677D02*
X0125382Y0226677D01*
X0124814Y0227476D02*
X0121363Y0227476D01*
X0121693Y0228274D02*
X0124483Y0228274D01*
X0124255Y0229073D02*
X0121921Y0229073D01*
X0121921Y0229871D02*
X0124255Y0229871D01*
X0124255Y0230670D02*
X0121921Y0230670D01*
X0121607Y0231468D02*
X0124569Y0231468D01*
X0124900Y0232267D02*
X0121276Y0232267D01*
X0120586Y0233065D02*
X0125591Y0233065D01*
X0126502Y0233864D02*
X0119675Y0233864D01*
X0114691Y0233864D02*
X0107864Y0233864D01*
X0108775Y0233065D02*
X0113780Y0233065D01*
X0113089Y0232267D02*
X0109465Y0232267D01*
X0109796Y0231468D02*
X0112758Y0231468D01*
X0112444Y0230670D02*
X0110110Y0230670D01*
X0110110Y0229871D02*
X0112444Y0229871D01*
X0112444Y0229073D02*
X0110110Y0229073D01*
X0109882Y0228274D02*
X0112672Y0228274D01*
X0113003Y0227476D02*
X0109552Y0227476D01*
X0108983Y0226677D02*
X0113571Y0226677D01*
X0114370Y0225879D02*
X0108185Y0225879D01*
X0108593Y0223942D02*
X0107260Y0222609D01*
X0106539Y0220867D01*
X0106539Y0218982D01*
X0107260Y0217240D01*
X0108593Y0215907D01*
X0110335Y0215186D01*
X0112220Y0215186D01*
X0113961Y0215907D01*
X0115294Y0217240D01*
X0116016Y0218982D01*
X0116016Y0220867D01*
X0115294Y0222609D01*
X0113961Y0223942D01*
X0112220Y0224663D01*
X0110335Y0224663D01*
X0108593Y0223942D01*
X0108134Y0223483D02*
X0102609Y0223483D01*
X0103408Y0222685D02*
X0107336Y0222685D01*
X0106961Y0221886D02*
X0103783Y0221886D01*
X0104113Y0221088D02*
X0106630Y0221088D01*
X0106539Y0220289D02*
X0104205Y0220289D01*
X0104205Y0219491D02*
X0106539Y0219491D01*
X0106659Y0218692D02*
X0104085Y0218692D01*
X0103754Y0217894D02*
X0106990Y0217894D01*
X0107405Y0217095D02*
X0103338Y0217095D01*
X0102540Y0216296D02*
X0108204Y0216296D01*
X0109581Y0215498D02*
X0101162Y0215498D01*
X0100835Y0210707D02*
X0109908Y0210707D01*
X0108339Y0209908D02*
X0102404Y0209908D01*
X0103203Y0209110D02*
X0107541Y0209110D01*
X0107046Y0208311D02*
X0103698Y0208311D01*
X0104029Y0207513D02*
X0106715Y0207513D01*
X0106539Y0206714D02*
X0104205Y0206714D01*
X0104205Y0205916D02*
X0106539Y0205916D01*
X0106574Y0205117D02*
X0104170Y0205117D01*
X0103839Y0204319D02*
X0106905Y0204319D01*
X0107235Y0203520D02*
X0103508Y0203520D01*
X0102744Y0202722D02*
X0107999Y0202722D01*
X0109087Y0201923D02*
X0101657Y0201923D01*
X0112973Y0215498D02*
X0121392Y0215498D01*
X0122146Y0215186D02*
X0120404Y0215907D01*
X0119071Y0217240D01*
X0118350Y0218982D01*
X0118350Y0220867D01*
X0119071Y0222609D01*
X0120404Y0223942D01*
X0122146Y0224663D01*
X0124031Y0224663D01*
X0125772Y0223942D01*
X0127105Y0222609D01*
X0127827Y0220867D01*
X0127827Y0218982D01*
X0127105Y0217240D01*
X0125772Y0215907D01*
X0124031Y0215186D01*
X0122146Y0215186D01*
X0120015Y0216296D02*
X0114351Y0216296D01*
X0115149Y0217095D02*
X0119216Y0217095D01*
X0118801Y0217894D02*
X0115565Y0217894D01*
X0115896Y0218692D02*
X0118470Y0218692D01*
X0118350Y0219491D02*
X0116016Y0219491D01*
X0116016Y0220289D02*
X0118350Y0220289D01*
X0118441Y0221088D02*
X0115924Y0221088D01*
X0115594Y0221886D02*
X0118772Y0221886D01*
X0119147Y0222685D02*
X0115219Y0222685D01*
X0114420Y0223483D02*
X0119945Y0223483D01*
X0121225Y0224282D02*
X0113141Y0224282D01*
X0109414Y0224282D02*
X0101330Y0224282D01*
X0102559Y0225879D02*
X0096374Y0225879D01*
X0097172Y0226677D02*
X0101760Y0226677D01*
X0101192Y0227476D02*
X0097741Y0227476D01*
X0098071Y0228274D02*
X0100861Y0228274D01*
X0100633Y0229073D02*
X0098299Y0229073D01*
X0098299Y0229871D02*
X0100633Y0229871D01*
X0100633Y0230670D02*
X0098299Y0230670D01*
X0097985Y0231468D02*
X0100947Y0231468D01*
X0101278Y0232267D02*
X0097654Y0232267D01*
X0096964Y0233065D02*
X0101969Y0233065D01*
X0102880Y0233864D02*
X0096053Y0233864D01*
X0091069Y0233864D02*
X0049935Y0233864D01*
X0049935Y0234662D02*
X0231674Y0234662D01*
X0231674Y0233864D02*
X0190541Y0233864D01*
X0191452Y0233065D02*
X0231674Y0233065D01*
X0231674Y0232267D02*
X0192142Y0232267D01*
X0192473Y0231468D02*
X0231674Y0231468D01*
X0231674Y0230670D02*
X0192787Y0230670D01*
X0192787Y0229871D02*
X0231674Y0229871D01*
X0231674Y0229073D02*
X0192787Y0229073D01*
X0192560Y0228274D02*
X0231674Y0228274D01*
X0231674Y0227476D02*
X0192229Y0227476D01*
X0191660Y0226677D02*
X0231674Y0226677D01*
X0231674Y0225879D02*
X0190862Y0225879D01*
X0185236Y0225879D02*
X0179051Y0225879D01*
X0179849Y0226677D02*
X0184437Y0226677D01*
X0183869Y0227476D02*
X0180418Y0227476D01*
X0180749Y0228274D02*
X0183538Y0228274D01*
X0183310Y0229073D02*
X0180976Y0229073D01*
X0180976Y0229871D02*
X0183310Y0229871D01*
X0183310Y0230670D02*
X0180976Y0230670D01*
X0180662Y0231468D02*
X0183625Y0231468D01*
X0183955Y0232267D02*
X0180331Y0232267D01*
X0179641Y0233065D02*
X0184646Y0233065D01*
X0185557Y0233864D02*
X0178730Y0233864D01*
X0168469Y0224282D02*
X0148574Y0224282D01*
X0149395Y0223942D02*
X0147653Y0224663D01*
X0145768Y0224663D01*
X0144026Y0223942D01*
X0142693Y0222609D01*
X0141972Y0220867D01*
X0141972Y0218982D01*
X0142693Y0217240D01*
X0144026Y0215907D01*
X0145768Y0215186D01*
X0147653Y0215186D01*
X0149395Y0215907D01*
X0150727Y0217240D01*
X0151449Y0218982D01*
X0151449Y0220867D01*
X0150727Y0222609D01*
X0149395Y0223942D01*
X0149853Y0223483D02*
X0167190Y0223483D01*
X0166391Y0222685D02*
X0150652Y0222685D01*
X0151027Y0221886D02*
X0166016Y0221886D01*
X0165685Y0221088D02*
X0151358Y0221088D01*
X0151449Y0220289D02*
X0165594Y0220289D01*
X0165594Y0219491D02*
X0151449Y0219491D01*
X0151329Y0218692D02*
X0165714Y0218692D01*
X0166045Y0217894D02*
X0150998Y0217894D01*
X0150582Y0217095D02*
X0166460Y0217095D01*
X0167259Y0216296D02*
X0149784Y0216296D01*
X0148406Y0215498D02*
X0168636Y0215498D01*
X0161759Y0200326D02*
X0155284Y0200326D01*
X0156092Y0199528D02*
X0160951Y0199528D01*
X0160303Y0198729D02*
X0156740Y0198729D01*
X0157070Y0197931D02*
X0159972Y0197931D01*
X0159688Y0197132D02*
X0157354Y0197132D01*
X0157354Y0196334D02*
X0159688Y0196334D01*
X0159688Y0195535D02*
X0157354Y0195535D01*
X0157096Y0194737D02*
X0159946Y0194737D01*
X0160277Y0193938D02*
X0156766Y0193938D01*
X0156154Y0193140D02*
X0160888Y0193140D01*
X0161687Y0192341D02*
X0155356Y0192341D01*
X0145014Y0215498D02*
X0136595Y0215498D01*
X0135842Y0215186D02*
X0137583Y0215907D01*
X0138916Y0217240D01*
X0139638Y0218982D01*
X0139638Y0220867D01*
X0138916Y0222609D01*
X0137583Y0223942D01*
X0135842Y0224663D01*
X0133957Y0224663D01*
X0132215Y0223942D01*
X0130882Y0222609D01*
X0130161Y0220867D01*
X0130161Y0218982D01*
X0130882Y0217240D01*
X0132215Y0215907D01*
X0133957Y0215186D01*
X0135842Y0215186D01*
X0137973Y0216296D02*
X0143637Y0216296D01*
X0142838Y0217095D02*
X0138771Y0217095D01*
X0139187Y0217894D02*
X0142423Y0217894D01*
X0142092Y0218692D02*
X0139518Y0218692D01*
X0139638Y0219491D02*
X0141972Y0219491D01*
X0141972Y0220289D02*
X0139638Y0220289D01*
X0139547Y0221088D02*
X0142063Y0221088D01*
X0142394Y0221886D02*
X0139216Y0221886D01*
X0138841Y0222685D02*
X0142769Y0222685D01*
X0143568Y0223483D02*
X0138042Y0223483D01*
X0136763Y0224282D02*
X0144847Y0224282D01*
X0133036Y0224282D02*
X0124952Y0224282D01*
X0126231Y0223483D02*
X0131757Y0223483D01*
X0130958Y0222685D02*
X0127030Y0222685D01*
X0127405Y0221886D02*
X0130583Y0221886D01*
X0130252Y0221088D02*
X0127736Y0221088D01*
X0127827Y0220289D02*
X0130161Y0220289D01*
X0130161Y0219491D02*
X0127827Y0219491D01*
X0127707Y0218692D02*
X0130281Y0218692D01*
X0130612Y0217894D02*
X0127376Y0217894D01*
X0126960Y0217095D02*
X0131027Y0217095D01*
X0131826Y0216296D02*
X0126162Y0216296D01*
X0124784Y0215498D02*
X0133203Y0215498D01*
X0090748Y0225879D02*
X0049935Y0225879D01*
X0049935Y0226677D02*
X0089949Y0226677D01*
X0089381Y0227476D02*
X0049935Y0227476D01*
X0049935Y0228274D02*
X0089050Y0228274D01*
X0088822Y0229073D02*
X0049935Y0229073D01*
X0049935Y0229871D02*
X0088822Y0229871D01*
X0088822Y0230670D02*
X0049935Y0230670D01*
X0049935Y0231468D02*
X0089136Y0231468D01*
X0089467Y0232267D02*
X0049935Y0232267D01*
X0049935Y0233065D02*
X0090158Y0233065D01*
X0071711Y0250885D02*
X0072913Y0253787D01*
X0072913Y0256928D01*
X0071711Y0259830D01*
X0069490Y0262052D01*
X0066588Y0263254D01*
X0063447Y0263254D01*
X0060545Y0262052D01*
X0058323Y0259830D01*
X0057121Y0256928D01*
X0057121Y0253787D01*
X0058323Y0250885D01*
X0060545Y0248664D01*
X0063447Y0247462D01*
X0066588Y0247462D01*
X0069490Y0248664D01*
X0071711Y0250885D01*
X0071459Y0250632D02*
X0210151Y0250632D01*
X0209898Y0250885D02*
X0212119Y0248664D01*
X0215022Y0247462D01*
X0218163Y0247462D01*
X0221065Y0248664D01*
X0223286Y0250885D01*
X0224488Y0253787D01*
X0224488Y0256928D01*
X0223286Y0259830D01*
X0221065Y0262052D01*
X0218163Y0263254D01*
X0215022Y0263254D01*
X0212119Y0262052D01*
X0209898Y0259830D01*
X0208696Y0256928D01*
X0208696Y0253787D01*
X0209898Y0250885D01*
X0209672Y0251431D02*
X0071938Y0251431D01*
X0072268Y0252229D02*
X0209341Y0252229D01*
X0209011Y0253028D02*
X0072599Y0253028D01*
X0072913Y0253827D02*
X0208696Y0253827D01*
X0208696Y0254625D02*
X0072913Y0254625D01*
X0072913Y0255424D02*
X0208696Y0255424D01*
X0208696Y0256222D02*
X0072913Y0256222D01*
X0072875Y0257021D02*
X0208734Y0257021D01*
X0209065Y0257819D02*
X0072544Y0257819D01*
X0072214Y0258618D02*
X0209396Y0258618D01*
X0209727Y0259416D02*
X0071883Y0259416D01*
X0071327Y0260215D02*
X0210283Y0260215D01*
X0211081Y0261013D02*
X0070529Y0261013D01*
X0069730Y0261812D02*
X0211880Y0261812D01*
X0213468Y0262610D02*
X0068142Y0262610D01*
X0061893Y0262610D02*
X0049935Y0262610D01*
X0049935Y0261812D02*
X0060305Y0261812D01*
X0059506Y0261013D02*
X0049935Y0261013D01*
X0049935Y0260215D02*
X0058708Y0260215D01*
X0058152Y0259416D02*
X0049935Y0259416D01*
X0049935Y0258618D02*
X0057821Y0258618D01*
X0057490Y0257819D02*
X0049935Y0257819D01*
X0049935Y0257021D02*
X0057160Y0257021D01*
X0057121Y0256222D02*
X0049935Y0256222D01*
X0049935Y0255424D02*
X0057121Y0255424D01*
X0057121Y0254625D02*
X0049935Y0254625D01*
X0049935Y0253827D02*
X0057121Y0253827D01*
X0057436Y0253028D02*
X0049935Y0253028D01*
X0049935Y0252229D02*
X0057766Y0252229D01*
X0058097Y0251431D02*
X0049935Y0251431D01*
X0049935Y0250632D02*
X0058576Y0250632D01*
X0059374Y0249834D02*
X0049935Y0249834D01*
X0049935Y0249035D02*
X0060173Y0249035D01*
X0061575Y0248237D02*
X0049935Y0248237D01*
X0049935Y0247438D02*
X0231674Y0247438D01*
X0231674Y0246640D02*
X0049935Y0246640D01*
X0049935Y0245841D02*
X0231674Y0245841D01*
X0231674Y0245043D02*
X0049935Y0245043D01*
X0049935Y0244244D02*
X0231674Y0244244D01*
X0231674Y0243446D02*
X0049935Y0243446D01*
X0049935Y0242647D02*
X0231674Y0242647D01*
X0231674Y0241849D02*
X0049935Y0241849D01*
X0049935Y0241050D02*
X0231674Y0241050D01*
X0231674Y0240252D02*
X0049935Y0240252D01*
X0049935Y0239453D02*
X0231674Y0239453D01*
X0231674Y0238655D02*
X0049935Y0238655D01*
X0049935Y0237856D02*
X0231674Y0237856D01*
X0231674Y0237058D02*
X0049935Y0237058D01*
X0049935Y0236259D02*
X0231674Y0236259D01*
X0231674Y0235461D02*
X0049935Y0235461D01*
X0068460Y0248237D02*
X0213150Y0248237D01*
X0211748Y0249035D02*
X0069862Y0249035D01*
X0070661Y0249834D02*
X0210949Y0249834D01*
X0220035Y0248237D02*
X0231674Y0248237D01*
X0231674Y0249035D02*
X0221437Y0249035D01*
X0222235Y0249834D02*
X0231674Y0249834D01*
X0231674Y0250632D02*
X0223034Y0250632D01*
X0223512Y0251431D02*
X0231674Y0251431D01*
X0231674Y0252229D02*
X0223843Y0252229D01*
X0224174Y0253028D02*
X0231674Y0253028D01*
X0231674Y0253827D02*
X0224488Y0253827D01*
X0224488Y0254625D02*
X0231674Y0254625D01*
X0231674Y0255424D02*
X0224488Y0255424D01*
X0224488Y0256222D02*
X0231674Y0256222D01*
X0231674Y0257021D02*
X0224450Y0257021D01*
X0224119Y0257819D02*
X0231674Y0257819D01*
X0231674Y0258618D02*
X0223788Y0258618D01*
X0223458Y0259416D02*
X0231674Y0259416D01*
X0231674Y0260215D02*
X0222902Y0260215D01*
X0222103Y0261013D02*
X0231674Y0261013D01*
X0231674Y0261812D02*
X0221305Y0261812D01*
X0219716Y0262610D02*
X0231674Y0262610D01*
X0231674Y0263409D02*
X0049935Y0263409D01*
X0049935Y0264207D02*
X0231674Y0264207D01*
X0231674Y0265006D02*
X0049935Y0265006D01*
X0049935Y0265804D02*
X0231674Y0265804D01*
X0231674Y0266603D02*
X0049935Y0266603D01*
X0049935Y0267401D02*
X0231674Y0267401D01*
X0121327Y0111691D02*
X0119323Y0111691D01*
X0094993Y0086938D02*
X0090327Y0086938D01*
X0087493Y0086938D02*
X0082827Y0086938D01*
X0083625Y0086139D02*
X0086695Y0086139D01*
X0086610Y0085341D02*
X0083710Y0085341D01*
X0083710Y0084542D02*
X0086610Y0084542D01*
X0087015Y0083744D02*
X0083305Y0083744D01*
X0082506Y0082945D02*
X0087814Y0082945D01*
X0090006Y0082945D02*
X0090939Y0082945D01*
X0094381Y0082945D02*
X0095314Y0082945D01*
X0108485Y0081348D02*
X0049935Y0081348D01*
X0049935Y0080550D02*
X0108485Y0080550D01*
X0111848Y0074161D02*
X0112223Y0074161D01*
X0074448Y0100512D02*
X0156610Y0100512D01*
X0156670Y0099714D02*
X0073650Y0099714D01*
X0071677Y0157207D02*
X0069893Y0157207D01*
X0070691Y0158005D02*
X0070879Y0158005D01*
X0071130Y0161199D02*
X0070440Y0161199D01*
X0067380Y0161199D02*
X0066690Y0161199D01*
X0063630Y0161199D02*
X0049935Y0161199D01*
X0049935Y0160401D02*
X0062860Y0160401D01*
X0062860Y0159602D02*
X0049935Y0159602D01*
X0049935Y0158804D02*
X0062860Y0158804D01*
X0063379Y0158005D02*
X0049935Y0158005D01*
X0049935Y0157207D02*
X0064177Y0157207D01*
X0066143Y0157207D02*
X0067927Y0157207D01*
X0067129Y0158005D02*
X0066941Y0158005D01*
X0162437Y0079751D02*
X0165383Y0079751D01*
X0165360Y0080550D02*
X0163236Y0080550D01*
X0163710Y0081348D02*
X0165360Y0081348D01*
X0165827Y0082147D02*
X0163710Y0082147D01*
X0164381Y0082945D02*
X0166626Y0082945D01*
X0167235Y0083744D02*
X0165180Y0083744D01*
X0165585Y0084542D02*
X0167235Y0084542D01*
X0167771Y0085341D02*
X0165585Y0085341D01*
X0165500Y0086139D02*
X0168570Y0086139D01*
X0170500Y0086139D02*
X0208570Y0086139D01*
X0208196Y0086938D02*
X0164702Y0086938D01*
X0163710Y0087736D02*
X0207860Y0087736D01*
X0207860Y0088535D02*
X0163710Y0088535D01*
X0164519Y0089333D02*
X0208014Y0089333D01*
X0208812Y0090132D02*
X0165318Y0090132D01*
X0165585Y0090930D02*
X0180454Y0090930D01*
X0179735Y0091729D02*
X0165585Y0091729D01*
X0165362Y0092527D02*
X0179735Y0092527D01*
X0179735Y0093326D02*
X0164564Y0093326D01*
X0171299Y0085341D02*
X0207860Y0085341D01*
X0207860Y0084542D02*
X0171835Y0084542D01*
X0171835Y0083744D02*
X0207860Y0083744D01*
X0208439Y0082945D02*
X0171835Y0082945D01*
X0168485Y0078154D02*
X0162860Y0078154D01*
X0163085Y0077356D02*
X0168485Y0077356D01*
X0169202Y0076557D02*
X0163085Y0076557D01*
X0162062Y0078953D02*
X0166182Y0078953D01*
X0169960Y0070169D02*
X0170100Y0070169D01*
X0178797Y0070967D02*
X0180273Y0070967D01*
X0180034Y0066975D02*
X0179036Y0066975D01*
D14*
X0146410Y0107602D02*
X0146410Y0138227D01*
X0147660Y0138852D01*
X0178285Y0146977D02*
X0178285Y0115102D01*
X0180785Y0113227D01*
X0183285Y0115727D02*
X0183285Y0119477D01*
X0179535Y0123227D01*
X0179535Y0146352D01*
X0183285Y0150102D01*
X0190785Y0151977D01*
X0188285Y0155102D02*
X0180785Y0149477D01*
X0178285Y0146977D01*
M02*
