G75*
%MOIN*%
%OFA0B0*%
%FSLAX25Y25*%
%IPPOS*%
%LPD*%
%AMOC8*
5,1,8,0,0,1.08239X$1,22.5*
%
%ADD10R,0.03556X0.04343*%
%ADD11R,0.04343X0.03556*%
%ADD12R,0.03556X0.04737*%
%ADD13R,0.04737X0.05131*%
%ADD14R,0.05800X0.03000*%
%ADD15R,0.03000X0.05800*%
%ADD16R,0.09304X0.07808*%
%ADD17R,0.03950X0.03950*%
%ADD18R,0.11824X0.05524*%
%ADD19R,0.05131X0.04737*%
%ADD20R,0.03162X0.04343*%
%ADD21R,0.05524X0.06312*%
%ADD22R,0.05918X0.06706*%
%ADD23R,0.06706X0.05918*%
%ADD24R,0.07099X0.11430*%
%ADD25R,0.06706X0.09068*%
%ADD26R,0.10249X0.07887*%
%ADD27R,0.04737X0.06312*%
%ADD28R,0.03162X0.09461*%
%ADD29R,0.03556X0.01981*%
%ADD30R,0.01981X0.03556*%
%ADD31R,0.11430X0.11430*%
%ADD32R,0.06706X0.02178*%
%ADD33R,0.02178X0.06706*%
%ADD34R,0.01784X0.03950*%
%ADD35R,0.01784X0.01784*%
%ADD36R,0.13780X0.13780*%
%ADD37R,0.02953X0.01378*%
%ADD38R,0.01378X0.02953*%
%ADD39C,0.08477*%
%ADD40C,0.13792*%
%ADD41OC8,0.06800*%
%ADD42R,0.01981X0.02572*%
%ADD43R,0.06312X0.04737*%
%ADD44C,0.03600*%
D10*
X0066976Y0090727D03*
X0066976Y0095727D03*
X0072094Y0095727D03*
X0072094Y0090727D03*
X0072094Y0101977D03*
X0066976Y0101977D03*
X0062094Y0101977D03*
X0056976Y0101977D03*
X0054476Y0093852D03*
X0059594Y0093852D03*
X0065726Y0108227D03*
X0070844Y0108227D03*
X0057719Y0125102D03*
X0057719Y0129477D03*
X0052601Y0129477D03*
X0052601Y0125102D03*
X0052601Y0136977D03*
X0052601Y0141352D03*
X0057719Y0141352D03*
X0057719Y0136977D03*
X0066351Y0155102D03*
X0071469Y0155102D03*
X0076351Y0159477D03*
X0081469Y0159477D03*
X0082601Y0155102D03*
X0087719Y0155102D03*
X0093226Y0155102D03*
X0098344Y0155102D03*
X0105726Y0156977D03*
X0105726Y0161352D03*
X0110844Y0161352D03*
X0110844Y0156977D03*
X0111469Y0146977D03*
X0111469Y0142602D03*
X0110726Y0138227D03*
X0109476Y0133852D03*
X0106976Y0129477D03*
X0106976Y0125102D03*
X0106976Y0120727D03*
X0108226Y0116352D03*
X0110219Y0111977D03*
X0113344Y0116352D03*
X0112094Y0120727D03*
X0112094Y0125102D03*
X0112094Y0129477D03*
X0114594Y0133852D03*
X0115844Y0138227D03*
X0118226Y0142602D03*
X0118226Y0146977D03*
X0123344Y0146977D03*
X0123344Y0142602D03*
X0130726Y0142602D03*
X0130726Y0146977D03*
X0135844Y0146977D03*
X0135844Y0142602D03*
X0141351Y0135102D03*
X0141351Y0130727D03*
X0146469Y0130727D03*
X0146469Y0135102D03*
X0146469Y0124477D03*
X0146469Y0120102D03*
X0146469Y0115727D03*
X0146469Y0111352D03*
X0141351Y0111352D03*
X0141351Y0115727D03*
X0141351Y0120102D03*
X0141351Y0124477D03*
X0156976Y0141352D03*
X0160101Y0145727D03*
X0162094Y0141352D03*
X0165219Y0145727D03*
X0152094Y0169477D03*
X0146976Y0169477D03*
X0110844Y0182602D03*
X0105726Y0182602D03*
X0098344Y0168852D03*
X0098344Y0164477D03*
X0093226Y0164477D03*
X0093226Y0168852D03*
X0085844Y0168852D03*
X0085844Y0164477D03*
X0080726Y0164477D03*
X0080726Y0168852D03*
X0073344Y0168852D03*
X0073344Y0164477D03*
X0068226Y0164477D03*
X0063969Y0164477D03*
X0058851Y0164477D03*
X0056976Y0159477D03*
X0062094Y0159477D03*
X0068226Y0168852D03*
X0106351Y0146977D03*
X0106351Y0142602D03*
X0105101Y0111977D03*
X0102601Y0091977D03*
X0102601Y0087602D03*
X0107719Y0087602D03*
X0107719Y0091977D03*
X0097719Y0084477D03*
X0092601Y0084477D03*
X0087094Y0081352D03*
X0081976Y0081352D03*
X0101351Y0056977D03*
X0106469Y0056977D03*
X0168851Y0056352D03*
X0173969Y0056352D03*
X0186351Y0056352D03*
X0191469Y0056352D03*
X0196976Y0131977D03*
X0195726Y0136352D03*
X0200844Y0136352D03*
X0202094Y0131977D03*
X0210726Y0131977D03*
X0215844Y0131977D03*
X0215726Y0136352D03*
X0220844Y0136352D03*
D11*
X0222035Y0107036D03*
X0222035Y0101918D03*
X0222035Y0093286D03*
X0222035Y0088168D03*
X0222035Y0079536D03*
X0222035Y0074418D03*
X0222035Y0070161D03*
X0222035Y0065043D03*
X0222035Y0060786D03*
X0217660Y0060786D03*
X0217660Y0055668D03*
X0222035Y0055668D03*
X0156410Y0128793D03*
X0156410Y0133911D03*
X0170785Y0141918D03*
X0175160Y0141918D03*
X0179535Y0141918D03*
X0179535Y0147036D03*
X0175160Y0147036D03*
X0170785Y0147036D03*
X0156410Y0153793D03*
X0156410Y0158911D03*
X0158910Y0165668D03*
X0158910Y0170786D03*
X0165160Y0176918D03*
X0165160Y0182036D03*
X0177660Y0182661D03*
X0177660Y0177543D03*
X0190785Y0136411D03*
X0190785Y0131293D03*
X0146410Y0103286D03*
X0142035Y0101918D03*
X0142035Y0107036D03*
X0146410Y0098168D03*
X0147035Y0090786D03*
X0147035Y0085668D03*
X0138285Y0082661D03*
X0138285Y0077543D03*
X0150785Y0063286D03*
X0150785Y0058168D03*
X0113285Y0066918D03*
X0113285Y0072036D03*
X0113285Y0085668D03*
X0113285Y0090786D03*
X0115785Y0098168D03*
X0115785Y0103286D03*
X0102035Y0120668D03*
X0102035Y0125786D03*
X0102035Y0133168D03*
X0102035Y0138286D03*
X0102035Y0143793D03*
X0102035Y0148911D03*
X0062035Y0183793D03*
X0057035Y0183793D03*
X0057035Y0188911D03*
X0062035Y0188911D03*
X0051410Y0191293D03*
X0051410Y0196411D03*
X0051410Y0205043D03*
X0051410Y0210161D03*
X0051410Y0214418D03*
X0051410Y0219536D03*
X0068910Y0086411D03*
X0073285Y0086411D03*
X0073285Y0081293D03*
X0068910Y0081293D03*
X0222035Y0205043D03*
X0222035Y0210161D03*
X0222035Y0214418D03*
X0222035Y0219536D03*
D12*
X0059525Y0084432D03*
X0052045Y0084432D03*
X0055785Y0075771D03*
D13*
X0053064Y0107602D03*
X0059757Y0107602D03*
X0059757Y0115727D03*
X0053064Y0115727D03*
X0056189Y0150102D03*
X0062882Y0150102D03*
X0099939Y0078227D03*
X0106632Y0078227D03*
X0158910Y0176130D03*
X0158910Y0182823D03*
X0210160Y0182198D03*
X0210160Y0175505D03*
D14*
X0096435Y0143625D03*
X0096435Y0140476D03*
X0096435Y0137326D03*
X0096435Y0134176D03*
X0096435Y0131027D03*
X0096435Y0127877D03*
X0096435Y0124728D03*
X0096435Y0121578D03*
X0062635Y0121578D03*
X0062635Y0124728D03*
X0062635Y0127877D03*
X0062635Y0131027D03*
X0062635Y0134176D03*
X0062635Y0137326D03*
X0062635Y0140476D03*
X0062635Y0143625D03*
D15*
X0068512Y0149502D03*
X0071661Y0149502D03*
X0074811Y0149502D03*
X0077960Y0149502D03*
X0081110Y0149502D03*
X0084260Y0149502D03*
X0087409Y0149502D03*
X0090559Y0149502D03*
X0090559Y0115702D03*
X0087409Y0115702D03*
X0084260Y0115702D03*
X0081110Y0115702D03*
X0077960Y0115702D03*
X0074811Y0115702D03*
X0071661Y0115702D03*
X0068512Y0115702D03*
D16*
X0082035Y0073758D03*
X0082035Y0057735D03*
D17*
X0195332Y0056352D03*
X0201238Y0056352D03*
X0213285Y0055899D03*
X0213285Y0061804D03*
X0222035Y0111524D03*
X0222035Y0117429D03*
D18*
X0055160Y0057356D03*
X0055160Y0070348D03*
D19*
X0093285Y0072380D03*
X0093285Y0079073D03*
X0164939Y0151977D03*
X0171632Y0151977D03*
D20*
X0108275Y0071504D03*
X0104535Y0071504D03*
X0100795Y0071504D03*
X0100795Y0062449D03*
X0104535Y0062449D03*
X0108275Y0062449D03*
D21*
X0138689Y0062021D03*
X0145382Y0062021D03*
X0145382Y0070682D03*
X0138689Y0070682D03*
X0111007Y0097646D03*
X0104314Y0097646D03*
X0104314Y0106307D03*
X0111007Y0106307D03*
D22*
X0123295Y0079477D03*
X0130775Y0079477D03*
D23*
X0093285Y0065092D03*
X0093285Y0057612D03*
X0143910Y0175112D03*
X0143910Y0182592D03*
X0152035Y0182592D03*
X0152035Y0175112D03*
X0183285Y0175505D03*
X0183285Y0182198D03*
X0190785Y0182592D03*
X0190785Y0175112D03*
X0201410Y0175112D03*
X0201410Y0182592D03*
X0218910Y0182592D03*
X0218910Y0175112D03*
D24*
X0130672Y0069477D03*
X0119648Y0069477D03*
D25*
X0115574Y0058852D03*
X0129747Y0058852D03*
X0132872Y0170727D03*
X0132872Y0180727D03*
X0118699Y0180727D03*
X0118699Y0170727D03*
X0067247Y0228852D03*
X0053074Y0228852D03*
X0206824Y0228852D03*
X0220997Y0228852D03*
D26*
X0067660Y0073699D03*
X0067660Y0057754D03*
D27*
X0117045Y0152646D03*
X0124525Y0152646D03*
X0129545Y0152646D03*
X0137025Y0152646D03*
X0133285Y0161307D03*
X0120785Y0161307D03*
X0112025Y0167021D03*
X0104545Y0167021D03*
X0099525Y0174521D03*
X0092045Y0174521D03*
X0087025Y0174521D03*
X0079545Y0174521D03*
X0074525Y0174521D03*
X0067045Y0174521D03*
X0062025Y0169521D03*
X0054545Y0169521D03*
X0058285Y0178182D03*
X0070785Y0183182D03*
X0064525Y0194521D03*
X0057045Y0194521D03*
X0060785Y0203182D03*
X0083285Y0183182D03*
X0095785Y0183182D03*
X0108285Y0175682D03*
D28*
X0185785Y0165338D03*
X0190785Y0165338D03*
X0195785Y0165338D03*
X0200785Y0165338D03*
X0205785Y0165338D03*
X0210785Y0165338D03*
X0215785Y0165338D03*
X0220785Y0165338D03*
X0220785Y0144865D03*
X0215785Y0144865D03*
X0210785Y0144865D03*
X0205785Y0144865D03*
X0200785Y0144865D03*
X0195785Y0144865D03*
X0190785Y0144865D03*
X0185785Y0144865D03*
D29*
X0178935Y0136411D03*
X0178935Y0133852D03*
X0178935Y0131293D03*
X0172636Y0131293D03*
X0172636Y0133852D03*
X0172636Y0136411D03*
X0168310Y0136411D03*
X0168310Y0133852D03*
X0168310Y0131293D03*
X0162011Y0131293D03*
X0162011Y0133852D03*
X0162011Y0136411D03*
X0163536Y0160180D03*
X0163536Y0162149D03*
X0163536Y0164117D03*
X0163536Y0166086D03*
X0163536Y0168054D03*
X0163536Y0170023D03*
X0179284Y0170023D03*
X0179284Y0168054D03*
X0179284Y0166086D03*
X0179284Y0164117D03*
X0179284Y0162149D03*
X0179284Y0160180D03*
D30*
X0176331Y0157228D03*
X0174363Y0157228D03*
X0172394Y0157228D03*
X0170426Y0157228D03*
X0168457Y0157228D03*
X0166489Y0157228D03*
X0166489Y0172976D03*
X0168457Y0172976D03*
X0170426Y0172976D03*
X0172394Y0172976D03*
X0174363Y0172976D03*
X0176331Y0172976D03*
D31*
X0171410Y0165102D03*
D32*
X0153039Y0117474D03*
X0153039Y0115505D03*
X0153039Y0113537D03*
X0153039Y0111568D03*
X0153039Y0109600D03*
X0153039Y0107631D03*
X0153039Y0105663D03*
X0153039Y0103694D03*
X0153039Y0101726D03*
X0153039Y0099757D03*
X0153039Y0097789D03*
X0153039Y0095820D03*
X0153039Y0093852D03*
X0153039Y0091883D03*
X0153039Y0089915D03*
X0153039Y0087946D03*
X0153039Y0085978D03*
X0153039Y0084009D03*
X0153039Y0082041D03*
X0153039Y0080072D03*
X0153039Y0078104D03*
X0153039Y0076135D03*
X0153039Y0074167D03*
X0153039Y0072198D03*
X0153039Y0070230D03*
X0216031Y0070230D03*
X0216031Y0072198D03*
X0216031Y0074167D03*
X0216031Y0076135D03*
X0216031Y0078104D03*
X0216031Y0080072D03*
X0216031Y0082041D03*
X0216031Y0084009D03*
X0216031Y0085978D03*
X0216031Y0087946D03*
X0216031Y0089915D03*
X0216031Y0091883D03*
X0216031Y0093852D03*
X0216031Y0095820D03*
X0216031Y0097789D03*
X0216031Y0099757D03*
X0216031Y0101726D03*
X0216031Y0103694D03*
X0216031Y0105663D03*
X0216031Y0107631D03*
X0216031Y0109600D03*
X0216031Y0111568D03*
X0216031Y0113537D03*
X0216031Y0115505D03*
X0216031Y0117474D03*
D33*
X0208157Y0125348D03*
X0206189Y0125348D03*
X0204220Y0125348D03*
X0202252Y0125348D03*
X0200283Y0125348D03*
X0198315Y0125348D03*
X0196346Y0125348D03*
X0194378Y0125348D03*
X0192409Y0125348D03*
X0190441Y0125348D03*
X0188472Y0125348D03*
X0186504Y0125348D03*
X0184535Y0125348D03*
X0182567Y0125348D03*
X0180598Y0125348D03*
X0178630Y0125348D03*
X0176661Y0125348D03*
X0174693Y0125348D03*
X0172724Y0125348D03*
X0170756Y0125348D03*
X0168787Y0125348D03*
X0166819Y0125348D03*
X0164850Y0125348D03*
X0162882Y0125348D03*
X0160913Y0125348D03*
X0160913Y0062356D03*
X0162882Y0062356D03*
X0164850Y0062356D03*
X0166819Y0062356D03*
X0168787Y0062356D03*
X0170756Y0062356D03*
X0172724Y0062356D03*
X0174693Y0062356D03*
X0176661Y0062356D03*
X0178630Y0062356D03*
X0180598Y0062356D03*
X0182567Y0062356D03*
X0184535Y0062356D03*
X0186504Y0062356D03*
X0188472Y0062356D03*
X0190441Y0062356D03*
X0192409Y0062356D03*
X0194378Y0062356D03*
X0196346Y0062356D03*
X0198315Y0062356D03*
X0200283Y0062356D03*
X0202252Y0062356D03*
X0204220Y0062356D03*
X0206189Y0062356D03*
X0208157Y0062356D03*
D34*
X0150972Y0144993D03*
X0149004Y0144993D03*
X0147035Y0144993D03*
X0145067Y0144993D03*
X0143098Y0144993D03*
X0143098Y0162710D03*
X0145067Y0162710D03*
X0147035Y0162710D03*
X0149004Y0162710D03*
X0150972Y0162710D03*
D35*
X0097793Y0088719D03*
D36*
X0088285Y0098227D03*
D37*
X0079033Y0099211D03*
X0079033Y0101179D03*
X0079033Y0103148D03*
X0079033Y0105116D03*
X0079033Y0097242D03*
X0079033Y0095274D03*
X0079033Y0093305D03*
X0079033Y0091337D03*
X0097537Y0091337D03*
X0097537Y0093305D03*
X0097537Y0095274D03*
X0097537Y0097242D03*
X0097537Y0099211D03*
X0097537Y0101179D03*
X0097537Y0103148D03*
X0097537Y0105116D03*
D38*
X0095175Y0107479D03*
X0093206Y0107479D03*
X0091238Y0107479D03*
X0089269Y0107479D03*
X0087301Y0107479D03*
X0085332Y0107479D03*
X0083364Y0107479D03*
X0081395Y0107479D03*
X0081395Y0088975D03*
X0083364Y0088975D03*
X0085332Y0088975D03*
X0087301Y0088975D03*
X0089269Y0088975D03*
X0091238Y0088975D03*
X0093206Y0088975D03*
X0095175Y0088975D03*
D39*
X0089624Y0196302D03*
X0095529Y0206145D03*
X0101435Y0196302D03*
X0107340Y0206145D03*
X0113246Y0196302D03*
X0119151Y0206145D03*
X0125057Y0196302D03*
X0130962Y0206145D03*
X0136868Y0196302D03*
X0142773Y0206145D03*
X0148679Y0196302D03*
X0154584Y0206145D03*
X0160490Y0196302D03*
X0166395Y0206145D03*
X0172301Y0196302D03*
X0178206Y0206145D03*
X0184112Y0196302D03*
X0178206Y0219924D03*
X0172301Y0229767D03*
X0166395Y0219924D03*
X0160490Y0229767D03*
X0154584Y0219924D03*
X0148679Y0229767D03*
X0142773Y0219924D03*
X0136868Y0229767D03*
X0130962Y0219924D03*
X0125057Y0229767D03*
X0119151Y0219924D03*
X0113246Y0229767D03*
X0107340Y0219924D03*
X0101435Y0229767D03*
X0095529Y0219924D03*
X0089624Y0229767D03*
X0184112Y0229767D03*
D40*
X0212655Y0255358D03*
X0061080Y0255358D03*
D41*
X0123285Y0132602D03*
X0123285Y0122602D03*
X0133285Y0122602D03*
X0133285Y0132602D03*
X0133285Y0112602D03*
X0123285Y0112602D03*
X0123285Y0102602D03*
X0123285Y0092602D03*
X0133285Y0092602D03*
X0133285Y0102602D03*
D42*
X0169442Y0178694D03*
X0171410Y0178694D03*
X0173379Y0178694D03*
X0173379Y0184009D03*
X0171410Y0184009D03*
X0169442Y0184009D03*
D43*
X0207704Y0217602D03*
X0216366Y0221342D03*
X0216366Y0213862D03*
X0065741Y0217602D03*
X0057079Y0221342D03*
X0057079Y0213862D03*
D44*
X0058285Y0213852D03*
X0055785Y0213852D03*
X0051410Y0201352D03*
X0052660Y0187602D03*
X0058285Y0179477D03*
X0058285Y0176977D03*
X0065785Y0179477D03*
X0065785Y0181977D03*
X0065785Y0184477D03*
X0064535Y0193227D03*
X0064535Y0195727D03*
X0077035Y0184477D03*
X0077035Y0181977D03*
X0077035Y0179477D03*
X0089535Y0179477D03*
X0089535Y0181977D03*
X0089535Y0184477D03*
X0103910Y0178852D03*
X0103910Y0176352D03*
X0113285Y0177602D03*
X0113285Y0175102D03*
X0118910Y0170727D03*
X0116410Y0160102D03*
X0116410Y0157602D03*
X0111410Y0152602D03*
X0106410Y0150727D03*
X0102035Y0155102D03*
X0102035Y0158852D03*
X0098285Y0160727D03*
X0088910Y0164477D03*
X0085160Y0159477D03*
X0076410Y0164477D03*
X0072660Y0159477D03*
X0068910Y0159477D03*
X0065160Y0159477D03*
X0062660Y0155102D03*
X0057035Y0153852D03*
X0055160Y0164477D03*
X0075785Y0154477D03*
X0078910Y0144477D03*
X0076410Y0135102D03*
X0078910Y0132602D03*
X0081410Y0125727D03*
X0084535Y0123852D03*
X0087035Y0121352D03*
X0091410Y0124477D03*
X0091410Y0127602D03*
X0094535Y0115102D03*
X0099535Y0113227D03*
X0098285Y0109477D03*
X0100785Y0116977D03*
X0104535Y0116977D03*
X0113910Y0111977D03*
X0117660Y0110102D03*
X0115785Y0106977D03*
X0117035Y0091977D03*
X0117035Y0085102D03*
X0113285Y0081352D03*
X0110785Y0081352D03*
X0110785Y0078852D03*
X0113285Y0078852D03*
X0113285Y0076352D03*
X0110785Y0076352D03*
X0107035Y0078227D03*
X0101410Y0083852D03*
X0089535Y0085102D03*
X0081410Y0085102D03*
X0077035Y0081352D03*
X0075160Y0076977D03*
X0080160Y0075102D03*
X0080160Y0071977D03*
X0083910Y0071977D03*
X0083910Y0075102D03*
X0075785Y0089477D03*
X0075785Y0095102D03*
X0072660Y0101977D03*
X0066410Y0101977D03*
X0063910Y0095727D03*
X0063910Y0090727D03*
X0053910Y0101977D03*
X0050785Y0093852D03*
X0052035Y0088852D03*
X0051410Y0070727D03*
X0055160Y0070727D03*
X0058910Y0070727D03*
X0065160Y0059477D03*
X0067660Y0059477D03*
X0070160Y0059477D03*
X0070160Y0056352D03*
X0067660Y0056352D03*
X0065160Y0056352D03*
X0092035Y0057602D03*
X0094535Y0057602D03*
X0088285Y0094477D03*
X0088285Y0098227D03*
X0088285Y0101977D03*
X0092035Y0098227D03*
X0084535Y0098227D03*
X0076410Y0122602D03*
X0068910Y0130102D03*
X0071410Y0132602D03*
X0068285Y0136977D03*
X0067660Y0140727D03*
X0052660Y0133227D03*
X0055160Y0121352D03*
X0091410Y0140102D03*
X0103910Y0129477D03*
X0106410Y0133852D03*
X0106410Y0138227D03*
X0114535Y0142602D03*
X0126410Y0142602D03*
X0139535Y0144477D03*
X0142660Y0150102D03*
X0145160Y0152602D03*
X0148285Y0150102D03*
X0152035Y0153852D03*
X0156410Y0150102D03*
X0160785Y0151977D03*
X0157035Y0145727D03*
X0153910Y0141352D03*
X0152660Y0137602D03*
X0156410Y0136977D03*
X0162035Y0141352D03*
X0165160Y0138227D03*
X0170785Y0141352D03*
X0165785Y0145727D03*
X0178285Y0150727D03*
X0180785Y0155102D03*
X0183285Y0151977D03*
X0190785Y0141977D03*
X0195785Y0141977D03*
X0195785Y0144477D03*
X0204535Y0138227D03*
X0200160Y0120102D03*
X0183285Y0115727D03*
X0180785Y0118227D03*
X0180785Y0113227D03*
X0175785Y0119477D03*
X0170785Y0119477D03*
X0162660Y0119477D03*
X0156410Y0121977D03*
X0156410Y0125727D03*
X0149535Y0130727D03*
X0147660Y0138852D03*
X0143910Y0138852D03*
X0143910Y0158227D03*
X0138285Y0157602D03*
X0138285Y0160102D03*
X0138285Y0162602D03*
X0127035Y0162602D03*
X0127035Y0160102D03*
X0127035Y0157602D03*
X0107660Y0186977D03*
X0156410Y0161977D03*
X0163285Y0173227D03*
X0168910Y0167602D03*
X0173910Y0167602D03*
X0173910Y0162602D03*
X0168910Y0162602D03*
X0183285Y0175727D03*
X0177660Y0186352D03*
X0191410Y0200727D03*
X0193285Y0201977D03*
X0196410Y0196352D03*
X0194535Y0195102D03*
X0200785Y0192602D03*
X0203285Y0192602D03*
X0203285Y0190102D03*
X0200785Y0190102D03*
X0208910Y0190102D03*
X0211410Y0190102D03*
X0215160Y0221352D03*
X0217660Y0221352D03*
X0215785Y0156352D03*
X0222035Y0121352D03*
X0222035Y0098227D03*
X0210160Y0092602D03*
X0210160Y0088852D03*
X0210160Y0084477D03*
X0204535Y0097602D03*
X0222035Y0083227D03*
X0207660Y0072602D03*
X0203285Y0069477D03*
X0198285Y0070102D03*
X0187035Y0069477D03*
X0181410Y0068852D03*
X0177660Y0068852D03*
X0171410Y0068227D03*
X0171410Y0078227D03*
X0167660Y0078227D03*
X0169535Y0083852D03*
X0163285Y0085102D03*
X0161410Y0088227D03*
X0163285Y0091352D03*
X0158910Y0096977D03*
X0158910Y0100727D03*
X0169535Y0110727D03*
X0172035Y0108227D03*
X0182660Y0130727D03*
X0182660Y0134477D03*
X0146410Y0107602D03*
X0142035Y0098852D03*
X0147035Y0094477D03*
X0147035Y0082602D03*
X0142660Y0075727D03*
X0138285Y0086352D03*
X0131410Y0080727D03*
X0131410Y0078227D03*
X0130160Y0060102D03*
X0130160Y0057602D03*
X0139535Y0056977D03*
X0154535Y0059477D03*
X0162035Y0056352D03*
X0177035Y0056352D03*
X0182660Y0056352D03*
X0161410Y0077602D03*
X0161410Y0081977D03*
X0138285Y0117602D03*
X0115160Y0124477D03*
X0158910Y0186977D03*
X0217660Y0063852D03*
X0208910Y0056352D03*
X0205160Y0056352D03*
M02*
